<?xml version="1.0" encoding="us-ascii" standalone="no"?><svg xmlns="http://www.w3.org/2000/svg" xmlns:xlink="http://www.w3.org/1999/xlink" contentStyleType="text/css" height="878px" preserveAspectRatio="none" style="width:547px;height:878px;background:#FFFFFF;" version="1.1" viewBox="0 0 547 878" width="547px" zoomAndPan="magnify"><defs/><g><text fill="#000000" font-family="sans-serif" font-size="14" font-weight="bold" lengthAdjust="spacing" textLength="105" x="214" y="23.5352">Domain Model</text><!--class Manager--><g id="elem_Manager"><rect codeLine="12" fill="#F1F1F1" height="50.9766" id="Manager" rx="2.5" ry="2.5" style="stroke:#181818;stroke-width:0.5;" width="66" x="312.5" y="155.9783"/><text fill="#000000" font-family="sans-serif" font-size="14" lengthAdjust="spacing" textLength="60" x="315.5" y="174.5134">Manager</text><line style="stroke:#181818;stroke-width:0.5;" x1="313.5" x2="377.5" y1="182.4666" y2="182.4666"/><text fill="#000000" font-family="sans-serif" font-size="14" lengthAdjust="spacing" textLength="49" x="318.5" y="200.0017">section</text></g><!--class HumanResourcesManager--><g id="elem_HumanResourcesManager"><rect codeLine="16" fill="#F1F1F1" height="34.4883" id="HumanResourcesManager" rx="2.5" ry="2.5" style="stroke:#181818;stroke-width:0.5;" width="185" x="355" y="44.4883"/><text fill="#000000" font-family="sans-serif" font-size="14" lengthAdjust="spacing" textLength="179" x="358" y="63.0234">HumanResourcesManager</text><line style="stroke:#181818;stroke-width:0.5;" x1="356" x2="539" y1="70.9766" y2="70.9766"/></g><!--class GreenSpacesManager--><g id="elem_GreenSpacesManager"><rect codeLine="20" fill="#F1F1F1" height="34.4883" id="GreenSpacesManager" rx="2.5" ry="2.5" style="stroke:#181818;stroke-width:0.5;" width="154" x="166.5" y="44.4883"/><text fill="#000000" font-family="sans-serif" font-size="14" lengthAdjust="spacing" textLength="148" x="169.5" y="63.0234">GreenSpacesManager</text><line style="stroke:#181818;stroke-width:0.5;" x1="167.5" x2="319.5" y1="70.9766" y2="70.9766"/></g><!--class Agenda--><g id="elem_Agenda"><rect codeLine="26" fill="#F1F1F1" height="50.9766" id="Agenda" rx="2.5" ry="2.5" style="stroke:#181818;stroke-width:0.5;" width="107" x="7" y="391.1283"/><text fill="#000000" font-family="sans-serif" font-size="14" lengthAdjust="spacing" textLength="53" x="34" y="409.6634">Agenda</text><line style="stroke:#181818;stroke-width:0.5;" x1="8" x2="113" y1="417.6166" y2="417.6166"/><text fill="#000000" font-family="sans-serif" font-size="14" lengthAdjust="spacing" textLength="95" x="13" y="435.1517">plannedTasks</text></g><!--class Task--><g id="elem_Task"><rect codeLine="31" fill="#F1F1F1" height="116.9297" id="Task" rx="2.5" ry="2.5" style="stroke:#181818;stroke-width:0.5;" width="118" x="209.5" y="626.2783"/><text fill="#000000" font-family="sans-serif" font-size="14" lengthAdjust="spacing" textLength="32" x="252.5" y="644.8134">Task</text><line style="stroke:#181818;stroke-width:0.5;" x1="210.5" x2="326.5" y1="652.7666" y2="652.7666"/><text fill="#000000" font-family="sans-serif" font-size="14" lengthAdjust="spacing" textLength="31" x="215.5" y="670.3017">park</text><text fill="#000000" font-family="sans-serif" font-size="14" lengthAdjust="spacing" textLength="61" x="215.5" y="686.79">taskType</text><text fill="#000000" font-family="sans-serif" font-size="14" lengthAdjust="spacing" textLength="106" x="215.5" y="703.2783">taskDescription</text><text fill="#000000" font-family="sans-serif" font-size="14" lengthAdjust="spacing" textLength="50" x="215.5" y="719.7666">priority</text><text fill="#000000" font-family="sans-serif" font-size="14" lengthAdjust="spacing" textLength="41" x="215.5" y="736.2548">status</text></g><!--class ToDoList--><g id="elem_ToDoList"><rect codeLine="40" fill="#F1F1F1" height="50.9766" id="ToDoList" rx="2.5" ry="2.5" style="stroke:#181818;stroke-width:0.5;" width="108" x="214.5" y="820.2083"/><text fill="#000000" font-family="sans-serif" font-size="14" lengthAdjust="spacing" textLength="60" x="238.5" y="838.7434">ToDoList</text><line style="stroke:#181818;stroke-width:0.5;" x1="215.5" x2="321.5" y1="846.6966" y2="846.6966"/><text fill="#000000" font-family="sans-serif" font-size="14" lengthAdjust="spacing" textLength="96" x="220.5" y="864.2317">pendingTasks</text></g><!--class Vehicle--><g id="elem_Vehicle"><rect codeLine="45" fill="#F1F1F1" height="265.3242" id="Vehicle" rx="2.5" ry="2.5" style="stroke:#181818;stroke-width:0.5;" width="174" x="149.5" y="283.9583"/><text fill="#000000" font-family="sans-serif" font-size="14" lengthAdjust="spacing" textLength="49" x="212" y="302.4934">Vehicle</text><line style="stroke:#181818;stroke-width:0.5;" x1="150.5" x2="322.5" y1="310.4466" y2="310.4466"/><text fill="#000000" font-family="sans-serif" font-size="14" lengthAdjust="spacing" textLength="40" x="155.5" y="327.9817">Brand</text><text fill="#000000" font-family="sans-serif" font-size="14" lengthAdjust="spacing" textLength="42" x="155.5" y="344.47">Model</text><text fill="#000000" font-family="sans-serif" font-size="14" lengthAdjust="spacing" textLength="33" x="155.5" y="360.9583">Type</text><text fill="#000000" font-family="sans-serif" font-size="14" lengthAdjust="spacing" textLength="82" x="155.5" y="377.4466">Tare Weight</text><text fill="#000000" font-family="sans-serif" font-size="14" lengthAdjust="spacing" textLength="90" x="155.5" y="393.9348">Gross Weight</text><text fill="#000000" font-family="sans-serif" font-size="14" lengthAdjust="spacing" textLength="79" x="155.5" y="410.4231">Current Km</text><text fill="#000000" font-family="sans-serif" font-size="14" lengthAdjust="spacing" textLength="91" x="155.5" y="426.9114">Register Date</text><text fill="#000000" font-family="sans-serif" font-size="14" lengthAdjust="spacing" textLength="112" x="155.5" y="443.3997">Acquisition Date</text><text fill="#000000" font-family="sans-serif" font-size="14" lengthAdjust="spacing" textLength="162" x="155.5" y="459.888">Maintenance Frequency</text><text fill="#000000" font-family="sans-serif" font-size="14" lengthAdjust="spacing" textLength="92" x="155.5" y="476.3763">Plate Number</text><text fill="#000000" font-family="sans-serif" font-size="14" lengthAdjust="spacing" textLength="136" x="155.5" y="492.8645">Passengers Number</text><text fill="#000000" font-family="sans-serif" font-size="14" lengthAdjust="spacing" textLength="100" x="155.5" y="509.3528">Doors Number</text><text fill="#000000" font-family="sans-serif" font-size="14" lengthAdjust="spacing" textLength="66" x="155.5" y="525.8411">Fuel Type</text><text fill="#000000" font-family="sans-serif" font-size="14" lengthAdjust="spacing" textLength="113" x="155.5" y="542.3294">Trailer Machines</text></g><!--link Manager to Agenda--><g id="link_Manager_Agenda"><path codeLine="62" d="M312.28,196.0783 C272.89,212.2183 212.5,236.9583 212.5,236.9583 C212.5,236.9583 131.5,283.9583 131.5,283.9583 C131.5,283.9583 94.42,352.7183 73.85,390.8583 " fill="none" id="Manager-Agenda" style="stroke:#181818;stroke-width:1.0;"/><polygon fill="#000000" points="213.6278,248.7768,222.492,245.3304,218.7733,240.7784,213.6278,248.7768" style="stroke:#000000;stroke-width:1.0;"/><text fill="#000000" font-family="sans-serif" font-size="13" lengthAdjust="spacing" textLength="56" x="226.5" y="250.5266">manages</text><text fill="#000000" font-family="sans-serif" font-size="13" lengthAdjust="spacing" textLength="8" x="296.6034" y="195.1455">1</text><text fill="#000000" font-family="sans-serif" font-size="13" lengthAdjust="spacing" textLength="8" x="68.1291" y="380.3578">1</text></g><!--link Manager to ToDoList--><g id="link_Manager_ToDoList"><path codeLine="63" d="M369.07,207.1583 C382.82,221.5783 397.5,236.9583 397.5,236.9583 C397.5,236.9583 439.5,283.9583 439.5,283.9583 C439.5,283.9583 439.5,549.2783 439.5,549.2783 C439.5,549.2783 345.5,743.2083 345.5,743.2083 C345.5,743.2083 313.5,790.2083 313.5,790.2083 C313.5,790.2083 300.8,805.5883 288.89,820.0083 " fill="none" id="Manager-ToDoList" style="stroke:#181818;stroke-width:1.0;"/><polygon fill="#000000" points="427.8514,592.8913,431.9388,584.3039,426.1107,583.5414,427.8514,592.8913" style="stroke:#000000;stroke-width:1.0;"/><text fill="#000000" font-family="sans-serif" font-size="13" lengthAdjust="spacing" textLength="56" x="437.5" y="592.8466">manages</text><text fill="#000000" font-family="sans-serif" font-size="13" lengthAdjust="spacing" textLength="8" x="365.5956" y="227.4381">1</text><text fill="#000000" font-family="sans-serif" font-size="13" lengthAdjust="spacing" textLength="6" x="287.1288" y="809.5248">*</text></g><!--link Manager to Task--><g id="link_Manager_Task"><path codeLine="64" d="M357.28,207.1583 C364.16,221.5783 371.5,236.9583 371.5,236.9583 C371.5,236.9583 371.5,596.2783 371.5,596.2783 C371.5,596.2783 350.71,613.9283 327.82,633.3783 " fill="none" id="Manager-Task" style="stroke:#181818;stroke-width:1.0;"/><polygon fill="#000000" points="376.1552,421.7617,379.7109,412.9408,373.847,412.5354,376.1552,421.7617" style="stroke:#000000;stroke-width:1.0;"/><text fill="#000000" font-family="sans-serif" font-size="13" lengthAdjust="spacing" textLength="45" x="385.5" y="421.6866">creates</text><text fill="#000000" font-family="sans-serif" font-size="13" lengthAdjust="spacing" textLength="8" x="351.0791" y="227.4381">1</text><text fill="#000000" font-family="sans-serif" font-size="13" lengthAdjust="spacing" textLength="6" x="335.4153" y="623.7914">*</text></g><!--link HumanResourcesManager to Manager--><g id="link_HumanResourcesManager_Manager"><path codeLine="65" d="M433.1,79.3583 C415.86,99.2583 386.82,132.7783 366.93,155.7283 " fill="none" id="HumanResourcesManager-Manager" style="stroke:#181818;stroke-width:1.0;"/><polygon fill="#000000" points="413.7742,113.8547,405.63,118.7662,410.0723,122.6152,413.7742,113.8547" style="stroke:#000000;stroke-width:1.0;"/><text fill="#000000" font-family="sans-serif" font-size="13" lengthAdjust="spacing" textLength="22" x="419.5" y="122.5466">is a</text><text fill="#000000" font-family="sans-serif" font-size="13" lengthAdjust="spacing" textLength="22" x="403.3213" y="99.669">1..*</text><text fill="#000000" font-family="sans-serif" font-size="13" lengthAdjust="spacing" textLength="8" x="363.1786" y="145.2327">1</text></g><!--link GreenSpacesManager to Manager--><g id="link_GreenSpacesManager_Manager"><path codeLine="66" d="M257.9,79.3583 C275.14,99.2583 304.18,132.7783 324.07,155.7283 " fill="none" id="GreenSpacesManager-Manager" style="stroke:#181818;stroke-width:1.0;"/><polygon fill="#000000" points="300.2258,113.8547,303.9277,122.6152,308.37,118.7662,300.2258,113.8547" style="stroke:#000000;stroke-width:1.0;"/><text fill="#000000" font-family="sans-serif" font-size="13" lengthAdjust="spacing" textLength="22" x="312.5" y="122.5466">is a</text><text fill="#000000" font-family="sans-serif" font-size="13" lengthAdjust="spacing" textLength="22" x="236.9413" y="99.669">1..*</text><text fill="#000000" font-family="sans-serif" font-size="13" lengthAdjust="spacing" textLength="8" x="309.8714" y="145.2327">1</text></g><!--link Manager to Vehicle--><g id="link_Manager_Vehicle"><path codeLine="67" d="M323.29,207.1583 C310.33,221.5783 296.5,236.9583 296.5,236.9583 C296.5,236.9583 289.73,257.1183 280.74,283.8983 " fill="none" id="Manager-Vehicle" style="stroke:#181818;stroke-width:1.0;"/><polygon fill="#000000" points="299.0754,249.9864,306.0318,243.501,300.8913,240.6507,299.0754,249.9864" style="stroke:#000000;stroke-width:1.0;"/><text fill="#000000" font-family="sans-serif" font-size="13" lengthAdjust="spacing" textLength="56" x="310.5" y="250.5266">manages</text><text fill="#000000" font-family="sans-serif" font-size="13" lengthAdjust="spacing" textLength="8" x="309.2289" y="227.4381">1</text><text fill="#000000" font-family="sans-serif" font-size="13" lengthAdjust="spacing" textLength="6" x="277.1242" y="273.369">*</text></g><!--link Agenda to ToDoList--><g id="link_Agenda_ToDoList"><path codeLine="69" d="M61.79,442.3583 C65.76,518.3383 77.5,743.2083 77.5,743.2083 C77.5,743.2083 165.23,789.8283 221.78,819.8683 " fill="none" id="Agenda-ToDoList" style="stroke:#181818;stroke-width:1.0;"/><polygon fill="#000000" points="84.451,689.5072,83.6275,680.0323,78.2156,682.3259,84.451,689.5072" style="stroke:#000000;stroke-width:1.0;"/><text fill="#000000" font-family="sans-serif" font-size="13" lengthAdjust="spacing" textLength="99" x="91.5" y="689.8166">gets tasks from</text><text fill="#000000" font-family="sans-serif" font-size="13" lengthAdjust="spacing" textLength="8" x="53.1633" y="462.6497">1</text><text fill="#000000" font-family="sans-serif" font-size="13" lengthAdjust="spacing" textLength="6" x="203.6608" y="809.3507">*</text></g><!--link Agenda to Task--><g id="link_Agenda_Task"><path codeLine="70" d="M73.85,442.3883 C94.42,480.5283 131.5,549.2783 131.5,549.2783 C131.5,549.2783 172.47,589.4983 209.6,625.9383 " fill="none" id="Agenda-Task" style="stroke:#181818;stroke-width:1.0;"/><polygon fill="#000000" points="184.4731,591.9536,181.4576,582.9337,176.7318,586.4289,184.4731,591.9536" style="stroke:#000000;stroke-width:1.0;"/><text fill="#000000" font-family="sans-serif" font-size="13" lengthAdjust="spacing" textLength="22" x="190.5" y="592.8466">has</text><text fill="#000000" font-family="sans-serif" font-size="13" lengthAdjust="spacing" textLength="8" x="68.0122" y="462.6866">1</text><text fill="#000000" font-family="sans-serif" font-size="13" lengthAdjust="spacing" textLength="6" x="196.0559" y="615.4447">*</text></g><!--link Task to ToDoList--><g id="link_Task_ToDoList"><path codeLine="72" d="M268.5,743.5783 C268.5,769.8583 268.5,799.5483 268.5,819.9283 " fill="none" id="Task-ToDoList" style="stroke:#181818;stroke-width:1.0;"/><polygon fill="#000000" points="273.5,776.8636,270.5611,785.9086,276.4389,785.9086,273.5,776.8636" style="stroke:#000000;stroke-width:1.0;"/><text fill="#000000" font-family="sans-serif" font-size="13" lengthAdjust="spacing" textLength="22" x="282.5" y="786.7766">has</text><text fill="#000000" font-family="sans-serif" font-size="13" lengthAdjust="spacing" textLength="22" x="245.2281" y="763.8346">1..*</text><text fill="#000000" font-family="sans-serif" font-size="13" lengthAdjust="spacing" textLength="22" x="243.8188" y="809.4253">1..*</text></g><!--link Vehicle to Task--><g id="link_Vehicle_Task"><path codeLine="74" d="M252.36,549.5183 C255.6,576.4383 258.84,603.4283 261.56,626.0683 " fill="none" id="Vehicle-Task" style="stroke:#181818;stroke-width:1.0;"/><polygon fill="#000000" points="263.0966,592.8978,264.9353,583.5667,259.0994,584.2681,263.0966,592.8978" style="stroke:#000000;stroke-width:1.0;"/><text fill="#000000" font-family="sans-serif" font-size="13" lengthAdjust="spacing" textLength="94" x="271.5" y="592.8466">is attributed to</text><text fill="#000000" font-family="sans-serif" font-size="13" lengthAdjust="spacing" textLength="22" x="230.6258" y="569.7731">1..*</text><text fill="#000000" font-family="sans-serif" font-size="13" lengthAdjust="spacing" textLength="8" x="252.2267" y="615.5905">1</text></g><!--SRC=[XLDDRzim3BthLn2v51ZGOhi6Gu5iGRjXop0qmNPcPSOM8aikHMF8XlttqR8Tkqss-M9-F95FZzHLEhZG86CDTGpHLXnh0k6Mp9Hfq1wmfAqSFG6J5GobdmDIXKNyuK89U_Hfdl4ka1mRWYRwO-UOAqzx0Od0hgm42jSLT37C3bcFAQr4s3ssGXzj35lta-2rgLn1O1rRxPxjcgIAHJ96d2YtTQpH1TZ4WhmnkGniC2XtXby6z4j3izzZ-aDROtYW55ksb2RmXBXdeh1L3LwcHy2gf53WqA3n608LEqo7b44zflD71F8X6wAndMfpSjQKBBic4yn8Tf6T77lcWjAc6QzTNCVFBibGLJde05xs_KQLKxM6rkyOGv6jNgBEEZ7O8HDyfsugsR_dg0LcWVSjCmM1JtLs7wZKxgh66gMliB9FhKkkupy5DpeHeO314jmnFRKKR7-ZhrunyAMj7udxW3Ace0AdUNGTu_F0NKj-HflHUMMnGLlfVkNBZtDQl5d0zNN-zKDQGfrJ2MxFGAyM9qd_1rEHbs2PbFyvf6tKkBbHtCNTMe9BWFyuTRvlVpcIkGm3dZCsmq9Ul5X9alAo9TZhMrVu1NI-NuMvMDxSWLhMCbjJmGxsrfXnqUR8iLB7VdpDHVVqRyqV]--></g></svg>