<?xml version="1.0" encoding="us-ascii" standalone="no"?><svg xmlns="http://www.w3.org/2000/svg" xmlns:xlink="http://www.w3.org/1999/xlink" contentStyleType="text/css" height="801px" preserveAspectRatio="none" style="width:640px;height:801px;background:#FFFFFF;" version="1.1" viewBox="0 0 640 801" width="640px" zoomAndPan="magnify"><defs/><g><text fill="#000000" font-family="sans-serif" font-size="14" font-weight="bold" lengthAdjust="spacing" textLength="58" x="284.425" y="23.5352">Sprint A</text><!--cluster actors--><g id="cluster_actors"><rect fill="none" height="238" rx="2.5" ry="2.5" style="stroke:#FFFFFF;stroke-width:1.0;" width="212" x="7" y="322.4883"/><text fill="#000000" font-family="sans-serif" font-size="14" font-weight="bold" lengthAdjust="spacing" textLength="103" x="61.5" y="338.0234">System Actors</text></g><!--cluster usecases--><g id="cluster_usecases"><rect fill="none" height="751" rx="2.5" ry="2.5" style="stroke:#FFFFFF;stroke-width:1.0;" width="387.85" x="247" y="44.4883"/><text fill="#000000" font-family="sans-serif" font-size="14" font-weight="bold" lengthAdjust="spacing" textLength="73" x="404.425" y="60.0234">Use Cases</text></g><!--entity FM--><g id="elem_FM"><ellipse cx="113" cy="476.7483" fill="#F1F1F1" rx="8" ry="8" style="stroke:#181818;stroke-width:0.5;"/><path d="M113,484.7483 L113,511.7483 M100,492.7483 L126,492.7483 M113,511.7483 L100,526.7483 M113,511.7483 L126,526.7483 " fill="none" style="stroke:#181818;stroke-width:0.5;"/><text fill="#000000" font-family="sans-serif" font-size="14" lengthAdjust="spacing" textLength="97" x="64.5" y="541.7834">Fleet Manager</text></g><!--entity HRM--><g id="elem_HRM"><ellipse cx="113" cy="365.7483" fill="#F1F1F1" rx="8" ry="8" style="stroke:#181818;stroke-width:0.5;"/><path d="M113,373.7483 L113,400.7483 M100,381.7483 L126,381.7483 M113,400.7483 L100,415.7483 M113,400.7483 L126,415.7483 " fill="none" style="stroke:#181818;stroke-width:0.5;"/><text fill="#000000" font-family="sans-serif" font-size="14" lengthAdjust="spacing" textLength="180" x="23" y="430.7834">Human Resource Manager</text></g><g id="elem_UC08"><ellipse cx="440.9261" cy="741.4835" fill="#F1F1F1" rx="177.9261" ry="37.9852" style="stroke:#181818;stroke-width:0.5;"/><text fill="#000000" font-family="sans-serif" font-size="14" lengthAdjust="spacing" textLength="328" x="276.9261" y="744.7745">UC08 - List vehicles with pending maintenances</text></g><g id="elem_UC07"><ellipse cx="440.9338" cy="637.491" fill="#F1F1F1" rx="141.7638" ry="30.7528" style="stroke:#181818;stroke-width:0.5;"/><text fill="#000000" font-family="sans-serif" font-size="14" lengthAdjust="spacing" textLength="253" x="314.4338" y="640.7821">UC07 - Register vehicle maintenance</text></g><g id="elem_UC06"><ellipse cx="440.9333" cy="549.4929" fill="#F1F1F1" rx="99.7233" ry="22.3447" style="stroke:#181818;stroke-width:0.5;"/><text fill="#000000" font-family="sans-serif" font-size="14" lengthAdjust="spacing" textLength="163" x="359.4333" y="552.784">UC06 - Register Vehicle</text></g><g id="elem_UC05"><ellipse cx="440.9313" cy="455.4845" fill="#F1F1F1" rx="171.1313" ry="36.6263" style="stroke:#181818;stroke-width:0.5;"/><text fill="#000000" font-family="sans-serif" font-size="14" lengthAdjust="spacing" textLength="314" x="283.9313" y="458.7756">UC05 - Generate team proposal automatically</text></g><g id="elem_UC04"><ellipse cx="440.9296" cy="352.4902" fill="#F1F1F1" rx="145.1096" ry="31.4219" style="stroke:#181818;stroke-width:0.5;"/><text fill="#000000" font-family="sans-serif" font-size="14" lengthAdjust="spacing" textLength="260" x="310.9296" y="355.7812">UC04 - Assign Skills to a Collaborator</text></g><g id="elem_UC03"><ellipse cx="440.9298" cy="259.4922" fill="#F1F1F1" rx="120.4698" ry="26.494" style="stroke:#181818;stroke-width:0.5;"/><text fill="#000000" font-family="sans-serif" font-size="14" lengthAdjust="spacing" textLength="208" x="336.9298" y="262.7833">UC03 - Register Collaborators</text></g><g id="elem_UC02"><ellipse cx="440.9304" cy="177.4844" fill="#F1F1F1" rx="90.7804" ry="20.5561" style="stroke:#181818;stroke-width:0.5;"/><text fill="#000000" font-family="sans-serif" font-size="14" lengthAdjust="spacing" textLength="143" x="369.4304" y="180.7754">UC02 - Register jobs</text></g><g id="elem_UC01"><ellipse cx="440.9253" cy="100.4873" fill="#F1F1F1" rx="92.9953" ry="20.9991" style="stroke:#181818;stroke-width:0.5;"/><text fill="#000000" font-family="sans-serif" font-size="14" lengthAdjust="spacing" textLength="148" x="366.9253" y="103.7783">UC01 - Register skills</text></g><!--link HRM to UC01--><g id="link_HRM_UC01"><path d="M121.5,356.9383 C134.7,299.9583 167.76,194.1083 239,139.4883 C269.74,115.9183 304.7614,106.0516 341.7014,101.6916 " fill="none" id="HRM-to-UC01" style="stroke:#181818;stroke-width:1.0;"/><polygon fill="#181818" points="347.66,100.9883,338.2532,98.0708,342.6945,101.5744,339.1909,106.0156,347.66,100.9883" style="stroke:#181818;stroke-width:1.0;"/></g><!--link HRM to UC02--><g id="link_HRM_UC02"><path d="M130.01,356.7483 C149.41,314.9383 186.17,249.7483 239,215.4883 C271.76,194.2383 307.5141,184.9644 344.4241,180.4644 " fill="none" id="HRM-to-UC02" style="stroke:#181818;stroke-width:1.0;"/><polygon fill="#181818" points="350.38,179.7383,340.9621,176.8569,345.4168,180.3434,341.9302,184.7981,350.38,179.7383" style="stroke:#181818;stroke-width:1.0;"/></g><!--link HRM to UC03--><g id="link_HRM_UC03"><path d="M156.84,356.9383 C179.75,338.2183 209.3,316.9283 239,303.4883 C269.66,289.6083 299.1015,281.1897 331.4915,274.5697 " fill="none" id="HRM-to-UC03" style="stroke:#181818;stroke-width:1.0;"/><polygon fill="#181818" points="337.37,273.3683,327.7513,271.2515,332.4713,274.3695,329.3533,279.0895,337.37,273.3683" style="stroke:#181818;stroke-width:1.0;"/></g><!--link HRM to UC04--><g id="link_HRM_UC04"><path d="M203.49,383.6783 C238.26,379.0983 272.7214,374.5423 310.2014,369.6023 " fill="none" id="HRM-to-UC04" style="stroke:#181818;stroke-width:1.0;"/><polygon fill="#181818" points="316.15,368.8183,306.7045,366.0286,311.1929,369.4716,307.7499,373.96,316.15,368.8183" style="stroke:#181818;stroke-width:1.0;"/></g><!--link HRM to UC05--><g id="link_HRM_UC05"><path d="M203.49,411.9583 C236.38,418.0183 268.4093,423.9113 304.1293,430.4913 " fill="none" id="HRM-to-UC05" style="stroke:#181818;stroke-width:1.0;"/><polygon fill="#181818" points="310.03,431.5783,301.9036,426.014,305.1127,430.6725,300.4543,433.8816,310.03,431.5783" style="stroke:#181818;stroke-width:1.0;"/></g><!--link FM to UC06--><g id="link_FM_UC06"><path d="M161.74,512.7883 C212.13,519.4383 286.6714,529.2743 348.1314,537.3743 " fill="none" id="FM-to-UC06" style="stroke:#181818;stroke-width:1.0;"/><polygon fill="#181818" points="354.08,538.1583,345.6798,533.0166,349.1229,537.505,344.6345,540.948,354.08,538.1583" style="stroke:#181818;stroke-width:1.0;"/></g><!--link FM to UC07--><g id="link_FM_UC07"><path d="M161.87,544.0483 C184.25,560.0383 211.89,577.6983 239,589.4883 C267.2,601.7583 293.2136,609.7965 323.1136,616.9265 " fill="none" id="FM-to-UC07" style="stroke:#181818;stroke-width:1.0;"/><polygon fill="#181818" points="328.95,618.3183,321.1233,612.3398,324.0864,617.1585,319.2676,620.1216,328.95,618.3183" style="stroke:#181818;stroke-width:1.0;"/></g><!--link FM to UC08--><g id="link_FM_UC08"><path d="M130.99,544.9283 C151.02,585.8083 188.13,649.4383 239,685.4883 C258.13,699.0483 274.7662,707.3769 297.4162,715.1669 " fill="none" id="FM-to-UC08" style="stroke:#181818;stroke-width:1.0;"/><polygon fill="#181818" points="303.09,717.1183,295.8802,710.4087,298.3618,715.4921,293.2784,717.9737,303.09,717.1183" style="stroke:#181818;stroke-width:1.0;"/></g><!--SRC=[PPDDZvim48Rl_XMZN3XbrKsooPugfP7IFJIgbBIzpy84t1WFiaqZLFM_Ty0Bom8dPdZUrsO-4d_JjaA79PHiEIqSbmJ1rQJUlrIOtZ2dIsWCWQCqeCqDgUITy0LcVDSsXoiQJsea7lY_2kJvmYuZTs333kw53iB-Kohe8DQNocaROA-KeMk0mE1qNWJ8T6kYsIerkC7YqlX09UpJmCul03rWzmhne2w0nT4G1JYXbHzm7NKyZR-_r2LQE9FdsgNq0NmvdxhBgG_7_lG41_GKZwmzfMqGptoB13fyUeObVDC-m1ygT6h8mrs70YgoMLkd4kLNoQ9DtvnQoSna9oPdoiM6N6yqblRAtKov7Ij_HMLFRsVqaz1VoPB38DsdjkUEA_Pe0El09GQTeZ5Dx_0qSzY8mzvxdLkutBGnlcqVWZJQu2kBBxjUl9c9r-FBZYL3QTOppMgi-Ssl0xgQeOzZr7Utw-57rT7IQbWkFyVC9B6Q9jRJn6QQYEKv3l5s4kycyNCtPebbgNut-dmT9gj3apZiAf7fWHRhwRWWWiVPLqbBd_jfbPKG_aUxNFBg2Axi8fAHhBiFKcHPAwXg9yqMXgrf7YBnlTH1d2qqiXcoWfZBDlk7qHN-0m00]--></g></svg>