<?xml version="1.0" encoding="us-ascii" standalone="no"?><svg xmlns="http://www.w3.org/2000/svg" xmlns:xlink="http://www.w3.org/1999/xlink" contentStyleType="text/css" height="1585px" preserveAspectRatio="none" style="width:1043px;height:1585px;background:#FFFFFF;" version="1.1" viewBox="0 0 1043 1585" width="1043px" zoomAndPan="magnify"><defs/><g><text fill="#000000" font-family="sans-serif" font-size="14" font-weight="bold" lengthAdjust="spacing" textLength="57" x="486.21" y="23.5352">Sprint B</text><!--cluster actors--><g id="cluster_actors"><rect fill="none" height="460" rx="2.5" ry="2.5" style="stroke:#FFFFFF;stroke-width:1.0;" width="335" x="7" y="504.4883"/><text fill="#000000" font-family="sans-serif" font-size="14" font-weight="bold" lengthAdjust="spacing" textLength="103" x="123" y="520.0234">System Actors</text></g><!--cluster usecases--><g id="cluster_usecases"><rect fill="none" height="1535" rx="2.5" ry="2.5" style="stroke:#FFFFFF;stroke-width:1.0;" width="667.42" x="370" y="44.4883"/><text fill="#000000" font-family="sans-serif" font-size="14" font-weight="bold" lengthAdjust="spacing" textLength="73" x="667.21" y="60.0234">Use Cases</text></g><!--entity QAM--><g id="elem_QAM"><ellipse cx="174.5" cy="880.7483" fill="#F1F1F1" rx="8" ry="8" style="stroke:#181818;stroke-width:0.5;"/><path d="M174.5,888.7483 L174.5,915.7483 M161.5,896.7483 L187.5,896.7483 M174.5,915.7483 L161.5,930.7483 M174.5,915.7483 L187.5,930.7483 " fill="none" style="stroke:#181818;stroke-width:0.5;"/><text fill="#000000" font-family="sans-serif" font-size="14" lengthAdjust="spacing" textLength="303" x="23" y="945.7834">Software Quality Assessment Team Manager</text></g><!--entity GSM--><g id="elem_GSM"><ellipse cx="174.5" cy="769.7483" fill="#F1F1F1" rx="8" ry="8" style="stroke:#181818;stroke-width:0.5;"/><path d="M174.5,777.7483 L174.5,804.7483 M161.5,785.7483 L187.5,785.7483 M174.5,804.7483 L161.5,819.7483 M174.5,804.7483 L187.5,819.7483 " fill="none" style="stroke:#181818;stroke-width:0.5;"/><text fill="#000000" font-family="sans-serif" font-size="14" lengthAdjust="spacing" textLength="149" x="100" y="834.7834">Green Space Manager</text></g><!--entity FM--><g id="elem_FM"><ellipse cx="174.5" cy="658.7483" fill="#F1F1F1" rx="8" ry="8" style="stroke:#181818;stroke-width:0.5;"/><path d="M174.5,666.7483 L174.5,693.7483 M161.5,674.7483 L187.5,674.7483 M174.5,693.7483 L161.5,708.7483 M174.5,693.7483 L187.5,708.7483 " fill="none" style="stroke:#181818;stroke-width:0.5;"/><text fill="#000000" font-family="sans-serif" font-size="14" lengthAdjust="spacing" textLength="97" x="126" y="723.7834">Fleet Manager</text></g><!--entity HRM--><g id="elem_HRM"><ellipse cx="174.5" cy="547.7483" fill="#F1F1F1" rx="8" ry="8" style="stroke:#181818;stroke-width:0.5;"/><path d="M174.5,555.7483 L174.5,582.7483 M161.5,563.7483 L187.5,563.7483 M174.5,582.7483 L161.5,597.7483 M174.5,582.7483 L187.5,597.7483 " fill="none" style="stroke:#181818;stroke-width:0.5;"/><text fill="#000000" font-family="sans-serif" font-size="14" lengthAdjust="spacing" textLength="180" x="84.5" y="612.7834">Human Resource Manager</text></g><g id="elem_UC14"><ellipse cx="703.7112" cy="1497.4905" fill="#F1F1F1" rx="317.7112" ry="65.9422" style="stroke:#181818;stroke-width:0.5;"/><text fill="#000000" font-family="sans-serif" font-size="14" lengthAdjust="spacing" textLength="612" x="397.7112" y="1500.7815">US14 - Run tests for inputs of variable size, to observe execution time of US13 algorithm.</text></g><g id="elem_UC13"><ellipse cx="703.7082" cy="1365.4859" fill="#F1F1F1" rx="145.5882" ry="31.5176" style="stroke:#181818;stroke-width:0.5;"/><text fill="#000000" font-family="sans-serif" font-size="14" lengthAdjust="spacing" textLength="261" x="573.2082" y="1368.7769">US13 - Obtain optimal pipeline routes</text></g><g id="elem_UC12"><ellipse cx="703.7101" cy="1265.4923" fill="#F1F1F1" rx="155.6701" ry="33.534" style="stroke:#181818;stroke-width:0.5;"/><text fill="#000000" font-family="sans-serif" font-size="14" lengthAdjust="spacing" textLength="282" x="562.7101" y="1268.7833">US12 - Import pipeline data from .csv file</text></g><g id="elem_UC11"><ellipse cx="703.7061" cy="1158.4835" fill="#F1F1F1" rx="177.9261" ry="37.9852" style="stroke:#181818;stroke-width:0.5;"/><text fill="#000000" font-family="sans-serif" font-size="14" lengthAdjust="spacing" textLength="328" x="539.7061" y="1161.7745">US11 - Obtain age group usage of a urban park</text></g><g id="elem_UC10"><ellipse cx="703.713" cy="1031.4929" fill="#F1F1F1" rx="260.323" ry="54.4646" style="stroke:#181818;stroke-width:0.5;"/><text fill="#000000" font-family="sans-serif" font-size="14" lengthAdjust="spacing" textLength="496" x="455.713" y="1034.7839">US10 - Obtain user's preferences concerning equipment of a urban park</text></g><g id="elem_UC09"><ellipse cx="703.7065" cy="877.4856" fill="#F1F1F1" rx="309.2865" ry="64.2573" style="stroke:#181818;stroke-width:0.5;"/><text fill="#000000" font-family="sans-serif" font-size="14" lengthAdjust="spacing" textLength="595" x="406.2065" y="880.7766">US09 - Obtain the exact costs referring to water consumption of a specific green space</text></g><g id="elem_UC08"><ellipse cx="703.7061" cy="740.4835" fill="#F1F1F1" rx="177.9261" ry="37.9852" style="stroke:#181818;stroke-width:0.5;"/><text fill="#000000" font-family="sans-serif" font-size="14" lengthAdjust="spacing" textLength="328" x="539.7061" y="743.7745">UC08 - List vehicles with pending maintenances</text></g><g id="elem_UC07"><ellipse cx="703.7138" cy="636.491" fill="#F1F1F1" rx="141.7638" ry="30.7528" style="stroke:#181818;stroke-width:0.5;"/><text fill="#000000" font-family="sans-serif" font-size="14" lengthAdjust="spacing" textLength="253" x="577.2138" y="639.7821">UC07 - Register vehicle maintenance</text></g><g id="elem_UC06"><ellipse cx="703.7133" cy="548.4929" fill="#F1F1F1" rx="99.7233" ry="22.3447" style="stroke:#181818;stroke-width:0.5;"/><text fill="#000000" font-family="sans-serif" font-size="14" lengthAdjust="spacing" textLength="163" x="622.2133" y="551.784">UC06 - Register Vehicle</text></g><g id="elem_UC05"><ellipse cx="703.7113" cy="454.4845" fill="#F1F1F1" rx="171.1313" ry="36.6263" style="stroke:#181818;stroke-width:0.5;"/><text fill="#000000" font-family="sans-serif" font-size="14" lengthAdjust="spacing" textLength="314" x="546.7113" y="457.7756">UC05 - Generate team proposal automatically</text></g><g id="elem_UC04"><ellipse cx="703.7096" cy="351.4902" fill="#F1F1F1" rx="145.1096" ry="31.4219" style="stroke:#181818;stroke-width:0.5;"/><text fill="#000000" font-family="sans-serif" font-size="14" lengthAdjust="spacing" textLength="260" x="573.7096" y="354.7812">UC04 - Assign Skills to a Collaborator</text></g><g id="elem_UC02"><ellipse cx="703.7104" cy="264.4844" fill="#F1F1F1" rx="90.7804" ry="20.5561" style="stroke:#181818;stroke-width:0.5;"/><text fill="#000000" font-family="sans-serif" font-size="14" lengthAdjust="spacing" textLength="143" x="632.2104" y="267.7754">UC02 - Register jobs</text></g><g id="elem_UC03"><ellipse cx="703.7098" cy="182.4922" fill="#F1F1F1" rx="120.4698" ry="26.494" style="stroke:#181818;stroke-width:0.5;"/><text fill="#000000" font-family="sans-serif" font-size="14" lengthAdjust="spacing" textLength="208" x="599.7098" y="185.7833">UC03 - Register Collaborators</text></g><g id="elem_UC01"><ellipse cx="703.7053" cy="100.4873" fill="#F1F1F1" rx="92.9953" ry="20.9991" style="stroke:#181818;stroke-width:0.5;"/><text fill="#000000" font-family="sans-serif" font-size="14" lengthAdjust="spacing" textLength="148" x="629.7053" y="103.7783">UC01 - Register skills</text></g><!--link HRM to UC01--><g id="link_HRM_UC01"><path d="M179.18,538.8483 C189.76,451.2983 228.67,237.7783 362,138.4883 C438.14,81.7883 545.6896,80.3926 620.4596,87.8526 " fill="none" id="HRM-to-UC01" style="stroke:#181818;stroke-width:1.0;"/><polygon fill="#181818" points="626.43,88.4483,617.8716,83.5745,621.4547,87.9519,617.0773,91.535,626.43,88.4483" style="stroke:#181818;stroke-width:1.0;"/></g><!--link HRM to UC02--><g id="link_HRM_UC02"><path d="M189.3,538.9883 C213.61,477.3283 270.38,357.7783 362,302.4883 C440.86,254.8983 542.8905,250.6035 616.0005,254.9335 " fill="none" id="HRM-to-UC02" style="stroke:#181818;stroke-width:1.0;"/><polygon fill="#181818" points="621.99,255.2883,613.2422,250.7632,616.9987,254.9927,612.7693,258.7492,621.99,255.2883" style="stroke:#181818;stroke-width:1.0;"/></g><!--link HRM to UC03--><g id="link_HRM_UC03"><path d="M183.72,538.8183 C201.71,464.5483 252.06,302.5783 362,226.4883 C428.7,180.3283 514.6908,170.6977 586.2708,171.8977 " fill="none" id="HRM-to-UC03" style="stroke:#181818;stroke-width:1.0;"/><polygon fill="#181818" points="592.27,171.9983,583.3383,167.848,587.2707,171.9145,583.2042,175.8469,592.27,171.9983" style="stroke:#181818;stroke-width:1.0;"/></g><!--link HRM to UC04--><g id="link_HRM_UC04"><path d="M204.02,538.8383 C237.04,497.2383 295.51,432.6883 362,400.4883 C422.51,371.1783 489.6518,358.679 552.6218,353.299 " fill="none" id="HRM-to-UC04" style="stroke:#181818;stroke-width:1.0;"/><polygon fill="#181818" points="558.6,352.7883,549.2922,349.5689,553.6181,353.2139,549.9732,357.5399,558.6,352.7883" style="stroke:#181818;stroke-width:1.0;"/></g><!--link HRM to UC05--><g id="link_HRM_UC05"><path d="M264.94,540.3283 C295.34,528.7983 329.77,516.9183 362,508.4883 C423.42,492.4283 486.4508,481.2603 546.1908,472.6903 " fill="none" id="HRM-to-UC05" style="stroke:#181818;stroke-width:1.0;"/><polygon fill="#181818" points="552.13,471.8383,542.6532,469.1568,547.1807,472.5483,543.7892,477.0758,552.13,471.8383" style="stroke:#181818;stroke-width:1.0;"/></g><!--link FM to UC06--><g id="link_FM_UC06"><path d="M223.15,685.7683 C262.46,680.9783 316.96,668.0383 350,633.4883 C364.31,618.5283 346.35,602.0383 362,588.4883 C433.71,526.4083 542.088,525.4137 618.268,534.0337 " fill="none" id="FM-to-UC06" style="stroke:#181818;stroke-width:1.0;"/><polygon fill="#181818" points="624.23,534.7083,615.7368,529.7217,619.2617,534.1461,614.8373,537.671,624.23,534.7083" style="stroke:#181818;stroke-width:1.0;"/></g><!--link FM to UC07--><g id="link_FM_UC07"><path d="M223.22,683.7783 C301.67,676.0483 454.509,660.9672 567.869,649.7872 " fill="none" id="FM-to-UC07" style="stroke:#181818;stroke-width:1.0;"/><polygon fill="#181818" points="573.84,649.1983,564.4909,646.1009,568.8641,649.689,565.276,654.0623,573.84,649.1983" style="stroke:#181818;stroke-width:1.0;"/></g><!--link FM to UC08--><g id="link_FM_UC08"><path d="M223.22,693.1983 C294.44,700.2183 425.949,713.1891 535.499,723.9991 " fill="none" id="FM-to-UC08" style="stroke:#181818;stroke-width:1.0;"/><polygon fill="#181818" points="541.47,724.5883,532.9063,719.7238,536.4942,724.0973,532.1207,727.6852,541.47,724.5883" style="stroke:#181818;stroke-width:1.0;"/></g><!--link GSM to UC09--><g id="link_GSM_UC09"><path d="M249.36,810.4183 C302.36,818.2583 371.1746,828.4404 444.7346,839.3204 " fill="none" id="GSM-to-UC09" style="stroke:#181818;stroke-width:1.0;"/><polygon fill="#181818" points="450.67,840.1983,442.3521,834.9245,445.7238,839.4667,441.1816,842.8384,450.67,840.1983" style="stroke:#181818;stroke-width:1.0;"/></g><!--link GSM to UC10--><g id="link_GSM_UC10"><path d="M249.5,804.5083 C285.22,810.9283 325.55,824.8383 350,854.4883 C379.88,890.7283 330.39,924.7483 362,959.4883 C386.51,986.4283 412.7036,1002.6771 447.0736,1014.8371 " fill="none" id="GSM-to-UC10" style="stroke:#181818;stroke-width:1.0;"/><polygon fill="#181818" points="452.73,1016.8383,445.5795,1010.0655,448.0163,1015.1706,442.9112,1017.6074,452.73,1016.8383" style="stroke:#181818;stroke-width:1.0;"/></g><!--link GSM to UC11--><g id="link_GSM_UC11"><path d="M249.43,803.6983 C285.6,809.8683 326.34,823.7983 350,854.4883 C366.91,876.4283 343.54,1082.8383 362,1103.4883 C405.83,1152.5183 468.699,1169.2789 533.089,1172.8189 " fill="none" id="GSM-to-UC11" style="stroke:#181818;stroke-width:1.0;"/><polygon fill="#181818" points="539.08,1173.1483,530.3131,1168.6603,534.0875,1172.8738,529.874,1176.6482,539.08,1173.1483" style="stroke:#181818;stroke-width:1.0;"/></g><!--link GSM to UC12--><g id="link_GSM_UC12"><path d="M249.17,803.4783 C285.5,809.5683 326.47,823.4983 350,854.4883 C374.14,886.2783 335.49,1183.6483 362,1213.4883 C412.37,1270.1883 490.3906,1283.5733 562.3806,1282.5533 " fill="none" id="GSM-to-UC12" style="stroke:#181818;stroke-width:1.0;"/><polygon fill="#181818" points="568.38,1282.4683,559.3242,1278.5962,563.3805,1282.5391,559.4376,1286.5954,568.38,1282.4683" style="stroke:#181818;stroke-width:1.0;"/></g><!--link GSM to UC13--><g id="link_GSM_UC13"><path d="M249.27,803.4083 C285.62,809.4783 326.58,823.4083 350,854.4883 C380.9,895.4983 327.87,1278.1183 362,1316.4883 C415.72,1376.8783 501.7775,1387.4391 576.6775,1383.6791 " fill="none" id="GSM-to-UC13" style="stroke:#181818;stroke-width:1.0;"/><polygon fill="#181818" points="582.67,1383.3783,573.4808,1379.8345,577.6763,1383.629,573.8819,1387.8245,582.67,1383.3783" style="stroke:#181818;stroke-width:1.0;"/></g><!--link QAM to UC14--><g id="link_QAM_UC14"><path d="M177.9,949.0983 C185.92,1043.6183 220.05,1288.0483 362,1414.4883 C384.16,1434.2283 404.715,1447.1186 432.415,1458.8486 " fill="none" id="QAM-to-UC14" style="stroke:#181818;stroke-width:1.0;"/><polygon fill="#181818" points="437.94,1461.1883,431.2122,1453.9954,433.3358,1459.2386,428.0927,1461.3621,437.94,1461.1883" style="stroke:#181818;stroke-width:1.0;"/></g><!--SRC=[TLLDRzim3BtxLn2zvB86-UhNPK1ReEs05KMJTdV5eHqjikH9ShAis7_VanmtZetb4eb-xv4YAMhWDbANmeg22gDDkhQcOFAsukJufHJfHkIyy7l5P3drGkUAay4HuTPYPNPIvvG9vJXfaJ_n7mdXTsViYkszKSRIRYqzi7-Jn4iFwKLffVPqboIACq_Ua9NvsjDA1X5fT99ygj7POkyy5tIRUcFT6Gb78YwfTXGtG9dCxuHbUgs4advFjywnSmN3qHiZlcUXSJOR1LvldzlSHyki4PL8-GJsk3Y1FIXcVm9uEFd-L1L2qvoTgMn7wMd-7C-Vd9pitJ7T2uGPCPNZD6m-aYXws0Ar6C_edEQL9i_EEyhW35cli3GPROMLOWav9__mbv1CitHijqpyczCgf9EyHB61XTIKXCgDbNvT3AFRz_lnhETm2eSlIo-a9bE2BHILicGbDHh3LFuGChZJ7dS2xhUYDDOVEIlX1MNeEHgcRakPLDm8J7e2uwDp991oE2m126kSGL1bbyWpkcxJQ8nx6gEZ1insuAYqdB5bdRAZrE3Fwj37_AkIPUoI_sYFkjgZcwEsNuSqe_wG3AM9FcpGHHrsmhCDlbnLbB4EqOKhEPMPJ76mq7OkjDt1sUYcu-n-T0rdtwNpjEMrJ1M2tw5sLB9U1JS5el2iHJXM8tBT4xaA_SCvP13GGQXDRPXNFUPbc_cZPZReonxw0kX7rcnnSZHh62dMbCQXVKJbJI6yJ8LI-qRXegSGEXqtL-QuZnkfb0k958GveiJIGDVOXZphaIVjO7_Y6ZJGIGywRKFRwf-SQOypRdDSZAu1ZvFwqkAUq_dvrzhKCKowXcdNCEiQwlmyVEulE_khphwkFCPMOxZf60xTt3ACkuP9rr27YP7P66PnaWsqGP7Z04TRDyChOWVro4u6Q58Ai0PTZ_bm2-84JmO1FMy68WOxy6_XYS0Ieno3heQi68-MyoXGk4LbPT5Jm1YjziCQyL983sLDUmnVF2GYnvlaXgqG_W40]--></g></svg>