<?xml version="1.0" encoding="us-ascii" standalone="no"?><svg xmlns="http://www.w3.org/2000/svg" xmlns:xlink="http://www.w3.org/1999/xlink" contentStyleType="text/css" height="1350px" preserveAspectRatio="none" style="width:991px;height:1350px;background:#FFFFFF;" version="1.1" viewBox="0 0 991 1350" width="991px" zoomAndPan="magnify"><defs/><g><!--class GenerateTeamController--><g id="elem_GenerateTeamController"><rect codeLine="11" fill="#F1F1F1" height="141.1055" id="GenerateTeamController" rx="2.5" ry="2.5" style="stroke:#181818;stroke-width:0.5;" width="313" x="521" y="172"/><ellipse cx="594.25" cy="188" fill="#ADD1B2" rx="11" ry="11" style="stroke:#181818;stroke-width:1.0;"/><path d="M597.0156,183.875 Q597.1719,183.6563 597.3594,183.5469 Q597.5469,183.4375 597.7656,183.4375 Q598.1406,183.4375 598.375,183.7031 Q598.6094,183.9531 598.6094,184.5625 L598.6094,186.0156 Q598.6094,186.625 598.375,186.8906 Q598.1406,187.1563 597.7656,187.1563 Q597.4219,187.1563 597.2188,186.9531 Q597.0156,186.7656 596.9063,186.25 Q596.8594,185.8906 596.6719,185.7031 Q596.3438,185.3281 595.7344,185.1094 Q595.125,184.8906 594.5,184.8906 Q593.7344,184.8906 593.0938,185.2188 Q592.4688,185.5469 591.9688,186.2969 Q591.4844,187.0469 591.4844,188.0781 L591.4844,189.1719 Q591.4844,190.4063 592.375,191.2344 Q593.2656,192.0469 594.8594,192.0469 Q595.7969,192.0469 596.4531,191.7969 Q596.8438,191.6406 597.2656,191.2031 Q597.5313,190.9375 597.6719,190.8594 Q597.8281,190.7813 598.0313,190.7813 Q598.3594,190.7813 598.6094,191.0469 Q598.875,191.2969 598.875,191.6406 Q598.875,191.9844 598.5313,192.3906 Q598.0313,192.9688 597.2344,193.2969 Q596.1563,193.75 594.8594,193.75 Q593.3438,193.75 592.1406,193.125 Q591.1563,192.625 590.4688,191.5625 Q589.7813,190.4844 589.7813,189.2031 L589.7813,188.0469 Q589.7813,186.7188 590.3906,185.5781 Q591.0156,184.4219 592.1094,183.8125 Q593.2031,183.1875 594.4375,183.1875 Q595.1719,183.1875 595.8125,183.3594 Q596.4688,183.5156 597.0156,183.875 Z " fill="#000000"/><text fill="#000000" font-family="sans-serif" font-size="14" lengthAdjust="spacing" textLength="158" x="614.75" y="193.7969">GenerateTeamController</text><line style="stroke:#181818;stroke-width:0.5;" x1="522" x2="833" y1="204" y2="204"/><text fill="#000000" font-family="sans-serif" font-size="14" lengthAdjust="spacing" textLength="220" x="527" y="223.1074">-teamRepository : TeamRepository</text><text fill="#000000" font-family="sans-serif" font-size="14" lengthAdjust="spacing" textLength="201" x="527" y="241.7285">-skillRepository : SkillRepository</text><text fill="#000000" font-family="sans-serif" font-size="14" lengthAdjust="spacing" textLength="276" x="527" y="260.3496">-employeeRepository : EmployeeRepository</text><line style="stroke:#181818;stroke-width:0.5;" x1="522" x2="833" y1="267.8633" y2="267.8633"/><text fill="#000000" font-family="sans-serif" font-size="14" lengthAdjust="spacing" textLength="275" x="527" y="286.9707">+GenerateTeamController(teamRepository)</text><text fill="#000000" font-family="sans-serif" font-size="14" lengthAdjust="spacing" textLength="301" x="527" y="305.5918">+createTeam(teamMaxSize, teamMinSize, skills)</text></g><!--class GenerateTeamUI--><g id="elem_GenerateTeamUI"><rect codeLine="21" fill="#F1F1F1" height="103.8633" id="GenerateTeamUI" rx="2.5" ry="2.5" style="stroke:#181818;stroke-width:0.5;" width="315" x="520" y="7"/><ellipse cx="619.25" cy="23" fill="#ADD1B2" rx="11" ry="11" style="stroke:#181818;stroke-width:1.0;"/><path d="M622.0156,18.875 Q622.1719,18.6563 622.3594,18.5469 Q622.5469,18.4375 622.7656,18.4375 Q623.1406,18.4375 623.375,18.7031 Q623.6094,18.9531 623.6094,19.5625 L623.6094,21.0156 Q623.6094,21.625 623.375,21.8906 Q623.1406,22.1563 622.7656,22.1563 Q622.4219,22.1563 622.2188,21.9531 Q622.0156,21.7656 621.9063,21.25 Q621.8594,20.8906 621.6719,20.7031 Q621.3438,20.3281 620.7344,20.1094 Q620.125,19.8906 619.5,19.8906 Q618.7344,19.8906 618.0938,20.2188 Q617.4688,20.5469 616.9688,21.2969 Q616.4844,22.0469 616.4844,23.0781 L616.4844,24.1719 Q616.4844,25.4063 617.375,26.2344 Q618.2656,27.0469 619.8594,27.0469 Q620.7969,27.0469 621.4531,26.7969 Q621.8438,26.6406 622.2656,26.2031 Q622.5313,25.9375 622.6719,25.8594 Q622.8281,25.7813 623.0313,25.7813 Q623.3594,25.7813 623.6094,26.0469 Q623.875,26.2969 623.875,26.6406 Q623.875,26.9844 623.5313,27.3906 Q623.0313,27.9688 622.2344,28.2969 Q621.1563,28.75 619.8594,28.75 Q618.3438,28.75 617.1406,28.125 Q616.1563,27.625 615.4688,26.5625 Q614.7813,25.4844 614.7813,24.2031 L614.7813,23.0469 Q614.7813,21.7188 615.3906,20.5781 Q616.0156,19.4219 617.1094,18.8125 Q618.2031,18.1875 619.4375,18.1875 Q620.1719,18.1875 620.8125,18.3594 Q621.4688,18.5156 622.0156,18.875 Z " fill="#000000"/><text fill="#000000" font-family="sans-serif" font-size="14" lengthAdjust="spacing" textLength="108" x="639.75" y="28.7969">GenerateTeamUI</text><line style="stroke:#181818;stroke-width:0.5;" x1="521" x2="834" y1="39" y2="39"/><line style="stroke:#181818;stroke-width:0.5;" x1="521" x2="834" y1="47" y2="47"/><text fill="#000000" font-family="sans-serif" font-size="14" lengthAdjust="spacing" textLength="39" x="526" y="66.1074">+run()</text><text fill="#000000" font-family="sans-serif" font-size="14" lengthAdjust="spacing" textLength="303" x="526" y="84.7285">+requestData(teamMaxSize, teamMinSize, skills)</text><text fill="#000000" font-family="sans-serif" font-size="14" lengthAdjust="spacing" textLength="89" x="526" y="103.3496">+submitData()</text></g><!--class Employee--><g id="elem_Employee"><rect codeLine="28" fill="#F1F1F1" height="308.6953" id="Employee" rx="2.5" ry="2.5" style="stroke:#181818;stroke-width:0.5;" width="361" x="360" y="814"/><ellipse cx="505.25" cy="830" fill="#ADD1B2" rx="11" ry="11" style="stroke:#181818;stroke-width:1.0;"/><path d="M508.0156,825.875 Q508.1719,825.6563 508.3594,825.5469 Q508.5469,825.4375 508.7656,825.4375 Q509.1406,825.4375 509.375,825.7031 Q509.6094,825.9531 509.6094,826.5625 L509.6094,828.0156 Q509.6094,828.625 509.375,828.8906 Q509.1406,829.1563 508.7656,829.1563 Q508.4219,829.1563 508.2188,828.9531 Q508.0156,828.7656 507.9063,828.25 Q507.8594,827.8906 507.6719,827.7031 Q507.3438,827.3281 506.7344,827.1094 Q506.125,826.8906 505.5,826.8906 Q504.7344,826.8906 504.0938,827.2188 Q503.4688,827.5469 502.9688,828.2969 Q502.4844,829.0469 502.4844,830.0781 L502.4844,831.1719 Q502.4844,832.4063 503.375,833.2344 Q504.2656,834.0469 505.8594,834.0469 Q506.7969,834.0469 507.4531,833.7969 Q507.8438,833.6406 508.2656,833.2031 Q508.5313,832.9375 508.6719,832.8594 Q508.8281,832.7813 509.0313,832.7813 Q509.3594,832.7813 509.6094,833.0469 Q509.875,833.2969 509.875,833.6406 Q509.875,833.9844 509.5313,834.3906 Q509.0313,834.9688 508.2344,835.2969 Q507.1563,835.75 505.8594,835.75 Q504.3438,835.75 503.1406,835.125 Q502.1563,834.625 501.4688,833.5625 Q500.7813,832.4844 500.7813,831.2031 L500.7813,830.0469 Q500.7813,828.7188 501.3906,827.5781 Q502.0156,826.4219 503.1094,825.8125 Q504.2031,825.1875 505.4375,825.1875 Q506.1719,825.1875 506.8125,825.3594 Q507.4688,825.5156 508.0156,825.875 Z " fill="#000000"/><text fill="#000000" font-family="sans-serif" font-size="14" lengthAdjust="spacing" textLength="62" x="525.75" y="835.7969">Employee</text><line style="stroke:#181818;stroke-width:0.5;" x1="361" x2="720" y1="846" y2="846"/><text fill="#000000" font-family="sans-serif" font-size="14" lengthAdjust="spacing" textLength="89" x="366" y="865.1074">-name : String</text><text fill="#000000" font-family="sans-serif" font-size="14" lengthAdjust="spacing" textLength="137" x="366" y="883.7285">-birthdate : LocalDate</text><text fill="#000000" font-family="sans-serif" font-size="14" lengthAdjust="spacing" textLength="174" x="366" y="902.3496">-admissionDate : LocalDate</text><text fill="#000000" font-family="sans-serif" font-size="14" lengthAdjust="spacing" textLength="105" x="366" y="920.9707">-address : String</text><text fill="#000000" font-family="sans-serif" font-size="14" lengthAdjust="spacing" textLength="122" x="366" y="939.5918">-mobileContact : Int</text><text fill="#000000" font-family="sans-serif" font-size="14" lengthAdjust="spacing" textLength="136" x="366" y="958.2129">-emailContact : String</text><text fill="#000000" font-family="sans-serif" font-size="14" lengthAdjust="spacing" textLength="122" x="366" y="976.834">-IDdocType : String</text><text fill="#000000" font-family="sans-serif" font-size="14" lengthAdjust="spacing" textLength="93" x="366" y="995.4551">-IDnumber : Int</text><text fill="#000000" font-family="sans-serif" font-size="14" lengthAdjust="spacing" textLength="99" x="366" y="1014.0762">-taxNumber : Int</text><text fill="#000000" font-family="sans-serif" font-size="14" lengthAdjust="spacing" textLength="58" x="366" y="1032.6973">-job : Job</text><line style="stroke:#181818;stroke-width:0.5;" x1="361" x2="720" y1="1040.2109" y2="1040.2109"/><text fill="#000000" font-family="sans-serif" font-size="14" lengthAdjust="spacing" textLength="303" x="366" y="1059.3184">+Employee (String nome,LocalDate dateOfBirth,</text><text fill="#000000" font-family="sans-serif" font-size="14" lengthAdjust="spacing" textLength="349" x="366" y="1077.9395">LocalDate admissionDate, String morada, int telemovel,</text><text fill="#000000" font-family="sans-serif" font-size="14" lengthAdjust="spacing" textLength="326" x="366" y="1096.5605">String email, String idDocType, int docTypeNumber,</text><text fill="#000000" font-family="sans-serif" font-size="14" lengthAdjust="spacing" textLength="265" x="366" y="1115.1816">int taxPayerIdNumber, String role, Job job)</text></g><!--class Repositories--><g id="elem_Repositories"><rect codeLine="43" fill="#F1F1F1" height="196.9688" id="Repositories" rx="2.5" ry="2.5" style="stroke:#181818;stroke-width:0.5;" width="288" x="183.5" y="392"/><ellipse cx="283.75" cy="408" fill="#ADD1B2" rx="11" ry="11" style="stroke:#181818;stroke-width:1.0;"/><path d="M286.5156,403.875 Q286.6719,403.6563 286.8594,403.5469 Q287.0469,403.4375 287.2656,403.4375 Q287.6406,403.4375 287.875,403.7031 Q288.1094,403.9531 288.1094,404.5625 L288.1094,406.0156 Q288.1094,406.625 287.875,406.8906 Q287.6406,407.1563 287.2656,407.1563 Q286.9219,407.1563 286.7188,406.9531 Q286.5156,406.7656 286.4063,406.25 Q286.3594,405.8906 286.1719,405.7031 Q285.8438,405.3281 285.2344,405.1094 Q284.625,404.8906 284,404.8906 Q283.2344,404.8906 282.5938,405.2188 Q281.9688,405.5469 281.4688,406.2969 Q280.9844,407.0469 280.9844,408.0781 L280.9844,409.1719 Q280.9844,410.4063 281.875,411.2344 Q282.7656,412.0469 284.3594,412.0469 Q285.2969,412.0469 285.9531,411.7969 Q286.3438,411.6406 286.7656,411.2031 Q287.0313,410.9375 287.1719,410.8594 Q287.3281,410.7813 287.5313,410.7813 Q287.8594,410.7813 288.1094,411.0469 Q288.375,411.2969 288.375,411.6406 Q288.375,411.9844 288.0313,412.3906 Q287.5313,412.9688 286.7344,413.2969 Q285.6563,413.75 284.3594,413.75 Q282.8438,413.75 281.6406,413.125 Q280.6563,412.625 279.9688,411.5625 Q279.2813,410.4844 279.2813,409.2031 L279.2813,408.0469 Q279.2813,406.7188 279.8906,405.5781 Q280.5156,404.4219 281.6094,403.8125 Q282.7031,403.1875 283.9375,403.1875 Q284.6719,403.1875 285.3125,403.3594 Q285.9688,403.5156 286.5156,403.875 Z " fill="#000000"/><text fill="#000000" font-family="sans-serif" font-size="14" lengthAdjust="spacing" textLength="79" x="304.25" y="413.7969">Repositories</text><line style="stroke:#181818;stroke-width:0.5;" x1="184.5" x2="470.5" y1="424" y2="424"/><text fill="#000000" font-family="sans-serif" font-size="14" lengthAdjust="spacing" textLength="149" x="189.5" y="443.1074">-instance : Repositories</text><text fill="#000000" font-family="sans-serif" font-size="14" lengthAdjust="spacing" textLength="178" x="189.5" y="461.7285">-Repository : SkillRepository</text><text fill="#000000" font-family="sans-serif" font-size="14" lengthAdjust="spacing" textLength="194" x="189.5" y="480.3496">-jobRepository : JobRepository</text><text fill="#000000" font-family="sans-serif" font-size="14" lengthAdjust="spacing" textLength="276" x="189.5" y="498.9707">-employeeRepository : EmployeeRepository</text><line style="stroke:#181818;stroke-width:0.5;" x1="184.5" x2="470.5" y1="506.4844" y2="506.4844"/><text fill="#000000" font-family="sans-serif" font-size="14" lengthAdjust="spacing" textLength="182" x="189.5" y="525.5918">+getInstance() : Repositories</text><text fill="#000000" font-family="sans-serif" font-size="14" lengthAdjust="spacing" textLength="131" x="189.5" y="544.2129">+getSkillRepository()</text><text fill="#000000" font-family="sans-serif" font-size="14" lengthAdjust="spacing" textLength="128" x="189.5" y="562.834">+getJobRepository()</text><text fill="#000000" font-family="sans-serif" font-size="14" lengthAdjust="spacing" textLength="168" x="189.5" y="581.4551">+getEmployeeRepository()</text></g><!--class SkillRepository--><g id="elem_SkillRepository"><rect codeLine="56" fill="#F1F1F1" height="66.6211" id="SkillRepository" rx="2.5" ry="2.5" style="stroke:#181818;stroke-width:0.5;" width="177" x="7" y="677"/><ellipse cx="45.4" cy="693" fill="#ADD1B2" rx="11" ry="11" style="stroke:#181818;stroke-width:1.0;"/><path d="M48.1656,688.875 Q48.3219,688.6563 48.5094,688.5469 Q48.6969,688.4375 48.9156,688.4375 Q49.2906,688.4375 49.525,688.7031 Q49.7594,688.9531 49.7594,689.5625 L49.7594,691.0156 Q49.7594,691.625 49.525,691.8906 Q49.2906,692.1563 48.9156,692.1563 Q48.5719,692.1563 48.3688,691.9531 Q48.1656,691.7656 48.0563,691.25 Q48.0094,690.8906 47.8219,690.7031 Q47.4938,690.3281 46.8844,690.1094 Q46.275,689.8906 45.65,689.8906 Q44.8844,689.8906 44.2438,690.2188 Q43.6188,690.5469 43.1188,691.2969 Q42.6344,692.0469 42.6344,693.0781 L42.6344,694.1719 Q42.6344,695.4063 43.525,696.2344 Q44.4156,697.0469 46.0094,697.0469 Q46.9469,697.0469 47.6031,696.7969 Q47.9938,696.6406 48.4156,696.2031 Q48.6813,695.9375 48.8219,695.8594 Q48.9781,695.7813 49.1813,695.7813 Q49.5094,695.7813 49.7594,696.0469 Q50.025,696.2969 50.025,696.6406 Q50.025,696.9844 49.6813,697.3906 Q49.1813,697.9688 48.3844,698.2969 Q47.3063,698.75 46.0094,698.75 Q44.4938,698.75 43.2906,698.125 Q42.3063,697.625 41.6188,696.5625 Q40.9313,695.4844 40.9313,694.2031 L40.9313,693.0469 Q40.9313,691.7188 41.5406,690.5781 Q42.1656,689.4219 43.2594,688.8125 Q44.3531,688.1875 45.5875,688.1875 Q46.3219,688.1875 46.9625,688.3594 Q47.6188,688.5156 48.1656,688.875 Z " fill="#000000"/><text fill="#000000" font-family="sans-serif" font-size="14" lengthAdjust="spacing" textLength="93" x="64.6" y="698.7969">SkillRepository</text><line style="stroke:#181818;stroke-width:0.5;" x1="8" x2="183" y1="709" y2="709"/><line style="stroke:#181818;stroke-width:0.5;" x1="8" x2="183" y1="717" y2="717"/><text fill="#000000" font-family="sans-serif" font-size="14" lengthAdjust="spacing" textLength="165" x="13" y="736.1074">+getAllSkills() : List&lt;skills&gt;</text></g><!--class EmployeeRepository--><g id="elem_EmployeeRepository"><rect codeLine="60" fill="#F1F1F1" height="66.6211" id="EmployeeRepository" rx="2.5" ry="2.5" style="stroke:#181818;stroke-width:0.5;" width="252" x="219.5" y="677"/><ellipse cx="276.25" cy="693" fill="#ADD1B2" rx="11" ry="11" style="stroke:#181818;stroke-width:1.0;"/><path d="M279.0156,688.875 Q279.1719,688.6563 279.3594,688.5469 Q279.5469,688.4375 279.7656,688.4375 Q280.1406,688.4375 280.375,688.7031 Q280.6094,688.9531 280.6094,689.5625 L280.6094,691.0156 Q280.6094,691.625 280.375,691.8906 Q280.1406,692.1563 279.7656,692.1563 Q279.4219,692.1563 279.2188,691.9531 Q279.0156,691.7656 278.9063,691.25 Q278.8594,690.8906 278.6719,690.7031 Q278.3438,690.3281 277.7344,690.1094 Q277.125,689.8906 276.5,689.8906 Q275.7344,689.8906 275.0938,690.2188 Q274.4688,690.5469 273.9688,691.2969 Q273.4844,692.0469 273.4844,693.0781 L273.4844,694.1719 Q273.4844,695.4063 274.375,696.2344 Q275.2656,697.0469 276.8594,697.0469 Q277.7969,697.0469 278.4531,696.7969 Q278.8438,696.6406 279.2656,696.2031 Q279.5313,695.9375 279.6719,695.8594 Q279.8281,695.7813 280.0313,695.7813 Q280.3594,695.7813 280.6094,696.0469 Q280.875,696.2969 280.875,696.6406 Q280.875,696.9844 280.5313,697.3906 Q280.0313,697.9688 279.2344,698.2969 Q278.1563,698.75 276.8594,698.75 Q275.3438,698.75 274.1406,698.125 Q273.1563,697.625 272.4688,696.5625 Q271.7813,695.4844 271.7813,694.2031 L271.7813,693.0469 Q271.7813,691.7188 272.3906,690.5781 Q273.0156,689.4219 274.1094,688.8125 Q275.2031,688.1875 276.4375,688.1875 Q277.1719,688.1875 277.8125,688.3594 Q278.4688,688.5156 279.0156,688.875 Z " fill="#000000"/><text fill="#000000" font-family="sans-serif" font-size="14" lengthAdjust="spacing" textLength="130" x="296.75" y="698.7969">EmployeeRepository</text><line style="stroke:#181818;stroke-width:0.5;" x1="220.5" x2="470.5" y1="709" y2="709"/><line style="stroke:#181818;stroke-width:0.5;" x1="220.5" x2="470.5" y1="717" y2="717"/><text fill="#000000" font-family="sans-serif" font-size="14" lengthAdjust="spacing" textLength="240" x="225.5" y="736.1074">+getAllEmployees() : List&lt;employees&gt;</text></g><!--class TeamRepository--><g id="elem_TeamRepository"><rect codeLine="64" fill="#F1F1F1" height="85.2422" id="TeamRepository" rx="2.5" ry="2.5" style="stroke:#181818;stroke-width:0.5;" width="176" x="506.5" y="668"/><ellipse cx="539.5" cy="684" fill="#ADD1B2" rx="11" ry="11" style="stroke:#181818;stroke-width:1.0;"/><path d="M542.2656,679.875 Q542.4219,679.6563 542.6094,679.5469 Q542.7969,679.4375 543.0156,679.4375 Q543.3906,679.4375 543.625,679.7031 Q543.8594,679.9531 543.8594,680.5625 L543.8594,682.0156 Q543.8594,682.625 543.625,682.8906 Q543.3906,683.1563 543.0156,683.1563 Q542.6719,683.1563 542.4688,682.9531 Q542.2656,682.7656 542.1563,682.25 Q542.1094,681.8906 541.9219,681.7031 Q541.5938,681.3281 540.9844,681.1094 Q540.375,680.8906 539.75,680.8906 Q538.9844,680.8906 538.3438,681.2188 Q537.7188,681.5469 537.2188,682.2969 Q536.7344,683.0469 536.7344,684.0781 L536.7344,685.1719 Q536.7344,686.4063 537.625,687.2344 Q538.5156,688.0469 540.1094,688.0469 Q541.0469,688.0469 541.7031,687.7969 Q542.0938,687.6406 542.5156,687.2031 Q542.7813,686.9375 542.9219,686.8594 Q543.0781,686.7813 543.2813,686.7813 Q543.6094,686.7813 543.8594,687.0469 Q544.125,687.2969 544.125,687.6406 Q544.125,687.9844 543.7813,688.3906 Q543.2813,688.9688 542.4844,689.2969 Q541.4063,689.75 540.1094,689.75 Q538.5938,689.75 537.3906,689.125 Q536.4063,688.625 535.7188,687.5625 Q535.0313,686.4844 535.0313,685.2031 L535.0313,684.0469 Q535.0313,682.7188 535.6406,681.5781 Q536.2656,680.4219 537.3594,679.8125 Q538.4531,679.1875 539.6875,679.1875 Q540.4219,679.1875 541.0625,679.3594 Q541.7188,679.5156 542.2656,679.875 Z " fill="#000000"/><text fill="#000000" font-family="sans-serif" font-size="14" lengthAdjust="spacing" textLength="104" x="557.5" y="689.7969">TeamRepository</text><line style="stroke:#181818;stroke-width:0.5;" x1="507.5" x2="681.5" y1="700" y2="700"/><line style="stroke:#181818;stroke-width:0.5;" x1="507.5" x2="681.5" y1="708" y2="708"/><text fill="#000000" font-family="sans-serif" font-size="14" lengthAdjust="spacing" textLength="78" x="512.5" y="727.1074">+addTeam()</text><text fill="#000000" font-family="sans-serif" font-size="14" lengthAdjust="spacing" textLength="164" x="512.5" y="745.7285">+validateTeam(newTeam)</text></g><!--class AuthenticationRepository--><g id="elem_AuthenticationRepository"><rect codeLine="69" fill="#F1F1F1" height="66.6211" id="AuthenticationRepository" rx="2.5" ry="2.5" style="stroke:#181818;stroke-width:0.5;" width="195" x="789" y="457"/><ellipse cx="806.25" cy="473" fill="#ADD1B2" rx="11" ry="11" style="stroke:#181818;stroke-width:1.0;"/><path d="M809.0156,468.875 Q809.1719,468.6563 809.3594,468.5469 Q809.5469,468.4375 809.7656,468.4375 Q810.1406,468.4375 810.375,468.7031 Q810.6094,468.9531 810.6094,469.5625 L810.6094,471.0156 Q810.6094,471.625 810.375,471.8906 Q810.1406,472.1563 809.7656,472.1563 Q809.4219,472.1563 809.2188,471.9531 Q809.0156,471.7656 808.9063,471.25 Q808.8594,470.8906 808.6719,470.7031 Q808.3438,470.3281 807.7344,470.1094 Q807.125,469.8906 806.5,469.8906 Q805.7344,469.8906 805.0938,470.2188 Q804.4688,470.5469 803.9688,471.2969 Q803.4844,472.0469 803.4844,473.0781 L803.4844,474.1719 Q803.4844,475.4063 804.375,476.2344 Q805.2656,477.0469 806.8594,477.0469 Q807.7969,477.0469 808.4531,476.7969 Q808.8438,476.6406 809.2656,476.2031 Q809.5313,475.9375 809.6719,475.8594 Q809.8281,475.7813 810.0313,475.7813 Q810.3594,475.7813 810.6094,476.0469 Q810.875,476.2969 810.875,476.6406 Q810.875,476.9844 810.5313,477.3906 Q810.0313,477.9688 809.2344,478.2969 Q808.1563,478.75 806.8594,478.75 Q805.3438,478.75 804.1406,478.125 Q803.1563,477.625 802.4688,476.5625 Q801.7813,475.4844 801.7813,474.2031 L801.7813,473.0469 Q801.7813,471.7188 802.3906,470.5781 Q803.0156,469.4219 804.1094,468.8125 Q805.2031,468.1875 806.4375,468.1875 Q807.1719,468.1875 807.8125,468.3594 Q808.4688,468.5156 809.0156,468.875 Z " fill="#000000"/><text fill="#000000" font-family="sans-serif" font-size="14" lengthAdjust="spacing" textLength="158" x="820.75" y="478.7969">AuthenticationRepository</text><line style="stroke:#181818;stroke-width:0.5;" x1="790" x2="983" y1="489" y2="489"/><line style="stroke:#181818;stroke-width:0.5;" x1="790" x2="983" y1="497" y2="497"/><text fill="#000000" font-family="sans-serif" font-size="14" lengthAdjust="spacing" textLength="183" x="795" y="516.1074">+getEmployeeFromSession()</text></g><!--class Team--><g id="elem_Team"><rect codeLine="73" fill="#F1F1F1" height="141.1055" id="Team" rx="2.5" ry="2.5" style="stroke:#181818;stroke-width:0.5;" width="248" x="416.5" y="1202"/><ellipse cx="518.25" cy="1218" fill="#ADD1B2" rx="11" ry="11" style="stroke:#181818;stroke-width:1.0;"/><path d="M521.0156,1213.875 Q521.1719,1213.6563 521.3594,1213.5469 Q521.5469,1213.4375 521.7656,1213.4375 Q522.1406,1213.4375 522.375,1213.7031 Q522.6094,1213.9531 522.6094,1214.5625 L522.6094,1216.0156 Q522.6094,1216.625 522.375,1216.8906 Q522.1406,1217.1563 521.7656,1217.1563 Q521.4219,1217.1563 521.2188,1216.9531 Q521.0156,1216.7656 520.9063,1216.25 Q520.8594,1215.8906 520.6719,1215.7031 Q520.3438,1215.3281 519.7344,1215.1094 Q519.125,1214.8906 518.5,1214.8906 Q517.7344,1214.8906 517.0938,1215.2188 Q516.4688,1215.5469 515.9688,1216.2969 Q515.4844,1217.0469 515.4844,1218.0781 L515.4844,1219.1719 Q515.4844,1220.4063 516.375,1221.2344 Q517.2656,1222.0469 518.8594,1222.0469 Q519.7969,1222.0469 520.4531,1221.7969 Q520.8438,1221.6406 521.2656,1221.2031 Q521.5313,1220.9375 521.6719,1220.8594 Q521.8281,1220.7813 522.0313,1220.7813 Q522.3594,1220.7813 522.6094,1221.0469 Q522.875,1221.2969 522.875,1221.6406 Q522.875,1221.9844 522.5313,1222.3906 Q522.0313,1222.9688 521.2344,1223.2969 Q520.1563,1223.75 518.8594,1223.75 Q517.3438,1223.75 516.1406,1223.125 Q515.1563,1222.625 514.4688,1221.5625 Q513.7813,1220.4844 513.7813,1219.2031 L513.7813,1218.0469 Q513.7813,1216.7188 514.3906,1215.5781 Q515.0156,1214.4219 516.1094,1213.8125 Q517.2031,1213.1875 518.4375,1213.1875 Q519.1719,1213.1875 519.8125,1213.3594 Q520.4688,1213.5156 521.0156,1213.875 Z " fill="#000000"/><text fill="#000000" font-family="sans-serif" font-size="14" lengthAdjust="spacing" textLength="36" x="538.75" y="1223.7969">Team</text><line style="stroke:#181818;stroke-width:0.5;" x1="417.5" x2="663.5" y1="1234" y2="1234"/><text fill="#000000" font-family="sans-serif" font-size="14" lengthAdjust="spacing" textLength="111" x="422.5" y="1253.1074">-teamMinSize : Int</text><text fill="#000000" font-family="sans-serif" font-size="14" lengthAdjust="spacing" textLength="114" x="422.5" y="1271.7285">-teamMaxSize : Int</text><text fill="#000000" font-family="sans-serif" font-size="14" lengthAdjust="spacing" textLength="115" x="422.5" y="1290.3496">-skills : List&lt;skills&gt;</text><text fill="#000000" font-family="sans-serif" font-size="14" lengthAdjust="spacing" textLength="191" x="422.5" y="1308.9707">-employees : List&lt;employees&gt;</text><line style="stroke:#181818;stroke-width:0.5;" x1="417.5" x2="663.5" y1="1316.4844" y2="1316.4844"/><text fill="#000000" font-family="sans-serif" font-size="14" lengthAdjust="spacing" textLength="236" x="422.5" y="1335.5918">+Team (List&lt;employees&gt; employees)</text></g><!--link EmployeeRepository to Employee--><g id="link_EmployeeRepository_Employee"><path codeLine="81" d="M370.39,744.18 C384.56,762.78 399.8135,782.8076 419.8535,809.1076 " fill="none" id="EmployeeRepository-to-Employee" style="stroke:#181818;stroke-width:1.0;"/><polygon fill="#181818" points="423.49,813.88,421.2169,804.297,420.4596,809.903,414.8537,809.1457,423.49,813.88" style="stroke:#181818;stroke-width:1.0;"/><text fill="#000000" font-family="sans-serif" font-size="13" lengthAdjust="spacing" textLength="7" x="410.2762" y="802.5128">1</text></g><!--link GenerateTeamUI to GenerateTeamController--><g id="link_GenerateTeamUI_GenerateTeamController"><path codeLine="83" d="M677.5,111.04 C677.5,129.91 677.5,145.64 677.5,165.88 " fill="none" id="GenerateTeamUI-to-GenerateTeamController" style="stroke:#181818;stroke-width:1.0;stroke-dasharray:7.0,7.0;"/><polygon fill="#181818" points="677.5,171.88,681.5,162.88,677.5,166.88,673.5,162.88,677.5,171.88" style="stroke:#181818;stroke-width:1.0;"/><text fill="#000000" font-family="sans-serif" font-size="13" lengthAdjust="spacing" textLength="7" x="670.0516" y="132.8524">1</text><text fill="#000000" font-family="sans-serif" font-size="13" lengthAdjust="spacing" textLength="7" x="670.1391" y="160.7586">1</text></g><!--link Repositories to Repositories--><g id="link_Repositories_Repositories"><path codeLine="85" d="M471.82,467.22 C492.56,470.95 506.5,478.71 506.5,490.5 C506.5,502.29 498.4653,508.988 477.7253,512.718 " fill="none" id="Repositories-to-Repositories" style="stroke:#181818;stroke-width:1.0;"/><polygon fill="#181818" points="471.82,513.78,481.3859,516.1238,476.741,512.895,479.9699,508.2501,471.82,513.78" style="stroke:#181818;stroke-width:1.0;"/><text fill="#000000" font-family="sans-serif" font-size="13" lengthAdjust="spacing" textLength="49" x="512.5" y="496.0283">instance</text></g><!--link Repositories to SkillRepository--><g id="link_Repositories_SkillRepository"><path codeLine="86" d="M223.71,589.02 C190.17,620.54 159.6322,649.241 134.7222,672.651 " fill="none" id="Repositories-to-SkillRepository" style="stroke:#181818;stroke-width:1.0;"/><polygon fill="#181818" points="130.35,676.76,139.6477,673.5114,133.9935,673.3359,134.1691,667.6817,130.35,676.76" style="stroke:#181818;stroke-width:1.0;"/><text fill="#000000" font-family="sans-serif" font-size="13" lengthAdjust="spacing" textLength="7" x="208.8309" y="610.9194">1</text><text fill="#000000" font-family="sans-serif" font-size="13" lengthAdjust="spacing" textLength="7" x="129.3261" y="665.8002">1</text></g><!--link Repositories to EmployeeRepository--><g id="link_Repositories_EmployeeRepository"><path codeLine="87" d="M335.55,589.02 C338.15,620.54 340.3645,647.3705 342.3045,670.7805 " fill="none" id="Repositories-to-EmployeeRepository" style="stroke:#181818;stroke-width:1.0;"/><polygon fill="#181818" points="342.8,676.76,346.043,667.4604,342.3871,671.7771,338.0704,668.1211,342.8,676.76" style="stroke:#181818;stroke-width:1.0;"/><text fill="#000000" font-family="sans-serif" font-size="13" lengthAdjust="spacing" textLength="7" x="328.8841" y="610.9194">1</text><text fill="#000000" font-family="sans-serif" font-size="13" lengthAdjust="spacing" textLength="7" x="334.6181" y="665.8002">1</text></g><!--link Repositories to TeamRepository--><g id="link_Repositories_TeamRepository"><path codeLine="88" d="M446.94,589.02 C480.82,616.68 511.2732,641.5444 538.7332,663.9744 " fill="none" id="Repositories-to-TeamRepository" style="stroke:#181818;stroke-width:1.0;"/><polygon fill="#181818" points="543.38,667.77,538.9402,658.9786,539.5076,664.607,533.8793,665.1744,543.38,667.77" style="stroke:#181818;stroke-width:1.0;"/><text fill="#000000" font-family="sans-serif" font-size="13" lengthAdjust="spacing" textLength="7" x="448.4543" y="610.9194">1</text><text fill="#000000" font-family="sans-serif" font-size="13" lengthAdjust="spacing" textLength="7" x="527.6749" y="656.6374">1</text></g><!--link Employee to Team--><g id="link_Employee_Team"><path codeLine="90" d="M540.5,1123.15 C540.5,1150.69 540.5,1172.12 540.5,1195.75 " fill="none" id="Employee-to-Team" style="stroke:#181818;stroke-width:1.0;"/><polygon fill="#181818" points="540.5,1201.75,544.5,1192.75,540.5,1196.75,536.5,1192.75,540.5,1201.75" style="stroke:#181818;stroke-width:1.0;"/><text fill="#000000" font-family="sans-serif" font-size="13" lengthAdjust="spacing" textLength="93" x="541.5" y="1168.0283">createNewTeam</text><text fill="#000000" font-family="sans-serif" font-size="13" lengthAdjust="spacing" textLength="7" x="533.3414" y="1144.5846">1</text><text fill="#000000" font-family="sans-serif" font-size="13" lengthAdjust="spacing" textLength="5" x="535.2422" y="1190.6152">*</text></g><!--link GenerateTeamController to TeamRepository--><g id="link_GenerateTeamController_TeamRepository"><path codeLine="92" d="M663.38,313.4 C655.6,351.92 647.5,392 647.5,392 C647.5,392 616.7882,576.0119 602.4182,662.0719 " fill="none" id="GenerateTeamController-to-TeamRepository" style="stroke:#181818;stroke-width:1.0;stroke-dasharray:7.0,7.0;"/><polygon fill="#181818" points="601.43,667.99,606.8576,659.7717,602.2535,663.0583,598.9669,658.4541,601.43,667.99" style="stroke:#181818;stroke-width:1.0;"/><text fill="#000000" font-family="sans-serif" font-size="13" lengthAdjust="spacing" textLength="60" x="648.5" y="496.0283">addTeams</text></g><!--link GenerateTeamController to Repositories--><g id="link_GenerateTeamController_Repositories"><path codeLine="93" d="M571.11,313.15 C545.56,329.87 525.5,343 525.5,343 C525.5,343 500.5632,361.4512 464.1132,388.4212 " fill="none" id="GenerateTeamController-to-Repositories" style="stroke:#181818;stroke-width:1.0;stroke-dasharray:7.0,7.0;"/><polygon fill="#181818" points="459.29,391.99,468.9041,389.8523,463.3094,389.016,464.1457,383.4213,459.29,391.99" style="stroke:#181818;stroke-width:1.0;"/><text fill="#000000" font-family="sans-serif" font-size="13" lengthAdjust="spacing" textLength="67" x="526.5" y="358.0283">repositories</text><text fill="#000000" font-family="sans-serif" font-size="13" lengthAdjust="spacing" textLength="7" x="552.7776" y="335.3502">1</text><text fill="#000000" font-family="sans-serif" font-size="13" lengthAdjust="spacing" textLength="7" x="462.1122" y="380.8377">1</text></g><!--link GenerateTeamController to Employee--><g id="link_GenerateTeamController_Employee"><path codeLine="94" d="M694.45,313.4 C703.78,351.92 713.5,392 713.5,392 C713.5,392 713.5,589 713.5,589 C713.5,589 699.5,753 699.5,753 C699.5,753 683.4235,774.6902 657.9335,809.0702 " fill="none" id="GenerateTeamController-to-Employee" style="stroke:#181818;stroke-width:1.0;stroke-dasharray:7.0,7.0;"/><polygon fill="#181818" points="654.36,813.89,662.9334,809.0427,657.3379,809.8735,656.507,804.278,654.36,813.89" style="stroke:#181818;stroke-width:1.0;"/><text fill="#000000" font-family="sans-serif" font-size="13" lengthAdjust="spacing" textLength="68" x="712.5" y="634.0283">createTeam</text></g><!--link GenerateTeamController to AuthenticationRepository--><g id="link_GenerateTeamController_AuthenticationRepository"><path codeLine="95" d="M736.55,313.01 C776.63,360.18 823.8958,415.8069 854.9058,452.3169 " fill="none" id="GenerateTeamController-to-AuthenticationRepository" style="stroke:#181818;stroke-width:1.0;"/><polygon fill="#181818" points="858.79,456.89,856.0125,447.4409,855.5532,453.0791,849.915,452.6198,858.79,456.89" style="stroke:#181818;stroke-width:1.0;"/><text fill="#000000" font-family="sans-serif" font-size="13" lengthAdjust="spacing" textLength="134" x="777.5" y="358.0283">getCurrentUserSession</text><text fill="#000000" font-family="sans-serif" font-size="13" lengthAdjust="spacing" textLength="7" x="735.2786" y="335.1958">1</text><text fill="#000000" font-family="sans-serif" font-size="13" lengthAdjust="spacing" textLength="7" x="845.6455" y="445.6939">1</text></g><!--SRC=[ZLLDRzim3BthLmYxD5dJOhi6Gu6ksOOKNJSixMqNsMOJhRAKINBRhDX_7_LXMtAShha48X-V7YcIFZBtN6wPPZMjbLJbHgiQgDKDaDwpPUKzMyFAxWHG3QLbSYrIWDcmIZrokQPtJ9ZK8xW4kzi2tIgnSmToDE9KsYgIH9M26NDkhUP5Os5PAhdYVu2-8-H8m9sbLb7DrnjBA-xaS2K9yJ7q2qZGpC8DiFf2IQkL4A3fCw7uEx5e_G5RPRXLUaVdz2Op113A4293hN9BW46z5Me7a24_xHaz-FY0haakQ1h1fOO8zO2lxCcbFwF-m6KuU9bcIiXVCfRyxJ8cVQmREOdC6dutOEo2MVOAPXzYcgBc8MAQNDKc6Wih6NOD5WfVJAw3gU3QRYfKW_OhLJA1711ShAgvCVXgYmFkIWFUaVFLgk02NErOQT6tbBPz2CP5RqzZbejAbJUkmuPssTG5zaL2OzdJzPxnbohmUAaA4ghHfaqdWOvA79TPfv-wVB_TVNIfptxAtfvbF8jQSE8qgzYCSeaj3G9gzG02uwBR9zQ1URK8kGHyJ2n8nXZFmPw-intePHNDRIns6uPX6XGJyiyONh5hFGuclYII6vplqfKiTKVl_-V2NP6XBjDpnBnsU6BPwHhiCkgQJCUKUSX0JzlrpfM9I1txbqwI0WqOd_kuSo6yqtWzLzpO3s5kplheVUwSeFKd76rXKffyIRKKE2L-GxIvF331gtPjI7Xq_qacvutTWBIyP6vTZYfgvNp6Ry0AVBkcjN24oHwDwo8ReNwbfEPGbs6LiYLgHlBtkjobT39mTUrZlBpzCjEJapFwvlsRxWK86Un6vpmz3Q3ntKn8scGK2RFpl1kK7ES8szk7yt4GEDBv1x63JrQNVGzw6q0eCNn8haCpv3L8Fewk3ZdhlEqkSoWchT-WBZgTpHUkx8JFam_UI_Ur5JZKoaY4NNpHQ8tUMmCwDZ7v1m00]--></g></svg>