<?xml version="1.0" encoding="us-ascii" standalone="no"?><svg xmlns="http://www.w3.org/2000/svg" xmlns:xlink="http://www.w3.org/1999/xlink" contentStyleType="text/css" height="1428px" preserveAspectRatio="none" style="width:840px;height:1428px;background:#FFFFFF;" version="1.1" viewBox="0 0 840 1428" width="840px" zoomAndPan="magnify"><defs/><g><!--class ListMyAgendaUI--><g id="elem_ListMyAgendaUI"><rect codeLine="11" fill="#F1F1F1" height="64.4883" id="ListMyAgendaUI" rx="2.5" ry="2.5" style="stroke:#181818;stroke-width:0.5;" width="141" x="224" y="7"/><ellipse cx="239" cy="23" fill="#ADD1B2" rx="11" ry="11" style="stroke:#181818;stroke-width:1.0;"/><path d="M241.9731,28.6431 Q241.3921,28.9419 240.7529,29.0913 Q240.1138,29.2407 239.4082,29.2407 Q236.9014,29.2407 235.5815,27.5889 Q234.2617,25.937 234.2617,22.8159 Q234.2617,19.6865 235.5815,18.0347 Q236.9014,16.3828 239.4082,16.3828 Q240.1138,16.3828 240.7612,16.5322 Q241.4087,16.6816 241.9731,16.9805 L241.9731,19.7031 Q241.3423,19.1221 240.7488,18.8523 Q240.1553,18.5825 239.5244,18.5825 Q238.1797,18.5825 237.4949,19.6492 Q236.8101,20.7158 236.8101,22.8159 Q236.8101,24.9077 237.4949,25.9744 Q238.1797,27.041 239.5244,27.041 Q240.1553,27.041 240.7488,26.7712 Q241.3423,26.5015 241.9731,25.9204 Z " fill="#000000"/><text fill="#000000" font-family="sans-serif" font-size="14" lengthAdjust="spacing" textLength="109" x="253" y="28.291">ListMyAgendaUI</text><line style="stroke:#181818;stroke-width:0.5;" x1="225" x2="364" y1="39" y2="39"/><line style="stroke:#181818;stroke-width:0.5;" x1="225" x2="364" y1="47" y2="47"/><text fill="#000000" font-family="sans-serif" font-size="14" lengthAdjust="spacing" textLength="45" x="230" y="64.5352">+run()</text></g><!--class CreateEntryToAgendaController--><g id="elem_CreateEntryToAgendaController"><rect codeLine="15" fill="#F1F1F1" height="130.4414" id="CreateEntryToAgendaController" rx="2.5" ry="2.5" style="stroke:#181818;stroke-width:0.5;" width="370" x="109.5" y="131.49"/><ellipse cx="179.75" cy="147.49" fill="#ADD1B2" rx="11" ry="11" style="stroke:#181818;stroke-width:1.0;"/><path d="M182.7231,153.1331 Q182.1421,153.4319 181.5029,153.5813 Q180.8638,153.7307 180.1582,153.7307 Q177.6514,153.7307 176.3315,152.0789 Q175.0117,150.427 175.0117,147.3059 Q175.0117,144.1765 176.3315,142.5247 Q177.6514,140.8728 180.1582,140.8728 Q180.8638,140.8728 181.5112,141.0222 Q182.1587,141.1716 182.7231,141.4705 L182.7231,144.1931 Q182.0923,143.6121 181.4988,143.3423 Q180.9053,143.0725 180.2744,143.0725 Q178.9297,143.0725 178.2449,144.1392 Q177.5601,145.2058 177.5601,147.3059 Q177.5601,149.3977 178.2449,150.4644 Q178.9297,151.531 180.2744,151.531 Q180.9053,151.531 181.4988,151.2612 Q182.0923,150.9915 182.7231,150.4104 Z " fill="#000000"/><text fill="#000000" font-family="sans-serif" font-size="14" lengthAdjust="spacing" textLength="221" x="200.25" y="152.781">CreateEntryToAgendaController</text><line style="stroke:#181818;stroke-width:0.5;" x1="110.5" x2="478.5" y1="163.49" y2="163.49"/><text fill="#000000" font-family="sans-serif" font-size="14" lengthAdjust="spacing" textLength="270" x="115.5" y="181.0252">-agendaRepository : AgendaRepository</text><text fill="#000000" font-family="sans-serif" font-size="14" lengthAdjust="spacing" textLength="358" x="115.5" y="197.5134">-authenticationRepository:AuthenticationRepository</text><line style="stroke:#181818;stroke-width:0.5;" x1="110.5" x2="478.5" y1="204.4666" y2="204.4666"/><text fill="#000000" font-family="sans-serif" font-size="14" lengthAdjust="spacing" textLength="194" x="115.5" y="222.0017">-getEmployeeFromSession()</text><text fill="#000000" font-family="sans-serif" font-size="14" lengthAdjust="spacing" textLength="108" x="115.5" y="238.49">+getAllEntries()</text><text fill="#000000" font-family="sans-serif" font-size="14" lengthAdjust="spacing" textLength="356" x="115.5" y="254.9783">+getSortedEntriesByDate(List&lt;Entry&gt; sortedEntries)</text></g><!--class Collaborator--><g id="elem_Collaborator"><rect codeLine="24" fill="#F1F1F1" height="295.3242" id="Collaborator" rx="2.5" ry="2.5" style="stroke:#181818;stroke-width:0.5;" width="458" x="375.5" y="338.93"/><ellipse cx="556.75" cy="354.93" fill="#ADD1B2" rx="11" ry="11" style="stroke:#181818;stroke-width:1.0;"/><path d="M559.7231,360.5731 Q559.1421,360.8719 558.5029,361.0213 Q557.8638,361.1707 557.1582,361.1707 Q554.6514,361.1707 553.3315,359.5189 Q552.0117,357.867 552.0117,354.7459 Q552.0117,351.6165 553.3315,349.9647 Q554.6514,348.3128 557.1582,348.3128 Q557.8638,348.3128 558.5112,348.4622 Q559.1587,348.6116 559.7231,348.9105 L559.7231,351.6331 Q559.0923,351.0521 558.4988,350.7823 Q557.9053,350.5125 557.2744,350.5125 Q555.9297,350.5125 555.2449,351.5792 Q554.5601,352.6458 554.5601,354.7459 Q554.5601,356.8377 555.2449,357.9044 Q555.9297,358.971 557.2744,358.971 Q557.9053,358.971 558.4988,358.7012 Q559.0923,358.4315 559.7231,357.8504 Z " fill="#000000"/><text fill="#000000" font-family="sans-serif" font-size="14" lengthAdjust="spacing" textLength="87" x="577.25" y="360.221">Collaborator</text><line style="stroke:#181818;stroke-width:0.5;" x1="376.5" x2="832.5" y1="370.93" y2="370.93"/><text fill="#000000" font-family="sans-serif" font-size="14" lengthAdjust="spacing" textLength="91" x="381.5" y="388.4652">-name:String</text><text fill="#000000" font-family="sans-serif" font-size="14" lengthAdjust="spacing" textLength="106" x="381.5" y="404.9534">-birthdate:Date</text><text fill="#000000" font-family="sans-serif" font-size="14" lengthAdjust="spacing" textLength="144" x="381.5" y="421.4417">-admissionDate:Date</text><text fill="#000000" font-family="sans-serif" font-size="14" lengthAdjust="spacing" textLength="62" x="381.5" y="437.93">-address</text><text fill="#000000" font-family="sans-serif" font-size="14" lengthAdjust="spacing" textLength="153" x="381.5" y="454.4183">-mobileContact:String</text><text fill="#000000" font-family="sans-serif" font-size="14" lengthAdjust="spacing" textLength="143" x="381.5" y="470.9066">-emailContact:String</text><text fill="#000000" font-family="sans-serif" font-size="14" lengthAdjust="spacing" textLength="125" x="381.5" y="487.3948">-IDdocType:String</text><text fill="#000000" font-family="sans-serif" font-size="14" lengthAdjust="spacing" textLength="121" x="381.5" y="503.8831">-IDnumber:String</text><text fill="#000000" font-family="sans-serif" font-size="14" lengthAdjust="spacing" textLength="130" x="381.5" y="520.3714">-taxNumber:String</text><text fill="#000000" font-family="sans-serif" font-size="14" lengthAdjust="spacing" textLength="56" x="381.5" y="536.8597">-job:Job</text><text fill="#000000" font-family="sans-serif" font-size="14" lengthAdjust="spacing" textLength="156" x="381.5" y="553.348">-skills:ArrayList&lt;Skill&gt;</text><line style="stroke:#181818;stroke-width:0.5;" x1="376.5" x2="832.5" y1="560.3011" y2="560.3011"/><text fill="#000000" font-family="sans-serif" font-size="14" lengthAdjust="spacing" textLength="347" x="381.5" y="577.8363">+Collaborator (String nome,LocalDate dateOfBirth,</text><text fill="#000000" font-family="sans-serif" font-size="14" lengthAdjust="spacing" textLength="377" x="381.5" y="594.3245">LocalDate admissionDate, String morada, int telemovel,</text><text fill="#000000" font-family="sans-serif" font-size="14" lengthAdjust="spacing" textLength="354" x="381.5" y="610.8128">String email, String idDocType, int docTypeNumber,</text><text fill="#000000" font-family="sans-serif" font-size="14" lengthAdjust="spacing" textLength="446" x="381.5" y="627.3011">int taxPayerIdNumber, String role, Job job, ArrayList&lt;Skill&gt; skills)</text></g><!--class Repositories--><g id="elem_Repositories"><rect codeLine="40" fill="#F1F1F1" height="179.9063" id="Repositories" rx="2.5" ry="2.5" style="stroke:#181818;stroke-width:0.5;" width="374" x="107.5" y="711.25"/><ellipse cx="247.75" cy="727.25" fill="#ADD1B2" rx="11" ry="11" style="stroke:#181818;stroke-width:1.0;"/><path d="M250.7231,732.8931 Q250.1421,733.1919 249.5029,733.3413 Q248.8638,733.4907 248.1582,733.4907 Q245.6514,733.4907 244.3315,731.8389 Q243.0117,730.187 243.0117,727.0659 Q243.0117,723.9365 244.3315,722.2847 Q245.6514,720.6328 248.1582,720.6328 Q248.8638,720.6328 249.5112,720.7822 Q250.1587,720.9316 250.7231,721.2305 L250.7231,723.9531 Q250.0923,723.3721 249.4988,723.1023 Q248.9053,722.8325 248.2744,722.8325 Q246.9297,722.8325 246.2449,723.8992 Q245.5601,724.9658 245.5601,727.0659 Q245.5601,729.1577 246.2449,730.2244 Q246.9297,731.291 248.2744,731.291 Q248.9053,731.291 249.4988,731.0212 Q250.0923,730.7515 250.7231,730.1704 Z " fill="#000000"/><text fill="#000000" font-family="sans-serif" font-size="14" lengthAdjust="spacing" textLength="85" x="268.25" y="732.541">Repositories</text><line style="stroke:#181818;stroke-width:0.5;" x1="108.5" x2="480.5" y1="743.25" y2="743.25"/><text fill="#000000" font-family="sans-serif" font-size="14" lengthAdjust="spacing" textLength="158" x="113.5" y="760.7852">-instance: Repositories</text><text fill="#000000" font-family="sans-serif" font-size="14" lengthAdjust="spacing" textLength="362" x="113.5" y="777.2734">-authenticationRepository: AuthenticationRepository</text><text fill="#000000" font-family="sans-serif" font-size="14" lengthAdjust="spacing" textLength="333" x="113.5" y="793.7617">-collaboratorRepository: CollaboratorRepository</text><text fill="#000000" font-family="sans-serif" font-size="14" lengthAdjust="spacing" textLength="337" x="113.5" y="810.25">-greenSpacesRepository: GreenSpacesRepository</text><line style="stroke:#181818;stroke-width:0.5;" x1="108.5" x2="480.5" y1="817.2031" y2="817.2031"/><text fill="#000000" font-family="sans-serif" font-size="14" lengthAdjust="spacing" textLength="100" x="113.5" y="834.7383">+getInstance()</text><text fill="#000000" font-family="sans-serif" font-size="14" lengthAdjust="spacing" textLength="217" x="113.5" y="851.2266">+getAuthenticationRepository()</text><text fill="#000000" font-family="sans-serif" font-size="14" lengthAdjust="spacing" textLength="203" x="113.5" y="867.7148">+getCollaboratorRepository()</text><text fill="#000000" font-family="sans-serif" font-size="14" lengthAdjust="spacing" textLength="204" x="113.5" y="884.2031">+getGreenSpacesRepository()</text></g><!--class AgendaRepository--><g id="elem_AgendaRepository"><rect codeLine="52" fill="#F1F1F1" height="64.4883" id="AgendaRepository" rx="2.5" ry="2.5" style="stroke:#181818;stroke-width:0.5;" width="212" x="65.5" y="968.16"/><ellipse cx="104.8" cy="984.16" fill="#ADD1B2" rx="11" ry="11" style="stroke:#181818;stroke-width:1.0;"/><path d="M107.7731,989.8031 Q107.1921,990.1019 106.5529,990.2513 Q105.9138,990.4007 105.2082,990.4007 Q102.7014,990.4007 101.3815,988.7489 Q100.0617,987.097 100.0617,983.9759 Q100.0617,980.8465 101.3815,979.1947 Q102.7014,977.5428 105.2082,977.5428 Q105.9138,977.5428 106.5612,977.6922 Q107.2087,977.8416 107.7731,978.1405 L107.7731,980.8631 Q107.1423,980.2821 106.5488,980.0123 Q105.9553,979.7425 105.3244,979.7425 Q103.9797,979.7425 103.2949,980.8092 Q102.6101,981.8758 102.6101,983.9759 Q102.6101,986.0677 103.2949,987.1344 Q103.9797,988.201 105.3244,988.201 Q105.9553,988.201 106.5488,987.9312 Q107.1423,987.6615 107.7731,987.0804 Z " fill="#000000"/><text fill="#000000" font-family="sans-serif" font-size="14" lengthAdjust="spacing" textLength="126" x="124.2" y="989.451">AgendaRepository</text><line style="stroke:#181818;stroke-width:0.5;" x1="66.5" x2="276.5" y1="1000.16" y2="1000.16"/><line style="stroke:#181818;stroke-width:0.5;" x1="66.5" x2="276.5" y1="1008.16" y2="1008.16"/><text fill="#000000" font-family="sans-serif" font-size="14" lengthAdjust="spacing" textLength="200" x="71.5" y="1025.6952">+getAllEntries() : List&lt;Entry&gt;</text></g><!--class AuthenticationRepository--><g id="elem_AuthenticationRepository"><rect codeLine="56" fill="#F1F1F1" height="64.4883" id="AuthenticationRepository" rx="2.5" ry="2.5" style="stroke:#181818;stroke-width:0.5;" width="209" x="312" y="968.16"/><ellipse cx="328.35" cy="984.16" fill="#ADD1B2" rx="11" ry="11" style="stroke:#181818;stroke-width:1.0;"/><path d="M331.3231,989.8031 Q330.7421,990.1019 330.1029,990.2513 Q329.4638,990.4007 328.7582,990.4007 Q326.2514,990.4007 324.9315,988.7489 Q323.6117,987.097 323.6117,983.9759 Q323.6117,980.8465 324.9315,979.1947 Q326.2514,977.5428 328.7582,977.5428 Q329.4638,977.5428 330.1112,977.6922 Q330.7587,977.8416 331.3231,978.1405 L331.3231,980.8631 Q330.6923,980.2821 330.0988,980.0123 Q329.5053,979.7425 328.8744,979.7425 Q327.5297,979.7425 326.8449,980.8092 Q326.1601,981.8758 326.1601,983.9759 Q326.1601,986.0677 326.8449,987.1344 Q327.5297,988.201 328.8744,988.201 Q329.5053,988.201 330.0988,987.9312 Q330.6923,987.6615 331.3231,987.0804 Z " fill="#000000"/><text fill="#000000" font-family="sans-serif" font-size="14" lengthAdjust="spacing" textLength="174" x="342.65" y="989.451">AuthenticationRepository</text><line style="stroke:#181818;stroke-width:0.5;" x1="313" x2="520" y1="1000.16" y2="1000.16"/><line style="stroke:#181818;stroke-width:0.5;" x1="313" x2="520" y1="1008.16" y2="1008.16"/><text fill="#000000" font-family="sans-serif" font-size="14" lengthAdjust="spacing" textLength="197" x="318" y="1025.6952">+getEmployeeFromSession()</text></g><!--class Entry--><g id="elem_Entry"><rect codeLine="60" fill="#F1F1F1" height="311.8125" id="Entry" rx="2.5" ry="2.5" style="stroke:#181818;stroke-width:0.5;" width="329" x="7" y="1109.65"/><ellipse cx="149.75" cy="1125.65" fill="#ADD1B2" rx="11" ry="11" style="stroke:#181818;stroke-width:1.0;"/><path d="M152.7231,1131.2931 Q152.1421,1131.5919 151.5029,1131.7413 Q150.8638,1131.8907 150.1582,1131.8907 Q147.6514,1131.8907 146.3315,1130.2389 Q145.0117,1128.587 145.0117,1125.4659 Q145.0117,1122.3365 146.3315,1120.6847 Q147.6514,1119.0328 150.1582,1119.0328 Q150.8638,1119.0328 151.5112,1119.1822 Q152.1587,1119.3316 152.7231,1119.6305 L152.7231,1122.3531 Q152.0923,1121.7721 151.4988,1121.5023 Q150.9053,1121.2325 150.2744,1121.2325 Q148.9297,1121.2325 148.2449,1122.2992 Q147.5601,1123.3658 147.5601,1125.4659 Q147.5601,1127.5577 148.2449,1128.6244 Q148.9297,1129.691 150.2744,1129.691 Q150.9053,1129.691 151.4988,1129.4212 Q152.0923,1129.1515 152.7231,1128.5704 Z " fill="#000000"/><text fill="#000000" font-family="sans-serif" font-size="14" lengthAdjust="spacing" textLength="35" x="170.25" y="1130.941">Entry</text><line style="stroke:#181818;stroke-width:0.5;" x1="8" x2="335" y1="1141.65" y2="1141.65"/><text fill="#000000" font-family="sans-serif" font-size="14" lengthAdjust="spacing" textLength="91" x="13" y="1159.1852">-String name</text><text fill="#000000" font-family="sans-serif" font-size="14" lengthAdjust="spacing" textLength="130" x="13" y="1175.6734">-String description</text><text fill="#000000" font-family="sans-serif" font-size="14" lengthAdjust="spacing" textLength="157" x="13" y="1192.1617">-String urgencyDegree</text><text fill="#000000" font-family="sans-serif" font-size="14" lengthAdjust="spacing" textLength="89" x="13" y="1208.65">-int duration</text><text fill="#000000" font-family="sans-serif" font-size="14" lengthAdjust="spacing" textLength="141" x="13" y="1225.1383">-String classification</text><text fill="#000000" font-family="sans-serif" font-size="14" lengthAdjust="spacing" textLength="173" x="13" y="1241.6266">-GreenSpace greenSpace</text><text fill="#000000" font-family="sans-serif" font-size="14" lengthAdjust="spacing" textLength="94" x="13" y="1258.1148">-String status</text><text fill="#000000" font-family="sans-serif" font-size="14" lengthAdjust="spacing" textLength="144" x="13" y="1274.6031">-LocalDate entryDate</text><text fill="#000000" font-family="sans-serif" font-size="14" lengthAdjust="spacing" textLength="63" x="13" y="1291.0914">-int hour</text><text fill="#000000" font-family="sans-serif" font-size="14" lengthAdjust="spacing" textLength="146" x="13" y="1307.5797">-LocalTime startTime</text><text fill="#000000" font-family="sans-serif" font-size="14" lengthAdjust="spacing" textLength="141" x="13" y="1324.068">-LocalTime endTime</text><text fill="#000000" font-family="sans-serif" font-size="14" lengthAdjust="spacing" textLength="84" x="13" y="1340.5563">-Team team</text><line style="stroke:#181818;stroke-width:0.5;" x1="8" x2="335" y1="1347.5094" y2="1347.5094"/><text fill="#000000" font-family="sans-serif" font-size="14" lengthAdjust="spacing" textLength="268" x="13" y="1365.0445">+Entry(String name, String description,</text><text fill="#000000" font-family="sans-serif" font-size="14" lengthAdjust="spacing" textLength="242" x="13" y="1381.5328">String urgencyDegree, int duration,</text><text fill="#000000" font-family="sans-serif" font-size="14" lengthAdjust="spacing" textLength="313" x="13" y="1398.0211">GreenSpace greenSpace, LocalDate entryDate,</text><text fill="#000000" font-family="sans-serif" font-size="14" lengthAdjust="spacing" textLength="144" x="13" y="1414.5094">int hour, Team team)</text></g><!--link ListMyAgendaUI to CreateEntryToAgendaController--><g id="link_ListMyAgendaUI_CreateEntryToAgendaController"><path codeLine="78" d="M294.5,71.7 C294.5,88.83 294.5,104.66 294.5,125.22 " fill="none" id="ListMyAgendaUI-to-CreateEntryToAgendaController" style="stroke:#181818;stroke-width:1.0;stroke-dasharray:7.0,7.0;"/><polygon fill="#181818" points="294.5,131.22,298.5,122.22,294.5,126.22,290.5,122.22,294.5,131.22" style="stroke:#181818;stroke-width:1.0;"/><text fill="#000000" font-family="sans-serif" font-size="13" lengthAdjust="spacing" textLength="8" x="285.7125" y="92.1652">1</text><text fill="#000000" font-family="sans-serif" font-size="13" lengthAdjust="spacing" textLength="8" x="286.0625" y="120.822">1</text></g><!--link CreateEntryToAgendaController to Repositories--><g id="link_CreateEntryToAgendaController_Repositories"><path codeLine="80" d="M289.48,262.12 C286.58,299.37 283.5,338.93 283.5,338.93 C283.5,338.93 283.5,634.25 283.5,634.25 C283.5,634.25 285.5837,665.6431 288.1837,704.9231 " fill="none" id="CreateEntryToAgendaController-to-Repositories" style="stroke:#181818;stroke-width:1.0;"/><polygon fill="#181818" points="288.58,710.91,291.9768,701.6655,288.2498,705.9209,283.9943,702.1938,288.58,710.91" style="stroke:#181818;stroke-width:1.0;"/><text fill="#000000" font-family="sans-serif" font-size="13" lengthAdjust="spacing" textLength="73" x="284.5" y="491.6584">getInstance</text><text fill="#000000" font-family="sans-serif" font-size="13" lengthAdjust="spacing" textLength="8" x="280.4934" y="282.6798">1</text><text fill="#000000" font-family="sans-serif" font-size="13" lengthAdjust="spacing" textLength="8" x="279.7585" y="700.3927">1</text></g><!--link CreateEntryToAgendaController to Collaborator--><g id="link_CreateEntryToAgendaController_Collaborator"><path codeLine="81" d="M364.07,262.31 C388.62,285.11 412.9241,307.6764 441.7741,334.4764 " fill="none" id="CreateEntryToAgendaController-to-Collaborator" style="stroke:#181818;stroke-width:1.0;"/><polygon fill="#181818" points="446.17,338.56,442.2985,329.504,442.5067,335.157,436.8537,335.3653,446.17,338.56" style="stroke:#181818;stroke-width:1.0;"/><text fill="#000000" font-family="sans-serif" font-size="13" lengthAdjust="spacing" textLength="85" x="413.5" y="305.4984">listMyAgenda</text></g><!--link Repositories to Repositories--><g id="link_Repositories_Repositories"><path codeLine="83" d="M481.97,780.87 C502.94,784.71 516.5,791.48 516.5,801.21 C516.5,810.93 508.8424,816.632 487.8724,820.462 " fill="none" id="Repositories-to-Repositories" style="stroke:#181818;stroke-width:1.0;"/><polygon fill="#181818" points="481.97,821.54,491.5422,823.8579,486.8886,820.6417,490.1049,815.9881,481.97,821.54" style="stroke:#181818;stroke-width:1.0;"/><text fill="#000000" font-family="sans-serif" font-size="13" lengthAdjust="spacing" textLength="53" x="522.5" y="806.2784">instance</text></g><!--link Repositories to AgendaRepository--><g id="link_Repositories_AgendaRepository"><path codeLine="84" d="M238.76,891.57 C221.72,918.88 207.2654,942.0591 194.3354,962.7891 " fill="none" id="Repositories-to-AgendaRepository" style="stroke:#181818;stroke-width:1.0;stroke-dasharray:7.0,7.0;"/><polygon fill="#181818" points="191.16,967.88,199.317,962.3606,193.8061,963.6376,192.5291,958.1268,191.16,967.88" style="stroke:#181818;stroke-width:1.0;"/><text fill="#000000" font-family="sans-serif" font-size="13" lengthAdjust="spacing" textLength="38" x="219.5" y="934.7284">create</text><text fill="#000000" font-family="sans-serif" font-size="13" lengthAdjust="spacing" textLength="8" x="226.1862" y="911.6432">1</text><text fill="#000000" font-family="sans-serif" font-size="13" lengthAdjust="spacing" textLength="8" x="186.3899" y="957.2254">1</text></g><!--link Repositories to AuthenticationRepository--><g id="link_Repositories_AuthenticationRepository"><path codeLine="85" d="M349.79,891.57 C366.69,918.88 381.0124,942.0481 393.8424,962.7781 " fill="none" id="Repositories-to-AuthenticationRepository" style="stroke:#181818;stroke-width:1.0;"/><polygon fill="#181818" points="397,967.88,395.6648,958.1221,394.3687,963.6284,388.8623,962.3322,397,967.88" style="stroke:#181818;stroke-width:1.0;"/><text fill="#000000" font-family="sans-serif" font-size="13" lengthAdjust="spacing" textLength="143" x="377.5" y="934.7284">getCurrentUserSession</text><text fill="#000000" font-family="sans-serif" font-size="13" lengthAdjust="spacing" textLength="8" x="345.7169" y="911.6432">1</text><text fill="#000000" font-family="sans-serif" font-size="13" lengthAdjust="spacing" textLength="8" x="384.1531" y="957.2254">1</text></g><!--link AgendaRepository to Entry--><g id="link_AgendaRepository_Entry"><path codeLine="87" d="M171.5,1033.15 C171.5,1053.04 171.5,1074.31 171.5,1103.16 " fill="none" id="AgendaRepository-to-Entry" style="stroke:#181818;stroke-width:1.0;"/><polygon fill="#181818" points="171.5,1109.16,175.5,1100.16,171.5,1104.16,167.5,1100.16,171.5,1109.16" style="stroke:#181818;stroke-width:1.0;"/><text fill="#000000" font-family="sans-serif" font-size="13" lengthAdjust="spacing" textLength="29" x="172.5" y="1076.2184">have</text></g><!--link Collaborator to Repositories--><g id="link_Collaborator_Repositories"><path codeLine="89" d="M458.58,634.74 C432.82,660.72 410.9556,682.7704 387.3856,706.5304 " fill="none" id="Collaborator-to-Repositories" style="stroke:#181818;stroke-width:1.0;"/><polygon fill="#181818" points="383.16,710.79,392.3381,707.2176,386.6813,707.2403,386.6586,701.5835,383.16,710.79" style="stroke:#181818;stroke-width:1.0;"/><text fill="#000000" font-family="sans-serif" font-size="13" lengthAdjust="spacing" textLength="85" x="422.5" y="677.8184">listMyAgenda</text></g><!--SRC=[XLN9Rjim4BtpAuXSuY9oq5w58e1ZfuMBT47jt7gXfR7CXY8DaagZ1ltt3ad9eXOdEIJHR7nl-6PuQHwvF3BDIbeggRA3LYLGgoiWdUV8iaTMmCRM0gY6p39PY3Z075Yk_d1Pq3qJ9lO8Bi7MHw179MhtGIudd4fRHQAiJ31Z5jPglgiih3CbD_mlqFU4N0hOMseLrRmuM9fp1uShIOZFeVVSsA_reW2PiuSrVI4KVwvq9MVloBysQAc1MRYJLjTR5MAN2h-K4A2Rd3bbtl4JZifmgtHDKxeOcDh8oXv0Mfun1wLpfuip3j8a5c3logDGDS0dRFm6ZC4uXEfHE_T228UJWucj6smOv8tZjbuXcvbZ_j5pkg4cziV4aI7RASqGH4DJiXBI3GRA8XXsNDj3ZXLJLpROM5vo3sqrjESQCOUFKksu0DT8bjbUIIWP5rEEzIfNsHOLCB3Agjo1xXajU_usjlvMk_IBseKFr8yG9brepMhVZOqpt8HcNyNSwImKeHBLdjohZ0b7YZhQt_UthWF9BzdPU_mJsYINM2nd2UKI5Ga2IlK40lCQjsTz2kRvAb0DyGtlG0bpV0ts_8FLeDTvOsvpKPYOXZmfyatea20DnADxFYaDhx-LCvS6vpQ3jETzIy7qh8H3OXPrDKvRJjfRsMi0kS6j0YRE-Jnb9ftgrms3tdoSWHV7J6E98oPFZZV6SF2RlJ8OKDmGqHH6sMT0ldG8fjV0gOAlUDfChNXnTFkM74oc-T4ln9wZqaWWgrVWMdyI1CgmqcmSxS_a-mPlu-jw5DrVFm-lnrQjfBhf0GU-Mnh-u8EgT1ouvVZiOBwsxh-H1xiVsRU0RuJ5NwquV7jcKLkIYOuaz3IQlNOalKwug4cgoHGZ5ztIIJfS_kR8u2sw-711hwzl_DzNNo12Nd-WN87vF1IAPndb5qt96qLSWTvAJF4vxl0IqgkCmOEJsdNIZuivBiRlP-OXZLDQDkS69J1RLbgZzy60RaQ4aD4XhbIObfGUs1DWCsEMyp6J7kt_]--></g></svg>