<?xml version="1.0" encoding="us-ascii" standalone="no"?><svg xmlns="http://www.w3.org/2000/svg" xmlns:xlink="http://www.w3.org/1999/xlink" contentStyleType="text/css" height="1403px" preserveAspectRatio="none" style="width:1116px;height:1403px;background:#FFFFFF;" version="1.1" viewBox="0 0 1116 1403" width="1116px" zoomAndPan="magnify"><defs/><g><!--cluster UI--><g id="cluster_UI"><path d="M557.5,6 L573.5,6 A3.75,3.75 0 0 1 576,8.5 L583,28.4883 L724.5,28.4883 A2.5,2.5 0 0 1 727,30.9883 L727,118.99 A2.5,2.5 0 0 1 724.5,121.49 L557.5,121.49 A2.5,2.5 0 0 1 555,118.99 L555,8.5 A2.5,2.5 0 0 1 557.5,6 " fill="none" style="stroke:#000000;stroke-width:1.5;"/><line style="stroke:#000000;stroke-width:1.5;" x1="555" x2="583" y1="28.4883" y2="28.4883"/><text fill="#000000" font-family="sans-serif" font-size="14" font-weight="bold" lengthAdjust="spacing" textLength="15" x="559" y="21.5352">UI</text></g><!--cluster Controller--><g id="cluster_Controller"><path d="M442.5,153.49 L516.5,153.49 A3.75,3.75 0 0 1 519,155.99 L526,175.9783 L839.5,175.9783 A2.5,2.5 0 0 1 842,178.4783 L842,332.43 A2.5,2.5 0 0 1 839.5,334.93 L442.5,334.93 A2.5,2.5 0 0 1 440,332.43 L440,155.99 A2.5,2.5 0 0 1 442.5,153.49 " fill="none" style="stroke:#000000;stroke-width:1.5;"/><line style="stroke:#000000;stroke-width:1.5;" x1="440" x2="526" y1="175.9783" y2="175.9783"/><text fill="#000000" font-family="sans-serif" font-size="14" font-weight="bold" lengthAdjust="spacing" textLength="73" x="444" y="169.0252">Controller</text></g><!--cluster Repository--><g id="cluster_Repository"><path d="M8.5,383.93 L87.5,383.93 A3.75,3.75 0 0 1 90,386.43 L97,406.4183 L492.5,406.4183 A2.5,2.5 0 0 1 495,408.9183 L495,890.24 A2.5,2.5 0 0 1 492.5,892.74 L8.5,892.74 A2.5,2.5 0 0 1 6,890.24 L6,386.43 A2.5,2.5 0 0 1 8.5,383.93 " fill="none" style="stroke:#000000;stroke-width:1.5;"/><line style="stroke:#000000;stroke-width:1.5;" x1="6" x2="97" y1="406.4183" y2="406.4183"/><text fill="#000000" font-family="sans-serif" font-size="14" font-weight="bold" lengthAdjust="spacing" textLength="78" x="10" y="399.4652">Repository</text></g><!--cluster Domain--><g id="cluster_Domain"><path d="M621.5,661.83 L678.5,661.83 A3.75,3.75 0 0 1 681,664.33 L688,684.3183 L1106.5,684.3183 A2.5,2.5 0 0 1 1109,686.8183 L1109,1394.47 A2.5,2.5 0 0 1 1106.5,1396.97 L621.5,1396.97 A2.5,2.5 0 0 1 619,1394.47 L619,664.33 A2.5,2.5 0 0 1 621.5,661.83 " fill="none" style="stroke:#000000;stroke-width:1.5;"/><line style="stroke:#000000;stroke-width:1.5;" x1="619" x2="688" y1="684.3183" y2="684.3183"/><text fill="#000000" font-family="sans-serif" font-size="14" font-weight="bold" lengthAdjust="spacing" textLength="56" x="623" y="677.3652">Domain</text></g><!--class ListMyAgendaUI--><g id="elem_ListMyAgendaUI"><rect codeLine="12" fill="#F1F1F1" height="64.4883" id="ListMyAgendaUI" rx="2.5" ry="2.5" style="stroke:#181818;stroke-width:0.5;" width="141" x="570.5" y="41"/><ellipse cx="585.5" cy="57" fill="#ADD1B2" rx="11" ry="11" style="stroke:#181818;stroke-width:1.0;"/><path d="M588.4731,62.6431 Q587.8921,62.9419 587.2529,63.0913 Q586.6138,63.2407 585.9082,63.2407 Q583.4014,63.2407 582.0815,61.5889 Q580.7617,59.937 580.7617,56.8159 Q580.7617,53.6865 582.0815,52.0347 Q583.4014,50.3828 585.9082,50.3828 Q586.6138,50.3828 587.2612,50.5322 Q587.9087,50.6816 588.4731,50.9805 L588.4731,53.7031 Q587.8423,53.1221 587.2488,52.8523 Q586.6553,52.5825 586.0244,52.5825 Q584.6797,52.5825 583.9949,53.6492 Q583.3101,54.7158 583.3101,56.8159 Q583.3101,58.9077 583.9949,59.9744 Q584.6797,61.041 586.0244,61.041 Q586.6553,61.041 587.2488,60.7712 Q587.8423,60.5015 588.4731,59.9204 Z " fill="#000000"/><text fill="#000000" font-family="sans-serif" font-size="14" lengthAdjust="spacing" textLength="109" x="599.5" y="62.291">ListMyAgendaUI</text><line style="stroke:#181818;stroke-width:0.5;" x1="571.5" x2="710.5" y1="73" y2="73"/><line style="stroke:#181818;stroke-width:0.5;" x1="571.5" x2="710.5" y1="81" y2="81"/><text fill="#000000" font-family="sans-serif" font-size="14" lengthAdjust="spacing" textLength="45" x="576.5" y="98.5352">+run()</text></g><!--class CreateEntryToAgendaController--><g id="elem_CreateEntryToAgendaController"><rect codeLine="18" fill="#F1F1F1" height="130.4414" id="CreateEntryToAgendaController" rx="2.5" ry="2.5" style="stroke:#181818;stroke-width:0.5;" width="370" x="456" y="188.49"/><ellipse cx="526.25" cy="204.49" fill="#ADD1B2" rx="11" ry="11" style="stroke:#181818;stroke-width:1.0;"/><path d="M529.2231,210.1331 Q528.6421,210.4319 528.0029,210.5813 Q527.3638,210.7307 526.6582,210.7307 Q524.1514,210.7307 522.8315,209.0789 Q521.5117,207.427 521.5117,204.3059 Q521.5117,201.1765 522.8315,199.5247 Q524.1514,197.8728 526.6582,197.8728 Q527.3638,197.8728 528.0112,198.0222 Q528.6587,198.1716 529.2231,198.4705 L529.2231,201.1931 Q528.5923,200.6121 527.9988,200.3423 Q527.4053,200.0725 526.7744,200.0725 Q525.4297,200.0725 524.7449,201.1392 Q524.0601,202.2058 524.0601,204.3059 Q524.0601,206.3977 524.7449,207.4644 Q525.4297,208.531 526.7744,208.531 Q527.4053,208.531 527.9988,208.2612 Q528.5923,207.9915 529.2231,207.4104 Z " fill="#000000"/><text fill="#000000" font-family="sans-serif" font-size="14" lengthAdjust="spacing" textLength="221" x="546.75" y="209.781">CreateEntryToAgendaController</text><line style="stroke:#181818;stroke-width:0.5;" x1="457" x2="825" y1="220.49" y2="220.49"/><text fill="#000000" font-family="sans-serif" font-size="14" lengthAdjust="spacing" textLength="270" x="462" y="238.0252">-agendaRepository : AgendaRepository</text><text fill="#000000" font-family="sans-serif" font-size="14" lengthAdjust="spacing" textLength="358" x="462" y="254.5134">-authenticationRepository:AuthenticationRepository</text><line style="stroke:#181818;stroke-width:0.5;" x1="457" x2="825" y1="261.4666" y2="261.4666"/><text fill="#000000" font-family="sans-serif" font-size="14" lengthAdjust="spacing" textLength="194" x="462" y="279.0017">-getEmployeeFromSession()</text><text fill="#000000" font-family="sans-serif" font-size="14" lengthAdjust="spacing" textLength="108" x="462" y="295.49">+getAllEntries()</text><text fill="#000000" font-family="sans-serif" font-size="14" lengthAdjust="spacing" textLength="356" x="462" y="311.9783">+getSortedEntriesByDate(List&lt;Entry&gt; sortedEntries)</text></g><!--class Repositories--><g id="elem_Repositories"><rect codeLine="29" fill="#F1F1F1" height="179.9063" id="Repositories" rx="2.5" ry="2.5" style="stroke:#181818;stroke-width:0.5;" width="374" x="22" y="418.93"/><ellipse cx="162.25" cy="434.93" fill="#ADD1B2" rx="11" ry="11" style="stroke:#181818;stroke-width:1.0;"/><path d="M165.2231,440.5731 Q164.6421,440.8719 164.0029,441.0213 Q163.3638,441.1707 162.6582,441.1707 Q160.1514,441.1707 158.8315,439.5189 Q157.5117,437.867 157.5117,434.7459 Q157.5117,431.6165 158.8315,429.9647 Q160.1514,428.3128 162.6582,428.3128 Q163.3638,428.3128 164.0112,428.4622 Q164.6587,428.6116 165.2231,428.9105 L165.2231,431.6331 Q164.5923,431.0521 163.9988,430.7823 Q163.4053,430.5125 162.7744,430.5125 Q161.4297,430.5125 160.7449,431.5792 Q160.0601,432.6458 160.0601,434.7459 Q160.0601,436.8377 160.7449,437.9044 Q161.4297,438.971 162.7744,438.971 Q163.4053,438.971 163.9988,438.7012 Q164.5923,438.4315 165.2231,437.8504 Z " fill="#000000"/><text fill="#000000" font-family="sans-serif" font-size="14" lengthAdjust="spacing" textLength="85" x="182.75" y="440.221">Repositories</text><line style="stroke:#181818;stroke-width:0.5;" x1="23" x2="395" y1="450.93" y2="450.93"/><text fill="#000000" font-family="sans-serif" font-size="14" lengthAdjust="spacing" textLength="158" x="28" y="468.4652">-instance: Repositories</text><text fill="#000000" font-family="sans-serif" font-size="14" lengthAdjust="spacing" textLength="362" x="28" y="484.9534">-authenticationRepository: AuthenticationRepository</text><text fill="#000000" font-family="sans-serif" font-size="14" lengthAdjust="spacing" textLength="333" x="28" y="501.4417">-collaboratorRepository: CollaboratorRepository</text><text fill="#000000" font-family="sans-serif" font-size="14" lengthAdjust="spacing" textLength="337" x="28" y="517.93">-greenSpacesRepository: GreenSpacesRepository</text><line style="stroke:#181818;stroke-width:0.5;" x1="23" x2="395" y1="524.8831" y2="524.8831"/><text fill="#000000" font-family="sans-serif" font-size="14" lengthAdjust="spacing" textLength="100" x="28" y="542.4183">+getInstance()</text><text fill="#000000" font-family="sans-serif" font-size="14" lengthAdjust="spacing" textLength="217" x="28" y="558.9066">+getAuthenticationRepository()</text><text fill="#000000" font-family="sans-serif" font-size="14" lengthAdjust="spacing" textLength="203" x="28" y="575.3948">+getCollaboratorRepository()</text><text fill="#000000" font-family="sans-serif" font-size="14" lengthAdjust="spacing" textLength="204" x="28" y="591.8831">+getGreenSpacesRepository()</text></g><!--class AgendaRepository--><g id="elem_AgendaRepository"><rect codeLine="43" fill="#F1F1F1" height="64.4883" id="AgendaRepository" rx="2.5" ry="2.5" style="stroke:#181818;stroke-width:0.5;" width="212" x="23" y="812.25"/><ellipse cx="62.3" cy="828.25" fill="#ADD1B2" rx="11" ry="11" style="stroke:#181818;stroke-width:1.0;"/><path d="M65.2731,833.8931 Q64.6921,834.1919 64.0529,834.3413 Q63.4138,834.4907 62.7082,834.4907 Q60.2014,834.4907 58.8815,832.8389 Q57.5617,831.187 57.5617,828.0659 Q57.5617,824.9365 58.8815,823.2847 Q60.2014,821.6328 62.7082,821.6328 Q63.4138,821.6328 64.0612,821.7822 Q64.7087,821.9316 65.2731,822.2305 L65.2731,824.9531 Q64.6423,824.3721 64.0488,824.1023 Q63.4553,823.8325 62.8244,823.8325 Q61.4797,823.8325 60.7949,824.8992 Q60.1101,825.9658 60.1101,828.0659 Q60.1101,830.1577 60.7949,831.2244 Q61.4797,832.291 62.8244,832.291 Q63.4553,832.291 64.0488,832.0212 Q64.6423,831.7515 65.2731,831.1704 Z " fill="#000000"/><text fill="#000000" font-family="sans-serif" font-size="14" lengthAdjust="spacing" textLength="126" x="81.7" y="833.541">AgendaRepository</text><line style="stroke:#181818;stroke-width:0.5;" x1="24" x2="234" y1="844.25" y2="844.25"/><line style="stroke:#181818;stroke-width:0.5;" x1="24" x2="234" y1="852.25" y2="852.25"/><text fill="#000000" font-family="sans-serif" font-size="14" lengthAdjust="spacing" textLength="200" x="29" y="869.7852">+getAllEntries() : List&lt;Entry&gt;</text></g><!--class AuthenticationRepository--><g id="elem_AuthenticationRepository"><rect codeLine="49" fill="#F1F1F1" height="64.4883" id="AuthenticationRepository" rx="2.5" ry="2.5" style="stroke:#181818;stroke-width:0.5;" width="209" x="269.5" y="812.25"/><ellipse cx="285.85" cy="828.25" fill="#ADD1B2" rx="11" ry="11" style="stroke:#181818;stroke-width:1.0;"/><path d="M288.8231,833.8931 Q288.2421,834.1919 287.6029,834.3413 Q286.9638,834.4907 286.2582,834.4907 Q283.7514,834.4907 282.4315,832.8389 Q281.1117,831.187 281.1117,828.0659 Q281.1117,824.9365 282.4315,823.2847 Q283.7514,821.6328 286.2582,821.6328 Q286.9638,821.6328 287.6112,821.7822 Q288.2587,821.9316 288.8231,822.2305 L288.8231,824.9531 Q288.1923,824.3721 287.5988,824.1023 Q287.0053,823.8325 286.3744,823.8325 Q285.0297,823.8325 284.3449,824.8992 Q283.6601,825.9658 283.6601,828.0659 Q283.6601,830.1577 284.3449,831.2244 Q285.0297,832.291 286.3744,832.291 Q287.0053,832.291 287.5988,832.0212 Q288.1923,831.7515 288.8231,831.1704 Z " fill="#000000"/><text fill="#000000" font-family="sans-serif" font-size="14" lengthAdjust="spacing" textLength="174" x="300.15" y="833.541">AuthenticationRepository</text><line style="stroke:#181818;stroke-width:0.5;" x1="270.5" x2="477.5" y1="844.25" y2="844.25"/><line style="stroke:#181818;stroke-width:0.5;" x1="270.5" x2="477.5" y1="852.25" y2="852.25"/><text fill="#000000" font-family="sans-serif" font-size="14" lengthAdjust="spacing" textLength="197" x="275.5" y="869.7852">+getEmployeeFromSession()</text></g><!--class Collaborator--><g id="elem_Collaborator"><rect codeLine="55" fill="#F1F1F1" height="295.3242" id="Collaborator" rx="2.5" ry="2.5" style="stroke:#181818;stroke-width:0.5;" width="458" x="635" y="696.83"/><ellipse cx="816.25" cy="712.83" fill="#ADD1B2" rx="11" ry="11" style="stroke:#181818;stroke-width:1.0;"/><path d="M819.2231,718.4731 Q818.6421,718.7719 818.0029,718.9213 Q817.3638,719.0707 816.6582,719.0707 Q814.1514,719.0707 812.8315,717.4189 Q811.5117,715.767 811.5117,712.6459 Q811.5117,709.5165 812.8315,707.8647 Q814.1514,706.2128 816.6582,706.2128 Q817.3638,706.2128 818.0112,706.3622 Q818.6587,706.5116 819.2231,706.8105 L819.2231,709.5331 Q818.5923,708.9521 817.9988,708.6823 Q817.4053,708.4125 816.7744,708.4125 Q815.4297,708.4125 814.7449,709.4792 Q814.0601,710.5458 814.0601,712.6459 Q814.0601,714.7377 814.7449,715.8044 Q815.4297,716.871 816.7744,716.871 Q817.4053,716.871 817.9988,716.6012 Q818.5923,716.3315 819.2231,715.7504 Z " fill="#000000"/><text fill="#000000" font-family="sans-serif" font-size="14" lengthAdjust="spacing" textLength="87" x="836.75" y="718.121">Collaborator</text><line style="stroke:#181818;stroke-width:0.5;" x1="636" x2="1092" y1="728.83" y2="728.83"/><text fill="#000000" font-family="sans-serif" font-size="14" lengthAdjust="spacing" textLength="91" x="641" y="746.3652">-name:String</text><text fill="#000000" font-family="sans-serif" font-size="14" lengthAdjust="spacing" textLength="106" x="641" y="762.8534">-birthdate:Date</text><text fill="#000000" font-family="sans-serif" font-size="14" lengthAdjust="spacing" textLength="144" x="641" y="779.3417">-admissionDate:Date</text><text fill="#000000" font-family="sans-serif" font-size="14" lengthAdjust="spacing" textLength="62" x="641" y="795.83">-address</text><text fill="#000000" font-family="sans-serif" font-size="14" lengthAdjust="spacing" textLength="153" x="641" y="812.3183">-mobileContact:String</text><text fill="#000000" font-family="sans-serif" font-size="14" lengthAdjust="spacing" textLength="143" x="641" y="828.8066">-emailContact:String</text><text fill="#000000" font-family="sans-serif" font-size="14" lengthAdjust="spacing" textLength="125" x="641" y="845.2948">-IDdocType:String</text><text fill="#000000" font-family="sans-serif" font-size="14" lengthAdjust="spacing" textLength="121" x="641" y="861.7831">-IDnumber:String</text><text fill="#000000" font-family="sans-serif" font-size="14" lengthAdjust="spacing" textLength="130" x="641" y="878.2714">-taxNumber:String</text><text fill="#000000" font-family="sans-serif" font-size="14" lengthAdjust="spacing" textLength="56" x="641" y="894.7597">-job:Job</text><text fill="#000000" font-family="sans-serif" font-size="14" lengthAdjust="spacing" textLength="156" x="641" y="911.248">-skills:ArrayList&lt;Skill&gt;</text><line style="stroke:#181818;stroke-width:0.5;" x1="636" x2="1092" y1="918.2011" y2="918.2011"/><text fill="#000000" font-family="sans-serif" font-size="14" lengthAdjust="spacing" textLength="347" x="641" y="935.7363">+Collaborator (String nome,LocalDate dateOfBirth,</text><text fill="#000000" font-family="sans-serif" font-size="14" lengthAdjust="spacing" textLength="377" x="641" y="952.2245">LocalDate admissionDate, String morada, int telemovel,</text><text fill="#000000" font-family="sans-serif" font-size="14" lengthAdjust="spacing" textLength="354" x="641" y="968.7128">String email, String idDocType, int docTypeNumber,</text><text fill="#000000" font-family="sans-serif" font-size="14" lengthAdjust="spacing" textLength="446" x="641" y="985.2011">int taxPayerIdNumber, String role, Job job, ArrayList&lt;Skill&gt; skills)</text></g><!--class Entry--><g id="elem_Entry"><rect codeLine="73" fill="#F1F1F1" height="311.8125" id="Entry" rx="2.5" ry="2.5" style="stroke:#181818;stroke-width:0.5;" width="329" x="666.5" y="1069.16"/><ellipse cx="809.25" cy="1085.16" fill="#ADD1B2" rx="11" ry="11" style="stroke:#181818;stroke-width:1.0;"/><path d="M812.2231,1090.8031 Q811.6421,1091.1019 811.0029,1091.2513 Q810.3638,1091.4007 809.6582,1091.4007 Q807.1514,1091.4007 805.8315,1089.7489 Q804.5117,1088.097 804.5117,1084.9759 Q804.5117,1081.8465 805.8315,1080.1947 Q807.1514,1078.5428 809.6582,1078.5428 Q810.3638,1078.5428 811.0112,1078.6922 Q811.6587,1078.8416 812.2231,1079.1405 L812.2231,1081.8631 Q811.5923,1081.2821 810.9988,1081.0123 Q810.4053,1080.7425 809.7744,1080.7425 Q808.4297,1080.7425 807.7449,1081.8092 Q807.0601,1082.8758 807.0601,1084.9759 Q807.0601,1087.0677 807.7449,1088.1344 Q808.4297,1089.201 809.7744,1089.201 Q810.4053,1089.201 810.9988,1088.9312 Q811.5923,1088.6615 812.2231,1088.0804 Z " fill="#000000"/><text fill="#000000" font-family="sans-serif" font-size="14" lengthAdjust="spacing" textLength="35" x="829.75" y="1090.451">Entry</text><line style="stroke:#181818;stroke-width:0.5;" x1="667.5" x2="994.5" y1="1101.16" y2="1101.16"/><text fill="#000000" font-family="sans-serif" font-size="14" lengthAdjust="spacing" textLength="91" x="672.5" y="1118.6952">-String name</text><text fill="#000000" font-family="sans-serif" font-size="14" lengthAdjust="spacing" textLength="130" x="672.5" y="1135.1834">-String description</text><text fill="#000000" font-family="sans-serif" font-size="14" lengthAdjust="spacing" textLength="157" x="672.5" y="1151.6717">-String urgencyDegree</text><text fill="#000000" font-family="sans-serif" font-size="14" lengthAdjust="spacing" textLength="89" x="672.5" y="1168.16">-int duration</text><text fill="#000000" font-family="sans-serif" font-size="14" lengthAdjust="spacing" textLength="141" x="672.5" y="1184.6483">-String classification</text><text fill="#000000" font-family="sans-serif" font-size="14" lengthAdjust="spacing" textLength="173" x="672.5" y="1201.1366">-GreenSpace greenSpace</text><text fill="#000000" font-family="sans-serif" font-size="14" lengthAdjust="spacing" textLength="94" x="672.5" y="1217.6248">-String status</text><text fill="#000000" font-family="sans-serif" font-size="14" lengthAdjust="spacing" textLength="144" x="672.5" y="1234.1131">-LocalDate entryDate</text><text fill="#000000" font-family="sans-serif" font-size="14" lengthAdjust="spacing" textLength="63" x="672.5" y="1250.6014">-int hour</text><text fill="#000000" font-family="sans-serif" font-size="14" lengthAdjust="spacing" textLength="146" x="672.5" y="1267.0897">-LocalTime startTime</text><text fill="#000000" font-family="sans-serif" font-size="14" lengthAdjust="spacing" textLength="141" x="672.5" y="1283.578">-LocalTime endTime</text><text fill="#000000" font-family="sans-serif" font-size="14" lengthAdjust="spacing" textLength="84" x="672.5" y="1300.0663">-Team team</text><line style="stroke:#181818;stroke-width:0.5;" x1="667.5" x2="994.5" y1="1307.0194" y2="1307.0194"/><text fill="#000000" font-family="sans-serif" font-size="14" lengthAdjust="spacing" textLength="268" x="672.5" y="1324.5545">+Entry(String name, String description,</text><text fill="#000000" font-family="sans-serif" font-size="14" lengthAdjust="spacing" textLength="242" x="672.5" y="1341.0428">String urgencyDegree, int duration,</text><text fill="#000000" font-family="sans-serif" font-size="14" lengthAdjust="spacing" textLength="313" x="672.5" y="1357.5311">GreenSpace greenSpace, LocalDate entryDate,</text><text fill="#000000" font-family="sans-serif" font-size="14" lengthAdjust="spacing" textLength="144" x="672.5" y="1374.0194">int hour, Team team)</text></g><!--link ListMyAgendaUI to CreateEntryToAgendaController--><g id="link_ListMyAgendaUI_CreateEntryToAgendaController"><path codeLine="91" d="M641,105.74 C641,128.55 641,154.19 641,182.27 " fill="none" id="ListMyAgendaUI-to-CreateEntryToAgendaController" style="stroke:#181818;stroke-width:1.0;stroke-dasharray:7.0,7.0;"/><polygon fill="#181818" points="641,188.27,645,179.27,641,183.27,637,179.27,641,188.27" style="stroke:#181818;stroke-width:1.0;"/><text fill="#000000" font-family="sans-serif" font-size="13" lengthAdjust="spacing" textLength="8" x="632.2375" y="125.9622">1</text><text fill="#000000" font-family="sans-serif" font-size="13" lengthAdjust="spacing" textLength="8" x="632.5625" y="177.8775">1</text></g><!--link CreateEntryToAgendaController to Repositories--><g id="link_CreateEntryToAgendaController_Repositories"><path codeLine="93" d="M511.2,319.42 C476.28,336.83 448,350.93 448,350.93 C448,350.93 403.7351,379.9963 349.9251,415.3363 " fill="none" id="CreateEntryToAgendaController-to-Repositories" style="stroke:#181818;stroke-width:1.0;"/><polygon fill="#181818" points="344.91,418.63,354.6285,417.0329,349.0893,415.8852,350.2369,410.346,344.91,418.63" style="stroke:#181818;stroke-width:1.0;"/><text fill="#000000" font-family="sans-serif" font-size="13" lengthAdjust="spacing" textLength="73" x="449" y="364.4984">getInstance</text><text fill="#000000" font-family="sans-serif" font-size="13" lengthAdjust="spacing" textLength="8" x="489.4019" y="339.5541">1</text><text fill="#000000" font-family="sans-serif" font-size="13" lengthAdjust="spacing" textLength="8" x="347.8338" y="408.116">1</text></g><!--link CreateEntryToAgendaController to AgendaRepository--><g id="link_CreateEntryToAgendaController_AgendaRepository"><path codeLine="94" d="M592.04,319.22 C570.07,348.17 549,375.93 549,375.93 C549,375.93 496,598.83 496,598.83 C496,598.83 424,645.83 424,645.83 C424,645.83 252,653.83 252,653.83 C252,653.83 187.515,753.2761 152.575,807.1461 " fill="none" id="CreateEntryToAgendaController-to-AgendaRepository" style="stroke:#181818;stroke-width:1.0;"/><polygon fill="#181818" points="149.31,812.18,157.5634,806.8058,152.0308,807.9851,150.8515,802.4525,149.31,812.18" style="stroke:#181818;stroke-width:1.0;"/><text fill="#000000" font-family="sans-serif" font-size="13" lengthAdjust="spacing" textLength="112" x="550" y="513.9484">agendaRepository</text></g><!--link CreateEntryToAgendaController to AuthenticationRepository--><g id="link_CreateEntryToAgendaController_AuthenticationRepository"><path codeLine="95" d="M656.97,319.22 C664.13,348.17 671,375.93 671,375.93 C671,375.93 671,598.83 671,598.83 C671,598.83 497.511,741.745 417.151,807.945 " fill="none" id="CreateEntryToAgendaController-to-AuthenticationRepository" style="stroke:#181818;stroke-width:1.0;"/><polygon fill="#181818" points="412.52,811.76,422.0098,809.1249,416.3792,808.5809,416.9232,802.9502,412.52,811.76" style="stroke:#181818;stroke-width:1.0;"/><text fill="#000000" font-family="sans-serif" font-size="13" lengthAdjust="spacing" textLength="158" x="672" y="513.9484">authenticationRepository</text></g><!--link CreateEntryToAgendaController to Collaborator--><g id="link_CreateEntryToAgendaController_Collaborator"><path codeLine="96" d="M779.75,319.4 C841.71,348.28 901,375.93 901,375.93 C901,375.93 901,598.83 901,598.83 C901,598.83 894.9772,638.6875 887.1172,690.6575 " fill="none" id="CreateEntryToAgendaController-to-Collaborator" style="stroke:#181818;stroke-width:1.0;"/><polygon fill="#181818" points="886.22,696.59,891.5209,688.2894,886.9677,691.6462,883.6108,687.093,886.22,696.59" style="stroke:#181818;stroke-width:1.0;"/></g><!--link Repositories to Repositories--><g id="link_Repositories_Repositories"><path codeLine="98" d="M396.47,488.54 C417.44,492.38 431,499.16 431,508.88 C431,518.6 423.3419,524.2993 402.3719,528.1393 " fill="none" id="Repositories-to-Repositories" style="stroke:#181818;stroke-width:1.0;"/><polygon fill="#181818" points="396.47,529.22,406.0433,531.5335,401.3882,528.3194,404.6023,523.6643,396.47,529.22" style="stroke:#181818;stroke-width:1.0;"/><text fill="#000000" font-family="sans-serif" font-size="13" lengthAdjust="spacing" textLength="53" x="437" y="513.9484">instance</text></g><!--link Repositories to AgendaRepository--><g id="link_Repositories_AgendaRepository"><path codeLine="99" d="M187.56,599.28 C170.67,669.73 149.4996,758.0155 137.9296,806.2455 " fill="none" id="Repositories-to-AgendaRepository" style="stroke:#181818;stroke-width:1.0;stroke-dasharray:7.0,7.0;"/><polygon fill="#181818" points="136.53,812.08,142.5191,804.2614,137.6964,807.2179,134.7398,802.3952,136.53,812.08" style="stroke:#181818;stroke-width:1.0;"/><text fill="#000000" font-family="sans-serif" font-size="13" lengthAdjust="spacing" textLength="38" x="179" y="642.3984">create</text><text fill="#000000" font-family="sans-serif" font-size="13" lengthAdjust="spacing" textLength="8" x="177.6123" y="619.3555">1</text><text fill="#000000" font-family="sans-serif" font-size="13" lengthAdjust="spacing" textLength="8" x="129.2581" y="801.4481">1</text></g><!--link Repositories to AuthenticationRepository--><g id="link_Repositories_AuthenticationRepository"><path codeLine="100" d="M253.22,599.28 C288.06,669.73 331.9504,758.4717 355.8004,806.7017 " fill="none" id="Repositories-to-AuthenticationRepository" style="stroke:#181818;stroke-width:1.0;"/><polygon fill="#181818" points="358.46,812.08,358.0561,802.2394,356.2437,807.5981,350.885,805.7856,358.46,812.08" style="stroke:#181818;stroke-width:1.0;"/><text fill="#000000" font-family="sans-serif" font-size="13" lengthAdjust="spacing" textLength="143" x="272" y="642.3984">getCurrentUserSession</text><text fill="#000000" font-family="sans-serif" font-size="13" lengthAdjust="spacing" textLength="8" x="248.2993" y="619.3555">1</text><text fill="#000000" font-family="sans-serif" font-size="13" lengthAdjust="spacing" textLength="8" x="346.4299" y="801.4481">1</text></g><!--link AgendaRepository to Entry--><g id="link_AgendaRepository_Entry"><path codeLine="102" d="M155.39,876.96 C191.53,920.05 252,992.16 252,992.16 C252,992.16 489.5202,1087.2891 660.6702,1155.8391 " fill="none" id="AgendaRepository-to-Entry" style="stroke:#181818;stroke-width:1.0;"/><polygon fill="#181818" points="666.24,1158.07,659.3725,1151.0105,661.5985,1156.2109,656.398,1158.4369,666.24,1158.07" style="stroke:#181818;stroke-width:1.0;"/><text fill="#000000" font-family="sans-serif" font-size="13" lengthAdjust="spacing" textLength="29" x="363" y="1035.7284">have</text></g><!--link Collaborator to Entry--><g id="link_Collaborator_Entry"><path codeLine="104" d="M851.19,992.4 C849.01,1017.45 847.2606,1037.5526 845.0606,1062.8126 " fill="none" id="Collaborator-to-Entry" style="stroke:#181818;stroke-width:1.0;"/><polygon fill="#181818" points="844.54,1068.79,849.3058,1060.171,844.9738,1063.8089,841.336,1059.4769,844.54,1068.79" style="stroke:#181818;stroke-width:1.0;"/></g><!--SRC=[bLLDRzim3BthLmYzDCFSOhiQHG2tQOSCtLOiwMqNnMOIhR8KI79NhzX_7oNPiUmu_MY1fk4ZARudYZmr3rpkc6ObBPLK-LQh4gZL5P0EsR7yWMrWOMi1L4DkcTo8sC5iMQ7-SBcXQoPCZ0WkmTOxe3ibQlU5d8w0Ibj5egXSC6CoQpLVLHRckP8B_XVe9q9E1QmjjOfgljbQMd1N3bUIaBjG9BsVqukB6oKAqDFfC_6fw2qtzbkTRK0M31sU2SMVZxgIam_a7_xkew-Kj5e90NeaovK6Pk4QFUgb2iaY_v3qZ38F_8ITCjmgNTEKPWDJwrdPBKZBS-OeT72Q7G584xW1UrtkXAe1Rl325c0C-Y4NJyl1cH2kJWucjYvGQ2WQuBAU8Pk9a-R2SvfI4-C3PI92XyhiGOnhTU3IOAFaaFRGrwZJezn3O8vYivNI36rnsDMelTLB0yW5jZ6OEERBc9bqSiqR1ZrXZvGN-upN4dkCdZnvZ-B3bcfQUd3rs7lH_Rud_H6Qpns7yGxi7J5J9UDox2L52ZNz8ba9wGBhbfjWM75jjmMsQEhwDDXOKN9_qcneBpIM4BwKQiK5k9V9SjjB2LYE60FciqBbInn50wkioXNedj6of- -7rjzgbNvLg_051vaG9isqPhMNV-4CqwQpOkvq4f9GYMCtkLKv4uuKTRH_h2-T0ialsTbx_1FQ19UOh609lZWSZI2WL8yWCAw1FUkzCozcWMhmRtW7IXZZSx2dErQ3dXUDkOt5IOTXo9CYtuGE2T90_ArDu9joFpPR8R0D-fO2JAxvpa_v7b1fV0DvFGFtlFT31obLcXrw-pFvkkde1klUOJGZ-d4u0cpLZgtk9i0LtpMWFtYhAXqxBZdkKepNrlrtWE03ZknBmCLdyKyxWBmyaqYMP4IHXEwlkIT7qbF2UOrIJSOOEU-MJjBLrLphO9MUV3wXv-TJ__dYVYJavVNf4foTXKJnmi0H5etYLvAu1DdX_XskvBTaEJ80NRPZ6-hrhF7R9wH74z41xNQ1zlrYmKUevhw6mv1MsXTukSrLQOtelG7TZ7H23WvngSBRJUcMFGBUR3pIzZ3v3m00]--></g></svg>