<?xml version="1.0" encoding="us-ascii" standalone="no"?><svg xmlns="http://www.w3.org/2000/svg" xmlns:xlink="http://www.w3.org/1999/xlink" contentStyleType="text/css" height="934px" preserveAspectRatio="none" style="width:1642px;height:934px;background:#FFFFFF;" version="1.1" viewBox="0 0 1642 934" width="1642px" zoomAndPan="magnify"><defs/><g><rect fill="#FFFFFF" height="743.5625" style="stroke:#181818;stroke-width:1.0;" width="10" x="46.5" y="91.4883"/><rect fill="#FFFFFF" height="312.5938" style="stroke:#181818;stroke-width:1.0;" width="10" x="375.5" y="229.3516"/><rect fill="#FFFFFF" height="29.3105" style="stroke:#181818;stroke-width:1.0;" width="10" x="375.5" y="571.2559"/><rect fill="#FFFFFF" height="205.1738" style="stroke:#181818;stroke-width:1.0;" width="10" x="375.5" y="629.877"/><rect fill="#FFFFFF" height="212.4844" style="stroke:#181818;stroke-width:1.0;" width="10" x="577" y="300.1504"/><rect fill="#FFFFFF" height="146.5527" style="stroke:#181818;stroke-width:1.0;" width="10" x="577" y="659.1875"/><rect fill="#FFFFFF" height="29.3105" style="stroke:#181818;stroke-width:1.0;" width="10" x="762" y="329.4609"/><rect fill="#FFFFFF" height="95.2422" style="stroke:#181818;stroke-width:1.0;" width="10" x="879" y="388.082"/><rect fill="#FFFFFF" height="87.9316" style="stroke:#181818;stroke-width:1.0;" width="10" x="1297.5" y="688.498"/><rect fill="#FFFFFF" height="29.3105" style="stroke:#181818;stroke-width:1.0;" width="10" x="1496.5" y="717.8086"/><line style="stroke:#181818;stroke-width:0.5;stroke-dasharray:5.0,5.0;" x1="51" x2="51" y1="81.4883" y2="853.0508"/><line style="stroke:#181818;stroke-width:0.5;stroke-dasharray:5.0,5.0;" x1="380" x2="380" y1="81.4883" y2="853.0508"/><line style="stroke:#181818;stroke-width:0.5;stroke-dasharray:5.0,5.0;" x1="581.5" x2="581.5" y1="268.0957" y2="853.0508"/><line style="stroke:#181818;stroke-width:0.5;stroke-dasharray:5.0,5.0;" x1="766.5" x2="766.5" y1="81.4883" y2="853.0508"/><line style="stroke:#181818;stroke-width:0.5;stroke-dasharray:5.0,5.0;" x1="883.5" x2="883.5" y1="81.4883" y2="853.0508"/><line style="stroke:#181818;stroke-width:0.5;stroke-dasharray:5.0,5.0;" x1="1043.5" x2="1043.5" y1="81.4883" y2="853.0508"/><line style="stroke:#181818;stroke-width:0.5;stroke-dasharray:5.0,5.0;" x1="1199.5" x2="1199.5" y1="81.4883" y2="853.0508"/><line style="stroke:#181818;stroke-width:0.5;stroke-dasharray:5.0,5.0;" x1="1302.5" x2="1302.5" y1="81.4883" y2="853.0508"/><line style="stroke:#181818;stroke-width:0.5;stroke-dasharray:5.0,5.0;" x1="1501.5" x2="1501.5" y1="81.4883" y2="853.0508"/><line style="stroke:#181818;stroke-width:0.5;stroke-dasharray:5.0,5.0;" x1="1609.5" x2="1609.5" y1="81.4883" y2="853.0508"/><text fill="#000000" font-family="sans-serif" font-size="14" lengthAdjust="spacing" textLength="87" x="5" y="78.5352">Collaborator</text><ellipse cx="51.5" cy="13.5" fill="#E3E3E3" rx="8" ry="8" style="stroke:#181818;stroke-width:0.5;"/><path d="M51.5,21.5 L51.5,48.5 M38.5,29.5 L64.5,29.5 M51.5,48.5 L38.5,63.5 M51.5,48.5 L64.5,63.5 " fill="none" style="stroke:#181818;stroke-width:0.5;"/><text fill="#000000" font-family="sans-serif" font-size="14" lengthAdjust="spacing" textLength="87" x="5" y="865.5859">Collaborator</text><ellipse cx="51.5" cy="877.0391" fill="#E3E3E3" rx="8" ry="8" style="stroke:#181818;stroke-width:0.5;"/><path d="M51.5,885.0391 L51.5,912.0391 M38.5,893.0391 L64.5,893.0391 M51.5,912.0391 L38.5,927.0391 M51.5,912.0391 L64.5,927.0391 " fill="none" style="stroke:#181818;stroke-width:0.5;"/><rect fill="#E3E3E3" height="30.4883" rx="2.5" ry="2.5" style="stroke:#181818;stroke-width:0.5;" width="131" x="315" y="50"/><text fill="#000000" font-family="sans-serif" font-size="14" lengthAdjust="spacing" textLength="117" x="322" y="70.5352">: ListMyAgendaUI</text><rect fill="#E3E3E3" height="30.4883" rx="2.5" ry="2.5" style="stroke:#181818;stroke-width:0.5;" width="131" x="315" y="852.0508"/><text fill="#000000" font-family="sans-serif" font-size="14" lengthAdjust="spacing" textLength="117" x="322" y="872.5859">: ListMyAgendaUI</text><rect fill="#E3E3E3" height="30.4883" rx="2.5" ry="2.5" style="stroke:#181818;stroke-width:0.5;" width="243" x="460.5" y="852.0508"/><text fill="#000000" font-family="sans-serif" font-size="14" lengthAdjust="spacing" textLength="229" x="467.5" y="872.5859">: CreateEntryToAgendaController</text><rect fill="#E3E3E3" height="30.4883" rx="2.5" ry="2.5" style="stroke:#181818;stroke-width:0.5;" width="107" x="713.5" y="50"/><text fill="#000000" font-family="sans-serif" font-size="14" lengthAdjust="spacing" textLength="93" x="720.5" y="70.5352">: Repositories</text><rect fill="#E3E3E3" height="30.4883" rx="2.5" ry="2.5" style="stroke:#181818;stroke-width:0.5;" width="107" x="713.5" y="852.0508"/><text fill="#000000" font-family="sans-serif" font-size="14" lengthAdjust="spacing" textLength="93" x="720.5" y="872.5859">: Repositories</text><rect fill="#E3E3E3" height="46.9766" rx="2.5" ry="2.5" style="stroke:#181818;stroke-width:0.5;" width="107" x="830.5" y="33.5117"/><text fill="#000000" font-family="sans-serif" font-size="14" lengthAdjust="spacing" textLength="82" x="843" y="54.0469">repositories</text><text fill="#000000" font-family="sans-serif" font-size="14" lengthAdjust="spacing" textLength="93" x="837.5" y="70.5352">: Repositories</text><rect fill="#E3E3E3" height="46.9766" rx="2.5" ry="2.5" style="stroke:#181818;stroke-width:0.5;" width="107" x="830.5" y="852.0508"/><text fill="#000000" font-family="sans-serif" font-size="14" lengthAdjust="spacing" textLength="82" x="843" y="872.5859">repositories</text><text fill="#000000" font-family="sans-serif" font-size="14" lengthAdjust="spacing" textLength="93" x="837.5" y="889.0742">: Repositories</text><rect fill="#E3E3E3" height="46.9766" rx="2.5" ry="2.5" style="stroke:#181818;stroke-width:0.5;" width="192" x="947.5" y="33.5117"/><text fill="#000000" font-family="sans-serif" font-size="14" lengthAdjust="spacing" textLength="172" x="957.5" y="54.0469">authenticationRepository</text><text fill="#000000" font-family="sans-serif" font-size="14" lengthAdjust="spacing" textLength="178" x="954.5" y="70.5352">:AuthenticationRepository</text><rect fill="#E3E3E3" height="46.9766" rx="2.5" ry="2.5" style="stroke:#181818;stroke-width:0.5;" width="192" x="947.5" y="852.0508"/><text fill="#000000" font-family="sans-serif" font-size="14" lengthAdjust="spacing" textLength="172" x="957.5" y="872.5859">authenticationRepository</text><text fill="#000000" font-family="sans-serif" font-size="14" lengthAdjust="spacing" textLength="178" x="954.5" y="889.0742">:AuthenticationRepository</text><rect fill="#E3E3E3" height="46.9766" rx="2.5" ry="2.5" style="stroke:#181818;stroke-width:0.5;" width="101" x="1149.5" y="33.5117"/><text fill="#000000" font-family="sans-serif" font-size="14" lengthAdjust="spacing" textLength="82" x="1159" y="54.0469">userSession</text><text fill="#000000" font-family="sans-serif" font-size="14" lengthAdjust="spacing" textLength="87" x="1156.5" y="70.5352">:UserSession</text><rect fill="#E3E3E3" height="46.9766" rx="2.5" ry="2.5" style="stroke:#181818;stroke-width:0.5;" width="101" x="1149.5" y="852.0508"/><text fill="#000000" font-family="sans-serif" font-size="14" lengthAdjust="spacing" textLength="82" x="1159" y="872.5859">userSession</text><text fill="#000000" font-family="sans-serif" font-size="14" lengthAdjust="spacing" textLength="87" x="1156.5" y="889.0742">:UserSession</text><rect fill="#E3E3E3" height="46.9766" rx="2.5" ry="2.5" style="stroke:#181818;stroke-width:0.5;" width="84" x="1260.5" y="33.5117"/><text fill="#000000" font-family="sans-serif" font-size="14" lengthAdjust="spacing" textLength="66" x="1269.5" y="54.0469">employee</text><text fill="#000000" font-family="sans-serif" font-size="14" lengthAdjust="spacing" textLength="70" x="1267.5" y="70.5352">:Employee</text><rect fill="#E3E3E3" height="46.9766" rx="2.5" ry="2.5" style="stroke:#181818;stroke-width:0.5;" width="84" x="1260.5" y="852.0508"/><text fill="#000000" font-family="sans-serif" font-size="14" lengthAdjust="spacing" textLength="66" x="1269.5" y="872.5859">employee</text><text fill="#000000" font-family="sans-serif" font-size="14" lengthAdjust="spacing" textLength="70" x="1267.5" y="889.0742">:Employee</text><rect fill="#E3E3E3" height="46.9766" rx="2.5" ry="2.5" style="stroke:#181818;stroke-width:0.5;" width="144" x="1429.5" y="33.5117"/><text fill="#000000" font-family="sans-serif" font-size="14" lengthAdjust="spacing" textLength="124" x="1439.5" y="54.0469">agendaRepository</text><text fill="#000000" font-family="sans-serif" font-size="14" lengthAdjust="spacing" textLength="130" x="1436.5" y="70.5352">:AgendaRepository</text><rect fill="#E3E3E3" height="46.9766" rx="2.5" ry="2.5" style="stroke:#181818;stroke-width:0.5;" width="144" x="1429.5" y="852.0508"/><text fill="#000000" font-family="sans-serif" font-size="14" lengthAdjust="spacing" textLength="124" x="1439.5" y="872.5859">agendaRepository</text><text fill="#000000" font-family="sans-serif" font-size="14" lengthAdjust="spacing" textLength="130" x="1436.5" y="889.0742">:AgendaRepository</text><rect fill="#E3E3E3" height="46.9766" rx="2.5" ry="2.5" style="stroke:#181818;stroke-width:0.5;" width="53" x="1583.5" y="33.5117"/><text fill="#000000" font-family="sans-serif" font-size="14" lengthAdjust="spacing" textLength="35" x="1592.5" y="54.0469">entry</text><text fill="#000000" font-family="sans-serif" font-size="14" lengthAdjust="spacing" textLength="39" x="1590.5" y="70.5352">:Entry</text><rect fill="#E3E3E3" height="46.9766" rx="2.5" ry="2.5" style="stroke:#181818;stroke-width:0.5;" width="53" x="1583.5" y="852.0508"/><text fill="#000000" font-family="sans-serif" font-size="14" lengthAdjust="spacing" textLength="35" x="1592.5" y="872.5859">entry</text><text fill="#000000" font-family="sans-serif" font-size="14" lengthAdjust="spacing" textLength="39" x="1590.5" y="889.0742">:Entry</text><rect fill="#FFFFFF" height="743.5625" style="stroke:#181818;stroke-width:1.0;" width="10" x="46.5" y="91.4883"/><rect fill="#FFFFFF" height="312.5938" style="stroke:#181818;stroke-width:1.0;" width="10" x="375.5" y="229.3516"/><rect fill="#FFFFFF" height="29.3105" style="stroke:#181818;stroke-width:1.0;" width="10" x="375.5" y="571.2559"/><rect fill="#FFFFFF" height="205.1738" style="stroke:#181818;stroke-width:1.0;" width="10" x="375.5" y="629.877"/><rect fill="#FFFFFF" height="212.4844" style="stroke:#181818;stroke-width:1.0;" width="10" x="577" y="300.1504"/><rect fill="#FFFFFF" height="146.5527" style="stroke:#181818;stroke-width:1.0;" width="10" x="577" y="659.1875"/><rect fill="#FFFFFF" height="29.3105" style="stroke:#181818;stroke-width:1.0;" width="10" x="762" y="329.4609"/><rect fill="#FFFFFF" height="95.2422" style="stroke:#181818;stroke-width:1.0;" width="10" x="879" y="388.082"/><rect fill="#FFFFFF" height="87.9316" style="stroke:#181818;stroke-width:1.0;" width="10" x="1297.5" y="688.498"/><rect fill="#FFFFFF" height="29.3105" style="stroke:#181818;stroke-width:1.0;" width="10" x="1496.5" y="717.8086"/><path d="M61,96.4883 L61,151.4883 L354,151.4883 L354,106.4883 L344,96.4883 L61,96.4883 " fill="#FAFAFA" style="stroke:#181818;stroke-width:0.5;"/><path d="M344,96.4883 L344,106.4883 L354,106.4883 L344,96.4883 " fill="#FAFAFA" style="stroke:#181818;stroke-width:0.5;"/><text fill="#000000" font-family="sans-serif" font-size="13" lengthAdjust="spacing" textLength="272" x="67" y="114.0566">- The user is already logged in at this step.</text><text fill="#000000" font-family="sans-serif" font-size="13" lengthAdjust="spacing" textLength="264" x="67" y="129.3672">- Authentication sequence is explained in</text><text fill="#000000" font-family="sans-serif" font-size="13" lengthAdjust="spacing" textLength="125" x="67" y="144.6777">a sequence excerpt.</text><path d="M772,162.4199 L772,202.4199 L879,202.4199 L879,172.4199 L869,162.4199 L772,162.4199 " fill="#FAFAFA" style="stroke:#181818;stroke-width:0.5;"/><path d="M869,162.4199 L869,172.4199 L879,172.4199 L869,162.4199 " fill="#FAFAFA" style="stroke:#181818;stroke-width:0.5;"/><text fill="#000000" font-family="sans-serif" font-size="13" lengthAdjust="spacing" textLength="86" x="778" y="179.9883">- Singleton is</text><text fill="#000000" font-family="sans-serif" font-size="13" lengthAdjust="spacing" textLength="38" x="778" y="195.2988">in use</text><polygon fill="#181818" points="363.5,225.3516,373.5,229.3516,363.5,233.3516,367.5,229.3516" style="stroke:#181818;stroke-width:1.0;"/><line style="stroke:#181818;stroke-width:1.0;" x1="56.5" x2="369.5" y1="229.3516" y2="229.3516"/><text fill="#000000" font-family="sans-serif" font-size="13" font-weight="bold" lengthAdjust="spacing" textLength="9" x="63.5" y="224.6094">1</text><text fill="#000000" font-family="sans-serif" font-size="13" lengthAdjust="spacing" textLength="287" x="76.5" y="224.6094">asks to consult a list of tasks assigned to me</text><polygon fill="#181818" points="448.5,254.6621,458.5,258.6621,448.5,262.6621,452.5,258.6621" style="stroke:#181818;stroke-width:1.0;"/><line style="stroke:#181818;stroke-width:1.0;" x1="385.5" x2="454.5" y1="258.6621" y2="258.6621"/><text fill="#000000" font-family="sans-serif" font-size="13" font-weight="bold" lengthAdjust="spacing" textLength="9" x="392.5" y="253.9199">2</text><text fill="#000000" font-family="sans-serif" font-size="13" lengthAdjust="spacing" textLength="38" x="405.5" y="253.9199">create</text><rect fill="#E3E3E3" height="30.4883" rx="2.5" ry="2.5" style="stroke:#181818;stroke-width:0.5;" width="243" x="460.5" y="237.3516"/><text fill="#000000" font-family="sans-serif" font-size="14" lengthAdjust="spacing" textLength="229" x="467.5" y="257.8867">: CreateEntryToAgendaController</text><polygon fill="#181818" points="565,296.1504,575,300.1504,565,304.1504,569,300.1504" style="stroke:#181818;stroke-width:1.0;"/><line style="stroke:#181818;stroke-width:1.0;" x1="385.5" x2="571" y1="300.1504" y2="300.1504"/><text fill="#000000" font-family="sans-serif" font-size="13" font-weight="bold" lengthAdjust="spacing" textLength="9" x="392.5" y="295.4082">3</text><text fill="#000000" font-family="sans-serif" font-size="13" lengthAdjust="spacing" textLength="131" x="405.5" y="295.4082">listEntryFromAgenda</text><polygon fill="#181818" points="750,325.4609,760,329.4609,750,333.4609,754,329.4609" style="stroke:#181818;stroke-width:1.0;"/><line style="stroke:#181818;stroke-width:1.0;" x1="587" x2="756" y1="329.4609" y2="329.4609"/><text fill="#000000" font-family="sans-serif" font-size="13" font-weight="bold" lengthAdjust="spacing" textLength="9" x="594" y="324.7188">4</text><text fill="#000000" font-family="sans-serif" font-size="13" lengthAdjust="spacing" textLength="81" x="607" y="324.7188">getInstance()</text><polygon fill="#181818" points="598,354.7715,588,358.7715,598,362.7715,594,358.7715" style="stroke:#181818;stroke-width:1.0;"/><line style="stroke:#181818;stroke-width:1.0;stroke-dasharray:2.0,2.0;" x1="592" x2="766" y1="358.7715" y2="358.7715"/><text fill="#000000" font-family="sans-serif" font-size="13" font-weight="bold" lengthAdjust="spacing" textLength="9" x="604" y="354.0293">5</text><text fill="#000000" font-family="sans-serif" font-size="13" lengthAdjust="spacing" textLength="75" x="617" y="354.0293">repositories</text><polygon fill="#181818" points="867,384.082,877,388.082,867,392.082,871,388.082" style="stroke:#181818;stroke-width:1.0;"/><line style="stroke:#181818;stroke-width:1.0;" x1="587" x2="873" y1="388.082" y2="388.082"/><text fill="#000000" font-family="sans-serif" font-size="13" font-weight="bold" lengthAdjust="spacing" textLength="9" x="594" y="383.3398">6</text><text fill="#000000" font-family="sans-serif" font-size="13" lengthAdjust="spacing" textLength="168" x="607" y="383.3398">getEmployeeFromSession()</text><path d="M592,401.082 L592,456.082 L784,456.082 L784,411.082 L774,401.082 L592,401.082 " fill="#FAFAFA" style="stroke:#181818;stroke-width:0.5;"/><path d="M774,401.082 L774,411.082 L784,411.082 L774,401.082 " fill="#FAFAFA" style="stroke:#181818;stroke-width:0.5;"/><text fill="#000000" font-family="sans-serif" font-size="13" lengthAdjust="spacing" textLength="171" x="598" y="418.6504">- This method is explained</text><text fill="#000000" font-family="sans-serif" font-size="13" lengthAdjust="spacing" textLength="137" x="598" y="433.9609">in detail in an excerpt</text><text fill="#000000" font-family="sans-serif" font-size="13" lengthAdjust="spacing" textLength="118" x="598" y="449.2715">sequence diagram.</text><polygon fill="#181818" points="598,479.3242,588,483.3242,598,487.3242,594,483.3242" style="stroke:#181818;stroke-width:1.0;"/><line style="stroke:#181818;stroke-width:1.0;stroke-dasharray:2.0,2.0;" x1="592" x2="883" y1="483.3242" y2="483.3242"/><text fill="#000000" font-family="sans-serif" font-size="13" font-weight="bold" lengthAdjust="spacing" textLength="9" x="604" y="478.582">7</text><text fill="#000000" font-family="sans-serif" font-size="13" lengthAdjust="spacing" textLength="60" x="617" y="478.582">employee</text><polygon fill="#181818" points="396.5,508.6348,386.5,512.6348,396.5,516.6348,392.5,512.6348" style="stroke:#181818;stroke-width:1.0;"/><line style="stroke:#181818;stroke-width:1.0;stroke-dasharray:2.0,2.0;" x1="390.5" x2="581" y1="512.6348" y2="512.6348"/><text fill="#000000" font-family="sans-serif" font-size="13" font-weight="bold" lengthAdjust="spacing" textLength="9" x="402.5" y="507.8926">8</text><text fill="#000000" font-family="sans-serif" font-size="13" lengthAdjust="spacing" textLength="80" x="415.5" y="507.8926">request Data</text><polygon fill="#181818" points="67.5,537.9453,57.5,541.9453,67.5,545.9453,63.5,541.9453" style="stroke:#181818;stroke-width:1.0;"/><line style="stroke:#181818;stroke-width:1.0;stroke-dasharray:2.0,2.0;" x1="61.5" x2="379.5" y1="541.9453" y2="541.9453"/><text fill="#000000" font-family="sans-serif" font-size="13" font-weight="bold" lengthAdjust="spacing" textLength="9" x="73.5" y="537.2031">9</text><text fill="#000000" font-family="sans-serif" font-size="13" lengthAdjust="spacing" textLength="224" x="86.5" y="537.2031">request Data (inicialDate, finalDate)</text><polygon fill="#181818" points="363.5,567.2559,373.5,571.2559,363.5,575.2559,367.5,571.2559" style="stroke:#181818;stroke-width:1.0;"/><line style="stroke:#181818;stroke-width:1.0;" x1="56.5" x2="369.5" y1="571.2559" y2="571.2559"/><text fill="#000000" font-family="sans-serif" font-size="13" font-weight="bold" lengthAdjust="spacing" textLength="18" x="63.5" y="566.5137">10</text><text fill="#000000" font-family="sans-serif" font-size="13" lengthAdjust="spacing" textLength="131" x="85.5" y="566.5137">types requested data</text><polygon fill="#181818" points="67.5,596.5664,57.5,600.5664,67.5,604.5664,63.5,600.5664" style="stroke:#181818;stroke-width:1.0;"/><line style="stroke:#181818;stroke-width:1.0;stroke-dasharray:2.0,2.0;" x1="61.5" x2="379.5" y1="600.5664" y2="600.5664"/><text fill="#000000" font-family="sans-serif" font-size="13" font-weight="bold" lengthAdjust="spacing" textLength="18" x="73.5" y="595.8242">11</text><text fill="#000000" font-family="sans-serif" font-size="13" lengthAdjust="spacing" textLength="139" x="95.5" y="595.8242">requests confirmation</text><polygon fill="#181818" points="363.5,625.877,373.5,629.877,363.5,633.877,367.5,629.877" style="stroke:#181818;stroke-width:1.0;"/><line style="stroke:#181818;stroke-width:1.0;" x1="56.5" x2="369.5" y1="629.877" y2="629.877"/><text fill="#000000" font-family="sans-serif" font-size="13" font-weight="bold" lengthAdjust="spacing" textLength="18" x="63.5" y="625.1348">12</text><text fill="#000000" font-family="sans-serif" font-size="13" lengthAdjust="spacing" textLength="189" x="85.5" y="625.1348">confirms data and request list</text><polygon fill="#181818" points="565,655.1875,575,659.1875,565,663.1875,569,659.1875" style="stroke:#181818;stroke-width:1.0;"/><line style="stroke:#181818;stroke-width:1.0;" x1="385.5" x2="571" y1="659.1875" y2="659.1875"/><text fill="#000000" font-family="sans-serif" font-size="13" font-weight="bold" lengthAdjust="spacing" textLength="18" x="392.5" y="654.4453">13</text><text fill="#000000" font-family="sans-serif" font-size="13" lengthAdjust="spacing" textLength="148" x="414.5" y="654.4453">getAllEntries(employee)</text><polygon fill="#181818" points="1285.5,684.498,1295.5,688.498,1285.5,692.498,1289.5,688.498" style="stroke:#181818;stroke-width:1.0;"/><line style="stroke:#181818;stroke-width:1.0;" x1="587" x2="1291.5" y1="688.498" y2="688.498"/><text fill="#000000" font-family="sans-serif" font-size="13" font-weight="bold" lengthAdjust="spacing" textLength="18" x="594" y="683.7559">14</text><text fill="#000000" font-family="sans-serif" font-size="13" lengthAdjust="spacing" textLength="148" x="616" y="683.7559">getAllEntries(employee)</text><polygon fill="#181818" points="1484.5,713.8086,1494.5,717.8086,1484.5,721.8086,1488.5,717.8086" style="stroke:#181818;stroke-width:1.0;"/><line style="stroke:#181818;stroke-width:1.0;" x1="1307.5" x2="1490.5" y1="717.8086" y2="717.8086"/><text fill="#000000" font-family="sans-serif" font-size="13" font-weight="bold" lengthAdjust="spacing" textLength="18" x="1314.5" y="713.0664">15</text><text fill="#000000" font-family="sans-serif" font-size="13" lengthAdjust="spacing" textLength="148" x="1336.5" y="713.0664">getAllEntries(employee)</text><polygon fill="#181818" points="1318.5,743.1191,1308.5,747.1191,1318.5,751.1191,1314.5,747.1191" style="stroke:#181818;stroke-width:1.0;"/><line style="stroke:#181818;stroke-width:1.0;stroke-dasharray:2.0,2.0;" x1="1312.5" x2="1500.5" y1="747.1191" y2="747.1191"/><text fill="#000000" font-family="sans-serif" font-size="13" font-weight="bold" lengthAdjust="spacing" textLength="18" x="1324.5" y="742.377">16</text><text fill="#000000" font-family="sans-serif" font-size="13" lengthAdjust="spacing" textLength="85" x="1346.5" y="742.377">myEntriesList</text><polygon fill="#181818" points="598,772.4297,588,776.4297,598,780.4297,594,776.4297" style="stroke:#181818;stroke-width:1.0;"/><line style="stroke:#181818;stroke-width:1.0;stroke-dasharray:2.0,2.0;" x1="592" x2="1301.5" y1="776.4297" y2="776.4297"/><text fill="#000000" font-family="sans-serif" font-size="13" font-weight="bold" lengthAdjust="spacing" textLength="18" x="604" y="771.6875">17</text><text fill="#000000" font-family="sans-serif" font-size="13" lengthAdjust="spacing" textLength="85" x="626" y="771.6875">myEntriesList</text><polygon fill="#181818" points="396.5,801.7402,386.5,805.7402,396.5,809.7402,392.5,805.7402" style="stroke:#181818;stroke-width:1.0;"/><line style="stroke:#181818;stroke-width:1.0;stroke-dasharray:2.0,2.0;" x1="390.5" x2="581" y1="805.7402" y2="805.7402"/><text fill="#000000" font-family="sans-serif" font-size="13" font-weight="bold" lengthAdjust="spacing" textLength="18" x="402.5" y="800.998">18</text><text fill="#000000" font-family="sans-serif" font-size="13" lengthAdjust="spacing" textLength="85" x="424.5" y="800.998">myEntriesList</text><polygon fill="#181818" points="62.5,831.0508,52.5,835.0508,62.5,839.0508,58.5,835.0508" style="stroke:#181818;stroke-width:1.0;"/><line style="stroke:#181818;stroke-width:1.0;stroke-dasharray:2.0,2.0;" x1="56.5" x2="379.5" y1="835.0508" y2="835.0508"/><text fill="#000000" font-family="sans-serif" font-size="13" font-weight="bold" lengthAdjust="spacing" textLength="18" x="68.5" y="830.3086">19</text><text fill="#000000" font-family="sans-serif" font-size="13" lengthAdjust="spacing" textLength="170" x="90.5" y="830.3086">shows entries from agenda</text><!--SRC=[dLN9Rjim4BthAuXSig3E1-HGm7NKr81Y1vPz250WOAInH8GYLP5keh_laBGMoXBYb1URuioRxJrIlJ5HqeeMf9129dab2o2wEa2WsfEI9cyqWrZN74W5YQOYutq3bTDKlZEHaJtb2eA07hGKX-8LgY2up5aAP2-bVfKVU9HeMP6BXUISligAukw2K4KMwoYQ_mWGKBE4bLHeSd578gRqOptFGAHqjxI6k-NGQ541rH0ANTLRwMmN4dSO0exWsqqqzDf0AHN3y0oKDLfl7bxYvUeX2hVhbMzTzMn_YmdVvIhUpbUBq7V5LkGWS4yraw9rh15cFd5a4UUxxQ-NJVYqzk4E2geOb487HDXrEzURUFCIXt6y71O0HSbb3O0-uV6lTGWVdwBrSpZCsVRGptNmoUNu4AxkvpRBYUh13CK4DRykucgxUGw2G4YDP69PhedSDzCdk6PacmCnTHAc2EKutBGcN6OPf8G9GZNHEPue3UNjqSFl957mvm0Y0GC07oMdJ5XVQqsxO_X8e2hrRO2r4PFGC2sV4YvMp0pxaT-8RZzXJfXj3yDmdFr5IZPbMJEpt9xClYEBoHssuqqHBKaYXJfmZQbnvBi9hEqHnSbc9dMqAQ23QV5H2-r7iouJAmN7z_u1XiEWvlFD3GPsPi642HgOFEpCVkA5u6RlMtSbcb3UaItKm22Srq34pK0lXS8B986hwrEt5jLl_8cTMJxqhCkzBzPJrnJE3TAleM6tAw6Ha6dEKNvZrPWreFbmBlrbY8-4BK3dClMeE-c2r4j1KyQjC4H3w4dxblafendUtBUZbXsJnqwzzhMgdnnHsxdUX9hRwDFfJCExuJH2ganTg9nxgWSyxG6UCjLGtcJbLEd3a2icy1gZ73VmZUoPS7zxS-vXzuKu4BckIr0DD6evzNASbF94RifS5djM5VQc-sekHrzbaq32f6t9Hl1dPjME4PKmvznS4wYqgsQer_zrKJGFqRcm7dJxYesoi8N6C6ClrbT2Uc57dxz9xOs6dlcb5_KnXyWRnmIXpu_VjQ2RtYUnUd76stkML7sPJeISrEXG0ogNxtWjEWoonzkNqC7RDD117zgznVy0]--></g></svg>