<?xml version="1.0" encoding="UTF-8" standalone="no"?>
<!DOCTYPE svg PUBLIC "-//W3C//DTD SVG 1.1//EN"
 "http://www.w3.org/Graphics/SVG/1.1/DTD/svg11.dtd">
<!-- Generated by graphviz version 10.0.1 (20240210.2158)
 -->
<!-- Title: us17_dot Pages: 1 -->
<svg width="433pt" height="1195pt"
 viewBox="0.00 0.00 432.75 1194.50" xmlns="http://www.w3.org/2000/svg" xmlns:xlink="http://www.w3.org/1999/xlink">
<g id="graph0" class="graph" transform="scale(1 1) rotate(0) translate(4 1190.5)">
<title>us17_dot</title>
<polygon fill="white" stroke="none" points="-4,4 -4,-1190.5 428.75,-1190.5 428.75,4 -4,4"/>
<!-- Teatro -->
<g id="node1" class="node">
<title>Teatro</title>
<ellipse fill="none" stroke="black" cx="213" cy="-106.5" rx="34.97" ry="18"/>
<text text-anchor="middle" x="213" y="-101.45" font-family="Times,serif" font-size="14.00">Teatro</text>
</g>
<!-- Biblioteca -->
<g id="node2" class="node">
<title>Biblioteca</title>
<ellipse fill="none" stroke="black" cx="163" cy="-18" rx="48.79" ry="18"/>
<text text-anchor="middle" x="163" y="-12.95" font-family="Times,serif" font-size="14.00">Biblioteca</text>
</g>
<!-- Teatro&#45;&#45;Biblioteca -->
<g id="edge1" class="edge">
<title>Teatro&#45;&#45;Biblioteca</title>
<path fill="none" stroke="black" d="M203.36,-88.82C194.56,-73.6 181.62,-51.22 172.78,-35.92"/>
<text text-anchor="middle" x="195.38" y="-57.2" font-family="Times,serif" font-size="14.00">8</text>
</g>
<!-- AP -->
<g id="node3" class="node">
<title>AP</title>
<ellipse fill="none" stroke="black" cx="148" cy="-195" rx="27" ry="18"/>
<text text-anchor="middle" x="148" y="-189.95" font-family="Times,serif" font-size="14.00">AP</text>
</g>
<!-- AP&#45;&#45;Teatro -->
<g id="edge3" class="edge">
<title>AP&#45;&#45;Teatro</title>
<path fill="none" stroke="black" d="M159.62,-178.54C171.23,-163.08 189.01,-139.42 200.82,-123.71"/>
<text text-anchor="middle" x="189.38" y="-145.7" font-family="Times,serif" font-size="14.00">7</text>
</g>
<!-- AP&#45;&#45;Biblioteca -->
<g id="edge2" class="edge">
<title>AP&#45;&#45;Biblioteca</title>
<path fill="none" stroke="black" d="M149.03,-176.81C150.32,-155.91 152.72,-119.59 155.5,-88.5 157.09,-70.73 159.33,-50.45 160.94,-36.41"/>
<text text-anchor="middle" x="161.75" y="-101.45" font-family="Times,serif" font-size="14.00">10</text>
</g>
<!-- Pavilhao -->
<g id="node4" class="node">
<title>Pavilhao</title>
<ellipse fill="none" stroke="black" cx="71" cy="-283.5" rx="43.16" ry="18"/>
<text text-anchor="middle" x="71" y="-278.45" font-family="Times,serif" font-size="14.00">Pavilhao</text>
</g>
<!-- Pavilhao&#45;&#45;AP -->
<g id="edge4" class="edge">
<title>Pavilhao&#45;&#45;AP</title>
<path fill="none" stroke="black" d="M85.48,-266.23C99.6,-250.37 120.88,-226.46 134.61,-211.04"/>
<text text-anchor="middle" x="119.38" y="-234.2" font-family="Times,serif" font-size="14.00">5</text>
</g>
<!-- Topo -->
<g id="node5" class="node">
<title>Topo</title>
<ellipse fill="none" stroke="black" cx="213" cy="-283.5" rx="30.37" ry="18"/>
<text text-anchor="middle" x="213" y="-278.45" font-family="Times,serif" font-size="14.00">Topo</text>
</g>
<!-- Topo&#45;&#45;Teatro -->
<g id="edge5" class="edge">
<title>Topo&#45;&#45;Teatro</title>
<path fill="none" stroke="black" d="M213,-265.08C213,-231.54 213,-158.34 213,-124.85"/>
<text text-anchor="middle" x="216.38" y="-189.95" font-family="Times,serif" font-size="14.00">6</text>
</g>
<!-- Topo&#45;&#45;AP -->
<g id="edge6" class="edge">
<title>Topo&#45;&#45;AP</title>
<path fill="none" stroke="black" d="M201.08,-266.63C189.28,-250.93 171.33,-227.04 159.63,-211.47"/>
<text text-anchor="middle" x="189.38" y="-234.2" font-family="Times,serif" font-size="14.00">9</text>
</g>
<!-- ParqueInfantil -->
<g id="node6" class="node">
<title>ParqueInfantil</title>
<ellipse fill="none" stroke="black" cx="182" cy="-372" rx="63.63" ry="18"/>
<text text-anchor="middle" x="182" y="-366.95" font-family="Times,serif" font-size="14.00">ParqueInfantil</text>
</g>
<!-- ParqueInfantil&#45;&#45;Topo -->
<g id="edge7" class="edge">
<title>ParqueInfantil&#45;&#45;Topo</title>
<path fill="none" stroke="black" d="M188.12,-353.91C193.56,-338.75 201.46,-316.71 206.89,-301.55"/>
<text text-anchor="middle" x="203.38" y="-322.7" font-family="Times,serif" font-size="14.00">7</text>
</g>
<!-- Macieirinha -->
<g id="node7" class="node">
<title>Macieirinha</title>
<ellipse fill="none" stroke="black" cx="132" cy="-460.5" rx="55.96" ry="18"/>
<text text-anchor="middle" x="132" y="-455.45" font-family="Times,serif" font-size="14.00">Macieirinha</text>
</g>
<!-- Macieirinha&#45;&#45;ParqueInfantil -->
<g id="edge8" class="edge">
<title>Macieirinha&#45;&#45;ParqueInfantil</title>
<path fill="none" stroke="black" d="M141.88,-442.41C150.64,-427.25 163.38,-405.21 172.14,-390.05"/>
<text text-anchor="middle" x="167.75" y="-411.2" font-family="Times,serif" font-size="14.00">10</text>
</g>
<!-- Fontaine -->
<g id="node8" class="node">
<title>Fontaine</title>
<ellipse fill="none" stroke="black" cx="198" cy="-549" rx="43.16" ry="18"/>
<text text-anchor="middle" x="198" y="-543.95" font-family="Times,serif" font-size="14.00">Fontaine</text>
</g>
<!-- Fontaine&#45;&#45;ParqueInfantil -->
<g id="edge9" class="edge">
<title>Fontaine&#45;&#45;ParqueInfantil</title>
<path fill="none" stroke="black" d="M198.91,-530.76C199.76,-509.82 200.45,-473.45 197,-442.5 194.99,-424.47 190.34,-404.23 186.75,-390.26"/>
<text text-anchor="middle" x="202.38" y="-455.45" font-family="Times,serif" font-size="14.00">8</text>
</g>
<!-- Fontaine&#45;&#45;Macieirinha -->
<g id="edge10" class="edge">
<title>Fontaine&#45;&#45;Macieirinha</title>
<path fill="none" stroke="black" d="M185.27,-531.32C173.66,-516.1 156.58,-493.72 144.91,-478.42"/>
<text text-anchor="middle" x="176.75" y="-499.7" font-family="Times,serif" font-size="14.00">11</text>
</g>
<!-- Miradouro -->
<g id="node9" class="node">
<title>Miradouro</title>
<ellipse fill="none" stroke="black" cx="273" cy="-637.5" rx="50.84" ry="18"/>
<text text-anchor="middle" x="273" y="-632.45" font-family="Times,serif" font-size="14.00">Miradouro</text>
</g>
<!-- Miradouro&#45;&#45;Topo -->
<g id="edge11" class="edge">
<title>Miradouro&#45;&#45;Topo</title>
<path fill="none" stroke="black" d="M273.32,-619.27C273.61,-601.81 274,-574.03 274,-550 274,-550 274,-550 274,-371 274,-340.86 248.97,-313.84 230.97,-298.31"/>
<text text-anchor="middle" x="277.38" y="-455.45" font-family="Times,serif" font-size="14.00">3</text>
</g>
<!-- Miradouro&#45;&#45;Fontaine -->
<g id="edge12" class="edge">
<title>Miradouro&#45;&#45;Fontaine</title>
<path fill="none" stroke="black" d="M258.54,-619.82C245.17,-604.41 225.43,-581.64 212.16,-566.33"/>
<text text-anchor="middle" x="245.38" y="-588.2" font-family="Times,serif" font-size="14.00">8</text>
</g>
<!-- Capela -->
<g id="node10" class="node">
<title>Capela</title>
<ellipse fill="none" stroke="black" cx="340" cy="-726" rx="36.51" ry="18"/>
<text text-anchor="middle" x="340" y="-720.95" font-family="Times,serif" font-size="14.00">Capela</text>
</g>
<!-- Capela&#45;&#45;Topo -->
<g id="edge13" class="edge">
<title>Capela&#45;&#45;Topo</title>
<path fill="none" stroke="black" d="M343.8,-707.86C347.31,-690.48 352,-662.76 352,-638.5 352,-638.5 352,-638.5 352,-371 352,-319.7 282.9,-297.74 242.14,-289.25"/>
<text text-anchor="middle" x="355.38" y="-499.7" font-family="Times,serif" font-size="14.00">4</text>
</g>
<!-- Capela&#45;&#45;Miradouro -->
<g id="edge14" class="edge">
<title>Capela&#45;&#45;Miradouro</title>
<path fill="none" stroke="black" d="M327.4,-708.73C315.57,-693.46 297.96,-670.72 286,-655.29"/>
<text text-anchor="middle" x="315.38" y="-676.7" font-family="Times,serif" font-size="14.00">4</text>
</g>
<!-- Torreao -->
<g id="node11" class="node">
<title>Torreao</title>
<ellipse fill="none" stroke="black" cx="270" cy="-814.5" rx="40.09" ry="18"/>
<text text-anchor="middle" x="270" y="-809.45" font-family="Times,serif" font-size="14.00">Torreao</text>
</g>
<!-- Torreao&#45;&#45;Fontaine -->
<g id="edge15" class="edge">
<title>Torreao&#45;&#45;Fontaine</title>
<path fill="none" stroke="black" d="M262.48,-796.33C250.25,-767.69 226.09,-708.14 213,-655.5 205.41,-624.98 201.29,-588.47 199.37,-567.39"/>
<text text-anchor="middle" x="228.75" y="-676.7" font-family="Times,serif" font-size="14.00">11</text>
</g>
<!-- Torreao&#45;&#45;Miradouro -->
<g id="edge16" class="edge">
<title>Torreao&#45;&#45;Miradouro</title>
<path fill="none" stroke="black" d="M270.3,-796.08C270.87,-762.54 272.13,-689.34 272.7,-655.85"/>
<text text-anchor="middle" x="274.38" y="-720.95" font-family="Times,serif" font-size="14.00">9</text>
</g>
<!-- Torreao&#45;&#45;Capela -->
<g id="edge17" class="edge">
<title>Torreao&#45;&#45;Capela</title>
<path fill="none" stroke="black" d="M283.17,-797.23C295.68,-781.77 314.4,-758.64 326.89,-743.2"/>
<text text-anchor="middle" x="317.75" y="-765.2" font-family="Times,serif" font-size="14.00">11</text>
</g>
<!-- Lago -->
<g id="node12" class="node">
<title>Lago</title>
<ellipse fill="none" stroke="black" cx="71" cy="-372" rx="29.86" ry="18"/>
<text text-anchor="middle" x="71" y="-366.95" font-family="Times,serif" font-size="14.00">Lago</text>
</g>
<!-- Lago&#45;&#45;AP -->
<g id="edge18" class="edge">
<title>Lago&#45;&#45;AP</title>
<path fill="none" stroke="black" d="M85.2,-355.92C97,-342.59 113.36,-322.11 123,-301.5 136.72,-272.17 143.29,-234.63 146.12,-213.15"/>
<text text-anchor="middle" x="138.38" y="-278.45" font-family="Times,serif" font-size="14.00">9</text>
</g>
<!-- Lago&#45;&#45;Pavilhao -->
<g id="edge19" class="edge">
<title>Lago&#45;&#45;Pavilhao</title>
<path fill="none" stroke="black" d="M71,-353.91C71,-338.84 71,-316.99 71,-301.85"/>
<text text-anchor="middle" x="74.38" y="-322.7" font-family="Times,serif" font-size="14.00">6</text>
</g>
<!-- Lago&#45;&#45;Topo -->
<g id="edge20" class="edge">
<title>Lago&#45;&#45;Topo</title>
<path fill="none" stroke="black" d="M94.17,-360.25C99.04,-358.1 104.16,-355.92 109,-354 131.74,-345 140.24,-348.93 161,-336 176.32,-326.46 190.64,-311.66 200.36,-300.37"/>
<text text-anchor="middle" x="184.38" y="-322.7" font-family="Times,serif" font-size="14.00">5</text>
</g>
<!-- Escadas3 -->
<g id="node13" class="node">
<title>Escadas3</title>
<ellipse fill="none" stroke="black" cx="346" cy="-903" rx="45.21" ry="18"/>
<text text-anchor="middle" x="346" y="-897.95" font-family="Times,serif" font-size="14.00">Escadas3</text>
</g>
<!-- Escadas3&#45;&#45;Capela -->
<g id="edge21" class="edge">
<title>Escadas3&#45;&#45;Capela</title>
<path fill="none" stroke="black" d="M345.4,-884.58C344.25,-851.04 341.74,-777.84 340.59,-744.35"/>
<text text-anchor="middle" x="346.38" y="-809.45" font-family="Times,serif" font-size="14.00">9</text>
</g>
<!-- Escadas3&#45;&#45;Torreao -->
<g id="edge22" class="edge">
<title>Escadas3&#45;&#45;Torreao</title>
<path fill="none" stroke="black" d="M331.7,-885.73C318.12,-870.27 297.8,-847.14 284.23,-831.7"/>
<text text-anchor="middle" x="320.75" y="-853.7" font-family="Times,serif" font-size="14.00">12</text>
</g>
<!-- Sentimentos -->
<g id="node14" class="node">
<title>Sentimentos</title>
<ellipse fill="none" stroke="black" cx="346" cy="-991.5" rx="56.98" ry="18"/>
<text text-anchor="middle" x="346" y="-986.45" font-family="Times,serif" font-size="14.00">Sentimentos</text>
</g>
<!-- Sentimentos&#45;&#45;Escadas3 -->
<g id="edge23" class="edge">
<title>Sentimentos&#45;&#45;Escadas3</title>
<path fill="none" stroke="black" d="M346,-973.41C346,-958.34 346,-936.49 346,-921.35"/>
<text text-anchor="middle" x="349.38" y="-942.2" font-family="Times,serif" font-size="14.00">5</text>
</g>
<!-- JardimRoseiral -->
<g id="node15" class="node">
<title>JardimRoseiral</title>
<ellipse fill="none" stroke="black" cx="204" cy="-991.5" rx="67.22" ry="18"/>
<text text-anchor="middle" x="204" y="-986.45" font-family="Times,serif" font-size="14.00">JardimRoseiral</text>
</g>
<!-- CasaRoseiral -->
<g id="node16" class="node">
<title>CasaRoseiral</title>
<ellipse fill="none" stroke="black" cx="152" cy="-903" rx="59.54" ry="18"/>
<text text-anchor="middle" x="152" y="-897.95" font-family="Times,serif" font-size="14.00">CasaRoseiral</text>
</g>
<!-- JardimRoseiral&#45;&#45;CasaRoseiral -->
<g id="edge24" class="edge">
<title>JardimRoseiral&#45;&#45;CasaRoseiral</title>
<path fill="none" stroke="black" d="M193.73,-973.41C184.61,-958.25 171.36,-936.21 162.25,-921.05"/>
<text text-anchor="middle" x="185.38" y="-942.2" font-family="Times,serif" font-size="14.00">3</text>
</g>
<!-- Escadas2 -->
<g id="node17" class="node">
<title>Escadas2</title>
<ellipse fill="none" stroke="black" cx="204" cy="-1080" rx="45.21" ry="18"/>
<text text-anchor="middle" x="204" y="-1074.95" font-family="Times,serif" font-size="14.00">Escadas2</text>
</g>
<!-- Escadas2&#45;&#45;Escadas3 -->
<g id="edge25" class="edge">
<title>Escadas2&#45;&#45;Escadas3</title>
<path fill="none" stroke="black" d="M249.35,-1078.29C298.57,-1074.78 375.06,-1060.79 412,-1009.5 434.35,-978.47 394.24,-939.91 367.36,-919.07"/>
<text text-anchor="middle" x="421.38" y="-986.45" font-family="Times,serif" font-size="14.00">5</text>
</g>
<!-- Escadas2&#45;&#45;Sentimentos -->
<g id="edge26" class="edge">
<title>Escadas2&#45;&#45;Sentimentos</title>
<path fill="none" stroke="black" d="M228.09,-1064.33C253.88,-1048.61 294.63,-1023.79 320.84,-1007.83"/>
<text text-anchor="middle" x="290.38" y="-1030.7" font-family="Times,serif" font-size="14.00">7</text>
</g>
<!-- Escadas2&#45;&#45;JardimRoseiral -->
<g id="edge28" class="edge">
<title>Escadas2&#45;&#45;JardimRoseiral</title>
<path fill="none" stroke="black" d="M204,-1061.91C204,-1046.84 204,-1024.99 204,-1009.85"/>
<text text-anchor="middle" x="207.38" y="-1030.7" font-family="Times,serif" font-size="14.00">3</text>
</g>
<!-- Escadas2&#45;&#45;CasaRoseiral -->
<g id="edge27" class="edge">
<title>Escadas2&#45;&#45;CasaRoseiral</title>
<path fill="none" stroke="black" d="M177.3,-1065.04C157.76,-1053.18 132.74,-1034.16 121.25,-1009.5 107.39,-979.76 126.03,-942.36 139.76,-921.02"/>
<text text-anchor="middle" x="124.38" y="-986.45" font-family="Times,serif" font-size="14.00">4</text>
</g>
<!-- Escadas1 -->
<g id="node18" class="node">
<title>Escadas1</title>
<ellipse fill="none" stroke="black" cx="64" cy="-1168.5" rx="45.21" ry="18"/>
<text text-anchor="middle" x="64" y="-1163.45" font-family="Times,serif" font-size="14.00">Escadas1</text>
</g>
<!-- Escadas1&#45;&#45;AP -->
<g id="edge29" class="edge">
<title>Escadas1&#45;&#45;AP</title>
<path fill="none" stroke="red" d="M43.04,-1152.15C24.38,-1136.55 0,-1110.52 0,-1081 0,-1081 0,-1081 0,-282.5 0,-226.85 78.97,-206.34 121.54,-199.34"/>
<text text-anchor="middle" x="6.75" y="-676.7" font-family="Times,serif" font-size="14.00">10</text>
</g>
<!-- Escadas1&#45;&#45;Lago -->
<g id="edge30" class="edge">
<title>Escadas1&#45;&#45;Lago</title>
<path fill="none" stroke="black" d="M56.6,-1150.3C49.87,-1133.09 41,-1105.71 41,-1081 41,-1081 41,-1081 41,-459.5 41,-433.91 52.87,-406.29 61.67,-389.32"/>
<text text-anchor="middle" x="44.38" y="-765.2" font-family="Times,serif" font-size="14.00">7</text>
</g>
<!-- Escadas1&#45;&#45;JardimRoseiral -->
<g id="edge31" class="edge">
<title>Escadas1&#45;&#45;JardimRoseiral</title>
<path fill="none" stroke="black" d="M75.98,-1150.76C91.19,-1129.71 118.43,-1092.61 143.25,-1062 158.19,-1043.58 176.16,-1023.23 188.66,-1009.33"/>
<text text-anchor="middle" x="146.38" y="-1074.95" font-family="Times,serif" font-size="14.00">8</text>
</g>
<!-- Escadas1&#45;&#45;Escadas2 -->
<g id="edge32" class="edge">
<title>Escadas1&#45;&#45;Escadas2</title>
<path fill="none" stroke="black" d="M87.75,-1152.83C113.49,-1136.92 154.34,-1111.68 180.13,-1095.75"/>
<text text-anchor="middle" x="149.38" y="-1119.2" font-family="Times,serif" font-size="14.00">3</text>
</g>
</g>
</svg>
