<?xml version="1.0" encoding="UTF-8" standalone="no"?>
<!DOCTYPE svg PUBLIC "-//W3C//DTD SVG 1.1//EN"
 "http://www.w3.org/Graphics/SVG/1.1/DTD/svg11.dtd">
<!-- Generated by graphviz version 10.0.1 (20240210.2158)
 -->
<!-- Title: quinta_feiraGRAPH Pages: 1 -->
<svg width="255pt" height="404pt"
 viewBox="0.00 0.00 255.00 404.00" xmlns="http://www.w3.org/2000/svg" xmlns:xlink="http://www.w3.org/1999/xlink">
<g id="graph0" class="graph" transform="scale(1 1) rotate(0) translate(4 400)">
<title>quinta_feiraGRAPH</title>
<polygon fill="white" stroke="none" points="-4,4 -4,-400 251,-400 251,4 -4,4"/>
<!-- 1 -->
<g id="node1" class="node">
<title>1</title>
<ellipse fill="none" stroke="black" cx="137" cy="-378" rx="27" ry="18"/>
<text text-anchor="middle" x="137" y="-372.95" font-family="Times,serif" font-size="14.00">1</text>
</g>
<!-- 5 -->
<g id="node2" class="node">
<title>5</title>
<ellipse fill="none" stroke="black" cx="27" cy="-234" rx="27" ry="18"/>
<text text-anchor="middle" x="27" y="-228.95" font-family="Times,serif" font-size="14.00">5</text>
</g>
<!-- 1&#45;&#45;5 -->
<g id="edge1" class="edge">
<title>1&#45;&#45;5</title>
<path fill="none" stroke="black" d="M125.02,-361.53C103.86,-334.22 60.12,-277.75 38.97,-250.45"/>
</g>
<!-- 2 -->
<g id="node3" class="node">
<title>2</title>
<ellipse fill="none" stroke="black" cx="137" cy="-306" rx="27" ry="18"/>
<text text-anchor="middle" x="137" y="-300.95" font-family="Times,serif" font-size="14.00">2</text>
</g>
<!-- 1&#45;&#45;2 -->
<g id="edge14" class="edge">
<title>1&#45;&#45;2</title>
<path fill="none" stroke="black" d="M137,-359.7C137,-348.85 137,-334.92 137,-324.1"/>
</g>
<!-- 4 -->
<g id="node5" class="node">
<title>4</title>
<ellipse fill="none" stroke="black" cx="192" cy="-162" rx="27" ry="18"/>
<text text-anchor="middle" x="192" y="-156.95" font-family="Times,serif" font-size="14.00">4</text>
</g>
<!-- 1&#45;&#45;4 -->
<g id="edge4" class="edge">
<title>1&#45;&#45;4</title>
<path fill="none" stroke="black" d="M150.19,-361.88C158.17,-351.83 167.79,-337.97 173,-324 191.59,-274.16 193.09,-210.16 192.6,-180.07"/>
</g>
<!-- 8 -->
<g id="node6" class="node">
<title>8</title>
<ellipse fill="none" stroke="black" cx="137" cy="-18" rx="27" ry="18"/>
<text text-anchor="middle" x="137" y="-12.95" font-family="Times,serif" font-size="14.00">8</text>
</g>
<!-- 1&#45;&#45;8 -->
<g id="edge5" class="edge">
<title>1&#45;&#45;8</title>
<path fill="none" stroke="black" d="M155.66,-365.02C187.04,-343.25 247,-293.94 247,-235 247,-235 247,-235 247,-161 247,-102.06 187.04,-52.75 155.66,-30.98"/>
</g>
<!-- 6 -->
<g id="node4" class="node">
<title>6</title>
<ellipse fill="none" stroke="black" cx="82" cy="-162" rx="27" ry="18"/>
<text text-anchor="middle" x="82" y="-156.95" font-family="Times,serif" font-size="14.00">6</text>
</g>
<!-- 5&#45;&#45;6 -->
<g id="edge3" class="edge">
<title>5&#45;&#45;6</title>
<path fill="none" stroke="black" d="M39.21,-217.46C48.32,-205.86 60.72,-190.08 69.83,-178.49"/>
</g>
<!-- 2&#45;&#45;5 -->
<g id="edge13" class="edge">
<title>2&#45;&#45;5</title>
<path fill="none" stroke="black" d="M117.84,-292.81C97.65,-279.96 66.05,-259.85 45.94,-247.05"/>
</g>
<!-- 2&#45;&#45;6 -->
<g id="edge2" class="edge">
<title>2&#45;&#45;6</title>
<path fill="none" stroke="black" d="M124.25,-289.7C116.44,-279.59 106.85,-265.71 101,-252 90.89,-228.31 85.95,-198.71 83.7,-180.33"/>
</g>
<!-- 3 -->
<g id="node7" class="node">
<title>3</title>
<ellipse fill="none" stroke="black" cx="137" cy="-234" rx="27" ry="18"/>
<text text-anchor="middle" x="137" y="-228.95" font-family="Times,serif" font-size="14.00">3</text>
</g>
<!-- 2&#45;&#45;3 -->
<g id="edge16" class="edge">
<title>2&#45;&#45;3</title>
<path fill="none" stroke="black" d="M137,-287.7C137,-276.85 137,-262.92 137,-252.1"/>
</g>
<!-- 7 -->
<g id="node8" class="node">
<title>7</title>
<ellipse fill="none" stroke="black" cx="137" cy="-90" rx="27" ry="18"/>
<text text-anchor="middle" x="137" y="-84.95" font-family="Times,serif" font-size="14.00">7</text>
</g>
<!-- 6&#45;&#45;7 -->
<g id="edge12" class="edge">
<title>6&#45;&#45;7</title>
<path fill="none" stroke="black" d="M94.21,-145.46C103.32,-133.86 115.72,-118.08 124.83,-106.49"/>
</g>
<!-- 4&#45;&#45;8 -->
<g id="edge6" class="edge">
<title>4&#45;&#45;8</title>
<path fill="none" stroke="black" d="M190.3,-143.67C188.05,-125.29 183.11,-95.69 173,-72 167.15,-58.29 157.56,-44.41 149.75,-34.3"/>
</g>
<!-- 4&#45;&#45;7 -->
<g id="edge11" class="edge">
<title>4&#45;&#45;7</title>
<path fill="none" stroke="black" d="M179.79,-145.46C170.68,-133.86 158.28,-118.08 149.17,-106.49"/>
</g>
<!-- 8&#45;&#45;5 -->
<g id="edge15" class="edge">
<title>8&#45;&#45;5</title>
<path fill="none" stroke="black" d="M122.91,-33.84C102.68,-56 65.69,-99.88 46,-144 35.5,-167.52 30.67,-197.17 28.54,-215.61"/>
</g>
<!-- 3&#45;&#45;6 -->
<g id="edge10" class="edge">
<title>3&#45;&#45;6</title>
<path fill="none" stroke="black" d="M124.79,-217.46C115.68,-205.86 103.28,-190.08 94.17,-178.49"/>
</g>
<!-- 3&#45;&#45;4 -->
<g id="edge8" class="edge">
<title>3&#45;&#45;4</title>
<path fill="none" stroke="black" d="M149.21,-217.46C158.32,-205.86 170.72,-190.08 179.83,-178.49"/>
</g>
<!-- 3&#45;&#45;7 -->
<g id="edge7" class="edge">
<title>3&#45;&#45;7</title>
<path fill="none" stroke="black" d="M137,-215.59C137,-188.19 137,-135.32 137,-108.11"/>
</g>
<!-- 7&#45;&#45;8 -->
<g id="edge9" class="edge">
<title>7&#45;&#45;8</title>
<path fill="none" stroke="black" d="M137,-71.7C137,-60.85 137,-46.92 137,-36.1"/>
</g>
</g>
</svg>
