<?xml version="1.0" encoding="UTF-8" standalone="no"?>
<!DOCTYPE svg PUBLIC "-//W3C//DTD SVG 1.1//EN"
 "http://www.w3.org/Graphics/SVG/1.1/DTD/svg11.dtd">
<!-- Generated by graphviz version 10.0.1 (20240210.2158)
 -->
<!-- Title: US13_JardimEspeciesNucleoRuralMST Pages: 1 -->
<svg width="709pt" height="908pt"
 viewBox="0.00 0.00 709.40 908.00" xmlns="http://www.w3.org/2000/svg" xmlns:xlink="http://www.w3.org/1999/xlink">
<g id="graph0" class="graph" transform="scale(1 1) rotate(0) translate(4 904)">
<title>US13_JardimEspeciesNucleoRuralMST</title>
<polygon fill="white" stroke="none" points="-4,4 -4,-904 705.4,-904 705.4,4 -4,4"/>
<!-- Tilia -->
<g id="node1" class="node">
<title>Tilia</title>
<ellipse fill="none" stroke="black" cx="133.96" cy="-450" rx="28.32" ry="18"/>
<text text-anchor="middle" x="133.96" y="-444.95" font-family="Times,serif" font-size="14.00">Tilia</text>
</g>
<!-- Camelia_e3 -->
<g id="node2" class="node">
<title>Camelia_e3</title>
<ellipse fill="none" stroke="black" cx="364.96" cy="-378" rx="55.45" ry="18"/>
<text text-anchor="middle" x="364.96" y="-372.95" font-family="Times,serif" font-size="14.00">Camelia_e3</text>
</g>
<!-- Tilia&#45;&#45;Camelia_e3 -->
<g id="edge1" class="edge">
<title>Tilia&#45;&#45;Camelia_e3</title>
<path fill="none" stroke="black" d="M156.02,-438.15C160.88,-435.96 166.04,-433.79 170.96,-432 221.16,-413.75 280.65,-398.38 320.4,-388.97"/>
</g>
<!-- Camelia_e4 -->
<g id="node17" class="node">
<title>Camelia_e4</title>
<ellipse fill="none" stroke="black" cx="364.96" cy="-306" rx="55.45" ry="18"/>
<text text-anchor="middle" x="364.96" y="-300.95" font-family="Times,serif" font-size="14.00">Camelia_e4</text>
</g>
<!-- Camelia_e3&#45;&#45;Camelia_e4 -->
<g id="edge13" class="edge">
<title>Camelia_e3&#45;&#45;Camelia_e4</title>
<path fill="none" stroke="black" d="M364.96,-359.7C364.96,-348.85 364.96,-334.92 364.96,-324.1"/>
</g>
<!-- Carvalho -->
<g id="node3" class="node">
<title>Carvalho</title>
<ellipse fill="none" stroke="black" cx="351.96" cy="-594" rx="44.7" ry="18"/>
<text text-anchor="middle" x="351.96" y="-588.95" font-family="Times,serif" font-size="14.00">Carvalho</text>
</g>
<!-- Camelia_e1 -->
<g id="node4" class="node">
<title>Camelia_e1</title>
<ellipse fill="none" stroke="black" cx="351.96" cy="-522" rx="55.45" ry="18"/>
<text text-anchor="middle" x="351.96" y="-516.95" font-family="Times,serif" font-size="14.00">Camelia_e1</text>
</g>
<!-- Carvalho&#45;&#45;Camelia_e1 -->
<g id="edge2" class="edge">
<title>Carvalho&#45;&#45;Camelia_e1</title>
<path fill="none" stroke="black" d="M351.96,-575.7C351.96,-564.85 351.96,-550.92 351.96,-540.1"/>
</g>
<!-- Camelia_e2 -->
<g id="node7" class="node">
<title>Camelia_e2</title>
<ellipse fill="none" stroke="black" cx="364.96" cy="-450" rx="55.45" ry="18"/>
<text text-anchor="middle" x="364.96" y="-444.95" font-family="Times,serif" font-size="14.00">Camelia_e2</text>
</g>
<!-- Camelia_e1&#45;&#45;Camelia_e2 -->
<g id="edge4" class="edge">
<title>Camelia_e1&#45;&#45;Camelia_e2</title>
<path fill="none" stroke="black" d="M355.17,-503.7C357.19,-492.85 359.77,-478.92 361.78,-468.1"/>
</g>
<!-- Camelia_d1 -->
<g id="node12" class="node">
<title>Camelia_d1</title>
<ellipse fill="none" stroke="black" cx="235.96" cy="-450" rx="55.96" ry="18"/>
<text text-anchor="middle" x="235.96" y="-444.95" font-family="Times,serif" font-size="14.00">Camelia_d1</text>
</g>
<!-- Camelia_e1&#45;&#45;Camelia_d1 -->
<g id="edge24" class="edge">
<title>Camelia_e1&#45;&#45;Camelia_d1</title>
<path fill="none" stroke="black" d="M326.5,-505.64C307.16,-493.97 280.68,-477.99 261.35,-466.33"/>
</g>
<!-- Abrunheiro -->
<g id="node5" class="node">
<title>Abrunheiro</title>
<ellipse fill="none" stroke="black" cx="516.96" cy="-90" rx="53.4" ry="18"/>
<text text-anchor="middle" x="516.96" y="-84.95" font-family="Times,serif" font-size="14.00">Abrunheiro</text>
</g>
<!-- Ginkgo -->
<g id="node6" class="node">
<title>Ginkgo</title>
<ellipse fill="none" stroke="black" cx="516.96" cy="-18" rx="38.56" ry="18"/>
<text text-anchor="middle" x="516.96" y="-12.95" font-family="Times,serif" font-size="14.00">Ginkgo</text>
</g>
<!-- Abrunheiro&#45;&#45;Ginkgo -->
<g id="edge3" class="edge">
<title>Abrunheiro&#45;&#45;Ginkgo</title>
<path fill="none" stroke="black" d="M516.96,-71.7C516.96,-60.85 516.96,-46.92 516.96,-36.1"/>
</g>
<!-- Camelia_e2&#45;&#45;Camelia_e3 -->
<g id="edge8" class="edge">
<title>Camelia_e2&#45;&#45;Camelia_e3</title>
<path fill="none" stroke="black" d="M364.96,-431.7C364.96,-420.85 364.96,-406.92 364.96,-396.1"/>
</g>
<!-- Camelia_d3 -->
<g id="node8" class="node">
<title>Camelia_d3</title>
<ellipse fill="none" stroke="black" cx="118.96" cy="-594" rx="55.96" ry="18"/>
<text text-anchor="middle" x="118.96" y="-588.95" font-family="Times,serif" font-size="14.00">Camelia_d3</text>
</g>
<!-- Camelia_d2 -->
<g id="node9" class="node">
<title>Camelia_d2</title>
<ellipse fill="none" stroke="black" cx="118.96" cy="-522" rx="55.96" ry="18"/>
<text text-anchor="middle" x="118.96" y="-516.95" font-family="Times,serif" font-size="14.00">Camelia_d2</text>
</g>
<!-- Camelia_d3&#45;&#45;Camelia_d2 -->
<g id="edge5" class="edge">
<title>Camelia_d3&#45;&#45;Camelia_d2</title>
<path fill="none" stroke="black" d="M118.96,-575.7C118.96,-564.85 118.96,-550.92 118.96,-540.1"/>
</g>
<!-- Camelia_d2&#45;&#45;Camelia_d1 -->
<g id="edge10" class="edge">
<title>Camelia_d2&#45;&#45;Camelia_d1</title>
<path fill="none" stroke="black" d="M144.63,-505.64C164.14,-493.97 190.85,-477.99 210.34,-466.33"/>
</g>
<!-- Liquidanbar -->
<g id="node10" class="node">
<title>Liquidanbar</title>
<ellipse fill="none" stroke="black" cx="516.96" cy="-162" rx="55.96" ry="18"/>
<text text-anchor="middle" x="516.96" y="-156.95" font-family="Times,serif" font-size="14.00">Liquidanbar</text>
</g>
<!-- Liquidanbar&#45;&#45;Abrunheiro -->
<g id="edge6" class="edge">
<title>Liquidanbar&#45;&#45;Abrunheiro</title>
<path fill="none" stroke="black" d="M516.96,-143.7C516.96,-132.85 516.96,-118.92 516.96,-108.1"/>
</g>
<!-- Camelia_e9 -->
<g id="node14" class="node">
<title>Camelia_e9</title>
<ellipse fill="none" stroke="black" cx="644.96" cy="-90" rx="55.45" ry="18"/>
<text text-anchor="middle" x="644.96" y="-84.95" font-family="Times,serif" font-size="14.00">Camelia_e9</text>
</g>
<!-- Liquidanbar&#45;&#45;Camelia_e9 -->
<g id="edge11" class="edge">
<title>Liquidanbar&#45;&#45;Camelia_e9</title>
<path fill="none" stroke="black" d="M544.42,-145.98C566.01,-134.17 595.96,-117.8 617.54,-105.99"/>
</g>
<!-- Sobreiro -->
<g id="node11" class="node">
<title>Sobreiro</title>
<ellipse fill="none" stroke="black" cx="235.96" cy="-522" rx="42.65" ry="18"/>
<text text-anchor="middle" x="235.96" y="-516.95" font-family="Times,serif" font-size="14.00">Sobreiro</text>
</g>
<!-- Sobreiro&#45;&#45;Camelia_d1 -->
<g id="edge7" class="edge">
<title>Sobreiro&#45;&#45;Camelia_d1</title>
<path fill="none" stroke="black" d="M235.96,-503.7C235.96,-492.85 235.96,-478.92 235.96,-468.1"/>
</g>
<!-- Camelia_d4 -->
<g id="node13" class="node">
<title>Camelia_d4</title>
<ellipse fill="none" stroke="black" cx="118.96" cy="-666" rx="55.96" ry="18"/>
<text text-anchor="middle" x="118.96" y="-660.95" font-family="Times,serif" font-size="14.00">Camelia_d4</text>
</g>
<!-- Camelia_d4&#45;&#45;Camelia_d3 -->
<g id="edge9" class="edge">
<title>Camelia_d4&#45;&#45;Camelia_d3</title>
<path fill="none" stroke="black" d="M118.96,-647.7C118.96,-636.85 118.96,-622.92 118.96,-612.1"/>
</g>
<!-- Folhado -->
<g id="node15" class="node">
<title>Folhado</title>
<ellipse fill="none" stroke="black" cx="61.96" cy="-810" rx="41.12" ry="18"/>
<text text-anchor="middle" x="61.96" y="-804.95" font-family="Times,serif" font-size="14.00">Folhado</text>
</g>
<!-- Camelia_d5 -->
<g id="node16" class="node">
<title>Camelia_d5</title>
<ellipse fill="none" stroke="black" cx="118.96" cy="-738" rx="55.96" ry="18"/>
<text text-anchor="middle" x="118.96" y="-732.95" font-family="Times,serif" font-size="14.00">Camelia_d5</text>
</g>
<!-- Folhado&#45;&#45;Camelia_d5 -->
<g id="edge12" class="edge">
<title>Folhado&#45;&#45;Camelia_d5</title>
<path fill="none" stroke="black" d="M75.18,-792.76C84.25,-781.62 96.27,-766.87 105.41,-755.63"/>
</g>
<!-- Camelia_d5&#45;&#45;Camelia_d4 -->
<g id="edge18" class="edge">
<title>Camelia_d5&#45;&#45;Camelia_d4</title>
<path fill="none" stroke="black" d="M118.96,-719.7C118.96,-708.85 118.96,-694.92 118.96,-684.1"/>
</g>
<!-- Camelia_e6 -->
<g id="node18" class="node">
<title>Camelia_e6</title>
<ellipse fill="none" stroke="black" cx="412.96" cy="-234" rx="55.45" ry="18"/>
<text text-anchor="middle" x="412.96" y="-228.95" font-family="Times,serif" font-size="14.00">Camelia_e6</text>
</g>
<!-- Camelia_e4&#45;&#45;Camelia_e6 -->
<g id="edge14" class="edge">
<title>Camelia_e4&#45;&#45;Camelia_e6</title>
<path fill="none" stroke="black" d="M376.58,-288.05C384.12,-277.05 393.92,-262.76 401.45,-251.79"/>
</g>
<!-- Camelia_e8 -->
<g id="node19" class="node">
<title>Camelia_e8</title>
<ellipse fill="none" stroke="black" cx="645.96" cy="-162" rx="55.45" ry="18"/>
<text text-anchor="middle" x="645.96" y="-156.95" font-family="Times,serif" font-size="14.00">Camelia_e8</text>
</g>
<!-- Camelia_e8&#45;&#45;Camelia_e9 -->
<g id="edge15" class="edge">
<title>Camelia_e8&#45;&#45;Camelia_e9</title>
<path fill="none" stroke="black" d="M645.71,-143.7C645.56,-132.85 645.36,-118.92 645.2,-108.1"/>
</g>
<!-- Camelia_d7 -->
<g id="node20" class="node">
<title>Camelia_d7</title>
<ellipse fill="none" stroke="black" cx="55.96" cy="-882" rx="55.96" ry="18"/>
<text text-anchor="middle" x="55.96" y="-876.95" font-family="Times,serif" font-size="14.00">Camelia_d7</text>
</g>
<!-- Camelia_d6 -->
<g id="node21" class="node">
<title>Camelia_d6</title>
<ellipse fill="none" stroke="black" cx="176.96" cy="-810" rx="55.96" ry="18"/>
<text text-anchor="middle" x="176.96" y="-804.95" font-family="Times,serif" font-size="14.00">Camelia_d6</text>
</g>
<!-- Camelia_d7&#45;&#45;Camelia_d6 -->
<g id="edge16" class="edge">
<title>Camelia_d7&#45;&#45;Camelia_d6</title>
<path fill="none" stroke="black" d="M82.21,-865.81C102.51,-854.07 130.47,-837.89 150.75,-826.16"/>
</g>
<!-- Camelia_d6&#45;&#45;Camelia_d5 -->
<g id="edge17" class="edge">
<title>Camelia_d6&#45;&#45;Camelia_d5</title>
<path fill="none" stroke="black" d="M163.21,-792.41C153.97,-781.25 141.83,-766.6 132.6,-755.47"/>
</g>
<!-- Castanheiro_India -->
<g id="node22" class="node">
<title>Castanheiro_India</title>
<ellipse fill="none" stroke="black" cx="516.96" cy="-306" rx="78.48" ry="18"/>
<text text-anchor="middle" x="516.96" y="-300.95" font-family="Times,serif" font-size="14.00">Castanheiro_India</text>
</g>
<!-- Castanheiro_India&#45;&#45;Camelia_e6 -->
<g id="edge19" class="edge">
<title>Castanheiro_India&#45;&#45;Camelia_e6</title>
<path fill="none" stroke="black" d="M492.57,-288.59C475.52,-277.11 452.89,-261.88 436.12,-250.59"/>
</g>
<!-- Olaia -->
<g id="node23" class="node">
<title>Olaia</title>
<ellipse fill="none" stroke="black" cx="516.96" cy="-234" rx="30.88" ry="18"/>
<text text-anchor="middle" x="516.96" y="-228.95" font-family="Times,serif" font-size="14.00">Olaia</text>
</g>
<!-- Castanheiro_India&#45;&#45;Olaia -->
<g id="edge23" class="edge">
<title>Castanheiro_India&#45;&#45;Olaia</title>
<path fill="none" stroke="black" d="M516.96,-287.7C516.96,-276.85 516.96,-262.92 516.96,-252.1"/>
</g>
<!-- Olaia&#45;&#45;Liquidanbar -->
<g id="edge20" class="edge">
<title>Olaia&#45;&#45;Liquidanbar</title>
<path fill="none" stroke="black" d="M516.96,-215.7C516.96,-204.85 516.96,-190.92 516.96,-180.1"/>
</g>
<!-- Camelia_e7 -->
<g id="node24" class="node">
<title>Camelia_e7</title>
<ellipse fill="none" stroke="black" cx="645.96" cy="-234" rx="55.45" ry="18"/>
<text text-anchor="middle" x="645.96" y="-228.95" font-family="Times,serif" font-size="14.00">Camelia_e7</text>
</g>
<!-- Camelia_e7&#45;&#45;Camelia_e8 -->
<g id="edge21" class="edge">
<title>Camelia_e7&#45;&#45;Camelia_e8</title>
<path fill="none" stroke="black" d="M645.96,-215.7C645.96,-204.85 645.96,-190.92 645.96,-180.1"/>
</g>
<!-- Magnolia -->
<g id="node25" class="node">
<title>Magnolia</title>
<ellipse fill="none" stroke="black" cx="176.96" cy="-882" rx="46.75" ry="18"/>
<text text-anchor="middle" x="176.96" y="-876.95" font-family="Times,serif" font-size="14.00">Magnolia</text>
</g>
<!-- Magnolia&#45;&#45;Camelia_d6 -->
<g id="edge22" class="edge">
<title>Magnolia&#45;&#45;Camelia_d6</title>
<path fill="none" stroke="black" d="M176.96,-863.7C176.96,-852.85 176.96,-838.92 176.96,-828.1"/>
</g>
</g>
</svg>
