<?xml version="1.0" encoding="UTF-8" standalone="no"?>
<!DOCTYPE svg PUBLIC "-//W3C//DTD SVG 1.1//EN"
 "http://www.w3.org/Graphics/SVG/1.1/DTD/svg11.dtd">
<!-- Generated by graphviz version 10.0.1 (20240210.2158)
 -->
<!-- Title: US13_JardimDosSentimentosGRAPH Pages: 1 -->
<svg width="420pt" height="908pt"
 viewBox="0.00 0.00 419.92 908.00" xmlns="http://www.w3.org/2000/svg" xmlns:xlink="http://www.w3.org/1999/xlink">
<g id="graph0" class="graph" transform="scale(1 1) rotate(0) translate(4 904)">
<title>US13_JardimDosSentimentosGRAPH</title>
<polygon fill="white" stroke="none" points="-4,4 -4,-904 415.92,-904 415.92,4 -4,4"/>
<!-- 22 -->
<g id="node1" class="node">
<title>22</title>
<ellipse fill="none" stroke="black" cx="170.92" cy="-882" rx="27" ry="18"/>
<text text-anchor="middle" x="170.92" y="-876.95" font-family="Times,serif" font-size="14.00">22</text>
</g>
<!-- 23 -->
<g id="node2" class="node">
<title>23</title>
<ellipse fill="none" stroke="black" cx="56.92" cy="-810" rx="27" ry="18"/>
<text text-anchor="middle" x="56.92" y="-804.95" font-family="Times,serif" font-size="14.00">23</text>
</g>
<!-- 22&#45;&#45;23 -->
<g id="edge1" class="edge">
<title>22&#45;&#45;23</title>
<path fill="none" stroke="black" d="M151.58,-869.13C130.62,-856.25 97.36,-835.83 76.36,-822.93"/>
</g>
<!-- 3 -->
<g id="node7" class="node">
<title>3</title>
<ellipse fill="none" stroke="black" cx="170.92" cy="-738" rx="27" ry="18"/>
<text text-anchor="middle" x="170.92" y="-732.95" font-family="Times,serif" font-size="14.00">3</text>
</g>
<!-- 22&#45;&#45;3 -->
<g id="edge11" class="edge">
<title>22&#45;&#45;3</title>
<path fill="none" stroke="black" d="M170.92,-863.59C170.92,-836.19 170.92,-783.32 170.92,-756.11"/>
</g>
<!-- 23&#45;&#45;3 -->
<g id="edge4" class="edge">
<title>23&#45;&#45;3</title>
<path fill="none" stroke="black" d="M76.26,-797.13C97.22,-784.25 130.49,-763.83 151.49,-750.93"/>
</g>
<!-- 4 -->
<g id="node12" class="node">
<title>4</title>
<ellipse fill="none" stroke="black" cx="115.92" cy="-522" rx="27" ry="18"/>
<text text-anchor="middle" x="115.92" y="-516.95" font-family="Times,serif" font-size="14.00">4</text>
</g>
<!-- 23&#45;&#45;4 -->
<g id="edge12" class="edge">
<title>23&#45;&#45;4</title>
<path fill="none" stroke="black" d="M58.83,-791.83C63.38,-752.94 76.05,-655.39 96.92,-576 100.2,-563.52 105.15,-549.82 109.18,-539.48"/>
</g>
<!-- 10 -->
<g id="node3" class="node">
<title>10</title>
<ellipse fill="none" stroke="black" cx="318.92" cy="-234" rx="27" ry="18"/>
<text text-anchor="middle" x="318.92" y="-228.95" font-family="Times,serif" font-size="14.00">10</text>
</g>
<!-- 11 -->
<g id="node4" class="node">
<title>11</title>
<ellipse fill="none" stroke="black" cx="318.92" cy="-162" rx="27" ry="18"/>
<text text-anchor="middle" x="318.92" y="-156.95" font-family="Times,serif" font-size="14.00">11</text>
</g>
<!-- 10&#45;&#45;11 -->
<g id="edge2" class="edge">
<title>10&#45;&#45;11</title>
<path fill="none" stroke="black" d="M318.92,-215.7C318.92,-204.85 318.92,-190.92 318.92,-180.1"/>
</g>
<!-- 18 -->
<g id="node5" class="node">
<title>18</title>
<ellipse fill="none" stroke="black" cx="77.92" cy="-234" rx="27" ry="18"/>
<text text-anchor="middle" x="77.92" y="-228.95" font-family="Times,serif" font-size="14.00">18</text>
</g>
<!-- 19 -->
<g id="node6" class="node">
<title>19</title>
<ellipse fill="none" stroke="black" cx="132.92" cy="-162" rx="27" ry="18"/>
<text text-anchor="middle" x="132.92" y="-156.95" font-family="Times,serif" font-size="14.00">19</text>
</g>
<!-- 18&#45;&#45;19 -->
<g id="edge3" class="edge">
<title>18&#45;&#45;19</title>
<path fill="none" stroke="black" d="M90.13,-217.46C99.24,-205.86 111.64,-190.08 120.75,-178.49"/>
</g>
<!-- 21 -->
<g id="node10" class="node">
<title>21</title>
<ellipse fill="none" stroke="black" cx="77.92" cy="-90" rx="27" ry="18"/>
<text text-anchor="middle" x="77.92" y="-84.95" font-family="Times,serif" font-size="14.00">21</text>
</g>
<!-- 18&#45;&#45;21 -->
<g id="edge23" class="edge">
<title>18&#45;&#45;21</title>
<path fill="none" stroke="black" d="M77.92,-215.59C77.92,-188.19 77.92,-135.32 77.92,-108.11"/>
</g>
<!-- 20 -->
<g id="node11" class="node">
<title>20</title>
<ellipse fill="none" stroke="black" cx="77.92" cy="-18" rx="27" ry="18"/>
<text text-anchor="middle" x="77.92" y="-12.95" font-family="Times,serif" font-size="14.00">20</text>
</g>
<!-- 18&#45;&#45;20 -->
<g id="edge16" class="edge">
<title>18&#45;&#45;20</title>
<path fill="none" stroke="black" d="M68.79,-216.79C53.51,-187.51 25.93,-124.02 41.92,-72 46.3,-57.75 55.96,-43.9 64.17,-33.93"/>
</g>
<!-- 19&#45;&#45;21 -->
<g id="edge21" class="edge">
<title>19&#45;&#45;21</title>
<path fill="none" stroke="black" d="M120.72,-145.46C111.6,-133.86 99.2,-118.08 90.1,-106.49"/>
</g>
<!-- 19&#45;&#45;20 -->
<g id="edge20" class="edge">
<title>19&#45;&#45;20</title>
<path fill="none" stroke="black" d="M131.23,-143.67C128.97,-125.29 124.03,-95.69 113.92,-72 108.07,-58.29 98.48,-44.41 90.67,-34.3"/>
</g>
<!-- 5 -->
<g id="node8" class="node">
<title>5</title>
<ellipse fill="none" stroke="black" cx="170.92" cy="-666" rx="27" ry="18"/>
<text text-anchor="middle" x="170.92" y="-660.95" font-family="Times,serif" font-size="14.00">5</text>
</g>
<!-- 3&#45;&#45;5 -->
<g id="edge28" class="edge">
<title>3&#45;&#45;5</title>
<path fill="none" stroke="black" d="M170.92,-719.7C170.92,-708.85 170.92,-694.92 170.92,-684.1"/>
</g>
<!-- 3&#45;&#45;4 -->
<g id="edge17" class="edge">
<title>3&#45;&#45;4</title>
<path fill="none" stroke="black" d="M184.67,-722.07C192.88,-712.1 202.54,-698.25 206.92,-684 211.63,-668.71 209.19,-663.84 206.92,-648 202.21,-615 204.83,-603.45 185.92,-576 173.3,-557.67 152.3,-543.01 136.6,-533.8"/>
</g>
<!-- 6 -->
<g id="node9" class="node">
<title>6</title>
<ellipse fill="none" stroke="black" cx="132.92" cy="-594" rx="27" ry="18"/>
<text text-anchor="middle" x="132.92" y="-588.95" font-family="Times,serif" font-size="14.00">6</text>
</g>
<!-- 5&#45;&#45;6 -->
<g id="edge5" class="edge">
<title>5&#45;&#45;6</title>
<path fill="none" stroke="black" d="M162.11,-648.76C155.97,-637.46 147.82,-622.44 141.69,-611.15"/>
</g>
<!-- 6&#45;&#45;4 -->
<g id="edge18" class="edge">
<title>6&#45;&#45;4</title>
<path fill="none" stroke="black" d="M128.81,-576.05C126.17,-565.21 122.77,-551.18 120.12,-540.28"/>
</g>
<!-- 21&#45;&#45;22 -->
<g id="edge32" class="edge">
<title>21&#45;&#45;22</title>
<path fill="none" stroke="black" d="M70.62,-107.55C55.66,-143 22.92,-229.24 22.92,-305 22.92,-451 22.92,-451 22.92,-451 22.92,-546.57 1.92,-569.43 1.92,-665 1.92,-739 1.92,-739 1.92,-739 1.92,-779.45 -5.77,-797.61 20.92,-828 52.46,-863.9 109.87,-875.48 143.79,-879.22"/>
</g>
<!-- 21&#45;&#45;20 -->
<g id="edge6" class="edge">
<title>21&#45;&#45;20</title>
<path fill="none" stroke="black" d="M77.92,-71.7C77.92,-60.85 77.92,-46.92 77.92,-36.1"/>
</g>
<!-- 20&#45;&#45;22 -->
<g id="edge26" class="edge">
<title>20&#45;&#45;22</title>
<path fill="none" stroke="black" d="M105.26,-18.3C185.02,-17.79 411.92,-28.05 411.92,-161 411.92,-739 411.92,-739 411.92,-739 411.92,-837.58 260.38,-869.11 197.64,-877.94"/>
</g>
<!-- 20&#45;&#45;23 -->
<g id="edge27" class="edge">
<title>20&#45;&#45;23</title>
<path fill="none" stroke="black" d="M62.48,-33.28C52.73,-43.2 40.74,-57.23 33.92,-72 6.7,-130.98 14.5,-151.28 8.92,-216 -10.72,-443.94 39.56,-721.37 53.47,-792.01"/>
</g>
<!-- 4&#45;&#45;5 -->
<g id="edge7" class="edge">
<title>4&#45;&#45;5</title>
<path fill="none" stroke="black" d="M134.3,-535.47C146.58,-544.97 161.76,-559.25 168.92,-576 178.89,-599.31 176.9,-629.28 174.19,-647.81"/>
</g>
<!-- 7 -->
<g id="node19" class="node">
<title>7</title>
<ellipse fill="none" stroke="black" cx="115.92" cy="-450" rx="27" ry="18"/>
<text text-anchor="middle" x="115.92" y="-444.95" font-family="Times,serif" font-size="14.00">7</text>
</g>
<!-- 4&#45;&#45;7 -->
<g id="edge39" class="edge">
<title>4&#45;&#45;7</title>
<path fill="none" stroke="black" d="M115.92,-503.7C115.92,-492.85 115.92,-478.92 115.92,-468.1"/>
</g>
<!-- 8 -->
<g id="node13" class="node">
<title>8</title>
<ellipse fill="none" stroke="black" cx="170.92" cy="-378" rx="27" ry="18"/>
<text text-anchor="middle" x="170.92" y="-372.95" font-family="Times,serif" font-size="14.00">8</text>
</g>
<!-- 9 -->
<g id="node14" class="node">
<title>9</title>
<ellipse fill="none" stroke="black" cx="170.92" cy="-306" rx="27" ry="18"/>
<text text-anchor="middle" x="170.92" y="-300.95" font-family="Times,serif" font-size="14.00">9</text>
</g>
<!-- 8&#45;&#45;9 -->
<g id="edge8" class="edge">
<title>8&#45;&#45;9</title>
<path fill="none" stroke="black" d="M170.92,-359.7C170.92,-348.85 170.92,-334.92 170.92,-324.1"/>
</g>
<!-- 17 -->
<g id="node18" class="node">
<title>17</title>
<ellipse fill="none" stroke="black" cx="242.92" cy="-306" rx="27" ry="18"/>
<text text-anchor="middle" x="242.92" y="-300.95" font-family="Times,serif" font-size="14.00">17</text>
</g>
<!-- 8&#45;&#45;17 -->
<g id="edge33" class="edge">
<title>8&#45;&#45;17</title>
<path fill="none" stroke="black" d="M185.84,-362.5C198.2,-350.48 215.67,-333.49 228.02,-321.49"/>
</g>
<!-- 9&#45;&#45;10 -->
<g id="edge34" class="edge">
<title>9&#45;&#45;10</title>
<path fill="none" stroke="black" d="M192.44,-294.82C220.5,-281.55 269.3,-258.47 297.38,-245.19"/>
</g>
<!-- 9&#45;&#45;11 -->
<g id="edge36" class="edge">
<title>9&#45;&#45;11</title>
<path fill="none" stroke="black" d="M185.93,-290.6C214.3,-263.39 275.48,-204.68 303.88,-177.44"/>
</g>
<!-- 14 -->
<g id="node15" class="node">
<title>14</title>
<ellipse fill="none" stroke="black" cx="225.92" cy="-522" rx="27" ry="18"/>
<text text-anchor="middle" x="225.92" y="-516.95" font-family="Times,serif" font-size="14.00">14</text>
</g>
<!-- 16 -->
<g id="node16" class="node">
<title>16</title>
<ellipse fill="none" stroke="black" cx="242.92" cy="-378" rx="27" ry="18"/>
<text text-anchor="middle" x="242.92" y="-372.95" font-family="Times,serif" font-size="14.00">16</text>
</g>
<!-- 14&#45;&#45;16 -->
<g id="edge9" class="edge">
<title>14&#45;&#45;16</title>
<path fill="none" stroke="black" d="M228.01,-503.59C231.29,-476.19 237.62,-423.32 240.87,-396.11"/>
</g>
<!-- 15 -->
<g id="node17" class="node">
<title>15</title>
<ellipse fill="none" stroke="black" cx="280.92" cy="-450" rx="27" ry="18"/>
<text text-anchor="middle" x="280.92" y="-444.95" font-family="Times,serif" font-size="14.00">15</text>
</g>
<!-- 14&#45;&#45;15 -->
<g id="edge13" class="edge">
<title>14&#45;&#45;15</title>
<path fill="none" stroke="black" d="M238.13,-505.46C247.24,-493.86 259.64,-478.08 268.75,-466.49"/>
</g>
<!-- 16&#45;&#45;17 -->
<g id="edge22" class="edge">
<title>16&#45;&#45;17</title>
<path fill="none" stroke="black" d="M242.92,-359.7C242.92,-348.85 242.92,-334.92 242.92,-324.1"/>
</g>
<!-- 15&#45;&#45;16 -->
<g id="edge10" class="edge">
<title>15&#45;&#45;16</title>
<path fill="none" stroke="black" d="M272.11,-432.76C265.97,-421.46 257.82,-406.44 251.69,-395.15"/>
</g>
<!-- 15&#45;&#45;17 -->
<g id="edge25" class="edge">
<title>15&#45;&#45;17</title>
<path fill="none" stroke="black" d="M283.36,-431.8C285.31,-413.52 286.6,-383.99 278.92,-360 274.38,-345.8 264.73,-331.95 256.56,-321.97"/>
</g>
<!-- 17&#45;&#45;18 -->
<g id="edge14" class="edge">
<title>17&#45;&#45;18</title>
<path fill="none" stroke="black" d="M221.3,-294.57C216.58,-292.36 211.6,-290.06 206.92,-288 170.15,-271.78 126.83,-254.31 100.91,-244.03"/>
</g>
<!-- 17&#45;&#45;19 -->
<g id="edge15" class="edge">
<title>17&#45;&#45;19</title>
<path fill="none" stroke="black" d="M230.94,-289.53C209.78,-262.22 166.04,-205.75 144.89,-178.45"/>
</g>
<!-- 7&#45;&#45;18 -->
<g id="edge31" class="edge">
<title>7&#45;&#45;18</title>
<path fill="none" stroke="black" d="M112.88,-431.85C105.76,-391.78 88.11,-292.38 80.98,-252.23"/>
</g>
<!-- 7&#45;&#45;8 -->
<g id="edge19" class="edge">
<title>7&#45;&#45;8</title>
<path fill="none" stroke="black" d="M128.13,-433.46C137.24,-421.86 149.64,-406.08 158.75,-394.49"/>
</g>
<!-- 7&#45;&#45;9 -->
<g id="edge29" class="edge">
<title>7&#45;&#45;9</title>
<path fill="none" stroke="black" d="M117.62,-431.67C119.87,-413.29 124.81,-383.69 134.92,-360 140.78,-346.29 150.36,-332.41 158.18,-322.3"/>
</g>
<!-- 13 -->
<g id="node20" class="node">
<title>13</title>
<ellipse fill="none" stroke="black" cx="280.92" cy="-594" rx="27" ry="18"/>
<text text-anchor="middle" x="280.92" y="-588.95" font-family="Times,serif" font-size="14.00">13</text>
</g>
<!-- 13&#45;&#45;14 -->
<g id="edge24" class="edge">
<title>13&#45;&#45;14</title>
<path fill="none" stroke="black" d="M268.72,-577.46C259.6,-565.86 247.2,-550.08 238.1,-538.49"/>
</g>
<!-- 13&#45;&#45;15 -->
<g id="edge38" class="edge">
<title>13&#45;&#45;15</title>
<path fill="none" stroke="black" d="M280.92,-575.59C280.92,-548.19 280.92,-495.32 280.92,-468.11"/>
</g>
<!-- 12 -->
<g id="node21" class="node">
<title>12</title>
<ellipse fill="none" stroke="black" cx="335.92" cy="-666" rx="27" ry="18"/>
<text text-anchor="middle" x="335.92" y="-660.95" font-family="Times,serif" font-size="14.00">12</text>
</g>
<!-- 12&#45;&#45;10 -->
<g id="edge37" class="edge">
<title>12&#45;&#45;10</title>
<path fill="none" stroke="black" d="M335.92,-647.51C335.92,-620.71 335.92,-567.87 335.92,-523 335.92,-523 335.92,-523 335.92,-377 335.92,-331.56 327.24,-278.52 322.28,-251.97"/>
</g>
<!-- 12&#45;&#45;11 -->
<g id="edge35" class="edge">
<title>12&#45;&#45;11</title>
<path fill="none" stroke="black" d="M343.43,-648.34C354.51,-622.2 373.92,-569.7 373.92,-523 373.92,-523 373.92,-523 373.92,-305 373.92,-264.55 370.8,-253.2 354.92,-216 349.07,-202.29 339.48,-188.41 331.67,-178.3"/>
</g>
<!-- 12&#45;&#45;13 -->
<g id="edge30" class="edge">
<title>12&#45;&#45;13</title>
<path fill="none" stroke="black" d="M323.72,-649.46C314.6,-637.86 302.2,-622.08 293.1,-610.49"/>
</g>
</g>
</svg>
