<?xml version="1.0" encoding="UTF-8" standalone="no"?>
<!DOCTYPE svg PUBLIC "-//W3C//DTD SVG 1.1//EN"
 "http://www.w3.org/Graphics/SVG/1.1/DTD/svg11.dtd">
<!-- Generated by graphviz version 10.0.1 (20240210.2158)
 -->
<!-- Title: US13_JardimDosSentimentosMST Pages: 1 -->
<svg width="242pt" height="836pt"
 viewBox="0.00 0.00 242.00 836.00" xmlns="http://www.w3.org/2000/svg" xmlns:xlink="http://www.w3.org/1999/xlink">
<g id="graph0" class="graph" transform="scale(1 1) rotate(0) translate(4 832)">
<title>US13_JardimDosSentimentosMST</title>
<polygon fill="white" stroke="none" points="-4,4 -4,-832 238,-832 238,4 -4,4"/>
<!-- 22 -->
<g id="node1" class="node">
<title>22</title>
<ellipse fill="none" stroke="black" cx="99" cy="-306" rx="27" ry="18"/>
<text text-anchor="middle" x="99" y="-300.95" font-family="Times,serif" font-size="14.00">22</text>
</g>
<!-- 23 -->
<g id="node2" class="node">
<title>23</title>
<ellipse fill="none" stroke="black" cx="99" cy="-234" rx="27" ry="18"/>
<text text-anchor="middle" x="99" y="-228.95" font-family="Times,serif" font-size="14.00">23</text>
</g>
<!-- 22&#45;&#45;23 -->
<g id="edge1" class="edge">
<title>22&#45;&#45;23</title>
<path fill="none" stroke="black" d="M99,-287.7C99,-276.85 99,-262.92 99,-252.1"/>
</g>
<!-- 3 -->
<g id="node7" class="node">
<title>3</title>
<ellipse fill="none" stroke="black" cx="27" cy="-162" rx="27" ry="18"/>
<text text-anchor="middle" x="27" y="-156.95" font-family="Times,serif" font-size="14.00">3</text>
</g>
<!-- 23&#45;&#45;3 -->
<g id="edge4" class="edge">
<title>23&#45;&#45;3</title>
<path fill="none" stroke="black" d="M84.08,-218.5C71.72,-206.48 54.25,-189.49 41.9,-177.49"/>
</g>
<!-- 4 -->
<g id="node12" class="node">
<title>4</title>
<ellipse fill="none" stroke="black" cx="99" cy="-162" rx="27" ry="18"/>
<text text-anchor="middle" x="99" y="-156.95" font-family="Times,serif" font-size="14.00">4</text>
</g>
<!-- 23&#45;&#45;4 -->
<g id="edge11" class="edge">
<title>23&#45;&#45;4</title>
<path fill="none" stroke="black" d="M99,-215.7C99,-204.85 99,-190.92 99,-180.1"/>
</g>
<!-- 10 -->
<g id="node3" class="node">
<title>10</title>
<ellipse fill="none" stroke="black" cx="207" cy="-306" rx="27" ry="18"/>
<text text-anchor="middle" x="207" y="-300.95" font-family="Times,serif" font-size="14.00">10</text>
</g>
<!-- 11 -->
<g id="node4" class="node">
<title>11</title>
<ellipse fill="none" stroke="black" cx="207" cy="-234" rx="27" ry="18"/>
<text text-anchor="middle" x="207" y="-228.95" font-family="Times,serif" font-size="14.00">11</text>
</g>
<!-- 10&#45;&#45;11 -->
<g id="edge2" class="edge">
<title>10&#45;&#45;11</title>
<path fill="none" stroke="black" d="M207,-287.7C207,-276.85 207,-262.92 207,-252.1"/>
</g>
<!-- 18 -->
<g id="node5" class="node">
<title>18</title>
<ellipse fill="none" stroke="black" cx="63" cy="-450" rx="27" ry="18"/>
<text text-anchor="middle" x="63" y="-444.95" font-family="Times,serif" font-size="14.00">18</text>
</g>
<!-- 19 -->
<g id="node6" class="node">
<title>19</title>
<ellipse fill="none" stroke="black" cx="27" cy="-378" rx="27" ry="18"/>
<text text-anchor="middle" x="27" y="-372.95" font-family="Times,serif" font-size="14.00">19</text>
</g>
<!-- 18&#45;&#45;19 -->
<g id="edge3" class="edge">
<title>18&#45;&#45;19</title>
<path fill="none" stroke="black" d="M54.65,-432.76C48.83,-421.46 41.11,-406.44 35.3,-395.15"/>
</g>
<!-- 20 -->
<g id="node11" class="node">
<title>20</title>
<ellipse fill="none" stroke="black" cx="99" cy="-378" rx="27" ry="18"/>
<text text-anchor="middle" x="99" y="-372.95" font-family="Times,serif" font-size="14.00">20</text>
</g>
<!-- 18&#45;&#45;20 -->
<g id="edge13" class="edge">
<title>18&#45;&#45;20</title>
<path fill="none" stroke="black" d="M71.35,-432.76C77.17,-421.46 84.89,-406.44 90.7,-395.15"/>
</g>
<!-- 5 -->
<g id="node8" class="node">
<title>5</title>
<ellipse fill="none" stroke="black" cx="99" cy="-90" rx="27" ry="18"/>
<text text-anchor="middle" x="99" y="-84.95" font-family="Times,serif" font-size="14.00">5</text>
</g>
<!-- 6 -->
<g id="node9" class="node">
<title>6</title>
<ellipse fill="none" stroke="black" cx="99" cy="-18" rx="27" ry="18"/>
<text text-anchor="middle" x="99" y="-12.95" font-family="Times,serif" font-size="14.00">6</text>
</g>
<!-- 5&#45;&#45;6 -->
<g id="edge5" class="edge">
<title>5&#45;&#45;6</title>
<path fill="none" stroke="black" d="M99,-71.7C99,-60.85 99,-46.92 99,-36.1"/>
</g>
<!-- 21 -->
<g id="node10" class="node">
<title>21</title>
<ellipse fill="none" stroke="black" cx="135" cy="-450" rx="27" ry="18"/>
<text text-anchor="middle" x="135" y="-444.95" font-family="Times,serif" font-size="14.00">21</text>
</g>
<!-- 21&#45;&#45;20 -->
<g id="edge6" class="edge">
<title>21&#45;&#45;20</title>
<path fill="none" stroke="black" d="M126.65,-432.76C120.83,-421.46 113.11,-406.44 107.3,-395.15"/>
</g>
<!-- 20&#45;&#45;22 -->
<g id="edge17" class="edge">
<title>20&#45;&#45;22</title>
<path fill="none" stroke="black" d="M99,-359.7C99,-348.85 99,-334.92 99,-324.1"/>
</g>
<!-- 4&#45;&#45;5 -->
<g id="edge7" class="edge">
<title>4&#45;&#45;5</title>
<path fill="none" stroke="black" d="M99,-143.7C99,-132.85 99,-118.92 99,-108.1"/>
</g>
<!-- 8 -->
<g id="node13" class="node">
<title>8</title>
<ellipse fill="none" stroke="black" cx="207" cy="-450" rx="27" ry="18"/>
<text text-anchor="middle" x="207" y="-444.95" font-family="Times,serif" font-size="14.00">8</text>
</g>
<!-- 9 -->
<g id="node14" class="node">
<title>9</title>
<ellipse fill="none" stroke="black" cx="207" cy="-378" rx="27" ry="18"/>
<text text-anchor="middle" x="207" y="-372.95" font-family="Times,serif" font-size="14.00">9</text>
</g>
<!-- 8&#45;&#45;9 -->
<g id="edge8" class="edge">
<title>8&#45;&#45;9</title>
<path fill="none" stroke="black" d="M207,-431.7C207,-420.85 207,-406.92 207,-396.1"/>
</g>
<!-- 9&#45;&#45;10 -->
<g id="edge20" class="edge">
<title>9&#45;&#45;10</title>
<path fill="none" stroke="black" d="M207,-359.7C207,-348.85 207,-334.92 207,-324.1"/>
</g>
<!-- 14 -->
<g id="node15" class="node">
<title>14</title>
<ellipse fill="none" stroke="black" cx="27" cy="-666" rx="27" ry="18"/>
<text text-anchor="middle" x="27" y="-660.95" font-family="Times,serif" font-size="14.00">14</text>
</g>
<!-- 16 -->
<g id="node16" class="node">
<title>16</title>
<ellipse fill="none" stroke="black" cx="63" cy="-594" rx="27" ry="18"/>
<text text-anchor="middle" x="63" y="-588.95" font-family="Times,serif" font-size="14.00">16</text>
</g>
<!-- 14&#45;&#45;16 -->
<g id="edge9" class="edge">
<title>14&#45;&#45;16</title>
<path fill="none" stroke="black" d="M35.35,-648.76C41.17,-637.46 48.89,-622.44 54.7,-611.15"/>
</g>
<!-- 17 -->
<g id="node18" class="node">
<title>17</title>
<ellipse fill="none" stroke="black" cx="63" cy="-522" rx="27" ry="18"/>
<text text-anchor="middle" x="63" y="-516.95" font-family="Times,serif" font-size="14.00">17</text>
</g>
<!-- 16&#45;&#45;17 -->
<g id="edge15" class="edge">
<title>16&#45;&#45;17</title>
<path fill="none" stroke="black" d="M63,-575.7C63,-564.85 63,-550.92 63,-540.1"/>
</g>
<!-- 15 -->
<g id="node17" class="node">
<title>15</title>
<ellipse fill="none" stroke="black" cx="99" cy="-666" rx="27" ry="18"/>
<text text-anchor="middle" x="99" y="-660.95" font-family="Times,serif" font-size="14.00">15</text>
</g>
<!-- 15&#45;&#45;16 -->
<g id="edge10" class="edge">
<title>15&#45;&#45;16</title>
<path fill="none" stroke="black" d="M90.65,-648.76C84.83,-637.46 77.11,-622.44 71.3,-611.15"/>
</g>
<!-- 17&#45;&#45;18 -->
<g id="edge12" class="edge">
<title>17&#45;&#45;18</title>
<path fill="none" stroke="black" d="M63,-503.7C63,-492.85 63,-478.92 63,-468.1"/>
</g>
<!-- 7 -->
<g id="node19" class="node">
<title>7</title>
<ellipse fill="none" stroke="black" cx="135" cy="-522" rx="27" ry="18"/>
<text text-anchor="middle" x="135" y="-516.95" font-family="Times,serif" font-size="14.00">7</text>
</g>
<!-- 7&#45;&#45;18 -->
<g id="edge19" class="edge">
<title>7&#45;&#45;18</title>
<path fill="none" stroke="black" d="M120.08,-506.5C107.72,-494.48 90.25,-477.49 77.9,-465.49"/>
</g>
<!-- 7&#45;&#45;8 -->
<g id="edge14" class="edge">
<title>7&#45;&#45;8</title>
<path fill="none" stroke="black" d="M149.92,-506.5C162.28,-494.48 179.75,-477.49 192.1,-465.49"/>
</g>
<!-- 13 -->
<g id="node20" class="node">
<title>13</title>
<ellipse fill="none" stroke="black" cx="27" cy="-738" rx="27" ry="18"/>
<text text-anchor="middle" x="27" y="-732.95" font-family="Times,serif" font-size="14.00">13</text>
</g>
<!-- 13&#45;&#45;14 -->
<g id="edge16" class="edge">
<title>13&#45;&#45;14</title>
<path fill="none" stroke="black" d="M27,-719.7C27,-708.85 27,-694.92 27,-684.1"/>
</g>
<!-- 12 -->
<g id="node21" class="node">
<title>12</title>
<ellipse fill="none" stroke="black" cx="27" cy="-810" rx="27" ry="18"/>
<text text-anchor="middle" x="27" y="-804.95" font-family="Times,serif" font-size="14.00">12</text>
</g>
<!-- 12&#45;&#45;13 -->
<g id="edge18" class="edge">
<title>12&#45;&#45;13</title>
<path fill="none" stroke="black" d="M27,-791.7C27,-780.85 27,-766.92 27,-756.1"/>
</g>
</g>
</svg>
