<?xml version="1.0" encoding="UTF-8" standalone="no"?>
<!DOCTYPE svg PUBLIC "-//W3C//DTD SVG 1.1//EN"
 "http://www.w3.org/Graphics/SVG/1.1/DTD/svg11.dtd">
<!-- Generated by graphviz version 10.0.1 (20240210.2158)
 -->
<!-- Title: US13_JardimEspeciesNucleoRuralGRAPH Pages: 1 -->
<svg width="806pt" height="1124pt"
 viewBox="0.00 0.00 806.19 1124.00" xmlns="http://www.w3.org/2000/svg" xmlns:xlink="http://www.w3.org/1999/xlink">
<g id="graph0" class="graph" transform="scale(1 1) rotate(0) translate(4 1120)">
<title>US13_JardimEspeciesNucleoRuralGRAPH</title>
<polygon fill="white" stroke="none" points="-4,4 -4,-1120 802.19,-1120 802.19,4 -4,4"/>
<!-- Tilia -->
<g id="node1" class="node">
<title>Tilia</title>
<ellipse fill="none" stroke="black" cx="221.45" cy="-1026" rx="28.32" ry="18"/>
<text text-anchor="middle" x="221.45" y="-1020.95" font-family="Times,serif" font-size="14.00">Tilia</text>
</g>
<!-- Camelia_e3 -->
<g id="node2" class="node">
<title>Camelia_e3</title>
<ellipse fill="none" stroke="black" cx="176.45" cy="-882" rx="55.45" ry="18"/>
<text text-anchor="middle" x="176.45" y="-876.95" font-family="Times,serif" font-size="14.00">Camelia_e3</text>
</g>
<!-- Tilia&#45;&#45;Camelia_e3 -->
<g id="edge1" class="edge">
<title>Tilia&#45;&#45;Camelia_e3</title>
<path fill="none" stroke="black" d="M219.03,-1007.6C216.2,-989.4 210.82,-960.19 202.45,-936 198.16,-923.6 191.66,-910.35 186.23,-900.2"/>
</g>
<!-- Camelia_e2 -->
<g id="node7" class="node">
<title>Camelia_e2</title>
<ellipse fill="none" stroke="black" cx="138.45" cy="-954" rx="55.45" ry="18"/>
<text text-anchor="middle" x="138.45" y="-948.95" font-family="Times,serif" font-size="14.00">Camelia_e2</text>
</g>
<!-- Tilia&#45;&#45;Camelia_e2 -->
<g id="edge21" class="edge">
<title>Tilia&#45;&#45;Camelia_e2</title>
<path fill="none" stroke="black" d="M205.05,-1011.17C191.44,-999.7 172.07,-983.36 157.72,-971.26"/>
</g>
<!-- Camelia_e4 -->
<g id="node17" class="node">
<title>Camelia_e4</title>
<ellipse fill="none" stroke="black" cx="259.45" cy="-810" rx="55.45" ry="18"/>
<text text-anchor="middle" x="259.45" y="-804.95" font-family="Times,serif" font-size="14.00">Camelia_e4</text>
</g>
<!-- Tilia&#45;&#45;Camelia_e4 -->
<g id="edge22" class="edge">
<title>Tilia&#45;&#45;Camelia_e4</title>
<path fill="none" stroke="black" d="M224.49,-1007.85C231.61,-967.78 249.26,-868.38 256.39,-828.23"/>
</g>
<!-- Castanheiro_India -->
<g id="node22" class="node">
<title>Castanheiro_India</title>
<ellipse fill="none" stroke="black" cx="411.45" cy="-810" rx="78.48" ry="18"/>
<text text-anchor="middle" x="411.45" y="-804.95" font-family="Times,serif" font-size="14.00">Castanheiro_India</text>
</g>
<!-- Tilia&#45;&#45;Castanheiro_India -->
<g id="edge33" class="edge">
<title>Tilia&#45;&#45;Castanheiro_India</title>
<path fill="none" stroke="black" d="M234.81,-1009.95C269.1,-971.33 360.08,-868.86 396.28,-828.08"/>
</g>
<!-- Camelia_d3 -->
<g id="node8" class="node">
<title>Camelia_d3</title>
<ellipse fill="none" stroke="black" cx="177.45" cy="-162" rx="55.96" ry="18"/>
<text text-anchor="middle" x="177.45" y="-156.95" font-family="Times,serif" font-size="14.00">Camelia_d3</text>
</g>
<!-- Camelia_e3&#45;&#45;Camelia_d3 -->
<g id="edge38" class="edge">
<title>Camelia_e3&#45;&#45;Camelia_d3</title>
<path fill="none" stroke="black" d="M176.45,-863.51C176.45,-836.71 176.45,-783.87 176.45,-739 176.45,-739 176.45,-739 176.45,-305 176.45,-260.13 176.95,-207.29 177.24,-180.49"/>
</g>
<!-- Camelia_e3&#45;&#45;Camelia_e4 -->
<g id="edge15" class="edge">
<title>Camelia_e3&#45;&#45;Camelia_e4</title>
<path fill="none" stroke="black" d="M195.7,-864.76C209.11,-853.46 226.91,-838.44 240.3,-827.15"/>
</g>
<!-- Carvalho -->
<g id="node3" class="node">
<title>Carvalho</title>
<ellipse fill="none" stroke="black" cx="138.45" cy="-1098" rx="44.7" ry="18"/>
<text text-anchor="middle" x="138.45" y="-1092.95" font-family="Times,serif" font-size="14.00">Carvalho</text>
</g>
<!-- Carvalho&#45;&#45;Tilia -->
<g id="edge32" class="edge">
<title>Carvalho&#45;&#45;Tilia</title>
<path fill="none" stroke="black" d="M156.87,-1081.46C171.19,-1069.38 190.9,-1052.76 204.77,-1041.07"/>
</g>
<!-- Camelia_e1 -->
<g id="node4" class="node">
<title>Camelia_e1</title>
<ellipse fill="none" stroke="black" cx="55.45" cy="-1026" rx="55.45" ry="18"/>
<text text-anchor="middle" x="55.45" y="-1020.95" font-family="Times,serif" font-size="14.00">Camelia_e1</text>
</g>
<!-- Carvalho&#45;&#45;Camelia_e1 -->
<g id="edge2" class="edge">
<title>Carvalho&#45;&#45;Camelia_e1</title>
<path fill="none" stroke="black" d="M120.03,-1081.46C106.56,-1070.11 88.33,-1054.74 74.68,-1043.22"/>
</g>
<!-- Carvalho&#45;&#45;Camelia_e2 -->
<g id="edge11" class="edge">
<title>Carvalho&#45;&#45;Camelia_e2</title>
<path fill="none" stroke="black" d="M138.45,-1079.59C138.45,-1052.19 138.45,-999.32 138.45,-972.11"/>
</g>
<!-- Camelia_e1&#45;&#45;Camelia_e2 -->
<g id="edge4" class="edge">
<title>Camelia_e1&#45;&#45;Camelia_e2</title>
<path fill="none" stroke="black" d="M74.7,-1008.76C88.11,-997.46 105.91,-982.44 119.3,-971.15"/>
</g>
<!-- Camelia_d1 -->
<g id="node12" class="node">
<title>Camelia_d1</title>
<ellipse fill="none" stroke="black" cx="97.45" cy="-18" rx="55.96" ry="18"/>
<text text-anchor="middle" x="97.45" y="-12.95" font-family="Times,serif" font-size="14.00">Camelia_d1</text>
</g>
<!-- Camelia_e1&#45;&#45;Camelia_d1 -->
<g id="edge36" class="edge">
<title>Camelia_e1&#45;&#45;Camelia_d1</title>
<path fill="none" stroke="black" d="M55.45,-1007.51C55.45,-980.71 55.45,-927.87 55.45,-883 55.45,-883 55.45,-883 55.45,-161 55.45,-114.21 76.67,-62.18 88.95,-36.01"/>
</g>
<!-- Abrunheiro -->
<g id="node5" class="node">
<title>Abrunheiro</title>
<ellipse fill="none" stroke="black" cx="623.45" cy="-594" rx="53.4" ry="18"/>
<text text-anchor="middle" x="623.45" y="-588.95" font-family="Times,serif" font-size="14.00">Abrunheiro</text>
</g>
<!-- Ginkgo -->
<g id="node6" class="node">
<title>Ginkgo</title>
<ellipse fill="none" stroke="black" cx="609.45" cy="-522" rx="38.56" ry="18"/>
<text text-anchor="middle" x="609.45" y="-516.95" font-family="Times,serif" font-size="14.00">Ginkgo</text>
</g>
<!-- Abrunheiro&#45;&#45;Ginkgo -->
<g id="edge3" class="edge">
<title>Abrunheiro&#45;&#45;Ginkgo</title>
<path fill="none" stroke="black" d="M619.99,-575.7C617.82,-564.85 615.03,-550.92 612.87,-540.1"/>
</g>
<!-- Camelia_e9 -->
<g id="node14" class="node">
<title>Camelia_e9</title>
<ellipse fill="none" stroke="black" cx="497.45" cy="-522" rx="55.45" ry="18"/>
<text text-anchor="middle" x="497.45" y="-516.95" font-family="Times,serif" font-size="14.00">Camelia_e9</text>
</g>
<!-- Abrunheiro&#45;&#45;Camelia_e9 -->
<g id="edge13" class="edge">
<title>Abrunheiro&#45;&#45;Camelia_e9</title>
<path fill="none" stroke="black" d="M596.72,-578.15C575.49,-566.36 545.9,-549.92 524.56,-538.07"/>
</g>
<!-- Camelia_d7 -->
<g id="node20" class="node">
<title>Camelia_d7</title>
<ellipse fill="none" stroke="black" cx="598.45" cy="-450" rx="55.96" ry="18"/>
<text text-anchor="middle" x="598.45" y="-444.95" font-family="Times,serif" font-size="14.00">Camelia_d7</text>
</g>
<!-- Abrunheiro&#45;&#45;Camelia_d7 -->
<g id="edge48" class="edge">
<title>Abrunheiro&#45;&#45;Camelia_d7</title>
<path fill="none" stroke="black" d="M637.74,-576.38C651.43,-558.33 668.49,-528.77 657.45,-504 650.49,-488.41 636.43,-475.48 623.78,-466.3"/>
</g>
<!-- Ginkgo&#45;&#45;Camelia_d7 -->
<g id="edge46" class="edge">
<title>Ginkgo&#45;&#45;Camelia_d7</title>
<path fill="none" stroke="black" d="M606.73,-503.7C605.02,-492.85 602.83,-478.92 601.13,-468.1"/>
</g>
<!-- Camelia_e2&#45;&#45;Camelia_e3 -->
<g id="edge8" class="edge">
<title>Camelia_e2&#45;&#45;Camelia_e3</title>
<path fill="none" stroke="black" d="M147.64,-936.05C153.62,-925.05 161.37,-910.76 167.33,-899.79"/>
</g>
<!-- Camelia_d2 -->
<g id="node9" class="node">
<title>Camelia_d2</title>
<ellipse fill="none" stroke="black" cx="139.45" cy="-90" rx="55.96" ry="18"/>
<text text-anchor="middle" x="139.45" y="-84.95" font-family="Times,serif" font-size="14.00">Camelia_d2</text>
</g>
<!-- Camelia_e2&#45;&#45;Camelia_d2 -->
<g id="edge37" class="edge">
<title>Camelia_e2&#45;&#45;Camelia_d2</title>
<path fill="none" stroke="black" d="M128.66,-935.8C123.24,-925.65 116.74,-912.4 112.45,-900 99.22,-861.78 93.45,-851.45 93.45,-811 93.45,-811 93.45,-811 93.45,-233 93.45,-192.55 98.93,-182.12 112.45,-144 116.86,-131.54 123.61,-118.29 129.26,-108.16"/>
</g>
<!-- Camelia_d3&#45;&#45;Camelia_d2 -->
<g id="edge5" class="edge">
<title>Camelia_d3&#45;&#45;Camelia_d2</title>
<path fill="none" stroke="black" d="M168.25,-144.05C162.27,-133.05 154.52,-118.76 148.56,-107.79"/>
</g>
<!-- Camelia_d2&#45;&#45;Camelia_d1 -->
<g id="edge10" class="edge">
<title>Camelia_d2&#45;&#45;Camelia_d1</title>
<path fill="none" stroke="black" d="M129.28,-72.05C122.68,-61.05 114.1,-46.76 107.52,-35.79"/>
</g>
<!-- Liquidanbar -->
<g id="node10" class="node">
<title>Liquidanbar</title>
<ellipse fill="none" stroke="black" cx="543.45" cy="-666" rx="55.96" ry="18"/>
<text text-anchor="middle" x="543.45" y="-660.95" font-family="Times,serif" font-size="14.00">Liquidanbar</text>
</g>
<!-- Liquidanbar&#45;&#45;Abrunheiro -->
<g id="edge6" class="edge">
<title>Liquidanbar&#45;&#45;Abrunheiro</title>
<path fill="none" stroke="black" d="M562,-648.76C574.92,-637.46 592.09,-622.44 604.99,-611.15"/>
</g>
<!-- Liquidanbar&#45;&#45;Camelia_e9 -->
<g id="edge12" class="edge">
<title>Liquidanbar&#45;&#45;Camelia_e9</title>
<path fill="none" stroke="black" d="M540.78,-647.6C537.71,-629.41 531.97,-600.2 523.45,-576 519.02,-563.43 512.39,-549.96 506.93,-539.75"/>
</g>
<!-- Camelia_e8 -->
<g id="node19" class="node">
<title>Camelia_e8</title>
<ellipse fill="none" stroke="black" cx="459.45" cy="-594" rx="55.45" ry="18"/>
<text text-anchor="middle" x="459.45" y="-588.95" font-family="Times,serif" font-size="14.00">Camelia_e8</text>
</g>
<!-- Liquidanbar&#45;&#45;Camelia_e8 -->
<g id="edge30" class="edge">
<title>Liquidanbar&#45;&#45;Camelia_e8</title>
<path fill="none" stroke="black" d="M523.96,-648.76C510.39,-637.46 492.37,-622.44 478.82,-611.15"/>
</g>
<!-- Sobreiro -->
<g id="node11" class="node">
<title>Sobreiro</title>
<ellipse fill="none" stroke="black" cx="294.45" cy="-162" rx="42.65" ry="18"/>
<text text-anchor="middle" x="294.45" y="-156.95" font-family="Times,serif" font-size="14.00">Sobreiro</text>
</g>
<!-- Sobreiro&#45;&#45;Camelia_d2 -->
<g id="edge26" class="edge">
<title>Sobreiro&#45;&#45;Camelia_d2</title>
<path fill="none" stroke="black" d="M266.02,-148.16C239.1,-136 198.76,-117.79 170.89,-105.2"/>
</g>
<!-- Sobreiro&#45;&#45;Camelia_d1 -->
<g id="edge7" class="edge">
<title>Sobreiro&#45;&#45;Camelia_d1</title>
<path fill="none" stroke="black" d="M280.8,-144.62C264.21,-125.45 234.67,-93.57 204.45,-72 181.84,-55.86 153.58,-42.1 131.78,-32.64"/>
</g>
<!-- Camelia_d4 -->
<g id="node13" class="node">
<title>Camelia_d4</title>
<ellipse fill="none" stroke="black" cx="293.45" cy="-234" rx="55.96" ry="18"/>
<text text-anchor="middle" x="293.45" y="-228.95" font-family="Times,serif" font-size="14.00">Camelia_d4</text>
</g>
<!-- Camelia_d4&#45;&#45;Camelia_d3 -->
<g id="edge9" class="edge">
<title>Camelia_d4&#45;&#45;Camelia_d3</title>
<path fill="none" stroke="black" d="M267.99,-217.64C248.65,-205.97 222.17,-189.99 202.84,-178.33"/>
</g>
<!-- Camelia_e9&#45;&#45;Camelia_d7 -->
<g id="edge43" class="edge">
<title>Camelia_e9&#45;&#45;Camelia_d7</title>
<path fill="none" stroke="black" d="M520.11,-505.29C536.63,-493.84 558.92,-478.39 575.51,-466.9"/>
</g>
<!-- Camelia_d6 -->
<g id="node21" class="node">
<title>Camelia_d6</title>
<ellipse fill="none" stroke="black" cx="497.45" cy="-378" rx="55.96" ry="18"/>
<text text-anchor="middle" x="497.45" y="-372.95" font-family="Times,serif" font-size="14.00">Camelia_d6</text>
</g>
<!-- Camelia_e9&#45;&#45;Camelia_d6 -->
<g id="edge45" class="edge">
<title>Camelia_e9&#45;&#45;Camelia_d6</title>
<path fill="none" stroke="black" d="M497.45,-503.59C497.45,-476.19 497.45,-423.32 497.45,-396.11"/>
</g>
<!-- Folhado -->
<g id="node15" class="node">
<title>Folhado</title>
<ellipse fill="none" stroke="black" cx="751.45" cy="-450" rx="41.12" ry="18"/>
<text text-anchor="middle" x="751.45" y="-444.95" font-family="Times,serif" font-size="14.00">Folhado</text>
</g>
<!-- Folhado&#45;&#45;Camelia_d4 -->
<g id="edge44" class="edge">
<title>Folhado&#45;&#45;Camelia_d4</title>
<path fill="none" stroke="black" d="M731.16,-433.85C705.38,-415.02 659.1,-382.62 616.45,-360 519.1,-308.38 395.61,-266.61 333.29,-247.04"/>
</g>
<!-- Camelia_d5 -->
<g id="node16" class="node">
<title>Camelia_d5</title>
<ellipse fill="none" stroke="black" cx="377.45" cy="-306" rx="55.96" ry="18"/>
<text text-anchor="middle" x="377.45" y="-300.95" font-family="Times,serif" font-size="14.00">Camelia_d5</text>
</g>
<!-- Folhado&#45;&#45;Camelia_d5 -->
<g id="edge14" class="edge">
<title>Folhado&#45;&#45;Camelia_d5</title>
<path fill="none" stroke="black" d="M726.03,-435.42C690.26,-416.68 622.71,-382.65 562.45,-360 515.22,-342.25 459.34,-327 421.45,-317.48"/>
</g>
<!-- Folhado&#45;&#45;Camelia_d6 -->
<g id="edge25" class="edge">
<title>Folhado&#45;&#45;Camelia_d6</title>
<path fill="none" stroke="black" d="M718.65,-438.63C711.35,-436.39 703.65,-434.07 696.45,-432 642.84,-416.58 580.67,-400.28 540.28,-389.89"/>
</g>
<!-- Camelia_d5&#45;&#45;Camelia_d4 -->
<g id="edge20" class="edge">
<title>Camelia_d5&#45;&#45;Camelia_d4</title>
<path fill="none" stroke="black" d="M357.96,-288.76C344.39,-277.46 326.37,-262.44 312.82,-251.15"/>
</g>
<!-- Camelia_e4&#45;&#45;Camelia_d4 -->
<g id="edge39" class="edge">
<title>Camelia_e4&#45;&#45;Camelia_d4</title>
<path fill="none" stroke="black" d="M256.61,-791.57C252.52,-764.84 245.45,-712.09 245.45,-667 245.45,-667 245.45,-667 245.45,-377 245.45,-329.64 269.71,-277.85 283.73,-251.86"/>
</g>
<!-- Camelia_e6 -->
<g id="node18" class="node">
<title>Camelia_e6</title>
<ellipse fill="none" stroke="black" cx="328.45" cy="-738" rx="55.45" ry="18"/>
<text text-anchor="middle" x="328.45" y="-732.95" font-family="Times,serif" font-size="14.00">Camelia_e6</text>
</g>
<!-- Camelia_e4&#45;&#45;Camelia_e6 -->
<g id="edge16" class="edge">
<title>Camelia_e4&#45;&#45;Camelia_e6</title>
<path fill="none" stroke="black" d="M275.8,-792.41C286.8,-781.25 301.24,-766.6 312.21,-755.47"/>
</g>
<!-- Camelia_e6&#45;&#45;Camelia_d4 -->
<g id="edge40" class="edge">
<title>Camelia_e6&#45;&#45;Camelia_d4</title>
<path fill="none" stroke="black" d="M321.36,-719.85C311.14,-693.49 293.45,-641.21 293.45,-595 293.45,-595 293.45,-595 293.45,-377 293.45,-332.13 293.45,-279.29 293.45,-252.49"/>
</g>
<!-- Camelia_e7 -->
<g id="node24" class="node">
<title>Camelia_e7</title>
<ellipse fill="none" stroke="black" cx="376.45" cy="-666" rx="55.45" ry="18"/>
<text text-anchor="middle" x="376.45" y="-660.95" font-family="Times,serif" font-size="14.00">Camelia_e7</text>
</g>
<!-- Camelia_e6&#45;&#45;Camelia_e7 -->
<g id="edge50" class="edge">
<title>Camelia_e6&#45;&#45;Camelia_e7</title>
<path fill="none" stroke="black" d="M340.07,-720.05C347.61,-709.05 357.41,-694.76 364.93,-683.79"/>
</g>
<!-- Camelia_e8&#45;&#45;Camelia_e9 -->
<g id="edge17" class="edge">
<title>Camelia_e8&#45;&#45;Camelia_e9</title>
<path fill="none" stroke="black" d="M468.64,-576.05C474.62,-565.05 482.37,-550.76 488.33,-539.79"/>
</g>
<!-- Camelia_e8&#45;&#45;Camelia_d6 -->
<g id="edge42" class="edge">
<title>Camelia_e8&#45;&#45;Camelia_d6</title>
<path fill="none" stroke="black" d="M448.67,-576.08C442.91,-566.03 436.41,-552.78 433.45,-540 429.83,-524.41 429.7,-519.55 433.45,-504 443.5,-462.29 469.98,-418.85 485.55,-395.77"/>
</g>
<!-- Camelia_d7&#45;&#45;Camelia_d6 -->
<g id="edge18" class="edge">
<title>Camelia_d7&#45;&#45;Camelia_d6</title>
<path fill="none" stroke="black" d="M575.53,-433.12C559,-421.66 536.78,-406.26 520.27,-394.82"/>
</g>
<!-- Camelia_d6&#45;&#45;Camelia_d5 -->
<g id="edge19" class="edge">
<title>Camelia_d6&#45;&#45;Camelia_d5</title>
<path fill="none" stroke="black" d="M471.11,-361.64C451.1,-349.97 423.71,-333.99 403.72,-322.33"/>
</g>
<!-- Castanheiro_India&#45;&#45;Camelia_e6 -->
<g id="edge23" class="edge">
<title>Castanheiro_India&#45;&#45;Camelia_e6</title>
<path fill="none" stroke="black" d="M391.78,-792.41C378.45,-781.17 360.92,-766.39 347.69,-755.23"/>
</g>
<!-- Olaia -->
<g id="node23" class="node">
<title>Olaia</title>
<ellipse fill="none" stroke="black" cx="470.45" cy="-738" rx="30.88" ry="18"/>
<text text-anchor="middle" x="470.45" y="-732.95" font-family="Times,serif" font-size="14.00">Olaia</text>
</g>
<!-- Castanheiro_India&#45;&#45;Olaia -->
<g id="edge35" class="edge">
<title>Castanheiro_India&#45;&#45;Olaia</title>
<path fill="none" stroke="black" d="M425.73,-792.05C435.41,-780.56 448.11,-765.5 457.5,-754.36"/>
</g>
<!-- Castanheiro_India&#45;&#45;Camelia_e7 -->
<g id="edge49" class="edge">
<title>Castanheiro_India&#45;&#45;Camelia_e7</title>
<path fill="none" stroke="black" d="M408.22,-791.84C404.74,-773.84 398.82,-744.79 392.45,-720 389.33,-707.9 385.26,-694.42 382,-684.08"/>
</g>
<!-- Olaia&#45;&#45;Liquidanbar -->
<g id="edge24" class="edge">
<title>Olaia&#45;&#45;Liquidanbar</title>
<path fill="none" stroke="black" d="M485.93,-722.15C497.73,-710.84 513.98,-695.26 526.2,-683.54"/>
</g>
<!-- Olaia&#45;&#45;Camelia_e8 -->
<g id="edge29" class="edge">
<title>Olaia&#45;&#45;Camelia_e8</title>
<path fill="none" stroke="black" d="M469.1,-719.59C466.97,-692.19 462.88,-639.32 460.77,-612.11"/>
</g>
<!-- Olaia&#45;&#45;Camelia_e7 -->
<g id="edge28" class="edge">
<title>Olaia&#45;&#45;Camelia_e7</title>
<path fill="none" stroke="black" d="M451.87,-723.17C436.36,-711.62 414.22,-695.13 397.94,-683.01"/>
</g>
<!-- Camelia_e7&#45;&#45;Camelia_d5 -->
<g id="edge41" class="edge">
<title>Camelia_e7&#45;&#45;Camelia_d5</title>
<path fill="none" stroke="black" d="M376.45,-647.51C376.45,-620.71 376.45,-567.87 376.45,-523 376.45,-523 376.45,-523 376.45,-449 376.45,-404.13 376.95,-351.29 377.24,-324.49"/>
</g>
<!-- Camelia_e7&#45;&#45;Camelia_e8 -->
<g id="edge27" class="edge">
<title>Camelia_e7&#45;&#45;Camelia_e8</title>
<path fill="none" stroke="black" d="M395.7,-648.76C409.11,-637.46 426.91,-622.44 440.3,-611.15"/>
</g>
<!-- Magnolia -->
<g id="node25" class="node">
<title>Magnolia</title>
<ellipse fill="none" stroke="black" cx="751.45" cy="-522" rx="46.75" ry="18"/>
<text text-anchor="middle" x="751.45" y="-516.95" font-family="Times,serif" font-size="14.00">Magnolia</text>
</g>
<!-- Magnolia&#45;&#45;Folhado -->
<g id="edge34" class="edge">
<title>Magnolia&#45;&#45;Folhado</title>
<path fill="none" stroke="black" d="M751.45,-503.7C751.45,-492.85 751.45,-478.92 751.45,-468.1"/>
</g>
<!-- Magnolia&#45;&#45;Camelia_d7 -->
<g id="edge47" class="edge">
<title>Magnolia&#45;&#45;Camelia_d7</title>
<path fill="none" stroke="black" d="M722.31,-507.67C695.86,-495.57 656.97,-477.78 629.85,-465.37"/>
</g>
<!-- Magnolia&#45;&#45;Camelia_d6 -->
<g id="edge31" class="edge">
<title>Magnolia&#45;&#45;Camelia_d6</title>
<path fill="none" stroke="black" d="M736.13,-504.68C713.25,-480.44 671.92,-437.2 663.45,-432 626.82,-409.54 579.75,-395.69 545.1,-387.81"/>
</g>
</g>
</svg>
