<?xml version="1.0" encoding="UTF-8" standalone="no"?>
<!DOCTYPE svg PUBLIC "-//W3C//DTD SVG 1.1//EN"
 "http://www.w3.org/Graphics/SVG/1.1/DTD/svg11.dtd">
<!-- Generated by graphviz version 10.0.1 (20240210.2158)
 -->
<!-- Title: us18_dot Pages: 1 -->
<svg width="557pt" height="3142pt"
 viewBox="0.00 0.00 556.75 3141.50" xmlns="http://www.w3.org/2000/svg" xmlns:xlink="http://www.w3.org/1999/xlink">
<g id="graph0" class="graph" transform="scale(1 1) rotate(0) translate(4 3137.5)">
<title>us18_dot</title>
<polygon fill="white" stroke="none" points="-4,4 -4,-3137.5 552.75,-3137.5 552.75,4 -4,4"/>
<!-- 1 -->
<g id="node1" class="node">
<title>1</title>
<ellipse fill="none" stroke="black" cx="252" cy="-106.5" rx="27" ry="18"/>
<text text-anchor="middle" x="252" y="-101.45" font-family="Times,serif" font-size="14.00">1</text>
</g>
<!-- 0 -->
<g id="node2" class="node">
<title>0</title>
<ellipse fill="none" stroke="black" cx="252" cy="-18" rx="27" ry="18"/>
<text text-anchor="middle" x="252" y="-12.95" font-family="Times,serif" font-size="14.00">0</text>
</g>
<!-- 1&#45;&#45;0 -->
<g id="edge1" class="edge">
<title>1&#45;&#45;0</title>
<path fill="none" stroke="black" d="M252,-88.41C252,-73.34 252,-51.49 252,-36.35"/>
<text text-anchor="middle" x="255.38" y="-57.2" font-family="Times,serif" font-size="14.00">2</text>
</g>
<!-- 2 -->
<g id="node3" class="node">
<title>2</title>
<ellipse fill="none" stroke="black" cx="200" cy="-195" rx="27" ry="18"/>
<text text-anchor="middle" x="200" y="-189.95" font-family="Times,serif" font-size="14.00">2</text>
</g>
<!-- 2&#45;&#45;1 -->
<g id="edge3" class="edge">
<title>2&#45;&#45;1</title>
<path fill="none" stroke="black" d="M209.78,-177.73C219.08,-162.27 232.98,-139.14 242.26,-123.7"/>
<text text-anchor="middle" x="234.38" y="-145.7" font-family="Times,serif" font-size="14.00">2</text>
</g>
<!-- 2&#45;&#45;0 -->
<g id="edge2" class="edge">
<title>2&#45;&#45;0</title>
<path fill="none" stroke="black" d="M199.12,-176.7C198.57,-155.39 199.38,-118.35 209.25,-88.5 215.97,-68.19 229.63,-47.66 239.71,-34.24"/>
<text text-anchor="middle" x="213.38" y="-101.45" font-family="Times,serif" font-size="14.00">3</text>
</g>
<!-- 3 -->
<g id="node4" class="node">
<title>3</title>
<ellipse fill="none" stroke="black" cx="248" cy="-283.5" rx="27" ry="18"/>
<text text-anchor="middle" x="248" y="-278.45" font-family="Times,serif" font-size="14.00">3</text>
</g>
<!-- 3&#45;&#45;1 -->
<g id="edge4" class="edge">
<title>3&#45;&#45;1</title>
<path fill="none" stroke="black" d="M248.4,-265.08C249.16,-231.54 250.84,-158.34 251.6,-124.85"/>
<text text-anchor="middle" x="254.38" y="-189.95" font-family="Times,serif" font-size="14.00">3</text>
</g>
<!-- 3&#45;&#45;2 -->
<g id="edge5" class="edge">
<title>3&#45;&#45;2</title>
<path fill="none" stroke="black" d="M238.97,-266.23C230.39,-250.77 217.56,-227.64 208.99,-212.2"/>
<text text-anchor="middle" x="232.38" y="-234.2" font-family="Times,serif" font-size="14.00">5</text>
</g>
<!-- 5 -->
<g id="node5" class="node">
<title>5</title>
<ellipse fill="none" stroke="black" cx="235" cy="-372" rx="27" ry="18"/>
<text text-anchor="middle" x="235" y="-366.95" font-family="Times,serif" font-size="14.00">5</text>
</g>
<!-- 5&#45;&#45;3 -->
<g id="edge6" class="edge">
<title>5&#45;&#45;3</title>
<path fill="none" stroke="black" d="M237.57,-353.91C239.83,-338.84 243.12,-316.99 245.39,-301.85"/>
<text text-anchor="middle" x="246.38" y="-322.7" font-family="Times,serif" font-size="14.00">2</text>
</g>
<!-- AP5 -->
<g id="node6" class="node">
<title>AP5</title>
<ellipse fill="none" stroke="black" cx="176" cy="-283.5" rx="27.3" ry="18"/>
<text text-anchor="middle" x="176" y="-278.45" font-family="Times,serif" font-size="14.00">AP5</text>
</g>
<!-- 5&#45;&#45;AP5 -->
<g id="edge7" class="edge">
<title>5&#45;&#45;AP5</title>
<path fill="none" stroke="black" d="M224.18,-355.13C213.53,-339.53 197.37,-315.84 186.75,-300.26"/>
<text text-anchor="middle" x="214.38" y="-322.7" font-family="Times,serif" font-size="14.00">3</text>
</g>
<!-- 6 -->
<g id="node7" class="node">
<title>6</title>
<ellipse fill="none" stroke="black" cx="235" cy="-460.5" rx="27" ry="18"/>
<text text-anchor="middle" x="235" y="-455.45" font-family="Times,serif" font-size="14.00">6</text>
</g>
<!-- 6&#45;&#45;5 -->
<g id="edge8" class="edge">
<title>6&#45;&#45;5</title>
<path fill="none" stroke="black" d="M235,-442.41C235,-427.34 235,-405.49 235,-390.35"/>
<text text-anchor="middle" x="238.38" y="-411.2" font-family="Times,serif" font-size="14.00">2</text>
</g>
<!-- 7 -->
<g id="node8" class="node">
<title>7</title>
<ellipse fill="none" stroke="black" cx="307" cy="-460.5" rx="27" ry="18"/>
<text text-anchor="middle" x="307" y="-455.45" font-family="Times,serif" font-size="14.00">7</text>
</g>
<!-- 7&#45;&#45;0 -->
<g id="edge9" class="edge">
<title>7&#45;&#45;0</title>
<path fill="none" stroke="black" d="M307,-442.27C307,-424.81 307,-397.03 307,-373 307,-373 307,-373 307,-105.5 307,-76.14 284.15,-48.69 267.91,-32.89"/>
<text text-anchor="middle" x="310.38" y="-234.2" font-family="Times,serif" font-size="14.00">3</text>
</g>
<!-- 8 -->
<g id="node9" class="node">
<title>8</title>
<ellipse fill="none" stroke="black" cx="237" cy="-549" rx="27" ry="18"/>
<text text-anchor="middle" x="237" y="-543.95" font-family="Times,serif" font-size="14.00">8</text>
</g>
<!-- 8&#45;&#45;6 -->
<g id="edge10" class="edge">
<title>8&#45;&#45;6</title>
<path fill="none" stroke="black" d="M236.6,-530.91C236.26,-515.84 235.75,-493.99 235.4,-478.85"/>
<text text-anchor="middle" x="240.38" y="-499.7" font-family="Times,serif" font-size="14.00">5</text>
</g>
<!-- 8&#45;&#45;7 -->
<g id="edge11" class="edge">
<title>8&#45;&#45;7</title>
<path fill="none" stroke="black" d="M249.51,-532.54C262.26,-516.79 281.89,-492.53 294.59,-476.83"/>
<text text-anchor="middle" x="282.38" y="-499.7" font-family="Times,serif" font-size="14.00">6</text>
</g>
<!-- 9 -->
<g id="node10" class="node">
<title>9</title>
<ellipse fill="none" stroke="black" cx="246" cy="-637.5" rx="27" ry="18"/>
<text text-anchor="middle" x="246" y="-632.45" font-family="Times,serif" font-size="14.00">9</text>
</g>
<!-- 9&#45;&#45;8 -->
<g id="edge12" class="edge">
<title>9&#45;&#45;8</title>
<path fill="none" stroke="black" d="M244.22,-619.41C242.65,-604.34 240.38,-582.49 238.81,-567.35"/>
<text text-anchor="middle" x="246.38" y="-588.2" font-family="Times,serif" font-size="14.00">2</text>
</g>
<!-- AP4 -->
<g id="node11" class="node">
<title>AP4</title>
<ellipse fill="none" stroke="black" cx="194" cy="-726" rx="27.3" ry="18"/>
<text text-anchor="middle" x="194" y="-720.95" font-family="Times,serif" font-size="14.00">AP4</text>
</g>
<!-- AP4&#45;&#45;8 -->
<g id="edge13" class="edge">
<title>AP4&#45;&#45;8</title>
<path fill="none" stroke="black" d="M193.61,-707.85C193.56,-686.7 194.87,-649.8 203.25,-619.5 208.58,-600.24 219.14,-579.85 227.03,-566.18"/>
<text text-anchor="middle" x="207.38" y="-632.45" font-family="Times,serif" font-size="14.00">5</text>
</g>
<!-- AP4&#45;&#45;9 -->
<g id="edge14" class="edge">
<title>AP4&#45;&#45;9</title>
<path fill="none" stroke="black" d="M203.78,-708.73C213.08,-693.27 226.98,-670.14 236.26,-654.7"/>
<text text-anchor="middle" x="228.38" y="-676.7" font-family="Times,serif" font-size="14.00">2</text>
</g>
<!-- 11 -->
<g id="node12" class="node">
<title>11</title>
<ellipse fill="none" stroke="black" cx="101" cy="-814.5" rx="27" ry="18"/>
<text text-anchor="middle" x="101" y="-809.45" font-family="Times,serif" font-size="14.00">11</text>
</g>
<!-- 11&#45;&#45;AP4 -->
<g id="edge15" class="edge">
<title>11&#45;&#45;AP4</title>
<path fill="none" stroke="black" d="M116.36,-799.22C133.59,-783.19 161.38,-757.34 178.62,-741.3"/>
<text text-anchor="middle" x="159.38" y="-765.2" font-family="Times,serif" font-size="14.00">2</text>
</g>
<!-- 12 -->
<g id="node13" class="node">
<title>12</title>
<ellipse fill="none" stroke="black" cx="101" cy="-903" rx="27" ry="18"/>
<text text-anchor="middle" x="101" y="-897.95" font-family="Times,serif" font-size="14.00">12</text>
</g>
<!-- 12&#45;&#45;11 -->
<g id="edge16" class="edge">
<title>12&#45;&#45;11</title>
<path fill="none" stroke="black" d="M101,-884.91C101,-869.84 101,-847.99 101,-832.85"/>
<text text-anchor="middle" x="104.38" y="-853.7" font-family="Times,serif" font-size="14.00">1</text>
</g>
<!-- 13 -->
<g id="node14" class="node">
<title>13</title>
<ellipse fill="none" stroke="black" cx="139" cy="-991.5" rx="27" ry="18"/>
<text text-anchor="middle" x="139" y="-986.45" font-family="Times,serif" font-size="14.00">13</text>
</g>
<!-- 13&#45;&#45;12 -->
<g id="edge17" class="edge">
<title>13&#45;&#45;12</title>
<path fill="none" stroke="black" d="M131.67,-973.82C124.94,-958.5 115.03,-935.93 108.3,-920.63"/>
<text text-anchor="middle" x="127.38" y="-942.2" font-family="Times,serif" font-size="14.00">1</text>
</g>
<!-- 14 -->
<g id="node15" class="node">
<title>14</title>
<ellipse fill="none" stroke="black" cx="249" cy="-1080" rx="27" ry="18"/>
<text text-anchor="middle" x="249" y="-1074.95" font-family="Times,serif" font-size="14.00">14</text>
</g>
<!-- 14&#45;&#45;7 -->
<g id="edge18" class="edge">
<title>14&#45;&#45;7</title>
<path fill="none" stroke="black" d="M265.47,-1065.57C282.61,-1049.97 307,-1022.51 307,-992.5 307,-992.5 307,-992.5 307,-548 307,-523.97 307,-496.19 307,-478.73"/>
<text text-anchor="middle" x="310.38" y="-765.2" font-family="Times,serif" font-size="14.00">5</text>
</g>
<!-- 14&#45;&#45;9 -->
<g id="edge19" class="edge">
<title>14&#45;&#45;9</title>
<path fill="none" stroke="black" d="M249,-1061.77C249,-1044.31 249,-1016.53 249,-992.5 249,-992.5 249,-992.5 249,-725 249,-700.96 247.83,-673.18 246.95,-655.73"/>
<text text-anchor="middle" x="252.38" y="-853.7" font-family="Times,serif" font-size="14.00">3</text>
</g>
<!-- 14&#45;&#45;13 -->
<g id="edge20" class="edge">
<title>14&#45;&#45;13</title>
<path fill="none" stroke="black" d="M232.29,-1065.86C211.62,-1049.6 176.61,-1022.08 155.86,-1005.76"/>
<text text-anchor="middle" x="207.38" y="-1030.7" font-family="Times,serif" font-size="14.00">4</text>
</g>
<!-- 15 -->
<g id="node16" class="node">
<title>15</title>
<ellipse fill="none" stroke="black" cx="296" cy="-1168.5" rx="27" ry="18"/>
<text text-anchor="middle" x="296" y="-1163.45" font-family="Times,serif" font-size="14.00">15</text>
</g>
<!-- 15&#45;&#45;14 -->
<g id="edge21" class="edge">
<title>15&#45;&#45;14</title>
<path fill="none" stroke="black" d="M287.16,-1151.23C278.76,-1135.77 266.19,-1112.64 257.8,-1097.2"/>
<text text-anchor="middle" x="280.38" y="-1119.2" font-family="Times,serif" font-size="14.00">3</text>
</g>
<!-- AP1 -->
<g id="node17" class="node">
<title>AP1</title>
<ellipse fill="none" stroke="black" cx="302" cy="-1257" rx="27.3" ry="18"/>
<text text-anchor="middle" x="302" y="-1251.95" font-family="Times,serif" font-size="14.00">AP1</text>
</g>
<!-- AP1&#45;&#45;7 -->
<g id="edge22" class="edge">
<title>AP1&#45;&#45;7</title>
<path fill="none" stroke="black" d="M316.44,-1241.48C330.89,-1225.34 351,-1197.81 351,-1169.5 351,-1169.5 351,-1169.5 351,-548 351,-520.54 333.16,-492.98 320.2,-476.58"/>
<text text-anchor="middle" x="354.38" y="-853.7" font-family="Times,serif" font-size="14.00">6</text>
</g>
<!-- AP1&#45;&#45;14 -->
<g id="edge23" class="edge">
<title>AP1&#45;&#45;14</title>
<path fill="none" stroke="black" d="M287.72,-1241.16C276.06,-1227.97 260.38,-1207.58 253.25,-1186.5 243.21,-1156.81 244.69,-1119.71 246.77,-1098.35"/>
<text text-anchor="middle" x="257.38" y="-1163.45" font-family="Times,serif" font-size="14.00">7</text>
</g>
<!-- AP1&#45;&#45;15 -->
<g id="edge24" class="edge">
<title>AP1&#45;&#45;15</title>
<path fill="none" stroke="black" d="M300.81,-1238.91C299.77,-1223.84 298.25,-1201.99 297.2,-1186.85"/>
<text text-anchor="middle" x="303.38" y="-1207.7" font-family="Times,serif" font-size="14.00">5</text>
</g>
<!-- 17 -->
<g id="node18" class="node">
<title>17</title>
<ellipse fill="none" stroke="black" cx="249" cy="-1345.5" rx="27" ry="18"/>
<text text-anchor="middle" x="249" y="-1340.45" font-family="Times,serif" font-size="14.00">17</text>
</g>
<!-- 17&#45;&#45;AP1 -->
<g id="edge25" class="edge">
<title>17&#45;&#45;AP1</title>
<path fill="none" stroke="black" d="M258.72,-1328.63C268.22,-1313.12 282.62,-1289.63 292.16,-1274.06"/>
<text text-anchor="middle" x="284.38" y="-1296.2" font-family="Times,serif" font-size="14.00">8</text>
</g>
<!-- 18 -->
<g id="node19" class="node">
<title>18</title>
<ellipse fill="none" stroke="black" cx="359" cy="-1434" rx="27" ry="18"/>
<text text-anchor="middle" x="359" y="-1428.95" font-family="Times,serif" font-size="14.00">18</text>
</g>
<!-- 18&#45;&#45;AP1 -->
<g id="edge26" class="edge">
<title>18&#45;&#45;AP1</title>
<path fill="none" stroke="black" d="M354.85,-1415.93C348.18,-1389.31 334.19,-1336.43 318,-1293 315.71,-1286.86 312.83,-1280.3 310.15,-1274.53"/>
<text text-anchor="middle" x="344.38" y="-1340.45" font-family="Times,serif" font-size="14.00">7</text>
</g>
<!-- 18&#45;&#45;17 -->
<g id="edge27" class="edge">
<title>18&#45;&#45;17</title>
<path fill="none" stroke="black" d="M347.32,-1417.29C338.67,-1406.36 326.14,-1391.94 313,-1381.5 300.21,-1371.34 284.06,-1362.53 271.18,-1356.29"/>
<text text-anchor="middle" x="333.38" y="-1384.7" font-family="Times,serif" font-size="14.00">3</text>
</g>
<!-- 19 -->
<g id="node20" class="node">
<title>19</title>
<ellipse fill="none" stroke="black" cx="304" cy="-1522.5" rx="27" ry="18"/>
<text text-anchor="middle" x="304" y="-1517.45" font-family="Times,serif" font-size="14.00">19</text>
</g>
<!-- 19&#45;&#45;AP1 -->
<g id="edge28" class="edge">
<title>19&#45;&#45;AP1</title>
<path fill="none" stroke="black" d="M303.87,-1504.21C303.51,-1456.47 302.49,-1323.17 302.13,-1275.35"/>
<text text-anchor="middle" x="307.38" y="-1384.7" font-family="Times,serif" font-size="14.00">8</text>
</g>
<!-- 19&#45;&#45;18 -->
<g id="edge29" class="edge">
<title>19&#45;&#45;18</title>
<path fill="none" stroke="black" d="M314.09,-1505.63C323.95,-1490.12 338.89,-1466.63 348.79,-1451.06"/>
<text text-anchor="middle" x="340.38" y="-1473.2" font-family="Times,serif" font-size="14.00">3</text>
</g>
<!-- 20 -->
<g id="node21" class="node">
<title>20</title>
<ellipse fill="none" stroke="black" cx="361" cy="-1611" rx="27" ry="18"/>
<text text-anchor="middle" x="361" y="-1605.95" font-family="Times,serif" font-size="14.00">20</text>
</g>
<!-- 20&#45;&#45;18 -->
<g id="edge30" class="edge">
<title>20&#45;&#45;18</title>
<path fill="none" stroke="black" d="M360.8,-1592.58C360.42,-1559.04 359.58,-1485.84 359.2,-1452.35"/>
<text text-anchor="middle" x="364.38" y="-1517.45" font-family="Times,serif" font-size="14.00">5</text>
</g>
<!-- 20&#45;&#45;19 -->
<g id="edge31" class="edge">
<title>20&#45;&#45;19</title>
<path fill="none" stroke="black" d="M350.55,-1594.13C340.32,-1578.62 324.85,-1555.13 314.58,-1539.56"/>
<text text-anchor="middle" x="341.38" y="-1561.7" font-family="Times,serif" font-size="14.00">1</text>
</g>
<!-- 21 -->
<g id="node22" class="node">
<title>21</title>
<ellipse fill="none" stroke="black" cx="355" cy="-1699.5" rx="27" ry="18"/>
<text text-anchor="middle" x="355" y="-1694.45" font-family="Times,serif" font-size="14.00">21</text>
</g>
<!-- 21&#45;&#45;20 -->
<g id="edge32" class="edge">
<title>21&#45;&#45;20</title>
<path fill="none" stroke="black" d="M356.19,-1681.41C357.23,-1666.34 358.75,-1644.49 359.8,-1629.35"/>
<text text-anchor="middle" x="362.38" y="-1650.2" font-family="Times,serif" font-size="14.00">4</text>
</g>
<!-- 22 -->
<g id="node23" class="node">
<title>22</title>
<ellipse fill="none" stroke="black" cx="406" cy="-1788" rx="27" ry="18"/>
<text text-anchor="middle" x="406" y="-1782.95" font-family="Times,serif" font-size="14.00">22</text>
</g>
<!-- 22&#45;&#45;20 -->
<g id="edge33" class="edge">
<title>22&#45;&#45;20</title>
<path fill="none" stroke="black" d="M404.94,-1769.53C403.34,-1748.36 399.52,-1711.77 391,-1681.5 385.69,-1662.65 376.4,-1642.2 369.56,-1628.4"/>
<text text-anchor="middle" x="402.38" y="-1694.45" font-family="Times,serif" font-size="14.00">4</text>
</g>
<!-- 22&#45;&#45;21 -->
<g id="edge34" class="edge">
<title>22&#45;&#45;21</title>
<path fill="none" stroke="black" d="M396.41,-1770.73C387.29,-1755.27 373.65,-1732.14 364.55,-1716.7"/>
<text text-anchor="middle" x="389.38" y="-1738.7" font-family="Times,serif" font-size="14.00">4</text>
</g>
<!-- 23 -->
<g id="node24" class="node">
<title>23</title>
<ellipse fill="none" stroke="black" cx="406" cy="-1876.5" rx="27" ry="18"/>
<text text-anchor="middle" x="406" y="-1871.45" font-family="Times,serif" font-size="14.00">23</text>
</g>
<!-- 23&#45;&#45;22 -->
<g id="edge35" class="edge">
<title>23&#45;&#45;22</title>
<path fill="none" stroke="black" d="M406,-1858.41C406,-1843.34 406,-1821.49 406,-1806.35"/>
<text text-anchor="middle" x="409.38" y="-1827.2" font-family="Times,serif" font-size="14.00">2</text>
</g>
<!-- AP2 -->
<g id="node25" class="node">
<title>AP2</title>
<ellipse fill="none" stroke="black" cx="449" cy="-1965" rx="27.3" ry="18"/>
<text text-anchor="middle" x="449" y="-1959.95" font-family="Times,serif" font-size="14.00">AP2</text>
</g>
<!-- AP2&#45;&#45;23 -->
<g id="edge36" class="edge">
<title>AP2&#45;&#45;23</title>
<path fill="none" stroke="black" d="M440.91,-1947.73C433.27,-1932.36 421.87,-1909.43 414.2,-1893.99"/>
<text text-anchor="middle" x="435.38" y="-1915.7" font-family="Times,serif" font-size="14.00">1</text>
</g>
<!-- 25 -->
<g id="node26" class="node">
<title>25</title>
<ellipse fill="none" stroke="black" cx="392" cy="-2053.5" rx="27" ry="18"/>
<text text-anchor="middle" x="392" y="-2048.45" font-family="Times,serif" font-size="14.00">25</text>
</g>
<!-- 25&#45;&#45;22 -->
<g id="edge37" class="edge">
<title>25&#45;&#45;22</title>
<path fill="none" stroke="black" d="M386.18,-2035.64C375.31,-2001.67 354.35,-1922.72 370,-1858.5 374.82,-1838.7 386.35,-1818.24 395.08,-1804.69"/>
<text text-anchor="middle" x="368.38" y="-1915.7" font-family="Times,serif" font-size="14.00">3</text>
</g>
<!-- 25&#45;&#45;23 -->
<g id="edge38" class="edge">
<title>25&#45;&#45;23</title>
<path fill="none" stroke="black" d="M393.39,-2035.08C396.08,-2001.54 401.93,-1928.34 404.61,-1894.85"/>
<text text-anchor="middle" x="404.38" y="-1959.95" font-family="Times,serif" font-size="14.00">3</text>
</g>
<!-- 25&#45;&#45;AP2 -->
<g id="edge39" class="edge">
<title>25&#45;&#45;AP2</title>
<path fill="none" stroke="black" d="M402.45,-2036.63C412.68,-2021.12 428.15,-1997.63 438.42,-1982.06"/>
<text text-anchor="middle" x="429.38" y="-2004.2" font-family="Times,serif" font-size="14.00">6</text>
</g>
<!-- 26 -->
<g id="node27" class="node">
<title>26</title>
<ellipse fill="none" stroke="black" cx="397" cy="-2142" rx="27" ry="18"/>
<text text-anchor="middle" x="397" y="-2136.95" font-family="Times,serif" font-size="14.00">26</text>
</g>
<!-- 26&#45;&#45;AP2 -->
<g id="edge40" class="edge">
<title>26&#45;&#45;AP2</title>
<path fill="none" stroke="black" d="M405.59,-2124.56C412.51,-2110.73 422.03,-2090.26 428,-2071.5 437.68,-2041.07 443.8,-2004.22 446.79,-1983.1"/>
<text text-anchor="middle" x="441.38" y="-2048.45" font-family="Times,serif" font-size="14.00">8</text>
</g>
<!-- 26&#45;&#45;25 -->
<g id="edge41" class="edge">
<title>26&#45;&#45;25</title>
<path fill="none" stroke="black" d="M396.01,-2123.91C395.14,-2108.84 393.88,-2086.99 393,-2071.85"/>
<text text-anchor="middle" x="398.38" y="-2092.7" font-family="Times,serif" font-size="14.00">2</text>
</g>
<!-- 27 -->
<g id="node28" class="node">
<title>27</title>
<ellipse fill="none" stroke="black" cx="296" cy="-2407.5" rx="27" ry="18"/>
<text text-anchor="middle" x="296" y="-2402.45" font-family="Times,serif" font-size="14.00">27</text>
</g>
<!-- 27&#45;&#45;26 -->
<g id="edge42" class="edge">
<title>27&#45;&#45;26</title>
<path fill="none" stroke="black" d="M302.22,-2389.58C314.66,-2355.82 343.6,-2277.72 369,-2212.5 376.04,-2194.44 384.37,-2173.86 390.1,-2159.81"/>
<text text-anchor="middle" x="351.38" y="-2269.7" font-family="Times,serif" font-size="14.00">4</text>
</g>
<!-- 28 -->
<g id="node29" class="node">
<title>28</title>
<ellipse fill="none" stroke="black" cx="405" cy="-2230.5" rx="27" ry="18"/>
<text text-anchor="middle" x="405" y="-2225.45" font-family="Times,serif" font-size="14.00">28</text>
</g>
<!-- 28&#45;&#45;26 -->
<g id="edge43" class="edge">
<title>28&#45;&#45;26</title>
<path fill="none" stroke="black" d="M403.42,-2212.41C402.03,-2197.34 400.01,-2175.49 398.6,-2160.35"/>
<text text-anchor="middle" x="405.38" y="-2181.2" font-family="Times,serif" font-size="14.00">1</text>
</g>
<!-- AP3 -->
<g id="node30" class="node">
<title>AP3</title>
<ellipse fill="none" stroke="black" cx="406" cy="-2319" rx="27.3" ry="18"/>
<text text-anchor="middle" x="406" y="-2313.95" font-family="Times,serif" font-size="14.00">AP3</text>
</g>
<!-- AP3&#45;&#45;28 -->
<g id="edge44" class="edge">
<title>AP3&#45;&#45;28</title>
<path fill="none" stroke="black" d="M405.8,-2300.91C405.63,-2285.84 405.38,-2263.99 405.2,-2248.85"/>
<text text-anchor="middle" x="409.38" y="-2269.7" font-family="Times,serif" font-size="14.00">2</text>
</g>
<!-- 30 -->
<g id="node31" class="node">
<title>30</title>
<ellipse fill="none" stroke="black" cx="421" cy="-2407.5" rx="27" ry="18"/>
<text text-anchor="middle" x="421" y="-2402.45" font-family="Times,serif" font-size="14.00">30</text>
</g>
<!-- 30&#45;&#45;28 -->
<g id="edge45" class="edge">
<title>30&#45;&#45;28</title>
<path fill="none" stroke="black" d="M428.81,-2389.94C437.63,-2369.08 449.78,-2332.17 442,-2301 437.03,-2281.11 425.18,-2260.66 416.22,-2247.15"/>
<text text-anchor="middle" x="448.38" y="-2313.95" font-family="Times,serif" font-size="14.00">2</text>
</g>
<!-- 30&#45;&#45;AP3 -->
<g id="edge46" class="edge">
<title>30&#45;&#45;AP3</title>
<path fill="none" stroke="black" d="M418.04,-2389.41C415.42,-2374.34 411.63,-2352.49 409.01,-2337.35"/>
<text text-anchor="middle" x="418.38" y="-2358.2" font-family="Times,serif" font-size="14.00">1</text>
</g>
<!-- 31 -->
<g id="node32" class="node">
<title>31</title>
<ellipse fill="none" stroke="black" cx="351" cy="-2496" rx="27" ry="18"/>
<text text-anchor="middle" x="351" y="-2490.95" font-family="Times,serif" font-size="14.00">31</text>
</g>
<!-- 31&#45;&#45;27 -->
<g id="edge47" class="edge">
<title>31&#45;&#45;27</title>
<path fill="none" stroke="black" d="M340.91,-2479.13C331.05,-2463.62 316.11,-2440.13 306.21,-2424.56"/>
<text text-anchor="middle" x="332.38" y="-2446.7" font-family="Times,serif" font-size="14.00">1</text>
</g>
<!-- 31&#45;&#45;28 -->
<g id="edge48" class="edge">
<title>31&#45;&#45;28</title>
<path fill="none" stroke="black" d="M350.59,-2477.74C350.23,-2443.36 351.68,-2364.22 370,-2301 375.6,-2281.67 386.54,-2261.29 394.7,-2247.64"/>
<text text-anchor="middle" x="362.38" y="-2358.2" font-family="Times,serif" font-size="14.00">1</text>
</g>
<!-- 31&#45;&#45;30 -->
<g id="edge49" class="edge">
<title>31&#45;&#45;30</title>
<path fill="none" stroke="black" d="M363.51,-2479.54C376.26,-2463.79 395.89,-2439.53 408.59,-2423.83"/>
<text text-anchor="middle" x="396.38" y="-2446.7" font-family="Times,serif" font-size="14.00">2</text>
</g>
<!-- 32 -->
<g id="node33" class="node">
<title>32</title>
<ellipse fill="none" stroke="black" cx="377" cy="-2584.5" rx="27" ry="18"/>
<text text-anchor="middle" x="377" y="-2579.45" font-family="Times,serif" font-size="14.00">32</text>
</g>
<!-- 32&#45;&#45;31 -->
<g id="edge50" class="edge">
<title>32&#45;&#45;31</title>
<path fill="none" stroke="black" d="M371.86,-2566.41C367.31,-2551.25 360.68,-2529.21 356.13,-2514.05"/>
<text text-anchor="middle" x="370.38" y="-2535.2" font-family="Times,serif" font-size="14.00">4</text>
</g>
<!-- 33 -->
<g id="node34" class="node">
<title>33</title>
<ellipse fill="none" stroke="black" cx="352" cy="-2673" rx="27" ry="18"/>
<text text-anchor="middle" x="352" y="-2667.95" font-family="Times,serif" font-size="14.00">33</text>
</g>
<!-- 33&#45;&#45;27 -->
<g id="edge51" class="edge">
<title>33&#45;&#45;27</title>
<path fill="none" stroke="black" d="M342.3,-2655.72C339.24,-2649.98 336.11,-2643.36 334,-2637 308.77,-2560.84 299.79,-2464.61 297.05,-2425.85"/>
<text text-anchor="middle" x="315.38" y="-2535.2" font-family="Times,serif" font-size="14.00">3</text>
</g>
<!-- 33&#45;&#45;31 -->
<g id="edge52" class="edge">
<title>33&#45;&#45;31</title>
<path fill="none" stroke="black" d="M346.42,-2655.09C342.12,-2641.16 336.55,-2620.79 334.25,-2602.5 332.25,-2586.62 332.36,-2582.39 334.25,-2566.5 336.42,-2548.26 341.68,-2527.88 345.73,-2513.93"/>
<text text-anchor="middle" x="338.38" y="-2579.45" font-family="Times,serif" font-size="14.00">4</text>
</g>
<!-- 33&#45;&#45;32 -->
<g id="edge53" class="edge">
<title>33&#45;&#45;32</title>
<path fill="none" stroke="black" d="M356.94,-2654.91C361.32,-2639.75 367.69,-2617.71 372.07,-2602.55"/>
<text text-anchor="middle" x="370.38" y="-2623.7" font-family="Times,serif" font-size="14.00">1</text>
</g>
<!-- 34 -->
<g id="node35" class="node">
<title>34</title>
<ellipse fill="none" stroke="black" cx="249" cy="-2761.5" rx="27" ry="18"/>
<text text-anchor="middle" x="249" y="-2756.45" font-family="Times,serif" font-size="14.00">34</text>
</g>
<!-- 34&#45;&#45;33 -->
<g id="edge54" class="edge">
<title>34&#45;&#45;33</title>
<path fill="none" stroke="black" d="M265.09,-2746.98C284.33,-2730.83 316.34,-2703.95 335.68,-2687.71"/>
<text text-anchor="middle" x="313.38" y="-2712.2" font-family="Times,serif" font-size="14.00">3</text>
</g>
<!-- 35 -->
<g id="node36" class="node">
<title>35</title>
<ellipse fill="none" stroke="black" cx="359" cy="-2850" rx="27" ry="18"/>
<text text-anchor="middle" x="359" y="-2844.95" font-family="Times,serif" font-size="14.00">35</text>
</g>
<!-- 35&#45;&#45;30 -->
<g id="edge55" class="edge">
<title>35&#45;&#45;30</title>
<path fill="none" stroke="black" d="M365.92,-2832.1C368.07,-2826.41 370.32,-2819.99 372,-2814 397.87,-2721.81 401.88,-2697.6 413,-2602.5 420.57,-2537.71 421.27,-2460.03 421.16,-2425.96"/>
<text text-anchor="middle" x="414.38" y="-2623.7" font-family="Times,serif" font-size="14.00">4</text>
</g>
<!-- 35&#45;&#45;33 -->
<g id="edge56" class="edge">
<title>35&#45;&#45;33</title>
<path fill="none" stroke="black" d="M358.3,-2831.58C356.96,-2798.04 354.03,-2724.84 352.69,-2691.35"/>
<text text-anchor="middle" x="360.38" y="-2756.45" font-family="Times,serif" font-size="14.00">3</text>
</g>
<!-- 35&#45;&#45;34 -->
<g id="edge57" class="edge">
<title>35&#45;&#45;34</title>
<path fill="none" stroke="black" d="M342.29,-2835.86C321.62,-2819.6 286.61,-2792.08 265.86,-2775.76"/>
<text text-anchor="middle" x="317.38" y="-2800.7" font-family="Times,serif" font-size="14.00">1</text>
</g>
<!-- 36 -->
<g id="node37" class="node">
<title>36</title>
<ellipse fill="none" stroke="black" cx="249" cy="-2938.5" rx="27" ry="18"/>
<text text-anchor="middle" x="249" y="-2933.45" font-family="Times,serif" font-size="14.00">36</text>
</g>
<!-- 36&#45;&#45;AP4 -->
<g id="edge58" class="edge">
<title>36&#45;&#45;AP4</title>
<path fill="none" stroke="black" d="M233.09,-2923.61C216.85,-2907.81 194,-2880.36 194,-2851 194,-2851 194,-2851 194,-813.5 194,-789.47 194,-761.69 194,-744.23"/>
<text text-anchor="middle" x="197.38" y="-1827.2" font-family="Times,serif" font-size="14.00">3</text>
</g>
<!-- 36&#45;&#45;11 -->
<g id="edge59" class="edge">
<title>36&#45;&#45;11</title>
<path fill="none" stroke="black" d="M227.37,-2927.3C187.03,-2908.26 104.27,-2869.13 103,-2868 44,-2815.74 8,-2797.07 8,-2718.25 8,-2718.25 8,-2718.25 8,-2318 8,-2181.18 0,-2147.07 0,-2010.25 0,-2010.25 0,-2010.25 0,-902 0,-861.48 47.47,-835.87 77.32,-823.76"/>
<text text-anchor="middle" x="3.38" y="-1871.45" font-family="Times,serif" font-size="14.00">2</text>
</g>
<!-- 36&#45;&#45;34 -->
<g id="edge60" class="edge">
<title>36&#45;&#45;34</title>
<path fill="none" stroke="black" d="M249,-2920.08C249,-2886.54 249,-2813.34 249,-2779.85"/>
<text text-anchor="middle" x="252.38" y="-2844.95" font-family="Times,serif" font-size="14.00">2</text>
</g>
<!-- 36&#45;&#45;35 -->
<g id="edge61" class="edge">
<title>36&#45;&#45;35</title>
<path fill="none" stroke="black" d="M265.71,-2924.36C286.38,-2908.1 321.39,-2880.58 342.14,-2864.26"/>
<text text-anchor="middle" x="317.38" y="-2889.2" font-family="Times,serif" font-size="14.00">1</text>
</g>
<!-- 37 -->
<g id="node38" class="node">
<title>37</title>
<ellipse fill="none" stroke="black" cx="139" cy="-2850" rx="27" ry="18"/>
<text text-anchor="middle" x="139" y="-2844.95" font-family="Times,serif" font-size="14.00">37</text>
</g>
<!-- 37&#45;&#45;12 -->
<g id="edge62" class="edge">
<title>37&#45;&#45;12</title>
<path fill="none" stroke="black" d="M125.15,-2834.37C111.29,-2818.15 92,-2790.53 92,-2762.5 92,-2762.5 92,-2762.5 92,-1831.25 92,-1753.46 89,-1734.04 89,-1656.25 89,-1656.25 89,-1656.25 89,-1433 89,-1231.82 97.78,-987.71 100.32,-921.35"/>
<text text-anchor="middle" x="95.38" y="-1871.45" font-family="Times,serif" font-size="14.00">2</text>
</g>
<!-- 37&#45;&#45;34 -->
<g id="edge63" class="edge">
<title>37&#45;&#45;34</title>
<path fill="none" stroke="black" d="M155.71,-2835.86C176.38,-2819.6 211.39,-2792.08 232.14,-2775.76"/>
<text text-anchor="middle" x="207.38" y="-2800.7" font-family="Times,serif" font-size="14.00">2</text>
</g>
<!-- 38 -->
<g id="node39" class="node">
<title>38</title>
<ellipse fill="none" stroke="black" cx="177" cy="-2938.5" rx="27" ry="18"/>
<text text-anchor="middle" x="177" y="-2933.45" font-family="Times,serif" font-size="14.00">38</text>
</g>
<!-- 38&#45;&#45;37 -->
<g id="edge64" class="edge">
<title>38&#45;&#45;37</title>
<path fill="none" stroke="black" d="M169.67,-2920.82C162.94,-2905.5 153.03,-2882.93 146.3,-2867.63"/>
<text text-anchor="middle" x="165.38" y="-2889.2" font-family="Times,serif" font-size="14.00">3</text>
</g>
<!-- 39 -->
<g id="node40" class="node">
<title>39</title>
<ellipse fill="none" stroke="black" cx="359" cy="-3027" rx="27" ry="18"/>
<text text-anchor="middle" x="359" y="-3021.95" font-family="Times,serif" font-size="14.00">39</text>
</g>
<!-- 39&#45;&#45;33 -->
<g id="edge65" class="edge">
<title>39&#45;&#45;33</title>
<path fill="none" stroke="black" d="M383.28,-3018.45C414.85,-3006.95 466,-2981.78 466,-2939.5 466,-2939.5 466,-2939.5 466,-2760.5 466,-2716.03 410.26,-2691.46 376.74,-2680.7"/>
<text text-anchor="middle" x="469.38" y="-2844.95" font-family="Times,serif" font-size="14.00">3</text>
</g>
<!-- 39&#45;&#45;38 -->
<g id="edge66" class="edge">
<title>39&#45;&#45;38</title>
<path fill="none" stroke="black" d="M337.41,-3015.74C302.38,-2999.09 233.57,-2966.39 198.56,-2949.75"/>
<text text-anchor="middle" x="288.38" y="-2977.7" font-family="Times,serif" font-size="14.00">1</text>
</g>
<!-- 40 -->
<g id="node41" class="node">
<title>40</title>
<ellipse fill="none" stroke="black" cx="326" cy="-3115.5" rx="27" ry="18"/>
<text text-anchor="middle" x="326" y="-3110.45" font-family="Times,serif" font-size="14.00">40</text>
</g>
<!-- 40&#45;&#45;13 -->
<g id="edge67" class="edge">
<title>40&#45;&#45;13</title>
<path fill="none" stroke="black" d="M299.15,-3111.99C229.07,-3104.71 46,-3080.66 46,-3028 46,-3028 46,-3028 46,-1079 46,-1040.63 88.96,-1014.46 116.49,-1001.63"/>
<text text-anchor="middle" x="49.38" y="-2048.45" font-family="Times,serif" font-size="14.00">5</text>
</g>
<!-- 40&#45;&#45;17 -->
<g id="edge68" class="edge">
<title>40&#45;&#45;17</title>
<path fill="none" stroke="black" d="M319.16,-3097.91C312.7,-3080.73 304,-3052.95 304,-3028 304,-3028 304,-3028 304,-2804.75 304,-2684.34 241,-2661.66 241,-2541.25 241,-2541.25 241,-2541.25 241,-1433 241,-1408.87 244.12,-1381.11 246.47,-1363.69"/>
<text text-anchor="middle" x="244.38" y="-2225.45" font-family="Times,serif" font-size="14.00">6</text>
</g>
<!-- 40&#45;&#45;18 -->
<g id="edge69" class="edge">
<title>40&#45;&#45;18</title>
<path fill="none" stroke="black" d="M353.16,-3114.45C389,-3113.23 452.93,-3106.95 499,-3079.5 524.62,-3064.24 542,-3057.82 542,-3028 542,-3028 542,-3028 542,-1521.5 542,-1453.33 436.91,-1438.8 386,-1435.77"/>
<text text-anchor="middle" x="545.38" y="-2269.7" font-family="Times,serif" font-size="14.00">9</text>
</g>
<!-- 40&#45;&#45;22 -->
<g id="edge70" class="edge">
<title>40&#45;&#45;22</title>
<path fill="none" stroke="black" d="M353.03,-3113.41C402.83,-3109.8 504,-3094.31 504,-3028 504,-3028 504,-3028 504,-1875.5 504,-1835.79 458.2,-1809.95 429.22,-1797.57"/>
<text text-anchor="middle" x="507.38" y="-2446.7" font-family="Times,serif" font-size="14.00">3</text>
</g>
<!-- 40&#45;&#45;38 -->
<g id="edge71" class="edge">
<title>40&#45;&#45;38</title>
<path fill="none" stroke="black" d="M310.53,-3100.25C304.02,-3094.04 296.46,-3086.59 290,-3079.5 250.65,-3036.34 208.49,-2981.53 188.63,-2955.12"/>
<text text-anchor="middle" x="263.38" y="-3021.95" font-family="Times,serif" font-size="14.00">1</text>
</g>
<!-- 40&#45;&#45;39 -->
<g id="edge72" class="edge">
<title>40&#45;&#45;39</title>
<path fill="none" stroke="black" d="M332.36,-3097.82C338.17,-3082.6 346.71,-3060.22 352.54,-3044.92"/>
<text text-anchor="middle" x="349.38" y="-3066.2" font-family="Times,serif" font-size="14.00">4</text>
</g>
</g>
</svg>
