<?xml version="1.0" encoding="us-ascii" standalone="no"?><svg xmlns="http://www.w3.org/2000/svg" xmlns:xlink="http://www.w3.org/1999/xlink" contentStyleType="text/css" height="560.8px" preserveAspectRatio="none" style="width:833px;height:560px;background:#FFFFFF;" version="1.1" viewBox="0 0 833 560" width="833.6px" zoomAndPan="magnify"><defs/><g><!--class CreateJobController--><g id="elem_CreateJobController"><rect codeLine="11" fill="#F1F1F1" height="64.7813" id="CreateJobController" rx="2" ry="2" style="stroke:#181818;stroke-width:0.4000000000000001;" width="264" x="261.2" y="337.896"/><ellipse cx="335" cy="350.696" fill="#ADD1B2" rx="8.8" ry="8.8" style="stroke:#181818;stroke-width:0.8000000000000002;"/><path d="M337.3785,355.2105 Q336.9137,355.4495 336.4023,355.569 Q335.891,355.6886 335.3266,355.6886 Q333.3211,355.6886 332.2652,354.3671 Q331.2094,353.0456 331.2094,350.5487 Q331.2094,348.0452 332.2652,346.7237 Q333.3211,345.4023 335.3266,345.4023 Q335.891,345.4023 336.409,345.5218 Q336.927,345.6413 337.3785,345.8804 L337.3785,348.0585 Q336.8738,347.5937 336.399,347.3778 Q335.9242,347.162 335.4195,347.162 Q334.3438,347.162 333.7959,348.0153 Q333.248,348.8687 333.248,350.5487 Q333.248,352.2222 333.7959,353.0755 Q334.3438,353.9288 335.4195,353.9288 Q335.9242,353.9288 336.399,353.713 Q336.8738,353.4972 337.3785,353.0323 Z " fill="#000000"/><text fill="#000000" font-family="sans-serif" font-size="11.2" lengthAdjust="spacing" textLength="109.6" x="351.4" y="354.9288">CreateJobController</text><line style="stroke:#181818;stroke-width:0.4000000000000001;" x1="262" x2="524.4" y1="363.496" y2="363.496"/><line style="stroke:#181818;stroke-width:0.4000000000000001;" x1="262" x2="524.4" y1="369.896" y2="369.896"/><text fill="#000000" font-family="sans-serif" font-size="11.2" lengthAdjust="spacing" textLength="254.4" x="266" y="383.9241">+CreateJobController(possibly skillRepository)</text><text fill="#000000" font-family="sans-serif" font-size="11.2" lengthAdjust="spacing" textLength="236.8" x="266" y="397.1148">+validateJobData(jobName, jobDescription)</text></g><!--class CreateJobUI--><g id="elem_CreateJobUI"><rect codeLine="18" fill="#F1F1F1" height="51.5906" id="CreateJobUI" rx="2" ry="2" style="stroke:#181818;stroke-width:0.4000000000000001;" width="228" x="5.6" y="344.488"/><ellipse cx="83.8" cy="357.288" fill="#ADD1B2" rx="8.8" ry="8.8" style="stroke:#181818;stroke-width:0.8000000000000002;"/><path d="M86.1785,361.8025 Q85.7137,362.0415 85.2023,362.161 Q84.691,362.2806 84.1266,362.2806 Q82.1211,362.2806 81.0652,360.9591 Q80.0094,359.6376 80.0094,357.1407 Q80.0094,354.6372 81.0652,353.3157 Q82.1211,351.9943 84.1266,351.9943 Q84.691,351.9943 85.209,352.1138 Q85.727,352.2333 86.1785,352.4724 L86.1785,354.6505 Q85.6738,354.1857 85.199,353.9698 Q84.7242,353.754 84.2195,353.754 Q83.1438,353.754 82.5959,354.6073 Q82.048,355.4607 82.048,357.1407 Q82.048,358.8142 82.5959,359.6675 Q83.1438,360.5208 84.2195,360.5208 Q84.7242,360.5208 85.199,360.305 Q85.6738,360.0892 86.1785,359.6243 Z " fill="#000000"/><text fill="#000000" font-family="sans-serif" font-size="11.2" lengthAdjust="spacing" textLength="64.8" x="100.2" y="361.5208">CreateJobUI</text><line style="stroke:#181818;stroke-width:0.4000000000000001;" x1="6.4" x2="232.8" y1="370.088" y2="370.088"/><line style="stroke:#181818;stroke-width:0.4000000000000001;" x1="6.4" x2="232.8" y1="376.488" y2="376.488"/><text fill="#000000" font-family="sans-serif" font-size="11.2" lengthAdjust="spacing" textLength="218.4" x="10.4" y="390.5161">+requestData(jobName, jobDescription)</text></g><!--class Employee--><g id="elem_Employee"><rect codeLine="23" fill="#F1F1F1" height="170.3063" id="Employee" rx="2" ry="2" style="stroke:#181818;stroke-width:0.4000000000000001;" width="132" x="639.2" y="118.792"/><ellipse cx="675.4" cy="131.592" fill="#ADD1B2" rx="8.8" ry="8.8" style="stroke:#181818;stroke-width:0.8000000000000002;"/><path d="M677.7785,136.1065 Q677.3137,136.3455 676.8023,136.465 Q676.291,136.5846 675.7266,136.5846 Q673.7211,136.5846 672.6652,135.2631 Q671.6094,133.9416 671.6094,131.4447 Q671.6094,128.9412 672.6652,127.6197 Q673.7211,126.2983 675.7266,126.2983 Q676.291,126.2983 676.809,126.4178 Q677.327,126.5373 677.7785,126.7764 L677.7785,128.9545 Q677.2738,128.4897 676.799,128.2738 Q676.3242,128.058 675.8195,128.058 Q674.7438,128.058 674.1959,128.9113 Q673.648,129.7647 673.648,131.4447 Q673.648,133.1182 674.1959,133.9715 Q674.7438,134.8248 675.8195,134.8248 Q676.3242,134.8248 676.799,134.609 Q677.2738,134.3932 677.7785,133.9283 Z " fill="#000000"/><text fill="#000000" font-family="sans-serif" font-size="11.2" lengthAdjust="spacing" textLength="52.8" x="691.8" y="135.8248">Employee</text><line style="stroke:#181818;stroke-width:0.4000000000000001;" x1="640" x2="770.4" y1="144.392" y2="144.392"/><text fill="#000000" font-family="sans-serif" font-size="11.2" lengthAdjust="spacing" textLength="72.8" x="644" y="158.4201">-name:String</text><text fill="#000000" font-family="sans-serif" font-size="11.2" lengthAdjust="spacing" textLength="84.8" x="644" y="171.6108">-birthdate:Date</text><text fill="#000000" font-family="sans-serif" font-size="11.2" lengthAdjust="spacing" textLength="115.2" x="644" y="184.8014">-admissionDate:Date</text><text fill="#000000" font-family="sans-serif" font-size="11.2" lengthAdjust="spacing" textLength="49.6" x="644" y="197.992">-address</text><text fill="#000000" font-family="sans-serif" font-size="11.2" lengthAdjust="spacing" textLength="122.4" x="644" y="211.1826">-mobileContact:String</text><text fill="#000000" font-family="sans-serif" font-size="11.2" lengthAdjust="spacing" textLength="114.4" x="644" y="224.3733">-emailContact:String</text><text fill="#000000" font-family="sans-serif" font-size="11.2" lengthAdjust="spacing" textLength="100" x="644" y="237.5639">-IDdocType:String</text><text fill="#000000" font-family="sans-serif" font-size="11.2" lengthAdjust="spacing" textLength="96.8" x="644" y="250.7545">-IDnumber:String</text><text fill="#000000" font-family="sans-serif" font-size="11.2" lengthAdjust="spacing" textLength="104" x="644" y="263.9451">-taxNumber:String</text><text fill="#000000" font-family="sans-serif" font-size="11.2" lengthAdjust="spacing" textLength="44.8" x="644" y="277.1358">-job:Job</text><line style="stroke:#181818;stroke-width:0.4000000000000001;" x1="640" x2="770.4" y1="282.6983" y2="282.6983"/></g><!--class Collaborator--><g id="elem_Collaborator"><rect codeLine="37" fill="#F1F1F1" height="51.5906" id="Collaborator" rx="2" ry="2" style="stroke:#181818;stroke-width:0.4000000000000001;" width="124" x="643.2" y="5.6"/><ellipse cx="668.16" cy="18.4" fill="#ADD1B2" rx="8.8" ry="8.8" style="stroke:#181818;stroke-width:0.8000000000000002;"/><path d="M670.5385,22.9145 Q670.0737,23.1535 669.5623,23.273 Q669.051,23.3926 668.4866,23.3926 Q666.4811,23.3926 665.4252,22.0711 Q664.3694,20.7496 664.3694,18.2527 Q664.3694,15.7492 665.4252,14.4277 Q666.4811,13.1063 668.4866,13.1063 Q669.051,13.1063 669.569,13.2258 Q670.087,13.3453 670.5385,13.5844 L670.5385,15.7625 Q670.0338,15.2977 669.559,15.0818 Q669.0842,14.866 668.5795,14.866 Q667.5038,14.866 666.9559,15.7193 Q666.408,16.5727 666.408,18.2527 Q666.408,19.9262 666.9559,20.7795 Q667.5038,21.6328 668.5795,21.6328 Q669.0842,21.6328 669.559,21.417 Q670.0338,21.2012 670.5385,20.7363 Z " fill="#000000"/><text fill="#000000" font-family="sans-serif" font-size="11.2" lengthAdjust="spacing" textLength="69.6" x="682.24" y="22.6328">Collaborator</text><line style="stroke:#181818;stroke-width:0.4000000000000001;" x1="644" x2="766.4" y1="31.2" y2="31.2"/><text fill="#000000" font-family="sans-serif" font-size="11.2" lengthAdjust="spacing" textLength="114.4" x="648" y="45.2281">-listOfSkill:List&lt;Job&gt;</text><line style="stroke:#181818;stroke-width:0.4000000000000001;" x1="644" x2="766.4" y1="50.7906" y2="50.7906"/></g><!--class Organization--><g id="elem_Organization"><rect codeLine="41" fill="#F1F1F1" height="64.7813" id="Organization" rx="2" ry="2" style="stroke:#181818;stroke-width:0.4000000000000001;" width="225.6" x="280.4" y="477.472"/><ellipse cx="353.8" cy="490.272" fill="#ADD1B2" rx="8.8" ry="8.8" style="stroke:#181818;stroke-width:0.8000000000000002;"/><path d="M356.1785,494.7865 Q355.7137,495.0255 355.2023,495.145 Q354.691,495.2646 354.1266,495.2646 Q352.1211,495.2646 351.0652,493.9431 Q350.0094,492.6216 350.0094,490.1247 Q350.0094,487.6212 351.0652,486.2997 Q352.1211,484.9783 354.1266,484.9783 Q354.691,484.9783 355.209,485.0978 Q355.727,485.2173 356.1785,485.4564 L356.1785,487.6345 Q355.6738,487.1697 355.199,486.9538 Q354.7242,486.738 354.2195,486.738 Q353.1438,486.738 352.5959,487.5913 Q352.048,488.4447 352.048,490.1247 Q352.048,491.7982 352.5959,492.6515 Q353.1438,493.5048 354.2195,493.5048 Q354.7242,493.5048 355.199,493.289 Q355.6738,493.0732 356.1785,492.6083 Z " fill="#000000"/><text fill="#000000" font-family="sans-serif" font-size="11.2" lengthAdjust="spacing" textLength="72" x="370.2" y="494.5048">Organization</text><line style="stroke:#181818;stroke-width:0.4000000000000001;" x1="281.2" x2="505.2" y1="503.072" y2="503.072"/><line style="stroke:#181818;stroke-width:0.4000000000000001;" x1="281.2" x2="505.2" y1="509.472" y2="509.472"/><text fill="#000000" font-family="sans-serif" font-size="11.2" lengthAdjust="spacing" textLength="216" x="285.2" y="523.5001">+createSkill(skillName, skillDescription)</text><text fill="#000000" font-family="sans-serif" font-size="11.2" lengthAdjust="spacing" textLength="203.2" x="285.2" y="536.6908">+createJob(jobName, jobDescription)</text></g><!--class Job--><g id="elem_Job"><rect codeLine="48" fill="#F1F1F1" height="91.1625" id="Job" rx="2" ry="2" style="stroke:#181818;stroke-width:0.4000000000000001;" width="246.4" x="582" y="464.28"/><ellipse cx="693" cy="477.08" fill="#ADD1B2" rx="8.8" ry="8.8" style="stroke:#181818;stroke-width:0.8000000000000002;"/><path d="M695.3785,481.5945 Q694.9137,481.8335 694.4023,481.953 Q693.891,482.0726 693.3266,482.0726 Q691.3211,482.0726 690.2652,480.7511 Q689.2094,479.4296 689.2094,476.9327 Q689.2094,474.4292 690.2652,473.1077 Q691.3211,471.7863 693.3266,471.7863 Q693.891,471.7863 694.409,471.9058 Q694.927,472.0253 695.3785,472.2644 L695.3785,474.4425 Q694.8738,473.9777 694.399,473.7618 Q693.9242,473.546 693.4195,473.546 Q692.3438,473.546 691.7959,474.3993 Q691.248,475.2527 691.248,476.9327 Q691.248,478.6062 691.7959,479.4595 Q692.3438,480.3128 693.4195,480.3128 Q693.9242,480.3128 694.399,480.097 Q694.8738,479.8812 695.3785,479.4163 Z " fill="#000000"/><text fill="#000000" font-family="sans-serif" font-size="11.2" lengthAdjust="spacing" textLength="17.6" x="709.4" y="481.3128">Job</text><line style="stroke:#181818;stroke-width:0.4000000000000001;" x1="582.8" x2="827.6" y1="489.88" y2="489.88"/><text fill="#000000" font-family="sans-serif" font-size="11.2" lengthAdjust="spacing" textLength="91.2" x="586.8" y="503.9081">-jobName:String</text><text fill="#000000" font-family="sans-serif" font-size="11.2" lengthAdjust="spacing" textLength="122.4" x="586.8" y="517.0988">-jobDescription:String</text><line style="stroke:#181818;stroke-width:0.4000000000000001;" x1="582.8" x2="827.6" y1="522.6613" y2="522.6613"/><text fill="#000000" font-family="sans-serif" font-size="11.2" lengthAdjust="spacing" textLength="169.6" x="586.8" y="536.6894">+Job(jobName, jobDescription)</text><text fill="#000000" font-family="sans-serif" font-size="11.2" lengthAdjust="spacing" textLength="236.8" x="586.8" y="549.88">+validateJobData(jobName, jobDescription)</text></g><!--link CreateJobUI to CreateJobController--><g id="link_CreateJobUI_CreateJobController"><path codeLine="56" d="M233.816,370.288 C242.048,370.288 246.792,370.288 256.088,370.288 " fill="none" id="CreateJobUI-to-CreateJobController" style="stroke:#181818;stroke-width:0.8000000000000002;stroke-dasharray:7.0,7.0;"/><polygon fill="#181818" points="260.888,370.288,253.688,367.088,256.888,370.288,253.688,373.488,260.888,370.288" style="stroke:#181818;stroke-width:0.8000000000000002;"/></g><!--link Employee to Job--><g id="link_Employee_Job"><path codeLine="57" d="M705.2,289.312 C705.2,345.856 705.2,413.232 705.2,459.12 " fill="none" id="Employee-to-Job" style="stroke:#181818;stroke-width:0.8000000000000002;"/><polygon fill="#181818" points="705.2,463.92,708.4,456.72,705.2,459.92,702,456.72,705.2,463.92" style="stroke:#181818;stroke-width:0.8000000000000002;"/><text fill="#000000" font-family="sans-serif" font-size="10.4" lengthAdjust="spacing" textLength="26.4" x="706" y="374.3427">has a</text><text fill="#000000" font-family="sans-serif" font-size="10.4" lengthAdjust="spacing" textLength="6.4" x="698.585" y="305.5137">1</text><text fill="#000000" font-family="sans-serif" font-size="10.4" lengthAdjust="spacing" textLength="6.4" x="698.41" y="455.6595">1</text></g><!--link CreateJobController to Organization--><g id="link_CreateJobController_Organization"><path codeLine="58" d="M393.2,402.744 C393.2,425.016 393.2,449.928 393.2,472.272 " fill="none" id="CreateJobController-to-Organization" style="stroke:#181818;stroke-width:0.8000000000000002;"/><polygon fill="#181818" points="393.2,477.072,396.4,469.872,393.2,473.072,390,469.872,393.2,477.072" style="stroke:#181818;stroke-width:0.8000000000000002;"/><text fill="#000000" font-family="sans-serif" font-size="10.4" lengthAdjust="spacing" textLength="46.4" x="394" y="437.5347">createJob</text></g><!--link Organization to Job--><g id="link_Organization_Job"><path codeLine="59" d="M506.28,509.856 C530.784,509.856 552.016,509.856 576.896,509.856 " fill="none" id="Organization-to-Job" style="stroke:#181818;stroke-width:0.8000000000000002;stroke-dasharray:7.0,7.0;"/><polygon fill="#181818" points="581.696,509.856,574.496,506.656,577.696,509.856,574.496,513.056,581.696,509.856" style="stroke:#181818;stroke-width:0.8000000000000002;"/><text fill="#000000" font-family="sans-serif" font-size="10.4" lengthAdjust="spacing" textLength="46.4" x="520.8" y="504.7107">createJob</text></g><!--link Collaborator to Employee--><g id="link_Collaborator_Employee"><path codeLine="60" d="M705.2,57.416 C705.2,73.856 705.2,91.544 705.2,113.936 " fill="none" id="Collaborator-to-Employee" style="stroke:#181818;stroke-width:0.8000000000000002;"/><polygon fill="#181818" points="705.2,118.736,708.4,111.536,705.2,114.736,702,111.536,705.2,118.736" style="stroke:#181818;stroke-width:0.8000000000000002;"/><text fill="#000000" font-family="sans-serif" font-size="10.4" lengthAdjust="spacing" textLength="17.6" x="706" y="92.0467">is a</text></g><!--SRC=[ZLFRRjim37tNLn1zIOhDG_Tg3066PWyPYXPOjW-WRSPMAukUn6npX_tx95yQEpM2-edYuU7ba5xv9sqRT5X3pPRpod5D8Ev8weGqc3zXINjf3O6ZND2MPXhWAopujxOb7D3uAMAq9MaRWePD6nzgjG2o4rOJLcxG-yyYJcT7eLtETg-V2MwKMXaw20Y3qsKbKEZOZcQhLCU1MqSez9MpMxRYs1Xoy5T1-DujOUk6lTUPQI4KD-ORXRSMTktrmFc5HXSzQuk2wqVExh6czn2CBVdSwIQMlrRgdthLmu_TMDlHpoDvkPpYbE5BtHXkYNfsOaDukWzgsB9tPDf95TjAGqRgVLZKEip2TdlkBnnvtpzgphIXE3_cCaj9DMgp1Eos1UVVmvRElFPOP-HcJi4_zw-zOSmqYD4fD0WKjCUC7GQb1uKIexqy7FPn2-bTi3y5okP4UN0bMlsCKQbHrBpJkQEik_NridRcJDX9TCXwUG53lH0tTZQ4dyyqOOvGN-XYYIxYpKSL6feUquVDqWshyLhWwkCL94cowOmuGGeLUa2rz5V4kBciARnef6P0gDjdE-6p5SPKBqsae6F9_m00]--></g></svg>