<?xml version="1.0" encoding="us-ascii" standalone="no"?><svg xmlns="http://www.w3.org/2000/svg" xmlns:xlink="http://www.w3.org/1999/xlink" contentStyleType="text/css" height="1150px" preserveAspectRatio="none" style="width:1696px;height:1150px;background:#FFFFFF;" version="1.1" viewBox="0 0 1696 1150" width="1696px" zoomAndPan="magnify"><defs/><g><rect fill="#FFFFFF" height="960.0469" style="stroke:#181818;stroke-width:1.0;" width="10" x="93" y="91.4883"/><rect fill="#FFFFFF" height="70.7988" style="stroke:#181818;stroke-width:1.0;" width="10" x="405" y="229.3516"/><rect fill="#FFFFFF" height="137.5527" style="stroke:#181818;stroke-width:1.0;" width="10" x="405" y="329.4609"/><rect fill="#FFFFFF" height="555.2109" style="stroke:#181818;stroke-width:1.0;" width="10" x="405" y="496.3242"/><rect fill="#FFFFFF" height="496.5898" style="stroke:#181818;stroke-width:1.0;" width="10" x="705" y="525.6348"/><rect fill="#FFFFFF" height="29.3105" style="stroke:#181818;stroke-width:1.0;" width="10" x="924" y="554.9453"/><rect fill="#FFFFFF" height="95.2422" style="stroke:#181818;stroke-width:1.0;" width="10" x="924" y="613.5664"/><rect fill="#FFFFFF" height="137.5527" style="stroke:#181818;stroke-width:1.0;" width="10" x="1041" y="855.3613"/><rect fill="#FFFFFF" height="87.9316" style="stroke:#181818;stroke-width:1.0;" width="10" x="1274.5" y="738.1191"/><rect fill="#FFFFFF" height="29.3105" style="stroke:#181818;stroke-width:1.0;" width="10" x="1663.5" y="767.4297"/><line style="stroke:#181818;stroke-width:0.5;stroke-dasharray:5.0,5.0;" x1="98" x2="98" y1="81.4883" y2="1069.5352"/><line style="stroke:#181818;stroke-width:0.5;stroke-dasharray:5.0,5.0;" x1="409.5" x2="409.5" y1="81.4883" y2="1069.5352"/><line style="stroke:#181818;stroke-width:0.5;stroke-dasharray:5.0,5.0;" x1="709.5" x2="709.5" y1="268.0957" y2="1069.5352"/><line style="stroke:#181818;stroke-width:0.5;stroke-dasharray:5.0,5.0;" x1="928.5" x2="928.5" y1="81.4883" y2="1069.5352"/><line style="stroke:#181818;stroke-width:0.5;stroke-dasharray:5.0,5.0;" x1="1045.5" x2="1045.5" y1="81.4883" y2="1069.5352"/><line style="stroke:#181818;stroke-width:0.5;stroke-dasharray:5.0,5.0;" x1="1168.5" x2="1168.5" y1="81.4883" y2="1069.5352"/><line style="stroke:#181818;stroke-width:0.5;stroke-dasharray:5.0,5.0;" x1="1279.5" x2="1279.5" y1="81.4883" y2="1069.5352"/><line style="stroke:#181818;stroke-width:0.5;stroke-dasharray:5.0,5.0;" x1="1429.5" x2="1429.5" y1="81.4883" y2="1069.5352"/><line style="stroke:#181818;stroke-width:0.5;stroke-dasharray:5.0,5.0;" x1="1585.5" x2="1585.5" y1="81.4883" y2="1069.5352"/><line style="stroke:#181818;stroke-width:0.5;stroke-dasharray:5.0,5.0;" x1="1668.5" x2="1668.5" y1="81.4883" y2="1069.5352"/><text fill="#000000" font-family="sans-serif" font-size="14" lengthAdjust="spacing" textLength="180" x="5" y="78.5352">Human Resource Manager</text><ellipse cx="98" cy="13.5" fill="#E3E3E3" rx="8" ry="8" style="stroke:#181818;stroke-width:0.5;"/><path d="M98,21.5 L98,48.5 M85,29.5 L111,29.5 M98,48.5 L85,63.5 M98,48.5 L111,63.5 " fill="none" style="stroke:#181818;stroke-width:0.5;"/><text fill="#000000" font-family="sans-serif" font-size="14" lengthAdjust="spacing" textLength="180" x="5" y="1082.0703">Human Resource Manager</text><ellipse cx="98" cy="1093.5234" fill="#E3E3E3" rx="8" ry="8" style="stroke:#181818;stroke-width:0.5;"/><path d="M98,1101.5234 L98,1128.5234 M85,1109.5234 L111,1109.5234 M98,1128.5234 L85,1143.5234 M98,1128.5234 L111,1143.5234 " fill="none" style="stroke:#181818;stroke-width:0.5;"/><rect fill="#E3E3E3" height="30.4883" rx="2.5" ry="2.5" style="stroke:#181818;stroke-width:0.5;" width="103" x="358.5" y="50"/><text fill="#000000" font-family="sans-serif" font-size="14" lengthAdjust="spacing" textLength="89" x="365.5" y="70.5352">: CreateJobUI</text><rect fill="#E3E3E3" height="30.4883" rx="2.5" ry="2.5" style="stroke:#181818;stroke-width:0.5;" width="103" x="358.5" y="1068.5352"/><text fill="#000000" font-family="sans-serif" font-size="14" lengthAdjust="spacing" textLength="89" x="365.5" y="1089.0703">: CreateJobUI</text><rect fill="#E3E3E3" height="30.4883" rx="2.5" ry="2.5" style="stroke:#181818;stroke-width:0.5;" width="159" x="630.5" y="1068.5352"/><text fill="#000000" font-family="sans-serif" font-size="14" lengthAdjust="spacing" textLength="145" x="637.5" y="1089.0703">: CreateJobController</text><rect fill="#E3E3E3" height="30.4883" rx="2.5" ry="2.5" style="stroke:#181818;stroke-width:0.5;" width="107" x="875.5" y="50"/><text fill="#000000" font-family="sans-serif" font-size="14" lengthAdjust="spacing" textLength="93" x="882.5" y="70.5352">: Repositories</text><rect fill="#E3E3E3" height="30.4883" rx="2.5" ry="2.5" style="stroke:#181818;stroke-width:0.5;" width="107" x="875.5" y="1068.5352"/><text fill="#000000" font-family="sans-serif" font-size="14" lengthAdjust="spacing" textLength="93" x="882.5" y="1089.0703">: Repositories</text><rect fill="#E3E3E3" height="46.9766" rx="2.5" ry="2.5" style="stroke:#181818;stroke-width:0.5;" width="107" x="992.5" y="33.5117"/><text fill="#000000" font-family="sans-serif" font-size="14" lengthAdjust="spacing" textLength="82" x="1005" y="54.0469">repositories</text><text fill="#000000" font-family="sans-serif" font-size="14" lengthAdjust="spacing" textLength="93" x="999.5" y="70.5352">: Repositories</text><rect fill="#E3E3E3" height="46.9766" rx="2.5" ry="2.5" style="stroke:#181818;stroke-width:0.5;" width="107" x="992.5" y="1068.5352"/><text fill="#000000" font-family="sans-serif" font-size="14" lengthAdjust="spacing" textLength="82" x="1005" y="1089.0703">repositories</text><text fill="#000000" font-family="sans-serif" font-size="14" lengthAdjust="spacing" textLength="93" x="999.5" y="1105.5586">: Repositories</text><rect fill="#E3E3E3" height="46.9766" rx="2.5" ry="2.5" style="stroke:#181818;stroke-width:0.5;" width="113" x="1112.5" y="33.5117"/><text fill="#000000" font-family="sans-serif" font-size="14" lengthAdjust="spacing" textLength="99" x="1119.5" y="54.0469">jobRepository:</text><text fill="#000000" font-family="sans-serif" font-size="14" lengthAdjust="spacing" textLength="95" x="1121.5" y="70.5352">JobRepository</text><rect fill="#E3E3E3" height="46.9766" rx="2.5" ry="2.5" style="stroke:#181818;stroke-width:0.5;" width="113" x="1112.5" y="1068.5352"/><text fill="#000000" font-family="sans-serif" font-size="14" lengthAdjust="spacing" textLength="99" x="1119.5" y="1089.0703">jobRepository:</text><text fill="#000000" font-family="sans-serif" font-size="14" lengthAdjust="spacing" textLength="95" x="1121.5" y="1105.5586">JobRepository</text><rect fill="#E3E3E3" height="46.9766" rx="2.5" ry="2.5" style="stroke:#181818;stroke-width:0.5;" width="88" x="1235.5" y="33.5117"/><text fill="#000000" font-family="sans-serif" font-size="14" lengthAdjust="spacing" textLength="66" x="1246.5" y="54.0469">employee</text><text fill="#000000" font-family="sans-serif" font-size="14" lengthAdjust="spacing" textLength="74" x="1242.5" y="70.5352">: Employee</text><rect fill="#E3E3E3" height="46.9766" rx="2.5" ry="2.5" style="stroke:#181818;stroke-width:0.5;" width="88" x="1235.5" y="1068.5352"/><text fill="#000000" font-family="sans-serif" font-size="14" lengthAdjust="spacing" textLength="66" x="1246.5" y="1089.0703">employee</text><text fill="#000000" font-family="sans-serif" font-size="14" lengthAdjust="spacing" textLength="74" x="1242.5" y="1105.5586">: Employee</text><rect fill="#E3E3E3" height="46.9766" rx="2.5" ry="2.5" style="stroke:#181818;stroke-width:0.5;" width="192" x="1333.5" y="33.5117"/><text fill="#000000" font-family="sans-serif" font-size="14" lengthAdjust="spacing" textLength="172" x="1343.5" y="54.0469">authenticationRepository</text><text fill="#000000" font-family="sans-serif" font-size="14" lengthAdjust="spacing" textLength="178" x="1340.5" y="70.5352">:AuthenticationRepository</text><rect fill="#E3E3E3" height="46.9766" rx="2.5" ry="2.5" style="stroke:#181818;stroke-width:0.5;" width="192" x="1333.5" y="1068.5352"/><text fill="#000000" font-family="sans-serif" font-size="14" lengthAdjust="spacing" textLength="172" x="1343.5" y="1089.0703">authenticationRepository</text><text fill="#000000" font-family="sans-serif" font-size="14" lengthAdjust="spacing" textLength="178" x="1340.5" y="1105.5586">:AuthenticationRepository</text><rect fill="#E3E3E3" height="46.9766" rx="2.5" ry="2.5" style="stroke:#181818;stroke-width:0.5;" width="101" x="1535.5" y="33.5117"/><text fill="#000000" font-family="sans-serif" font-size="14" lengthAdjust="spacing" textLength="82" x="1545" y="54.0469">userSession</text><text fill="#000000" font-family="sans-serif" font-size="14" lengthAdjust="spacing" textLength="87" x="1542.5" y="70.5352">:UserSessoin</text><rect fill="#E3E3E3" height="46.9766" rx="2.5" ry="2.5" style="stroke:#181818;stroke-width:0.5;" width="101" x="1535.5" y="1068.5352"/><text fill="#000000" font-family="sans-serif" font-size="14" lengthAdjust="spacing" textLength="82" x="1545" y="1089.0703">userSession</text><text fill="#000000" font-family="sans-serif" font-size="14" lengthAdjust="spacing" textLength="87" x="1542.5" y="1105.5586">:UserSessoin</text><rect fill="#E3E3E3" height="30.4883" rx="2.5" ry="2.5" style="stroke:#181818;stroke-width:0.5;" width="44" x="1646.5" y="50"/><text fill="#000000" font-family="sans-serif" font-size="14" lengthAdjust="spacing" textLength="30" x="1653.5" y="70.5352">: Job</text><rect fill="#E3E3E3" height="30.4883" rx="2.5" ry="2.5" style="stroke:#181818;stroke-width:0.5;" width="44" x="1646.5" y="1068.5352"/><text fill="#000000" font-family="sans-serif" font-size="14" lengthAdjust="spacing" textLength="30" x="1653.5" y="1089.0703">: Job</text><rect fill="#FFFFFF" height="960.0469" style="stroke:#181818;stroke-width:1.0;" width="10" x="93" y="91.4883"/><rect fill="#FFFFFF" height="70.7988" style="stroke:#181818;stroke-width:1.0;" width="10" x="405" y="229.3516"/><rect fill="#FFFFFF" height="137.5527" style="stroke:#181818;stroke-width:1.0;" width="10" x="405" y="329.4609"/><rect fill="#FFFFFF" height="555.2109" style="stroke:#181818;stroke-width:1.0;" width="10" x="405" y="496.3242"/><rect fill="#FFFFFF" height="496.5898" style="stroke:#181818;stroke-width:1.0;" width="10" x="705" y="525.6348"/><rect fill="#FFFFFF" height="29.3105" style="stroke:#181818;stroke-width:1.0;" width="10" x="924" y="554.9453"/><rect fill="#FFFFFF" height="95.2422" style="stroke:#181818;stroke-width:1.0;" width="10" x="924" y="613.5664"/><rect fill="#FFFFFF" height="137.5527" style="stroke:#181818;stroke-width:1.0;" width="10" x="1041" y="855.3613"/><rect fill="#FFFFFF" height="87.9316" style="stroke:#181818;stroke-width:1.0;" width="10" x="1274.5" y="738.1191"/><rect fill="#FFFFFF" height="29.3105" style="stroke:#181818;stroke-width:1.0;" width="10" x="1663.5" y="767.4297"/><path d="M108,96.4883 L108,151.4883 L401,151.4883 L401,106.4883 L391,96.4883 L108,96.4883 " fill="#FAFAFA" style="stroke:#181818;stroke-width:0.5;"/><path d="M391,96.4883 L391,106.4883 L401,106.4883 L391,96.4883 " fill="#FAFAFA" style="stroke:#181818;stroke-width:0.5;"/><text fill="#000000" font-family="sans-serif" font-size="13" lengthAdjust="spacing" textLength="272" x="114" y="114.0566">- The user is already logged in at this step.</text><text fill="#000000" font-family="sans-serif" font-size="13" lengthAdjust="spacing" textLength="264" x="114" y="129.3672">- Authentication sequence is explained in</text><text fill="#000000" font-family="sans-serif" font-size="13" lengthAdjust="spacing" textLength="125" x="114" y="144.6777">a sequence excerpt.</text><path d="M934,162.4199 L934,202.4199 L1041,202.4199 L1041,172.4199 L1031,162.4199 L934,162.4199 " fill="#FAFAFA" style="stroke:#181818;stroke-width:0.5;"/><path d="M1031,162.4199 L1031,172.4199 L1041,172.4199 L1031,162.4199 " fill="#FAFAFA" style="stroke:#181818;stroke-width:0.5;"/><text fill="#000000" font-family="sans-serif" font-size="13" lengthAdjust="spacing" textLength="86" x="940" y="179.9883">- Singleton is</text><text fill="#000000" font-family="sans-serif" font-size="13" lengthAdjust="spacing" textLength="38" x="940" y="195.2988">in use</text><polygon fill="#181818" points="393,225.3516,403,229.3516,393,233.3516,397,229.3516" style="stroke:#181818;stroke-width:1.0;"/><line style="stroke:#181818;stroke-width:1.0;" x1="103" x2="399" y1="229.3516" y2="229.3516"/><text fill="#000000" font-family="sans-serif" font-size="13" font-weight="bold" lengthAdjust="spacing" textLength="9" x="110" y="224.6094">1</text><text fill="#000000" font-family="sans-serif" font-size="13" lengthAdjust="spacing" textLength="152" x="123" y="224.6094">asks to create a new Job</text><polygon fill="#181818" points="618.5,254.6621,628.5,258.6621,618.5,262.6621,622.5,258.6621" style="stroke:#181818;stroke-width:1.0;"/><line style="stroke:#181818;stroke-width:1.0;" x1="415" x2="624.5" y1="258.6621" y2="258.6621"/><text fill="#000000" font-family="sans-serif" font-size="13" font-weight="bold" lengthAdjust="spacing" textLength="9" x="422" y="253.9199">2</text><text fill="#000000" font-family="sans-serif" font-size="13" lengthAdjust="spacing" textLength="38" x="435" y="253.9199">create</text><rect fill="#E3E3E3" height="30.4883" rx="2.5" ry="2.5" style="stroke:#181818;stroke-width:0.5;" width="159" x="630.5" y="237.3516"/><text fill="#000000" font-family="sans-serif" font-size="14" lengthAdjust="spacing" textLength="145" x="637.5" y="257.8867">: CreateJobController</text><polygon fill="#181818" points="114,296.1504,104,300.1504,114,304.1504,110,300.1504" style="stroke:#181818;stroke-width:1.0;"/><line style="stroke:#181818;stroke-width:1.0;stroke-dasharray:2.0,2.0;" x1="108" x2="409" y1="300.1504" y2="300.1504"/><text fill="#000000" font-family="sans-serif" font-size="13" font-weight="bold" lengthAdjust="spacing" textLength="9" x="120" y="295.4082">3</text><text fill="#000000" font-family="sans-serif" font-size="13" lengthAdjust="spacing" textLength="245" x="133" y="295.4082">requestData (jobName, jobDescription)</text><polygon fill="#181818" points="393,325.4609,403,329.4609,393,333.4609,397,329.4609" style="stroke:#181818;stroke-width:1.0;"/><line style="stroke:#181818;stroke-width:1.0;" x1="103" x2="399" y1="329.4609" y2="329.4609"/><text fill="#000000" font-family="sans-serif" font-size="13" font-weight="bold" lengthAdjust="spacing" textLength="9" x="110" y="324.7188">4</text><text fill="#000000" font-family="sans-serif" font-size="13" lengthAdjust="spacing" textLength="131" x="123" y="324.7188">types requested data</text><line style="stroke:#181818;stroke-width:1.0;" x1="415" x2="457" y1="363.7715" y2="363.7715"/><line style="stroke:#181818;stroke-width:1.0;" x1="457" x2="457" y1="363.7715" y2="376.7715"/><line style="stroke:#181818;stroke-width:1.0;" x1="410" x2="457" y1="376.7715" y2="376.7715"/><polygon fill="#181818" points="420,372.7715,410,376.7715,420,380.7715,416,376.7715" style="stroke:#181818;stroke-width:1.0;"/><text fill="#000000" font-family="sans-serif" font-size="13" font-weight="bold" lengthAdjust="spacing" textLength="9" x="422" y="359.0293">5</text><text fill="#000000" font-family="sans-serif" font-size="13" lengthAdjust="spacing" textLength="263" x="435" y="359.0293">validateJobData(jobName, jobDescription)</text><path d="M420,384.7715 L420,439.7715 L687,439.7715 L687,394.7715 L677,384.7715 L420,384.7715 " fill="#FAFAFA" style="stroke:#181818;stroke-width:0.5;"/><path d="M677,384.7715 L677,394.7715 L687,394.7715 L677,384.7715 " fill="#FAFAFA" style="stroke:#181818;stroke-width:0.5;"/><text fill="#000000" font-family="sans-serif" font-size="13" lengthAdjust="spacing" textLength="242" x="426" y="402.3398">- This is an input type only validation.</text><text fill="#000000" font-family="sans-serif" font-size="13" lengthAdjust="spacing" textLength="246" x="426" y="417.6504">This means that only characters will be</text><text fill="#000000" font-family="sans-serif" font-size="13" lengthAdjust="spacing" textLength="52" x="426" y="432.9609">allowed.</text><polygon fill="#181818" points="114,463.0137,104,467.0137,114,471.0137,110,467.0137" style="stroke:#181818;stroke-width:1.0;"/><line style="stroke:#181818;stroke-width:1.0;stroke-dasharray:2.0,2.0;" x1="108" x2="409" y1="467.0137" y2="467.0137"/><text fill="#000000" font-family="sans-serif" font-size="13" font-weight="bold" lengthAdjust="spacing" textLength="9" x="120" y="462.2715">6</text><text fill="#000000" font-family="sans-serif" font-size="13" lengthAdjust="spacing" textLength="265" x="133" y="462.2715">shows job data and requests confirmation</text><polygon fill="#181818" points="393,492.3242,403,496.3242,393,500.3242,397,496.3242" style="stroke:#181818;stroke-width:1.0;"/><line style="stroke:#181818;stroke-width:1.0;" x1="103" x2="399" y1="496.3242" y2="496.3242"/><text fill="#000000" font-family="sans-serif" font-size="13" font-weight="bold" lengthAdjust="spacing" textLength="9" x="110" y="491.582">7</text><text fill="#000000" font-family="sans-serif" font-size="13" lengthAdjust="spacing" textLength="87" x="123" y="491.582">confirms data</text><polygon fill="#181818" points="693,521.6348,703,525.6348,693,529.6348,697,525.6348" style="stroke:#181818;stroke-width:1.0;"/><line style="stroke:#181818;stroke-width:1.0;" x1="415" x2="699" y1="525.6348" y2="525.6348"/><text fill="#000000" font-family="sans-serif" font-size="13" font-weight="bold" lengthAdjust="spacing" textLength="9" x="422" y="520.8926">8</text><text fill="#000000" font-family="sans-serif" font-size="13" lengthAdjust="spacing" textLength="223" x="435" y="520.8926">createJob(jobName, jobDescription)</text><polygon fill="#181818" points="912,550.9453,922,554.9453,912,558.9453,916,554.9453" style="stroke:#181818;stroke-width:1.0;"/><line style="stroke:#181818;stroke-width:1.0;" x1="715" x2="918" y1="554.9453" y2="554.9453"/><text fill="#000000" font-family="sans-serif" font-size="13" font-weight="bold" lengthAdjust="spacing" textLength="9" x="722" y="550.2031">9</text><text fill="#000000" font-family="sans-serif" font-size="13" lengthAdjust="spacing" textLength="81" x="735" y="550.2031">getInstance()</text><polygon fill="#181818" points="726,580.2559,716,584.2559,726,588.2559,722,584.2559" style="stroke:#181818;stroke-width:1.0;"/><line style="stroke:#181818;stroke-width:1.0;stroke-dasharray:2.0,2.0;" x1="720" x2="928" y1="584.2559" y2="584.2559"/><text fill="#000000" font-family="sans-serif" font-size="13" font-weight="bold" lengthAdjust="spacing" textLength="18" x="732" y="579.5137">10</text><text fill="#000000" font-family="sans-serif" font-size="13" lengthAdjust="spacing" textLength="75" x="754" y="579.5137">repositories</text><polygon fill="#181818" points="912,609.5664,922,613.5664,912,617.5664,916,613.5664" style="stroke:#181818;stroke-width:1.0;"/><line style="stroke:#181818;stroke-width:1.0;" x1="715" x2="918" y1="613.5664" y2="613.5664"/><text fill="#000000" font-family="sans-serif" font-size="13" font-weight="bold" lengthAdjust="spacing" textLength="18" x="722" y="608.8242">11</text><text fill="#000000" font-family="sans-serif" font-size="13" lengthAdjust="spacing" textLength="168" x="744" y="608.8242">getEmployeeFromSession()</text><path d="M720,626.5664 L720,681.5664 L912,681.5664 L912,636.5664 L902,626.5664 L720,626.5664 " fill="#FAFAFA" style="stroke:#181818;stroke-width:0.5;"/><path d="M902,626.5664 L902,636.5664 L912,636.5664 L902,626.5664 " fill="#FAFAFA" style="stroke:#181818;stroke-width:0.5;"/><text fill="#000000" font-family="sans-serif" font-size="13" lengthAdjust="spacing" textLength="171" x="726" y="644.1348">- This method is explained</text><text fill="#000000" font-family="sans-serif" font-size="13" lengthAdjust="spacing" textLength="137" x="730" y="659.4453">in detail in an excerpt</text><text fill="#000000" font-family="sans-serif" font-size="13" lengthAdjust="spacing" textLength="118" x="730" y="674.7559">sequence diagram.</text><polygon fill="#181818" points="726,704.8086,716,708.8086,726,712.8086,722,708.8086" style="stroke:#181818;stroke-width:1.0;"/><line style="stroke:#181818;stroke-width:1.0;stroke-dasharray:2.0,2.0;" x1="720" x2="928" y1="708.8086" y2="708.8086"/><text fill="#000000" font-family="sans-serif" font-size="13" font-weight="bold" lengthAdjust="spacing" textLength="18" x="732" y="704.0664">12</text><text fill="#000000" font-family="sans-serif" font-size="13" lengthAdjust="spacing" textLength="60" x="754" y="704.0664">employee</text><polygon fill="#181818" points="1262.5,734.1191,1272.5,738.1191,1262.5,742.1191,1266.5,738.1191" style="stroke:#181818;stroke-width:1.0;"/><line style="stroke:#181818;stroke-width:1.0;" x1="715" x2="1268.5" y1="738.1191" y2="738.1191"/><text fill="#000000" font-family="sans-serif" font-size="13" font-weight="bold" lengthAdjust="spacing" textLength="18" x="722" y="733.377">13</text><text fill="#000000" font-family="sans-serif" font-size="13" lengthAdjust="spacing" textLength="335" x="744" y="733.377">createJob(jobName, jobDescription, creatorEmployee)</text><polygon fill="#181818" points="1651.5,763.4297,1661.5,767.4297,1651.5,771.4297,1655.5,767.4297" style="stroke:#181818;stroke-width:1.0;"/><line style="stroke:#181818;stroke-width:1.0;" x1="1284.5" x2="1657.5" y1="767.4297" y2="767.4297"/><text fill="#000000" font-family="sans-serif" font-size="13" font-weight="bold" lengthAdjust="spacing" textLength="18" x="1291.5" y="762.6875">14</text><text fill="#000000" font-family="sans-serif" font-size="13" lengthAdjust="spacing" textLength="297" x="1313.5" y="762.6875">Job(jobName, jobDescription, creatorEmployee)</text><polygon fill="#181818" points="1295.5,792.7402,1285.5,796.7402,1295.5,800.7402,1291.5,796.7402" style="stroke:#181818;stroke-width:1.0;"/><line style="stroke:#181818;stroke-width:1.0;stroke-dasharray:2.0,2.0;" x1="1289.5" x2="1667.5" y1="796.7402" y2="796.7402"/><text fill="#000000" font-family="sans-serif" font-size="13" font-weight="bold" lengthAdjust="spacing" textLength="18" x="1301.5" y="791.998">15</text><text fill="#000000" font-family="sans-serif" font-size="13" lengthAdjust="spacing" textLength="45" x="1323.5" y="791.998">newJob</text><polygon fill="#181818" points="726,822.0508,716,826.0508,726,830.0508,722,826.0508" style="stroke:#181818;stroke-width:1.0;"/><line style="stroke:#181818;stroke-width:1.0;stroke-dasharray:2.0,2.0;" x1="720" x2="1278.5" y1="826.0508" y2="826.0508"/><text fill="#000000" font-family="sans-serif" font-size="13" font-weight="bold" lengthAdjust="spacing" textLength="18" x="732" y="821.3086">16</text><text fill="#000000" font-family="sans-serif" font-size="13" lengthAdjust="spacing" textLength="45" x="754" y="821.3086">newJob</text><polygon fill="#181818" points="1029,851.3613,1039,855.3613,1029,859.3613,1033,855.3613" style="stroke:#181818;stroke-width:1.0;"/><line style="stroke:#181818;stroke-width:1.0;" x1="715" x2="1035" y1="855.3613" y2="855.3613"/><text fill="#000000" font-family="sans-serif" font-size="13" font-weight="bold" lengthAdjust="spacing" textLength="18" x="722" y="850.6191">17</text><text fill="#000000" font-family="sans-serif" font-size="13" lengthAdjust="spacing" textLength="96" x="744" y="850.6191">addJob(newJob)</text><line style="stroke:#181818;stroke-width:1.0;" x1="1051" x2="1093" y1="884.6719" y2="884.6719"/><line style="stroke:#181818;stroke-width:1.0;" x1="1093" x2="1093" y1="884.6719" y2="897.6719"/><line style="stroke:#181818;stroke-width:1.0;" x1="1052" x2="1093" y1="897.6719" y2="897.6719"/><polygon fill="#181818" points="1062,893.6719,1052,897.6719,1062,901.6719,1058,897.6719" style="stroke:#181818;stroke-width:1.0;"/><text fill="#000000" font-family="sans-serif" font-size="13" font-weight="bold" lengthAdjust="spacing" textLength="18" x="1058" y="879.9297">18</text><text fill="#000000" font-family="sans-serif" font-size="13" lengthAdjust="spacing" textLength="77" x="1080" y="879.9297">validateJob()</text><path d="M1056,910.6719 L1056,965.6719 L1248,965.6719 L1248,920.6719 L1238,910.6719 L1056,910.6719 " fill="#FAFAFA" style="stroke:#181818;stroke-width:0.5;"/><path d="M1238,910.6719 L1238,920.6719 L1248,920.6719 L1238,910.6719 " fill="#FAFAFA" style="stroke:#181818;stroke-width:0.5;"/><text fill="#000000" font-family="sans-serif" font-size="13" lengthAdjust="spacing" textLength="171" x="1062" y="928.2402">- This method is explained</text><text fill="#000000" font-family="sans-serif" font-size="13" lengthAdjust="spacing" textLength="137" x="1062" y="943.5508">in detail in an excerpt</text><text fill="#000000" font-family="sans-serif" font-size="13" lengthAdjust="spacing" textLength="118" x="1062" y="958.8613">sequence diagram.</text><polygon fill="#181818" points="726,988.9141,716,992.9141,726,996.9141,722,992.9141" style="stroke:#181818;stroke-width:1.0;"/><line style="stroke:#181818;stroke-width:1.0;stroke-dasharray:2.0,2.0;" x1="720" x2="1045" y1="992.9141" y2="992.9141"/><text fill="#000000" font-family="sans-serif" font-size="13" font-weight="bold" lengthAdjust="spacing" textLength="18" x="732" y="988.1719">19</text><text fill="#000000" font-family="sans-serif" font-size="13" lengthAdjust="spacing" textLength="45" x="754" y="988.1719">newJob</text><polygon fill="#181818" points="426,1018.2246,416,1022.2246,426,1026.2246,422,1022.2246" style="stroke:#181818;stroke-width:1.0;"/><line style="stroke:#181818;stroke-width:1.0;stroke-dasharray:2.0,2.0;" x1="420" x2="709" y1="1022.2246" y2="1022.2246"/><text fill="#000000" font-family="sans-serif" font-size="13" font-weight="bold" lengthAdjust="spacing" textLength="18" x="432" y="1017.4824">20</text><text fill="#000000" font-family="sans-serif" font-size="13" lengthAdjust="spacing" textLength="45" x="454" y="1017.4824">newJob</text><polygon fill="#181818" points="109,1047.5352,99,1051.5352,109,1055.5352,105,1051.5352" style="stroke:#181818;stroke-width:1.0;"/><line style="stroke:#181818;stroke-width:1.0;" x1="103" x2="409" y1="1051.5352" y2="1051.5352"/><text fill="#000000" font-family="sans-serif" font-size="13" font-weight="bold" lengthAdjust="spacing" textLength="18" x="115" y="1046.793">21</text><text fill="#000000" font-family="sans-serif" font-size="13" lengthAdjust="spacing" textLength="170" x="137" y="1046.793">displays operation success</text><!--SRC=[hLRRKjim47ttL-pm0cL8FY0FdQ6GGXW8dJYyCSCezXAhs98hoOJyVLVo9LPY9w55JxQrv-pjI6lznaNE5CiWaq96YP8PWb451hhPoLdqnfOOcdMAe30oJ2pJje5EM2nNN2pXbQKQWu0LHeeYMw0AWjE4nmYlKfg5_A2jo4W59xT5nWJCKCj2HGWFJ907TG9Cm-ti8I1UmoEUCs7WP0HN2fd1ExbucZYJfqclnPKKHiaqhSYkvhFxRTiPvb9p2eEZTaQFivkNS3AzkH_F7wU-jMhPFeiUx6GQpY-dLsCV-bik6klrw5dSjTyTzkxnnyji_EknXm2pF9LhHEjtN3qxtCFqPkQRKi4J5FJE39TYuuQWbprRZkdoQNxhGl3f2eqgHAq9G0nFrPlaegn-E7i9ns4usIxM22Z7EhCW28Gq91Y-J0p8LzTNe3M0UO9WNG3Nm5BgNBo6L2wN60CNm0oOX7QqmNnO8VmaGEEV0WNfXipm8qyP5mxhhDbc6pyYLBaP1YXYiD5in-HtllGLSYjl4Z2nkqyK4qNRuh0Yvk-aDvUJix6BNc3mdSG98wh1cmOZ8NAwf9W4hcnrDjOD1uaPMkkqWZZbjZU8bzZjv_Dpyb2Q1NPvS6MJruQy9ou-6mKTrC90p0pROIHAQpI22dTDHd16sfso32-07gvHHuhdjl3V6dYCxVWxIs3MEUgQbjhZt7Uctv6cOtXdAO_BOst3we_A8x3Bx_9MXUjbXKW2iY8KLObip215kgvz4_sm4-oW6J9X2qsITQ0eeVimCgWqh7YQmW8xiInDvGhZNUAMnDgVMyLsgkXleaxaIjlok6fJNZ4qUeYaUEKgSpa5XngvtSmAh3_NHHjj8rNgufuEUkWzwThbQ8dUExtaPubc8ZIDfmZFEaJHiFgdlhD5FlLWaqjx8En2MzKyu6HF3lLT_vE6SNKBTwMpN_CxrqVV6jHIDecClGlrABYz7MCqZAVkxXRrdNiSkBcfOywMz2inF0ZR795_RMzlQ-jv-nLjjIFw6ELVb2PIrKtVfritztUsdIjoIJCNt0J-4bzkWc_lMXU3JNOqqxoHrb6kJfeouatXZ-3fJhrzYEf_A3jyuzYMeQGzT14q_rwTGcbOTxsqfjFPmH7aUVgF8tZiQJjyiFeFaf_tfzhKNz2oLVKugQc2WoEk72JbT8kvfhgiDSWSLVKdM4GHNP6b_TOiQxtQ_xI_]--></g></svg>