<?xml version="1.0" encoding="us-ascii" standalone="no"?><svg xmlns="http://www.w3.org/2000/svg" xmlns:xlink="http://www.w3.org/1999/xlink" contentStyleType="text/css" height="540.8px" preserveAspectRatio="none" style="width:1045px;height:540px;background:#FFFFFF;" version="1.1" viewBox="0 0 1045 540" width="1045.6px" zoomAndPan="magnify"><defs/><g><rect fill="#FFFFFF" height="388.9172" style="stroke:#181818;stroke-width:0.8000000000000002;" width="8" x="74.4" y="73.1906"/><rect fill="#FFFFFF" height="56.6391" style="stroke:#181818;stroke-width:0.8000000000000002;" width="8" x="400" y="90.2391"/><rect fill="#FFFFFF" height="117.2422" style="stroke:#181818;stroke-width:0.8000000000000002;" width="8" x="400" y="170.3266"/><rect fill="#FFFFFF" height="151.0906" style="stroke:#181818;stroke-width:0.8000000000000002;" width="8" x="400" y="311.0172"/><rect fill="#FFFFFF" height="70.3453" style="stroke:#181818;stroke-width:0.8000000000000002;" width="8" x="644" y="193.775"/><rect fill="#FFFFFF" height="104.1938" style="stroke:#181818;stroke-width:0.8000000000000002;" width="8" x="644" y="334.4656"/><rect fill="#FFFFFF" height="23.4484" style="stroke:#181818;stroke-width:0.8000000000000002;" width="8" x="888" y="217.2234"/><rect fill="#FFFFFF" height="57.2969" style="stroke:#181818;stroke-width:0.8000000000000002;" width="8" x="952" y="357.9141"/><line style="stroke:#181818;stroke-width:0.4000000000000001;stroke-dasharray:5.0,5.0;" x1="78.4" x2="78.4" y1="65.1906" y2="476.5078"/><line style="stroke:#181818;stroke-width:0.4000000000000001;stroke-dasharray:5.0,5.0;" x1="403.6" x2="403.6" y1="65.1906" y2="476.5078"/><line style="stroke:#181818;stroke-width:0.4000000000000001;stroke-dasharray:5.0,5.0;" x1="647.6" x2="647.6" y1="121.2344" y2="476.5078"/><line style="stroke:#181818;stroke-width:0.4000000000000001;stroke-dasharray:5.0,5.0;" x1="892" x2="892" y1="65.1906" y2="476.5078"/><line style="stroke:#181818;stroke-width:0.4000000000000001;stroke-dasharray:5.0,5.0;" x1="956" x2="956" y1="65.1906" y2="476.5078"/><text fill="#000000" font-family="sans-serif" font-size="11.2" lengthAdjust="spacing" textLength="144" x="4" y="62.8281">Human Resource Manager</text><ellipse cx="78.4" cy="10.8" fill="#E3E3E3" rx="6.4" ry="6.4" style="stroke:#181818;stroke-width:0.4000000000000001;"/><path d="M78.4,17.2 L78.4,38.8 M68,23.6 L88.8,23.6 M78.4,38.8 L68,50.8 M78.4,38.8 L88.8,50.8 " fill="none" style="stroke:#181818;stroke-width:0.4000000000000001;"/><text fill="#000000" font-family="sans-serif" font-size="11.2" lengthAdjust="spacing" textLength="144" x="4" y="486.5359">Human Resource Manager</text><ellipse cx="78.4" cy="495.6984" fill="#E3E3E3" rx="6.4" ry="6.4" style="stroke:#181818;stroke-width:0.4000000000000001;"/><path d="M78.4,502.0984 L78.4,523.6984 M68,508.4984 L88.8,508.4984 M78.4,523.6984 L68,535.6984 M78.4,523.6984 L88.8,535.6984 " fill="none" style="stroke:#181818;stroke-width:0.4000000000000001;"/><rect fill="#E3E3E3" height="24.3906" rx="2" ry="2" style="stroke:#181818;stroke-width:0.4000000000000001;" width="79.2" x="364.4" y="40"/><text fill="#000000" font-family="sans-serif" font-size="11.2" lengthAdjust="spacing" textLength="68" x="370" y="56.4281">:CreateJobUI</text><rect fill="#E3E3E3" height="24.3906" rx="2" ry="2" style="stroke:#181818;stroke-width:0.4000000000000001;" width="79.2" x="364.4" y="475.7078"/><text fill="#000000" font-family="sans-serif" font-size="11.2" lengthAdjust="spacing" textLength="68" x="370" y="492.1359">:CreateJobUI</text><rect fill="#E3E3E3" height="24.3906" rx="2" ry="2" style="stroke:#181818;stroke-width:0.4000000000000001;" width="124" x="586" y="475.7078"/><text fill="#000000" font-family="sans-serif" font-size="11.2" lengthAdjust="spacing" textLength="112.8" x="591.6" y="492.1359">:CreateJobController</text><rect fill="#E3E3E3" height="24.3906" rx="2" ry="2" style="stroke:#181818;stroke-width:0.4000000000000001;" width="28.8" x="877.6" y="40"/><text fill="#000000" font-family="sans-serif" font-size="11.2" lengthAdjust="spacing" textLength="17.6" x="883.2" y="56.4281">Job</text><rect fill="#E3E3E3" height="24.3906" rx="2" ry="2" style="stroke:#181818;stroke-width:0.4000000000000001;" width="28.8" x="877.6" y="475.7078"/><text fill="#000000" font-family="sans-serif" font-size="11.2" lengthAdjust="spacing" textLength="17.6" x="883.2" y="492.1359">Job</text><rect fill="#E3E3E3" height="24.3906" rx="2" ry="2" style="stroke:#181818;stroke-width:0.4000000000000001;" width="83.2" x="914.4" y="40"/><text fill="#000000" font-family="sans-serif" font-size="11.2" lengthAdjust="spacing" textLength="72" x="920" y="56.4281">Organization</text><rect fill="#E3E3E3" height="24.3906" rx="2" ry="2" style="stroke:#181818;stroke-width:0.4000000000000001;" width="83.2" x="914.4" y="475.7078"/><text fill="#000000" font-family="sans-serif" font-size="11.2" lengthAdjust="spacing" textLength="72" x="920" y="492.1359">Organization</text><rect fill="#FFFFFF" height="388.9172" style="stroke:#181818;stroke-width:0.8000000000000002;" width="8" x="74.4" y="73.1906"/><rect fill="#FFFFFF" height="56.6391" style="stroke:#181818;stroke-width:0.8000000000000002;" width="8" x="400" y="90.2391"/><rect fill="#FFFFFF" height="117.2422" style="stroke:#181818;stroke-width:0.8000000000000002;" width="8" x="400" y="170.3266"/><rect fill="#FFFFFF" height="151.0906" style="stroke:#181818;stroke-width:0.8000000000000002;" width="8" x="400" y="311.0172"/><rect fill="#FFFFFF" height="70.3453" style="stroke:#181818;stroke-width:0.8000000000000002;" width="8" x="644" y="193.775"/><rect fill="#FFFFFF" height="104.1938" style="stroke:#181818;stroke-width:0.8000000000000002;" width="8" x="644" y="334.4656"/><rect fill="#FFFFFF" height="23.4484" style="stroke:#181818;stroke-width:0.8000000000000002;" width="8" x="888" y="217.2234"/><rect fill="#FFFFFF" height="57.2969" style="stroke:#181818;stroke-width:0.8000000000000002;" width="8" x="952" y="357.9141"/><polygon fill="#181818" points="390.4,87.0391,398.4,90.2391,390.4,93.4391,393.6,90.2391" style="stroke:#181818;stroke-width:0.8000000000000002;"/><line style="stroke:#181818;stroke-width:0.8000000000000002;" x1="82.4" x2="395.2" y1="90.2391" y2="90.2391"/><text fill="#000000" font-family="sans-serif" font-size="10.4" font-weight="bold" lengthAdjust="spacing" textLength="7.2" x="88" y="86.4453">1</text><text fill="#000000" font-family="sans-serif" font-size="10.4" lengthAdjust="spacing" textLength="127.2" x="98.4" y="86.4453">asks to create a new Skill</text><polygon fill="#181818" points="576.4,110.4875,584.4,113.6875,576.4,116.8875,579.6,113.6875" style="stroke:#181818;stroke-width:0.8000000000000002;"/><line style="stroke:#181818;stroke-width:0.8000000000000002;" x1="408" x2="581.2" y1="113.6875" y2="113.6875"/><text fill="#000000" font-family="sans-serif" font-size="10.4" font-weight="bold" lengthAdjust="spacing" textLength="7.2" x="413.6" y="109.8938">2</text><text fill="#000000" font-family="sans-serif" font-size="10.4" lengthAdjust="spacing" textLength="30.4" x="424" y="109.8938">create</text><rect fill="#E3E3E3" height="24.3906" rx="2" ry="2" style="stroke:#181818;stroke-width:0.4000000000000001;" width="124" x="586" y="96.6391"/><text fill="#000000" font-family="sans-serif" font-size="11.2" lengthAdjust="spacing" textLength="112.8" x="591.6" y="113.0672">:CreateJobController</text><polygon fill="#181818" points="91.2,143.6781,83.2,146.8781,91.2,150.0781,88,146.8781" style="stroke:#181818;stroke-width:0.8000000000000002;"/><line style="stroke:#181818;stroke-width:0.8000000000000002;stroke-dasharray:2.0,2.0;" x1="86.4" x2="403.2" y1="146.8781" y2="146.8781"/><text fill="#000000" font-family="sans-serif" font-size="10.4" font-weight="bold" lengthAdjust="spacing" textLength="7.2" x="96" y="143.0844">3</text><text fill="#000000" font-family="sans-serif" font-size="10.4" lengthAdjust="spacing" textLength="196" x="106.4" y="143.0844">requestData (jobName, jobDescription)</text><polygon fill="#181818" points="390.4,167.1266,398.4,170.3266,390.4,173.5266,393.6,170.3266" style="stroke:#181818;stroke-width:0.8000000000000002;"/><line style="stroke:#181818;stroke-width:0.8000000000000002;" x1="82.4" x2="395.2" y1="170.3266" y2="170.3266"/><text fill="#000000" font-family="sans-serif" font-size="10.4" font-weight="bold" lengthAdjust="spacing" textLength="7.2" x="88" y="166.5328">4</text><text fill="#000000" font-family="sans-serif" font-size="10.4" lengthAdjust="spacing" textLength="52" x="98.4" y="166.5328">types data</text><polygon fill="#181818" points="634.4,190.575,642.4,193.775,634.4,196.975,637.6,193.775" style="stroke:#181818;stroke-width:0.8000000000000002;"/><line style="stroke:#181818;stroke-width:0.8000000000000002;" x1="408" x2="639.2" y1="193.775" y2="193.775"/><text fill="#000000" font-family="sans-serif" font-size="10.4" font-weight="bold" lengthAdjust="spacing" textLength="7.2" x="413.6" y="189.9813">5</text><text fill="#000000" font-family="sans-serif" font-size="10.4" lengthAdjust="spacing" textLength="210.4" x="424" y="189.9813">validateJobData(jobName, jobDescription)</text><polygon fill="#181818" points="878.4,214.0234,886.4,217.2234,878.4,220.4234,881.6,217.2234" style="stroke:#181818;stroke-width:0.8000000000000002;"/><line style="stroke:#181818;stroke-width:0.8000000000000002;" x1="652" x2="883.2" y1="217.2234" y2="217.2234"/><text fill="#000000" font-family="sans-serif" font-size="10.4" font-weight="bold" lengthAdjust="spacing" textLength="7.2" x="657.6" y="213.4297">6</text><text fill="#000000" font-family="sans-serif" font-size="10.4" lengthAdjust="spacing" textLength="210.4" x="668" y="213.4297">validateJobData(jobName, jobDescription)</text><polygon fill="#181818" points="660.8,237.4719,652.8,240.6719,660.8,243.8719,657.6,240.6719" style="stroke:#181818;stroke-width:0.8000000000000002;"/><line style="stroke:#181818;stroke-width:0.8000000000000002;" x1="656" x2="891.2" y1="240.6719" y2="240.6719"/><text fill="#000000" font-family="sans-serif" font-size="10.4" font-weight="bold" lengthAdjust="spacing" textLength="7.2" x="665.6" y="236.8781">7</text><text fill="#000000" font-family="sans-serif" font-size="10.4" lengthAdjust="spacing" textLength="20" x="676" y="236.8781">true</text><polygon fill="#181818" points="416.8,260.9203,408.8,264.1203,416.8,267.3203,413.6,264.1203" style="stroke:#181818;stroke-width:0.8000000000000002;"/><line style="stroke:#181818;stroke-width:0.8000000000000002;" x1="412" x2="647.2" y1="264.1203" y2="264.1203"/><text fill="#000000" font-family="sans-serif" font-size="10.4" font-weight="bold" lengthAdjust="spacing" textLength="7.2" x="421.6" y="260.3266">8</text><text fill="#000000" font-family="sans-serif" font-size="10.4" lengthAdjust="spacing" textLength="20" x="432" y="260.3266">true</text><polygon fill="#181818" points="91.2,284.3688,83.2,287.5688,91.2,290.7688,88,287.5688" style="stroke:#181818;stroke-width:0.8000000000000002;"/><line style="stroke:#181818;stroke-width:0.8000000000000002;" x1="86.4" x2="403.2" y1="287.5688" y2="287.5688"/><text fill="#000000" font-family="sans-serif" font-size="10.4" font-weight="bold" lengthAdjust="spacing" textLength="7.2" x="96" y="283.775">9</text><text fill="#000000" font-family="sans-serif" font-size="10.4" lengthAdjust="spacing" textLength="288" x="106.4" y="283.775">validates data, shows job data and requests confirmation</text><polygon fill="#181818" points="390.4,307.8172,398.4,311.0172,390.4,314.2172,393.6,311.0172" style="stroke:#181818;stroke-width:0.8000000000000002;"/><line style="stroke:#181818;stroke-width:0.8000000000000002;" x1="82.4" x2="395.2" y1="311.0172" y2="311.0172"/><text fill="#000000" font-family="sans-serif" font-size="10.4" font-weight="bold" lengthAdjust="spacing" textLength="14.4" x="88" y="307.2234">10</text><text fill="#000000" font-family="sans-serif" font-size="10.4" lengthAdjust="spacing" textLength="69.6" x="105.6" y="307.2234">confirms data</text><polygon fill="#181818" points="634.4,331.2656,642.4,334.4656,634.4,337.6656,637.6,334.4656" style="stroke:#181818;stroke-width:0.8000000000000002;"/><line style="stroke:#181818;stroke-width:0.8000000000000002;" x1="408" x2="639.2" y1="334.4656" y2="334.4656"/><text fill="#000000" font-family="sans-serif" font-size="10.4" font-weight="bold" lengthAdjust="spacing" textLength="14.4" x="413.6" y="330.6719">11</text><text fill="#000000" font-family="sans-serif" font-size="10.4" lengthAdjust="spacing" textLength="178.4" x="431.2" y="330.6719">createJob(jobName, jobDescription)</text><polygon fill="#181818" points="942.4,354.7141,950.4,357.9141,942.4,361.1141,945.6,357.9141" style="stroke:#181818;stroke-width:0.8000000000000002;"/><line style="stroke:#181818;stroke-width:0.8000000000000002;" x1="652" x2="947.2" y1="357.9141" y2="357.9141"/><text fill="#000000" font-family="sans-serif" font-size="10.4" font-weight="bold" lengthAdjust="spacing" textLength="14.4" x="657.6" y="354.1203">12</text><text fill="#000000" font-family="sans-serif" font-size="10.4" lengthAdjust="spacing" textLength="178.4" x="675.2" y="354.1203">createJob(jobName, jobDescription)</text><line style="stroke:#181818;stroke-width:0.8000000000000002;" x1="960" x2="993.6" y1="381.3625" y2="381.3625"/><line style="stroke:#181818;stroke-width:0.8000000000000002;" x1="993.6" x2="993.6" y1="381.3625" y2="391.7625"/><line style="stroke:#181818;stroke-width:0.8000000000000002;" x1="960.8" x2="993.6" y1="391.7625" y2="391.7625"/><polygon fill="#181818" points="968.8,388.5625,960.8,391.7625,968.8,394.9625,965.6,391.7625" style="stroke:#181818;stroke-width:0.8000000000000002;"/><text fill="#000000" font-family="sans-serif" font-size="10.4" font-weight="bold" lengthAdjust="spacing" textLength="14.4" x="965.6" y="377.5688">13</text><text fill="#000000" font-family="sans-serif" font-size="10.4" lengthAdjust="spacing" textLength="56.8" x="983.2" y="377.5688">addJob(job)</text><polygon fill="#181818" points="660.8,412.0109,652.8,415.2109,660.8,418.4109,657.6,415.2109" style="stroke:#181818;stroke-width:0.8000000000000002;"/><line style="stroke:#181818;stroke-width:0.8000000000000002;" x1="656" x2="955.2" y1="415.2109" y2="415.2109"/><text fill="#000000" font-family="sans-serif" font-size="10.4" font-weight="bold" lengthAdjust="spacing" textLength="14.4" x="665.6" y="411.4172">14</text><text fill="#000000" font-family="sans-serif" font-size="10.4" lengthAdjust="spacing" textLength="16" x="683.2" y="411.4172">job</text><polygon fill="#181818" points="416.8,435.4594,408.8,438.6594,416.8,441.8594,413.6,438.6594" style="stroke:#181818;stroke-width:0.8000000000000002;"/><line style="stroke:#181818;stroke-width:0.8000000000000002;" x1="412" x2="647.2" y1="438.6594" y2="438.6594"/><text fill="#000000" font-family="sans-serif" font-size="10.4" font-weight="bold" lengthAdjust="spacing" textLength="14.4" x="421.6" y="434.8656">15</text><text fill="#000000" font-family="sans-serif" font-size="10.4" lengthAdjust="spacing" textLength="16" x="439.2" y="434.8656">job</text><polygon fill="#181818" points="87.2,458.9078,79.2,462.1078,87.2,465.3078,84,462.1078" style="stroke:#181818;stroke-width:0.8000000000000002;"/><line style="stroke:#181818;stroke-width:0.8000000000000002;" x1="82.4" x2="403.2" y1="462.1078" y2="462.1078"/><text fill="#000000" font-family="sans-serif" font-size="10.4" font-weight="bold" lengthAdjust="spacing" textLength="14.4" x="92" y="458.3141">16</text><text fill="#000000" font-family="sans-serif" font-size="10.4" lengthAdjust="spacing" textLength="136" x="109.6" y="458.3141">displays operation success</text><!--SRC=[bLJBSjim3BppAp2-fCaaF-133tLcccIIUiPfFW0cOPkrHAea5TVz-eBKmvGbDorFah1OB1QW_5wR2XsMK5fZvSxPaY2uceJl8nNAFMxfDHmB0aSoeDaMES3lKDc3DblOOE592Ao3DNMv9YV4rKuhWesrOMr_SKW6ws3sK9TeO4NUrauIlA3X2cu6wE5XzIAODsYfApG1PlE58mpqPDTlZmdnzdW9iB0cE5iKBTNY- -fv26LCYZmjlmm3IxT5etzZqDOan7BrDQdLxqoTH0be3x_0tMUM0ND6xZq42p9900H31tZTww8uuNiM5WxPkMgJaimymCpC7p_Vt72D1YQ6kOv-rkG35zybUL443wGEe33WY8xv8cWERTuzW-3J3xl-XYNT0Z_SavTELz60Qw4e5pqidRSVZXNvfk8WOReRJdZ7GgjcM572PGKvGqyzSYfPeOqd5qWb7Lq59ZdJ7KzImMfu_lyZPiJJAugBD8h64okSsavNQeJBN9xawTGsLdz4aSmP0Hhtczbt_JOJk-MBQmy-DjiuXqP1lrRIcersPMUac2ZORqQ-4MsUFwtXv68Cba9sz_VZTVXBjvrRV7F_ZNDwnzB5FtSnSlRKg5JBUtqHsNR6c24aiszKQ33kGUR5AUVJLTfN1Huzs8fScXluMaholi6VJIvxZN-tFm00]--></g></svg>