<?xml version="1.0" encoding="us-ascii" standalone="no"?><svg xmlns="http://www.w3.org/2000/svg" xmlns:xlink="http://www.w3.org/1999/xlink" contentStyleType="text/css" height="502px" preserveAspectRatio="none" style="width:373px;height:502px;background:#FFFFFF;" version="1.1" viewBox="0 0 373 502" width="373px" zoomAndPan="magnify"><defs/><g><text fill="#000000" font-family="sans-serif" font-size="14" font-weight="bold" lengthAdjust="spacing" textLength="286" x="42.5" y="28.5352">System Sequence Diagram (SSD) - US07</text><rect fill="#FFFFFF" height="250.7949" style="stroke:#181818;stroke-width:1.0;" width="10" x="33" y="145.4648"/><rect fill="#FFFFFF" height="29.3105" style="stroke:#181818;stroke-width:1.0;" width="10" x="329" y="166.7754"/><rect fill="#FFFFFF" height="29.3105" style="stroke:#181818;stroke-width:1.0;" width="10" x="329" y="225.3965"/><rect fill="#FFFFFF" height="29.3105" style="stroke:#181818;stroke-width:1.0;" width="10" x="329" y="284.0176"/><rect fill="#FFFFFF" height="44.6211" style="stroke:#181818;stroke-width:1.0;" width="10" x="329" y="342.6387"/><line style="stroke:#181818;stroke-width:0.5;stroke-dasharray:5.0,5.0;" x1="38" x2="38" y1="135.4648" y2="405.2598"/><line style="stroke:#181818;stroke-width:0.5;stroke-dasharray:5.0,5.0;" x1="334" x2="334" y1="135.4648" y2="405.2598"/><text fill="#000000" font-family="sans-serif" font-size="14" lengthAdjust="spacing" textLength="33" x="16.5" y="116.0234">Fleet</text><text fill="#000000" font-family="sans-serif" font-size="14" lengthAdjust="spacing" textLength="60" x="5" y="132.5117">Manager</text><ellipse cx="38" cy="50.9883" fill="#E3E3E3" rx="8" ry="8" style="stroke:#181818;stroke-width:0.5;"/><path d="M38,58.9883 L38,85.9883 M25,66.9883 L51,66.9883 M38,85.9883 L25,100.9883 M38,85.9883 L51,100.9883 " fill="none" style="stroke:#181818;stroke-width:0.5;"/><text fill="#000000" font-family="sans-serif" font-size="14" lengthAdjust="spacing" textLength="33" x="16.5" y="417.7949">Fleet</text><text fill="#000000" font-family="sans-serif" font-size="14" lengthAdjust="spacing" textLength="60" x="5" y="434.2832">Manager</text><ellipse cx="38" cy="445.7363" fill="#E3E3E3" rx="8" ry="8" style="stroke:#181818;stroke-width:0.5;"/><path d="M38,453.7363 L38,480.7363 M25,461.7363 L51,461.7363 M38,480.7363 L25,495.7363 M38,480.7363 L51,495.7363 " fill="none" style="stroke:#181818;stroke-width:0.5;"/><rect fill="#E3E3E3" height="30.4883" rx="2.5" ry="2.5" style="stroke:#181818;stroke-width:0.5;" width="66" x="301" y="103.9766"/><text fill="#000000" font-family="sans-serif" font-size="14" lengthAdjust="spacing" textLength="52" x="308" y="124.5117">:System</text><rect fill="#E3E3E3" height="30.4883" rx="2.5" ry="2.5" style="stroke:#181818;stroke-width:0.5;" width="66" x="301" y="404.2598"/><text fill="#000000" font-family="sans-serif" font-size="14" lengthAdjust="spacing" textLength="52" x="308" y="424.7949">:System</text><rect fill="#FFFFFF" height="250.7949" style="stroke:#181818;stroke-width:1.0;" width="10" x="33" y="145.4648"/><rect fill="#FFFFFF" height="29.3105" style="stroke:#181818;stroke-width:1.0;" width="10" x="329" y="166.7754"/><rect fill="#FFFFFF" height="29.3105" style="stroke:#181818;stroke-width:1.0;" width="10" x="329" y="225.3965"/><rect fill="#FFFFFF" height="29.3105" style="stroke:#181818;stroke-width:1.0;" width="10" x="329" y="284.0176"/><rect fill="#FFFFFF" height="44.6211" style="stroke:#181818;stroke-width:1.0;" width="10" x="329" y="342.6387"/><polygon fill="#181818" points="317,162.7754,327,166.7754,317,170.7754,321,166.7754" style="stroke:#181818;stroke-width:1.0;"/><line style="stroke:#181818;stroke-width:1.0;" x1="43" x2="323" y1="166.7754" y2="166.7754"/><text fill="#000000" font-family="sans-serif" font-size="13" font-weight="bold" lengthAdjust="spacing" textLength="9" x="50" y="162.0332">1</text><text fill="#000000" font-family="sans-serif" font-size="13" lengthAdjust="spacing" textLength="139" x="63" y="162.0332">asks a list of vehicle's</text><polygon fill="#181818" points="54,192.0859,44,196.0859,54,200.0859,50,196.0859" style="stroke:#181818;stroke-width:1.0;"/><line style="stroke:#181818;stroke-width:1.0;stroke-dasharray:2.0,2.0;" x1="48" x2="333" y1="196.0859" y2="196.0859"/><text fill="#000000" font-family="sans-serif" font-size="13" font-weight="bold" lengthAdjust="spacing" textLength="9" x="60" y="191.3438">2</text><text fill="#000000" font-family="sans-serif" font-size="13" lengthAdjust="spacing" textLength="132" x="73" y="191.3438">show list of vehicle's</text><polygon fill="#181818" points="317,221.3965,327,225.3965,317,229.3965,321,225.3965" style="stroke:#181818;stroke-width:1.0;"/><line style="stroke:#181818;stroke-width:1.0;" x1="43" x2="323" y1="225.3965" y2="225.3965"/><text fill="#000000" font-family="sans-serif" font-size="13" font-weight="bold" lengthAdjust="spacing" textLength="9" x="50" y="220.6543">3</text><text fill="#000000" font-family="sans-serif" font-size="13" lengthAdjust="spacing" textLength="85" x="63" y="220.6543">select vehicle</text><polygon fill="#181818" points="54,250.707,44,254.707,54,258.707,50,254.707" style="stroke:#181818;stroke-width:1.0;"/><line style="stroke:#181818;stroke-width:1.0;stroke-dasharray:2.0,2.0;" x1="48" x2="333" y1="254.707" y2="254.707"/><text fill="#000000" font-family="sans-serif" font-size="13" font-weight="bold" lengthAdjust="spacing" textLength="9" x="60" y="249.9648">4</text><text fill="#000000" font-family="sans-serif" font-size="13" lengthAdjust="spacing" textLength="249" x="73" y="249.9648">requests data (i.e. Date, Kms of vehicle)</text><polygon fill="#181818" points="317,280.0176,327,284.0176,317,288.0176,321,284.0176" style="stroke:#181818;stroke-width:1.0;"/><line style="stroke:#181818;stroke-width:1.0;" x1="43" x2="323" y1="284.0176" y2="284.0176"/><text fill="#000000" font-family="sans-serif" font-size="13" font-weight="bold" lengthAdjust="spacing" textLength="9" x="50" y="279.2754">5</text><text fill="#000000" font-family="sans-serif" font-size="13" lengthAdjust="spacing" textLength="131" x="63" y="279.2754">types requested data</text><polygon fill="#181818" points="54,309.3281,44,313.3281,54,317.3281,50,313.3281" style="stroke:#181818;stroke-width:1.0;"/><line style="stroke:#181818;stroke-width:1.0;stroke-dasharray:2.0,2.0;" x1="48" x2="333" y1="313.3281" y2="313.3281"/><text fill="#000000" font-family="sans-serif" font-size="13" font-weight="bold" lengthAdjust="spacing" textLength="9" x="60" y="308.5859">6</text><text fill="#000000" font-family="sans-serif" font-size="13" lengthAdjust="spacing" textLength="227" x="73" y="308.5859">show data and request confirmation</text><polygon fill="#181818" points="317,338.6387,327,342.6387,317,346.6387,321,342.6387" style="stroke:#181818;stroke-width:1.0;"/><line style="stroke:#181818;stroke-width:1.0;" x1="43" x2="323" y1="342.6387" y2="342.6387"/><text fill="#000000" font-family="sans-serif" font-size="13" font-weight="bold" lengthAdjust="spacing" textLength="9" x="50" y="337.8965">7</text><text fill="#000000" font-family="sans-serif" font-size="13" lengthAdjust="spacing" textLength="87" x="63" y="337.8965">confirms data</text><polygon fill="#181818" points="54,383.2598,44,387.2598,54,391.2598,50,387.2598" style="stroke:#181818;stroke-width:1.0;"/><line style="stroke:#181818;stroke-width:1.0;stroke-dasharray:2.0,2.0;" x1="48" x2="333" y1="387.2598" y2="387.2598"/><text fill="#000000" font-family="sans-serif" font-size="13" font-weight="bold" lengthAdjust="spacing" textLength="9" x="60" y="374.8623">8</text><text fill="#000000" font-family="sans-serif" font-size="13" lengthAdjust="spacing" textLength="197" x="73" y="367.207">displays operation success and</text><text fill="#000000" font-family="sans-serif" font-size="13" lengthAdjust="spacing" textLength="153" x="73" y="382.5176">show next check-up KM</text><!--SRC=[dP0zRy8m48Rt_8eJIq5gKBTA39re5yGKTMEvEfV4Yh_gkq3pxsiCeGnq04-sVEzpZrxkjGiOqOBrpgikUaiWSQ22Bpy1LOyjLJ8QWaXAqBNcUe0xhFr1knOQD4n58LhIQ3Moa8MAlWToYc2jiJsEpwjglO0IFgkNrwB0GRmRx1V5T5VY8ym-3970pctHfRrn1iZmReFn8r6HLefMEg0JcArEE_B4wPeXUez2Vv42qfbUKBvDPgiKwnaGZ6O1ty2UEgqCFN5EN40J6Sxd72yJwK9TfHRyuHzIJJTPDvMOJAfu0ZmY4e-5ip3KA0XplQGbh5Fy6JQMh-GMTxl968WdFjLvmSDLPJjqzSG3vLsZeqNHtjsjTWxpmqwrvc1mJ0K5Yja1U52AcBFapcLfHpz9j2FLbqE0pVQsvoy0]--></g></svg>