<?xml version="1.0" encoding="us-ascii" standalone="no"?><svg xmlns="http://www.w3.org/2000/svg" xmlns:xlink="http://www.w3.org/1999/xlink" contentStyleType="text/css" height="412px" preserveAspectRatio="none" style="width:641px;height:412px;background:#FFFFFF;" version="1.1" viewBox="0 0 641 412" width="641px" zoomAndPan="magnify"><defs/><g><text fill="#000000" font-family="sans-serif" font-size="14" font-weight="bold" lengthAdjust="spacing" textLength="365" x="140.25" y="28.5352">System Sequence Diagram (SSD) - Alternative Two</text><rect fill="#FFFFFF" height="160.5527" style="stroke:#181818;stroke-width:1.0;" width="10" x="64.5" y="145.4648"/><rect fill="#FFFFFF" height="29.3105" style="stroke:#181818;stroke-width:1.0;" width="10" x="517.5" y="166.7754"/><rect fill="#FFFFFF" height="35.3105" style="stroke:#181818;stroke-width:1.0;" width="10" x="517.5" y="225.3965"/><line style="stroke:#181818;stroke-width:0.5;stroke-dasharray:5.0,5.0;" x1="69" x2="69" y1="135.4648" y2="315.0176"/><line style="stroke:#181818;stroke-width:0.5;stroke-dasharray:5.0,5.0;" x1="522.5" x2="522.5" y1="135.4648" y2="315.0176"/><text fill="#000000" font-family="sans-serif" font-size="14" lengthAdjust="spacing" textLength="123" x="5" y="116.0234">Human Resources</text><text fill="#000000" font-family="sans-serif" font-size="14" lengthAdjust="spacing" textLength="60" x="36.5" y="132.5117">Manager</text><ellipse cx="69.5" cy="50.9883" fill="#E3E3E3" rx="8" ry="8" style="stroke:#181818;stroke-width:0.5;"/><path d="M69.5,58.9883 L69.5,85.9883 M56.5,66.9883 L82.5,66.9883 M69.5,85.9883 L56.5,100.9883 M69.5,85.9883 L82.5,100.9883 " fill="none" style="stroke:#181818;stroke-width:0.5;"/><text fill="#000000" font-family="sans-serif" font-size="14" lengthAdjust="spacing" textLength="123" x="5" y="327.5527">Human Resources</text><text fill="#000000" font-family="sans-serif" font-size="14" lengthAdjust="spacing" textLength="60" x="36.5" y="344.041">Manager</text><ellipse cx="69.5" cy="355.4941" fill="#E3E3E3" rx="8" ry="8" style="stroke:#181818;stroke-width:0.5;"/><path d="M69.5,363.4941 L69.5,390.4941 M56.5,371.4941 L82.5,371.4941 M69.5,390.4941 L56.5,405.4941 M69.5,390.4941 L82.5,405.4941 " fill="none" style="stroke:#181818;stroke-width:0.5;"/><rect fill="#E3E3E3" height="30.4883" rx="2.5" ry="2.5" style="stroke:#181818;stroke-width:0.5;" width="66" x="489.5" y="103.9766"/><text fill="#000000" font-family="sans-serif" font-size="14" lengthAdjust="spacing" textLength="52" x="496.5" y="124.5117">:System</text><rect fill="#E3E3E3" height="30.4883" rx="2.5" ry="2.5" style="stroke:#181818;stroke-width:0.5;" width="66" x="489.5" y="314.0176"/><text fill="#000000" font-family="sans-serif" font-size="14" lengthAdjust="spacing" textLength="52" x="496.5" y="334.5527">:System</text><rect fill="#FFFFFF" height="160.5527" style="stroke:#181818;stroke-width:1.0;" width="10" x="64.5" y="145.4648"/><rect fill="#FFFFFF" height="29.3105" style="stroke:#181818;stroke-width:1.0;" width="10" x="517.5" y="166.7754"/><rect fill="#FFFFFF" height="35.3105" style="stroke:#181818;stroke-width:1.0;" width="10" x="517.5" y="225.3965"/><polygon fill="#181818" points="505.5,162.7754,515.5,166.7754,505.5,170.7754,509.5,166.7754" style="stroke:#181818;stroke-width:1.0;"/><line style="stroke:#181818;stroke-width:1.0;" x1="74.5" x2="511.5" y1="166.7754" y2="166.7754"/><text fill="#000000" font-family="sans-serif" font-size="13" font-weight="bold" lengthAdjust="spacing" textLength="9" x="81.5" y="162.0332">1</text><text fill="#000000" font-family="sans-serif" font-size="13" lengthAdjust="spacing" textLength="159" x="94.5" y="162.0332">asks to create a new skill</text><polygon fill="#181818" points="85.5,192.0859,75.5,196.0859,85.5,200.0859,81.5,196.0859" style="stroke:#181818;stroke-width:1.0;"/><line style="stroke:#181818;stroke-width:1.0;stroke-dasharray:2.0,2.0;" x1="79.5" x2="521.5" y1="196.0859" y2="196.0859"/><text fill="#000000" font-family="sans-serif" font-size="13" font-weight="bold" lengthAdjust="spacing" textLength="9" x="91.5" y="191.3438">2</text><text fill="#000000" font-family="sans-serif" font-size="13" lengthAdjust="spacing" textLength="295" x="104.5" y="191.3438">requests data (i.e. skill name, skill description)</text><polygon fill="#181818" points="505.5,221.3965,515.5,225.3965,505.5,229.3965,509.5,225.3965" style="stroke:#181818;stroke-width:1.0;"/><line style="stroke:#181818;stroke-width:1.0;" x1="74.5" x2="511.5" y1="225.3965" y2="225.3965"/><text fill="#000000" font-family="sans-serif" font-size="13" font-weight="bold" lengthAdjust="spacing" textLength="9" x="81.5" y="220.6543">3</text><text fill="#000000" font-family="sans-serif" font-size="13" lengthAdjust="spacing" textLength="131" x="94.5" y="220.6543">types requested data</text><line style="stroke:#181818;stroke-width:1.0;stroke-dasharray:2.0,2.0;" x1="527.5" x2="569.5" y1="259.707" y2="259.707"/><line style="stroke:#181818;stroke-width:1.0;stroke-dasharray:2.0,2.0;" x1="569.5" x2="569.5" y1="259.707" y2="272.707"/><line style="stroke:#181818;stroke-width:1.0;stroke-dasharray:2.0,2.0;" x1="522.5" x2="569.5" y1="272.707" y2="272.707"/><polygon fill="#181818" points="532.5,268.707,522.5,272.707,532.5,276.707,528.5,272.707" style="stroke:#181818;stroke-width:1.0;"/><text fill="#000000" font-family="sans-serif" font-size="13" font-weight="bold" lengthAdjust="spacing" textLength="9" x="534.5" y="254.9648">4</text><text fill="#000000" font-family="sans-serif" font-size="13" lengthAdjust="spacing" textLength="87" x="547.5" y="254.9648">validates data</text><polygon fill="#181818" points="85.5,293.0176,75.5,297.0176,85.5,301.0176,81.5,297.0176" style="stroke:#181818;stroke-width:1.0;"/><line style="stroke:#181818;stroke-width:1.0;stroke-dasharray:2.0,2.0;" x1="79.5" x2="521.5" y1="297.0176" y2="297.0176"/><text fill="#000000" font-family="sans-serif" font-size="13" font-weight="bold" lengthAdjust="spacing" textLength="9" x="91.5" y="292.2754">5</text><text fill="#000000" font-family="sans-serif" font-size="13" lengthAdjust="spacing" textLength="411" x="104.5" y="292.2754">shows incorrect data format and displays operation unsuccessful</text><!--SRC=[bPB1Ri8m38RlVGgB4qY31-0mQH87BbpM7NVnKbCY4YUB7Qg-_T8MAZPjICl9aVzy_-yaShOSCQ477pYOKmgUG5EcIkPEH7F6bchj7K4YeyYjknV82PlGMMxXY4wegjHgaTQzA7cewJCJ6uATnNQGB-jwju8rl3YbnAZsGl3MXQh2h86p_w1KQgCXmMAVFJAyaeIS3Cax7v1BbhG05DY_7ggIGAsn4LbXiPqin-PKZY1xGQLHNS5rbGsidsyHj-N0MK03c4I35e6fWpAXS_EH6NGZmzswWjQ5EQ2tvPxArA823Ih2qcveC_60qTFJjMv8JB9HRU3Lp6leJwkViRMF93SlQaQpVmUUQHTqjX18ldCUvFbrT3c5Ji2o2MduBTCD74Fog81SGbg93dk142dXC3jabcpA-yenkmU-Nm00]--></g></svg>