<?xml version="1.0" encoding="us-ascii" standalone="no"?><svg xmlns="http://www.w3.org/2000/svg" xmlns:xlink="http://www.w3.org/1999/xlink" contentStyleType="text/css" height="447px" preserveAspectRatio="none" style="width:534px;height:447px;background:#FFFFFF;" version="1.1" viewBox="0 0 534 447" width="534px" zoomAndPan="magnify"><defs/><g><text fill="#000000" font-family="sans-serif" font-size="14" font-weight="bold" lengthAdjust="spacing" textLength="276" x="130.5" y="30.1074">System Sequence Diagram (SSD) - US04</text><rect fill="#FFFFFF" height="222.0371" style="stroke:#181818;stroke-width:1.0;" width="10" x="106" y="133.2422"/><rect fill="#FFFFFF" height="31.291" style="stroke:#181818;stroke-width:1.0;" width="10" x="481" y="182.8242"/><rect fill="#FFFFFF" height="31.291" style="stroke:#181818;stroke-width:1.0;" width="10" x="481" y="252.4063"/><rect fill="#FFFFFF" height="31.291" style="stroke:#181818;stroke-width:1.0;" width="10" x="481" y="314.9883"/><rect fill="none" height="81.873" style="stroke:#000000;stroke-width:1.5;" width="518" x="10" y="140.2422"/><line style="stroke:#181818;stroke-width:0.5;stroke-dasharray:5.0,5.0;" x1="111" x2="111" y1="123.2422" y2="364.2793"/><line style="stroke:#181818;stroke-width:0.5;stroke-dasharray:5.0,5.0;" x1="486" x2="486" y1="123.2422" y2="364.2793"/><text fill="#000000" font-family="sans-serif" font-size="14" lengthAdjust="spacing" textLength="176" x="20" y="119.7285">Human Resources Manager</text><ellipse cx="111" cy="53.1211" fill="#E3E3E3" rx="8" ry="8" style="stroke:#181818;stroke-width:0.5;"/><path d="M111,61.1211 L111,88.1211 M98,69.1211 L124,69.1211 M111,88.1211 L98,103.1211 M111,88.1211 L124,103.1211 " fill="none" style="stroke:#181818;stroke-width:0.5;"/><text fill="#000000" font-family="sans-serif" font-size="14" lengthAdjust="spacing" textLength="176" x="20" y="378.3867">Human Resources Manager</text><ellipse cx="111" cy="390.4004" fill="#E3E3E3" rx="8" ry="8" style="stroke:#181818;stroke-width:0.5;"/><path d="M111,398.4004 L111,425.4004 M98,406.4004 L124,406.4004 M111,425.4004 L98,440.4004 M111,425.4004 L124,440.4004 " fill="none" style="stroke:#181818;stroke-width:0.5;"/><rect fill="#E3E3E3" height="32.6211" rx="2.5" ry="2.5" style="stroke:#181818;stroke-width:0.5;" width="64" x="454" y="89.6211"/><text fill="#000000" font-family="sans-serif" font-size="14" lengthAdjust="spacing" textLength="50" x="461" y="111.7285">:System</text><rect fill="#E3E3E3" height="32.6211" rx="2.5" ry="2.5" style="stroke:#181818;stroke-width:0.5;" width="64" x="454" y="363.2793"/><text fill="#000000" font-family="sans-serif" font-size="14" lengthAdjust="spacing" textLength="50" x="461" y="385.3867">:System</text><rect fill="#FFFFFF" height="222.0371" style="stroke:#181818;stroke-width:1.0;" width="10" x="106" y="133.2422"/><rect fill="#FFFFFF" height="31.291" style="stroke:#181818;stroke-width:1.0;" width="10" x="481" y="182.8242"/><rect fill="#FFFFFF" height="31.291" style="stroke:#181818;stroke-width:1.0;" width="10" x="481" y="252.4063"/><rect fill="#FFFFFF" height="31.291" style="stroke:#181818;stroke-width:1.0;" width="10" x="481" y="314.9883"/><path d="M10,140.2422 L83,140.2422 L83,149.5332 L73,159.5332 L10,159.5332 L10,140.2422 " fill="#EEEEEE" style="stroke:#000000;stroke-width:1.5;"/><rect fill="none" height="81.873" style="stroke:#000000;stroke-width:1.5;" width="518" x="10" y="140.2422"/><text fill="#000000" font-family="sans-serif" font-size="13" font-weight="bold" lengthAdjust="spacing" textLength="28" x="25" y="155.2705">loop</text><polygon fill="#181818" points="469,178.8242,479,182.8242,469,186.8242,473,182.8242" style="stroke:#181818;stroke-width:1.0;"/><line style="stroke:#181818;stroke-width:1.0;" x1="116" x2="475" y1="182.8242" y2="182.8242"/><text fill="#000000" font-family="sans-serif" font-size="13" font-weight="bold" lengthAdjust="spacing" textLength="7" x="123" y="177.5615">1</text><text fill="#000000" font-family="sans-serif" font-size="13" lengthAdjust="spacing" textLength="216" x="134" y="177.5615">asks to assign skills to a collaborator</text><polygon fill="#181818" points="127,210.1152,117,214.1152,127,218.1152,123,214.1152" style="stroke:#181818;stroke-width:1.0;"/><line style="stroke:#181818;stroke-width:1.0;stroke-dasharray:2.0,2.0;" x1="121" x2="485" y1="214.1152" y2="214.1152"/><text fill="#000000" font-family="sans-serif" font-size="13" font-weight="bold" lengthAdjust="spacing" textLength="7" x="133" y="208.8525">2</text><text fill="#000000" font-family="sans-serif" font-size="13" lengthAdjust="spacing" textLength="106" x="144" y="208.8525">request skill name</text><polygon fill="#181818" points="469,248.4063,479,252.4063,469,256.4063,473,252.4063" style="stroke:#181818;stroke-width:1.0;"/><line style="stroke:#181818;stroke-width:1.0;" x1="116" x2="475" y1="252.4063" y2="252.4063"/><text fill="#000000" font-family="sans-serif" font-size="13" font-weight="bold" lengthAdjust="spacing" textLength="7" x="123" y="247.1436">3</text><text fill="#000000" font-family="sans-serif" font-size="13" lengthAdjust="spacing" textLength="90" x="134" y="247.1436">terminates task</text><polygon fill="#181818" points="127,279.6973,117,283.6973,127,287.6973,123,283.6973" style="stroke:#181818;stroke-width:1.0;"/><line style="stroke:#181818;stroke-width:1.0;stroke-dasharray:2.0,2.0;" x1="121" x2="485" y1="283.6973" y2="283.6973"/><text fill="#000000" font-family="sans-serif" font-size="13" font-weight="bold" lengthAdjust="spacing" textLength="7" x="133" y="278.4346">4</text><text fill="#000000" font-family="sans-serif" font-size="13" lengthAdjust="spacing" textLength="330" x="144" y="278.4346">shows skills linked to a collaborator and ask confirmation</text><polygon fill="#181818" points="469,310.9883,479,314.9883,469,318.9883,473,314.9883" style="stroke:#181818;stroke-width:1.0;"/><line style="stroke:#181818;stroke-width:1.0;" x1="116" x2="475" y1="314.9883" y2="314.9883"/><text fill="#000000" font-family="sans-serif" font-size="13" font-weight="bold" lengthAdjust="spacing" textLength="7" x="123" y="309.7256">5</text><text fill="#000000" font-family="sans-serif" font-size="13" lengthAdjust="spacing" textLength="78" x="134" y="309.7256">confirms data</text><polygon fill="#181818" points="127,342.2793,117,346.2793,127,350.2793,123,346.2793" style="stroke:#181818;stroke-width:1.0;"/><line style="stroke:#181818;stroke-width:1.0;stroke-dasharray:2.0,2.0;" x1="121" x2="485" y1="346.2793" y2="346.2793"/><text fill="#000000" font-family="sans-serif" font-size="13" font-weight="bold" lengthAdjust="spacing" textLength="7" x="133" y="341.0166">6</text><text fill="#000000" font-family="sans-serif" font-size="13" lengthAdjust="spacing" textLength="151" x="144" y="341.0166">display success message</text><!--SRC=[dPB1JiCm38RlUGfh9pXCui1f1qv3uiA5YWVmKg-BcZWbTfdwzhZhMX2m8P534jdE_t-s8ctW3WicI9cpFvIS2BJqv6J9TEXRRAZI8H8KyehSnAy5Si0w7mCtiCSev9m6jT9g4AK45Rtrn9vW6x0Pos-gQdiBQtYjxkwTmrupzsb7nUvUSu7LKv-GuOKazyMJm3Eo-PSLeC1Zwc8UY9nPQ_2XGrPORIQlKyLqFOc5TrJwVE808ERSZUTfpHbOFyoq6vDe1JJRAQ5Xi3PZd0BWSuouomKDSn4Pr-8rcy-9i-hQ31QpZGtHHY8wQGDZelb1JT-bB4XSkqkqIYK5jdf3D7Bt5z159ZdaeypTni0jrJ-R1kHw7905UHzAGWsPBxExQtC-ImZKgFX_xZf85t40wRtz5O5ac_sMAr3kr_W7]--></g></svg>