<?xml version="1.0" encoding="us-ascii" standalone="no"?><svg xmlns="http://www.w3.org/2000/svg" xmlns:xlink="http://www.w3.org/1999/xlink" contentStyleType="text/css" height="1163px" preserveAspectRatio="none" style="width:1939px;height:1163px;background:#FFFFFF;" version="1.1" viewBox="0 0 1939 1163" width="1939px" zoomAndPan="magnify"><defs/><g><rect fill="#FFFFFF" height="968.6426" style="stroke:#181818;stroke-width:1.0;" width="10" x="74" y="93.6211"/><rect fill="#FFFFFF" height="818.8965" style="stroke:#181818;stroke-width:1.0;" width="10" x="362" y="243.3672"/><rect fill="#FFFFFF" height="712.6934" style="stroke:#181818;stroke-width:1.0;" width="10" x="693" y="318.2793"/><rect fill="#FFFFFF" height="31.291" style="stroke:#181818;stroke-width:1.0;" width="10" x="895.5" y="349.5703"/><rect fill="#FFFFFF" height="103.1641" style="stroke:#181818;stroke-width:1.0;" width="10" x="895.5" y="412.1523"/><rect fill="#FFFFFF" height="31.291" style="stroke:#181818;stroke-width:1.0;" width="10" x="1002.5" y="546.6074"/><rect fill="#FFFFFF" height="31.291" style="stroke:#181818;stroke-width:1.0;" width="10" x="1126" y="609.1895"/><rect fill="#FFFFFF" height="31.291" style="stroke:#181818;stroke-width:1.0;" width="10" x="1526" y="698.0625"/><rect fill="#FFFFFF" height="31.291" style="stroke:#181818;stroke-width:1.0;" width="10" x="1526" y="760.6445"/><rect fill="#FFFFFF" height="31.291" style="stroke:#181818;stroke-width:1.0;" width="10" x="1526" y="823.2266"/><rect fill="#FFFFFF" height="75.582" style="stroke:#181818;stroke-width:1.0;" width="10" x="1640.5" y="885.8086"/><rect fill="#FFFFFF" height="38.291" style="stroke:#181818;stroke-width:1.0;" width="10" x="1842.5" y="961.3906"/><rect fill="none" height="313.9102" style="stroke:#000000;stroke-width:1.5;" width="1389.5" x="544" y="655.4805"/><line style="stroke:#181818;stroke-width:0.5;stroke-dasharray:5.0,5.0;" x1="79" x2="79" y1="83.6211" y2="1080.2637"/><line style="stroke:#181818;stroke-width:0.5;stroke-dasharray:5.0,5.0;" x1="367" x2="367" y1="83.6211" y2="1080.2637"/><line style="stroke:#181818;stroke-width:0.5;stroke-dasharray:5.0,5.0;" x1="698" x2="698" y1="283.1777" y2="1080.2637"/><line style="stroke:#181818;stroke-width:0.5;stroke-dasharray:5.0,5.0;" x1="900" x2="900" y1="83.6211" y2="1080.2637"/><line style="stroke:#181818;stroke-width:0.5;stroke-dasharray:5.0,5.0;" x1="1007" x2="1007" y1="83.6211" y2="1080.2637"/><line style="stroke:#181818;stroke-width:0.5;stroke-dasharray:5.0,5.0;" x1="1131" x2="1131" y1="83.6211" y2="1080.2637"/><line style="stroke:#181818;stroke-width:0.5;stroke-dasharray:5.0,5.0;" x1="1294" x2="1294" y1="83.6211" y2="1080.2637"/><line style="stroke:#181818;stroke-width:0.5;stroke-dasharray:5.0,5.0;" x1="1440" x2="1440" y1="83.6211" y2="1080.2637"/><line style="stroke:#181818;stroke-width:0.5;stroke-dasharray:5.0,5.0;" x1="1531" x2="1531" y1="83.6211" y2="1080.2637"/><line style="stroke:#181818;stroke-width:0.5;stroke-dasharray:5.0,5.0;" x1="1645" x2="1645" y1="83.6211" y2="1080.2637"/><line style="stroke:#181818;stroke-width:0.5;stroke-dasharray:5.0,5.0;" x1="1847.5" x2="1847.5" y1="83.6211" y2="1080.2637"/><text fill="#000000" font-family="sans-serif" font-size="14" lengthAdjust="spacing" textLength="142" x="5" y="80.1074">Vehicle Fleet Manager</text><ellipse cx="79" cy="13.5" fill="#E3E3E3" rx="8" ry="8" style="stroke:#181818;stroke-width:0.5;"/><path d="M79,21.5 L79,48.5 M66,29.5 L92,29.5 M79,48.5 L66,63.5 M79,48.5 L92,63.5 " fill="none" style="stroke:#181818;stroke-width:0.5;"/><text fill="#000000" font-family="sans-serif" font-size="14" lengthAdjust="spacing" textLength="142" x="5" y="1094.3711">Vehicle Fleet Manager</text><ellipse cx="79" cy="1106.3848" fill="#E3E3E3" rx="8" ry="8" style="stroke:#181818;stroke-width:0.5;"/><path d="M79,1114.3848 L79,1141.3848 M66,1122.3848 L92,1122.3848 M79,1141.3848 L66,1156.3848 M79,1141.3848 L92,1156.3848 " fill="none" style="stroke:#181818;stroke-width:0.5;"/><rect fill="#E3E3E3" height="32.6211" rx="2.5" ry="2.5" style="stroke:#181818;stroke-width:0.5;" width="238" x="248" y="50"/><text fill="#000000" font-family="sans-serif" font-size="14" lengthAdjust="spacing" textLength="224" x="255" y="72.1074">:ListVehiclesPendingMaintenanceUI</text><rect fill="#E3E3E3" height="32.6211" rx="2.5" ry="2.5" style="stroke:#181818;stroke-width:0.5;" width="238" x="248" y="1079.2637"/><text fill="#000000" font-family="sans-serif" font-size="14" lengthAdjust="spacing" textLength="224" x="255" y="1101.3711">:ListVehiclesPendingMaintenanceUI</text><rect fill="#E3E3E3" height="32.6211" rx="2.5" ry="2.5" style="stroke:#181818;stroke-width:0.5;" width="288" x="554" y="1079.2637"/><text fill="#000000" font-family="sans-serif" font-size="14" lengthAdjust="spacing" textLength="274" x="561" y="1101.3711">:ListVehiclesPendingMaintenanceController</text><rect fill="#E3E3E3" height="32.6211" rx="2.5" ry="2.5" style="stroke:#181818;stroke-width:0.5;" width="97" x="852" y="50"/><text fill="#000000" font-family="sans-serif" font-size="14" lengthAdjust="spacing" textLength="83" x="859" y="72.1074">:Repositories</text><rect fill="#E3E3E3" height="32.6211" rx="2.5" ry="2.5" style="stroke:#181818;stroke-width:0.5;" width="97" x="852" y="1079.2637"/><text fill="#000000" font-family="sans-serif" font-size="14" lengthAdjust="spacing" textLength="83" x="859" y="1101.3711">:Repositories</text><rect fill="#E3E3E3" height="51.2422" rx="2.5" ry="2.5" style="stroke:#181818;stroke-width:0.5;" width="97" x="959" y="31.3789"/><text fill="#000000" font-family="sans-serif" font-size="14" lengthAdjust="spacing" textLength="74" x="970.5" y="53.4863">repositories</text><text fill="#000000" font-family="sans-serif" font-size="14" lengthAdjust="spacing" textLength="83" x="966" y="72.1074">:Repositories</text><rect fill="#E3E3E3" height="51.2422" rx="2.5" ry="2.5" style="stroke:#181818;stroke-width:0.5;" width="97" x="959" y="1079.2637"/><text fill="#000000" font-family="sans-serif" font-size="14" lengthAdjust="spacing" textLength="74" x="970.5" y="1101.3711">repositories</text><text fill="#000000" font-family="sans-serif" font-size="14" lengthAdjust="spacing" textLength="83" x="966" y="1119.9922">:Repositories</text><rect fill="#E3E3E3" height="51.2422" rx="2.5" ry="2.5" style="stroke:#181818;stroke-width:0.5;" width="130" x="1066" y="31.3789"/><text fill="#000000" font-family="sans-serif" font-size="14" lengthAdjust="spacing" textLength="112" x="1075" y="53.4863">vehicleRepository</text><text fill="#000000" font-family="sans-serif" font-size="14" lengthAdjust="spacing" textLength="116" x="1073" y="72.1074">:vehicleRepository</text><rect fill="#E3E3E3" height="51.2422" rx="2.5" ry="2.5" style="stroke:#181818;stroke-width:0.5;" width="130" x="1066" y="1079.2637"/><text fill="#000000" font-family="sans-serif" font-size="14" lengthAdjust="spacing" textLength="112" x="1075" y="1101.3711">vehicleRepository</text><text fill="#000000" font-family="sans-serif" font-size="14" lengthAdjust="spacing" textLength="116" x="1073" y="1119.9922">:vehicleRepository</text><rect fill="#E3E3E3" height="51.2422" rx="2.5" ry="2.5" style="stroke:#181818;stroke-width:0.5;" width="176" x="1206" y="31.3789"/><text fill="#000000" font-family="sans-serif" font-size="14" lengthAdjust="spacing" textLength="157" x="1215.5" y="53.4863">authenticationRepository</text><text fill="#000000" font-family="sans-serif" font-size="14" lengthAdjust="spacing" textLength="162" x="1213" y="72.1074">:AuthenticationRepository</text><rect fill="#E3E3E3" height="51.2422" rx="2.5" ry="2.5" style="stroke:#181818;stroke-width:0.5;" width="176" x="1206" y="1079.2637"/><text fill="#000000" font-family="sans-serif" font-size="14" lengthAdjust="spacing" textLength="157" x="1215.5" y="1101.3711">authenticationRepository</text><text fill="#000000" font-family="sans-serif" font-size="14" lengthAdjust="spacing" textLength="162" x="1213" y="1119.9922">:AuthenticationRepository</text><rect fill="#E3E3E3" height="51.2422" rx="2.5" ry="2.5" style="stroke:#181818;stroke-width:0.5;" width="97" x="1392" y="31.3789"/><text fill="#000000" font-family="sans-serif" font-size="14" lengthAdjust="spacing" textLength="78" x="1401.5" y="53.4863">userSession</text><text fill="#000000" font-family="sans-serif" font-size="14" lengthAdjust="spacing" textLength="83" x="1399" y="72.1074">:UserSession</text><rect fill="#E3E3E3" height="51.2422" rx="2.5" ry="2.5" style="stroke:#181818;stroke-width:0.5;" width="97" x="1392" y="1079.2637"/><text fill="#000000" font-family="sans-serif" font-size="14" lengthAdjust="spacing" textLength="78" x="1401.5" y="1101.3711">userSession</text><text fill="#000000" font-family="sans-serif" font-size="14" lengthAdjust="spacing" textLength="83" x="1399" y="1119.9922">:UserSession</text><rect fill="#E3E3E3" height="32.6211" rx="2.5" ry="2.5" style="stroke:#181818;stroke-width:0.5;" width="64" x="1499" y="50"/><text fill="#000000" font-family="sans-serif" font-size="14" lengthAdjust="spacing" textLength="50" x="1506" y="72.1074">:Vehicle</text><rect fill="#E3E3E3" height="32.6211" rx="2.5" ry="2.5" style="stroke:#181818;stroke-width:0.5;" width="64" x="1499" y="1079.2637"/><text fill="#000000" font-family="sans-serif" font-size="14" lengthAdjust="spacing" textLength="50" x="1506" y="1101.3711">:Vehicle</text><rect fill="#E3E3E3" height="32.6211" rx="2.5" ry="2.5" style="stroke:#181818;stroke-width:0.5;" width="145" x="1573" y="50"/><text fill="#000000" font-family="sans-serif" font-size="14" lengthAdjust="spacing" textLength="131" x="1580" y="72.1074">:VehicleMaintenance</text><rect fill="#E3E3E3" height="32.6211" rx="2.5" ry="2.5" style="stroke:#181818;stroke-width:0.5;" width="145" x="1573" y="1079.2637"/><text fill="#000000" font-family="sans-serif" font-size="14" lengthAdjust="spacing" textLength="131" x="1580" y="1101.3711">:VehicleMaintenance</text><rect fill="#E3E3E3" height="32.6211" rx="2.5" ry="2.5" style="stroke:#181818;stroke-width:0.5;" width="152" x="1771.5" y="50"/><text fill="#000000" font-family="sans-serif" font-size="14" lengthAdjust="spacing" textLength="138" x="1778.5" y="72.1074">:VehicleMaintenances</text><rect fill="#E3E3E3" height="32.6211" rx="2.5" ry="2.5" style="stroke:#181818;stroke-width:0.5;" width="152" x="1771.5" y="1079.2637"/><text fill="#000000" font-family="sans-serif" font-size="14" lengthAdjust="spacing" textLength="138" x="1778.5" y="1101.3711">:VehicleMaintenances</text><rect fill="#FFFFFF" height="968.6426" style="stroke:#181818;stroke-width:1.0;" width="10" x="74" y="93.6211"/><rect fill="#FFFFFF" height="818.8965" style="stroke:#181818;stroke-width:1.0;" width="10" x="362" y="243.3672"/><rect fill="#FFFFFF" height="712.6934" style="stroke:#181818;stroke-width:1.0;" width="10" x="693" y="318.2793"/><rect fill="#FFFFFF" height="31.291" style="stroke:#181818;stroke-width:1.0;" width="10" x="895.5" y="349.5703"/><rect fill="#FFFFFF" height="103.1641" style="stroke:#181818;stroke-width:1.0;" width="10" x="895.5" y="412.1523"/><rect fill="#FFFFFF" height="31.291" style="stroke:#181818;stroke-width:1.0;" width="10" x="1002.5" y="546.6074"/><rect fill="#FFFFFF" height="31.291" style="stroke:#181818;stroke-width:1.0;" width="10" x="1126" y="609.1895"/><rect fill="#FFFFFF" height="31.291" style="stroke:#181818;stroke-width:1.0;" width="10" x="1526" y="698.0625"/><rect fill="#FFFFFF" height="31.291" style="stroke:#181818;stroke-width:1.0;" width="10" x="1526" y="760.6445"/><rect fill="#FFFFFF" height="31.291" style="stroke:#181818;stroke-width:1.0;" width="10" x="1526" y="823.2266"/><rect fill="#FFFFFF" height="75.582" style="stroke:#181818;stroke-width:1.0;" width="10" x="1640.5" y="885.8086"/><rect fill="#FFFFFF" height="38.291" style="stroke:#181818;stroke-width:1.0;" width="10" x="1842.5" y="961.3906"/><path d="M89,98.6211 L89,159.6211 L357,159.6211 L357,108.6211 L347,98.6211 L89,98.6211 " fill="#FAFAFA" style="stroke:#181818;stroke-width:0.5;"/><path d="M347,98.6211 L347,108.6211 L357,108.6211 L347,98.6211 " fill="#FAFAFA" style="stroke:#181818;stroke-width:0.5;"/><text fill="#000000" font-family="sans-serif" font-size="13" lengthAdjust="spacing" textLength="247" x="95" y="117.6494">- The user is already logged in at this step.</text><text fill="#000000" font-family="sans-serif" font-size="13" lengthAdjust="spacing" textLength="238" x="95" y="134.9404">- Authentication sequence is explained in</text><text fill="#000000" font-family="sans-serif" font-size="13" lengthAdjust="spacing" textLength="118" x="95" y="152.2314">a sequence excerpt.</text><path d="M905,170.4941 L905,214.4941 L1002,214.4941 L1002,180.4941 L992,170.4941 L905,170.4941 " fill="#FAFAFA" style="stroke:#181818;stroke-width:0.5;"/><path d="M992,170.4941 L992,180.4941 L1002,180.4941 L992,170.4941 " fill="#FAFAFA" style="stroke:#181818;stroke-width:0.5;"/><text fill="#000000" font-family="sans-serif" font-size="13" lengthAdjust="spacing" textLength="76" x="911" y="189.5225">- Singleton is</text><text fill="#000000" font-family="sans-serif" font-size="13" lengthAdjust="spacing" textLength="35" x="911" y="206.8135">in use</text><polygon fill="#181818" points="350,239.3672,360,243.3672,350,247.3672,354,243.3672" style="stroke:#181818;stroke-width:1.0;"/><line style="stroke:#181818;stroke-width:1.0;" x1="84" x2="356" y1="243.3672" y2="243.3672"/><text fill="#000000" font-family="sans-serif" font-size="13" font-weight="bold" lengthAdjust="spacing" textLength="7" x="91" y="238.1045">1</text><text fill="#000000" font-family="sans-serif" font-size="13" lengthAdjust="spacing" textLength="248" x="102" y="238.1045">asks to list vehicle's in need for a check-up</text><polygon fill="#181818" points="542,270.6582,552,274.6582,542,278.6582,546,274.6582" style="stroke:#181818;stroke-width:1.0;"/><line style="stroke:#181818;stroke-width:1.0;" x1="372" x2="548" y1="274.6582" y2="274.6582"/><text fill="#000000" font-family="sans-serif" font-size="13" font-weight="bold" lengthAdjust="spacing" textLength="7" x="379" y="269.3955">2</text><text fill="#000000" font-family="sans-serif" font-size="13" lengthAdjust="spacing" textLength="36" x="390" y="269.3955">create</text><rect fill="#E3E3E3" height="32.6211" rx="2.5" ry="2.5" style="stroke:#181818;stroke-width:0.5;" width="288" x="554" y="251.3672"/><text fill="#000000" font-family="sans-serif" font-size="14" lengthAdjust="spacing" textLength="274" x="561" y="273.4746">:ListVehiclesPendingMaintenanceController</text><polygon fill="#181818" points="681,314.2793,691,318.2793,681,322.2793,685,318.2793" style="stroke:#181818;stroke-width:1.0;"/><line style="stroke:#181818;stroke-width:1.0;" x1="372" x2="687" y1="318.2793" y2="318.2793"/><text fill="#000000" font-family="sans-serif" font-size="13" font-weight="bold" lengthAdjust="spacing" textLength="7" x="379" y="313.0166">3</text><text fill="#000000" font-family="sans-serif" font-size="13" lengthAdjust="spacing" textLength="291" x="390" y="313.0166">asks for a list of the vehicles pending maintenance</text><polygon fill="#181818" points="883.5,345.5703,893.5,349.5703,883.5,353.5703,887.5,349.5703" style="stroke:#181818;stroke-width:1.0;"/><line style="stroke:#181818;stroke-width:1.0;" x1="703" x2="889.5" y1="349.5703" y2="349.5703"/><text fill="#000000" font-family="sans-serif" font-size="13" font-weight="bold" lengthAdjust="spacing" textLength="7" x="710" y="344.3076">4</text><text fill="#000000" font-family="sans-serif" font-size="13" lengthAdjust="spacing" textLength="75" x="721" y="344.3076">getInstance()</text><polygon fill="#181818" points="714,376.8613,704,380.8613,714,384.8613,710,380.8613" style="stroke:#181818;stroke-width:1.0;"/><line style="stroke:#181818;stroke-width:1.0;stroke-dasharray:2.0,2.0;" x1="708" x2="899.5" y1="380.8613" y2="380.8613"/><text fill="#000000" font-family="sans-serif" font-size="13" font-weight="bold" lengthAdjust="spacing" textLength="7" x="720" y="375.5986">5</text><text fill="#000000" font-family="sans-serif" font-size="13" lengthAdjust="spacing" textLength="67" x="731" y="375.5986">repositories</text><polygon fill="#181818" points="883.5,408.1523,893.5,412.1523,883.5,416.1523,887.5,412.1523" style="stroke:#181818;stroke-width:1.0;"/><line style="stroke:#181818;stroke-width:1.0;" x1="703" x2="889.5" y1="412.1523" y2="412.1523"/><text fill="#000000" font-family="sans-serif" font-size="13" font-weight="bold" lengthAdjust="spacing" textLength="7" x="710" y="406.8896">6</text><text fill="#000000" font-family="sans-serif" font-size="13" lengthAdjust="spacing" textLength="161" x="721" y="406.8896">getEmployeeFromSession()</text><path d="M708,425.1523 L708,486.1523 L881,486.1523 L881,435.1523 L871,425.1523 L708,425.1523 " fill="#FAFAFA" style="stroke:#181818;stroke-width:0.5;"/><path d="M871,425.1523 L871,435.1523 L881,435.1523 L871,425.1523 " fill="#FAFAFA" style="stroke:#181818;stroke-width:0.5;"/><text fill="#000000" font-family="sans-serif" font-size="13" lengthAdjust="spacing" textLength="152" x="714" y="444.1807">- This method is explained</text><text fill="#000000" font-family="sans-serif" font-size="13" lengthAdjust="spacing" textLength="124" x="714" y="461.4717">in detail in an excerpt</text><text fill="#000000" font-family="sans-serif" font-size="13" lengthAdjust="spacing" textLength="110" x="714" y="478.7627">sequence diagram.</text><polygon fill="#181818" points="714,511.3164,704,515.3164,714,519.3164,710,515.3164" style="stroke:#181818;stroke-width:1.0;"/><line style="stroke:#181818;stroke-width:1.0;stroke-dasharray:2.0,2.0;" x1="708" x2="899.5" y1="515.3164" y2="515.3164"/><text fill="#000000" font-family="sans-serif" font-size="13" font-weight="bold" lengthAdjust="spacing" textLength="7" x="720" y="510.0537">7</text><text fill="#000000" font-family="sans-serif" font-size="13" lengthAdjust="spacing" textLength="56" x="731" y="510.0537">employee</text><polygon fill="#181818" points="990.5,542.6074,1000.5,546.6074,990.5,550.6074,994.5,546.6074" style="stroke:#181818;stroke-width:1.0;"/><line style="stroke:#181818;stroke-width:1.0;" x1="703" x2="996.5" y1="546.6074" y2="546.6074"/><text fill="#000000" font-family="sans-serif" font-size="13" font-weight="bold" lengthAdjust="spacing" textLength="7" x="710" y="541.3447">8</text><text fill="#000000" font-family="sans-serif" font-size="13" lengthAdjust="spacing" textLength="131" x="721" y="541.3447">getVehicleRepository()</text><polygon fill="#181818" points="714,573.8984,704,577.8984,714,581.8984,710,577.8984" style="stroke:#181818;stroke-width:1.0;"/><line style="stroke:#181818;stroke-width:1.0;stroke-dasharray:2.0,2.0;" x1="708" x2="1006.5" y1="577.8984" y2="577.8984"/><text fill="#000000" font-family="sans-serif" font-size="13" font-weight="bold" lengthAdjust="spacing" textLength="7" x="720" y="572.6357">9</text><text fill="#000000" font-family="sans-serif" font-size="13" lengthAdjust="spacing" textLength="101" x="731" y="572.6357">vehicleRepository</text><polygon fill="#181818" points="1114,605.1895,1124,609.1895,1114,613.1895,1118,609.1895" style="stroke:#181818;stroke-width:1.0;"/><line style="stroke:#181818;stroke-width:1.0;" x1="703" x2="1120" y1="609.1895" y2="609.1895"/><text fill="#000000" font-family="sans-serif" font-size="13" font-weight="bold" lengthAdjust="spacing" textLength="14" x="710" y="603.9268">10</text><text fill="#000000" font-family="sans-serif" font-size="13" lengthAdjust="spacing" textLength="91" x="728" y="603.9268">getAllVehicles()</text><polygon fill="#181818" points="714,636.4805,704,640.4805,714,644.4805,710,640.4805" style="stroke:#181818;stroke-width:1.0;"/><line style="stroke:#181818;stroke-width:1.0;stroke-dasharray:2.0,2.0;" x1="708" x2="1130" y1="640.4805" y2="640.4805"/><text fill="#000000" font-family="sans-serif" font-size="13" font-weight="bold" lengthAdjust="spacing" textLength="14" x="720" y="635.2178">11</text><text fill="#000000" font-family="sans-serif" font-size="13" lengthAdjust="spacing" textLength="46" x="738" y="635.2178">vehicles</text><path d="M544,655.4805 L617,655.4805 L617,664.7715 L607,674.7715 L544,674.7715 L544,655.4805 " fill="#EEEEEE" style="stroke:#000000;stroke-width:1.5;"/><rect fill="none" height="313.9102" style="stroke:#000000;stroke-width:1.5;" width="1389.5" x="544" y="655.4805"/><text fill="#000000" font-family="sans-serif" font-size="13" font-weight="bold" lengthAdjust="spacing" textLength="28" x="559" y="670.5088">loop</text><text fill="#000000" font-family="sans-serif" font-size="11" font-weight="bold" lengthAdjust="spacing" textLength="95" x="632" y="669.3506">[for each vehicle]</text><polygon fill="#181818" points="1514,694.0625,1524,698.0625,1514,702.0625,1518,698.0625" style="stroke:#181818;stroke-width:1.0;"/><line style="stroke:#181818;stroke-width:1.0;" x1="703" x2="1520" y1="698.0625" y2="698.0625"/><text fill="#000000" font-family="sans-serif" font-size="13" font-weight="bold" lengthAdjust="spacing" textLength="14" x="710" y="692.7998">12</text><text fill="#000000" font-family="sans-serif" font-size="13" lengthAdjust="spacing" textLength="161" x="728" y="692.7998">getMaintenanceFrequency()</text><polygon fill="#181818" points="714,725.3535,704,729.3535,714,733.3535,710,729.3535" style="stroke:#181818;stroke-width:1.0;"/><line style="stroke:#181818;stroke-width:1.0;stroke-dasharray:2.0,2.0;" x1="708" x2="1530" y1="729.3535" y2="729.3535"/><text fill="#000000" font-family="sans-serif" font-size="13" font-weight="bold" lengthAdjust="spacing" textLength="14" x="720" y="724.0908">13</text><text fill="#000000" font-family="sans-serif" font-size="13" lengthAdjust="spacing" textLength="135" x="738" y="724.0908">MaintenanceFrequency</text><polygon fill="#181818" points="1514,756.6445,1524,760.6445,1514,764.6445,1518,760.6445" style="stroke:#181818;stroke-width:1.0;"/><line style="stroke:#181818;stroke-width:1.0;" x1="703" x2="1520" y1="760.6445" y2="760.6445"/><text fill="#000000" font-family="sans-serif" font-size="13" font-weight="bold" lengthAdjust="spacing" textLength="14" x="710" y="755.3818">14</text><text fill="#000000" font-family="sans-serif" font-size="13" lengthAdjust="spacing" textLength="125" x="728" y="755.3818">getLastMaintenance()</text><polygon fill="#181818" points="714,787.9355,704,791.9355,714,795.9355,710,791.9355" style="stroke:#181818;stroke-width:1.0;"/><line style="stroke:#181818;stroke-width:1.0;stroke-dasharray:2.0,2.0;" x1="708" x2="1530" y1="791.9355" y2="791.9355"/><text fill="#000000" font-family="sans-serif" font-size="13" font-weight="bold" lengthAdjust="spacing" textLength="14" x="720" y="786.6729">15</text><text fill="#000000" font-family="sans-serif" font-size="13" lengthAdjust="spacing" textLength="95" x="738" y="786.6729">lastMaintenance</text><polygon fill="#181818" points="1514,819.2266,1524,823.2266,1514,827.2266,1518,823.2266" style="stroke:#181818;stroke-width:1.0;"/><line style="stroke:#181818;stroke-width:1.0;" x1="703" x2="1520" y1="823.2266" y2="823.2266"/><text fill="#000000" font-family="sans-serif" font-size="13" font-weight="bold" lengthAdjust="spacing" textLength="14" x="710" y="817.9639">16</text><text fill="#000000" font-family="sans-serif" font-size="13" lengthAdjust="spacing" textLength="88" x="728" y="817.9639">getCurrentKm()</text><polygon fill="#181818" points="714,850.5176,704,854.5176,714,858.5176,710,854.5176" style="stroke:#181818;stroke-width:1.0;"/><line style="stroke:#181818;stroke-width:1.0;stroke-dasharray:2.0,2.0;" x1="708" x2="1530" y1="854.5176" y2="854.5176"/><text fill="#000000" font-family="sans-serif" font-size="13" font-weight="bold" lengthAdjust="spacing" textLength="14" x="720" y="849.2549">17</text><text fill="#000000" font-family="sans-serif" font-size="13" lengthAdjust="spacing" textLength="60" x="738" y="849.2549">currentKm</text><polygon fill="#181818" points="1628.5,881.8086,1638.5,885.8086,1628.5,889.8086,1632.5,885.8086" style="stroke:#181818;stroke-width:1.0;"/><line style="stroke:#181818;stroke-width:1.0;" x1="703" x2="1634.5" y1="885.8086" y2="885.8086"/><text fill="#000000" font-family="sans-serif" font-size="13" font-weight="bold" lengthAdjust="spacing" textLength="14" x="710" y="880.5459">18</text><text fill="#000000" font-family="sans-serif" font-size="13" lengthAdjust="spacing" textLength="359" x="728" y="880.5459">vehicleMaintenance(MaintenanceFrequency, lastMaintenance)</text><line style="stroke:#181818;stroke-width:1.0;stroke-dasharray:2.0,2.0;" x1="1650.5" x2="1692.5" y1="917.0996" y2="917.0996"/><line style="stroke:#181818;stroke-width:1.0;stroke-dasharray:2.0,2.0;" x1="1692.5" x2="1692.5" y1="917.0996" y2="930.0996"/><line style="stroke:#181818;stroke-width:1.0;stroke-dasharray:2.0,2.0;" x1="1651.5" x2="1692.5" y1="930.0996" y2="930.0996"/><polygon fill="#181818" points="1661.5,926.0996,1651.5,930.0996,1661.5,934.0996,1657.5,930.0996" style="stroke:#181818;stroke-width:1.0;"/><text fill="#000000" font-family="sans-serif" font-size="13" font-weight="bold" lengthAdjust="spacing" textLength="14" x="1657.5" y="911.8369">19</text><text fill="#000000" font-family="sans-serif" font-size="13" lengthAdjust="spacing" textLength="160" x="1675.5" y="911.8369">validateVehicleMaintenance</text><polygon fill="#181818" points="1830.5,957.3906,1840.5,961.3906,1830.5,965.3906,1834.5,961.3906" style="stroke:#181818;stroke-width:1.0;"/><line style="stroke:#181818;stroke-width:1.0;stroke-dasharray:2.0,2.0;" x1="1645.5" x2="1836.5" y1="961.3906" y2="961.3906"/><text fill="#000000" font-family="sans-serif" font-size="13" font-weight="bold" lengthAdjust="spacing" textLength="14" x="1652.5" y="956.1279">20</text><text fill="#000000" font-family="sans-serif" font-size="13" lengthAdjust="spacing" textLength="113" x="1670.5" y="956.1279">vehicleMaintenance</text><polygon fill="#181818" points="714,995.6816,704,999.6816,714,1003.6816,710,999.6816" style="stroke:#181818;stroke-width:1.0;"/><line style="stroke:#181818;stroke-width:1.0;" x1="708" x2="1846.5" y1="999.6816" y2="999.6816"/><text fill="#000000" font-family="sans-serif" font-size="13" font-weight="bold" lengthAdjust="spacing" textLength="14" x="720" y="994.4189">21</text><text fill="#000000" font-family="sans-serif" font-size="13" lengthAdjust="spacing" textLength="215" x="738" y="994.4189">vehiclesWithPendingMaintenanceList</text><polygon fill="#181818" points="383,1026.9727,373,1030.9727,383,1034.9727,379,1030.9727" style="stroke:#181818;stroke-width:1.0;"/><line style="stroke:#181818;stroke-width:1.0;stroke-dasharray:2.0,2.0;" x1="377" x2="697" y1="1030.9727" y2="1030.9727"/><text fill="#000000" font-family="sans-serif" font-size="13" font-weight="bold" lengthAdjust="spacing" textLength="14" x="389" y="1025.71">22</text><text fill="#000000" font-family="sans-serif" font-size="13" lengthAdjust="spacing" textLength="215" x="407" y="1025.71">vehiclesWithPendingMaintenanceList</text><polygon fill="#181818" points="90,1058.2637,80,1062.2637,90,1066.2637,86,1062.2637" style="stroke:#181818;stroke-width:1.0;"/><line style="stroke:#181818;stroke-width:1.0;stroke-dasharray:2.0,2.0;" x1="84" x2="366" y1="1062.2637" y2="1062.2637"/><text fill="#000000" font-family="sans-serif" font-size="13" font-weight="bold" lengthAdjust="spacing" textLength="14" x="96" y="1057.001">23</text><text fill="#000000" font-family="sans-serif" font-size="13" lengthAdjust="spacing" textLength="223" x="114" y="1057.001">shows vehicles that need Maintenance</text><!--SRC=[hLVDRjim3BxxAOXUkXLB7o270KNHOC7QjMYQxZAWK6t65Y9BdgMqpTkFygySAMuoH3TPvCUFVnAjrrmMh6Gvv4ggE2jLZc3A3KQwEobOl6OfBinM89GO6oPJuGheZ2NgdSiKLaneZ2AsCKfkybSie-Wyumd2IYdpgZuY5XjLmjapPZmcj9b0D7379E6NPy0qFC_k8a8rFEO5amREfhTScqPUFw1CoCuTuzAWP3B6vRnIMywFqhfMqfHAYCPet6rtK1wnK9eJPOwwajJS-axU3GLBH-wFzDNeVAZmLbFh1BUavNshLBslGo0ATOQIzinm9GTuLtkEAjYhvTEFbyURX_iXt4PZkK2jIO4GblskZlBYyMLnirZCxt_j1Ae9jSiuBE4aeSwtz_bJFRr7KKUHL8PAbAUP0RMgQWbeJU0fGx2k0TV0H8aisO9GQOe9S0dCWCdeH1iiBXkDOV10uzyDaWqBW1-58AkLRYND-cFyYB4ip6L49GUMpIwdle1gEujsJyZL9-93J1rzQXd-nWZ3kbE9s4KRc7odkeSfqsiDHe6Wac-3Vwuja4GYkQA6On1d6Aydcw97w72fTxgFTX4c8VSzSN41KuWfQ9RDc229LLngYnKTyfZYsBBIKDIj2BcJRnUo8-Mqv430BiSYsUyYIkPJD7EfZONzyjNJwy3x97WoTlM8au5_Kt3xt5DDy103e-HlyaAeBUACxk6cySWF3sDOKaweGjxOwgUgpT5aAXdKRr2SoYP1mxYeEaEs5HqEL5ls2MSflGINdbHVnl-JZ7s9e61X4wde96cWlDO9UDwzRSVAoDxgmRXOkDtIyU_n4U91v25b3wzsu4g8zjaRe-wp2JhY6_4IqRRsc3i7M1DA5TN5GLfPzuGS5eFASUSXc9LrNMuFY81leZdm4XWoS83Jn_XmoxJhnqdfYo7sYPbVRygIdikV-Kavnotg2TZwyq9Nksx8Grd-jXky4Hy3yumdxCjKdWSPCi4JmZqfh0vvFXRYvy-bHsJzgo7qJ7mk5426y2MhVtEJ-LE__ISupaqzNbND07QiMSValZ77ZbOsTpJbJUd_IhthVeOo6GsirMWNIeW3RWSxrpsQ7_y1]--></g></svg>