<?xml version="1.0" encoding="us-ascii" standalone="no"?><svg xmlns="http://www.w3.org/2000/svg" xmlns:xlink="http://www.w3.org/1999/xlink" contentStyleType="text/css" height="1988px" preserveAspectRatio="none" style="width:969px;height:1988px;background:#FFFFFF;" version="1.1" viewBox="0 0 969 1988" width="969px" zoomAndPan="magnify"><defs/><g><!--class CreateVehicleUI--><g id="elem_CreateVehicleUI"><rect codeLine="11" fill="#F1F1F1" height="394.2539" id="CreateVehicleUI" rx="2.5" ry="2.5" style="stroke:#181818;stroke-width:0.5;" width="333" x="462" y="7"/><ellipse cx="570.25" cy="23" fill="#ADD1B2" rx="11" ry="11" style="stroke:#181818;stroke-width:1.0;"/><path d="M573.2231,28.6431 Q572.6421,28.9419 572.0029,29.0913 Q571.3638,29.2407 570.6582,29.2407 Q568.1514,29.2407 566.8315,27.5889 Q565.5117,25.937 565.5117,22.8159 Q565.5117,19.6865 566.8315,18.0347 Q568.1514,16.3828 570.6582,16.3828 Q571.3638,16.3828 572.0112,16.5322 Q572.6587,16.6816 573.2231,16.9805 L573.2231,19.7031 Q572.5923,19.1221 571.9988,18.8523 Q571.4053,18.5825 570.7744,18.5825 Q569.4297,18.5825 568.7449,19.6492 Q568.0601,20.7158 568.0601,22.8159 Q568.0601,24.9077 568.7449,25.9744 Q569.4297,27.041 570.7744,27.041 Q571.4053,27.041 571.9988,26.7712 Q572.5923,26.5015 573.2231,25.9204 Z " fill="#000000"/><text fill="#000000" font-family="sans-serif" font-size="14" lengthAdjust="spacing" textLength="108" x="590.75" y="28.291">CreateVehicleUI</text><line style="stroke:#181818;stroke-width:0.5;" x1="463" x2="794" y1="39" y2="39"/><line style="stroke:#181818;stroke-width:0.5;" x1="463" x2="794" y1="47" y2="47"/><text fill="#000000" font-family="sans-serif" font-size="14" lengthAdjust="spacing" textLength="45" x="468" y="64.5352">+run()</text><text fill="#000000" font-family="sans-serif" font-size="14" lengthAdjust="spacing" textLength="317" x="468" y="81.0234">+requestData(brand, model, type, tare weight,</text><text fill="#000000" font-family="sans-serif" font-size="14" lengthAdjust="spacing" textLength="266" x="468" y="97.5117">gross weight, current km,register date,</text><text fill="#000000" font-family="sans-serif" font-size="14" lengthAdjust="spacing" textLength="281" x="468" y="114">acquisition date, maintenance frequency,</text><text fill="#000000" font-family="sans-serif" font-size="14" lengthAdjust="spacing" textLength="240" x="468" y="130.4883">plate number, passengers number,</text><text fill="#000000" font-family="sans-serif" font-size="14" lengthAdjust="spacing" textLength="288" x="468" y="146.9766">doors number, fuel type, trailer machines)</text><text fill="#000000" font-family="sans-serif" font-size="14" lengthAdjust="spacing" textLength="99" x="468" y="163.4648">+submitData()</text><text fill="#000000" font-family="sans-serif" font-size="14" lengthAdjust="spacing" textLength="113" x="468" y="179.9531">+requestBrand()</text><text fill="#000000" font-family="sans-serif" font-size="14" lengthAdjust="spacing" textLength="115" x="468" y="196.4414">+requestModel()</text><text fill="#000000" font-family="sans-serif" font-size="14" lengthAdjust="spacing" textLength="106" x="468" y="212.9297">+requestType()</text><text fill="#000000" font-family="sans-serif" font-size="14" lengthAdjust="spacing" textLength="151" x="468" y="229.418">+requestTareWeight()</text><text fill="#000000" font-family="sans-serif" font-size="14" lengthAdjust="spacing" textLength="159" x="468" y="245.9063">+requestGrossWeight()</text><text fill="#000000" font-family="sans-serif" font-size="14" lengthAdjust="spacing" textLength="147" x="468" y="262.3945">+requestCurrentKM()</text><text fill="#000000" font-family="sans-serif" font-size="14" lengthAdjust="spacing" textLength="160" x="468" y="278.8828">+requestRegisterDate()</text><text fill="#000000" font-family="sans-serif" font-size="14" lengthAdjust="spacing" textLength="181" x="468" y="295.3711">+requestAcquisitionDate()</text><text fill="#000000" font-family="sans-serif" font-size="14" lengthAdjust="spacing" textLength="231" x="468" y="311.8594">+requestMaintenanceFrequency()</text><text fill="#000000" font-family="sans-serif" font-size="14" lengthAdjust="spacing" textLength="161" x="468" y="328.3477">+requestPlateNumber()</text><text fill="#000000" font-family="sans-serif" font-size="14" lengthAdjust="spacing" textLength="205" x="468" y="344.8359">+requestPassengersNumber()</text><text fill="#000000" font-family="sans-serif" font-size="14" lengthAdjust="spacing" textLength="169" x="468" y="361.3242">+requestDoorsNumber()</text><text fill="#000000" font-family="sans-serif" font-size="14" lengthAdjust="spacing" textLength="135" x="468" y="377.8125">+requestFuelType()</text><text fill="#000000" font-family="sans-serif" font-size="14" lengthAdjust="spacing" textLength="182" x="468" y="394.3008">+requestTrailerMachines()</text></g><!--class CreateVehicleController--><g id="elem_CreateVehicleController"><rect codeLine="31" fill="#F1F1F1" height="196.3945" id="CreateVehicleController" rx="2.5" ry="2.5" style="stroke:#181818;stroke-width:0.5;" width="370" x="443.5" y="462.26"/><ellipse cx="542.25" cy="478.26" fill="#ADD1B2" rx="11" ry="11" style="stroke:#181818;stroke-width:1.0;"/><path d="M545.2231,483.9031 Q544.6421,484.2019 544.0029,484.3513 Q543.3638,484.5007 542.6582,484.5007 Q540.1514,484.5007 538.8315,482.8489 Q537.5117,481.197 537.5117,478.0759 Q537.5117,474.9465 538.8315,473.2947 Q540.1514,471.6428 542.6582,471.6428 Q543.3638,471.6428 544.0112,471.7922 Q544.6587,471.9416 545.2231,472.2405 L545.2231,474.9631 Q544.5923,474.3821 543.9988,474.1123 Q543.4053,473.8425 542.7744,473.8425 Q541.4297,473.8425 540.7449,474.9092 Q540.0601,475.9758 540.0601,478.0759 Q540.0601,480.1677 540.7449,481.2344 Q541.4297,482.301 542.7744,482.301 Q543.4053,482.301 543.9988,482.0312 Q544.5923,481.7615 545.2231,481.1804 Z " fill="#000000"/><text fill="#000000" font-family="sans-serif" font-size="14" lengthAdjust="spacing" textLength="164" x="562.75" y="483.551">CreateVehicleController</text><line style="stroke:#181818;stroke-width:0.5;" x1="444.5" x2="812.5" y1="494.26" y2="494.26"/><text fill="#000000" font-family="sans-serif" font-size="14" lengthAdjust="spacing" textLength="254" x="449.5" y="511.7952">-vehicleRepository:VehicleRepository</text><text fill="#000000" font-family="sans-serif" font-size="14" lengthAdjust="spacing" textLength="358" x="449.5" y="528.2834">-authenticationRepository:AuthenticationRepository</text><line style="stroke:#181818;stroke-width:0.5;" x1="444.5" x2="812.5" y1="535.2366" y2="535.2366"/><text fill="#000000" font-family="sans-serif" font-size="14" lengthAdjust="spacing" textLength="194" x="449.5" y="552.7717">-getEmployeeFromSession()</text><text fill="#000000" font-family="sans-serif" font-size="14" lengthAdjust="spacing" textLength="305" x="449.5" y="569.26">+CreateVehicleController(vehicleRepository)</text><text fill="#000000" font-family="sans-serif" font-size="14" lengthAdjust="spacing" textLength="325" x="449.5" y="585.7483">+createVehicle(brand, model, type, tare weight,</text><text fill="#000000" font-family="sans-serif" font-size="14" lengthAdjust="spacing" textLength="266" x="449.5" y="602.2366">gross weight, current km,register date,</text><text fill="#000000" font-family="sans-serif" font-size="14" lengthAdjust="spacing" textLength="281" x="449.5" y="618.7248">acquisition date, maintenance frequency,</text><text fill="#000000" font-family="sans-serif" font-size="14" lengthAdjust="spacing" textLength="240" x="449.5" y="635.2131">plate number, passengers number,</text><text fill="#000000" font-family="sans-serif" font-size="14" lengthAdjust="spacing" textLength="288" x="449.5" y="651.7014">doors number, fuel type, trailer machines)</text></g><!--class Employee--><g id="elem_Employee"><rect codeLine="40" fill="#F1F1F1" height="278.8359" id="Employee" rx="2.5" ry="2.5" style="stroke:#181818;stroke-width:0.5;" width="389" x="7" y="978.54"/><ellipse cx="164.25" cy="994.54" fill="#ADD1B2" rx="11" ry="11" style="stroke:#181818;stroke-width:1.0;"/><path d="M167.2231,1000.1831 Q166.6421,1000.4819 166.0029,1000.6313 Q165.3638,1000.7807 164.6582,1000.7807 Q162.1514,1000.7807 160.8315,999.1289 Q159.5117,997.477 159.5117,994.3559 Q159.5117,991.2265 160.8315,989.5747 Q162.1514,987.9228 164.6582,987.9228 Q165.3638,987.9228 166.0112,988.0722 Q166.6587,988.2216 167.2231,988.5205 L167.2231,991.2431 Q166.5923,990.6621 165.9988,990.3923 Q165.4053,990.1225 164.7744,990.1225 Q163.4297,990.1225 162.7449,991.1892 Q162.0601,992.2558 162.0601,994.3559 Q162.0601,996.4477 162.7449,997.5144 Q163.4297,998.581 164.7744,998.581 Q165.4053,998.581 165.9988,998.3112 Q166.5923,998.0415 167.2231,997.4604 Z " fill="#000000"/><text fill="#000000" font-family="sans-serif" font-size="14" lengthAdjust="spacing" textLength="66" x="184.75" y="999.831">Employee</text><line style="stroke:#181818;stroke-width:0.5;" x1="8" x2="395" y1="1010.54" y2="1010.54"/><text fill="#000000" font-family="sans-serif" font-size="14" lengthAdjust="spacing" textLength="91" x="13" y="1028.0752">-name:String</text><text fill="#000000" font-family="sans-serif" font-size="14" lengthAdjust="spacing" textLength="106" x="13" y="1044.5634">-birthdate:Date</text><text fill="#000000" font-family="sans-serif" font-size="14" lengthAdjust="spacing" textLength="144" x="13" y="1061.0517">-admissionDate:Date</text><text fill="#000000" font-family="sans-serif" font-size="14" lengthAdjust="spacing" textLength="62" x="13" y="1077.54">-address</text><text fill="#000000" font-family="sans-serif" font-size="14" lengthAdjust="spacing" textLength="153" x="13" y="1094.0283">-mobileContact:String</text><text fill="#000000" font-family="sans-serif" font-size="14" lengthAdjust="spacing" textLength="143" x="13" y="1110.5166">-emailContact:String</text><text fill="#000000" font-family="sans-serif" font-size="14" lengthAdjust="spacing" textLength="125" x="13" y="1127.0048">-IDdocType:String</text><text fill="#000000" font-family="sans-serif" font-size="14" lengthAdjust="spacing" textLength="121" x="13" y="1143.4931">-IDnumber:String</text><text fill="#000000" font-family="sans-serif" font-size="14" lengthAdjust="spacing" textLength="130" x="13" y="1159.9814">-taxNumber:String</text><text fill="#000000" font-family="sans-serif" font-size="14" lengthAdjust="spacing" textLength="56" x="13" y="1176.4697">-job:Job</text><line style="stroke:#181818;stroke-width:0.5;" x1="8" x2="395" y1="1183.4228" y2="1183.4228"/><text fill="#000000" font-family="sans-serif" font-size="14" lengthAdjust="spacing" textLength="326" x="13" y="1200.958">+Employee (String nome,LocalDate dateOfBirth,</text><text fill="#000000" font-family="sans-serif" font-size="14" lengthAdjust="spacing" textLength="377" x="13" y="1217.4463">LocalDate admissionDate, String morada, int telemovel,</text><text fill="#000000" font-family="sans-serif" font-size="14" lengthAdjust="spacing" textLength="354" x="13" y="1233.9345">String email, String idDocType, int docTypeNumber,</text><text fill="#000000" font-family="sans-serif" font-size="14" lengthAdjust="spacing" textLength="290" x="13" y="1250.4228">int taxPayerIdNumber, String role, Job job)</text></g><!--class Repositories--><g id="elem_Repositories"><rect codeLine="55" fill="#F1F1F1" height="212.8828" id="Repositories" rx="2.5" ry="2.5" style="stroke:#181818;stroke-width:0.5;" width="370" x="252.5" y="735.65"/><ellipse cx="390.75" cy="751.65" fill="#ADD1B2" rx="11" ry="11" style="stroke:#181818;stroke-width:1.0;"/><path d="M393.7231,757.2931 Q393.1421,757.5919 392.5029,757.7413 Q391.8638,757.8907 391.1582,757.8907 Q388.6514,757.8907 387.3315,756.2389 Q386.0117,754.587 386.0117,751.4659 Q386.0117,748.3365 387.3315,746.6847 Q388.6514,745.0328 391.1582,745.0328 Q391.8638,745.0328 392.5112,745.1822 Q393.1587,745.3316 393.7231,745.6305 L393.7231,748.3531 Q393.0923,747.7721 392.4988,747.5023 Q391.9053,747.2325 391.2744,747.2325 Q389.9297,747.2325 389.2449,748.2992 Q388.5601,749.3658 388.5601,751.4659 Q388.5601,753.5577 389.2449,754.6244 Q389.9297,755.691 391.2744,755.691 Q391.9053,755.691 392.4988,755.4212 Q393.0923,755.1515 393.7231,754.5704 Z " fill="#000000"/><text fill="#000000" font-family="sans-serif" font-size="14" lengthAdjust="spacing" textLength="85" x="411.25" y="756.941">Repositories</text><line style="stroke:#181818;stroke-width:0.5;" x1="253.5" x2="621.5" y1="767.65" y2="767.65"/><text fill="#000000" font-family="sans-serif" font-size="14" lengthAdjust="spacing" textLength="154" x="258.5" y="785.1852">-instance:Repositories</text><text fill="#000000" font-family="sans-serif" font-size="14" lengthAdjust="spacing" textLength="213" x="258.5" y="801.6734">-skillRepository:SkillRepository</text><text fill="#000000" font-family="sans-serif" font-size="14" lengthAdjust="spacing" textLength="202" x="258.5" y="818.1617">-jobRepository:JobRepository</text><text fill="#000000" font-family="sans-serif" font-size="14" lengthAdjust="spacing" textLength="290" x="258.5" y="834.65">-employeeRepository:EmployeeRepository</text><text fill="#000000" font-family="sans-serif" font-size="14" lengthAdjust="spacing" textLength="358" x="258.5" y="851.1383">-authenticationRepository:AuthenticationRepository</text><line style="stroke:#181818;stroke-width:0.5;" x1="253.5" x2="621.5" y1="858.0914" y2="858.0914"/><text fill="#000000" font-family="sans-serif" font-size="14" lengthAdjust="spacing" textLength="100" x="258.5" y="875.6266">+getInstance()</text><text fill="#000000" font-family="sans-serif" font-size="14" lengthAdjust="spacing" textLength="144" x="258.5" y="892.1148">+getSkillRepository()</text><text fill="#000000" font-family="sans-serif" font-size="14" lengthAdjust="spacing" textLength="138" x="258.5" y="908.6031">+getJobRepository()</text><text fill="#000000" font-family="sans-serif" font-size="14" lengthAdjust="spacing" textLength="182" x="258.5" y="925.0914">+getEmployeeRepository()</text><text fill="#000000" font-family="sans-serif" font-size="14" lengthAdjust="spacing" textLength="217" x="258.5" y="941.5797">+getAuthenticationRepository()</text></g><!--class VehicleRepository--><g id="elem_VehicleRepository"><rect codeLine="70" fill="#F1F1F1" height="97.4648" id="VehicleRepository" rx="2.5" ry="2.5" style="stroke:#181818;stroke-width:0.5;" width="212" x="331.5" y="1287.37"/><ellipse cx="372.6" cy="1303.37" fill="#ADD1B2" rx="11" ry="11" style="stroke:#181818;stroke-width:1.0;"/><path d="M375.5731,1309.0131 Q374.9921,1309.3119 374.3529,1309.4613 Q373.7138,1309.6107 373.0082,1309.6107 Q370.5014,1309.6107 369.1815,1307.9589 Q367.8617,1306.307 367.8617,1303.1859 Q367.8617,1300.0565 369.1815,1298.4047 Q370.5014,1296.7528 373.0082,1296.7528 Q373.7138,1296.7528 374.3612,1296.9022 Q375.0087,1297.0516 375.5731,1297.3505 L375.5731,1300.0731 Q374.9423,1299.4921 374.3488,1299.2223 Q373.7553,1298.9525 373.1244,1298.9525 Q371.7797,1298.9525 371.0949,1300.0192 Q370.4101,1301.0858 370.4101,1303.1859 Q370.4101,1305.2777 371.0949,1306.3444 Q371.7797,1307.411 373.1244,1307.411 Q373.7553,1307.411 374.3488,1307.1412 Q374.9423,1306.8715 375.5731,1306.2904 Z " fill="#000000"/><text fill="#000000" font-family="sans-serif" font-size="14" lengthAdjust="spacing" textLength="122" x="392.4" y="1308.661">VehicleRepository</text><line style="stroke:#181818;stroke-width:0.5;" x1="332.5" x2="542.5" y1="1319.37" y2="1319.37"/><line style="stroke:#181818;stroke-width:0.5;" x1="332.5" x2="542.5" y1="1327.37" y2="1327.37"/><text fill="#000000" font-family="sans-serif" font-size="14" lengthAdjust="spacing" textLength="99" x="337.5" y="1344.9052">+getVehicles()</text><text fill="#000000" font-family="sans-serif" font-size="14" lengthAdjust="spacing" textLength="200" x="337.5" y="1361.3934">+validateVehicle(newVehicle)</text><text fill="#000000" font-family="sans-serif" font-size="14" lengthAdjust="spacing" textLength="173" x="337.5" y="1377.8817">+addVehicle(newVehicle)</text></g><!--class AuthenticationRepository--><g id="elem_AuthenticationRepository"><rect codeLine="76" fill="#F1F1F1" height="64.4883" id="AuthenticationRepository" rx="2.5" ry="2.5" style="stroke:#181818;stroke-width:0.5;" width="209" x="753" y="809.85"/><ellipse cx="769.35" cy="825.85" fill="#ADD1B2" rx="11" ry="11" style="stroke:#181818;stroke-width:1.0;"/><path d="M772.3231,831.4931 Q771.7421,831.7919 771.1029,831.9413 Q770.4638,832.0907 769.7582,832.0907 Q767.2514,832.0907 765.9315,830.4389 Q764.6117,828.787 764.6117,825.6659 Q764.6117,822.5365 765.9315,820.8847 Q767.2514,819.2328 769.7582,819.2328 Q770.4638,819.2328 771.1112,819.3822 Q771.7587,819.5316 772.3231,819.8305 L772.3231,822.5531 Q771.6923,821.9721 771.0988,821.7023 Q770.5053,821.4325 769.8744,821.4325 Q768.5297,821.4325 767.8449,822.4992 Q767.1601,823.5658 767.1601,825.6659 Q767.1601,827.7577 767.8449,828.8244 Q768.5297,829.891 769.8744,829.891 Q770.5053,829.891 771.0988,829.6212 Q771.6923,829.3515 772.3231,828.7704 Z " fill="#000000"/><text fill="#000000" font-family="sans-serif" font-size="14" lengthAdjust="spacing" textLength="174" x="783.65" y="831.141">AuthenticationRepository</text><line style="stroke:#181818;stroke-width:0.5;" x1="754" x2="961" y1="841.85" y2="841.85"/><line style="stroke:#181818;stroke-width:0.5;" x1="754" x2="961" y1="849.85" y2="849.85"/><text fill="#000000" font-family="sans-serif" font-size="14" lengthAdjust="spacing" textLength="197" x="759" y="867.3852">+getEmployeeFromSession()</text></g><!--class Vehicle--><g id="elem_Vehicle"><rect codeLine="80" fill="#F1F1F1" height="361.2773" id="Vehicle" rx="2.5" ry="2.5" style="stroke:#181818;stroke-width:0.5;" width="300" x="271.5" y="1461.84"/><ellipse cx="392.75" cy="1477.84" fill="#ADD1B2" rx="11" ry="11" style="stroke:#181818;stroke-width:1.0;"/><path d="M395.7231,1483.4831 Q395.1421,1483.7819 394.5029,1483.9313 Q393.8638,1484.0807 393.1582,1484.0807 Q390.6514,1484.0807 389.3315,1482.4289 Q388.0117,1480.777 388.0117,1477.6559 Q388.0117,1474.5265 389.3315,1472.8747 Q390.6514,1471.2228 393.1582,1471.2228 Q393.8638,1471.2228 394.5112,1471.3722 Q395.1587,1471.5216 395.7231,1471.8205 L395.7231,1474.5431 Q395.0923,1473.9621 394.4988,1473.6923 Q393.9053,1473.4225 393.2744,1473.4225 Q391.9297,1473.4225 391.2449,1474.4892 Q390.5601,1475.5558 390.5601,1477.6559 Q390.5601,1479.7477 391.2449,1480.8144 Q391.9297,1481.881 393.2744,1481.881 Q393.9053,1481.881 394.4988,1481.6112 Q395.0923,1481.3415 395.7231,1480.7604 Z " fill="#000000"/><text fill="#000000" font-family="sans-serif" font-size="14" lengthAdjust="spacing" textLength="49" x="413.25" y="1483.131">Vehicle</text><line style="stroke:#181818;stroke-width:0.5;" x1="272.5" x2="570.5" y1="1493.84" y2="1493.84"/><text fill="#000000" font-family="sans-serif" font-size="14" lengthAdjust="spacing" textLength="94" x="277.5" y="1511.3752">-String brand</text><text fill="#000000" font-family="sans-serif" font-size="14" lengthAdjust="spacing" textLength="96" x="277.5" y="1527.8634">-String model</text><text fill="#000000" font-family="sans-serif" font-size="14" lengthAdjust="spacing" textLength="82" x="277.5" y="1544.3517">-String type</text><text fill="#000000" font-family="sans-serif" font-size="14" lengthAdjust="spacing" textLength="135" x="277.5" y="1560.84">-Integer tareWeight</text><text fill="#000000" font-family="sans-serif" font-size="14" lengthAdjust="spacing" textLength="146" x="277.5" y="1577.3283">-Integer grossWeight</text><text fill="#000000" font-family="sans-serif" font-size="14" lengthAdjust="spacing" textLength="141" x="277.5" y="1593.8166">-Integer currenteKm</text><text fill="#000000" font-family="sans-serif" font-size="14" lengthAdjust="spacing" textLength="127" x="277.5" y="1610.3048">-Date registerDate</text><text fill="#000000" font-family="sans-serif" font-size="14" lengthAdjust="spacing" textLength="149" x="277.5" y="1626.7931">-Date acquisitionDate</text><text fill="#000000" font-family="sans-serif" font-size="14" lengthAdjust="spacing" textLength="220" x="277.5" y="1643.2814">-Integer maintenanceFrequency</text><text fill="#000000" font-family="sans-serif" font-size="14" lengthAdjust="spacing" textLength="142" x="277.5" y="1659.7697">-String plateNumber</text><text fill="#000000" font-family="sans-serif" font-size="14" lengthAdjust="spacing" textLength="194" x="277.5" y="1676.258">-Integer passengersNumber</text><text fill="#000000" font-family="sans-serif" font-size="14" lengthAdjust="spacing" textLength="156" x="277.5" y="1692.7463">-Integer doorsNumber</text><text fill="#000000" font-family="sans-serif" font-size="14" lengthAdjust="spacing" textLength="112" x="277.5" y="1709.2345">-String fuelType</text><text fill="#000000" font-family="sans-serif" font-size="14" lengthAdjust="spacing" textLength="172" x="277.5" y="1725.7228">-Boolean trailerMachines</text><line style="stroke:#181818;stroke-width:0.5;" x1="272.5" x2="570.5" y1="1732.6759" y2="1732.6759"/><text fill="#000000" font-family="sans-serif" font-size="14" lengthAdjust="spacing" textLength="283" x="277.5" y="1750.2111">+Vehicle(brand, model, type, tare weight,</text><text fill="#000000" font-family="sans-serif" font-size="14" lengthAdjust="spacing" textLength="266" x="277.5" y="1766.6994">gross weight, current km,register date,</text><text fill="#000000" font-family="sans-serif" font-size="14" lengthAdjust="spacing" textLength="281" x="277.5" y="1783.1877">acquisition date, maintenance frequency,</text><text fill="#000000" font-family="sans-serif" font-size="14" lengthAdjust="spacing" textLength="240" x="277.5" y="1799.6759">plate number, passengers number,</text><text fill="#000000" font-family="sans-serif" font-size="14" lengthAdjust="spacing" textLength="288" x="277.5" y="1816.1642">doors number, fuel type, trailer machines)</text></g><!--class VehicleMaintenance--><g id="elem_VehicleMaintenance"><rect codeLine="99" fill="#F1F1F1" height="80.9766" id="VehicleMaintenance" rx="2.5" ry="2.5" style="stroke:#181818;stroke-width:0.5;" width="246" x="109.5" y="1900.11"/><ellipse cx="160.25" cy="1916.11" fill="#ADD1B2" rx="11" ry="11" style="stroke:#181818;stroke-width:1.0;"/><path d="M163.2231,1921.7531 Q162.6421,1922.0519 162.0029,1922.2013 Q161.3638,1922.3507 160.6582,1922.3507 Q158.1514,1922.3507 156.8315,1920.6989 Q155.5117,1919.047 155.5117,1915.9259 Q155.5117,1912.7965 156.8315,1911.1447 Q158.1514,1909.4928 160.6582,1909.4928 Q161.3638,1909.4928 162.0112,1909.6422 Q162.6587,1909.7916 163.2231,1910.0905 L163.2231,1912.8131 Q162.5923,1912.2321 161.9988,1911.9623 Q161.4053,1911.6925 160.7744,1911.6925 Q159.4297,1911.6925 158.7449,1912.7592 Q158.0601,1913.8258 158.0601,1915.9259 Q158.0601,1918.0177 158.7449,1919.0844 Q159.4297,1920.151 160.7744,1920.151 Q161.4053,1920.151 161.9988,1919.8812 Q162.5923,1919.6115 163.2231,1919.0304 Z " fill="#000000"/><text fill="#000000" font-family="sans-serif" font-size="14" lengthAdjust="spacing" textLength="136" x="180.75" y="1921.401">VehicleMaintenance</text><line style="stroke:#181818;stroke-width:0.5;" x1="110.5" x2="354.5" y1="1932.11" y2="1932.11"/><text fill="#000000" font-family="sans-serif" font-size="14" lengthAdjust="spacing" textLength="130" x="115.5" y="1949.6452">-String description</text><line style="stroke:#181818;stroke-width:0.5;" x1="110.5" x2="354.5" y1="1956.5983" y2="1956.5983"/><text fill="#000000" font-family="sans-serif" font-size="14" lengthAdjust="spacing" textLength="234" x="115.5" y="1974.1334">+VehicleMaintenance(description)</text></g><!--link CreateVehicleUI to CreateVehicleController--><g id="link_CreateVehicleUI_CreateVehicleController"><path codeLine="105" d="M628.5,401.72 C628.5,422.61 628.5,437.14 628.5,456.12 " fill="none" id="CreateVehicleUI-to-CreateVehicleController" style="stroke:#181818;stroke-width:1.0;stroke-dasharray:7.0,7.0;"/><polygon fill="#181818" points="628.5,462.12,632.5,453.12,628.5,457.12,624.5,453.12,628.5,462.12" style="stroke:#181818;stroke-width:1.0;"/><text fill="#000000" font-family="sans-serif" font-size="13" lengthAdjust="spacing" textLength="8" x="620.3563" y="421.6645">1</text><text fill="#000000" font-family="sans-serif" font-size="13" lengthAdjust="spacing" textLength="8" x="620.1938" y="451.5971">1</text></g><!--link CreateVehicleController to Repositories--><g id="link_CreateVehicleController_Repositories"><path codeLine="107" d="M561.97,658.87 C545.06,683.61 530.2035,705.365 513.0435,730.495 " fill="none" id="CreateVehicleController-to-Repositories" style="stroke:#181818;stroke-width:1.0;"/><polygon fill="#181818" points="509.66,735.45,518.0386,730.2732,512.4796,731.3208,511.4319,725.7619,509.66,735.45" style="stroke:#181818;stroke-width:1.0;"/><text fill="#000000" font-family="sans-serif" font-size="13" lengthAdjust="spacing" textLength="73" x="540.5" y="702.2184">getInstance</text><text fill="#000000" font-family="sans-serif" font-size="13" lengthAdjust="spacing" textLength="8" x="548.7905" y="679.2277">1</text><text fill="#000000" font-family="sans-serif" font-size="13" lengthAdjust="spacing" textLength="8" x="506.4525" y="725.0037">1</text></g><!--link Repositories to VehicleRepository--><g id="link_Repositories_VehicleRepository"><path codeLine="109" d="M437.5,948.94 C437.5,1053.58 437.5,1202.99 437.5,1280.9 " fill="none" id="Repositories-to-VehicleRepository" style="stroke:#181818;stroke-width:1.0;stroke-dasharray:7.0,7.0;"/><polygon fill="#181818" points="437.5,1286.9,441.5,1277.9,437.5,1281.9,433.5,1277.9,437.5,1286.9" style="stroke:#181818;stroke-width:1.0;"/><text fill="#000000" font-family="sans-serif" font-size="13" lengthAdjust="spacing" textLength="38" x="438.5" y="1123.0184">create</text><text fill="#000000" font-family="sans-serif" font-size="13" lengthAdjust="spacing" textLength="8" x="429.2313" y="969.2016">1</text><text fill="#000000" font-family="sans-serif" font-size="13" lengthAdjust="spacing" textLength="8" x="428.9375" y="1276.5164">1</text></g><!--link CreateVehicleController to Employee--><g id="link_CreateVehicleController_Employee"><path codeLine="111" d="M443.04,643.45 C340.85,688.63 234.5,735.65 234.5,735.65 C234.5,735.65 223.457,863.2123 214.027,972.2423 " fill="none" id="CreateVehicleController-to-Employee" style="stroke:#181818;stroke-width:1.0;"/><polygon fill="#181818" points="213.51,978.22,218.2706,969.5981,213.9408,973.2386,210.3004,968.9088,213.51,978.22" style="stroke:#181818;stroke-width:1.0;"/><text fill="#000000" font-family="sans-serif" font-size="13" lengthAdjust="spacing" textLength="162" x="335.5" y="702.2184">createVehicleMaintenance</text></g><!--link CreateVehicleController to AuthenticationRepository--><g id="link_CreateVehicleController_AuthenticationRepository"><path codeLine="113" d="M708.27,658.87 C751.38,711.51 797.9484,768.378 827.7584,804.778 " fill="none" id="CreateVehicleController-to-AuthenticationRepository" style="stroke:#181818;stroke-width:1.0;"/><polygon fill="#181818" points="831.56,809.42,828.9523,799.9226,828.392,805.5517,822.763,804.9914,831.56,809.42" style="stroke:#181818;stroke-width:1.0;"/><text fill="#000000" font-family="sans-serif" font-size="13" lengthAdjust="spacing" textLength="143" x="743.5" y="702.2184">getCurrentUserSession</text><text fill="#000000" font-family="sans-serif" font-size="13" lengthAdjust="spacing" textLength="8" x="705.8344" y="679.2277">1</text><text fill="#000000" font-family="sans-serif" font-size="13" lengthAdjust="spacing" textLength="8" x="817.6656" y="799.1096">1</text></g><!--link Employee to VehicleMaintenance--><g id="link_Employee_VehicleMaintenance"><path codeLine="115" d="M206.74,1257.7 C213.98,1449.43 226.4235,1778.7543 230.7635,1893.6543 " fill="none" id="Employee-to-VehicleMaintenance" style="stroke:#181818;stroke-width:1.0;"/><polygon fill="#181818" points="230.99,1899.65,234.6474,1890.5054,230.8013,1894.6536,226.6531,1890.8074,230.99,1899.65" style="stroke:#181818;stroke-width:1.0;"/><text fill="#000000" font-family="sans-serif" font-size="13" lengthAdjust="spacing" textLength="189" x="214.5" y="1428.4084">createNewVehicleMaintenance</text><text fill="#000000" font-family="sans-serif" font-size="13" lengthAdjust="spacing" textLength="8" x="198.8039" y="1277.8685">1</text><text fill="#000000" font-family="sans-serif" font-size="13" lengthAdjust="spacing" textLength="6" x="224.243" y="1889.2198">*</text></g><!--link CreateVehicleController to VehicleRepository--><g id="link_CreateVehicleController_VehicleRepository"><path codeLine="117" d="M635.22,658.99 C637.96,698.8 640.5,735.65 640.5,735.65 C640.5,735.65 640.5,948.54 640.5,948.54 C640.5,948.54 485.5,1257.37 485.5,1257.37 C485.5,1257.37 480.1138,1266.1058 470.2338,1282.0958 " fill="none" id="CreateVehicleController-to-VehicleRepository" style="stroke:#181818;stroke-width:1.0;"/><polygon fill="#181818" points="467.08,1287.2,475.2136,1281.6462,469.7082,1282.9465,468.4079,1277.4411,467.08,1287.2" style="stroke:#181818;stroke-width:1.0;"/><text fill="#000000" font-family="sans-serif" font-size="13" lengthAdjust="spacing" textLength="23" x="641.5" y="847.1584">add</text></g><!--link VehicleRepository to Vehicle--><g id="link_VehicleRepository_Vehicle"><path codeLine="119" d="M434.96,1385.33 C433.84,1406.79 432.7442,1427.5382 431.2742,1455.5682 " fill="none" id="VehicleRepository-to-Vehicle" style="stroke:#181818;stroke-width:1.0;"/><polygon fill="#181818" points="430.96,1461.56,435.4259,1452.7818,431.2219,1456.5669,427.4368,1452.3629,430.96,1461.56" style="stroke:#181818;stroke-width:1.0;"/><text fill="#000000" font-family="sans-serif" font-size="13" lengthAdjust="spacing" textLength="29" x="434.5" y="1428.4084">have</text></g><!--link Vehicle to VehicleMaintenance--><g id="link_Vehicle_VehicleMaintenance"><path codeLine="121" d="M306.66,1823.41 C288.41,1852 274.4584,1873.8626 261.2384,1894.5726 " fill="none" id="Vehicle-to-VehicleMaintenance" style="stroke:#181818;stroke-width:1.0;"/><polygon fill="#181818" points="258.01,1899.63,266.2242,1894.1961,260.7003,1895.4155,259.4809,1889.8916,258.01,1899.63" style="stroke:#181818;stroke-width:1.0;"/><text fill="#000000" font-family="sans-serif" font-size="13" lengthAdjust="spacing" textLength="29" x="284.5" y="1866.6784">have</text><text fill="#000000" font-family="sans-serif" font-size="13" lengthAdjust="spacing" textLength="8" x="293.6464" y="1843.9344">1</text><text fill="#000000" font-family="sans-serif" font-size="13" lengthAdjust="spacing" textLength="6" x="255.5975" y="1889.4985">*</text></g><!--SRC=[tLPDSziu3BthLt1oYRTrEhjN7pgJnEsEsqssK_VZaWjDmJ8t_519Agatq_zUKAGaYfAdxRKv914UGE8z4W3FxJrNDJLK4gcLPWUZ9H1d6YW6fARidbQmTKS1n01pL5KYTR07Mkf7hYgofyAcYE0AtB46Kcjnz1_5-GoeZTD54iK4jVRIESDtZOCDqshB_mVoPr6S2zWxuZGnl3euKdAV3jUgADeOScs0ElW41yu4VDoGfuBWptFJgCKVyL_uqe1rQ-heOcUeAfV8l0In93uL_4qDa4Vmoo_9dQgCncMxRzOO0ygHUxaqK77hm90ID_IUb7rfkEK-csYJb2i7YYe6PD_kgzZHkzO2SQ8QkGEpH7cj1LM1iPtfJfLQ3vzatu3eqZEK2znLKdP0-MnaPPkTv87KcEULfvZPRZpVpFO1LyzDgCJdbdW6_EqrcKMkWpvlRpBx-oWM9fZlSZd8DeFU31A-xXJCNDvvCMzRfNAa5tOMNdkDPv7NgFUS847xcoWzejzcxzsrLiveuOyftByByX2Gzr1hvAhDSVKfjqHFshW3IiWPzP8a0PSdW286Lk1UoLhe8w1KMcx1MlJhA9pAS379h0jWQS3lKIhzSNL2nUDHLC9gY-r6LS6muyOTV6OhVoU3ZPQIjvAkStjfKElm8VME1tafSwCb0IcAEM2pBZNpjosp1aOZewDVRwVM__HkzKRlmZrutb4ZY-1357RqvJ-QKU5pRlN-Tt_b2Q9uWtr4RqbYiDI6bdH9y7I80m5IF-3vtwa8jwHwPrwk0vFW7sdTTWVLha6_lgD7C9iochjOl8qOXZG8qabEgh-N76nNJ5nPvs_AAWKZXaD4YAHgjkFlw8Lx93vlqg_e0L76nEtLn1GlmAzNR2mnBDbDvDBNATgod5Deb6eAJ9DBqLEPf2riqf2UXlY8sNxD1ofucRG71O_ntyu3os8ExBSxbTBJbDEudUK9zpqstgIsKurDRTSQctoBY9ODTXviAMqx2rCj0wfXtcL8R7BmLaQWBIMJJBlKJiUZBbjBpeowSSxrCEcos3gRT1bS3fDklE8-3hfelT9OXLHrdRCRTDrr_JrdGMILl3Jo6rM2PORNuPqvaY89MYHUxUhvK_JihpFouiNBzk-9OPm59Uy87tHn4OBJhaTMQHCfYX6MxZYfRemC4_xqfdx3VfoinW-2XFdFPNsgtWE3-73yQC74IY-AVkj-cMTdSwVLPNRRjvcVIiwlE55bvVjMKKpLIhnnmmDzWDxhn_crxjy1]--></g></svg>