<?xml version="1.0" encoding="us-ascii" standalone="no"?><svg xmlns="http://www.w3.org/2000/svg" xmlns:xlink="http://www.w3.org/1999/xlink" contentStyleType="text/css" height="367px" preserveAspectRatio="none" style="width:662px;height:367px;background:#FFFFFF;" version="1.1" viewBox="0 0 662 367" width="662px" zoomAndPan="magnify"><defs/><g><rect fill="#FFFFFF" height="213.1738" style="stroke:#181818;stroke-width:1.0;" width="10" x="207" y="84.2871"/><rect fill="#FFFFFF" height="87.9316" style="stroke:#181818;stroke-width:1.0;" width="10" x="444" y="155.9082"/><rect fill="#FFFFFF" height="29.3105" style="stroke:#181818;stroke-width:1.0;" width="10" x="600.5" y="185.2188"/><line style="stroke:#181818;stroke-width:0.5;stroke-dasharray:5.0,5.0;" x1="211.5" x2="211.5" y1="52.9766" y2="315.4609"/><line style="stroke:#181818;stroke-width:0.5;stroke-dasharray:5.0,5.0;" x1="449" x2="449" y1="52.9766" y2="315.4609"/><line style="stroke:#181818;stroke-width:0.5;stroke-dasharray:5.0,5.0;" x1="605" x2="605" y1="52.9766" y2="315.4609"/><rect fill="#E3E3E3" height="46.9766" rx="2.5" ry="2.5" style="stroke:#181818;stroke-width:0.5;" width="103" x="160.5" y="5"/><text fill="#000000" font-family="sans-serif" font-size="14" lengthAdjust="spacing" textLength="82" x="171" y="25.5352">repositories</text><text fill="#000000" font-family="sans-serif" font-size="14" lengthAdjust="spacing" textLength="89" x="167.5" y="42.0234">:Repositories</text><rect fill="#E3E3E3" height="46.9766" rx="2.5" ry="2.5" style="stroke:#181818;stroke-width:0.5;" width="103" x="160.5" y="314.4609"/><text fill="#000000" font-family="sans-serif" font-size="14" lengthAdjust="spacing" textLength="82" x="171" y="334.9961">repositories</text><text fill="#000000" font-family="sans-serif" font-size="14" lengthAdjust="spacing" textLength="89" x="167.5" y="351.4844">:Repositories</text><rect fill="#E3E3E3" height="46.9766" rx="2.5" ry="2.5" style="stroke:#181818;stroke-width:0.5;" width="192" x="353" y="5"/><text fill="#000000" font-family="sans-serif" font-size="14" lengthAdjust="spacing" textLength="172" x="363" y="25.5352">authenticationRepository</text><text fill="#000000" font-family="sans-serif" font-size="14" lengthAdjust="spacing" textLength="178" x="360" y="42.0234">:AuthenticationRepository</text><rect fill="#E3E3E3" height="46.9766" rx="2.5" ry="2.5" style="stroke:#181818;stroke-width:0.5;" width="192" x="353" y="314.4609"/><text fill="#000000" font-family="sans-serif" font-size="14" lengthAdjust="spacing" textLength="172" x="363" y="334.9961">authenticationRepository</text><text fill="#000000" font-family="sans-serif" font-size="14" lengthAdjust="spacing" textLength="178" x="360" y="351.4844">:AuthenticationRepository</text><rect fill="#E3E3E3" height="46.9766" rx="2.5" ry="2.5" style="stroke:#181818;stroke-width:0.5;" width="101" x="555" y="5"/><text fill="#000000" font-family="sans-serif" font-size="14" lengthAdjust="spacing" textLength="82" x="564.5" y="25.5352">userSession</text><text fill="#000000" font-family="sans-serif" font-size="14" lengthAdjust="spacing" textLength="87" x="562" y="42.0234">:UserSessoin</text><rect fill="#E3E3E3" height="46.9766" rx="2.5" ry="2.5" style="stroke:#181818;stroke-width:0.5;" width="101" x="555" y="314.4609"/><text fill="#000000" font-family="sans-serif" font-size="14" lengthAdjust="spacing" textLength="82" x="564.5" y="334.9961">userSession</text><text fill="#000000" font-family="sans-serif" font-size="14" lengthAdjust="spacing" textLength="87" x="562" y="351.4844">:UserSessoin</text><rect fill="#FFFFFF" height="213.1738" style="stroke:#181818;stroke-width:1.0;" width="10" x="207" y="84.2871"/><rect fill="#FFFFFF" height="87.9316" style="stroke:#181818;stroke-width:1.0;" width="10" x="444" y="155.9082"/><rect fill="#FFFFFF" height="29.3105" style="stroke:#181818;stroke-width:1.0;" width="10" x="600.5" y="185.2188"/><polygon fill="#181818" points="195,80.2871,205,84.2871,195,88.2871,199,84.2871" style="stroke:#181818;stroke-width:1.0;"/><line style="stroke:#181818;stroke-width:1.0;" x1="0" x2="201" y1="84.2871" y2="84.2871"/><text fill="#000000" font-family="sans-serif" font-size="13" font-weight="bold" lengthAdjust="spacing" textLength="9" x="7" y="79.5449">6</text><text fill="#000000" font-family="sans-serif" font-size="13" lengthAdjust="spacing" textLength="168" x="20" y="79.5449">getEmployeeFromSession()</text><line style="stroke:#181818;stroke-width:1.0;" x1="217" x2="259" y1="113.5977" y2="113.5977"/><line style="stroke:#181818;stroke-width:1.0;" x1="259" x2="259" y1="113.5977" y2="126.5977"/><line style="stroke:#181818;stroke-width:1.0;" x1="218" x2="259" y1="126.5977" y2="126.5977"/><polygon fill="#181818" points="228,122.5977,218,126.5977,228,130.5977,224,126.5977" style="stroke:#181818;stroke-width:1.0;"/><text fill="#000000" font-family="sans-serif" font-size="13" font-weight="bold" lengthAdjust="spacing" textLength="21" x="224" y="108.8555">6.1</text><text fill="#000000" font-family="sans-serif" font-size="13" lengthAdjust="spacing" textLength="188" x="249" y="108.8555">getAuthenticationRepository()</text><polygon fill="#181818" points="432,151.9082,442,155.9082,432,159.9082,436,155.9082" style="stroke:#181818;stroke-width:1.0;"/><line style="stroke:#181818;stroke-width:1.0;" x1="217" x2="438" y1="155.9082" y2="155.9082"/><text fill="#000000" font-family="sans-serif" font-size="13" font-weight="bold" lengthAdjust="spacing" textLength="21" x="224" y="151.166">6.2</text><text fill="#000000" font-family="sans-serif" font-size="13" lengthAdjust="spacing" textLength="151" x="249" y="151.166">getCurrentUserSession()</text><polygon fill="#181818" points="588.5,181.2188,598.5,185.2188,588.5,189.2188,592.5,185.2188" style="stroke:#181818;stroke-width:1.0;"/><line style="stroke:#181818;stroke-width:1.0;" x1="454" x2="594.5" y1="185.2188" y2="185.2188"/><text fill="#000000" font-family="sans-serif" font-size="13" font-weight="bold" lengthAdjust="spacing" textLength="21" x="461" y="180.4766">6.3</text><text fill="#000000" font-family="sans-serif" font-size="13" lengthAdjust="spacing" textLength="68" x="486" y="180.4766">getUserId()</text><polygon fill="#181818" points="465,210.5293,455,214.5293,465,218.5293,461,214.5293" style="stroke:#181818;stroke-width:1.0;"/><line style="stroke:#181818;stroke-width:1.0;stroke-dasharray:2.0,2.0;" x1="459" x2="604.5" y1="214.5293" y2="214.5293"/><text fill="#000000" font-family="sans-serif" font-size="13" font-weight="bold" lengthAdjust="spacing" textLength="21" x="471" y="209.7871">6.4</text><text fill="#000000" font-family="sans-serif" font-size="13" lengthAdjust="spacing" textLength="60" x="496" y="209.7871">employee</text><polygon fill="#181818" points="228,239.8398,218,243.8398,228,247.8398,224,243.8398" style="stroke:#181818;stroke-width:1.0;"/><line style="stroke:#181818;stroke-width:1.0;stroke-dasharray:2.0,2.0;" x1="222" x2="448" y1="243.8398" y2="243.8398"/><text fill="#000000" font-family="sans-serif" font-size="13" font-weight="bold" lengthAdjust="spacing" textLength="21" x="234" y="239.0977">6.5</text><text fill="#000000" font-family="sans-serif" font-size="13" lengthAdjust="spacing" textLength="60" x="259" y="239.0977">employee</text><polygon fill="#181818" points="11,293.4609,1,297.4609,11,301.4609,7,297.4609" style="stroke:#181818;stroke-width:1.0;"/><line style="stroke:#181818;stroke-width:1.0;stroke-dasharray:2.0,2.0;" x1="5" x2="211" y1="297.4609" y2="297.4609"/><text fill="#000000" font-family="sans-serif" font-size="13" font-weight="bold" lengthAdjust="spacing" textLength="9" x="17" y="292.7188">7</text><text fill="#000000" font-family="sans-serif" font-size="13" lengthAdjust="spacing" textLength="60" x="30" y="292.7188">employee</text><!--SRC=[TP71JiCm38RlUGfh5-1G92uWJMZIX0himj1ARqXJrdfjj3Qk4XVOsvDbMviEcfkJV5_yEtQdT2EDhA4cJLbfg4PWqwAmtKaZivqiCE5zXM0mOwcBAhnWIvdJjz85R6LbKOYhKkK8MoBUq8yGxXQhJ3LICqmCDcGLar5eF_Lq5PGJa1PMyVjoICYMIzIkbgn8Ty3UqVEH8s-Qfn-lwx-wrg99q5e7E4DwgaXf3wN9Qft4IR9OlWdXNYRTrXiqS2-YcUyDfb0WntLJqHxnsGti9Bk-6GAtTwxEM7r9ncCgSCih1ggn30TVI7HnZjXJQup3qZxD6UWUxGVWzm-hbpXZaFNeFCWM-TapS0tc0i4A9T55ctYQKa_aE6uCUejc_ne2-Y9ROQXju0KPuW4HVCY3stcC8Z_FG1mulUuN]--></g></svg>