<?xml version="1.0" encoding="us-ascii" standalone="no"?><svg xmlns="http://www.w3.org/2000/svg" xmlns:xlink="http://www.w3.org/1999/xlink" contentStyleType="text/css" height="1177px" preserveAspectRatio="none" style="width:1031px;height:1177px;background:#FFFFFF;" version="1.1" viewBox="0 0 1031 1177" width="1031px" zoomAndPan="magnify"><defs/><g><!--cluster Controller--><g id="cluster_Controller"><path d="M229.5,154.49 L303.5,154.49 A3.75,3.75 0 0 1 306,156.99 L313,176.9783 L744.5,176.9783 A2.5,2.5 0 0 1 747,179.4783 L747,283.96 A2.5,2.5 0 0 1 744.5,286.46 L229.5,286.46 A2.5,2.5 0 0 1 227,283.96 L227,156.99 A2.5,2.5 0 0 1 229.5,154.49 " fill="none" style="stroke:#000000;stroke-width:1.5;"/><line style="stroke:#000000;stroke-width:1.5;" x1="227" x2="313" y1="176.9783" y2="176.9783"/><text fill="#000000" font-family="sans-serif" font-size="14" font-weight="bold" lengthAdjust="spacing" textLength="73" x="231" y="170.0252">Controller</text></g><!--cluster UI--><g id="cluster_UI"><path d="M370.5,6 L386.5,6 A3.75,3.75 0 0 1 389,8.5 L396,28.4883 L603.5,28.4883 A2.5,2.5 0 0 1 606,30.9883 L606,118.99 A2.5,2.5 0 0 1 603.5,121.49 L370.5,121.49 A2.5,2.5 0 0 1 368,118.99 L368,8.5 A2.5,2.5 0 0 1 370.5,6 " fill="none" style="stroke:#000000;stroke-width:1.5;"/><line style="stroke:#000000;stroke-width:1.5;" x1="368" x2="396" y1="28.4883" y2="28.4883"/><text fill="#000000" font-family="sans-serif" font-size="14" font-weight="bold" lengthAdjust="spacing" textLength="15" x="372" y="21.5352">UI</text></g><!--cluster RepositoriesPkg--><g id="cluster_RepositoriesPkg"><path d="M115.5,335.46 L234.5,335.46 A3.75,3.75 0 0 1 237,337.96 L244,357.9483 L1021.5,357.9483 A2.5,2.5 0 0 1 1024,360.4483 L1024,722.33 A2.5,2.5 0 0 1 1021.5,724.83 L115.5,724.83 A2.5,2.5 0 0 1 113,722.33 L113,337.96 A2.5,2.5 0 0 1 115.5,335.46 " fill="none" style="stroke:#000000;stroke-width:1.5;"/><line style="stroke:#000000;stroke-width:1.5;" x1="113" x2="244" y1="357.9483" y2="357.9483"/><text fill="#000000" font-family="sans-serif" font-size="14" font-weight="bold" lengthAdjust="spacing" textLength="118" x="117" y="350.9952">RepositoriesPkg</text></g><!--cluster Domain--><g id="cluster_Domain"><path d="M8.5,757.83 L65.5,757.83 A3.75,3.75 0 0 1 68,760.33 L75,780.3183 L936.5,780.3183 A2.5,2.5 0 0 1 939,782.8183 L939,1167.61 A2.5,2.5 0 0 1 936.5,1170.11 L8.5,1170.11 A2.5,2.5 0 0 1 6,1167.61 L6,760.33 A2.5,2.5 0 0 1 8.5,757.83 " fill="none" style="stroke:#000000;stroke-width:1.5;"/><line style="stroke:#000000;stroke-width:1.5;" x1="6" x2="75" y1="780.3183" y2="780.3183"/><text fill="#000000" font-family="sans-serif" font-size="14" font-weight="bold" lengthAdjust="spacing" textLength="56" x="10" y="773.3652">Domain</text></g><!--class RecordTaskCompletionController--><g id="elem_RecordTaskCompletionController"><rect codeLine="11" fill="#F1F1F1" height="80.9766" id="RecordTaskCompletionController" rx="2.5" ry="2.5" style="stroke:#181818;stroke-width:0.5;" width="487" x="243.5" y="189.49"/><ellipse cx="367.75" cy="205.49" fill="#ADD1B2" rx="11" ry="11" style="stroke:#181818;stroke-width:1.0;"/><path d="M370.7231,211.1331 Q370.1421,211.4319 369.5029,211.5813 Q368.8638,211.7307 368.1582,211.7307 Q365.6514,211.7307 364.3315,210.0789 Q363.0117,208.427 363.0117,205.3059 Q363.0117,202.1765 364.3315,200.5247 Q365.6514,198.8728 368.1582,198.8728 Q368.8638,198.8728 369.5112,199.0222 Q370.1587,199.1716 370.7231,199.4705 L370.7231,202.1931 Q370.0923,201.6121 369.4988,201.3423 Q368.9053,201.0725 368.2744,201.0725 Q366.9297,201.0725 366.2449,202.1392 Q365.5601,203.2058 365.5601,205.3059 Q365.5601,207.3977 366.2449,208.4644 Q366.9297,209.531 368.2744,209.531 Q368.9053,209.531 369.4988,209.2612 Q370.0923,208.9915 370.7231,208.4104 Z " fill="#000000"/><text fill="#000000" font-family="sans-serif" font-size="14" lengthAdjust="spacing" textLength="230" x="388.25" y="210.781">RecordTaskCompletionController</text><line style="stroke:#181818;stroke-width:0.5;" x1="244.5" x2="729.5" y1="221.49" y2="221.49"/><line style="stroke:#181818;stroke-width:0.5;" x1="244.5" x2="729.5" y1="229.49" y2="229.49"/><text fill="#000000" font-family="sans-serif" font-size="14" lengthAdjust="spacing" textLength="475" x="249.5" y="247.0252">+getEntriesFromAgendaStartingFrom(currentDate, status="Planned")</text><text fill="#000000" font-family="sans-serif" font-size="14" lengthAdjust="spacing" textLength="281" x="249.5" y="263.5134">+recordTaskAsCompleted(selectedEntry)</text></g><!--class RecordTaskCompletionUI--><g id="elem_RecordTaskCompletionUI"><rect codeLine="19" fill="#F1F1F1" height="64.4883" id="RecordTaskCompletionUI" rx="2.5" ry="2.5" style="stroke:#181818;stroke-width:0.5;" width="206" x="384" y="41"/><ellipse cx="399" cy="57" fill="#ADD1B2" rx="11" ry="11" style="stroke:#181818;stroke-width:1.0;"/><path d="M401.9731,62.6431 Q401.3921,62.9419 400.7529,63.0913 Q400.1138,63.2407 399.4082,63.2407 Q396.9014,63.2407 395.5815,61.5889 Q394.2617,59.937 394.2617,56.8159 Q394.2617,53.6865 395.5815,52.0347 Q396.9014,50.3828 399.4082,50.3828 Q400.1138,50.3828 400.7612,50.5322 Q401.4087,50.6816 401.9731,50.9805 L401.9731,53.7031 Q401.3423,53.1221 400.7488,52.8523 Q400.1553,52.5825 399.5244,52.5825 Q398.1797,52.5825 397.4949,53.6492 Q396.8101,54.7158 396.8101,56.8159 Q396.8101,58.9077 397.4949,59.9744 Q398.1797,61.041 399.5244,61.041 Q400.1553,61.041 400.7488,60.7712 Q401.3423,60.5015 401.9731,59.9204 Z " fill="#000000"/><text fill="#000000" font-family="sans-serif" font-size="14" lengthAdjust="spacing" textLength="174" x="413" y="62.291">RecordTaskCompletionUI</text><line style="stroke:#181818;stroke-width:0.5;" x1="385" x2="589" y1="73" y2="73"/><line style="stroke:#181818;stroke-width:0.5;" x1="385" x2="589" y1="81" y2="81"/><text fill="#000000" font-family="sans-serif" font-size="14" lengthAdjust="spacing" textLength="45" x="390" y="98.5352">+run()</text></g><!--class Repositories--><g id="elem_Repositories"><rect codeLine="25" fill="#F1F1F1" height="196.3945" id="Repositories" rx="2.5" ry="2.5" style="stroke:#181818;stroke-width:0.5;" width="310" x="474" y="370.46"/><ellipse cx="582.25" cy="386.46" fill="#ADD1B2" rx="11" ry="11" style="stroke:#181818;stroke-width:1.0;"/><path d="M585.2231,392.1031 Q584.6421,392.4019 584.0029,392.5513 Q583.3638,392.7007 582.6582,392.7007 Q580.1514,392.7007 578.8315,391.0489 Q577.5117,389.397 577.5117,386.2759 Q577.5117,383.1465 578.8315,381.4947 Q580.1514,379.8428 582.6582,379.8428 Q583.3638,379.8428 584.0112,379.9922 Q584.6587,380.1416 585.2231,380.4405 L585.2231,383.1631 Q584.5923,382.5821 583.9988,382.3123 Q583.4053,382.0425 582.7744,382.0425 Q581.4297,382.0425 580.7449,383.1092 Q580.0601,384.1758 580.0601,386.2759 Q580.0601,388.3677 580.7449,389.4344 Q581.4297,390.501 582.7744,390.501 Q583.4053,390.501 583.9988,390.2312 Q584.5923,389.9615 585.2231,389.3804 Z " fill="#000000"/><text fill="#000000" font-family="sans-serif" font-size="14" lengthAdjust="spacing" textLength="85" x="602.75" y="391.751">Repositories</text><line style="stroke:#181818;stroke-width:0.5;" x1="475" x2="783" y1="402.46" y2="402.46"/><text fill="#000000" font-family="sans-serif" font-size="14" lengthAdjust="spacing" textLength="162" x="480" y="419.9952">-instance : Repositories</text><text fill="#000000" font-family="sans-serif" font-size="14" lengthAdjust="spacing" textLength="194" x="480" y="436.4834">-Repository : SkillRepository</text><text fill="#000000" font-family="sans-serif" font-size="14" lengthAdjust="spacing" textLength="210" x="480" y="452.9717">-jobRepository : JobRepository</text><text fill="#000000" font-family="sans-serif" font-size="14" lengthAdjust="spacing" textLength="298" x="480" y="469.46">-employeeRepository : EmployeeRepository</text><line style="stroke:#181818;stroke-width:0.5;" x1="475" x2="783" y1="476.4131" y2="476.4131"/><text fill="#000000" font-family="sans-serif" font-size="14" lengthAdjust="spacing" textLength="197" x="480" y="493.9483">+getInstance() : Repositories</text><text fill="#000000" font-family="sans-serif" font-size="14" lengthAdjust="spacing" textLength="144" x="480" y="510.4366">+getSkillRepository()</text><text fill="#000000" font-family="sans-serif" font-size="14" lengthAdjust="spacing" textLength="138" x="480" y="526.9248">+getJobRepository()</text><text fill="#000000" font-family="sans-serif" font-size="14" lengthAdjust="spacing" textLength="203" x="480" y="543.4131">+getCollaboratorRepository()</text><text fill="#000000" font-family="sans-serif" font-size="14" lengthAdjust="spacing" textLength="169" x="480" y="559.9014">+getAgendaRepository()</text></g><!--class AgendaRepository--><g id="elem_AgendaRepository"><rect codeLine="39" fill="#F1F1F1" height="80.9766" id="AgendaRepository" rx="2.5" ry="2.5" style="stroke:#181818;stroke-width:0.5;" width="411" x="369.5" y="627.86"/><ellipse cx="507.75" cy="643.86" fill="#ADD1B2" rx="11" ry="11" style="stroke:#181818;stroke-width:1.0;"/><path d="M510.7231,649.5031 Q510.1421,649.8019 509.5029,649.9513 Q508.8638,650.1007 508.1582,650.1007 Q505.6514,650.1007 504.3315,648.4489 Q503.0117,646.797 503.0117,643.6759 Q503.0117,640.5465 504.3315,638.8947 Q505.6514,637.2428 508.1582,637.2428 Q508.8638,637.2428 509.5112,637.3922 Q510.1587,637.5416 510.7231,637.8405 L510.7231,640.5631 Q510.0923,639.9821 509.4988,639.7123 Q508.9053,639.4425 508.2744,639.4425 Q506.9297,639.4425 506.2449,640.5092 Q505.5601,641.5758 505.5601,643.6759 Q505.5601,645.7677 506.2449,646.8344 Q506.9297,647.901 508.2744,647.901 Q508.9053,647.901 509.4988,647.6312 Q510.0923,647.3615 510.7231,646.7804 Z " fill="#000000"/><text fill="#000000" font-family="sans-serif" font-size="14" lengthAdjust="spacing" textLength="126" x="528.25" y="649.151">AgendaRepository</text><line style="stroke:#181818;stroke-width:0.5;" x1="370.5" x2="779.5" y1="659.86" y2="659.86"/><line style="stroke:#181818;stroke-width:0.5;" x1="370.5" x2="779.5" y1="667.86" y2="667.86"/><text fill="#000000" font-family="sans-serif" font-size="14" lengthAdjust="spacing" textLength="399" x="375.5" y="685.3952">+getEntriesFromAgendaStartingFrom(currentDate, status)</text><text fill="#000000" font-family="sans-serif" font-size="14" lengthAdjust="spacing" textLength="360" x="375.5" y="701.8834">+getEntriesFromAgendaPriorTo(currentDate, status)</text></g><!--class CollaboratorRepository--><g id="elem_CollaboratorRepository"><rect codeLine="46" fill="#F1F1F1" height="64.4883" id="CollaboratorRepository" rx="2.5" ry="2.5" style="stroke:#181818;stroke-width:0.5;" width="192" x="816" y="636.1"/><ellipse cx="831" cy="652.1" fill="#ADD1B2" rx="11" ry="11" style="stroke:#181818;stroke-width:1.0;"/><path d="M833.9731,657.7431 Q833.3921,658.0419 832.7529,658.1913 Q832.1138,658.3407 831.4082,658.3407 Q828.9014,658.3407 827.5815,656.6889 Q826.2617,655.037 826.2617,651.9159 Q826.2617,648.7865 827.5815,647.1347 Q828.9014,645.4828 831.4082,645.4828 Q832.1138,645.4828 832.7612,645.6322 Q833.4087,645.7816 833.9731,646.0805 L833.9731,648.8031 Q833.3423,648.2221 832.7488,647.9523 Q832.1553,647.6825 831.5244,647.6825 Q830.1797,647.6825 829.4949,648.7492 Q828.8101,649.8158 828.8101,651.9159 Q828.8101,654.0077 829.4949,655.0744 Q830.1797,656.141 831.5244,656.141 Q832.1553,656.141 832.7488,655.8712 Q833.3423,655.6015 833.9731,655.0204 Z " fill="#000000"/><text fill="#000000" font-family="sans-serif" font-size="14" lengthAdjust="spacing" textLength="160" x="845" y="657.391">CollaboratorRepository</text><line style="stroke:#181818;stroke-width:0.5;" x1="817" x2="1007" y1="668.1" y2="668.1"/><line style="stroke:#181818;stroke-width:0.5;" x1="817" x2="1007" y1="676.1" y2="676.1"/><text fill="#000000" font-family="sans-serif" font-size="14" lengthAdjust="spacing" textLength="61" x="822" y="693.6352">+getAll()</text></g><!--class AuthenticationRepository--><g id="elem_AuthenticationRepository"><rect codeLine="52" fill="#F1F1F1" height="64.4883" id="AuthenticationRepository" rx="2.5" ry="2.5" style="stroke:#181818;stroke-width:0.5;" width="206" x="129" y="636.1"/><ellipse cx="144" cy="652.1" fill="#ADD1B2" rx="11" ry="11" style="stroke:#181818;stroke-width:1.0;"/><path d="M146.9731,657.7431 Q146.3921,658.0419 145.7529,658.1913 Q145.1138,658.3407 144.4082,658.3407 Q141.9014,658.3407 140.5815,656.6889 Q139.2617,655.037 139.2617,651.9159 Q139.2617,648.7865 140.5815,647.1347 Q141.9014,645.4828 144.4082,645.4828 Q145.1138,645.4828 145.7612,645.6322 Q146.4087,645.7816 146.9731,646.0805 L146.9731,648.8031 Q146.3423,648.2221 145.7488,647.9523 Q145.1553,647.6825 144.5244,647.6825 Q143.1797,647.6825 142.4949,648.7492 Q141.8101,649.8158 141.8101,651.9159 Q141.8101,654.0077 142.4949,655.0744 Q143.1797,656.141 144.5244,656.141 Q145.1553,656.141 145.7488,655.8712 Q146.3423,655.6015 146.9731,655.0204 Z " fill="#000000"/><text fill="#000000" font-family="sans-serif" font-size="14" lengthAdjust="spacing" textLength="174" x="158" y="657.391">AuthenticationRepository</text><line style="stroke:#181818;stroke-width:0.5;" x1="130" x2="334" y1="668.1" y2="668.1"/><line style="stroke:#181818;stroke-width:0.5;" x1="130" x2="334" y1="676.1" y2="676.1"/><text fill="#000000" font-family="sans-serif" font-size="14" lengthAdjust="spacing" textLength="61" x="135" y="693.6352">+getAll()</text></g><!--class Entry--><g id="elem_Entry"><rect codeLine="59" fill="#F1F1F1" height="212.8828" id="Entry" rx="2.5" ry="2.5" style="stroke:#181818;stroke-width:0.5;" width="446" x="477" y="867.03"/><ellipse cx="678.25" cy="883.03" fill="#ADD1B2" rx="11" ry="11" style="stroke:#181818;stroke-width:1.0;"/><path d="M681.2231,888.6731 Q680.6421,888.9719 680.0029,889.1213 Q679.3638,889.2707 678.6582,889.2707 Q676.1514,889.2707 674.8315,887.6189 Q673.5117,885.967 673.5117,882.8459 Q673.5117,879.7165 674.8315,878.0647 Q676.1514,876.4128 678.6582,876.4128 Q679.3638,876.4128 680.0112,876.5622 Q680.6587,876.7116 681.2231,877.0105 L681.2231,879.7331 Q680.5923,879.1521 679.9988,878.8823 Q679.4053,878.6125 678.7744,878.6125 Q677.4297,878.6125 676.7449,879.6792 Q676.0601,880.7458 676.0601,882.8459 Q676.0601,884.9377 676.7449,886.0044 Q677.4297,887.071 678.7744,887.071 Q679.4053,887.071 679.9988,886.8012 Q680.5923,886.5315 681.2231,885.9504 Z " fill="#000000"/><text fill="#000000" font-family="sans-serif" font-size="14" lengthAdjust="spacing" textLength="35" x="698.75" y="888.321">Entry</text><line style="stroke:#181818;stroke-width:0.5;" x1="478" x2="922" y1="899.03" y2="899.03"/><text fill="#000000" font-family="sans-serif" font-size="14" lengthAdjust="spacing" textLength="91" x="483" y="916.5652">-String name</text><text fill="#000000" font-family="sans-serif" font-size="14" lengthAdjust="spacing" textLength="130" x="483" y="933.0534">-String description</text><text fill="#000000" font-family="sans-serif" font-size="14" lengthAdjust="spacing" textLength="157" x="483" y="949.5417">-String urgencyDegree</text><text fill="#000000" font-family="sans-serif" font-size="14" lengthAdjust="spacing" textLength="89" x="483" y="966.03">-int duration</text><text fill="#000000" font-family="sans-serif" font-size="14" lengthAdjust="spacing" textLength="173" x="483" y="982.5183">-GreenSpace greenSpace</text><text fill="#000000" font-family="sans-serif" font-size="14" lengthAdjust="spacing" textLength="94" x="483" y="999.0066">-String status</text><text fill="#000000" font-family="sans-serif" font-size="14" lengthAdjust="spacing" textLength="144" x="483" y="1015.4948">-LocalDate entryDate</text><text fill="#000000" font-family="sans-serif" font-size="14" lengthAdjust="spacing" textLength="63" x="483" y="1031.9831">-int hour</text><line style="stroke:#181818;stroke-width:0.5;" x1="478" x2="922" y1="1038.9363" y2="1038.9363"/><text fill="#000000" font-family="sans-serif" font-size="14" lengthAdjust="spacing" textLength="425" x="483" y="1056.4714">+Entry(String name, String description, String urgencyDegree,</text><text fill="#000000" font-family="sans-serif" font-size="14" lengthAdjust="spacing" textLength="430" x="487" y="1072.9597">int duration, GreenSpace greenSpace, LocalDate date, int hour)</text></g><!--class Collaborator--><g id="elem_Collaborator"><rect codeLine="72" fill="#F1F1F1" height="361.2773" id="Collaborator" rx="2.5" ry="2.5" style="stroke:#181818;stroke-width:0.5;" width="420" x="22" y="792.83"/><ellipse cx="184.25" cy="808.83" fill="#ADD1B2" rx="11" ry="11" style="stroke:#181818;stroke-width:1.0;"/><path d="M187.2231,814.4731 Q186.6421,814.7719 186.0029,814.9213 Q185.3638,815.0707 184.6582,815.0707 Q182.1514,815.0707 180.8315,813.4189 Q179.5117,811.767 179.5117,808.6459 Q179.5117,805.5165 180.8315,803.8647 Q182.1514,802.2128 184.6582,802.2128 Q185.3638,802.2128 186.0112,802.3622 Q186.6587,802.5116 187.2231,802.8105 L187.2231,805.5331 Q186.5923,804.9521 185.9988,804.6823 Q185.4053,804.4125 184.7744,804.4125 Q183.4297,804.4125 182.7449,805.4792 Q182.0601,806.5458 182.0601,808.6459 Q182.0601,810.7377 182.7449,811.8044 Q183.4297,812.871 184.7744,812.871 Q185.4053,812.871 185.9988,812.6012 Q186.5923,812.3315 187.2231,811.7504 Z " fill="#000000"/><text fill="#000000" font-family="sans-serif" font-size="14" lengthAdjust="spacing" textLength="87" x="204.75" y="814.121">Collaborator</text><line style="stroke:#181818;stroke-width:0.5;" x1="23" x2="441" y1="824.83" y2="824.83"/><text fill="#000000" font-family="sans-serif" font-size="14" lengthAdjust="spacing" textLength="91" x="28" y="842.3652">-name:String</text><text fill="#000000" font-family="sans-serif" font-size="14" lengthAdjust="spacing" textLength="106" x="28" y="858.8534">-birthdate:Date</text><text fill="#000000" font-family="sans-serif" font-size="14" lengthAdjust="spacing" textLength="144" x="28" y="875.3417">-admissionDate:Date</text><text fill="#000000" font-family="sans-serif" font-size="14" lengthAdjust="spacing" textLength="62" x="28" y="891.83">-address</text><text fill="#000000" font-family="sans-serif" font-size="14" lengthAdjust="spacing" textLength="153" x="28" y="908.3183">-mobileContact:String</text><text fill="#000000" font-family="sans-serif" font-size="14" lengthAdjust="spacing" textLength="143" x="28" y="924.8066">-emailContact:String</text><text fill="#000000" font-family="sans-serif" font-size="14" lengthAdjust="spacing" textLength="125" x="28" y="941.2948">-IDdocType:String</text><text fill="#000000" font-family="sans-serif" font-size="14" lengthAdjust="spacing" textLength="121" x="28" y="957.7831">-IDnumber:String</text><text fill="#000000" font-family="sans-serif" font-size="14" lengthAdjust="spacing" textLength="130" x="28" y="974.2714">-taxNumber:String</text><text fill="#000000" font-family="sans-serif" font-size="14" lengthAdjust="spacing" textLength="56" x="28" y="990.7597">-job:Job</text><text fill="#000000" font-family="sans-serif" font-size="14" lengthAdjust="spacing" textLength="74" x="28" y="1007.248">-skills:Skill</text><text fill="#000000" font-family="sans-serif" font-size="14" lengthAdjust="spacing" textLength="91" x="28" y="1023.7362">-teams:Team</text><line style="stroke:#181818;stroke-width:0.5;" x1="23" x2="441" y1="1030.6894" y2="1030.6894"/><text fill="#000000" font-family="sans-serif" font-size="14" lengthAdjust="spacing" textLength="347" x="28" y="1048.2245">+Collaborator (String nome,LocalDate dateOfBirth,</text><text fill="#000000" font-family="sans-serif" font-size="14" lengthAdjust="spacing" textLength="377" x="28" y="1064.7128">LocalDate admissionDate, String morada, int telemovel,</text><text fill="#000000" font-family="sans-serif" font-size="14" lengthAdjust="spacing" textLength="354" x="28" y="1081.2011">String email, String idDocType, int docTypeNumber,</text><text fill="#000000" font-family="sans-serif" font-size="14" lengthAdjust="spacing" textLength="408" x="28" y="1097.6894">int taxPayerIdNumber, String role, Job job, List&lt;Skill&gt; skills,</text><text fill="#000000" font-family="sans-serif" font-size="14" lengthAdjust="spacing" textLength="133" x="32" y="1114.1777">List&lt;Team&gt; teams)</text><text fill="#000000" font-family="sans-serif" font-size="14" lengthAdjust="spacing" textLength="4" x="28" y="1130.6659">&#160;</text><text fill="#000000" font-family="sans-serif" font-size="14" lengthAdjust="spacing" textLength="360" x="28" y="1147.1542">+recordTaskAsCompleted(selectedEntry, employee))</text></g><!--link RecordTaskCompletionUI to RecordTaskCompletionController--><g id="link_RecordTaskCompletionUI_RecordTaskCompletionController"><path codeLine="93" d="M487,105.93 C487,129.98 487,157.2 487,183.06 " fill="none" id="RecordTaskCompletionUI-to-RecordTaskCompletionController" style="stroke:#181818;stroke-width:1.0;stroke-dasharray:7.0,7.0;"/><polygon fill="#181818" points="487,189.06,491,180.06,487,184.06,483,180.06,487,189.06" style="stroke:#181818;stroke-width:1.0;"/><text fill="#000000" font-family="sans-serif" font-size="13" lengthAdjust="spacing" textLength="8" x="478.2625" y="125.9363">1</text><text fill="#000000" font-family="sans-serif" font-size="13" lengthAdjust="spacing" textLength="8" x="478.3375" y="178.6348">1</text></g><!--link AuthenticationRepository to Collaborator--><g id="link_AuthenticationRepository_Collaborator"><path codeLine="96" d="M232,700.93 C232,723.9 232,751.05 232,786.35 " fill="none" id="AuthenticationRepository-to-Collaborator" style="stroke:#181818;stroke-width:1.0;"/><polygon fill="#181818" points="232,792.35,236,783.35,232,787.35,228,783.35,232,792.35" style="stroke:#181818;stroke-width:1.0;"/></g><!--link Repositories to Repositories--><g id="link_Repositories_Repositories"><path codeLine="99" d="M784.43,447.32 C805.2,450.92 819,458.04 819,468.66 C819,479.28 811.1114,485.3626 790.3414,488.9726 " fill="none" id="Repositories-to-Repositories" style="stroke:#181818;stroke-width:1.0;"/><polygon fill="#181818" points="784.43,490,793.982,492.3997,789.3561,489.1438,792.6121,484.5179,784.43,490" style="stroke:#181818;stroke-width:1.0;"/><text fill="#000000" font-family="sans-serif" font-size="13" lengthAdjust="spacing" textLength="53" x="825" y="473.7284">instance</text></g><!--link Repositories to AuthenticationRepository--><g id="link_Repositories_AuthenticationRepository"><path codeLine="100" d="M473.52,547.08 C411.47,577.98 348.8908,609.1352 300.9208,633.0252 " fill="none" id="Repositories-to-AuthenticationRepository" style="stroke:#181818;stroke-width:1.0;"/><polygon fill="#181818" points="295.55,635.7,305.3894,635.2684,300.0257,633.471,301.823,628.1073,295.55,635.7" style="stroke:#181818;stroke-width:1.0;"/><text fill="#000000" font-family="sans-serif" font-size="13" lengthAdjust="spacing" textLength="8" x="457.7952" y="548.0912">1</text><text fill="#000000" font-family="sans-serif" font-size="13" lengthAdjust="spacing" textLength="8" x="299.2739" y="625.3956">1</text></g><!--link Repositories to AgendaRepository--><g id="link_Repositories_AgendaRepository"><path codeLine="101" d="M602.32,567.34 C596.47,588.74 592.1915,604.4322 587.4015,621.9622 " fill="none" id="Repositories-to-AgendaRepository" style="stroke:#181818;stroke-width:1.0;"/><polygon fill="#181818" points="585.82,627.75,592.0508,620.1226,587.1379,622.9268,584.3337,618.0139,585.82,627.75" style="stroke:#181818;stroke-width:1.0;"/><text fill="#000000" font-family="sans-serif" font-size="13" lengthAdjust="spacing" textLength="8" x="592.1628" y="587.3853">1</text><text fill="#000000" font-family="sans-serif" font-size="13" lengthAdjust="spacing" textLength="8" x="578.9922" y="617.0782">1</text></g><!--link Repositories to CollaboratorRepository--><g id="link_Repositories_CollaboratorRepository"><path codeLine="102" d="M768.84,567.34 C804.35,592.15 835.0813,613.6139 861.9213,632.3639 " fill="none" id="Repositories-to-CollaboratorRepository" style="stroke:#181818;stroke-width:1.0;"/><polygon fill="#181818" points="866.84,635.8,861.7527,627.3667,862.7411,632.9366,857.1713,633.925,866.84,635.8" style="stroke:#181818;stroke-width:1.0;"/><text fill="#000000" font-family="sans-serif" font-size="13" lengthAdjust="spacing" textLength="8" x="770.3913" y="587.3853">1</text><text fill="#000000" font-family="sans-serif" font-size="13" lengthAdjust="spacing" textLength="8" x="848.7008" y="625.1413">1</text></g><!--link CollaboratorRepository to Collaborator--><g id="link_CollaboratorRepository_Collaborator"><path codeLine="103" d="M855,701.09 C826.5,716.96 798,732.83 798,732.83 C798,732.83 460,749.83 460,749.83 C460,749.83 446.3823,763.1276 420.6023,788.3076 " fill="none" id="CollaboratorRepository-to-Collaborator" style="stroke:#181818;stroke-width:1.0;"/><polygon fill="#181818" points="416.31,792.5,425.5434,789.0729,419.8869,789.0063,419.9535,783.3499,416.31,792.5" style="stroke:#181818;stroke-width:1.0;"/><text fill="#000000" font-family="sans-serif" font-size="13" lengthAdjust="spacing" textLength="8" x="835.7531" y="721.1073">1</text><text fill="#000000" font-family="sans-serif" font-size="13" lengthAdjust="spacing" textLength="6" x="417.959" y="782.1239">*</text></g><!--link AgendaRepository to Entry--><g id="link_AgendaRepository_Entry"><path codeLine="105" d="M591.47,709.28 C607.94,749.23 631.7026,806.8531 654.1526,861.2931 " fill="none" id="AgendaRepository-to-Entry" style="stroke:#181818;stroke-width:1.0;"/><polygon fill="#181818" points="656.44,866.84,656.7068,856.9948,654.5338,862.2176,649.311,860.0446,656.44,866.84" style="stroke:#181818;stroke-width:1.0;"/><text fill="#000000" font-family="sans-serif" font-size="13" lengthAdjust="spacing" textLength="8" x="585.3795" y="729.2882">1</text><text fill="#000000" font-family="sans-serif" font-size="13" lengthAdjust="spacing" textLength="6" x="647.1663" y="856.3944">*</text></g><!--link Collaborator to Entry--><g id="link_Collaborator_Entry"><path codeLine="106" d="M442.12,973.47 C453.21,973.47 459.01,973.47 470.5,973.47 " fill="none" id="Collaborator-to-Entry" style="stroke:#181818;stroke-width:1.0;"/><polygon fill="#181818" points="476.5,973.47,467.5,969.47,471.5,973.47,467.5,977.47,476.5,973.47" style="stroke:#181818;stroke-width:1.0;"/></g><!--link RecordTaskCompletionController to CollaboratorRepository--><g id="link_RecordTaskCompletionController_CollaboratorRepository"><path codeLine="108" d="M651.75,270.92 C761.25,297.46 885,327.46 885,327.46 C885,327.46 902.305,545.3188 909.005,629.6888 " fill="none" id="RecordTaskCompletionController-to-CollaboratorRepository" style="stroke:#181818;stroke-width:1.0;"/><polygon fill="#181818" points="909.48,635.67,912.755,626.3816,909.0842,630.6857,904.7801,627.0149,909.48,635.67" style="stroke:#181818;stroke-width:1.0;"/></g><!--link RecordTaskCompletionController to AgendaRepository--><g id="link_RecordTaskCompletionController_AgendaRepository"><path codeLine="109" d="M474.21,270.78 C465.67,297.35 456,327.46 456,327.46 C456,327.46 456,566.86 456,566.86 C456,566.86 490.1261,595.6686 523.3861,623.7586 " fill="none" id="RecordTaskCompletionController-to-AgendaRepository" style="stroke:#181818;stroke-width:1.0;"/><polygon fill="#181818" points="527.97,627.63,523.675,618.767,524.1501,624.4038,518.5132,624.8789,527.97,627.63" style="stroke:#181818;stroke-width:1.0;"/></g><!--link RecordTaskCompletionController to Repositories--><g id="link_RecordTaskCompletionController_Repositories"><path codeLine="110" d="M510.93,270.86 C527.25,298.06 546.5224,330.1954 567.4024,364.9854 " fill="none" id="RecordTaskCompletionController-to-Repositories" style="stroke:#181818;stroke-width:1.0;stroke-dasharray:7.0,7.0;"/><polygon fill="#181818" points="570.49,370.13,569.2883,360.3547,567.917,365.8429,562.4288,364.4716,570.49,370.13" style="stroke:#181818;stroke-width:1.0;"/><text fill="#000000" font-family="sans-serif" font-size="13" lengthAdjust="spacing" textLength="75" x="537" y="316.0284">repositories</text><text fill="#000000" font-family="sans-serif" font-size="13" lengthAdjust="spacing" textLength="8" x="506.1063" y="291.1639">1</text><text fill="#000000" font-family="sans-serif" font-size="13" lengthAdjust="spacing" textLength="8" x="557.7041" y="359.5925">1</text></g><!--link RecordTaskCompletionController to AuthenticationRepository--><g id="link_RecordTaskCompletionController_AuthenticationRepository"><path codeLine="111" d="M410.83,270.92 C360.21,297.46 303,327.46 303,327.46 C303,327.46 257.4666,545.4267 239.8466,629.7967 " fill="none" id="RecordTaskCompletionController-to-AuthenticationRepository" style="stroke:#181818;stroke-width:1.0;"/><polygon fill="#181818" points="238.62,635.67,244.3754,627.6778,239.6422,630.7756,236.5444,626.0423,238.62,635.67" style="stroke:#181818;stroke-width:1.0;"/><text fill="#000000" font-family="sans-serif" font-size="13" lengthAdjust="spacing" textLength="143" x="304" y="473.7284">getCurrentUserSession</text><text fill="#000000" font-family="sans-serif" font-size="13" lengthAdjust="spacing" textLength="8" x="390.554" y="290.9298">1</text><text fill="#000000" font-family="sans-serif" font-size="13" lengthAdjust="spacing" textLength="8" x="231.1358" y="625.3596">1</text></g><!--SRC=[fLPDRnen4BtxLrXSmhQRgBsY58c6fAAgMbJ8hHUpErbSl3QolMrebF_UiPSizduaZSg1XPatutdFmmndPiVbdcbMqb99bMsrAe5QNG4vUVOisx42LlOWW6h8B9E5205cotBrcyk2tZ5XGe_W4knX3tIlnC5z8MSzJgMj8a5K9fWnCsirtrGM5fcIA_u7w3j2pWJSMMeLrRpOMffpLmvNaYph6kcLabOh8K3JoyiR9NBGq-a3eVZoMUbto9JErypihbIv5-2YWw0QwbvlQG7s6XqSp0tACYj0vcnbcRR8r5d6MQKrI3jd5b9gBBEL-J1Q2YObvACaoAIRGsVcU2paOmC2guVS7N98YCS_aaVIaBbTl884WeFYTIN7IJVZTzWhmwrof9QxOZ3z2NNAUKwvH98o0pg9806YCHyGizfn8KwM0FPJRIBav_1xW0Cafmu04VYwOoGalhN5iSvnCbIfXxNg6oUnEoggxRp2Tc4RfHawXr5rptJyZoGGkutvtmvCNeXVQgxqMWs7OdLXVVrC7zgQpuJePLVPBPx2C-PwD8eV30_wTQvAnkL0c_hV3GqRT8LSSGf9LaBNceF9DD_xST5nLXh5oGvpA3H0rF8uPIhDMb6V42LNE1Y15it7RjPQri3-HMLCECafkEBTfzPXMrNfG1hFSHpmIdlefBqiqXyoAZ_jhpeDYifzCpoLqOoaWMu8b7ULJUeYJiODrtRhKavYdYmlkJ5OqRpFbsimWMIbsd01RaApp7QE06mFCUHSp7ELhN71z7XaLMv0TnoMtN_jz-38ck14E1cCcnvcueT8a01OQIPhV0yQF1IDDfU9cpQDfVzszz59XXTtiaTYDHTTOhASrLTbSOsKwXS8Z3kwlImDcEVpMeSQVnIbveanFWUxNx83w4L-D3_5ubh4C2JkPZQs2ZVsqbEUqbe0rsNUwZXFgUUVaDVjlhGPz4am0yZ0bXkz7z6BYwb_Fh_DCSVG_A7dqwYN_N6dHK7FqHyP9itsYu2k2CIwnz1HSU9ZW7-sH_zGvluHJFhDJt5lHYs2xTCyqEFy9KJfd3orbRpmXwcbOqJcfS0U_i-6n3SVNOuEj_m_f6ckOAW_9dxBrplore1UWVyLahy0]--></g></svg>