<?xml version="1.0" encoding="us-ascii" standalone="no"?><svg xmlns="http://www.w3.org/2000/svg" xmlns:xlink="http://www.w3.org/1999/xlink" contentStyleType="text/css" height="961.6px" preserveAspectRatio="none" style="width:1812px;height:961px;background:#FFFFFF;" version="1.1" viewBox="0 0 1812 961" width="1812px" zoomAndPan="magnify"><defs/><g><rect fill="#FFFFFF" height="809.8859" style="stroke:#181818;stroke-width:0.8000000000000002;" width="8" x="37.2" y="73.1906"/><rect fill="#FFFFFF" height="403.0141" style="stroke:#181818;stroke-width:0.8000000000000002;" width="8" x="375.6" y="183.4813"/><rect fill="#FFFFFF" height="23.4484" style="stroke:#181818;stroke-width:0.8000000000000002;" width="8" x="375.6" y="609.9438"/><rect fill="#FFFFFF" height="226.2359" style="stroke:#181818;stroke-width:0.8000000000000002;" width="8" x="375.6" y="656.8406"/><rect fill="#FFFFFF" height="310.6781" style="stroke:#181818;stroke-width:0.8000000000000002;" width="8" x="713.2" y="240.1203"/><rect fill="#FFFFFF" height="179.3391" style="stroke:#181818;stroke-width:0.8000000000000002;" width="8" x="713.2" y="680.2891"/><rect fill="#FFFFFF" height="23.4484" style="stroke:#181818;stroke-width:0.8000000000000002;" width="8" x="881.2" y="263.5688"/><rect fill="#FFFFFF" height="76.1938" style="stroke:#181818;stroke-width:0.8000000000000002;" width="8" x="881.2" y="310.4656"/><rect fill="#FFFFFF" height="23.4484" style="stroke:#181818;stroke-width:0.8000000000000002;" width="8" x="971.6" y="410.1078"/><rect fill="#FFFFFF" height="23.4484" style="stroke:#181818;stroke-width:0.8000000000000002;" width="8" x="1078.4" y="457.0047"/><rect fill="#FFFFFF" height="23.4484" style="stroke:#181818;stroke-width:0.8000000000000002;" width="8" x="1429.6" y="503.9016"/><rect fill="#FFFFFF" height="132.4422" style="stroke:#181818;stroke-width:0.8000000000000002;" width="8" x="1429.6" y="703.7375"/><rect fill="#FFFFFF" height="23.4484" style="stroke:#181818;stroke-width:0.8000000000000002;" width="8" x="1782.4" y="789.2828"/><line style="stroke:#181818;stroke-width:0.4000000000000001;stroke-dasharray:5.0,5.0;" x1="40.8" x2="40.8" y1="65.1906" y2="897.4766"/><line style="stroke:#181818;stroke-width:0.4000000000000001;stroke-dasharray:5.0,5.0;" x1="379.6" x2="379.6" y1="65.1906" y2="897.4766"/><line style="stroke:#181818;stroke-width:0.4000000000000001;stroke-dasharray:5.0,5.0;" x1="717.2" x2="717.2" y1="214.4766" y2="897.4766"/><line style="stroke:#181818;stroke-width:0.4000000000000001;stroke-dasharray:5.0,5.0;" x1="884.8" x2="884.8" y1="65.1906" y2="897.4766"/><line style="stroke:#181818;stroke-width:0.4000000000000001;stroke-dasharray:5.0,5.0;" x1="975.2" x2="975.2" y1="65.1906" y2="897.4766"/><line style="stroke:#181818;stroke-width:0.4000000000000001;stroke-dasharray:5.0,5.0;" x1="1082.4" x2="1082.4" y1="65.1906" y2="897.4766"/><line style="stroke:#181818;stroke-width:0.4000000000000001;stroke-dasharray:5.0,5.0;" x1="1224.8" x2="1224.8" y1="65.1906" y2="897.4766"/><line style="stroke:#181818;stroke-width:0.4000000000000001;stroke-dasharray:5.0,5.0;" x1="1349.6" x2="1349.6" y1="65.1906" y2="897.4766"/><line style="stroke:#181818;stroke-width:0.4000000000000001;stroke-dasharray:5.0,5.0;" x1="1433.6" x2="1433.6" y1="65.1906" y2="897.4766"/><line style="stroke:#181818;stroke-width:0.4000000000000001;stroke-dasharray:5.0,5.0;" x1="1786" x2="1786" y1="65.1906" y2="897.4766"/><text fill="#000000" font-family="sans-serif" font-size="11.2" lengthAdjust="spacing" textLength="69.6" x="4" y="62.8281">Collaborator</text><ellipse cx="41.2" cy="10.8" fill="#E3E3E3" rx="6.4" ry="6.4" style="stroke:#181818;stroke-width:0.4000000000000001;"/><path d="M41.2,17.2 L41.2,38.8 M30.8,23.6 L51.6,23.6 M41.2,38.8 L30.8,50.8 M41.2,38.8 L51.6,50.8 " fill="none" style="stroke:#181818;stroke-width:0.4000000000000001;"/><text fill="#000000" font-family="sans-serif" font-size="11.2" lengthAdjust="spacing" textLength="69.6" x="4" y="907.5047">Collaborator</text><ellipse cx="41.2" cy="916.6672" fill="#E3E3E3" rx="6.4" ry="6.4" style="stroke:#181818;stroke-width:0.4000000000000001;"/><path d="M41.2,923.0672 L41.2,944.6672 M30.8,929.4672 L51.6,929.4672 M41.2,944.6672 L30.8,956.6672 M41.2,944.6672 L51.6,956.6672 " fill="none" style="stroke:#181818;stroke-width:0.4000000000000001;"/><rect fill="#E3E3E3" height="24.3906" rx="2" ry="2" style="stroke:#181818;stroke-width:0.4000000000000001;" width="153.6" x="302.8" y="40"/><text fill="#000000" font-family="sans-serif" font-size="11.2" lengthAdjust="spacing" textLength="142.4" x="308.4" y="56.4281">:RecordTaskCompletionUI</text><rect fill="#E3E3E3" height="24.3906" rx="2" ry="2" style="stroke:#181818;stroke-width:0.4000000000000001;" width="153.6" x="302.8" y="896.6766"/><text fill="#000000" font-family="sans-serif" font-size="11.2" lengthAdjust="spacing" textLength="142.4" x="308.4" y="913.1047">:RecordTaskCompletionUI</text><rect fill="#E3E3E3" height="24.3906" rx="2" ry="2" style="stroke:#181818;stroke-width:0.4000000000000001;" width="198.4" x="618" y="896.6766"/><text fill="#000000" font-family="sans-serif" font-size="11.2" lengthAdjust="spacing" textLength="187.2" x="623.6" y="913.1047">:RecordTaskCompletionController</text><rect fill="#E3E3E3" height="24.3906" rx="2" ry="2" style="stroke:#181818;stroke-width:0.4000000000000001;" width="82.4" x="844" y="40"/><text fill="#000000" font-family="sans-serif" font-size="11.2" lengthAdjust="spacing" textLength="71.2" x="849.6" y="56.4281">:Repositories</text><rect fill="#E3E3E3" height="24.3906" rx="2" ry="2" style="stroke:#181818;stroke-width:0.4000000000000001;" width="82.4" x="844" y="896.6766"/><text fill="#000000" font-family="sans-serif" font-size="11.2" lengthAdjust="spacing" textLength="71.2" x="849.6" y="913.1047">:Repositories</text><rect fill="#E3E3E3" height="37.5813" rx="2" ry="2" style="stroke:#181818;stroke-width:0.4000000000000001;" width="82.4" x="934.4" y="26.8094"/><text fill="#000000" font-family="sans-serif" font-size="11.2" lengthAdjust="spacing" textLength="65.6" x="942.8" y="43.2375">repositories</text><text fill="#000000" font-family="sans-serif" font-size="11.2" lengthAdjust="spacing" textLength="71.2" x="940" y="56.4281">:Repositories</text><rect fill="#E3E3E3" height="37.5813" rx="2" ry="2" style="stroke:#181818;stroke-width:0.4000000000000001;" width="82.4" x="934.4" y="896.6766"/><text fill="#000000" font-family="sans-serif" font-size="11.2" lengthAdjust="spacing" textLength="65.6" x="942.8" y="913.1047">repositories</text><text fill="#000000" font-family="sans-serif" font-size="11.2" lengthAdjust="spacing" textLength="71.2" x="940" y="926.2953">:Repositories</text><rect fill="#E3E3E3" height="37.5813" rx="2" ry="2" style="stroke:#181818;stroke-width:0.4000000000000001;" width="115.2" x="1024.8" y="26.8094"/><text fill="#000000" font-family="sans-serif" font-size="11.2" lengthAdjust="spacing" textLength="99.2" x="1032.8" y="43.2375">agendaRepository</text><text fill="#000000" font-family="sans-serif" font-size="11.2" lengthAdjust="spacing" textLength="104" x="1030.4" y="56.4281">:AgendaRepository</text><rect fill="#E3E3E3" height="37.5813" rx="2" ry="2" style="stroke:#181818;stroke-width:0.4000000000000001;" width="115.2" x="1024.8" y="896.6766"/><text fill="#000000" font-family="sans-serif" font-size="11.2" lengthAdjust="spacing" textLength="99.2" x="1032.8" y="913.1047">agendaRepository</text><text fill="#000000" font-family="sans-serif" font-size="11.2" lengthAdjust="spacing" textLength="104" x="1030.4" y="926.2953">:AgendaRepository</text><rect fill="#E3E3E3" height="37.5813" rx="2" ry="2" style="stroke:#181818;stroke-width:0.4000000000000001;" width="153.6" x="1148" y="26.8094"/><text fill="#000000" font-family="sans-serif" font-size="11.2" lengthAdjust="spacing" textLength="137.6" x="1156" y="43.2375">authenticationRepository</text><text fill="#000000" font-family="sans-serif" font-size="11.2" lengthAdjust="spacing" textLength="142.4" x="1153.6" y="56.4281">:AuthenticationRepository</text><rect fill="#E3E3E3" height="37.5813" rx="2" ry="2" style="stroke:#181818;stroke-width:0.4000000000000001;" width="153.6" x="1148" y="896.6766"/><text fill="#000000" font-family="sans-serif" font-size="11.2" lengthAdjust="spacing" textLength="137.6" x="1156" y="913.1047">authenticationRepository</text><text fill="#000000" font-family="sans-serif" font-size="11.2" lengthAdjust="spacing" textLength="142.4" x="1153.6" y="926.2953">:AuthenticationRepository</text><rect fill="#E3E3E3" height="37.5813" rx="2" ry="2" style="stroke:#181818;stroke-width:0.4000000000000001;" width="80.8" x="1309.6" y="26.8094"/><text fill="#000000" font-family="sans-serif" font-size="11.2" lengthAdjust="spacing" textLength="65.6" x="1317.2" y="43.2375">userSession</text><text fill="#000000" font-family="sans-serif" font-size="11.2" lengthAdjust="spacing" textLength="69.6" x="1315.2" y="56.4281">:UserSession</text><rect fill="#E3E3E3" height="37.5813" rx="2" ry="2" style="stroke:#181818;stroke-width:0.4000000000000001;" width="80.8" x="1309.6" y="896.6766"/><text fill="#000000" font-family="sans-serif" font-size="11.2" lengthAdjust="spacing" textLength="65.6" x="1317.2" y="913.1047">userSession</text><text fill="#000000" font-family="sans-serif" font-size="11.2" lengthAdjust="spacing" textLength="69.6" x="1315.2" y="926.2953">:UserSession</text><rect fill="#E3E3E3" height="37.5813" rx="2" ry="2" style="stroke:#181818;stroke-width:0.4000000000000001;" width="70.4" x="1398.4" y="26.8094"/><text fill="#000000" font-family="sans-serif" font-size="11.2" lengthAdjust="spacing" textLength="52.8" x="1407.2" y="43.2375">employee</text><text fill="#000000" font-family="sans-serif" font-size="11.2" lengthAdjust="spacing" textLength="59.2" x="1404" y="56.4281">: Employee</text><rect fill="#E3E3E3" height="37.5813" rx="2" ry="2" style="stroke:#181818;stroke-width:0.4000000000000001;" width="70.4" x="1398.4" y="896.6766"/><text fill="#000000" font-family="sans-serif" font-size="11.2" lengthAdjust="spacing" textLength="52.8" x="1407.2" y="913.1047">employee</text><text fill="#000000" font-family="sans-serif" font-size="11.2" lengthAdjust="spacing" textLength="59.2" x="1404" y="926.2953">: Employee</text><rect fill="#E3E3E3" height="24.3906" rx="2" ry="2" style="stroke:#181818;stroke-width:0.4000000000000001;" width="42.4" x="1765.2" y="40"/><text fill="#000000" font-family="sans-serif" font-size="11.2" lengthAdjust="spacing" textLength="31.2" x="1770.8" y="56.4281">:Entry</text><rect fill="#E3E3E3" height="24.3906" rx="2" ry="2" style="stroke:#181818;stroke-width:0.4000000000000001;" width="42.4" x="1765.2" y="896.6766"/><text fill="#000000" font-family="sans-serif" font-size="11.2" lengthAdjust="spacing" textLength="31.2" x="1770.8" y="913.1047">:Entry</text><rect fill="#FFFFFF" height="809.8859" style="stroke:#181818;stroke-width:0.8000000000000002;" width="8" x="37.2" y="73.1906"/><rect fill="#FFFFFF" height="403.0141" style="stroke:#181818;stroke-width:0.8000000000000002;" width="8" x="375.6" y="183.4813"/><rect fill="#FFFFFF" height="23.4484" style="stroke:#181818;stroke-width:0.8000000000000002;" width="8" x="375.6" y="609.9438"/><rect fill="#FFFFFF" height="226.2359" style="stroke:#181818;stroke-width:0.8000000000000002;" width="8" x="375.6" y="656.8406"/><rect fill="#FFFFFF" height="310.6781" style="stroke:#181818;stroke-width:0.8000000000000002;" width="8" x="713.2" y="240.1203"/><rect fill="#FFFFFF" height="179.3391" style="stroke:#181818;stroke-width:0.8000000000000002;" width="8" x="713.2" y="680.2891"/><rect fill="#FFFFFF" height="23.4484" style="stroke:#181818;stroke-width:0.8000000000000002;" width="8" x="881.2" y="263.5688"/><rect fill="#FFFFFF" height="76.1938" style="stroke:#181818;stroke-width:0.8000000000000002;" width="8" x="881.2" y="310.4656"/><rect fill="#FFFFFF" height="23.4484" style="stroke:#181818;stroke-width:0.8000000000000002;" width="8" x="971.6" y="410.1078"/><rect fill="#FFFFFF" height="23.4484" style="stroke:#181818;stroke-width:0.8000000000000002;" width="8" x="1078.4" y="457.0047"/><rect fill="#FFFFFF" height="23.4484" style="stroke:#181818;stroke-width:0.8000000000000002;" width="8" x="1429.6" y="503.9016"/><rect fill="#FFFFFF" height="132.4422" style="stroke:#181818;stroke-width:0.8000000000000002;" width="8" x="1429.6" y="703.7375"/><rect fill="#FFFFFF" height="23.4484" style="stroke:#181818;stroke-width:0.8000000000000002;" width="8" x="1782.4" y="789.2828"/><path d="M48.8,77.1906 L48.8,121.1906 L283.2,121.1906 L283.2,85.1906 L275.2,77.1906 L48.8,77.1906 " fill="#FAFAFA" style="stroke:#181818;stroke-width:0.4000000000000001;"/><path d="M275.2,77.1906 L275.2,85.1906 L283.2,85.1906 L275.2,77.1906 " fill="#FAFAFA" style="stroke:#181818;stroke-width:0.4000000000000001;"/><text fill="#000000" font-family="sans-serif" font-size="10.4" lengthAdjust="spacing" textLength="217.6" x="53.6" y="91.2453">- The user is already logged in at this step.</text><text fill="#000000" font-family="sans-serif" font-size="10.4" lengthAdjust="spacing" textLength="211.2" x="53.6" y="103.4938">- Authentication sequence is explained in</text><text fill="#000000" font-family="sans-serif" font-size="10.4" lengthAdjust="spacing" textLength="100" x="53.6" y="115.7422">a sequence excerpt.</text><path d="M888.8,129.9359 L888.8,161.9359 L974.4,161.9359 L974.4,137.9359 L966.4,129.9359 L888.8,129.9359 " fill="#FAFAFA" style="stroke:#181818;stroke-width:0.4000000000000001;"/><path d="M966.4,129.9359 L966.4,137.9359 L974.4,137.9359 L966.4,129.9359 " fill="#FAFAFA" style="stroke:#181818;stroke-width:0.4000000000000001;"/><text fill="#000000" font-family="sans-serif" font-size="10.4" lengthAdjust="spacing" textLength="68.8" x="893.6" y="143.9906">- Singleton is</text><text fill="#000000" font-family="sans-serif" font-size="10.4" lengthAdjust="spacing" textLength="30.4" x="893.6" y="156.2391">in use</text><polygon fill="#181818" points="366,180.2813,374,183.4813,366,186.6813,369.2,183.4813" style="stroke:#181818;stroke-width:0.8000000000000002;"/><line style="stroke:#181818;stroke-width:0.8000000000000002;" x1="45.2" x2="370.8" y1="183.4813" y2="183.4813"/><text fill="#000000" font-family="sans-serif" font-size="10.4" font-weight="bold" lengthAdjust="spacing" textLength="7.2" x="50.8" y="179.6875">1</text><text fill="#000000" font-family="sans-serif" font-size="10.4" lengthAdjust="spacing" textLength="200" x="61.2" y="179.6875">Asks to record the completion of a task</text><polygon fill="#181818" points="608.4,203.7297,616.4,206.9297,608.4,210.1297,611.6,206.9297" style="stroke:#181818;stroke-width:0.8000000000000002;"/><line style="stroke:#181818;stroke-width:0.8000000000000002;" x1="383.6" x2="613.2" y1="206.9297" y2="206.9297"/><text fill="#000000" font-family="sans-serif" font-size="10.4" font-weight="bold" lengthAdjust="spacing" textLength="7.2" x="389.2" y="203.1359">2</text><text fill="#000000" font-family="sans-serif" font-size="10.4" lengthAdjust="spacing" textLength="30.4" x="399.6" y="203.1359">create</text><rect fill="#E3E3E3" height="24.3906" rx="2" ry="2" style="stroke:#181818;stroke-width:0.4000000000000001;" width="198.4" x="618" y="189.8813"/><text fill="#000000" font-family="sans-serif" font-size="11.2" lengthAdjust="spacing" textLength="187.2" x="623.6" y="206.3094">:RecordTaskCompletionController</text><polygon fill="#181818" points="703.6,236.9203,711.6,240.1203,703.6,243.3203,706.8,240.1203" style="stroke:#181818;stroke-width:0.8000000000000002;"/><line style="stroke:#181818;stroke-width:0.8000000000000002;" x1="383.6" x2="708.4" y1="240.1203" y2="240.1203"/><text fill="#000000" font-family="sans-serif" font-size="10.4" font-weight="bold" lengthAdjust="spacing" textLength="7.2" x="389.2" y="236.3266">3</text><text fill="#000000" font-family="sans-serif" font-size="10.4" lengthAdjust="spacing" textLength="304" x="399.6" y="236.3266">getEntriesFromAgendaPriorTo(currentDate, satus="Planned")</text><polygon fill="#181818" points="871.6,260.3688,879.6,263.5688,871.6,266.7688,874.8,263.5688" style="stroke:#181818;stroke-width:0.8000000000000002;"/><line style="stroke:#181818;stroke-width:0.8000000000000002;" x1="721.2" x2="876.4" y1="263.5688" y2="263.5688"/><text fill="#000000" font-family="sans-serif" font-size="10.4" font-weight="bold" lengthAdjust="spacing" textLength="7.2" x="726.8" y="259.775">4</text><text fill="#000000" font-family="sans-serif" font-size="10.4" lengthAdjust="spacing" textLength="64.8" x="737.2" y="259.775">getInstance()</text><polygon fill="#181818" points="730,283.8172,722,287.0172,730,290.2172,726.8,287.0172" style="stroke:#181818;stroke-width:0.8000000000000002;"/><line style="stroke:#181818;stroke-width:0.8000000000000002;stroke-dasharray:2.0,2.0;" x1="725.2" x2="884.4" y1="287.0172" y2="287.0172"/><text fill="#000000" font-family="sans-serif" font-size="10.4" font-weight="bold" lengthAdjust="spacing" textLength="7.2" x="734.8" y="283.2234">5</text><text fill="#000000" font-family="sans-serif" font-size="10.4" lengthAdjust="spacing" textLength="60" x="745.2" y="283.2234">repositories</text><polygon fill="#181818" points="871.6,307.2656,879.6,310.4656,871.6,313.6656,874.8,310.4656" style="stroke:#181818;stroke-width:0.8000000000000002;"/><line style="stroke:#181818;stroke-width:0.8000000000000002;" x1="721.2" x2="876.4" y1="310.4656" y2="310.4656"/><text fill="#000000" font-family="sans-serif" font-size="10.4" font-weight="bold" lengthAdjust="spacing" textLength="7.2" x="726.8" y="306.6719">6</text><text fill="#000000" font-family="sans-serif" font-size="10.4" lengthAdjust="spacing" textLength="134.4" x="737.2" y="306.6719">getEmployeeFromSession()</text><path d="M724.8,320.8656 L724.8,364.8656 L878.4,364.8656 L878.4,328.8656 L870.4,320.8656 L724.8,320.8656 " fill="#FAFAFA" style="stroke:#181818;stroke-width:0.4000000000000001;"/><path d="M870.4,320.8656 L870.4,328.8656 L878.4,328.8656 L870.4,320.8656 " fill="#FAFAFA" style="stroke:#181818;stroke-width:0.4000000000000001;"/><text fill="#000000" font-family="sans-serif" font-size="10.4" lengthAdjust="spacing" textLength="136.8" x="729.6" y="334.9203">- This method is explained</text><text fill="#000000" font-family="sans-serif" font-size="10.4" lengthAdjust="spacing" textLength="109.6" x="729.6" y="347.1688">in detail in an excerpt</text><text fill="#000000" font-family="sans-serif" font-size="10.4" lengthAdjust="spacing" textLength="94.4" x="729.6" y="359.4172">sequence diagram.</text><polygon fill="#181818" points="730,383.4594,722,386.6594,730,389.8594,726.8,386.6594" style="stroke:#181818;stroke-width:0.8000000000000002;"/><line style="stroke:#181818;stroke-width:0.8000000000000002;stroke-dasharray:2.0,2.0;" x1="725.2" x2="884.4" y1="386.6594" y2="386.6594"/><text fill="#000000" font-family="sans-serif" font-size="10.4" font-weight="bold" lengthAdjust="spacing" textLength="7.2" x="734.8" y="382.8656">7</text><text fill="#000000" font-family="sans-serif" font-size="10.4" lengthAdjust="spacing" textLength="48" x="745.2" y="382.8656">employee</text><polygon fill="#181818" points="962,406.9078,970,410.1078,962,413.3078,965.2,410.1078" style="stroke:#181818;stroke-width:0.8000000000000002;"/><line style="stroke:#181818;stroke-width:0.8000000000000002;" x1="721.2" x2="966.8" y1="410.1078" y2="410.1078"/><text fill="#000000" font-family="sans-serif" font-size="10.4" font-weight="bold" lengthAdjust="spacing" textLength="7.2" x="726.8" y="406.3141">8</text><text fill="#000000" font-family="sans-serif" font-size="10.4" lengthAdjust="spacing" textLength="113.6" x="737.2" y="406.3141">getAgendaRepository()</text><polygon fill="#181818" points="730,430.3563,722,433.5563,730,436.7563,726.8,433.5563" style="stroke:#181818;stroke-width:0.8000000000000002;"/><line style="stroke:#181818;stroke-width:0.8000000000000002;stroke-dasharray:2.0,2.0;" x1="725.2" x2="974.8" y1="433.5563" y2="433.5563"/><text fill="#000000" font-family="sans-serif" font-size="10.4" font-weight="bold" lengthAdjust="spacing" textLength="7.2" x="734.8" y="429.7625">9</text><text fill="#000000" font-family="sans-serif" font-size="10.4" lengthAdjust="spacing" textLength="89.6" x="745.2" y="429.7625">agendaRepository</text><polygon fill="#181818" points="1068.8,453.8047,1076.8,457.0047,1068.8,460.2047,1072,457.0047" style="stroke:#181818;stroke-width:0.8000000000000002;"/><line style="stroke:#181818;stroke-width:0.8000000000000002;" x1="721.2" x2="1073.6" y1="457.0047" y2="457.0047"/><text fill="#000000" font-family="sans-serif" font-size="10.4" font-weight="bold" lengthAdjust="spacing" textLength="14.4" x="726.8" y="453.2109">10</text><text fill="#000000" font-family="sans-serif" font-size="10.4" lengthAdjust="spacing" textLength="304" x="744.4" y="453.2109">getEntriesFromAgendaPriorTo(currentDate, satus="Planned")</text><polygon fill="#181818" points="730,477.2531,722,480.4531,730,483.6531,726.8,480.4531" style="stroke:#181818;stroke-width:0.8000000000000002;"/><line style="stroke:#181818;stroke-width:0.8000000000000002;stroke-dasharray:2.0,2.0;" x1="725.2" x2="1081.6" y1="480.4531" y2="480.4531"/><text fill="#000000" font-family="sans-serif" font-size="10.4" font-weight="bold" lengthAdjust="spacing" textLength="14.4" x="734.8" y="476.6594">11</text><text fill="#000000" font-family="sans-serif" font-size="10.4" lengthAdjust="spacing" textLength="112.8" x="752.4" y="476.6594">presentAndPastEntries</text><polygon fill="#181818" points="1420,500.7016,1428,503.9016,1420,507.1016,1423.2,503.9016" style="stroke:#181818;stroke-width:0.8000000000000002;"/><line style="stroke:#181818;stroke-width:0.8000000000000002;" x1="721.2" x2="1424.8" y1="503.9016" y2="503.9016"/><text fill="#000000" font-family="sans-serif" font-size="10.4" font-weight="bold" lengthAdjust="spacing" textLength="14.4" x="726.8" y="500.1078">12</text><text fill="#000000" font-family="sans-serif" font-size="10.4" lengthAdjust="spacing" textLength="186.4" x="744.4" y="500.1078">filterEntriesByCollaborator(employee)</text><polygon fill="#181818" points="730,524.15,722,527.35,730,530.55,726.8,527.35" style="stroke:#181818;stroke-width:0.8000000000000002;"/><line style="stroke:#181818;stroke-width:0.8000000000000002;stroke-dasharray:2.0,2.0;" x1="725.2" x2="1432.8" y1="527.35" y2="527.35"/><text fill="#000000" font-family="sans-serif" font-size="10.4" font-weight="bold" lengthAdjust="spacing" textLength="14.4" x="734.8" y="523.5563">13</text><text fill="#000000" font-family="sans-serif" font-size="10.4" lengthAdjust="spacing" textLength="140.8" x="752.4" y="523.5563">filteredEntriesByColaborator</text><polygon fill="#181818" points="392.4,547.5984,384.4,550.7984,392.4,553.9984,389.2,550.7984" style="stroke:#181818;stroke-width:0.8000000000000002;"/><line style="stroke:#181818;stroke-width:0.8000000000000002;stroke-dasharray:2.0,2.0;" x1="387.6" x2="716.4" y1="550.7984" y2="550.7984"/><text fill="#000000" font-family="sans-serif" font-size="10.4" font-weight="bold" lengthAdjust="spacing" textLength="14.4" x="397.2" y="547.0047">14</text><text fill="#000000" font-family="sans-serif" font-size="10.4" lengthAdjust="spacing" textLength="140.8" x="414.8" y="547.0047">filteredEntriesByColaborator</text><polygon fill="#181818" points="54,583.2953,46,586.4953,54,589.6953,50.8,586.4953" style="stroke:#181818;stroke-width:0.8000000000000002;"/><line style="stroke:#181818;stroke-width:0.8000000000000002;stroke-dasharray:2.0,2.0;" x1="49.2" x2="378.8" y1="586.4953" y2="586.4953"/><text fill="#000000" font-family="sans-serif" font-size="10.4" font-weight="bold" lengthAdjust="spacing" textLength="14.4" x="58.8" y="576.5773">15</text><text fill="#000000" font-family="sans-serif" font-size="10.4" lengthAdjust="spacing" textLength="293.6" x="76.4" y="570.4531">Shows the Agenda tasks that have not yet been completed</text><text fill="#000000" font-family="sans-serif" font-size="10.4" lengthAdjust="spacing" textLength="208.8" x="79.6" y="582.7016">in which the employee is part of the team</text><polygon fill="#181818" points="366,606.7438,374,609.9438,366,613.1438,369.2,609.9438" style="stroke:#181818;stroke-width:0.8000000000000002;"/><line style="stroke:#181818;stroke-width:0.8000000000000002;" x1="45.2" x2="370.8" y1="609.9438" y2="609.9438"/><text fill="#000000" font-family="sans-serif" font-size="10.4" font-weight="bold" lengthAdjust="spacing" textLength="14.4" x="50.8" y="606.15">16</text><text fill="#000000" font-family="sans-serif" font-size="10.4" lengthAdjust="spacing" textLength="124" x="68.4" y="606.15">Selects the Agenda Entry</text><polygon fill="#181818" points="54,630.1922,46,633.3922,54,636.5922,50.8,633.3922" style="stroke:#181818;stroke-width:0.8000000000000002;"/><line style="stroke:#181818;stroke-width:0.8000000000000002;stroke-dasharray:2.0,2.0;" x1="49.2" x2="378.8" y1="633.3922" y2="633.3922"/><text fill="#000000" font-family="sans-serif" font-size="10.4" font-weight="bold" lengthAdjust="spacing" textLength="14.4" x="58.8" y="629.5984">17</text><text fill="#000000" font-family="sans-serif" font-size="10.4" lengthAdjust="spacing" textLength="237.6" x="76.4" y="629.5984">Shows selected data and requests confirmation</text><polygon fill="#181818" points="366,653.6406,374,656.8406,366,660.0406,369.2,656.8406" style="stroke:#181818;stroke-width:0.8000000000000002;"/><line style="stroke:#181818;stroke-width:0.8000000000000002;" x1="45.2" x2="370.8" y1="656.8406" y2="656.8406"/><text fill="#000000" font-family="sans-serif" font-size="10.4" font-weight="bold" lengthAdjust="spacing" textLength="14.4" x="50.8" y="653.0469">18</text><text fill="#000000" font-family="sans-serif" font-size="10.4" lengthAdjust="spacing" textLength="71.2" x="68.4" y="653.0469">Confirms data</text><polygon fill="#181818" points="703.6,677.0891,711.6,680.2891,703.6,683.4891,706.8,680.2891" style="stroke:#181818;stroke-width:0.8000000000000002;"/><line style="stroke:#181818;stroke-width:0.8000000000000002;" x1="383.6" x2="708.4" y1="680.2891" y2="680.2891"/><text fill="#000000" font-family="sans-serif" font-size="10.4" font-weight="bold" lengthAdjust="spacing" textLength="14.4" x="389.2" y="676.4953">19</text><text fill="#000000" font-family="sans-serif" font-size="10.4" lengthAdjust="spacing" textLength="196.8" x="406.8" y="676.4953">recordTaskAsCompleted(selectedEntry)</text><polygon fill="#181818" points="1420,700.5375,1428,703.7375,1420,706.9375,1423.2,703.7375" style="stroke:#181818;stroke-width:0.8000000000000002;"/><line style="stroke:#181818;stroke-width:0.8000000000000002;" x1="721.2" x2="1424.8" y1="703.7375" y2="703.7375"/><text fill="#000000" font-family="sans-serif" font-size="10.4" font-weight="bold" lengthAdjust="spacing" textLength="14.4" x="726.8" y="699.9438">20</text><text fill="#000000" font-family="sans-serif" font-size="10.4" lengthAdjust="spacing" textLength="254.4" x="744.4" y="699.9438">recordTaskAsCompleted(selectedEntry, employee))</text><line style="stroke:#181818;stroke-width:0.8000000000000002;" x1="1437.6" x2="1471.2" y1="727.1859" y2="727.1859"/><line style="stroke:#181818;stroke-width:0.8000000000000002;" x1="1471.2" x2="1471.2" y1="727.1859" y2="737.5859"/><line style="stroke:#181818;stroke-width:0.8000000000000002;" x1="1438.4" x2="1471.2" y1="737.5859" y2="737.5859"/><polygon fill="#181818" points="1446.4,734.3859,1438.4,737.5859,1446.4,740.7859,1443.2,737.5859" style="stroke:#181818;stroke-width:0.8000000000000002;"/><text fill="#000000" font-family="sans-serif" font-size="10.4" font-weight="bold" lengthAdjust="spacing" textLength="14.4" x="1443.2" y="723.3922">21</text><text fill="#000000" font-family="sans-serif" font-size="10.4" lengthAdjust="spacing" textLength="316" x="1460.8" y="723.3922">validateCollaboratorDispachedToTask(selectedEntry,employee)</text><path d="M1441.6,747.9859 L1441.6,767.9859 L1676,767.9859 L1676,755.9859 L1668,747.9859 L1441.6,747.9859 " fill="#FAFAFA" style="stroke:#181818;stroke-width:0.4000000000000001;"/><path d="M1668,747.9859 L1668,755.9859 L1676,755.9859 L1668,747.9859 " fill="#FAFAFA" style="stroke:#181818;stroke-width:0.4000000000000001;"/><text fill="#000000" font-family="sans-serif" font-size="10.4" lengthAdjust="spacing" textLength="217.6" x="1446.4" y="762.0406">mudar a sequ&#234;ncia abaixo para um split SD</text><polygon fill="#181818" points="1772.8,786.0828,1780.8,789.2828,1772.8,792.4828,1776,789.2828" style="stroke:#181818;stroke-width:0.8000000000000002;"/><line style="stroke:#181818;stroke-width:0.8000000000000002;" x1="1437.6" x2="1777.6" y1="789.2828" y2="789.2828"/><text fill="#000000" font-family="sans-serif" font-size="10.4" font-weight="bold" lengthAdjust="spacing" textLength="14.4" x="1443.2" y="785.4891">22</text><text fill="#000000" font-family="sans-serif" font-size="10.4" lengthAdjust="spacing" textLength="160.8" x="1460.8" y="785.4891">setStatus(selectedEntry, "Done")</text><polygon fill="#181818" points="1446.4,809.5313,1438.4,812.7313,1446.4,815.9313,1443.2,812.7313" style="stroke:#181818;stroke-width:0.8000000000000002;"/><line style="stroke:#181818;stroke-width:0.8000000000000002;stroke-dasharray:2.0,2.0;" x1="1441.6" x2="1785.6" y1="812.7313" y2="812.7313"/><text fill="#000000" font-family="sans-serif" font-size="10.4" font-weight="bold" lengthAdjust="spacing" textLength="14.4" x="1451.2" y="808.9375">23</text><text fill="#000000" font-family="sans-serif" font-size="10.4" lengthAdjust="spacing" textLength="60" x="1468.8" y="808.9375">alteredEntry</text><polygon fill="#181818" points="730,832.9797,722,836.1797,730,839.3797,726.8,836.1797" style="stroke:#181818;stroke-width:0.8000000000000002;"/><line style="stroke:#181818;stroke-width:0.8000000000000002;stroke-dasharray:2.0,2.0;" x1="725.2" x2="1432.8" y1="836.1797" y2="836.1797"/><text fill="#000000" font-family="sans-serif" font-size="10.4" font-weight="bold" lengthAdjust="spacing" textLength="14.4" x="734.8" y="832.3859">24</text><text fill="#000000" font-family="sans-serif" font-size="10.4" lengthAdjust="spacing" textLength="60" x="752.4" y="832.3859">alteredEntry</text><polygon fill="#181818" points="392.4,856.4281,384.4,859.6281,392.4,862.8281,389.2,859.6281" style="stroke:#181818;stroke-width:0.8000000000000002;"/><line style="stroke:#181818;stroke-width:0.8000000000000002;stroke-dasharray:2.0,2.0;" x1="387.6" x2="716.4" y1="859.6281" y2="859.6281"/><text fill="#000000" font-family="sans-serif" font-size="10.4" font-weight="bold" lengthAdjust="spacing" textLength="14.4" x="397.2" y="855.8344">25</text><text fill="#000000" font-family="sans-serif" font-size="10.4" lengthAdjust="spacing" textLength="60" x="414.8" y="855.8344">alteredEntry</text><polygon fill="#181818" points="50,879.8766,42,883.0766,50,886.2766,46.8,883.0766" style="stroke:#181818;stroke-width:0.8000000000000002;"/><line style="stroke:#181818;stroke-width:0.8000000000000002;stroke-dasharray:2.0,2.0;" x1="45.2" x2="378.8" y1="883.0766" y2="883.0766"/><text fill="#000000" font-family="sans-serif" font-size="10.4" font-weight="bold" lengthAdjust="spacing" textLength="14.4" x="54.8" y="879.2828">26</text><text fill="#000000" font-family="sans-serif" font-size="10.4" lengthAdjust="spacing" textLength="184.8" x="72.4" y="879.2828">Displays operation success message</text><!--SRC=[hLTTRkCs47xNAGP-QRBOv006Mi3hkAY1eXj4pji2Yx4qjeZ8f4fIINobNgCNwv2o9EetxhPwCgMPR_w-cQ7DYv05QZp1IKcLP5gT2AmkAJBDbmAJ5pnIRCyvWQR4eZpceO39C5LlGXxXWBcXACBIAbcUzgIZwATCf0G7fUnUlKUOMALXiLPvZdkbaKyBG0FFyLF4O5Oaea1fOR5yeaJfT8VcPQrEHKvMAFcyhOItLyYkbRIQpL1b86cE0zr26S5-239UqWWN7WVG5TI1t3SvLEFlNGLEcKonaJkpqghtoYlsvNeefSr8yXbTK5sqYKyUTVMy- -txq-RnQnUkDAHZCeOL6E6vFTLL-1vludZxzO-k6d5MrPc8TM1p-Uqrrhz_sVKhj-5CLqwG-nL5aLIMcIEEcGLryBK6VkvWbn4uZq1m6d9Dc9uXLySZfI0ae0MRyHTZgRY_Q7HZ1aD_bYGJSW3qNkGefDVrqjX-flU4T67l8qurE6_wFhL5h-p4zPcH_IlsXpqDz9d9uXKPmuNZHTp31xZxXHaAovLvCM2LwnWc9uT2JCAQdSucWcN6jhejuhPzwK6t3hDbyATFi8I4q-Nyc1DaiIDPLmzcwQ_SsnK17xLGUgTkab9hJkO3utm6WxOqFoyUSvISmyLj1xXnBMYZZe1x0hliHPFHoecjD3mt4hgv7UWru6qH1ZBkQH7lEb4k8UpDWMfArnYOTRwcl4lXfLyuZW56br91giQYSUndrfx8PYhjy7TKdFcNaaMH-ywGDQF74rNJFXLuv05zFv1gQVmZnPWg12Uh7XJH_r86hcjLWFxWd6EH6yIZQN5eVUOCXk-CswF0NOVxSF-f0MUACt1xDE21DuDo5PeCEx2IwIEQsi_PsWqjVv0Ilo7Or47ablJ5n9TpU0EugLbpEnDojMb6uwnC38AhB58QsgnDpiOuOIgCwpBZ_uMD07zgYBhnxO1ZbwyuKs_6RusACtvPk1Uy5ZDy9TU_S2OBUo9PRnPAlqat8DuoaMHUkKwjcp1kJRl9vDvRmbDGky2xSFi4woocdAz-7OysrNeVBTVO3gjYMrQH6O_7spf5YppHKkul7bl6-hlQGUYJN_6JIPnm4zQLil6uCyvzj3XrSwTScNMTtPlQQn_w75slNvHrWrnXy7DJpjknyJ3MBwD2GTEqzbyn5vmp2ZlpGHY-_MUKxfHphEVDJDkEhCJAeId1KvcYlbpP_lvB9e8viKVnhXnh4Kh-br7amaByC0anlTG6CVkBAImDsTYwiTjFy-91ILhCnDMakRhYminJsReBCetjp3XFcmYuJlEI4_FlOpCVpxovsJUFVyMywyyynxOSpmPKGVfomI-JX2zSV4qoXbVFx3G8Ztmd_mS0]--></g></svg>