<?xml version="1.0" encoding="us-ascii" standalone="no"?><svg xmlns="http://www.w3.org/2000/svg" xmlns:xlink="http://www.w3.org/1999/xlink" contentStyleType="text/css" height="675px" preserveAspectRatio="none" style="width:1252px;height:675px;background:#FFFFFF;" version="1.1" viewBox="0 0 1252 675" width="1252.2px" zoomAndPan="magnify"><defs/><g><rect fill="#FFFFFF" height="560.8418" style="stroke:#181818;stroke-width:0.6;" width="6" x="27.9" y="54.893"/><rect fill="#FFFFFF" height="302.2605" style="stroke:#181818;stroke-width:0.6;" width="6" x="281.7" y="137.6109"/><rect fill="#FFFFFF" height="17.5863" style="stroke:#181818;stroke-width:0.6;" width="6" x="281.7" y="457.4578"/><rect fill="#FFFFFF" height="123.1043" style="stroke:#181818;stroke-width:0.6;" width="6" x="281.7" y="492.6305"/><rect fill="#FFFFFF" height="233.0086" style="stroke:#181818;stroke-width:0.6;" width="6" x="534.9" y="180.0902"/><rect fill="#FFFFFF" height="87.9316" style="stroke:#181818;stroke-width:0.6;" width="6" x="534.9" y="510.2168"/><rect fill="#FFFFFF" height="17.5863" style="stroke:#181818;stroke-width:0.6;" width="6" x="660.9" y="197.6766"/><rect fill="#FFFFFF" height="57.1453" style="stroke:#181818;stroke-width:0.6;" width="6" x="660.9" y="232.8492"/><rect fill="#FFFFFF" height="17.5863" style="stroke:#181818;stroke-width:0.6;" width="6" x="728.7" y="307.5809"/><rect fill="#FFFFFF" height="17.5863" style="stroke:#181818;stroke-width:0.6;" width="6" x="808.8" y="342.7535"/><rect fill="#FFFFFF" height="17.5863" style="stroke:#181818;stroke-width:0.6;" width="6" x="1078.5" y="377.9262"/><rect fill="#FFFFFF" height="52.759" style="stroke:#181818;stroke-width:0.6;" width="6" x="1078.5" y="527.8031"/><rect fill="#FFFFFF" height="17.5863" style="stroke:#181818;stroke-width:0.6;" width="6" x="1229.7" y="545.3895"/><line style="stroke:#181818;stroke-width:0.3;stroke-dasharray:5.0,5.0;" x1="30.6" x2="30.6" y1="48.893" y2="626.5348"/><line style="stroke:#181818;stroke-width:0.3;stroke-dasharray:5.0,5.0;" x1="284.7" x2="284.7" y1="48.893" y2="626.5348"/><line style="stroke:#181818;stroke-width:0.3;stroke-dasharray:5.0,5.0;" x1="537.9" x2="537.9" y1="160.8574" y2="626.5348"/><line style="stroke:#181818;stroke-width:0.3;stroke-dasharray:5.0,5.0;" x1="663.6" x2="663.6" y1="48.893" y2="626.5348"/><line style="stroke:#181818;stroke-width:0.3;stroke-dasharray:5.0,5.0;" x1="731.4" x2="731.4" y1="48.893" y2="626.5348"/><line style="stroke:#181818;stroke-width:0.3;stroke-dasharray:5.0,5.0;" x1="811.8" x2="811.8" y1="48.893" y2="626.5348"/><line style="stroke:#181818;stroke-width:0.3;stroke-dasharray:5.0,5.0;" x1="918.6" x2="918.6" y1="48.893" y2="626.5348"/><line style="stroke:#181818;stroke-width:0.3;stroke-dasharray:5.0,5.0;" x1="1012.2" x2="1012.2" y1="48.893" y2="626.5348"/><line style="stroke:#181818;stroke-width:0.3;stroke-dasharray:5.0,5.0;" x1="1081.2" x2="1081.2" y1="48.893" y2="626.5348"/><line style="stroke:#181818;stroke-width:0.3;stroke-dasharray:5.0,5.0;" x1="1232.4" x2="1232.4" y1="48.893" y2="626.5348"/><text fill="#000000" font-family="sans-serif" font-size="8.4" lengthAdjust="spacing" textLength="52.2" x="3" y="47.1211">Collaborator</text><ellipse cx="30.9" cy="8.1" fill="#E3E3E3" rx="4.8" ry="4.8" style="stroke:#181818;stroke-width:0.3;"/><path d="M30.9,12.9 L30.9,29.1 M23.1,17.7 L38.7,17.7 M30.9,29.1 L23.1,38.1 M30.9,29.1 L38.7,38.1 " fill="none" style="stroke:#181818;stroke-width:0.3;"/><text fill="#000000" font-family="sans-serif" font-size="8.4" lengthAdjust="spacing" textLength="52.2" x="3" y="634.0559">Collaborator</text><ellipse cx="30.9" cy="640.9277" fill="#E3E3E3" rx="4.8" ry="4.8" style="stroke:#181818;stroke-width:0.3;"/><path d="M30.9,645.7277 L30.9,661.9277 M23.1,650.5277 L38.7,650.5277 M30.9,661.9277 L23.1,670.9277 M30.9,661.9277 L38.7,670.9277 " fill="none" style="stroke:#181818;stroke-width:0.3;"/><rect fill="#E3E3E3" height="18.293" rx="1.5" ry="1.5" style="stroke:#181818;stroke-width:0.3;" width="115.2" x="227.1" y="30"/><text fill="#000000" font-family="sans-serif" font-size="8.4" lengthAdjust="spacing" textLength="106.8" x="231.3" y="42.3211">:RecordTaskCompletionUI</text><rect fill="#E3E3E3" height="18.293" rx="1.5" ry="1.5" style="stroke:#181818;stroke-width:0.3;" width="115.2" x="227.1" y="625.9348"/><text fill="#000000" font-family="sans-serif" font-size="8.4" lengthAdjust="spacing" textLength="106.8" x="231.3" y="638.2559">:RecordTaskCompletionUI</text><rect fill="#E3E3E3" height="18.293" rx="1.5" ry="1.5" style="stroke:#181818;stroke-width:0.3;" width="148.8" x="463.5" y="625.9348"/><text fill="#000000" font-family="sans-serif" font-size="8.4" lengthAdjust="spacing" textLength="140.4" x="467.7" y="638.2559">:RecordTaskCompletionController</text><rect fill="#E3E3E3" height="18.293" rx="1.5" ry="1.5" style="stroke:#181818;stroke-width:0.3;" width="61.8" x="633" y="30"/><text fill="#000000" font-family="sans-serif" font-size="8.4" lengthAdjust="spacing" textLength="53.4" x="637.2" y="42.3211">:Repositories</text><rect fill="#E3E3E3" height="18.293" rx="1.5" ry="1.5" style="stroke:#181818;stroke-width:0.3;" width="61.8" x="633" y="625.9348"/><text fill="#000000" font-family="sans-serif" font-size="8.4" lengthAdjust="spacing" textLength="53.4" x="637.2" y="638.2559">:Repositories</text><rect fill="#E3E3E3" height="28.1859" rx="1.5" ry="1.5" style="stroke:#181818;stroke-width:0.3;" width="61.8" x="700.8" y="20.107"/><text fill="#000000" font-family="sans-serif" font-size="8.4" lengthAdjust="spacing" textLength="49.2" x="707.1" y="32.4281">repositories</text><text fill="#000000" font-family="sans-serif" font-size="8.4" lengthAdjust="spacing" textLength="53.4" x="705" y="42.3211">:Repositories</text><rect fill="#E3E3E3" height="28.1859" rx="1.5" ry="1.5" style="stroke:#181818;stroke-width:0.3;" width="61.8" x="700.8" y="625.9348"/><text fill="#000000" font-family="sans-serif" font-size="8.4" lengthAdjust="spacing" textLength="49.2" x="707.1" y="638.2559">repositories</text><text fill="#000000" font-family="sans-serif" font-size="8.4" lengthAdjust="spacing" textLength="53.4" x="705" y="648.1488">:Repositories</text><rect fill="#E3E3E3" height="28.1859" rx="1.5" ry="1.5" style="stroke:#181818;stroke-width:0.3;" width="86.4" x="768.6" y="20.107"/><text fill="#000000" font-family="sans-serif" font-size="8.4" lengthAdjust="spacing" textLength="74.4" x="774.6" y="32.4281">agendaRepository</text><text fill="#000000" font-family="sans-serif" font-size="8.4" lengthAdjust="spacing" textLength="78" x="772.8" y="42.3211">:AgendaRepository</text><rect fill="#E3E3E3" height="28.1859" rx="1.5" ry="1.5" style="stroke:#181818;stroke-width:0.3;" width="86.4" x="768.6" y="625.9348"/><text fill="#000000" font-family="sans-serif" font-size="8.4" lengthAdjust="spacing" textLength="74.4" x="774.6" y="638.2559">agendaRepository</text><text fill="#000000" font-family="sans-serif" font-size="8.4" lengthAdjust="spacing" textLength="78" x="772.8" y="648.1488">:AgendaRepository</text><rect fill="#E3E3E3" height="28.1859" rx="1.5" ry="1.5" style="stroke:#181818;stroke-width:0.3;" width="115.2" x="861" y="20.107"/><text fill="#000000" font-family="sans-serif" font-size="8.4" lengthAdjust="spacing" textLength="103.2" x="867" y="32.4281">authenticationRepository</text><text fill="#000000" font-family="sans-serif" font-size="8.4" lengthAdjust="spacing" textLength="106.8" x="865.2" y="42.3211">:AuthenticationRepository</text><rect fill="#E3E3E3" height="28.1859" rx="1.5" ry="1.5" style="stroke:#181818;stroke-width:0.3;" width="115.2" x="861" y="625.9348"/><text fill="#000000" font-family="sans-serif" font-size="8.4" lengthAdjust="spacing" textLength="103.2" x="867" y="638.2559">authenticationRepository</text><text fill="#000000" font-family="sans-serif" font-size="8.4" lengthAdjust="spacing" textLength="106.8" x="865.2" y="648.1488">:AuthenticationRepository</text><rect fill="#E3E3E3" height="28.1859" rx="1.5" ry="1.5" style="stroke:#181818;stroke-width:0.3;" width="60.6" x="982.2" y="20.107"/><text fill="#000000" font-family="sans-serif" font-size="8.4" lengthAdjust="spacing" textLength="49.2" x="987.9" y="32.4281">userSession</text><text fill="#000000" font-family="sans-serif" font-size="8.4" lengthAdjust="spacing" textLength="52.2" x="986.4" y="42.3211">:UserSession</text><rect fill="#E3E3E3" height="28.1859" rx="1.5" ry="1.5" style="stroke:#181818;stroke-width:0.3;" width="60.6" x="982.2" y="625.9348"/><text fill="#000000" font-family="sans-serif" font-size="8.4" lengthAdjust="spacing" textLength="49.2" x="987.9" y="638.2559">userSession</text><text fill="#000000" font-family="sans-serif" font-size="8.4" lengthAdjust="spacing" textLength="52.2" x="986.4" y="648.1488">:UserSession</text><rect fill="#E3E3E3" height="28.1859" rx="1.5" ry="1.5" style="stroke:#181818;stroke-width:0.3;" width="65.4" x="1048.8" y="20.107"/><text fill="#000000" font-family="sans-serif" font-size="8.4" lengthAdjust="spacing" textLength="50.4" x="1056.3" y="32.4281">collaborator</text><text fill="#000000" font-family="sans-serif" font-size="8.4" lengthAdjust="spacing" textLength="57" x="1053" y="42.3211">: Collaborator</text><rect fill="#E3E3E3" height="28.1859" rx="1.5" ry="1.5" style="stroke:#181818;stroke-width:0.3;" width="65.4" x="1048.8" y="625.9348"/><text fill="#000000" font-family="sans-serif" font-size="8.4" lengthAdjust="spacing" textLength="50.4" x="1056.3" y="638.2559">collaborator</text><text fill="#000000" font-family="sans-serif" font-size="8.4" lengthAdjust="spacing" textLength="57" x="1053" y="648.1488">: Collaborator</text><rect fill="#E3E3E3" height="18.293" rx="1.5" ry="1.5" style="stroke:#181818;stroke-width:0.3;" width="31.8" x="1216.8" y="30"/><text fill="#000000" font-family="sans-serif" font-size="8.4" lengthAdjust="spacing" textLength="23.4" x="1221" y="42.3211">:Entry</text><rect fill="#E3E3E3" height="18.293" rx="1.5" ry="1.5" style="stroke:#181818;stroke-width:0.3;" width="31.8" x="1216.8" y="625.9348"/><text fill="#000000" font-family="sans-serif" font-size="8.4" lengthAdjust="spacing" textLength="23.4" x="1221" y="638.2559">:Entry</text><rect fill="#FFFFFF" height="560.8418" style="stroke:#181818;stroke-width:0.6;" width="6" x="27.9" y="54.893"/><rect fill="#FFFFFF" height="302.2605" style="stroke:#181818;stroke-width:0.6;" width="6" x="281.7" y="137.6109"/><rect fill="#FFFFFF" height="17.5863" style="stroke:#181818;stroke-width:0.6;" width="6" x="281.7" y="457.4578"/><rect fill="#FFFFFF" height="123.1043" style="stroke:#181818;stroke-width:0.6;" width="6" x="281.7" y="492.6305"/><rect fill="#FFFFFF" height="233.0086" style="stroke:#181818;stroke-width:0.6;" width="6" x="534.9" y="180.0902"/><rect fill="#FFFFFF" height="87.9316" style="stroke:#181818;stroke-width:0.6;" width="6" x="534.9" y="510.2168"/><rect fill="#FFFFFF" height="17.5863" style="stroke:#181818;stroke-width:0.6;" width="6" x="660.9" y="197.6766"/><rect fill="#FFFFFF" height="57.1453" style="stroke:#181818;stroke-width:0.6;" width="6" x="660.9" y="232.8492"/><rect fill="#FFFFFF" height="17.5863" style="stroke:#181818;stroke-width:0.6;" width="6" x="728.7" y="307.5809"/><rect fill="#FFFFFF" height="17.5863" style="stroke:#181818;stroke-width:0.6;" width="6" x="808.8" y="342.7535"/><rect fill="#FFFFFF" height="17.5863" style="stroke:#181818;stroke-width:0.6;" width="6" x="1078.5" y="377.9262"/><rect fill="#FFFFFF" height="52.759" style="stroke:#181818;stroke-width:0.6;" width="6" x="1078.5" y="527.8031"/><rect fill="#FFFFFF" height="17.5863" style="stroke:#181818;stroke-width:0.6;" width="6" x="1229.7" y="545.3895"/><path d="M36.6,57.893 L36.6,90.893 L212.4,90.893 L212.4,63.893 L206.4,57.893 L36.6,57.893 " fill="#FAFAFA" style="stroke:#181818;stroke-width:0.3;"/><path d="M206.4,57.893 L206.4,63.893 L212.4,63.893 L206.4,57.893 " fill="#FAFAFA" style="stroke:#181818;stroke-width:0.3;"/><text fill="#000000" font-family="sans-serif" font-size="7.8" lengthAdjust="spacing" textLength="163.2" x="40.2" y="68.434">- The user is already logged in at this step.</text><text fill="#000000" font-family="sans-serif" font-size="7.8" lengthAdjust="spacing" textLength="158.4" x="40.2" y="77.6203">- Authentication sequence is explained in</text><text fill="#000000" font-family="sans-serif" font-size="7.8" lengthAdjust="spacing" textLength="75" x="40.2" y="86.8066">a sequence excerpt.</text><path d="M666.6,97.452 L666.6,121.452 L730.8,121.452 L730.8,103.452 L724.8,97.452 L666.6,97.452 " fill="#FAFAFA" style="stroke:#181818;stroke-width:0.3;"/><path d="M724.8,97.452 L724.8,103.452 L730.8,103.452 L724.8,97.452 " fill="#FAFAFA" style="stroke:#181818;stroke-width:0.3;"/><text fill="#000000" font-family="sans-serif" font-size="7.8" lengthAdjust="spacing" textLength="51.6" x="670.2" y="107.993">- Singleton is</text><text fill="#000000" font-family="sans-serif" font-size="7.8" lengthAdjust="spacing" textLength="22.8" x="670.2" y="117.1793">in use</text><polygon fill="#181818" points="274.5,135.2109,280.5,137.6109,274.5,140.0109,276.9,137.6109" style="stroke:#181818;stroke-width:0.6;"/><line style="stroke:#181818;stroke-width:0.6;" x1="33.9" x2="278.1" y1="137.6109" y2="137.6109"/><text fill="#000000" font-family="sans-serif" font-size="7.8" font-weight="bold" lengthAdjust="spacing" textLength="5.4" x="38.1" y="134.7656">1</text><text fill="#000000" font-family="sans-serif" font-size="7.8" lengthAdjust="spacing" textLength="150" x="45.9" y="134.7656">Asks to record the completion of a task</text><polygon fill="#181818" points="456.3,152.7973,462.3,155.1973,456.3,157.5973,458.7,155.1973" style="stroke:#181818;stroke-width:0.6;"/><line style="stroke:#181818;stroke-width:0.6;" x1="287.7" x2="459.9" y1="155.1973" y2="155.1973"/><text fill="#000000" font-family="sans-serif" font-size="7.8" font-weight="bold" lengthAdjust="spacing" textLength="5.4" x="291.9" y="152.352">2</text><text fill="#000000" font-family="sans-serif" font-size="7.8" lengthAdjust="spacing" textLength="22.8" x="299.7" y="152.352">create</text><rect fill="#E3E3E3" height="18.293" rx="1.5" ry="1.5" style="stroke:#181818;stroke-width:0.3;" width="148.8" x="463.5" y="142.4109"/><text fill="#000000" font-family="sans-serif" font-size="8.4" lengthAdjust="spacing" textLength="140.4" x="467.7" y="154.732">:RecordTaskCompletionController</text><polygon fill="#181818" points="527.7,177.6902,533.7,180.0902,527.7,182.4902,530.1,180.0902" style="stroke:#181818;stroke-width:0.6;"/><line style="stroke:#181818;stroke-width:0.6;" x1="287.7" x2="531.3" y1="180.0902" y2="180.0902"/><text fill="#000000" font-family="sans-serif" font-size="7.8" font-weight="bold" lengthAdjust="spacing" textLength="5.4" x="291.9" y="177.2449">3</text><text fill="#000000" font-family="sans-serif" font-size="7.8" lengthAdjust="spacing" textLength="228" x="299.7" y="177.2449">getEntriesFromAgendaPriorTo(currentDate, satus="Planned")</text><polygon fill="#181818" points="653.7,195.2766,659.7,197.6766,653.7,200.0766,656.1,197.6766" style="stroke:#181818;stroke-width:0.6;"/><line style="stroke:#181818;stroke-width:0.6;" x1="540.9" x2="657.3" y1="197.6766" y2="197.6766"/><text fill="#000000" font-family="sans-serif" font-size="7.8" font-weight="bold" lengthAdjust="spacing" textLength="5.4" x="545.1" y="194.8312">4</text><text fill="#000000" font-family="sans-serif" font-size="7.8" lengthAdjust="spacing" textLength="48.6" x="552.9" y="194.8312">getInstance()</text><polygon fill="#181818" points="547.5,212.8629,541.5,215.2629,547.5,217.6629,545.1,215.2629" style="stroke:#181818;stroke-width:0.6;"/><line style="stroke:#181818;stroke-width:0.6;stroke-dasharray:2.0,2.0;" x1="543.9" x2="663.3" y1="215.2629" y2="215.2629"/><text fill="#000000" font-family="sans-serif" font-size="7.8" font-weight="bold" lengthAdjust="spacing" textLength="5.4" x="551.1" y="212.4176">5</text><text fill="#000000" font-family="sans-serif" font-size="7.8" lengthAdjust="spacing" textLength="45" x="558.9" y="212.4176">repositories</text><polygon fill="#181818" points="653.7,230.4492,659.7,232.8492,653.7,235.2492,656.1,232.8492" style="stroke:#181818;stroke-width:0.6;"/><line style="stroke:#181818;stroke-width:0.6;" x1="540.9" x2="657.3" y1="232.8492" y2="232.8492"/><text fill="#000000" font-family="sans-serif" font-size="7.8" font-weight="bold" lengthAdjust="spacing" textLength="5.4" x="545.1" y="230.0039">6</text><text fill="#000000" font-family="sans-serif" font-size="7.8" lengthAdjust="spacing" textLength="100.8" x="552.9" y="230.0039">getEmployeeFromSession()</text><path d="M543.6,240.6492 L543.6,273.6492 L658.8,273.6492 L658.8,246.6492 L652.8,240.6492 L543.6,240.6492 " fill="#FAFAFA" style="stroke:#181818;stroke-width:0.3;"/><path d="M652.8,240.6492 L652.8,246.6492 L658.8,246.6492 L652.8,240.6492 " fill="#FAFAFA" style="stroke:#181818;stroke-width:0.3;"/><text fill="#000000" font-family="sans-serif" font-size="7.8" lengthAdjust="spacing" textLength="102.6" x="547.2" y="251.1902">- This method is explained</text><text fill="#000000" font-family="sans-serif" font-size="7.8" lengthAdjust="spacing" textLength="82.2" x="547.2" y="260.3766">in detail in an excerpt</text><text fill="#000000" font-family="sans-serif" font-size="7.8" lengthAdjust="spacing" textLength="70.8" x="547.2" y="269.5629">sequence diagram.</text><polygon fill="#181818" points="547.5,287.5945,541.5,289.9945,547.5,292.3945,545.1,289.9945" style="stroke:#181818;stroke-width:0.6;"/><line style="stroke:#181818;stroke-width:0.6;stroke-dasharray:2.0,2.0;" x1="543.9" x2="663.3" y1="289.9945" y2="289.9945"/><text fill="#000000" font-family="sans-serif" font-size="7.8" font-weight="bold" lengthAdjust="spacing" textLength="5.4" x="551.1" y="287.1492">7</text><text fill="#000000" font-family="sans-serif" font-size="7.8" lengthAdjust="spacing" textLength="36" x="558.9" y="287.1492">employee</text><polygon fill="#181818" points="721.5,305.1809,727.5,307.5809,721.5,309.9809,723.9,307.5809" style="stroke:#181818;stroke-width:0.6;"/><line style="stroke:#181818;stroke-width:0.6;" x1="540.9" x2="725.1" y1="307.5809" y2="307.5809"/><text fill="#000000" font-family="sans-serif" font-size="7.8" font-weight="bold" lengthAdjust="spacing" textLength="5.4" x="545.1" y="304.7355">8</text><text fill="#000000" font-family="sans-serif" font-size="7.8" lengthAdjust="spacing" textLength="85.2" x="552.9" y="304.7355">getAgendaRepository()</text><polygon fill="#181818" points="547.5,322.7672,541.5,325.1672,547.5,327.5672,545.1,325.1672" style="stroke:#181818;stroke-width:0.6;"/><line style="stroke:#181818;stroke-width:0.6;stroke-dasharray:2.0,2.0;" x1="543.9" x2="731.1" y1="325.1672" y2="325.1672"/><text fill="#000000" font-family="sans-serif" font-size="7.8" font-weight="bold" lengthAdjust="spacing" textLength="5.4" x="551.1" y="322.3219">9</text><text fill="#000000" font-family="sans-serif" font-size="7.8" lengthAdjust="spacing" textLength="67.2" x="558.9" y="322.3219">agendaRepository</text><polygon fill="#181818" points="801.6,340.3535,807.6,342.7535,801.6,345.1535,804,342.7535" style="stroke:#181818;stroke-width:0.6;"/><line style="stroke:#181818;stroke-width:0.6;" x1="540.9" x2="805.2" y1="342.7535" y2="342.7535"/><text fill="#000000" font-family="sans-serif" font-size="7.8" font-weight="bold" lengthAdjust="spacing" textLength="10.8" x="545.1" y="339.9082">10</text><text fill="#000000" font-family="sans-serif" font-size="7.8" lengthAdjust="spacing" textLength="231" x="558.3" y="339.9082">getEntriesFromAgendaPriorTo(currentDate, status="Planned")</text><polygon fill="#181818" points="547.5,357.9398,541.5,360.3398,547.5,362.7398,545.1,360.3398" style="stroke:#181818;stroke-width:0.6;"/><line style="stroke:#181818;stroke-width:0.6;stroke-dasharray:2.0,2.0;" x1="543.9" x2="811.2" y1="360.3398" y2="360.3398"/><text fill="#000000" font-family="sans-serif" font-size="7.8" font-weight="bold" lengthAdjust="spacing" textLength="10.8" x="551.1" y="357.4945">11</text><text fill="#000000" font-family="sans-serif" font-size="7.8" lengthAdjust="spacing" textLength="84.6" x="564.3" y="357.4945">presentAndPastEntries</text><polygon fill="#181818" points="1071.3,375.5262,1077.3,377.9262,1071.3,380.3262,1073.7,377.9262" style="stroke:#181818;stroke-width:0.6;"/><line style="stroke:#181818;stroke-width:0.6;" x1="540.9" x2="1074.9" y1="377.9262" y2="377.9262"/><text fill="#000000" font-family="sans-serif" font-size="7.8" font-weight="bold" lengthAdjust="spacing" textLength="10.8" x="545.1" y="375.0809">12</text><text fill="#000000" font-family="sans-serif" font-size="7.8" lengthAdjust="spacing" textLength="139.8" x="558.3" y="375.0809">filterEntriesByCollaborator(employee)</text><polygon fill="#181818" points="547.5,393.1125,541.5,395.5125,547.5,397.9125,545.1,395.5125" style="stroke:#181818;stroke-width:0.6;"/><line style="stroke:#181818;stroke-width:0.6;stroke-dasharray:2.0,2.0;" x1="543.9" x2="1080.9" y1="395.5125" y2="395.5125"/><text fill="#000000" font-family="sans-serif" font-size="7.8" font-weight="bold" lengthAdjust="spacing" textLength="10.8" x="551.1" y="392.6672">13</text><text fill="#000000" font-family="sans-serif" font-size="7.8" lengthAdjust="spacing" textLength="105.6" x="564.3" y="392.6672">filteredEntriesByColaborator</text><polygon fill="#181818" points="294.3,410.6988,288.3,413.0988,294.3,415.4988,291.9,413.0988" style="stroke:#181818;stroke-width:0.6;"/><line style="stroke:#181818;stroke-width:0.6;stroke-dasharray:2.0,2.0;" x1="290.7" x2="537.3" y1="413.0988" y2="413.0988"/><text fill="#000000" font-family="sans-serif" font-size="7.8" font-weight="bold" lengthAdjust="spacing" textLength="10.8" x="297.9" y="410.2535">14</text><text fill="#000000" font-family="sans-serif" font-size="7.8" lengthAdjust="spacing" textLength="105.6" x="311.1" y="410.2535">filteredEntriesByColaborator</text><polygon fill="#181818" points="40.5,437.4715,34.5,439.8715,40.5,442.2715,38.1,439.8715" style="stroke:#181818;stroke-width:0.6;"/><line style="stroke:#181818;stroke-width:0.6;stroke-dasharray:2.0,2.0;" x1="36.9" x2="284.1" y1="439.8715" y2="439.8715"/><text fill="#000000" font-family="sans-serif" font-size="7.8" font-weight="bold" lengthAdjust="spacing" textLength="10.8" x="44.1" y="432.433">15</text><text fill="#000000" font-family="sans-serif" font-size="7.8" lengthAdjust="spacing" textLength="220.2" x="57.3" y="427.8398">Shows the Agenda tasks that have not yet been completed</text><text fill="#000000" font-family="sans-serif" font-size="7.8" lengthAdjust="spacing" textLength="156.6" x="59.7" y="437.0262">in which the employee is part of the team</text><polygon fill="#181818" points="274.5,455.0578,280.5,457.4578,274.5,459.8578,276.9,457.4578" style="stroke:#181818;stroke-width:0.6;"/><line style="stroke:#181818;stroke-width:0.6;" x1="33.9" x2="278.1" y1="457.4578" y2="457.4578"/><text fill="#000000" font-family="sans-serif" font-size="7.8" font-weight="bold" lengthAdjust="spacing" textLength="10.8" x="38.1" y="454.6125">16</text><text fill="#000000" font-family="sans-serif" font-size="7.8" lengthAdjust="spacing" textLength="93" x="51.3" y="454.6125">Selects the Agenda Entry</text><polygon fill="#181818" points="40.5,472.6441,34.5,475.0441,40.5,477.4441,38.1,475.0441" style="stroke:#181818;stroke-width:0.6;"/><line style="stroke:#181818;stroke-width:0.6;stroke-dasharray:2.0,2.0;" x1="36.9" x2="284.1" y1="475.0441" y2="475.0441"/><text fill="#000000" font-family="sans-serif" font-size="7.8" font-weight="bold" lengthAdjust="spacing" textLength="10.8" x="44.1" y="472.1988">17</text><text fill="#000000" font-family="sans-serif" font-size="7.8" lengthAdjust="spacing" textLength="178.2" x="57.3" y="472.1988">Shows selected data and requests confirmation</text><polygon fill="#181818" points="274.5,490.2305,280.5,492.6305,274.5,495.0305,276.9,492.6305" style="stroke:#181818;stroke-width:0.6;"/><line style="stroke:#181818;stroke-width:0.6;" x1="33.9" x2="278.1" y1="492.6305" y2="492.6305"/><text fill="#000000" font-family="sans-serif" font-size="7.8" font-weight="bold" lengthAdjust="spacing" textLength="10.8" x="38.1" y="489.7852">18</text><text fill="#000000" font-family="sans-serif" font-size="7.8" lengthAdjust="spacing" textLength="53.4" x="51.3" y="489.7852">Confirms data</text><polygon fill="#181818" points="527.7,507.8168,533.7,510.2168,527.7,512.6168,530.1,510.2168" style="stroke:#181818;stroke-width:0.6;"/><line style="stroke:#181818;stroke-width:0.6;" x1="287.7" x2="531.3" y1="510.2168" y2="510.2168"/><text fill="#000000" font-family="sans-serif" font-size="7.8" font-weight="bold" lengthAdjust="spacing" textLength="10.8" x="291.9" y="507.3715">19</text><text fill="#000000" font-family="sans-serif" font-size="7.8" lengthAdjust="spacing" textLength="147.6" x="305.1" y="507.3715">recordTaskAsCompleted(selectedEntry)</text><polygon fill="#181818" points="1071.3,525.4031,1077.3,527.8031,1071.3,530.2031,1073.7,527.8031" style="stroke:#181818;stroke-width:0.6;"/><line style="stroke:#181818;stroke-width:0.6;" x1="540.9" x2="1074.9" y1="527.8031" y2="527.8031"/><text fill="#000000" font-family="sans-serif" font-size="7.8" font-weight="bold" lengthAdjust="spacing" textLength="10.8" x="545.1" y="524.9578">20</text><text fill="#000000" font-family="sans-serif" font-size="7.8" lengthAdjust="spacing" textLength="190.8" x="558.3" y="524.9578">recordTaskAsCompleted(selectedEntry, employee))</text><polygon fill="#181818" points="1222.5,542.9895,1228.5,545.3895,1222.5,547.7895,1224.9,545.3895" style="stroke:#181818;stroke-width:0.6;"/><line style="stroke:#181818;stroke-width:0.6;" x1="1084.5" x2="1226.1" y1="545.3895" y2="545.3895"/><text fill="#000000" font-family="sans-serif" font-size="7.8" font-weight="bold" lengthAdjust="spacing" textLength="10.8" x="1088.7" y="542.5441">21</text><text fill="#000000" font-family="sans-serif" font-size="7.8" lengthAdjust="spacing" textLength="120.6" x="1101.9" y="542.5441">setStatus(selectedEntry, "Done")</text><polygon fill="#181818" points="1091.1,560.5758,1085.1,562.9758,1091.1,565.3758,1088.7,562.9758" style="stroke:#181818;stroke-width:0.6;"/><line style="stroke:#181818;stroke-width:0.6;stroke-dasharray:2.0,2.0;" x1="1087.5" x2="1232.1" y1="562.9758" y2="562.9758"/><text fill="#000000" font-family="sans-serif" font-size="7.8" font-weight="bold" lengthAdjust="spacing" textLength="10.8" x="1094.7" y="560.1305">22</text><text fill="#000000" font-family="sans-serif" font-size="7.8" lengthAdjust="spacing" textLength="45" x="1107.9" y="560.1305">alteredEntry</text><polygon fill="#181818" points="547.5,578.1621,541.5,580.5621,547.5,582.9621,545.1,580.5621" style="stroke:#181818;stroke-width:0.6;"/><line style="stroke:#181818;stroke-width:0.6;stroke-dasharray:2.0,2.0;" x1="543.9" x2="1080.9" y1="580.5621" y2="580.5621"/><text fill="#000000" font-family="sans-serif" font-size="7.8" font-weight="bold" lengthAdjust="spacing" textLength="10.8" x="551.1" y="577.7168">23</text><text fill="#000000" font-family="sans-serif" font-size="7.8" lengthAdjust="spacing" textLength="45" x="564.3" y="577.7168">alteredEntry</text><polygon fill="#181818" points="294.3,595.7484,288.3,598.1484,294.3,600.5484,291.9,598.1484" style="stroke:#181818;stroke-width:0.6;"/><line style="stroke:#181818;stroke-width:0.6;stroke-dasharray:2.0,2.0;" x1="290.7" x2="537.3" y1="598.1484" y2="598.1484"/><text fill="#000000" font-family="sans-serif" font-size="7.8" font-weight="bold" lengthAdjust="spacing" textLength="10.8" x="297.9" y="595.3031">24</text><text fill="#000000" font-family="sans-serif" font-size="7.8" lengthAdjust="spacing" textLength="45" x="311.1" y="595.3031">alteredEntry</text><polygon fill="#181818" points="37.5,613.3348,31.5,615.7348,37.5,618.1348,35.1,615.7348" style="stroke:#181818;stroke-width:0.6;"/><line style="stroke:#181818;stroke-width:0.6;stroke-dasharray:2.0,2.0;" x1="33.9" x2="284.1" y1="615.7348" y2="615.7348"/><text fill="#000000" font-family="sans-serif" font-size="7.8" font-weight="bold" lengthAdjust="spacing" textLength="10.8" x="41.1" y="612.8895">25</text><text fill="#000000" font-family="sans-serif" font-size="7.8" lengthAdjust="spacing" textLength="138.6" x="54.3" y="612.8895">Displays operation success message</text><!--SRC=[hLRRRjim37ttLn1vMLEq_O006v2b6HPWM8iwVIimg3OJ2tKaJvBNvkz7IR4jNviEorDaaOUtGrBwXOk2ANQ0WnGooPGy81XLOgJhcu8bBsoFiJdc20eJmyG-3mLqnbBvoiKUTYpN64MiD5AKXsTKKVGfuod2JahpBDyYbXYfOBQIUSwUfM9qcW7Jy1W_H0HcUC8B9WpC5W-OI9LkcNvPoKEHe-5IF6wyyEOCsPKKHf4Pz0QI-jZJBQJcv0T7xIGrj-5H06r15SWzYRuQtRSLA6KYPRNSaPIMdKzEiIlNGIbDXeBEp0RLHXkvSgZBn-ttNm_h-xisNAbHnQWrAH32OtEggl0hNiVnvkvdMoq9waLwqAlVwiVNRRU2QyguTmRjloYAX3J48BxF3CYTgpdGxngs6OBr33Yb8rV8qYFaSh_75BW0Pi1aTACD5ZSdZNRieF5tYI912u1lHSwuSBfEcZNN-9QWAinDH2a7wqtNfwRutavSdGdPVI9_oDD0dnZD_p32iE4u4VkZ0rn_8QR2OgbVD1XfEuT8Ig4WaR5YgRN9m11p6zq6STDyTA0RYzam-V8I5f1GkgmVKu8ajaTZwq5i_KOzxebuhxXKMtcHb4fHCcy9vmeqCwN-FBlFcQ0SpkOjuDgre9rQ0lONs2Klwenw9pP2q_n8y6BUqwl1coBqPEolGRnkHRc0i4TxgYcUOs3I-JMLJHuHRGfFVKDnz33Qb0fIDHIDPJ-nze0cascBluFYnByK3UEvwmnHCNeuKHNjKyxsDAXlUb8DZV-b66E5e6JXALFHVoa3rTKNe3j0frXa1_9WMYnQbpcz8JpXzY1ms-4kt8SQq7GxSA8wFRy78-wvqwjNeL2J1qkHtZDTEJfPlBxbTtBYLWIPsl7Se3gP-7eCLyb5HPlvHCX-rGp6wKtqWlCMCGrjLYOdOnmn5SPr6l8Vi17WZqrHExyjS6pp5MVoLRkruKdZjeNzG7inOt_GDZ0SqS0pegXM2wPFmaw8rumdcLEkKcj7ZDtJTZJPxmRP8QXTu5suVe9z5cDERy2MHsk_tmVBDRJ4V6mB7vbsUBIkKsOOZRIK6epcbZRkqRRZwk1s_6WIHzoaDufJrWvtmhdtDgUg7vTBlQgoUr5vxKAVeklvcx9ga3CCNjNbd0-DXtFx9UYPB_wH1WkD9dOJg6jnTYi5pkRZIBL5_zmR4nkzy0l9dCPJbGtMzDLnt7R01voM79aHxvjvVovCpOTf_3DcGdSkt79DxuIZ1bcWEhs2ooIXLmcz9RIcyJpPCU6H7gv_0G00]--></g></svg>