<?xml version="1.0" encoding="us-ascii" standalone="no"?><svg xmlns="http://www.w3.org/2000/svg" xmlns:xlink="http://www.w3.org/1999/xlink" contentStyleType="text/css" height="490px" preserveAspectRatio="none" style="width:509px;height:490px;background:#FFFFFF;" version="1.1" viewBox="0 0 509 490" width="509px" zoomAndPan="magnify"><defs/><g><text fill="#000000" font-family="sans-serif" font-size="14" font-weight="bold" lengthAdjust="spacing" textLength="365" x="71" y="28.5352">System Sequence Diagram (SSD) - Alternative Two</text><rect fill="#FFFFFF" height="238.1055" style="stroke:#181818;stroke-width:1.0;" width="10" x="33" y="145.4648"/><rect fill="#FFFFFF" height="90.5527" style="stroke:#181818;stroke-width:1.0;" width="10" x="465" y="166.7754"/><rect fill="#FFFFFF" height="29.3105" style="stroke:#181818;stroke-width:1.0;" width="10" x="465" y="286.6387"/><rect fill="#FFFFFF" height="29.3105" style="stroke:#181818;stroke-width:1.0;" width="10" x="465" y="345.2598"/><line style="stroke:#181818;stroke-width:0.5;stroke-dasharray:5.0,5.0;" x1="38" x2="38" y1="135.4648" y2="392.5703"/><line style="stroke:#181818;stroke-width:0.5;stroke-dasharray:5.0,5.0;" x1="470" x2="470" y1="135.4648" y2="392.5703"/><text fill="#000000" font-family="sans-serif" font-size="14" lengthAdjust="spacing" textLength="33" x="16.5" y="116.0234">Fleet</text><text fill="#000000" font-family="sans-serif" font-size="14" lengthAdjust="spacing" textLength="60" x="5" y="132.5117">Manager</text><ellipse cx="38" cy="50.9883" fill="#E3E3E3" rx="8" ry="8" style="stroke:#181818;stroke-width:0.5;"/><path d="M38,58.9883 L38,85.9883 M25,66.9883 L51,66.9883 M38,85.9883 L25,100.9883 M38,85.9883 L51,100.9883 " fill="none" style="stroke:#181818;stroke-width:0.5;"/><text fill="#000000" font-family="sans-serif" font-size="14" lengthAdjust="spacing" textLength="33" x="16.5" y="405.1055">Fleet</text><text fill="#000000" font-family="sans-serif" font-size="14" lengthAdjust="spacing" textLength="60" x="5" y="421.5938">Manager</text><ellipse cx="38" cy="433.0469" fill="#E3E3E3" rx="8" ry="8" style="stroke:#181818;stroke-width:0.5;"/><path d="M38,441.0469 L38,468.0469 M25,449.0469 L51,449.0469 M38,468.0469 L25,483.0469 M38,468.0469 L51,483.0469 " fill="none" style="stroke:#181818;stroke-width:0.5;"/><rect fill="#E3E3E3" height="30.4883" rx="2.5" ry="2.5" style="stroke:#181818;stroke-width:0.5;" width="66" x="437" y="103.9766"/><text fill="#000000" font-family="sans-serif" font-size="14" lengthAdjust="spacing" textLength="52" x="444" y="124.5117">:System</text><rect fill="#E3E3E3" height="30.4883" rx="2.5" ry="2.5" style="stroke:#181818;stroke-width:0.5;" width="66" x="437" y="391.5703"/><text fill="#000000" font-family="sans-serif" font-size="14" lengthAdjust="spacing" textLength="52" x="444" y="412.1055">:System</text><rect fill="#FFFFFF" height="238.1055" style="stroke:#181818;stroke-width:1.0;" width="10" x="33" y="145.4648"/><rect fill="#FFFFFF" height="90.5527" style="stroke:#181818;stroke-width:1.0;" width="10" x="465" y="166.7754"/><rect fill="#FFFFFF" height="29.3105" style="stroke:#181818;stroke-width:1.0;" width="10" x="465" y="286.6387"/><rect fill="#FFFFFF" height="29.3105" style="stroke:#181818;stroke-width:1.0;" width="10" x="465" y="345.2598"/><polygon fill="#181818" points="453,162.7754,463,166.7754,453,170.7754,457,166.7754" style="stroke:#181818;stroke-width:1.0;"/><line style="stroke:#181818;stroke-width:1.0;" x1="43" x2="459" y1="166.7754" y2="166.7754"/><text fill="#000000" font-family="sans-serif" font-size="13" font-weight="bold" lengthAdjust="spacing" textLength="9" x="50" y="162.0332">1</text><text fill="#000000" font-family="sans-serif" font-size="13" lengthAdjust="spacing" textLength="176" x="63" y="162.0332">asks to create a new vehicle</text><polygon fill="#181818" points="54,253.3281,44,257.3281,54,261.3281,50,257.3281" style="stroke:#181818;stroke-width:1.0;"/><line style="stroke:#181818;stroke-width:1.0;stroke-dasharray:2.0,2.0;" x1="48" x2="469" y1="257.3281" y2="257.3281"/><text fill="#000000" font-family="sans-serif" font-size="13" font-weight="bold" lengthAdjust="spacing" textLength="9" x="60" y="221.9648">2</text><text fill="#000000" font-family="sans-serif" font-size="13" lengthAdjust="spacing" textLength="239" x="73" y="191.3438">requests data (i.e. Brand, Model, Type,</text><text fill="#000000" font-family="sans-serif" font-size="13" lengthAdjust="spacing" textLength="293" x="73" y="206.6543">Tare, Gross Weight, Current Km, Register Date,</text><text fill="#000000" font-family="sans-serif" font-size="13" lengthAdjust="spacing" textLength="381" x="73" y="221.9648">Acquisition Date, Maintenance/Checkup Frequency (in Kms),</text><text fill="#000000" font-family="sans-serif" font-size="13" lengthAdjust="spacing" textLength="371" x="73" y="237.2754">Vehicle Registration (Plate number), number of passengers,</text><text fill="#000000" font-family="sans-serif" font-size="13" lengthAdjust="spacing" textLength="189" x="73" y="252.5859">number of doors, type of fuel)</text><polygon fill="#181818" points="453,282.6387,463,286.6387,453,290.6387,457,286.6387" style="stroke:#181818;stroke-width:1.0;"/><line style="stroke:#181818;stroke-width:1.0;" x1="43" x2="459" y1="286.6387" y2="286.6387"/><text fill="#000000" font-family="sans-serif" font-size="13" font-weight="bold" lengthAdjust="spacing" textLength="9" x="50" y="281.8965">3</text><text fill="#000000" font-family="sans-serif" font-size="13" lengthAdjust="spacing" textLength="131" x="63" y="281.8965">types requested data</text><polygon fill="#181818" points="54,311.9492,44,315.9492,54,319.9492,50,315.9492" style="stroke:#181818;stroke-width:1.0;"/><line style="stroke:#181818;stroke-width:1.0;stroke-dasharray:2.0,2.0;" x1="48" x2="469" y1="315.9492" y2="315.9492"/><text fill="#000000" font-family="sans-serif" font-size="13" font-weight="bold" lengthAdjust="spacing" textLength="9" x="60" y="311.207">4</text><text fill="#000000" font-family="sans-serif" font-size="13" lengthAdjust="spacing" textLength="260" x="73" y="311.207">shows all data and requests confirmation</text><polygon fill="#181818" points="453,341.2598,463,345.2598,453,349.2598,457,345.2598" style="stroke:#181818;stroke-width:1.0;"/><line style="stroke:#181818;stroke-width:1.0;" x1="43" x2="459" y1="345.2598" y2="345.2598"/><text fill="#000000" font-family="sans-serif" font-size="13" font-weight="bold" lengthAdjust="spacing" textLength="9" x="50" y="340.5176">5</text><text fill="#000000" font-family="sans-serif" font-size="13" lengthAdjust="spacing" textLength="87" x="63" y="340.5176">confirms data</text><polygon fill="#181818" points="54,370.5703,44,374.5703,54,378.5703,50,374.5703" style="stroke:#181818;stroke-width:1.0;"/><line style="stroke:#181818;stroke-width:1.0;stroke-dasharray:2.0,2.0;" x1="48" x2="469" y1="374.5703" y2="374.5703"/><text fill="#000000" font-family="sans-serif" font-size="13" font-weight="bold" lengthAdjust="spacing" textLength="9" x="60" y="369.8281">6</text><text fill="#000000" font-family="sans-serif" font-size="13" lengthAdjust="spacing" textLength="170" x="73" y="369.8281">displays operation success</text><!--SRC=[dP4_Rzim4CLtVOg39nkGazr3WIHkEWG6YifebomNwYmHfaY5TxIXRz-Z9DiPqg7XmZ-wz-xUJtoqliU87NJ11zF6q158J5JmzKkFveWDLJ8uWaX6q3VkOm6tM8UpzGqSq34LXLZHqcfWeGugUa_a3S7MOfFBbrMrNS4Q7fnGz2ZsHB0_XwB09C6dxesYdes428jdHoJmwdVeTOIu06JutlKk34I5TXThR8zUOB6PseqLqt4qiISKkaaAq7MvmVhRPSYDoeuC4i14oWe4JsSuKMkDPisggzd57UOrMwpLxUgyKL0QcuMXHa5OsZkwWyU8lYvX5sfo9Uo7dahDjiUe-uyOcE4FsQQL4fvIZAInNheIVb5ZjKE4hNRFWWVpdYnRiS7FRpkqNiYZOhv_QiaSKm_FSG8_Q7ElHhpAsjzJejaqucYo_Eboi8czbaq720VzzypabJndyUsz3Y4_YKR8rqCYjng1rFGffq-HPpLVG54zaleAQcx3cG6TcrWhunjz4_p1ncxC-Ty3pcB-ycIrvTxXm11wcbbpCeQO_p7BNm00]--></g></svg>