<?xml version="1.0" encoding="us-ascii" standalone="no"?><svg xmlns="http://www.w3.org/2000/svg" xmlns:xlink="http://www.w3.org/1999/xlink" contentStyleType="text/css" height="1317px" preserveAspectRatio="none" style="width:1224px;height:1317px;background:#FFFFFF;" version="1.1" viewBox="0 0 1224 1317" width="1224px" zoomAndPan="magnify"><defs/><g><!--class ApplicationSession--><g id="elem_ApplicationSession"><rect codeLine="11" fill="#F1F1F1" height="80.9766" id="ApplicationSession" rx="2.5" ry="2.5" style="stroke:#181818;stroke-width:0.5;" width="162" x="94" y="277.9"/><ellipse cx="109" cy="293.9" fill="#ADD1B2" rx="11" ry="11" style="stroke:#181818;stroke-width:1.0;"/><path d="M111.9731,299.5431 Q111.3921,299.8419 110.7529,299.9913 Q110.1138,300.1407 109.4082,300.1407 Q106.9014,300.1407 105.5815,298.4889 Q104.2617,296.837 104.2617,293.7159 Q104.2617,290.5865 105.5815,288.9347 Q106.9014,287.2828 109.4082,287.2828 Q110.1138,287.2828 110.7612,287.4322 Q111.4087,287.5816 111.9731,287.8805 L111.9731,290.6031 Q111.3423,290.0221 110.7488,289.7523 Q110.1553,289.4825 109.5244,289.4825 Q108.1797,289.4825 107.4949,290.5492 Q106.8101,291.6158 106.8101,293.7159 Q106.8101,295.8077 107.4949,296.8744 Q108.1797,297.941 109.5244,297.941 Q110.1553,297.941 110.7488,297.6712 Q111.3423,297.4015 111.9731,296.8204 Z " fill="#000000"/><text fill="#000000" font-family="sans-serif" font-size="14" lengthAdjust="spacing" textLength="130" x="123" y="299.191">ApplicationSession</text><line style="stroke:#181818;stroke-width:0.5;" x1="95" x2="255" y1="309.9" y2="309.9"/><line style="stroke:#181818;stroke-width:0.5;" x1="95" x2="255" y1="317.9" y2="317.9"/><text fill="#000000" font-family="sans-serif" font-size="14" lengthAdjust="spacing" textLength="140" x="100" y="335.4352">+static getInstance()</text><text fill="#000000" font-family="sans-serif" font-size="14" lengthAdjust="spacing" textLength="148" x="100" y="351.9234">+getCurrentSession()</text></g><!--class UserSession--><g id="elem_UserSession"><rect codeLine="17" fill="#F1F1F1" height="64.4883" id="UserSession" rx="2.5" ry="2.5" style="stroke:#181818;stroke-width:0.5;" width="123" x="180.5" y="551.3"/><ellipse cx="199.1" cy="567.3" fill="#ADD1B2" rx="11" ry="11" style="stroke:#181818;stroke-width:1.0;"/><path d="M202.0731,572.9431 Q201.4921,573.2419 200.8529,573.3913 Q200.2138,573.5407 199.5082,573.5407 Q197.0014,573.5407 195.6815,571.8889 Q194.3617,570.237 194.3617,567.1159 Q194.3617,563.9865 195.6815,562.3347 Q197.0014,560.6828 199.5082,560.6828 Q200.2138,560.6828 200.8612,560.8322 Q201.5087,560.9816 202.0731,561.2805 L202.0731,564.0031 Q201.4423,563.4221 200.8488,563.1523 Q200.2553,562.8825 199.6244,562.8825 Q198.2797,562.8825 197.5949,563.9492 Q196.9101,565.0158 196.9101,567.1159 Q196.9101,569.2077 197.5949,570.2744 Q198.2797,571.341 199.6244,571.341 Q200.2553,571.341 200.8488,571.0712 Q201.4423,570.8015 202.0731,570.2204 Z " fill="#000000"/><text fill="#000000" font-family="sans-serif" font-size="14" lengthAdjust="spacing" textLength="83" x="213.9" y="572.591">UserSession</text><line style="stroke:#181818;stroke-width:0.5;" x1="181.5" x2="302.5" y1="583.3" y2="583.3"/><line style="stroke:#181818;stroke-width:0.5;" x1="181.5" x2="302.5" y1="591.3" y2="591.3"/><text fill="#000000" font-family="sans-serif" font-size="14" lengthAdjust="spacing" textLength="111" x="186.5" y="608.8352">+getUserEmail()</text></g><!--class Employee--><g id="elem_Employee"><rect codeLine="22" fill="#F1F1F1" height="64.4883" id="Employee" rx="2.5" ry="2.5" style="stroke:#181818;stroke-width:0.5;" width="250" x="392" y="1246.48"/><ellipse cx="479.75" cy="1262.48" fill="#ADD1B2" rx="11" ry="11" style="stroke:#181818;stroke-width:1.0;"/><path d="M482.7231,1268.1231 Q482.1421,1268.4219 481.5029,1268.5713 Q480.8638,1268.7207 480.1582,1268.7207 Q477.6514,1268.7207 476.3315,1267.0689 Q475.0117,1265.417 475.0117,1262.2959 Q475.0117,1259.1665 476.3315,1257.5147 Q477.6514,1255.8628 480.1582,1255.8628 Q480.8638,1255.8628 481.5112,1256.0122 Q482.1587,1256.1616 482.7231,1256.4605 L482.7231,1259.1831 Q482.0923,1258.6021 481.4988,1258.3323 Q480.9053,1258.0625 480.2744,1258.0625 Q478.9297,1258.0625 478.2449,1259.1292 Q477.5601,1260.1958 477.5601,1262.2959 Q477.5601,1264.3877 478.2449,1265.4544 Q478.9297,1266.521 480.2744,1266.521 Q480.9053,1266.521 481.4988,1266.2512 Q482.0923,1265.9815 482.7231,1265.4004 Z " fill="#000000"/><text fill="#000000" font-family="sans-serif" font-size="14" lengthAdjust="spacing" textLength="66" x="500.25" y="1267.771">Employee</text><line style="stroke:#181818;stroke-width:0.5;" x1="393" x2="641" y1="1278.48" y2="1278.48"/><text fill="#000000" font-family="sans-serif" font-size="14" lengthAdjust="spacing" textLength="8" x="398" y="1296.0152">-</text><text fill="#000000" font-family="sans-serif" font-size="14" font-weight="bold" lengthAdjust="spacing" textLength="230" x="406" y="1296.0152">a complementar estes atributos</text><line style="stroke:#181818;stroke-width:0.5;" x1="393" x2="641" y1="1302.9683" y2="1302.9683"/></g><!--class Vehicle--><g id="elem_Vehicle"><rect codeLine="26" fill="#F1F1F1" height="361.2773" id="Vehicle" rx="2.5" ry="2.5" style="stroke:#181818;stroke-width:0.5;" width="300" x="578" y="808.2"/><ellipse cx="699.25" cy="824.2" fill="#ADD1B2" rx="11" ry="11" style="stroke:#181818;stroke-width:1.0;"/><path d="M702.2231,829.8431 Q701.6421,830.1419 701.0029,830.2913 Q700.3638,830.4407 699.6582,830.4407 Q697.1514,830.4407 695.8315,828.7889 Q694.5117,827.137 694.5117,824.0159 Q694.5117,820.8865 695.8315,819.2347 Q697.1514,817.5828 699.6582,817.5828 Q700.3638,817.5828 701.0112,817.7322 Q701.6587,817.8816 702.2231,818.1805 L702.2231,820.9031 Q701.5923,820.3221 700.9988,820.0523 Q700.4053,819.7825 699.7744,819.7825 Q698.4297,819.7825 697.7449,820.8492 Q697.0601,821.9158 697.0601,824.0159 Q697.0601,826.1077 697.7449,827.1744 Q698.4297,828.241 699.7744,828.241 Q700.4053,828.241 700.9988,827.9712 Q701.5923,827.7015 702.2231,827.1204 Z " fill="#000000"/><text fill="#000000" font-family="sans-serif" font-size="14" lengthAdjust="spacing" textLength="49" x="719.75" y="829.491">Vehicle</text><line style="stroke:#181818;stroke-width:0.5;" x1="579" x2="877" y1="840.2" y2="840.2"/><text fill="#000000" font-family="sans-serif" font-size="14" lengthAdjust="spacing" textLength="94" x="584" y="857.7352">-String brand</text><text fill="#000000" font-family="sans-serif" font-size="14" lengthAdjust="spacing" textLength="96" x="584" y="874.2234">-String model</text><text fill="#000000" font-family="sans-serif" font-size="14" lengthAdjust="spacing" textLength="82" x="584" y="890.7117">-String type</text><text fill="#000000" font-family="sans-serif" font-size="14" lengthAdjust="spacing" textLength="135" x="584" y="907.2">-Integer tareWeight</text><text fill="#000000" font-family="sans-serif" font-size="14" lengthAdjust="spacing" textLength="146" x="584" y="923.6883">-Integer grossWeight</text><text fill="#000000" font-family="sans-serif" font-size="14" lengthAdjust="spacing" textLength="141" x="584" y="940.1766">-Integer currenteKm</text><text fill="#000000" font-family="sans-serif" font-size="14" lengthAdjust="spacing" textLength="127" x="584" y="956.6648">-Date registerDate</text><text fill="#000000" font-family="sans-serif" font-size="14" lengthAdjust="spacing" textLength="149" x="584" y="973.1531">-Date acquisitionDate</text><text fill="#000000" font-family="sans-serif" font-size="14" lengthAdjust="spacing" textLength="220" x="584" y="989.6414">-Integer maintenanceFrequency</text><text fill="#000000" font-family="sans-serif" font-size="14" lengthAdjust="spacing" textLength="142" x="584" y="1006.1297">-String plateNumber</text><text fill="#000000" font-family="sans-serif" font-size="14" lengthAdjust="spacing" textLength="194" x="584" y="1022.618">-Integer passengersNumber</text><text fill="#000000" font-family="sans-serif" font-size="14" lengthAdjust="spacing" textLength="156" x="584" y="1039.1063">-Integer doorsNumber</text><text fill="#000000" font-family="sans-serif" font-size="14" lengthAdjust="spacing" textLength="112" x="584" y="1055.5945">-String fuelType</text><text fill="#000000" font-family="sans-serif" font-size="14" lengthAdjust="spacing" textLength="172" x="584" y="1072.0828">-Boolean trailerMachines</text><line style="stroke:#181818;stroke-width:0.5;" x1="579" x2="877" y1="1079.0359" y2="1079.0359"/><text fill="#000000" font-family="sans-serif" font-size="14" lengthAdjust="spacing" textLength="283" x="584" y="1096.5711">+Vehicle(brand, model, type, tare weight,</text><text fill="#000000" font-family="sans-serif" font-size="14" lengthAdjust="spacing" textLength="266" x="584" y="1113.0594">gross weight, current km,register date,</text><text fill="#000000" font-family="sans-serif" font-size="14" lengthAdjust="spacing" textLength="281" x="584" y="1129.5477">acquisition date, maintenance frequency,</text><text fill="#000000" font-family="sans-serif" font-size="14" lengthAdjust="spacing" textLength="240" x="584" y="1146.0359">plate number, passengers number,</text><text fill="#000000" font-family="sans-serif" font-size="14" lengthAdjust="spacing" textLength="288" x="584" y="1162.5242">doors number, fuel type, trailer machines)</text></g><!--class Organization--><g id="elem_Organization"><rect codeLine="45" fill="#F1F1F1" height="295.3242" id="Organization" rx="2.5" ry="2.5" style="stroke:#181818;stroke-width:0.5;" width="341" x="392.5" y="435.88"/><ellipse cx="513.75" cy="451.88" fill="#ADD1B2" rx="11" ry="11" style="stroke:#181818;stroke-width:1.0;"/><path d="M516.7231,457.5231 Q516.1421,457.8219 515.5029,457.9713 Q514.8638,458.1207 514.1582,458.1207 Q511.6514,458.1207 510.3315,456.4689 Q509.0117,454.817 509.0117,451.6959 Q509.0117,448.5665 510.3315,446.9147 Q511.6514,445.2628 514.1582,445.2628 Q514.8638,445.2628 515.5112,445.4122 Q516.1587,445.5616 516.7231,445.8605 L516.7231,448.5831 Q516.0923,448.0021 515.4988,447.7323 Q514.9053,447.4625 514.2744,447.4625 Q512.9297,447.4625 512.2449,448.5292 Q511.5601,449.5958 511.5601,451.6959 Q511.5601,453.7877 512.2449,454.8544 Q512.9297,455.921 514.2744,455.921 Q514.9053,455.921 515.4988,455.6512 Q516.0923,455.3815 516.7231,454.8004 Z " fill="#000000"/><text fill="#000000" font-family="sans-serif" font-size="14" lengthAdjust="spacing" textLength="90" x="534.25" y="457.171">Organization</text><line style="stroke:#181818;stroke-width:0.5;" x1="393.5" x2="732.5" y1="467.88" y2="467.88"/><text fill="#000000" font-family="sans-serif" font-size="14" lengthAdjust="spacing" textLength="8" x="398.5" y="485.4152">-</text><text fill="#000000" font-family="sans-serif" font-size="14" font-weight="bold" lengthAdjust="spacing" textLength="87" x="406.5" y="485.4152">String name</text><text fill="#000000" font-family="sans-serif" font-size="14" lengthAdjust="spacing" textLength="8" x="398.5" y="501.9034">-</text><text fill="#000000" font-family="sans-serif" font-size="14" font-weight="bold" lengthAdjust="spacing" textLength="127" x="406.5" y="501.9034">String vatNumber</text><text fill="#000000" font-family="sans-serif" font-size="14" lengthAdjust="spacing" textLength="8" x="398.5" y="518.3917">-</text><text fill="#000000" font-family="sans-serif" font-size="14" font-weight="bold" lengthAdjust="spacing" textLength="104" x="406.5" y="518.3917">String website</text><text fill="#000000" font-family="sans-serif" font-size="14" lengthAdjust="spacing" textLength="8" x="398.5" y="534.88">-</text><text fill="#000000" font-family="sans-serif" font-size="14" font-weight="bold" lengthAdjust="spacing" textLength="92" x="406.5" y="534.88">String phone</text><text fill="#000000" font-family="sans-serif" font-size="14" lengthAdjust="spacing" textLength="8" x="398.5" y="551.3683">-</text><text fill="#000000" font-family="sans-serif" font-size="14" font-weight="bold" lengthAdjust="spacing" textLength="88" x="406.5" y="551.3683">String email</text><line style="stroke:#181818;stroke-width:0.5;" x1="393.5" x2="732.5" y1="558.3214" y2="558.3214"/><text fill="#000000" font-family="sans-serif" font-size="14" lengthAdjust="spacing" textLength="140" x="398.5" y="575.8566">-addVehicle(vehicle)</text><text fill="#000000" font-family="sans-serif" font-size="14" lengthAdjust="spacing" textLength="167" x="398.5" y="592.3448">-validateVehicle(vehicle)</text><text fill="#000000" font-family="sans-serif" font-size="14" lengthAdjust="spacing" textLength="210" x="398.5" y="608.8331">+anyEmployeeHasEmail(email)</text><text fill="#000000" font-family="sans-serif" font-size="14" lengthAdjust="spacing" textLength="106" x="398.5" y="625.3214">+Organization(</text><text fill="#000000" font-family="sans-serif" font-size="14" font-weight="bold" lengthAdjust="spacing" textLength="165" x="504.5" y="625.3214">Inserir atributos acima</text><text fill="#000000" font-family="sans-serif" font-size="14" lengthAdjust="spacing" textLength="5" x="669.5" y="625.3214">)</text><text fill="#000000" font-family="sans-serif" font-size="14" lengthAdjust="spacing" textLength="325" x="398.5" y="641.8097">+createVehicle(brand, model, type, tare weight,</text><text fill="#000000" font-family="sans-serif" font-size="14" lengthAdjust="spacing" textLength="266" x="398.5" y="658.298">gross weight, current km,register date,</text><text fill="#000000" font-family="sans-serif" font-size="14" lengthAdjust="spacing" textLength="281" x="398.5" y="674.7863">acquisition date, maintenance frequency,</text><text fill="#000000" font-family="sans-serif" font-size="14" lengthAdjust="spacing" textLength="240" x="398.5" y="691.2745">plate number, passengers number,</text><text fill="#000000" font-family="sans-serif" font-size="14" lengthAdjust="spacing" textLength="288" x="398.5" y="707.7628">doors number, fuel type, trailer machines)</text><text fill="#000000" font-family="sans-serif" font-size="14" lengthAdjust="spacing" textLength="195" x="398.5" y="724.2511">-getEmployeeByEmail(email)</text></g><!--class OrganizationRepository--><g id="elem_OrganizationRepository"><rect codeLine="60" fill="#F1F1F1" height="64.4883" id="OrganizationRepository" rx="2.5" ry="2.5" style="stroke:#181818;stroke-width:0.5;" width="300" x="596" y="286.15"/><ellipse cx="660.25" cy="302.15" fill="#ADD1B2" rx="11" ry="11" style="stroke:#181818;stroke-width:1.0;"/><path d="M663.2231,307.7931 Q662.6421,308.0919 662.0029,308.2413 Q661.3638,308.3907 660.6582,308.3907 Q658.1514,308.3907 656.8315,306.7389 Q655.5117,305.087 655.5117,301.9659 Q655.5117,298.8365 656.8315,297.1847 Q658.1514,295.5328 660.6582,295.5328 Q661.3638,295.5328 662.0112,295.6822 Q662.6587,295.8316 663.2231,296.1305 L663.2231,298.8531 Q662.5923,298.2721 661.9988,298.0023 Q661.4053,297.7325 660.7744,297.7325 Q659.4297,297.7325 658.7449,298.7992 Q658.0601,299.8658 658.0601,301.9659 Q658.0601,304.0577 658.7449,305.1244 Q659.4297,306.191 660.7744,306.191 Q661.4053,306.191 661.9988,305.9212 Q662.5923,305.6515 663.2231,305.0704 Z " fill="#000000"/><text fill="#000000" font-family="sans-serif" font-size="14" lengthAdjust="spacing" textLength="163" x="680.75" y="307.441">OrganizationRepository</text><line style="stroke:#181818;stroke-width:0.5;" x1="597" x2="895" y1="318.15" y2="318.15"/><line style="stroke:#181818;stroke-width:0.5;" x1="597" x2="895" y1="326.15" y2="326.15"/><text fill="#000000" font-family="sans-serif" font-size="14" lengthAdjust="spacing" textLength="288" x="602" y="343.6852">+getOrganizationByEmployeeEmail(email)</text></g><!--class Repositories--><g id="elem_Repositories"><rect codeLine="64" fill="#F1F1F1" height="97.4648" id="Repositories" rx="2.5" ry="2.5" style="stroke:#181818;stroke-width:0.5;" width="218" x="713" y="62.22"/><ellipse cx="775.25" cy="78.22" fill="#ADD1B2" rx="11" ry="11" style="stroke:#181818;stroke-width:1.0;"/><path d="M778.2231,83.8631 Q777.6421,84.1619 777.0029,84.3113 Q776.3638,84.4607 775.6582,84.4607 Q773.1514,84.4607 771.8315,82.8089 Q770.5117,81.157 770.5117,78.0359 Q770.5117,74.9065 771.8315,73.2547 Q773.1514,71.6028 775.6582,71.6028 Q776.3638,71.6028 777.0112,71.7522 Q777.6587,71.9016 778.2231,72.2005 L778.2231,74.9231 Q777.5923,74.3421 776.9988,74.0723 Q776.4053,73.8025 775.7744,73.8025 Q774.4297,73.8025 773.7449,74.8692 Q773.0601,75.9358 773.0601,78.0359 Q773.0601,80.1277 773.7449,81.1944 Q774.4297,82.261 775.7744,82.261 Q776.4053,82.261 776.9988,81.9912 Q777.5923,81.7215 778.2231,81.1404 Z " fill="#000000"/><text fill="#000000" font-family="sans-serif" font-size="14" lengthAdjust="spacing" textLength="85" x="795.75" y="83.511">Repositories</text><line style="stroke:#181818;stroke-width:0.5;" x1="714" x2="930" y1="94.22" y2="94.22"/><line style="stroke:#181818;stroke-width:0.5;" x1="714" x2="930" y1="102.22" y2="102.22"/><text fill="#000000" font-family="sans-serif" font-size="14" lengthAdjust="spacing" textLength="103" x="719" y="119.7552">-Repositories()</text><text fill="#000000" font-family="sans-serif" font-size="14" lengthAdjust="spacing" textLength="197" x="719" y="136.2434">+getInstance() : Repositories</text><text fill="#000000" font-family="sans-serif" font-size="14" lengthAdjust="spacing" textLength="206" x="719" y="152.7317">+getOrganizationRepository()</text></g><!--class CreateVehicleController--><g id="elem_CreateVehicleController"><rect codeLine="70" fill="#F1F1F1" height="179.9063" id="CreateVehicleController" rx="2.5" ry="2.5" style="stroke:#181818;stroke-width:0.5;" width="420" x="182" y="21"/><ellipse cx="305.75" cy="37" fill="#ADD1B2" rx="11" ry="11" style="stroke:#181818;stroke-width:1.0;"/><path d="M308.7231,42.6431 Q308.1421,42.9419 307.5029,43.0913 Q306.8638,43.2407 306.1582,43.2407 Q303.6514,43.2407 302.3315,41.5889 Q301.0117,39.937 301.0117,36.8159 Q301.0117,33.6865 302.3315,32.0347 Q303.6514,30.3828 306.1582,30.3828 Q306.8638,30.3828 307.5112,30.5322 Q308.1587,30.6816 308.7231,30.9805 L308.7231,33.7031 Q308.0923,33.1221 307.4988,32.8523 Q306.9053,32.5825 306.2744,32.5825 Q304.9297,32.5825 304.2449,33.6492 Q303.5601,34.7158 303.5601,36.8159 Q303.5601,38.9077 304.2449,39.9744 Q304.9297,41.041 306.2744,41.041 Q306.9053,41.041 307.4988,40.7712 Q308.0923,40.5015 308.7231,39.9204 Z " fill="#000000"/><text fill="#000000" font-family="sans-serif" font-size="14" lengthAdjust="spacing" textLength="164" x="326.25" y="42.291">CreateVehicleController</text><line style="stroke:#181818;stroke-width:0.5;" x1="183" x2="601" y1="53" y2="53"/><line style="stroke:#181818;stroke-width:0.5;" x1="183" x2="601" y1="61" y2="61"/><text fill="#000000" font-family="sans-serif" font-size="14" lengthAdjust="spacing" textLength="346" x="188" y="78.5352">+CreateVehicleController(organizationRepository)</text><text fill="#000000" font-family="sans-serif" font-size="14" lengthAdjust="spacing" textLength="149" x="188" y="95.0234">+getTaskCategories()</text><text fill="#000000" font-family="sans-serif" font-size="14" lengthAdjust="spacing" textLength="107" x="188" y="111.5117">+createVehicle(</text><text fill="#000000" font-family="sans-serif" font-size="14" font-weight="bold" lengthAdjust="spacing" textLength="71" x="295" y="111.5117">userEmail</text><text fill="#000000" font-family="sans-serif" font-size="14" lengthAdjust="spacing" textLength="226" x="366" y="111.5117">, brand, model, type, tare weight,</text><text fill="#000000" font-family="sans-serif" font-size="14" lengthAdjust="spacing" textLength="266" x="188" y="128">gross weight, current km,register date,</text><text fill="#000000" font-family="sans-serif" font-size="14" lengthAdjust="spacing" textLength="281" x="188" y="144.4883">acquisition date, maintenance frequency,</text><text fill="#000000" font-family="sans-serif" font-size="14" lengthAdjust="spacing" textLength="240" x="188" y="160.9766">plate number, passengers number,</text><text fill="#000000" font-family="sans-serif" font-size="14" lengthAdjust="spacing" textLength="288" x="188" y="177.4648">doors number, fuel type, trailer machines)</text><text fill="#000000" font-family="sans-serif" font-size="14" lengthAdjust="spacing" textLength="194" x="188" y="193.9531">-getEmployeeFromSession()</text></g><g id="elem_GMN10"><path d="M1049,90.64 L1049,131.2611 L1217,131.2611 L1217,100.64 L1207,90.64 L1049,90.64 " fill="#FEFFDD" style="stroke:#181818;stroke-width:0.5;"/><path d="M1207,90.64 L1207,100.64 L1217,100.64 L1207,90.64 " fill="#FEFFDD" style="stroke:#181818;stroke-width:1.0;"/><text fill="#000000" font-family="sans-serif" font-size="13" lengthAdjust="spacing" textLength="147" x="1055" y="108.2084">- userEmail is obtained</text><text fill="#000000" font-family="sans-serif" font-size="13" lengthAdjust="spacing" textLength="137" x="1055" y="123.5189">from the user session</text></g><!--class CreateVehicleUI--><g id="elem_CreateVehicleUI"><rect codeLine="82" fill="#F1F1F1" height="48" id="CreateVehicleUI" rx="2.5" ry="2.5" style="stroke:#181818;stroke-width:0.5;" width="140" x="7" y="86.95"/><ellipse cx="22" cy="102.95" fill="#ADD1B2" rx="11" ry="11" style="stroke:#181818;stroke-width:1.0;"/><path d="M24.9731,108.5931 Q24.3921,108.8919 23.7529,109.0413 Q23.1138,109.1907 22.4082,109.1907 Q19.9014,109.1907 18.5815,107.5389 Q17.2617,105.887 17.2617,102.7659 Q17.2617,99.6365 18.5815,97.9847 Q19.9014,96.3328 22.4082,96.3328 Q23.1138,96.3328 23.7612,96.4822 Q24.4087,96.6316 24.9731,96.9305 L24.9731,99.6531 Q24.3423,99.0721 23.7488,98.8023 Q23.1553,98.5325 22.5244,98.5325 Q21.1797,98.5325 20.4949,99.5992 Q19.8101,100.6658 19.8101,102.7659 Q19.8101,104.8577 20.4949,105.9244 Q21.1797,106.991 22.5244,106.991 Q23.1553,106.991 23.7488,106.7212 Q24.3423,106.4515 24.9731,105.8704 Z " fill="#000000"/><text fill="#000000" font-family="sans-serif" font-size="14" lengthAdjust="spacing" textLength="108" x="36" y="108.241">CreateVehicleUI</text><line style="stroke:#181818;stroke-width:0.5;" x1="8" x2="146" y1="118.95" y2="118.95"/><line style="stroke:#181818;stroke-width:0.5;" x1="8" x2="146" y1="126.95" y2="126.95"/></g><!--link CreateVehicleController to GMN10--><g id="link_CreateVehicleController_GMN10"><path d="M602.2,42.12 C662.61,22.33 712.5,6 712.5,6 C712.5,6 1014.5,6 1014.5,6 C1014.5,6 1032,21 1032,21 C1032,21 1080.01,63.76 1109.83,90.31 " fill="none" id="CreateVehicleController-GMN10" style="stroke:#181818;stroke-width:1.0;stroke-dasharray:7.0,7.0;"/></g><!--link Repositories to Repositories--><g id="link_Repositories_Repositories"><path codeLine="85" d="M931.26,88.1 C951.64,90.92 966,98.53 966,110.95 C966,123.37 957.5838,130.1705 937.2038,132.9805 " fill="none" id="Repositories-to-Repositories" style="stroke:#181818;stroke-width:1.0;"/><polygon fill="#181818" points="931.26,133.8,940.722,136.5332,936.2131,133.1171,939.6293,128.6082,931.26,133.8" style="stroke:#181818;stroke-width:1.0;"/><text fill="#000000" font-family="sans-serif" font-size="13" lengthAdjust="spacing" textLength="53" x="972" y="116.0184">instance</text></g><!--link ApplicationSession to ApplicationSession--><g id="link_ApplicationSession_ApplicationSession"><path codeLine="86" d="M256.31,303.81 C276.2,304.89 291,309.75 291,318.39 C291,327.03 282.1912,331.5647 262.3012,332.6447 " fill="none" id="ApplicationSession-to-ApplicationSession" style="stroke:#181818;stroke-width:1.0;"/><polygon fill="#181818" points="256.31,332.97,265.5136,336.4761,261.3026,332.6989,265.0799,328.4879,256.31,332.97" style="stroke:#181818;stroke-width:1.0;"/><text fill="#000000" font-family="sans-serif" font-size="13" lengthAdjust="spacing" textLength="53" x="297" y="323.4584">instance</text></g><!--link CreateVehicleUI to CreateVehicleController--><g id="link_CreateVehicleUI_CreateVehicleController"><path codeLine="88" d="M147.33,110.95 C164.66,110.95 173.05,110.95 175.6,110.95 " fill="none" id="CreateVehicleUI-to-CreateVehicleController" style="stroke:#181818;stroke-width:1.0;stroke-dasharray:7.0,7.0;"/><polygon fill="#181818" points="181.6,110.95,172.6,106.95,176.6,110.95,172.6,114.95,181.6,110.95" style="stroke:#181818;stroke-width:1.0;"/></g><!--link CreateVehicleController to Repositories--><g id="link_CreateVehicleController_Repositories"><path codeLine="90" d="M602.28,110.95 C640.51,110.95 672.94,110.95 706.73,110.95 " fill="none" id="CreateVehicleController-to-Repositories" style="stroke:#181818;stroke-width:1.0;stroke-dasharray:7.0,7.0;"/><polygon fill="#181818" points="712.73,110.95,703.73,106.95,707.73,110.95,703.73,114.95,712.73,110.95" style="stroke:#181818;stroke-width:1.0;"/><text fill="#000000" font-family="sans-serif" font-size="13" lengthAdjust="spacing" textLength="75" x="620" y="104.5184">repositories</text></g><!--link CreateVehicleController to OrganizationRepository--><g id="link_CreateVehicleController_OrganizationRepository"><path codeLine="92" d="M539.88,201.31 C582.15,226.85 617,247.9 617,247.9 C617,247.9 647.8579,264.524 681.8779,282.854 " fill="none" id="CreateVehicleController-to-OrganizationRepository" style="stroke:#181818;stroke-width:1.0;stroke-dasharray:7.0,7.0;"/><polygon fill="#181818" points="687.16,285.7,681.1342,277.9096,682.7583,283.3283,677.3396,284.9524,687.16,285.7" style="stroke:#181818;stroke-width:1.0;"/><text fill="#000000" font-family="sans-serif" font-size="13" lengthAdjust="spacing" textLength="146" x="618" y="244.4684">organizationRepository</text></g><!--link Repositories to OrganizationRepository--><g id="link_Repositories_OrganizationRepository"><path codeLine="94" d="M804.18,160.12 C789.83,198.9 772.1617,246.6727 759.7617,280.1927 " fill="none" id="Repositories-to-OrganizationRepository" style="stroke:#181818;stroke-width:1.0;"/><polygon fill="#181818" points="757.68,285.82,764.5541,278.7668,759.4147,281.1306,757.051,275.9912,757.68,285.82" style="stroke:#181818;stroke-width:1.0;"/><text fill="#000000" font-family="sans-serif" font-size="13" lengthAdjust="spacing" textLength="8" x="751.192" y="275.5293">1</text></g><!--link OrganizationRepository to Organization--><g id="link_OrganizationRepository_Organization"><path codeLine="96" d="M723.93,351.13 C708.76,372.94 690.8555,398.684 668.6655,430.594 " fill="none" id="OrganizationRepository-to-Organization" style="stroke:#181818;stroke-width:1.0;"/><polygon fill="#181818" points="665.24,435.52,673.6623,430.4146,668.0946,431.415,667.0943,425.8473,665.24,435.52" style="stroke:#181818;stroke-width:1.0;"/><text fill="#000000" font-family="sans-serif" font-size="13" lengthAdjust="spacing" textLength="6" x="664.3571" y="425.0773">*</text></g><!--link ApplicationSession to UserSession--><g id="link_ApplicationSession_UserSession"><path codeLine="97" d="M185.18,359.36 C198.54,411.84 220.25,497.1054 232.46,545.0754 " fill="none" id="ApplicationSession-to-UserSession" style="stroke:#181818;stroke-width:1.0;"/><polygon fill="#181818" points="233.94,550.89,235.5964,541.1814,232.7067,546.0445,227.8436,543.1548,233.94,550.89" style="stroke:#181818;stroke-width:1.0;"/><text fill="#000000" font-family="sans-serif" font-size="13" lengthAdjust="spacing" textLength="75" x="198" y="402.4484">userSession</text><text fill="#000000" font-family="sans-serif" font-size="13" lengthAdjust="spacing" textLength="8" x="223.5657" y="540.5836">1</text></g><!--link CreateVehicleController to Organization--><g id="link_CreateVehicleController_Organization"><path codeLine="99" d="M424.47,201.3 C448.49,267.4 479.6907,353.2808 507.6007,430.0808 " fill="none" id="CreateVehicleController-to-Organization" style="stroke:#181818;stroke-width:1.0;stroke-dasharray:7.0,7.0;"/><polygon fill="#181818" points="509.65,435.72,510.3354,425.895,507.9422,431.0207,502.8165,428.6275,509.65,435.72" style="stroke:#181818;stroke-width:1.0;"/><text fill="#000000" font-family="sans-serif" font-size="13" lengthAdjust="spacing" textLength="79" x="482" y="323.4584">organization</text><text fill="#000000" font-family="sans-serif" font-size="13" lengthAdjust="spacing" textLength="8" x="498.6929" y="425.2876">1</text></g><!--link CreateVehicleController to ApplicationSession--><g id="link_CreateVehicleController_ApplicationSession"><path codeLine="100" d="M297.77,201.16 C269.63,227.8 244.5476,251.5455 221.5476,273.3155 " fill="none" id="CreateVehicleController-to-ApplicationSession" style="stroke:#181818;stroke-width:1.0;stroke-dasharray:7.0,7.0;"/><polygon fill="#181818" points="217.19,277.44,226.476,274.1583,220.8213,274.0029,220.9767,268.3482,217.19,277.44" style="stroke:#181818;stroke-width:1.0;"/></g><!--link CreateVehicleController to UserSession--><g id="link_CreateVehicleController_UserSession"><path codeLine="101" d="M379,201.1 C368.69,271.83 356,358.88 356,358.88 C356,358.88 292.2452,483.9746 260.8152,545.6246 " fill="none" id="CreateVehicleController-to-UserSession" style="stroke:#181818;stroke-width:1.0;stroke-dasharray:7.0,7.0;"/><polygon fill="#181818" points="258.09,550.97,265.7414,544.7687,260.361,546.5155,258.6141,541.1351,258.09,550.97" style="stroke:#181818;stroke-width:1.0;"/></g><!--link Organization to Vehicle--><g id="link_Organization_Vehicle"><path codeLine="102" d="M623.15,731.57 C633.28,756.33 641.6278,776.7269 652.0578,802.2169 " fill="none" id="Organization-to-Vehicle" style="stroke:#181818;stroke-width:1.0;"/><polygon fill="#181818" points="654.33,807.77,654.6237,797.9255,652.4365,803.1424,647.2196,800.9552,654.33,807.77" style="stroke:#181818;stroke-width:1.0;"/><text fill="#000000" font-family="sans-serif" font-size="13" lengthAdjust="spacing" textLength="48" x="642" y="774.7684">register</text><text fill="#000000" font-family="sans-serif" font-size="13" lengthAdjust="spacing" textLength="8" x="617.8698" y="751.6793">1</text><text fill="#000000" font-family="sans-serif" font-size="13" lengthAdjust="spacing" textLength="6" x="645.0955" y="797.3897">*</text></g><!--link Vehicle to Employee--><g id="link_Vehicle_Employee"><path codeLine="103" d="M596.17,1169.71 C574.68,1199.03 558.2869,1221.3906 543.7969,1241.1606 " fill="none" id="Vehicle-to-Employee" style="stroke:#181818;stroke-width:1.0;"/><polygon fill="#181818" points="540.25,1246,548.7966,1241.1056,543.2058,1241.9672,542.3441,1236.3763,540.25,1246" style="stroke:#181818;stroke-width:1.0;"/><text fill="#000000" font-family="sans-serif" font-size="13" lengthAdjust="spacing" textLength="60" x="575" y="1213.0484">createdBy</text></g><!--link Organization to Employee--><g id="link_Organization_Employee"><path codeLine="105" d="M524.88,731.55 C513.98,773.56 505,808.2 505,808.2 C505,808.2 505,1169.48 505,1169.48 C505,1169.48 509.2874,1208.2167 512.8374,1240.1667 " fill="none" id="Organization-to-Employee" style="stroke:#181818;stroke-width:1.0;"/><polygon fill="#181818" points="513.5,1246.13,516.4817,1236.7433,512.9478,1241.1606,508.5306,1237.6268,513.5,1246.13" style="stroke:#181818;stroke-width:1.0;"/><text fill="#000000" font-family="sans-serif" font-size="13" lengthAdjust="spacing" textLength="53" x="506" y="993.9084">employs</text><text fill="#000000" font-family="sans-serif" font-size="13" lengthAdjust="spacing" textLength="6" x="506.2203" y="1235.8354">*</text></g><!--SRC=[tLPDKzim4BtxL-nm8PZ0jDSSc24fJ3ETjZC5sWiNnTuuciYIaMIOqEb_xygM7DdO_01oYVpsG_kULX-dPizbnJGheLHIPJkjIWIhQqoEbefbUrRWdJq818sPPR8GiOFPiLozS5d0bWaJMmINQ0yLGgN4mNqafoD6fQrAegXCC6EkhTLyKrjSPqhUyLU4JqboAd1hmIhGlDXPoBahXokP94qCN5ULu1bpq1qQuon_4w3VEHXBS0O5shMaiSnmTkPDXArghL5Q7qIMVo7bWq4zp4K13huf6HUnxqrP2NL0XDRn0jAKGQO8nPAoCmreB1fWBJLbqlGO_1jtF1F7s3jo8aatcicy3vKgHz67d8uUMKkB1MgWwV0FEfq6Xa8hOqOjMQi2VYkzuGkpRiaBJcLhzn7ZB7kgkU5ExCWKSf4sD99Ew5kDJpNAxD2lkH8KzQCkDwW7iHNfWP96PjISApMm-8pR6iNzKOcbKWAPf7wcTKBzdMKxQZcJ-5NqWiyQXUUjglD6oNaZ7hmq6itXKJQITTzU9jYNyw0DvCJ5UKQYU2mI0hP12UVQy0VPy9X7d0FqA1kYdOTZ5yfh6L7kbbBKWpzrmIH_RVP0r8TU8SbAfAOReC_CjdA-DRtWXjYCn5Gx9KTWT7k2O8-pF0yoFxV_Pzxop0Ht0esQpu79GzXDNvbfTrgJEpZ4F6TfIfiQDTV7hKNjoKkMfi4_qnZDzY7Ml1MI3gEWrFBG4sgq9tvXfQXMfGyG7MUnnx9JVZnRbu7JKHOwB0RZW_LusCAYvpG-zx6w-5nTnMktKj9g9PmKWS24VQP6CqVLtJEpNr5eqQ-xtojfMeV3Fatdy35RvvPk_jxj9vKx-fjhLcsd5FPvEds06r0RInImlREsb1Ri3XiNCFuUHPc3op-wlWzhMbSgeDTc5rVzjbi0zusLlBtpdVS86iKamnalhoOf9bFTT_cc9XttztGS1Kxio0MCj-nG3I9uylba8akIJ6Hlmj9-sAXyFdtqzA7AwkWXz2wtOMK3Lk_6ZZpWtdEF7sUzALqDWMvuM2swbqmI8EVIFTeMVj_dou64NQR85PkXIVu3]--></g></svg>