<?xml version="1.0" encoding="us-ascii" standalone="no"?><svg xmlns="http://www.w3.org/2000/svg" xmlns:xlink="http://www.w3.org/1999/xlink" contentStyleType="text/css" height="1602px" preserveAspectRatio="none" style="width:2311px;height:1602px;background:#FFFFFF;" version="1.1" viewBox="0 0 2311 1602" width="2311px" zoomAndPan="magnify"><defs/><g><rect fill="#FFFFFF" height="1379.0156" style="stroke:#181818;stroke-width:1.0;" width="10" x="81.5" y="107.9766"/><rect fill="#FFFFFF" height="70.7988" style="stroke:#181818;stroke-width:1.0;" width="10" x="411.5" y="129.2871"/><rect fill="#FFFFFF" height="29.3105" style="stroke:#181818;stroke-width:1.0;" width="10" x="411.5" y="290.6387"/><rect fill="#FFFFFF" height="1137.7324" style="stroke:#181818;stroke-width:1.0;" width="10" x="411.5" y="349.2598"/><rect fill="#FFFFFF" height="1017.8691" style="stroke:#181818;stroke-width:1.0;" width="10" x="741.5" y="439.8125"/><rect fill="#FFFFFF" height="481.9688" style="stroke:#181818;stroke-width:1.0;" width="10" x="746.5" y="619.3652"/><rect fill="#FFFFFF" height="29.3105" style="stroke:#181818;stroke-width:1.0;" width="10" x="955.5" y="469.123"/><rect fill="#FFFFFF" height="29.3105" style="stroke:#181818;stroke-width:1.0;" width="10" x="1068.5" y="527.7441"/><rect fill="#FFFFFF" height="29.3105" style="stroke:#181818;stroke-width:1.0;" width="10" x="1068.5" y="829.5391"/><rect fill="#FFFFFF" height="29.3105" style="stroke:#181818;stroke-width:1.0;" width="10" x="1204" y="653.6758"/><rect fill="#FFFFFF" height="29.3105" style="stroke:#181818;stroke-width:1.0;" width="10" x="1362" y="712.2969"/><rect fill="#FFFFFF" height="29.3105" style="stroke:#181818;stroke-width:1.0;" width="10" x="1504" y="770.918"/><rect fill="#FFFFFF" height="119.2422" style="stroke:#181818;stroke-width:1.0;" width="10" x="1661.5" y="888.1602"/><rect fill="#FFFFFF" height="29.3105" style="stroke:#181818;stroke-width:1.0;" width="10" x="1894.5" y="941.7813"/><rect fill="#FFFFFF" height="29.3105" style="stroke:#181818;stroke-width:1.0;" width="10" x="1894.5" y="1036.7129"/><rect fill="#FFFFFF" height="272.1055" style="stroke:#181818;stroke-width:1.0;" width="10" x="1894.5" y="1223.8867"/><rect fill="#FFFFFF" height="144.2422" style="stroke:#181818;stroke-width:1.0;" width="10" x="1899.5" y="1351.75"/><rect fill="#FFFFFF" height="34.3105" style="stroke:#181818;stroke-width:1.0;" width="10" x="1904.5" y="1394.0605"/><rect fill="none" height="75.9316" style="stroke:#000000;stroke-width:1.5;" width="396.5" x="1567" y="903.1602"/><line style="stroke:#181818;stroke-width:0.5;stroke-dasharray:5.0,5.0;" x1="86" x2="86" y1="97.9766" y2="1504.9922"/><line style="stroke:#181818;stroke-width:0.5;stroke-dasharray:5.0,5.0;" x1="416.5" x2="416.5" y1="97.9766" y2="1504.9922"/><line style="stroke:#181818;stroke-width:0.5;stroke-dasharray:5.0,5.0;" x1="746.5" x2="746.5" y1="168.0313" y2="1504.9922"/><line style="stroke:#181818;stroke-width:0.5;stroke-dasharray:5.0,5.0;" x1="960" x2="960" y1="97.9766" y2="1504.9922"/><line style="stroke:#181818;stroke-width:0.5;stroke-dasharray:5.0,5.0;" x1="1073" x2="1073" y1="97.9766" y2="1504.9922"/><line style="stroke:#181818;stroke-width:0.5;stroke-dasharray:5.0,5.0;" x1="1209" x2="1209" y1="97.9766" y2="1504.9922"/><line style="stroke:#181818;stroke-width:0.5;stroke-dasharray:5.0,5.0;" x1="1367" x2="1367" y1="97.9766" y2="1504.9922"/><line style="stroke:#181818;stroke-width:0.5;stroke-dasharray:5.0,5.0;" x1="1509" x2="1509" y1="97.9766" y2="1504.9922"/><line style="stroke:#181818;stroke-width:0.5;stroke-dasharray:5.0,5.0;" x1="1666" x2="1666" y1="97.9766" y2="1504.9922"/><line style="stroke:#181818;stroke-width:0.5;stroke-dasharray:5.0,5.0;" x1="1899.5" x2="1899.5" y1="97.9766" y2="1504.9922"/><line style="stroke:#181818;stroke-width:0.5;stroke-dasharray:5.0,5.0;" x1="2271.5" x2="2271.5" y1="1287.1631" y2="1504.9922"/><text fill="#000000" font-family="sans-serif" font-size="14" lengthAdjust="spacing" textLength="157" x="5" y="78.5352">Vehicle and Equipment</text><text fill="#000000" font-family="sans-serif" font-size="14" lengthAdjust="spacing" textLength="97" x="35" y="95.0234">Fleet Manager</text><ellipse cx="86.5" cy="13.5" fill="#E3E3E3" rx="8" ry="8" style="stroke:#181818;stroke-width:0.5;"/><path d="M86.5,21.5 L86.5,48.5 M73.5,29.5 L99.5,29.5 M86.5,48.5 L73.5,63.5 M86.5,48.5 L99.5,63.5 " fill="none" style="stroke:#181818;stroke-width:0.5;"/><text fill="#000000" font-family="sans-serif" font-size="14" lengthAdjust="spacing" textLength="157" x="5" y="1517.5273">Vehicle and Equipment</text><text fill="#000000" font-family="sans-serif" font-size="14" lengthAdjust="spacing" textLength="97" x="35" y="1534.0156">Fleet Manager</text><ellipse cx="86.5" cy="1545.4688" fill="#E3E3E3" rx="8" ry="8" style="stroke:#181818;stroke-width:0.5;"/><path d="M86.5,1553.4688 L86.5,1580.4688 M73.5,1561.4688 L99.5,1561.4688 M86.5,1580.4688 L73.5,1595.4688 M86.5,1580.4688 L99.5,1595.4688 " fill="none" style="stroke:#181818;stroke-width:0.5;"/><rect fill="#E3E3E3" height="30.4883" rx="2.5" ry="2.5" style="stroke:#181818;stroke-width:0.5;" width="126" x="353.5" y="66.4883"/><text fill="#000000" font-family="sans-serif" font-size="14" lengthAdjust="spacing" textLength="112" x="360.5" y="87.0234">:CreateVehicleUI</text><rect fill="#E3E3E3" height="30.4883" rx="2.5" ry="2.5" style="stroke:#181818;stroke-width:0.5;" width="126" x="353.5" y="1503.9922"/><text fill="#000000" font-family="sans-serif" font-size="14" lengthAdjust="spacing" textLength="112" x="360.5" y="1524.5273">:CreateVehicleUI</text><rect fill="#E3E3E3" height="30.4883" rx="2.5" ry="2.5" style="stroke:#181818;stroke-width:0.5;" width="182" x="655.5" y="1503.9922"/><text fill="#000000" font-family="sans-serif" font-size="14" lengthAdjust="spacing" textLength="168" x="662.5" y="1524.5273">:CreateVehicleController</text><rect fill="#E3E3E3" height="30.4883" rx="2.5" ry="2.5" style="stroke:#181818;stroke-width:0.5;" width="103" x="909" y="66.4883"/><text fill="#000000" font-family="sans-serif" font-size="14" lengthAdjust="spacing" textLength="89" x="916" y="87.0234">:Repositories</text><rect fill="#E3E3E3" height="30.4883" rx="2.5" ry="2.5" style="stroke:#181818;stroke-width:0.5;" width="103" x="909" y="1503.9922"/><text fill="#000000" font-family="sans-serif" font-size="14" lengthAdjust="spacing" textLength="89" x="916" y="1524.5273">:Repositories</text><rect fill="#E3E3E3" height="46.9766" rx="2.5" ry="2.5" style="stroke:#181818;stroke-width:0.5;" width="103" x="1022" y="50"/><text fill="#000000" font-family="sans-serif" font-size="14" lengthAdjust="spacing" textLength="82" x="1032.5" y="70.5352">repositories</text><text fill="#000000" font-family="sans-serif" font-size="14" lengthAdjust="spacing" textLength="89" x="1029" y="87.0234">:Repositories</text><rect fill="#E3E3E3" height="46.9766" rx="2.5" ry="2.5" style="stroke:#181818;stroke-width:0.5;" width="103" x="1022" y="1503.9922"/><text fill="#000000" font-family="sans-serif" font-size="14" lengthAdjust="spacing" textLength="82" x="1032.5" y="1524.5273">repositories</text><text fill="#000000" font-family="sans-serif" font-size="14" lengthAdjust="spacing" textLength="89" x="1029" y="1541.0156">:Repositories</text><rect fill="#E3E3E3" height="30.4883" rx="2.5" ry="2.5" style="stroke:#181818;stroke-width:0.5;" width="148" x="1135" y="66.4883"/><text fill="#000000" font-family="sans-serif" font-size="14" lengthAdjust="spacing" textLength="134" x="1142" y="87.0234">:ApplicationSession</text><rect fill="#E3E3E3" height="30.4883" rx="2.5" ry="2.5" style="stroke:#181818;stroke-width:0.5;" width="148" x="1135" y="1503.9922"/><text fill="#000000" font-family="sans-serif" font-size="14" lengthAdjust="spacing" textLength="134" x="1142" y="1524.5273">:ApplicationSession</text><rect fill="#E3E3E3" height="46.9766" rx="2.5" ry="2.5" style="stroke:#181818;stroke-width:0.5;" width="148" x="1293" y="50"/><text fill="#000000" font-family="sans-serif" font-size="14" lengthAdjust="spacing" textLength="78" x="1328" y="70.5352">appSession</text><text fill="#000000" font-family="sans-serif" font-size="14" lengthAdjust="spacing" textLength="134" x="1300" y="87.0234">:ApplicationSession</text><rect fill="#E3E3E3" height="46.9766" rx="2.5" ry="2.5" style="stroke:#181818;stroke-width:0.5;" width="148" x="1293" y="1503.9922"/><text fill="#000000" font-family="sans-serif" font-size="14" lengthAdjust="spacing" textLength="78" x="1328" y="1524.5273">appSession</text><text fill="#000000" font-family="sans-serif" font-size="14" lengthAdjust="spacing" textLength="134" x="1300" y="1541.0156">:ApplicationSession</text><rect fill="#E3E3E3" height="46.9766" rx="2.5" ry="2.5" style="stroke:#181818;stroke-width:0.5;" width="116" x="1451" y="50"/><text fill="#000000" font-family="sans-serif" font-size="14" lengthAdjust="spacing" textLength="102" x="1458" y="70.5352">currentSession</text><text fill="#000000" font-family="sans-serif" font-size="14" lengthAdjust="spacing" textLength="87" x="1465.5" y="87.0234">:UserSession</text><rect fill="#E3E3E3" height="46.9766" rx="2.5" ry="2.5" style="stroke:#181818;stroke-width:0.5;" width="116" x="1451" y="1503.9922"/><text fill="#000000" font-family="sans-serif" font-size="14" lengthAdjust="spacing" textLength="102" x="1458" y="1524.5273">currentSession</text><text fill="#000000" font-family="sans-serif" font-size="14" lengthAdjust="spacing" textLength="87" x="1465.5" y="1541.0156">:UserSession</text><rect fill="#E3E3E3" height="46.9766" rx="2.5" ry="2.5" style="stroke:#181818;stroke-width:0.5;" width="179" x="1577" y="50"/><text fill="#000000" font-family="sans-serif" font-size="14" lengthAdjust="spacing" textLength="165" x="1584" y="70.5352">organizationRepository:</text><text fill="#000000" font-family="sans-serif" font-size="14" lengthAdjust="spacing" textLength="163" x="1585" y="87.0234">OrganizationRepository</text><rect fill="#E3E3E3" height="46.9766" rx="2.5" ry="2.5" style="stroke:#181818;stroke-width:0.5;" width="179" x="1577" y="1503.9922"/><text fill="#000000" font-family="sans-serif" font-size="14" lengthAdjust="spacing" textLength="165" x="1584" y="1524.5273">organizationRepository:</text><text fill="#000000" font-family="sans-serif" font-size="14" lengthAdjust="spacing" textLength="163" x="1585" y="1541.0156">OrganizationRepository</text><rect fill="#E3E3E3" height="46.9766" rx="2.5" ry="2.5" style="stroke:#181818;stroke-width:0.5;" width="108" x="1845.5" y="50"/><text fill="#000000" font-family="sans-serif" font-size="14" lengthAdjust="spacing" textLength="88" x="1855.5" y="70.5352">organization</text><text fill="#000000" font-family="sans-serif" font-size="14" lengthAdjust="spacing" textLength="94" x="1852.5" y="87.0234">:Organization</text><rect fill="#E3E3E3" height="46.9766" rx="2.5" ry="2.5" style="stroke:#181818;stroke-width:0.5;" width="108" x="1845.5" y="1503.9922"/><text fill="#000000" font-family="sans-serif" font-size="14" lengthAdjust="spacing" textLength="88" x="1855.5" y="1524.5273">organization</text><text fill="#000000" font-family="sans-serif" font-size="14" lengthAdjust="spacing" textLength="94" x="1852.5" y="1541.0156">:Organization</text><rect fill="#E3E3E3" height="46.9766" rx="2.5" ry="2.5" style="stroke:#181818;stroke-width:0.5;" width="67" x="2238.5" y="1503.9922"/><text fill="#000000" font-family="sans-serif" font-size="14" lengthAdjust="spacing" textLength="47" x="2248.5" y="1524.5273">vehicle</text><text fill="#000000" font-family="sans-serif" font-size="14" lengthAdjust="spacing" textLength="53" x="2245.5" y="1541.0156">:Vehicle</text><rect fill="#FFFFFF" height="1379.0156" style="stroke:#181818;stroke-width:1.0;" width="10" x="81.5" y="107.9766"/><rect fill="#FFFFFF" height="70.7988" style="stroke:#181818;stroke-width:1.0;" width="10" x="411.5" y="129.2871"/><rect fill="#FFFFFF" height="29.3105" style="stroke:#181818;stroke-width:1.0;" width="10" x="411.5" y="290.6387"/><rect fill="#FFFFFF" height="1137.7324" style="stroke:#181818;stroke-width:1.0;" width="10" x="411.5" y="349.2598"/><rect fill="#FFFFFF" height="1017.8691" style="stroke:#181818;stroke-width:1.0;" width="10" x="741.5" y="439.8125"/><rect fill="#FFFFFF" height="481.9688" style="stroke:#181818;stroke-width:1.0;" width="10" x="746.5" y="619.3652"/><rect fill="#FFFFFF" height="29.3105" style="stroke:#181818;stroke-width:1.0;" width="10" x="955.5" y="469.123"/><rect fill="#FFFFFF" height="29.3105" style="stroke:#181818;stroke-width:1.0;" width="10" x="1068.5" y="527.7441"/><rect fill="#FFFFFF" height="29.3105" style="stroke:#181818;stroke-width:1.0;" width="10" x="1068.5" y="829.5391"/><rect fill="#FFFFFF" height="29.3105" style="stroke:#181818;stroke-width:1.0;" width="10" x="1204" y="653.6758"/><rect fill="#FFFFFF" height="29.3105" style="stroke:#181818;stroke-width:1.0;" width="10" x="1362" y="712.2969"/><rect fill="#FFFFFF" height="29.3105" style="stroke:#181818;stroke-width:1.0;" width="10" x="1504" y="770.918"/><rect fill="#FFFFFF" height="119.2422" style="stroke:#181818;stroke-width:1.0;" width="10" x="1661.5" y="888.1602"/><rect fill="#FFFFFF" height="29.3105" style="stroke:#181818;stroke-width:1.0;" width="10" x="1894.5" y="941.7813"/><rect fill="#FFFFFF" height="29.3105" style="stroke:#181818;stroke-width:1.0;" width="10" x="1894.5" y="1036.7129"/><rect fill="#FFFFFF" height="272.1055" style="stroke:#181818;stroke-width:1.0;" width="10" x="1894.5" y="1223.8867"/><rect fill="#FFFFFF" height="144.2422" style="stroke:#181818;stroke-width:1.0;" width="10" x="1899.5" y="1351.75"/><rect fill="#FFFFFF" height="34.3105" style="stroke:#181818;stroke-width:1.0;" width="10" x="1904.5" y="1394.0605"/><polygon fill="#181818" points="399.5,125.2871,409.5,129.2871,399.5,133.2871,403.5,129.2871" style="stroke:#181818;stroke-width:1.0;"/><line style="stroke:#181818;stroke-width:1.0;" x1="91.5" x2="405.5" y1="129.2871" y2="129.2871"/><text fill="#000000" font-family="sans-serif" font-size="13" font-weight="bold" lengthAdjust="spacing" textLength="9" x="98.5" y="124.5449">1</text><text fill="#000000" font-family="sans-serif" font-size="13" lengthAdjust="spacing" textLength="176" x="111.5" y="124.5449">asks to create a new vehicle</text><polygon fill="#181818" points="643.5,154.5977,653.5,158.5977,643.5,162.5977,647.5,158.5977" style="stroke:#181818;stroke-width:1.0;"/><line style="stroke:#181818;stroke-width:1.0;" x1="421.5" x2="649.5" y1="158.5977" y2="158.5977"/><text fill="#000000" font-family="sans-serif" font-size="13" font-weight="bold" lengthAdjust="spacing" textLength="9" x="428.5" y="153.8555">2</text><text fill="#000000" font-family="sans-serif" font-size="13" lengthAdjust="spacing" textLength="38" x="441.5" y="153.8555">create</text><rect fill="#E3E3E3" height="30.4883" rx="2.5" ry="2.5" style="stroke:#181818;stroke-width:0.5;" width="182" x="655.5" y="137.2871"/><text fill="#000000" font-family="sans-serif" font-size="14" lengthAdjust="spacing" textLength="168" x="662.5" y="157.8223">:CreateVehicleController</text><polygon fill="#181818" points="102.5,196.0859,92.5,200.0859,102.5,204.0859,98.5,200.0859" style="stroke:#181818;stroke-width:1.0;"/><line style="stroke:#181818;stroke-width:1.0;stroke-dasharray:2.0,2.0;" x1="96.5" x2="415.5" y1="200.0859" y2="200.0859"/><text fill="#000000" font-family="sans-serif" font-size="13" font-weight="bold" lengthAdjust="spacing" textLength="9" x="108.5" y="195.3438">3</text><text fill="#000000" font-family="sans-serif" font-size="13" lengthAdjust="spacing" textLength="85" x="121.5" y="195.3438">requests data</text><polygon fill="#181818" points="399.5,286.6387,409.5,290.6387,399.5,294.6387,403.5,290.6387" style="stroke:#181818;stroke-width:1.0;"/><line style="stroke:#181818;stroke-width:1.0;" x1="91.5" x2="405.5" y1="290.6387" y2="290.6387"/><text fill="#000000" font-family="sans-serif" font-size="13" font-weight="bold" lengthAdjust="spacing" textLength="9" x="98.5" y="255.2754">4</text><text fill="#000000" font-family="sans-serif" font-size="13" lengthAdjust="spacing" textLength="261" x="111.5" y="224.6543">types requested data (brand, model, type,</text><text fill="#000000" font-family="sans-serif" font-size="13" lengthAdjust="spacing" textLength="240" x="111.5" y="239.9648">tare weight, gross weight, current km,</text><text fill="#000000" font-family="sans-serif" font-size="13" lengthAdjust="spacing" textLength="276" x="111.5" y="255.2754">register date, acquisition date, maintenance</text><text fill="#000000" font-family="sans-serif" font-size="13" lengthAdjust="spacing" textLength="288" x="111.5" y="270.5859">frequency, plate number, passengers number,</text><text fill="#000000" font-family="sans-serif" font-size="13" lengthAdjust="spacing" textLength="264" x="111.5" y="285.8965">doors number, fuel type, trailer machines)</text><polygon fill="#181818" points="102.5,315.9492,92.5,319.9492,102.5,323.9492,98.5,319.9492" style="stroke:#181818;stroke-width:1.0;"/><line style="stroke:#181818;stroke-width:1.0;stroke-dasharray:2.0,2.0;" x1="96.5" x2="415.5" y1="319.9492" y2="319.9492"/><text fill="#000000" font-family="sans-serif" font-size="13" font-weight="bold" lengthAdjust="spacing" textLength="9" x="108.5" y="315.207">5</text><text fill="#000000" font-family="sans-serif" font-size="13" lengthAdjust="spacing" textLength="268" x="121.5" y="315.207">shows all data and requested confirmation</text><polygon fill="#181818" points="399.5,345.2598,409.5,349.2598,399.5,353.2598,403.5,349.2598" style="stroke:#181818;stroke-width:1.0;"/><line style="stroke:#181818;stroke-width:1.0;" x1="91.5" x2="405.5" y1="349.2598" y2="349.2598"/><text fill="#000000" font-family="sans-serif" font-size="13" font-weight="bold" lengthAdjust="spacing" textLength="9" x="98.5" y="344.5176">6</text><text fill="#000000" font-family="sans-serif" font-size="13" lengthAdjust="spacing" textLength="87" x="111.5" y="344.5176">confirms data</text><polygon fill="#181818" points="729.5,435.8125,739.5,439.8125,729.5,443.8125,733.5,439.8125" style="stroke:#181818;stroke-width:1.0;"/><line style="stroke:#181818;stroke-width:1.0;" x1="421.5" x2="735.5" y1="439.8125" y2="439.8125"/><text fill="#000000" font-family="sans-serif" font-size="13" font-weight="bold" lengthAdjust="spacing" textLength="9" x="428.5" y="404.4492">7</text><text fill="#000000" font-family="sans-serif" font-size="13" lengthAdjust="spacing" textLength="209" x="441.5" y="373.8281">createVehicle(brand, model, type,</text><text fill="#000000" font-family="sans-serif" font-size="13" lengthAdjust="spacing" textLength="240" x="441.5" y="389.1387">tare weight, gross weight, current km,</text><text fill="#000000" font-family="sans-serif" font-size="13" lengthAdjust="spacing" textLength="276" x="441.5" y="404.4492">register date, acquisition date, maintenance</text><text fill="#000000" font-family="sans-serif" font-size="13" lengthAdjust="spacing" textLength="288" x="441.5" y="419.7598">frequency, plate number, passengers number,</text><text fill="#000000" font-family="sans-serif" font-size="13" lengthAdjust="spacing" textLength="264" x="441.5" y="435.0703">doors number, fuel type, trailer machines)</text><polygon fill="#181818" points="943.5,465.123,953.5,469.123,943.5,473.123,947.5,469.123" style="stroke:#181818;stroke-width:1.0;"/><line style="stroke:#181818;stroke-width:1.0;" x1="751.5" x2="949.5" y1="469.123" y2="469.123"/><text fill="#000000" font-family="sans-serif" font-size="13" font-weight="bold" lengthAdjust="spacing" textLength="9" x="758.5" y="464.3809">8</text><text fill="#000000" font-family="sans-serif" font-size="13" lengthAdjust="spacing" textLength="81" x="771.5" y="464.3809">getInstance()</text><polygon fill="#181818" points="762.5,494.4336,752.5,498.4336,762.5,502.4336,758.5,498.4336" style="stroke:#181818;stroke-width:1.0;"/><line style="stroke:#181818;stroke-width:1.0;stroke-dasharray:2.0,2.0;" x1="756.5" x2="959.5" y1="498.4336" y2="498.4336"/><text fill="#000000" font-family="sans-serif" font-size="13" font-weight="bold" lengthAdjust="spacing" textLength="9" x="768.5" y="493.6914">9</text><text fill="#000000" font-family="sans-serif" font-size="13" lengthAdjust="spacing" textLength="75" x="781.5" y="493.6914">repositories</text><polygon fill="#181818" points="1056.5,523.7441,1066.5,527.7441,1056.5,531.7441,1060.5,527.7441" style="stroke:#181818;stroke-width:1.0;"/><line style="stroke:#181818;stroke-width:1.0;" x1="751.5" x2="1062.5" y1="527.7441" y2="527.7441"/><text fill="#000000" font-family="sans-serif" font-size="13" font-weight="bold" lengthAdjust="spacing" textLength="18" x="758.5" y="523.002">10</text><text fill="#000000" font-family="sans-serif" font-size="13" lengthAdjust="spacing" textLength="140" x="780.5" y="523.002">getVehicleRepository()</text><polygon fill="#181818" points="762.5,553.0547,752.5,557.0547,762.5,561.0547,758.5,557.0547" style="stroke:#181818;stroke-width:1.0;"/><line style="stroke:#181818;stroke-width:1.0;" x1="756.5" x2="1072.5" y1="557.0547" y2="557.0547"/><text fill="#000000" font-family="sans-serif" font-size="13" font-weight="bold" lengthAdjust="spacing" textLength="18" x="768.5" y="552.3125">11</text><text fill="#000000" font-family="sans-serif" font-size="13" lengthAdjust="spacing" textLength="111" x="790.5" y="552.3125">vehicleRepository</text><line style="stroke:#181818;stroke-width:1.0;" x1="751.5" x2="798.5" y1="606.3652" y2="606.3652"/><line style="stroke:#181818;stroke-width:1.0;" x1="798.5" x2="798.5" y1="606.3652" y2="619.3652"/><line style="stroke:#181818;stroke-width:1.0;" x1="757.5" x2="798.5" y1="619.3652" y2="619.3652"/><polygon fill="#181818" points="767.5,615.3652,757.5,619.3652,767.5,623.3652,763.5,619.3652" style="stroke:#181818;stroke-width:1.0;"/><text fill="#000000" font-family="sans-serif" font-size="13" font-weight="bold" lengthAdjust="spacing" textLength="18" x="763.5" y="601.623">12</text><text fill="#000000" font-family="sans-serif" font-size="13" lengthAdjust="spacing" textLength="168" x="785.5" y="601.623">getEmployeeFromSession()</text><polygon fill="#181818" points="1192,649.6758,1202,653.6758,1192,657.6758,1196,653.6758" style="stroke:#181818;stroke-width:1.0;"/><line style="stroke:#181818;stroke-width:1.0;" x1="756.5" x2="1198" y1="653.6758" y2="653.6758"/><text fill="#000000" font-family="sans-serif" font-size="13" font-weight="bold" lengthAdjust="spacing" textLength="18" x="763.5" y="648.9336">13</text><text fill="#000000" font-family="sans-serif" font-size="13" lengthAdjust="spacing" textLength="81" x="785.5" y="648.9336">getInstance()</text><polygon fill="#181818" points="767.5,678.9863,757.5,682.9863,767.5,686.9863,763.5,682.9863" style="stroke:#181818;stroke-width:1.0;"/><line style="stroke:#181818;stroke-width:1.0;" x1="761.5" x2="1208" y1="682.9863" y2="682.9863"/><text fill="#000000" font-family="sans-serif" font-size="13" font-weight="bold" lengthAdjust="spacing" textLength="18" x="773.5" y="678.2441">14</text><text fill="#000000" font-family="sans-serif" font-size="13" lengthAdjust="spacing" textLength="71" x="795.5" y="678.2441">appSession</text><polygon fill="#181818" points="1350,708.2969,1360,712.2969,1350,716.2969,1354,712.2969" style="stroke:#181818;stroke-width:1.0;"/><line style="stroke:#181818;stroke-width:1.0;" x1="756.5" x2="1356" y1="712.2969" y2="712.2969"/><text fill="#000000" font-family="sans-serif" font-size="13" font-weight="bold" lengthAdjust="spacing" textLength="18" x="763.5" y="707.5547">15</text><text fill="#000000" font-family="sans-serif" font-size="13" lengthAdjust="spacing" textLength="123" x="785.5" y="707.5547">getCurrentSession()</text><polygon fill="#181818" points="767.5,737.6074,757.5,741.6074,767.5,745.6074,763.5,741.6074" style="stroke:#181818;stroke-width:1.0;"/><line style="stroke:#181818;stroke-width:1.0;stroke-dasharray:2.0,2.0;" x1="761.5" x2="1366" y1="741.6074" y2="741.6074"/><text fill="#000000" font-family="sans-serif" font-size="13" font-weight="bold" lengthAdjust="spacing" textLength="18" x="773.5" y="736.8652">16</text><text fill="#000000" font-family="sans-serif" font-size="13" lengthAdjust="spacing" textLength="93" x="795.5" y="736.8652">currentSession</text><polygon fill="#181818" points="1492,766.918,1502,770.918,1492,774.918,1496,770.918" style="stroke:#181818;stroke-width:1.0;"/><line style="stroke:#181818;stroke-width:1.0;" x1="756.5" x2="1498" y1="770.918" y2="770.918"/><text fill="#000000" font-family="sans-serif" font-size="13" font-weight="bold" lengthAdjust="spacing" textLength="18" x="763.5" y="766.1758">17</text><text fill="#000000" font-family="sans-serif" font-size="13" lengthAdjust="spacing" textLength="142" x="785.5" y="766.1758">email = getUserEmail()</text><polygon fill="#181818" points="767.5,796.2285,757.5,800.2285,767.5,804.2285,763.5,800.2285" style="stroke:#181818;stroke-width:1.0;"/><line style="stroke:#181818;stroke-width:1.0;stroke-dasharray:2.0,2.0;" x1="761.5" x2="1508" y1="800.2285" y2="800.2285"/><text fill="#000000" font-family="sans-serif" font-size="13" font-weight="bold" lengthAdjust="spacing" textLength="18" x="773.5" y="795.4863">18</text><text fill="#000000" font-family="sans-serif" font-size="13" lengthAdjust="spacing" textLength="34" x="795.5" y="795.4863">email</text><polygon fill="#181818" points="1056.5,825.5391,1066.5,829.5391,1056.5,833.5391,1060.5,829.5391" style="stroke:#181818;stroke-width:1.0;"/><line style="stroke:#181818;stroke-width:1.0;" x1="756.5" x2="1062.5" y1="829.5391" y2="829.5391"/><text fill="#000000" font-family="sans-serif" font-size="13" font-weight="bold" lengthAdjust="spacing" textLength="18" x="763.5" y="824.7969">19</text><text fill="#000000" font-family="sans-serif" font-size="13" lengthAdjust="spacing" textLength="210" x="785.5" y="824.7969">getOrganizationRepository(email)</text><polygon fill="#181818" points="767.5,854.8496,757.5,858.8496,767.5,862.8496,763.5,858.8496" style="stroke:#181818;stroke-width:1.0;"/><line style="stroke:#181818;stroke-width:1.0;stroke-dasharray:2.0,2.0;" x1="761.5" x2="1072.5" y1="858.8496" y2="858.8496"/><text fill="#000000" font-family="sans-serif" font-size="13" font-weight="bold" lengthAdjust="spacing" textLength="18" x="773.5" y="854.1074">20</text><text fill="#000000" font-family="sans-serif" font-size="13" lengthAdjust="spacing" textLength="146" x="795.5" y="854.1074">organizationRepository</text><polygon fill="#181818" points="1649.5,884.1602,1659.5,888.1602,1649.5,892.1602,1653.5,888.1602" style="stroke:#181818;stroke-width:1.0;"/><line style="stroke:#181818;stroke-width:1.0;" x1="756.5" x2="1655.5" y1="888.1602" y2="888.1602"/><text fill="#000000" font-family="sans-serif" font-size="13" font-weight="bold" lengthAdjust="spacing" textLength="18" x="763.5" y="883.418">21</text><text fill="#000000" font-family="sans-serif" font-size="13" lengthAdjust="spacing" textLength="251" x="785.5" y="883.418">getOrganizationByEmployeeEmail(email)</text><path d="M1567,903.1602 L1641,903.1602 L1641,910.4707 L1631,920.4707 L1567,920.4707 L1567,903.1602 " fill="#EEEEEE" style="stroke:#000000;stroke-width:1.5;"/><rect fill="none" height="75.9316" style="stroke:#000000;stroke-width:1.5;" width="396.5" x="1567" y="903.1602"/><text fill="#000000" font-family="sans-serif" font-size="13" font-weight="bold" lengthAdjust="spacing" textLength="29" x="1582" y="916.7285">loop</text><text fill="#000000" font-family="sans-serif" font-size="11" font-weight="bold" lengthAdjust="spacing" textLength="132" x="1656" y="915.7949">[[for each organization]</text><polygon fill="#181818" points="1882.5,937.7813,1892.5,941.7813,1882.5,945.7813,1886.5,941.7813" style="stroke:#181818;stroke-width:1.0;"/><line style="stroke:#181818;stroke-width:1.0;" x1="1671.5" x2="1888.5" y1="941.7813" y2="941.7813"/><text fill="#000000" font-family="sans-serif" font-size="13" font-weight="bold" lengthAdjust="spacing" textLength="18" x="1678.5" y="937.0391">22</text><text fill="#000000" font-family="sans-serif" font-size="13" lengthAdjust="spacing" textLength="182" x="1700.5" y="937.0391">anyEmployeeHasEmail(email)</text><polygon fill="#181818" points="1682.5,967.0918,1672.5,971.0918,1682.5,975.0918,1678.5,971.0918" style="stroke:#181818;stroke-width:1.0;"/><line style="stroke:#181818;stroke-width:1.0;stroke-dasharray:2.0,2.0;" x1="1676.5" x2="1898.5" y1="971.0918" y2="971.0918"/><text fill="#000000" font-family="sans-serif" font-size="13" font-weight="bold" lengthAdjust="spacing" textLength="18" x="1688.5" y="966.3496">23</text><text fill="#000000" font-family="sans-serif" font-size="13" lengthAdjust="spacing" textLength="62" x="1710.5" y="966.3496">true/false</text><polygon fill="#181818" points="767.5,1003.4023,757.5,1007.4023,767.5,1011.4023,763.5,1007.4023" style="stroke:#181818;stroke-width:1.0;"/><line style="stroke:#181818;stroke-width:1.0;stroke-dasharray:2.0,2.0;" x1="761.5" x2="1665.5" y1="1007.4023" y2="1007.4023"/><text fill="#000000" font-family="sans-serif" font-size="13" font-weight="bold" lengthAdjust="spacing" textLength="18" x="773.5" y="1002.6602">24</text><text fill="#000000" font-family="sans-serif" font-size="13" lengthAdjust="spacing" textLength="79" x="795.5" y="1002.6602">organization</text><polygon fill="#181818" points="1882.5,1032.7129,1892.5,1036.7129,1882.5,1040.7129,1886.5,1036.7129" style="stroke:#181818;stroke-width:1.0;"/><line style="stroke:#181818;stroke-width:1.0;" x1="756.5" x2="1888.5" y1="1036.7129" y2="1036.7129"/><text fill="#000000" font-family="sans-serif" font-size="13" font-weight="bold" lengthAdjust="spacing" textLength="18" x="763.5" y="1031.9707">25</text><text fill="#000000" font-family="sans-serif" font-size="13" lengthAdjust="spacing" textLength="170" x="785.5" y="1031.9707">getEmployeeByEmail(email)</text><polygon fill="#181818" points="767.5,1062.0234,757.5,1066.0234,767.5,1070.0234,763.5,1066.0234" style="stroke:#181818;stroke-width:1.0;"/><line style="stroke:#181818;stroke-width:1.0;stroke-dasharray:2.0,2.0;" x1="761.5" x2="1898.5" y1="1066.0234" y2="1066.0234"/><text fill="#000000" font-family="sans-serif" font-size="13" font-weight="bold" lengthAdjust="spacing" textLength="18" x="773.5" y="1061.2813">26</text><text fill="#000000" font-family="sans-serif" font-size="13" lengthAdjust="spacing" textLength="60" x="795.5" y="1061.2813">employee</text><line style="stroke:#181818;stroke-width:1.0;stroke-dasharray:2.0,2.0;" x1="756.5" x2="798.5" y1="1100.334" y2="1100.334"/><line style="stroke:#181818;stroke-width:1.0;stroke-dasharray:2.0,2.0;" x1="798.5" x2="798.5" y1="1100.334" y2="1113.334"/><line style="stroke:#181818;stroke-width:1.0;stroke-dasharray:2.0,2.0;" x1="751.5" x2="798.5" y1="1113.334" y2="1113.334"/><polygon fill="#181818" points="761.5,1109.334,751.5,1113.334,761.5,1117.334,757.5,1113.334" style="stroke:#181818;stroke-width:1.0;"/><text fill="#000000" font-family="sans-serif" font-size="13" font-weight="bold" lengthAdjust="spacing" textLength="18" x="763.5" y="1095.5918">27</text><text fill="#000000" font-family="sans-serif" font-size="13" lengthAdjust="spacing" textLength="60" x="785.5" y="1095.5918">employee</text><polygon fill="#181818" points="1882.5,1219.8867,1892.5,1223.8867,1882.5,1227.8867,1886.5,1223.8867" style="stroke:#181818;stroke-width:1.0;"/><line style="stroke:#181818;stroke-width:1.0;" x1="751.5" x2="1888.5" y1="1223.8867" y2="1223.8867"/><text fill="#000000" font-family="sans-serif" font-size="13" font-weight="bold" lengthAdjust="spacing" textLength="18" x="758.5" y="1188.5234">28</text><text fill="#000000" font-family="sans-serif" font-size="13" lengthAdjust="spacing" textLength="209" x="780.5" y="1157.9023">createVehicle(brand, model, type,</text><text fill="#000000" font-family="sans-serif" font-size="13" lengthAdjust="spacing" textLength="240" x="780.5" y="1173.2129">tare weight, gross weight, current km,</text><text fill="#000000" font-family="sans-serif" font-size="13" lengthAdjust="spacing" textLength="276" x="780.5" y="1188.5234">register date, acquisition date, maintenance</text><text fill="#000000" font-family="sans-serif" font-size="13" lengthAdjust="spacing" textLength="288" x="780.5" y="1203.834">frequency, plate number, passengers number,</text><text fill="#000000" font-family="sans-serif" font-size="13" lengthAdjust="spacing" textLength="264" x="780.5" y="1219.1445">doors number, fuel type, trailer machines)</text><polygon fill="#181818" points="2226.5,1310.4395,2236.5,1314.4395,2226.5,1318.4395,2230.5,1314.4395" style="stroke:#181818;stroke-width:1.0;"/><line style="stroke:#181818;stroke-width:1.0;" x1="1904.5" x2="2232.5" y1="1314.4395" y2="1314.4395"/><text fill="#000000" font-family="sans-serif" font-size="13" font-weight="bold" lengthAdjust="spacing" textLength="18" x="1911.5" y="1279.0762">29</text><text fill="#000000" font-family="sans-serif" font-size="13" lengthAdjust="spacing" textLength="164" x="1933.5" y="1248.4551">create(brand, model, type,</text><text fill="#000000" font-family="sans-serif" font-size="13" lengthAdjust="spacing" textLength="240" x="1933.5" y="1263.7656">tare weight, gross weight, current km,</text><text fill="#000000" font-family="sans-serif" font-size="13" lengthAdjust="spacing" textLength="276" x="1933.5" y="1279.0762">register date, acquisition date, maintenance</text><text fill="#000000" font-family="sans-serif" font-size="13" lengthAdjust="spacing" textLength="288" x="1933.5" y="1294.3867">frequency, plate number, passengers number,</text><text fill="#000000" font-family="sans-serif" font-size="13" lengthAdjust="spacing" textLength="264" x="1933.5" y="1309.6973">doors number, fuel type, trailer machines)</text><rect fill="#E3E3E3" height="46.9766" rx="2.5" ry="2.5" style="stroke:#181818;stroke-width:0.5;" width="67" x="2238.5" y="1264.4629"/><text fill="#000000" font-family="sans-serif" font-size="14" lengthAdjust="spacing" textLength="47" x="2248.5" y="1284.998">vehicle</text><text fill="#000000" font-family="sans-serif" font-size="14" lengthAdjust="spacing" textLength="53" x="2245.5" y="1301.4863">:Vehicle</text><line style="stroke:#181818;stroke-width:1.0;" x1="1904.5" x2="1951.5" y1="1338.75" y2="1338.75"/><line style="stroke:#181818;stroke-width:1.0;" x1="1951.5" x2="1951.5" y1="1338.75" y2="1351.75"/><line style="stroke:#181818;stroke-width:1.0;" x1="1910.5" x2="1951.5" y1="1351.75" y2="1351.75"/><polygon fill="#181818" points="1920.5,1347.75,1910.5,1351.75,1920.5,1355.75,1916.5,1351.75" style="stroke:#181818;stroke-width:1.0;"/><text fill="#000000" font-family="sans-serif" font-size="13" font-weight="bold" lengthAdjust="spacing" textLength="18" x="1916.5" y="1334.0078">30</text><text fill="#000000" font-family="sans-serif" font-size="13" lengthAdjust="spacing" textLength="124" x="1938.5" y="1334.0078">addVehicle (vehicle)</text><line style="stroke:#181818;stroke-width:1.0;" x1="1909.5" x2="1956.5" y1="1381.0605" y2="1381.0605"/><line style="stroke:#181818;stroke-width:1.0;" x1="1956.5" x2="1956.5" y1="1381.0605" y2="1394.0605"/><line style="stroke:#181818;stroke-width:1.0;" x1="1915.5" x2="1956.5" y1="1394.0605" y2="1394.0605"/><polygon fill="#181818" points="1925.5,1390.0605,1915.5,1394.0605,1925.5,1398.0605,1921.5,1394.0605" style="stroke:#181818;stroke-width:1.0;"/><text fill="#000000" font-family="sans-serif" font-size="13" font-weight="bold" lengthAdjust="spacing" textLength="18" x="1921.5" y="1376.3184">31</text><text fill="#000000" font-family="sans-serif" font-size="13" lengthAdjust="spacing" textLength="146" x="1943.5" y="1376.3184">validateVehicle(vehicle)</text><polygon fill="#181818" points="762.5,1424.3711,752.5,1428.3711,762.5,1432.3711,758.5,1428.3711" style="stroke:#181818;stroke-width:1.0;"/><line style="stroke:#181818;stroke-width:1.0;stroke-dasharray:2.0,2.0;" x1="756.5" x2="1898.5" y1="1428.3711" y2="1428.3711"/><text fill="#000000" font-family="sans-serif" font-size="13" font-weight="bold" lengthAdjust="spacing" textLength="18" x="768.5" y="1423.6289">32</text><text fill="#000000" font-family="sans-serif" font-size="13" lengthAdjust="spacing" textLength="44" x="790.5" y="1423.6289">vehicle</text><polygon fill="#181818" points="432.5,1453.6816,422.5,1457.6816,432.5,1461.6816,428.5,1457.6816" style="stroke:#181818;stroke-width:1.0;"/><line style="stroke:#181818;stroke-width:1.0;stroke-dasharray:2.0,2.0;" x1="426.5" x2="745.5" y1="1457.6816" y2="1457.6816"/><text fill="#000000" font-family="sans-serif" font-size="13" font-weight="bold" lengthAdjust="spacing" textLength="18" x="438.5" y="1452.9395">33</text><text fill="#000000" font-family="sans-serif" font-size="13" lengthAdjust="spacing" textLength="44" x="460.5" y="1452.9395">vehicle</text><polygon fill="#181818" points="97.5,1482.9922,87.5,1486.9922,97.5,1490.9922,93.5,1486.9922" style="stroke:#181818;stroke-width:1.0;"/><line style="stroke:#181818;stroke-width:1.0;stroke-dasharray:2.0,2.0;" x1="91.5" x2="415.5" y1="1486.9922" y2="1486.9922"/><text fill="#000000" font-family="sans-serif" font-size="13" font-weight="bold" lengthAdjust="spacing" textLength="18" x="103.5" y="1482.25">34</text><text fill="#000000" font-family="sans-serif" font-size="13" lengthAdjust="spacing" textLength="170" x="125.5" y="1482.25">displays operation success</text><!--SRC=[tLTBJnin4BxlhnXnAQ2WtYCLYKQ18e502VJII9NPdIGMk_PYEz1K_FYElTvNrhi9weszH8vdFd_pjlKp5pbJB8DC2XclbSmGZDfWfAkTdCNFR8LpiqqH5CQ6YLNQ5D1hbiWtBbQmPAd6A68R8yKcUq8LHL_MF45OIccUv9-8nKOgEFg9QnuJ6XC9J5ysFCzGc8MuJ14Dt391nwaZO1f-Njv6T8ZXCS-PC70qdYXa1Zt0uxMJUhmU4ff8OPHCKmyvUPZTx8ZFC9UQ4pEEsibKVspdt1fBvhHLL4DZ8Re0zpSN3pk7NEHvocDck1Hpr9f-dEJlY_lxjYJBSoz0o3rQ7QLuenJvi5PyrAYQ6lFfV7vnrrQIQiK4_-lGQvF72t4Nt70uuQr-NABIL2amPbTjXTSYKYJhOrO4Vt8pZMpAy5UAfik52Fn72pWxfyZ3c4IVDHW9iOiwC13u1XworgXmA5kgF-r768Haq-BqbD0Ab5h4RjE-FN1CwV-oGMqq9Cmm9v9W1xZ9pMnprAKQ9auFZfyKPVw8QYx1TEHaHh0GXYc4D-IhjHd1IacjgvKFBpndeuLGkE84fYmOARAOAeZ2GDxr_sIC2uE2YHW9TkbE5_5s17bgUHQbIIkcDGegDLt-jH29bFKIbXjCFJsZ6ASI8knupGNgawZNgIsFwRLyqy3Ij33TLdpjZLYA9LUPoun3lEdb6-xl9L14j8gdpwlFu_cMyQwdjPBQViu1v8X0DoE_hD1S2sqirUEJZcu57Mg57MdxXKuvys6mXLDto8vw8-e77LSQPhjiOOaFRwqzP99hpa4R762TEg-xg4FCkwZlx-zHYBP79zhJB4_b5l6IvgvlrZl43mondI87XzIDd93vTWEgaDLpQCXi1zPFhEGrQSsd8NOEByJEaQlOjGVU4CCWOCcl68jZGAhS5BvPgdPoJkroYAKVfq6YnLw3gmCVebYY3MQwysDu_1wx4_uZvIkguIl1_hplPHuctB7b-xQiXSBr-mpgkOO4JKobpE7NaYwUn7hTCZ4eRxymlZDeTcNl7A8Y_8FfGSvTxdJzwPKgJgSppdgTPwyLT4N_Mjos-p0Q8R87XaHG9D57ZAzxrw0FcoSV6AOgMsPNhSPeq-AWTEXpQUb9pnizRhJ7Mpq4zm0rGBhjkcyQE9C_yILbVvnSZCxTTV_qjFJ5vtD2mrGNSvOavJlusDyqJWADT6yLDp5VMSgJHYPLk1zlI3kLqtbFxQkQgc8UhsljeMhPVPCLJuWn95nJJBOQP8xATHBGcpYcmHzwCZIMzi7u3m00]--></g></svg>