<?xml version="1.0" encoding="us-ascii" standalone="no"?><svg xmlns="http://www.w3.org/2000/svg" xmlns:xlink="http://www.w3.org/1999/xlink" contentStyleType="text/css" height="1459px" preserveAspectRatio="none" style="width:1148px;height:1459px;background:#FFFFFF;" version="1.1" viewBox="0 0 1148 1459" width="1148px" zoomAndPan="magnify"><defs/><g><!--class CreateVehicleUI--><g id="elem_CreateVehicleUI"><rect codeLine="11" fill="#F1F1F1" height="394.2539" id="CreateVehicleUI" rx="2.5" ry="2.5" style="stroke:#181818;stroke-width:0.5;" width="333" x="641" y="7"/><ellipse cx="749.25" cy="23" fill="#ADD1B2" rx="11" ry="11" style="stroke:#181818;stroke-width:1.0;"/><path d="M752.2231,28.6431 Q751.6421,28.9419 751.0029,29.0913 Q750.3638,29.2407 749.6582,29.2407 Q747.1514,29.2407 745.8315,27.5889 Q744.5117,25.937 744.5117,22.8159 Q744.5117,19.6865 745.8315,18.0347 Q747.1514,16.3828 749.6582,16.3828 Q750.3638,16.3828 751.0112,16.5322 Q751.6587,16.6816 752.2231,16.9805 L752.2231,19.7031 Q751.5923,19.1221 750.9988,18.8523 Q750.4053,18.5825 749.7744,18.5825 Q748.4297,18.5825 747.7449,19.6492 Q747.0601,20.7158 747.0601,22.8159 Q747.0601,24.9077 747.7449,25.9744 Q748.4297,27.041 749.7744,27.041 Q750.4053,27.041 750.9988,26.7712 Q751.5923,26.5015 752.2231,25.9204 Z " fill="#000000"/><text fill="#000000" font-family="sans-serif" font-size="14" lengthAdjust="spacing" textLength="108" x="769.75" y="28.291">CreateVehicleUI</text><line style="stroke:#181818;stroke-width:0.5;" x1="642" x2="973" y1="39" y2="39"/><line style="stroke:#181818;stroke-width:0.5;" x1="642" x2="973" y1="47" y2="47"/><text fill="#000000" font-family="sans-serif" font-size="14" lengthAdjust="spacing" textLength="45" x="647" y="64.5352">+run()</text><text fill="#000000" font-family="sans-serif" font-size="14" lengthAdjust="spacing" textLength="317" x="647" y="81.0234">+requestData(brand, model, type, tare weight,</text><text fill="#000000" font-family="sans-serif" font-size="14" lengthAdjust="spacing" textLength="266" x="647" y="97.5117">gross weight, current km,register date,</text><text fill="#000000" font-family="sans-serif" font-size="14" lengthAdjust="spacing" textLength="281" x="647" y="114">acquisition date, maintenance frequency,</text><text fill="#000000" font-family="sans-serif" font-size="14" lengthAdjust="spacing" textLength="240" x="647" y="130.4883">plate number, passengers number,</text><text fill="#000000" font-family="sans-serif" font-size="14" lengthAdjust="spacing" textLength="288" x="647" y="146.9766">doors number, fuel type, trailer machines)</text><text fill="#000000" font-family="sans-serif" font-size="14" lengthAdjust="spacing" textLength="99" x="647" y="163.4648">+submitData()</text><text fill="#000000" font-family="sans-serif" font-size="14" lengthAdjust="spacing" textLength="113" x="647" y="179.9531">+requestBrand()</text><text fill="#000000" font-family="sans-serif" font-size="14" lengthAdjust="spacing" textLength="115" x="647" y="196.4414">+requestModel()</text><text fill="#000000" font-family="sans-serif" font-size="14" lengthAdjust="spacing" textLength="106" x="647" y="212.9297">+requestType()</text><text fill="#000000" font-family="sans-serif" font-size="14" lengthAdjust="spacing" textLength="151" x="647" y="229.418">+requestTareWeight()</text><text fill="#000000" font-family="sans-serif" font-size="14" lengthAdjust="spacing" textLength="159" x="647" y="245.9063">+requestGrossWeight()</text><text fill="#000000" font-family="sans-serif" font-size="14" lengthAdjust="spacing" textLength="147" x="647" y="262.3945">+requestCurrentKM()</text><text fill="#000000" font-family="sans-serif" font-size="14" lengthAdjust="spacing" textLength="160" x="647" y="278.8828">+requestRegisterDate()</text><text fill="#000000" font-family="sans-serif" font-size="14" lengthAdjust="spacing" textLength="181" x="647" y="295.3711">+requestAcquisitionDate()</text><text fill="#000000" font-family="sans-serif" font-size="14" lengthAdjust="spacing" textLength="231" x="647" y="311.8594">+requestMaintenanceFrequency()</text><text fill="#000000" font-family="sans-serif" font-size="14" lengthAdjust="spacing" textLength="161" x="647" y="328.3477">+requestPlateNumber()</text><text fill="#000000" font-family="sans-serif" font-size="14" lengthAdjust="spacing" textLength="205" x="647" y="344.8359">+requestPassengersNumber()</text><text fill="#000000" font-family="sans-serif" font-size="14" lengthAdjust="spacing" textLength="169" x="647" y="361.3242">+requestDoorsNumber()</text><text fill="#000000" font-family="sans-serif" font-size="14" lengthAdjust="spacing" textLength="135" x="647" y="377.8125">+requestFuelType()</text><text fill="#000000" font-family="sans-serif" font-size="14" lengthAdjust="spacing" textLength="182" x="647" y="394.3008">+requestTrailerMachines()</text></g><!--class CreateVehicleController--><g id="elem_CreateVehicleController"><rect codeLine="31" fill="#F1F1F1" height="196.3945" id="CreateVehicleController" rx="2.5" ry="2.5" style="stroke:#181818;stroke-width:0.5;" width="370" x="622.5" y="462.25"/><ellipse cx="721.25" cy="478.25" fill="#ADD1B2" rx="11" ry="11" style="stroke:#181818;stroke-width:1.0;"/><path d="M724.2231,483.8931 Q723.6421,484.1919 723.0029,484.3413 Q722.3638,484.4907 721.6582,484.4907 Q719.1514,484.4907 717.8315,482.8389 Q716.5117,481.187 716.5117,478.0659 Q716.5117,474.9365 717.8315,473.2847 Q719.1514,471.6328 721.6582,471.6328 Q722.3638,471.6328 723.0112,471.7822 Q723.6587,471.9316 724.2231,472.2305 L724.2231,474.9531 Q723.5923,474.3721 722.9988,474.1023 Q722.4053,473.8325 721.7744,473.8325 Q720.4297,473.8325 719.7449,474.8992 Q719.0601,475.9658 719.0601,478.0659 Q719.0601,480.1577 719.7449,481.2244 Q720.4297,482.291 721.7744,482.291 Q722.4053,482.291 722.9988,482.0212 Q723.5923,481.7515 724.2231,481.1704 Z " fill="#000000"/><text fill="#000000" font-family="sans-serif" font-size="14" lengthAdjust="spacing" textLength="164" x="741.75" y="483.541">CreateVehicleController</text><line style="stroke:#181818;stroke-width:0.5;" x1="623.5" x2="991.5" y1="494.25" y2="494.25"/><text fill="#000000" font-family="sans-serif" font-size="14" lengthAdjust="spacing" textLength="254" x="628.5" y="511.7852">-vehicleRepository:VehicleRepository</text><text fill="#000000" font-family="sans-serif" font-size="14" lengthAdjust="spacing" textLength="358" x="628.5" y="528.2734">-authenticationRepository:AuthenticationRepository</text><line style="stroke:#181818;stroke-width:0.5;" x1="623.5" x2="991.5" y1="535.2266" y2="535.2266"/><text fill="#000000" font-family="sans-serif" font-size="14" lengthAdjust="spacing" textLength="194" x="628.5" y="552.7617">-getEmployeeFromSession()</text><text fill="#000000" font-family="sans-serif" font-size="14" lengthAdjust="spacing" textLength="305" x="628.5" y="569.25">+CreateVehicleController(vehicleRepository)</text><text fill="#000000" font-family="sans-serif" font-size="14" lengthAdjust="spacing" textLength="325" x="628.5" y="585.7383">+createVehicle(brand, model, type, tare weight,</text><text fill="#000000" font-family="sans-serif" font-size="14" lengthAdjust="spacing" textLength="266" x="628.5" y="602.2266">gross weight, current km,register date,</text><text fill="#000000" font-family="sans-serif" font-size="14" lengthAdjust="spacing" textLength="281" x="628.5" y="618.7148">acquisition date, maintenance frequency,</text><text fill="#000000" font-family="sans-serif" font-size="14" lengthAdjust="spacing" textLength="240" x="628.5" y="635.2031">plate number, passengers number,</text><text fill="#000000" font-family="sans-serif" font-size="14" lengthAdjust="spacing" textLength="288" x="628.5" y="651.6914">doors number, fuel type, trailer machines)</text></g><!--class Employee--><g id="elem_Employee"><rect codeLine="40" fill="#F1F1F1" height="278.8359" id="Employee" rx="2.5" ry="2.5" style="stroke:#181818;stroke-width:0.5;" width="389" x="7" y="735.65"/><ellipse cx="164.25" cy="751.65" fill="#ADD1B2" rx="11" ry="11" style="stroke:#181818;stroke-width:1.0;"/><path d="M167.2231,757.2931 Q166.6421,757.5919 166.0029,757.7413 Q165.3638,757.8907 164.6582,757.8907 Q162.1514,757.8907 160.8315,756.2389 Q159.5117,754.587 159.5117,751.4659 Q159.5117,748.3365 160.8315,746.6847 Q162.1514,745.0328 164.6582,745.0328 Q165.3638,745.0328 166.0112,745.1822 Q166.6587,745.3316 167.2231,745.6305 L167.2231,748.3531 Q166.5923,747.7721 165.9988,747.5023 Q165.4053,747.2325 164.7744,747.2325 Q163.4297,747.2325 162.7449,748.2992 Q162.0601,749.3658 162.0601,751.4659 Q162.0601,753.5577 162.7449,754.6244 Q163.4297,755.691 164.7744,755.691 Q165.4053,755.691 165.9988,755.4212 Q166.5923,755.1515 167.2231,754.5704 Z " fill="#000000"/><text fill="#000000" font-family="sans-serif" font-size="14" lengthAdjust="spacing" textLength="66" x="184.75" y="756.941">Employee</text><line style="stroke:#181818;stroke-width:0.5;" x1="8" x2="395" y1="767.65" y2="767.65"/><text fill="#000000" font-family="sans-serif" font-size="14" lengthAdjust="spacing" textLength="91" x="13" y="785.1852">-name:String</text><text fill="#000000" font-family="sans-serif" font-size="14" lengthAdjust="spacing" textLength="106" x="13" y="801.6734">-birthdate:Date</text><text fill="#000000" font-family="sans-serif" font-size="14" lengthAdjust="spacing" textLength="144" x="13" y="818.1617">-admissionDate:Date</text><text fill="#000000" font-family="sans-serif" font-size="14" lengthAdjust="spacing" textLength="62" x="13" y="834.65">-address</text><text fill="#000000" font-family="sans-serif" font-size="14" lengthAdjust="spacing" textLength="153" x="13" y="851.1383">-mobileContact:String</text><text fill="#000000" font-family="sans-serif" font-size="14" lengthAdjust="spacing" textLength="143" x="13" y="867.6266">-emailContact:String</text><text fill="#000000" font-family="sans-serif" font-size="14" lengthAdjust="spacing" textLength="125" x="13" y="884.1148">-IDdocType:String</text><text fill="#000000" font-family="sans-serif" font-size="14" lengthAdjust="spacing" textLength="121" x="13" y="900.6031">-IDnumber:String</text><text fill="#000000" font-family="sans-serif" font-size="14" lengthAdjust="spacing" textLength="130" x="13" y="917.0914">-taxNumber:String</text><text fill="#000000" font-family="sans-serif" font-size="14" lengthAdjust="spacing" textLength="56" x="13" y="933.5797">-job:Job</text><line style="stroke:#181818;stroke-width:0.5;" x1="8" x2="395" y1="940.5328" y2="940.5328"/><text fill="#000000" font-family="sans-serif" font-size="14" lengthAdjust="spacing" textLength="326" x="13" y="958.068">+Employee (String nome,LocalDate dateOfBirth,</text><text fill="#000000" font-family="sans-serif" font-size="14" lengthAdjust="spacing" textLength="377" x="13" y="974.5563">LocalDate admissionDate, String morada, int telemovel,</text><text fill="#000000" font-family="sans-serif" font-size="14" lengthAdjust="spacing" textLength="354" x="13" y="991.0445">String email, String idDocType, int docTypeNumber,</text><text fill="#000000" font-family="sans-serif" font-size="14" lengthAdjust="spacing" textLength="290" x="13" y="1007.5328">int taxPayerIdNumber, String role, Job job)</text></g><!--class Repositories--><g id="elem_Repositories"><rect codeLine="55" fill="#F1F1F1" height="212.8828" id="Repositories" rx="2.5" ry="2.5" style="stroke:#181818;stroke-width:0.5;" width="370" x="431.5" y="768.62"/><ellipse cx="569.75" cy="784.62" fill="#ADD1B2" rx="11" ry="11" style="stroke:#181818;stroke-width:1.0;"/><path d="M572.7231,790.2631 Q572.1421,790.5619 571.5029,790.7113 Q570.8638,790.8607 570.1582,790.8607 Q567.6514,790.8607 566.3315,789.2089 Q565.0117,787.557 565.0117,784.4359 Q565.0117,781.3065 566.3315,779.6547 Q567.6514,778.0028 570.1582,778.0028 Q570.8638,778.0028 571.5112,778.1522 Q572.1587,778.3016 572.7231,778.6005 L572.7231,781.3231 Q572.0923,780.7421 571.4988,780.4723 Q570.9053,780.2025 570.2744,780.2025 Q568.9297,780.2025 568.2449,781.2692 Q567.5601,782.3358 567.5601,784.4359 Q567.5601,786.5277 568.2449,787.5944 Q568.9297,788.661 570.2744,788.661 Q570.9053,788.661 571.4988,788.3912 Q572.0923,788.1215 572.7231,787.5404 Z " fill="#000000"/><text fill="#000000" font-family="sans-serif" font-size="14" lengthAdjust="spacing" textLength="85" x="590.25" y="789.911">Repositories</text><line style="stroke:#181818;stroke-width:0.5;" x1="432.5" x2="800.5" y1="800.62" y2="800.62"/><text fill="#000000" font-family="sans-serif" font-size="14" lengthAdjust="spacing" textLength="154" x="437.5" y="818.1552">-instance:Repositories</text><text fill="#000000" font-family="sans-serif" font-size="14" lengthAdjust="spacing" textLength="213" x="437.5" y="834.6434">-skillRepository:SkillRepository</text><text fill="#000000" font-family="sans-serif" font-size="14" lengthAdjust="spacing" textLength="202" x="437.5" y="851.1317">-jobRepository:JobRepository</text><text fill="#000000" font-family="sans-serif" font-size="14" lengthAdjust="spacing" textLength="290" x="437.5" y="867.62">-employeeRepository:EmployeeRepository</text><text fill="#000000" font-family="sans-serif" font-size="14" lengthAdjust="spacing" textLength="358" x="437.5" y="884.1083">-authenticationRepository:AuthenticationRepository</text><line style="stroke:#181818;stroke-width:0.5;" x1="432.5" x2="800.5" y1="891.0614" y2="891.0614"/><text fill="#000000" font-family="sans-serif" font-size="14" lengthAdjust="spacing" textLength="100" x="437.5" y="908.5966">+getInstance()</text><text fill="#000000" font-family="sans-serif" font-size="14" lengthAdjust="spacing" textLength="144" x="437.5" y="925.0848">+getSkillRepository()</text><text fill="#000000" font-family="sans-serif" font-size="14" lengthAdjust="spacing" textLength="138" x="437.5" y="941.5731">+getJobRepository()</text><text fill="#000000" font-family="sans-serif" font-size="14" lengthAdjust="spacing" textLength="182" x="437.5" y="958.0614">+getEmployeeRepository()</text><text fill="#000000" font-family="sans-serif" font-size="14" lengthAdjust="spacing" textLength="217" x="437.5" y="974.5497">+getAuthenticationRepository()</text></g><!--class VehicleRepository--><g id="elem_VehicleRepository"><rect codeLine="70" fill="#F1F1F1" height="97.4648" id="VehicleRepository" rx="2.5" ry="2.5" style="stroke:#181818;stroke-width:0.5;" width="212" x="686.5" y="1223.39"/><ellipse cx="727.6" cy="1239.39" fill="#ADD1B2" rx="11" ry="11" style="stroke:#181818;stroke-width:1.0;"/><path d="M730.5731,1245.0331 Q729.9921,1245.3319 729.3529,1245.4813 Q728.7138,1245.6307 728.0082,1245.6307 Q725.5014,1245.6307 724.1815,1243.9789 Q722.8617,1242.327 722.8617,1239.2059 Q722.8617,1236.0765 724.1815,1234.4247 Q725.5014,1232.7728 728.0082,1232.7728 Q728.7138,1232.7728 729.3612,1232.9222 Q730.0087,1233.0716 730.5731,1233.3705 L730.5731,1236.0931 Q729.9423,1235.5121 729.3488,1235.2423 Q728.7553,1234.9725 728.1244,1234.9725 Q726.7797,1234.9725 726.0949,1236.0392 Q725.4101,1237.1058 725.4101,1239.2059 Q725.4101,1241.2977 726.0949,1242.3644 Q726.7797,1243.431 728.1244,1243.431 Q728.7553,1243.431 729.3488,1243.1612 Q729.9423,1242.8915 730.5731,1242.3104 Z " fill="#000000"/><text fill="#000000" font-family="sans-serif" font-size="14" lengthAdjust="spacing" textLength="122" x="747.4" y="1244.681">VehicleRepository</text><line style="stroke:#181818;stroke-width:0.5;" x1="687.5" x2="897.5" y1="1255.39" y2="1255.39"/><line style="stroke:#181818;stroke-width:0.5;" x1="687.5" x2="897.5" y1="1263.39" y2="1263.39"/><text fill="#000000" font-family="sans-serif" font-size="14" lengthAdjust="spacing" textLength="99" x="692.5" y="1280.9252">+getVehicles()</text><text fill="#000000" font-family="sans-serif" font-size="14" lengthAdjust="spacing" textLength="200" x="692.5" y="1297.4134">+validateVehicle(newVehicle)</text><text fill="#000000" font-family="sans-serif" font-size="14" lengthAdjust="spacing" textLength="173" x="692.5" y="1313.9017">+addVehicle(newVehicle)</text></g><!--class AuthenticationRepository--><g id="elem_AuthenticationRepository"><rect codeLine="76" fill="#F1F1F1" height="64.4883" id="AuthenticationRepository" rx="2.5" ry="2.5" style="stroke:#181818;stroke-width:0.5;" width="209" x="932" y="842.82"/><ellipse cx="948.35" cy="858.82" fill="#ADD1B2" rx="11" ry="11" style="stroke:#181818;stroke-width:1.0;"/><path d="M951.3231,864.4631 Q950.7421,864.7619 950.1029,864.9113 Q949.4638,865.0607 948.7582,865.0607 Q946.2514,865.0607 944.9315,863.4089 Q943.6117,861.757 943.6117,858.6359 Q943.6117,855.5065 944.9315,853.8547 Q946.2514,852.2028 948.7582,852.2028 Q949.4638,852.2028 950.1112,852.3522 Q950.7587,852.5016 951.3231,852.8005 L951.3231,855.5231 Q950.6923,854.9421 950.0988,854.6723 Q949.5053,854.4025 948.8744,854.4025 Q947.5297,854.4025 946.8449,855.4692 Q946.1601,856.5358 946.1601,858.6359 Q946.1601,860.7277 946.8449,861.7944 Q947.5297,862.861 948.8744,862.861 Q949.5053,862.861 950.0988,862.5912 Q950.6923,862.3215 951.3231,861.7404 Z " fill="#000000"/><text fill="#000000" font-family="sans-serif" font-size="14" lengthAdjust="spacing" textLength="174" x="962.65" y="864.111">AuthenticationRepository</text><line style="stroke:#181818;stroke-width:0.5;" x1="933" x2="1140" y1="874.82" y2="874.82"/><line style="stroke:#181818;stroke-width:0.5;" x1="933" x2="1140" y1="882.82" y2="882.82"/><text fill="#000000" font-family="sans-serif" font-size="14" lengthAdjust="spacing" textLength="197" x="938" y="900.3552">+getEmployeeFromSession()</text></g><!--class Vehicle--><g id="elem_Vehicle"><rect codeLine="80" fill="#F1F1F1" height="361.2773" id="Vehicle" rx="2.5" ry="2.5" style="stroke:#181818;stroke-width:0.5;" width="300" x="51.5" y="1091.48"/><ellipse cx="172.75" cy="1107.48" fill="#ADD1B2" rx="11" ry="11" style="stroke:#181818;stroke-width:1.0;"/><path d="M175.7231,1113.1231 Q175.1421,1113.4219 174.5029,1113.5713 Q173.8638,1113.7207 173.1582,1113.7207 Q170.6514,1113.7207 169.3315,1112.0689 Q168.0117,1110.417 168.0117,1107.2959 Q168.0117,1104.1665 169.3315,1102.5147 Q170.6514,1100.8628 173.1582,1100.8628 Q173.8638,1100.8628 174.5112,1101.0122 Q175.1587,1101.1616 175.7231,1101.4605 L175.7231,1104.1831 Q175.0923,1103.6021 174.4988,1103.3323 Q173.9053,1103.0625 173.2744,1103.0625 Q171.9297,1103.0625 171.2449,1104.1292 Q170.5601,1105.1958 170.5601,1107.2959 Q170.5601,1109.3877 171.2449,1110.4544 Q171.9297,1111.521 173.2744,1111.521 Q173.9053,1111.521 174.4988,1111.2512 Q175.0923,1110.9815 175.7231,1110.4004 Z " fill="#000000"/><text fill="#000000" font-family="sans-serif" font-size="14" lengthAdjust="spacing" textLength="49" x="193.25" y="1112.771">Vehicle</text><line style="stroke:#181818;stroke-width:0.5;" x1="52.5" x2="350.5" y1="1123.48" y2="1123.48"/><text fill="#000000" font-family="sans-serif" font-size="14" lengthAdjust="spacing" textLength="94" x="57.5" y="1141.0152">-String brand</text><text fill="#000000" font-family="sans-serif" font-size="14" lengthAdjust="spacing" textLength="96" x="57.5" y="1157.5034">-String model</text><text fill="#000000" font-family="sans-serif" font-size="14" lengthAdjust="spacing" textLength="82" x="57.5" y="1173.9917">-String type</text><text fill="#000000" font-family="sans-serif" font-size="14" lengthAdjust="spacing" textLength="135" x="57.5" y="1190.48">-Integer tareWeight</text><text fill="#000000" font-family="sans-serif" font-size="14" lengthAdjust="spacing" textLength="146" x="57.5" y="1206.9683">-Integer grossWeight</text><text fill="#000000" font-family="sans-serif" font-size="14" lengthAdjust="spacing" textLength="141" x="57.5" y="1223.4566">-Integer currenteKm</text><text fill="#000000" font-family="sans-serif" font-size="14" lengthAdjust="spacing" textLength="127" x="57.5" y="1239.9448">-Date registerDate</text><text fill="#000000" font-family="sans-serif" font-size="14" lengthAdjust="spacing" textLength="149" x="57.5" y="1256.4331">-Date acquisitionDate</text><text fill="#000000" font-family="sans-serif" font-size="14" lengthAdjust="spacing" textLength="220" x="57.5" y="1272.9214">-Integer maintenanceFrequency</text><text fill="#000000" font-family="sans-serif" font-size="14" lengthAdjust="spacing" textLength="142" x="57.5" y="1289.4097">-String plateNumber</text><text fill="#000000" font-family="sans-serif" font-size="14" lengthAdjust="spacing" textLength="194" x="57.5" y="1305.898">-Integer passengersNumber</text><text fill="#000000" font-family="sans-serif" font-size="14" lengthAdjust="spacing" textLength="156" x="57.5" y="1322.3863">-Integer doorsNumber</text><text fill="#000000" font-family="sans-serif" font-size="14" lengthAdjust="spacing" textLength="112" x="57.5" y="1338.8745">-String fuelType</text><text fill="#000000" font-family="sans-serif" font-size="14" lengthAdjust="spacing" textLength="172" x="57.5" y="1355.3628">-Boolean trailerMachines</text><line style="stroke:#181818;stroke-width:0.5;" x1="52.5" x2="350.5" y1="1362.3159" y2="1362.3159"/><text fill="#000000" font-family="sans-serif" font-size="14" lengthAdjust="spacing" textLength="283" x="57.5" y="1379.8511">+Vehicle(brand, model, type, tare weight,</text><text fill="#000000" font-family="sans-serif" font-size="14" lengthAdjust="spacing" textLength="266" x="57.5" y="1396.3394">gross weight, current km,register date,</text><text fill="#000000" font-family="sans-serif" font-size="14" lengthAdjust="spacing" textLength="281" x="57.5" y="1412.8277">acquisition date, maintenance frequency,</text><text fill="#000000" font-family="sans-serif" font-size="14" lengthAdjust="spacing" textLength="240" x="57.5" y="1429.3159">plate number, passengers number,</text><text fill="#000000" font-family="sans-serif" font-size="14" lengthAdjust="spacing" textLength="288" x="57.5" y="1445.8042">doors number, fuel type, trailer machines)</text></g><!--link CreateVehicleUI to CreateVehicleController--><g id="link_CreateVehicleUI_CreateVehicleController"><path codeLine="99" d="M807.5,401.72 C807.5,422.61 807.5,437.13 807.5,456.12 " fill="none" id="CreateVehicleUI-to-CreateVehicleController" style="stroke:#181818;stroke-width:1.0;stroke-dasharray:7.0,7.0;"/><polygon fill="#181818" points="807.5,462.12,811.5,453.12,807.5,457.12,803.5,453.12,807.5,462.12" style="stroke:#181818;stroke-width:1.0;"/><text fill="#000000" font-family="sans-serif" font-size="13" lengthAdjust="spacing" textLength="8" x="799.3563" y="421.6645">1</text><text fill="#000000" font-family="sans-serif" font-size="13" lengthAdjust="spacing" textLength="8" x="799.1938" y="451.5978">1</text></g><!--link CreateVehicleController to Repositories--><g id="link_CreateVehicleController_Repositories"><path codeLine="101" d="M747.85,659.08 C726.67,693.74 705.8682,727.79 684.2882,763.11 " fill="none" id="CreateVehicleController-to-Repositories" style="stroke:#181818;stroke-width:1.0;"/><polygon fill="#181818" points="681.16,768.23,689.2657,762.6355,683.7669,763.9634,682.439,758.4645,681.16,768.23" style="stroke:#181818;stroke-width:1.0;"/><text fill="#000000" font-family="sans-serif" font-size="13" lengthAdjust="spacing" textLength="73" x="730.5" y="702.2184">getInstance</text><text fill="#000000" font-family="sans-serif" font-size="13" lengthAdjust="spacing" textLength="8" x="735.3746" y="679.1217">1</text><text fill="#000000" font-family="sans-serif" font-size="13" lengthAdjust="spacing" textLength="8" x="677.4252" y="757.7704">1</text></g><!--link Repositories to VehicleRepository--><g id="link_Repositories_VehicleRepository"><path codeLine="103" d="M663.66,981.93 C698.59,1060.33 742.0983,1157.9893 768.6283,1217.5393 " fill="none" id="Repositories-to-VehicleRepository" style="stroke:#181818;stroke-width:1.0;stroke-dasharray:7.0,7.0;"/><polygon fill="#181818" points="771.07,1223.02,771.0613,1213.1711,769.0353,1218.4527,763.7537,1216.4267,771.07,1223.02" style="stroke:#181818;stroke-width:1.0;"/><text fill="#000000" font-family="sans-serif" font-size="13" lengthAdjust="spacing" textLength="38" x="695.5" y="1058.0484">create</text><text fill="#000000" font-family="sans-serif" font-size="13" lengthAdjust="spacing" textLength="8" x="658.5598" y="1002.1929">1</text><text fill="#000000" font-family="sans-serif" font-size="13" lengthAdjust="spacing" textLength="8" x="759.4939" y="1212.6505">1</text></g><!--link CreateVehicleController to Employee--><g id="link_CreateVehicleController_Employee"><path codeLine="105" d="M622.04,643.45 C519.85,688.63 413.5,735.65 413.5,735.65 C413.5,735.65 411.9743,736.6403 401.1743,743.6903 " fill="none" id="CreateVehicleController-to-Employee" style="stroke:#181818;stroke-width:1.0;"/><polygon fill="#181818" points="396.15,746.97,405.8729,745.3999,400.3369,744.2369,401.4999,738.7009,396.15,746.97" style="stroke:#181818;stroke-width:1.0;"/><text fill="#000000" font-family="sans-serif" font-size="13" lengthAdjust="spacing" textLength="83" x="520.5" y="702.2184">createVehicle</text></g><!--link CreateVehicleController to AuthenticationRepository--><g id="link_CreateVehicleController_AuthenticationRepository"><path codeLine="106" d="M879.02,659.08 C925.21,722.14 978.7739,795.2701 1009.9639,837.8401 " fill="none" id="CreateVehicleController-to-AuthenticationRepository" style="stroke:#181818;stroke-width:1.0;"/><polygon fill="#181818" points="1013.51,842.68,1011.4175,833.056,1010.5549,838.6467,1004.9642,837.7842,1013.51,842.68" style="stroke:#181818;stroke-width:1.0;"/><text fill="#000000" font-family="sans-serif" font-size="13" lengthAdjust="spacing" textLength="143" x="909.5" y="702.2184">getCurrentUserSession</text><text fill="#000000" font-family="sans-serif" font-size="13" lengthAdjust="spacing" textLength="8" x="875.7675" y="679.1217">1</text><text fill="#000000" font-family="sans-serif" font-size="13" lengthAdjust="spacing" textLength="8" x="999.9433" y="832.0543">1</text></g><!--link Employee to Vehicle--><g id="link_Employee_Vehicle"><path codeLine="108" d="M201.5,1014.79 C201.5,1039.47 201.5,1059.5 201.5,1085.12 " fill="none" id="Employee-to-Vehicle" style="stroke:#181818;stroke-width:1.0;"/><polygon fill="#181818" points="201.5,1091.12,205.5,1082.12,201.5,1086.12,197.5,1082.12,201.5,1091.12" style="stroke:#181818;stroke-width:1.0;"/><text fill="#000000" font-family="sans-serif" font-size="13" lengthAdjust="spacing" textLength="110" x="202.5" y="1058.0484">createNewVehicle</text><text fill="#000000" font-family="sans-serif" font-size="13" lengthAdjust="spacing" textLength="8" x="193.2938" y="1034.9575">1</text><text fill="#000000" font-family="sans-serif" font-size="13" lengthAdjust="spacing" textLength="6" x="195.3734" y="1080.7426">*</text></g><!--link CreateVehicleController to VehicleRepository--><g id="link_CreateVehicleController_VehicleRepository"><path codeLine="110" d="M814.22,658.99 C816.96,698.79 819.5,735.65 819.5,735.65 C819.5,735.65 819.5,1014.48 819.5,1014.48 C819.5,1014.48 805.9874,1142.9029 798.1774,1217.1829 " fill="none" id="CreateVehicleController-to-VehicleRepository" style="stroke:#181818;stroke-width:1.0;"/><polygon fill="#181818" points="797.55,1223.15,802.4692,1214.6176,798.0728,1218.1774,794.513,1213.7811,797.55,1223.15" style="stroke:#181818;stroke-width:1.0;"/><text fill="#000000" font-family="sans-serif" font-size="13" lengthAdjust="spacing" textLength="23" x="820.5" y="880.1284">add</text></g><!--SRC=[tLPDKzim4BtxLsXwWPR0jDSSEWC4Ee526LBeXOjYRnmLVRYI34sP_lUkBDcM5QVJNk4GelTsfTqdxMxsp2EJ5TLK4A6aojTQ2I1Mrv3rJ4NpHrh2mcuu40svfRBaiO5Pqq8zCrcI5UKcPZYJO3SLa4hnZLjaUoEaqbPbaLVEgJ77rcgsh2tCSoKNx1UGzrcsns5bYLL4it9jIS5SE4p9B6jyoAa6Qk4UrYpdS3SdBnd1lmDTo_stuIlygC7O6RLqVwcfB2QOUG5yGbme-4ara6Tmsq_8WoormctRTLvh3TAIHp7HK39ZGPC23tIMDFzHCyDSD04Jb4aBaieSoAevL-ORPrfnv8cinHBq1EKr1cG9shJGWooKwfTaLGDlmzEKSJnLq7oDyfcGbQcNWlcaXdcUk1GJxChbcs1VSVSKGYM-DOadn2UdoIXpwlMvl4hmso0M1fYUSjpBDi9UzHAUjmec9ZTEpEj6gPJfX1sbPqxZKUOSzHuJn6j_5QH7zlVekpjLqch5tJNvztT8dZnp2vN2N9NUJEzJ95ZIsgvHGfPJ9qdaSBo3o89Z2VPCL5nj0ALIOW76e5sRmgu8zxSYQntosE5rb4ftNQrGuNea5J1TOBkHfGUMJDkrYspgtgJ7Q25O8-ainGkDMlk5K4lcvQMv7Mm9c28V8-QpGkNkjIMepsW0MlhpUXlzhfRJ2xNqx-2WJOtiUniYiQDFFgkSSXTpe_UNrObB4CNhyK5w4nASXTAqe1E2jqCiS13g2U__GGQwIQepPiNCP-BjGrhNxKKrUz2VDtG3Ubu4kFN5ruXkc0R1TAARwjub0zCM4vF6kfSoZSd0uH3XFAgQnN0ThF2CoEOYNWKB2396PcTRK7W0_r-neSImPESXbwvE4KjYZgb1g36n7LpCxeeaRc5R3Ucbzm-SwVPyefmLKNkGy1o-jXPO5cDaTzoka5wsSngsipJWhiU6bzHqgY7KTAqXv5f4GEROUR2bDEtCJxM4AFjvbp2XoS6b24HJIZgQTZ5EXwCksKkCZBfXp5K_wHBVAfbq2LtqaswuuoeCke2UAAn2AjlEsGwwzhc-jbcG_bXyy-4DEJhwsFpVCIuJfsZIEwV3G-ySzoKoZSiyomPSVE9M_Q6ddy6x3tK7TWr_EXpP_nJfhYhqKOUVStS6TAY_BEkEwxPvryNUXN3TLVpVOz_AUUhwHlO7]--></g></svg>