<?xml version="1.0" encoding="us-ascii" standalone="no"?><svg xmlns="http://www.w3.org/2000/svg" xmlns:xlink="http://www.w3.org/1999/xlink" contentStyleType="text/css" height="1423px" preserveAspectRatio="none" style="width:2055px;height:1423px;background:#FFFFFF;" version="1.1" viewBox="0 0 2055 1423" width="2055px" zoomAndPan="magnify"><defs/><g><rect fill="#FFFFFF" height="1200.3262" style="stroke:#181818;stroke-width:1.0;" width="10" x="81.5" y="107.9766"/><rect fill="#FFFFFF" height="132.041" style="stroke:#181818;stroke-width:1.0;" width="10" x="417.5" y="245.8398"/><rect fill="#FFFFFF" height="132.8633" style="stroke:#181818;stroke-width:1.0;" width="10" x="417.5" y="407.1914"/><rect fill="#FFFFFF" height="738.9375" style="stroke:#181818;stroke-width:1.0;" width="10" x="417.5" y="569.3652"/><rect fill="#FFFFFF" height="619.0742" style="stroke:#181818;stroke-width:1.0;" width="10" x="747.5" y="659.918"/><rect fill="#FFFFFF" height="29.3105" style="stroke:#181818;stroke-width:1.0;" width="10" x="900" y="689.2285"/><rect fill="#FFFFFF" height="95.2422" style="stroke:#181818;stroke-width:1.0;" width="10" x="1015" y="747.8496"/><rect fill="#FFFFFF" height="137.5527" style="stroke:#181818;stroke-width:1.0;" width="10" x="1015" y="1112.1289"/><rect fill="#FFFFFF" height="149.1738" style="stroke:#181818;stroke-width:1.0;" width="10" x="1583.5" y="933.6445"/><rect fill="#FFFFFF" height="29.3105" style="stroke:#181818;stroke-width:1.0;" width="10" x="2010.5" y="1024.1973"/><line style="stroke:#181818;stroke-width:0.5;stroke-dasharray:5.0,5.0;" x1="86" x2="86" y1="97.9766" y2="1326.3027"/><line style="stroke:#181818;stroke-width:0.5;stroke-dasharray:5.0,5.0;" x1="422.5" x2="422.5" y1="97.9766" y2="1326.3027"/><line style="stroke:#181818;stroke-width:0.5;stroke-dasharray:5.0,5.0;" x1="752.5" x2="752.5" y1="284.584" y2="1326.3027"/><line style="stroke:#181818;stroke-width:0.5;stroke-dasharray:5.0,5.0;" x1="904.5" x2="904.5" y1="97.9766" y2="1326.3027"/><line style="stroke:#181818;stroke-width:0.5;stroke-dasharray:5.0,5.0;" x1="1019.5" x2="1019.5" y1="97.9766" y2="1326.3027"/><line style="stroke:#181818;stroke-width:0.5;stroke-dasharray:5.0,5.0;" x1="1179.5" x2="1179.5" y1="97.9766" y2="1326.3027"/><line style="stroke:#181818;stroke-width:0.5;stroke-dasharray:5.0,5.0;" x1="1335.5" x2="1335.5" y1="97.9766" y2="1326.3027"/><line style="stroke:#181818;stroke-width:0.5;stroke-dasharray:5.0,5.0;" x1="1466.5" x2="1466.5" y1="97.9766" y2="1326.3027"/><line style="stroke:#181818;stroke-width:0.5;stroke-dasharray:5.0,5.0;" x1="1588.5" x2="1588.5" y1="97.9766" y2="1326.3027"/><line style="stroke:#181818;stroke-width:0.5;stroke-dasharray:5.0,5.0;" x1="2015" x2="2015" y1="97.9766" y2="1326.3027"/><text fill="#000000" font-family="sans-serif" font-size="14" lengthAdjust="spacing" textLength="157" x="5" y="78.5352">Vehicle and Equipment</text><text fill="#000000" font-family="sans-serif" font-size="14" lengthAdjust="spacing" textLength="97" x="35" y="95.0234">Fleet Manager</text><ellipse cx="86.5" cy="13.5" fill="#E3E3E3" rx="8" ry="8" style="stroke:#181818;stroke-width:0.5;"/><path d="M86.5,21.5 L86.5,48.5 M73.5,29.5 L99.5,29.5 M86.5,48.5 L73.5,63.5 M86.5,48.5 L99.5,63.5 " fill="none" style="stroke:#181818;stroke-width:0.5;"/><text fill="#000000" font-family="sans-serif" font-size="14" lengthAdjust="spacing" textLength="157" x="5" y="1338.8379">Vehicle and Equipment</text><text fill="#000000" font-family="sans-serif" font-size="14" lengthAdjust="spacing" textLength="97" x="35" y="1355.3262">Fleet Manager</text><ellipse cx="86.5" cy="1366.7793" fill="#E3E3E3" rx="8" ry="8" style="stroke:#181818;stroke-width:0.5;"/><path d="M86.5,1374.7793 L86.5,1401.7793 M73.5,1382.7793 L99.5,1382.7793 M86.5,1401.7793 L73.5,1416.7793 M86.5,1401.7793 L99.5,1416.7793 " fill="none" style="stroke:#181818;stroke-width:0.5;"/><rect fill="#E3E3E3" height="30.4883" rx="2.5" ry="2.5" style="stroke:#181818;stroke-width:0.5;" width="126" x="359.5" y="66.4883"/><text fill="#000000" font-family="sans-serif" font-size="14" lengthAdjust="spacing" textLength="112" x="366.5" y="87.0234">:CreateVehicleUI</text><rect fill="#E3E3E3" height="30.4883" rx="2.5" ry="2.5" style="stroke:#181818;stroke-width:0.5;" width="126" x="359.5" y="1325.3027"/><text fill="#000000" font-family="sans-serif" font-size="14" lengthAdjust="spacing" textLength="112" x="366.5" y="1345.8379">:CreateVehicleUI</text><rect fill="#E3E3E3" height="30.4883" rx="2.5" ry="2.5" style="stroke:#181818;stroke-width:0.5;" width="182" x="661.5" y="1325.3027"/><text fill="#000000" font-family="sans-serif" font-size="14" lengthAdjust="spacing" textLength="168" x="668.5" y="1345.8379">:CreateVehicleController</text><rect fill="#E3E3E3" height="30.4883" rx="2.5" ry="2.5" style="stroke:#181818;stroke-width:0.5;" width="103" x="853.5" y="66.4883"/><text fill="#000000" font-family="sans-serif" font-size="14" lengthAdjust="spacing" textLength="89" x="860.5" y="87.0234">:Repositories</text><rect fill="#E3E3E3" height="30.4883" rx="2.5" ry="2.5" style="stroke:#181818;stroke-width:0.5;" width="103" x="853.5" y="1325.3027"/><text fill="#000000" font-family="sans-serif" font-size="14" lengthAdjust="spacing" textLength="89" x="860.5" y="1345.8379">:Repositories</text><rect fill="#E3E3E3" height="46.9766" rx="2.5" ry="2.5" style="stroke:#181818;stroke-width:0.5;" width="107" x="966.5" y="50"/><text fill="#000000" font-family="sans-serif" font-size="14" lengthAdjust="spacing" textLength="82" x="979" y="70.5352">repositories</text><text fill="#000000" font-family="sans-serif" font-size="14" lengthAdjust="spacing" textLength="93" x="973.5" y="87.0234">: Repositories</text><rect fill="#E3E3E3" height="46.9766" rx="2.5" ry="2.5" style="stroke:#181818;stroke-width:0.5;" width="107" x="966.5" y="1325.3027"/><text fill="#000000" font-family="sans-serif" font-size="14" lengthAdjust="spacing" textLength="82" x="979" y="1345.8379">repositories</text><text fill="#000000" font-family="sans-serif" font-size="14" lengthAdjust="spacing" textLength="93" x="973.5" y="1362.3262">: Repositories</text><rect fill="#E3E3E3" height="46.9766" rx="2.5" ry="2.5" style="stroke:#181818;stroke-width:0.5;" width="192" x="1083.5" y="50"/><text fill="#000000" font-family="sans-serif" font-size="14" lengthAdjust="spacing" textLength="172" x="1093.5" y="70.5352">authenticationRepository</text><text fill="#000000" font-family="sans-serif" font-size="14" lengthAdjust="spacing" textLength="178" x="1090.5" y="87.0234">:AuthenticationRepository</text><rect fill="#E3E3E3" height="46.9766" rx="2.5" ry="2.5" style="stroke:#181818;stroke-width:0.5;" width="192" x="1083.5" y="1325.3027"/><text fill="#000000" font-family="sans-serif" font-size="14" lengthAdjust="spacing" textLength="172" x="1093.5" y="1345.8379">authenticationRepository</text><text fill="#000000" font-family="sans-serif" font-size="14" lengthAdjust="spacing" textLength="178" x="1090.5" y="1362.3262">:AuthenticationRepository</text><rect fill="#E3E3E3" height="46.9766" rx="2.5" ry="2.5" style="stroke:#181818;stroke-width:0.5;" width="101" x="1285.5" y="50"/><text fill="#000000" font-family="sans-serif" font-size="14" lengthAdjust="spacing" textLength="82" x="1295" y="70.5352">userSession</text><text fill="#000000" font-family="sans-serif" font-size="14" lengthAdjust="spacing" textLength="87" x="1292.5" y="87.0234">:UserSession</text><rect fill="#E3E3E3" height="46.9766" rx="2.5" ry="2.5" style="stroke:#181818;stroke-width:0.5;" width="101" x="1285.5" y="1325.3027"/><text fill="#000000" font-family="sans-serif" font-size="14" lengthAdjust="spacing" textLength="82" x="1295" y="1345.8379">userSession</text><text fill="#000000" font-family="sans-serif" font-size="14" lengthAdjust="spacing" textLength="87" x="1292.5" y="1362.3262">:UserSession</text><rect fill="#E3E3E3" height="46.9766" rx="2.5" ry="2.5" style="stroke:#181818;stroke-width:0.5;" width="140" x="1396.5" y="50"/><text fill="#000000" font-family="sans-serif" font-size="14" lengthAdjust="spacing" textLength="120" x="1406.5" y="70.5352">vehicleRepository</text><text fill="#000000" font-family="sans-serif" font-size="14" lengthAdjust="spacing" textLength="126" x="1403.5" y="87.0234">:VehicleRepository</text><rect fill="#E3E3E3" height="46.9766" rx="2.5" ry="2.5" style="stroke:#181818;stroke-width:0.5;" width="140" x="1396.5" y="1325.3027"/><text fill="#000000" font-family="sans-serif" font-size="14" lengthAdjust="spacing" textLength="120" x="1406.5" y="1345.8379">vehicleRepository</text><text fill="#000000" font-family="sans-serif" font-size="14" lengthAdjust="spacing" textLength="126" x="1403.5" y="1362.3262">:VehicleRepository</text><rect fill="#E3E3E3" height="46.9766" rx="2.5" ry="2.5" style="stroke:#181818;stroke-width:0.5;" width="84" x="1546.5" y="50"/><text fill="#000000" font-family="sans-serif" font-size="14" lengthAdjust="spacing" textLength="66" x="1555.5" y="70.5352">employee</text><text fill="#000000" font-family="sans-serif" font-size="14" lengthAdjust="spacing" textLength="70" x="1553.5" y="87.0234">:Employee</text><rect fill="#E3E3E3" height="46.9766" rx="2.5" ry="2.5" style="stroke:#181818;stroke-width:0.5;" width="84" x="1546.5" y="1325.3027"/><text fill="#000000" font-family="sans-serif" font-size="14" lengthAdjust="spacing" textLength="66" x="1555.5" y="1345.8379">employee</text><text fill="#000000" font-family="sans-serif" font-size="14" lengthAdjust="spacing" textLength="70" x="1553.5" y="1362.3262">:Employee</text><rect fill="#E3E3E3" height="46.9766" rx="2.5" ry="2.5" style="stroke:#181818;stroke-width:0.5;" width="67" x="1982" y="50"/><text fill="#000000" font-family="sans-serif" font-size="14" lengthAdjust="spacing" textLength="47" x="1992" y="70.5352">vehicle</text><text fill="#000000" font-family="sans-serif" font-size="14" lengthAdjust="spacing" textLength="53" x="1989" y="87.0234">:Vehicle</text><rect fill="#E3E3E3" height="46.9766" rx="2.5" ry="2.5" style="stroke:#181818;stroke-width:0.5;" width="67" x="1982" y="1325.3027"/><text fill="#000000" font-family="sans-serif" font-size="14" lengthAdjust="spacing" textLength="47" x="1992" y="1345.8379">vehicle</text><text fill="#000000" font-family="sans-serif" font-size="14" lengthAdjust="spacing" textLength="53" x="1989" y="1362.3262">:Vehicle</text><rect fill="#FFFFFF" height="1200.3262" style="stroke:#181818;stroke-width:1.0;" width="10" x="81.5" y="107.9766"/><rect fill="#FFFFFF" height="132.041" style="stroke:#181818;stroke-width:1.0;" width="10" x="417.5" y="245.8398"/><rect fill="#FFFFFF" height="132.8633" style="stroke:#181818;stroke-width:1.0;" width="10" x="417.5" y="407.1914"/><rect fill="#FFFFFF" height="738.9375" style="stroke:#181818;stroke-width:1.0;" width="10" x="417.5" y="569.3652"/><rect fill="#FFFFFF" height="619.0742" style="stroke:#181818;stroke-width:1.0;" width="10" x="747.5" y="659.918"/><rect fill="#FFFFFF" height="29.3105" style="stroke:#181818;stroke-width:1.0;" width="10" x="900" y="689.2285"/><rect fill="#FFFFFF" height="95.2422" style="stroke:#181818;stroke-width:1.0;" width="10" x="1015" y="747.8496"/><rect fill="#FFFFFF" height="137.5527" style="stroke:#181818;stroke-width:1.0;" width="10" x="1015" y="1112.1289"/><rect fill="#FFFFFF" height="149.1738" style="stroke:#181818;stroke-width:1.0;" width="10" x="1583.5" y="933.6445"/><rect fill="#FFFFFF" height="29.3105" style="stroke:#181818;stroke-width:1.0;" width="10" x="2010.5" y="1024.1973"/><path d="M96,112.9766 L96,167.9766 L389,167.9766 L389,122.9766 L379,112.9766 L96,112.9766 " fill="#FAFAFA" style="stroke:#181818;stroke-width:0.5;"/><path d="M379,112.9766 L379,122.9766 L389,122.9766 L379,112.9766 " fill="#FAFAFA" style="stroke:#181818;stroke-width:0.5;"/><text fill="#000000" font-family="sans-serif" font-size="13" lengthAdjust="spacing" textLength="272" x="102" y="130.5449">- The user is already logged in at this step.</text><text fill="#000000" font-family="sans-serif" font-size="13" lengthAdjust="spacing" textLength="264" x="102" y="145.8555">- Authentication sequence is explained in</text><text fill="#000000" font-family="sans-serif" font-size="13" lengthAdjust="spacing" textLength="125" x="102" y="161.166">a sequence excerpt.</text><path d="M910,178.9082 L910,218.9082 L1017,218.9082 L1017,188.9082 L1007,178.9082 L910,178.9082 " fill="#FAFAFA" style="stroke:#181818;stroke-width:0.5;"/><path d="M1007,178.9082 L1007,188.9082 L1017,188.9082 L1007,178.9082 " fill="#FAFAFA" style="stroke:#181818;stroke-width:0.5;"/><text fill="#000000" font-family="sans-serif" font-size="13" lengthAdjust="spacing" textLength="86" x="916" y="196.4766">- Singleton is</text><text fill="#000000" font-family="sans-serif" font-size="13" lengthAdjust="spacing" textLength="38" x="916" y="211.7871">in use</text><polygon fill="#181818" points="405.5,241.8398,415.5,245.8398,405.5,249.8398,409.5,245.8398" style="stroke:#181818;stroke-width:1.0;"/><line style="stroke:#181818;stroke-width:1.0;" x1="91.5" x2="411.5" y1="245.8398" y2="245.8398"/><text fill="#000000" font-family="sans-serif" font-size="13" font-weight="bold" lengthAdjust="spacing" textLength="9" x="98.5" y="241.0977">1</text><text fill="#000000" font-family="sans-serif" font-size="13" lengthAdjust="spacing" textLength="176" x="111.5" y="241.0977">asks to create a new vehicle</text><polygon fill="#181818" points="649.5,271.1504,659.5,275.1504,649.5,279.1504,653.5,275.1504" style="stroke:#181818;stroke-width:1.0;"/><line style="stroke:#181818;stroke-width:1.0;" x1="427.5" x2="655.5" y1="275.1504" y2="275.1504"/><text fill="#000000" font-family="sans-serif" font-size="13" font-weight="bold" lengthAdjust="spacing" textLength="9" x="434.5" y="270.4082">2</text><text fill="#000000" font-family="sans-serif" font-size="13" lengthAdjust="spacing" textLength="38" x="447.5" y="270.4082">create</text><rect fill="#E3E3E3" height="30.4883" rx="2.5" ry="2.5" style="stroke:#181818;stroke-width:0.5;" width="182" x="661.5" y="253.8398"/><text fill="#000000" font-family="sans-serif" font-size="14" lengthAdjust="spacing" textLength="168" x="668.5" y="274.375">:CreateVehicleController</text><polygon fill="#181818" points="102.5,373.8809,92.5,377.8809,102.5,381.8809,98.5,377.8809" style="stroke:#181818;stroke-width:1.0;"/><line style="stroke:#181818;stroke-width:1.0;stroke-dasharray:2.0,2.0;" x1="96.5" x2="421.5" y1="377.8809" y2="377.8809"/><text fill="#000000" font-family="sans-serif" font-size="13" font-weight="bold" lengthAdjust="spacing" textLength="9" x="108.5" y="342.5176">3</text><text fill="#000000" font-family="sans-serif" font-size="13" lengthAdjust="spacing" textLength="206" x="121.5" y="311.8965">requestData (brand, model, type,</text><text fill="#000000" font-family="sans-serif" font-size="13" lengthAdjust="spacing" textLength="240" x="121.5" y="327.207">tare weight, gross weight, current km,</text><text fill="#000000" font-family="sans-serif" font-size="13" lengthAdjust="spacing" textLength="276" x="121.5" y="342.5176">register date, acquisition date, maintenance</text><text fill="#000000" font-family="sans-serif" font-size="13" lengthAdjust="spacing" textLength="288" x="121.5" y="357.8281">frequency, plate number, passengers number,</text><text fill="#000000" font-family="sans-serif" font-size="13" lengthAdjust="spacing" textLength="264" x="121.5" y="373.1387">doors number, fuel type, trailer machines)</text><polygon fill="#181818" points="405.5,403.1914,415.5,407.1914,405.5,411.1914,409.5,407.1914" style="stroke:#181818;stroke-width:1.0;"/><line style="stroke:#181818;stroke-width:1.0;" x1="91.5" x2="411.5" y1="407.1914" y2="407.1914"/><text fill="#000000" font-family="sans-serif" font-size="13" font-weight="bold" lengthAdjust="spacing" textLength="9" x="98.5" y="402.4492">4</text><text fill="#000000" font-family="sans-serif" font-size="13" lengthAdjust="spacing" textLength="131" x="111.5" y="402.4492">types requested data</text><line style="stroke:#181818;stroke-width:1.0;" x1="427.5" x2="469.5" y1="502.7441" y2="502.7441"/><line style="stroke:#181818;stroke-width:1.0;" x1="469.5" x2="469.5" y1="502.7441" y2="515.7441"/><line style="stroke:#181818;stroke-width:1.0;" x1="422.5" x2="469.5" y1="515.7441" y2="515.7441"/><polygon fill="#181818" points="432.5,511.7441,422.5,515.7441,432.5,519.7441,428.5,515.7441" style="stroke:#181818;stroke-width:1.0;"/><text fill="#000000" font-family="sans-serif" font-size="13" font-weight="bold" lengthAdjust="spacing" textLength="9" x="434.5" y="467.3809">5</text><text fill="#000000" font-family="sans-serif" font-size="13" lengthAdjust="spacing" textLength="249" x="447.5" y="436.7598">validateVehicleData(brand, model, type,</text><text fill="#000000" font-family="sans-serif" font-size="13" lengthAdjust="spacing" textLength="240" x="447.5" y="452.0703">tare weight, gross weight, current km,</text><text fill="#000000" font-family="sans-serif" font-size="13" lengthAdjust="spacing" textLength="276" x="447.5" y="467.3809">register date, acquisition date, maintenance</text><text fill="#000000" font-family="sans-serif" font-size="13" lengthAdjust="spacing" textLength="288" x="447.5" y="482.6914">frequency, plate number, passengers number,</text><text fill="#000000" font-family="sans-serif" font-size="13" lengthAdjust="spacing" textLength="264" x="447.5" y="498.002">doors number, fuel type, trailer machines)</text><polygon fill="#181818" points="102.5,536.0547,92.5,540.0547,102.5,544.0547,98.5,540.0547" style="stroke:#181818;stroke-width:1.0;"/><line style="stroke:#181818;stroke-width:1.0;stroke-dasharray:2.0,2.0;" x1="96.5" x2="421.5" y1="540.0547" y2="540.0547"/><text fill="#000000" font-family="sans-serif" font-size="13" font-weight="bold" lengthAdjust="spacing" textLength="9" x="108.5" y="535.3125">6</text><text fill="#000000" font-family="sans-serif" font-size="13" lengthAdjust="spacing" textLength="289" x="121.5" y="535.3125">shows vehicle data and requests confirmation</text><polygon fill="#181818" points="405.5,565.3652,415.5,569.3652,405.5,573.3652,409.5,569.3652" style="stroke:#181818;stroke-width:1.0;"/><line style="stroke:#181818;stroke-width:1.0;" x1="91.5" x2="411.5" y1="569.3652" y2="569.3652"/><text fill="#000000" font-family="sans-serif" font-size="13" font-weight="bold" lengthAdjust="spacing" textLength="9" x="98.5" y="564.623">7</text><text fill="#000000" font-family="sans-serif" font-size="13" lengthAdjust="spacing" textLength="87" x="111.5" y="564.623">confirms data</text><polygon fill="#181818" points="735.5,655.918,745.5,659.918,735.5,663.918,739.5,659.918" style="stroke:#181818;stroke-width:1.0;"/><line style="stroke:#181818;stroke-width:1.0;" x1="427.5" x2="741.5" y1="659.918" y2="659.918"/><text fill="#000000" font-family="sans-serif" font-size="13" font-weight="bold" lengthAdjust="spacing" textLength="9" x="434.5" y="624.5547">8</text><text fill="#000000" font-family="sans-serif" font-size="13" lengthAdjust="spacing" textLength="209" x="447.5" y="593.9336">createVehicle(brand, model, type,</text><text fill="#000000" font-family="sans-serif" font-size="13" lengthAdjust="spacing" textLength="240" x="447.5" y="609.2441">tare weight, gross weight, current km,</text><text fill="#000000" font-family="sans-serif" font-size="13" lengthAdjust="spacing" textLength="276" x="447.5" y="624.5547">register date, acquisition date, maintenance</text><text fill="#000000" font-family="sans-serif" font-size="13" lengthAdjust="spacing" textLength="288" x="447.5" y="639.8652">frequency, plate number, passengers number,</text><text fill="#000000" font-family="sans-serif" font-size="13" lengthAdjust="spacing" textLength="264" x="447.5" y="655.1758">doors number, fuel type, trailer machines)</text><polygon fill="#181818" points="888,685.2285,898,689.2285,888,693.2285,892,689.2285" style="stroke:#181818;stroke-width:1.0;"/><line style="stroke:#181818;stroke-width:1.0;" x1="757.5" x2="894" y1="689.2285" y2="689.2285"/><text fill="#000000" font-family="sans-serif" font-size="13" font-weight="bold" lengthAdjust="spacing" textLength="9" x="764.5" y="684.4863">9</text><text fill="#000000" font-family="sans-serif" font-size="13" lengthAdjust="spacing" textLength="81" x="777.5" y="684.4863">getInstance()</text><polygon fill="#181818" points="768.5,714.5391,758.5,718.5391,768.5,722.5391,764.5,718.5391" style="stroke:#181818;stroke-width:1.0;"/><line style="stroke:#181818;stroke-width:1.0;stroke-dasharray:2.0,2.0;" x1="762.5" x2="904" y1="718.5391" y2="718.5391"/><text fill="#000000" font-family="sans-serif" font-size="13" font-weight="bold" lengthAdjust="spacing" textLength="18" x="774.5" y="713.7969">10</text><text fill="#000000" font-family="sans-serif" font-size="13" lengthAdjust="spacing" textLength="75" x="796.5" y="713.7969">repositories</text><polygon fill="#181818" points="1003,743.8496,1013,747.8496,1003,751.8496,1007,747.8496" style="stroke:#181818;stroke-width:1.0;"/><line style="stroke:#181818;stroke-width:1.0;" x1="757.5" x2="1009" y1="747.8496" y2="747.8496"/><text fill="#000000" font-family="sans-serif" font-size="13" font-weight="bold" lengthAdjust="spacing" textLength="18" x="764.5" y="743.1074">11</text><text fill="#000000" font-family="sans-serif" font-size="13" lengthAdjust="spacing" textLength="168" x="786.5" y="743.1074">getEmployeeFromSession()</text><path d="M762,760.8496 L762,815.8496 L954,815.8496 L954,770.8496 L944,760.8496 L762,760.8496 " fill="#FAFAFA" style="stroke:#181818;stroke-width:0.5;"/><path d="M944,760.8496 L944,770.8496 L954,770.8496 L944,760.8496 " fill="#FAFAFA" style="stroke:#181818;stroke-width:0.5;"/><text fill="#000000" font-family="sans-serif" font-size="13" lengthAdjust="spacing" textLength="171" x="768" y="778.418">- This method is explained</text><text fill="#000000" font-family="sans-serif" font-size="13" lengthAdjust="spacing" textLength="137" x="772" y="793.7285">in detail in an excerpt</text><text fill="#000000" font-family="sans-serif" font-size="13" lengthAdjust="spacing" textLength="118" x="772" y="809.0391">sequence diagram.</text><polygon fill="#181818" points="768.5,839.0918,758.5,843.0918,768.5,847.0918,764.5,843.0918" style="stroke:#181818;stroke-width:1.0;"/><line style="stroke:#181818;stroke-width:1.0;stroke-dasharray:2.0,2.0;" x1="762.5" x2="1019" y1="843.0918" y2="843.0918"/><text fill="#000000" font-family="sans-serif" font-size="13" font-weight="bold" lengthAdjust="spacing" textLength="18" x="774.5" y="838.3496">12</text><text fill="#000000" font-family="sans-serif" font-size="13" lengthAdjust="spacing" textLength="60" x="796.5" y="838.3496">employee</text><polygon fill="#181818" points="1571.5,929.6445,1581.5,933.6445,1571.5,937.6445,1575.5,933.6445" style="stroke:#181818;stroke-width:1.0;"/><line style="stroke:#181818;stroke-width:1.0;" x1="757.5" x2="1577.5" y1="933.6445" y2="933.6445"/><text fill="#000000" font-family="sans-serif" font-size="13" font-weight="bold" lengthAdjust="spacing" textLength="18" x="764.5" y="898.2813">13</text><text fill="#000000" font-family="sans-serif" font-size="13" lengthAdjust="spacing" textLength="209" x="786.5" y="867.6602">createVehicle(brand, model, type,</text><text fill="#000000" font-family="sans-serif" font-size="13" lengthAdjust="spacing" textLength="240" x="786.5" y="882.9707">tare weight, gross weight, current km,</text><text fill="#000000" font-family="sans-serif" font-size="13" lengthAdjust="spacing" textLength="276" x="786.5" y="898.2813">register date, acquisition date, maintenance</text><text fill="#000000" font-family="sans-serif" font-size="13" lengthAdjust="spacing" textLength="288" x="786.5" y="913.5918">frequency, plate number, passengers number,</text><text fill="#000000" font-family="sans-serif" font-size="13" lengthAdjust="spacing" textLength="376" x="786.5" y="928.9023">doors number, fuel type, trailer machines, creatorEmployee)</text><polygon fill="#181818" points="1998.5,1020.1973,2008.5,1024.1973,1998.5,1028.1973,2002.5,1024.1973" style="stroke:#181818;stroke-width:1.0;"/><line style="stroke:#181818;stroke-width:1.0;" x1="1593.5" x2="2004.5" y1="1024.1973" y2="1024.1973"/><text fill="#000000" font-family="sans-serif" font-size="13" font-weight="bold" lengthAdjust="spacing" textLength="18" x="1600.5" y="988.834">14</text><text fill="#000000" font-family="sans-serif" font-size="13" lengthAdjust="spacing" textLength="171" x="1622.5" y="958.2129">Vehicle(brand, model, type,</text><text fill="#000000" font-family="sans-serif" font-size="13" lengthAdjust="spacing" textLength="240" x="1622.5" y="973.5234">tare weight, gross weight, current km,</text><text fill="#000000" font-family="sans-serif" font-size="13" lengthAdjust="spacing" textLength="276" x="1622.5" y="988.834">register date, acquisition date, maintenance</text><text fill="#000000" font-family="sans-serif" font-size="13" lengthAdjust="spacing" textLength="288" x="1622.5" y="1004.1445">frequency, plate number, passengers number,</text><text fill="#000000" font-family="sans-serif" font-size="13" lengthAdjust="spacing" textLength="376" x="1622.5" y="1019.4551">doors number, fuel type, trailer machines, creatorEmployee)</text><polygon fill="#181818" points="1604.5,1049.5078,1594.5,1053.5078,1604.5,1057.5078,1600.5,1053.5078" style="stroke:#181818;stroke-width:1.0;"/><line style="stroke:#181818;stroke-width:1.0;stroke-dasharray:2.0,2.0;" x1="1598.5" x2="2014.5" y1="1053.5078" y2="1053.5078"/><text fill="#000000" font-family="sans-serif" font-size="13" font-weight="bold" lengthAdjust="spacing" textLength="18" x="1610.5" y="1048.7656">15</text><text fill="#000000" font-family="sans-serif" font-size="13" lengthAdjust="spacing" textLength="70" x="1632.5" y="1048.7656">newVehicle</text><polygon fill="#181818" points="768.5,1078.8184,758.5,1082.8184,768.5,1086.8184,764.5,1082.8184" style="stroke:#181818;stroke-width:1.0;"/><line style="stroke:#181818;stroke-width:1.0;stroke-dasharray:2.0,2.0;" x1="762.5" x2="1587.5" y1="1082.8184" y2="1082.8184"/><text fill="#000000" font-family="sans-serif" font-size="13" font-weight="bold" lengthAdjust="spacing" textLength="18" x="774.5" y="1078.0762">16</text><text fill="#000000" font-family="sans-serif" font-size="13" lengthAdjust="spacing" textLength="70" x="796.5" y="1078.0762">newVehicle</text><polygon fill="#181818" points="1003,1108.1289,1013,1112.1289,1003,1116.1289,1007,1112.1289" style="stroke:#181818;stroke-width:1.0;"/><line style="stroke:#181818;stroke-width:1.0;" x1="757.5" x2="1009" y1="1112.1289" y2="1112.1289"/><text fill="#000000" font-family="sans-serif" font-size="13" font-weight="bold" lengthAdjust="spacing" textLength="18" x="764.5" y="1107.3867">17</text><text fill="#000000" font-family="sans-serif" font-size="13" lengthAdjust="spacing" textLength="120" x="786.5" y="1107.3867">addVehicle(vehicle)</text><line style="stroke:#181818;stroke-width:1.0;" x1="1025" x2="1067" y1="1141.4395" y2="1141.4395"/><line style="stroke:#181818;stroke-width:1.0;" x1="1067" x2="1067" y1="1141.4395" y2="1154.4395"/><line style="stroke:#181818;stroke-width:1.0;" x1="1026" x2="1067" y1="1154.4395" y2="1154.4395"/><polygon fill="#181818" points="1036,1150.4395,1026,1154.4395,1036,1158.4395,1032,1154.4395" style="stroke:#181818;stroke-width:1.0;"/><text fill="#000000" font-family="sans-serif" font-size="13" font-weight="bold" lengthAdjust="spacing" textLength="18" x="1032" y="1136.6973">18</text><text fill="#000000" font-family="sans-serif" font-size="13" lengthAdjust="spacing" textLength="102" x="1054" y="1136.6973">validateVehicle()</text><path d="M1030,1167.4395 L1030,1222.4395 L1222,1222.4395 L1222,1177.4395 L1212,1167.4395 L1030,1167.4395 " fill="#FAFAFA" style="stroke:#181818;stroke-width:0.5;"/><path d="M1212,1167.4395 L1212,1177.4395 L1222,1177.4395 L1212,1167.4395 " fill="#FAFAFA" style="stroke:#181818;stroke-width:0.5;"/><text fill="#000000" font-family="sans-serif" font-size="13" lengthAdjust="spacing" textLength="171" x="1036" y="1185.0078">- This method is explained</text><text fill="#000000" font-family="sans-serif" font-size="13" lengthAdjust="spacing" textLength="137" x="1036" y="1200.3184">in detail in an excerpt</text><text fill="#000000" font-family="sans-serif" font-size="13" lengthAdjust="spacing" textLength="118" x="1036" y="1215.6289">sequence diagram.</text><polygon fill="#181818" points="768.5,1245.6816,758.5,1249.6816,768.5,1253.6816,764.5,1249.6816" style="stroke:#181818;stroke-width:1.0;"/><line style="stroke:#181818;stroke-width:1.0;stroke-dasharray:2.0,2.0;" x1="762.5" x2="1019" y1="1249.6816" y2="1249.6816"/><text fill="#000000" font-family="sans-serif" font-size="13" font-weight="bold" lengthAdjust="spacing" textLength="18" x="774.5" y="1244.9395">19</text><text fill="#000000" font-family="sans-serif" font-size="13" lengthAdjust="spacing" textLength="70" x="796.5" y="1244.9395">newVehicle</text><polygon fill="#181818" points="438.5,1274.9922,428.5,1278.9922,438.5,1282.9922,434.5,1278.9922" style="stroke:#181818;stroke-width:1.0;"/><line style="stroke:#181818;stroke-width:1.0;stroke-dasharray:2.0,2.0;" x1="432.5" x2="751.5" y1="1278.9922" y2="1278.9922"/><text fill="#000000" font-family="sans-serif" font-size="13" font-weight="bold" lengthAdjust="spacing" textLength="18" x="444.5" y="1274.25">20</text><text fill="#000000" font-family="sans-serif" font-size="13" lengthAdjust="spacing" textLength="70" x="466.5" y="1274.25">newVehicle</text><polygon fill="#181818" points="97.5,1304.3027,87.5,1308.3027,97.5,1312.3027,93.5,1308.3027" style="stroke:#181818;stroke-width:1.0;"/><line style="stroke:#181818;stroke-width:1.0;" x1="91.5" x2="421.5" y1="1308.3027" y2="1308.3027"/><text fill="#000000" font-family="sans-serif" font-size="13" font-weight="bold" lengthAdjust="spacing" textLength="18" x="103.5" y="1303.5605">21</text><text fill="#000000" font-family="sans-serif" font-size="13" lengthAdjust="spacing" textLength="170" x="125.5" y="1303.5605">displays operation success</text><!--SRC=[vLTDJ-Cm4BtdLuou0Al23-2m4keMg0HbrHHEbP19feb5OWVR0VhlT-nyfmaj4YVMfoQPUME_DvwPwXSkCgPO2gaKCeYLJ16Coj7JzPUC1IyiGjzi4mI5WM4YIje6EcQXVESYWWrBD7eUouqKUVgColEEOnuYRAGqp_A3FWL6AZXwn9W71CT42BFNd6Sf2hCMLmcYWJicA9uw0gRXyUhEeoY61pnZmi3HnLGXCrW2FCoTrSFyCwEf54R992aXfwlbRSzyYPdKd7R6KJkR- -NrapzVND_ELlUBhh5gsQx51GpwpXV-wd8ndNLTYPUOpia3PhWKjUEMO2v7FZd4ouVLpTDozlU-2vThL3vgJGw4yD0y5PpuooT_vllp_W7U2bOwuH_xxmhoPpVpwUtCXHuv4gPP8hU8X34hVphNkyNrSZ1i4wmTmlCy8Gsb5uzY0tBZT0TQPx2A4Un9WMjW2UaQRY6HKOGXS07CW8dfYpQOdPSUNIv1uskE8a0BW1zPmhXmliwQDP_n8q2LcNCFAIdjRlfxwYP54SldzZ9GkXEwUqLxejssC6pAypVAHdScPsCNFS3PRyfSk20UNZGO2O7BMjgJm7Se-MeyQXpATcYjuzBDvNNx0s5J1Flwro-AKfXvNLzbJwyDXO_T1kqsw5xd1a9cs0uSuLcZ2oZz_f0Hd3mhkiSJAY4X9XCmsmmdi1Q6AOHtjEnD859Iw_efo9KYXU0bdQo5meYJVCf694SMK3sW9BJI5MzIKioWO5QajTYeGh3j14XBEdTHQUY9QOs22eUkNgr5A6Np29iSat9xHZ5E1O6mWvZoGPysl8JOPdfGC8kXAmuecHnNWq8D2E8GtbZ2mwP4MHv_68qzAbrsZkUJZkMxhdBUyUbwGvsUWHGRhb9te_TArPUhTDPVqydkkBusfKu_KADF5BBBiK1iT8eVqHAXcGjjx4vFJdVTQjHkqToniwiBVTPGtswrkwujyVS4QP-XQcF54QgUTKM3JzayXqxJNzs-i5DunvPjPjI4KZIn33ljw21tsrj2DAIcwtoYwbY7ETTzBkGieh7jVAzRqyC-LRSU3BmXOMk-MxfMGyDUJSUXAqdjdF4JB-caE99KLOP-TiVSiBNpsL5Z2smnOX5B_oi_zP3PjwYeEMioYKQln_xaDP2Tev05wqsk7uWtBE58uM9XM4bPTipJRxgZEw5wSyfOSTmTbEk8trWClrh_3YjvusLkh7uTgEauyOMkrNZIXlFsZax5S59CJI7NnDbMWynGbVzsyY2WHbROz-QZTlxIVv5_]--></g></svg>