<?xml version="1.0" encoding="us-ascii" standalone="no"?><svg xmlns="http://www.w3.org/2000/svg" xmlns:xlink="http://www.w3.org/1999/xlink" contentStyleType="text/css" height="367px" preserveAspectRatio="none" style="width:680px;height:367px;background:#FFFFFF;" version="1.1" viewBox="0 0 680 367" width="680px" zoomAndPan="magnify"><defs/><g><rect fill="#FFFFFF" height="213.1738" style="stroke:#181818;stroke-width:1.0;" width="10" x="216" y="84.2871"/><rect fill="#FFFFFF" height="87.9316" style="stroke:#181818;stroke-width:1.0;" width="10" x="462" y="155.9082"/><rect fill="#FFFFFF" height="29.3105" style="stroke:#181818;stroke-width:1.0;" width="10" x="618.5" y="185.2188"/><line style="stroke:#181818;stroke-width:0.5;stroke-dasharray:5.0,5.0;" x1="220.5" x2="220.5" y1="52.9766" y2="315.4609"/><line style="stroke:#181818;stroke-width:0.5;stroke-dasharray:5.0,5.0;" x1="467" x2="467" y1="52.9766" y2="315.4609"/><line style="stroke:#181818;stroke-width:0.5;stroke-dasharray:5.0,5.0;" x1="623" x2="623" y1="52.9766" y2="315.4609"/><rect fill="#E3E3E3" height="46.9766" rx="2.5" ry="2.5" style="stroke:#181818;stroke-width:0.5;" width="103" x="169.5" y="5"/><text fill="#000000" font-family="sans-serif" font-size="14" lengthAdjust="spacing" textLength="82" x="180" y="25.5352">repositories</text><text fill="#000000" font-family="sans-serif" font-size="14" lengthAdjust="spacing" textLength="89" x="176.5" y="42.0234">:Repositories</text><rect fill="#E3E3E3" height="46.9766" rx="2.5" ry="2.5" style="stroke:#181818;stroke-width:0.5;" width="103" x="169.5" y="314.4609"/><text fill="#000000" font-family="sans-serif" font-size="14" lengthAdjust="spacing" textLength="82" x="180" y="334.9961">repositories</text><text fill="#000000" font-family="sans-serif" font-size="14" lengthAdjust="spacing" textLength="89" x="176.5" y="351.4844">:Repositories</text><rect fill="#E3E3E3" height="46.9766" rx="2.5" ry="2.5" style="stroke:#181818;stroke-width:0.5;" width="192" x="371" y="5"/><text fill="#000000" font-family="sans-serif" font-size="14" lengthAdjust="spacing" textLength="172" x="381" y="25.5352">authenticationRepository</text><text fill="#000000" font-family="sans-serif" font-size="14" lengthAdjust="spacing" textLength="178" x="378" y="42.0234">:AuthenticationRepository</text><rect fill="#E3E3E3" height="46.9766" rx="2.5" ry="2.5" style="stroke:#181818;stroke-width:0.5;" width="192" x="371" y="314.4609"/><text fill="#000000" font-family="sans-serif" font-size="14" lengthAdjust="spacing" textLength="172" x="381" y="334.9961">authenticationRepository</text><text fill="#000000" font-family="sans-serif" font-size="14" lengthAdjust="spacing" textLength="178" x="378" y="351.4844">:AuthenticationRepository</text><rect fill="#E3E3E3" height="46.9766" rx="2.5" ry="2.5" style="stroke:#181818;stroke-width:0.5;" width="101" x="573" y="5"/><text fill="#000000" font-family="sans-serif" font-size="14" lengthAdjust="spacing" textLength="82" x="582.5" y="25.5352">userSession</text><text fill="#000000" font-family="sans-serif" font-size="14" lengthAdjust="spacing" textLength="87" x="580" y="42.0234">:UserSessoin</text><rect fill="#E3E3E3" height="46.9766" rx="2.5" ry="2.5" style="stroke:#181818;stroke-width:0.5;" width="101" x="573" y="314.4609"/><text fill="#000000" font-family="sans-serif" font-size="14" lengthAdjust="spacing" textLength="82" x="582.5" y="334.9961">userSession</text><text fill="#000000" font-family="sans-serif" font-size="14" lengthAdjust="spacing" textLength="87" x="580" y="351.4844">:UserSessoin</text><rect fill="#FFFFFF" height="213.1738" style="stroke:#181818;stroke-width:1.0;" width="10" x="216" y="84.2871"/><rect fill="#FFFFFF" height="87.9316" style="stroke:#181818;stroke-width:1.0;" width="10" x="462" y="155.9082"/><rect fill="#FFFFFF" height="29.3105" style="stroke:#181818;stroke-width:1.0;" width="10" x="618.5" y="185.2188"/><polygon fill="#181818" points="204,80.2871,214,84.2871,204,88.2871,208,84.2871" style="stroke:#181818;stroke-width:1.0;"/><line style="stroke:#181818;stroke-width:1.0;" x1="0" x2="210" y1="84.2871" y2="84.2871"/><text fill="#000000" font-family="sans-serif" font-size="13" font-weight="bold" lengthAdjust="spacing" textLength="18" x="7" y="79.5449">11</text><text fill="#000000" font-family="sans-serif" font-size="13" lengthAdjust="spacing" textLength="168" x="29" y="79.5449">getEmployeeFromSession()</text><line style="stroke:#181818;stroke-width:1.0;" x1="226" x2="268" y1="113.5977" y2="113.5977"/><line style="stroke:#181818;stroke-width:1.0;" x1="268" x2="268" y1="113.5977" y2="126.5977"/><line style="stroke:#181818;stroke-width:1.0;" x1="227" x2="268" y1="126.5977" y2="126.5977"/><polygon fill="#181818" points="237,122.5977,227,126.5977,237,130.5977,233,126.5977" style="stroke:#181818;stroke-width:1.0;"/><text fill="#000000" font-family="sans-serif" font-size="13" font-weight="bold" lengthAdjust="spacing" textLength="30" x="233" y="108.8555">11.1</text><text fill="#000000" font-family="sans-serif" font-size="13" lengthAdjust="spacing" textLength="188" x="267" y="108.8555">getAuthenticationRepository()</text><polygon fill="#181818" points="450,151.9082,460,155.9082,450,159.9082,454,155.9082" style="stroke:#181818;stroke-width:1.0;"/><line style="stroke:#181818;stroke-width:1.0;" x1="226" x2="456" y1="155.9082" y2="155.9082"/><text fill="#000000" font-family="sans-serif" font-size="13" font-weight="bold" lengthAdjust="spacing" textLength="30" x="233" y="151.166">11.2</text><text fill="#000000" font-family="sans-serif" font-size="13" lengthAdjust="spacing" textLength="151" x="267" y="151.166">getCurrentUserSession()</text><polygon fill="#181818" points="606.5,181.2188,616.5,185.2188,606.5,189.2188,610.5,185.2188" style="stroke:#181818;stroke-width:1.0;"/><line style="stroke:#181818;stroke-width:1.0;" x1="472" x2="612.5" y1="185.2188" y2="185.2188"/><text fill="#000000" font-family="sans-serif" font-size="13" font-weight="bold" lengthAdjust="spacing" textLength="30" x="479" y="180.4766">11.3</text><text fill="#000000" font-family="sans-serif" font-size="13" lengthAdjust="spacing" textLength="68" x="513" y="180.4766">getUserId()</text><polygon fill="#181818" points="483,210.5293,473,214.5293,483,218.5293,479,214.5293" style="stroke:#181818;stroke-width:1.0;"/><line style="stroke:#181818;stroke-width:1.0;stroke-dasharray:2.0,2.0;" x1="477" x2="622.5" y1="214.5293" y2="214.5293"/><text fill="#000000" font-family="sans-serif" font-size="13" font-weight="bold" lengthAdjust="spacing" textLength="30" x="489" y="209.7871">11.4</text><text fill="#000000" font-family="sans-serif" font-size="13" lengthAdjust="spacing" textLength="60" x="523" y="209.7871">employee</text><polygon fill="#181818" points="237,239.8398,227,243.8398,237,247.8398,233,243.8398" style="stroke:#181818;stroke-width:1.0;"/><line style="stroke:#181818;stroke-width:1.0;stroke-dasharray:2.0,2.0;" x1="231" x2="466" y1="243.8398" y2="243.8398"/><text fill="#000000" font-family="sans-serif" font-size="13" font-weight="bold" lengthAdjust="spacing" textLength="30" x="243" y="239.0977">11.5</text><text fill="#000000" font-family="sans-serif" font-size="13" lengthAdjust="spacing" textLength="60" x="277" y="239.0977">employee</text><polygon fill="#181818" points="11,293.4609,1,297.4609,11,301.4609,7,297.4609" style="stroke:#181818;stroke-width:1.0;"/><line style="stroke:#181818;stroke-width:1.0;stroke-dasharray:2.0,2.0;" x1="5" x2="220" y1="297.4609" y2="297.4609"/><text fill="#000000" font-family="sans-serif" font-size="13" font-weight="bold" lengthAdjust="spacing" textLength="18" x="17" y="292.7188">12</text><text fill="#000000" font-family="sans-serif" font-size="13" lengthAdjust="spacing" textLength="60" x="39" y="292.7188">employee</text><!--SRC=[TP5HQy8m4CVV_HI7BziUEd2FCWGPtIQCATQ-3KPippROvagIRlFRxnfhcmZUsoNv_PB_nHobQeGMDTIaA2irrGXMjpWnmquZigCeCB6d2a5ZPeKgAl-0AKLElr8LS12LmGdNNIbpX0EHtTCVztpGoamsGbcOQcp8I4jQelbIywtNJa4Os7miTo4XMbkYubvOIMe0JamlRsmvqpBTlNzluyqwrBK6TOB6CC26jEz8AWUboVOxYPDajVxiel3TfDfwZnfciqcqSC-3EHHeuxgfw8JuocFhVVSFLyJZZ1SoAt-4nNCou7AEm7KhHoVqYI7I6NjfjMOi7HDTWE7ISGXklQjHmaOlxzdPoLRvnHEuWjc0LxuakdeczcCQYHnl6xstHOj-Fg71ew-o5PhQ1jxGGXmG_eyyyT9p5Bc1UcPFwdxf7m00]--></g></svg>