<?xml version="1.0" encoding="us-ascii" standalone="no"?><svg xmlns="http://www.w3.org/2000/svg" xmlns:xlink="http://www.w3.org/1999/xlink" contentStyleType="text/css" height="391px" preserveAspectRatio="none" style="width:635px;height:391px;background:#FFFFFF;" version="1.1" viewBox="0 0 635 391" width="635px" zoomAndPan="magnify"><defs/><g><rect fill="#FFFFFF" height="227.0371" style="stroke:#181818;stroke-width:1.0;" width="10" x="205" y="90.5332"/><rect fill="#FFFFFF" height="93.873" style="stroke:#181818;stroke-width:1.0;" width="10" x="429" y="166.1152"/><rect fill="#FFFFFF" height="31.291" style="stroke:#181818;stroke-width:1.0;" width="10" x="575.5" y="197.4063"/><line style="stroke:#181818;stroke-width:0.5;stroke-dasharray:5.0,5.0;" x1="209.5" x2="209.5" y1="57.2422" y2="335.5703"/><line style="stroke:#181818;stroke-width:0.5;stroke-dasharray:5.0,5.0;" x1="434" x2="434" y1="57.2422" y2="335.5703"/><line style="stroke:#181818;stroke-width:0.5;stroke-dasharray:5.0,5.0;" x1="580" x2="580" y1="57.2422" y2="335.5703"/><rect fill="#E3E3E3" height="51.2422" rx="2.5" ry="2.5" style="stroke:#181818;stroke-width:0.5;" width="97" x="161.5" y="5"/><text fill="#000000" font-family="sans-serif" font-size="14" lengthAdjust="spacing" textLength="74" x="173" y="27.1074">repositories</text><text fill="#000000" font-family="sans-serif" font-size="14" lengthAdjust="spacing" textLength="83" x="168.5" y="45.7285">:Repositories</text><rect fill="#E3E3E3" height="51.2422" rx="2.5" ry="2.5" style="stroke:#181818;stroke-width:0.5;" width="97" x="161.5" y="334.5703"/><text fill="#000000" font-family="sans-serif" font-size="14" lengthAdjust="spacing" textLength="74" x="173" y="356.6777">repositories</text><text fill="#000000" font-family="sans-serif" font-size="14" lengthAdjust="spacing" textLength="83" x="168.5" y="375.2988">:Repositories</text><rect fill="#E3E3E3" height="51.2422" rx="2.5" ry="2.5" style="stroke:#181818;stroke-width:0.5;" width="176" x="346" y="5"/><text fill="#000000" font-family="sans-serif" font-size="14" lengthAdjust="spacing" textLength="157" x="355.5" y="27.1074">authenticationRepository</text><text fill="#000000" font-family="sans-serif" font-size="14" lengthAdjust="spacing" textLength="162" x="353" y="45.7285">:AuthenticationRepository</text><rect fill="#E3E3E3" height="51.2422" rx="2.5" ry="2.5" style="stroke:#181818;stroke-width:0.5;" width="176" x="346" y="334.5703"/><text fill="#000000" font-family="sans-serif" font-size="14" lengthAdjust="spacing" textLength="157" x="355.5" y="356.6777">authenticationRepository</text><text fill="#000000" font-family="sans-serif" font-size="14" lengthAdjust="spacing" textLength="162" x="353" y="375.2988">:AuthenticationRepository</text><rect fill="#E3E3E3" height="51.2422" rx="2.5" ry="2.5" style="stroke:#181818;stroke-width:0.5;" width="97" x="532" y="5"/><text fill="#000000" font-family="sans-serif" font-size="14" lengthAdjust="spacing" textLength="78" x="541.5" y="27.1074">userSession</text><text fill="#000000" font-family="sans-serif" font-size="14" lengthAdjust="spacing" textLength="83" x="539" y="45.7285">:UserSessoin</text><rect fill="#E3E3E3" height="51.2422" rx="2.5" ry="2.5" style="stroke:#181818;stroke-width:0.5;" width="97" x="532" y="334.5703"/><text fill="#000000" font-family="sans-serif" font-size="14" lengthAdjust="spacing" textLength="78" x="541.5" y="356.6777">userSession</text><text fill="#000000" font-family="sans-serif" font-size="14" lengthAdjust="spacing" textLength="83" x="539" y="375.2988">:UserSessoin</text><rect fill="#FFFFFF" height="227.0371" style="stroke:#181818;stroke-width:1.0;" width="10" x="205" y="90.5332"/><rect fill="#FFFFFF" height="93.873" style="stroke:#181818;stroke-width:1.0;" width="10" x="429" y="166.1152"/><rect fill="#FFFFFF" height="31.291" style="stroke:#181818;stroke-width:1.0;" width="10" x="575.5" y="197.4063"/><polygon fill="#181818" points="193,86.5332,203,90.5332,193,94.5332,197,90.5332" style="stroke:#181818;stroke-width:1.0;"/><line style="stroke:#181818;stroke-width:1.0;" x1="0" x2="199" y1="90.5332" y2="90.5332"/><text fill="#000000" font-family="sans-serif" font-size="13" font-weight="bold" lengthAdjust="spacing" textLength="14" x="7" y="85.2705">11</text><text fill="#000000" font-family="sans-serif" font-size="13" lengthAdjust="spacing" textLength="161" x="25" y="85.2705">getEmployeeFromSession()</text><line style="stroke:#181818;stroke-width:1.0;" x1="215" x2="257" y1="121.8242" y2="121.8242"/><line style="stroke:#181818;stroke-width:1.0;" x1="257" x2="257" y1="121.8242" y2="134.8242"/><line style="stroke:#181818;stroke-width:1.0;" x1="216" x2="257" y1="134.8242" y2="134.8242"/><polygon fill="#181818" points="226,130.8242,216,134.8242,226,138.8242,222,134.8242" style="stroke:#181818;stroke-width:1.0;"/><text fill="#000000" font-family="sans-serif" font-size="13" font-weight="bold" lengthAdjust="spacing" textLength="25" x="222" y="116.5615">11.1</text><text fill="#000000" font-family="sans-serif" font-size="13" lengthAdjust="spacing" textLength="171" x="251" y="116.5615">getAuthenticationRepository()</text><polygon fill="#181818" points="417,162.1152,427,166.1152,417,170.1152,421,166.1152" style="stroke:#181818;stroke-width:1.0;"/><line style="stroke:#181818;stroke-width:1.0;" x1="215" x2="423" y1="166.1152" y2="166.1152"/><text fill="#000000" font-family="sans-serif" font-size="13" font-weight="bold" lengthAdjust="spacing" textLength="25" x="222" y="160.8525">11.2</text><text fill="#000000" font-family="sans-serif" font-size="13" lengthAdjust="spacing" textLength="142" x="251" y="160.8525">getCurrentUserSession()</text><polygon fill="#181818" points="563.5,193.4063,573.5,197.4063,563.5,201.4063,567.5,197.4063" style="stroke:#181818;stroke-width:1.0;"/><line style="stroke:#181818;stroke-width:1.0;" x1="439" x2="569.5" y1="197.4063" y2="197.4063"/><text fill="#000000" font-family="sans-serif" font-size="13" font-weight="bold" lengthAdjust="spacing" textLength="25" x="446" y="192.1436">11.3</text><text fill="#000000" font-family="sans-serif" font-size="13" lengthAdjust="spacing" textLength="63" x="475" y="192.1436">getUserId()</text><polygon fill="#181818" points="450,224.6973,440,228.6973,450,232.6973,446,228.6973" style="stroke:#181818;stroke-width:1.0;"/><line style="stroke:#181818;stroke-width:1.0;stroke-dasharray:2.0,2.0;" x1="444" x2="579.5" y1="228.6973" y2="228.6973"/><text fill="#000000" font-family="sans-serif" font-size="13" font-weight="bold" lengthAdjust="spacing" textLength="25" x="456" y="223.4346">11.4</text><text fill="#000000" font-family="sans-serif" font-size="13" lengthAdjust="spacing" textLength="56" x="485" y="223.4346">employee</text><polygon fill="#181818" points="226,255.9883,216,259.9883,226,263.9883,222,259.9883" style="stroke:#181818;stroke-width:1.0;"/><line style="stroke:#181818;stroke-width:1.0;stroke-dasharray:2.0,2.0;" x1="220" x2="433" y1="259.9883" y2="259.9883"/><text fill="#000000" font-family="sans-serif" font-size="13" font-weight="bold" lengthAdjust="spacing" textLength="25" x="232" y="254.7256">11.5</text><text fill="#000000" font-family="sans-serif" font-size="13" lengthAdjust="spacing" textLength="56" x="261" y="254.7256">employee</text><polygon fill="#181818" points="11,313.5703,1,317.5703,11,321.5703,7,317.5703" style="stroke:#181818;stroke-width:1.0;"/><line style="stroke:#181818;stroke-width:1.0;stroke-dasharray:2.0,2.0;" x1="5" x2="209" y1="317.5703" y2="317.5703"/><text fill="#000000" font-family="sans-serif" font-size="13" font-weight="bold" lengthAdjust="spacing" textLength="14" x="17" y="312.3076">12</text><text fill="#000000" font-family="sans-serif" font-size="13" lengthAdjust="spacing" textLength="56" x="35" y="312.3076">employee</text><!--SRC=[TP5HQy8m4CVV_HI7BziUEd2FCWGPtIQCATQ-3KPippROvagIRlFRxnfhcmZUsoNv_PB_nHobQeGMDTIaA2irrGXMjpWnmquZigCeCB6d2a5ZPeKgAl-0AKLElr8LS12LmGdNNIbpX0EHtTCVztpGoamsGbcOQcp8I4jQelbIywtNJa4Os7miTo4XMbkYubvOIMe0JamlRsmvqpBTlNzluyqwrBK6TOB6CC26jEz8AWUboVOxYPDajVxiel3TfDfwZnfciqcqSC-3EHHeuxgfw8JuocFhVVSFLyJZZ1SoAt-4nNCou7AEm7KhHoVqYI7I6NjfjMOi7HDTWE7ISGXklQjHmaOlxzdPoLRvnHEuWjc0LxuakdeczcCQYHnl6xstHOj-Fg71ew-o5PhQ1jxGGXmG_eyyyT9p5Bc1UcPFwdxf7m00]--></g></svg>