<?xml version="1.0" encoding="us-ascii" standalone="no"?><svg xmlns="http://www.w3.org/2000/svg" xmlns:xlink="http://www.w3.org/1999/xlink" contentStyleType="text/css" height="1143px" preserveAspectRatio="none" style="width:2459px;height:1143px;background:#FFFFFF;" version="1.1" viewBox="0 0 2459 1143" width="2459px" zoomAndPan="magnify"><defs/><g><rect fill="#FFFFFF" height="948.3516" style="stroke:#181818;stroke-width:1.0;" width="10" x="75" y="93.6211"/><rect fill="#FFFFFF" height="74.9121" style="stroke:#181818;stroke-width:1.0;" width="10" x="621" y="243.3672"/><rect fill="#FFFFFF" height="75.582" style="stroke:#181818;stroke-width:1.0;" width="10" x="621" y="349.5703"/><rect fill="#FFFFFF" height="585.5293" style="stroke:#181818;stroke-width:1.0;" width="10" x="621" y="456.4434"/><rect fill="#FFFFFF" height="522.9473" style="stroke:#181818;stroke-width:1.0;" width="10" x="1225" y="487.7344"/><rect fill="#FFFFFF" height="31.291" style="stroke:#181818;stroke-width:1.0;" width="10" x="1433" y="519.0254"/><rect fill="#FFFFFF" height="103.1641" style="stroke:#181818;stroke-width:1.0;" width="10" x="1433" y="581.6074"/><rect fill="#FFFFFF" height="31.291" style="stroke:#181818;stroke-width:1.0;" width="10" x="1544" y="716.0625"/><rect fill="#FFFFFF" height="75.582" style="stroke:#181818;stroke-width:1.0;" width="10" x="1686" y="903.8086"/><rect fill="#FFFFFF" height="93.873" style="stroke:#181818;stroke-width:1.0;" width="10" x="1851" y="778.6445"/><rect fill="#FFFFFF" height="31.291" style="stroke:#181818;stroke-width:1.0;" width="10" x="2397" y="809.9355"/><line style="stroke:#181818;stroke-width:0.5;stroke-dasharray:5.0,5.0;" x1="80" x2="80" y1="83.6211" y2="1059.9727"/><line style="stroke:#181818;stroke-width:0.5;stroke-dasharray:5.0,5.0;" x1="625.5" x2="625.5" y1="83.6211" y2="1059.9727"/><line style="stroke:#181818;stroke-width:0.5;stroke-dasharray:5.0,5.0;" x1="1229.5" x2="1229.5" y1="283.1777" y2="1059.9727"/><line style="stroke:#181818;stroke-width:0.5;stroke-dasharray:5.0,5.0;" x1="1437.5" x2="1437.5" y1="83.6211" y2="1059.9727"/><line style="stroke:#181818;stroke-width:0.5;stroke-dasharray:5.0,5.0;" x1="1548.5" x2="1548.5" y1="83.6211" y2="1059.9727"/><line style="stroke:#181818;stroke-width:0.5;stroke-dasharray:5.0,5.0;" x1="1690.5" x2="1690.5" y1="83.6211" y2="1059.9727"/><line style="stroke:#181818;stroke-width:0.5;stroke-dasharray:5.0,5.0;" x1="1856" x2="1856" y1="83.6211" y2="1059.9727"/><line style="stroke:#181818;stroke-width:0.5;stroke-dasharray:5.0,5.0;" x1="1996" x2="1996" y1="83.6211" y2="1059.9727"/><line style="stroke:#181818;stroke-width:0.5;stroke-dasharray:5.0,5.0;" x1="2142" x2="2142" y1="83.6211" y2="1059.9727"/><line style="stroke:#181818;stroke-width:0.5;stroke-dasharray:5.0,5.0;" x1="2402" x2="2402" y1="83.6211" y2="1059.9727"/><text fill="#000000" font-family="sans-serif" font-size="14" lengthAdjust="spacing" textLength="144" x="5" y="80.1074">Green Space Manager</text><ellipse cx="80" cy="13.5" fill="#E3E3E3" rx="8" ry="8" style="stroke:#181818;stroke-width:0.5;"/><path d="M80,21.5 L80,48.5 M67,29.5 L93,29.5 M80,48.5 L67,63.5 M80,48.5 L93,63.5 " fill="none" style="stroke:#181818;stroke-width:0.5;"/><text fill="#000000" font-family="sans-serif" font-size="14" lengthAdjust="spacing" textLength="144" x="5" y="1074.0801">Green Space Manager</text><ellipse cx="80" cy="1086.0938" fill="#E3E3E3" rx="8" ry="8" style="stroke:#181818;stroke-width:0.5;"/><path d="M80,1094.0938 L80,1121.0938 M67,1102.0938 L93,1102.0938 M80,1121.0938 L67,1136.0938 M80,1121.0938 L93,1136.0938 " fill="none" style="stroke:#181818;stroke-width:0.5;"/><rect fill="#E3E3E3" height="32.6211" rx="2.5" ry="2.5" style="stroke:#181818;stroke-width:0.5;" width="157" x="547.5" y="50"/><text fill="#000000" font-family="sans-serif" font-size="14" lengthAdjust="spacing" textLength="143" x="554.5" y="72.1074">: CreateGreenSpaceUI</text><rect fill="#E3E3E3" height="32.6211" rx="2.5" ry="2.5" style="stroke:#181818;stroke-width:0.5;" width="157" x="547.5" y="1058.9727"/><text fill="#000000" font-family="sans-serif" font-size="14" lengthAdjust="spacing" textLength="143" x="554.5" y="1081.0801">: CreateGreenSpaceUI</text><rect fill="#E3E3E3" height="32.6211" rx="2.5" ry="2.5" style="stroke:#181818;stroke-width:0.5;" width="207" x="1126.5" y="1058.9727"/><text fill="#000000" font-family="sans-serif" font-size="14" lengthAdjust="spacing" textLength="193" x="1133.5" y="1081.0801">: CreateGreenSpaceController</text><rect fill="#E3E3E3" height="32.6211" rx="2.5" ry="2.5" style="stroke:#181818;stroke-width:0.5;" width="101" x="1387.5" y="50"/><text fill="#000000" font-family="sans-serif" font-size="14" lengthAdjust="spacing" textLength="87" x="1394.5" y="72.1074">: Repositories</text><rect fill="#E3E3E3" height="32.6211" rx="2.5" ry="2.5" style="stroke:#181818;stroke-width:0.5;" width="101" x="1387.5" y="1058.9727"/><text fill="#000000" font-family="sans-serif" font-size="14" lengthAdjust="spacing" textLength="87" x="1394.5" y="1081.0801">: Repositories</text><rect fill="#E3E3E3" height="51.2422" rx="2.5" ry="2.5" style="stroke:#181818;stroke-width:0.5;" width="101" x="1498.5" y="31.3789"/><text fill="#000000" font-family="sans-serif" font-size="14" lengthAdjust="spacing" textLength="74" x="1512" y="53.4863">repositories</text><text fill="#000000" font-family="sans-serif" font-size="14" lengthAdjust="spacing" textLength="87" x="1505.5" y="72.1074">: Repositories</text><rect fill="#E3E3E3" height="51.2422" rx="2.5" ry="2.5" style="stroke:#181818;stroke-width:0.5;" width="101" x="1498.5" y="1058.9727"/><text fill="#000000" font-family="sans-serif" font-size="14" lengthAdjust="spacing" textLength="74" x="1512" y="1081.0801">repositories</text><text fill="#000000" font-family="sans-serif" font-size="14" lengthAdjust="spacing" textLength="87" x="1505.5" y="1099.7012">: Repositories</text><rect fill="#E3E3E3" height="51.2422" rx="2.5" ry="2.5" style="stroke:#181818;stroke-width:0.5;" width="163" x="1609.5" y="31.3789"/><text fill="#000000" font-family="sans-serif" font-size="14" lengthAdjust="spacing" textLength="149" x="1616.5" y="53.4863">greenSpaceRepository:</text><text fill="#000000" font-family="sans-serif" font-size="14" lengthAdjust="spacing" textLength="148" x="1617" y="72.1074">GreenSpaceRepository</text><rect fill="#E3E3E3" height="51.2422" rx="2.5" ry="2.5" style="stroke:#181818;stroke-width:0.5;" width="163" x="1609.5" y="1058.9727"/><text fill="#000000" font-family="sans-serif" font-size="14" lengthAdjust="spacing" textLength="149" x="1616.5" y="1081.0801">greenSpaceRepository:</text><text fill="#000000" font-family="sans-serif" font-size="14" lengthAdjust="spacing" textLength="148" x="1617" y="1099.7012">GreenSpaceRepository</text><rect fill="#E3E3E3" height="51.2422" rx="2.5" ry="2.5" style="stroke:#181818;stroke-width:0.5;" width="84" x="1814" y="31.3789"/><text fill="#000000" font-family="sans-serif" font-size="14" lengthAdjust="spacing" textLength="61" x="1825.5" y="53.4863">employee</text><text fill="#000000" font-family="sans-serif" font-size="14" lengthAdjust="spacing" textLength="70" x="1821" y="72.1074">: Employee</text><rect fill="#E3E3E3" height="51.2422" rx="2.5" ry="2.5" style="stroke:#181818;stroke-width:0.5;" width="84" x="1814" y="1058.9727"/><text fill="#000000" font-family="sans-serif" font-size="14" lengthAdjust="spacing" textLength="61" x="1825.5" y="1081.0801">employee</text><text fill="#000000" font-family="sans-serif" font-size="14" lengthAdjust="spacing" textLength="70" x="1821" y="1099.7012">: Employee</text><rect fill="#E3E3E3" height="51.2422" rx="2.5" ry="2.5" style="stroke:#181818;stroke-width:0.5;" width="176" x="1908" y="31.3789"/><text fill="#000000" font-family="sans-serif" font-size="14" lengthAdjust="spacing" textLength="157" x="1917.5" y="53.4863">authenticationRepository</text><text fill="#000000" font-family="sans-serif" font-size="14" lengthAdjust="spacing" textLength="162" x="1915" y="72.1074">:AuthenticationRepository</text><rect fill="#E3E3E3" height="51.2422" rx="2.5" ry="2.5" style="stroke:#181818;stroke-width:0.5;" width="176" x="1908" y="1058.9727"/><text fill="#000000" font-family="sans-serif" font-size="14" lengthAdjust="spacing" textLength="157" x="1917.5" y="1081.0801">authenticationRepository</text><text fill="#000000" font-family="sans-serif" font-size="14" lengthAdjust="spacing" textLength="162" x="1915" y="1099.7012">:AuthenticationRepository</text><rect fill="#E3E3E3" height="51.2422" rx="2.5" ry="2.5" style="stroke:#181818;stroke-width:0.5;" width="97" x="2094" y="31.3789"/><text fill="#000000" font-family="sans-serif" font-size="14" lengthAdjust="spacing" textLength="78" x="2103.5" y="53.4863">userSession</text><text fill="#000000" font-family="sans-serif" font-size="14" lengthAdjust="spacing" textLength="83" x="2101" y="72.1074">:UserSessoin</text><rect fill="#E3E3E3" height="51.2422" rx="2.5" ry="2.5" style="stroke:#181818;stroke-width:0.5;" width="97" x="2094" y="1058.9727"/><text fill="#000000" font-family="sans-serif" font-size="14" lengthAdjust="spacing" textLength="78" x="2103.5" y="1081.0801">userSession</text><text fill="#000000" font-family="sans-serif" font-size="14" lengthAdjust="spacing" textLength="83" x="2101" y="1099.7012">:UserSessoin</text><rect fill="#E3E3E3" height="32.6211" rx="2.5" ry="2.5" style="stroke:#181818;stroke-width:0.5;" width="102" x="2351" y="50"/><text fill="#000000" font-family="sans-serif" font-size="14" lengthAdjust="spacing" textLength="88" x="2358" y="72.1074">: GreenSpace</text><rect fill="#E3E3E3" height="32.6211" rx="2.5" ry="2.5" style="stroke:#181818;stroke-width:0.5;" width="102" x="2351" y="1058.9727"/><text fill="#000000" font-family="sans-serif" font-size="14" lengthAdjust="spacing" textLength="88" x="2358" y="1081.0801">: GreenSpace</text><rect fill="#FFFFFF" height="948.3516" style="stroke:#181818;stroke-width:1.0;" width="10" x="75" y="93.6211"/><rect fill="#FFFFFF" height="74.9121" style="stroke:#181818;stroke-width:1.0;" width="10" x="621" y="243.3672"/><rect fill="#FFFFFF" height="75.582" style="stroke:#181818;stroke-width:1.0;" width="10" x="621" y="349.5703"/><rect fill="#FFFFFF" height="585.5293" style="stroke:#181818;stroke-width:1.0;" width="10" x="621" y="456.4434"/><rect fill="#FFFFFF" height="522.9473" style="stroke:#181818;stroke-width:1.0;" width="10" x="1225" y="487.7344"/><rect fill="#FFFFFF" height="31.291" style="stroke:#181818;stroke-width:1.0;" width="10" x="1433" y="519.0254"/><rect fill="#FFFFFF" height="103.1641" style="stroke:#181818;stroke-width:1.0;" width="10" x="1433" y="581.6074"/><rect fill="#FFFFFF" height="31.291" style="stroke:#181818;stroke-width:1.0;" width="10" x="1544" y="716.0625"/><rect fill="#FFFFFF" height="75.582" style="stroke:#181818;stroke-width:1.0;" width="10" x="1686" y="903.8086"/><rect fill="#FFFFFF" height="93.873" style="stroke:#181818;stroke-width:1.0;" width="10" x="1851" y="778.6445"/><rect fill="#FFFFFF" height="31.291" style="stroke:#181818;stroke-width:1.0;" width="10" x="2397" y="809.9355"/><path d="M90,98.6211 L90,159.6211 L358,159.6211 L358,108.6211 L348,98.6211 L90,98.6211 " fill="#FAFAFA" style="stroke:#181818;stroke-width:0.5;"/><path d="M348,98.6211 L348,108.6211 L358,108.6211 L348,98.6211 " fill="#FAFAFA" style="stroke:#181818;stroke-width:0.5;"/><text fill="#000000" font-family="sans-serif" font-size="13" lengthAdjust="spacing" textLength="247" x="96" y="117.6494">- The user is already logged in at this step.</text><text fill="#000000" font-family="sans-serif" font-size="13" lengthAdjust="spacing" textLength="238" x="96" y="134.9404">- Authentication sequence is explained in</text><text fill="#000000" font-family="sans-serif" font-size="13" lengthAdjust="spacing" textLength="118" x="96" y="152.2314">a sequence excerpt.</text><path d="M1443,170.4941 L1443,214.4941 L1540,214.4941 L1540,180.4941 L1530,170.4941 L1443,170.4941 " fill="#FAFAFA" style="stroke:#181818;stroke-width:0.5;"/><path d="M1530,170.4941 L1530,180.4941 L1540,180.4941 L1530,170.4941 " fill="#FAFAFA" style="stroke:#181818;stroke-width:0.5;"/><text fill="#000000" font-family="sans-serif" font-size="13" lengthAdjust="spacing" textLength="76" x="1449" y="189.5225">- Singleton is</text><text fill="#000000" font-family="sans-serif" font-size="13" lengthAdjust="spacing" textLength="35" x="1449" y="206.8135">in use</text><polygon fill="#181818" points="609,239.3672,619,243.3672,609,247.3672,613,243.3672" style="stroke:#181818;stroke-width:1.0;"/><line style="stroke:#181818;stroke-width:1.0;" x1="85" x2="615" y1="243.3672" y2="243.3672"/><text fill="#000000" font-family="sans-serif" font-size="13" font-weight="bold" lengthAdjust="spacing" textLength="7" x="92" y="238.1045">1</text><text fill="#000000" font-family="sans-serif" font-size="13" lengthAdjust="spacing" textLength="197" x="103" y="238.1045">asks to create a new GreenSpace</text><polygon fill="#181818" points="1114.5,270.6582,1124.5,274.6582,1114.5,278.6582,1118.5,274.6582" style="stroke:#181818;stroke-width:1.0;"/><line style="stroke:#181818;stroke-width:1.0;" x1="631" x2="1120.5" y1="274.6582" y2="274.6582"/><text fill="#000000" font-family="sans-serif" font-size="13" font-weight="bold" lengthAdjust="spacing" textLength="7" x="638" y="269.3955">2</text><text fill="#000000" font-family="sans-serif" font-size="13" lengthAdjust="spacing" textLength="36" x="649" y="269.3955">create</text><rect fill="#E3E3E3" height="32.6211" rx="2.5" ry="2.5" style="stroke:#181818;stroke-width:0.5;" width="207" x="1126.5" y="251.3672"/><text fill="#000000" font-family="sans-serif" font-size="14" lengthAdjust="spacing" textLength="193" x="1133.5" y="273.4746">: CreateGreenSpaceController</text><polygon fill="#181818" points="96,314.2793,86,318.2793,96,322.2793,92,318.2793" style="stroke:#181818;stroke-width:1.0;"/><line style="stroke:#181818;stroke-width:1.0;stroke-dasharray:2.0,2.0;" x1="90" x2="625" y1="318.2793" y2="318.2793"/><text fill="#000000" font-family="sans-serif" font-size="13" font-weight="bold" lengthAdjust="spacing" textLength="7" x="102" y="313.0166">3</text><text fill="#000000" font-family="sans-serif" font-size="13" lengthAdjust="spacing" textLength="501" x="113" y="313.0166">requestData (greenSpaceName, greenSpaceArea, greenSpaceClassification, manager)</text><polygon fill="#181818" points="609,345.5703,619,349.5703,609,353.5703,613,349.5703" style="stroke:#181818;stroke-width:1.0;"/><line style="stroke:#181818;stroke-width:1.0;" x1="85" x2="615" y1="349.5703" y2="349.5703"/><text fill="#000000" font-family="sans-serif" font-size="13" font-weight="bold" lengthAdjust="spacing" textLength="7" x="92" y="344.3076">4</text><text fill="#000000" font-family="sans-serif" font-size="13" lengthAdjust="spacing" textLength="122" x="103" y="344.3076">types requested data</text><line style="stroke:#181818;stroke-width:1.0;" x1="631" x2="673" y1="385.8613" y2="385.8613"/><line style="stroke:#181818;stroke-width:1.0;" x1="673" x2="673" y1="385.8613" y2="398.8613"/><line style="stroke:#181818;stroke-width:1.0;" x1="626" x2="673" y1="398.8613" y2="398.8613"/><polygon fill="#181818" points="636,394.8613,626,398.8613,636,402.8613,632,398.8613" style="stroke:#181818;stroke-width:1.0;"/><text fill="#000000" font-family="sans-serif" font-size="13" font-weight="bold" lengthAdjust="spacing" textLength="7" x="638" y="380.5986">5</text><text fill="#000000" font-family="sans-serif" font-size="13" lengthAdjust="spacing" textLength="569" x="649" y="380.5986">validateGreenSpaceData(greenSpaceName, greenSpaceArea, greenSpaceClassification, manager)</text><polygon fill="#181818" points="96,421.1523,86,425.1523,96,429.1523,92,425.1523" style="stroke:#181818;stroke-width:1.0;"/><line style="stroke:#181818;stroke-width:1.0;stroke-dasharray:2.0,2.0;" x1="90" x2="625" y1="425.1523" y2="425.1523"/><text fill="#000000" font-family="sans-serif" font-size="13" font-weight="bold" lengthAdjust="spacing" textLength="7" x="102" y="419.8896">6</text><text fill="#000000" font-family="sans-serif" font-size="13" lengthAdjust="spacing" textLength="299" x="113" y="419.8896">shows Green Space data and requests confirmation</text><polygon fill="#181818" points="609,452.4434,619,456.4434,609,460.4434,613,456.4434" style="stroke:#181818;stroke-width:1.0;"/><line style="stroke:#181818;stroke-width:1.0;" x1="85" x2="615" y1="456.4434" y2="456.4434"/><text fill="#000000" font-family="sans-serif" font-size="13" font-weight="bold" lengthAdjust="spacing" textLength="7" x="92" y="451.1807">7</text><text fill="#000000" font-family="sans-serif" font-size="13" lengthAdjust="spacing" textLength="78" x="103" y="451.1807">confirms data</text><polygon fill="#181818" points="1213,483.7344,1223,487.7344,1213,491.7344,1217,487.7344" style="stroke:#181818;stroke-width:1.0;"/><line style="stroke:#181818;stroke-width:1.0;" x1="631" x2="1219" y1="487.7344" y2="487.7344"/><text fill="#000000" font-family="sans-serif" font-size="13" font-weight="bold" lengthAdjust="spacing" textLength="7" x="638" y="482.4717">8</text><text fill="#000000" font-family="sans-serif" font-size="13" lengthAdjust="spacing" textLength="535" x="649" y="482.4717">createGreenSpace(greenSpaceName, greenSpaceArea, greenSpaceClassification, manager)</text><polygon fill="#181818" points="1421,515.0254,1431,519.0254,1421,523.0254,1425,519.0254" style="stroke:#181818;stroke-width:1.0;"/><line style="stroke:#181818;stroke-width:1.0;" x1="1235" x2="1427" y1="519.0254" y2="519.0254"/><text fill="#000000" font-family="sans-serif" font-size="13" font-weight="bold" lengthAdjust="spacing" textLength="7" x="1242" y="513.7627">9</text><text fill="#000000" font-family="sans-serif" font-size="13" lengthAdjust="spacing" textLength="75" x="1253" y="513.7627">getInstance()</text><polygon fill="#181818" points="1246,546.3164,1236,550.3164,1246,554.3164,1242,550.3164" style="stroke:#181818;stroke-width:1.0;"/><line style="stroke:#181818;stroke-width:1.0;stroke-dasharray:2.0,2.0;" x1="1240" x2="1437" y1="550.3164" y2="550.3164"/><text fill="#000000" font-family="sans-serif" font-size="13" font-weight="bold" lengthAdjust="spacing" textLength="14" x="1252" y="545.0537">10</text><text fill="#000000" font-family="sans-serif" font-size="13" lengthAdjust="spacing" textLength="67" x="1270" y="545.0537">repositories</text><polygon fill="#181818" points="1421,577.6074,1431,581.6074,1421,585.6074,1425,581.6074" style="stroke:#181818;stroke-width:1.0;"/><line style="stroke:#181818;stroke-width:1.0;" x1="1235" x2="1427" y1="581.6074" y2="581.6074"/><text fill="#000000" font-family="sans-serif" font-size="13" font-weight="bold" lengthAdjust="spacing" textLength="14" x="1242" y="576.3447">11</text><text fill="#000000" font-family="sans-serif" font-size="13" lengthAdjust="spacing" textLength="161" x="1260" y="576.3447">getEmployeeFromSession()</text><path d="M1240,594.6074 L1240,655.6074 L1413,655.6074 L1413,604.6074 L1403,594.6074 L1240,594.6074 " fill="#FAFAFA" style="stroke:#181818;stroke-width:0.5;"/><path d="M1403,594.6074 L1403,604.6074 L1413,604.6074 L1403,594.6074 " fill="#FAFAFA" style="stroke:#181818;stroke-width:0.5;"/><text fill="#000000" font-family="sans-serif" font-size="13" lengthAdjust="spacing" textLength="152" x="1246" y="613.6357">- This method is explained</text><text fill="#000000" font-family="sans-serif" font-size="13" lengthAdjust="spacing" textLength="124" x="1250" y="630.9268">in detail in an excerpt</text><text fill="#000000" font-family="sans-serif" font-size="13" lengthAdjust="spacing" textLength="110" x="1250" y="648.2178">sequence diagram.</text><polygon fill="#181818" points="1246,680.7715,1236,684.7715,1246,688.7715,1242,684.7715" style="stroke:#181818;stroke-width:1.0;"/><line style="stroke:#181818;stroke-width:1.0;stroke-dasharray:2.0,2.0;" x1="1240" x2="1437" y1="684.7715" y2="684.7715"/><text fill="#000000" font-family="sans-serif" font-size="13" font-weight="bold" lengthAdjust="spacing" textLength="14" x="1252" y="679.5088">12</text><text fill="#000000" font-family="sans-serif" font-size="13" lengthAdjust="spacing" textLength="56" x="1270" y="679.5088">employee</text><polygon fill="#181818" points="1532,712.0625,1542,716.0625,1532,720.0625,1536,716.0625" style="stroke:#181818;stroke-width:1.0;"/><line style="stroke:#181818;stroke-width:1.0;stroke-dasharray:2.0,2.0;" x1="1235" x2="1538" y1="716.0625" y2="716.0625"/><text fill="#000000" font-family="sans-serif" font-size="13" font-weight="bold" lengthAdjust="spacing" textLength="14" x="1242" y="710.7998">13</text><text fill="#000000" font-family="sans-serif" font-size="13" lengthAdjust="spacing" textLength="160" x="1260" y="710.7998">getGreenSpaceRepository()</text><polygon fill="#181818" points="1246,743.3535,1236,747.3535,1246,751.3535,1242,747.3535" style="stroke:#181818;stroke-width:1.0;"/><line style="stroke:#181818;stroke-width:1.0;stroke-dasharray:2.0,2.0;" x1="1240" x2="1548" y1="747.3535" y2="747.3535"/><text fill="#000000" font-family="sans-serif" font-size="13" font-weight="bold" lengthAdjust="spacing" textLength="14" x="1252" y="742.0908">14</text><text fill="#000000" font-family="sans-serif" font-size="13" lengthAdjust="spacing" textLength="131" x="1270" y="742.0908">greenSpaceRepository</text><polygon fill="#181818" points="1839,774.6445,1849,778.6445,1839,782.6445,1843,778.6445" style="stroke:#181818;stroke-width:1.0;"/><line style="stroke:#181818;stroke-width:1.0;" x1="1235" x2="1845" y1="778.6445" y2="778.6445"/><text fill="#000000" font-family="sans-serif" font-size="13" font-weight="bold" lengthAdjust="spacing" textLength="14" x="1242" y="773.3818">15</text><text fill="#000000" font-family="sans-serif" font-size="13" lengthAdjust="spacing" textLength="535" x="1260" y="773.3818">createGreenSpace(greenSpaceName, greenSpaceArea, greenSpaceClassification, manager)</text><polygon fill="#181818" points="2385,805.9355,2395,809.9355,2385,813.9355,2389,809.9355" style="stroke:#181818;stroke-width:1.0;"/><line style="stroke:#181818;stroke-width:1.0;" x1="1861" x2="2391" y1="809.9355" y2="809.9355"/><text fill="#000000" font-family="sans-serif" font-size="13" font-weight="bold" lengthAdjust="spacing" textLength="14" x="1868" y="804.6729">16</text><text fill="#000000" font-family="sans-serif" font-size="13" lengthAdjust="spacing" textLength="499" x="1886" y="804.6729">GreenSpace(greenSpaceName, greenSpaceArea, greenSpaceClassification, manager)</text><polygon fill="#181818" points="1872,837.2266,1862,841.2266,1872,845.2266,1868,841.2266" style="stroke:#181818;stroke-width:1.0;"/><line style="stroke:#181818;stroke-width:1.0;stroke-dasharray:2.0,2.0;" x1="1866" x2="2401" y1="841.2266" y2="841.2266"/><text fill="#000000" font-family="sans-serif" font-size="13" font-weight="bold" lengthAdjust="spacing" textLength="14" x="1878" y="835.9639">17</text><text fill="#000000" font-family="sans-serif" font-size="13" lengthAdjust="spacing" textLength="95" x="1896" y="835.9639">newGreenSpace</text><polygon fill="#181818" points="1246,868.5176,1236,872.5176,1246,876.5176,1242,872.5176" style="stroke:#181818;stroke-width:1.0;"/><line style="stroke:#181818;stroke-width:1.0;stroke-dasharray:2.0,2.0;" x1="1240" x2="1855" y1="872.5176" y2="872.5176"/><text fill="#000000" font-family="sans-serif" font-size="13" font-weight="bold" lengthAdjust="spacing" textLength="14" x="1252" y="867.2549">18</text><text fill="#000000" font-family="sans-serif" font-size="13" lengthAdjust="spacing" textLength="95" x="1270" y="867.2549">newGreenSpace</text><polygon fill="#181818" points="1674,899.8086,1684,903.8086,1674,907.8086,1678,903.8086" style="stroke:#181818;stroke-width:1.0;"/><line style="stroke:#181818;stroke-width:1.0;" x1="1235" x2="1680" y1="903.8086" y2="903.8086"/><text fill="#000000" font-family="sans-serif" font-size="13" font-weight="bold" lengthAdjust="spacing" textLength="14" x="1242" y="898.5459">19</text><text fill="#000000" font-family="sans-serif" font-size="13" lengthAdjust="spacing" textLength="170" x="1260" y="898.5459">addGreenSpace(greenSpace)</text><line style="stroke:#181818;stroke-width:1.0;" x1="1696" x2="1738" y1="935.0996" y2="935.0996"/><line style="stroke:#181818;stroke-width:1.0;" x1="1738" x2="1738" y1="935.0996" y2="948.0996"/><line style="stroke:#181818;stroke-width:1.0;" x1="1697" x2="1738" y1="948.0996" y2="948.0996"/><polygon fill="#181818" points="1707,944.0996,1697,948.0996,1707,952.0996,1703,948.0996" style="stroke:#181818;stroke-width:1.0;"/><text fill="#000000" font-family="sans-serif" font-size="13" font-weight="bold" lengthAdjust="spacing" textLength="14" x="1703" y="929.8369">20</text><text fill="#000000" font-family="sans-serif" font-size="13" lengthAdjust="spacing" textLength="123" x="1721" y="929.8369">validateGreenSpace()</text><polygon fill="#181818" points="1246,975.3906,1236,979.3906,1246,983.3906,1242,979.3906" style="stroke:#181818;stroke-width:1.0;"/><line style="stroke:#181818;stroke-width:1.0;stroke-dasharray:2.0,2.0;" x1="1240" x2="1690" y1="979.3906" y2="979.3906"/><text fill="#000000" font-family="sans-serif" font-size="13" font-weight="bold" lengthAdjust="spacing" textLength="14" x="1252" y="974.1279">21</text><text fill="#000000" font-family="sans-serif" font-size="13" lengthAdjust="spacing" textLength="95" x="1270" y="974.1279">newGreenSpace</text><polygon fill="#181818" points="642,1006.6816,632,1010.6816,642,1014.6816,638,1010.6816" style="stroke:#181818;stroke-width:1.0;"/><line style="stroke:#181818;stroke-width:1.0;stroke-dasharray:2.0,2.0;" x1="636" x2="1229" y1="1010.6816" y2="1010.6816"/><text fill="#000000" font-family="sans-serif" font-size="13" font-weight="bold" lengthAdjust="spacing" textLength="14" x="648" y="1005.4189">22</text><text fill="#000000" font-family="sans-serif" font-size="13" lengthAdjust="spacing" textLength="95" x="666" y="1005.4189">newGreenSpace</text><polygon fill="#181818" points="91,1037.9727,81,1041.9727,91,1045.9727,87,1041.9727" style="stroke:#181818;stroke-width:1.0;"/><line style="stroke:#181818;stroke-width:1.0;" x1="85" x2="625" y1="1041.9727" y2="1041.9727"/><text fill="#000000" font-family="sans-serif" font-size="13" font-weight="bold" lengthAdjust="spacing" textLength="14" x="97" y="1036.71">23</text><text fill="#000000" font-family="sans-serif" font-size="13" lengthAdjust="spacing" textLength="158" x="115" y="1036.71">displays operation success</text><!--SRC=[jLRDRjim3BxxAOXUkWvD7o270K7cPG7Qj8YJMu52jHbRg2rvbj8sRpzATcpPiPEiQtMA8_vy_4YHL2zSvAnW6MHIo30fP8QWYorwghx9MVZ2OWpqBaKeCDHCnAahe18MoJSkOjYmLA7diQsMOfizO-5vbmcF43PIwcVvJbUXbWLSp0f40G6PHhXZWimN5y0Kp88xZung7lAS2GqNOvWMo3HQ1Ik_dbl9zVoKu5GANSWqhKnFLylRhieISwau8UAehD3zSlOKp1UpMtzrlsXB5uxienZGdI-2rMGnzTkgSOsfLjgD7yMiv- -IXQNlBuA7oTH_MleFzmDMCSjJkKCqOFpgjrM_MyoMRL5AI8A2lfdcKZJUI7KoS6KjJTQhtnP2sznMOH6WKgH05jRLb-IYp4omV0hy89Xt6Hn34t4dJi_pXDHKNZnEDCYDBGIWCu9LWc0S0bV0Kifnj8DKnZ56m0Km3JgX6wKnlwaqsY61mZzR55He98RlUSguiBfMcZNN-1vYaUiR3qK41aqNKxiuIby1Du-1ofsisxy84w5rR9YIvwzKcJOcAsCEVS3e1vKnZ8cA5mLQGcWhc309V7EuQfHgKrJzu9pBIjFMk7j1vic9-VlxTt9KYda78YHZy8pfUHCPIlzaci6tfcmNBCDhQBudPCVzdgQCgc5JCNuDMVcahsf74RhGUqdGknpL7W0bA28C_P7tH6WjlBAKHwqMOEBuZ31Q7frOBD_3RAf4lYbmUvq92XZLHXMdWb2A3Iyowz4xnLUNiqfP_HjP1dLT30rPdq9KozqHdionE0XFwrqHi1ZrN2WQCuJfwb2jjjf-ZmTovhHDZvhWtMv-gEhGVyB9aHZsFVaN3TMgM_Q5qptjddFmeeUEQPJKu3BKYOnQhUuiTTEt8jICfxQhYdqtF4-vxg4HPp6j13SdrPh- -D7q3gPsFnV_FwrLNlVZjqnhtzG-MQRr1EyDetRWHD6tCvoCQDZDlaxDRl1LRt-G0RkG75nRAAPNrbi0k1l2rq9oLu-ka0Der516Cxbl9FTaufZjCkWcpUTRxITndzUXbT5i5r7Ko-fvz7Gsq2DaTHmV1tKug_lUqB3nZp1uNb3rqxSJTi3wu0vGJjXo_4TSKGlUAP0v5jKkkWr36WMbV6V8kqXfK_mB]--></g></svg>