<?xml version="1.0" encoding="us-ascii" standalone="no"?><svg xmlns="http://www.w3.org/2000/svg" xmlns:xlink="http://www.w3.org/1999/xlink" contentStyleType="text/css" height="1552px" preserveAspectRatio="none" style="width:890px;height:1552px;background:#FFFFFF;" version="1.1" viewBox="0 0 890 1552" width="890px" zoomAndPan="magnify"><defs/><g><!--cluster Controller--><g id="cluster_Controller"><path d="M292.5,270.0137 L364.5,270.0137 A3.75,3.75 0 0 1 367,272.5137 L374,294.6348 L697.5,294.6348 A2.5,2.5 0 0 1 700,297.1348 L700,424.5137 A2.5,2.5 0 0 1 697.5,427.0137 L292.5,427.0137 A2.5,2.5 0 0 1 290,424.5137 L290,272.5137 A2.5,2.5 0 0 1 292.5,270.0137 " fill="none" style="stroke:#000000;stroke-width:1.5;"/><line style="stroke:#000000;stroke-width:1.5;" x1="290" x2="374" y1="294.6348" y2="294.6348"/><text fill="#000000" font-family="sans-serif" font-size="14" font-weight="bold" lengthAdjust="spacing" textLength="71" x="294" y="287.1211">Controller</text></g><!--cluster UI--><g id="cluster_UI"><path d="M197.5,6.0137 L212.5,6.0137 A3.75,3.75 0 0 1 215,8.5137 L222,30.6348 L792.5,30.6348 A2.5,2.5 0 0 1 795,33.1348 L795,234.5137 A2.5,2.5 0 0 1 792.5,237.0137 L197.5,237.0137 A2.5,2.5 0 0 1 195,234.5137 L195,8.5137 A2.5,2.5 0 0 1 197.5,6.0137 " fill="none" style="stroke:#000000;stroke-width:1.5;"/><line style="stroke:#000000;stroke-width:1.5;" x1="195" x2="222" y1="30.6348" y2="30.6348"/><text fill="#000000" font-family="sans-serif" font-size="14" font-weight="bold" lengthAdjust="spacing" textLength="14" x="199" y="23.1211">UI</text></g><!--cluster Repository--><g id="cluster_Repository"><path d="M8.5,478.0137 L85.5,478.0137 A3.75,3.75 0 0 1 88,480.5137 L95,502.6348 L681.5,502.6348 A2.5,2.5 0 0 1 684,505.1348 L684,908.5137 A2.5,2.5 0 0 1 681.5,911.0137 L8.5,911.0137 A2.5,2.5 0 0 1 6,908.5137 L6,480.5137 A2.5,2.5 0 0 1 8.5,478.0137 " fill="none" style="stroke:#000000;stroke-width:1.5;"/><line style="stroke:#000000;stroke-width:1.5;" x1="6" x2="95" y1="502.6348" y2="502.6348"/><text fill="#000000" font-family="sans-serif" font-size="14" font-weight="bold" lengthAdjust="spacing" textLength="76" x="10" y="495.1211">Repository</text></g><!--cluster Domain--><g id="cluster_Domain"><path d="M140.5,944.0137 L193.5,944.0137 A3.75,3.75 0 0 1 196,946.5137 L203,968.6348 L817.5,968.6348 A2.5,2.5 0 0 1 820,971.1348 L820,1542.5137 A2.5,2.5 0 0 1 817.5,1545.0137 L140.5,1545.0137 A2.5,2.5 0 0 1 138,1542.5137 L138,946.5137 A2.5,2.5 0 0 1 140.5,944.0137 " fill="none" style="stroke:#000000;stroke-width:1.5;"/><line style="stroke:#000000;stroke-width:1.5;" x1="138" x2="203" y1="968.6348" y2="968.6348"/><text fill="#000000" font-family="sans-serif" font-size="14" font-weight="bold" lengthAdjust="spacing" textLength="52" x="142" y="961.1211">Domain</text></g><!--class CreateGreenSpaceController--><g id="elem_CreateGreenSpaceController"><rect codeLine="12" fill="#F1F1F1" height="103.8633" id="CreateGreenSpaceController" rx="2.5" ry="2.5" style="stroke:#181818;stroke-width:0.5;" width="378" x="306" y="307.0137"/><ellipse cx="398.25" cy="323.0137" fill="#ADD1B2" rx="11" ry="11" style="stroke:#181818;stroke-width:1.0;"/><path d="M401.0156,318.8887 Q401.1719,318.6699 401.3594,318.5605 Q401.5469,318.4512 401.7656,318.4512 Q402.1406,318.4512 402.375,318.7168 Q402.6094,318.9668 402.6094,319.5762 L402.6094,321.0293 Q402.6094,321.6387 402.375,321.9043 Q402.1406,322.1699 401.7656,322.1699 Q401.4219,322.1699 401.2188,321.9668 Q401.0156,321.7793 400.9063,321.2637 Q400.8594,320.9043 400.6719,320.7168 Q400.3438,320.3418 399.7344,320.123 Q399.125,319.9043 398.5,319.9043 Q397.7344,319.9043 397.0938,320.2324 Q396.4688,320.5605 395.9688,321.3105 Q395.4844,322.0605 395.4844,323.0918 L395.4844,324.1855 Q395.4844,325.4199 396.375,326.248 Q397.2656,327.0605 398.8594,327.0605 Q399.7969,327.0605 400.4531,326.8105 Q400.8438,326.6543 401.2656,326.2168 Q401.5313,325.9512 401.6719,325.873 Q401.8281,325.7949 402.0313,325.7949 Q402.3594,325.7949 402.6094,326.0605 Q402.875,326.3105 402.875,326.6543 Q402.875,326.998 402.5313,327.4043 Q402.0313,327.9824 401.2344,328.3105 Q400.1563,328.7637 398.8594,328.7637 Q397.3438,328.7637 396.1406,328.1387 Q395.1563,327.6387 394.4688,326.5762 Q393.7813,325.498 393.7813,324.2168 L393.7813,323.0605 Q393.7813,321.7324 394.3906,320.5918 Q395.0156,319.4355 396.1094,318.8262 Q397.2031,318.2012 398.4375,318.2012 Q399.1719,318.2012 399.8125,318.373 Q400.4688,318.5293 401.0156,318.8887 Z " fill="#000000"/><text fill="#000000" font-family="sans-serif" font-size="14" lengthAdjust="spacing" textLength="185" x="418.75" y="328.8105">CreateGreenSpaceController</text><line style="stroke:#181818;stroke-width:0.5;" x1="307" x2="683" y1="339.0137" y2="339.0137"/><line style="stroke:#181818;stroke-width:0.5;" x1="307" x2="683" y1="347.0137" y2="347.0137"/><text fill="#000000" font-family="sans-serif" font-size="14" lengthAdjust="spacing" textLength="180" x="312" y="366.1211">-getEmployeeFromSession()</text><text fill="#000000" font-family="sans-serif" font-size="14" lengthAdjust="spacing" textLength="348" x="312" y="384.7422">+CreateGreenSpaceController(greenSpaceRepository)</text><text fill="#000000" font-family="sans-serif" font-size="14" lengthAdjust="spacing" textLength="366" x="312" y="403.3633">+createGreenSpace(greenSpaceName, greenSpaceArea)</text></g><!--class CreateGreenSpaceUI--><g id="elem_CreateGreenSpaceUI"><rect codeLine="20" fill="#F1F1F1" height="178.3477" id="CreateGreenSpaceUI" rx="2.5" ry="2.5" style="stroke:#181818;stroke-width:0.5;" width="568" x="211" y="43.0137"/><ellipse cx="423.25" cy="59.0137" fill="#ADD1B2" rx="11" ry="11" style="stroke:#181818;stroke-width:1.0;"/><path d="M426.0156,54.8887 Q426.1719,54.6699 426.3594,54.5605 Q426.5469,54.4512 426.7656,54.4512 Q427.1406,54.4512 427.375,54.7168 Q427.6094,54.9668 427.6094,55.5762 L427.6094,57.0293 Q427.6094,57.6387 427.375,57.9043 Q427.1406,58.1699 426.7656,58.1699 Q426.4219,58.1699 426.2188,57.9668 Q426.0156,57.7793 425.9063,57.2637 Q425.8594,56.9043 425.6719,56.7168 Q425.3438,56.3418 424.7344,56.123 Q424.125,55.9043 423.5,55.9043 Q422.7344,55.9043 422.0938,56.2324 Q421.4688,56.5605 420.9688,57.3105 Q420.4844,58.0605 420.4844,59.0918 L420.4844,60.1855 Q420.4844,61.4199 421.375,62.248 Q422.2656,63.0605 423.8594,63.0605 Q424.7969,63.0605 425.4531,62.8105 Q425.8438,62.6543 426.2656,62.2168 Q426.5313,61.9512 426.6719,61.873 Q426.8281,61.7949 427.0313,61.7949 Q427.3594,61.7949 427.6094,62.0605 Q427.875,62.3105 427.875,62.6543 Q427.875,62.998 427.5313,63.4043 Q427.0313,63.9824 426.2344,64.3105 Q425.1563,64.7637 423.8594,64.7637 Q422.3438,64.7637 421.1406,64.1387 Q420.1563,63.6387 419.4688,62.5762 Q418.7813,61.498 418.7813,60.2168 L418.7813,59.0605 Q418.7813,57.7324 419.3906,56.5918 Q420.0156,55.4355 421.1094,54.8262 Q422.2031,54.2012 423.4375,54.2012 Q424.1719,54.2012 424.8125,54.373 Q425.4688,54.5293 426.0156,54.8887 Z " fill="#000000"/><text fill="#000000" font-family="sans-serif" font-size="14" lengthAdjust="spacing" textLength="135" x="443.75" y="64.8105">CreateGreenSpaceUI</text><line style="stroke:#181818;stroke-width:0.5;" x1="212" x2="778" y1="75.0137" y2="75.0137"/><line style="stroke:#181818;stroke-width:0.5;" x1="212" x2="778" y1="83.0137" y2="83.0137"/><text fill="#000000" font-family="sans-serif" font-size="14" lengthAdjust="spacing" textLength="39" x="217" y="102.1211">+run()</text><text fill="#000000" font-family="sans-serif" font-size="14" lengthAdjust="spacing" textLength="556" x="217" y="120.7422">+requestData(greenSpaceName, greenSpaceArea, greenSpaceClassification, manager)</text><text fill="#000000" font-family="sans-serif" font-size="14" lengthAdjust="spacing" textLength="89" x="217" y="139.3633">+submitData()</text><text fill="#000000" font-family="sans-serif" font-size="14" lengthAdjust="spacing" textLength="176" x="217" y="157.9844">+requestGreenSpaceArea()</text><text fill="#000000" font-family="sans-serif" font-size="14" lengthAdjust="spacing" textLength="182" x="217" y="176.6055">+requestGreenSpaceName()</text><text fill="#000000" font-family="sans-serif" font-size="14" lengthAdjust="spacing" textLength="229" x="217" y="195.2266">+requestGreenSpaceClassification()</text><text fill="#000000" font-family="sans-serif" font-size="14" lengthAdjust="spacing" textLength="122" x="217" y="213.8477">+requestManager()</text></g><!--class Repositories--><g id="elem_Repositories"><rect codeLine="32" fill="#F1F1F1" height="196.9688" id="Repositories" rx="2.5" ry="2.5" style="stroke:#181818;stroke-width:0.5;" width="336" x="253" y="515.0137"/><ellipse cx="377.25" cy="531.0137" fill="#ADD1B2" rx="11" ry="11" style="stroke:#181818;stroke-width:1.0;"/><path d="M380.0156,526.8887 Q380.1719,526.6699 380.3594,526.5605 Q380.5469,526.4512 380.7656,526.4512 Q381.1406,526.4512 381.375,526.7168 Q381.6094,526.9668 381.6094,527.5762 L381.6094,529.0293 Q381.6094,529.6387 381.375,529.9043 Q381.1406,530.1699 380.7656,530.1699 Q380.4219,530.1699 380.2188,529.9668 Q380.0156,529.7793 379.9063,529.2637 Q379.8594,528.9043 379.6719,528.7168 Q379.3438,528.3418 378.7344,528.123 Q378.125,527.9043 377.5,527.9043 Q376.7344,527.9043 376.0938,528.2324 Q375.4688,528.5605 374.9688,529.3105 Q374.4844,530.0605 374.4844,531.0918 L374.4844,532.1855 Q374.4844,533.4199 375.375,534.248 Q376.2656,535.0605 377.8594,535.0605 Q378.7969,535.0605 379.4531,534.8105 Q379.8438,534.6543 380.2656,534.2168 Q380.5313,533.9512 380.6719,533.873 Q380.8281,533.7949 381.0313,533.7949 Q381.3594,533.7949 381.6094,534.0605 Q381.875,534.3105 381.875,534.6543 Q381.875,534.998 381.5313,535.4043 Q381.0313,535.9824 380.2344,536.3105 Q379.1563,536.7637 377.8594,536.7637 Q376.3438,536.7637 375.1406,536.1387 Q374.1563,535.6387 373.4688,534.5762 Q372.7813,533.498 372.7813,532.2168 L372.7813,531.0605 Q372.7813,529.7324 373.3906,528.5918 Q374.0156,527.4355 375.1094,526.8262 Q376.2031,526.2012 377.4375,526.2012 Q378.1719,526.2012 378.8125,526.373 Q379.4688,526.5293 380.0156,526.8887 Z " fill="#000000"/><text fill="#000000" font-family="sans-serif" font-size="14" lengthAdjust="spacing" textLength="79" x="397.75" y="536.8105">Repositories</text><line style="stroke:#181818;stroke-width:0.5;" x1="254" x2="588" y1="547.0137" y2="547.0137"/><text fill="#000000" font-family="sans-serif" font-size="14" lengthAdjust="spacing" textLength="141" x="259" y="566.1211">-instance:Repositories</text><text fill="#000000" font-family="sans-serif" font-size="14" lengthAdjust="spacing" textLength="302" x="259" y="584.7422">-greenSpaceRepository:GreenSpaceRepository</text><text fill="#000000" font-family="sans-serif" font-size="14" lengthAdjust="spacing" textLength="268" x="259" y="603.3633">-employeeRepository:EmployeeRepository</text><text fill="#000000" font-family="sans-serif" font-size="14" lengthAdjust="spacing" textLength="324" x="259" y="621.9844">-authenticationRepository:AuthenticationRepository</text><line style="stroke:#181818;stroke-width:0.5;" x1="254" x2="588" y1="629.498" y2="629.498"/><text fill="#000000" font-family="sans-serif" font-size="14" lengthAdjust="spacing" textLength="91" x="259" y="648.6055">+getInstance()</text><text fill="#000000" font-family="sans-serif" font-size="14" lengthAdjust="spacing" textLength="186" x="259" y="667.2266">+getGreenSpaceRepository()</text><text fill="#000000" font-family="sans-serif" font-size="14" lengthAdjust="spacing" textLength="168" x="259" y="685.8477">+getEmployeeRepository()</text><text fill="#000000" font-family="sans-serif" font-size="14" lengthAdjust="spacing" textLength="196" x="259" y="704.4688">+getAuthenticationRepository()</text></g><!--class GreenSpaceRepository--><g id="elem_GreenSpaceRepository"><rect codeLine="45" fill="#F1F1F1" height="103.8633" id="GreenSpaceRepository" rx="2.5" ry="2.5" style="stroke:#181818;stroke-width:0.5;" width="264" x="347" y="791.0137"/><ellipse cx="400.75" cy="807.0137" fill="#ADD1B2" rx="11" ry="11" style="stroke:#181818;stroke-width:1.0;"/><path d="M403.5156,802.8887 Q403.6719,802.6699 403.8594,802.5605 Q404.0469,802.4512 404.2656,802.4512 Q404.6406,802.4512 404.875,802.7168 Q405.1094,802.9668 405.1094,803.5762 L405.1094,805.0293 Q405.1094,805.6387 404.875,805.9043 Q404.6406,806.1699 404.2656,806.1699 Q403.9219,806.1699 403.7188,805.9668 Q403.5156,805.7793 403.4063,805.2637 Q403.3594,804.9043 403.1719,804.7168 Q402.8438,804.3418 402.2344,804.123 Q401.625,803.9043 401,803.9043 Q400.2344,803.9043 399.5938,804.2324 Q398.9688,804.5605 398.4688,805.3105 Q397.9844,806.0605 397.9844,807.0918 L397.9844,808.1855 Q397.9844,809.4199 398.875,810.248 Q399.7656,811.0605 401.3594,811.0605 Q402.2969,811.0605 402.9531,810.8105 Q403.3438,810.6543 403.7656,810.2168 Q404.0313,809.9512 404.1719,809.873 Q404.3281,809.7949 404.5313,809.7949 Q404.8594,809.7949 405.1094,810.0605 Q405.375,810.3105 405.375,810.6543 Q405.375,810.998 405.0313,811.4043 Q404.5313,811.9824 403.7344,812.3105 Q402.6563,812.7637 401.3594,812.7637 Q399.8438,812.7637 398.6406,812.1387 Q397.6563,811.6387 396.9688,810.5762 Q396.2813,809.498 396.2813,808.2168 L396.2813,807.0605 Q396.2813,805.7324 396.8906,804.5918 Q397.5156,803.4355 398.6094,802.8262 Q399.7031,802.2012 400.9375,802.2012 Q401.6719,802.2012 402.3125,802.373 Q402.9688,802.5293 403.5156,802.8887 Z " fill="#000000"/><text fill="#000000" font-family="sans-serif" font-size="14" lengthAdjust="spacing" textLength="148" x="421.25" y="812.8105">GreenSpaceRepository</text><line style="stroke:#181818;stroke-width:0.5;" x1="348" x2="610" y1="823.0137" y2="823.0137"/><line style="stroke:#181818;stroke-width:0.5;" x1="348" x2="610" y1="831.0137" y2="831.0137"/><text fill="#000000" font-family="sans-serif" font-size="14" lengthAdjust="spacing" textLength="125" x="353" y="850.1211">+getGreenSpaces()</text><text fill="#000000" font-family="sans-serif" font-size="14" lengthAdjust="spacing" textLength="252" x="353" y="868.7422">+validateGreenSpace(newGreenSpace)</text><text fill="#000000" font-family="sans-serif" font-size="14" lengthAdjust="spacing" textLength="227" x="353" y="887.3633">+addGreenSpace(newGreenSpace)</text></g><!--class AuthenticationRepository--><g id="elem_AuthenticationRepository"><rect codeLine="51" fill="#F1F1F1" height="66.6211" id="AuthenticationRepository" rx="2.5" ry="2.5" style="stroke:#181818;stroke-width:0.5;" width="195" x="22.5" y="580.0137"/><ellipse cx="39.75" cy="596.0137" fill="#ADD1B2" rx="11" ry="11" style="stroke:#181818;stroke-width:1.0;"/><path d="M42.5156,591.8887 Q42.6719,591.6699 42.8594,591.5605 Q43.0469,591.4512 43.2656,591.4512 Q43.6406,591.4512 43.875,591.7168 Q44.1094,591.9668 44.1094,592.5762 L44.1094,594.0293 Q44.1094,594.6387 43.875,594.9043 Q43.6406,595.1699 43.2656,595.1699 Q42.9219,595.1699 42.7188,594.9668 Q42.5156,594.7793 42.4063,594.2637 Q42.3594,593.9043 42.1719,593.7168 Q41.8438,593.3418 41.2344,593.123 Q40.625,592.9043 40,592.9043 Q39.2344,592.9043 38.5938,593.2324 Q37.9688,593.5605 37.4688,594.3105 Q36.9844,595.0605 36.9844,596.0918 L36.9844,597.1855 Q36.9844,598.4199 37.875,599.248 Q38.7656,600.0605 40.3594,600.0605 Q41.2969,600.0605 41.9531,599.8105 Q42.3438,599.6543 42.7656,599.2168 Q43.0313,598.9512 43.1719,598.873 Q43.3281,598.7949 43.5313,598.7949 Q43.8594,598.7949 44.1094,599.0605 Q44.375,599.3105 44.375,599.6543 Q44.375,599.998 44.0313,600.4043 Q43.5313,600.9824 42.7344,601.3105 Q41.6563,601.7637 40.3594,601.7637 Q38.8438,601.7637 37.6406,601.1387 Q36.6563,600.6387 35.9688,599.5762 Q35.2813,598.498 35.2813,597.2168 L35.2813,596.0605 Q35.2813,594.7324 35.8906,593.5918 Q36.5156,592.4355 37.6094,591.8262 Q38.7031,591.2012 39.9375,591.2012 Q40.6719,591.2012 41.3125,591.373 Q41.9688,591.5293 42.5156,591.8887 Z " fill="#000000"/><text fill="#000000" font-family="sans-serif" font-size="14" lengthAdjust="spacing" textLength="158" x="54.25" y="601.8105">AuthenticationRepository</text><line style="stroke:#181818;stroke-width:0.5;" x1="23.5" x2="216.5" y1="612.0137" y2="612.0137"/><line style="stroke:#181818;stroke-width:0.5;" x1="23.5" x2="216.5" y1="620.0137" y2="620.0137"/><text fill="#000000" font-family="sans-serif" font-size="14" lengthAdjust="spacing" textLength="183" x="28.5" y="639.1211">+getEmployeeFromSession()</text></g><!--class Employee--><g id="elem_Employee"><rect codeLine="57" fill="#F1F1F1" height="308.6953" id="Employee" rx="2.5" ry="2.5" style="stroke:#181818;stroke-width:0.5;" width="361" x="298.5" y="981.0137"/><ellipse cx="443.75" cy="997.0137" fill="#ADD1B2" rx="11" ry="11" style="stroke:#181818;stroke-width:1.0;"/><path d="M446.5156,992.8887 Q446.6719,992.6699 446.8594,992.5605 Q447.0469,992.4512 447.2656,992.4512 Q447.6406,992.4512 447.875,992.7168 Q448.1094,992.9668 448.1094,993.5762 L448.1094,995.0293 Q448.1094,995.6387 447.875,995.9043 Q447.6406,996.1699 447.2656,996.1699 Q446.9219,996.1699 446.7188,995.9668 Q446.5156,995.7793 446.4063,995.2637 Q446.3594,994.9043 446.1719,994.7168 Q445.8438,994.3418 445.2344,994.123 Q444.625,993.9043 444,993.9043 Q443.2344,993.9043 442.5938,994.2324 Q441.9688,994.5605 441.4688,995.3105 Q440.9844,996.0605 440.9844,997.0918 L440.9844,998.1855 Q440.9844,999.4199 441.875,1000.248 Q442.7656,1001.0605 444.3594,1001.0605 Q445.2969,1001.0605 445.9531,1000.8105 Q446.3438,1000.6543 446.7656,1000.2168 Q447.0313,999.9512 447.1719,999.873 Q447.3281,999.7949 447.5313,999.7949 Q447.8594,999.7949 448.1094,1000.0605 Q448.375,1000.3105 448.375,1000.6543 Q448.375,1000.998 448.0313,1001.4043 Q447.5313,1001.9824 446.7344,1002.3105 Q445.6563,1002.7637 444.3594,1002.7637 Q442.8438,1002.7637 441.6406,1002.1387 Q440.6563,1001.6387 439.9688,1000.5762 Q439.2813,999.498 439.2813,998.2168 L439.2813,997.0605 Q439.2813,995.7324 439.8906,994.5918 Q440.5156,993.4355 441.6094,992.8262 Q442.7031,992.2012 443.9375,992.2012 Q444.6719,992.2012 445.3125,992.373 Q445.9688,992.5293 446.5156,992.8887 Z " fill="#000000"/><text fill="#000000" font-family="sans-serif" font-size="14" lengthAdjust="spacing" textLength="62" x="464.25" y="1002.8105">Employee</text><line style="stroke:#181818;stroke-width:0.5;" x1="299.5" x2="658.5" y1="1013.0137" y2="1013.0137"/><text fill="#000000" font-family="sans-serif" font-size="14" lengthAdjust="spacing" textLength="81" x="304.5" y="1032.1211">-name:String</text><text fill="#000000" font-family="sans-serif" font-size="14" lengthAdjust="spacing" textLength="95" x="304.5" y="1050.7422">-birthdate:Date</text><text fill="#000000" font-family="sans-serif" font-size="14" lengthAdjust="spacing" textLength="132" x="304.5" y="1069.3633">-admissionDate:Date</text><text fill="#000000" font-family="sans-serif" font-size="14" lengthAdjust="spacing" textLength="56" x="304.5" y="1087.9844">-address</text><text fill="#000000" font-family="sans-serif" font-size="14" lengthAdjust="spacing" textLength="136" x="304.5" y="1106.6055">-mobileContact:String</text><text fill="#000000" font-family="sans-serif" font-size="14" lengthAdjust="spacing" textLength="128" x="304.5" y="1125.2266">-emailContact:String</text><text fill="#000000" font-family="sans-serif" font-size="14" lengthAdjust="spacing" textLength="114" x="304.5" y="1143.8477">-IDdocType:String</text><text fill="#000000" font-family="sans-serif" font-size="14" lengthAdjust="spacing" textLength="107" x="304.5" y="1162.4688">-IDnumber:String</text><text fill="#000000" font-family="sans-serif" font-size="14" lengthAdjust="spacing" textLength="113" x="304.5" y="1181.0898">-taxNumber:String</text><text fill="#000000" font-family="sans-serif" font-size="14" lengthAdjust="spacing" textLength="50" x="304.5" y="1199.7109">-job:Job</text><line style="stroke:#181818;stroke-width:0.5;" x1="299.5" x2="658.5" y1="1207.2246" y2="1207.2246"/><text fill="#000000" font-family="sans-serif" font-size="14" lengthAdjust="spacing" textLength="303" x="304.5" y="1226.332">+Employee (String nome,LocalDate dateOfBirth,</text><text fill="#000000" font-family="sans-serif" font-size="14" lengthAdjust="spacing" textLength="349" x="304.5" y="1244.9531">LocalDate admissionDate, String morada, int telemovel,</text><text fill="#000000" font-family="sans-serif" font-size="14" lengthAdjust="spacing" textLength="326" x="304.5" y="1263.5742">String email, String idDocType, int docTypeNumber,</text><text fill="#000000" font-family="sans-serif" font-size="14" lengthAdjust="spacing" textLength="265" x="304.5" y="1282.1953">int taxPayerIdNumber, String role, Job job)</text></g><!--class GreenSpace--><g id="elem_GreenSpace"><rect codeLine="72" fill="#F1F1F1" height="159.7266" id="GreenSpace" rx="2.5" ry="2.5" style="stroke:#181818;stroke-width:0.5;" width="649" x="154.5" y="1369.0137"/><ellipse cx="434.75" cy="1385.0137" fill="#ADD1B2" rx="11" ry="11" style="stroke:#181818;stroke-width:1.0;"/><path d="M437.5156,1380.8887 Q437.6719,1380.6699 437.8594,1380.5605 Q438.0469,1380.4512 438.2656,1380.4512 Q438.6406,1380.4512 438.875,1380.7168 Q439.1094,1380.9668 439.1094,1381.5762 L439.1094,1383.0293 Q439.1094,1383.6387 438.875,1383.9043 Q438.6406,1384.1699 438.2656,1384.1699 Q437.9219,1384.1699 437.7188,1383.9668 Q437.5156,1383.7793 437.4063,1383.2637 Q437.3594,1382.9043 437.1719,1382.7168 Q436.8438,1382.3418 436.2344,1382.123 Q435.625,1381.9043 435,1381.9043 Q434.2344,1381.9043 433.5938,1382.2324 Q432.9688,1382.5605 432.4688,1383.3105 Q431.9844,1384.0605 431.9844,1385.0918 L431.9844,1386.1855 Q431.9844,1387.4199 432.875,1388.248 Q433.7656,1389.0605 435.3594,1389.0605 Q436.2969,1389.0605 436.9531,1388.8105 Q437.3438,1388.6543 437.7656,1388.2168 Q438.0313,1387.9512 438.1719,1387.873 Q438.3281,1387.7949 438.5313,1387.7949 Q438.8594,1387.7949 439.1094,1388.0605 Q439.375,1388.3105 439.375,1388.6543 Q439.375,1388.998 439.0313,1389.4043 Q438.5313,1389.9824 437.7344,1390.3105 Q436.6563,1390.7637 435.3594,1390.7637 Q433.8438,1390.7637 432.6406,1390.1387 Q431.6563,1389.6387 430.9688,1388.5762 Q430.2813,1387.498 430.2813,1386.2168 L430.2813,1385.0605 Q430.2813,1383.7324 430.8906,1382.5918 Q431.5156,1381.4355 432.6094,1380.8262 Q433.7031,1380.2012 434.9375,1380.2012 Q435.6719,1380.2012 436.3125,1380.373 Q436.9688,1380.5293 437.5156,1380.8887 Z " fill="#000000"/><text fill="#000000" font-family="sans-serif" font-size="14" lengthAdjust="spacing" textLength="80" x="455.25" y="1390.8105">GreenSpace</text><line style="stroke:#181818;stroke-width:0.5;" x1="155.5" x2="802.5" y1="1401.0137" y2="1401.0137"/><text fill="#000000" font-family="sans-serif" font-size="14" lengthAdjust="spacing" textLength="159" x="160.5" y="1420.1211">-greenSpaceName:String</text><text fill="#000000" font-family="sans-serif" font-size="14" lengthAdjust="spacing" textLength="161" x="160.5" y="1438.7422">-greenSpaceArea:Double</text><text fill="#000000" font-family="sans-serif" font-size="14" lengthAdjust="spacing" textLength="206" x="160.5" y="1457.3633">-greenSpaceClassification:String</text><text fill="#000000" font-family="sans-serif" font-size="14" lengthAdjust="spacing" textLength="127" x="160.5" y="1475.9844">-manager:Employee</text><line style="stroke:#181818;stroke-width:0.5;" x1="155.5" x2="802.5" y1="1483.498" y2="1483.498"/><text fill="#000000" font-family="sans-serif" font-size="14" lengthAdjust="spacing" textLength="558" x="160.5" y="1502.6055">+GreenSpace(greenSpaceName, greenSpaceArea, greenSpaceClassification, manager)</text><text fill="#000000" font-family="sans-serif" font-size="14" lengthAdjust="spacing" textLength="637" x="160.5" y="1521.2266">+validateGreenSpaceData(greenSpaceName, greenSpaceArea, greenSpaceClassification, manager)</text></g><!--link CreateGreenSpaceUI to CreateGreenSpaceController--><g id="link_CreateGreenSpaceUI_CreateGreenSpaceController"><path codeLine="83" d="M495,221.2937 C495,250.3537 495,275.6637 495,300.9837 " fill="none" id="CreateGreenSpaceUI-to-CreateGreenSpaceController" style="stroke:#181818;stroke-width:1.0;stroke-dasharray:7.0,7.0;"/><polygon fill="#181818" points="495,306.9837,499,297.9837,495,301.9837,491,297.9837,495,306.9837" style="stroke:#181818;stroke-width:1.0;"/><text fill="#000000" font-family="sans-serif" font-size="13" lengthAdjust="spacing" textLength="7" x="487.7102" y="243.4171">1</text><text fill="#000000" font-family="sans-serif" font-size="13" lengthAdjust="spacing" textLength="7" x="487.5297" y="295.907">1</text></g><!--link Repositories to GreenSpaceRepository--><g id="link_Repositories_GreenSpaceRepository"><path codeLine="85" d="M445.93,712.3137 C452.84,739.4137 458.5766,761.9299 464.5066,785.1699 " fill="none" id="Repositories-to-GreenSpaceRepository" style="stroke:#181818;stroke-width:1.0;"/><polygon fill="#181818" points="465.99,790.9837,467.6406,781.2741,464.7538,786.1389,459.889,783.2521,465.99,790.9837" style="stroke:#181818;stroke-width:1.0;"/><text fill="#000000" font-family="sans-serif" font-size="13" lengthAdjust="spacing" textLength="7" x="456.7715" y="779.907">1</text></g><!--link Repositories to Repositories--><g id="link_Repositories_Repositories"><path codeLine="86" d="M589.02,590.9837 C610.11,594.9537 624,602.4637 624,613.5137 C624,624.5637 616.0064,630.9637 594.9164,634.9337 " fill="none" id="Repositories-to-Repositories" style="stroke:#181818;stroke-width:1.0;"/><polygon fill="#181818" points="589.02,636.0437,598.6046,638.3097,593.9337,635.1187,597.1247,630.4478,589.02,636.0437" style="stroke:#181818;stroke-width:1.0;"/><text fill="#000000" font-family="sans-serif" font-size="13" lengthAdjust="spacing" textLength="49" x="630" y="619.042">instance</text></g><!--link GreenSpaceRepository to Employee--><g id="link_GreenSpaceRepository_Employee"><path codeLine="88" d="M479,895.2837 C479,919.5537 479,943.9537 479,974.8637 " fill="none" id="GreenSpaceRepository-to-Employee" style="stroke:#181818;stroke-width:1.0;"/><polygon fill="#181818" points="479,980.8637,483,971.8637,479,975.8637,475,971.8637,479,980.8637" style="stroke:#181818;stroke-width:1.0;"/><text fill="#000000" font-family="sans-serif" font-size="13" lengthAdjust="spacing" textLength="7" x="471.5734" y="916.7444">1</text><text fill="#000000" font-family="sans-serif" font-size="13" lengthAdjust="spacing" textLength="7" x="471.8305" y="970.0038">1</text></g><!--link AuthenticationRepository to Employee--><g id="link_AuthenticationRepository_Employee"><path codeLine="90" d="M142.47,647.1037 C196.65,725.6537 330,919.0137 330,919.0137 C330,919.0137 345.2072,941.0088 369.2872,975.8288 " fill="none" id="AuthenticationRepository-to-Employee" style="stroke:#181818;stroke-width:1.0;"/><polygon fill="#181818" points="372.7,980.7637,370.8708,971.0862,369.856,976.6513,364.2909,975.6365,372.7,980.7637" style="stroke:#181818;stroke-width:1.0;"/><text fill="#000000" font-family="sans-serif" font-size="13" lengthAdjust="spacing" textLength="7" x="138.849" y="668.6889">1</text><text fill="#000000" font-family="sans-serif" font-size="13" lengthAdjust="spacing" textLength="7" x="360.3816" y="969.899">1</text></g><!--link CreateGreenSpaceController to Repositories--><g id="link_CreateGreenSpaceController_Repositories"><path codeLine="92" d="M480.02,411.1137 C471.28,440.9437 461.6465,473.8156 451.2665,509.2556 " fill="none" id="CreateGreenSpaceController-to-Repositories" style="stroke:#181818;stroke-width:1.0;stroke-dasharray:7.0,7.0;"/><polygon fill="#181818" points="449.58,515.0137,455.9485,507.5008,450.9854,510.2153,448.271,505.2522,449.58,515.0137" style="stroke:#181818;stroke-width:1.0;"/><text fill="#000000" font-family="sans-serif" font-size="13" lengthAdjust="spacing" textLength="67" x="469" y="458.042">getInstance</text><text fill="#000000" font-family="sans-serif" font-size="13" lengthAdjust="spacing" textLength="7" x="470.6523" y="432.9338">1</text><text fill="#000000" font-family="sans-serif" font-size="13" lengthAdjust="spacing" textLength="7" x="444.5002" y="503.8621">1</text></g><!--link CreateGreenSpaceController to Employee--><g id="link_CreateGreenSpaceController_Employee"><path codeLine="93" d="M631.67,411.1537 C708.45,439.8737 789,470.0137 789,470.0137 C789,470.0137 789,712.0137 789,712.0137 C789,712.0137 684,919.0137 684,919.0137 C684,919.0137 662.5152,941.5962 629.3952,976.4162 " fill="none" id="CreateGreenSpaceController-to-Employee" style="stroke:#181818;stroke-width:1.0;stroke-dasharray:7.0,7.0;"/><polygon fill="#181818" points="625.26,980.7637,634.3611,976.9993,628.706,977.1408,628.5645,971.4857,625.26,980.7637" style="stroke:#181818;stroke-width:1.0;"/><text fill="#000000" font-family="sans-serif" font-size="13" lengthAdjust="spacing" textLength="108" x="774" y="757.042">createGreenSpace</text></g><!--link CreateGreenSpaceController to AuthenticationRepository--><g id="link_CreateGreenSpaceController_AuthenticationRepository"><path codeLine="94" d="M374.6,411.1537 C306.96,439.8737 236,470.0137 236,470.0137 C236,470.0137 184.6481,533.1007 150.3981,575.1707 " fill="none" id="CreateGreenSpaceController-to-AuthenticationRepository" style="stroke:#181818;stroke-width:1.0;"/><polygon fill="#181818" points="146.61,579.8237,155.3941,575.3696,149.7667,575.9462,149.1901,570.3188,146.61,579.8237" style="stroke:#181818;stroke-width:1.0;"/><text fill="#000000" font-family="sans-serif" font-size="13" lengthAdjust="spacing" textLength="134" x="299" y="458.042">getCurrentUserSession</text><text fill="#000000" font-family="sans-serif" font-size="13" lengthAdjust="spacing" textLength="7" x="351.7253" y="432.9789">1</text><text fill="#000000" font-family="sans-serif" font-size="13" lengthAdjust="spacing" textLength="7" x="144.0153" y="568.8734">1</text></g><!--link CreateGreenSpaceController to GreenSpaceRepository--><g id="link_CreateGreenSpaceController_GreenSpaceRepository"><path codeLine="95" d="M583.79,411.1537 C633.67,439.8737 686,470.0137 686,470.0137 C686,470.0137 686,712.0137 686,712.0137 C686,712.0137 623.291,751.3926 565.301,787.8126 " fill="none" id="CreateGreenSpaceController-to-GreenSpaceRepository" style="stroke:#181818;stroke-width:1.0;stroke-dasharray:7.0,7.0;"/><polygon fill="#181818" points="560.22,791.0037,569.9689,789.6044,564.4542,788.3444,565.7142,782.8297,560.22,791.0037" style="stroke:#181818;stroke-width:1.0;"/><text fill="#000000" font-family="sans-serif" font-size="13" lengthAdjust="spacing" textLength="93" x="687" y="619.042">addGreenSpace</text></g><!--link Employee to GreenSpace--><g id="link_Employee_GreenSpace"><path codeLine="97" d="M479,1290.4337 C479,1317.5737 479,1338.7737 479,1362.7537 " fill="none" id="Employee-to-GreenSpace" style="stroke:#181818;stroke-width:1.0;"/><polygon fill="#181818" points="479,1368.7537,483,1359.7537,479,1363.7537,475,1359.7537,479,1368.7537" style="stroke:#181818;stroke-width:1.0;"/><text fill="#000000" font-family="sans-serif" font-size="13" lengthAdjust="spacing" textLength="133" x="480" y="1335.042">createNewGreenSpace</text><text fill="#000000" font-family="sans-serif" font-size="13" lengthAdjust="spacing" textLength="7" x="471.8414" y="1311.8805">1</text><text fill="#000000" font-family="sans-serif" font-size="13" lengthAdjust="spacing" textLength="5" x="473.7695" y="1357.6254">*</text></g><!--SRC=[hLNFJzim5Bxxhx2uj8o2jck4Ah4MKAUDeNNSTd6IrzJ3iJlR0Rfg_pjEuhXswa0FemVaz_FxNfu_ZzGZvHiYIObBmKMsbg84h6K5QE_PaEoH5B3KMmPOGgO9BvWVeDOa5y-K5tX5cF8zZ7BGsmtWZM3R-e164QUGMY0lAsD4gIkj9Kqh3OjCy2Nz2_WZGYC6Ausrm98MQurpMiEXWYDqtuB4Cy6r58o1n9UNDuBb8AVJ7MfAufa4ek5M0l2bOGLUy0vXytTUWBukDqni0MxCB9QWb2a_FcsyPsyK61VE-0CsGb4jvBPBotffNl0TAM62z-Sh4tgA_fcVe_ImE8AA2MefdCdAuPNmfmAbvqIJTrhwvrdTWAveHkhHJd19k84XRKrLfILjIuPTReE2Wyww-w0pRDqB-zRY6FV6inztP4pEIK7PJumfLsQ5CqXyf_N5lc9o6p7QUB3BuaLV7vXiBAdq6hYsvBoCgm47GdP_p5OkB6YtYiOMm-Nx3v7utg6kpNpj-68TTZ40obL-8epcuRPpUDwVkZYIvyCX3i0GoDqXo_2-1Yio5oMXFB8UNQvT3MvsCraQtU55QqYfrEkQJM8M7beRoKlQT9dtxRaqxTj3ALBA6daWcGvAWe72Oex5F1VPJwE7FIkloXHaODJavUxG-bkaoHUHsgNfgE5n6uEvaVR9Lv4HLcF6DQllgyyrmSallhS7z2RO9fT2ajoe1EL6Ve51APw0cJphRaYvO9hFMoPjlANL8ZOvJGtoSa-s81UvDNUvHarDcg613Pte9Zgf3YGbc4IeRSbSL2c3lYlKcY3VAfwxodQaHmluyMfwU5l-brWt5o3oIfnyEi4N5zFc__1pXf0lZlZyl4s8Ac4OEGqq5oTERX6APJTbk_BxUG_T-u7mDnvsdsyFcIUhRrMeizrjIWuUy_UQTsW7AJL0PfMKnlkWG5eHUmzIR9f9AAi8ETmEoGV_ApewTxx-ebS0]--></g></svg>