<?xml version="1.0" encoding="us-ascii" standalone="no"?><svg xmlns="http://www.w3.org/2000/svg" xmlns:xlink="http://www.w3.org/1999/xlink" contentStyleType="text/css" height="1552px" preserveAspectRatio="none" style="width:980px;height:1552px;background:#FFFFFF;" version="1.1" viewBox="0 0 980 1552" width="980px" zoomAndPan="magnify"><defs/><g><!--cluster Controller--><g id="cluster_Controller"><path d="M470.5,270.0137 L542.5,270.0137 A3.75,3.75 0 0 1 545,272.5137 L552,294.6348 L875.5,294.6348 A2.5,2.5 0 0 1 878,297.1348 L878,424.5137 A2.5,2.5 0 0 1 875.5,427.0137 L470.5,427.0137 A2.5,2.5 0 0 1 468,424.5137 L468,272.5137 A2.5,2.5 0 0 1 470.5,270.0137 " fill="none" style="stroke:#000000;stroke-width:1.5;"/><line style="stroke:#000000;stroke-width:1.5;" x1="468" x2="552" y1="294.6348" y2="294.6348"/><text fill="#000000" font-family="sans-serif" font-size="14" font-weight="bold" lengthAdjust="spacing" textLength="71" x="472" y="287.1211">Controller</text></g><!--cluster UI--><g id="cluster_UI"><path d="M375.5,6.0137 L390.5,6.0137 A3.75,3.75 0 0 1 393,8.5137 L400,30.6348 L970.5,30.6348 A2.5,2.5 0 0 1 973,33.1348 L973,234.5137 A2.5,2.5 0 0 1 970.5,237.0137 L375.5,237.0137 A2.5,2.5 0 0 1 373,234.5137 L373,8.5137 A2.5,2.5 0 0 1 375.5,6.0137 " fill="none" style="stroke:#000000;stroke-width:1.5;"/><line style="stroke:#000000;stroke-width:1.5;" x1="373" x2="400" y1="30.6348" y2="30.6348"/><text fill="#000000" font-family="sans-serif" font-size="14" font-weight="bold" lengthAdjust="spacing" textLength="14" x="377" y="23.1211">UI</text></g><!--cluster Repository--><g id="cluster_Repository"><path d="M8.5,478.0137 L85.5,478.0137 A3.75,3.75 0 0 1 88,480.5137 L95,502.6348 L681.5,502.6348 A2.5,2.5 0 0 1 684,505.1348 L684,908.5137 A2.5,2.5 0 0 1 681.5,911.0137 L8.5,911.0137 A2.5,2.5 0 0 1 6,908.5137 L6,480.5137 A2.5,2.5 0 0 1 8.5,478.0137 " fill="none" style="stroke:#000000;stroke-width:1.5;"/><line style="stroke:#000000;stroke-width:1.5;" x1="6" x2="95" y1="502.6348" y2="502.6348"/><text fill="#000000" font-family="sans-serif" font-size="14" font-weight="bold" lengthAdjust="spacing" textLength="76" x="10" y="495.1211">Repository</text></g><!--cluster Domain--><g id="cluster_Domain"><path d="M231.5,944.0137 L284.5,944.0137 A3.75,3.75 0 0 1 287,946.5137 L294,968.6348 L908.5,968.6348 A2.5,2.5 0 0 1 911,971.1348 L911,1542.5137 A2.5,2.5 0 0 1 908.5,1545.0137 L231.5,1545.0137 A2.5,2.5 0 0 1 229,1542.5137 L229,946.5137 A2.5,2.5 0 0 1 231.5,944.0137 " fill="none" style="stroke:#000000;stroke-width:1.5;"/><line style="stroke:#000000;stroke-width:1.5;" x1="229" x2="294" y1="968.6348" y2="968.6348"/><text fill="#000000" font-family="sans-serif" font-size="14" font-weight="bold" lengthAdjust="spacing" textLength="52" x="233" y="961.1211">Domain</text></g><!--class CreateGreenSpaceController--><g id="elem_CreateGreenSpaceController"><rect codeLine="12" fill="#F1F1F1" height="103.8633" id="CreateGreenSpaceController" rx="2.5" ry="2.5" style="stroke:#181818;stroke-width:0.5;" width="378" x="484" y="307.0137"/><ellipse cx="576.25" cy="323.0137" fill="#ADD1B2" rx="11" ry="11" style="stroke:#181818;stroke-width:1.0;"/><path d="M579.0156,318.8887 Q579.1719,318.6699 579.3594,318.5605 Q579.5469,318.4512 579.7656,318.4512 Q580.1406,318.4512 580.375,318.7168 Q580.6094,318.9668 580.6094,319.5762 L580.6094,321.0293 Q580.6094,321.6387 580.375,321.9043 Q580.1406,322.1699 579.7656,322.1699 Q579.4219,322.1699 579.2188,321.9668 Q579.0156,321.7793 578.9063,321.2637 Q578.8594,320.9043 578.6719,320.7168 Q578.3438,320.3418 577.7344,320.123 Q577.125,319.9043 576.5,319.9043 Q575.7344,319.9043 575.0938,320.2324 Q574.4688,320.5605 573.9688,321.3105 Q573.4844,322.0605 573.4844,323.0918 L573.4844,324.1855 Q573.4844,325.4199 574.375,326.248 Q575.2656,327.0605 576.8594,327.0605 Q577.7969,327.0605 578.4531,326.8105 Q578.8438,326.6543 579.2656,326.2168 Q579.5313,325.9512 579.6719,325.873 Q579.8281,325.7949 580.0313,325.7949 Q580.3594,325.7949 580.6094,326.0605 Q580.875,326.3105 580.875,326.6543 Q580.875,326.998 580.5313,327.4043 Q580.0313,327.9824 579.2344,328.3105 Q578.1563,328.7637 576.8594,328.7637 Q575.3438,328.7637 574.1406,328.1387 Q573.1563,327.6387 572.4688,326.5762 Q571.7813,325.498 571.7813,324.2168 L571.7813,323.0605 Q571.7813,321.7324 572.3906,320.5918 Q573.0156,319.4355 574.1094,318.8262 Q575.2031,318.2012 576.4375,318.2012 Q577.1719,318.2012 577.8125,318.373 Q578.4688,318.5293 579.0156,318.8887 Z " fill="#000000"/><text fill="#000000" font-family="sans-serif" font-size="14" lengthAdjust="spacing" textLength="185" x="596.75" y="328.8105">CreateGreenSpaceController</text><line style="stroke:#181818;stroke-width:0.5;" x1="485" x2="861" y1="339.0137" y2="339.0137"/><line style="stroke:#181818;stroke-width:0.5;" x1="485" x2="861" y1="347.0137" y2="347.0137"/><text fill="#000000" font-family="sans-serif" font-size="14" lengthAdjust="spacing" textLength="180" x="490" y="366.1211">-getEmployeeFromSession()</text><text fill="#000000" font-family="sans-serif" font-size="14" lengthAdjust="spacing" textLength="348" x="490" y="384.7422">+CreateGreenSpaceController(greenSpaceRepository)</text><text fill="#000000" font-family="sans-serif" font-size="14" lengthAdjust="spacing" textLength="366" x="490" y="403.3633">+createGreenSpace(greenSpaceName, greenSpaceArea)</text></g><!--class CreateGreenSpaceUI--><g id="elem_CreateGreenSpaceUI"><rect codeLine="20" fill="#F1F1F1" height="178.3477" id="CreateGreenSpaceUI" rx="2.5" ry="2.5" style="stroke:#181818;stroke-width:0.5;" width="568" x="389" y="43.0137"/><ellipse cx="601.25" cy="59.0137" fill="#ADD1B2" rx="11" ry="11" style="stroke:#181818;stroke-width:1.0;"/><path d="M604.0156,54.8887 Q604.1719,54.6699 604.3594,54.5605 Q604.5469,54.4512 604.7656,54.4512 Q605.1406,54.4512 605.375,54.7168 Q605.6094,54.9668 605.6094,55.5762 L605.6094,57.0293 Q605.6094,57.6387 605.375,57.9043 Q605.1406,58.1699 604.7656,58.1699 Q604.4219,58.1699 604.2188,57.9668 Q604.0156,57.7793 603.9063,57.2637 Q603.8594,56.9043 603.6719,56.7168 Q603.3438,56.3418 602.7344,56.123 Q602.125,55.9043 601.5,55.9043 Q600.7344,55.9043 600.0938,56.2324 Q599.4688,56.5605 598.9688,57.3105 Q598.4844,58.0605 598.4844,59.0918 L598.4844,60.1855 Q598.4844,61.4199 599.375,62.248 Q600.2656,63.0605 601.8594,63.0605 Q602.7969,63.0605 603.4531,62.8105 Q603.8438,62.6543 604.2656,62.2168 Q604.5313,61.9512 604.6719,61.873 Q604.8281,61.7949 605.0313,61.7949 Q605.3594,61.7949 605.6094,62.0605 Q605.875,62.3105 605.875,62.6543 Q605.875,62.998 605.5313,63.4043 Q605.0313,63.9824 604.2344,64.3105 Q603.1563,64.7637 601.8594,64.7637 Q600.3438,64.7637 599.1406,64.1387 Q598.1563,63.6387 597.4688,62.5762 Q596.7813,61.498 596.7813,60.2168 L596.7813,59.0605 Q596.7813,57.7324 597.3906,56.5918 Q598.0156,55.4355 599.1094,54.8262 Q600.2031,54.2012 601.4375,54.2012 Q602.1719,54.2012 602.8125,54.373 Q603.4688,54.5293 604.0156,54.8887 Z " fill="#000000"/><text fill="#000000" font-family="sans-serif" font-size="14" lengthAdjust="spacing" textLength="135" x="621.75" y="64.8105">CreateGreenSpaceUI</text><line style="stroke:#181818;stroke-width:0.5;" x1="390" x2="956" y1="75.0137" y2="75.0137"/><line style="stroke:#181818;stroke-width:0.5;" x1="390" x2="956" y1="83.0137" y2="83.0137"/><text fill="#000000" font-family="sans-serif" font-size="14" lengthAdjust="spacing" textLength="39" x="395" y="102.1211">+run()</text><text fill="#000000" font-family="sans-serif" font-size="14" lengthAdjust="spacing" textLength="556" x="395" y="120.7422">+requestData(greenSpaceName, greenSpaceArea, greenSpaceClassification, manager)</text><text fill="#000000" font-family="sans-serif" font-size="14" lengthAdjust="spacing" textLength="89" x="395" y="139.3633">+submitData()</text><text fill="#000000" font-family="sans-serif" font-size="14" lengthAdjust="spacing" textLength="176" x="395" y="157.9844">+requestGreenSpaceArea()</text><text fill="#000000" font-family="sans-serif" font-size="14" lengthAdjust="spacing" textLength="182" x="395" y="176.6055">+requestGreenSpaceName()</text><text fill="#000000" font-family="sans-serif" font-size="14" lengthAdjust="spacing" textLength="229" x="395" y="195.2266">+requestGreenSpaceClassification()</text><text fill="#000000" font-family="sans-serif" font-size="14" lengthAdjust="spacing" textLength="122" x="395" y="213.8477">+requestManager()</text></g><!--class Repositories--><g id="elem_Repositories"><rect codeLine="32" fill="#F1F1F1" height="196.9688" id="Repositories" rx="2.5" ry="2.5" style="stroke:#181818;stroke-width:0.5;" width="336" x="22" y="515.0137"/><ellipse cx="146.25" cy="531.0137" fill="#ADD1B2" rx="11" ry="11" style="stroke:#181818;stroke-width:1.0;"/><path d="M149.0156,526.8887 Q149.1719,526.6699 149.3594,526.5605 Q149.5469,526.4512 149.7656,526.4512 Q150.1406,526.4512 150.375,526.7168 Q150.6094,526.9668 150.6094,527.5762 L150.6094,529.0293 Q150.6094,529.6387 150.375,529.9043 Q150.1406,530.1699 149.7656,530.1699 Q149.4219,530.1699 149.2188,529.9668 Q149.0156,529.7793 148.9063,529.2637 Q148.8594,528.9043 148.6719,528.7168 Q148.3438,528.3418 147.7344,528.123 Q147.125,527.9043 146.5,527.9043 Q145.7344,527.9043 145.0938,528.2324 Q144.4688,528.5605 143.9688,529.3105 Q143.4844,530.0605 143.4844,531.0918 L143.4844,532.1855 Q143.4844,533.4199 144.375,534.248 Q145.2656,535.0605 146.8594,535.0605 Q147.7969,535.0605 148.4531,534.8105 Q148.8438,534.6543 149.2656,534.2168 Q149.5313,533.9512 149.6719,533.873 Q149.8281,533.7949 150.0313,533.7949 Q150.3594,533.7949 150.6094,534.0605 Q150.875,534.3105 150.875,534.6543 Q150.875,534.998 150.5313,535.4043 Q150.0313,535.9824 149.2344,536.3105 Q148.1563,536.7637 146.8594,536.7637 Q145.3438,536.7637 144.1406,536.1387 Q143.1563,535.6387 142.4688,534.5762 Q141.7813,533.498 141.7813,532.2168 L141.7813,531.0605 Q141.7813,529.7324 142.3906,528.5918 Q143.0156,527.4355 144.1094,526.8262 Q145.2031,526.2012 146.4375,526.2012 Q147.1719,526.2012 147.8125,526.373 Q148.4688,526.5293 149.0156,526.8887 Z " fill="#000000"/><text fill="#000000" font-family="sans-serif" font-size="14" lengthAdjust="spacing" textLength="79" x="166.75" y="536.8105">Repositories</text><line style="stroke:#181818;stroke-width:0.5;" x1="23" x2="357" y1="547.0137" y2="547.0137"/><text fill="#000000" font-family="sans-serif" font-size="14" lengthAdjust="spacing" textLength="141" x="28" y="566.1211">-instance:Repositories</text><text fill="#000000" font-family="sans-serif" font-size="14" lengthAdjust="spacing" textLength="302" x="28" y="584.7422">-greenSpaceRepository:GreenSpaceRepository</text><text fill="#000000" font-family="sans-serif" font-size="14" lengthAdjust="spacing" textLength="268" x="28" y="603.3633">-employeeRepository:EmployeeRepository</text><text fill="#000000" font-family="sans-serif" font-size="14" lengthAdjust="spacing" textLength="324" x="28" y="621.9844">-authenticationRepository:AuthenticationRepository</text><line style="stroke:#181818;stroke-width:0.5;" x1="23" x2="357" y1="629.498" y2="629.498"/><text fill="#000000" font-family="sans-serif" font-size="14" lengthAdjust="spacing" textLength="91" x="28" y="648.6055">+getInstance()</text><text fill="#000000" font-family="sans-serif" font-size="14" lengthAdjust="spacing" textLength="186" x="28" y="667.2266">+getGreenSpaceRepository()</text><text fill="#000000" font-family="sans-serif" font-size="14" lengthAdjust="spacing" textLength="168" x="28" y="685.8477">+getEmployeeRepository()</text><text fill="#000000" font-family="sans-serif" font-size="14" lengthAdjust="spacing" textLength="196" x="28" y="704.4688">+getAuthenticationRepository()</text></g><!--class GreenSpaceRepository--><g id="elem_GreenSpaceRepository"><rect codeLine="45" fill="#F1F1F1" height="103.8633" id="GreenSpaceRepository" rx="2.5" ry="2.5" style="stroke:#181818;stroke-width:0.5;" width="264" x="156" y="791.0137"/><ellipse cx="209.75" cy="807.0137" fill="#ADD1B2" rx="11" ry="11" style="stroke:#181818;stroke-width:1.0;"/><path d="M212.5156,802.8887 Q212.6719,802.6699 212.8594,802.5605 Q213.0469,802.4512 213.2656,802.4512 Q213.6406,802.4512 213.875,802.7168 Q214.1094,802.9668 214.1094,803.5762 L214.1094,805.0293 Q214.1094,805.6387 213.875,805.9043 Q213.6406,806.1699 213.2656,806.1699 Q212.9219,806.1699 212.7188,805.9668 Q212.5156,805.7793 212.4063,805.2637 Q212.3594,804.9043 212.1719,804.7168 Q211.8438,804.3418 211.2344,804.123 Q210.625,803.9043 210,803.9043 Q209.2344,803.9043 208.5938,804.2324 Q207.9688,804.5605 207.4688,805.3105 Q206.9844,806.0605 206.9844,807.0918 L206.9844,808.1855 Q206.9844,809.4199 207.875,810.248 Q208.7656,811.0605 210.3594,811.0605 Q211.2969,811.0605 211.9531,810.8105 Q212.3438,810.6543 212.7656,810.2168 Q213.0313,809.9512 213.1719,809.873 Q213.3281,809.7949 213.5313,809.7949 Q213.8594,809.7949 214.1094,810.0605 Q214.375,810.3105 214.375,810.6543 Q214.375,810.998 214.0313,811.4043 Q213.5313,811.9824 212.7344,812.3105 Q211.6563,812.7637 210.3594,812.7637 Q208.8438,812.7637 207.6406,812.1387 Q206.6563,811.6387 205.9688,810.5762 Q205.2813,809.498 205.2813,808.2168 L205.2813,807.0605 Q205.2813,805.7324 205.8906,804.5918 Q206.5156,803.4355 207.6094,802.8262 Q208.7031,802.2012 209.9375,802.2012 Q210.6719,802.2012 211.3125,802.373 Q211.9688,802.5293 212.5156,802.8887 Z " fill="#000000"/><text fill="#000000" font-family="sans-serif" font-size="14" lengthAdjust="spacing" textLength="148" x="230.25" y="812.8105">GreenSpaceRepository</text><line style="stroke:#181818;stroke-width:0.5;" x1="157" x2="419" y1="823.0137" y2="823.0137"/><line style="stroke:#181818;stroke-width:0.5;" x1="157" x2="419" y1="831.0137" y2="831.0137"/><text fill="#000000" font-family="sans-serif" font-size="14" lengthAdjust="spacing" textLength="125" x="162" y="850.1211">+getGreenSpaces()</text><text fill="#000000" font-family="sans-serif" font-size="14" lengthAdjust="spacing" textLength="252" x="162" y="868.7422">+validateGreenSpace(newGreenSpace)</text><text fill="#000000" font-family="sans-serif" font-size="14" lengthAdjust="spacing" textLength="227" x="162" y="887.3633">+addGreenSpace(newGreenSpace)</text></g><!--class AuthenticationRepository--><g id="elem_AuthenticationRepository"><rect codeLine="51" fill="#F1F1F1" height="66.6211" id="AuthenticationRepository" rx="2.5" ry="2.5" style="stroke:#181818;stroke-width:0.5;" width="195" x="472.5" y="580.0137"/><ellipse cx="489.75" cy="596.0137" fill="#ADD1B2" rx="11" ry="11" style="stroke:#181818;stroke-width:1.0;"/><path d="M492.5156,591.8887 Q492.6719,591.6699 492.8594,591.5605 Q493.0469,591.4512 493.2656,591.4512 Q493.6406,591.4512 493.875,591.7168 Q494.1094,591.9668 494.1094,592.5762 L494.1094,594.0293 Q494.1094,594.6387 493.875,594.9043 Q493.6406,595.1699 493.2656,595.1699 Q492.9219,595.1699 492.7188,594.9668 Q492.5156,594.7793 492.4063,594.2637 Q492.3594,593.9043 492.1719,593.7168 Q491.8438,593.3418 491.2344,593.123 Q490.625,592.9043 490,592.9043 Q489.2344,592.9043 488.5938,593.2324 Q487.9688,593.5605 487.4688,594.3105 Q486.9844,595.0605 486.9844,596.0918 L486.9844,597.1855 Q486.9844,598.4199 487.875,599.248 Q488.7656,600.0605 490.3594,600.0605 Q491.2969,600.0605 491.9531,599.8105 Q492.3438,599.6543 492.7656,599.2168 Q493.0313,598.9512 493.1719,598.873 Q493.3281,598.7949 493.5313,598.7949 Q493.8594,598.7949 494.1094,599.0605 Q494.375,599.3105 494.375,599.6543 Q494.375,599.998 494.0313,600.4043 Q493.5313,600.9824 492.7344,601.3105 Q491.6563,601.7637 490.3594,601.7637 Q488.8438,601.7637 487.6406,601.1387 Q486.6563,600.6387 485.9688,599.5762 Q485.2813,598.498 485.2813,597.2168 L485.2813,596.0605 Q485.2813,594.7324 485.8906,593.5918 Q486.5156,592.4355 487.6094,591.8262 Q488.7031,591.2012 489.9375,591.2012 Q490.6719,591.2012 491.3125,591.373 Q491.9688,591.5293 492.5156,591.8887 Z " fill="#000000"/><text fill="#000000" font-family="sans-serif" font-size="14" lengthAdjust="spacing" textLength="158" x="504.25" y="601.8105">AuthenticationRepository</text><line style="stroke:#181818;stroke-width:0.5;" x1="473.5" x2="666.5" y1="612.0137" y2="612.0137"/><line style="stroke:#181818;stroke-width:0.5;" x1="473.5" x2="666.5" y1="620.0137" y2="620.0137"/><text fill="#000000" font-family="sans-serif" font-size="14" lengthAdjust="spacing" textLength="183" x="478.5" y="639.1211">+getEmployeeFromSession()</text></g><!--class Employee--><g id="elem_Employee"><rect codeLine="57" fill="#F1F1F1" height="308.6953" id="Employee" rx="2.5" ry="2.5" style="stroke:#181818;stroke-width:0.5;" width="361" x="389.5" y="981.0137"/><ellipse cx="534.75" cy="997.0137" fill="#ADD1B2" rx="11" ry="11" style="stroke:#181818;stroke-width:1.0;"/><path d="M537.5156,992.8887 Q537.6719,992.6699 537.8594,992.5605 Q538.0469,992.4512 538.2656,992.4512 Q538.6406,992.4512 538.875,992.7168 Q539.1094,992.9668 539.1094,993.5762 L539.1094,995.0293 Q539.1094,995.6387 538.875,995.9043 Q538.6406,996.1699 538.2656,996.1699 Q537.9219,996.1699 537.7188,995.9668 Q537.5156,995.7793 537.4063,995.2637 Q537.3594,994.9043 537.1719,994.7168 Q536.8438,994.3418 536.2344,994.123 Q535.625,993.9043 535,993.9043 Q534.2344,993.9043 533.5938,994.2324 Q532.9688,994.5605 532.4688,995.3105 Q531.9844,996.0605 531.9844,997.0918 L531.9844,998.1855 Q531.9844,999.4199 532.875,1000.248 Q533.7656,1001.0605 535.3594,1001.0605 Q536.2969,1001.0605 536.9531,1000.8105 Q537.3438,1000.6543 537.7656,1000.2168 Q538.0313,999.9512 538.1719,999.873 Q538.3281,999.7949 538.5313,999.7949 Q538.8594,999.7949 539.1094,1000.0605 Q539.375,1000.3105 539.375,1000.6543 Q539.375,1000.998 539.0313,1001.4043 Q538.5313,1001.9824 537.7344,1002.3105 Q536.6563,1002.7637 535.3594,1002.7637 Q533.8438,1002.7637 532.6406,1002.1387 Q531.6563,1001.6387 530.9688,1000.5762 Q530.2813,999.498 530.2813,998.2168 L530.2813,997.0605 Q530.2813,995.7324 530.8906,994.5918 Q531.5156,993.4355 532.6094,992.8262 Q533.7031,992.2012 534.9375,992.2012 Q535.6719,992.2012 536.3125,992.373 Q536.9688,992.5293 537.5156,992.8887 Z " fill="#000000"/><text fill="#000000" font-family="sans-serif" font-size="14" lengthAdjust="spacing" textLength="62" x="555.25" y="1002.8105">Employee</text><line style="stroke:#181818;stroke-width:0.5;" x1="390.5" x2="749.5" y1="1013.0137" y2="1013.0137"/><text fill="#000000" font-family="sans-serif" font-size="14" lengthAdjust="spacing" textLength="81" x="395.5" y="1032.1211">-name:String</text><text fill="#000000" font-family="sans-serif" font-size="14" lengthAdjust="spacing" textLength="95" x="395.5" y="1050.7422">-birthdate:Date</text><text fill="#000000" font-family="sans-serif" font-size="14" lengthAdjust="spacing" textLength="132" x="395.5" y="1069.3633">-admissionDate:Date</text><text fill="#000000" font-family="sans-serif" font-size="14" lengthAdjust="spacing" textLength="56" x="395.5" y="1087.9844">-address</text><text fill="#000000" font-family="sans-serif" font-size="14" lengthAdjust="spacing" textLength="136" x="395.5" y="1106.6055">-mobileContact:String</text><text fill="#000000" font-family="sans-serif" font-size="14" lengthAdjust="spacing" textLength="128" x="395.5" y="1125.2266">-emailContact:String</text><text fill="#000000" font-family="sans-serif" font-size="14" lengthAdjust="spacing" textLength="114" x="395.5" y="1143.8477">-IDdocType:String</text><text fill="#000000" font-family="sans-serif" font-size="14" lengthAdjust="spacing" textLength="107" x="395.5" y="1162.4688">-IDnumber:String</text><text fill="#000000" font-family="sans-serif" font-size="14" lengthAdjust="spacing" textLength="113" x="395.5" y="1181.0898">-taxNumber:String</text><text fill="#000000" font-family="sans-serif" font-size="14" lengthAdjust="spacing" textLength="50" x="395.5" y="1199.7109">-job:Job</text><line style="stroke:#181818;stroke-width:0.5;" x1="390.5" x2="749.5" y1="1207.2246" y2="1207.2246"/><text fill="#000000" font-family="sans-serif" font-size="14" lengthAdjust="spacing" textLength="303" x="395.5" y="1226.332">+Employee (String nome,LocalDate dateOfBirth,</text><text fill="#000000" font-family="sans-serif" font-size="14" lengthAdjust="spacing" textLength="349" x="395.5" y="1244.9531">LocalDate admissionDate, String morada, int telemovel,</text><text fill="#000000" font-family="sans-serif" font-size="14" lengthAdjust="spacing" textLength="326" x="395.5" y="1263.5742">String email, String idDocType, int docTypeNumber,</text><text fill="#000000" font-family="sans-serif" font-size="14" lengthAdjust="spacing" textLength="265" x="395.5" y="1282.1953">int taxPayerIdNumber, String role, Job job)</text></g><!--class GreenSpace--><g id="elem_GreenSpace"><rect codeLine="72" fill="#F1F1F1" height="159.7266" id="GreenSpace" rx="2.5" ry="2.5" style="stroke:#181818;stroke-width:0.5;" width="649" x="245.5" y="1369.0137"/><ellipse cx="525.75" cy="1385.0137" fill="#ADD1B2" rx="11" ry="11" style="stroke:#181818;stroke-width:1.0;"/><path d="M528.5156,1380.8887 Q528.6719,1380.6699 528.8594,1380.5605 Q529.0469,1380.4512 529.2656,1380.4512 Q529.6406,1380.4512 529.875,1380.7168 Q530.1094,1380.9668 530.1094,1381.5762 L530.1094,1383.0293 Q530.1094,1383.6387 529.875,1383.9043 Q529.6406,1384.1699 529.2656,1384.1699 Q528.9219,1384.1699 528.7188,1383.9668 Q528.5156,1383.7793 528.4063,1383.2637 Q528.3594,1382.9043 528.1719,1382.7168 Q527.8438,1382.3418 527.2344,1382.123 Q526.625,1381.9043 526,1381.9043 Q525.2344,1381.9043 524.5938,1382.2324 Q523.9688,1382.5605 523.4688,1383.3105 Q522.9844,1384.0605 522.9844,1385.0918 L522.9844,1386.1855 Q522.9844,1387.4199 523.875,1388.248 Q524.7656,1389.0605 526.3594,1389.0605 Q527.2969,1389.0605 527.9531,1388.8105 Q528.3438,1388.6543 528.7656,1388.2168 Q529.0313,1387.9512 529.1719,1387.873 Q529.3281,1387.7949 529.5313,1387.7949 Q529.8594,1387.7949 530.1094,1388.0605 Q530.375,1388.3105 530.375,1388.6543 Q530.375,1388.998 530.0313,1389.4043 Q529.5313,1389.9824 528.7344,1390.3105 Q527.6563,1390.7637 526.3594,1390.7637 Q524.8438,1390.7637 523.6406,1390.1387 Q522.6563,1389.6387 521.9688,1388.5762 Q521.2813,1387.498 521.2813,1386.2168 L521.2813,1385.0605 Q521.2813,1383.7324 521.8906,1382.5918 Q522.5156,1381.4355 523.6094,1380.8262 Q524.7031,1380.2012 525.9375,1380.2012 Q526.6719,1380.2012 527.3125,1380.373 Q527.9688,1380.5293 528.5156,1380.8887 Z " fill="#000000"/><text fill="#000000" font-family="sans-serif" font-size="14" lengthAdjust="spacing" textLength="80" x="546.25" y="1390.8105">GreenSpace</text><line style="stroke:#181818;stroke-width:0.5;" x1="246.5" x2="893.5" y1="1401.0137" y2="1401.0137"/><text fill="#000000" font-family="sans-serif" font-size="14" lengthAdjust="spacing" textLength="159" x="251.5" y="1420.1211">-greenSpaceName:String</text><text fill="#000000" font-family="sans-serif" font-size="14" lengthAdjust="spacing" textLength="161" x="251.5" y="1438.7422">-greenSpaceArea:Double</text><text fill="#000000" font-family="sans-serif" font-size="14" lengthAdjust="spacing" textLength="206" x="251.5" y="1457.3633">-greenSpaceClassification:String</text><text fill="#000000" font-family="sans-serif" font-size="14" lengthAdjust="spacing" textLength="127" x="251.5" y="1475.9844">-manager:Employee</text><line style="stroke:#181818;stroke-width:0.5;" x1="246.5" x2="893.5" y1="1483.498" y2="1483.498"/><text fill="#000000" font-family="sans-serif" font-size="14" lengthAdjust="spacing" textLength="558" x="251.5" y="1502.6055">+GreenSpace(greenSpaceName, greenSpaceArea, greenSpaceClassification, manager)</text><text fill="#000000" font-family="sans-serif" font-size="14" lengthAdjust="spacing" textLength="637" x="251.5" y="1521.2266">+validateGreenSpaceData(greenSpaceName, greenSpaceArea, greenSpaceClassification, manager)</text></g><!--link CreateGreenSpaceUI to CreateGreenSpaceController--><g id="link_CreateGreenSpaceUI_CreateGreenSpaceController"><path codeLine="83" d="M673,221.2937 C673,250.3537 673,275.6637 673,300.9837 " fill="none" id="CreateGreenSpaceUI-to-CreateGreenSpaceController" style="stroke:#181818;stroke-width:1.0;stroke-dasharray:7.0,7.0;"/><polygon fill="#181818" points="673,306.9837,677,297.9837,673,301.9837,669,297.9837,673,306.9837" style="stroke:#181818;stroke-width:1.0;"/><text fill="#000000" font-family="sans-serif" font-size="13" lengthAdjust="spacing" textLength="7" x="665.7102" y="243.4171">1</text><text fill="#000000" font-family="sans-serif" font-size="13" lengthAdjust="spacing" textLength="7" x="665.5297" y="295.907">1</text></g><!--link Repositories to GreenSpaceRepository--><g id="link_Repositories_GreenSpaceRepository"><path codeLine="85" d="M232.13,712.3137 C243.8,739.4137 253.6365,762.2331 263.6465,785.4731 " fill="none" id="Repositories-to-GreenSpaceRepository" style="stroke:#181818;stroke-width:1.0;"/><polygon fill="#181818" points="266.02,790.9837,266.1334,781.1355,264.0421,786.3915,258.786,784.3002,266.02,790.9837" style="stroke:#181818;stroke-width:1.0;"/><text fill="#000000" font-family="sans-serif" font-size="13" lengthAdjust="spacing" textLength="7" x="255.5961" y="779.907">1</text></g><!--link Repositories to Repositories--><g id="link_Repositories_Repositories"><path codeLine="86" d="M358.02,590.9837 C379.11,594.9537 393,602.4637 393,613.5137 C393,624.5637 385.0064,630.9637 363.9164,634.9337 " fill="none" id="Repositories-to-Repositories" style="stroke:#181818;stroke-width:1.0;"/><polygon fill="#181818" points="358.02,636.0437,367.6046,638.3097,362.9337,635.1187,366.1247,630.4478,358.02,636.0437" style="stroke:#181818;stroke-width:1.0;"/><text fill="#000000" font-family="sans-serif" font-size="13" lengthAdjust="spacing" textLength="49" x="399" y="619.042">instance</text></g><!--link Repositories to AuthenticationRepository--><g id="link_Repositories_AuthenticationRepository"><path codeLine="87" d="M358.14,613.5137 C395.08,613.5137 443.33,613.5137 443.33,613.5137 C443.33,613.5137 449.55,613.5137 466.39,613.5137 " fill="none" id="Repositories-to-AuthenticationRepository" style="stroke:#181818;stroke-width:1.0;"/><polygon fill="#181818" points="472.39,613.5137,463.39,609.5137,467.39,613.5137,463.39,617.5137,472.39,613.5137" style="stroke:#181818;stroke-width:1.0;"/></g><!--link GreenSpaceRepository to Employee--><g id="link_GreenSpaceRepository_Employee"><path codeLine="89" d="M337.77,895.2837 C361.33,919.5537 386.6605,945.6488 416.6705,976.5588 " fill="none" id="GreenSpaceRepository-to-Employee" style="stroke:#181818;stroke-width:1.0;"/><polygon fill="#181818" points="420.85,980.8637,417.4506,971.6201,417.3671,977.2763,411.7108,977.1927,420.85,980.8637" style="stroke:#181818;stroke-width:1.0;"/><text fill="#000000" font-family="sans-serif" font-size="13" lengthAdjust="spacing" textLength="7" x="336.4092" y="916.7444">1</text><text fill="#000000" font-family="sans-serif" font-size="13" lengthAdjust="spacing" textLength="7" x="406.456" y="970.0038">1</text></g><!--link AuthenticationRepository to Employee--><g id="link_AuthenticationRepository_Employee"><path codeLine="91" d="M570,647.0437 C570,712.5237 570,857.9537 570,974.7937 " fill="none" id="AuthenticationRepository-to-Employee" style="stroke:#181818;stroke-width:1.0;"/><polygon fill="#181818" points="570,980.7937,574,971.7937,570,975.7937,566,971.7937,570,980.7937" style="stroke:#181818;stroke-width:1.0;"/><text fill="#000000" font-family="sans-serif" font-size="13" lengthAdjust="spacing" textLength="7" x="562.3766" y="668.6183">1</text><text fill="#000000" font-family="sans-serif" font-size="13" lengthAdjust="spacing" textLength="7" x="562.8305" y="969.9305">1</text></g><!--link CreateGreenSpaceController to Repositories--><g id="link_CreateGreenSpaceController_Repositories"><path codeLine="93" d="M571.66,411.1537 C514.73,439.8737 455,470.0137 455,470.0137 C455,470.0137 415.9146,491.0323 363.4846,519.2223 " fill="none" id="CreateGreenSpaceController-to-Repositories" style="stroke:#181818;stroke-width:1.0;stroke-dasharray:7.0,7.0;"/><polygon fill="#181818" points="358.2,522.0637,368.0211,521.3247,362.6038,519.6959,364.2326,514.2786,358.2,522.0637" style="stroke:#181818;stroke-width:1.0;"/><text fill="#000000" font-family="sans-serif" font-size="13" lengthAdjust="spacing" textLength="67" x="508" y="458.042">getInstance</text><text fill="#000000" font-family="sans-serif" font-size="13" lengthAdjust="spacing" textLength="7" x="551.2274" y="432.9789">1</text><text fill="#000000" font-family="sans-serif" font-size="13" lengthAdjust="spacing" textLength="7" x="365.9802" y="514.5703">1</text></g><!--link CreateGreenSpaceController to Employee--><g id="link_CreateGreenSpaceController_Employee"><path codeLine="94" d="M678.11,411.1537 C680.99,439.8737 684,470.0137 684,470.0137 C684,470.0137 684,919.0137 684,919.0137 C684,919.0137 672.5556,940.6401 654.1356,975.4601 " fill="none" id="CreateGreenSpaceController-to-Employee" style="stroke:#181818;stroke-width:1.0;stroke-dasharray:7.0,7.0;"/><polygon fill="#181818" points="651.33,980.7637,659.0742,974.6787,653.668,976.344,652.0027,970.9378,651.33,980.7637" style="stroke:#181818;stroke-width:1.0;"/><text fill="#000000" font-family="sans-serif" font-size="13" lengthAdjust="spacing" textLength="108" x="685" y="757.042">createGreenSpace</text></g><!--link Employee to GreenSpace--><g id="link_Employee_GreenSpace"><path codeLine="96" d="M570,1290.4337 C570,1317.5737 570,1338.7737 570,1362.7537 " fill="none" id="Employee-to-GreenSpace" style="stroke:#181818;stroke-width:1.0;"/><polygon fill="#181818" points="570,1368.7537,574,1359.7537,570,1363.7537,566,1359.7537,570,1368.7537" style="stroke:#181818;stroke-width:1.0;"/><text fill="#000000" font-family="sans-serif" font-size="13" lengthAdjust="spacing" textLength="133" x="571" y="1335.042">createNewGreenSpace</text><text fill="#000000" font-family="sans-serif" font-size="13" lengthAdjust="spacing" textLength="7" x="562.8414" y="1311.8805">1</text><text fill="#000000" font-family="sans-serif" font-size="13" lengthAdjust="spacing" textLength="5" x="564.7695" y="1357.6254">*</text></g><!--SRC=[hLPDKzim4BthLsYu44fWsgk7oGmbmAJJKgPfRxt8ziPHqKSgoK2QwNz7jXL5icNAeSaXezst7s-zUiwnVg1YGnJXc4iXYxMI7B1HDQ23PqEA1rB1qcmPO0M58Q9Y8K2lIIcVgAZmYZ0TUXWLOBORm1l9jiq17IUSKXc9WgY24QqlZL4qhmqi2YcMz0_WzmWTCrWPR2HMj5eRNDAc7Ie5GlTTa_XA2gCaOw3mnSMDP2MesMo7sfJuIW4nSAi0nDAoWW2yGzX-pYemrtp3v1RWnivY2LhRz9EJrdlwIe99vOtVO2CrDL9jzs55Bom0tn4EKtmuNrhe2VfhlvxIZyKRg5XGH-5KrRvV1Rzhq6PE3Fb7oV1yrHIWArgGPhHJp8cmRIYNKzSvfrtAkCfjb73KsLGVTSQbUx0lNH-JtdWEuqwCoJifQFU8CHNQhd01MUXqljHJp6uJHeS7jom1-dfWSbXIcpK8uyW54PSZ3eJS_jYjNBYc_IfQMwglq3_i9FIELMtdwyQNgh1BDQ1zvaV2Q1blku2dmscF8sKv3l4DZ3Mv6xACxskq8dF92HM9zTZ7kjKGTZUpfTKTKNM6d2gpRjXaTk6Xiv6IqxRAl6ylbItV7RZCAMlbWHGcIWcs5PPoBEQbBBvRFUnPHSrpK97HaEUxeVMNpBDFCdTBiwU69nq62oljqy-o8Apf6JUilgu-DWIdFyN17j6ROXVCfIAbLGaghFm20ouVWTauvsv9UJ0jvnsJ3kzeTHtRc3O7URudMr2BqfdtiLPDRPYbWIsTv2PwgOua9Pf4h6tPNDOvWxuhrfeetYcUlyfkf6yMyBUhwV2s_2-nRYz0uYrnzE48dv_Fsj_nrnb2eJZYixCk8Ac4CN8MQIxElDmESEEobohJrj_tSNWmOqb6uA_y0mW7qwCGwEzh6PfeV-somLiV8U_qpRqBP-fZxa8rH2y0]--></g></svg>