<?xml version="1.0" encoding="us-ascii" standalone="no"?><svg xmlns="http://www.w3.org/2000/svg" xmlns:xlink="http://www.w3.org/1999/xlink" contentStyleType="text/css" height="487px" preserveAspectRatio="none" style="width:522px;height:487px;background:#FFFFFF;" version="1.1" viewBox="0 0 522 487" width="522px" zoomAndPan="magnify"><defs/><g><text fill="#000000" font-family="sans-serif" font-size="14" font-weight="bold" lengthAdjust="spacing" textLength="286" x="117.25" y="28.5352">System Sequence Diagram (SSD) - US08</text><rect fill="#FFFFFF" height="235.4844" style="stroke:#181818;stroke-width:1.0;" width="10" x="45.5" y="145.4648"/><rect fill="#FFFFFF" height="29.3105" style="stroke:#181818;stroke-width:1.0;" width="10" x="478.5" y="166.7754"/><rect fill="#FFFFFF" height="29.3105" style="stroke:#181818;stroke-width:1.0;" width="10" x="478.5" y="225.3965"/><rect fill="#FFFFFF" height="29.3105" style="stroke:#181818;stroke-width:1.0;" width="10" x="478.5" y="284.0176"/><rect fill="#FFFFFF" height="29.3105" style="stroke:#181818;stroke-width:1.0;" width="10" x="478.5" y="342.6387"/><line style="stroke:#181818;stroke-width:0.5;stroke-dasharray:5.0,5.0;" x1="50" x2="50" y1="135.4648" y2="389.9492"/><line style="stroke:#181818;stroke-width:0.5;stroke-dasharray:5.0,5.0;" x1="483.5" x2="483.5" y1="135.4648" y2="389.9492"/><text fill="#000000" font-family="sans-serif" font-size="14" lengthAdjust="spacing" textLength="85" x="5" y="116.0234">Green Space</text><text fill="#000000" font-family="sans-serif" font-size="14" lengthAdjust="spacing" textLength="60" x="17.5" y="132.5117">Manager</text><ellipse cx="50.5" cy="50.9883" fill="#E3E3E3" rx="8" ry="8" style="stroke:#181818;stroke-width:0.5;"/><path d="M50.5,58.9883 L50.5,85.9883 M37.5,66.9883 L63.5,66.9883 M50.5,85.9883 L37.5,100.9883 M50.5,85.9883 L63.5,100.9883 " fill="none" style="stroke:#181818;stroke-width:0.5;"/><text fill="#000000" font-family="sans-serif" font-size="14" lengthAdjust="spacing" textLength="85" x="5" y="402.4844">Green Space</text><text fill="#000000" font-family="sans-serif" font-size="14" lengthAdjust="spacing" textLength="60" x="17.5" y="418.9727">Manager</text><ellipse cx="50.5" cy="430.4258" fill="#E3E3E3" rx="8" ry="8" style="stroke:#181818;stroke-width:0.5;"/><path d="M50.5,438.4258 L50.5,465.4258 M37.5,446.4258 L63.5,446.4258 M50.5,465.4258 L37.5,480.4258 M50.5,465.4258 L63.5,480.4258 " fill="none" style="stroke:#181818;stroke-width:0.5;"/><rect fill="#E3E3E3" height="30.4883" rx="2.5" ry="2.5" style="stroke:#181818;stroke-width:0.5;" width="66" x="450.5" y="103.9766"/><text fill="#000000" font-family="sans-serif" font-size="14" lengthAdjust="spacing" textLength="52" x="457.5" y="124.5117">:System</text><rect fill="#E3E3E3" height="30.4883" rx="2.5" ry="2.5" style="stroke:#181818;stroke-width:0.5;" width="66" x="450.5" y="388.9492"/><text fill="#000000" font-family="sans-serif" font-size="14" lengthAdjust="spacing" textLength="52" x="457.5" y="409.4844">:System</text><rect fill="#FFFFFF" height="235.4844" style="stroke:#181818;stroke-width:1.0;" width="10" x="45.5" y="145.4648"/><rect fill="#FFFFFF" height="29.3105" style="stroke:#181818;stroke-width:1.0;" width="10" x="478.5" y="166.7754"/><rect fill="#FFFFFF" height="29.3105" style="stroke:#181818;stroke-width:1.0;" width="10" x="478.5" y="225.3965"/><rect fill="#FFFFFF" height="29.3105" style="stroke:#181818;stroke-width:1.0;" width="10" x="478.5" y="284.0176"/><rect fill="#FFFFFF" height="29.3105" style="stroke:#181818;stroke-width:1.0;" width="10" x="478.5" y="342.6387"/><polygon fill="#181818" points="466.5,162.7754,476.5,166.7754,466.5,170.7754,470.5,166.7754" style="stroke:#181818;stroke-width:1.0;"/><line style="stroke:#181818;stroke-width:1.0;" x1="55.5" x2="472.5" y1="166.7754" y2="166.7754"/><text fill="#000000" font-family="sans-serif" font-size="13" font-weight="bold" lengthAdjust="spacing" textLength="9" x="62.5" y="162.0332">1</text><text fill="#000000" font-family="sans-serif" font-size="13" lengthAdjust="spacing" textLength="391" x="75.5" y="162.0332">Asks to assign one ore more vehicle to an entry in the Agenda</text><polygon fill="#181818" points="66.5,192.0859,56.5,196.0859,66.5,200.0859,62.5,196.0859" style="stroke:#181818;stroke-width:1.0;"/><line style="stroke:#181818;stroke-width:1.0;stroke-dasharray:2.0,2.0;" x1="60.5" x2="482.5" y1="196.0859" y2="196.0859"/><text fill="#000000" font-family="sans-serif" font-size="13" font-weight="bold" lengthAdjust="spacing" textLength="9" x="72.5" y="191.3438">2</text><text fill="#000000" font-family="sans-serif" font-size="13" lengthAdjust="spacing" textLength="220" x="85.5" y="191.3438">Shows the entries from the Agenda</text><polygon fill="#181818" points="466.5,221.3965,476.5,225.3965,466.5,229.3965,470.5,225.3965" style="stroke:#181818;stroke-width:1.0;"/><line style="stroke:#181818;stroke-width:1.0;" x1="55.5" x2="472.5" y1="225.3965" y2="225.3965"/><text fill="#000000" font-family="sans-serif" font-size="13" font-weight="bold" lengthAdjust="spacing" textLength="9" x="62.5" y="220.6543">3</text><text fill="#000000" font-family="sans-serif" font-size="13" lengthAdjust="spacing" textLength="213" x="75.5" y="220.6543">Selects the entry from the Agenda</text><polygon fill="#181818" points="66.5,250.707,56.5,254.707,66.5,258.707,62.5,254.707" style="stroke:#181818;stroke-width:1.0;"/><line style="stroke:#181818;stroke-width:1.0;stroke-dasharray:2.0,2.0;" x1="60.5" x2="482.5" y1="254.707" y2="254.707"/><text fill="#000000" font-family="sans-serif" font-size="13" font-weight="bold" lengthAdjust="spacing" textLength="9" x="72.5" y="249.9648">4</text><text fill="#000000" font-family="sans-serif" font-size="13" lengthAdjust="spacing" textLength="179" x="85.5" y="249.9648">Shows the available Vehicles</text><polygon fill="#181818" points="466.5,280.0176,476.5,284.0176,466.5,288.0176,470.5,284.0176" style="stroke:#181818;stroke-width:1.0;"/><line style="stroke:#181818;stroke-width:1.0;" x1="55.5" x2="472.5" y1="284.0176" y2="284.0176"/><text fill="#000000" font-family="sans-serif" font-size="13" font-weight="bold" lengthAdjust="spacing" textLength="9" x="62.5" y="279.2754">5</text><text fill="#000000" font-family="sans-serif" font-size="13" lengthAdjust="spacing" textLength="296" x="75.5" y="279.2754">Selects one or more from the available vehicles</text><polygon fill="#181818" points="66.5,309.3281,56.5,313.3281,66.5,317.3281,62.5,313.3281" style="stroke:#181818;stroke-width:1.0;"/><line style="stroke:#181818;stroke-width:1.0;stroke-dasharray:2.0,2.0;" x1="60.5" x2="482.5" y1="313.3281" y2="313.3281"/><text fill="#000000" font-family="sans-serif" font-size="13" font-weight="bold" lengthAdjust="spacing" textLength="9" x="72.5" y="308.5859">6</text><text fill="#000000" font-family="sans-serif" font-size="13" lengthAdjust="spacing" textLength="297" x="85.5" y="308.5859">Shows selected data and requests confirmation</text><polygon fill="#181818" points="466.5,338.6387,476.5,342.6387,466.5,346.6387,470.5,342.6387" style="stroke:#181818;stroke-width:1.0;"/><line style="stroke:#181818;stroke-width:1.0;" x1="55.5" x2="472.5" y1="342.6387" y2="342.6387"/><text fill="#000000" font-family="sans-serif" font-size="13" font-weight="bold" lengthAdjust="spacing" textLength="9" x="62.5" y="337.8965">7</text><text fill="#000000" font-family="sans-serif" font-size="13" lengthAdjust="spacing" textLength="89" x="75.5" y="337.8965">Confirms data</text><polygon fill="#181818" points="66.5,367.9492,56.5,371.9492,66.5,375.9492,62.5,371.9492" style="stroke:#181818;stroke-width:1.0;"/><line style="stroke:#181818;stroke-width:1.0;stroke-dasharray:2.0,2.0;" x1="60.5" x2="482.5" y1="371.9492" y2="371.9492"/><text fill="#000000" font-family="sans-serif" font-size="13" font-weight="bold" lengthAdjust="spacing" textLength="9" x="72.5" y="367.207">8</text><text fill="#000000" font-family="sans-serif" font-size="13" lengthAdjust="spacing" textLength="224" x="85.5" y="367.207">Shows operations success message</text><!--SRC=[dPB1JiCm38RlVGfh9pXCueXsG9e0SU8KmOcBbtfjjCOfiTkfRu_NRjs4ne7b42MA_N-_7SikS8iP8yJ4oTSvHGBD7HKolxJeTrYHqw4XoEGLkMek0wJ6Ckq3Lx35HgWeDAY5ka6K8ZZwxeWzmKl0wX1-vzpBFIpXmpqy5WLschYB6yfszfeoBDuo4OCpBdtnExB1ym9Gu3MsJHg82kDgyA55LbYi9j0OCHr7fT2ZqZcb05kd6ooVJlPMi9QTW2PBbr0n92P8cQmXjlLK1s-r79uPY3KF41Yq9bXNn2MEiZFjX8VZEZAMXflHAt1rsikeSH0C9B2rllyMBUcgxDKI73NsBsVDuQhYpJQnnz3WnlhmEVL3RdOuTNTgxkpnhDzVwj_aLqOGbL2YedrQQIDh0oZ6zect8KVKaFZV1JnFoJBgtculjPH70-Qqyvv48Dfc8_wNe-87]--></g></svg>