<?xml version="1.0" encoding="us-ascii" standalone="no"?><svg xmlns="http://www.w3.org/2000/svg" xmlns:xlink="http://www.w3.org/1999/xlink" contentStyleType="text/css" height="1002px" preserveAspectRatio="none" style="width:1662px;height:1002px;background:#FFFFFF;" version="1.1" viewBox="0 0 1662 1002" width="1662px" zoomAndPan="magnify"><defs/><g><!--cluster Controller--><g id="cluster_Controller"><path d="M783.5,154.49 L857.5,154.49 A3.75,3.75 0 0 1 860,156.99 L867,176.9783 L1220.5,176.9783 A2.5,2.5 0 0 1 1223,179.4783 L1223,283.96 A2.5,2.5 0 0 1 1220.5,286.46 L783.5,286.46 A2.5,2.5 0 0 1 781,283.96 L781,156.99 A2.5,2.5 0 0 1 783.5,154.49 " fill="none" style="stroke:#000000;stroke-width:1.5;"/><line style="stroke:#000000;stroke-width:1.5;" x1="781" x2="867" y1="176.9783" y2="176.9783"/><text fill="#000000" font-family="sans-serif" font-size="14" font-weight="bold" lengthAdjust="spacing" textLength="73" x="785" y="170.0252">Controller</text></g><!--cluster UI--><g id="cluster_UI"><path d="M889.5,6 L905.5,6 A3.75,3.75 0 0 1 908,8.5 L915,28.4883 L1114.5,28.4883 A2.5,2.5 0 0 1 1117,30.9883 L1117,118.99 A2.5,2.5 0 0 1 1114.5,121.49 L889.5,121.49 A2.5,2.5 0 0 1 887,118.99 L887,8.5 A2.5,2.5 0 0 1 889.5,6 " fill="none" style="stroke:#000000;stroke-width:1.5;"/><line style="stroke:#000000;stroke-width:1.5;" x1="887" x2="915" y1="28.4883" y2="28.4883"/><text fill="#000000" font-family="sans-serif" font-size="14" font-weight="bold" lengthAdjust="spacing" textLength="15" x="891" y="21.5352">UI</text></g><!--cluster RepositoriesPkg--><g id="cluster_RepositoriesPkg"><path d="M8.5,335.46 L127.5,335.46 A3.75,3.75 0 0 1 130,337.96 L137,357.9483 L1646.5,357.9483 A2.5,2.5 0 0 1 1649,360.4483 L1649,547.38 A2.5,2.5 0 0 1 1646.5,549.88 L8.5,549.88 A2.5,2.5 0 0 1 6,547.38 L6,337.96 A2.5,2.5 0 0 1 8.5,335.46 " fill="none" style="stroke:#000000;stroke-width:1.5;"/><line style="stroke:#000000;stroke-width:1.5;" x1="6" x2="137" y1="357.9483" y2="357.9483"/><text fill="#000000" font-family="sans-serif" font-size="14" font-weight="bold" lengthAdjust="spacing" textLength="118" x="10" y="350.9952">RepositoriesPkg</text></g><!--cluster Domain--><g id="cluster_Domain"><path d="M419.5,582.88 L476.5,582.88 A3.75,3.75 0 0 1 479,585.38 L486,605.3683 L1652.5,605.3683 A2.5,2.5 0 0 1 1655,607.8683 L1655,992.66 A2.5,2.5 0 0 1 1652.5,995.16 L419.5,995.16 A2.5,2.5 0 0 1 417,992.66 L417,585.38 A2.5,2.5 0 0 1 419.5,582.88 " fill="none" style="stroke:#000000;stroke-width:1.5;"/><line style="stroke:#000000;stroke-width:1.5;" x1="417" x2="486" y1="605.3683" y2="605.3683"/><text fill="#000000" font-family="sans-serif" font-size="14" font-weight="bold" lengthAdjust="spacing" textLength="56" x="421" y="598.4152">Domain</text></g><!--class PostponeAgendaEntryController--><g id="elem_PostponeAgendaEntryController"><rect codeLine="11" fill="#F1F1F1" height="80.9766" id="PostponeAgendaEntryController" rx="2.5" ry="2.5" style="stroke:#181818;stroke-width:0.5;" width="411" x="796.5" y="189.49"/><ellipse cx="886.75" cy="205.49" fill="#ADD1B2" rx="11" ry="11" style="stroke:#181818;stroke-width:1.0;"/><path d="M889.7231,211.1331 Q889.1421,211.4319 888.5029,211.5813 Q887.8638,211.7307 887.1582,211.7307 Q884.6514,211.7307 883.3315,210.0789 Q882.0117,208.427 882.0117,205.3059 Q882.0117,202.1765 883.3315,200.5247 Q884.6514,198.8728 887.1582,198.8728 Q887.8638,198.8728 888.5112,199.0222 Q889.1587,199.1716 889.7231,199.4705 L889.7231,202.1931 Q889.0923,201.6121 888.4988,201.3423 Q887.9053,201.0725 887.2744,201.0725 Q885.9297,201.0725 885.2449,202.1392 Q884.5601,203.2058 884.5601,205.3059 Q884.5601,207.3977 885.2449,208.4644 Q885.9297,209.531 887.2744,209.531 Q887.9053,209.531 888.4988,209.2612 Q889.0923,208.9915 889.7231,208.4104 Z " fill="#000000"/><text fill="#000000" font-family="sans-serif" font-size="14" lengthAdjust="spacing" textLength="222" x="907.25" y="210.781">PostponeAgendaEntryController</text><line style="stroke:#181818;stroke-width:0.5;" x1="797.5" x2="1206.5" y1="221.49" y2="221.49"/><line style="stroke:#181818;stroke-width:0.5;" x1="797.5" x2="1206.5" y1="229.49" y2="229.49"/><text fill="#000000" font-family="sans-serif" font-size="14" lengthAdjust="spacing" textLength="399" x="802.5" y="247.0252">+getEntriesFromAgendaStartingFrom(currentDate, status)</text><text fill="#000000" font-family="sans-serif" font-size="14" lengthAdjust="spacing" textLength="329" x="802.5" y="263.5134">+getAvailableVehiclesWithinTime(selectedEntry)</text></g><!--class PostponeAgendaEntryUI--><g id="elem_PostponeAgendaEntryUI"><rect codeLine="17" fill="#F1F1F1" height="64.4883" id="PostponeAgendaEntryUI" rx="2.5" ry="2.5" style="stroke:#181818;stroke-width:0.5;" width="198" x="903" y="41"/><ellipse cx="918" cy="57" fill="#ADD1B2" rx="11" ry="11" style="stroke:#181818;stroke-width:1.0;"/><path d="M920.9731,62.6431 Q920.3921,62.9419 919.7529,63.0913 Q919.1138,63.2407 918.4082,63.2407 Q915.9014,63.2407 914.5815,61.5889 Q913.2617,59.937 913.2617,56.8159 Q913.2617,53.6865 914.5815,52.0347 Q915.9014,50.3828 918.4082,50.3828 Q919.1138,50.3828 919.7612,50.5322 Q920.4087,50.6816 920.9731,50.9805 L920.9731,53.7031 Q920.3423,53.1221 919.7488,52.8523 Q919.1553,52.5825 918.5244,52.5825 Q917.1797,52.5825 916.4949,53.6492 Q915.8101,54.7158 915.8101,56.8159 Q915.8101,58.9077 916.4949,59.9744 Q917.1797,61.041 918.5244,61.041 Q919.1553,61.041 919.7488,60.7712 Q920.3423,60.5015 920.9731,59.9204 Z " fill="#000000"/><text fill="#000000" font-family="sans-serif" font-size="14" lengthAdjust="spacing" textLength="166" x="932" y="62.291">PostponeAgendaEntryUI</text><line style="stroke:#181818;stroke-width:0.5;" x1="904" x2="1100" y1="73" y2="73"/><line style="stroke:#181818;stroke-width:0.5;" x1="904" x2="1100" y1="81" y2="81"/><text fill="#000000" font-family="sans-serif" font-size="14" lengthAdjust="spacing" textLength="45" x="909" y="98.5352">+run()</text></g><!--class Repositories--><g id="elem_Repositories"><rect codeLine="24" fill="#F1F1F1" height="163.418" id="Repositories" rx="2.5" ry="2.5" style="stroke:#181818;stroke-width:0.5;" width="310" x="22" y="370.46"/><ellipse cx="130.25" cy="386.46" fill="#ADD1B2" rx="11" ry="11" style="stroke:#181818;stroke-width:1.0;"/><path d="M133.2231,392.1031 Q132.6421,392.4019 132.0029,392.5513 Q131.3638,392.7007 130.6582,392.7007 Q128.1514,392.7007 126.8315,391.0489 Q125.5117,389.397 125.5117,386.2759 Q125.5117,383.1465 126.8315,381.4947 Q128.1514,379.8428 130.6582,379.8428 Q131.3638,379.8428 132.0112,379.9922 Q132.6587,380.1416 133.2231,380.4405 L133.2231,383.1631 Q132.5923,382.5821 131.9988,382.3123 Q131.4053,382.0425 130.7744,382.0425 Q129.4297,382.0425 128.7449,383.1092 Q128.0601,384.1758 128.0601,386.2759 Q128.0601,388.3677 128.7449,389.4344 Q129.4297,390.501 130.7744,390.501 Q131.4053,390.501 131.9988,390.2312 Q132.5923,389.9615 133.2231,389.3804 Z " fill="#000000"/><text fill="#000000" font-family="sans-serif" font-size="14" lengthAdjust="spacing" textLength="85" x="150.75" y="391.751">Repositories</text><line style="stroke:#181818;stroke-width:0.5;" x1="23" x2="331" y1="402.46" y2="402.46"/><text fill="#000000" font-family="sans-serif" font-size="14" lengthAdjust="spacing" textLength="162" x="28" y="419.9952">-instance : Repositories</text><text fill="#000000" font-family="sans-serif" font-size="14" lengthAdjust="spacing" textLength="194" x="28" y="436.4834">-Repository : SkillRepository</text><text fill="#000000" font-family="sans-serif" font-size="14" lengthAdjust="spacing" textLength="270" x="28" y="452.9717">-agendaRepository : AgendaRepository</text><text fill="#000000" font-family="sans-serif" font-size="14" lengthAdjust="spacing" textLength="298" x="28" y="469.46">-employeeRepository : EmployeeRepository</text><line style="stroke:#181818;stroke-width:0.5;" x1="23" x2="331" y1="476.4131" y2="476.4131"/><text fill="#000000" font-family="sans-serif" font-size="14" lengthAdjust="spacing" textLength="197" x="28" y="493.9483">+getInstance() : Repositories</text><text fill="#000000" font-family="sans-serif" font-size="14" lengthAdjust="spacing" textLength="169" x="28" y="510.4366">+getAgendaRepository()</text><text fill="#000000" font-family="sans-serif" font-size="14" lengthAdjust="spacing" textLength="182" x="28" y="526.9248">+getEmployeeRepository()</text></g><!--class AgendaRepository--><g id="elem_AgendaRepository"><rect codeLine="35" fill="#F1F1F1" height="80.9766" id="AgendaRepository" rx="2.5" ry="2.5" style="stroke:#181818;stroke-width:0.5;" width="411" x="450.5" y="411.69"/><ellipse cx="588.75" cy="427.69" fill="#ADD1B2" rx="11" ry="11" style="stroke:#181818;stroke-width:1.0;"/><path d="M591.7231,433.3331 Q591.1421,433.6319 590.5029,433.7813 Q589.8638,433.9307 589.1582,433.9307 Q586.6514,433.9307 585.3315,432.2789 Q584.0117,430.627 584.0117,427.5059 Q584.0117,424.3765 585.3315,422.7247 Q586.6514,421.0728 589.1582,421.0728 Q589.8638,421.0728 590.5112,421.2222 Q591.1587,421.3716 591.7231,421.6705 L591.7231,424.3931 Q591.0923,423.8121 590.4988,423.5423 Q589.9053,423.2725 589.2744,423.2725 Q587.9297,423.2725 587.2449,424.3392 Q586.5601,425.4058 586.5601,427.5059 Q586.5601,429.5977 587.2449,430.6644 Q587.9297,431.731 589.2744,431.731 Q589.9053,431.731 590.4988,431.4612 Q591.0923,431.1915 591.7231,430.6104 Z " fill="#000000"/><text fill="#000000" font-family="sans-serif" font-size="14" lengthAdjust="spacing" textLength="126" x="609.25" y="432.981">AgendaRepository</text><line style="stroke:#181818;stroke-width:0.5;" x1="451.5" x2="860.5" y1="443.69" y2="443.69"/><line style="stroke:#181818;stroke-width:0.5;" x1="451.5" x2="860.5" y1="451.69" y2="451.69"/><text fill="#000000" font-family="sans-serif" font-size="14" lengthAdjust="spacing" textLength="399" x="456.5" y="469.2252">+getEntriesFromAgendaStartingFrom(currentDate, status)</text><text fill="#000000" font-family="sans-serif" font-size="14" lengthAdjust="spacing" textLength="360" x="456.5" y="485.7134">+getEntriesFromAgendaPriorTo(currentDate, status)</text></g><!--class EmployeeRepository--><g id="elem_EmployeeRepository"><rect codeLine="41" fill="#F1F1F1" height="97.4648" id="EmployeeRepository" rx="2.5" ry="2.5" style="stroke:#181818;stroke-width:0.5;" width="246" x="1387" y="403.44"/><ellipse cx="1436.25" cy="419.44" fill="#ADD1B2" rx="11" ry="11" style="stroke:#181818;stroke-width:1.0;"/><path d="M1439.2231,425.0831 Q1438.6421,425.3819 1438.0029,425.5313 Q1437.3638,425.6807 1436.6582,425.6807 Q1434.1514,425.6807 1432.8315,424.0289 Q1431.5117,422.377 1431.5117,419.2559 Q1431.5117,416.1265 1432.8315,414.4747 Q1434.1514,412.8228 1436.6582,412.8228 Q1437.3638,412.8228 1438.0112,412.9722 Q1438.6587,413.1216 1439.2231,413.4205 L1439.2231,416.1431 Q1438.5923,415.5621 1437.9988,415.2923 Q1437.4053,415.0225 1436.7744,415.0225 Q1435.4297,415.0225 1434.7449,416.0892 Q1434.0601,417.1558 1434.0601,419.2559 Q1434.0601,421.3477 1434.7449,422.4144 Q1435.4297,423.481 1436.7744,423.481 Q1437.4053,423.481 1437.9988,423.2112 Q1438.5923,422.9415 1439.2231,422.3604 Z " fill="#000000"/><text fill="#000000" font-family="sans-serif" font-size="14" lengthAdjust="spacing" textLength="139" x="1456.75" y="424.731">EmployeeRepository</text><line style="stroke:#181818;stroke-width:0.5;" x1="1388" x2="1632" y1="435.44" y2="435.44"/><line style="stroke:#181818;stroke-width:0.5;" x1="1388" x2="1632" y1="443.44" y2="443.44"/><text fill="#000000" font-family="sans-serif" font-size="14" lengthAdjust="spacing" textLength="116" x="1393" y="460.9752">+getEmployees()</text><text fill="#000000" font-family="sans-serif" font-size="14" lengthAdjust="spacing" textLength="234" x="1393" y="477.4634">+validateEmployee(newEmployee)</text><text fill="#000000" font-family="sans-serif" font-size="14" lengthAdjust="spacing" textLength="214" x="1393" y="493.9517">+addEmployees(newEmployee)</text></g><!--class VehicleRepository--><g id="elem_VehicleRepository"><rect codeLine="48" fill="#F1F1F1" height="97.4648" id="VehicleRepository" rx="2.5" ry="2.5" style="stroke:#181818;stroke-width:0.5;" width="212" x="896" y="403.44"/><ellipse cx="937.1" cy="419.44" fill="#ADD1B2" rx="11" ry="11" style="stroke:#181818;stroke-width:1.0;"/><path d="M940.0731,425.0831 Q939.4921,425.3819 938.8529,425.5313 Q938.2138,425.6807 937.5082,425.6807 Q935.0014,425.6807 933.6815,424.0289 Q932.3617,422.377 932.3617,419.2559 Q932.3617,416.1265 933.6815,414.4747 Q935.0014,412.8228 937.5082,412.8228 Q938.2138,412.8228 938.8612,412.9722 Q939.5087,413.1216 940.0731,413.4205 L940.0731,416.1431 Q939.4423,415.5621 938.8488,415.2923 Q938.2553,415.0225 937.6244,415.0225 Q936.2797,415.0225 935.5949,416.0892 Q934.9101,417.1558 934.9101,419.2559 Q934.9101,421.3477 935.5949,422.4144 Q936.2797,423.481 937.6244,423.481 Q938.2553,423.481 938.8488,423.2112 Q939.4423,422.9415 940.0731,422.3604 Z " fill="#000000"/><text fill="#000000" font-family="sans-serif" font-size="14" lengthAdjust="spacing" textLength="122" x="956.9" y="424.731">VehicleRepository</text><line style="stroke:#181818;stroke-width:0.5;" x1="897" x2="1107" y1="435.44" y2="435.44"/><line style="stroke:#181818;stroke-width:0.5;" x1="897" x2="1107" y1="443.44" y2="443.44"/><text fill="#000000" font-family="sans-serif" font-size="14" lengthAdjust="spacing" textLength="99" x="902" y="460.9752">+getVehicles()</text><text fill="#000000" font-family="sans-serif" font-size="14" lengthAdjust="spacing" textLength="200" x="902" y="477.4634">+validateVehicle(newVehicle)</text><text fill="#000000" font-family="sans-serif" font-size="14" lengthAdjust="spacing" textLength="173" x="902" y="493.9517">+addVehicle(newVehicle)</text></g><!--class AuthenticationRepository--><g id="elem_AuthenticationRepository"><rect codeLine="54" fill="#F1F1F1" height="64.4883" id="AuthenticationRepository" rx="2.5" ry="2.5" style="stroke:#181818;stroke-width:0.5;" width="209" x="1142.5" y="419.93"/><ellipse cx="1158.85" cy="435.93" fill="#ADD1B2" rx="11" ry="11" style="stroke:#181818;stroke-width:1.0;"/><path d="M1161.8231,441.5731 Q1161.2421,441.8719 1160.6029,442.0213 Q1159.9638,442.1707 1159.2582,442.1707 Q1156.7514,442.1707 1155.4315,440.5189 Q1154.1117,438.867 1154.1117,435.7459 Q1154.1117,432.6165 1155.4315,430.9647 Q1156.7514,429.3128 1159.2582,429.3128 Q1159.9638,429.3128 1160.6112,429.4622 Q1161.2587,429.6116 1161.8231,429.9105 L1161.8231,432.6331 Q1161.1923,432.0521 1160.5988,431.7823 Q1160.0053,431.5125 1159.3744,431.5125 Q1158.0297,431.5125 1157.3449,432.5792 Q1156.6601,433.6458 1156.6601,435.7459 Q1156.6601,437.8377 1157.3449,438.9044 Q1158.0297,439.971 1159.3744,439.971 Q1160.0053,439.971 1160.5988,439.7012 Q1161.1923,439.4315 1161.8231,438.8504 Z " fill="#000000"/><text fill="#000000" font-family="sans-serif" font-size="14" lengthAdjust="spacing" textLength="174" x="1173.15" y="441.221">AuthenticationRepository</text><line style="stroke:#181818;stroke-width:0.5;" x1="1143.5" x2="1350.5" y1="451.93" y2="451.93"/><line style="stroke:#181818;stroke-width:0.5;" x1="1143.5" x2="1350.5" y1="459.93" y2="459.93"/><text fill="#000000" font-family="sans-serif" font-size="14" lengthAdjust="spacing" textLength="197" x="1148.5" y="477.4652">+getEmployeeFromSession()</text></g><!--class Entry--><g id="elem_Entry"><rect codeLine="60" fill="#F1F1F1" height="212.8828" id="Entry" rx="2.5" ry="2.5" style="stroke:#181818;stroke-width:0.5;" width="446" x="433" y="692.08"/><ellipse cx="634.25" cy="708.08" fill="#ADD1B2" rx="11" ry="11" style="stroke:#181818;stroke-width:1.0;"/><path d="M637.2231,713.7231 Q636.6421,714.0219 636.0029,714.1713 Q635.3638,714.3207 634.6582,714.3207 Q632.1514,714.3207 630.8315,712.6689 Q629.5117,711.017 629.5117,707.8959 Q629.5117,704.7665 630.8315,703.1147 Q632.1514,701.4628 634.6582,701.4628 Q635.3638,701.4628 636.0112,701.6122 Q636.6587,701.7616 637.2231,702.0605 L637.2231,704.7831 Q636.5923,704.2021 635.9988,703.9323 Q635.4053,703.6625 634.7744,703.6625 Q633.4297,703.6625 632.7449,704.7292 Q632.0601,705.7958 632.0601,707.8959 Q632.0601,709.9877 632.7449,711.0544 Q633.4297,712.121 634.7744,712.121 Q635.4053,712.121 635.9988,711.8512 Q636.5923,711.5815 637.2231,711.0004 Z " fill="#000000"/><text fill="#000000" font-family="sans-serif" font-size="14" lengthAdjust="spacing" textLength="35" x="654.75" y="713.371">Entry</text><line style="stroke:#181818;stroke-width:0.5;" x1="434" x2="878" y1="724.08" y2="724.08"/><text fill="#000000" font-family="sans-serif" font-size="14" lengthAdjust="spacing" textLength="91" x="439" y="741.6152">-String name</text><text fill="#000000" font-family="sans-serif" font-size="14" lengthAdjust="spacing" textLength="130" x="439" y="758.1034">-String description</text><text fill="#000000" font-family="sans-serif" font-size="14" lengthAdjust="spacing" textLength="157" x="439" y="774.5917">-String urgencyDegree</text><text fill="#000000" font-family="sans-serif" font-size="14" lengthAdjust="spacing" textLength="89" x="439" y="791.08">-int duration</text><text fill="#000000" font-family="sans-serif" font-size="14" lengthAdjust="spacing" textLength="173" x="439" y="807.5683">-GreenSpace greenSpace</text><text fill="#000000" font-family="sans-serif" font-size="14" lengthAdjust="spacing" textLength="94" x="439" y="824.0566">-String status</text><text fill="#000000" font-family="sans-serif" font-size="14" lengthAdjust="spacing" textLength="144" x="439" y="840.5448">-LocalDate entryDate</text><text fill="#000000" font-family="sans-serif" font-size="14" lengthAdjust="spacing" textLength="63" x="439" y="857.0331">-int hour</text><line style="stroke:#181818;stroke-width:0.5;" x1="434" x2="878" y1="863.9863" y2="863.9863"/><text fill="#000000" font-family="sans-serif" font-size="14" lengthAdjust="spacing" textLength="425" x="439" y="881.5214">+Entry(String name, String description, String urgencyDegree,</text><text fill="#000000" font-family="sans-serif" font-size="14" lengthAdjust="spacing" textLength="430" x="443" y="898.0097">int duration, GreenSpace greenSpace, LocalDate date, int hour)</text></g><!--class Vehicle--><g id="elem_Vehicle"><rect codeLine="72" fill="#F1F1F1" height="361.2773" id="Vehicle" rx="2.5" ry="2.5" style="stroke:#181818;stroke-width:0.5;" width="300" x="914" y="617.88"/><ellipse cx="1035.25" cy="633.88" fill="#ADD1B2" rx="11" ry="11" style="stroke:#181818;stroke-width:1.0;"/><path d="M1038.2231,639.5231 Q1037.6421,639.8219 1037.0029,639.9713 Q1036.3638,640.1207 1035.6582,640.1207 Q1033.1514,640.1207 1031.8315,638.4689 Q1030.5117,636.817 1030.5117,633.6959 Q1030.5117,630.5665 1031.8315,628.9147 Q1033.1514,627.2628 1035.6582,627.2628 Q1036.3638,627.2628 1037.0112,627.4122 Q1037.6587,627.5616 1038.2231,627.8605 L1038.2231,630.5831 Q1037.5923,630.0021 1036.9988,629.7323 Q1036.4053,629.4625 1035.7744,629.4625 Q1034.4297,629.4625 1033.7449,630.5292 Q1033.0601,631.5958 1033.0601,633.6959 Q1033.0601,635.7877 1033.7449,636.8544 Q1034.4297,637.921 1035.7744,637.921 Q1036.4053,637.921 1036.9988,637.6512 Q1037.5923,637.3815 1038.2231,636.8004 Z " fill="#000000"/><text fill="#000000" font-family="sans-serif" font-size="14" lengthAdjust="spacing" textLength="49" x="1055.75" y="639.171">Vehicle</text><line style="stroke:#181818;stroke-width:0.5;" x1="915" x2="1213" y1="649.88" y2="649.88"/><text fill="#000000" font-family="sans-serif" font-size="14" lengthAdjust="spacing" textLength="94" x="920" y="667.4152">-String brand</text><text fill="#000000" font-family="sans-serif" font-size="14" lengthAdjust="spacing" textLength="96" x="920" y="683.9034">-String model</text><text fill="#000000" font-family="sans-serif" font-size="14" lengthAdjust="spacing" textLength="82" x="920" y="700.3917">-String type</text><text fill="#000000" font-family="sans-serif" font-size="14" lengthAdjust="spacing" textLength="135" x="920" y="716.88">-Integer tareWeight</text><text fill="#000000" font-family="sans-serif" font-size="14" lengthAdjust="spacing" textLength="146" x="920" y="733.3683">-Integer grossWeight</text><text fill="#000000" font-family="sans-serif" font-size="14" lengthAdjust="spacing" textLength="141" x="920" y="749.8566">-Integer currenteKm</text><text fill="#000000" font-family="sans-serif" font-size="14" lengthAdjust="spacing" textLength="127" x="920" y="766.3448">-Date registerDate</text><text fill="#000000" font-family="sans-serif" font-size="14" lengthAdjust="spacing" textLength="149" x="920" y="782.8331">-Date acquisitionDate</text><text fill="#000000" font-family="sans-serif" font-size="14" lengthAdjust="spacing" textLength="220" x="920" y="799.3214">-Integer maintenanceFrequency</text><text fill="#000000" font-family="sans-serif" font-size="14" lengthAdjust="spacing" textLength="142" x="920" y="815.8097">-String plateNumber</text><text fill="#000000" font-family="sans-serif" font-size="14" lengthAdjust="spacing" textLength="194" x="920" y="832.298">-Integer passengersNumber</text><text fill="#000000" font-family="sans-serif" font-size="14" lengthAdjust="spacing" textLength="156" x="920" y="848.7863">-Integer doorsNumber</text><text fill="#000000" font-family="sans-serif" font-size="14" lengthAdjust="spacing" textLength="112" x="920" y="865.2745">-String fuelType</text><text fill="#000000" font-family="sans-serif" font-size="14" lengthAdjust="spacing" textLength="172" x="920" y="881.7628">-Boolean trailerMachines</text><line style="stroke:#181818;stroke-width:0.5;" x1="915" x2="1213" y1="888.7159" y2="888.7159"/><text fill="#000000" font-family="sans-serif" font-size="14" lengthAdjust="spacing" textLength="283" x="920" y="906.2511">+Vehicle(brand, model, type, tare weight,</text><text fill="#000000" font-family="sans-serif" font-size="14" lengthAdjust="spacing" textLength="266" x="924" y="922.7394">gross weight, current km,register date,</text><text fill="#000000" font-family="sans-serif" font-size="14" lengthAdjust="spacing" textLength="281" x="920" y="939.2277">acquisition date, maintenance frequency,</text><text fill="#000000" font-family="sans-serif" font-size="14" lengthAdjust="spacing" textLength="240" x="920" y="955.7159">plate number, passengers number,</text><text fill="#000000" font-family="sans-serif" font-size="14" lengthAdjust="spacing" textLength="288" x="920" y="972.2042">doors number, fuel type, trailer machines)</text></g><!--class Employee--><g id="elem_Employee"><rect codeLine="91" fill="#F1F1F1" height="278.8359" id="Employee" rx="2.5" ry="2.5" style="stroke:#181818;stroke-width:0.5;" width="389" x="1249.5" y="659.1"/><ellipse cx="1406.75" cy="675.1" fill="#ADD1B2" rx="11" ry="11" style="stroke:#181818;stroke-width:1.0;"/><path d="M1409.7231,680.7431 Q1409.1421,681.0419 1408.5029,681.1913 Q1407.8638,681.3407 1407.1582,681.3407 Q1404.6514,681.3407 1403.3315,679.6889 Q1402.0117,678.037 1402.0117,674.9159 Q1402.0117,671.7865 1403.3315,670.1347 Q1404.6514,668.4828 1407.1582,668.4828 Q1407.8638,668.4828 1408.5112,668.6322 Q1409.1587,668.7816 1409.7231,669.0805 L1409.7231,671.8031 Q1409.0923,671.2221 1408.4988,670.9523 Q1407.9053,670.6825 1407.2744,670.6825 Q1405.9297,670.6825 1405.2449,671.7492 Q1404.5601,672.8158 1404.5601,674.9159 Q1404.5601,677.0077 1405.2449,678.0744 Q1405.9297,679.141 1407.2744,679.141 Q1407.9053,679.141 1408.4988,678.8712 Q1409.0923,678.6015 1409.7231,678.0204 Z " fill="#000000"/><text fill="#000000" font-family="sans-serif" font-size="14" lengthAdjust="spacing" textLength="66" x="1427.25" y="680.391">Employee</text><line style="stroke:#181818;stroke-width:0.5;" x1="1250.5" x2="1637.5" y1="691.1" y2="691.1"/><text fill="#000000" font-family="sans-serif" font-size="14" lengthAdjust="spacing" textLength="91" x="1255.5" y="708.6352">-name:String</text><text fill="#000000" font-family="sans-serif" font-size="14" lengthAdjust="spacing" textLength="106" x="1255.5" y="725.1234">-birthdate:Date</text><text fill="#000000" font-family="sans-serif" font-size="14" lengthAdjust="spacing" textLength="144" x="1255.5" y="741.6117">-admissionDate:Date</text><text fill="#000000" font-family="sans-serif" font-size="14" lengthAdjust="spacing" textLength="62" x="1255.5" y="758.1">-address</text><text fill="#000000" font-family="sans-serif" font-size="14" lengthAdjust="spacing" textLength="153" x="1255.5" y="774.5883">-mobileContact:String</text><text fill="#000000" font-family="sans-serif" font-size="14" lengthAdjust="spacing" textLength="143" x="1255.5" y="791.0766">-emailContact:String</text><text fill="#000000" font-family="sans-serif" font-size="14" lengthAdjust="spacing" textLength="125" x="1255.5" y="807.5648">-IDdocType:String</text><text fill="#000000" font-family="sans-serif" font-size="14" lengthAdjust="spacing" textLength="121" x="1255.5" y="824.0531">-IDnumber:String</text><text fill="#000000" font-family="sans-serif" font-size="14" lengthAdjust="spacing" textLength="130" x="1255.5" y="840.5414">-taxNumber:String</text><text fill="#000000" font-family="sans-serif" font-size="14" lengthAdjust="spacing" textLength="56" x="1255.5" y="857.0297">-job:Job</text><line style="stroke:#181818;stroke-width:0.5;" x1="1250.5" x2="1637.5" y1="863.9828" y2="863.9828"/><text fill="#000000" font-family="sans-serif" font-size="14" lengthAdjust="spacing" textLength="326" x="1255.5" y="881.518">+Employee (String nome,LocalDate dateOfBirth,</text><text fill="#000000" font-family="sans-serif" font-size="14" lengthAdjust="spacing" textLength="377" x="1255.5" y="898.0063">LocalDate admissionDate, String morada, int telemovel,</text><text fill="#000000" font-family="sans-serif" font-size="14" lengthAdjust="spacing" textLength="354" x="1255.5" y="914.4945">String email, String idDocType, int docTypeNumber,</text><text fill="#000000" font-family="sans-serif" font-size="14" lengthAdjust="spacing" textLength="290" x="1255.5" y="930.9828">int taxPayerIdNumber, String role, Job job)</text></g><!--link PostponeAgendaEntryUI to PostponeAgendaEntryController--><g id="link_PostponeAgendaEntryUI_PostponeAgendaEntryController"><path codeLine="107" d="M1002,105.93 C1002,129.98 1002,157.2 1002,183.07 " fill="none" id="PostponeAgendaEntryUI-to-PostponeAgendaEntryController" style="stroke:#181818;stroke-width:1.0;stroke-dasharray:7.0,7.0;"/><polygon fill="#181818" points="1002,189.07,1006,180.07,1002,184.07,998,180.07,1002,189.07" style="stroke:#181818;stroke-width:1.0;"/><text fill="#000000" font-family="sans-serif" font-size="13" lengthAdjust="spacing" textLength="8" x="993.2625" y="125.9363">1</text><text fill="#000000" font-family="sans-serif" font-size="13" lengthAdjust="spacing" textLength="8" x="993.3375" y="178.6465">1</text></g><!--link Repositories to Repositories--><g id="link_Repositories_Repositories"><path codeLine="112" d="M332.43,433.23 C353.2,436.44 367,442.75 367,452.17 C367,461.6 359.13,466.9964 338.36,470.1964 " fill="none" id="Repositories-to-Repositories" style="stroke:#181818;stroke-width:1.0;"/><polygon fill="#181818" points="332.43,471.11,341.9341,473.6929,337.3717,470.3486,340.716,465.7862,332.43,471.11" style="stroke:#181818;stroke-width:1.0;"/><text fill="#000000" font-family="sans-serif" font-size="13" lengthAdjust="spacing" textLength="53" x="373" y="457.2384">instance</text></g><!--link Repositories to AgendaRepository--><g id="link_Repositories_AgendaRepository"><path codeLine="113" d="M332.4,452.17 C335.14,452.17 336.67,452.17 336.67,452.17 C336.67,452.17 397,452.17 444.15,452.17 " fill="none" id="Repositories-to-AgendaRepository" style="stroke:#181818;stroke-width:1.0;stroke-dasharray:7.0,7.0;"/><polygon fill="#181818" points="450.15,452.17,441.15,448.17,445.15,452.17,441.15,456.17,450.15,452.17" style="stroke:#181818;stroke-width:1.0;"/><text fill="#000000" font-family="sans-serif" font-size="13" lengthAdjust="spacing" textLength="8" x="340.1209" y="449.3826">1</text><text fill="#000000" font-family="sans-serif" font-size="13" lengthAdjust="spacing" textLength="8" x="434.6085" y="449.4741">1</text></g><!--link Repositories to VehicleRepository--><g id="link_Repositories_VehicleRepository"><path codeLine="114" d="M332.13,372.08 C393.86,340.21 450.5,310.96 450.5,310.96 C450.5,310.96 861.5,310.96 861.5,310.96 C861.5,310.96 879,327.46 879,327.46 C879,327.46 915.0662,364.0387 949.5262,398.9687 " fill="none" id="Repositories-to-VehicleRepository" style="stroke:#181818;stroke-width:1.0;stroke-dasharray:7.0,7.0;"/><polygon fill="#181818" points="953.74,403.24,950.2668,394.0239,950.2285,399.6806,944.5718,399.6423,953.74,403.24" style="stroke:#181818;stroke-width:1.0;"/><text fill="#000000" font-family="sans-serif" font-size="13" lengthAdjust="spacing" textLength="8" x="339.8379" y="365.4133">1</text><text fill="#000000" font-family="sans-serif" font-size="13" lengthAdjust="spacing" textLength="8" x="938.0643" y="392.5427">1</text></g><!--link Repositories to AuthenticationRepository--><g id="link_Repositories_AuthenticationRepository"><path codeLine="115" d="M332.13,372.08 C393.86,340.21 450.5,310.96 450.5,310.96 C450.5,310.96 1107.5,310.96 1107.5,310.96 C1107.5,310.96 1125,327.46 1125,327.46 C1125,327.46 1174.9246,378.4906 1211.0646,415.4406 " fill="none" id="Repositories-to-AuthenticationRepository" style="stroke:#181818;stroke-width:1.0;stroke-dasharray:7.0,7.0;"/><polygon fill="#181818" points="1215.26,419.73,1211.8265,410.499,1211.7639,416.1555,1206.1074,416.0928,1215.26,419.73" style="stroke:#181818;stroke-width:1.0;"/><text fill="#000000" font-family="sans-serif" font-size="13" lengthAdjust="spacing" textLength="8" x="339.8379" y="381.1399">1</text><text fill="#000000" font-family="sans-serif" font-size="13" lengthAdjust="spacing" textLength="8" x="1199.8886" y="409.0919">1</text></g><!--link Repositories to EmployeeRepository--><g id="link_Repositories_EmployeeRepository"><path codeLine="116" d="M332.13,372.08 C393.86,340.21 450.5,310.96 450.5,310.96 C450.5,310.96 1351.5,310.96 1351.5,310.96 C1351.5,310.96 1404.7498,358.4091 1450.5298,399.1891 " fill="none" id="Repositories-to-EmployeeRepository" style="stroke:#181818;stroke-width:1.0;"/><polygon fill="#181818" points="1455.01,403.18,1450.9502,394.2068,1451.2765,399.8542,1445.629,400.1804,1455.01,403.18" style="stroke:#181818;stroke-width:1.0;"/><text fill="#000000" font-family="sans-serif" font-size="13" lengthAdjust="spacing" textLength="8" x="339.7153" y="360.6318">1</text><text fill="#000000" font-family="sans-serif" font-size="13" lengthAdjust="spacing" textLength="8" x="1438.7145" y="392.8259">1</text></g><!--link EmployeeRepository to Employee--><g id="link_EmployeeRepository_Employee"><path codeLine="118" d="M1500.82,501.05 C1493,541.89 1482.4691,596.8172 1471.7491,652.7672 " fill="none" id="EmployeeRepository-to-Employee" style="stroke:#181818;stroke-width:1.0;"/><polygon fill="#181818" points="1470.62,658.66,1476.2421,650.5735,1471.5609,653.7493,1468.3851,649.0681,1470.62,658.66" style="stroke:#181818;stroke-width:1.0;"/><text fill="#000000" font-family="sans-serif" font-size="13" lengthAdjust="spacing" textLength="8" x="1490.9666" y="521.5683">1</text><text fill="#000000" font-family="sans-serif" font-size="13" lengthAdjust="spacing" textLength="6" x="1465.9117" y="648.1782">*</text></g><!--link AgendaRepository to Entry--><g id="link_AgendaRepository_Entry"><path codeLine="119" d="M656,493.01 C656,541.25 656,618.4 656,685.63 " fill="none" id="AgendaRepository-to-Entry" style="stroke:#181818;stroke-width:1.0;"/><polygon fill="#181818" points="656,691.63,660,682.63,656,686.63,652,682.63,656,691.63" style="stroke:#181818;stroke-width:1.0;"/><text fill="#000000" font-family="sans-serif" font-size="13" lengthAdjust="spacing" textLength="8" x="647.3625" y="513.306">1</text><text fill="#000000" font-family="sans-serif" font-size="13" lengthAdjust="spacing" textLength="6" x="649.7891" y="681.1661">*</text></g><!--link VehicleRepository to Vehicle--><g id="link_VehicleRepository_Vehicle"><path codeLine="120" d="M1010.62,501.05 C1016.19,532.01 1022.7663,568.535 1030.5263,611.615 " fill="none" id="VehicleRepository-to-Vehicle" style="stroke:#181818;stroke-width:1.0;"/><polygon fill="#181818" points="1031.59,617.52,1033.9312,607.9534,1030.7036,612.5992,1026.0579,609.3717,1031.59,617.52" style="stroke:#181818;stroke-width:1.0;"/><text fill="#000000" font-family="sans-serif" font-size="13" lengthAdjust="spacing" textLength="8" x="1003.2697" y="521.5683">1</text><text fill="#000000" font-family="sans-serif" font-size="13" lengthAdjust="spacing" textLength="6" x="1024.0961" y="607.1426">*</text></g><!--link PostponeAgendaEntryController to AgendaRepository--><g id="link_PostponeAgendaEntryController_AgendaRepository"><path codeLine="123" d="M939.34,270.85 C876.83,310.64 786.3918,368.1884 723.8418,407.9984 " fill="none" id="PostponeAgendaEntryController-to-AgendaRepository" style="stroke:#181818;stroke-width:1.0;"/><polygon fill="#181818" points="718.78,411.22,728.5204,409.7622,722.9981,408.5354,724.2249,403.0131,718.78,411.22" style="stroke:#181818;stroke-width:1.0;"/></g><!--link PostponeAgendaEntryController to VehicleRepository--><g id="link_PostponeAgendaEntryController_VehicleRepository"><path codeLine="124" d="M1002,270.85 C1002,308.03 1002,357.55 1002,397.15 " fill="none" id="PostponeAgendaEntryController-to-VehicleRepository" style="stroke:#181818;stroke-width:1.0;"/><polygon fill="#181818" points="1002,403.15,1006,394.15,1002,398.15,998,394.15,1002,403.15" style="stroke:#181818;stroke-width:1.0;"/></g><!--link PostponeAgendaEntryController to Repositories--><g id="link_PostponeAgendaEntryController_Repositories"><path codeLine="125" d="M796.18,265.88 C633.26,293.5 433,327.46 433,327.46 C433,327.46 391.3523,347.5893 337.5923,373.5693 " fill="none" id="PostponeAgendaEntryController-to-Repositories" style="stroke:#181818;stroke-width:1.0;stroke-dasharray:7.0,7.0;"/><polygon fill="#181818" points="332.19,376.18,342.0338,375.8655,336.6919,374.0044,338.5529,368.6625,332.19,376.18" style="stroke:#181818;stroke-width:1.0;"/><text fill="#000000" font-family="sans-serif" font-size="13" lengthAdjust="spacing" textLength="75" x="571" y="316.0284">repositories</text><text fill="#000000" font-family="sans-serif" font-size="13" lengthAdjust="spacing" textLength="8" x="780.6396" y="264.4746">1</text><text fill="#000000" font-family="sans-serif" font-size="13" lengthAdjust="spacing" textLength="8" x="339.9008" y="385.4384">1</text></g><!--link PostponeAgendaEntryController to AuthenticationRepository--><g id="link_PostponeAgendaEntryController_AuthenticationRepository"><path codeLine="126" d="M1052.74,270.78 C1086.62,297.36 1125,327.46 1125,327.46 C1125,327.46 1175.5372,378.7077 1211.6872,415.3677 " fill="none" id="PostponeAgendaEntryController-to-AuthenticationRepository" style="stroke:#181818;stroke-width:1.0;"/><polygon fill="#181818" points="1215.9,419.64,1212.4289,410.4231,1212.3893,416.0798,1206.7326,416.0402,1215.9,419.64" style="stroke:#181818;stroke-width:1.0;"/><text fill="#000000" font-family="sans-serif" font-size="13" lengthAdjust="spacing" textLength="143" x="1115" y="316.0284">getCurrentUserSession</text><text fill="#000000" font-family="sans-serif" font-size="13" lengthAdjust="spacing" textLength="8" x="1052.1892" y="291.0712">1</text><text fill="#000000" font-family="sans-serif" font-size="13" lengthAdjust="spacing" textLength="8" x="1210.3106" y="408.9833">1</text></g><!--link PostponeAgendaEntryController to Employee--><g id="link_PostponeAgendaEntryController_Employee"><path codeLine="128" d="M1207.6,261.64 C1397.05,289.89 1649,327.46 1649,327.46 C1649,327.46 1649,557.88 1649,557.88 C1649,557.88 1611.8899,601.2603 1566.5599,654.2603 " fill="none" id="PostponeAgendaEntryController-to-Employee" style="stroke:#181818;stroke-width:1.0;"/><polygon fill="#181818" points="1562.66,658.82,1571.5496,654.5803,1565.9099,655.0202,1565.47,649.3805,1562.66,658.82" style="stroke:#181818;stroke-width:1.0;"/></g><!--link AuthenticationRepository to Employee--><g id="link_AuthenticationRepository_Employee"><path codeLine="130" d="M1265,484.65 C1287.66,524.24 1325.0707,589.6319 1361.7507,653.7519 " fill="none" id="AuthenticationRepository-to-Employee" style="stroke:#181818;stroke-width:1.0;"/><polygon fill="#181818" points="1364.73,658.96,1363.7331,649.1617,1362.2473,654.62,1356.789,653.1341,1364.73,658.96" style="stroke:#181818;stroke-width:1.0;"/></g><!--link Employee to Entry--><g id="link_Employee_Entry"><path codeLine="132" d="M1311.54,658.79 C1268.69,613.59 1232,574.88 1232,574.88 C1232,574.88 1214.5,566.38 1214.5,566.38 C1214.5,566.38 913.5,566.38 913.5,566.38 C913.5,566.38 896,574.88 896,574.88 C896,574.88 836.8198,630.0298 775.1198,687.5198 " fill="none" id="Employee-to-Entry" style="stroke:#181818;stroke-width:1.0;"/><polygon fill="#181818" points="770.73,691.61,780.0415,688.4012,774.3881,688.2015,774.5878,682.5481,770.73,691.61" style="stroke:#181818;stroke-width:1.0;"/></g><!--link Employee to Vehicle--><g id="link_Employee_Vehicle"><path codeLine="133" d="M1249.24,798.52 C1236.76,798.52 1230.52,798.52 1220.49,798.52 " fill="none" id="Employee-to-Vehicle" style="stroke:#181818;stroke-width:1.0;"/><polygon fill="#181818" points="1214.49,798.52,1223.49,802.52,1219.49,798.52,1223.49,794.52,1214.49,798.52" style="stroke:#181818;stroke-width:1.0;"/></g><!--SRC=[hLPDSzis4BtpLs1oiTnIcVRgoNZ6YUAE-k5wAgUv-08HAmeL2300Q4VfvBzt0H8aI91E3jN5zExRvRwtM70lp8dBccfQaKf9LHorge1OtK0sU6fQd6W9EtiMG3GKbifIn01pf4mzSrcI0nKczWWkmPvh8BKIP_TFTZ7ZLDggB8eg13NcnbhDzus5RQ7aZdy1ybEMNGWuM68LqRmyMiAuAuShcTstDP9tIbgjX01DthovLOA1lhx-DoFuyrd9lJAsLX9kIf2ClaVqEOffaUxt8od1EZS7SukgjFYTfTeYKMTP5OtM8Es6MiY9iTGsvd8SV_D4kQ1x0N_3aHS2p4TkZrm-y0fM1WJM3ioNqCPzpRxsH3vilvy0OgF2TIDNGxwip_WNrCfmgnoZ-rEva3v63KdNX4jaA0iWLoD8XEZDPyJiJbo8mHB1gAzx1BwPc28qLBLGPu0H_drYpCQwRxjYLvTBvRRjcRntDMbV-fvUs4YnQPR_-GmbyVUQA_sWvaFJyb8IU5ZcUPgH04zKS8R9WtSbuJaynpZAs90WmOngwSPWKQim9hDrT4xtYkvnKiKIODojnXvHDLvGTsyiTwqZuMJVWJ68ZOSgpDH6LPJBXL7oiqdY8TfXA_6MbBI2rCh059hN_ZfBd8t6tXVd3PGQO3IMU0iscawYVa6KtE753QJi7zEixQc9xB-hWWfteWYuujtJv6L7rUX8Aizn5V7AP-ZaiopoHpagFv-lEe-AOlwiXpAM3rWdUizphwbaAVrACH2fsNsJ8kjMMYZnsu1Z2n_1VNTcdALMnYnwkr65twh8wHbfABcne2TAUnyjFZKSJoTgCt67lExmMP3kghlLyAbnugPyQe7HTqsr1psJeqRTGEAJMOGmfMQyNVP30-9XhDXRfGHGYNi4Vlv0_q4B_EZXvHkTcp2hlZDvsudSAvzxeScprzAT4Izj-3z8IKvL7hJhZiMZZ0JhR950v10KSb2l2P6UKnvf44oFqfFk4OvbAAzbXRbRMfVBTsuy_6uuhbhD1kEUQtjqfLwDEqnPnVsbivdpCOqtqc2er1uBSbiCBMpo2a0Dn99pks6gSDsRyRJK4uUbd-_cFV-e_TMlQX-rkTUXlo5mlSp7y_pduQqJ0HKVx2Fw-J2kcZBQph_5xQbIJtXe7cNdzaHxC6URbbcBxsZUXUxw7FJpFJs3thBE769n6SGmf4AGKdphpwvUhtv-HLw_llP_NzmkC_UBjn6olXvj9xYiX3LhZFElQD-Gx4fBmEHRkvnouPEO1gpRWBdzQsRD214_317Pj7oFQK5UhImfEq9qlcos4z4MZ-X4fcz6f7gz71AtVT947M-StywoVhaDc10NadVjlVV1WExsaUzGePSzMqo-7i7wWNLMtu_O4lJ_3m00]--></g></svg>