<?xml version="1.0" encoding="us-ascii" standalone="no"?><svg xmlns="http://www.w3.org/2000/svg" xmlns:xlink="http://www.w3.org/1999/xlink" contentStyleType="text/css" height="553px" preserveAspectRatio="none" style="width:1105px;height:553px;background:#FFFFFF;" version="1.1" viewBox="0 0 1105 553" width="1105px" zoomAndPan="magnify"><defs/><g><!--class PostponeAgendaEntryController--><g id="elem_PostponeAgendaEntryController"><rect codeLine="11" fill="#F1F1F1" height="64.4883" id="PostponeAgendaEntryController" rx="2.5" ry="2.5" style="stroke:#181818;stroke-width:0.5;" width="411" x="492.5" y="132.48"/><ellipse cx="582.75" cy="148.48" fill="#ADD1B2" rx="11" ry="11" style="stroke:#181818;stroke-width:1.0;"/><path d="M585.7231,154.1231 Q585.1421,154.4219 584.5029,154.5713 Q583.8638,154.7207 583.1582,154.7207 Q580.6514,154.7207 579.3315,153.0689 Q578.0117,151.417 578.0117,148.2959 Q578.0117,145.1665 579.3315,143.5147 Q580.6514,141.8628 583.1582,141.8628 Q583.8638,141.8628 584.5112,142.0122 Q585.1587,142.1616 585.7231,142.4605 L585.7231,145.1831 Q585.0923,144.6021 584.4988,144.3323 Q583.9053,144.0625 583.2744,144.0625 Q581.9297,144.0625 581.2449,145.1292 Q580.5601,146.1958 580.5601,148.2959 Q580.5601,150.3877 581.2449,151.4544 Q581.9297,152.521 583.2744,152.521 Q583.9053,152.521 584.4988,152.2512 Q585.0923,151.9815 585.7231,151.4004 Z " fill="#000000"/><text fill="#000000" font-family="sans-serif" font-size="14" lengthAdjust="spacing" textLength="222" x="603.25" y="153.771">PostponeAgendaEntryController</text><line style="stroke:#181818;stroke-width:0.5;" x1="493.5" x2="902.5" y1="164.48" y2="164.48"/><line style="stroke:#181818;stroke-width:0.5;" x1="493.5" x2="902.5" y1="172.48" y2="172.48"/><text fill="#000000" font-family="sans-serif" font-size="14" lengthAdjust="spacing" textLength="399" x="498.5" y="190.0152">+getEntriesFromAgendaStartingFrom(currentDate, status)</text></g><!--class PostponeAgendaEntryUI--><g id="elem_PostponeAgendaEntryUI"><rect codeLine="16" fill="#F1F1F1" height="64.4883" id="PostponeAgendaEntryUI" rx="2.5" ry="2.5" style="stroke:#181818;stroke-width:0.5;" width="198" x="599" y="7"/><ellipse cx="614" cy="23" fill="#ADD1B2" rx="11" ry="11" style="stroke:#181818;stroke-width:1.0;"/><path d="M616.9731,28.6431 Q616.3921,28.9419 615.7529,29.0913 Q615.1138,29.2407 614.4082,29.2407 Q611.9014,29.2407 610.5815,27.5889 Q609.2617,25.937 609.2617,22.8159 Q609.2617,19.6865 610.5815,18.0347 Q611.9014,16.3828 614.4082,16.3828 Q615.1138,16.3828 615.7612,16.5322 Q616.4087,16.6816 616.9731,16.9805 L616.9731,19.7031 Q616.3423,19.1221 615.7488,18.8523 Q615.1553,18.5825 614.5244,18.5825 Q613.1797,18.5825 612.4949,19.6492 Q611.8101,20.7158 611.8101,22.8159 Q611.8101,24.9077 612.4949,25.9744 Q613.1797,27.041 614.5244,27.041 Q615.1553,27.041 615.7488,26.7712 Q616.3423,26.5015 616.9731,25.9204 Z " fill="#000000"/><text fill="#000000" font-family="sans-serif" font-size="14" lengthAdjust="spacing" textLength="166" x="628" y="28.291">PostponeAgendaEntryUI</text><line style="stroke:#181818;stroke-width:0.5;" x1="600" x2="796" y1="39" y2="39"/><line style="stroke:#181818;stroke-width:0.5;" x1="600" x2="796" y1="47" y2="47"/><text fill="#000000" font-family="sans-serif" font-size="14" lengthAdjust="spacing" textLength="45" x="605" y="64.5352">+run()</text></g><!--class Repositories--><g id="elem_Repositories"><rect codeLine="21" fill="#F1F1F1" height="163.418" id="Repositories" rx="2.5" ry="2.5" style="stroke:#181818;stroke-width:0.5;" width="310" x="7" y="273.97"/><ellipse cx="115.25" cy="289.97" fill="#ADD1B2" rx="11" ry="11" style="stroke:#181818;stroke-width:1.0;"/><path d="M118.2231,295.6131 Q117.6421,295.9119 117.0029,296.0613 Q116.3638,296.2107 115.6582,296.2107 Q113.1514,296.2107 111.8315,294.5589 Q110.5117,292.907 110.5117,289.7859 Q110.5117,286.6565 111.8315,285.0047 Q113.1514,283.3528 115.6582,283.3528 Q116.3638,283.3528 117.0112,283.5022 Q117.6587,283.6516 118.2231,283.9505 L118.2231,286.6731 Q117.5923,286.0921 116.9988,285.8223 Q116.4053,285.5525 115.7744,285.5525 Q114.4297,285.5525 113.7449,286.6192 Q113.0601,287.6858 113.0601,289.7859 Q113.0601,291.8777 113.7449,292.9444 Q114.4297,294.011 115.7744,294.011 Q116.4053,294.011 116.9988,293.7412 Q117.5923,293.4715 118.2231,292.8904 Z " fill="#000000"/><text fill="#000000" font-family="sans-serif" font-size="14" lengthAdjust="spacing" textLength="85" x="135.75" y="295.261">Repositories</text><line style="stroke:#181818;stroke-width:0.5;" x1="8" x2="316" y1="305.97" y2="305.97"/><text fill="#000000" font-family="sans-serif" font-size="14" lengthAdjust="spacing" textLength="162" x="13" y="323.5052">-instance : Repositories</text><text fill="#000000" font-family="sans-serif" font-size="14" lengthAdjust="spacing" textLength="194" x="13" y="339.9934">-Repository : SkillRepository</text><text fill="#000000" font-family="sans-serif" font-size="14" lengthAdjust="spacing" textLength="270" x="13" y="356.4817">-agendaRepository : AgendaRepository</text><text fill="#000000" font-family="sans-serif" font-size="14" lengthAdjust="spacing" textLength="298" x="13" y="372.97">-employeeRepository : EmployeeRepository</text><line style="stroke:#181818;stroke-width:0.5;" x1="8" x2="316" y1="379.9231" y2="379.9231"/><text fill="#000000" font-family="sans-serif" font-size="14" lengthAdjust="spacing" textLength="197" x="13" y="397.4583">+getInstance() : Repositories</text><text fill="#000000" font-family="sans-serif" font-size="14" lengthAdjust="spacing" textLength="169" x="13" y="413.9466">+getAgendaRepository()</text><text fill="#000000" font-family="sans-serif" font-size="14" lengthAdjust="spacing" textLength="182" x="13" y="430.4348">+getEmployeeRepository()</text></g><!--class AgendaRepository--><g id="elem_AgendaRepository"><rect codeLine="32" fill="#F1F1F1" height="48" id="AgendaRepository" rx="2.5" ry="2.5" style="stroke:#181818;stroke-width:0.5;" width="158" x="751" y="331.68"/><ellipse cx="766" cy="347.68" fill="#ADD1B2" rx="11" ry="11" style="stroke:#181818;stroke-width:1.0;"/><path d="M768.9731,353.3231 Q768.3921,353.6219 767.7529,353.7713 Q767.1138,353.9207 766.4082,353.9207 Q763.9014,353.9207 762.5815,352.2689 Q761.2617,350.617 761.2617,347.4959 Q761.2617,344.3665 762.5815,342.7147 Q763.9014,341.0628 766.4082,341.0628 Q767.1138,341.0628 767.7612,341.2122 Q768.4087,341.3616 768.9731,341.6605 L768.9731,344.3831 Q768.3423,343.8021 767.7488,343.5323 Q767.1553,343.2625 766.5244,343.2625 Q765.1797,343.2625 764.4949,344.3292 Q763.8101,345.3958 763.8101,347.4959 Q763.8101,349.5877 764.4949,350.6544 Q765.1797,351.721 766.5244,351.721 Q767.1553,351.721 767.7488,351.4512 Q768.3423,351.1815 768.9731,350.6004 Z " fill="#000000"/><text fill="#000000" font-family="sans-serif" font-size="14" lengthAdjust="spacing" textLength="126" x="780" y="352.971">AgendaRepository</text><line style="stroke:#181818;stroke-width:0.5;" x1="752" x2="908" y1="363.68" y2="363.68"/><line style="stroke:#181818;stroke-width:0.5;" x1="752" x2="908" y1="371.68" y2="371.68"/></g><!--class VehicleRepository--><g id="elem_VehicleRepository"><rect codeLine="36" fill="#F1F1F1" height="48" id="VehicleRepository" rx="2.5" ry="2.5" style="stroke:#181818;stroke-width:0.5;" width="154" x="944" y="331.68"/><ellipse cx="959" cy="347.68" fill="#ADD1B2" rx="11" ry="11" style="stroke:#181818;stroke-width:1.0;"/><path d="M961.9731,353.3231 Q961.3921,353.6219 960.7529,353.7713 Q960.1138,353.9207 959.4082,353.9207 Q956.9014,353.9207 955.5815,352.2689 Q954.2617,350.617 954.2617,347.4959 Q954.2617,344.3665 955.5815,342.7147 Q956.9014,341.0628 959.4082,341.0628 Q960.1138,341.0628 960.7612,341.2122 Q961.4087,341.3616 961.9731,341.6605 L961.9731,344.3831 Q961.3423,343.8021 960.7488,343.5323 Q960.1553,343.2625 959.5244,343.2625 Q958.1797,343.2625 957.4949,344.3292 Q956.8101,345.3958 956.8101,347.4959 Q956.8101,349.5877 957.4949,350.6544 Q958.1797,351.721 959.5244,351.721 Q960.1553,351.721 960.7488,351.4512 Q961.3423,351.1815 961.9731,350.6004 Z " fill="#000000"/><text fill="#000000" font-family="sans-serif" font-size="14" lengthAdjust="spacing" textLength="122" x="973" y="352.971">VehicleRepository</text><line style="stroke:#181818;stroke-width:0.5;" x1="945" x2="1097" y1="363.68" y2="363.68"/><line style="stroke:#181818;stroke-width:0.5;" x1="945" x2="1097" y1="371.68" y2="371.68"/></g><!--class AuthenticationRepository--><g id="elem_AuthenticationRepository"><rect codeLine="40" fill="#F1F1F1" height="64.4883" id="AuthenticationRepository" rx="2.5" ry="2.5" style="stroke:#181818;stroke-width:0.5;" width="209" x="435.5" y="323.44"/><ellipse cx="451.85" cy="339.44" fill="#ADD1B2" rx="11" ry="11" style="stroke:#181818;stroke-width:1.0;"/><path d="M454.8231,345.0831 Q454.2421,345.3819 453.6029,345.5313 Q452.9638,345.6807 452.2582,345.6807 Q449.7514,345.6807 448.4315,344.0289 Q447.1117,342.377 447.1117,339.2559 Q447.1117,336.1265 448.4315,334.4747 Q449.7514,332.8228 452.2582,332.8228 Q452.9638,332.8228 453.6112,332.9722 Q454.2587,333.1216 454.8231,333.4205 L454.8231,336.1431 Q454.1923,335.5621 453.5988,335.2923 Q453.0053,335.0225 452.3744,335.0225 Q451.0297,335.0225 450.3449,336.0892 Q449.6601,337.1558 449.6601,339.2559 Q449.6601,341.3477 450.3449,342.4144 Q451.0297,343.481 452.3744,343.481 Q453.0053,343.481 453.5988,343.2112 Q454.1923,342.9415 454.8231,342.3604 Z " fill="#000000"/><text fill="#000000" font-family="sans-serif" font-size="14" lengthAdjust="spacing" textLength="174" x="466.15" y="344.731">AuthenticationRepository</text><line style="stroke:#181818;stroke-width:0.5;" x1="436.5" x2="643.5" y1="355.44" y2="355.44"/><line style="stroke:#181818;stroke-width:0.5;" x1="436.5" x2="643.5" y1="363.44" y2="363.44"/><text fill="#000000" font-family="sans-serif" font-size="14" lengthAdjust="spacing" textLength="197" x="441.5" y="380.9752">+getEmployeeFromSession()</text></g><!--class Entry--><g id="elem_Entry"><rect codeLine="44" fill="#F1F1F1" height="48" id="Entry" rx="2.5" ry="2.5" style="stroke:#181818;stroke-width:0.5;" width="67" x="792.5" y="498.39"/><ellipse cx="807.5" cy="514.39" fill="#ADD1B2" rx="11" ry="11" style="stroke:#181818;stroke-width:1.0;"/><path d="M810.4731,520.0331 Q809.8921,520.3319 809.2529,520.4813 Q808.6138,520.6307 807.9082,520.6307 Q805.4014,520.6307 804.0815,518.9789 Q802.7617,517.327 802.7617,514.2059 Q802.7617,511.0765 804.0815,509.4247 Q805.4014,507.7728 807.9082,507.7728 Q808.6138,507.7728 809.2612,507.9222 Q809.9087,508.0716 810.4731,508.3705 L810.4731,511.0931 Q809.8423,510.5121 809.2488,510.2423 Q808.6553,509.9725 808.0244,509.9725 Q806.6797,509.9725 805.9949,511.0392 Q805.3101,512.1058 805.3101,514.2059 Q805.3101,516.2977 805.9949,517.3644 Q806.6797,518.431 808.0244,518.431 Q808.6553,518.431 809.2488,518.1612 Q809.8423,517.8915 810.4731,517.3104 Z " fill="#000000"/><text fill="#000000" font-family="sans-serif" font-size="14" lengthAdjust="spacing" textLength="35" x="821.5" y="519.681">Entry</text><line style="stroke:#181818;stroke-width:0.5;" x1="793.5" x2="858.5" y1="530.39" y2="530.39"/><line style="stroke:#181818;stroke-width:0.5;" x1="793.5" x2="858.5" y1="538.39" y2="538.39"/></g><!--class Vehicle--><g id="elem_Vehicle"><rect codeLine="48" fill="#F1F1F1" height="48" id="Vehicle" rx="2.5" ry="2.5" style="stroke:#181818;stroke-width:0.5;" width="81" x="937.5" y="498.39"/><ellipse cx="952.5" cy="514.39" fill="#ADD1B2" rx="11" ry="11" style="stroke:#181818;stroke-width:1.0;"/><path d="M955.4731,520.0331 Q954.8921,520.3319 954.2529,520.4813 Q953.6138,520.6307 952.9082,520.6307 Q950.4014,520.6307 949.0815,518.9789 Q947.7617,517.327 947.7617,514.2059 Q947.7617,511.0765 949.0815,509.4247 Q950.4014,507.7728 952.9082,507.7728 Q953.6138,507.7728 954.2612,507.9222 Q954.9087,508.0716 955.4731,508.3705 L955.4731,511.0931 Q954.8423,510.5121 954.2488,510.2423 Q953.6553,509.9725 953.0244,509.9725 Q951.6797,509.9725 950.9949,511.0392 Q950.3101,512.1058 950.3101,514.2059 Q950.3101,516.2977 950.9949,517.3644 Q951.6797,518.431 953.0244,518.431 Q953.6553,518.431 954.2488,518.1612 Q954.8423,517.8915 955.4731,517.3104 Z " fill="#000000"/><text fill="#000000" font-family="sans-serif" font-size="14" lengthAdjust="spacing" textLength="49" x="966.5" y="519.681">Vehicle</text><line style="stroke:#181818;stroke-width:0.5;" x1="938.5" x2="1017.5" y1="530.39" y2="530.39"/><line style="stroke:#181818;stroke-width:0.5;" x1="938.5" x2="1017.5" y1="538.39" y2="538.39"/></g><!--class Employee--><g id="elem_Employee"><rect codeLine="52" fill="#F1F1F1" height="48" id="Employee" rx="2.5" ry="2.5" style="stroke:#181818;stroke-width:0.5;" width="98" x="656" y="498.39"/><ellipse cx="671" cy="514.39" fill="#ADD1B2" rx="11" ry="11" style="stroke:#181818;stroke-width:1.0;"/><path d="M673.9731,520.0331 Q673.3921,520.3319 672.7529,520.4813 Q672.1138,520.6307 671.4082,520.6307 Q668.9014,520.6307 667.5815,518.9789 Q666.2617,517.327 666.2617,514.2059 Q666.2617,511.0765 667.5815,509.4247 Q668.9014,507.7728 671.4082,507.7728 Q672.1138,507.7728 672.7612,507.9222 Q673.4087,508.0716 673.9731,508.3705 L673.9731,511.0931 Q673.3423,510.5121 672.7488,510.2423 Q672.1553,509.9725 671.5244,509.9725 Q670.1797,509.9725 669.4949,511.0392 Q668.8101,512.1058 668.8101,514.2059 Q668.8101,516.2977 669.4949,517.3644 Q670.1797,518.431 671.5244,518.431 Q672.1553,518.431 672.7488,518.1612 Q673.3423,517.8915 673.9731,517.3104 Z " fill="#000000"/><text fill="#000000" font-family="sans-serif" font-size="14" lengthAdjust="spacing" textLength="66" x="685" y="519.681">Employee</text><line style="stroke:#181818;stroke-width:0.5;" x1="657" x2="753" y1="530.39" y2="530.39"/><line style="stroke:#181818;stroke-width:0.5;" x1="657" x2="753" y1="538.39" y2="538.39"/></g><!--link PostponeAgendaEntryUI to PostponeAgendaEntryController--><g id="link_PostponeAgendaEntryUI_PostponeAgendaEntryController"><path codeLine="57" d="M698,71.72 C698,90.3 698,107.74 698,126.3 " fill="none" id="PostponeAgendaEntryUI-to-PostponeAgendaEntryController" style="stroke:#181818;stroke-width:1.0;stroke-dasharray:7.0,7.0;"/><polygon fill="#181818" points="698,132.3,702,123.3,698,127.3,694,123.3,698,132.3" style="stroke:#181818;stroke-width:1.0;"/><text fill="#000000" font-family="sans-serif" font-size="13" lengthAdjust="spacing" textLength="8" x="689.2375" y="91.9384">1</text><text fill="#000000" font-family="sans-serif" font-size="13" lengthAdjust="spacing" textLength="8" x="689.175" y="121.666">1</text></g><!--link Repositories to Repositories--><g id="link_Repositories_Repositories"><path codeLine="62" d="M317.43,337.07 C338.2,340.22 352,346.42 352,355.68 C352,364.94 344.1322,370.2403 323.3622,373.3903 " fill="none" id="Repositories-to-Repositories" style="stroke:#181818;stroke-width:1.0;"/><polygon fill="#181818" points="317.43,374.29,326.928,376.8953,322.3735,373.5403,325.7285,368.9857,317.43,374.29" style="stroke:#181818;stroke-width:1.0;"/><text fill="#000000" font-family="sans-serif" font-size="13" lengthAdjust="spacing" textLength="53" x="358" y="360.7484">instance</text></g><!--link Repositories to AgendaRepository--><g id="link_Repositories_AgendaRepository"><path codeLine="63" d="M317.13,287.5 C378.86,260.37 435.5,235.47 435.5,235.47 C435.5,235.47 706.5,235.47 706.5,235.47 C706.5,235.47 764.62,292.0455 800.71,327.1655 " fill="none" id="Repositories-to-AgendaRepository" style="stroke:#181818;stroke-width:1.0;stroke-dasharray:7.0,7.0;"/><polygon fill="#181818" points="805.01,331.35,801.3496,322.2066,801.4266,327.8629,795.7703,327.94,805.01,331.35" style="stroke:#181818;stroke-width:1.0;"/><text fill="#000000" font-family="sans-serif" font-size="13" lengthAdjust="spacing" textLength="8" x="324.8379" y="297.1367">1</text><text fill="#000000" font-family="sans-serif" font-size="13" lengthAdjust="spacing" textLength="8" x="789.5813" y="320.8017">1</text></g><!--link Repositories to VehicleRepository--><g id="link_Repositories_VehicleRepository"><path codeLine="64" d="M317.13,287.5 C378.86,260.37 435.5,235.47 435.5,235.47 C435.5,235.47 908.5,235.47 908.5,235.47 C908.5,235.47 961.26,291.8494 994.13,326.9694 " fill="none" id="Repositories-to-VehicleRepository" style="stroke:#181818;stroke-width:1.0;stroke-dasharray:7.0,7.0;"/><polygon fill="#181818" points="998.23,331.35,995.0004,322.0457,994.8133,327.6995,989.1596,327.5124,998.23,331.35" style="stroke:#181818;stroke-width:1.0;"/><text fill="#000000" font-family="sans-serif" font-size="13" lengthAdjust="spacing" textLength="8" x="324.8379" y="281.4102">1</text><text fill="#000000" font-family="sans-serif" font-size="13" lengthAdjust="spacing" textLength="8" x="983.3702" y="320.8017">1</text></g><!--link Repositories to AuthenticationRepository--><g id="link_Repositories_AuthenticationRepository"><path codeLine="65" d="M317.22,355.68 C354.45,355.68 414,355.68 414,355.68 C414,355.68 416.5,355.68 429.09,355.68 " fill="none" id="Repositories-to-AuthenticationRepository" style="stroke:#181818;stroke-width:1.0;stroke-dasharray:7.0,7.0;"/><polygon fill="#181818" points="435.09,355.68,426.09,351.68,430.09,355.68,426.09,359.68,435.09,355.68" style="stroke:#181818;stroke-width:1.0;"/><text fill="#000000" font-family="sans-serif" font-size="13" lengthAdjust="spacing" textLength="8" x="324.9322" y="352.8926">1</text><text fill="#000000" font-family="sans-serif" font-size="13" lengthAdjust="spacing" textLength="8" x="419.4323" y="352.7316">1</text></g><!--link AgendaRepository to Entry--><g id="link_AgendaRepository_Entry"><path codeLine="67" d="M829.44,379.93 C828.68,411.23 827.4753,460.6118 826.7153,491.9918 " fill="none" id="AgendaRepository-to-Entry" style="stroke:#181818;stroke-width:1.0;"/><polygon fill="#181818" points="826.57,497.99,830.7867,489.0895,826.6911,492.9915,822.7891,488.8958,826.57,497.99" style="stroke:#181818;stroke-width:1.0;"/></g><!--link VehicleRepository to Vehicle--><g id="link_VehicleRepository_Vehicle"><path codeLine="68" d="M1014.93,379.93 C1006.76,411.23 993.8152,460.8045 985.6252,492.1845 " fill="none" id="VehicleRepository-to-Vehicle" style="stroke:#181818;stroke-width:1.0;"/><polygon fill="#181818" points="984.11,497.99,990.2532,490.2918,985.3727,493.1521,982.5125,488.2716,984.11,497.99" style="stroke:#181818;stroke-width:1.0;"/></g><!--link PostponeAgendaEntryController to AgendaRepository--><g id="link_PostponeAgendaEntryController_AgendaRepository"><path codeLine="71" d="M720.09,197.35 C746.52,235.18 786.6842,292.6711 810.2442,326.4011 " fill="none" id="PostponeAgendaEntryController-to-AgendaRepository" style="stroke:#181818;stroke-width:1.0;"/><polygon fill="#181818" points="813.68,331.32,811.8056,321.6512,810.8168,327.2209,805.2471,326.2322,813.68,331.32" style="stroke:#181818;stroke-width:1.0;"/></g><!--link PostponeAgendaEntryController to VehicleRepository--><g id="link_PostponeAgendaEntryController_VehicleRepository"><path codeLine="72" d="M764.56,197.33 C831.86,229.28 926,273.97 926,273.97 C926,273.97 960.8875,303.6152 988.9475,327.4552 " fill="none" id="PostponeAgendaEntryController-to-VehicleRepository" style="stroke:#181818;stroke-width:1.0;"/><polygon fill="#181818" points="993.52,331.34,989.2511,322.4644,989.7096,328.1026,984.0713,328.5611,993.52,331.34" style="stroke:#181818;stroke-width:1.0;"/></g><!--link PostponeAgendaEntryController to Repositories--><g id="link_PostponeAgendaEntryController_Repositories"><path codeLine="73" d="M565.5,197.43 C503.04,212.37 442,226.97 442,226.97 C442,226.97 387.2088,251.9597 322.6088,281.4297 " fill="none" id="PostponeAgendaEntryController-to-Repositories" style="stroke:#181818;stroke-width:1.0;stroke-dasharray:7.0,7.0;"/><polygon fill="#181818" points="317.15,283.92,326.9984,283.8238,321.699,281.8448,323.678,276.5454,317.15,283.92" style="stroke:#181818;stroke-width:1.0;"/><text fill="#000000" font-family="sans-serif" font-size="13" lengthAdjust="spacing" textLength="75" x="443" y="240.5384">repositories</text><text fill="#000000" font-family="sans-serif" font-size="13" lengthAdjust="spacing" textLength="8" x="532.3328" y="217.4399">1</text><text fill="#000000" font-family="sans-serif" font-size="13" lengthAdjust="spacing" textLength="8" x="324.7373" y="273.3308">1</text></g><!--link PostponeAgendaEntryController to AuthenticationRepository--><g id="link_PostponeAgendaEntryController_AuthenticationRepository"><path codeLine="74" d="M609.49,197.43 C567.77,212.37 527,226.97 527,226.97 C527,226.97 527,243.97 527,243.97 C527,243.97 531.7306,284.2809 535.5706,317.0009 " fill="none" id="PostponeAgendaEntryController-to-AuthenticationRepository" style="stroke:#181818;stroke-width:1.0;"/><polygon fill="#181818" points="536.27,322.96,539.1937,313.5551,535.6872,317.9941,531.2482,314.4876,536.27,322.96" style="stroke:#181818;stroke-width:1.0;"/><text fill="#000000" font-family="sans-serif" font-size="13" lengthAdjust="spacing" textLength="143" x="528" y="240.5384">getCurrentUserSession</text><text fill="#000000" font-family="sans-serif" font-size="13" lengthAdjust="spacing" textLength="8" x="584.4335" y="217.4399">1</text><text fill="#000000" font-family="sans-serif" font-size="13" lengthAdjust="spacing" textLength="8" x="526.7482" y="312.6398">1</text></g><!--link PostponeAgendaEntryController to Employee--><g id="link_PostponeAgendaEntryController_Employee"><path codeLine="76" d="M698.62,197.29 C700.01,267.67 703.2018,430.1412 704.4218,492.0512 " fill="none" id="PostponeAgendaEntryController-to-Employee" style="stroke:#181818;stroke-width:1.0;"/><polygon fill="#181818" points="704.54,498.05,708.3619,488.9729,704.4415,493.051,700.3635,489.1306,704.54,498.05" style="stroke:#181818;stroke-width:1.0;"/></g><!--link AuthenticationRepository to Employee--><g id="link_AuthenticationRepository_Employee"><path codeLine="78" d="M571.42,388.05 C603.59,420.16 648.5837,465.071 677.4337,493.871 " fill="none" id="AuthenticationRepository-to-Employee" style="stroke:#181818;stroke-width:1.0;"/><polygon fill="#181818" points="681.68,498.11,678.1365,488.9207,678.1414,494.5775,672.4845,494.5824,681.68,498.11" style="stroke:#181818;stroke-width:1.0;"/></g><!--link Employee to Entry--><g id="link_Employee_Entry"><path codeLine="80" d="M754.28,522.39 C766.17,522.39 785.67,522.39 785.67,522.39 C785.67,522.39 782.35,522.39 786.33,522.39 " fill="none" id="Employee-to-Entry" style="stroke:#181818;stroke-width:1.0;"/><polygon fill="#181818" points="792.33,522.39,783.33,518.39,787.33,522.39,783.33,526.39,792.33,522.39" style="stroke:#181818;stroke-width:1.0;"/></g><!--link Employee to Vehicle--><g id="link_Employee_Vehicle"><path codeLine="81" d="M744.14,498.01 C767.44,483.5 792.5,467.89 792.5,467.89 C792.5,467.89 859.5,467.89 859.5,467.89 C859.5,467.89 897.4885,485.3637 931.7685,501.1237 " fill="none" id="Employee-to-Vehicle" style="stroke:#181818;stroke-width:1.0;"/><polygon fill="#181818" points="937.22,503.63,930.7136,496.2363,932.6771,501.5414,927.3719,503.5049,937.22,503.63" style="stroke:#181818;stroke-width:1.0;"/></g><!--SRC=[ZLHDRzim3BtpLn2z9CNcOhlkK23eEY2tOKPtrnJM5gA8XaHZy8hzzybVYVoHT3ua2DyZ7_b8PnEEnbNAgnEUsB4kFPy8nTS45wHI-gWAogMnX9wqA5VOb11ATU3VnXNugcn84MiSILCHLcoRzWTiLa3smf1aQQj2s8buywiMscjskVb3-0bWO-bLK1YzAKh1WsdRCUm0kXpypa4gThGho1tKinFVF77yP6l9unjWV3uK92rYA7oBu_RKN9INE44RsUhQUtBoLGbzn21Awd0FV-66oCj-BEvhjqt9FwZYO8HRkPwIeN6ngDE4NoRmW9v3JSJpex7s4XaegbEU47UpqC2aKsMv8PfmdnT1w9l7QCr-Q6vxlzPUHvbhnO7FsB9sRqVlnZpp3IxOJogDjhGExcefuqgCLkswKyv2kLrXJY54NYhTxGbN12UniSWGXFLTtts-muU7n-xxvib1-wGcOlOuCJLwF5x3bDT9z0gBrLuZBXoyNlAAdG1pCSnYnzrKi2ZVOKDqtQlavOlKnI3lPYmdkfsIBcPciqzF-VqgsMsZOi5uSa_z7yLB83zSt7-uC9vOzFfQyMn2Ez_aUHDfPFJ_7m00]--></g></svg>