<?xml version="1.0" encoding="us-ascii" standalone="no"?><svg xmlns="http://www.w3.org/2000/svg" xmlns:xlink="http://www.w3.org/1999/xlink" contentStyleType="text/css" height="901.8px" preserveAspectRatio="none" style="width:1386px;height:901px;background:#FFFFFF;" version="1.1" viewBox="0 0 1386 901" width="1386px" zoomAndPan="magnify"><defs/><g><rect fill="#FFFFFF" height="787.5188" style="stroke:#181818;stroke-width:0.6;" width="6" x="46.5" y="54.893"/><rect fill="#FFFFFF" height="257.9016" style="stroke:#181818;stroke-width:0.6;" width="6" x="306.3" y="137.6109"/><rect fill="#FFFFFF" height="253.4496" style="stroke:#181818;stroke-width:0.6;" width="6" x="306.3" y="413.0988"/><rect fill="#FFFFFF" height="17.5863" style="stroke:#181818;stroke-width:0.6;" width="6" x="306.3" y="684.1348"/><rect fill="#FFFFFF" height="123.1043" style="stroke:#181818;stroke-width:0.6;" width="6" x="306.3" y="719.3074"/><rect fill="#FFFFFF" height="197.8359" style="stroke:#181818;stroke-width:0.6;" width="6" x="584.1" y="180.0902"/><rect fill="#FFFFFF" height="218.277" style="stroke:#181818;stroke-width:0.6;" width="6" x="584.1" y="430.6852"/><rect fill="#FFFFFF" height="87.9316" style="stroke:#181818;stroke-width:0.6;" width="6" x="584.1" y="736.8938"/><rect fill="#FFFFFF" height="17.5863" style="stroke:#181818;stroke-width:0.6;" width="6" x="710.1" y="197.6766"/><rect fill="#FFFFFF" height="57.1453" style="stroke:#181818;stroke-width:0.6;" width="6" x="710.1" y="232.8492"/><rect fill="#FFFFFF" height="17.5863" style="stroke:#181818;stroke-width:0.6;" width="6" x="777.9" y="307.5809"/><rect fill="#FFFFFF" height="17.5863" style="stroke:#181818;stroke-width:0.6;" width="6" x="777.9" y="513.4441"/><rect fill="#FFFFFF" height="17.5863" style="stroke:#181818;stroke-width:0.6;" width="6" x="867.3" y="342.7535"/><rect fill="#FFFFFF" height="17.5863" style="stroke:#181818;stroke-width:0.6;" width="6" x="958.5" y="548.6168"/><rect fill="#FFFFFF" height="17.5863" style="stroke:#181818;stroke-width:0.6;" width="6" x="1220.7" y="448.2715"/><rect fill="#FFFFFF" height="17.5863" style="stroke:#181818;stroke-width:0.6;" width="6" x="1220.7" y="613.7895"/><rect fill="#FFFFFF" height="52.759" style="stroke:#181818;stroke-width:0.6;" width="6" x="1220.7" y="754.4801"/><rect fill="#FFFFFF" height="17.5863" style="stroke:#181818;stroke-width:0.6;" width="6" x="1363.5" y="772.0664"/><line style="stroke:#181818;stroke-width:0.3;stroke-dasharray:5.0,5.0;" x1="49.2" x2="49.2" y1="48.893" y2="853.2117"/><line style="stroke:#181818;stroke-width:0.3;stroke-dasharray:5.0,5.0;" x1="309.3" x2="309.3" y1="48.893" y2="853.2117"/><line style="stroke:#181818;stroke-width:0.3;stroke-dasharray:5.0,5.0;" x1="587.1" x2="587.1" y1="160.8574" y2="853.2117"/><line style="stroke:#181818;stroke-width:0.3;stroke-dasharray:5.0,5.0;" x1="712.8" x2="712.8" y1="48.893" y2="853.2117"/><line style="stroke:#181818;stroke-width:0.3;stroke-dasharray:5.0,5.0;" x1="780.6" x2="780.6" y1="48.893" y2="853.2117"/><line style="stroke:#181818;stroke-width:0.3;stroke-dasharray:5.0,5.0;" x1="870.3" x2="870.3" y1="48.893" y2="853.2117"/><line style="stroke:#181818;stroke-width:0.3;stroke-dasharray:5.0,5.0;" x1="961.5" x2="961.5" y1="48.893" y2="853.2117"/><line style="stroke:#181818;stroke-width:0.3;stroke-dasharray:5.0,5.0;" x1="1067.1" x2="1067.1" y1="48.893" y2="853.2117"/><line style="stroke:#181818;stroke-width:0.3;stroke-dasharray:5.0,5.0;" x1="1160.7" x2="1160.7" y1="48.893" y2="853.2117"/><line style="stroke:#181818;stroke-width:0.3;stroke-dasharray:5.0,5.0;" x1="1223.7" x2="1223.7" y1="48.893" y2="853.2117"/><line style="stroke:#181818;stroke-width:0.3;stroke-dasharray:5.0,5.0;" x1="1366.2" x2="1366.2" y1="48.893" y2="853.2117"/><text fill="#000000" font-family="sans-serif" font-size="8.4" lengthAdjust="spacing" textLength="89.4" x="3" y="47.1211">Green Space Manager</text><ellipse cx="49.5" cy="8.1" fill="#E3E3E3" rx="4.8" ry="4.8" style="stroke:#181818;stroke-width:0.3;"/><path d="M49.5,12.9 L49.5,29.1 M41.7,17.7 L57.3,17.7 M49.5,29.1 L41.7,38.1 M49.5,29.1 L57.3,38.1 " fill="none" style="stroke:#181818;stroke-width:0.3;"/><text fill="#000000" font-family="sans-serif" font-size="8.4" lengthAdjust="spacing" textLength="89.4" x="3" y="860.7328">Green Space Manager</text><ellipse cx="49.5" cy="867.6047" fill="#E3E3E3" rx="4.8" ry="4.8" style="stroke:#181818;stroke-width:0.3;"/><path d="M49.5,872.4047 L49.5,888.6047 M41.7,877.2047 L57.3,877.2047 M49.5,888.6047 L41.7,897.6047 M49.5,888.6047 L57.3,897.6047 " fill="none" style="stroke:#181818;stroke-width:0.3;"/><rect fill="#E3E3E3" height="18.293" rx="1.5" ry="1.5" style="stroke:#181818;stroke-width:0.3;" width="133.2" x="242.7" y="30"/><text fill="#000000" font-family="sans-serif" font-size="8.4" lengthAdjust="spacing" textLength="124.8" x="246.9" y="42.3211">:AddVehiclesToAgendaEntryUI</text><rect fill="#E3E3E3" height="18.293" rx="1.5" ry="1.5" style="stroke:#181818;stroke-width:0.3;" width="133.2" x="242.7" y="852.6117"/><text fill="#000000" font-family="sans-serif" font-size="8.4" lengthAdjust="spacing" textLength="124.8" x="246.9" y="864.9328">:AddVehiclesToAgendaEntryUI</text><rect fill="#E3E3E3" height="18.293" rx="1.5" ry="1.5" style="stroke:#181818;stroke-width:0.3;" width="166.8" x="503.7" y="852.6117"/><text fill="#000000" font-family="sans-serif" font-size="8.4" lengthAdjust="spacing" textLength="158.4" x="507.9" y="864.9328">:AddVehiclesToAgendaEntryController</text><rect fill="#E3E3E3" height="18.293" rx="1.5" ry="1.5" style="stroke:#181818;stroke-width:0.3;" width="61.8" x="682.2" y="30"/><text fill="#000000" font-family="sans-serif" font-size="8.4" lengthAdjust="spacing" textLength="53.4" x="686.4" y="42.3211">:Repositories</text><rect fill="#E3E3E3" height="18.293" rx="1.5" ry="1.5" style="stroke:#181818;stroke-width:0.3;" width="61.8" x="682.2" y="852.6117"/><text fill="#000000" font-family="sans-serif" font-size="8.4" lengthAdjust="spacing" textLength="53.4" x="686.4" y="864.9328">:Repositories</text><rect fill="#E3E3E3" height="28.1859" rx="1.5" ry="1.5" style="stroke:#181818;stroke-width:0.3;" width="61.8" x="750" y="20.107"/><text fill="#000000" font-family="sans-serif" font-size="8.4" lengthAdjust="spacing" textLength="49.2" x="756.3" y="32.4281">repositories</text><text fill="#000000" font-family="sans-serif" font-size="8.4" lengthAdjust="spacing" textLength="53.4" x="754.2" y="42.3211">:Repositories</text><rect fill="#E3E3E3" height="28.1859" rx="1.5" ry="1.5" style="stroke:#181818;stroke-width:0.3;" width="61.8" x="750" y="852.6117"/><text fill="#000000" font-family="sans-serif" font-size="8.4" lengthAdjust="spacing" textLength="49.2" x="756.3" y="864.9328">repositories</text><text fill="#000000" font-family="sans-serif" font-size="8.4" lengthAdjust="spacing" textLength="53.4" x="754.2" y="874.8258">:Repositories</text><rect fill="#E3E3E3" height="28.1859" rx="1.5" ry="1.5" style="stroke:#181818;stroke-width:0.3;" width="86.4" x="827.1" y="20.107"/><text fill="#000000" font-family="sans-serif" font-size="8.4" lengthAdjust="spacing" textLength="74.4" x="833.1" y="32.4281">agendaRepository</text><text fill="#000000" font-family="sans-serif" font-size="8.4" lengthAdjust="spacing" textLength="78" x="831.3" y="42.3211">:AgendaRepository</text><rect fill="#E3E3E3" height="28.1859" rx="1.5" ry="1.5" style="stroke:#181818;stroke-width:0.3;" width="86.4" x="827.1" y="852.6117"/><text fill="#000000" font-family="sans-serif" font-size="8.4" lengthAdjust="spacing" textLength="74.4" x="833.1" y="864.9328">agendaRepository</text><text fill="#000000" font-family="sans-serif" font-size="8.4" lengthAdjust="spacing" textLength="78" x="831.3" y="874.8258">:AgendaRepository</text><rect fill="#E3E3E3" height="28.1859" rx="1.5" ry="1.5" style="stroke:#181818;stroke-width:0.3;" width="84" x="919.5" y="20.107"/><text fill="#000000" font-family="sans-serif" font-size="8.4" lengthAdjust="spacing" textLength="72" x="925.5" y="32.4281">vehicleRepository</text><text fill="#000000" font-family="sans-serif" font-size="8.4" lengthAdjust="spacing" textLength="75.6" x="923.7" y="42.3211">:VehicleRepository</text><rect fill="#E3E3E3" height="28.1859" rx="1.5" ry="1.5" style="stroke:#181818;stroke-width:0.3;" width="84" x="919.5" y="852.6117"/><text fill="#000000" font-family="sans-serif" font-size="8.4" lengthAdjust="spacing" textLength="72" x="925.5" y="864.9328">vehicleRepository</text><text fill="#000000" font-family="sans-serif" font-size="8.4" lengthAdjust="spacing" textLength="75.6" x="923.7" y="874.8258">:VehicleRepository</text><rect fill="#E3E3E3" height="28.1859" rx="1.5" ry="1.5" style="stroke:#181818;stroke-width:0.3;" width="115.2" x="1009.5" y="20.107"/><text fill="#000000" font-family="sans-serif" font-size="8.4" lengthAdjust="spacing" textLength="103.2" x="1015.5" y="32.4281">authenticationRepository</text><text fill="#000000" font-family="sans-serif" font-size="8.4" lengthAdjust="spacing" textLength="106.8" x="1013.7" y="42.3211">:AuthenticationRepository</text><rect fill="#E3E3E3" height="28.1859" rx="1.5" ry="1.5" style="stroke:#181818;stroke-width:0.3;" width="115.2" x="1009.5" y="852.6117"/><text fill="#000000" font-family="sans-serif" font-size="8.4" lengthAdjust="spacing" textLength="103.2" x="1015.5" y="864.9328">authenticationRepository</text><text fill="#000000" font-family="sans-serif" font-size="8.4" lengthAdjust="spacing" textLength="106.8" x="1013.7" y="874.8258">:AuthenticationRepository</text><rect fill="#E3E3E3" height="28.1859" rx="1.5" ry="1.5" style="stroke:#181818;stroke-width:0.3;" width="60.6" x="1130.7" y="20.107"/><text fill="#000000" font-family="sans-serif" font-size="8.4" lengthAdjust="spacing" textLength="49.2" x="1136.4" y="32.4281">userSession</text><text fill="#000000" font-family="sans-serif" font-size="8.4" lengthAdjust="spacing" textLength="52.2" x="1134.9" y="42.3211">:UserSession</text><rect fill="#E3E3E3" height="28.1859" rx="1.5" ry="1.5" style="stroke:#181818;stroke-width:0.3;" width="60.6" x="1130.7" y="852.6117"/><text fill="#000000" font-family="sans-serif" font-size="8.4" lengthAdjust="spacing" textLength="49.2" x="1136.4" y="864.9328">userSession</text><text fill="#000000" font-family="sans-serif" font-size="8.4" lengthAdjust="spacing" textLength="52.2" x="1134.9" y="874.8258">:UserSession</text><rect fill="#E3E3E3" height="28.1859" rx="1.5" ry="1.5" style="stroke:#181818;stroke-width:0.3;" width="52.8" x="1197.3" y="20.107"/><text fill="#000000" font-family="sans-serif" font-size="8.4" lengthAdjust="spacing" textLength="39.6" x="1203.9" y="32.4281">employee</text><text fill="#000000" font-family="sans-serif" font-size="8.4" lengthAdjust="spacing" textLength="44.4" x="1201.5" y="42.3211">: Employee</text><rect fill="#E3E3E3" height="28.1859" rx="1.5" ry="1.5" style="stroke:#181818;stroke-width:0.3;" width="52.8" x="1197.3" y="852.6117"/><text fill="#000000" font-family="sans-serif" font-size="8.4" lengthAdjust="spacing" textLength="39.6" x="1203.9" y="864.9328">employee</text><text fill="#000000" font-family="sans-serif" font-size="8.4" lengthAdjust="spacing" textLength="44.4" x="1201.5" y="874.8258">: Employee</text><rect fill="#E3E3E3" height="18.293" rx="1.5" ry="1.5" style="stroke:#181818;stroke-width:0.3;" width="31.8" x="1350.6" y="30"/><text fill="#000000" font-family="sans-serif" font-size="8.4" lengthAdjust="spacing" textLength="23.4" x="1354.8" y="42.3211">:Entry</text><rect fill="#E3E3E3" height="18.293" rx="1.5" ry="1.5" style="stroke:#181818;stroke-width:0.3;" width="31.8" x="1350.6" y="852.6117"/><text fill="#000000" font-family="sans-serif" font-size="8.4" lengthAdjust="spacing" textLength="23.4" x="1354.8" y="864.9328">:Entry</text><rect fill="#FFFFFF" height="787.5188" style="stroke:#181818;stroke-width:0.6;" width="6" x="46.5" y="54.893"/><rect fill="#FFFFFF" height="257.9016" style="stroke:#181818;stroke-width:0.6;" width="6" x="306.3" y="137.6109"/><rect fill="#FFFFFF" height="253.4496" style="stroke:#181818;stroke-width:0.6;" width="6" x="306.3" y="413.0988"/><rect fill="#FFFFFF" height="17.5863" style="stroke:#181818;stroke-width:0.6;" width="6" x="306.3" y="684.1348"/><rect fill="#FFFFFF" height="123.1043" style="stroke:#181818;stroke-width:0.6;" width="6" x="306.3" y="719.3074"/><rect fill="#FFFFFF" height="197.8359" style="stroke:#181818;stroke-width:0.6;" width="6" x="584.1" y="180.0902"/><rect fill="#FFFFFF" height="218.277" style="stroke:#181818;stroke-width:0.6;" width="6" x="584.1" y="430.6852"/><rect fill="#FFFFFF" height="87.9316" style="stroke:#181818;stroke-width:0.6;" width="6" x="584.1" y="736.8938"/><rect fill="#FFFFFF" height="17.5863" style="stroke:#181818;stroke-width:0.6;" width="6" x="710.1" y="197.6766"/><rect fill="#FFFFFF" height="57.1453" style="stroke:#181818;stroke-width:0.6;" width="6" x="710.1" y="232.8492"/><rect fill="#FFFFFF" height="17.5863" style="stroke:#181818;stroke-width:0.6;" width="6" x="777.9" y="307.5809"/><rect fill="#FFFFFF" height="17.5863" style="stroke:#181818;stroke-width:0.6;" width="6" x="777.9" y="513.4441"/><rect fill="#FFFFFF" height="17.5863" style="stroke:#181818;stroke-width:0.6;" width="6" x="867.3" y="342.7535"/><rect fill="#FFFFFF" height="17.5863" style="stroke:#181818;stroke-width:0.6;" width="6" x="958.5" y="548.6168"/><rect fill="#FFFFFF" height="17.5863" style="stroke:#181818;stroke-width:0.6;" width="6" x="1220.7" y="448.2715"/><rect fill="#FFFFFF" height="17.5863" style="stroke:#181818;stroke-width:0.6;" width="6" x="1220.7" y="613.7895"/><rect fill="#FFFFFF" height="52.759" style="stroke:#181818;stroke-width:0.6;" width="6" x="1220.7" y="754.4801"/><rect fill="#FFFFFF" height="17.5863" style="stroke:#181818;stroke-width:0.6;" width="6" x="1363.5" y="772.0664"/><path d="M55.2,57.893 L55.2,90.893 L231,90.893 L231,63.893 L225,57.893 L55.2,57.893 " fill="#FAFAFA" style="stroke:#181818;stroke-width:0.3;"/><path d="M225,57.893 L225,63.893 L231,63.893 L225,57.893 " fill="#FAFAFA" style="stroke:#181818;stroke-width:0.3;"/><text fill="#000000" font-family="sans-serif" font-size="7.8" lengthAdjust="spacing" textLength="163.2" x="58.8" y="68.434">- The user is already logged in at this step.</text><text fill="#000000" font-family="sans-serif" font-size="7.8" lengthAdjust="spacing" textLength="158.4" x="58.8" y="77.6203">- Authentication sequence is explained in</text><text fill="#000000" font-family="sans-serif" font-size="7.8" lengthAdjust="spacing" textLength="75" x="58.8" y="86.8066">a sequence excerpt.</text><path d="M715.8,97.452 L715.8,121.452 L780,121.452 L780,103.452 L774,97.452 L715.8,97.452 " fill="#FAFAFA" style="stroke:#181818;stroke-width:0.3;"/><path d="M774,97.452 L774,103.452 L780,103.452 L774,97.452 " fill="#FAFAFA" style="stroke:#181818;stroke-width:0.3;"/><text fill="#000000" font-family="sans-serif" font-size="7.8" lengthAdjust="spacing" textLength="51.6" x="719.4" y="107.993">- Singleton is</text><text fill="#000000" font-family="sans-serif" font-size="7.8" lengthAdjust="spacing" textLength="22.8" x="719.4" y="117.1793">in use</text><polygon fill="#181818" points="299.1,135.2109,305.1,137.6109,299.1,140.0109,301.5,137.6109" style="stroke:#181818;stroke-width:0.6;"/><line style="stroke:#181818;stroke-width:0.6;" x1="52.5" x2="302.7" y1="137.6109" y2="137.6109"/><text fill="#000000" font-family="sans-serif" font-size="7.8" font-weight="bold" lengthAdjust="spacing" textLength="5.4" x="56.7" y="134.7656">1</text><text fill="#000000" font-family="sans-serif" font-size="7.8" lengthAdjust="spacing" textLength="234.6" x="64.5" y="134.7656">Asks to assign one ore more vehicle to an entry in the Agenda</text><polygon fill="#181818" points="496.5,152.7973,502.5,155.1973,496.5,157.5973,498.9,155.1973" style="stroke:#181818;stroke-width:0.6;"/><line style="stroke:#181818;stroke-width:0.6;" x1="312.3" x2="500.1" y1="155.1973" y2="155.1973"/><text fill="#000000" font-family="sans-serif" font-size="7.8" font-weight="bold" lengthAdjust="spacing" textLength="5.4" x="316.5" y="152.352">2</text><text fill="#000000" font-family="sans-serif" font-size="7.8" lengthAdjust="spacing" textLength="22.8" x="324.3" y="152.352">create</text><rect fill="#E3E3E3" height="18.293" rx="1.5" ry="1.5" style="stroke:#181818;stroke-width:0.3;" width="166.8" x="503.7" y="142.4109"/><text fill="#000000" font-family="sans-serif" font-size="8.4" lengthAdjust="spacing" textLength="158.4" x="507.9" y="154.732">:AddVehiclesToAgendaEntryController</text><polygon fill="#181818" points="576.9,177.6902,582.9,180.0902,576.9,182.4902,579.3,180.0902" style="stroke:#181818;stroke-width:0.6;"/><line style="stroke:#181818;stroke-width:0.6;" x1="312.3" x2="580.5" y1="180.0902" y2="180.0902"/><text fill="#000000" font-family="sans-serif" font-size="7.8" font-weight="bold" lengthAdjust="spacing" textLength="5.4" x="316.5" y="177.2449">3</text><text fill="#000000" font-family="sans-serif" font-size="7.8" lengthAdjust="spacing" textLength="252.6" x="324.3" y="177.2449">getEntriesFromAgendaStartingFrom(currentDate, status="Planned")</text><polygon fill="#181818" points="702.9,195.2766,708.9,197.6766,702.9,200.0766,705.3,197.6766" style="stroke:#181818;stroke-width:0.6;"/><line style="stroke:#181818;stroke-width:0.6;" x1="590.1" x2="706.5" y1="197.6766" y2="197.6766"/><text fill="#000000" font-family="sans-serif" font-size="7.8" font-weight="bold" lengthAdjust="spacing" textLength="5.4" x="594.3" y="194.8312">4</text><text fill="#000000" font-family="sans-serif" font-size="7.8" lengthAdjust="spacing" textLength="48.6" x="602.1" y="194.8312">getInstance()</text><polygon fill="#181818" points="596.7,212.8629,590.7,215.2629,596.7,217.6629,594.3,215.2629" style="stroke:#181818;stroke-width:0.6;"/><line style="stroke:#181818;stroke-width:0.6;stroke-dasharray:2.0,2.0;" x1="593.1" x2="712.5" y1="215.2629" y2="215.2629"/><text fill="#000000" font-family="sans-serif" font-size="7.8" font-weight="bold" lengthAdjust="spacing" textLength="5.4" x="600.3" y="212.4176">5</text><text fill="#000000" font-family="sans-serif" font-size="7.8" lengthAdjust="spacing" textLength="45" x="608.1" y="212.4176">repositories</text><polygon fill="#181818" points="702.9,230.4492,708.9,232.8492,702.9,235.2492,705.3,232.8492" style="stroke:#181818;stroke-width:0.6;"/><line style="stroke:#181818;stroke-width:0.6;" x1="590.1" x2="706.5" y1="232.8492" y2="232.8492"/><text fill="#000000" font-family="sans-serif" font-size="7.8" font-weight="bold" lengthAdjust="spacing" textLength="5.4" x="594.3" y="230.0039">6</text><text fill="#000000" font-family="sans-serif" font-size="7.8" lengthAdjust="spacing" textLength="100.8" x="602.1" y="230.0039">getEmployeeFromSession()</text><path d="M592.8,240.6492 L592.8,273.6492 L708,273.6492 L708,246.6492 L702,240.6492 L592.8,240.6492 " fill="#FAFAFA" style="stroke:#181818;stroke-width:0.3;"/><path d="M702,240.6492 L702,246.6492 L708,246.6492 L702,240.6492 " fill="#FAFAFA" style="stroke:#181818;stroke-width:0.3;"/><text fill="#000000" font-family="sans-serif" font-size="7.8" lengthAdjust="spacing" textLength="102.6" x="596.4" y="251.1902">- This method is explained</text><text fill="#000000" font-family="sans-serif" font-size="7.8" lengthAdjust="spacing" textLength="82.2" x="596.4" y="260.3766">in detail in an excerpt</text><text fill="#000000" font-family="sans-serif" font-size="7.8" lengthAdjust="spacing" textLength="70.8" x="596.4" y="269.5629">sequence diagram.</text><polygon fill="#181818" points="596.7,287.5945,590.7,289.9945,596.7,292.3945,594.3,289.9945" style="stroke:#181818;stroke-width:0.6;"/><line style="stroke:#181818;stroke-width:0.6;stroke-dasharray:2.0,2.0;" x1="593.1" x2="712.5" y1="289.9945" y2="289.9945"/><text fill="#000000" font-family="sans-serif" font-size="7.8" font-weight="bold" lengthAdjust="spacing" textLength="5.4" x="600.3" y="287.1492">7</text><text fill="#000000" font-family="sans-serif" font-size="7.8" lengthAdjust="spacing" textLength="36" x="608.1" y="287.1492">employee</text><polygon fill="#181818" points="770.7,305.1809,776.7,307.5809,770.7,309.9809,773.1,307.5809" style="stroke:#181818;stroke-width:0.6;"/><line style="stroke:#181818;stroke-width:0.6;" x1="590.1" x2="774.3" y1="307.5809" y2="307.5809"/><text fill="#000000" font-family="sans-serif" font-size="7.8" font-weight="bold" lengthAdjust="spacing" textLength="5.4" x="594.3" y="304.7355">8</text><text fill="#000000" font-family="sans-serif" font-size="7.8" lengthAdjust="spacing" textLength="85.2" x="602.1" y="304.7355">getAgendaRepository()</text><polygon fill="#181818" points="596.7,322.7672,590.7,325.1672,596.7,327.5672,594.3,325.1672" style="stroke:#181818;stroke-width:0.6;"/><line style="stroke:#181818;stroke-width:0.6;stroke-dasharray:2.0,2.0;" x1="593.1" x2="780.3" y1="325.1672" y2="325.1672"/><text fill="#000000" font-family="sans-serif" font-size="7.8" font-weight="bold" lengthAdjust="spacing" textLength="5.4" x="600.3" y="322.3219">9</text><text fill="#000000" font-family="sans-serif" font-size="7.8" lengthAdjust="spacing" textLength="67.2" x="608.1" y="322.3219">agendaRepository</text><polygon fill="#181818" points="860.1,340.3535,866.1,342.7535,860.1,345.1535,862.5,342.7535" style="stroke:#181818;stroke-width:0.6;"/><line style="stroke:#181818;stroke-width:0.6;" x1="590.1" x2="863.7" y1="342.7535" y2="342.7535"/><text fill="#000000" font-family="sans-serif" font-size="7.8" font-weight="bold" lengthAdjust="spacing" textLength="10.8" x="594.3" y="339.9082">10</text><text fill="#000000" font-family="sans-serif" font-size="7.8" lengthAdjust="spacing" textLength="252.6" x="607.5" y="339.9082">getEntriesFromAgendaStartingFrom(currentDate, status="Planned")</text><polygon fill="#181818" points="596.7,357.9398,590.7,360.3398,596.7,362.7398,594.3,360.3398" style="stroke:#181818;stroke-width:0.6;"/><line style="stroke:#181818;stroke-width:0.6;stroke-dasharray:2.0,2.0;" x1="593.1" x2="869.7" y1="360.3398" y2="360.3398"/><text fill="#000000" font-family="sans-serif" font-size="7.8" font-weight="bold" lengthAdjust="spacing" textLength="10.8" x="600.3" y="357.4945">11</text><text fill="#000000" font-family="sans-serif" font-size="7.8" lengthAdjust="spacing" textLength="48.6" x="613.5" y="357.4945">futureEntries</text><polygon fill="#181818" points="318.9,375.5262,312.9,377.9262,318.9,380.3262,316.5,377.9262" style="stroke:#181818;stroke-width:0.6;"/><line style="stroke:#181818;stroke-width:0.6;stroke-dasharray:2.0,2.0;" x1="315.3" x2="586.5" y1="377.9262" y2="377.9262"/><text fill="#000000" font-family="sans-serif" font-size="7.8" font-weight="bold" lengthAdjust="spacing" textLength="10.8" x="322.5" y="375.0809">12</text><text fill="#000000" font-family="sans-serif" font-size="7.8" lengthAdjust="spacing" textLength="48.6" x="335.7" y="375.0809">futureEntries</text><polygon fill="#181818" points="59.1,393.1125,53.1,395.5125,59.1,397.9125,56.7,395.5125" style="stroke:#181818;stroke-width:0.6;"/><line style="stroke:#181818;stroke-width:0.6;stroke-dasharray:2.0,2.0;" x1="55.5" x2="308.7" y1="395.5125" y2="395.5125"/><text fill="#000000" font-family="sans-serif" font-size="7.8" font-weight="bold" lengthAdjust="spacing" textLength="10.8" x="62.7" y="392.6672">13</text><text fill="#000000" font-family="sans-serif" font-size="7.8" lengthAdjust="spacing" textLength="132" x="75.9" y="392.6672">Shows the entries from the Agenda</text><polygon fill="#181818" points="299.1,410.6988,305.1,413.0988,299.1,415.4988,301.5,413.0988" style="stroke:#181818;stroke-width:0.6;"/><line style="stroke:#181818;stroke-width:0.6;" x1="52.5" x2="302.7" y1="413.0988" y2="413.0988"/><text fill="#000000" font-family="sans-serif" font-size="7.8" font-weight="bold" lengthAdjust="spacing" textLength="10.8" x="56.7" y="410.2535">14</text><text fill="#000000" font-family="sans-serif" font-size="7.8" lengthAdjust="spacing" textLength="127.8" x="69.9" y="410.2535">Selects the entry from the Agenda</text><polygon fill="#181818" points="576.9,428.2852,582.9,430.6852,576.9,433.0852,579.3,430.6852" style="stroke:#181818;stroke-width:0.6;"/><line style="stroke:#181818;stroke-width:0.6;" x1="312.3" x2="580.5" y1="430.6852" y2="430.6852"/><text fill="#000000" font-family="sans-serif" font-size="7.8" font-weight="bold" lengthAdjust="spacing" textLength="10.8" x="316.5" y="427.8398">15</text><text fill="#000000" font-family="sans-serif" font-size="7.8" lengthAdjust="spacing" textLength="175.2" x="329.7" y="427.8398">getAvailableVehiclesWithinTime(selectedEntry)</text><polygon fill="#181818" points="1213.5,445.8715,1219.5,448.2715,1213.5,450.6715,1215.9,448.2715" style="stroke:#181818;stroke-width:0.6;"/><line style="stroke:#181818;stroke-width:0.6;" x1="590.1" x2="1217.1" y1="448.2715" y2="448.2715"/><text fill="#000000" font-family="sans-serif" font-size="7.8" font-weight="bold" lengthAdjust="spacing" textLength="10.8" x="594.3" y="445.4262">16</text><text fill="#000000" font-family="sans-serif" font-size="7.8" lengthAdjust="spacing" textLength="271.2" x="607.5" y="445.4262">getVehiclesInUseWithinTime(selectedEntryExecutionTIme, futureEntries)</text><polygon fill="#181818" points="596.7,463.4578,590.7,465.8578,596.7,468.2578,594.3,465.8578" style="stroke:#181818;stroke-width:0.6;"/><line style="stroke:#181818;stroke-width:0.6;stroke-dasharray:2.0,2.0;" x1="593.1" x2="1223.1" y1="465.8578" y2="465.8578"/><text fill="#000000" font-family="sans-serif" font-size="7.8" font-weight="bold" lengthAdjust="spacing" textLength="10.8" x="600.3" y="463.0125">17</text><text fill="#000000" font-family="sans-serif" font-size="7.8" lengthAdjust="spacing" textLength="122.4" x="613.5" y="463.0125">vehiclesAlreadyInUseWithinTime</text><polygon fill="#181818" points="770.7,511.0441,776.7,513.4441,770.7,515.8441,773.1,513.4441" style="stroke:#181818;stroke-width:0.6;"/><line style="stroke:#181818;stroke-width:0.6;" x1="590.1" x2="774.3" y1="513.4441" y2="513.4441"/><text fill="#000000" font-family="sans-serif" font-size="7.8" font-weight="bold" lengthAdjust="spacing" textLength="10.8" x="594.3" y="510.5988">18</text><text fill="#000000" font-family="sans-serif" font-size="7.8" lengthAdjust="spacing" textLength="84" x="607.5" y="510.5988">getVehicleRepository()</text><polygon fill="#181818" points="596.7,528.6305,590.7,531.0305,596.7,533.4305,594.3,531.0305" style="stroke:#181818;stroke-width:0.6;"/><line style="stroke:#181818;stroke-width:0.6;stroke-dasharray:2.0,2.0;" x1="593.1" x2="780.3" y1="531.0305" y2="531.0305"/><text fill="#000000" font-family="sans-serif" font-size="7.8" font-weight="bold" lengthAdjust="spacing" textLength="10.8" x="600.3" y="528.1852">19</text><text fill="#000000" font-family="sans-serif" font-size="7.8" lengthAdjust="spacing" textLength="66.6" x="613.5" y="528.1852">vehicleRepository</text><polygon fill="#181818" points="951.3,546.2168,957.3,548.6168,951.3,551.0168,953.7,548.6168" style="stroke:#181818;stroke-width:0.6;"/><line style="stroke:#181818;stroke-width:0.6;" x1="590.1" x2="954.9" y1="548.6168" y2="548.6168"/><text fill="#000000" font-family="sans-serif" font-size="7.8" font-weight="bold" lengthAdjust="spacing" textLength="10.8" x="594.3" y="545.7715">20</text><text fill="#000000" font-family="sans-serif" font-size="7.8" lengthAdjust="spacing" textLength="58.2" x="607.5" y="545.7715">getAllVehicles()</text><polygon fill="#181818" points="596.7,563.8031,590.7,566.2031,596.7,568.6031,594.3,566.2031" style="stroke:#181818;stroke-width:0.6;"/><line style="stroke:#181818;stroke-width:0.6;stroke-dasharray:2.0,2.0;" x1="593.1" x2="960.9" y1="566.2031" y2="566.2031"/><text fill="#000000" font-family="sans-serif" font-size="7.8" font-weight="bold" lengthAdjust="spacing" textLength="10.8" x="600.3" y="563.3578">21</text><text fill="#000000" font-family="sans-serif" font-size="7.8" lengthAdjust="spacing" textLength="62.4" x="613.5" y="563.3578">listOfAllVehicles</text><polygon fill="#181818" points="1213.5,611.3895,1219.5,613.7895,1213.5,616.1895,1215.9,613.7895" style="stroke:#181818;stroke-width:0.6;"/><line style="stroke:#181818;stroke-width:0.6;" x1="590.1" x2="1217.1" y1="613.7895" y2="613.7895"/><text fill="#000000" font-family="sans-serif" font-size="7.8" font-weight="bold" lengthAdjust="spacing" textLength="10.8" x="594.3" y="610.9441">22</text><text fill="#000000" font-family="sans-serif" font-size="7.8" lengthAdjust="spacing" textLength="243.6" x="607.5" y="610.9441">filterVehicles(vehiclesAlreadyInUseWithinTime, listOfAllVehicles)</text><polygon fill="#181818" points="596.7,628.9758,590.7,631.3758,596.7,633.7758,594.3,631.3758" style="stroke:#181818;stroke-width:0.6;"/><line style="stroke:#181818;stroke-width:0.6;stroke-dasharray:2.0,2.0;" x1="593.1" x2="1223.1" y1="631.3758" y2="631.3758"/><text fill="#000000" font-family="sans-serif" font-size="7.8" font-weight="bold" lengthAdjust="spacing" textLength="10.8" x="600.3" y="628.5305">23</text><text fill="#000000" font-family="sans-serif" font-size="7.8" lengthAdjust="spacing" textLength="64.2" x="613.5" y="628.5305">availableVehicles</text><polygon fill="#181818" points="318.9,646.5621,312.9,648.9621,318.9,651.3621,316.5,648.9621" style="stroke:#181818;stroke-width:0.6;"/><line style="stroke:#181818;stroke-width:0.6;stroke-dasharray:2.0,2.0;" x1="315.3" x2="586.5" y1="648.9621" y2="648.9621"/><text fill="#000000" font-family="sans-serif" font-size="7.8" font-weight="bold" lengthAdjust="spacing" textLength="10.8" x="322.5" y="646.1168">24</text><text fill="#000000" font-family="sans-serif" font-size="7.8" lengthAdjust="spacing" textLength="64.2" x="335.7" y="646.1168">availableVehicles</text><polygon fill="#181818" points="59.1,664.1484,53.1,666.5484,59.1,668.9484,56.7,666.5484" style="stroke:#181818;stroke-width:0.6;"/><line style="stroke:#181818;stroke-width:0.6;stroke-dasharray:2.0,2.0;" x1="55.5" x2="308.7" y1="666.5484" y2="666.5484"/><text fill="#000000" font-family="sans-serif" font-size="7.8" font-weight="bold" lengthAdjust="spacing" textLength="10.8" x="62.7" y="663.7031">25</text><text fill="#000000" font-family="sans-serif" font-size="7.8" lengthAdjust="spacing" textLength="107.4" x="75.9" y="663.7031">Shows the available Vehicles</text><polygon fill="#181818" points="299.1,681.7348,305.1,684.1348,299.1,686.5348,301.5,684.1348" style="stroke:#181818;stroke-width:0.6;"/><line style="stroke:#181818;stroke-width:0.6;" x1="52.5" x2="302.7" y1="684.1348" y2="684.1348"/><text fill="#000000" font-family="sans-serif" font-size="7.8" font-weight="bold" lengthAdjust="spacing" textLength="10.8" x="56.7" y="681.2895">26</text><text fill="#000000" font-family="sans-serif" font-size="7.8" lengthAdjust="spacing" textLength="177.6" x="69.9" y="681.2895">Selects one or more from the available vehicles</text><polygon fill="#181818" points="59.1,699.3211,53.1,701.7211,59.1,704.1211,56.7,701.7211" style="stroke:#181818;stroke-width:0.6;"/><line style="stroke:#181818;stroke-width:0.6;stroke-dasharray:2.0,2.0;" x1="55.5" x2="308.7" y1="701.7211" y2="701.7211"/><text fill="#000000" font-family="sans-serif" font-size="7.8" font-weight="bold" lengthAdjust="spacing" textLength="10.8" x="62.7" y="698.8758">27</text><text fill="#000000" font-family="sans-serif" font-size="7.8" lengthAdjust="spacing" textLength="178.2" x="75.9" y="698.8758">Shows selected data and requests confirmation</text><polygon fill="#181818" points="299.1,716.9074,305.1,719.3074,299.1,721.7074,301.5,719.3074" style="stroke:#181818;stroke-width:0.6;"/><line style="stroke:#181818;stroke-width:0.6;" x1="52.5" x2="302.7" y1="719.3074" y2="719.3074"/><text fill="#000000" font-family="sans-serif" font-size="7.8" font-weight="bold" lengthAdjust="spacing" textLength="10.8" x="56.7" y="716.4621">28</text><text fill="#000000" font-family="sans-serif" font-size="7.8" lengthAdjust="spacing" textLength="53.4" x="69.9" y="716.4621">Confirms data</text><polygon fill="#181818" points="576.9,734.4938,582.9,736.8938,576.9,739.2937,579.3,736.8938" style="stroke:#181818;stroke-width:0.6;"/><line style="stroke:#181818;stroke-width:0.6;" x1="312.3" x2="580.5" y1="736.8938" y2="736.8938"/><text fill="#000000" font-family="sans-serif" font-size="7.8" font-weight="bold" lengthAdjust="spacing" textLength="10.8" x="316.5" y="734.0484">29</text><text fill="#000000" font-family="sans-serif" font-size="7.8" lengthAdjust="spacing" textLength="196.2" x="329.7" y="734.0484">addVehiclesToEntry(selectedEntry, selectedVehicles)</text><polygon fill="#181818" points="1213.5,752.0801,1219.5,754.4801,1213.5,756.8801,1215.9,754.4801" style="stroke:#181818;stroke-width:0.6;"/><line style="stroke:#181818;stroke-width:0.6;" x1="590.1" x2="1217.1" y1="754.4801" y2="754.4801"/><text fill="#000000" font-family="sans-serif" font-size="7.8" font-weight="bold" lengthAdjust="spacing" textLength="10.8" x="594.3" y="751.6348">30</text><text fill="#000000" font-family="sans-serif" font-size="7.8" lengthAdjust="spacing" textLength="196.2" x="607.5" y="751.6348">addVehiclesToEntry(selectedEntry, selectedVehicles)</text><polygon fill="#181818" points="1356.3,769.6664,1362.3,772.0664,1356.3,774.4664,1358.7,772.0664" style="stroke:#181818;stroke-width:0.6;"/><line style="stroke:#181818;stroke-width:0.6;" x1="1226.7" x2="1359.9" y1="772.0664" y2="772.0664"/><text fill="#000000" font-family="sans-serif" font-size="7.8" font-weight="bold" lengthAdjust="spacing" textLength="10.8" x="1230.9" y="769.2211">31</text><text fill="#000000" font-family="sans-serif" font-size="7.8" lengthAdjust="spacing" textLength="112.2" x="1244.1" y="769.2211">addVehicles(selectedVehicles)</text><polygon fill="#181818" points="1233.3,787.2527,1227.3,789.6527,1233.3,792.0527,1230.9,789.6527" style="stroke:#181818;stroke-width:0.6;"/><line style="stroke:#181818;stroke-width:0.6;stroke-dasharray:2.0,2.0;" x1="1229.7" x2="1365.9" y1="789.6527" y2="789.6527"/><text fill="#000000" font-family="sans-serif" font-size="7.8" font-weight="bold" lengthAdjust="spacing" textLength="10.8" x="1236.9" y="786.8074">32</text><text fill="#000000" font-family="sans-serif" font-size="7.8" lengthAdjust="spacing" textLength="45" x="1250.1" y="786.8074">alteredEntry</text><polygon fill="#181818" points="596.7,804.8391,590.7,807.2391,596.7,809.6391,594.3,807.2391" style="stroke:#181818;stroke-width:0.6;"/><line style="stroke:#181818;stroke-width:0.6;stroke-dasharray:2.0,2.0;" x1="593.1" x2="1223.1" y1="807.2391" y2="807.2391"/><text fill="#000000" font-family="sans-serif" font-size="7.8" font-weight="bold" lengthAdjust="spacing" textLength="10.8" x="600.3" y="804.3938">33</text><text fill="#000000" font-family="sans-serif" font-size="7.8" lengthAdjust="spacing" textLength="45" x="613.5" y="804.3938">alteredEntry</text><polygon fill="#181818" points="318.9,822.4254,312.9,824.8254,318.9,827.2254,316.5,824.8254" style="stroke:#181818;stroke-width:0.6;"/><line style="stroke:#181818;stroke-width:0.6;stroke-dasharray:2.0,2.0;" x1="315.3" x2="586.5" y1="824.8254" y2="824.8254"/><text fill="#000000" font-family="sans-serif" font-size="7.8" font-weight="bold" lengthAdjust="spacing" textLength="10.8" x="322.5" y="821.9801">34</text><text fill="#000000" font-family="sans-serif" font-size="7.8" lengthAdjust="spacing" textLength="45" x="335.7" y="821.9801">alteredEntry</text><polygon fill="#181818" points="56.1,840.0117,50.1,842.4117,56.1,844.8117,53.7,842.4117" style="stroke:#181818;stroke-width:0.6;"/><line style="stroke:#181818;stroke-width:0.6;stroke-dasharray:2.0,2.0;" x1="52.5" x2="308.7" y1="842.4117" y2="842.4117"/><text fill="#000000" font-family="sans-serif" font-size="7.8" font-weight="bold" lengthAdjust="spacing" textLength="10.8" x="59.7" y="839.5664">35</text><text fill="#000000" font-family="sans-serif" font-size="7.8" lengthAdjust="spacing" textLength="134.4" x="72.9" y="839.5664">Shows operations success message</text><!--SRC=[hLVDRkCs4BxhAGQvD5aaUG03NS3OkgaFQHQHlRqKM33IM28Yaov9PMCW3zyXzKjHahqBws1Ouimt_vz6-fMB0rDi3tifP98hkKSmgiH8joS7bhoo36DpB10K9eQ9hEWBw9obyWSN6UnOeJ6AM6caAFSlgABejvod23ifpOjyZrXYf8Ah1uKe82PaX4Sc25rT0TFm43z6X6bumWzC6BXQBDFq6-OyAL1lv393aRALCEguNJk5xVfC-I-IVcLHr8QIzdQW_um7gJavoL4xISrjj1IFBwXwSl-AK8tEVGNcV6dbZgIq73noYaCv7-MjYis3-JPyvd02oO4xfSbHq3qpN0hVhOaZ1xlSRlxw_hpw-kJ3bHfLZ5gJ0Y5ikxkgIl7pztWLn-kdltqrt1yAUKGa7LZL_vt6uyFpe32kYkuCxRyeYeGqr8yyomt8dMiTeEiEDZc2zGSuPRDGoD8Z53BBC0KkW1amEPreWuVxMiEF63J-LwAWrYGnV3yKZ0kdwwHPTupl2Qg3kO-eOc2z6VhKzKvb9sxk2Taz8d_8qvu-pGT_OuHXmt4Yzg8RkFjCpGwBfNxLO2JbGVDCW1G8KY5DB_tK9NV7eagJjK2nGTLg7M9hXmQeVMWlia6Mkl7uz0aMa50IhNTpWYIMeR5LeX7uatYaCXaRMqMHsIVNIQaKkVK7WTrI0PWfzUzNNmicABzNDnvyws1lKZq1U_MiaozjjYjNre8iK9ckRmAz5hmhK21Zhmxnpejr0Vtn3rHJFCV0hFFDCDYqrPD4SGGOVhlrKZKMZPqCwkWzcbocNc-FYbFdf6WOBzpKYARRnnFLZ4JAMKQlXFj0gclnNod6L24eMGs5H1Sf0zMrAi2Gc-Uwo7BzQ5eish1p0dwVSNiKs7Tu27VXCVJY35mV3JhmA2ZPhZIbmjh7sRgTjjZFHasHG_ne0doAMIop4PGbtGN4kVoX7OLYXGSxIg77gT48TfzMU-mTOq7xKuTt3D56CpzawMa2NhxHnBAN0fijw1zEhpknuNkyriuwfkvLUZCpYNES6xOWlQkTwSRYMj3xVyhiwXsJqhvbD-izTPzNgfk9XchSial1g0GT17FMl0tribe11bwD0tryV4m-7ptebNpIku1X-jdo66O-_4cQcQAQS0Ky5SEa2J-60BXglQ9eMk1aB6Uw5eY5P59mRPvsFTidWppJza_tmiXKx7XXKBLPcM_9sp2MYqu46rB39LgQZ6pNPs5FC6yqpcmL0VVvjpK1upPEioyqz5jjpTNIt19mX_ysYZ-xCjVkLjusX0SfCunMfvJcYlOZRTntvuwhlVlE-6dtlrJAsk7EE7TgJsVzRsJ7oZv7txOHpFJXBopejYalPFsyAMWduNFrjlMCNvzf9Z1NVt_2YSk9KMCu8c2M1-e0vrLxVN32K3ZZS8wXK_Czjb7DevwnKmttgcfGv06L6mMQcJ99w3k7lawqfgrlTZPwj_Op-Ny0]--></g></svg>