<?xml version="1.0" encoding="us-ascii" standalone="no"?><svg xmlns="http://www.w3.org/2000/svg" xmlns:xlink="http://www.w3.org/1999/xlink" contentStyleType="text/css" height="587.2px" preserveAspectRatio="none" style="width:1329px;height:587px;background:#FFFFFF;" version="1.1" viewBox="0 0 1329 587" width="1329.6px" zoomAndPan="magnify"><defs/><g><!--class ApplicationSession--><g id="elem_ApplicationSession"><rect codeLine="5" fill="#F1F1F1" height="64.7813" id="ApplicationSession" rx="2" ry="2" style="stroke:#181818;stroke-width:0.4000000000000001;" width="129.6" x="970" y="364.28"/><ellipse cx="982" cy="377.08" fill="#ADD1B2" rx="8.8" ry="8.8" style="stroke:#181818;stroke-width:0.8000000000000002;"/><path d="M984.3785,381.5945 Q983.9137,381.8335 983.4023,381.953 Q982.891,382.0726 982.3266,382.0726 Q980.3211,382.0726 979.2652,380.7511 Q978.2094,379.4296 978.2094,376.9327 Q978.2094,374.4292 979.2652,373.1077 Q980.3211,371.7863 982.3266,371.7863 Q982.891,371.7863 983.409,371.9058 Q983.927,372.0253 984.3785,372.2644 L984.3785,374.4425 Q983.8738,373.9777 983.399,373.7618 Q982.9242,373.546 982.4195,373.546 Q981.3438,373.546 980.7959,374.3993 Q980.248,375.2527 980.248,376.9327 Q980.248,378.6062 980.7959,379.4595 Q981.3438,380.3128 982.4195,380.3128 Q982.9242,380.3128 983.399,380.097 Q983.8738,379.8812 984.3785,379.4163 Z " fill="#000000"/><text fill="#000000" font-family="sans-serif" font-size="11.2" lengthAdjust="spacing" textLength="104" x="993.2" y="381.3128">ApplicationSession</text><line style="stroke:#181818;stroke-width:0.4000000000000001;" x1="970.8" x2="1098.8" y1="389.88" y2="389.88"/><line style="stroke:#181818;stroke-width:0.4000000000000001;" x1="970.8" x2="1098.8" y1="396.28" y2="396.28"/><text fill="#000000" font-family="sans-serif" font-size="11.2" lengthAdjust="spacing" textLength="112" x="974.8" y="410.3081">+static getInstance()</text><text fill="#000000" font-family="sans-serif" font-size="11.2" lengthAdjust="spacing" textLength="118.4" x="974.8" y="423.4988">+getCurrentSession()</text></g><!--class UserSession--><g id="elem_UserSession"><rect codeLine="11" fill="#F1F1F1" height="51.5906" id="UserSession" rx="2" ry="2" style="stroke:#181818;stroke-width:0.4000000000000001;" width="196" x="1128" y="370.88"/><ellipse cx="1189.4" cy="383.68" fill="#ADD1B2" rx="8.8" ry="8.8" style="stroke:#181818;stroke-width:0.8000000000000002;"/><path d="M1191.7785,388.1945 Q1191.3137,388.4335 1190.8023,388.553 Q1190.291,388.6726 1189.7266,388.6726 Q1187.7211,388.6726 1186.6652,387.3511 Q1185.6094,386.0296 1185.6094,383.5327 Q1185.6094,381.0292 1186.6652,379.7077 Q1187.7211,378.3863 1189.7266,378.3863 Q1190.291,378.3863 1190.809,378.5058 Q1191.327,378.6253 1191.7785,378.8644 L1191.7785,381.0425 Q1191.2738,380.5777 1190.799,380.3618 Q1190.3242,380.146 1189.8195,380.146 Q1188.7438,380.146 1188.1959,380.9993 Q1187.648,381.8527 1187.648,383.5327 Q1187.648,385.2062 1188.1959,386.0595 Q1188.7438,386.9128 1189.8195,386.9128 Q1190.3242,386.9128 1190.799,386.697 Q1191.2738,386.4812 1191.7785,386.0163 Z " fill="#000000"/><text fill="#000000" font-family="sans-serif" font-size="11.2" lengthAdjust="spacing" textLength="66.4" x="1205.8" y="387.9128">UserSession</text><line style="stroke:#181818;stroke-width:0.4000000000000001;" x1="1128.8" x2="1323.2" y1="396.48" y2="396.48"/><line style="stroke:#181818;stroke-width:0.4000000000000001;" x1="1128.8" x2="1323.2" y1="402.88" y2="402.88"/><text fill="#000000" font-family="sans-serif" font-size="11.2" lengthAdjust="spacing" textLength="186.4" x="1132.8" y="416.9081">+isLoggedInWithRole(USER_ROLE)</text></g><!--class {NameOfUC}Controller--><g id="elem_{NameOfUC}Controller"><rect codeLine="16" fill="#F1F1F1" height="64.7813" id="{NameOfUC}Controller" rx="2" ry="2" style="stroke:#181818;stroke-width:0.4000000000000001;" width="150.4" x="1075.6" y="184.744"/><ellipse cx="1087.96" cy="197.544" fill="#ADD1B2" rx="8.8" ry="8.8" style="stroke:#181818;stroke-width:0.8000000000000002;"/><path d="M1090.3385,202.0585 Q1089.8737,202.2975 1089.3623,202.417 Q1088.851,202.5366 1088.2866,202.5366 Q1086.2811,202.5366 1085.2252,201.2151 Q1084.1694,199.8936 1084.1694,197.3967 Q1084.1694,194.8932 1085.2252,193.5717 Q1086.2811,192.2503 1088.2866,192.2503 Q1088.851,192.2503 1089.369,192.3698 Q1089.887,192.4893 1090.3385,192.7284 L1090.3385,194.9065 Q1089.8338,194.4417 1089.359,194.2258 Q1088.8842,194.01 1088.3795,194.01 Q1087.3038,194.01 1086.7559,194.8633 Q1086.208,195.7167 1086.208,197.3967 Q1086.208,199.0702 1086.7559,199.9235 Q1087.3038,200.7768 1088.3795,200.7768 Q1088.8842,200.7768 1089.359,200.561 Q1089.8338,200.3452 1090.3385,199.8803 Z " fill="#000000"/><text fill="#000000" font-family="sans-serif" font-size="11.2" lengthAdjust="spacing" textLength="124" x="1099.24" y="201.7768">{NameOfUC}Controller</text><line style="stroke:#181818;stroke-width:0.4000000000000001;" x1="1076.4" x2="1225.2" y1="210.344" y2="210.344"/><line style="stroke:#181818;stroke-width:0.4000000000000001;" x1="1076.4" x2="1225.2" y1="216.744" y2="216.744"/><text fill="#000000" font-family="sans-serif" font-size="11.2" lengthAdjust="spacing" textLength="140.8" x="1080.4" y="230.7721">+{NameOfUC}Controller()</text><text fill="#000000" font-family="sans-serif" font-size="11.2" lengthAdjust="spacing" textLength="76" x="1080.4" y="243.9628">+methodX(...)</text></g><!--class {NameOfUC}UI--><g id="elem_{NameOfUC}UI"><rect codeLine="21" fill="#F1F1F1" height="38.4" id="{NameOfUC}UI" rx="2" ry="2" style="stroke:#181818;stroke-width:0.4000000000000001;" width="104.8" x="1098.4" y="18.792"/><ellipse cx="1110.4" cy="31.592" fill="#ADD1B2" rx="8.8" ry="8.8" style="stroke:#181818;stroke-width:0.8000000000000002;"/><path d="M1112.7785,36.1065 Q1112.3137,36.3455 1111.8023,36.465 Q1111.291,36.5846 1110.7266,36.5846 Q1108.7211,36.5846 1107.6652,35.2631 Q1106.6094,33.9416 1106.6094,31.4447 Q1106.6094,28.9412 1107.6652,27.6197 Q1108.7211,26.2983 1110.7266,26.2983 Q1111.291,26.2983 1111.809,26.4178 Q1112.327,26.5373 1112.7785,26.7764 L1112.7785,28.9545 Q1112.2738,28.4897 1111.799,28.2738 Q1111.3242,28.058 1110.8195,28.058 Q1109.7438,28.058 1109.1959,28.9113 Q1108.648,29.7647 1108.648,31.4447 Q1108.648,33.1182 1109.1959,33.9715 Q1109.7438,34.8248 1110.8195,34.8248 Q1111.3242,34.8248 1111.799,34.609 Q1112.2738,34.3932 1112.7785,33.9283 Z " fill="#000000"/><text fill="#000000" font-family="sans-serif" font-size="11.2" lengthAdjust="spacing" textLength="79.2" x="1121.6" y="35.8248">{NameOfUC}UI</text><line style="stroke:#181818;stroke-width:0.4000000000000001;" x1="1099.2" x2="1202.4" y1="44.392" y2="44.392"/><line style="stroke:#181818;stroke-width:0.4000000000000001;" x1="1099.2" x2="1202.4" y1="50.792" y2="50.792"/></g><!--class CreateSkillController--><g id="elem_CreateSkillController"><rect codeLine="25" fill="#F1F1F1" height="64.7813" id="CreateSkillController" rx="2" ry="2" style="stroke:#181818;stroke-width:0.4000000000000001;" width="268.8" x="270" y="5.6"/><ellipse cx="343.8" cy="18.4" fill="#ADD1B2" rx="8.8" ry="8.8" style="stroke:#181818;stroke-width:0.8000000000000002;"/><path d="M346.1785,22.9145 Q345.7137,23.1535 345.2023,23.273 Q344.691,23.3926 344.1266,23.3926 Q342.1211,23.3926 341.0652,22.0711 Q340.0094,20.7496 340.0094,18.2527 Q340.0094,15.7492 341.0652,14.4277 Q342.1211,13.1063 344.1266,13.1063 Q344.691,13.1063 345.209,13.2258 Q345.727,13.3453 346.1785,13.5844 L346.1785,15.7625 Q345.6738,15.2977 345.199,15.0818 Q344.7242,14.866 344.2195,14.866 Q343.1438,14.866 342.5959,15.7193 Q342.048,16.5727 342.048,18.2527 Q342.048,19.9262 342.5959,20.7795 Q343.1438,21.6328 344.2195,21.6328 Q344.7242,21.6328 345.199,21.417 Q345.6738,21.2012 346.1785,20.7363 Z " fill="#000000"/><text fill="#000000" font-family="sans-serif" font-size="11.2" lengthAdjust="spacing" textLength="114.4" x="360.2" y="22.6328">CreateSkillController</text><line style="stroke:#181818;stroke-width:0.4000000000000001;" x1="270.8" x2="538" y1="31.2" y2="31.2"/><line style="stroke:#181818;stroke-width:0.4000000000000001;" x1="270.8" x2="538" y1="37.6" y2="37.6"/><text fill="#000000" font-family="sans-serif" font-size="11.2" lengthAdjust="spacing" textLength="259.2" x="274.8" y="51.6281">+CreateSkillController(possibly skillRepository)</text><text fill="#000000" font-family="sans-serif" font-size="11.2" lengthAdjust="spacing" textLength="249.6" x="274.8" y="64.8188">+validateSkillData(skillName, skillDescription)</text></g><!--class CreateSkillUI--><g id="elem_CreateSkillUI"><rect codeLine="32" fill="#F1F1F1" height="51.5906" id="CreateSkillUI" rx="2" ry="2" style="stroke:#181818;stroke-width:0.4000000000000001;" width="236" x="5.6" y="12.2"/><ellipse cx="85.4" cy="25" fill="#ADD1B2" rx="8.8" ry="8.8" style="stroke:#181818;stroke-width:0.8000000000000002;"/><path d="M87.7785,29.5145 Q87.3137,29.7535 86.8023,29.873 Q86.291,29.9926 85.7266,29.9926 Q83.7211,29.9926 82.6652,28.6711 Q81.6094,27.3496 81.6094,24.8527 Q81.6094,22.3492 82.6652,21.0277 Q83.7211,19.7063 85.7266,19.7063 Q86.291,19.7063 86.809,19.8258 Q87.327,19.9453 87.7785,20.1844 L87.7785,22.3625 Q87.2738,21.8977 86.799,21.6818 Q86.3242,21.466 85.8195,21.466 Q84.7438,21.466 84.1959,22.3193 Q83.648,23.1727 83.648,24.8527 Q83.648,26.5262 84.1959,27.3795 Q84.7438,28.2328 85.8195,28.2328 Q86.3242,28.2328 86.799,28.017 Q87.2738,27.8012 87.7785,27.3363 Z " fill="#000000"/><text fill="#000000" font-family="sans-serif" font-size="11.2" lengthAdjust="spacing" textLength="69.6" x="101.8" y="29.2328">CreateSkillUI</text><line style="stroke:#181818;stroke-width:0.4000000000000001;" x1="6.4" x2="240.8" y1="37.8" y2="37.8"/><line style="stroke:#181818;stroke-width:0.4000000000000001;" x1="6.4" x2="240.8" y1="44.2" y2="44.2"/><text fill="#000000" font-family="sans-serif" font-size="11.2" lengthAdjust="spacing" textLength="226.4" x="10.4" y="58.2281">+requestData(skillName, skillDescription)</text></g><!--class Employee--><g id="elem_Employee"><rect codeLine="37" fill="#F1F1F1" height="170.3063" id="Employee" rx="2" ry="2" style="stroke:#181818;stroke-width:0.4000000000000001;" width="132" x="840" y="131.984"/><ellipse cx="876.2" cy="144.784" fill="#ADD1B2" rx="8.8" ry="8.8" style="stroke:#181818;stroke-width:0.8000000000000002;"/><path d="M878.5785,149.2985 Q878.1137,149.5375 877.6023,149.657 Q877.091,149.7766 876.5266,149.7766 Q874.5211,149.7766 873.4652,148.4551 Q872.4094,147.1336 872.4094,144.6367 Q872.4094,142.1332 873.4652,140.8117 Q874.5211,139.4903 876.5266,139.4903 Q877.091,139.4903 877.609,139.6098 Q878.127,139.7293 878.5785,139.9684 L878.5785,142.1465 Q878.0738,141.6817 877.599,141.4658 Q877.1242,141.25 876.6195,141.25 Q875.5438,141.25 874.9959,142.1033 Q874.448,142.9567 874.448,144.6367 Q874.448,146.3102 874.9959,147.1635 Q875.5438,148.0168 876.6195,148.0168 Q877.1242,148.0168 877.599,147.801 Q878.0738,147.5852 878.5785,147.1203 Z " fill="#000000"/><text fill="#000000" font-family="sans-serif" font-size="11.2" lengthAdjust="spacing" textLength="52.8" x="892.6" y="149.0168">Employee</text><line style="stroke:#181818;stroke-width:0.4000000000000001;" x1="840.8" x2="971.2" y1="157.584" y2="157.584"/><text fill="#000000" font-family="sans-serif" font-size="11.2" lengthAdjust="spacing" textLength="72.8" x="844.8" y="171.6121">-name:String</text><text fill="#000000" font-family="sans-serif" font-size="11.2" lengthAdjust="spacing" textLength="84.8" x="844.8" y="184.8028">-birthdate:Date</text><text fill="#000000" font-family="sans-serif" font-size="11.2" lengthAdjust="spacing" textLength="115.2" x="844.8" y="197.9934">-admissionDate:Date</text><text fill="#000000" font-family="sans-serif" font-size="11.2" lengthAdjust="spacing" textLength="49.6" x="844.8" y="211.184">-address</text><text fill="#000000" font-family="sans-serif" font-size="11.2" lengthAdjust="spacing" textLength="122.4" x="844.8" y="224.3746">-mobileContact:String</text><text fill="#000000" font-family="sans-serif" font-size="11.2" lengthAdjust="spacing" textLength="114.4" x="844.8" y="237.5653">-emailContact:String</text><text fill="#000000" font-family="sans-serif" font-size="11.2" lengthAdjust="spacing" textLength="100" x="844.8" y="250.7559">-IDdocType:String</text><text fill="#000000" font-family="sans-serif" font-size="11.2" lengthAdjust="spacing" textLength="96.8" x="844.8" y="263.9465">-IDnumber:String</text><text fill="#000000" font-family="sans-serif" font-size="11.2" lengthAdjust="spacing" textLength="104" x="844.8" y="277.1371">-taxNumber:String</text><text fill="#000000" font-family="sans-serif" font-size="11.2" lengthAdjust="spacing" textLength="44.8" x="844.8" y="290.3278">-job:Job</text><line style="stroke:#181818;stroke-width:0.4000000000000001;" x1="840.8" x2="971.2" y1="295.8903" y2="295.8903"/></g><!--class Collaborator--><g id="elem_Collaborator"><rect codeLine="51" fill="#F1F1F1" height="51.5906" id="Collaborator" rx="2" ry="2" style="stroke:#181818;stroke-width:0.4000000000000001;" width="124" x="728" y="12.2"/><ellipse cx="752.96" cy="25" fill="#ADD1B2" rx="8.8" ry="8.8" style="stroke:#181818;stroke-width:0.8000000000000002;"/><path d="M755.3385,29.5145 Q754.8737,29.7535 754.3623,29.873 Q753.851,29.9926 753.2866,29.9926 Q751.2811,29.9926 750.2252,28.6711 Q749.1694,27.3496 749.1694,24.8527 Q749.1694,22.3492 750.2252,21.0277 Q751.2811,19.7063 753.2866,19.7063 Q753.851,19.7063 754.369,19.8258 Q754.887,19.9453 755.3385,20.1844 L755.3385,22.3625 Q754.8338,21.8977 754.359,21.6818 Q753.8842,21.466 753.3795,21.466 Q752.3038,21.466 751.7559,22.3193 Q751.208,23.1727 751.208,24.8527 Q751.208,26.5262 751.7559,27.3795 Q752.3038,28.2328 753.3795,28.2328 Q753.8842,28.2328 754.359,28.017 Q754.8338,27.8012 755.3385,27.3363 Z " fill="#000000"/><text fill="#000000" font-family="sans-serif" font-size="11.2" lengthAdjust="spacing" textLength="69.6" x="767.04" y="29.2328">Collaborator</text><line style="stroke:#181818;stroke-width:0.4000000000000001;" x1="728.8" x2="851.2" y1="37.8" y2="37.8"/><text fill="#000000" font-family="sans-serif" font-size="11.2" lengthAdjust="spacing" textLength="114.4" x="732.8" y="51.8281">-listOfSkill:List&lt;Job&gt;</text><line style="stroke:#181818;stroke-width:0.4000000000000001;" x1="728.8" x2="851.2" y1="57.3906" y2="57.3906"/></g><!--class Organization--><g id="elem_Organization"><rect codeLine="55" fill="#F1F1F1" height="64.7813" id="Organization" rx="2" ry="2" style="stroke:#181818;stroke-width:0.4000000000000001;" width="225.6" x="291.6" y="364.28"/><ellipse cx="365" cy="377.08" fill="#ADD1B2" rx="8.8" ry="8.8" style="stroke:#181818;stroke-width:0.8000000000000002;"/><path d="M367.3785,381.5945 Q366.9137,381.8335 366.4023,381.953 Q365.891,382.0726 365.3266,382.0726 Q363.3211,382.0726 362.2652,380.7511 Q361.2094,379.4296 361.2094,376.9327 Q361.2094,374.4292 362.2652,373.1077 Q363.3211,371.7863 365.3266,371.7863 Q365.891,371.7863 366.409,371.9058 Q366.927,372.0253 367.3785,372.2644 L367.3785,374.4425 Q366.8738,373.9777 366.399,373.7618 Q365.9242,373.546 365.4195,373.546 Q364.3438,373.546 363.7959,374.3993 Q363.248,375.2527 363.248,376.9327 Q363.248,378.6062 363.7959,379.4595 Q364.3438,380.3128 365.4195,380.3128 Q365.9242,380.3128 366.399,380.097 Q366.8738,379.8812 367.3785,379.4163 Z " fill="#000000"/><text fill="#000000" font-family="sans-serif" font-size="11.2" lengthAdjust="spacing" textLength="72" x="381.4" y="381.3128">Organization</text><line style="stroke:#181818;stroke-width:0.4000000000000001;" x1="292.4" x2="516.4" y1="389.88" y2="389.88"/><line style="stroke:#181818;stroke-width:0.4000000000000001;" x1="292.4" x2="516.4" y1="396.28" y2="396.28"/><text fill="#000000" font-family="sans-serif" font-size="11.2" lengthAdjust="spacing" textLength="216" x="296.4" y="410.3081">+createSkill(skillName, skillDescription)</text><text fill="#000000" font-family="sans-serif" font-size="11.2" lengthAdjust="spacing" textLength="203.2" x="296.4" y="423.4988">+createJob(jobName, jobDescription)</text></g><!--class Skill--><g id="elem_Skill"><rect codeLine="61" fill="#F1F1F1" height="91.1625" id="Skill" rx="2" ry="2" style="stroke:#181818;stroke-width:0.4000000000000001;" width="259.2" x="598.8" y="351.088"/><ellipse cx="713.8" cy="363.888" fill="#ADD1B2" rx="8.8" ry="8.8" style="stroke:#181818;stroke-width:0.8000000000000002;"/><path d="M716.1785,368.4025 Q715.7137,368.6415 715.2023,368.761 Q714.691,368.8806 714.1266,368.8806 Q712.1211,368.8806 711.0652,367.5591 Q710.0094,366.2376 710.0094,363.7407 Q710.0094,361.2372 711.0652,359.9157 Q712.1211,358.5943 714.1266,358.5943 Q714.691,358.5943 715.209,358.7138 Q715.727,358.8333 716.1785,359.0724 L716.1785,361.2505 Q715.6738,360.7857 715.199,360.5698 Q714.7242,360.354 714.2195,360.354 Q713.1438,360.354 712.5959,361.2073 Q712.048,362.0607 712.048,363.7407 Q712.048,365.4142 712.5959,366.2675 Q713.1438,367.1208 714.2195,367.1208 Q714.7242,367.1208 715.199,366.905 Q715.6738,366.6892 716.1785,366.2243 Z " fill="#000000"/><text fill="#000000" font-family="sans-serif" font-size="11.2" lengthAdjust="spacing" textLength="22.4" x="730.2" y="368.1208">Skill</text><line style="stroke:#181818;stroke-width:0.4000000000000001;" x1="599.6" x2="857.2" y1="376.688" y2="376.688"/><text fill="#000000" font-family="sans-serif" font-size="11.2" lengthAdjust="spacing" textLength="95.2" x="603.6" y="390.7161">-skillName:String</text><text fill="#000000" font-family="sans-serif" font-size="11.2" lengthAdjust="spacing" textLength="126.4" x="603.6" y="403.9068">-skillDescription:String</text><line style="stroke:#181818;stroke-width:0.4000000000000001;" x1="599.6" x2="857.2" y1="409.4693" y2="409.4693"/><text fill="#000000" font-family="sans-serif" font-size="11.2" lengthAdjust="spacing" textLength="182.4" x="603.6" y="423.4974">+Skill(skillName, skillDescription)</text><text fill="#000000" font-family="sans-serif" font-size="11.2" lengthAdjust="spacing" textLength="249.6" x="603.6" y="436.688">+validateSkillData(skillName, skillDescription)</text></g><!--class Job--><g id="elem_Job"><rect codeLine="70" fill="#F1F1F1" height="91.1625" id="Job" rx="2" ry="2" style="stroke:#181818;stroke-width:0.4000000000000001;" width="246.4" x="790.8" y="491.056"/><ellipse cx="901.8" cy="503.856" fill="#ADD1B2" rx="8.8" ry="8.8" style="stroke:#181818;stroke-width:0.8000000000000002;"/><path d="M904.1785,508.3705 Q903.7137,508.6095 903.2023,508.729 Q902.691,508.8486 902.1266,508.8486 Q900.1211,508.8486 899.0652,507.5271 Q898.0094,506.2056 898.0094,503.7087 Q898.0094,501.2052 899.0652,499.8837 Q900.1211,498.5623 902.1266,498.5623 Q902.691,498.5623 903.209,498.6818 Q903.727,498.8013 904.1785,499.0404 L904.1785,501.2185 Q903.6738,500.7537 903.199,500.5378 Q902.7242,500.322 902.2195,500.322 Q901.1438,500.322 900.5959,501.1753 Q900.048,502.0287 900.048,503.7087 Q900.048,505.3822 900.5959,506.2355 Q901.1438,507.0888 902.2195,507.0888 Q902.7242,507.0888 903.199,506.873 Q903.6738,506.6572 904.1785,506.1923 Z " fill="#000000"/><text fill="#000000" font-family="sans-serif" font-size="11.2" lengthAdjust="spacing" textLength="17.6" x="918.2" y="508.0888">Job</text><line style="stroke:#181818;stroke-width:0.4000000000000001;" x1="791.6" x2="1036.4" y1="516.656" y2="516.656"/><text fill="#000000" font-family="sans-serif" font-size="11.2" lengthAdjust="spacing" textLength="91.2" x="795.6" y="530.6841">-jobName:String</text><text fill="#000000" font-family="sans-serif" font-size="11.2" lengthAdjust="spacing" textLength="122.4" x="795.6" y="543.8748">-jobDescription:String</text><line style="stroke:#181818;stroke-width:0.4000000000000001;" x1="791.6" x2="1036.4" y1="549.4373" y2="549.4373"/><text fill="#000000" font-family="sans-serif" font-size="11.2" lengthAdjust="spacing" textLength="169.6" x="795.6" y="563.4654">+Job(jobName, jobDescription)</text><text fill="#000000" font-family="sans-serif" font-size="11.2" lengthAdjust="spacing" textLength="236.8" x="795.6" y="576.656">+validateJobData(jobName, jobDescription)</text></g><!--link CreateSkillUI to CreateSkillController--><g id="link_CreateSkillUI_CreateSkillController"><path codeLine="80" d="M241.792,37.992 C250.352,37.992 255.4,37.992 264.928,37.992 " fill="none" id="CreateSkillUI-to-CreateSkillController" style="stroke:#181818;stroke-width:0.8000000000000002;stroke-dasharray:7.0,7.0;"/><polygon fill="#181818" points="269.728,37.992,262.528,34.792,265.728,37.992,262.528,41.192,269.728,37.992" style="stroke:#181818;stroke-width:0.8000000000000002;"/></g><!--link Collaborator to Skill--><g id="link_Collaborator_Skill"><path codeLine="81" d="M783.504,64.016 C776.4,91.608 766,131.984 766,131.984 C766,131.984 746.2369,270.688 735.5009,346.056 " fill="none" id="Collaborator-to-Skill" style="stroke:#181818;stroke-width:0.8000000000000002;"/><polygon fill="#181818" points="734.824,350.808,739.0074,344.1312,735.3881,346.848,732.6714,343.2287,734.824,350.808" style="stroke:#181818;stroke-width:0.8000000000000002;"/><text fill="#000000" font-family="sans-serif" font-size="10.4" lengthAdjust="spacing" textLength="58.4" x="766.8" y="221.1907">has a set of</text><text fill="#000000" font-family="sans-serif" font-size="10.4" lengthAdjust="spacing" textLength="6.4" x="775.2557" y="80.1983">1</text><text fill="#000000" font-family="sans-serif" font-size="10.4" lengthAdjust="spacing" textLength="4.8" x="730.5144" y="342.5572">*</text></g><!--link Employee to Job--><g id="link_Employee_Job"><path codeLine="82" d="M908.128,302.504 C909.648,362.928 911.5109,437.0655 912.7429,485.8895 " fill="none" id="Employee-to-Job" style="stroke:#181818;stroke-width:0.8000000000000002;"/><polygon fill="#181818" points="912.864,490.688,915.8814,483.4096,912.7631,486.6893,909.4834,483.571,912.864,490.688" style="stroke:#181818;stroke-width:0.8000000000000002;"/><text fill="#000000" font-family="sans-serif" font-size="10.4" lengthAdjust="spacing" textLength="26.4" x="913.2" y="400.7267">has a</text><text fill="#000000" font-family="sans-serif" font-size="10.4" lengthAdjust="spacing" textLength="6.4" x="901.656" y="318.7057">1</text><text fill="#000000" font-family="sans-serif" font-size="10.4" lengthAdjust="spacing" textLength="6.4" x="905.9356" y="482.4265">1</text></g><!--link CreateSkillController to Organization--><g id="link_CreateSkillController_Organization"><path codeLine="83" d="M404.4,70.48 C404.4,138.16 404.4,291.36 404.4,359.2 " fill="none" id="CreateSkillController-to-Organization" style="stroke:#181818;stroke-width:0.8000000000000002;"/><polygon fill="#181818" points="404.4,364,407.6,356.8,404.4,360,401.2,356.8,404.4,364" style="stroke:#181818;stroke-width:0.8000000000000002;"/><text fill="#000000" font-family="sans-serif" font-size="10.4" lengthAdjust="spacing" textLength="52" x="405.2" y="221.1907">createSkill</text></g><!--link Organization to Skill--><g id="link_Organization_Skill"><path codeLine="84" d="M517.496,396.672 C543.688,396.672 566.968,396.672 593.816,396.672 " fill="none" id="Organization-to-Skill" style="stroke:#181818;stroke-width:0.8000000000000002;stroke-dasharray:7.0,7.0;"/><polygon fill="#181818" points="598.616,396.672,591.416,393.472,594.616,396.672,591.416,399.872,598.616,396.672" style="stroke:#181818;stroke-width:0.8000000000000002;"/><text fill="#000000" font-family="sans-serif" font-size="10.4" lengthAdjust="spacing" textLength="52" x="532" y="391.5267">createSkill</text></g><!--link Collaborator to Employee--><g id="link_Collaborator_Employee"><path codeLine="85" d="M806.376,63.856 C818.056,81.728 831.8618,102.8701 848.0298,127.6061 " fill="none" id="Collaborator-to-Employee" style="stroke:#181818;stroke-width:0.8000000000000002;"/><polygon fill="#181818" points="850.656,131.624,849.3953,123.8464,848.4675,128.2758,844.0382,127.348,850.656,131.624" style="stroke:#181818;stroke-width:0.8000000000000002;"/><text fill="#000000" font-family="sans-serif" font-size="10.4" lengthAdjust="spacing" textLength="17.6" x="835.6" y="105.2387">is a</text></g><!--link {NameOfUC}UI to {NameOfUC}Controller--><g id="link_{NameOfUC}UI_{NameOfUC}Controller"><path codeLine="89" d="M1150.8,57.456 C1150.8,87.64 1150.8,142.704 1150.8,179.712 " fill="none" id="{NameOfUC}UI-to-{NameOfUC}Controller" style="stroke:#181818;stroke-width:0.8000000000000002;stroke-dasharray:7.0,7.0;"/><polygon fill="#181818" points="1150.8,184.512,1154,177.312,1150.8,180.512,1147.6,177.312,1150.8,184.512" style="stroke:#181818;stroke-width:0.8000000000000002;"/></g><!--link {NameOfUC}Controller to ApplicationSession--><g id="link_{NameOfUC}Controller_ApplicationSession"><path codeLine="90" d="M1130.064,249.752 C1109.016,282.04 1079.2295,327.7231 1058.1735,360.0191 " fill="none" id="{NameOfUC}Controller-to-ApplicationSession" style="stroke:#181818;stroke-width:0.8000000000000002;stroke-dasharray:7.0,7.0;"/><polygon fill="#181818" points="1055.552,364.04,1062.1649,359.7563,1057.7366,360.6892,1056.8037,356.261,1055.552,364.04" style="stroke:#181818;stroke-width:0.8000000000000002;"/></g><!--link {NameOfUC}Controller to UserSession--><g id="link_{NameOfUC}Controller_UserSession"><path codeLine="91" d="M1164.248,249.752 C1178.864,284.336 1200.0598,334.4825 1213.4758,366.2345 " fill="none" id="{NameOfUC}Controller-to-UserSession" style="stroke:#181818;stroke-width:0.8000000000000002;stroke-dasharray:7.0,7.0;"/><polygon fill="#181818" points="1215.344,370.656,1215.4894,362.7783,1213.7872,366.9714,1209.594,365.2692,1215.344,370.656" style="stroke:#181818;stroke-width:0.8000000000000002;"/></g><!--SRC=[bLHDZzCm4BtxLrWvPO5MS8rGfLNQGr2rbLegk24dcRPc7JlOBgAxwdzddCJv8YsGI-pvU7xpPcppp6N9D2je9fWnZzPgdfuj99cIE_u2z3qnROZW4kob15egSN4RGaYLHX_BKl2CMOvPO0p-o2kXzAsnQCle4MmYSIqp21-S7GtnMMkGjWb7yzM3xGte0GetQtKyGfx8BzoUjaf0kD-jjj-sc_MgbnUyFh42DeTzV8sLj5e90JgW3W91w9ItOkES1TYJoh-6y_by6d6VEAHhMt6iWLdOFNCXEhZsh4blM2eiAXKNQfnZ2xZdLkcB9_6J2Pxxl2MpBAm27OTtTSuIJAPvwNH-8DDizebdeU776OpzEr27iofAeIu0DS9COaAqmv6GnzgGScrFZcA4g53RM5xmgbdBiJtNsCLwKwYK2t1QiCmE8A5WN4mvacMkiiyuRYEhF1Sfw87HibzFVrg_gpJwf5BIzJF6Fh1KQOQgDohD13TsSwYaYzQu_eWfYovbeuzCyfTgjBsmMQVsVM5xqOWQ8g4w4XSt6b21Ucejzg2iyJ7UMP_shwp-SzOwXbY8vzVKCnRz9hUx6WnOOMJ5wQvYP3ZryyNqjIE3hWSV0ZgRpHOqU1CqQaVqn0nbr82bwa3y7UY5uiALtGIIwRjVXGxd9QAzKI435xBrf_TZ1bmTOCicejoTZT_eLPeZrFJJHswyY2vZuiM-4zr_ady3]--></g></svg>