<?xml version="1.0" encoding="us-ascii" standalone="no"?><svg xmlns="http://www.w3.org/2000/svg" xmlns:xlink="http://www.w3.org/1999/xlink" contentStyleType="text/css" height="1534px" preserveAspectRatio="none" style="width:971px;height:1534px;background:#FFFFFF;" version="1.1" viewBox="0 0 971 1534" width="971px" zoomAndPan="magnify"><defs/><g><text fill="#000000" font-family="sans-serif" font-size="14" font-weight="bold" lengthAdjust="spacing" textLength="56" x="450.5" y="25.1074">Sprint B</text><!--cluster actors--><g id="cluster_actors"><rect fill="none" height="475" rx="2.5" ry="2.5" style="stroke:#FFFFFF;stroke-width:1.0;" width="315" x="7" y="612.6211"/><text fill="#000000" font-family="sans-serif" font-size="14" font-weight="bold" lengthAdjust="spacing" textLength="99" x="115" y="629.7285">System Actors</text></g><!--cluster usecases--><g id="cluster_usecases"><rect fill="none" height="1482" rx="2.5" ry="2.5" style="stroke:#FFFFFF;stroke-width:1.0;" width="615" x="350" y="46.6211"/><text fill="#000000" font-family="sans-serif" font-size="14" font-weight="bold" lengthAdjust="spacing" textLength="74" x="620.5" y="63.7285">Use Cases</text></g><!--entity QAM--><g id="elem_QAM"><ellipse cx="164.5" cy="658.6211" fill="#F1F1F1" rx="8" ry="8" style="stroke:#181818;stroke-width:0.5;"/><path d="M164.5,666.6211 L164.5,693.6211 M151.5,674.6211 L177.5,674.6211 M164.5,693.6211 L151.5,708.6211 M164.5,693.6211 L177.5,708.6211 " fill="none" style="stroke:#181818;stroke-width:0.5;"/><text fill="#000000" font-family="sans-serif" font-size="14" lengthAdjust="spacing" textLength="283" x="23" y="725.2285">Software Quality Assessment Team Manager</text></g><!--entity GSM--><g id="elem_GSM"><ellipse cx="164.5" cy="772.6211" fill="#F1F1F1" rx="8" ry="8" style="stroke:#181818;stroke-width:0.5;"/><path d="M164.5,780.6211 L164.5,807.6211 M151.5,788.6211 L177.5,788.6211 M164.5,807.6211 L151.5,822.6211 M164.5,807.6211 L177.5,822.6211 " fill="none" style="stroke:#181818;stroke-width:0.5;"/><text fill="#000000" font-family="sans-serif" font-size="14" lengthAdjust="spacing" textLength="144" x="92.5" y="839.2285">Green Space Manager</text></g><!--entity VFM--><g id="elem_VFM"><ellipse cx="164.5" cy="886.6211" fill="#F1F1F1" rx="8" ry="8" style="stroke:#181818;stroke-width:0.5;"/><path d="M164.5,894.6211 L164.5,921.6211 M151.5,902.6211 L177.5,902.6211 M164.5,921.6211 L151.5,936.6211 M164.5,921.6211 L177.5,936.6211 " fill="none" style="stroke:#181818;stroke-width:0.5;"/><text fill="#000000" font-family="sans-serif" font-size="14" lengthAdjust="spacing" textLength="241" x="44" y="953.2285">Vehicle and Equipment Fleet Manager</text></g><!--entity HRM--><g id="elem_HRM"><ellipse cx="164.5" cy="1000.6211" fill="#F1F1F1" rx="8" ry="8" style="stroke:#181818;stroke-width:0.5;"/><path d="M164.5,1008.6211 L164.5,1035.6211 M151.5,1016.6211 L177.5,1016.6211 M164.5,1035.6211 L151.5,1050.6211 M164.5,1035.6211 L177.5,1050.6211 " fill="none" style="stroke:#181818;stroke-width:0.5;"/><text fill="#000000" font-family="sans-serif" font-size="14" lengthAdjust="spacing" textLength="169" x="80" y="1067.2285">Human Resource Manager</text></g><g id="elem_UC14"><ellipse cx="657.2836" cy="144.7778" fill="#F1F1F1" rx="291.2836" ry="60.6567" style="stroke:#181818;stroke-width:0.5;"/><text fill="#000000" font-family="sans-serif" font-size="14" lengthAdjust="spacing" textLength="557" x="378.7836" y="148.5747">US14 - Run tests for inputs of variable size, to observe execution time of US13 algorithm.</text></g><g id="elem_UC13"><ellipse cx="657.4826" cy="269.5176" fill="#F1F1F1" rx="134.9826" ry="29.3965" style="stroke:#181818;stroke-width:0.5;"/><text fill="#000000" font-family="sans-serif" font-size="14" lengthAdjust="spacing" textLength="235" x="539.9826" y="273.3145">US13 - Obtain optimal pipeline routes</text></g><g id="elem_UC12"><ellipse cx="657.4119" cy="365.8035" fill="#F1F1F1" rx="143.9119" ry="31.1824" style="stroke:#181818;stroke-width:0.5;"/><text fill="#000000" font-family="sans-serif" font-size="14" lengthAdjust="spacing" textLength="254" x="530.4119" y="369.6003">US12 - Import pipeline data from .csv file</text></g><g id="elem_UC11"><ellipse cx="657.5952" cy="468.6401" fill="#F1F1F1" rx="170.5952" ry="36.519" style="stroke:#181818;stroke-width:0.5;"/><text fill="#000000" font-family="sans-serif" font-size="14" lengthAdjust="spacing" textLength="310" x="502.5952" y="472.437">US11 - Obtain age group usage of an urban park</text></g><g id="elem_UC10"><ellipse cx="657.5101" cy="591.6231" fill="#F1F1F1" rx="245.5101" ry="51.502" style="stroke:#181818;stroke-width:0.5;"/><text fill="#000000" font-family="sans-serif" font-size="14" lengthAdjust="spacing" textLength="464" x="425.5101" y="595.42">US10 - Obtain user's preferences concerning equipment of an urban park</text></g><g id="elem_UC09"><ellipse cx="657.364" cy="737.5939" fill="#F1F1F1" rx="285.364" ry="59.4728" style="stroke:#181818;stroke-width:0.5;"/><text fill="#000000" font-family="sans-serif" font-size="14" lengthAdjust="spacing" textLength="545" x="384.864" y="741.3908">US09 - Obtain the exact costs referring to water consumption of a specific green space</text></g><g id="elem_UC08"><ellipse cx="657.2979" cy="867.6807" fill="#F1F1F1" rx="165.7979" ry="35.5596" style="stroke:#181818;stroke-width:0.5;"/><text fill="#000000" font-family="sans-serif" font-size="14" lengthAdjust="spacing" textLength="300" x="507.2979" y="871.4775">UC08 - List vehicles with pending maintenances</text></g><g id="elem_UC07"><ellipse cx="657.5149" cy="967.4241" fill="#F1F1F1" rx="134.5149" ry="29.303" style="stroke:#181818;stroke-width:0.5;"/><text fill="#000000" font-family="sans-serif" font-size="14" lengthAdjust="spacing" textLength="234" x="540.5149" y="971.2209">UC07 - Register vehicle maintenance</text></g><g id="elem_UC06"><ellipse cx="657.4493" cy="1054.4109" fill="#F1F1F1" rx="96.9493" ry="21.7899" style="stroke:#181818;stroke-width:0.5;"/><text fill="#000000" font-family="sans-serif" font-size="14" lengthAdjust="spacing" textLength="151" x="579.9009" y="1058.925">UC06 - Register Vehicle</text></g><g id="elem_UC05"><ellipse cx="657.5578" cy="1146.5327" fill="#F1F1F1" rx="160.0578" ry="34.4116" style="stroke:#181818;stroke-width:0.5;"/><text fill="#000000" font-family="sans-serif" font-size="14" lengthAdjust="spacing" textLength="288" x="513.5578" y="1150.3295">UC05 - Generate team proposal automatically</text></g><g id="elem_UC04"><ellipse cx="657.4506" cy="1245.6112" fill="#F1F1F1" rx="135.4506" ry="29.4901" style="stroke:#181818;stroke-width:0.5;"/><text fill="#000000" font-family="sans-serif" font-size="14" lengthAdjust="spacing" textLength="236" x="539.4506" y="1249.4081">UC04 - Assign Skills to a Collaborator</text></g><g id="elem_UC02"><ellipse cx="657.2523" cy="1330.7716" fill="#F1F1F1" rx="88.7523" ry="20.1505" style="stroke:#181818;stroke-width:0.5;"/><text fill="#000000" font-family="sans-serif" font-size="14" lengthAdjust="spacing" textLength="131" x="588.7523" y="1335.5753">UC02 - Register jobs</text></g><g id="elem_UC03"><ellipse cx="657.7122" cy="1410.8635" fill="#F1F1F1" rx="114.2122" ry="25.2424" style="stroke:#181818;stroke-width:0.5;"/><text fill="#000000" font-family="sans-serif" font-size="14" lengthAdjust="spacing" textLength="190" x="562.7122" y="1414.6604">UC03 - Register Collaborators</text></g><g id="elem_UC01"><ellipse cx="657.3582" cy="1491.5927" fill="#F1F1F1" rx="90.3582" ry="20.4716" style="stroke:#181818;stroke-width:0.5;"/><text fill="#000000" font-family="sans-serif" font-size="14" lengthAdjust="spacing" textLength="135" x="586.8582" y="1496.3964">UC01 - Register skills</text></g><!--link HRM to UC01--><g id="link_HRM_UC01"><path d="M169.24,1071.4111 C179.56,1156.8111 216.63,1357.5911 342,1452.6211 C409.96,1504.1311 504.9377,1508.0318 574.0177,1502.7118 " fill="none" id="HRM-to-UC01" style="stroke:#181818;stroke-width:1.0;"/><polygon fill="#181818" points="580,1502.2511,570.7194,1498.954,575.0148,1502.635,571.3337,1506.9303,580,1502.2511" style="stroke:#181818;stroke-width:1.0;"/></g><!--link HRM to UC02--><g id="link_HRM_UC02"><path d="M179.92,1071.4311 C203.67,1130.7111 257.03,1240.7311 342,1292.6211 C412.41,1335.6111 502.2848,1341.5106 569.6148,1338.8206 " fill="none" id="HRM-to-UC02" style="stroke:#181818;stroke-width:1.0;"/><polygon fill="#181818" points="575.61,1338.5811,566.4575,1334.9436,570.614,1338.7807,566.7769,1342.9372,575.61,1338.5811" style="stroke:#181818;stroke-width:1.0;"/></g><!--link HRM to UC03--><g id="link_HRM_UC03"><path d="M173.86,1071.3511 C191.3,1143.5011 238.82,1295.2711 342,1367.6211 C402.24,1409.8611 479.18,1419.7612 544.76,1419.5412 " fill="none" id="HRM-to-UC03" style="stroke:#181818;stroke-width:1.0;"/><polygon fill="#181818" points="550.76,1419.5211,541.7466,1415.5513,545.76,1419.5379,541.7735,1423.5513,550.76,1419.5211" style="stroke:#181818;stroke-width:1.0;"/></g><!--link HRM to UC04--><g id="link_HRM_UC04"><path d="M195.15,1071.2611 C226.87,1110.5011 280.93,1168.8911 342,1198.6211 C397.47,1225.6211 458.4658,1237.4556 516.3258,1242.8356 " fill="none" id="HRM-to-UC04" style="stroke:#181818;stroke-width:1.0;"/><polygon fill="#181818" points="522.3,1243.3911,513.709,1238.575,517.3215,1242.9282,512.9683,1246.5407,522.3,1243.3911" style="stroke:#181818;stroke-width:1.0;"/></g><!--link HRM to UC05--><g id="link_HRM_UC05"><path d="M249.43,1064.4011 C278.43,1074.8411 311.34,1085.7111 342,1093.6211 C399.64,1108.4811 458.4004,1119.2947 514.0504,1127.8947 " fill="none" id="HRM-to-UC05" style="stroke:#181818;stroke-width:1.0;"/><polygon fill="#181818" points="519.98,1128.8111,511.6965,1123.4835,515.0387,1128.0475,510.4747,1131.3896,519.98,1128.8111" style="stroke:#181818;stroke-width:1.0;"/></g><!--link VFM to UC06--><g id="link_VFM_UC06"><path d="M285.06,943.6711 C301.75,951.4411 317.45,961.5311 330,974.6211 C342.85,988.0211 327.84,1002.6211 342,1014.6211 C406.46,1069.2411 500.7117,1073.2506 570.6417,1067.2906 " fill="none" id="VFM-to-UC06" style="stroke:#181818;stroke-width:1.0;"/><polygon fill="#181818" points="576.62,1066.7811,567.3128,1063.5598,571.6381,1067.2057,567.9922,1071.5309,576.62,1066.7811" style="stroke:#181818;stroke-width:1.0;"/></g><!--link VFM to UC07--><g id="link_VFM_UC07"><path d="M285.3,929.8211 C361.1,937.5411 452.8208,946.8834 528.9508,954.6334 " fill="none" id="VFM-to-UC07" style="stroke:#181818;stroke-width:1.0;"/><polygon fill="#181818" points="534.92,955.2411,526.3714,950.3502,529.9457,954.7347,525.5612,958.309,534.92,955.2411" style="stroke:#181818;stroke-width:1.0;"/></g><!--link VFM to UC08--><g id="link_VFM_UC08"><path d="M285.3,905.4211 C352.15,898.6111 430.0709,890.6788 501.1809,883.4388 " fill="none" id="VFM-to-UC08" style="stroke:#181818;stroke-width:1.0;"/><polygon fill="#181818" points="507.15,882.8311,497.7911,879.7633,502.1757,883.3375,498.6014,887.7221,507.15,882.8311" style="stroke:#181818;stroke-width:1.0;"/></g><!--link GSM to UC09--><g id="link_GSM_UC09"><path d="M236.63,794.0611 C284.74,787.5911 345.3534,779.4397 411.3234,770.5797 " fill="none" id="GSM-to-UC09" style="stroke:#181818;stroke-width:1.0;"/><polygon fill="#181818" points="417.27,769.7811,407.8177,767.0147,412.3145,770.4466,408.8825,774.9435,417.27,769.7811" style="stroke:#181818;stroke-width:1.0;"/></g><!--link GSM to UC10--><g id="link_GSM_UC10"><path d="M236.79,795.9911 C270.01,788.6811 307.16,774.4111 330,746.6211 C354.5,716.8111 315.79,688.9411 342,660.6211 C364.5,636.3111 387.7943,621.6198 418.9743,610.2298 " fill="none" id="GSM-to-UC10" style="stroke:#181818;stroke-width:1.0;"/><polygon fill="#181818" points="424.61,608.1711,414.7839,607.502,419.9135,609.8867,417.5289,615.0164,424.61,608.1711" style="stroke:#181818;stroke-width:1.0;"/></g><!--link GSM to UC11--><g id="link_GSM_UC11"><path d="M236.56,797.0711 C270.36,790.0511 308.09,775.7211 330,746.6211 C359.98,706.8011 308.86,559.8611 342,522.6211 C379.93,479.9911 432.2753,463.4711 488.4353,458.3011 " fill="none" id="GSM-to-UC11" style="stroke:#181818;stroke-width:1.0;"/><polygon fill="#181818" points="494.41,457.7511,485.0812,454.593,489.4311,458.2094,485.8146,462.5593,494.41,457.7511" style="stroke:#181818;stroke-width:1.0;"/></g><!--link GSM to UC12--><g id="link_GSM_UC12"><path d="M236.77,797.2311 C270.63,790.2511 308.35,775.9111 330,746.6211 C351.95,716.9411 317.49,442.2211 342,414.6211 C388.33,362.4611 459.4502,349.7777 525.7302,350.3677 " fill="none" id="GSM-to-UC12" style="stroke:#181818;stroke-width:1.0;"/><polygon fill="#181818" points="531.73,350.4211,522.766,346.3411,526.7302,350.3766,522.6948,354.3408,531.73,350.4211" style="stroke:#181818;stroke-width:1.0;"/></g><!--link GSM to UC13--><g id="link_GSM_UC13"><path d="M236.87,797.3111 C270.76,790.3411 308.47,775.9911 330,746.6211 C358.26,708.0711 310.3,352.3911 342,316.6211 C390.98,261.3611 468.6247,250.7738 537.3447,253.4938 " fill="none" id="GSM-to-UC13" style="stroke:#181818;stroke-width:1.0;"/><polygon fill="#181818" points="543.34,253.7311,534.5052,249.3783,538.3439,253.5333,534.1888,257.372,543.34,253.7311" style="stroke:#181818;stroke-width:1.0;"/></g><!--link QAM to UC14--><g id="link_QAM_UC14"><path d="M168.44,649.9011 C177.31,559.6711 211.91,338.1711 342,222.6211 C363.24,203.7511 382.7995,191.6039 409.4095,180.5439 " fill="none" id="QAM-to-UC14" style="stroke:#181818;stroke-width:1.0;"/><polygon fill="#181818" points="414.95,178.2411,405.1041,178.0017,410.3329,180.1601,408.1745,185.389,414.95,178.2411" style="stroke:#181818;stroke-width:1.0;"/></g><!--SRC=[TLNBRjim4BphAnQv-D84VkLrAP0OJLAWGP0uoPsMLp9hYbH9oguRzDyxfAnObb0VR6azCxla3fS3jvQw55OKL1XjqfKr1PEt5IU7VqgHhaNESxzJJ9PJBtIkE1aS46ubbcOhTKwPK8wJ5laJ_v4GFhV6BjdEZ3AMjYlfWVsR95vwICzBAxMdsoHHd7doXgpCLvwMCeX8evFaKurEvZldkQ2Rr1lhJaWu4l6HwaJn1IYJ-QsmJC-LKDBlwCOvTgvW97fbrFSeDDPcey3ppMERUs-PDQeIAH_1xkT7i7TUoHGL2RsaRxygMKRnEyNiZsZlTqUqXweGcbxOcSfs4ZoyFCPjIOuM_EQOPWBLHqpbE0ql7qaKtRy2DHzDwPHUAasUdNUK8HcQKU7HPBGHLee5v9pymr_27fk5OxjXuj-SLc6NoKju05X8JKYet5ZfLyLPJFis6qrx2IT8-BJmGceo9TX2KIbBLbB3BwRo-vB1dVIuOt2_5wMn_i1P2YyeWnNfB7KRogJYHc3S4nWTacC3AKV24e3mZ3LWYokxm3VSk6v4HZsHuK44OJjmL5hEsB9EsL5gy6Dry3T_DlX_uiEk-F3w8EvNOQFX06Y6viGaDWYZ4rlXsOPahYhAs8cGWrp9gSnaYgK5FxhWntsouNKdsMnuXMG_fFEqgMtfQ8lkKSbw6T8KgCAp5c5TZSXLJ-GoE8XpoA2WlL2RsZ0lUyoBDdD_CXhqHGzz3lGzQxPOEUmQPeqrfN4maAYyAOINgL1groYSznI2rt6aPOw3kfPAkR2HWZ1Wb5WOw1hRaASzyhXTx4ySX0Owxa4dRMXR_PCpwN56ROwBrJNWKL8VMvnqEZtzMeSwWN4tCEa6fjr0lJyOD4tWeXkux0RgvcEaDO7hJc1lw5PWr0sCku6wKepJ9Z2DusoW3VeSXpkStKomY1tKupmPmASKO0swlWB2GOZJFHa4z4ip5LsSkg_X-i0ZnZocNGrPCYuqvz6ZS93Aoi9Mm1YjTcSrugcG7igQTfZ0k6H4ZllAdRLA-0S0]--></g></svg>