<?xml version="1.0" encoding="us-ascii" standalone="no"?><svg xmlns="http://www.w3.org/2000/svg" xmlns:xlink="http://www.w3.org/1999/xlink" contentStyleType="text/css" height="1543px" preserveAspectRatio="none" style="width:1043px;height:1543px;background:#FFFFFF;" version="1.1" viewBox="0 0 1043 1543" width="1043px" zoomAndPan="magnify"><defs/><g><text fill="#000000" font-family="sans-serif" font-size="14" font-weight="bold" lengthAdjust="spacing" textLength="57" x="486.21" y="23.5352">Sprint B</text><!--cluster actors--><g id="cluster_actors"><rect fill="none" height="238" rx="2.5" ry="2.5" style="stroke:#FFFFFF;stroke-width:1.0;" width="335" x="7" y="759.4883"/><text fill="#000000" font-family="sans-serif" font-size="14" font-weight="bold" lengthAdjust="spacing" textLength="103" x="123" y="775.0234">System Actors</text></g><!--cluster usecases--><g id="cluster_usecases"><rect fill="none" height="1493" rx="2.5" ry="2.5" style="stroke:#FFFFFF;stroke-width:1.0;" width="667.42" x="370" y="44.4883"/><text fill="#000000" font-family="sans-serif" font-size="14" font-weight="bold" lengthAdjust="spacing" textLength="73" x="667.21" y="60.0234">Use Cases</text></g><!--entity QAM--><g id="elem_QAM"><ellipse cx="174.5" cy="913.7483" fill="#F1F1F1" rx="8" ry="8" style="stroke:#181818;stroke-width:0.5;"/><path d="M174.5,921.7483 L174.5,948.7483 M161.5,929.7483 L187.5,929.7483 M174.5,948.7483 L161.5,963.7483 M174.5,948.7483 L187.5,963.7483 " fill="none" style="stroke:#181818;stroke-width:0.5;"/><text fill="#000000" font-family="sans-serif" font-size="14" lengthAdjust="spacing" textLength="303" x="23" y="978.7834">Software Quality Assessment Team Manager</text></g><!--entity GSM--><g id="elem_GSM"><ellipse cx="174.5" cy="802.7483" fill="#F1F1F1" rx="8" ry="8" style="stroke:#181818;stroke-width:0.5;"/><path d="M174.5,810.7483 L174.5,837.7483 M161.5,818.7483 L187.5,818.7483 M174.5,837.7483 L161.5,852.7483 M174.5,837.7483 L187.5,852.7483 " fill="none" style="stroke:#181818;stroke-width:0.5;"/><text fill="#000000" font-family="sans-serif" font-size="14" lengthAdjust="spacing" textLength="149" x="100" y="867.7834">Green Space Manager</text></g><g id="elem_UC19"><ellipse cx="703.714" cy="1309.4931" fill="#F1F1F1" rx="213.574" ry="45.1148" style="stroke:#181818;stroke-width:0.5;"/><text fill="#000000" font-family="sans-serif" font-size="14" lengthAdjust="spacing" textLength="401" x="503.214" y="1312.7841">US19 - Analyze time complexity for US13, US17 and US18.</text></g><g id="elem_UC18"><ellipse cx="703.7133" cy="282.4929" fill="#F1F1F1" rx="285.5233" ry="59.5047" style="stroke:#181818;stroke-width:0.5;"/><text fill="#000000" font-family="sans-serif" font-size="14" lengthAdjust="spacing" textLength="547" x="430.2133" y="285.784">US18 - Determine the shortest route from any sign to the closest meeting point.</text></g><g id="elem_UC17"><ellipse cx="703.713" cy="133.4929" fill="#F1F1F1" rx="260.323" ry="54.4646" style="stroke:#181818;stroke-width:0.5;"/><text fill="#000000" font-family="sans-serif" font-size="14" lengthAdjust="spacing" textLength="496" x="455.713" y="136.7839">US17 - Determine the shortest route from any sign to the meeting point.</text></g><g id="elem_UC16"><ellipse cx="703.7142" cy="1191.4851" fill="#F1F1F1" rx="179.3842" ry="38.2768" style="stroke:#181818;stroke-width:0.5;"/><text fill="#000000" font-family="sans-serif" font-size="14" lengthAdjust="spacing" textLength="331" x="538.2142" y="1194.7761">US16 - Determine the best line that fits the data.</text></g><g id="elem_UC15"><ellipse cx="703.7126" cy="1058.4908" fill="#F1F1F1" rx="286.5126" ry="59.7025" style="stroke:#181818;stroke-width:0.5;"/><text fill="#000000" font-family="sans-serif" font-size="14" lengthAdjust="spacing" textLength="549" x="429.2126" y="1061.7818">US15 - Predict the average monthly cost for water consumption in the new park.</text></g><g id="elem_UC14"><ellipse cx="703.7112" cy="1455.4905" fill="#F1F1F1" rx="317.7112" ry="65.9422" style="stroke:#181818;stroke-width:0.5;"/><text fill="#000000" font-family="sans-serif" font-size="14" lengthAdjust="spacing" textLength="612" x="397.7112" y="1458.7815">US14 - Run tests for inputs of variable size, to observe execution time of US13 algorithm.</text></g><g id="elem_UC13"><ellipse cx="703.7082" cy="932.4859" fill="#F1F1F1" rx="145.5882" ry="31.5176" style="stroke:#181818;stroke-width:0.5;"/><text fill="#000000" font-family="sans-serif" font-size="14" lengthAdjust="spacing" textLength="261" x="573.2082" y="935.7769">US13 - Obtain optimal pipeline routes</text></g><g id="elem_UC12"><ellipse cx="703.7101" cy="832.4923" fill="#F1F1F1" rx="155.6701" ry="33.534" style="stroke:#181818;stroke-width:0.5;"/><text fill="#000000" font-family="sans-serif" font-size="14" lengthAdjust="spacing" textLength="282" x="562.7101" y="835.7833">US12 - Import pipeline data from .csv file</text></g><g id="elem_UC11"><ellipse cx="703.7125" cy="725.4888" fill="#F1F1F1" rx="182.3025" ry="38.8605" style="stroke:#181818;stroke-width:0.5;"/><text fill="#000000" font-family="sans-serif" font-size="14" lengthAdjust="spacing" textLength="337" x="535.2125" y="728.7798">US11 - Obtain age group usage of an urban park</text></g><g id="elem_UC10"><ellipse cx="703.7059" cy="596.4915" fill="#F1F1F1" rx="264.7659" ry="55.3532" style="stroke:#181818;stroke-width:0.5;"/><text fill="#000000" font-family="sans-serif" font-size="14" lengthAdjust="spacing" textLength="505" x="451.2059" y="599.7825">US10 - Obtain user's preferences concerning equipment of an urban park</text></g><g id="elem_UC09"><ellipse cx="703.7065" cy="441.4856" fill="#F1F1F1" rx="309.2865" ry="64.2573" style="stroke:#181818;stroke-width:0.5;"/><text fill="#000000" font-family="sans-serif" font-size="14" lengthAdjust="spacing" textLength="595" x="406.2065" y="444.7766">US09 - Obtain the exact costs referring to water consumption of a specific green space</text></g><!--link GSM to UC09--><g id="link_GSM_UC09"><path d="M187.68,793.9183 C210.63,727.8183 266.7,593.2583 362,523.4883 C388.14,504.3483 412.5112,491.6787 443.6412,480.3587 " fill="none" id="GSM-to-UC09" style="stroke:#181818;stroke-width:1.0;"/><polygon fill="#181818" points="449.28,478.3083,439.4549,477.6248,444.581,480.017,442.1888,485.1431,449.28,478.3083" style="stroke:#181818;stroke-width:1.0;"/></g><!--link GSM to UC10--><g id="link_GSM_UC10"><path d="M208.56,793.9183 C243.02,756.2883 300.49,700.3183 362,669.4883 C398.91,650.9883 434.5421,638.6252 475.4721,628.3052 " fill="none" id="GSM-to-UC10" style="stroke:#181818;stroke-width:1.0;"/><polygon fill="#181818" points="481.29,626.8383,471.5852,625.16,476.4417,628.0607,473.5411,632.9173,481.29,626.8383" style="stroke:#181818;stroke-width:1.0;"/></g><!--link GSM to UC11--><g id="link_GSM_UC11"><path d="M249.48,810.3583 C283.54,800.6583 324.61,789.6483 362,781.4883 C423.35,768.0983 485.6125,757.2182 544.7625,747.9382 " fill="none" id="GSM-to-UC11" style="stroke:#181818;stroke-width:1.0;"/><polygon fill="#181818" points="550.69,747.0083,541.1788,744.4516,545.7504,747.7832,542.4187,752.3549,550.69,747.0083" style="stroke:#181818;stroke-width:1.0;"/></g><!--link GSM to UC12--><g id="link_GSM_UC12"><path d="M249.36,832.4883 C326.37,832.4883 443.35,832.4883 541.8,832.4883 " fill="none" id="GSM-to-UC12" style="stroke:#181818;stroke-width:1.0;"/><polygon fill="#181818" points="547.8,832.4883,538.8,828.4883,542.8,832.4883,538.8,836.4883,547.8,832.4883" style="stroke:#181818;stroke-width:1.0;"/></g><!--link GSM to UC13--><g id="link_GSM_UC13"><path d="M249.41,854.9683 C283.45,864.7383 324.53,875.6983 362,883.4883 C431.63,897.9583 504.1894,908.7896 568.2894,917.0696 " fill="none" id="GSM-to-UC13" style="stroke:#181818;stroke-width:1.0;"/><polygon fill="#181818" points="574.24,917.8383,565.8266,912.7183,569.2812,917.1977,564.8017,920.6523,574.24,917.8383" style="stroke:#181818;stroke-width:1.0;"/></g><!--link GSM to UC15--><g id="link_GSM_UC15"><path d="M249.34,837.6383 C285.02,844.0983 325.35,857.9983 350,887.4883 C377.01,919.8083 333.67,950.3183 362,981.4883 C383.52,1005.1583 405.0961,1020.0297 434.5961,1032.3897 " fill="none" id="GSM-to-UC15" style="stroke:#181818;stroke-width:1.0;"/><polygon fill="#181818" points="440.13,1034.7083,433.3749,1027.5411,435.5184,1032.7761,430.2834,1034.9196,440.13,1034.7083" style="stroke:#181818;stroke-width:1.0;"/></g><!--link GSM to UC16--><g id="link_GSM_UC16"><path d="M249.43,836.6983 C285.59,842.8683 326.33,856.7983 350,887.4883 C366.85,909.3383 343.64,1114.8983 362,1135.4883 C405.08,1183.8083 466.4625,1200.9417 529.9625,1205.0417 " fill="none" id="GSM-to-UC16" style="stroke:#181818;stroke-width:1.0;"/><polygon fill="#181818" points="535.95,1205.4283,527.2264,1200.8567,530.9604,1205.1061,526.711,1208.8401,535.95,1205.4283" style="stroke:#181818;stroke-width:1.0;"/></g><!--link GSM to UC17--><g id="link_GSM_UC17"><path d="M181.7,794.0483 C202.36,670.6583 272.67,287.8683 362,205.4883 C389.11,180.4883 416.952,165.1877 452.302,153.5277 " fill="none" id="GSM-to-UC17" style="stroke:#181818;stroke-width:1.0;"/><polygon fill="#181818" points="458,151.6483,448.2,150.6688,453.2516,153.2145,450.7059,158.2662,458,151.6483" style="stroke:#181818;stroke-width:1.0;"/></g><!--link GSM to UC18--><g id="link_GSM_UC18"><path d="M178.79,794.0583 C188.68,703.5083 226.47,475.6883 362,359.4883 C387.44,337.6783 412.1235,323.7548 444.0535,312.1048 " fill="none" id="GSM-to-UC18" style="stroke:#181818;stroke-width:1.0;"/><polygon fill="#181818" points="449.69,310.0483,439.8642,309.3754,444.9929,311.7621,442.6062,316.8908,449.69,310.0483" style="stroke:#181818;stroke-width:1.0;"/></g><!--link QAM to UC14--><g id="link_QAM_UC14"><path d="M180.68,982.0183 C194.14,1066.3983 238.22,1268.2683 362,1372.4883 C385.05,1391.8983 406.3752,1404.6401 434.7352,1416.2201 " fill="none" id="QAM-to-UC14" style="stroke:#181818;stroke-width:1.0;"/><polygon fill="#181818" points="440.29,1418.4883,433.4699,1411.3829,435.661,1416.5982,430.4457,1418.7893,440.29,1418.4883" style="stroke:#181818;stroke-width:1.0;"/></g><!--link QAM to UC19--><g id="link_QAM_UC19"><path d="M187.47,981.9983 C210.09,1047.8983 265.69,1181.5583 362,1247.4883 C400.95,1274.1483 442.1625,1289.0822 488.7525,1298.6422 " fill="none" id="QAM-to-UC19" style="stroke:#181818;stroke-width:1.0;"/><polygon fill="#181818" points="494.63,1299.8483,486.6177,1294.1209,489.7321,1298.8433,485.0097,1301.9576,494.63,1299.8483" style="stroke:#181818;stroke-width:1.0;"/></g><!--SRC=[dLLDJ-Cm4BtxLuouv09LIu6sbvKAAw4z81OAFy1D9wb5OcV7Jaj0-zztnkaNoUvbUuZioVDxapUUQUBVZAqqwH9APrsw9bSY1AfH7TzKEdtJEIv2Ko0Gfa7Rl42L715-hLTkQsmEcIuygfF31_od0lxTEbeXtRd24MpN9Z3sjrB11APUL6HiW5kb2im210TaydM0bH4IuwnI1pOuMpG-O0dpD3ZoPw0zwBY4JnMLuevXBWjRJGXFjIvCQ63kFNfV8Ykz82Vue2r_74M6f_d3wTbxGhISbaxn2-n-yQ1YtkfBHgyUuKupUmJL7bFPS3gHSxTds68qWmkOMrqq7sosOSTJLrO5laj-6IipP7mkpmbekvB5T119N-z6inxRbDc-Oq0gZMM-DN8z70Nq0SZL0I7ZgZ9H0zxaLdmLJ5euBv0ICKZbAiVc7rIcFPN9VwdydNtIOx_fiI-5kMXtEa1cWe_nbGxwG7JJ8xfcef-4AvE62DSR92wSNE-mBXfsccd5uwrcDTvQNvULt2umDfwmkEKhJsy7aUkUo1MBFDSCvnnzPEFhNlFIPR3HPFIIxuCt7tWkFhYbHzeWu3kcTLIADMUir1bqaJioOLqU1AzwWcCMV5m6pIawJhRK1LIcmcXFTD_lpuvxPo_vx8-oubeTpuY9RS46gT-mkGNk2Ivx1AEZk3YPis3505dpDsWBDItvAPxjIKOzak6HXCEKUAW8CoIqANefGufavQRWhzfKiJt_HJxiaWzdHtAf8Bvp0yTAUuWY9CHSYNxDHGDyXQd9JCgV9WtlfU5tOiEPslKlDprSN7nhOry3kunE0gDkuB8R67S3rzt0JJSmwGQcRMOyjVQHgsvWra9aLYNMSPV6qSfVlHzFyNNI3bEL84yRWUtHxG0Ma-9iLOcWd_SZpyVfz2B3cvSyOxaJMiWAkTzy81rDhcggPDY0iqKpQ16FfGdCRA5nDV68rpd_M_Z1IGf_0000]--></g></svg>