<?xml version="1.0" encoding="us-ascii" standalone="no"?><svg xmlns="http://www.w3.org/2000/svg" xmlns:xlink="http://www.w3.org/1999/xlink" contentStyleType="text/css" height="1119.6px" preserveAspectRatio="none" style="width:489px;height:1119px;background:#FFFFFF;" version="1.1" viewBox="0 0 489 1119" width="489px" zoomAndPan="magnify"><defs/><g><text fill="#000000" font-family="sans-serif" font-size="8.4" font-weight="bold" lengthAdjust="spacing" textLength="34.2" x="223.401" y="14.1211">Sprint B</text><!--cluster actors--><g id="cluster_actors"><rect fill="none" height="276" rx="1.5" ry="1.5" style="stroke:#FFFFFF;stroke-width:0.6;" width="174" x="4.2" y="335.093"/><text fill="#000000" font-family="sans-serif" font-size="8.4" font-weight="bold" lengthAdjust="spacing" textLength="61.8" x="60.3" y="344.4141">System Actors</text></g><!--cluster usecases--><g id="cluster_usecases"><rect fill="none" height="1089.6" rx="1.5" ry="1.5" style="stroke:#FFFFFF;stroke-width:0.6;" width="290.802" x="195" y="26.693"/><text fill="#000000" font-family="sans-serif" font-size="8.4" font-weight="bold" lengthAdjust="spacing" textLength="43.8" x="318.501" y="36.0141">Use Cases</text></g><!--entity COLAB--><g id="elem_COLAB"><ellipse cx="91.2" cy="560.849" fill="#F1F1F1" rx="4.8" ry="4.8" style="stroke:#181818;stroke-width:0.3;"/><path d="M91.2,565.649 L91.2,581.849 M83.4,570.449 L99,570.449 M91.2,581.849 L83.4,590.849 M91.2,581.849 L99,590.849 " fill="none" style="stroke:#181818;stroke-width:0.3;"/><text fill="#000000" font-family="sans-serif" font-size="8.4" lengthAdjust="spacing" textLength="52.2" x="65.1" y="599.8701">Collaborator</text></g><!--entity GSM--><g id="elem_GSM"><ellipse cx="91.2" cy="494.249" fill="#F1F1F1" rx="4.8" ry="4.8" style="stroke:#181818;stroke-width:0.3;"/><path d="M91.2,499.049 L91.2,515.249 M83.4,503.849 L99,503.849 M91.2,515.249 L83.4,524.249 M91.2,515.249 L99,524.249 " fill="none" style="stroke:#181818;stroke-width:0.3;"/><text fill="#000000" font-family="sans-serif" font-size="8.4" lengthAdjust="spacing" textLength="89.4" x="46.5" y="533.2701">Green Space Manager</text></g><!--entity VFM--><g id="elem_VFM"><ellipse cx="91.2" cy="427.649" fill="#F1F1F1" rx="4.8" ry="4.8" style="stroke:#181818;stroke-width:0.3;"/><path d="M91.2,432.449 L91.2,448.649 M83.4,437.249 L99,437.249 M91.2,448.649 L83.4,457.649 M91.2,448.649 L99,457.649 " fill="none" style="stroke:#181818;stroke-width:0.3;"/><text fill="#000000" font-family="sans-serif" font-size="8.4" lengthAdjust="spacing" textLength="154.8" x="13.8" y="466.6701">Vehicle and Equipment Fleet Manager</text></g><!--entity HRM--><g id="elem_HRM"><ellipse cx="91.2" cy="361.049" fill="#F1F1F1" rx="4.8" ry="4.8" style="stroke:#181818;stroke-width:0.3;"/><path d="M91.2,365.849 L91.2,382.049 M83.4,370.649 L99,370.649 M91.2,382.049 L83.4,391.049 M91.2,382.049 L99,391.049 " fill="none" style="stroke:#181818;stroke-width:0.3;"/><text fill="#000000" font-family="sans-serif" font-size="8.4" lengthAdjust="spacing" textLength="108" x="37.2" y="400.0701">Human Resource Manager</text></g><g id="elem_UC29"><ellipse cx="340.4053" cy="1086.892" fill="#F1F1F1" rx="90.8053" ry="19.6011" style="stroke:#181818;stroke-width:0.3;"/><text fill="#000000" font-family="sans-serif" font-size="8.4" lengthAdjust="spacing" textLength="163.8" x="258.5053" y="1088.8666">US29 - Record the completion of a task.</text></g><g id="elem_UC28"><ellipse cx="340.404" cy="1026.2954" fill="#F1F1F1" rx="93.402" ry="20.1204" style="stroke:#181818;stroke-width:0.3;"/><text fill="#000000" font-family="sans-serif" font-size="8.4" lengthAdjust="spacing" textLength="169.2" x="255.804" y="1028.27">US28 - Consult the tasks assigned to me.</text></g><g id="elem_UC27"><ellipse cx="340.4018" cy="730.4937" fill="#F1F1F1" rx="100.3538" ry="21.5108" style="stroke:#181818;stroke-width:0.3;"/><text fill="#000000" font-family="sans-serif" font-size="8.4" lengthAdjust="spacing" textLength="183.6" x="248.6018" y="732.4683">US27 - List all green spaces managed by me.</text></g><g id="elem_UC26"><ellipse cx="340.4022" cy="659.0914" fill="#F1F1F1" rx="135.8022" ry="28.6004" style="stroke:#181818;stroke-width:0.3;"/><text fill="#000000" font-family="sans-serif" font-size="8.4" lengthAdjust="spacing" textLength="256.2" x="212.3022" y="661.066">US26 - Assign one or more vehicles to an entry in the Agenda.</text></g><g id="elem_UC25"><ellipse cx="340.4022" cy="845.095" fill="#F1F1F1" rx="87.6402" ry="18.968" style="stroke:#181818;stroke-width:0.3;"/><text fill="#000000" font-family="sans-serif" font-size="8.4" lengthAdjust="spacing" textLength="157.2" x="261.8022" y="847.0696">US25 - Cancel an entry in the Agenda.</text></g><g id="elem_UC24"><ellipse cx="340.4059" cy="582.891" fill="#F1F1F1" rx="124.9099" ry="26.422" style="stroke:#181818;stroke-width:0.3;"/><text fill="#000000" font-family="sans-serif" font-size="8.4" lengthAdjust="spacing" textLength="234" x="223.4059" y="584.8656">US24 - Postpone an entry in the Agenda to a future date.</text></g><g id="elem_UC23"><ellipse cx="340.4058" cy="512.0921" fill="#F1F1F1" rx="108.5058" ry="23.1412" style="stroke:#181818;stroke-width:0.3;"/><text fill="#000000" font-family="sans-serif" font-size="8.4" lengthAdjust="spacing" textLength="200.4" x="240.2058" y="514.0667">US23 - Assign a Team to an entry in the Agenda.</text></g><g id="elem_UC22"><ellipse cx="340.4054" cy="965.692" fill="#F1F1F1" rx="89.3654" ry="19.3131" style="stroke:#181818;stroke-width:0.3;"/><text fill="#000000" font-family="sans-serif" font-size="8.4" lengthAdjust="spacing" textLength="160.8" x="260.0054" y="967.6667">US22 - Add a new entry to the Agenda.</text></g><g id="elem_UC21"><ellipse cx="340.4049" cy="905.0932" fill="#F1F1F1" rx="93.6909" ry="20.1782" style="stroke:#181818;stroke-width:0.3;"/><text fill="#000000" font-family="sans-serif" font-size="8.4" lengthAdjust="spacing" textLength="169.8" x="255.5049" y="907.0678">US21 - Add a new entry to the To-DoList.</text></g><g id="elem_UC20"><ellipse cx="340.4013" cy="789.29" fill="#F1F1F1" rx="73.1253" ry="16.0651" style="stroke:#181818;stroke-width:0.3;"/><text fill="#000000" font-family="sans-serif" font-size="8.4" lengthAdjust="spacing" textLength="126.6" x="277.1013" y="791.2646">US20 - Register a green space.</text></g><g id="elem_UC08"><ellipse cx="340.4017" cy="444.8901" fill="#F1F1F1" rx="106.7557" ry="22.7911" style="stroke:#181818;stroke-width:0.3;"/><text fill="#000000" font-family="sans-serif" font-size="8.4" lengthAdjust="spacing" textLength="196.8" x="242.0017" y="446.8647">UC08 - List vehicles with pending maintenances</text></g><g id="elem_UC06"><ellipse cx="340.406" cy="329.6958" fill="#F1F1F1" rx="59.834" ry="13.4068" style="stroke:#181818;stroke-width:0.3;"/><text fill="#000000" font-family="sans-serif" font-size="8.4" lengthAdjust="spacing" textLength="97.8" x="291.506" y="331.6704">UC06 - Register Vehicle</text></g><g id="elem_UC01"><ellipse cx="340.4012" cy="158.6924" fill="#F1F1F1" rx="55.7972" ry="12.5994" style="stroke:#181818;stroke-width:0.3;"/><text fill="#000000" font-family="sans-serif" font-size="8.4" lengthAdjust="spacing" textLength="88.8" x="296.0012" y="160.667">UC01 - Register skills</text></g><g id="elem_UC03"><ellipse cx="340.4039" cy="109.4953" fill="#F1F1F1" rx="72.2819" ry="15.8964" style="stroke:#181818;stroke-width:0.3;"/><text fill="#000000" font-family="sans-serif" font-size="8.4" lengthAdjust="spacing" textLength="124.8" x="278.0039" y="111.47">UC03 - Register Collaborators</text></g><g id="elem_UC02"><ellipse cx="340.4042" cy="60.2906" fill="#F1F1F1" rx="54.4682" ry="12.3336" style="stroke:#181818;stroke-width:0.3;"/><text fill="#000000" font-family="sans-serif" font-size="8.4" lengthAdjust="spacing" textLength="85.8" x="297.5042" y="62.2652">UC02 - Register jobs</text></g><g id="elem_UC04"><ellipse cx="340.4038" cy="276.2941" fill="#F1F1F1" rx="87.0658" ry="18.8532" style="stroke:#181818;stroke-width:0.3;"/><text fill="#000000" font-family="sans-serif" font-size="8.4" lengthAdjust="spacing" textLength="156" x="262.4038" y="278.2687">UC04 - Assign Skills to a Collaborator</text></g><g id="elem_UC05"><ellipse cx="340.4048" cy="214.4907" fill="#F1F1F1" rx="102.6788" ry="21.9758" style="stroke:#181818;stroke-width:0.3;"/><text fill="#000000" font-family="sans-serif" font-size="8.4" lengthAdjust="spacing" textLength="188.4" x="246.2048" y="216.4653">UC05 - Generate team proposal automatically</text></g><g id="elem_UC07"><ellipse cx="340.4063" cy="382.4946" fill="#F1F1F1" rx="85.0583" ry="18.4517" style="stroke:#181818;stroke-width:0.3;"/><text fill="#000000" font-family="sans-serif" font-size="8.4" lengthAdjust="spacing" textLength="151.8" x="264.5063" y="384.4692">UC07 - Register vehicle maintenance</text></g><!--link HRM to UC02--><g id="link_HRM_UC02"><path d="M91.89,355.841 C93.456,299.483 105.894,154.169 190.2,83.093 C217.47,60.107 254.2862,55.0444 286.2362,55.4044 " fill="none" id="HRM-to-UC02" style="stroke:#181818;stroke-width:0.6;"/><polygon fill="#181818" points="289.836,55.445,284.4634,52.9843,286.8362,55.4112,284.4093,57.784,289.836,55.445" style="stroke:#181818;stroke-width:0.6;"/></g><!--link HRM to UC01--><g id="link_HRM_UC01"><path d="M96.18,355.763 C105.444,313.739 131.22,225.203 190.2,182.093 C217.578,162.083 251.7553,156.3945 282.4933,155.5785 " fill="none" id="HRM-to-UC01" style="stroke:#181818;stroke-width:0.6;"/><polygon fill="#181818" points="286.092,155.483,280.6302,153.2271,283.0931,155.5626,280.7576,158.0254,286.092,155.483" style="stroke:#181818;stroke-width:0.6;"/></g><!--link HRM to UC03--><g id="link_HRM_UC03"><path d="M93.9,355.667 C99.648,306.659 120.234,192.515 190.2,135.893 C211.932,118.307 237.7333,111.1317 264.7093,108.3237 " fill="none" id="HRM-to-UC03" style="stroke:#181818;stroke-width:0.6;"/><polygon fill="#181818" points="268.29,107.951,262.6705,106.1229,265.3061,108.2616,263.1675,110.8972,268.29,107.951" style="stroke:#181818;stroke-width:0.6;"/></g><!--link HRM to UC04--><g id="link_HRM_UC04"><path d="M116.316,355.727 C135.108,339.269 162.456,317.975 190.2,305.693 C212.646,295.751 234.9291,289.8068 258.7311,285.4388 " fill="none" id="HRM-to-UC04" style="stroke:#181818;stroke-width:0.6;"/><polygon fill="#181818" points="262.272,284.789,256.5275,283.4031,259.3213,285.3305,257.3939,288.1242,262.272,284.789" style="stroke:#181818;stroke-width:0.6;"/></g><!--link HRM to UC05--><g id="link_HRM_UC05"><path d="M102.486,355.739 C117.6,325.703 148.134,273.959 190.2,246.893 C207.186,235.967 223.7713,229.5272 243.6193,224.6672 " fill="none" id="HRM-to-UC05" style="stroke:#181818;stroke-width:0.6;"/><polygon fill="#181818" points="247.116,223.811,241.3001,222.7641,244.2021,224.5245,242.4418,227.4264,247.116,223.811" style="stroke:#181818;stroke-width:0.6;"/></g><!--link GSM to UC20--><g id="link_GSM_UC20"><path d="M136.092,517.367 C153.576,521.837 172.062,530.039 183,545.093 C197.196,564.629 174.414,744.023 190.2,762.293 C209.916,785.105 238.2359,792.7296 267.5339,794.4036 " fill="none" id="GSM-to-UC20" style="stroke:#181818;stroke-width:0.6;"/><polygon fill="#181818" points="271.128,794.609,265.8737,791.9048,268.1329,794.4378,265.5999,796.697,271.128,794.609" style="stroke:#181818;stroke-width:0.6;"/></g><!--link GSM to UC21--><g id="link_GSM_UC21"><path d="M136.176,517.307 C153.672,521.765 172.146,529.979 183,545.093 C193.674,559.961 178.47,860.441 190.2,874.493 C204.3,891.389 221.4634,899.7836 242.9794,904.4396 " fill="none" id="GSM-to-UC21" style="stroke:#181818;stroke-width:0.6;"/><polygon fill="#181818" points="246.498,905.201,241.7278,901.7132,243.5659,904.5665,240.7126,906.4046,246.498,905.201" style="stroke:#181818;stroke-width:0.6;"/></g><!--link GSM to UC22--><g id="link_GSM_UC22"><path d="M135.966,517.229 C153.534,521.669 172.122,529.895 183,545.093 C195.63,562.745 176.292,919.031 190.2,935.693 C205.308,953.789 224.4522,962.2881 247.6182,966.5061 " fill="none" id="GSM-to-UC22" style="stroke:#181818;stroke-width:0.6;"/><polygon fill="#181818" points="251.16,967.151,246.2773,963.8225,248.2085,966.6136,245.4174,968.5448,251.16,967.151" style="stroke:#181818;stroke-width:0.6;"/></g><!--link GSM to UC23--><g id="link_GSM_UC23"><path d="M136.14,512.093 C162.816,512.093 194.43,512.093 228.066,512.093 " fill="none" id="GSM-to-UC23" style="stroke:#181818;stroke-width:0.6;"/><polygon fill="#181818" points="231.666,512.093,226.266,509.693,228.666,512.093,226.266,514.493,231.666,512.093" style="stroke:#181818;stroke-width:0.6;"/></g><!--link GSM to UC24--><g id="link_GSM_UC24"><path d="M136.116,528.125 C152.952,533.975 172.362,540.443 190.2,545.693 C211.254,551.891 230.6753,557.0665 252.1013,562.4185 " fill="none" id="GSM-to-UC24" style="stroke:#181818;stroke-width:0.6;"/><polygon fill="#181818" points="255.594,563.291,250.9366,559.6539,252.6834,562.5639,249.7733,564.3108,255.594,563.291" style="stroke:#181818;stroke-width:0.6;"/></g><!--link GSM to UC26--><g id="link_GSM_UC26"><path d="M136.116,517.829 C153.384,522.383 171.702,530.525 183,545.093 C193.26,558.323 179.34,607.349 190.2,620.093 C199.212,630.665 207.4268,637.0346 220.0088,642.8966 " fill="none" id="GSM-to-UC26" style="stroke:#181818;stroke-width:0.6;"/><polygon fill="#181818" points="223.272,644.417,219.3907,639.961,220.5527,643.15,217.3636,644.3119,223.272,644.417" style="stroke:#181818;stroke-width:0.6;"/></g><!--link GSM to UC27--><g id="link_GSM_UC27"><path d="M135.996,517.445 C153.456,521.921 171.96,530.117 183,545.093 C193.098,558.791 179.208,685.103 190.2,698.093 C203.118,713.357 217.8951,721.5062 237.2211,726.7382 " fill="none" id="GSM-to-UC27" style="stroke:#181818;stroke-width:0.6;"/><polygon fill="#181818" points="240.696,727.679,236.1108,723.9513,237.8002,726.895,234.8565,728.5845,240.696,727.679" style="stroke:#181818;stroke-width:0.6;"/></g><!--link VFM to UC06--><g id="link_VFM_UC06"><path d="M168.894,425.345 C174.198,421.745 179.01,417.497 183,412.493 C199.404,391.901 171.93,372.653 190.2,353.693 C214.608,328.355 250.7526,322.8756 283.1406,323.4816 " fill="none" id="VFM-to-UC06" style="stroke:#181818;stroke-width:0.6;"/><polygon fill="#181818" points="286.74,323.549,281.3858,321.0484,283.7405,323.4928,281.296,325.8475,286.74,323.549" style="stroke:#181818;stroke-width:0.6;"/></g><!--link VFM to UC07--><g id="link_VFM_UC07"><path d="M155.724,422.273 C167.124,418.529 178.95,414.905 190.2,411.893 C216.792,404.777 242.9295,399.2534 268.7955,394.4114 " fill="none" id="VFM-to-UC07" style="stroke:#181818;stroke-width:0.6;"/><polygon fill="#181818" points="272.334,393.749,266.5846,392.3835,269.3852,394.301,267.4678,397.1016,272.334,393.749" style="stroke:#181818;stroke-width:0.6;"/></g><!--link VFM to UC08--><g id="link_VFM_UC08"><path d="M168.738,445.307 C189.222,445.259 208.11,445.2139 229.866,445.1599 " fill="none" id="VFM-to-UC08" style="stroke:#181818;stroke-width:0.6;"/><polygon fill="#181818" points="233.466,445.151,228.0601,442.7644,230.466,445.1584,228.072,447.5644,233.466,445.151" style="stroke:#181818;stroke-width:0.6;"/></g><!--link COLAB to UC28--><g id="link_COLAB_UC28"><path d="M94.008,601.679 C102.06,680.741 132.486,939.683 190.2,995.693 C205.656,1010.693 222.8602,1018.4718 243.9382,1023.1698 " fill="none" id="COLAB-to-UC28" style="stroke:#181818;stroke-width:0.6;"/><polygon fill="#181818" points="247.452,1023.953,242.7034,1020.4357,244.5239,1023.3003,241.6592,1025.1207,247.452,1023.953" style="stroke:#181818;stroke-width:0.6;"/></g><!--link COLAB to UC29--><g id="link_COLAB_UC29"><path d="M93.252,601.673 C99.168,688.013 124.404,991.433 190.2,1056.893 C206.022,1072.637 224.1076,1080.5405 245.9836,1085.0345 " fill="none" id="COLAB-to-UC29" style="stroke:#181818;stroke-width:0.6;"/><polygon fill="#181818" points="249.51,1085.759,244.7034,1082.3214,246.5714,1085.1553,243.7375,1087.0232,249.51,1085.759" style="stroke:#181818;stroke-width:0.6;"/></g><!--SRC=[XLLDKzim4BtxL-nmoIbCudnowKn82nnWw930NTWRMqMMN4bkniFqltSbnuwnw92JjNdlQR-qEp9lN9PCim8A9LMIQrKWM5rXTFwdPCaRot1dQu6WCR5CPWAZqHbXSfQg8vSP79Wm6FN87Vuz0lfTAvsYtYgXD1npRWdxDueijoIzApMN5gwZIE31WbMWUPPRIBaJuKf6KQS65xlQM2nWarYbpGKm0yn_GdEHFy05tIJOgzACJXwqVRpVN7j47tQh4IKvm1A41oOfsWPzktlemrumvmbTpcGAFtvNl2oG7BuHYFO3xUNc0-skAfY49pIgqeCBxfuUV0QY3x4z6uGjCzZ4LHbCtE4zygAd8w5syHMCIJUXf8BD4H9Lb09Tga0TW85bvktIQpnluwk0lIRsLabJ2Ulf3avfD8Pd4bDNW08x-ZgWhuX-puq59WHaFeF6PT10uIDCuRNkAwm2XIKfRFnre2G2vQfG6k5FasRZFA34KOvr3Lnw7pSPofHrcij0S-62OZ91yHLt4N3dnFsfZ2sTDv-plKzmg6n5ZgRCdiER1tApStWCzaYluUk0Pe5Ax5JIb2Ga7azSqlc46mVSwV-vUpN-hbpvEleqe4zyUsK4GaqQlHftfCcmARUJTTiNNHsFtEPGagzkH1ICNZbALo9pKfci0v5b_-hJkslHom0zxQDf-0ZHIKy3yAmFxW-8ZZCBE76VyqkzTj0uWCxFLTzvJvgM2IQHWmParxstA95Wz1vTovHQbSemwkRAge9Pdj1pgrk5HQ2mwdjwga0_vorpvOUEOzCCWl7uspcQdc4wDCo6XldGi6XrQNYURDGb0yDqQ8Y7XjdGC1yQbaF3ghcNfc_hot9eM0qDwuRZrqAhimvDLtv8ZwIYilZjHFErdSiUFMhsKJIYBWS7Qz7D3dFZsA-dQEJGJ-siDtwNxDt-eqyQAGUb6qYAj96DfKPmuxoiD7K1OPGKzMM3U2ou9MK9DUqLsf8ieuLhBdik_0C0]--></g></svg>