<?xml version="1.0" encoding="us-ascii" standalone="no"?><svg xmlns="http://www.w3.org/2000/svg" xmlns:xlink="http://www.w3.org/1999/xlink" contentStyleType="text/css" height="1061px" preserveAspectRatio="none" style="width:1247px;height:1061px;background:#FFFFFF;" version="1.1" viewBox="0 0 1247 1061" width="1247px" zoomAndPan="magnify"><defs/><g><!--cluster Controller--><g id="cluster_Controller"><path d="M702.5,154.49 L776.5,154.49 A3.75,3.75 0 0 1 779,156.99 L786,176.9783 L1139.5,176.9783 A2.5,2.5 0 0 1 1142,179.4783 L1142,283.97 A2.5,2.5 0 0 1 1139.5,286.47 L702.5,286.47 A2.5,2.5 0 0 1 700,283.97 L700,156.99 A2.5,2.5 0 0 1 702.5,154.49 " fill="none" style="stroke:#000000;stroke-width:1.5;"/><line style="stroke:#000000;stroke-width:1.5;" x1="700" x2="786" y1="176.9783" y2="176.9783"/><text fill="#000000" font-family="sans-serif" font-size="14" font-weight="bold" lengthAdjust="spacing" textLength="73" x="704" y="170.0252">Controller</text></g><!--cluster UI--><g id="cluster_UI"><path d="M808.5,6 L824.5,6 A3.75,3.75 0 0 1 827,8.5 L834,28.4883 L1033.5,28.4883 A2.5,2.5 0 0 1 1036,30.9883 L1036,118.99 A2.5,2.5 0 0 1 1033.5,121.49 L808.5,121.49 A2.5,2.5 0 0 1 806,118.99 L806,8.5 A2.5,2.5 0 0 1 808.5,6 " fill="none" style="stroke:#000000;stroke-width:1.5;"/><line style="stroke:#000000;stroke-width:1.5;" x1="806" x2="834" y1="28.4883" y2="28.4883"/><text fill="#000000" font-family="sans-serif" font-size="14" font-weight="bold" lengthAdjust="spacing" textLength="15" x="810" y="21.5352">UI</text></g><!--cluster RepositoriesPkg--><g id="cluster_RepositoriesPkg"><path d="M8.5,335.47 L127.5,335.47 A3.75,3.75 0 0 1 130,337.97 L137,357.9583 L954.5,357.9583 A2.5,2.5 0 0 1 957,360.4583 L957,689.36 A2.5,2.5 0 0 1 954.5,691.86 L8.5,691.86 A2.5,2.5 0 0 1 6,689.36 L6,337.97 A2.5,2.5 0 0 1 8.5,335.47 " fill="none" style="stroke:#000000;stroke-width:1.5;"/><line style="stroke:#000000;stroke-width:1.5;" x1="6" x2="137" y1="357.9583" y2="357.9583"/><text fill="#000000" font-family="sans-serif" font-size="14" font-weight="bold" lengthAdjust="spacing" textLength="118" x="10" y="351.0052">RepositoriesPkg</text></g><!--cluster Domain--><g id="cluster_Domain"><path d="M340.5,724.86 L397.5,724.86 A3.75,3.75 0 0 1 400,727.36 L407,747.3483 L1237.5,747.3483 A2.5,2.5 0 0 1 1240,749.8483 L1240,1052.2 A2.5,2.5 0 0 1 1237.5,1054.7 L340.5,1054.7 A2.5,2.5 0 0 1 338,1052.2 L338,727.36 A2.5,2.5 0 0 1 340.5,724.86 " fill="none" style="stroke:#000000;stroke-width:1.5;"/><line style="stroke:#000000;stroke-width:1.5;" x1="338" x2="407" y1="747.3483" y2="747.3483"/><text fill="#000000" font-family="sans-serif" font-size="14" font-weight="bold" lengthAdjust="spacing" textLength="56" x="342" y="740.3952">Domain</text></g><!--class PostponeAgendaEntryController--><g id="elem_PostponeAgendaEntryController"><rect codeLine="11" fill="#F1F1F1" height="80.9766" id="PostponeAgendaEntryController" rx="2.5" ry="2.5" style="stroke:#181818;stroke-width:0.5;" width="411" x="715.5" y="189.49"/><ellipse cx="805.75" cy="205.49" fill="#ADD1B2" rx="11" ry="11" style="stroke:#181818;stroke-width:1.0;"/><path d="M808.7231,211.1331 Q808.1421,211.4319 807.5029,211.5813 Q806.8638,211.7307 806.1582,211.7307 Q803.6514,211.7307 802.3315,210.0789 Q801.0117,208.427 801.0117,205.3059 Q801.0117,202.1765 802.3315,200.5247 Q803.6514,198.8728 806.1582,198.8728 Q806.8638,198.8728 807.5112,199.0222 Q808.1587,199.1716 808.7231,199.4705 L808.7231,202.1931 Q808.0923,201.6121 807.4988,201.3423 Q806.9053,201.0725 806.2744,201.0725 Q804.9297,201.0725 804.2449,202.1392 Q803.5601,203.2058 803.5601,205.3059 Q803.5601,207.3977 804.2449,208.4644 Q804.9297,209.531 806.2744,209.531 Q806.9053,209.531 807.4988,209.2612 Q808.0923,208.9915 808.7231,208.4104 Z " fill="#000000"/><text fill="#000000" font-family="sans-serif" font-size="14" lengthAdjust="spacing" textLength="222" x="826.25" y="210.781">PostponeAgendaEntryController</text><line style="stroke:#181818;stroke-width:0.5;" x1="716.5" x2="1125.5" y1="221.49" y2="221.49"/><line style="stroke:#181818;stroke-width:0.5;" x1="716.5" x2="1125.5" y1="229.49" y2="229.49"/><text fill="#000000" font-family="sans-serif" font-size="14" lengthAdjust="spacing" textLength="399" x="721.5" y="247.0252">+getEntriesFromAgendaStartingFrom(currentDate, status)</text><text fill="#000000" font-family="sans-serif" font-size="14" lengthAdjust="spacing" textLength="190" x="721.5" y="263.5134">+cancelEntry(selectedEntry)</text></g><!--class PostponeAgendaEntryUI--><g id="elem_PostponeAgendaEntryUI"><rect codeLine="18" fill="#F1F1F1" height="64.4883" id="PostponeAgendaEntryUI" rx="2.5" ry="2.5" style="stroke:#181818;stroke-width:0.5;" width="198" x="822" y="41"/><ellipse cx="837" cy="57" fill="#ADD1B2" rx="11" ry="11" style="stroke:#181818;stroke-width:1.0;"/><path d="M839.9731,62.6431 Q839.3921,62.9419 838.7529,63.0913 Q838.1138,63.2407 837.4082,63.2407 Q834.9014,63.2407 833.5815,61.5889 Q832.2617,59.937 832.2617,56.8159 Q832.2617,53.6865 833.5815,52.0347 Q834.9014,50.3828 837.4082,50.3828 Q838.1138,50.3828 838.7612,50.5322 Q839.4087,50.6816 839.9731,50.9805 L839.9731,53.7031 Q839.3423,53.1221 838.7488,52.8523 Q838.1553,52.5825 837.5244,52.5825 Q836.1797,52.5825 835.4949,53.6492 Q834.8101,54.7158 834.8101,56.8159 Q834.8101,58.9077 835.4949,59.9744 Q836.1797,61.041 837.5244,61.041 Q838.1553,61.041 838.7488,60.7712 Q839.3423,60.5015 839.9731,59.9204 Z " fill="#000000"/><text fill="#000000" font-family="sans-serif" font-size="14" lengthAdjust="spacing" textLength="166" x="851" y="62.291">PostponeAgendaEntryUI</text><line style="stroke:#181818;stroke-width:0.5;" x1="823" x2="1019" y1="73" y2="73"/><line style="stroke:#181818;stroke-width:0.5;" x1="823" x2="1019" y1="81" y2="81"/><text fill="#000000" font-family="sans-serif" font-size="14" lengthAdjust="spacing" textLength="45" x="828" y="98.5352">+run()</text></g><!--class Repositories--><g id="elem_Repositories"><rect codeLine="24" fill="#F1F1F1" height="163.418" id="Repositories" rx="2.5" ry="2.5" style="stroke:#181818;stroke-width:0.5;" width="310" x="548" y="370.47"/><ellipse cx="656.25" cy="386.47" fill="#ADD1B2" rx="11" ry="11" style="stroke:#181818;stroke-width:1.0;"/><path d="M659.2231,392.1131 Q658.6421,392.4119 658.0029,392.5613 Q657.3638,392.7107 656.6582,392.7107 Q654.1514,392.7107 652.8315,391.0589 Q651.5117,389.407 651.5117,386.2859 Q651.5117,383.1565 652.8315,381.5047 Q654.1514,379.8528 656.6582,379.8528 Q657.3638,379.8528 658.0112,380.0022 Q658.6587,380.1516 659.2231,380.4505 L659.2231,383.1731 Q658.5923,382.5921 657.9988,382.3223 Q657.4053,382.0525 656.7744,382.0525 Q655.4297,382.0525 654.7449,383.1192 Q654.0601,384.1858 654.0601,386.2859 Q654.0601,388.3777 654.7449,389.4444 Q655.4297,390.511 656.7744,390.511 Q657.4053,390.511 657.9988,390.2412 Q658.5923,389.9715 659.2231,389.3904 Z " fill="#000000"/><text fill="#000000" font-family="sans-serif" font-size="14" lengthAdjust="spacing" textLength="85" x="676.75" y="391.761">Repositories</text><line style="stroke:#181818;stroke-width:0.5;" x1="549" x2="857" y1="402.47" y2="402.47"/><text fill="#000000" font-family="sans-serif" font-size="14" lengthAdjust="spacing" textLength="162" x="554" y="420.0052">-instance : Repositories</text><text fill="#000000" font-family="sans-serif" font-size="14" lengthAdjust="spacing" textLength="194" x="554" y="436.4934">-Repository : SkillRepository</text><text fill="#000000" font-family="sans-serif" font-size="14" lengthAdjust="spacing" textLength="270" x="554" y="452.9817">-agendaRepository : AgendaRepository</text><text fill="#000000" font-family="sans-serif" font-size="14" lengthAdjust="spacing" textLength="298" x="554" y="469.47">-employeeRepository : EmployeeRepository</text><line style="stroke:#181818;stroke-width:0.5;" x1="549" x2="857" y1="476.4231" y2="476.4231"/><text fill="#000000" font-family="sans-serif" font-size="14" lengthAdjust="spacing" textLength="197" x="554" y="493.9583">+getInstance() : Repositories</text><text fill="#000000" font-family="sans-serif" font-size="14" lengthAdjust="spacing" textLength="169" x="554" y="510.4466">+getAgendaRepository()</text><text fill="#000000" font-family="sans-serif" font-size="14" lengthAdjust="spacing" textLength="182" x="554" y="526.9348">+getEmployeeRepository()</text></g><!--class EmployeeRepository--><g id="elem_EmployeeRepository"><rect codeLine="35" fill="#F1F1F1" height="97.4648" id="EmployeeRepository" rx="2.5" ry="2.5" style="stroke:#181818;stroke-width:0.5;" width="246" x="22" y="403.45"/><ellipse cx="71.25" cy="419.45" fill="#ADD1B2" rx="11" ry="11" style="stroke:#181818;stroke-width:1.0;"/><path d="M74.2231,425.0931 Q73.6421,425.3919 73.0029,425.5413 Q72.3638,425.6907 71.6582,425.6907 Q69.1514,425.6907 67.8315,424.0389 Q66.5117,422.387 66.5117,419.2659 Q66.5117,416.1365 67.8315,414.4847 Q69.1514,412.8328 71.6582,412.8328 Q72.3638,412.8328 73.0112,412.9822 Q73.6587,413.1316 74.2231,413.4305 L74.2231,416.1531 Q73.5923,415.5721 72.9988,415.3023 Q72.4053,415.0325 71.7744,415.0325 Q70.4297,415.0325 69.7449,416.0992 Q69.0601,417.1658 69.0601,419.2659 Q69.0601,421.3577 69.7449,422.4244 Q70.4297,423.491 71.7744,423.491 Q72.4053,423.491 72.9988,423.2212 Q73.5923,422.9515 74.2231,422.3704 Z " fill="#000000"/><text fill="#000000" font-family="sans-serif" font-size="14" lengthAdjust="spacing" textLength="139" x="91.75" y="424.741">EmployeeRepository</text><line style="stroke:#181818;stroke-width:0.5;" x1="23" x2="267" y1="435.45" y2="435.45"/><line style="stroke:#181818;stroke-width:0.5;" x1="23" x2="267" y1="443.45" y2="443.45"/><text fill="#000000" font-family="sans-serif" font-size="14" lengthAdjust="spacing" textLength="116" x="28" y="460.9852">+getEmployees()</text><text fill="#000000" font-family="sans-serif" font-size="14" lengthAdjust="spacing" textLength="234" x="28" y="477.4734">+validateEmployee(newEmployee)</text><text fill="#000000" font-family="sans-serif" font-size="14" lengthAdjust="spacing" textLength="214" x="28" y="493.9617">+addEmployees(newEmployee)</text></g><!--class AgendaRepository--><g id="elem_AgendaRepository"><rect codeLine="42" fill="#F1F1F1" height="80.9766" id="AgendaRepository" rx="2.5" ry="2.5" style="stroke:#181818;stroke-width:0.5;" width="411" x="530.5" y="594.89"/><ellipse cx="668.75" cy="610.89" fill="#ADD1B2" rx="11" ry="11" style="stroke:#181818;stroke-width:1.0;"/><path d="M671.7231,616.5331 Q671.1421,616.8319 670.5029,616.9813 Q669.8638,617.1307 669.1582,617.1307 Q666.6514,617.1307 665.3315,615.4789 Q664.0117,613.827 664.0117,610.7059 Q664.0117,607.5765 665.3315,605.9247 Q666.6514,604.2728 669.1582,604.2728 Q669.8638,604.2728 670.5112,604.4222 Q671.1587,604.5716 671.7231,604.8705 L671.7231,607.5931 Q671.0923,607.0121 670.4988,606.7423 Q669.9053,606.4725 669.2744,606.4725 Q667.9297,606.4725 667.2449,607.5392 Q666.5601,608.6058 666.5601,610.7059 Q666.5601,612.7977 667.2449,613.8644 Q667.9297,614.931 669.2744,614.931 Q669.9053,614.931 670.4988,614.6612 Q671.0923,614.3915 671.7231,613.8104 Z " fill="#000000"/><text fill="#000000" font-family="sans-serif" font-size="14" lengthAdjust="spacing" textLength="126" x="689.25" y="616.181">AgendaRepository</text><line style="stroke:#181818;stroke-width:0.5;" x1="531.5" x2="940.5" y1="626.89" y2="626.89"/><line style="stroke:#181818;stroke-width:0.5;" x1="531.5" x2="940.5" y1="634.89" y2="634.89"/><text fill="#000000" font-family="sans-serif" font-size="14" lengthAdjust="spacing" textLength="399" x="536.5" y="652.4252">+getEntriesFromAgendaStartingFrom(currentDate, status)</text><text fill="#000000" font-family="sans-serif" font-size="14" lengthAdjust="spacing" textLength="360" x="536.5" y="668.9134">+getEntriesFromAgendaPriorTo(currentDate, status)</text></g><!--class AuthenticationRepository--><g id="elem_AuthenticationRepository"><rect codeLine="47" fill="#F1F1F1" height="64.4883" id="AuthenticationRepository" rx="2.5" ry="2.5" style="stroke:#181818;stroke-width:0.5;" width="209" x="303.5" y="419.93"/><ellipse cx="319.85" cy="435.93" fill="#ADD1B2" rx="11" ry="11" style="stroke:#181818;stroke-width:1.0;"/><path d="M322.8231,441.5731 Q322.2421,441.8719 321.6029,442.0213 Q320.9638,442.1707 320.2582,442.1707 Q317.7514,442.1707 316.4315,440.5189 Q315.1117,438.867 315.1117,435.7459 Q315.1117,432.6165 316.4315,430.9647 Q317.7514,429.3128 320.2582,429.3128 Q320.9638,429.3128 321.6112,429.4622 Q322.2587,429.6116 322.8231,429.9105 L322.8231,432.6331 Q322.1923,432.0521 321.5988,431.7823 Q321.0053,431.5125 320.3744,431.5125 Q319.0297,431.5125 318.3449,432.5792 Q317.6601,433.6458 317.6601,435.7459 Q317.6601,437.8377 318.3449,438.9044 Q319.0297,439.971 320.3744,439.971 Q321.0053,439.971 321.5988,439.7012 Q322.1923,439.4315 322.8231,438.8504 Z " fill="#000000"/><text fill="#000000" font-family="sans-serif" font-size="14" lengthAdjust="spacing" textLength="174" x="334.15" y="441.221">AuthenticationRepository</text><line style="stroke:#181818;stroke-width:0.5;" x1="304.5" x2="511.5" y1="451.93" y2="451.93"/><line style="stroke:#181818;stroke-width:0.5;" x1="304.5" x2="511.5" y1="459.93" y2="459.93"/><text fill="#000000" font-family="sans-serif" font-size="14" lengthAdjust="spacing" textLength="197" x="309.5" y="477.4652">+getEmployeeFromSession()</text></g><!--class Entry--><g id="elem_Entry"><rect codeLine="54" fill="#F1F1F1" height="212.8828" id="Entry" rx="2.5" ry="2.5" style="stroke:#181818;stroke-width:0.5;" width="446" x="778" y="792.84"/><ellipse cx="979.25" cy="808.84" fill="#ADD1B2" rx="11" ry="11" style="stroke:#181818;stroke-width:1.0;"/><path d="M982.2231,814.4831 Q981.6421,814.7819 981.0029,814.9313 Q980.3638,815.0807 979.6582,815.0807 Q977.1514,815.0807 975.8315,813.4289 Q974.5117,811.777 974.5117,808.6559 Q974.5117,805.5265 975.8315,803.8747 Q977.1514,802.2228 979.6582,802.2228 Q980.3638,802.2228 981.0112,802.3722 Q981.6587,802.5216 982.2231,802.8205 L982.2231,805.5431 Q981.5923,804.9621 980.9988,804.6923 Q980.4053,804.4225 979.7744,804.4225 Q978.4297,804.4225 977.7449,805.4892 Q977.0601,806.5558 977.0601,808.6559 Q977.0601,810.7477 977.7449,811.8144 Q978.4297,812.881 979.7744,812.881 Q980.4053,812.881 980.9988,812.6112 Q981.5923,812.3415 982.2231,811.7604 Z " fill="#000000"/><text fill="#000000" font-family="sans-serif" font-size="14" lengthAdjust="spacing" textLength="35" x="999.75" y="814.131">Entry</text><line style="stroke:#181818;stroke-width:0.5;" x1="779" x2="1223" y1="824.84" y2="824.84"/><text fill="#000000" font-family="sans-serif" font-size="14" lengthAdjust="spacing" textLength="91" x="784" y="842.3752">-String name</text><text fill="#000000" font-family="sans-serif" font-size="14" lengthAdjust="spacing" textLength="130" x="784" y="858.8634">-String description</text><text fill="#000000" font-family="sans-serif" font-size="14" lengthAdjust="spacing" textLength="157" x="784" y="875.3517">-String urgencyDegree</text><text fill="#000000" font-family="sans-serif" font-size="14" lengthAdjust="spacing" textLength="89" x="784" y="891.84">-int duration</text><text fill="#000000" font-family="sans-serif" font-size="14" lengthAdjust="spacing" textLength="173" x="784" y="908.3283">-GreenSpace greenSpace</text><text fill="#000000" font-family="sans-serif" font-size="14" lengthAdjust="spacing" textLength="94" x="784" y="924.8166">-String status</text><text fill="#000000" font-family="sans-serif" font-size="14" lengthAdjust="spacing" textLength="144" x="784" y="941.3048">-LocalDate entryDate</text><text fill="#000000" font-family="sans-serif" font-size="14" lengthAdjust="spacing" textLength="63" x="784" y="957.7931">-int hour</text><line style="stroke:#181818;stroke-width:0.5;" x1="779" x2="1223" y1="964.7463" y2="964.7463"/><text fill="#000000" font-family="sans-serif" font-size="14" lengthAdjust="spacing" textLength="425" x="784" y="982.2814">+Entry(String name, String description, String urgencyDegree,</text><text fill="#000000" font-family="sans-serif" font-size="14" lengthAdjust="spacing" textLength="430" x="788" y="998.7697">int duration, GreenSpace greenSpace, LocalDate date, int hour)</text></g><!--class Employee--><g id="elem_Employee"><rect codeLine="67" fill="#F1F1F1" height="278.8359" id="Employee" rx="2.5" ry="2.5" style="stroke:#181818;stroke-width:0.5;" width="389" x="354.5" y="759.86"/><ellipse cx="511.75" cy="775.86" fill="#ADD1B2" rx="11" ry="11" style="stroke:#181818;stroke-width:1.0;"/><path d="M514.7231,781.5031 Q514.1421,781.8019 513.5029,781.9513 Q512.8638,782.1007 512.1582,782.1007 Q509.6514,782.1007 508.3315,780.4489 Q507.0117,778.797 507.0117,775.6759 Q507.0117,772.5465 508.3315,770.8947 Q509.6514,769.2428 512.1582,769.2428 Q512.8638,769.2428 513.5112,769.3922 Q514.1587,769.5416 514.7231,769.8405 L514.7231,772.5631 Q514.0923,771.9821 513.4988,771.7123 Q512.9053,771.4425 512.2744,771.4425 Q510.9297,771.4425 510.2449,772.5092 Q509.5601,773.5758 509.5601,775.6759 Q509.5601,777.7677 510.2449,778.8344 Q510.9297,779.901 512.2744,779.901 Q512.9053,779.901 513.4988,779.6312 Q514.0923,779.3615 514.7231,778.7804 Z " fill="#000000"/><text fill="#000000" font-family="sans-serif" font-size="14" lengthAdjust="spacing" textLength="66" x="532.25" y="781.151">Employee</text><line style="stroke:#181818;stroke-width:0.5;" x1="355.5" x2="742.5" y1="791.86" y2="791.86"/><text fill="#000000" font-family="sans-serif" font-size="14" lengthAdjust="spacing" textLength="91" x="360.5" y="809.3952">-name:String</text><text fill="#000000" font-family="sans-serif" font-size="14" lengthAdjust="spacing" textLength="106" x="360.5" y="825.8834">-birthdate:Date</text><text fill="#000000" font-family="sans-serif" font-size="14" lengthAdjust="spacing" textLength="144" x="360.5" y="842.3717">-admissionDate:Date</text><text fill="#000000" font-family="sans-serif" font-size="14" lengthAdjust="spacing" textLength="62" x="360.5" y="858.86">-address</text><text fill="#000000" font-family="sans-serif" font-size="14" lengthAdjust="spacing" textLength="153" x="360.5" y="875.3483">-mobileContact:String</text><text fill="#000000" font-family="sans-serif" font-size="14" lengthAdjust="spacing" textLength="143" x="360.5" y="891.8366">-emailContact:String</text><text fill="#000000" font-family="sans-serif" font-size="14" lengthAdjust="spacing" textLength="125" x="360.5" y="908.3248">-IDdocType:String</text><text fill="#000000" font-family="sans-serif" font-size="14" lengthAdjust="spacing" textLength="121" x="360.5" y="924.8131">-IDnumber:String</text><text fill="#000000" font-family="sans-serif" font-size="14" lengthAdjust="spacing" textLength="130" x="360.5" y="941.3014">-taxNumber:String</text><text fill="#000000" font-family="sans-serif" font-size="14" lengthAdjust="spacing" textLength="56" x="360.5" y="957.7897">-job:Job</text><line style="stroke:#181818;stroke-width:0.5;" x1="355.5" x2="742.5" y1="964.7428" y2="964.7428"/><text fill="#000000" font-family="sans-serif" font-size="14" lengthAdjust="spacing" textLength="326" x="360.5" y="982.278">+Employee (String nome,LocalDate dateOfBirth,</text><text fill="#000000" font-family="sans-serif" font-size="14" lengthAdjust="spacing" textLength="377" x="360.5" y="998.7663">LocalDate admissionDate, String morada, int telemovel,</text><text fill="#000000" font-family="sans-serif" font-size="14" lengthAdjust="spacing" textLength="354" x="360.5" y="1015.2545">String email, String idDocType, int docTypeNumber,</text><text fill="#000000" font-family="sans-serif" font-size="14" lengthAdjust="spacing" textLength="290" x="360.5" y="1031.7428">int taxPayerIdNumber, String role, Job job)</text></g><!--link PostponeAgendaEntryUI to PostponeAgendaEntryController--><g id="link_PostponeAgendaEntryUI_PostponeAgendaEntryController"><path codeLine="83" d="M921,105.93 C921,129.98 921,157.21 921,183.07 " fill="none" id="PostponeAgendaEntryUI-to-PostponeAgendaEntryController" style="stroke:#181818;stroke-width:1.0;stroke-dasharray:7.0,7.0;"/><polygon fill="#181818" points="921,189.07,925,180.07,921,184.07,917,180.07,921,189.07" style="stroke:#181818;stroke-width:1.0;"/><text fill="#000000" font-family="sans-serif" font-size="13" lengthAdjust="spacing" textLength="8" x="912.2625" y="125.9363">1</text><text fill="#000000" font-family="sans-serif" font-size="13" lengthAdjust="spacing" textLength="8" x="912.3375" y="178.6465">1</text></g><!--link Repositories to Repositories--><g id="link_Repositories_Repositories"><path codeLine="88" d="M858.43,433.57 C879.2,436.72 893,442.92 893,452.18 C893,461.44 885.1322,466.7403 864.3622,469.8903 " fill="none" id="Repositories-to-Repositories" style="stroke:#181818;stroke-width:1.0;"/><polygon fill="#181818" points="858.43,470.79,867.928,473.3953,863.3735,470.0403,866.7285,465.4857,858.43,470.79" style="stroke:#181818;stroke-width:1.0;"/><text fill="#000000" font-family="sans-serif" font-size="13" lengthAdjust="spacing" textLength="53" x="899" y="457.2484">instance</text></g><!--link Repositories to AgendaRepository--><g id="link_Repositories_AgendaRepository"><path codeLine="89" d="M717.76,534.24 C721.57,555.16 724.4364,570.8568 727.6664,588.6168 " fill="none" id="Repositories-to-AgendaRepository" style="stroke:#181818;stroke-width:1.0;"/><polygon fill="#181818" points="728.74,594.52,731.065,584.9495,727.8453,589.6007,723.1941,586.381,728.74,594.52" style="stroke:#181818;stroke-width:1.0;"/><text fill="#000000" font-family="sans-serif" font-size="13" lengthAdjust="spacing" textLength="8" x="710.6847" y="554.5184">1</text><text fill="#000000" font-family="sans-serif" font-size="13" lengthAdjust="spacing" textLength="8" x="718.8751" y="584.1047">1</text></g><!--link Repositories to EmployeeRepository--><g id="link_Repositories_EmployeeRepository"><path codeLine="90" d="M592.19,370.04 C550.28,338.97 512.5,310.97 512.5,310.97 C512.5,310.97 303.5,310.97 303.5,310.97 C303.5,310.97 250.2498,358.4085 204.4698,399.1985 " fill="none" id="Repositories-to-EmployeeRepository" style="stroke:#181818;stroke-width:1.0;"/><polygon fill="#181818" points="199.99,403.19,209.3706,400.1893,203.7231,399.8638,204.0487,394.2163,199.99,403.19" style="stroke:#181818;stroke-width:1.0;"/><text fill="#000000" font-family="sans-serif" font-size="13" lengthAdjust="spacing" textLength="8" x="573.9647" y="359.6387">1</text><text fill="#000000" font-family="sans-serif" font-size="13" lengthAdjust="spacing" textLength="8" x="199.1605" y="392.8359">1</text></g><!--link EmployeeRepository to Employee--><g id="link_EmployeeRepository_Employee"><path codeLine="92" d="M188.62,501.24 C244.32,562.6 339.0476,666.9671 419.1076,755.1771 " fill="none" id="EmployeeRepository-to-Employee" style="stroke:#181818;stroke-width:1.0;"/><polygon fill="#181818" points="423.14,759.62,420.0533,750.2673,419.7796,755.9176,414.1294,755.6439,423.14,759.62" style="stroke:#181818;stroke-width:1.0;"/><text fill="#000000" font-family="sans-serif" font-size="13" lengthAdjust="spacing" textLength="8" x="185.9439" y="521.4291">1</text><text fill="#000000" font-family="sans-serif" font-size="13" lengthAdjust="spacing" textLength="6" x="410.093" y="749.1491">*</text></g><!--link AgendaRepository to Entry--><g id="link_AgendaRepository_Entry"><path codeLine="93" d="M776.25,676.15 C807.52,707.06 848.1422,747.2127 889.5922,788.1727 " fill="none" id="AgendaRepository-to-Entry" style="stroke:#181818;stroke-width:1.0;"/><polygon fill="#181818" points="893.86,792.39,890.2699,783.2188,890.3035,788.8756,884.6468,788.9092,893.86,792.39" style="stroke:#181818;stroke-width:1.0;"/></g><!--link PostponeAgendaEntryController to AgendaRepository--><g id="link_PostponeAgendaEntryController_AgendaRepository"><path codeLine="96" d="M936.68,270.78 C947.14,297.36 959,327.47 959,327.47 C959,327.47 959,533.89 959,533.89 C959,533.89 892.1901,563.9947 829.9301,592.0547 " fill="none" id="PostponeAgendaEntryController-to-AgendaRepository" style="stroke:#181818;stroke-width:1.0;stroke-dasharray:7.0,7.0;"/><polygon fill="#181818" points="824.46,594.52,834.3087,594.4687,829.0184,592.4656,831.0216,587.1753,824.46,594.52" style="stroke:#181818;stroke-width:1.0;"/></g><!--link PostponeAgendaEntryController to Repositories--><g id="link_PostponeAgendaEntryController_Repositories"><path codeLine="97" d="M881.52,270.86 C854.16,298.49 820.9912,331.996 787.4912,365.836 " fill="none" id="PostponeAgendaEntryController-to-Repositories" style="stroke:#181818;stroke-width:1.0;stroke-dasharray:7.0,7.0;"/><polygon fill="#181818" points="783.27,370.1,792.4444,366.5181,786.7876,366.5467,786.7591,360.8899,783.27,370.1" style="stroke:#181818;stroke-width:1.0;"/><text fill="#000000" font-family="sans-serif" font-size="13" lengthAdjust="spacing" textLength="75" x="845" y="316.0384">repositories</text><text fill="#000000" font-family="sans-serif" font-size="13" lengthAdjust="spacing" textLength="8" x="866.5904" y="291.1639">1</text><text fill="#000000" font-family="sans-serif" font-size="13" lengthAdjust="spacing" textLength="8" x="782.0628" y="359.7041">1</text></g><!--link PostponeAgendaEntryController to AuthenticationRepository--><g id="link_PostponeAgendaEntryController_AuthenticationRepository"><path codeLine="98" d="M759.14,270.92 C651.58,297.47 530,327.47 530,327.47 C530,327.47 479.4634,378.7183 443.3134,415.3683 " fill="none" id="PostponeAgendaEntryController-to-AuthenticationRepository" style="stroke:#181818;stroke-width:1.0;"/><polygon fill="#181818" points="439.1,419.64,448.2679,416.0414,442.6112,416.0803,442.5723,410.4235,439.1,419.64" style="stroke:#181818;stroke-width:1.0;"/><text fill="#000000" font-family="sans-serif" font-size="13" lengthAdjust="spacing" textLength="143" x="625" y="316.0384">getCurrentUserSession</text><text fill="#000000" font-family="sans-serif" font-size="13" lengthAdjust="spacing" textLength="8" x="725.7427" y="290.9298">1</text><text fill="#000000" font-family="sans-serif" font-size="13" lengthAdjust="spacing" textLength="8" x="436.6894" y="408.9833">1</text></g><!--link PostponeAgendaEntryController to Employee--><g id="link_PostponeAgendaEntryController_Employee"><path codeLine="100" d="M952.83,270.91 C965.89,287.28 978,302.47 978,302.47 C978,302.47 985,327.47 985,327.47 C985,327.47 985,533.89 985,533.89 C985,533.89 957,699.86 957,699.86 C957,699.86 761,716.86 761,716.86 C761,716.86 744.5982,730.8984 715.8582,755.4984 " fill="none" id="PostponeAgendaEntryController-to-Employee" style="stroke:#181818;stroke-width:1.0;"/><polygon fill="#181818" points="711.3,759.4,720.7384,756.5864,715.0985,756.1487,715.5363,750.5088,711.3,759.4" style="stroke:#181818;stroke-width:1.0;"/></g><!--link AuthenticationRepository to Employee--><g id="link_AuthenticationRepository_Employee"><path codeLine="102" d="M418.03,484.83 C435.93,541.34 472.5577,656.9803 503.1977,753.6803 " fill="none" id="AuthenticationRepository-to-Employee" style="stroke:#181818;stroke-width:1.0;"/><polygon fill="#181818" points="505.01,759.4,506.1047,749.6122,503.4997,754.6335,498.4783,752.0286,505.01,759.4" style="stroke:#181818;stroke-width:1.0;"/></g><!--link Employee to Entry--><g id="link_Employee_Entry"><path codeLine="104" d="M743.65,899.28 C754.33,899.28 760.04,899.28 771.66,899.28 " fill="none" id="Employee-to-Entry" style="stroke:#181818;stroke-width:1.0;"/><polygon fill="#181818" points="777.66,899.28,768.66,895.28,772.66,899.28,768.66,903.28,777.66,899.28" style="stroke:#181818;stroke-width:1.0;"/></g><!--SRC=[hLPDRzim3BtxLmYzDDsIOhi6HO2iQOSCmnOixMqNnM8TBR9aI79RR-X_7sKbjcpBxGxpfGxvI3v-cEovEN1PK4rpaYkfqhrMEH2hIqXQJK7J0yrWQoi1H4DggSn4231xojGJbnbveCA46i4bsAe0KYXHkH_9UKIfj5L9O9KAQipIMirtfOLrgkIM_mRo8KdE1JnOOXNHFDjRmhYZmvLCDfuZkLRIQYK4Q79rTQi40xrO_4a8FhLNib765ah2CWF9w0sYgy368ztpdcHWdPg3kSMgUFpMKcqnKIUPfANM8EsAMfWIOwajpKLWdrAPWgWZJ0m890gi_kL1BybBqj2-N_yxNSG6D7Kf9n67Fw1GXblbw6yEsOZt4DNwd14kCHraJ-OTI81en1LYjWSkH2i9OBIctG4lUw803NaXL0NGmTyCX4ctIUiZsSd56DqQreyxkUZrUX2dgMjGiI4Acz4u6ZWpGHIlVAI2CvoO4s8YuUdqtiTInbf7KLo7Mp_3_pdCCVkDvahVgN7JBhlIxX75K-e-s76MnnnTc2qOWzXmlfi1NwcSSZaor_LtGiA9tY9tt4-IvZ2KCZ2fvaMzI0RAKcEoQRM2J0DqlX7SFwMcFQlFY99RN9b0ikPrwDMNAP1_LIaLheG477dtrWksLwKEQkKNIv3ND9BED9h5zAViq9_6MKy3Kgnkxeb6qzx8bn6MtT6QUmQjSCUrtJj_yswIbEMyxlSgfcCQXw4Lv6h71RZDJLCx204u6s9CkLunbTxXtObeP9dlG0yKbZv_Ysj-gTtyYze5AwcfGzCRFAdJRYM_FtnoHS0-jF9E-atVSgKfexxo5ez8hXv1eDrHNIVQW3bR-Smy_fYcPuusjG_wlA4Lw3KxYa-sU03H35CXc59uKA87wEpZ6RcyNDH_NxseYNl2fKncYywInfrzkZPTd7Czc_aGWvinH7fWx5X4LlR9ubrhaVHZrC7hR99e5OB_6bmb1XHVDmaBs2k73a_OsrwQ6etiL_I8Q_NQx-Xx0_guLTzAocL_gaqowdpMWJMptvJkBm00]--></g></svg>