<?xml version="1.0" encoding="us-ascii" standalone="no"?><svg xmlns="http://www.w3.org/2000/svg" xmlns:xlink="http://www.w3.org/1999/xlink" contentStyleType="text/css" height="630.6px" preserveAspectRatio="none" style="width:1264px;height:630px;background:#FFFFFF;" version="1.1" viewBox="0 0 1264 630" width="1264.8px" zoomAndPan="magnify"><defs/><g><rect fill="#FFFFFF" height="516.4828" style="stroke:#181818;stroke-width:0.6;" width="6" x="46.5" y="54.893"/><rect fill="#FFFFFF" height="257.9016" style="stroke:#181818;stroke-width:0.6;" width="6" x="258.3" y="137.6109"/><rect fill="#FFFFFF" height="17.5863" style="stroke:#181818;stroke-width:0.6;" width="6" x="258.3" y="413.0988"/><rect fill="#FFFFFF" height="123.1043" style="stroke:#181818;stroke-width:0.6;" width="6" x="258.3" y="448.2715"/><rect fill="#FFFFFF" height="197.8359" style="stroke:#181818;stroke-width:0.6;" width="6" x="536.1" y="180.0902"/><rect fill="#FFFFFF" height="87.9316" style="stroke:#181818;stroke-width:0.6;" width="6" x="536.1" y="465.8578"/><rect fill="#FFFFFF" height="17.5863" style="stroke:#181818;stroke-width:0.6;" width="6" x="662.1" y="197.6766"/><rect fill="#FFFFFF" height="57.1453" style="stroke:#181818;stroke-width:0.6;" width="6" x="662.1" y="232.8492"/><rect fill="#FFFFFF" height="17.5863" style="stroke:#181818;stroke-width:0.6;" width="6" x="729.9" y="307.5809"/><rect fill="#FFFFFF" height="17.5863" style="stroke:#181818;stroke-width:0.6;" width="6" x="819.3" y="342.7535"/><rect fill="#FFFFFF" height="52.759" style="stroke:#181818;stroke-width:0.6;" width="6" x="1082.7" y="483.4441"/><rect fill="#FFFFFF" height="17.5863" style="stroke:#181818;stroke-width:0.6;" width="6" x="1242.3" y="501.0305"/><line style="stroke:#181818;stroke-width:0.3;stroke-dasharray:5.0,5.0;" x1="49.2" x2="49.2" y1="48.893" y2="582.1758"/><line style="stroke:#181818;stroke-width:0.3;stroke-dasharray:5.0,5.0;" x1="261.3" x2="261.3" y1="48.893" y2="582.1758"/><line style="stroke:#181818;stroke-width:0.3;stroke-dasharray:5.0,5.0;" x1="539.1" x2="539.1" y1="160.8574" y2="582.1758"/><line style="stroke:#181818;stroke-width:0.3;stroke-dasharray:5.0,5.0;" x1="664.8" x2="664.8" y1="48.893" y2="582.1758"/><line style="stroke:#181818;stroke-width:0.3;stroke-dasharray:5.0,5.0;" x1="732.6" x2="732.6" y1="48.893" y2="582.1758"/><line style="stroke:#181818;stroke-width:0.3;stroke-dasharray:5.0,5.0;" x1="822.3" x2="822.3" y1="48.893" y2="582.1758"/><line style="stroke:#181818;stroke-width:0.3;stroke-dasharray:5.0,5.0;" x1="929.1" x2="929.1" y1="48.893" y2="582.1758"/><line style="stroke:#181818;stroke-width:0.3;stroke-dasharray:5.0,5.0;" x1="1022.7" x2="1022.7" y1="48.893" y2="582.1758"/><line style="stroke:#181818;stroke-width:0.3;stroke-dasharray:5.0,5.0;" x1="1085.7" x2="1085.7" y1="48.893" y2="582.1758"/><line style="stroke:#181818;stroke-width:0.3;stroke-dasharray:5.0,5.0;" x1="1245" x2="1245" y1="48.893" y2="582.1758"/><text fill="#000000" font-family="sans-serif" font-size="8.4" lengthAdjust="spacing" textLength="89.4" x="3" y="47.1211">Green Space Manager</text><ellipse cx="49.5" cy="8.1" fill="#E3E3E3" rx="4.8" ry="4.8" style="stroke:#181818;stroke-width:0.3;"/><path d="M49.5,12.9 L49.5,29.1 M41.7,17.7 L57.3,17.7 M49.5,29.1 L41.7,38.1 M49.5,29.1 L57.3,38.1 " fill="none" style="stroke:#181818;stroke-width:0.3;"/><text fill="#000000" font-family="sans-serif" font-size="8.4" lengthAdjust="spacing" textLength="89.4" x="3" y="589.6969">Green Space Manager</text><ellipse cx="49.5" cy="596.5688" fill="#E3E3E3" rx="4.8" ry="4.8" style="stroke:#181818;stroke-width:0.3;"/><path d="M49.5,601.3688 L49.5,617.5688 M41.7,606.1687 L57.3,606.1687 M49.5,617.5688 L41.7,626.5688 M49.5,617.5688 L57.3,626.5688 " fill="none" style="stroke:#181818;stroke-width:0.3;"/><rect fill="#E3E3E3" height="18.293" rx="1.5" ry="1.5" style="stroke:#181818;stroke-width:0.3;" width="99.6" x="211.5" y="30"/><text fill="#000000" font-family="sans-serif" font-size="8.4" lengthAdjust="spacing" textLength="91.2" x="215.7" y="42.3211">:CancelAgendaEntryUI</text><rect fill="#E3E3E3" height="18.293" rx="1.5" ry="1.5" style="stroke:#181818;stroke-width:0.3;" width="99.6" x="211.5" y="581.5758"/><text fill="#000000" font-family="sans-serif" font-size="8.4" lengthAdjust="spacing" textLength="91.2" x="215.7" y="593.8969">:CancelAgendaEntryUI</text><rect fill="#E3E3E3" height="18.293" rx="1.5" ry="1.5" style="stroke:#181818;stroke-width:0.3;" width="133.2" x="472.5" y="581.5758"/><text fill="#000000" font-family="sans-serif" font-size="8.4" lengthAdjust="spacing" textLength="124.8" x="476.7" y="593.8969">:CancelAgendaEntryController</text><rect fill="#E3E3E3" height="18.293" rx="1.5" ry="1.5" style="stroke:#181818;stroke-width:0.3;" width="61.8" x="634.2" y="30"/><text fill="#000000" font-family="sans-serif" font-size="8.4" lengthAdjust="spacing" textLength="53.4" x="638.4" y="42.3211">:Repositories</text><rect fill="#E3E3E3" height="18.293" rx="1.5" ry="1.5" style="stroke:#181818;stroke-width:0.3;" width="61.8" x="634.2" y="581.5758"/><text fill="#000000" font-family="sans-serif" font-size="8.4" lengthAdjust="spacing" textLength="53.4" x="638.4" y="593.8969">:Repositories</text><rect fill="#E3E3E3" height="28.1859" rx="1.5" ry="1.5" style="stroke:#181818;stroke-width:0.3;" width="61.8" x="702" y="20.107"/><text fill="#000000" font-family="sans-serif" font-size="8.4" lengthAdjust="spacing" textLength="49.2" x="708.3" y="32.4281">repositories</text><text fill="#000000" font-family="sans-serif" font-size="8.4" lengthAdjust="spacing" textLength="53.4" x="706.2" y="42.3211">:Repositories</text><rect fill="#E3E3E3" height="28.1859" rx="1.5" ry="1.5" style="stroke:#181818;stroke-width:0.3;" width="61.8" x="702" y="581.5758"/><text fill="#000000" font-family="sans-serif" font-size="8.4" lengthAdjust="spacing" textLength="49.2" x="708.3" y="593.8969">repositories</text><text fill="#000000" font-family="sans-serif" font-size="8.4" lengthAdjust="spacing" textLength="53.4" x="706.2" y="603.7898">:Repositories</text><rect fill="#E3E3E3" height="28.1859" rx="1.5" ry="1.5" style="stroke:#181818;stroke-width:0.3;" width="86.4" x="779.1" y="20.107"/><text fill="#000000" font-family="sans-serif" font-size="8.4" lengthAdjust="spacing" textLength="74.4" x="785.1" y="32.4281">agendaRepository</text><text fill="#000000" font-family="sans-serif" font-size="8.4" lengthAdjust="spacing" textLength="78" x="783.3" y="42.3211">:AgendaRepository</text><rect fill="#E3E3E3" height="28.1859" rx="1.5" ry="1.5" style="stroke:#181818;stroke-width:0.3;" width="86.4" x="779.1" y="581.5758"/><text fill="#000000" font-family="sans-serif" font-size="8.4" lengthAdjust="spacing" textLength="74.4" x="785.1" y="593.8969">agendaRepository</text><text fill="#000000" font-family="sans-serif" font-size="8.4" lengthAdjust="spacing" textLength="78" x="783.3" y="603.7898">:AgendaRepository</text><rect fill="#E3E3E3" height="28.1859" rx="1.5" ry="1.5" style="stroke:#181818;stroke-width:0.3;" width="115.2" x="871.5" y="20.107"/><text fill="#000000" font-family="sans-serif" font-size="8.4" lengthAdjust="spacing" textLength="103.2" x="877.5" y="32.4281">authenticationRepository</text><text fill="#000000" font-family="sans-serif" font-size="8.4" lengthAdjust="spacing" textLength="106.8" x="875.7" y="42.3211">:AuthenticationRepository</text><rect fill="#E3E3E3" height="28.1859" rx="1.5" ry="1.5" style="stroke:#181818;stroke-width:0.3;" width="115.2" x="871.5" y="581.5758"/><text fill="#000000" font-family="sans-serif" font-size="8.4" lengthAdjust="spacing" textLength="103.2" x="877.5" y="593.8969">authenticationRepository</text><text fill="#000000" font-family="sans-serif" font-size="8.4" lengthAdjust="spacing" textLength="106.8" x="875.7" y="603.7898">:AuthenticationRepository</text><rect fill="#E3E3E3" height="28.1859" rx="1.5" ry="1.5" style="stroke:#181818;stroke-width:0.3;" width="60.6" x="992.7" y="20.107"/><text fill="#000000" font-family="sans-serif" font-size="8.4" lengthAdjust="spacing" textLength="49.2" x="998.4" y="32.4281">userSession</text><text fill="#000000" font-family="sans-serif" font-size="8.4" lengthAdjust="spacing" textLength="52.2" x="996.9" y="42.3211">:UserSession</text><rect fill="#E3E3E3" height="28.1859" rx="1.5" ry="1.5" style="stroke:#181818;stroke-width:0.3;" width="60.6" x="992.7" y="581.5758"/><text fill="#000000" font-family="sans-serif" font-size="8.4" lengthAdjust="spacing" textLength="49.2" x="998.4" y="593.8969">userSession</text><text fill="#000000" font-family="sans-serif" font-size="8.4" lengthAdjust="spacing" textLength="52.2" x="996.9" y="603.7898">:UserSession</text><rect fill="#E3E3E3" height="28.1859" rx="1.5" ry="1.5" style="stroke:#181818;stroke-width:0.3;" width="52.8" x="1059.3" y="20.107"/><text fill="#000000" font-family="sans-serif" font-size="8.4" lengthAdjust="spacing" textLength="39.6" x="1065.9" y="32.4281">employee</text><text fill="#000000" font-family="sans-serif" font-size="8.4" lengthAdjust="spacing" textLength="44.4" x="1063.5" y="42.3211">: Employee</text><rect fill="#E3E3E3" height="28.1859" rx="1.5" ry="1.5" style="stroke:#181818;stroke-width:0.3;" width="52.8" x="1059.3" y="581.5758"/><text fill="#000000" font-family="sans-serif" font-size="8.4" lengthAdjust="spacing" textLength="39.6" x="1065.9" y="593.8969">employee</text><text fill="#000000" font-family="sans-serif" font-size="8.4" lengthAdjust="spacing" textLength="44.4" x="1063.5" y="603.7898">: Employee</text><rect fill="#E3E3E3" height="18.293" rx="1.5" ry="1.5" style="stroke:#181818;stroke-width:0.3;" width="31.8" x="1229.4" y="30"/><text fill="#000000" font-family="sans-serif" font-size="8.4" lengthAdjust="spacing" textLength="23.4" x="1233.6" y="42.3211">:Entry</text><rect fill="#E3E3E3" height="18.293" rx="1.5" ry="1.5" style="stroke:#181818;stroke-width:0.3;" width="31.8" x="1229.4" y="581.5758"/><text fill="#000000" font-family="sans-serif" font-size="8.4" lengthAdjust="spacing" textLength="23.4" x="1233.6" y="593.8969">:Entry</text><rect fill="#FFFFFF" height="516.4828" style="stroke:#181818;stroke-width:0.6;" width="6" x="46.5" y="54.893"/><rect fill="#FFFFFF" height="257.9016" style="stroke:#181818;stroke-width:0.6;" width="6" x="258.3" y="137.6109"/><rect fill="#FFFFFF" height="17.5863" style="stroke:#181818;stroke-width:0.6;" width="6" x="258.3" y="413.0988"/><rect fill="#FFFFFF" height="123.1043" style="stroke:#181818;stroke-width:0.6;" width="6" x="258.3" y="448.2715"/><rect fill="#FFFFFF" height="197.8359" style="stroke:#181818;stroke-width:0.6;" width="6" x="536.1" y="180.0902"/><rect fill="#FFFFFF" height="87.9316" style="stroke:#181818;stroke-width:0.6;" width="6" x="536.1" y="465.8578"/><rect fill="#FFFFFF" height="17.5863" style="stroke:#181818;stroke-width:0.6;" width="6" x="662.1" y="197.6766"/><rect fill="#FFFFFF" height="57.1453" style="stroke:#181818;stroke-width:0.6;" width="6" x="662.1" y="232.8492"/><rect fill="#FFFFFF" height="17.5863" style="stroke:#181818;stroke-width:0.6;" width="6" x="729.9" y="307.5809"/><rect fill="#FFFFFF" height="17.5863" style="stroke:#181818;stroke-width:0.6;" width="6" x="819.3" y="342.7535"/><rect fill="#FFFFFF" height="52.759" style="stroke:#181818;stroke-width:0.6;" width="6" x="1082.7" y="483.4441"/><rect fill="#FFFFFF" height="17.5863" style="stroke:#181818;stroke-width:0.6;" width="6" x="1242.3" y="501.0305"/><path d="M55.2,57.893 L55.2,90.893 L231,90.893 L231,63.893 L225,57.893 L55.2,57.893 " fill="#FAFAFA" style="stroke:#181818;stroke-width:0.3;"/><path d="M225,57.893 L225,63.893 L231,63.893 L225,57.893 " fill="#FAFAFA" style="stroke:#181818;stroke-width:0.3;"/><text fill="#000000" font-family="sans-serif" font-size="7.8" lengthAdjust="spacing" textLength="163.2" x="58.8" y="68.434">- The user is already logged in at this step.</text><text fill="#000000" font-family="sans-serif" font-size="7.8" lengthAdjust="spacing" textLength="158.4" x="58.8" y="77.6203">- Authentication sequence is explained in</text><text fill="#000000" font-family="sans-serif" font-size="7.8" lengthAdjust="spacing" textLength="75" x="58.8" y="86.8066">a sequence excerpt.</text><path d="M667.8,97.452 L667.8,121.452 L732,121.452 L732,103.452 L726,97.452 L667.8,97.452 " fill="#FAFAFA" style="stroke:#181818;stroke-width:0.3;"/><path d="M726,97.452 L726,103.452 L732,103.452 L726,97.452 " fill="#FAFAFA" style="stroke:#181818;stroke-width:0.3;"/><text fill="#000000" font-family="sans-serif" font-size="7.8" lengthAdjust="spacing" textLength="51.6" x="671.4" y="107.993">- Singleton is</text><text fill="#000000" font-family="sans-serif" font-size="7.8" lengthAdjust="spacing" textLength="22.8" x="671.4" y="117.1793">in use</text><polygon fill="#181818" points="251.1,135.2109,257.1,137.6109,251.1,140.0109,253.5,137.6109" style="stroke:#181818;stroke-width:0.6;"/><line style="stroke:#181818;stroke-width:0.6;" x1="52.5" x2="254.7" y1="137.6109" y2="137.6109"/><text fill="#000000" font-family="sans-serif" font-size="7.8" font-weight="bold" lengthAdjust="spacing" textLength="5.4" x="56.7" y="134.7656">1</text><text fill="#000000" font-family="sans-serif" font-size="7.8" lengthAdjust="spacing" textLength="153.6" x="64.5" y="134.7656">Asks to cancel an entry from the Agenda</text><polygon fill="#181818" points="465.3,152.7973,471.3,155.1973,465.3,157.5973,467.7,155.1973" style="stroke:#181818;stroke-width:0.6;"/><line style="stroke:#181818;stroke-width:0.6;" x1="264.3" x2="468.9" y1="155.1973" y2="155.1973"/><text fill="#000000" font-family="sans-serif" font-size="7.8" font-weight="bold" lengthAdjust="spacing" textLength="5.4" x="268.5" y="152.352">2</text><text fill="#000000" font-family="sans-serif" font-size="7.8" lengthAdjust="spacing" textLength="22.8" x="276.3" y="152.352">create</text><rect fill="#E3E3E3" height="18.293" rx="1.5" ry="1.5" style="stroke:#181818;stroke-width:0.3;" width="133.2" x="472.5" y="142.4109"/><text fill="#000000" font-family="sans-serif" font-size="8.4" lengthAdjust="spacing" textLength="124.8" x="476.7" y="154.732">:CancelAgendaEntryController</text><polygon fill="#181818" points="528.9,177.6902,534.9,180.0902,528.9,182.4902,531.3,180.0902" style="stroke:#181818;stroke-width:0.6;"/><line style="stroke:#181818;stroke-width:0.6;" x1="264.3" x2="532.5" y1="180.0902" y2="180.0902"/><text fill="#000000" font-family="sans-serif" font-size="7.8" font-weight="bold" lengthAdjust="spacing" textLength="5.4" x="268.5" y="177.2449">3</text><text fill="#000000" font-family="sans-serif" font-size="7.8" lengthAdjust="spacing" textLength="252.6" x="276.3" y="177.2449">getEntriesFromAgendaStartingFrom(currentDate, status="Planned")</text><polygon fill="#181818" points="654.9,195.2766,660.9,197.6766,654.9,200.0766,657.3,197.6766" style="stroke:#181818;stroke-width:0.6;"/><line style="stroke:#181818;stroke-width:0.6;" x1="542.1" x2="658.5" y1="197.6766" y2="197.6766"/><text fill="#000000" font-family="sans-serif" font-size="7.8" font-weight="bold" lengthAdjust="spacing" textLength="5.4" x="546.3" y="194.8312">4</text><text fill="#000000" font-family="sans-serif" font-size="7.8" lengthAdjust="spacing" textLength="48.6" x="554.1" y="194.8312">getInstance()</text><polygon fill="#181818" points="548.7,212.8629,542.7,215.2629,548.7,217.6629,546.3,215.2629" style="stroke:#181818;stroke-width:0.6;"/><line style="stroke:#181818;stroke-width:0.6;stroke-dasharray:2.0,2.0;" x1="545.1" x2="664.5" y1="215.2629" y2="215.2629"/><text fill="#000000" font-family="sans-serif" font-size="7.8" font-weight="bold" lengthAdjust="spacing" textLength="5.4" x="552.3" y="212.4176">5</text><text fill="#000000" font-family="sans-serif" font-size="7.8" lengthAdjust="spacing" textLength="45" x="560.1" y="212.4176">repositories</text><polygon fill="#181818" points="654.9,230.4492,660.9,232.8492,654.9,235.2492,657.3,232.8492" style="stroke:#181818;stroke-width:0.6;"/><line style="stroke:#181818;stroke-width:0.6;" x1="542.1" x2="658.5" y1="232.8492" y2="232.8492"/><text fill="#000000" font-family="sans-serif" font-size="7.8" font-weight="bold" lengthAdjust="spacing" textLength="5.4" x="546.3" y="230.0039">6</text><text fill="#000000" font-family="sans-serif" font-size="7.8" lengthAdjust="spacing" textLength="100.8" x="554.1" y="230.0039">getEmployeeFromSession()</text><path d="M544.8,240.6492 L544.8,273.6492 L660,273.6492 L660,246.6492 L654,240.6492 L544.8,240.6492 " fill="#FAFAFA" style="stroke:#181818;stroke-width:0.3;"/><path d="M654,240.6492 L654,246.6492 L660,246.6492 L654,240.6492 " fill="#FAFAFA" style="stroke:#181818;stroke-width:0.3;"/><text fill="#000000" font-family="sans-serif" font-size="7.8" lengthAdjust="spacing" textLength="102.6" x="548.4" y="251.1902">- This method is explained</text><text fill="#000000" font-family="sans-serif" font-size="7.8" lengthAdjust="spacing" textLength="82.2" x="548.4" y="260.3766">in detail in an excerpt</text><text fill="#000000" font-family="sans-serif" font-size="7.8" lengthAdjust="spacing" textLength="70.8" x="548.4" y="269.5629">sequence diagram.</text><polygon fill="#181818" points="548.7,287.5945,542.7,289.9945,548.7,292.3945,546.3,289.9945" style="stroke:#181818;stroke-width:0.6;"/><line style="stroke:#181818;stroke-width:0.6;stroke-dasharray:2.0,2.0;" x1="545.1" x2="664.5" y1="289.9945" y2="289.9945"/><text fill="#000000" font-family="sans-serif" font-size="7.8" font-weight="bold" lengthAdjust="spacing" textLength="5.4" x="552.3" y="287.1492">7</text><text fill="#000000" font-family="sans-serif" font-size="7.8" lengthAdjust="spacing" textLength="36" x="560.1" y="287.1492">employee</text><polygon fill="#181818" points="722.7,305.1809,728.7,307.5809,722.7,309.9809,725.1,307.5809" style="stroke:#181818;stroke-width:0.6;"/><line style="stroke:#181818;stroke-width:0.6;" x1="542.1" x2="726.3" y1="307.5809" y2="307.5809"/><text fill="#000000" font-family="sans-serif" font-size="7.8" font-weight="bold" lengthAdjust="spacing" textLength="5.4" x="546.3" y="304.7355">8</text><text fill="#000000" font-family="sans-serif" font-size="7.8" lengthAdjust="spacing" textLength="85.2" x="554.1" y="304.7355">getAgendaRepository()</text><polygon fill="#181818" points="548.7,322.7672,542.7,325.1672,548.7,327.5672,546.3,325.1672" style="stroke:#181818;stroke-width:0.6;"/><line style="stroke:#181818;stroke-width:0.6;stroke-dasharray:2.0,2.0;" x1="545.1" x2="732.3" y1="325.1672" y2="325.1672"/><text fill="#000000" font-family="sans-serif" font-size="7.8" font-weight="bold" lengthAdjust="spacing" textLength="5.4" x="552.3" y="322.3219">9</text><text fill="#000000" font-family="sans-serif" font-size="7.8" lengthAdjust="spacing" textLength="67.2" x="560.1" y="322.3219">agendaRepository</text><polygon fill="#181818" points="812.1,340.3535,818.1,342.7535,812.1,345.1535,814.5,342.7535" style="stroke:#181818;stroke-width:0.6;"/><line style="stroke:#181818;stroke-width:0.6;" x1="542.1" x2="815.7" y1="342.7535" y2="342.7535"/><text fill="#000000" font-family="sans-serif" font-size="7.8" font-weight="bold" lengthAdjust="spacing" textLength="10.8" x="546.3" y="339.9082">10</text><text fill="#000000" font-family="sans-serif" font-size="7.8" lengthAdjust="spacing" textLength="252.6" x="559.5" y="339.9082">getEntriesFromAgendaStartingFrom(currentDate, status="Planned")</text><polygon fill="#181818" points="548.7,357.9398,542.7,360.3398,548.7,362.7398,546.3,360.3398" style="stroke:#181818;stroke-width:0.6;"/><line style="stroke:#181818;stroke-width:0.6;stroke-dasharray:2.0,2.0;" x1="545.1" x2="821.7" y1="360.3398" y2="360.3398"/><text fill="#000000" font-family="sans-serif" font-size="7.8" font-weight="bold" lengthAdjust="spacing" textLength="10.8" x="552.3" y="357.4945">11</text><text fill="#000000" font-family="sans-serif" font-size="7.8" lengthAdjust="spacing" textLength="48.6" x="565.5" y="357.4945">futureEntries</text><polygon fill="#181818" points="270.9,375.5262,264.9,377.9262,270.9,380.3262,268.5,377.9262" style="stroke:#181818;stroke-width:0.6;"/><line style="stroke:#181818;stroke-width:0.6;stroke-dasharray:2.0,2.0;" x1="267.3" x2="538.5" y1="377.9262" y2="377.9262"/><text fill="#000000" font-family="sans-serif" font-size="7.8" font-weight="bold" lengthAdjust="spacing" textLength="10.8" x="274.5" y="375.0809">12</text><text fill="#000000" font-family="sans-serif" font-size="7.8" lengthAdjust="spacing" textLength="48.6" x="287.7" y="375.0809">futureEntries</text><polygon fill="#181818" points="59.1,393.1125,53.1,395.5125,59.1,397.9125,56.7,395.5125" style="stroke:#181818;stroke-width:0.6;"/><line style="stroke:#181818;stroke-width:0.6;stroke-dasharray:2.0,2.0;" x1="55.5" x2="260.7" y1="395.5125" y2="395.5125"/><text fill="#000000" font-family="sans-serif" font-size="7.8" font-weight="bold" lengthAdjust="spacing" textLength="10.8" x="62.7" y="392.6672">13</text><text fill="#000000" font-family="sans-serif" font-size="7.8" lengthAdjust="spacing" textLength="132" x="75.9" y="392.6672">Shows the entries from the Agenda</text><polygon fill="#181818" points="251.1,410.6988,257.1,413.0988,251.1,415.4988,253.5,413.0988" style="stroke:#181818;stroke-width:0.6;"/><line style="stroke:#181818;stroke-width:0.6;" x1="52.5" x2="254.7" y1="413.0988" y2="413.0988"/><text fill="#000000" font-family="sans-serif" font-size="7.8" font-weight="bold" lengthAdjust="spacing" textLength="10.8" x="56.7" y="410.2535">14</text><text fill="#000000" font-family="sans-serif" font-size="7.8" lengthAdjust="spacing" textLength="64.2" x="69.9" y="410.2535">Selects one entry</text><polygon fill="#181818" points="59.1,428.2852,53.1,430.6852,59.1,433.0852,56.7,430.6852" style="stroke:#181818;stroke-width:0.6;"/><line style="stroke:#181818;stroke-width:0.6;stroke-dasharray:2.0,2.0;" x1="55.5" x2="260.7" y1="430.6852" y2="430.6852"/><text fill="#000000" font-family="sans-serif" font-size="7.8" font-weight="bold" lengthAdjust="spacing" textLength="10.8" x="62.7" y="427.8398">15</text><text fill="#000000" font-family="sans-serif" font-size="7.8" lengthAdjust="spacing" textLength="178.2" x="75.9" y="427.8398">Shows selected data and requests confirmation</text><polygon fill="#181818" points="251.1,445.8715,257.1,448.2715,251.1,450.6715,253.5,448.2715" style="stroke:#181818;stroke-width:0.6;"/><line style="stroke:#181818;stroke-width:0.6;" x1="52.5" x2="254.7" y1="448.2715" y2="448.2715"/><text fill="#000000" font-family="sans-serif" font-size="7.8" font-weight="bold" lengthAdjust="spacing" textLength="10.8" x="56.7" y="445.4262">16</text><text fill="#000000" font-family="sans-serif" font-size="7.8" lengthAdjust="spacing" textLength="73.2" x="69.9" y="445.4262">Confirms operation</text><polygon fill="#181818" points="528.9,463.4578,534.9,465.8578,528.9,468.2578,531.3,465.8578" style="stroke:#181818;stroke-width:0.6;"/><line style="stroke:#181818;stroke-width:0.6;" x1="264.3" x2="532.5" y1="465.8578" y2="465.8578"/><text fill="#000000" font-family="sans-serif" font-size="7.8" font-weight="bold" lengthAdjust="spacing" textLength="10.8" x="268.5" y="463.0125">17</text><text fill="#000000" font-family="sans-serif" font-size="7.8" lengthAdjust="spacing" textLength="98.4" x="281.7" y="463.0125">cancelEntry(selectedEntry)</text><polygon fill="#181818" points="1075.5,481.0441,1081.5,483.4441,1075.5,485.8441,1077.9,483.4441" style="stroke:#181818;stroke-width:0.6;"/><line style="stroke:#181818;stroke-width:0.6;" x1="542.1" x2="1079.1" y1="483.4441" y2="483.4441"/><text fill="#000000" font-family="sans-serif" font-size="7.8" font-weight="bold" lengthAdjust="spacing" textLength="10.8" x="546.3" y="480.5988">18</text><text fill="#000000" font-family="sans-serif" font-size="7.8" lengthAdjust="spacing" textLength="98.4" x="559.5" y="480.5988">cancelEntry(selectedEntry)</text><polygon fill="#181818" points="1235.1,498.6305,1241.1,501.0305,1235.1,503.4305,1237.5,501.0305" style="stroke:#181818;stroke-width:0.6;"/><line style="stroke:#181818;stroke-width:0.6;" x1="1088.7" x2="1238.7" y1="501.0305" y2="501.0305"/><text fill="#000000" font-family="sans-serif" font-size="7.8" font-weight="bold" lengthAdjust="spacing" textLength="10.8" x="1092.9" y="498.1852">19</text><text fill="#000000" font-family="sans-serif" font-size="7.8" lengthAdjust="spacing" textLength="129" x="1106.1" y="498.1852">setStatus(clonnedEntry, "Planned")</text><polygon fill="#181818" points="1095.3,516.2168,1089.3,518.6168,1095.3,521.0168,1092.9,518.6168" style="stroke:#181818;stroke-width:0.6;"/><line style="stroke:#181818;stroke-width:0.6;stroke-dasharray:2.0,2.0;" x1="1091.7" x2="1244.7" y1="518.6168" y2="518.6168"/><text fill="#000000" font-family="sans-serif" font-size="7.8" font-weight="bold" lengthAdjust="spacing" textLength="10.8" x="1098.9" y="515.7715">20</text><text fill="#000000" font-family="sans-serif" font-size="7.8" lengthAdjust="spacing" textLength="52.2" x="1112.1" y="515.7715">canceledEntry</text><polygon fill="#181818" points="548.7,533.8031,542.7,536.2031,548.7,538.6031,546.3,536.2031" style="stroke:#181818;stroke-width:0.6;"/><line style="stroke:#181818;stroke-width:0.6;stroke-dasharray:2.0,2.0;" x1="545.1" x2="1085.1" y1="536.2031" y2="536.2031"/><text fill="#000000" font-family="sans-serif" font-size="7.8" font-weight="bold" lengthAdjust="spacing" textLength="10.8" x="552.3" y="533.3578">21</text><text fill="#000000" font-family="sans-serif" font-size="7.8" lengthAdjust="spacing" textLength="52.2" x="565.5" y="533.3578">canceledEntry</text><polygon fill="#181818" points="270.9,551.3895,264.9,553.7895,270.9,556.1895,268.5,553.7895" style="stroke:#181818;stroke-width:0.6;"/><line style="stroke:#181818;stroke-width:0.6;stroke-dasharray:2.0,2.0;" x1="267.3" x2="538.5" y1="553.7895" y2="553.7895"/><text fill="#000000" font-family="sans-serif" font-size="7.8" font-weight="bold" lengthAdjust="spacing" textLength="10.8" x="274.5" y="550.9441">22</text><text fill="#000000" font-family="sans-serif" font-size="7.8" lengthAdjust="spacing" textLength="52.2" x="287.7" y="550.9441">canceledEntry</text><polygon fill="#181818" points="56.1,568.9758,50.1,571.3758,56.1,573.7758,53.7,571.3758" style="stroke:#181818;stroke-width:0.6;"/><line style="stroke:#181818;stroke-width:0.6;stroke-dasharray:2.0,2.0;" x1="52.5" x2="260.7" y1="571.3758" y2="571.3758"/><text fill="#000000" font-family="sans-serif" font-size="7.8" font-weight="bold" lengthAdjust="spacing" textLength="10.8" x="59.7" y="568.5305">23</text><text fill="#000000" font-family="sans-serif" font-size="7.8" lengthAdjust="spacing" textLength="138.6" x="72.9" y="568.5305">Displays operation success message</text><!--SRC=[hLR9Rjim4BthAmQ-r0cIV8215Z0ID_KXJM0bjm818uqb8ZAfabGJ_ts7r4fjJelmO9ZYp9itAwbVkSYPOWSuI26ZLCa3Wb451hevoLdqoX8CpJ53K1WP9fAiAw1J5iitBXBOiqnZ4B32I54SNb05mPUKnmXxASsBV0zOPAI2nQr2510ICi8T4uIk5i0qt8Pt0M4Q7l6S2GEBrJKJ4MRh14NCDiAeuzFMIJvjJmbUI_gLMLP1HyssfxZ3N6fEj3Xg9wcvzOyyy0LLH-wN6AhHkQ_079T6xaXAwzudfzYNww4K9aL1UsQu53xQn953NJyz_dZURHxkVRX2emfHQr8WXATsLqOrt3s7cp3Stl_qrV2GP_A8I3gmgVuxZRlRNI-UBlZk3Es_80Y4D5GuF4aDoBtBCT2wXCSKmV81Ja785BBu29bC4eo12s06J4edsc1-LMdu7eF6tmLIsYq0lkSPuyBfEcdM7kDxX2etLm456YoRFgSsvQMTiDuJilj4V8XfHvyAcVzXX67TSI9sqGOklr5nmcgjNpKO2P6hIs2Y30VigSN8COIo5bhT1f5Ak_be5w4HPbk_v-UmWeZ2PNdC2P9OWiRcWshqEzajJOR6vaiaziioAfGYOZS4Ta6XPgRGNnSF6HCKoSMP1zyGxBII9s1NnpfnQU9QKjaAia3XM9uDz1hmDXK36RjQn4lFrnLq-tEW6kD73CoIhylUXgtg6V9ZWE4NLYTKOzxO7g3QFQ19PUnLyQWuLM6CXl7CzOUewteyK7NnnvmbDAMl1b9jCVzFCgOIGS6gXqNmAMcWl9O9w0_FkIgomtWqB1QjNpc30Jn3UnJO9zo7- -GszFmSK1zrUi1eaB9zOGg55SVPl0qjpeQZceOz0nFOKuF53ZO2ijDr1M4gtxIRe5YY3KTgC8BTdQgTCHrYHYyQ3L9WVL-D1he_b7rQDIljqEWEYfbXrA4nrGkreJRk_R7dwk0khc0g01CauRfK9fevgX483-3KdL3UIEwQNjQ4tUviPX9yVERJY-0VZNY6x8DYLC8kYqqcofjqfT64hbMMKIPjfpW35z1fd4canjv8qeU3qbGzq_MjCZUjsidh2IFEhV4qpLhfM9WDsrX3de3_G5VsE_E6QxgyZfqY1Lr44LsLTC5fJODZjkuxM_kc-Wi0]--></g></svg>