<?xml version="1.0" encoding="us-ascii" standalone="no"?><svg xmlns="http://www.w3.org/2000/svg" xmlns:xlink="http://www.w3.org/1999/xlink" contentStyleType="text/css" height="1128px" preserveAspectRatio="none" style="width:2119px;height:1128px;background:#FFFFFF;" version="1.1" viewBox="0 0 2119 1128" width="2119px" zoomAndPan="magnify"><defs/><g><rect fill="#FFFFFF" height="938.4258" style="stroke:#181818;stroke-width:1.0;" width="10" x="77.5" y="91.4883"/><rect fill="#FFFFFF" height="429.8359" style="stroke:#181818;stroke-width:1.0;" width="10" x="430.5" y="229.3516"/><rect fill="#FFFFFF" height="29.3105" style="stroke:#181818;stroke-width:1.0;" width="10" x="430.5" y="688.498"/><rect fill="#FFFFFF" height="282.7949" style="stroke:#181818;stroke-width:1.0;" width="10" x="430.5" y="747.1191"/><rect fill="#FFFFFF" height="329.7266" style="stroke:#181818;stroke-width:1.0;" width="10" x="893.5" y="300.1504"/><rect fill="#FFFFFF" height="224.1738" style="stroke:#181818;stroke-width:1.0;" width="10" x="893.5" y="776.4297"/><rect fill="#FFFFFF" height="29.3105" style="stroke:#181818;stroke-width:1.0;" width="10" x="1103.5" y="329.4609"/><rect fill="#FFFFFF" height="95.2422" style="stroke:#181818;stroke-width:1.0;" width="10" x="1103.5" y="388.082"/><rect fill="#FFFFFF" height="29.3105" style="stroke:#181818;stroke-width:1.0;" width="10" x="1216.5" y="512.6348"/><rect fill="#FFFFFF" height="29.3105" style="stroke:#181818;stroke-width:1.0;" width="10" x="1365.5" y="571.2559"/><rect fill="#FFFFFF" height="165.5527" style="stroke:#181818;stroke-width:1.0;" width="10" x="1804.5" y="805.7402"/><rect fill="#FFFFFF" height="29.3105" style="stroke:#181818;stroke-width:1.0;" width="10" x="2070.5" y="912.6719"/><line style="stroke:#181818;stroke-width:0.5;stroke-dasharray:5.0,5.0;" x1="82" x2="82" y1="81.4883" y2="1047.9141"/><line style="stroke:#181818;stroke-width:0.5;stroke-dasharray:5.0,5.0;" x1="435.5" x2="435.5" y1="81.4883" y2="1047.9141"/><line style="stroke:#181818;stroke-width:0.5;stroke-dasharray:5.0,5.0;" x1="898.5" x2="898.5" y1="268.0957" y2="1047.9141"/><line style="stroke:#181818;stroke-width:0.5;stroke-dasharray:5.0,5.0;" x1="1108" x2="1108" y1="81.4883" y2="1047.9141"/><line style="stroke:#181818;stroke-width:0.5;stroke-dasharray:5.0,5.0;" x1="1221" x2="1221" y1="81.4883" y2="1047.9141"/><line style="stroke:#181818;stroke-width:0.5;stroke-dasharray:5.0,5.0;" x1="1370.5" x2="1370.5" y1="81.4883" y2="1047.9141"/><line style="stroke:#181818;stroke-width:0.5;stroke-dasharray:5.0,5.0;" x1="1548.5" x2="1548.5" y1="81.4883" y2="1047.9141"/><line style="stroke:#181818;stroke-width:0.5;stroke-dasharray:5.0,5.0;" x1="1704.5" x2="1704.5" y1="81.4883" y2="1047.9141"/><line style="stroke:#181818;stroke-width:0.5;stroke-dasharray:5.0,5.0;" x1="1809.5" x2="1809.5" y1="81.4883" y2="1047.9141"/><line style="stroke:#181818;stroke-width:0.5;stroke-dasharray:5.0,5.0;" x1="2075" x2="2075" y1="81.4883" y2="1047.9141"/><text fill="#000000" font-family="sans-serif" font-size="14" lengthAdjust="spacing" textLength="149" x="5" y="78.5352">Green Space Manager</text><ellipse cx="82.5" cy="13.5" fill="#E3E3E3" rx="8" ry="8" style="stroke:#181818;stroke-width:0.5;"/><path d="M82.5,21.5 L82.5,48.5 M69.5,29.5 L95.5,29.5 M82.5,48.5 L69.5,63.5 M82.5,48.5 L95.5,63.5 " fill="none" style="stroke:#181818;stroke-width:0.5;"/><text fill="#000000" font-family="sans-serif" font-size="14" lengthAdjust="spacing" textLength="149" x="5" y="1060.4492">Green Space Manager</text><ellipse cx="82.5" cy="1071.9023" fill="#E3E3E3" rx="8" ry="8" style="stroke:#181818;stroke-width:0.5;"/><path d="M82.5,1079.9023 L82.5,1106.9023 M69.5,1087.9023 L95.5,1087.9023 M82.5,1106.9023 L69.5,1121.9023 M82.5,1106.9023 L95.5,1121.9023 " fill="none" style="stroke:#181818;stroke-width:0.5;"/><rect fill="#E3E3E3" height="30.4883" rx="2.5" ry="2.5" style="stroke:#181818;stroke-width:0.5;" width="166" x="352.5" y="50"/><text fill="#000000" font-family="sans-serif" font-size="14" lengthAdjust="spacing" textLength="152" x="359.5" y="70.5352">:CancelAgendaEntryUI</text><rect fill="#E3E3E3" height="30.4883" rx="2.5" ry="2.5" style="stroke:#181818;stroke-width:0.5;" width="166" x="352.5" y="1046.9141"/><text fill="#000000" font-family="sans-serif" font-size="14" lengthAdjust="spacing" textLength="152" x="359.5" y="1067.4492">:CancelAgendaEntryUI</text><rect fill="#E3E3E3" height="30.4883" rx="2.5" ry="2.5" style="stroke:#181818;stroke-width:0.5;" width="222" x="787.5" y="1046.9141"/><text fill="#000000" font-family="sans-serif" font-size="14" lengthAdjust="spacing" textLength="208" x="794.5" y="1067.4492">:CancelAgendaEntryController</text><rect fill="#E3E3E3" height="30.4883" rx="2.5" ry="2.5" style="stroke:#181818;stroke-width:0.5;" width="103" x="1057" y="50"/><text fill="#000000" font-family="sans-serif" font-size="14" lengthAdjust="spacing" textLength="89" x="1064" y="70.5352">:Repositories</text><rect fill="#E3E3E3" height="30.4883" rx="2.5" ry="2.5" style="stroke:#181818;stroke-width:0.5;" width="103" x="1057" y="1046.9141"/><text fill="#000000" font-family="sans-serif" font-size="14" lengthAdjust="spacing" textLength="89" x="1064" y="1067.4492">:Repositories</text><rect fill="#E3E3E3" height="46.9766" rx="2.5" ry="2.5" style="stroke:#181818;stroke-width:0.5;" width="103" x="1170" y="33.5117"/><text fill="#000000" font-family="sans-serif" font-size="14" lengthAdjust="spacing" textLength="82" x="1180.5" y="54.0469">repositories</text><text fill="#000000" font-family="sans-serif" font-size="14" lengthAdjust="spacing" textLength="89" x="1177" y="70.5352">:Repositories</text><rect fill="#E3E3E3" height="46.9766" rx="2.5" ry="2.5" style="stroke:#181818;stroke-width:0.5;" width="103" x="1170" y="1046.9141"/><text fill="#000000" font-family="sans-serif" font-size="14" lengthAdjust="spacing" textLength="82" x="1180.5" y="1067.4492">repositories</text><text fill="#000000" font-family="sans-serif" font-size="14" lengthAdjust="spacing" textLength="89" x="1177" y="1083.9375">:Repositories</text><rect fill="#E3E3E3" height="46.9766" rx="2.5" ry="2.5" style="stroke:#181818;stroke-width:0.5;" width="144" x="1298.5" y="33.5117"/><text fill="#000000" font-family="sans-serif" font-size="14" lengthAdjust="spacing" textLength="124" x="1308.5" y="54.0469">agendaRepository</text><text fill="#000000" font-family="sans-serif" font-size="14" lengthAdjust="spacing" textLength="130" x="1305.5" y="70.5352">:AgendaRepository</text><rect fill="#E3E3E3" height="46.9766" rx="2.5" ry="2.5" style="stroke:#181818;stroke-width:0.5;" width="144" x="1298.5" y="1046.9141"/><text fill="#000000" font-family="sans-serif" font-size="14" lengthAdjust="spacing" textLength="124" x="1308.5" y="1067.4492">agendaRepository</text><text fill="#000000" font-family="sans-serif" font-size="14" lengthAdjust="spacing" textLength="130" x="1305.5" y="1083.9375">:AgendaRepository</text><rect fill="#E3E3E3" height="46.9766" rx="2.5" ry="2.5" style="stroke:#181818;stroke-width:0.5;" width="192" x="1452.5" y="33.5117"/><text fill="#000000" font-family="sans-serif" font-size="14" lengthAdjust="spacing" textLength="172" x="1462.5" y="54.0469">authenticationRepository</text><text fill="#000000" font-family="sans-serif" font-size="14" lengthAdjust="spacing" textLength="178" x="1459.5" y="70.5352">:AuthenticationRepository</text><rect fill="#E3E3E3" height="46.9766" rx="2.5" ry="2.5" style="stroke:#181818;stroke-width:0.5;" width="192" x="1452.5" y="1046.9141"/><text fill="#000000" font-family="sans-serif" font-size="14" lengthAdjust="spacing" textLength="172" x="1462.5" y="1067.4492">authenticationRepository</text><text fill="#000000" font-family="sans-serif" font-size="14" lengthAdjust="spacing" textLength="178" x="1459.5" y="1083.9375">:AuthenticationRepository</text><rect fill="#E3E3E3" height="46.9766" rx="2.5" ry="2.5" style="stroke:#181818;stroke-width:0.5;" width="101" x="1654.5" y="33.5117"/><text fill="#000000" font-family="sans-serif" font-size="14" lengthAdjust="spacing" textLength="82" x="1664" y="54.0469">userSession</text><text fill="#000000" font-family="sans-serif" font-size="14" lengthAdjust="spacing" textLength="87" x="1661.5" y="70.5352">:UserSession</text><rect fill="#E3E3E3" height="46.9766" rx="2.5" ry="2.5" style="stroke:#181818;stroke-width:0.5;" width="101" x="1654.5" y="1046.9141"/><text fill="#000000" font-family="sans-serif" font-size="14" lengthAdjust="spacing" textLength="82" x="1664" y="1067.4492">userSession</text><text fill="#000000" font-family="sans-serif" font-size="14" lengthAdjust="spacing" textLength="87" x="1661.5" y="1083.9375">:UserSession</text><rect fill="#E3E3E3" height="46.9766" rx="2.5" ry="2.5" style="stroke:#181818;stroke-width:0.5;" width="88" x="1765.5" y="33.5117"/><text fill="#000000" font-family="sans-serif" font-size="14" lengthAdjust="spacing" textLength="66" x="1776.5" y="54.0469">employee</text><text fill="#000000" font-family="sans-serif" font-size="14" lengthAdjust="spacing" textLength="74" x="1772.5" y="70.5352">: Employee</text><rect fill="#E3E3E3" height="46.9766" rx="2.5" ry="2.5" style="stroke:#181818;stroke-width:0.5;" width="88" x="1765.5" y="1046.9141"/><text fill="#000000" font-family="sans-serif" font-size="14" lengthAdjust="spacing" textLength="66" x="1776.5" y="1067.4492">employee</text><text fill="#000000" font-family="sans-serif" font-size="14" lengthAdjust="spacing" textLength="74" x="1772.5" y="1083.9375">: Employee</text><rect fill="#E3E3E3" height="30.4883" rx="2.5" ry="2.5" style="stroke:#181818;stroke-width:0.5;" width="53" x="2049" y="50"/><text fill="#000000" font-family="sans-serif" font-size="14" lengthAdjust="spacing" textLength="39" x="2056" y="70.5352">:Entry</text><rect fill="#E3E3E3" height="30.4883" rx="2.5" ry="2.5" style="stroke:#181818;stroke-width:0.5;" width="53" x="2049" y="1046.9141"/><text fill="#000000" font-family="sans-serif" font-size="14" lengthAdjust="spacing" textLength="39" x="2056" y="1067.4492">:Entry</text><rect fill="#FFFFFF" height="938.4258" style="stroke:#181818;stroke-width:1.0;" width="10" x="77.5" y="91.4883"/><rect fill="#FFFFFF" height="429.8359" style="stroke:#181818;stroke-width:1.0;" width="10" x="430.5" y="229.3516"/><rect fill="#FFFFFF" height="29.3105" style="stroke:#181818;stroke-width:1.0;" width="10" x="430.5" y="688.498"/><rect fill="#FFFFFF" height="282.7949" style="stroke:#181818;stroke-width:1.0;" width="10" x="430.5" y="747.1191"/><rect fill="#FFFFFF" height="329.7266" style="stroke:#181818;stroke-width:1.0;" width="10" x="893.5" y="300.1504"/><rect fill="#FFFFFF" height="224.1738" style="stroke:#181818;stroke-width:1.0;" width="10" x="893.5" y="776.4297"/><rect fill="#FFFFFF" height="29.3105" style="stroke:#181818;stroke-width:1.0;" width="10" x="1103.5" y="329.4609"/><rect fill="#FFFFFF" height="95.2422" style="stroke:#181818;stroke-width:1.0;" width="10" x="1103.5" y="388.082"/><rect fill="#FFFFFF" height="29.3105" style="stroke:#181818;stroke-width:1.0;" width="10" x="1216.5" y="512.6348"/><rect fill="#FFFFFF" height="29.3105" style="stroke:#181818;stroke-width:1.0;" width="10" x="1365.5" y="571.2559"/><rect fill="#FFFFFF" height="165.5527" style="stroke:#181818;stroke-width:1.0;" width="10" x="1804.5" y="805.7402"/><rect fill="#FFFFFF" height="29.3105" style="stroke:#181818;stroke-width:1.0;" width="10" x="2070.5" y="912.6719"/><path d="M92,96.4883 L92,151.4883 L385,151.4883 L385,106.4883 L375,96.4883 L92,96.4883 " fill="#FAFAFA" style="stroke:#181818;stroke-width:0.5;"/><path d="M375,96.4883 L375,106.4883 L385,106.4883 L375,96.4883 " fill="#FAFAFA" style="stroke:#181818;stroke-width:0.5;"/><text fill="#000000" font-family="sans-serif" font-size="13" lengthAdjust="spacing" textLength="272" x="98" y="114.0566">- The user is already logged in at this step.</text><text fill="#000000" font-family="sans-serif" font-size="13" lengthAdjust="spacing" textLength="264" x="98" y="129.3672">- Authentication sequence is explained in</text><text fill="#000000" font-family="sans-serif" font-size="13" lengthAdjust="spacing" textLength="125" x="98" y="144.6777">a sequence excerpt.</text><path d="M1113,162.4199 L1113,202.4199 L1220,202.4199 L1220,172.4199 L1210,162.4199 L1113,162.4199 " fill="#FAFAFA" style="stroke:#181818;stroke-width:0.5;"/><path d="M1210,162.4199 L1210,172.4199 L1220,172.4199 L1210,162.4199 " fill="#FAFAFA" style="stroke:#181818;stroke-width:0.5;"/><text fill="#000000" font-family="sans-serif" font-size="13" lengthAdjust="spacing" textLength="86" x="1119" y="179.9883">- Singleton is</text><text fill="#000000" font-family="sans-serif" font-size="13" lengthAdjust="spacing" textLength="38" x="1119" y="195.2988">in use</text><polygon fill="#181818" points="418.5,225.3516,428.5,229.3516,418.5,233.3516,422.5,229.3516" style="stroke:#181818;stroke-width:1.0;"/><line style="stroke:#181818;stroke-width:1.0;" x1="87.5" x2="424.5" y1="229.3516" y2="229.3516"/><text fill="#000000" font-family="sans-serif" font-size="13" font-weight="bold" lengthAdjust="spacing" textLength="9" x="94.5" y="224.6094">1</text><text fill="#000000" font-family="sans-serif" font-size="13" lengthAdjust="spacing" textLength="256" x="107.5" y="224.6094">Asks to cancel an entry from the Agenda</text><polygon fill="#181818" points="775.5,254.6621,785.5,258.6621,775.5,262.6621,779.5,258.6621" style="stroke:#181818;stroke-width:1.0;"/><line style="stroke:#181818;stroke-width:1.0;" x1="440.5" x2="781.5" y1="258.6621" y2="258.6621"/><text fill="#000000" font-family="sans-serif" font-size="13" font-weight="bold" lengthAdjust="spacing" textLength="9" x="447.5" y="253.9199">2</text><text fill="#000000" font-family="sans-serif" font-size="13" lengthAdjust="spacing" textLength="38" x="460.5" y="253.9199">create</text><rect fill="#E3E3E3" height="30.4883" rx="2.5" ry="2.5" style="stroke:#181818;stroke-width:0.5;" width="222" x="787.5" y="237.3516"/><text fill="#000000" font-family="sans-serif" font-size="14" lengthAdjust="spacing" textLength="208" x="794.5" y="257.8867">:CancelAgendaEntryController</text><polygon fill="#181818" points="881.5,296.1504,891.5,300.1504,881.5,304.1504,885.5,300.1504" style="stroke:#181818;stroke-width:1.0;"/><line style="stroke:#181818;stroke-width:1.0;" x1="440.5" x2="887.5" y1="300.1504" y2="300.1504"/><text fill="#000000" font-family="sans-serif" font-size="13" font-weight="bold" lengthAdjust="spacing" textLength="9" x="447.5" y="295.4082">3</text><text fill="#000000" font-family="sans-serif" font-size="13" lengthAdjust="spacing" textLength="421" x="460.5" y="295.4082">getEntriesFromAgendaStartingFrom(currentDate, status="Planned")</text><polygon fill="#181818" points="1091.5,325.4609,1101.5,329.4609,1091.5,333.4609,1095.5,329.4609" style="stroke:#181818;stroke-width:1.0;"/><line style="stroke:#181818;stroke-width:1.0;" x1="903.5" x2="1097.5" y1="329.4609" y2="329.4609"/><text fill="#000000" font-family="sans-serif" font-size="13" font-weight="bold" lengthAdjust="spacing" textLength="9" x="910.5" y="324.7188">4</text><text fill="#000000" font-family="sans-serif" font-size="13" lengthAdjust="spacing" textLength="81" x="923.5" y="324.7188">getInstance()</text><polygon fill="#181818" points="914.5,354.7715,904.5,358.7715,914.5,362.7715,910.5,358.7715" style="stroke:#181818;stroke-width:1.0;"/><line style="stroke:#181818;stroke-width:1.0;stroke-dasharray:2.0,2.0;" x1="908.5" x2="1107.5" y1="358.7715" y2="358.7715"/><text fill="#000000" font-family="sans-serif" font-size="13" font-weight="bold" lengthAdjust="spacing" textLength="9" x="920.5" y="354.0293">5</text><text fill="#000000" font-family="sans-serif" font-size="13" lengthAdjust="spacing" textLength="75" x="933.5" y="354.0293">repositories</text><polygon fill="#181818" points="1091.5,384.082,1101.5,388.082,1091.5,392.082,1095.5,388.082" style="stroke:#181818;stroke-width:1.0;"/><line style="stroke:#181818;stroke-width:1.0;" x1="903.5" x2="1097.5" y1="388.082" y2="388.082"/><text fill="#000000" font-family="sans-serif" font-size="13" font-weight="bold" lengthAdjust="spacing" textLength="9" x="910.5" y="383.3398">6</text><text fill="#000000" font-family="sans-serif" font-size="13" lengthAdjust="spacing" textLength="168" x="923.5" y="383.3398">getEmployeeFromSession()</text><path d="M908,401.082 L908,456.082 L1100,456.082 L1100,411.082 L1090,401.082 L908,401.082 " fill="#FAFAFA" style="stroke:#181818;stroke-width:0.5;"/><path d="M1090,401.082 L1090,411.082 L1100,411.082 L1090,401.082 " fill="#FAFAFA" style="stroke:#181818;stroke-width:0.5;"/><text fill="#000000" font-family="sans-serif" font-size="13" lengthAdjust="spacing" textLength="171" x="914" y="418.6504">- This method is explained</text><text fill="#000000" font-family="sans-serif" font-size="13" lengthAdjust="spacing" textLength="137" x="914" y="433.9609">in detail in an excerpt</text><text fill="#000000" font-family="sans-serif" font-size="13" lengthAdjust="spacing" textLength="118" x="914" y="449.2715">sequence diagram.</text><polygon fill="#181818" points="914.5,479.3242,904.5,483.3242,914.5,487.3242,910.5,483.3242" style="stroke:#181818;stroke-width:1.0;"/><line style="stroke:#181818;stroke-width:1.0;stroke-dasharray:2.0,2.0;" x1="908.5" x2="1107.5" y1="483.3242" y2="483.3242"/><text fill="#000000" font-family="sans-serif" font-size="13" font-weight="bold" lengthAdjust="spacing" textLength="9" x="920.5" y="478.582">7</text><text fill="#000000" font-family="sans-serif" font-size="13" lengthAdjust="spacing" textLength="60" x="933.5" y="478.582">employee</text><polygon fill="#181818" points="1204.5,508.6348,1214.5,512.6348,1204.5,516.6348,1208.5,512.6348" style="stroke:#181818;stroke-width:1.0;"/><line style="stroke:#181818;stroke-width:1.0;" x1="903.5" x2="1210.5" y1="512.6348" y2="512.6348"/><text fill="#000000" font-family="sans-serif" font-size="13" font-weight="bold" lengthAdjust="spacing" textLength="9" x="910.5" y="507.8926">8</text><text fill="#000000" font-family="sans-serif" font-size="13" lengthAdjust="spacing" textLength="142" x="923.5" y="507.8926">getAgendaRepository()</text><polygon fill="#181818" points="914.5,537.9453,904.5,541.9453,914.5,545.9453,910.5,541.9453" style="stroke:#181818;stroke-width:1.0;"/><line style="stroke:#181818;stroke-width:1.0;stroke-dasharray:2.0,2.0;" x1="908.5" x2="1220.5" y1="541.9453" y2="541.9453"/><text fill="#000000" font-family="sans-serif" font-size="13" font-weight="bold" lengthAdjust="spacing" textLength="9" x="920.5" y="537.2031">9</text><text fill="#000000" font-family="sans-serif" font-size="13" lengthAdjust="spacing" textLength="112" x="933.5" y="537.2031">agendaRepository</text><polygon fill="#181818" points="1353.5,567.2559,1363.5,571.2559,1353.5,575.2559,1357.5,571.2559" style="stroke:#181818;stroke-width:1.0;"/><line style="stroke:#181818;stroke-width:1.0;" x1="903.5" x2="1359.5" y1="571.2559" y2="571.2559"/><text fill="#000000" font-family="sans-serif" font-size="13" font-weight="bold" lengthAdjust="spacing" textLength="18" x="910.5" y="566.5137">10</text><text fill="#000000" font-family="sans-serif" font-size="13" lengthAdjust="spacing" textLength="421" x="932.5" y="566.5137">getEntriesFromAgendaStartingFrom(currentDate, status="Planned")</text><polygon fill="#181818" points="914.5,596.5664,904.5,600.5664,914.5,604.5664,910.5,600.5664" style="stroke:#181818;stroke-width:1.0;"/><line style="stroke:#181818;stroke-width:1.0;stroke-dasharray:2.0,2.0;" x1="908.5" x2="1369.5" y1="600.5664" y2="600.5664"/><text fill="#000000" font-family="sans-serif" font-size="13" font-weight="bold" lengthAdjust="spacing" textLength="18" x="920.5" y="595.8242">11</text><text fill="#000000" font-family="sans-serif" font-size="13" lengthAdjust="spacing" textLength="81" x="942.5" y="595.8242">futureEntries</text><polygon fill="#181818" points="451.5,625.877,441.5,629.877,451.5,633.877,447.5,629.877" style="stroke:#181818;stroke-width:1.0;"/><line style="stroke:#181818;stroke-width:1.0;stroke-dasharray:2.0,2.0;" x1="445.5" x2="897.5" y1="629.877" y2="629.877"/><text fill="#000000" font-family="sans-serif" font-size="13" font-weight="bold" lengthAdjust="spacing" textLength="18" x="457.5" y="625.1348">12</text><text fill="#000000" font-family="sans-serif" font-size="13" lengthAdjust="spacing" textLength="81" x="479.5" y="625.1348">futureEntries</text><polygon fill="#181818" points="98.5,655.1875,88.5,659.1875,98.5,663.1875,94.5,659.1875" style="stroke:#181818;stroke-width:1.0;"/><line style="stroke:#181818;stroke-width:1.0;stroke-dasharray:2.0,2.0;" x1="92.5" x2="434.5" y1="659.1875" y2="659.1875"/><text fill="#000000" font-family="sans-serif" font-size="13" font-weight="bold" lengthAdjust="spacing" textLength="18" x="104.5" y="654.4453">13</text><text fill="#000000" font-family="sans-serif" font-size="13" lengthAdjust="spacing" textLength="220" x="126.5" y="654.4453">Shows the entries from the Agenda</text><polygon fill="#181818" points="418.5,684.498,428.5,688.498,418.5,692.498,422.5,688.498" style="stroke:#181818;stroke-width:1.0;"/><line style="stroke:#181818;stroke-width:1.0;" x1="87.5" x2="424.5" y1="688.498" y2="688.498"/><text fill="#000000" font-family="sans-serif" font-size="13" font-weight="bold" lengthAdjust="spacing" textLength="18" x="94.5" y="683.7559">14</text><text fill="#000000" font-family="sans-serif" font-size="13" lengthAdjust="spacing" textLength="107" x="116.5" y="683.7559">Selects one entry</text><polygon fill="#181818" points="98.5,713.8086,88.5,717.8086,98.5,721.8086,94.5,717.8086" style="stroke:#181818;stroke-width:1.0;"/><line style="stroke:#181818;stroke-width:1.0;stroke-dasharray:2.0,2.0;" x1="92.5" x2="434.5" y1="717.8086" y2="717.8086"/><text fill="#000000" font-family="sans-serif" font-size="13" font-weight="bold" lengthAdjust="spacing" textLength="18" x="104.5" y="713.0664">15</text><text fill="#000000" font-family="sans-serif" font-size="13" lengthAdjust="spacing" textLength="297" x="126.5" y="713.0664">Shows selected data and requests confirmation</text><polygon fill="#181818" points="418.5,743.1191,428.5,747.1191,418.5,751.1191,422.5,747.1191" style="stroke:#181818;stroke-width:1.0;"/><line style="stroke:#181818;stroke-width:1.0;" x1="87.5" x2="424.5" y1="747.1191" y2="747.1191"/><text fill="#000000" font-family="sans-serif" font-size="13" font-weight="bold" lengthAdjust="spacing" textLength="18" x="94.5" y="742.377">16</text><text fill="#000000" font-family="sans-serif" font-size="13" lengthAdjust="spacing" textLength="122" x="116.5" y="742.377">Confirms operation</text><polygon fill="#181818" points="881.5,772.4297,891.5,776.4297,881.5,780.4297,885.5,776.4297" style="stroke:#181818;stroke-width:1.0;"/><line style="stroke:#181818;stroke-width:1.0;" x1="440.5" x2="887.5" y1="776.4297" y2="776.4297"/><text fill="#000000" font-family="sans-serif" font-size="13" font-weight="bold" lengthAdjust="spacing" textLength="18" x="447.5" y="771.6875">17</text><text fill="#000000" font-family="sans-serif" font-size="13" lengthAdjust="spacing" textLength="164" x="469.5" y="771.6875">cancelEntry(selectedEntry)</text><polygon fill="#181818" points="1792.5,801.7402,1802.5,805.7402,1792.5,809.7402,1796.5,805.7402" style="stroke:#181818;stroke-width:1.0;"/><line style="stroke:#181818;stroke-width:1.0;" x1="903.5" x2="1798.5" y1="805.7402" y2="805.7402"/><text fill="#000000" font-family="sans-serif" font-size="13" font-weight="bold" lengthAdjust="spacing" textLength="18" x="910.5" y="800.998">18</text><text fill="#000000" font-family="sans-serif" font-size="13" lengthAdjust="spacing" textLength="164" x="932.5" y="800.998">cancelEntry(selectedEntry)</text><line style="stroke:#181818;stroke-width:1.0;" x1="1814.5" x2="1856.5" y1="835.0508" y2="835.0508"/><line style="stroke:#181818;stroke-width:1.0;" x1="1856.5" x2="1856.5" y1="835.0508" y2="848.0508"/><line style="stroke:#181818;stroke-width:1.0;" x1="1815.5" x2="1856.5" y1="848.0508" y2="848.0508"/><polygon fill="#181818" points="1825.5,844.0508,1815.5,848.0508,1825.5,852.0508,1821.5,848.0508" style="stroke:#181818;stroke-width:1.0;"/><text fill="#000000" font-family="sans-serif" font-size="13" font-weight="bold" lengthAdjust="spacing" textLength="18" x="1821.5" y="830.3086">19</text><text fill="#000000" font-family="sans-serif" font-size="13" lengthAdjust="spacing" textLength="164" x="1843.5" y="830.3086">cancelEntry(selectedEntry)</text><path d="M1819,861.0508 L1819,886.0508 L2112,886.0508 L2112,871.0508 L2102,861.0508 L1819,861.0508 " fill="#FAFAFA" style="stroke:#181818;stroke-width:0.5;"/><path d="M2102,861.0508 L2102,871.0508 L2112,871.0508 L2102,861.0508 " fill="#FAFAFA" style="stroke:#181818;stroke-width:0.5;"/><text fill="#000000" font-family="sans-serif" font-size="13" lengthAdjust="spacing" textLength="272" x="1825" y="878.6191">mudar a sequ&#234;ncia abaixo para um split SD</text><polygon fill="#181818" points="2058.5,908.6719,2068.5,912.6719,2058.5,916.6719,2062.5,912.6719" style="stroke:#181818;stroke-width:1.0;"/><line style="stroke:#181818;stroke-width:1.0;" x1="1814.5" x2="2064.5" y1="912.6719" y2="912.6719"/><text fill="#000000" font-family="sans-serif" font-size="13" font-weight="bold" lengthAdjust="spacing" textLength="18" x="1821.5" y="907.9297">20</text><text fill="#000000" font-family="sans-serif" font-size="13" lengthAdjust="spacing" textLength="215" x="1843.5" y="907.9297">setStatus(clonnedEntry, "Planned")</text><polygon fill="#181818" points="1825.5,937.9824,1815.5,941.9824,1825.5,945.9824,1821.5,941.9824" style="stroke:#181818;stroke-width:1.0;"/><line style="stroke:#181818;stroke-width:1.0;stroke-dasharray:2.0,2.0;" x1="1819.5" x2="2074.5" y1="941.9824" y2="941.9824"/><text fill="#000000" font-family="sans-serif" font-size="13" font-weight="bold" lengthAdjust="spacing" textLength="18" x="1831.5" y="937.2402">21</text><text fill="#000000" font-family="sans-serif" font-size="13" lengthAdjust="spacing" textLength="87" x="1853.5" y="937.2402">canceledEntry</text><polygon fill="#181818" points="914.5,967.293,904.5,971.293,914.5,975.293,910.5,971.293" style="stroke:#181818;stroke-width:1.0;"/><line style="stroke:#181818;stroke-width:1.0;stroke-dasharray:2.0,2.0;" x1="908.5" x2="1808.5" y1="971.293" y2="971.293"/><text fill="#000000" font-family="sans-serif" font-size="13" font-weight="bold" lengthAdjust="spacing" textLength="18" x="920.5" y="966.5508">22</text><text fill="#000000" font-family="sans-serif" font-size="13" lengthAdjust="spacing" textLength="87" x="942.5" y="966.5508">canceledEntry</text><polygon fill="#181818" points="451.5,996.6035,441.5,1000.6035,451.5,1004.6035,447.5,1000.6035" style="stroke:#181818;stroke-width:1.0;"/><line style="stroke:#181818;stroke-width:1.0;stroke-dasharray:2.0,2.0;" x1="445.5" x2="897.5" y1="1000.6035" y2="1000.6035"/><text fill="#000000" font-family="sans-serif" font-size="13" font-weight="bold" lengthAdjust="spacing" textLength="18" x="457.5" y="995.8613">23</text><text fill="#000000" font-family="sans-serif" font-size="13" lengthAdjust="spacing" textLength="87" x="479.5" y="995.8613">canceledEntry</text><polygon fill="#181818" points="93.5,1025.9141,83.5,1029.9141,93.5,1033.9141,89.5,1029.9141" style="stroke:#181818;stroke-width:1.0;"/><line style="stroke:#181818;stroke-width:1.0;stroke-dasharray:2.0,2.0;" x1="87.5" x2="434.5" y1="1029.9141" y2="1029.9141"/><text fill="#000000" font-family="sans-serif" font-size="13" font-weight="bold" lengthAdjust="spacing" textLength="18" x="99.5" y="1025.1719">24</text><text fill="#000000" font-family="sans-serif" font-size="13" lengthAdjust="spacing" textLength="231" x="121.5" y="1025.1719">Displays operation success message</text><!--SRC=[hLPBRjim4Dth50DlwXH93c2W1OB4JRr84rZnha30I6E9Y4Ig9DNOL-erUh4EgV_NQH0k35ESUVD_f7xX8cEAfP1A8ODOoHJ1g1mzNPzaB7XX4Vhcc20e30mJKT8Mq34BvIiN4UnPej7pM6waoDDdL9xtAUOXmbvAyomF7WkCLB2uLOW2V496k6E2qDK2c8PR_yuZJCC3dZ5XOB6wPYB0v2f24RArCEguspZ9tUQKuBMaNvaa9NHGRtkAMyoavkGMH-qaDRVnKGHTGTMI-oc6QdJULM3EbrhkI4fNlKzEiI_NGybDZ8Bsp70fkcWJHmxrQlVu_McxVhZlmkKQbOzQam8Xx9fTaLL_- -IlVNzp_wEhXccMo2CYwS2w_EyqxcwtlNowvBipjFyypnFIKEFmA3OWzwx6GEi27cC4wmzmIaAYa8L7I6GKOGXS03DWOZhH1hFBKgCRCMZybIELtGBW8KiO5qxNIRFc60y1ginSUfHeiDxqVMfANjZngpqXkq_a3tdQqgT6vhyPOTXmd8XTj86BhzISiBhIBngCXC3r9J1Hf0FsD68K64BH2urkZKYjNN-qYz08i-dVpvzX1G6bo_en9qXY4HfR3-hHRsItCEaRMoyHsI_B85UA7BiXi7DADJEv_h9uI9YWJ2xEEl2rWwrHwWZOrR9EljHvBLpP2B90wLYU3VHgyAOK0ncx6iIBJgmhQC_dG3N4jnYOTRvgUvksScOeZW56jx5QgHgBniu0zMwA9fPXfuj7nQaBGpIC9su-HDNNuucgcZ_aB2AMlXn8DStydc9C5OAILP65zo5beBeM1UYJvrmNMJ8UJOj5wtVEW81dt1u5xZhSX_lWCUp4EN1zDEY1HuEIxNEJAonzdAtRqE9iEaesx1cOm9uY5aji16JPTGL-B5-rOr0iq8QKwerWjrcrHTC-9lIYqI05LlVLQABxfDnrg_9AEpIwWq9c64reIFr2OwYDUt_ikKhTnULD9M32IRWkbCdD3DK8H0VWr9rGt4ZkcbvM3hlTsGmJl9tpwKNmdqOwXko3Obp4BWl-RXizUhQMfiJIF6IgV4By_IC2JjLyPlmWmJvv8QT7RvPm0_xD9CGqlVQ2ATu5Aut6TuE_319fvzw5SWuj6fX4ghCtqi93lqp90EqibkQcLLjTUiA82skywMQjj2ou9fZ27wEN4_1lu9W-pznmgZ0xjaOET1u4TF7JTQqrqU3i5BUszeNu3m00]--></g></svg>