<?xml version="1.0" encoding="us-ascii" standalone="no"?><svg xmlns="http://www.w3.org/2000/svg" xmlns:xlink="http://www.w3.org/1999/xlink" contentStyleType="text/css" height="1244px" preserveAspectRatio="none" style="width:1328px;height:1244px;background:#FFFFFF;" version="1.1" viewBox="0 0 1328 1244" width="1328px" zoomAndPan="magnify"><defs/><g><!--class CreateEmployeeController--><g id="elem_CreateEmployeeController"><rect codeLine="11" fill="#F1F1F1" height="159.7266" id="CreateEmployeeController" rx="2.5" ry="2.5" style="stroke:#181818;stroke-width:0.5;" width="784" x="153.5" y="377"/><ellipse cx="457.75" cy="393" fill="#ADD1B2" rx="11" ry="11" style="stroke:#181818;stroke-width:1.0;"/><path d="M460.5156,388.875 Q460.6719,388.6563 460.8594,388.5469 Q461.0469,388.4375 461.2656,388.4375 Q461.6406,388.4375 461.875,388.7031 Q462.1094,388.9531 462.1094,389.5625 L462.1094,391.0156 Q462.1094,391.625 461.875,391.8906 Q461.6406,392.1563 461.2656,392.1563 Q460.9219,392.1563 460.7188,391.9531 Q460.5156,391.7656 460.4063,391.25 Q460.3594,390.8906 460.1719,390.7031 Q459.8438,390.3281 459.2344,390.1094 Q458.625,389.8906 458,389.8906 Q457.2344,389.8906 456.5938,390.2188 Q455.9688,390.5469 455.4688,391.2969 Q454.9844,392.0469 454.9844,393.0781 L454.9844,394.1719 Q454.9844,395.4063 455.875,396.2344 Q456.7656,397.0469 458.3594,397.0469 Q459.2969,397.0469 459.9531,396.7969 Q460.3438,396.6406 460.7656,396.2031 Q461.0313,395.9375 461.1719,395.8594 Q461.3281,395.7813 461.5313,395.7813 Q461.8594,395.7813 462.1094,396.0469 Q462.375,396.2969 462.375,396.6406 Q462.375,396.9844 462.0313,397.3906 Q461.5313,397.9688 460.7344,398.2969 Q459.6563,398.75 458.3594,398.75 Q456.8438,398.75 455.6406,398.125 Q454.6563,397.625 453.9688,396.5625 Q453.2813,395.4844 453.2813,394.2031 L453.2813,393.0469 Q453.2813,391.7188 453.8906,390.5781 Q454.5156,389.4219 455.6094,388.8125 Q456.7031,388.1875 457.9375,388.1875 Q458.6719,388.1875 459.3125,388.3594 Q459.9688,388.5156 460.5156,388.875 Z " fill="#000000"/><text fill="#000000" font-family="sans-serif" font-size="14" lengthAdjust="spacing" textLength="167" x="478.25" y="398.7969">CreateEmployeeController</text><line style="stroke:#181818;stroke-width:0.5;" x1="154.5" x2="936.5" y1="409" y2="409"/><text fill="#000000" font-family="sans-serif" font-size="14" lengthAdjust="spacing" textLength="134" x="159.5" y="428.1074">-employeeRepository</text><text fill="#000000" font-family="sans-serif" font-size="14" lengthAdjust="spacing" textLength="92" x="159.5" y="446.7285">-jobRepository</text><text fill="#000000" font-family="sans-serif" font-size="14" lengthAdjust="spacing" textLength="96" x="159.5" y="465.3496">-skillRepository</text><text fill="#000000" font-family="sans-serif" font-size="14" lengthAdjust="spacing" textLength="324" x="159.5" y="483.9707">-authenticationRepository:AuthenticationRepository</text><line style="stroke:#181818;stroke-width:0.5;" x1="154.5" x2="936.5" y1="491.4844" y2="491.4844"/><text fill="#000000" font-family="sans-serif" font-size="14" lengthAdjust="spacing" textLength="471" x="159.5" y="510.5918">+CreateSkillController(employeeRepository, jobRepository, skillRepository)</text><text fill="#000000" font-family="sans-serif" font-size="14" lengthAdjust="spacing" textLength="772" x="159.5" y="529.2129">+CreateEmployee(name, birthDate, admissionDate, adress, email, mobile, idDocType, docTypeNr, taxPayerIdNr, skills, job)</text></g><!--class CreateEmployeeUI--><g id="elem_CreateEmployeeUI"><rect codeLine="23" fill="#F1F1F1" height="308.6953" id="CreateEmployeeUI" rx="2.5" ry="2.5" style="stroke:#181818;stroke-width:0.5;" width="757" x="167" y="7"/><ellipse cx="482.75" cy="23" fill="#ADD1B2" rx="11" ry="11" style="stroke:#181818;stroke-width:1.0;"/><path d="M485.5156,18.875 Q485.6719,18.6563 485.8594,18.5469 Q486.0469,18.4375 486.2656,18.4375 Q486.6406,18.4375 486.875,18.7031 Q487.1094,18.9531 487.1094,19.5625 L487.1094,21.0156 Q487.1094,21.625 486.875,21.8906 Q486.6406,22.1563 486.2656,22.1563 Q485.9219,22.1563 485.7188,21.9531 Q485.5156,21.7656 485.4063,21.25 Q485.3594,20.8906 485.1719,20.7031 Q484.8438,20.3281 484.2344,20.1094 Q483.625,19.8906 483,19.8906 Q482.2344,19.8906 481.5938,20.2188 Q480.9688,20.5469 480.4688,21.2969 Q479.9844,22.0469 479.9844,23.0781 L479.9844,24.1719 Q479.9844,25.4063 480.875,26.2344 Q481.7656,27.0469 483.3594,27.0469 Q484.2969,27.0469 484.9531,26.7969 Q485.3438,26.6406 485.7656,26.2031 Q486.0313,25.9375 486.1719,25.8594 Q486.3281,25.7813 486.5313,25.7813 Q486.8594,25.7813 487.1094,26.0469 Q487.375,26.2969 487.375,26.6406 Q487.375,26.9844 487.0313,27.3906 Q486.5313,27.9688 485.7344,28.2969 Q484.6563,28.75 483.3594,28.75 Q481.8438,28.75 480.6406,28.125 Q479.6563,27.625 478.9688,26.5625 Q478.2813,25.4844 478.2813,24.2031 L478.2813,23.0469 Q478.2813,21.7188 478.8906,20.5781 Q479.5156,19.4219 480.6094,18.8125 Q481.7031,18.1875 482.9375,18.1875 Q483.6719,18.1875 484.3125,18.3594 Q484.9688,18.5156 485.5156,18.875 Z " fill="#000000"/><text fill="#000000" font-family="sans-serif" font-size="14" lengthAdjust="spacing" textLength="117" x="503.25" y="28.7969">CreateEmployeeUI</text><line style="stroke:#181818;stroke-width:0.5;" x1="168" x2="923" y1="39" y2="39"/><line style="stroke:#181818;stroke-width:0.5;" x1="168" x2="923" y1="47" y2="47"/><text fill="#000000" font-family="sans-serif" font-size="14" lengthAdjust="spacing" textLength="39" x="173" y="66.1074">+run()</text><text fill="#000000" font-family="sans-serif" font-size="14" lengthAdjust="spacing" textLength="745" x="173" y="84.7285">+requestData(name, birthDate, admissionDate, adress, email, mobile, idDocType, docTypeNr, taxPayerIdNr, skills, job)</text><text fill="#000000" font-family="sans-serif" font-size="14" lengthAdjust="spacing" textLength="89" x="173" y="103.3496">+submitData()</text><text fill="#000000" font-family="sans-serif" font-size="14" lengthAdjust="spacing" textLength="102" x="173" y="121.9707">+requestName()</text><text fill="#000000" font-family="sans-serif" font-size="14" lengthAdjust="spacing" textLength="125" x="173" y="140.5918">+requestBirthDate()</text><text fill="#000000" font-family="sans-serif" font-size="14" lengthAdjust="spacing" textLength="160" x="173" y="159.2129">+requestAdmissionDate()</text><text fill="#000000" font-family="sans-serif" font-size="14" lengthAdjust="spacing" textLength="110" x="173" y="177.834">+requestAdress()</text><text fill="#000000" font-family="sans-serif" font-size="14" lengthAdjust="spacing" textLength="100" x="173" y="196.4551">+requestEmail()</text><text fill="#000000" font-family="sans-serif" font-size="14" lengthAdjust="spacing" textLength="107" x="173" y="215.0762">+requestMobile()</text><text fill="#000000" font-family="sans-serif" font-size="14" lengthAdjust="spacing" textLength="134" x="173" y="233.6973">+requestIdDocType()</text><text fill="#000000" font-family="sans-serif" font-size="14" lengthAdjust="spacing" textLength="126" x="173" y="252.3184">+requestIdNumber()</text><text fill="#000000" font-family="sans-serif" font-size="14" lengthAdjust="spacing" textLength="186" x="173" y="270.9395">+requestTaxPayerIdNumber()</text><text fill="#000000" font-family="sans-serif" font-size="14" lengthAdjust="spacing" textLength="98" x="173" y="289.5605">+requestSkills()</text><text fill="#000000" font-family="sans-serif" font-size="14" lengthAdjust="spacing" textLength="95" x="173" y="308.1816">+requestJobs()</text></g><!--class Employee--><g id="elem_Employee"><rect codeLine="40" fill="#F1F1F1" height="271.4531" id="Employee" rx="2.5" ry="2.5" style="stroke:#181818;stroke-width:0.5;" width="733" x="588" y="966"/><ellipse cx="919.25" cy="982" fill="#ADD1B2" rx="11" ry="11" style="stroke:#181818;stroke-width:1.0;"/><path d="M922.0156,977.875 Q922.1719,977.6563 922.3594,977.5469 Q922.5469,977.4375 922.7656,977.4375 Q923.1406,977.4375 923.375,977.7031 Q923.6094,977.9531 923.6094,978.5625 L923.6094,980.0156 Q923.6094,980.625 923.375,980.8906 Q923.1406,981.1563 922.7656,981.1563 Q922.4219,981.1563 922.2188,980.9531 Q922.0156,980.7656 921.9063,980.25 Q921.8594,979.8906 921.6719,979.7031 Q921.3438,979.3281 920.7344,979.1094 Q920.125,978.8906 919.5,978.8906 Q918.7344,978.8906 918.0938,979.2188 Q917.4688,979.5469 916.9688,980.2969 Q916.4844,981.0469 916.4844,982.0781 L916.4844,983.1719 Q916.4844,984.4063 917.375,985.2344 Q918.2656,986.0469 919.8594,986.0469 Q920.7969,986.0469 921.4531,985.7969 Q921.8438,985.6406 922.2656,985.2031 Q922.5313,984.9375 922.6719,984.8594 Q922.8281,984.7813 923.0313,984.7813 Q923.3594,984.7813 923.6094,985.0469 Q923.875,985.2969 923.875,985.6406 Q923.875,985.9844 923.5313,986.3906 Q923.0313,986.9688 922.2344,987.2969 Q921.1563,987.75 919.8594,987.75 Q918.3438,987.75 917.1406,987.125 Q916.1563,986.625 915.4688,985.5625 Q914.7813,984.4844 914.7813,983.2031 L914.7813,982.0469 Q914.7813,980.7188 915.3906,979.5781 Q916.0156,978.4219 917.1094,977.8125 Q918.2031,977.1875 919.4375,977.1875 Q920.1719,977.1875 920.8125,977.3594 Q921.4688,977.5156 922.0156,977.875 Z " fill="#000000"/><text fill="#000000" font-family="sans-serif" font-size="14" lengthAdjust="spacing" textLength="62" x="939.75" y="987.7969">Employee</text><line style="stroke:#181818;stroke-width:0.5;" x1="589" x2="1320" y1="998" y2="998"/><text fill="#000000" font-family="sans-serif" font-size="14" lengthAdjust="spacing" textLength="81" x="594" y="1017.1074">-String name</text><text fill="#000000" font-family="sans-serif" font-size="14" lengthAdjust="spacing" textLength="131" x="594" y="1035.7285">-LocalDate birthDate</text><text fill="#000000" font-family="sans-serif" font-size="14" lengthAdjust="spacing" textLength="166" x="594" y="1054.3496">-LocalDate admissionDate</text><text fill="#000000" font-family="sans-serif" font-size="14" lengthAdjust="spacing" textLength="89" x="594" y="1072.9707">-String adress</text><text fill="#000000" font-family="sans-serif" font-size="14" lengthAdjust="spacing" textLength="79" x="594" y="1091.5918">-String email</text><text fill="#000000" font-family="sans-serif" font-size="14" lengthAdjust="spacing" textLength="94" x="594" y="1110.2129">-Integer mobile</text><text fill="#000000" font-family="sans-serif" font-size="14" lengthAdjust="spacing" textLength="96" x="594" y="1128.834">-String IdDocNr</text><text fill="#000000" font-family="sans-serif" font-size="14" lengthAdjust="spacing" textLength="93" x="594" y="1147.4551">-int docTypeNr</text><text fill="#000000" font-family="sans-serif" font-size="14" lengthAdjust="spacing" textLength="104" x="594" y="1166.0762">-int taxPayerIdNr</text><text fill="#000000" font-family="sans-serif" font-size="14" lengthAdjust="spacing" textLength="64" x="594" y="1184.6973">-Skill skills</text><text fill="#000000" font-family="sans-serif" font-size="14" lengthAdjust="spacing" textLength="50" x="594" y="1203.3184">-Job job</text><line style="stroke:#181818;stroke-width:0.5;" x1="589" x2="1320" y1="1210.832" y2="1210.832"/><text fill="#000000" font-family="sans-serif" font-size="14" lengthAdjust="spacing" textLength="721" x="594" y="1229.9395">Employee(name, birthDate, admissionDate, adress, email, mobile, idDocType, docTypeNr, taxPayerIdNr, skills, job)</text></g><!--class Repositories--><g id="elem_Repositories"><rect codeLine="56" fill="#F1F1F1" height="141.1055" id="Repositories" rx="2.5" ry="2.5" style="stroke:#181818;stroke-width:0.5;" width="336" x="60.5" y="681"/><ellipse cx="184.75" cy="697" fill="#ADD1B2" rx="11" ry="11" style="stroke:#181818;stroke-width:1.0;"/><path d="M187.5156,692.875 Q187.6719,692.6563 187.8594,692.5469 Q188.0469,692.4375 188.2656,692.4375 Q188.6406,692.4375 188.875,692.7031 Q189.1094,692.9531 189.1094,693.5625 L189.1094,695.0156 Q189.1094,695.625 188.875,695.8906 Q188.6406,696.1563 188.2656,696.1563 Q187.9219,696.1563 187.7188,695.9531 Q187.5156,695.7656 187.4063,695.25 Q187.3594,694.8906 187.1719,694.7031 Q186.8438,694.3281 186.2344,694.1094 Q185.625,693.8906 185,693.8906 Q184.2344,693.8906 183.5938,694.2188 Q182.9688,694.5469 182.4688,695.2969 Q181.9844,696.0469 181.9844,697.0781 L181.9844,698.1719 Q181.9844,699.4063 182.875,700.2344 Q183.7656,701.0469 185.3594,701.0469 Q186.2969,701.0469 186.9531,700.7969 Q187.3438,700.6406 187.7656,700.2031 Q188.0313,699.9375 188.1719,699.8594 Q188.3281,699.7813 188.5313,699.7813 Q188.8594,699.7813 189.1094,700.0469 Q189.375,700.2969 189.375,700.6406 Q189.375,700.9844 189.0313,701.3906 Q188.5313,701.9688 187.7344,702.2969 Q186.6563,702.75 185.3594,702.75 Q183.8438,702.75 182.6406,702.125 Q181.6563,701.625 180.9688,700.5625 Q180.2813,699.4844 180.2813,698.2031 L180.2813,697.0469 Q180.2813,695.7188 180.8906,694.5781 Q181.5156,693.4219 182.6094,692.8125 Q183.7031,692.1875 184.9375,692.1875 Q185.6719,692.1875 186.3125,692.3594 Q186.9688,692.5156 187.5156,692.875 Z " fill="#000000"/><text fill="#000000" font-family="sans-serif" font-size="14" lengthAdjust="spacing" textLength="79" x="205.25" y="702.7969">Repositories</text><line style="stroke:#181818;stroke-width:0.5;" x1="61.5" x2="395.5" y1="713" y2="713"/><text fill="#000000" font-family="sans-serif" font-size="14" lengthAdjust="spacing" textLength="324" x="66.5" y="732.1074">-authenticationRepository:AuthenticationRepository</text><line style="stroke:#181818;stroke-width:0.5;" x1="61.5" x2="395.5" y1="739.6211" y2="739.6211"/><text fill="#000000" font-family="sans-serif" font-size="14" lengthAdjust="spacing" textLength="94" x="66.5" y="758.7285">-Repositories()</text><text fill="#000000" font-family="sans-serif" font-size="14" lengthAdjust="spacing" textLength="175" x="66.5" y="777.3496">+getIntance() : Repositories</text><text fill="#000000" font-family="sans-serif" font-size="14" lengthAdjust="spacing" textLength="131" x="66.5" y="795.9707">+getSkillRepository()</text><text fill="#000000" font-family="sans-serif" font-size="14" lengthAdjust="spacing" textLength="122" x="66.5" y="814.5918">-getjobRepository()</text></g><!--class Organization--><g id="elem_Organization"><rect codeLine="64" fill="#F1F1F1" height="271.4531" id="Organization" rx="2.5" ry="2.5" style="stroke:#181818;stroke-width:0.5;" width="529" x="680" y="616"/><ellipse cx="900.25" cy="632" fill="#ADD1B2" rx="11" ry="11" style="stroke:#181818;stroke-width:1.0;"/><path d="M903.0156,627.875 Q903.1719,627.6563 903.3594,627.5469 Q903.5469,627.4375 903.7656,627.4375 Q904.1406,627.4375 904.375,627.7031 Q904.6094,627.9531 904.6094,628.5625 L904.6094,630.0156 Q904.6094,630.625 904.375,630.8906 Q904.1406,631.1563 903.7656,631.1563 Q903.4219,631.1563 903.2188,630.9531 Q903.0156,630.7656 902.9063,630.25 Q902.8594,629.8906 902.6719,629.7031 Q902.3438,629.3281 901.7344,629.1094 Q901.125,628.8906 900.5,628.8906 Q899.7344,628.8906 899.0938,629.2188 Q898.4688,629.5469 897.9688,630.2969 Q897.4844,631.0469 897.4844,632.0781 L897.4844,633.1719 Q897.4844,634.4063 898.375,635.2344 Q899.2656,636.0469 900.8594,636.0469 Q901.7969,636.0469 902.4531,635.7969 Q902.8438,635.6406 903.2656,635.2031 Q903.5313,634.9375 903.6719,634.8594 Q903.8281,634.7813 904.0313,634.7813 Q904.3594,634.7813 904.6094,635.0469 Q904.875,635.2969 904.875,635.6406 Q904.875,635.9844 904.5313,636.3906 Q904.0313,636.9688 903.2344,637.2969 Q902.1563,637.75 900.8594,637.75 Q899.3438,637.75 898.1406,637.125 Q897.1563,636.625 896.4688,635.5625 Q895.7813,634.4844 895.7813,633.2031 L895.7813,632.0469 Q895.7813,630.7188 896.3906,629.5781 Q897.0156,628.4219 898.1094,627.8125 Q899.2031,627.1875 900.4375,627.1875 Q901.1719,627.1875 901.8125,627.3594 Q902.4688,627.5156 903.0156,627.875 Z " fill="#000000"/><text fill="#000000" font-family="sans-serif" font-size="14" lengthAdjust="spacing" textLength="80" x="920.75" y="637.7969">Organization</text><line style="stroke:#181818;stroke-width:0.5;" x1="681" x2="1208" y1="648" y2="648"/><text fill="#000000" font-family="sans-serif" font-size="14" lengthAdjust="spacing" textLength="81" x="686" y="667.1074">-String name</text><text fill="#000000" font-family="sans-serif" font-size="14" lengthAdjust="spacing" textLength="114" x="686" y="685.7285">-String vatNumber</text><text fill="#000000" font-family="sans-serif" font-size="14" lengthAdjust="spacing" textLength="93" x="686" y="704.3496">-String website</text><text fill="#000000" font-family="sans-serif" font-size="14" lengthAdjust="spacing" textLength="86" x="686" y="722.9707">-String phone</text><text fill="#000000" font-family="sans-serif" font-size="14" lengthAdjust="spacing" textLength="79" x="686" y="741.5918">-String email</text><line style="stroke:#181818;stroke-width:0.5;" x1="681" x2="1208" y1="749.1055" y2="749.1055"/><text fill="#000000" font-family="sans-serif" font-size="14" lengthAdjust="spacing" textLength="96" x="686" y="768.2129">-addTask(task)</text><text fill="#000000" font-family="sans-serif" font-size="14" lengthAdjust="spacing" textLength="121" x="686" y="786.834">-validateTask(task)</text><text fill="#000000" font-family="sans-serif" font-size="14" lengthAdjust="spacing" textLength="194" x="686" y="805.4551">+anyEmployeeHasEmail(email)</text><text fill="#000000" font-family="sans-serif" font-size="14" lengthAdjust="spacing" textLength="517" x="686" y="824.0762">+Organization(name, vatNumber, webSite, phone, email, postalAddress, manager)</text><text fill="#000000" font-family="sans-serif" font-size="14" lengthAdjust="spacing" textLength="362" x="686" y="842.6973">+createTask(reference, description, informalDesccription,</text><text fill="#000000" font-family="sans-serif" font-size="14" lengthAdjust="spacing" textLength="389" x="686" y="861.3184">technicalDescription, duration, cost, taskCategoryDescription)</text><text fill="#000000" font-family="sans-serif" font-size="14" lengthAdjust="spacing" textLength="180" x="686" y="879.9395">-getEmployeeByEmail(email)</text></g><!--class SkillRepository--><g id="elem_SkillRepository"><rect codeLine="81" fill="#F1F1F1" height="66.6211" id="SkillRepository" rx="2.5" ry="2.5" style="stroke:#181818;stroke-width:0.5;" width="125" x="7" y="1068"/><ellipse cx="22" cy="1084" fill="#ADD1B2" rx="11" ry="11" style="stroke:#181818;stroke-width:1.0;"/><path d="M24.7656,1079.875 Q24.9219,1079.6563 25.1094,1079.5469 Q25.2969,1079.4375 25.5156,1079.4375 Q25.8906,1079.4375 26.125,1079.7031 Q26.3594,1079.9531 26.3594,1080.5625 L26.3594,1082.0156 Q26.3594,1082.625 26.125,1082.8906 Q25.8906,1083.1563 25.5156,1083.1563 Q25.1719,1083.1563 24.9688,1082.9531 Q24.7656,1082.7656 24.6563,1082.25 Q24.6094,1081.8906 24.4219,1081.7031 Q24.0938,1081.3281 23.4844,1081.1094 Q22.875,1080.8906 22.25,1080.8906 Q21.4844,1080.8906 20.8438,1081.2188 Q20.2188,1081.5469 19.7188,1082.2969 Q19.2344,1083.0469 19.2344,1084.0781 L19.2344,1085.1719 Q19.2344,1086.4063 20.125,1087.2344 Q21.0156,1088.0469 22.6094,1088.0469 Q23.5469,1088.0469 24.2031,1087.7969 Q24.5938,1087.6406 25.0156,1087.2031 Q25.2813,1086.9375 25.4219,1086.8594 Q25.5781,1086.7813 25.7813,1086.7813 Q26.1094,1086.7813 26.3594,1087.0469 Q26.625,1087.2969 26.625,1087.6406 Q26.625,1087.9844 26.2813,1088.3906 Q25.7813,1088.9688 24.9844,1089.2969 Q23.9063,1089.75 22.6094,1089.75 Q21.0938,1089.75 19.8906,1089.125 Q18.9063,1088.625 18.2188,1087.5625 Q17.5313,1086.4844 17.5313,1085.2031 L17.5313,1084.0469 Q17.5313,1082.7188 18.1406,1081.5781 Q18.7656,1080.4219 19.8594,1079.8125 Q20.9531,1079.1875 22.1875,1079.1875 Q22.9219,1079.1875 23.5625,1079.3594 Q24.2188,1079.5156 24.7656,1079.875 Z " fill="#000000"/><text fill="#000000" font-family="sans-serif" font-size="14" lengthAdjust="spacing" textLength="93" x="36" y="1089.7969">SkillRepository</text><line style="stroke:#181818;stroke-width:0.5;" x1="8" x2="131" y1="1100" y2="1100"/><line style="stroke:#181818;stroke-width:0.5;" x1="8" x2="131" y1="1108" y2="1108"/><text fill="#000000" font-family="sans-serif" font-size="14" lengthAdjust="spacing" textLength="85" x="13" y="1127.1074">+getAllSkills()</text></g><!--class JobRepository--><g id="elem_JobRepository"><rect codeLine="85" fill="#F1F1F1" height="66.6211" id="JobRepository" rx="2.5" ry="2.5" style="stroke:#181818;stroke-width:0.5;" width="122" x="167.5" y="1068"/><ellipse cx="182.5" cy="1084" fill="#ADD1B2" rx="11" ry="11" style="stroke:#181818;stroke-width:1.0;"/><path d="M185.2656,1079.875 Q185.4219,1079.6563 185.6094,1079.5469 Q185.7969,1079.4375 186.0156,1079.4375 Q186.3906,1079.4375 186.625,1079.7031 Q186.8594,1079.9531 186.8594,1080.5625 L186.8594,1082.0156 Q186.8594,1082.625 186.625,1082.8906 Q186.3906,1083.1563 186.0156,1083.1563 Q185.6719,1083.1563 185.4688,1082.9531 Q185.2656,1082.7656 185.1563,1082.25 Q185.1094,1081.8906 184.9219,1081.7031 Q184.5938,1081.3281 183.9844,1081.1094 Q183.375,1080.8906 182.75,1080.8906 Q181.9844,1080.8906 181.3438,1081.2188 Q180.7188,1081.5469 180.2188,1082.2969 Q179.7344,1083.0469 179.7344,1084.0781 L179.7344,1085.1719 Q179.7344,1086.4063 180.625,1087.2344 Q181.5156,1088.0469 183.1094,1088.0469 Q184.0469,1088.0469 184.7031,1087.7969 Q185.0938,1087.6406 185.5156,1087.2031 Q185.7813,1086.9375 185.9219,1086.8594 Q186.0781,1086.7813 186.2813,1086.7813 Q186.6094,1086.7813 186.8594,1087.0469 Q187.125,1087.2969 187.125,1087.6406 Q187.125,1087.9844 186.7813,1088.3906 Q186.2813,1088.9688 185.4844,1089.2969 Q184.4063,1089.75 183.1094,1089.75 Q181.5938,1089.75 180.3906,1089.125 Q179.4063,1088.625 178.7188,1087.5625 Q178.0313,1086.4844 178.0313,1085.2031 L178.0313,1084.0469 Q178.0313,1082.7188 178.6406,1081.5781 Q179.2656,1080.4219 180.3594,1079.8125 Q181.4531,1079.1875 182.6875,1079.1875 Q183.4219,1079.1875 184.0625,1079.3594 Q184.7188,1079.5156 185.2656,1079.875 Z " fill="#000000"/><text fill="#000000" font-family="sans-serif" font-size="14" lengthAdjust="spacing" textLength="90" x="196.5" y="1089.7969">JobRepository</text><line style="stroke:#181818;stroke-width:0.5;" x1="168.5" x2="288.5" y1="1100" y2="1100"/><line style="stroke:#181818;stroke-width:0.5;" x1="168.5" x2="288.5" y1="1108" y2="1108"/><text fill="#000000" font-family="sans-serif" font-size="14" lengthAdjust="spacing" textLength="82" x="173.5" y="1127.1074">+getAllJobs()</text></g><!--class EmployeeRepository--><g id="elem_EmployeeRepository"><rect codeLine="89" fill="#F1F1F1" height="103.8633" id="EmployeeRepository" rx="2.5" ry="2.5" style="stroke:#181818;stroke-width:0.5;" width="228" x="324.5" y="1049.5"/><ellipse cx="369.25" cy="1065.5" fill="#ADD1B2" rx="11" ry="11" style="stroke:#181818;stroke-width:1.0;"/><path d="M372.0156,1061.375 Q372.1719,1061.1563 372.3594,1061.0469 Q372.5469,1060.9375 372.7656,1060.9375 Q373.1406,1060.9375 373.375,1061.2031 Q373.6094,1061.4531 373.6094,1062.0625 L373.6094,1063.5156 Q373.6094,1064.125 373.375,1064.3906 Q373.1406,1064.6563 372.7656,1064.6563 Q372.4219,1064.6563 372.2188,1064.4531 Q372.0156,1064.2656 371.9063,1063.75 Q371.8594,1063.3906 371.6719,1063.2031 Q371.3438,1062.8281 370.7344,1062.6094 Q370.125,1062.3906 369.5,1062.3906 Q368.7344,1062.3906 368.0938,1062.7188 Q367.4688,1063.0469 366.9688,1063.7969 Q366.4844,1064.5469 366.4844,1065.5781 L366.4844,1066.6719 Q366.4844,1067.9063 367.375,1068.7344 Q368.2656,1069.5469 369.8594,1069.5469 Q370.7969,1069.5469 371.4531,1069.2969 Q371.8438,1069.1406 372.2656,1068.7031 Q372.5313,1068.4375 372.6719,1068.3594 Q372.8281,1068.2813 373.0313,1068.2813 Q373.3594,1068.2813 373.6094,1068.5469 Q373.875,1068.7969 373.875,1069.1406 Q373.875,1069.4844 373.5313,1069.8906 Q373.0313,1070.4688 372.2344,1070.7969 Q371.1563,1071.25 369.8594,1071.25 Q368.3438,1071.25 367.1406,1070.625 Q366.1563,1070.125 365.4688,1069.0625 Q364.7813,1067.9844 364.7813,1066.7031 L364.7813,1065.5469 Q364.7813,1064.2188 365.3906,1063.0781 Q366.0156,1061.9219 367.1094,1061.3125 Q368.2031,1060.6875 369.4375,1060.6875 Q370.1719,1060.6875 370.8125,1060.8594 Q371.4688,1061.0156 372.0156,1061.375 Z " fill="#000000"/><text fill="#000000" font-family="sans-serif" font-size="14" lengthAdjust="spacing" textLength="130" x="389.75" y="1071.2969">EmployeeRepository</text><line style="stroke:#181818;stroke-width:0.5;" x1="325.5" x2="551.5" y1="1081.5" y2="1081.5"/><line style="stroke:#181818;stroke-width:0.5;" x1="325.5" x2="551.5" y1="1089.5" y2="1089.5"/><text fill="#000000" font-family="sans-serif" font-size="14" lengthAdjust="spacing" textLength="107" x="330.5" y="1108.6074">+getEmployees()</text><text fill="#000000" font-family="sans-serif" font-size="14" lengthAdjust="spacing" textLength="216" x="330.5" y="1127.2285">+validateEmployee(newEmployee)</text><text fill="#000000" font-family="sans-serif" font-size="14" lengthAdjust="spacing" textLength="198" x="330.5" y="1145.8496">+addEmployees(newEmployee)</text></g><!--link CreateEmployeeUI to CreateEmployeeController--><g id="link_CreateEmployeeUI_CreateEmployeeController"><path codeLine="96" d="M545.5,316.13 C545.5,337.07 545.5,351.83 545.5,370.68 " fill="none" id="CreateEmployeeUI-to-CreateEmployeeController" style="stroke:#181818;stroke-width:1.0;stroke-dasharray:7.0,7.0;"/><polygon fill="#181818" points="545.5,376.68,549.5,367.68,545.5,371.68,541.5,367.68,545.5,376.68" style="stroke:#181818;stroke-width:1.0;"/><text fill="#000000" font-family="sans-serif" font-size="13" lengthAdjust="spacing" textLength="7" x="538.3414" y="337.5636">1</text><text fill="#000000" font-family="sans-serif" font-size="13" lengthAdjust="spacing" textLength="7" x="538.1883" y="365.8229">1</text></g><!--link CreateEmployeeController to Repositories--><g id="link_CreateEmployeeController_Repositories"><path codeLine="98" d="M459.72,537.15 C411.03,582.07 355.08,633.7116 308.23,676.9316 " fill="none" id="CreateEmployeeController-to-Repositories" style="stroke:#181818;stroke-width:1.0;stroke-dasharray:7.0,7.0;"/><polygon fill="#181818" points="303.82,681,313.1473,677.8375,307.495,677.6097,307.7228,671.9574,303.82,681" style="stroke:#181818;stroke-width:1.0;"/><text fill="#000000" font-family="sans-serif" font-size="13" lengthAdjust="spacing" textLength="72" x="426.5" y="582.0283">Repositories</text></g><!--link Repositories to Repositories--><g id="link_Repositories_Repositories"><path codeLine="99" d="M396.52,723.09 C417.61,728.1 431.5,737.57 431.5,751.5 C431.5,765.43 423.4475,773.5133 402.3575,778.5233 " fill="none" id="Repositories-to-Repositories" style="stroke:#181818;stroke-width:1.0;"/><polygon fill="#181818" points="396.52,779.91,406.2008,781.7216,401.3846,778.7544,404.3518,773.9382,396.52,779.91" style="stroke:#181818;stroke-width:1.0;"/><text fill="#000000" font-family="sans-serif" font-size="13" lengthAdjust="spacing" textLength="49" x="437.5" y="757.0283">instance</text></g><!--link Repositories to EmployeeRepository--><g id="link_Repositories_EmployeeRepository"><path codeLine="100" d="M270.49,822.09 C311.01,889.23 368.2902,984.1428 404.5602,1044.2528 " fill="none" id="Repositories-to-EmployeeRepository" style="stroke:#181818;stroke-width:1.0;"/><polygon fill="#181818" points="407.66,1049.39,406.4352,1039.6176,405.0768,1045.109,399.5855,1043.7506,407.66,1049.39" style="stroke:#181818;stroke-width:1.0;"/><text fill="#000000" font-family="sans-serif" font-size="13" lengthAdjust="spacing" textLength="118" x="334.5" y="932.0283">employeeRepository</text><text fill="#000000" font-family="sans-serif" font-size="13" lengthAdjust="spacing" textLength="7" x="267.4593" y="844.284">1</text><text fill="#000000" font-family="sans-serif" font-size="13" lengthAdjust="spacing" textLength="7" x="396.0456" y="1038.3026">1</text></g><!--link Repositories to SkillRepository--><g id="link_Repositories_SkillRepository"><path codeLine="101" d="M188.21,822.26 C162.32,867.1 133.5,917 133.5,917 C133.5,917 101.3261,1009.2447 82.9161,1062.0247 " fill="none" id="Repositories-to-SkillRepository" style="stroke:#181818;stroke-width:1.0;"/><polygon fill="#181818" points="80.94,1067.69,87.681,1060.5095,82.5867,1062.969,80.1273,1057.8747,80.94,1067.69" style="stroke:#181818;stroke-width:1.0;"/><text fill="#000000" font-family="sans-serif" font-size="13" lengthAdjust="spacing" textLength="85" x="134.5" y="932.0283">skillRepository</text><text fill="#000000" font-family="sans-serif" font-size="13" lengthAdjust="spacing" textLength="7" x="176.8994" y="844.0996">1</text><text fill="#000000" font-family="sans-serif" font-size="13" lengthAdjust="spacing" textLength="7" x="75.4536" y="1056.7168">1</text></g><!--link Repositories to JobRepository--><g id="link_Repositories_JobRepository"><path codeLine="102" d="M228.5,822.09 C228.5,896.67 228.5,1005.86 228.5,1061.79 " fill="none" id="Repositories-to-JobRepository" style="stroke:#181818;stroke-width:1.0;"/><polygon fill="#181818" points="228.5,1067.79,232.5,1058.79,228.5,1062.79,224.5,1058.79,228.5,1067.79" style="stroke:#181818;stroke-width:1.0;"/><text fill="#000000" font-family="sans-serif" font-size="13" lengthAdjust="spacing" textLength="79" x="229.5" y="932.0283">jobRepository</text><text fill="#000000" font-family="sans-serif" font-size="13" lengthAdjust="spacing" textLength="7" x="221.1391" y="844.284">1</text><text fill="#000000" font-family="sans-serif" font-size="13" lengthAdjust="spacing" textLength="7" x="220.8328" y="1056.8359">1</text></g><!--link CreateEmployeeController to Organization--><g id="link_CreateEmployeeController_Organization"><path codeLine="104" d="M653.48,537.15 C686.59,561.43 719.1714,585.3121 755.8714,612.2221 " fill="none" id="CreateEmployeeController-to-Organization" style="stroke:#181818;stroke-width:1.0;stroke-dasharray:7.0,7.0;"/><polygon fill="#181818" points="760.71,615.77,755.8173,607.2224,756.6778,612.8134,751.0868,613.6739,760.71,615.77" style="stroke:#181818;stroke-width:1.0;"/><text fill="#000000" font-family="sans-serif" font-size="13" lengthAdjust="spacing" textLength="94" x="710.5" y="582.0283">createEmployee</text></g><!--link Organization to Employee--><g id="link_Organization_Employee"><path codeLine="107" d="M948.37,887.05 C949.11,912.87 949.7182,933.9125 950.4582,959.7425 " fill="none" id="Organization-to-Employee" style="stroke:#181818;stroke-width:1.0;"/><polygon fill="#181818" points="950.63,965.74,954.3706,956.6291,950.4868,960.7421,946.3739,956.8582,950.63,965.74" style="stroke:#181818;stroke-width:1.0;"/><text fill="#000000" font-family="sans-serif" font-size="13" lengthAdjust="spacing" textLength="68" x="950.5" y="932.0283">has a set of</text><text fill="#000000" font-family="sans-serif" font-size="13" lengthAdjust="spacing" textLength="7" x="941.3914" y="909.4015">1</text><text fill="#000000" font-family="sans-serif" font-size="13" lengthAdjust="spacing" textLength="5" x="945.2816" y="954.8747">*</text></g><!--link CreateEmployeeController to EmployeeRepository--><g id="link_CreateEmployeeController_EmployeeRepository"><path codeLine="109" d="M535.72,537.19 C520.4,661.14 492.5,887 492.5,887 C492.5,887 468.8817,980.3833 452.9017,1043.5433 " fill="none" id="CreateEmployeeController-to-EmployeeRepository" style="stroke:#181818;stroke-width:1.0;stroke-dasharray:7.0,7.0;"/><polygon fill="#181818" points="451.43,1049.36,457.5153,1041.616,452.6564,1044.5127,449.7597,1039.6538,451.43,1049.36" style="stroke:#181818;stroke-width:1.0;"/><text fill="#000000" font-family="sans-serif" font-size="13" lengthAdjust="spacing" textLength="86" x="526.5" y="757.0283">addEmployees</text></g><!--SRC=[lLPDSzCm4BthLsYuD25E1wuvC9D-p90E18QK6nVPtjWYicGakSNjyDzPoPzo4ZfSwaDYlzsLtkxRbNrX3boMJBE25agg9DUg06fr1MImb2mvi0nsjXP0DIIMoKoC7KpEKlN8PKRtJ9YnHN09jYw1bahKxe5Sd30gRHKPHIM26REsLlEuih19bDpn9w3l2BaGiBVKAgfvbbkQSaU7Aqc8Zw7N6fY5sw8KgWQuLj9g9GHeyameNajeBT-WL8PRfUi6_wdYAOHqX9Y2hB8vICiJvdOThAlr6OCFMpIqTcx5WTFic4n40o8HdP2OZvVhifn9La14OwvjVeDuH5bQS6EGH_UemPY8Gi6uY53ec0k4UNgZadkiVqJJvcQh8shPxw-i1hr9tPFVttXQSqB8dzDr_hwXlhuBNSdPlBc3NnKOYmJOg_5p-vegBdYpRK1aYnn2vAhZ4yBhCRUfoV4CiLl7EOG-U_uXjkbocSBRgeYn5GBqVaZnXDLtqOJ5dOeTqilJ2KFRjgSxd2KSJwT4YtnI2HCknq6O8qkWKxXIerc8UVrQQ2CjPA1RCKC_NuojRa4kxQ3l21iBtSMxr5lDMmWpT-8J__Zg4z4Nl1zH3gOjUiDlR6WqyzU2Pc2nHamcs19q5VY5Nhlm21WjidJcuC0O6___gEgp-Q8p9lcJj_-ZXLhaWTccJqFu4M9ST-9Rvah2gQvfCPQczymSPXP_vYtsm0HFKRQ9OK6Ph3l5FpBJJA9VhNCOvz7sH4ysSWHtt7M39zKt0vR3Ch5EsnOfcCHtd-wMJFp1vwbes8C6512x1KoYUUdsmIwIUwKB7244U_G7paEIIvuqUE-SLferTmdkwvhD7AvnXmm56JbsjK31kvIlwY3ZqU4ywPXdqlVIMeZ- -EZTxyOTH4FlSmTB4314TEQkrHUzUCDemcDtt-kOfaDWOCTzZzuqRzw_ePUN7_p_sTSzEMVneS6qJcOli2sNHyvS6Z-reQCZuvpT_uaQhUY93u-p2qpqm-ZfjyZPq53BLVWvyK9LWgbVjPtU-M9_1VP-qxT3mXYKCqCPDM2fsh-mtN6PLa4daBy0]--></g></svg>