<?xml version="1.0" encoding="us-ascii" standalone="no"?><svg xmlns="http://www.w3.org/2000/svg" xmlns:xlink="http://www.w3.org/1999/xlink" contentStyleType="text/css" height="819px" preserveAspectRatio="none" style="width:2473px;height:819px;background:#FFFFFF;" version="1.1" viewBox="0 0 2473 819" width="2473px" zoomAndPan="magnify"><defs/><g><rect fill="#FFFFFF" height="624.8594" style="stroke:#181818;stroke-width:1.0;" width="10" x="87.5" y="93.6211"/><rect fill="#FFFFFF" height="200.0762" style="stroke:#181818;stroke-width:1.0;" width="10" x="755.5" y="116.9121"/><rect fill="#FFFFFF" height="75.582" style="stroke:#181818;stroke-width:1.0;" width="10" x="755.5" y="348.2793"/><rect fill="#FFFFFF" height="263.3281" style="stroke:#181818;stroke-width:1.0;" width="10" x="755.5" y="455.1523"/><rect fill="#FFFFFF" height="200.7461" style="stroke:#181818;stroke-width:1.0;" width="10" x="1467.5" y="486.4434"/><rect fill="#FFFFFF" height="31.291" style="stroke:#181818;stroke-width:1.0;" width="10" x="1620" y="191.8242"/><rect fill="#FFFFFF" height="31.291" style="stroke:#181818;stroke-width:1.0;" width="10" x="1727" y="254.4063"/><rect fill="#FFFFFF" height="569.2773" style="stroke:#181818;stroke-width:1.0;" width="10" x="2018" y="158.2031"/><rect fill="#FFFFFF" height="31.291" style="stroke:#181818;stroke-width:1.0;" width="10" x="2121.5" y="517.7344"/><rect fill="#FFFFFF" height="75.582" style="stroke:#181818;stroke-width:1.0;" width="10" x="2241.5" y="580.3164"/><line style="stroke:#181818;stroke-width:0.5;stroke-dasharray:5.0,5.0;" x1="92" x2="92" y1="83.6211" y2="736.4805"/><line style="stroke:#181818;stroke-width:0.5;stroke-dasharray:5.0,5.0;" x1="760.5" x2="760.5" y1="83.6211" y2="736.4805"/><line style="stroke:#181818;stroke-width:0.5;stroke-dasharray:5.0,5.0;" x1="1472.5" x2="1472.5" y1="156.7227" y2="736.4805"/><line style="stroke:#181818;stroke-width:0.5;stroke-dasharray:5.0,5.0;" x1="1624.5" x2="1624.5" y1="83.6211" y2="736.4805"/><line style="stroke:#181818;stroke-width:0.5;stroke-dasharray:5.0,5.0;" x1="1731.5" x2="1731.5" y1="83.6211" y2="736.4805"/><line style="stroke:#181818;stroke-width:0.5;stroke-dasharray:5.0,5.0;" x1="1862.5" x2="1862.5" y1="83.6211" y2="736.4805"/><line style="stroke:#181818;stroke-width:0.5;stroke-dasharray:5.0,5.0;" x1="1965.5" x2="1965.5" y1="83.6211" y2="736.4805"/><line style="stroke:#181818;stroke-width:0.5;stroke-dasharray:5.0,5.0;" x1="2022.5" x2="2022.5" y1="83.6211" y2="736.4805"/><line style="stroke:#181818;stroke-width:0.5;stroke-dasharray:5.0,5.0;" x1="2126.5" x2="2126.5" y1="83.6211" y2="736.4805"/><line style="stroke:#181818;stroke-width:0.5;stroke-dasharray:5.0,5.0;" x1="2246.5" x2="2246.5" y1="83.6211" y2="736.4805"/><text fill="#000000" font-family="sans-serif" font-size="14" lengthAdjust="spacing" textLength="169" x="5" y="80.1074">Human Resource Manager</text><ellipse cx="92.5" cy="13.5" fill="#E3E3E3" rx="8" ry="8" style="stroke:#181818;stroke-width:0.5;"/><path d="M92.5,21.5 L92.5,48.5 M79.5,29.5 L105.5,29.5 M92.5,48.5 L79.5,63.5 M92.5,48.5 L105.5,63.5 " fill="none" style="stroke:#181818;stroke-width:0.5;"/><text fill="#000000" font-family="sans-serif" font-size="14" lengthAdjust="spacing" textLength="169" x="5" y="750.5879">Human Resource Manager</text><ellipse cx="92.5" cy="762.6016" fill="#E3E3E3" rx="8" ry="8" style="stroke:#181818;stroke-width:0.5;"/><path d="M92.5,770.6016 L92.5,797.6016 M79.5,778.6016 L105.5,778.6016 M92.5,797.6016 L79.5,812.6016 M92.5,797.6016 L105.5,812.6016 " fill="none" style="stroke:#181818;stroke-width:0.5;"/><rect fill="#E3E3E3" height="32.6211" rx="2.5" ry="2.5" style="stroke:#181818;stroke-width:0.5;" width="138" x="691.5" y="50"/><text fill="#000000" font-family="sans-serif" font-size="14" lengthAdjust="spacing" textLength="124" x="698.5" y="72.1074">:CreateEmployeelUI</text><rect fill="#E3E3E3" height="32.6211" rx="2.5" ry="2.5" style="stroke:#181818;stroke-width:0.5;" width="138" x="691.5" y="735.4805"/><text fill="#000000" font-family="sans-serif" font-size="14" lengthAdjust="spacing" textLength="124" x="698.5" y="757.5879">:CreateEmployeelUI</text><rect fill="#E3E3E3" height="32.6211" rx="2.5" ry="2.5" style="stroke:#181818;stroke-width:0.5;" width="188" x="1378.5" y="735.4805"/><text fill="#000000" font-family="sans-serif" font-size="14" lengthAdjust="spacing" textLength="174" x="1385.5" y="757.5879">:CreateEmployeelController</text><rect fill="#E3E3E3" height="32.6211" rx="2.5" ry="2.5" style="stroke:#181818;stroke-width:0.5;" width="97" x="1576.5" y="50"/><text fill="#000000" font-family="sans-serif" font-size="14" lengthAdjust="spacing" textLength="83" x="1583.5" y="72.1074">:Repositories</text><rect fill="#E3E3E3" height="32.6211" rx="2.5" ry="2.5" style="stroke:#181818;stroke-width:0.5;" width="97" x="1576.5" y="735.4805"/><text fill="#000000" font-family="sans-serif" font-size="14" lengthAdjust="spacing" textLength="83" x="1583.5" y="757.5879">:Repositories</text><rect fill="#E3E3E3" height="51.2422" rx="2.5" ry="2.5" style="stroke:#181818;stroke-width:0.5;" width="97" x="1683.5" y="31.3789"/><text fill="#000000" font-family="sans-serif" font-size="14" lengthAdjust="spacing" textLength="74" x="1695" y="53.4863">repositories</text><text fill="#000000" font-family="sans-serif" font-size="14" lengthAdjust="spacing" textLength="83" x="1690.5" y="72.1074">:Repositories</text><rect fill="#E3E3E3" height="51.2422" rx="2.5" ry="2.5" style="stroke:#181818;stroke-width:0.5;" width="97" x="1683.5" y="735.4805"/><text fill="#000000" font-family="sans-serif" font-size="14" lengthAdjust="spacing" textLength="74" x="1695" y="757.5879">repositories</text><text fill="#000000" font-family="sans-serif" font-size="14" lengthAdjust="spacing" textLength="83" x="1690.5" y="776.209">:Repositories</text><rect fill="#E3E3E3" height="51.2422" rx="2.5" ry="2.5" style="stroke:#181818;stroke-width:0.5;" width="144" x="1790.5" y="31.3789"/><text fill="#000000" font-family="sans-serif" font-size="14" lengthAdjust="spacing" textLength="95" x="1815" y="53.4863">skillRepository:</text><text fill="#000000" font-family="sans-serif" font-size="14" lengthAdjust="spacing" textLength="130" x="1797.5" y="72.1074">EmployeeRepository</text><rect fill="#E3E3E3" height="51.2422" rx="2.5" ry="2.5" style="stroke:#181818;stroke-width:0.5;" width="144" x="1790.5" y="735.4805"/><text fill="#000000" font-family="sans-serif" font-size="14" lengthAdjust="spacing" textLength="95" x="1815" y="757.5879">skillRepository:</text><text fill="#000000" font-family="sans-serif" font-size="14" lengthAdjust="spacing" textLength="130" x="1797.5" y="776.209">EmployeeRepository</text><rect fill="#E3E3E3" height="32.6211" rx="2.5" ry="2.5" style="stroke:#181818;stroke-width:0.5;" width="43" x="1944.5" y="50"/><text fill="#000000" font-family="sans-serif" font-size="14" lengthAdjust="spacing" textLength="29" x="1951.5" y="72.1074">:Skill</text><rect fill="#E3E3E3" height="32.6211" rx="2.5" ry="2.5" style="stroke:#181818;stroke-width:0.5;" width="43" x="1944.5" y="735.4805"/><text fill="#000000" font-family="sans-serif" font-size="14" lengthAdjust="spacing" textLength="29" x="1951.5" y="757.5879">:Skill</text><rect fill="#E3E3E3" height="32.6211" rx="2.5" ry="2.5" style="stroke:#181818;stroke-width:0.5;" width="51" x="1997.5" y="50"/><text fill="#000000" font-family="sans-serif" font-size="14" lengthAdjust="spacing" textLength="37" x="2004.5" y="72.1074">CTRL</text><rect fill="#E3E3E3" height="32.6211" rx="2.5" ry="2.5" style="stroke:#181818;stroke-width:0.5;" width="51" x="1997.5" y="735.4805"/><text fill="#000000" font-family="sans-serif" font-size="14" lengthAdjust="spacing" textLength="37" x="2004.5" y="757.5879">CTRL</text><rect fill="#E3E3E3" height="32.6211" rx="2.5" ry="2.5" style="stroke:#181818;stroke-width:0.5;" width="76" x="2088.5" y="50"/><text fill="#000000" font-family="sans-serif" font-size="14" lengthAdjust="spacing" textLength="62" x="2095.5" y="72.1074">Employee</text><rect fill="#E3E3E3" height="32.6211" rx="2.5" ry="2.5" style="stroke:#181818;stroke-width:0.5;" width="76" x="2088.5" y="735.4805"/><text fill="#000000" font-family="sans-serif" font-size="14" lengthAdjust="spacing" textLength="62" x="2095.5" y="757.5879">Employee</text><rect fill="#E3E3E3" height="32.6211" rx="2.5" ry="2.5" style="stroke:#181818;stroke-width:0.5;" width="144" x="2174.5" y="50"/><text fill="#000000" font-family="sans-serif" font-size="14" lengthAdjust="spacing" textLength="130" x="2181.5" y="72.1074">EmployeeRepository</text><rect fill="#E3E3E3" height="32.6211" rx="2.5" ry="2.5" style="stroke:#181818;stroke-width:0.5;" width="144" x="2174.5" y="735.4805"/><text fill="#000000" font-family="sans-serif" font-size="14" lengthAdjust="spacing" textLength="130" x="2181.5" y="757.5879">EmployeeRepository</text><rect fill="#FFFFFF" height="624.8594" style="stroke:#181818;stroke-width:1.0;" width="10" x="87.5" y="93.6211"/><rect fill="#FFFFFF" height="200.0762" style="stroke:#181818;stroke-width:1.0;" width="10" x="755.5" y="116.9121"/><rect fill="#FFFFFF" height="75.582" style="stroke:#181818;stroke-width:1.0;" width="10" x="755.5" y="348.2793"/><rect fill="#FFFFFF" height="263.3281" style="stroke:#181818;stroke-width:1.0;" width="10" x="755.5" y="455.1523"/><rect fill="#FFFFFF" height="200.7461" style="stroke:#181818;stroke-width:1.0;" width="10" x="1467.5" y="486.4434"/><rect fill="#FFFFFF" height="31.291" style="stroke:#181818;stroke-width:1.0;" width="10" x="1620" y="191.8242"/><rect fill="#FFFFFF" height="31.291" style="stroke:#181818;stroke-width:1.0;" width="10" x="1727" y="254.4063"/><rect fill="#FFFFFF" height="569.2773" style="stroke:#181818;stroke-width:1.0;" width="10" x="2018" y="158.2031"/><rect fill="#FFFFFF" height="31.291" style="stroke:#181818;stroke-width:1.0;" width="10" x="2121.5" y="517.7344"/><rect fill="#FFFFFF" height="75.582" style="stroke:#181818;stroke-width:1.0;" width="10" x="2241.5" y="580.3164"/><polygon fill="#181818" points="743.5,112.9121,753.5,116.9121,743.5,120.9121,747.5,116.9121" style="stroke:#181818;stroke-width:1.0;"/><line style="stroke:#181818;stroke-width:1.0;" x1="97.5" x2="749.5" y1="116.9121" y2="116.9121"/><text fill="#000000" font-family="sans-serif" font-size="13" font-weight="bold" lengthAdjust="spacing" textLength="7" x="104.5" y="111.6494">1</text><text fill="#000000" font-family="sans-serif" font-size="13" lengthAdjust="spacing" textLength="188" x="115.5" y="111.6494">asks to register a new employee</text><polygon fill="#181818" points="1366.5,144.2031,1376.5,148.2031,1366.5,152.2031,1370.5,148.2031" style="stroke:#181818;stroke-width:1.0;"/><line style="stroke:#181818;stroke-width:1.0;" x1="765.5" x2="1372.5" y1="148.2031" y2="148.2031"/><text fill="#000000" font-family="sans-serif" font-size="13" font-weight="bold" lengthAdjust="spacing" textLength="7" x="772.5" y="142.9404">2</text><text fill="#000000" font-family="sans-serif" font-size="13" lengthAdjust="spacing" textLength="36" x="783.5" y="142.9404">create</text><rect fill="#E3E3E3" height="32.6211" rx="2.5" ry="2.5" style="stroke:#181818;stroke-width:0.5;" width="188" x="1378.5" y="124.9121"/><text fill="#000000" font-family="sans-serif" font-size="14" lengthAdjust="spacing" textLength="174" x="1385.5" y="147.0195">:CreateEmployeelController</text><polygon fill="#181818" points="1641,187.8242,1631,191.8242,1641,195.8242,1637,191.8242" style="stroke:#181818;stroke-width:1.0;"/><line style="stroke:#181818;stroke-width:1.0;" x1="1635" x2="2017" y1="191.8242" y2="191.8242"/><text fill="#000000" font-family="sans-serif" font-size="13" font-weight="bold" lengthAdjust="spacing" textLength="7" x="1647" y="186.5615">3</text><text fill="#000000" font-family="sans-serif" font-size="13" lengthAdjust="spacing" textLength="75" x="1658" y="186.5615">getInstance()</text><polygon fill="#181818" points="1483.5,219.1152,1473.5,223.1152,1483.5,227.1152,1479.5,223.1152" style="stroke:#181818;stroke-width:1.0;"/><line style="stroke:#181818;stroke-width:1.0;stroke-dasharray:2.0,2.0;" x1="1477.5" x2="1624" y1="223.1152" y2="223.1152"/><text fill="#000000" font-family="sans-serif" font-size="13" font-weight="bold" lengthAdjust="spacing" textLength="7" x="1489.5" y="217.8525">4</text><text fill="#000000" font-family="sans-serif" font-size="13" lengthAdjust="spacing" textLength="67" x="1500.5" y="217.8525">repositories</text><polygon fill="#181818" points="1715,250.4063,1725,254.4063,1715,258.4063,1719,254.4063" style="stroke:#181818;stroke-width:1.0;"/><line style="stroke:#181818;stroke-width:1.0;" x1="1472.5" x2="1721" y1="254.4063" y2="254.4063"/><text fill="#000000" font-family="sans-serif" font-size="13" font-weight="bold" lengthAdjust="spacing" textLength="7" x="1479.5" y="249.1436">5</text><text fill="#000000" font-family="sans-serif" font-size="13" lengthAdjust="spacing" textLength="146" x="1490.5" y="249.1436">getEmployeeRepository()</text><polygon fill="#181818" points="1483.5,281.6973,1473.5,285.6973,1483.5,289.6973,1479.5,285.6973" style="stroke:#181818;stroke-width:1.0;"/><line style="stroke:#181818;stroke-width:1.0;stroke-dasharray:2.0,2.0;" x1="1477.5" x2="1731" y1="285.6973" y2="285.6973"/><text fill="#000000" font-family="sans-serif" font-size="13" font-weight="bold" lengthAdjust="spacing" textLength="7" x="1489.5" y="280.4346">6</text><text fill="#000000" font-family="sans-serif" font-size="13" lengthAdjust="spacing" textLength="120" x="1500.5" y="280.4346">EmployeeRepository</text><polygon fill="#181818" points="108.5,312.9883,98.5,316.9883,108.5,320.9883,104.5,316.9883" style="stroke:#181818;stroke-width:1.0;"/><line style="stroke:#181818;stroke-width:1.0;stroke-dasharray:2.0,2.0;" x1="102.5" x2="759.5" y1="316.9883" y2="316.9883"/><text fill="#000000" font-family="sans-serif" font-size="13" font-weight="bold" lengthAdjust="spacing" textLength="7" x="114.5" y="311.7256">7</text><text fill="#000000" font-family="sans-serif" font-size="13" lengthAdjust="spacing" textLength="623" x="125.5" y="311.7256">requestData (name, birthDate, admissionDate, adress, email, mobile, docIdType, docIdNum, TaxPayerNum)</text><polygon fill="#181818" points="743.5,344.2793,753.5,348.2793,743.5,352.2793,747.5,348.2793" style="stroke:#181818;stroke-width:1.0;"/><line style="stroke:#181818;stroke-width:1.0;" x1="97.5" x2="749.5" y1="348.2793" y2="348.2793"/><text fill="#000000" font-family="sans-serif" font-size="13" font-weight="bold" lengthAdjust="spacing" textLength="7" x="104.5" y="343.0166">8</text><text fill="#000000" font-family="sans-serif" font-size="13" lengthAdjust="spacing" textLength="122" x="115.5" y="343.0166">types requested data</text><line style="stroke:#181818;stroke-width:1.0;" x1="765.5" x2="807.5" y1="384.5703" y2="384.5703"/><line style="stroke:#181818;stroke-width:1.0;" x1="807.5" x2="807.5" y1="384.5703" y2="397.5703"/><line style="stroke:#181818;stroke-width:1.0;" x1="760.5" x2="807.5" y1="397.5703" y2="397.5703"/><polygon fill="#181818" points="770.5,393.5703,760.5,397.5703,770.5,401.5703,766.5,397.5703" style="stroke:#181818;stroke-width:1.0;"/><text fill="#000000" font-family="sans-serif" font-size="13" font-weight="bold" lengthAdjust="spacing" textLength="7" x="772.5" y="379.3076">9</text><text fill="#000000" font-family="sans-serif" font-size="13" lengthAdjust="spacing" textLength="677" x="783.5" y="379.3076">validateEmployeeData(name, birthDate, admissionDate, adress, email, mobile, docIdType, docIdNum, TaxPayerNum)</text><polygon fill="#181818" points="108.5,419.8613,98.5,423.8613,108.5,427.8613,104.5,423.8613" style="stroke:#181818;stroke-width:1.0;"/><line style="stroke:#181818;stroke-width:1.0;stroke-dasharray:2.0,2.0;" x1="102.5" x2="759.5" y1="423.8613" y2="423.8613"/><text fill="#000000" font-family="sans-serif" font-size="13" font-weight="bold" lengthAdjust="spacing" textLength="14" x="114.5" y="418.5986">10</text><text fill="#000000" font-family="sans-serif" font-size="13" lengthAdjust="spacing" textLength="281" x="132.5" y="418.5986">shows Employee data and requests confirmation</text><polygon fill="#181818" points="743.5,451.1523,753.5,455.1523,743.5,459.1523,747.5,455.1523" style="stroke:#181818;stroke-width:1.0;"/><line style="stroke:#181818;stroke-width:1.0;" x1="97.5" x2="749.5" y1="455.1523" y2="455.1523"/><text fill="#000000" font-family="sans-serif" font-size="13" font-weight="bold" lengthAdjust="spacing" textLength="14" x="104.5" y="449.8896">11</text><text fill="#000000" font-family="sans-serif" font-size="13" lengthAdjust="spacing" textLength="78" x="122.5" y="449.8896">confirms data</text><polygon fill="#181818" points="1455.5,482.4434,1465.5,486.4434,1455.5,490.4434,1459.5,486.4434" style="stroke:#181818;stroke-width:1.0;"/><line style="stroke:#181818;stroke-width:1.0;" x1="765.5" x2="1461.5" y1="486.4434" y2="486.4434"/><text fill="#000000" font-family="sans-serif" font-size="13" font-weight="bold" lengthAdjust="spacing" textLength="14" x="772.5" y="481.1807">12</text><text fill="#000000" font-family="sans-serif" font-size="13" lengthAdjust="spacing" textLength="643" x="790.5" y="481.1807">createEmployee(name, birthDate, admissionDate, adress, email, mobile, docIdType, docIdNum, TaxPayerNum)</text><polygon fill="#181818" points="2109.5,513.7344,2119.5,517.7344,2109.5,521.7344,2113.5,517.7344" style="stroke:#181818;stroke-width:1.0;"/><line style="stroke:#181818;stroke-width:1.0;" x1="1477.5" x2="2115.5" y1="517.7344" y2="517.7344"/><text fill="#000000" font-family="sans-serif" font-size="13" font-weight="bold" lengthAdjust="spacing" textLength="14" x="1484.5" y="512.4717">13</text><text fill="#000000" font-family="sans-serif" font-size="13" lengthAdjust="spacing" textLength="607" x="1502.5" y="512.4717">Employee(name, birthDate, admissionDate, adress, email, mobile, docIdType, docIdNum, TaxPayerNum)</text><polygon fill="#181818" points="1488.5,545.0254,1478.5,549.0254,1488.5,553.0254,1484.5,549.0254" style="stroke:#181818;stroke-width:1.0;"/><line style="stroke:#181818;stroke-width:1.0;stroke-dasharray:2.0,2.0;" x1="1482.5" x2="2125.5" y1="549.0254" y2="549.0254"/><text fill="#000000" font-family="sans-serif" font-size="13" font-weight="bold" lengthAdjust="spacing" textLength="14" x="1494.5" y="543.7627">14</text><text fill="#000000" font-family="sans-serif" font-size="13" lengthAdjust="spacing" textLength="81" x="1512.5" y="543.7627">newEmployee</text><polygon fill="#181818" points="2229.5,576.3164,2239.5,580.3164,2229.5,584.3164,2233.5,580.3164" style="stroke:#181818;stroke-width:1.0;"/><line style="stroke:#181818;stroke-width:1.0;" x1="1477.5" x2="2235.5" y1="580.3164" y2="580.3164"/><text fill="#000000" font-family="sans-serif" font-size="13" font-weight="bold" lengthAdjust="spacing" textLength="14" x="1484.5" y="575.0537">15</text><text fill="#000000" font-family="sans-serif" font-size="13" lengthAdjust="spacing" textLength="110" x="1502.5" y="575.0537">add(newEmployee)</text><line style="stroke:#181818;stroke-width:1.0;" x1="2251.5" x2="2293.5" y1="611.6074" y2="611.6074"/><line style="stroke:#181818;stroke-width:1.0;" x1="2293.5" x2="2293.5" y1="611.6074" y2="624.6074"/><line style="stroke:#181818;stroke-width:1.0;" x1="2252.5" x2="2293.5" y1="624.6074" y2="624.6074"/><polygon fill="#181818" points="2262.5,620.6074,2252.5,624.6074,2262.5,628.6074,2258.5,624.6074" style="stroke:#181818;stroke-width:1.0;"/><text fill="#000000" font-family="sans-serif" font-size="13" font-weight="bold" lengthAdjust="spacing" textLength="14" x="2258.5" y="606.3447">16</text><text fill="#000000" font-family="sans-serif" font-size="13" lengthAdjust="spacing" textLength="190" x="2276.5" y="606.3447">validateEmployee(newEmployee)</text><polygon fill="#181818" points="1488.5,651.8984,1478.5,655.8984,1488.5,659.8984,1484.5,655.8984" style="stroke:#181818;stroke-width:1.0;"/><line style="stroke:#181818;stroke-width:1.0;stroke-dasharray:2.0,2.0;" x1="1482.5" x2="2245.5" y1="655.8984" y2="655.8984"/><text fill="#000000" font-family="sans-serif" font-size="13" font-weight="bold" lengthAdjust="spacing" textLength="14" x="1494.5" y="650.6357">17</text><text fill="#000000" font-family="sans-serif" font-size="13" lengthAdjust="spacing" textLength="81" x="1512.5" y="650.6357">newEmployee</text><polygon fill="#181818" points="776.5,683.1895,766.5,687.1895,776.5,691.1895,772.5,687.1895" style="stroke:#181818;stroke-width:1.0;"/><line style="stroke:#181818;stroke-width:1.0;stroke-dasharray:2.0,2.0;" x1="770.5" x2="1471.5" y1="687.1895" y2="687.1895"/><text fill="#000000" font-family="sans-serif" font-size="13" font-weight="bold" lengthAdjust="spacing" textLength="14" x="782.5" y="681.9268">18</text><text fill="#000000" font-family="sans-serif" font-size="13" lengthAdjust="spacing" textLength="81" x="800.5" y="681.9268">newEmployee</text><polygon fill="#181818" points="103.5,714.4805,93.5,718.4805,103.5,722.4805,99.5,718.4805" style="stroke:#181818;stroke-width:1.0;"/><line style="stroke:#181818;stroke-width:1.0;" x1="97.5" x2="759.5" y1="718.4805" y2="718.4805"/><text fill="#000000" font-family="sans-serif" font-size="13" font-weight="bold" lengthAdjust="spacing" textLength="14" x="109.5" y="713.2178">19</text><text fill="#000000" font-family="sans-serif" font-size="13" lengthAdjust="spacing" textLength="158" x="127.5" y="713.2178">displays success operation</text><!--SRC=[lLPDRo8n3BtFhx2uG2lw1pZiXQrKj7Ir0dhhnIG68ZB9R98fvT-lPu0XyuLOhRevaSH-jb-UpVYzCXawJ26rnegTiob1S3ablhh9KEnnIyjmr0IEH42prR61tw6q1sMsi47jAKam3zRawPfSaWntIX9ih0rh-ybN8bW7WvSyHGCByZPtWk0L3KTm0q0FBulNX7634Yf34s0mcJh2GCzffksHIB_DIhktsMspgJN1MQtFiABQDjmMb5clE2j5lhJqggYFAqXurMnTPFfksfvyttHXbhIk38-JTtD9y7fuYdesR6ItB8vBW-MFsNnU4gW-kCwIfmJEYpVmz8qvWGdRxZq4ozbibG_a0C7G0UWSz-fKGJ6L4AsXA9c4wMenhrqmF0UvClduoE5EnadDi48k8MfNnIfE2wIAQORPKfWPpzeID7fekrI8qUj0nxf2FjLIvGZnwxMT9TqJ8W9aU4OyPTv-qvirb3hfohu0RENT1h-PVGiykekQe6upTFGx9nzOEBjIMeM0kB_p0183jbJ0EHP61QcbttSsWf71bCQmLYxi-81_eaoLzygQozQHzsEM8Yezvf6pLfgFfHKpkJfcbvy_ytGCA_pyXKTol7b8EafXpNQgFp2ElwH5yfH-f-Gxf5qYVA1MCfeaHMrVLzfTRzLBlz_PWwyKKXOBQ2HKpyae6-LI32gMSm-FJIxFplxlIAo9LzI6yXVIsDbelNflztB5uRNX_bEsjOoVMrFwige4MmE2ftk_M_JK_KRTL5m7Jl6l8kKe2dHF3RS6LbnH5ASlUhCd6wdS3V-lrFML51DuwPuQTd9dXvzQwDJSKlbCuv6_3N8XM6XWCt9H9pUwEDeMtmP_0000]--></g></svg>