<?xml version="1.0" encoding="us-ascii" standalone="no"?><svg xmlns="http://www.w3.org/2000/svg" xmlns:xlink="http://www.w3.org/1999/xlink" contentStyleType="text/css" height="164px" preserveAspectRatio="none" style="width:809px;height:164px;background:#FFFFFF;" version="1.1" viewBox="0 0 809 164" width="809px" zoomAndPan="magnify"><defs/><g><text fill="#000000" font-family="sans-serif" font-size="14" font-weight="bold" lengthAdjust="spacing" textLength="100" x="347.5" y="25.1074">Domain Model</text><!--class GreenSpaceManager--><g id="elem_GreenSpaceManager"><rect codeLine="14" fill="#F1F1F1" height="36.6211" id="GreenSpaceManager" rx="2.5" ry="2.5" style="stroke:#181818;stroke-width:0.5;" width="142" x="7" y="61.8838"/><text fill="#000000" font-family="sans-serif" font-size="14" lengthAdjust="spacing" textLength="136" x="10" y="81.9912">GreenSpaceManager</text><line style="stroke:#181818;stroke-width:0.5;" x1="8" x2="148" y1="90.5049" y2="90.5049"/></g><!--class ToDoList--><g id="elem_ToDoList"><rect codeLine="18" fill="#F1F1F1" height="55.2422" id="ToDoList" rx="2.5" ry="2.5" style="stroke:#181818;stroke-width:0.5;" width="101" x="701" y="52.8838"/><text fill="#000000" font-family="sans-serif" font-size="14" lengthAdjust="spacing" textLength="57" x="723" y="72.9912">ToDoList</text><line style="stroke:#181818;stroke-width:0.5;" x1="702" x2="801" y1="81.5049" y2="81.5049"/><text fill="#000000" font-family="sans-serif" font-size="14" lengthAdjust="spacing" textLength="89" x="707" y="100.6123">pendingTasks</text></g><!--class Agenda--><g id="elem_Agenda"><rect codeLine="21" fill="#F1F1F1" height="55.2422" id="Agenda" rx="2.5" ry="2.5" style="stroke:#181818;stroke-width:0.5;" width="101" x="435" y="101.8838"/><text fill="#000000" font-family="sans-serif" font-size="14" lengthAdjust="spacing" textLength="49" x="461" y="121.9912">Agenda</text><line style="stroke:#181818;stroke-width:0.5;" x1="436" x2="535" y1="130.5049" y2="130.5049"/><text fill="#000000" font-family="sans-serif" font-size="14" lengthAdjust="spacing" textLength="89" x="441" y="149.6123">plannedTasks</text></g><!--class Manager--><g id="elem_Manager"><rect codeLine="25" fill="#F1F1F1" height="55.2422" id="Manager" rx="2.5" ry="2.5" style="stroke:#181818;stroke-width:0.5;" width="62" x="245" y="52.8838"/><text fill="#000000" font-family="sans-serif" font-size="14" lengthAdjust="spacing" textLength="56" x="248" y="72.9912">Manager</text><line style="stroke:#181818;stroke-width:0.5;" x1="246" x2="306" y1="81.5049" y2="81.5049"/><text fill="#000000" font-family="sans-serif" font-size="14" lengthAdjust="spacing" textLength="45" x="251" y="100.6123">section</text></g><!--link GreenSpaceManager to Manager--><g id="link_GreenSpaceManager_Manager"><path codeLine="29" d="M149.21,80.3838 C182.05,80.3838 219.43,80.3838 244.85,80.3838 " fill="none" id="GreenSpaceManager-Manager" style="stroke:#181818;stroke-width:1.0;"/><polygon fill="#000000" points="179,71.0293,188.0451,73.9682,188.0451,68.0904,179,71.0293" style="stroke:#000000;stroke-width:1.0;"/><text fill="#000000" font-family="sans-serif" font-size="13" lengthAdjust="spacing" textLength="21" x="193" y="76.4121">is a</text><text fill="#000000" font-family="sans-serif" font-size="13" lengthAdjust="spacing" textLength="16" x="157.0072" y="95.2818">1.*</text><text fill="#000000" font-family="sans-serif" font-size="13" lengthAdjust="spacing" textLength="7" x="229.8372" y="96.3834">1</text></g><!--link Manager to ToDoList--><g id="link_Manager_ToDoList"><path codeLine="30" d="M307.01,72.5638 C316.53,70.4438 327.14,68.4438 337,67.3838 C367.05,64.1638 374.78,67.3238 405,67.3838 C523.22,67.6038 553.13,59.3138 671,68.3838 C680.6,69.1238 690.8,70.3338 700.58,71.7138 " fill="none" id="Manager-ToDoList" style="stroke:#181818;stroke-width:1.0;"/><polygon fill="#000000" points="461.5,56.0185,452.4486,53.0991,452.4613,58.977,461.5,56.0185" style="stroke:#000000;stroke-width:1.0;"/><text fill="#000000" font-family="sans-serif" font-size="13" lengthAdjust="spacing" textLength="53" x="465.5" y="61.4121">manages</text><text fill="#000000" font-family="sans-serif" font-size="13" lengthAdjust="spacing" textLength="7" x="314.9904" y="65.8238">1</text><text fill="#000000" font-family="sans-serif" font-size="13" lengthAdjust="spacing" textLength="5" x="688.0678" y="85.7216">*</text></g><!--link Manager to Agenda--><g id="link_Manager_Agenda"><path codeLine="31" d="M307.17,87.5138 C340.56,95.3938 394.88,108.2238 434.61,117.6038 " fill="none" id="Manager-Agenda" style="stroke:#181818;stroke-width:1.0;"/><polygon fill="#000000" points="346.8662,86.1783,338.7385,81.2395,337.3878,86.96,346.8662,86.1783" style="stroke:#000000;stroke-width:1.0;"/><text fill="#000000" font-family="sans-serif" font-size="13" lengthAdjust="spacing" textLength="53" x="351" y="90.4121">manages</text><text fill="#000000" font-family="sans-serif" font-size="13" lengthAdjust="spacing" textLength="7" x="315.1874" y="105.1622">1</text><text fill="#000000" font-family="sans-serif" font-size="13" lengthAdjust="spacing" textLength="5" x="422.102" y="131.1743">*</text></g><!--link Agenda to ToDoList--><g id="link_Agenda_ToDoList"><path codeLine="32" d="M536.16,120.1638 C583.21,111.4338 653.49,98.3838 700.62,89.6438 " fill="none" id="Agenda-ToDoList" style="stroke:#181818;stroke-width:1.0;"/><polygon fill="#000000" points="575.9161,85.117,566.4866,83.8778,567.5591,89.657,575.9161,85.117" style="stroke:#000000;stroke-width:1.0;"/><text fill="#000000" font-family="sans-serif" font-size="13" lengthAdjust="spacing" textLength="90" x="580" y="91.4121">gets tasks from</text><text fill="#000000" font-family="sans-serif" font-size="13" lengthAdjust="spacing" textLength="7" x="544.1148" y="134.0899">1</text><text fill="#000000" font-family="sans-serif" font-size="13" lengthAdjust="spacing" textLength="5" x="688.1134" y="106.173">*</text></g><!--SRC=[RP71QiCm38RlUWgHuw1Zk_OmA1J6O3sbBw3PQYBgsC5I6LlPkqzjawrizKdu_oH_mhgNF5Ab0OUII-Xh6HYj7XZq9nafxAdZrZuIO-LWbBjq3MXFiRnBxd17IHaWySxG2bRfUiCefoOf6QvwGYBLbLcLjuFnIoYvbK_61u1U8cEG6loDSpsmzIKgW8cvmReC91at9N82EC_1vygSMnVb3MLthNW4-9hJRLcNLr4x0lePEKTttPBkrPaBikhybd0Y4kNCSIOcv7VoYT5f9O_de7biSB4uZ5xStpN_dPOeYeHFVngmSNXMNE9m3lKsTj6yXYRncwCwDaKxRO4x_rYduHi0]--></g></svg>