<?xml version="1.0" encoding="us-ascii" standalone="no"?><svg xmlns="http://www.w3.org/2000/svg" xmlns:xlink="http://www.w3.org/1999/xlink" contentStyleType="text/css" height="663px" preserveAspectRatio="none" style="width:406px;height:663px;background:#FFFFFF;" version="1.1" viewBox="0 0 406 663" width="406px" zoomAndPan="magnify"><defs/><g><text fill="#000000" font-family="sans-serif" font-size="14" font-weight="bold" lengthAdjust="spacing" textLength="105" x="143.8008" y="23.5352">Domain Model</text><!--class Manager--><g id="elem_Manager"><rect codeLine="12" fill="#F1F1F1" height="50.9766" id="Manager" rx="2.5" ry="2.5" style="stroke:#181818;stroke-width:0.5;" width="66" x="172.1016" y="155.9783"/><text fill="#000000" font-family="sans-serif" font-size="14" lengthAdjust="spacing" textLength="60" x="175.1016" y="174.5134">Manager</text><line style="stroke:#181818;stroke-width:0.5;" x1="173.1016" x2="237.1016" y1="182.4666" y2="182.4666"/><text fill="#000000" font-family="sans-serif" font-size="14" lengthAdjust="spacing" textLength="49" x="178.1016" y="200.0017">section</text></g><!--class HumanResourcesManager--><g id="elem_HumanResourcesManager"><rect codeLine="16" fill="#F1F1F1" height="34.4883" id="HumanResourcesManager" rx="2.5" ry="2.5" style="stroke:#181818;stroke-width:0.5;" width="185" x="214.6016" y="44.4883"/><text fill="#000000" font-family="sans-serif" font-size="14" lengthAdjust="spacing" textLength="179" x="217.6016" y="63.0234">HumanResourcesManager</text><line style="stroke:#181818;stroke-width:0.5;" x1="215.6016" x2="398.6016" y1="70.9766" y2="70.9766"/></g><!--class GreenSpacesManager--><g id="elem_GreenSpacesManager"><rect codeLine="20" fill="#F1F1F1" height="34.4883" id="GreenSpacesManager" rx="2.5" ry="2.5" style="stroke:#181818;stroke-width:0.5;" width="154" x="26.1016" y="44.4883"/><text fill="#000000" font-family="sans-serif" font-size="14" lengthAdjust="spacing" textLength="148" x="29.1016" y="63.0234">GreenSpacesManager</text><line style="stroke:#181818;stroke-width:0.5;" x1="27.1016" x2="179.1016" y1="70.9766" y2="70.9766"/></g><!--class Agenda--><g id="elem_Agenda"><rect codeLine="26" fill="#F1F1F1" height="50.9766" id="Agenda" rx="2.5" ry="2.5" style="stroke:#181818;stroke-width:0.5;" width="107" x="28.6016" y="283.9583"/><text fill="#000000" font-family="sans-serif" font-size="14" lengthAdjust="spacing" textLength="53" x="55.6016" y="302.4934">Agenda</text><line style="stroke:#181818;stroke-width:0.5;" x1="29.6016" x2="134.6016" y1="310.4466" y2="310.4466"/><text fill="#000000" font-family="sans-serif" font-size="14" lengthAdjust="spacing" textLength="95" x="34.6016" y="327.9817">plannedTasks</text></g><!--class Task--><g id="elem_Task"><rect codeLine="31" fill="#F1F1F1" height="116.9297" id="Task" rx="2.5" ry="2.5" style="stroke:#181818;stroke-width:0.5;" width="118" x="147.1016" y="411.9283"/><text fill="#000000" font-family="sans-serif" font-size="14" lengthAdjust="spacing" textLength="32" x="190.1016" y="430.4634">Task</text><line style="stroke:#181818;stroke-width:0.5;" x1="148.1016" x2="264.1016" y1="438.4166" y2="438.4166"/><text fill="#000000" font-family="sans-serif" font-size="14" lengthAdjust="spacing" textLength="31" x="153.1016" y="455.9517">park</text><text fill="#000000" font-family="sans-serif" font-size="14" lengthAdjust="spacing" textLength="61" x="153.1016" y="472.44">taskType</text><text fill="#000000" font-family="sans-serif" font-size="14" lengthAdjust="spacing" textLength="106" x="153.1016" y="488.9283">taskDescription</text><text fill="#000000" font-family="sans-serif" font-size="14" lengthAdjust="spacing" textLength="50" x="153.1016" y="505.4166">priority</text><text fill="#000000" font-family="sans-serif" font-size="14" lengthAdjust="spacing" textLength="41" x="153.1016" y="521.9048">status</text></g><!--class ToDoList--><g id="elem_ToDoList"><rect codeLine="40" fill="#F1F1F1" height="50.9766" id="ToDoList" rx="2.5" ry="2.5" style="stroke:#181818;stroke-width:0.5;" width="108" x="152.1016" y="605.8583"/><text fill="#000000" font-family="sans-serif" font-size="14" lengthAdjust="spacing" textLength="60" x="176.1016" y="624.3934">ToDoList</text><line style="stroke:#181818;stroke-width:0.5;" x1="153.1016" x2="259.1016" y1="632.3466" y2="632.3466"/><text fill="#000000" font-family="sans-serif" font-size="14" lengthAdjust="spacing" textLength="96" x="158.1016" y="649.8817">pendingTasks</text></g><!--link Manager to Agenda--><g id="link_Manager_Agenda"><path codeLine="45" d="M171.7216,201.2183 C143.6616,216.9783 108.1016,236.9583 108.1016,236.9583 C108.1016,236.9583 98.5716,263.1583 91.0516,283.8383 " fill="none" id="Manager-Agenda" style="stroke:#181818;stroke-width:1.0;"/><polygon fill="#000000" points="109.6085,249.1911,118.0303,244.7725,113.8247,240.6661,109.6085,249.1911" style="stroke:#000000;stroke-width:1.0;"/><text fill="#000000" font-family="sans-serif" font-size="13" lengthAdjust="spacing" textLength="56" x="122.1016" y="250.5266">manages</text><text fill="#000000" font-family="sans-serif" font-size="13" lengthAdjust="spacing" textLength="8" x="156.012" y="201.3456">1</text><text fill="#000000" font-family="sans-serif" font-size="13" lengthAdjust="spacing" textLength="8" x="84.2581" y="273.3743">1</text></g><!--link Manager to ToDoList--><g id="link_Manager_ToDoList"><path codeLine="46" d="M221.9816,207.2983 C242.4116,237.3383 274.1016,283.9583 274.1016,283.9583 C274.1016,283.9583 283.1016,411.9283 283.1016,411.9283 C283.1016,411.9283 283.1016,528.8583 283.1016,528.8583 C283.1016,528.8583 251.1016,575.8583 251.1016,575.8583 C251.1016,575.8583 238.4016,591.2383 226.4916,605.6583 " fill="none" id="Manager-ToDoList" style="stroke:#181818;stroke-width:1.0;"/><polygon fill="#000000" points="285.1582,378.5832,287.9945,369.5055,282.1171,369.572,285.1582,378.5832" style="stroke:#000000;stroke-width:1.0;"/><text fill="#000000" font-family="sans-serif" font-size="13" lengthAdjust="spacing" textLength="56" x="294.1016" y="378.4966">manages</text><text fill="#000000" font-family="sans-serif" font-size="13" lengthAdjust="spacing" textLength="8" x="216.9601" y="227.6105">1</text><text fill="#000000" font-family="sans-serif" font-size="13" lengthAdjust="spacing" textLength="6" x="224.7304" y="595.1748">*</text></g><!--link Manager to Task--><g id="link_Manager_Task"><path codeLine="47" d="M205.1916,207.4283 C205.3416,252.6283 205.6816,349.1183 205.9016,411.5283 " fill="none" id="Manager-Task" style="stroke:#181818;stroke-width:1.0;"/><polygon fill="#000000" points="211.119,314.6035,214.0264,305.5483,208.1486,305.5687,211.119,314.6035" style="stroke:#000000;stroke-width:1.0;"/><text fill="#000000" font-family="sans-serif" font-size="13" lengthAdjust="spacing" textLength="45" x="220.1016" y="314.5166">creates</text><text fill="#000000" font-family="sans-serif" font-size="13" lengthAdjust="spacing" textLength="8" x="196.3363" y="227.3504">1</text><text fill="#000000" font-family="sans-serif" font-size="13" lengthAdjust="spacing" textLength="6" x="199.5116" y="401.0273">*</text></g><!--link HumanResourcesManager to Manager--><g id="link_HumanResourcesManager_Manager"><path codeLine="48" d="M292.7016,79.3483 C275.4616,99.2583 246.4216,132.7783 226.5316,155.7283 " fill="none" id="HumanResourcesManager-Manager" style="stroke:#181818;stroke-width:1.0;"/><polygon fill="#000000" points="273.3755,113.8545,265.2316,118.7665,269.6742,122.6153,273.3755,113.8545" style="stroke:#000000;stroke-width:1.0;"/><text fill="#000000" font-family="sans-serif" font-size="13" lengthAdjust="spacing" textLength="22" x="279.1016" y="122.5466">is a</text><text fill="#000000" font-family="sans-serif" font-size="13" lengthAdjust="spacing" textLength="22" x="262.9228" y="99.6559">1..*</text><text fill="#000000" font-family="sans-serif" font-size="13" lengthAdjust="spacing" textLength="8" x="222.7801" y="145.2327">1</text></g><!--link GreenSpacesManager to Manager--><g id="link_GreenSpacesManager_Manager"><path codeLine="49" d="M117.5016,79.3483 C134.7416,99.2583 163.7816,132.7783 183.6716,155.7283 " fill="none" id="GreenSpacesManager-Manager" style="stroke:#181818;stroke-width:1.0;"/><polygon fill="#000000" points="159.8277,113.8545,163.529,122.6153,167.9715,118.7665,159.8277,113.8545" style="stroke:#000000;stroke-width:1.0;"/><text fill="#000000" font-family="sans-serif" font-size="13" lengthAdjust="spacing" textLength="22" x="172.1016" y="122.5466">is a</text><text fill="#000000" font-family="sans-serif" font-size="13" lengthAdjust="spacing" textLength="22" x="96.5428" y="99.6559">1..*</text><text fill="#000000" font-family="sans-serif" font-size="13" lengthAdjust="spacing" textLength="8" x="169.473" y="145.2327">1</text></g><!--link Agenda to ToDoList--><g id="link_Agenda_ToDoList"><path codeLine="52" d="M65.7116,335.2683 C45.8716,365.3183 15.1016,411.9283 15.1016,411.9283 C15.1016,411.9283 15.1016,528.8583 15.1016,528.8583 C15.1016,528.8583 102.8316,575.4783 159.3816,605.5183 " fill="none" id="Agenda-ToDoList" style="stroke:#181818;stroke-width:1.0;"/><polygon fill="#000000" points="21.739,475.2778,21.5537,465.7691,16,467.694,21.739,475.2778" style="stroke:#000000;stroke-width:1.0;"/><text fill="#000000" font-family="sans-serif" font-size="13" lengthAdjust="spacing" textLength="99" x="29.1016" y="475.4666">gets tasks from</text><text fill="#000000" font-family="sans-serif" font-size="13" lengthAdjust="spacing" textLength="8" x="52.9964" y="355.5782">1</text><text fill="#000000" font-family="sans-serif" font-size="13" lengthAdjust="spacing" textLength="6" x="141.2623" y="595.0007">*</text></g><!--link Agenda to Task--><g id="link_Agenda_Task"><path codeLine="53" d="M101.4816,335.2783 C117.3516,355.6283 140.4416,385.2283 160.8916,411.4483 " fill="none" id="Agenda-Task" style="stroke:#181818;stroke-width:1.0;"/><polygon fill="#000000" points="145.1767,377.5261,141.9312,368.5865,137.2964,372.2014,145.1767,377.5261" style="stroke:#000000;stroke-width:1.0;"/><text fill="#000000" font-family="sans-serif" font-size="13" lengthAdjust="spacing" textLength="22" x="151.1016" y="378.4966">has</text><text fill="#000000" font-family="sans-serif" font-size="13" lengthAdjust="spacing" textLength="8" x="97.0382" y="355.5905">1</text><text fill="#000000" font-family="sans-serif" font-size="13" lengthAdjust="spacing" textLength="6" x="149.3173" y="401.3519">*</text></g><!--link Task to ToDoList--><g id="link_Task_ToDoList"><path codeLine="56" d="M206.1016,529.2283 C206.1016,555.5083 206.1016,585.1983 206.1016,605.5783 " fill="none" id="Task-ToDoList" style="stroke:#181818;stroke-width:1.0;"/><polygon fill="#000000" points="211.1016,562.5136,208.1627,571.5586,214.0405,571.5586,211.1016,562.5136" style="stroke:#000000;stroke-width:1.0;"/><text fill="#000000" font-family="sans-serif" font-size="13" lengthAdjust="spacing" textLength="22" x="220.1016" y="572.4266">has</text><text fill="#000000" font-family="sans-serif" font-size="13" lengthAdjust="spacing" textLength="22" x="182.8297" y="549.4846">1..*</text><text fill="#000000" font-family="sans-serif" font-size="13" lengthAdjust="spacing" textLength="22" x="181.4203" y="595.0753">1..*</text></g><!--SRC=[XPB1QiCm38RlVWhHIs7GiLtB61GAss2zh7q1pL4J4SSEbiB8njvzhfisOIrRBf6ZJxz-VcSkDViM8pRG11zi5KD3eB4ZCtPQj3MMjDNU4KIoYhvqKq0gBC87-nBsw6JQSUn9-vQW3Qu_7CpSqLv10qGkAuM23u8S_6J8EXHPgKP-xvHURF1R_YIuCnKN19QZJTjptP1MeH1Zb3LvMuS6sSCc5EICoJAmGP-yH_Woa1uPbdsVsizTW_wD97JHaepmI3n58hzD6Vnkdu1LIRx0OK7hq7igTYYrPEZ87Cud0cET2qtVTYcRys5DOYEtsM0c8uV8sX-TAsed4r-xi0wlB3ge9W_f0iQz9w-p-nai5lbrDBg49hS47Y-WczbPzZyiBLg2ZOHw1UdQLDpU9kvglajW0VnZwZBpyuWnGzvNFPUaahCKsATVEV5Nw6ozGibg-MQ6jJcdN8sA1-x1_000]--></g></svg>