<?xml version="1.0" encoding="us-ascii" standalone="no"?><svg xmlns="http://www.w3.org/2000/svg" xmlns:xlink="http://www.w3.org/1999/xlink" contentStyleType="text/css" height="849px" preserveAspectRatio="none" style="width:991px;height:849px;background:#FFFFFF;" version="1.1" viewBox="0 0 991 849" width="991.8px" zoomAndPan="magnify"><defs/><g><text fill="#000000" font-family="sans-serif" font-size="8.4" font-weight="bold" lengthAdjust="spacing" textLength="63" x="460.343" y="14.1211">Domain Model</text><!--class Organization--><g id="elem_Organization"><rect codeLine="12" fill="#F1F1F1" height="70.1578" id="Organization" rx="1.5" ry="1.5" style="stroke:#181818;stroke-width:0.3;" width="66.6" x="21.5859" y="123.263"/><text fill="#000000" font-family="sans-serif" font-size="8.4" lengthAdjust="spacing" textLength="54" x="27.8859" y="134.3841">Organization</text><line style="stroke:#181818;stroke-width:0.3;" x1="22.1859" x2="87.5859" y1="139.1559" y2="139.1559"/><text fill="#000000" font-family="sans-serif" font-size="8.4" lengthAdjust="spacing" textLength="22.8" x="25.1859" y="149.677">name</text><text fill="#000000" font-family="sans-serif" font-size="8.4" lengthAdjust="spacing" textLength="45" x="25.1859" y="159.57">vatNumber</text><text fill="#000000" font-family="sans-serif" font-size="8.4" lengthAdjust="spacing" textLength="31.2" x="25.1859" y="169.463">website</text><text fill="#000000" font-family="sans-serif" font-size="8.4" lengthAdjust="spacing" textLength="59.4" x="25.1859" y="179.3559">phoneNumber</text><text fill="#000000" font-family="sans-serif" font-size="8.4" lengthAdjust="spacing" textLength="22.2" x="25.1859" y="189.2489">email</text></g><!--class Employee--><g id="elem_Employee"><rect codeLine="20" fill="#F1F1F1" height="20.693" id="Employee" rx="1.5" ry="1.5" style="stroke:#181818;stroke-width:0.3;" width="43.2" x="165.2859" y="308.873"/><text fill="#000000" font-family="sans-serif" font-size="8.4" lengthAdjust="spacing" textLength="39.6" x="167.0859" y="319.9941">Employee</text><line style="stroke:#181818;stroke-width:0.3;" x1="165.8859" x2="207.8859" y1="324.7659" y2="324.7659"/></g><!--class Collaborator--><g id="elem_Collaborator"><rect codeLine="24" fill="#F1F1F1" height="119.6227" id="Collaborator" rx="1.5" ry="1.5" style="stroke:#181818;stroke-width:0.3;" width="67.8" x="214.1859" y="475.295"/><text fill="#000000" font-family="sans-serif" font-size="8.4" lengthAdjust="spacing" textLength="52.2" x="221.9859" y="486.4161">Collaborator</text><line style="stroke:#181818;stroke-width:0.3;" x1="214.7859" x2="281.3859" y1="491.1879" y2="491.1879"/><text fill="#000000" font-family="sans-serif" font-size="8.4" lengthAdjust="spacing" textLength="22.8" x="217.7859" y="501.709">name</text><text fill="#000000" font-family="sans-serif" font-size="8.4" lengthAdjust="spacing" textLength="37.8" x="217.7859" y="511.602">birthdate</text><text fill="#000000" font-family="sans-serif" font-size="8.4" lengthAdjust="spacing" textLength="60.6" x="217.7859" y="521.495">admissionDate</text><text fill="#000000" font-family="sans-serif" font-size="8.4" lengthAdjust="spacing" textLength="32.4" x="217.7859" y="531.3879">address</text><text fill="#000000" font-family="sans-serif" font-size="8.4" lengthAdjust="spacing" textLength="60" x="217.7859" y="541.2809">mobileContact</text><text fill="#000000" font-family="sans-serif" font-size="8.4" lengthAdjust="spacing" textLength="54" x="217.7859" y="551.1739">emailContact</text><text fill="#000000" font-family="sans-serif" font-size="8.4" lengthAdjust="spacing" textLength="43.2" x="217.7859" y="561.0668">IDdocType</text><text fill="#000000" font-family="sans-serif" font-size="8.4" lengthAdjust="spacing" textLength="40.8" x="217.7859" y="570.9598">IDnumber</text><text fill="#000000" font-family="sans-serif" font-size="8.4" lengthAdjust="spacing" textLength="13.2" x="217.7859" y="580.8528">job</text><text fill="#000000" font-family="sans-serif" font-size="8.4" lengthAdjust="spacing" textLength="20.4" x="217.7859" y="590.7458">skills</text></g><!--class Manager--><g id="elem_Manager"><rect codeLine="38" fill="#F1F1F1" height="30.5859" id="Manager" rx="1.5" ry="1.5" style="stroke:#181818;stroke-width:0.3;" width="39.6" x="388.4859" y="143.051"/><text fill="#000000" font-family="sans-serif" font-size="8.4" lengthAdjust="spacing" textLength="36" x="390.2859" y="154.1721">Manager</text><line style="stroke:#181818;stroke-width:0.3;" x1="389.0859" x2="427.4859" y1="158.9439" y2="158.9439"/><text fill="#000000" font-family="sans-serif" font-size="8.4" lengthAdjust="spacing" textLength="29.4" x="392.0859" y="169.465">section</text></g><!--class HumanResourcesManager--><g id="elem_HumanResourcesManager"><rect codeLine="42" fill="#F1F1F1" height="20.693" id="HumanResourcesManager" rx="1.5" ry="1.5" style="stroke:#181818;stroke-width:0.3;" width="111" x="352.7859" y="41.531"/><text fill="#000000" font-family="sans-serif" font-size="8.4" lengthAdjust="spacing" textLength="107.4" x="354.5859" y="52.6521">HumanResourcesManager</text><line style="stroke:#181818;stroke-width:0.3;" x1="353.3859" x2="463.1859" y1="57.4239" y2="57.4239"/></g><!--class VehicleFleetManager--><g id="elem_VehicleFleetManager"><rect codeLine="46" fill="#F1F1F1" height="20.693" id="VehicleFleetManager" rx="1.5" ry="1.5" style="stroke:#181818;stroke-width:0.3;" width="88.8" x="242.6859" y="41.531"/><text fill="#000000" font-family="sans-serif" font-size="8.4" lengthAdjust="spacing" textLength="85.2" x="244.4859" y="52.6521">VehicleFleetManager</text><line style="stroke:#181818;stroke-width:0.3;" x1="243.2859" x2="330.8859" y1="57.4239" y2="57.4239"/></g><!--class GreenSpacesManager--><g id="elem_GreenSpacesManager"><rect codeLine="50" fill="#F1F1F1" height="20.693" id="GreenSpacesManager" rx="1.5" ry="1.5" style="stroke:#181818;stroke-width:0.3;" width="92.4" x="484.4859" y="41.531"/><text fill="#000000" font-family="sans-serif" font-size="8.4" lengthAdjust="spacing" textLength="88.8" x="486.2859" y="52.6521">GreenSpacesManager</text><line style="stroke:#181818;stroke-width:0.3;" x1="485.0859" x2="576.2859" y1="57.4239" y2="57.4239"/></g><!--class Skill--><g id="elem_Skill"><rect codeLine="54" fill="#F1F1F1" height="40.4789" id="Skill" rx="1.5" ry="1.5" style="stroke:#181818;stroke-width:0.3;" width="70.2" x="338.9859" y="641.117"/><text fill="#000000" font-family="sans-serif" font-size="8.4" lengthAdjust="spacing" textLength="16.8" x="365.6859" y="652.2381">Skill</text><line style="stroke:#181818;stroke-width:0.3;" x1="339.5859" x2="408.5859" y1="657.0099" y2="657.0099"/><text fill="#000000" font-family="sans-serif" font-size="8.4" lengthAdjust="spacing" textLength="39.6" x="342.5859" y="667.531">skillName</text><text fill="#000000" font-family="sans-serif" font-size="8.4" lengthAdjust="spacing" textLength="63" x="342.5859" y="677.424">skillDescription</text></g><!--class Job--><g id="elem_Job"><rect codeLine="59" fill="#F1F1F1" height="40.4789" id="Job" rx="1.5" ry="1.5" style="stroke:#181818;stroke-width:0.3;" width="67.2" x="303.2859" y="514.871"/><text fill="#000000" font-family="sans-serif" font-size="8.4" lengthAdjust="spacing" textLength="13.2" x="330.2859" y="525.9921">Job</text><line style="stroke:#181818;stroke-width:0.3;" x1="303.8859" x2="369.8859" y1="530.7639" y2="530.7639"/><text fill="#000000" font-family="sans-serif" font-size="8.4" lengthAdjust="spacing" textLength="36.6" x="306.8859" y="541.285">jobName</text><text fill="#000000" font-family="sans-serif" font-size="8.4" lengthAdjust="spacing" textLength="60" x="306.8859" y="551.178">jobDescription</text></g><!--class Vehicle--><g id="elem_Vehicle"><rect codeLine="64" fill="#F1F1F1" height="159.1945" id="Vehicle" rx="1.5" ry="1.5" style="stroke:#181818;stroke-width:0.3;" width="104.4" x="602.0859" y="239.621"/><text fill="#000000" font-family="sans-serif" font-size="8.4" lengthAdjust="spacing" textLength="29.4" x="639.5859" y="250.7421">Vehicle</text><line style="stroke:#181818;stroke-width:0.3;" x1="602.6859" x2="705.8859" y1="255.5139" y2="255.5139"/><text fill="#000000" font-family="sans-serif" font-size="8.4" lengthAdjust="spacing" textLength="24" x="605.6859" y="266.035">Brand</text><text fill="#000000" font-family="sans-serif" font-size="8.4" lengthAdjust="spacing" textLength="25.2" x="605.6859" y="275.928">Model</text><text fill="#000000" font-family="sans-serif" font-size="8.4" lengthAdjust="spacing" textLength="19.8" x="605.6859" y="285.821">Type</text><text fill="#000000" font-family="sans-serif" font-size="8.4" lengthAdjust="spacing" textLength="49.2" x="605.6859" y="295.7139">Tare Weight</text><text fill="#000000" font-family="sans-serif" font-size="8.4" lengthAdjust="spacing" textLength="54" x="605.6859" y="305.6069">Gross Weight</text><text fill="#000000" font-family="sans-serif" font-size="8.4" lengthAdjust="spacing" textLength="47.4" x="605.6859" y="315.4999">Current Km</text><text fill="#000000" font-family="sans-serif" font-size="8.4" lengthAdjust="spacing" textLength="54.6" x="605.6859" y="325.3928">Register Date</text><text fill="#000000" font-family="sans-serif" font-size="8.4" lengthAdjust="spacing" textLength="67.2" x="605.6859" y="335.2858">Acquisition Date</text><text fill="#000000" font-family="sans-serif" font-size="8.4" lengthAdjust="spacing" textLength="97.2" x="605.6859" y="345.1788">Maintenance Frequency</text><text fill="#000000" font-family="sans-serif" font-size="8.4" lengthAdjust="spacing" textLength="55.2" x="605.6859" y="355.0718">Plate Number</text><text fill="#000000" font-family="sans-serif" font-size="8.4" lengthAdjust="spacing" textLength="81.6" x="605.6859" y="364.9647">Passengers Number</text><text fill="#000000" font-family="sans-serif" font-size="8.4" lengthAdjust="spacing" textLength="60" x="605.6859" y="374.8577">Doors Number</text><text fill="#000000" font-family="sans-serif" font-size="8.4" lengthAdjust="spacing" textLength="39.6" x="605.6859" y="384.7507">Fuel Type</text><text fill="#000000" font-family="sans-serif" font-size="8.4" lengthAdjust="spacing" textLength="67.8" x="605.6859" y="394.6436">Trailer Machines</text></g><!--class VehicleCheckup--><g id="elem_VehicleCheckup"><rect codeLine="81" fill="#F1F1F1" height="40.4789" id="VehicleCheckup" rx="1.5" ry="1.5" style="stroke:#181818;stroke-width:0.3;" width="70.8" x="652.4859" y="514.871"/><text fill="#000000" font-family="sans-serif" font-size="8.4" lengthAdjust="spacing" textLength="65.4" x="655.1859" y="525.9921">VehicleCheckup</text><line style="stroke:#181818;stroke-width:0.3;" x1="653.0859" x2="722.6859" y1="530.7639" y2="530.7639"/><text fill="#000000" font-family="sans-serif" font-size="8.4" lengthAdjust="spacing" textLength="63.6" x="656.0859" y="541.285">dateOfCheckup</text><text fill="#000000" font-family="sans-serif" font-size="8.4" lengthAdjust="spacing" textLength="58.2" x="656.0859" y="551.178">kmOfCheckup</text></g><!--class Equipment--><g id="elem_Equipment"><rect codeLine="86" fill="#F1F1F1" height="40.4789" id="Equipment" rx="1.5" ry="1.5" style="stroke:#181818;stroke-width:0.3;" width="98.4" x="725.0859" y="416.819"/><text fill="#000000" font-family="sans-serif" font-size="8.4" lengthAdjust="spacing" textLength="44.4" x="752.0859" y="427.9401">Equipment</text><line style="stroke:#181818;stroke-width:0.3;" x1="725.6859" x2="822.8859" y1="432.7119" y2="432.7119"/><text fill="#000000" font-family="sans-serif" font-size="8.4" lengthAdjust="spacing" textLength="67.8" x="728.6859" y="443.233">equipmentName</text><text fill="#000000" font-family="sans-serif" font-size="8.4" lengthAdjust="spacing" textLength="91.2" x="728.6859" y="453.126">equipmentDescription</text></g><!--class Agenda--><g id="elem_Agenda"><rect codeLine="91" fill="#F1F1F1" height="30.5859" id="Agenda" rx="1.5" ry="1.5" style="stroke:#181818;stroke-width:0.3;" width="55.8" x="524.9859" y="303.929"/><text fill="#000000" font-family="sans-serif" font-size="8.4" lengthAdjust="spacing" textLength="31.8" x="536.9859" y="315.0501">Agenda</text><line style="stroke:#181818;stroke-width:0.3;" x1="525.5859" x2="580.1859" y1="319.8219" y2="319.8219"/><text fill="#000000" font-family="sans-serif" font-size="8.4" lengthAdjust="spacing" textLength="48.6" x="528.5859" y="330.343">weeksTasks</text></g><!--class Tasks--><g id="elem_Tasks"><rect codeLine="96" fill="#F1F1F1" height="40.4789" id="Tasks" rx="1.5" ry="1.5" style="stroke:#181818;stroke-width:0.3;" width="70.8" x="520.4859" y="727.799"/><text fill="#000000" font-family="sans-serif" font-size="8.4" lengthAdjust="spacing" textLength="23.4" x="544.1859" y="738.9201">Tasks</text><line style="stroke:#181818;stroke-width:0.3;" x1="521.0859" x2="590.6859" y1="743.6919" y2="743.6919"/><text fill="#000000" font-family="sans-serif" font-size="8.4" lengthAdjust="spacing" textLength="39" x="524.0859" y="754.213">reference</text><text fill="#000000" font-family="sans-serif" font-size="8.4" lengthAdjust="spacing" textLength="63.6" x="524.0859" y="764.106">taskDescription</text></g><!--class PendingTasks--><g id="elem_PendingTasks"><rect codeLine="102" fill="#F1F1F1" height="30.5859" id="PendingTasks" rx="1.5" ry="1.5" style="stroke:#181818;stroke-width:0.3;" width="64.8" x="450.2859" y="519.815"/><text fill="#000000" font-family="sans-serif" font-size="8.4" lengthAdjust="spacing" textLength="57" x="454.1859" y="530.9361">PendingTasks</text><line style="stroke:#181818;stroke-width:0.3;" x1="450.8859" x2="514.4859" y1="535.7079" y2="535.7079"/><text fill="#000000" font-family="sans-serif" font-size="8.4" lengthAdjust="spacing" textLength="57.6" x="453.8859" y="546.229">pendingTasks</text></g><!--class Teams--><g id="elem_Teams"><rect codeLine="106" fill="#F1F1F1" height="30.5859" id="Teams" rx="1.5" ry="1.5" style="stroke:#181818;stroke-width:0.3;" width="65.4" x="236.3859" y="646.067"/><text fill="#000000" font-family="sans-serif" font-size="8.4" lengthAdjust="spacing" textLength="27" x="255.5859" y="657.1881">Teams</text><line style="stroke:#181818;stroke-width:0.3;" x1="236.9859" x2="301.1859" y1="661.9599" y2="661.9599"/><text fill="#000000" font-family="sans-serif" font-size="8.4" lengthAdjust="spacing" textLength="58.2" x="239.9859" y="672.481">teamMembers</text></g><!--class Parks--><g id="elem_Parks"><rect codeLine="110" fill="#F1F1F1" height="30.5859" id="Parks" rx="1.5" ry="1.5" style="stroke:#181818;stroke-width:0.3;" width="40.2" x="374.3859" y="814.475"/><text fill="#000000" font-family="sans-serif" font-size="8.4" lengthAdjust="spacing" textLength="22.2" x="383.3859" y="825.5961">Parks</text><line style="stroke:#181818;stroke-width:0.3;" x1="374.9859" x2="413.9859" y1="830.3679" y2="830.3679"/><text fill="#000000" font-family="sans-serif" font-size="8.4" lengthAdjust="spacing" textLength="33" x="377.9859" y="840.889">location</text></g><!--class Portal--><g id="elem_Portal"><rect codeLine="114" fill="#F1F1F1" height="30.5859" id="Portal" rx="1.5" ry="1.5" style="stroke:#181818;stroke-width:0.3;" width="57.6" x="809.0859" y="303.929"/><text fill="#000000" font-family="sans-serif" font-size="8.4" lengthAdjust="spacing" textLength="24" x="825.8859" y="315.0501">Portal</text><line style="stroke:#181818;stroke-width:0.3;" x1="809.6859" x2="866.0859" y1="319.8219" y2="319.8219"/><text fill="#000000" font-family="sans-serif" font-size="8.4" lengthAdjust="spacing" textLength="50.4" x="812.6859" y="330.343">httpAddress</text></g><!--class User--><g id="elem_User"><rect codeLine="118" fill="#F1F1F1" height="50.3719" id="User" rx="1.5" ry="1.5" style="stroke:#181818;stroke-width:0.3;" width="46.8" x="937.4859" y="26.693"/><text fill="#000000" font-family="sans-serif" font-size="8.4" lengthAdjust="spacing" textLength="18.6" x="951.5859" y="37.8141">User</text><line style="stroke:#181818;stroke-width:0.3;" x1="938.0859" x2="983.6859" y1="42.5859" y2="42.5859"/><text fill="#000000" font-family="sans-serif" font-size="8.4" lengthAdjust="spacing" textLength="22.8" x="941.0859" y="53.107">name</text><text fill="#000000" font-family="sans-serif" font-size="8.4" lengthAdjust="spacing" textLength="22.2" x="941.0859" y="63">email</text><text fill="#000000" font-family="sans-serif" font-size="8.4" lengthAdjust="spacing" textLength="39.6" x="941.0859" y="72.893">password</text></g><!--class Reports--><g id="elem_Reports"><rect codeLine="124" fill="#F1F1F1" height="50.3719" id="Reports" rx="1.5" ry="1.5" style="stroke:#181818;stroke-width:0.3;" width="35.4" x="851.9859" y="133.157"/><text fill="#000000" font-family="sans-serif" font-size="8.4" lengthAdjust="spacing" textLength="31.8" x="853.7859" y="144.2781">Reports</text><line style="stroke:#181818;stroke-width:0.3;" x1="852.5859" x2="886.7859" y1="149.0499" y2="149.0499"/><text fill="#000000" font-family="sans-serif" font-size="8.4" lengthAdjust="spacing" textLength="17.4" x="855.5859" y="159.571">type</text><text fill="#000000" font-family="sans-serif" font-size="8.4" lengthAdjust="spacing" textLength="18" x="855.5859" y="169.464">date</text><text fill="#000000" font-family="sans-serif" font-size="8.4" lengthAdjust="spacing" textLength="18.6" x="855.5859" y="179.357">park</text></g><!--class Comments--><g id="elem_Comments"><rect codeLine="131" fill="#F1F1F1" height="30.5859" id="Comments" rx="1.5" ry="1.5" style="stroke:#181818;stroke-width:0.3;" width="92.4" x="725.0859" y="36.587"/><text fill="#000000" font-family="sans-serif" font-size="8.4" lengthAdjust="spacing" textLength="44.4" x="749.0859" y="47.7081">Comments</text><line style="stroke:#181818;stroke-width:0.3;" x1="725.6859" x2="816.8859" y1="52.4799" y2="52.4799"/><text fill="#000000" font-family="sans-serif" font-size="8.4" lengthAdjust="spacing" textLength="85.2" x="728.6859" y="63.001">commentDescription</text></g><!--class ReportFaults--><g id="elem_ReportFaults"><rect codeLine="135" fill="#F1F1F1" height="30.5859" id="ReportFaults" rx="1.5" ry="1.5" style="stroke:#181818;stroke-width:0.3;" width="76.8" x="838.4859" y="36.587"/><text fill="#000000" font-family="sans-serif" font-size="8.4" lengthAdjust="spacing" textLength="52.2" x="850.7859" y="47.7081">ReportFaults</text><line style="stroke:#181818;stroke-width:0.3;" x1="839.0859" x2="914.6859" y1="52.4799" y2="52.4799"/><text fill="#000000" font-family="sans-serif" font-size="8.4" lengthAdjust="spacing" textLength="69.6" x="842.0859" y="63.001">faultsDescription</text></g><!--class Malfunctions--><g id="elem_Malfunctions"><rect codeLine="139" fill="#F1F1F1" height="30.5859" id="Malfunctions" rx="1.5" ry="1.5" style="stroke:#181818;stroke-width:0.3;" width="103.2" x="600.8859" y="36.587"/><text fill="#000000" font-family="sans-serif" font-size="8.4" lengthAdjust="spacing" textLength="52.8" x="626.0859" y="47.7081">Malfunctions</text><line style="stroke:#181818;stroke-width:0.3;" x1="601.4859" x2="703.4859" y1="52.4799" y2="52.4799"/><text fill="#000000" font-family="sans-serif" font-size="8.4" lengthAdjust="spacing" textLength="96" x="604.4859" y="63.001">malfunctionDescription</text></g><!--link Manager to Employee--><g id="link_Manager_Employee"><path codeLine="145" d="M388.2699,164.315 C338.4219,177.689 212.6859,211.421 212.6859,211.421 C212.6859,211.421 195.6519,282.191 189.2679,308.729 " fill="none" id="Manager-Employee" style="stroke:#181818;stroke-width:0.6;"/><polygon fill="#000000" points="213.2579,218.3761,218.6859,216.6158,216.6145,213.7615,213.2579,218.3761" style="stroke:#000000;stroke-width:0.6;"/><text fill="#000000" font-family="sans-serif" font-size="7.8" lengthAdjust="spacing" textLength="13.2" x="221.0859" y="219.562">is a</text><text fill="#000000" font-family="sans-serif" font-size="7.8" lengthAdjust="spacing" textLength="13.2" x="370.4953" y="163.1248">1..*</text><text fill="#000000" font-family="sans-serif" font-size="7.8" lengthAdjust="spacing" textLength="13.2" x="192.2432" y="302.3352">1..*</text></g><!--link Manager to Portal--><g id="link_Manager_Portal"><path codeLine="146" d="M428.3199,161.765 C505.7139,172.667 780.8859,211.421 780.8859,211.421 C780.8859,211.421 814.2999,274.259 829.9599,303.713 " fill="none" id="Manager-Portal" style="stroke:#181818;stroke-width:0.6;"/><polygon fill="#000000" points="791.5145,217.6138,786.9852,214.1428,785.81,217.468,791.5145,217.6138" style="stroke:#000000;stroke-width:0.6;"/><text fill="#000000" font-family="sans-serif" font-size="7.8" lengthAdjust="spacing" textLength="33.6" x="794.0859" y="219.562">manages</text><text fill="#000000" font-family="sans-serif" font-size="7.8" lengthAdjust="spacing" textLength="4.8" x="432.9469" y="160.1027">1</text><text fill="#000000" font-family="sans-serif" font-size="7.8" lengthAdjust="spacing" textLength="4.8" x="822.6429" y="297.3995">1</text></g><!--link Job to Manager--><g id="link_Job_Manager"><path codeLine="147" d="M337.8099,514.703 C340.9059,448.583 350.6859,239.621 350.6859,239.621 C350.6859,239.621 380.9319,197.261 397.5879,173.933 " fill="none" id="Job-Manager" style="stroke:#181818;stroke-width:0.6;"/><polygon fill="#000000" points="353.1676,322.271,355.8421,317.2303,352.3684,316.6209,353.1676,322.271" style="stroke:#000000;stroke-width:0.6;"/><text fill="#000000" font-family="sans-serif" font-size="7.8" lengthAdjust="spacing" textLength="33" x="359.0859" y="322.264">registers</text><text fill="#000000" font-family="sans-serif" font-size="7.8" lengthAdjust="spacing" textLength="13.2" x="323.4924" y="508.3587">1..*</text><text fill="#000000" font-family="sans-serif" font-size="7.8" lengthAdjust="spacing" textLength="4.8" x="389.9227" y="185.8888">1</text></g><!--link Manager to Skill--><g id="link_Manager_Skill"><path codeLine="148" d="M407.7639,173.861 C404.9919,253.313 392.0859,623.117 392.0859,623.117 C392.0859,623.117 387.9279,631.811 383.6139,640.835 " fill="none" id="Manager-Skill" style="stroke:#181818;stroke-width:0.6;"/><polygon fill="#000000" points="402.131,440.1461,404.1723,434.8174,400.6503,434.6352,402.131,440.1461" style="stroke:#000000;stroke-width:0.6;"/><text fill="#000000" font-family="sans-serif" font-size="7.8" lengthAdjust="spacing" textLength="33" x="407.6859" y="440.098">registers</text><text fill="#000000" font-family="sans-serif" font-size="7.8" lengthAdjust="spacing" textLength="4.8" x="402.2882" y="186.0525">1</text><text fill="#000000" font-family="sans-serif" font-size="7.8" lengthAdjust="spacing" textLength="3.6" x="381.4871" y="634.624">*</text></g><!--link Manager to Collaborator--><g id="link_Manager_Collaborator"><path codeLine="149" d="M388.3359,173.369 C356.2359,196.577 296.6859,239.621 296.6859,239.621 C296.6859,239.621 275.6859,457.295 275.6859,457.295 C275.6859,457.295 273.0219,464.741 269.3559,475.013 " fill="none" id="Manager-Collaborator" style="stroke:#181818;stroke-width:0.6;"/><polygon fill="#000000" points="298.5851,322.1069,302.2168,317.7054,298.9361,316.4113,298.5851,322.1069" style="stroke:#000000;stroke-width:0.6;"/><text fill="#000000" font-family="sans-serif" font-size="7.8" lengthAdjust="spacing" textLength="33" x="305.0859" y="322.264">registers</text><text fill="#000000" font-family="sans-serif" font-size="7.8" lengthAdjust="spacing" textLength="4.8" x="378.9262" y="174.1">1</text><text fill="#000000" font-family="sans-serif" font-size="7.8" lengthAdjust="spacing" textLength="13.2" x="257.2332" y="468.8173">1..*</text></g><!--link Manager to Agenda--><g id="link_Manager_Agenda"><path codeLine="150" d="M427.7019,173.843 C447.9279,189.359 476.6859,211.421 476.6859,211.421 C476.6859,211.421 508.4859,239.621 508.4859,239.621 C508.4859,239.621 531.6759,280.877 544.5339,303.761 " fill="none" id="Manager-Agenda" style="stroke:#181818;stroke-width:0.6;"/><polygon fill="#000000" points="492.4919,218.8448,490.1742,213.6304,487.5519,215.9886,492.4919,218.8448" style="stroke:#000000;stroke-width:0.6;"/><text fill="#000000" font-family="sans-serif" font-size="7.8" lengthAdjust="spacing" textLength="33.6" x="495.8859" y="219.562">manages</text><text fill="#000000" font-family="sans-serif" font-size="7.8" lengthAdjust="spacing" textLength="4.8" x="426.8369" y="186.0303">1</text><text fill="#000000" font-family="sans-serif" font-size="7.8" lengthAdjust="spacing" textLength="4.8" x="537.1131" y="297.4592">1</text></g><!--link Manager to PendingTasks--><g id="link_Manager_PendingTasks"><path codeLine="151" d="M412.7139,173.843 C417.3279,189.359 423.8859,211.421 423.8859,211.421 C423.8859,211.421 468.4059,456.029 479.9679,519.575 " fill="none" id="Manager-PendingTasks" style="stroke:#181818;stroke-width:0.6;"/><polygon fill="#000000" points="460.4587,322.2609,461.1534,316.597,457.6916,317.2704,460.4587,322.2609" style="stroke:#000000;stroke-width:0.6;"/><text fill="#000000" font-family="sans-serif" font-size="7.8" lengthAdjust="spacing" textLength="33.6" x="465.2859" y="322.264">manages</text><text fill="#000000" font-family="sans-serif" font-size="7.8" lengthAdjust="spacing" textLength="4.8" x="408.3829" y="186.0303">1</text><text fill="#000000" font-family="sans-serif" font-size="7.8" lengthAdjust="spacing" textLength="3.6" x="475.2666" y="513.2557">*</text></g><!--link Manager to Equipment--><g id="link_Manager_Equipment"><path codeLine="152" d="M428.3199,164.177 C496.7979,182.051 717.2859,239.621 717.2859,239.621 C717.2859,239.621 754.1079,366.767 768.5619,416.681 " fill="none" id="Manager-Equipment" style="stroke:#181818;stroke-width:0.6;"/><polygon fill="#000000" points="650.095,218.402,646.7878,213.7517,644.6861,216.5838,650.095,218.402" style="stroke:#000000;stroke-width:0.6;"/><text fill="#000000" font-family="sans-serif" font-size="7.8" lengthAdjust="spacing" textLength="33" x="653.0859" y="219.562">registers</text><text fill="#000000" font-family="sans-serif" font-size="7.8" lengthAdjust="spacing" textLength="4.8" x="432.9469" y="173.8684">1</text><text fill="#000000" font-family="sans-serif" font-size="7.8" lengthAdjust="spacing" textLength="3.6" x="763.4806" y="410.3426">*</text></g><!--link Manager to Vehicle--><g id="link_Manager_Vehicle"><path codeLine="153" d="M428.3439,167.261 C464.0439,182.057 534.8859,211.421 534.8859,211.421 C534.8859,211.421 591.2859,239.621 591.2859,239.621 C591.2859,239.621 595.5399,244.955 601.8279,252.845 " fill="none" id="Manager-Vehicle" style="stroke:#181818;stroke-width:0.6;"/><polygon fill="#000000" points="560.3763,217.9414,556.2894,213.959,554.7292,217.1218,560.3763,217.9414" style="stroke:#000000;stroke-width:0.6;"/><text fill="#000000" font-family="sans-serif" font-size="7.8" lengthAdjust="spacing" textLength="33.6" x="563.0859" y="219.562">manages</text><text fill="#000000" font-family="sans-serif" font-size="7.8" lengthAdjust="spacing" textLength="4.8" x="432.9759" y="166.7322">1</text><text fill="#000000" font-family="sans-serif" font-size="7.8" lengthAdjust="spacing" textLength="3.6" x="593.7347" y="245.5245">*</text></g><!--link Manager to Tasks--><g id="link_Manager_Tasks"><path codeLine="154" d="M388.3299,162.305 C319.6059,173.891 96.8859,211.421 96.8859,211.421 C96.8859,211.421 65.6859,318.623 65.6859,318.623 C65.6859,318.623 65.6859,318.623 65.6859,661.961 C65.6859,661.961 407.4339,721.553 520.2399,741.221 " fill="none" id="Manager-Tasks" style="stroke:#181818;stroke-width:0.6;"/><polygon fill="#000000" points="69.3524,538.1272,69.866,532.444,66.4274,533.2275,69.3524,538.1272" style="stroke:#000000;stroke-width:0.6;"/><text fill="#000000" font-family="sans-serif" font-size="7.8" lengthAdjust="spacing" textLength="27" x="74.0859" y="538.15">creates</text><text fill="#000000" font-family="sans-serif" font-size="7.8" lengthAdjust="spacing" textLength="4.8" x="378.919" y="160.754">1</text><text fill="#000000" font-family="sans-serif" font-size="7.8" lengthAdjust="spacing" textLength="3.6" x="512.0762" y="738.394">*</text></g><!--link Manager to Teams--><g id="link_Manager_Teams"><path codeLine="155" d="M388.3419,164.117 C337.3299,177.359 206.0859,211.421 206.0859,211.421 C206.0859,211.421 154.4859,239.621 154.4859,239.621 C154.4859,239.621 147.8859,416.819 147.8859,416.819 C147.8859,416.819 147.8859,457.295 147.8859,457.295 C147.8859,457.295 203.6859,594.917 203.6859,594.917 C203.6859,594.917 234.9519,626.393 254.2479,645.821 " fill="none" id="Manager-Teams" style="stroke:#181818;stroke-width:0.6;"/><polygon fill="#000000" points="150.0814,440.0402,153.2355,435.2849,149.838,434.3391,150.0814,440.0402" style="stroke:#000000;stroke-width:0.6;"/><text fill="#000000" font-family="sans-serif" font-size="7.8" lengthAdjust="spacing" textLength="33.6" x="156.2859" y="440.098">manages</text><text fill="#000000" font-family="sans-serif" font-size="7.8" lengthAdjust="spacing" textLength="4.8" x="378.9335" y="173.796">1</text><text fill="#000000" font-family="sans-serif" font-size="7.8" lengthAdjust="spacing" textLength="3.6" x="246.5924" y="639.5002">*</text></g><!--link HumanResourcesManager to Manager--><g id="link_HumanResourcesManager_Manager"><path codeLine="156" d="M408.2859,62.381 C408.2859,80.909 408.2859,120.911 408.2859,142.757 " fill="none" id="HumanResourcesManager-Manager" style="stroke:#181818;stroke-width:0.6;"/><polygon fill="#000000" points="411.2859,97.2561,409.5225,102.6832,413.0493,102.6832,411.2859,97.2561" style="stroke:#000000;stroke-width:0.6;"/><text fill="#000000" font-family="sans-serif" font-size="7.8" lengthAdjust="spacing" textLength="13.2" x="416.6859" y="103.204">is a</text><text fill="#000000" font-family="sans-serif" font-size="7.8" lengthAdjust="spacing" textLength="13.2" x="393.0647" y="74.5453">1..*</text><text fill="#000000" font-family="sans-serif" font-size="7.8" lengthAdjust="spacing" textLength="4.8" x="402.9309" y="136.6744">1</text></g><!--link VehicleFleetManager to Manager--><g id="link_VehicleFleetManager_Manager"><path codeLine="157" d="M298.4859,62.381 C319.8219,80.909 365.8719,120.911 391.0299,142.757 " fill="none" id="VehicleFleetManager-Manager" style="stroke:#181818;stroke-width:0.6;"/><polygon fill="#000000" points="348.4209,98.2889,351.362,103.1789,353.6746,100.5163,348.4209,98.2889" style="stroke:#000000;stroke-width:0.6;"/><text fill="#000000" font-family="sans-serif" font-size="7.8" lengthAdjust="spacing" textLength="13.2" x="356.0859" y="103.204">is a</text><text fill="#000000" font-family="sans-serif" font-size="7.8" lengthAdjust="spacing" textLength="13.2" x="286.7559" y="74.5453">1..*</text><text fill="#000000" font-family="sans-serif" font-size="7.8" lengthAdjust="spacing" textLength="4.8" x="381.6845" y="136.6744">1</text></g><!--link GreenSpacesManager to Manager--><g id="link_GreenSpacesManager_Manager"><path codeLine="158" d="M519.1719,62.381 C497.6259,80.909 451.1199,120.911 425.7159,142.757 " fill="none" id="GreenSpacesManager-Manager" style="stroke:#181818;stroke-width:0.6;"/><polygon fill="#000000" points="485.5604,98.3,480.296,100.5018,482.5956,103.1756,485.5604,98.3" style="stroke:#000000;stroke-width:0.6;"/><text fill="#000000" font-family="sans-serif" font-size="7.8" lengthAdjust="spacing" textLength="13.2" x="488.6859" y="103.204">is a</text><text fill="#000000" font-family="sans-serif" font-size="7.8" lengthAdjust="spacing" textLength="13.2" x="500.4245" y="74.5453">1..*</text><text fill="#000000" font-family="sans-serif" font-size="7.8" lengthAdjust="spacing" textLength="4.8" x="424.3916" y="136.6744">1</text></g><!--link Agenda to PendingTasks--><g id="link_Agenda_PendingTasks"><path codeLine="160" d="M544.5339,334.679 C531.6759,357.563 508.4859,398.819 508.4859,398.819 C508.4859,398.819 494.0859,416.819 494.0859,416.819 C494.0859,416.819 487.1979,487.931 484.1319,519.605 " fill="none" id="Agenda-PendingTasks" style="stroke:#181818;stroke-width:0.6;"/><polygon fill="#000000" points="496.1544,440.0019,499.5157,435.3905,496.1633,434.2955,496.1544,440.0019" style="stroke:#000000;stroke-width:0.6;"/><text fill="#000000" font-family="sans-serif" font-size="7.8" lengthAdjust="spacing" textLength="59.4" x="502.4859" y="440.098">gets tasks from</text><text fill="#000000" font-family="sans-serif" font-size="7.8" lengthAdjust="spacing" textLength="4.8" x="537.2475" y="346.8566">1</text><text fill="#000000" font-family="sans-serif" font-size="7.8" lengthAdjust="spacing" textLength="3.6" x="480.4456" y="513.293">*</text></g><!--link User to Parks--><g id="link_User_Parks"><path codeLine="163" d="M961.0239,77.159 C961.2039,108.275 961.4859,157.745 961.4859,157.745 C961.4859,157.745 961.4859,157.745 961.4859,748.637 C961.4859,748.637 516.1599,811.889 414.8319,826.283 " fill="none" id="User-Parks" style="stroke:#181818;stroke-width:0.6;"/><polygon fill="#000000" points="962.7185,537.6262,967.3406,534.2799,964.4909,532.2021,962.7185,537.6262" style="stroke:#000000;stroke-width:0.6;"/><text fill="#000000" font-family="sans-serif" font-size="7.8" lengthAdjust="spacing" textLength="17.4" x="969.8859" y="538.15">uses</text><text fill="#000000" font-family="sans-serif" font-size="7.8" lengthAdjust="spacing" textLength="13.2" x="946.794" y="89.461">1..*</text><text fill="#000000" font-family="sans-serif" font-size="7.8" lengthAdjust="spacing" textLength="3.6" x="419.3995" y="834.0525">*</text></g><!--link User to Reports--><g id="link_User_Reports"><path codeLine="164" d="M937.4379,73.025 C925.0119,83.915 912.2859,95.063 912.2859,95.063 C912.2859,95.063 898.4319,115.451 886.5219,132.971 " fill="none" id="User-Reports" style="stroke:#181818;stroke-width:0.6;"/><polygon fill="#000000" points="913.3438,102.5427,918.2011,99.5478,915.5131,97.2647,913.3438,102.5427" style="stroke:#000000;stroke-width:0.6;"/><text fill="#000000" font-family="sans-serif" font-size="7.8" lengthAdjust="spacing" textLength="24.6" x="920.6859" y="103.204">makes</text><text fill="#000000" font-family="sans-serif" font-size="7.8" lengthAdjust="spacing" textLength="3.6" x="929.025" y="74.7569">*</text><text fill="#000000" font-family="sans-serif" font-size="7.8" lengthAdjust="spacing" textLength="3.6" x="885.3183" y="126.766">*</text></g><!--link Comments to Reports--><g id="link_Comments_Reports"><path codeLine="166" d="M785.1759,67.337 C802.6059,85.985 832.5279,117.995 851.6919,138.497 " fill="none" id="Comments-Reports" style="stroke:#181818;stroke-width:0.6;"/><polygon fill="#000000" points="825.5345,102.4478,823.1168,97.2789,820.5403,99.6872,825.5345,102.4478" style="stroke:#000000;stroke-width:0.6;"/><text fill="#000000" font-family="sans-serif" font-size="7.8" lengthAdjust="spacing" textLength="11.4" x="828.8859" y="103.204">are</text><text fill="#000000" font-family="sans-serif" font-size="7.8" lengthAdjust="spacing" textLength="3.6" x="784.3717" y="79.5146">*</text><text fill="#000000" font-family="sans-serif" font-size="7.8" lengthAdjust="spacing" textLength="4.8" x="842.4307" y="131.7327">1</text></g><!--link ReportFaults to Reports--><g id="link_ReportFaults_Reports"><path codeLine="167" d="M873.7359,67.373 C871.1439,79.655 867.8859,95.063 867.8859,95.063 C867.8859,95.063 867.8859,105.263 867.8859,105.263 C867.8859,105.263 868.3659,119.321 868.8339,132.887 " fill="none" id="ReportFaults-Reports" style="stroke:#181818;stroke-width:0.6;"/><polygon fill="#000000" points="870.6621,103.2478,872.8254,97.9674,869.3086,97.7043,870.6621,103.2478" style="stroke:#000000;stroke-width:0.6;"/><text fill="#000000" font-family="sans-serif" font-size="7.8" lengthAdjust="spacing" textLength="11.4" x="876.2859" y="103.204">are</text><text fill="#000000" font-family="sans-serif" font-size="7.8" lengthAdjust="spacing" textLength="3.6" x="868.9912" y="79.5589">*</text><text fill="#000000" font-family="sans-serif" font-size="7.8" lengthAdjust="spacing" textLength="4.8" x="863.5156" y="126.6686">1</text></g><!--link Malfunctions to Reports--><g id="link_Malfunctions_Reports"><path codeLine="168" d="M683.3739,67.451 C729.5199,89.813 814.9719,131.231 851.9139,149.129 " fill="none" id="Malfunctions-Reports" style="stroke:#181818;stroke-width:0.6;"/><polygon fill="#000000" points="766.7856,101.5645,762.6708,97.6108,761.1328,100.7845,766.7856,101.5645" style="stroke:#000000;stroke-width:0.6;"/><text fill="#000000" font-family="sans-serif" font-size="7.8" lengthAdjust="spacing" textLength="11.4" x="769.4859" y="103.204">are</text><text fill="#000000" font-family="sans-serif" font-size="7.8" lengthAdjust="spacing" textLength="3.6" x="686.1369" y="79.4029">*</text><text fill="#000000" font-family="sans-serif" font-size="7.8" lengthAdjust="spacing" textLength="4.8" x="842.4491" y="144.5202">1</text></g><!--link Teams to Parks--><g id="link_Teams_Parks"><path codeLine="170" d="M280.2159,676.799 C304.0119,708.527 359.6079,782.663 383.3799,814.367 " fill="none" id="Teams-Parks" style="stroke:#181818;stroke-width:0.6;"/><polygon fill="#000000" points="353.6858,750.5302,351.8405,745.1305,349.019,747.2463,353.6858,750.5302" style="stroke:#000000;stroke-width:0.6;"/><text fill="#000000" font-family="sans-serif" font-size="7.8" lengthAdjust="spacing" textLength="66" x="357.2859" y="751.078">carry out tasks in</text><text fill="#000000" font-family="sans-serif" font-size="7.8" lengthAdjust="spacing" textLength="4.8" x="277.4347" y="688.9724">1</text><text fill="#000000" font-family="sans-serif" font-size="7.8" lengthAdjust="spacing" textLength="4.8" x="375.2878" y="808.0798">1</text></g><!--link Teams to Tasks--><g id="link_Teams_Tasks"><path codeLine="171" d="M301.9119,672.815 C315.6519,677.357 328.4859,681.599 328.4859,681.599 C328.4859,681.599 456.3999,718.631 520.3539,737.153 " fill="none" id="Teams-Tasks" style="stroke:#181818;stroke-width:0.6;"/><polygon fill="#000000" points="427.3637,705.6397,422.6559,702.4149,421.6595,705.7979,427.3637,705.6397" style="stroke:#000000;stroke-width:0.6;"/><text fill="#000000" font-family="sans-serif" font-size="7.8" lengthAdjust="spacing" textLength="33.6" x="429.8859" y="707.74">carry out</text><text fill="#000000" font-family="sans-serif" font-size="7.8" lengthAdjust="spacing" textLength="4.8" x="306.6454" y="672.3031">1</text><text fill="#000000" font-family="sans-serif" font-size="7.8" lengthAdjust="spacing" textLength="4.8" x="510.9309" y="743.9271">1</text></g><!--link Organization to Parks--><g id="link_Organization_Parks"><path codeLine="174" d="M44.9919,193.589 C31.5819,240.551 9.2859,318.623 9.2859,318.623 C9.2859,318.623 9.2859,318.623 9.2859,748.637 C9.2859,748.637 295.0599,808.385 374.3199,824.951 " fill="none" id="Organization-Parks" style="stroke:#181818;stroke-width:0.6;"/><polygon fill="#000000" points="13.6733,620.77,12.7269,615.1427,9.6,616.7738,13.6733,620.77" style="stroke:#000000;stroke-width:0.6;"/><text fill="#000000" font-family="sans-serif" font-size="7.8" lengthAdjust="spacing" textLength="33.6" x="17.6859" y="621.058">manages</text><text fill="#000000" font-family="sans-serif" font-size="7.8" lengthAdjust="spacing" textLength="4.8" x="38.7704" y="205.7365">1</text><text fill="#000000" font-family="sans-serif" font-size="7.8" lengthAdjust="spacing" textLength="3.6" x="365.9148" y="821.4743">*</text></g><!--link Organization to Employee--><g id="link_Organization_Employee"><path codeLine="175" d="M83.5299,193.589 C113.9319,230.375 160.1139,286.235 178.7079,308.723 " fill="none" id="Organization-Employee" style="stroke:#181818;stroke-width:0.6;"/><polygon fill="#000000" points="110.1974,218.9264,108.0986,213.62,105.3804,215.867,110.1974,218.9264" style="stroke:#000000;stroke-width:0.6;"/><text fill="#000000" font-family="sans-serif" font-size="7.8" lengthAdjust="spacing" textLength="13.2" x="113.6859" y="219.562">has</text><text fill="#000000" font-family="sans-serif" font-size="7.8" lengthAdjust="spacing" textLength="4.8" x="81.7644" y="205.7365">1</text><text fill="#000000" font-family="sans-serif" font-size="7.8" lengthAdjust="spacing" textLength="13.2" x="160.7974" y="302.5136">1..*</text></g><!--link Employee to Collaborator--><g id="link_Employee_Collaborator"><path codeLine="178" d="M187.7079,329.705 C190.3179,361.229 198.2859,457.295 198.2859,457.295 C198.2859,457.295 205.2159,468.041 213.9039,481.517 " fill="none" id="Employee-Collaborator" style="stroke:#181818;stroke-width:0.6;"/><polygon fill="#000000" points="201.796,440.1064,202.6109,434.4586,199.1355,435.0583,201.796,440.1064" style="stroke:#000000;stroke-width:0.6;"/><text fill="#000000" font-family="sans-serif" font-size="7.8" lengthAdjust="spacing" textLength="13.2" x="206.6859" y="440.098">is a</text><text fill="#000000" font-family="sans-serif" font-size="7.8" lengthAdjust="spacing" textLength="13.2" x="172.7384" y="341.8638">1..*</text><text fill="#000000" font-family="sans-serif" font-size="7.8" lengthAdjust="spacing" textLength="13.2" x="196.2434" y="473.7147">1..*</text></g><!--link Employee to Job--><g id="link_Employee_Job"><path codeLine="179" d="M191.6739,329.825 C201.8439,351.083 224.6859,398.819 224.6859,398.819 C224.6859,398.819 292.4859,475.295 292.4859,475.295 C292.4859,475.295 309.0819,497.423 321.9759,514.625 " fill="none" id="Employee-Job" style="stroke:#181818;stroke-width:0.6;"/><polygon fill="#000000" points="281.0147,439.6019,279.3284,434.1504,276.4462,436.1827,281.0147,439.6019" style="stroke:#000000;stroke-width:0.6;"/><text fill="#000000" font-family="sans-serif" font-size="7.8" lengthAdjust="spacing" textLength="19.8" x="284.6859" y="440.098">has a</text><text fill="#000000" font-family="sans-serif" font-size="7.8" lengthAdjust="spacing" textLength="4.8" x="187.5754" y="341.8306">1</text><text fill="#000000" font-family="sans-serif" font-size="7.8" lengthAdjust="spacing" textLength="4.8" x="313.8762" y="508.4209">1</text></g><!--link Collaborator to Skill--><g id="link_Collaborator_Skill"><path codeLine="181" d="M282.1899,581.189 C288.1479,589.139 292.4859,594.917 292.4859,594.917 C292.4859,594.917 325.3659,621.449 349.3839,640.823 " fill="none" id="Collaborator-Skill" style="stroke:#181818;stroke-width:0.6;"/><polygon fill="#000000" points="326.8421,616.1188,329.7307,621.04,332.0716,618.4023,326.8421,616.1188" style="stroke:#000000;stroke-width:0.6;"/><text fill="#000000" font-family="sans-serif" font-size="7.8" lengthAdjust="spacing" textLength="52.8" x="334.4859" y="621.058">is assigned to</text><text fill="#000000" font-family="sans-serif" font-size="7.8" lengthAdjust="spacing" textLength="4.8" x="286.867" y="585.0697">1</text><text fill="#000000" font-family="sans-serif" font-size="7.8" lengthAdjust="spacing" textLength="3.6" x="340.732" y="634.6097">*</text></g><!--link Collaborator to Teams--><g id="link_Collaborator_Teams"><path codeLine="182" d="M252.5619,594.983 C253.7379,610.571 254.6859,623.117 254.6859,623.117 C254.6859,623.117 259.3719,635.363 263.3919,645.881 " fill="none" id="Collaborator-Teams" style="stroke:#181818;stroke-width:0.6;"/><polygon fill="#000000" points="258.3103,621.0444,258.9055,615.3692,255.456,616.1032,258.3103,621.0444" style="stroke:#000000;stroke-width:0.6;"/><text fill="#000000" font-family="sans-serif" font-size="7.8" lengthAdjust="spacing" textLength="37.8" x="263.0859" y="621.058">integrates</text><text fill="#000000" font-family="sans-serif" font-size="7.8" lengthAdjust="spacing" textLength="13.2" x="239.2059" y="607.2585">1..*</text><text fill="#000000" font-family="sans-serif" font-size="7.8" lengthAdjust="spacing" textLength="4.8" x="256.619" y="639.5748">1</text></g><!--link Vehicle to Tasks--><g id="link_Vehicle_Tasks"><path codeLine="186" d="M637.7259,398.975 C613.8699,512.963 572.6859,709.799 572.6859,709.799 C572.6859,709.799 568.8099,718.487 564.7779,727.517 " fill="none" id="Vehicle-Tasks" style="stroke:#181818;stroke-width:0.6;"/><polygon fill="#000000" points="594.8356,621.0388,597.7334,616.123,594.2906,615.3586,594.8356,621.0388" style="stroke:#000000;stroke-width:0.6;"/><text fill="#000000" font-family="sans-serif" font-size="7.8" lengthAdjust="spacing" textLength="56.4" x="600.8859" y="621.058">is attributed to</text><text fill="#000000" font-family="sans-serif" font-size="7.8" lengthAdjust="spacing" textLength="13.2" x="623.2593" y="411.1289">1..*</text><text fill="#000000" font-family="sans-serif" font-size="7.8" lengthAdjust="spacing" textLength="4.8" x="561.2154" y="721.306">1</text></g><!--link Vehicle to VehicleCheckup--><g id="link_Vehicle_VehicleCheckup"><path codeLine="187" d="M648.8979,399.029 C648.1779,409.565 647.6859,416.819 647.6859,416.819 C647.6859,416.819 647.6859,457.295 647.6859,457.295 C647.6859,457.295 665.6199,491.747 677.5359,514.625 " fill="none" id="Vehicle-VehicleCheckup" style="stroke:#181818;stroke-width:0.6;"/><polygon fill="#000000" points="651.4073,440.0621,651.8139,434.3703,648.3907,435.2183,651.4073,440.0621" style="stroke:#000000;stroke-width:0.6;"/><text fill="#000000" font-family="sans-serif" font-size="7.8" lengthAdjust="spacing" textLength="57.6" x="656.0859" y="440.098">is submitted to</text><text fill="#000000" font-family="sans-serif" font-size="7.8" lengthAdjust="spacing" textLength="4.8" x="643.672" y="411.1858">1</text><text fill="#000000" font-family="sans-serif" font-size="7.8" lengthAdjust="spacing" textLength="4.8" x="670.3054" y="508.4209">1</text></g><!--link Equipment to Tasks--><g id="link_Equipment_Tasks"><path codeLine="188" d="M769.1919,457.577 C758.3799,499.889 734.0859,594.917 734.0859,594.917 C734.0859,594.917 636.2859,709.799 636.2859,709.799 C636.2859,709.799 612.9219,720.737 591.3819,730.817 " fill="none" id="Equipment-Tasks" style="stroke:#181818;stroke-width:0.6;"/><polygon fill="#000000" points="719.2496,620.6246,723.6877,617.0377,720.7317,615.1141,719.2496,620.6246" style="stroke:#000000;stroke-width:0.6;"/><text fill="#000000" font-family="sans-serif" font-size="7.8" lengthAdjust="spacing" textLength="56.4" x="726.2859" y="621.058">is attributed to</text><text fill="#000000" font-family="sans-serif" font-size="7.8" lengthAdjust="spacing" textLength="13.2" x="753.9089" y="469.591">0..*</text><text fill="#000000" font-family="sans-serif" font-size="7.8" lengthAdjust="spacing" textLength="4.8" x="596.0005" y="726.722">1</text></g><!--link Agenda to Tasks--><g id="link_Agenda_Tasks"><path codeLine="190" d="M554.7339,334.763 C558.0999,361.973 564.8859,416.819 564.8859,416.819 C564.8859,416.819 564.8859,457.295 564.8859,457.295 C564.8859,457.295 558.5259,662.423 556.4979,727.721 " fill="none" id="Agenda-Tasks" style="stroke:#181818;stroke-width:0.6;"/><polygon fill="#000000" points="562.4994,621.1101,564.2383,615.6752,560.7117,615.691,562.4994,621.1101" style="stroke:#000000;stroke-width:0.6;"/><text fill="#000000" font-family="sans-serif" font-size="7.8" lengthAdjust="spacing" textLength="13.2" x="567.8859" y="621.058">has</text><text fill="#000000" font-family="sans-serif" font-size="7.8" lengthAdjust="spacing" textLength="4.8" x="549.8063" y="346.96">1</text><text fill="#000000" font-family="sans-serif" font-size="7.8" lengthAdjust="spacing" textLength="3.6" x="552.664" y="721.3944">*</text></g><!--link Tasks to Parks--><g id="link_Tasks_Parks"><path codeLine="193" d="M520.2639,766.409 C487.8699,782.579 441.1959,805.865 414.7599,819.053 " fill="none" id="Tasks-Parks" style="stroke:#181818;stroke-width:0.6;"/><polygon fill="#000000" points="480.0015,792.8076,485.6449,791.9623,484.0703,788.8067,480.0015,792.8076" style="stroke:#000000;stroke-width:0.6;"/><text fill="#000000" font-family="sans-serif" font-size="7.8" lengthAdjust="spacing" textLength="62.4" x="488.0859" y="794.416">are performed in</text><text fill="#000000" font-family="sans-serif" font-size="7.8" lengthAdjust="spacing" textLength="13.2" x="502.4459" y="766.4773">1..*</text><text fill="#000000" font-family="sans-serif" font-size="7.8" lengthAdjust="spacing" textLength="13.2" x="419.3789" y="814.9949">1..*</text></g><!--link Reports to Portal--><g id="link_Reports_Portal"><path codeLine="197" d="M864.7539,183.719 C858.0699,217.271 846.3519,276.113 840.8679,303.635 " fill="none" id="Reports-Portal" style="stroke:#181818;stroke-width:0.6;"/><polygon fill="#000000" points="860.6999,219.5563,863.4894,214.5783,860.0307,213.8894,860.6999,219.5563" style="stroke:#000000;stroke-width:0.6;"/><text fill="#000000" font-family="sans-serif" font-size="7.8" lengthAdjust="spacing" textLength="52.2" x="866.6859" y="219.562">are submitted</text><text fill="#000000" font-family="sans-serif" font-size="7.8" lengthAdjust="spacing" textLength="3.6" x="860.1231" y="195.849">*</text><text fill="#000000" font-family="sans-serif" font-size="7.8" lengthAdjust="spacing" textLength="4.8" x="836.2025" y="297.5524">1</text></g><!--SRC=[ZLPDZzis4BthLn2-12YG8BaQXO7jkfkcXHDZTzkUQMeiiUQ7Gb9TE4N_UuSKlxIMw_XYSlXcE7nyC-8RU-9ge8PA8hNIh3TQ0d5cXAQi39ITQ0TFxYo0662EgaxK0DlJLhzmrP4Z5RPU4Lo1Emz01YtEVjAy4N1qn6bYUDSxqd8Va6jLEJ51hRrppl33wE0Jq-g9VmFolkbv2uHnmt3tC9RWUjtQfd7SOMvRBIbNPATR44qJmf0lfgEAVwD-3_9FG_2dg8Gm-9kwpwCyW0cp5pXOxgQLeTSAgZN0mABvDmNzMGv2dm4mO37UQo7eGHlgj7czqu4RrxSqHgUjvDPYGjjYQGrO6yPI7xY0UwqSPQxiNXi-RLlDdf7NE5Cbqx_q8VmZdKBOAhqTLNY9AJCRMS_BluoIgaUmUZGCR04Nn1_GSsJ-GG2ufVMF1a0zeLYMtPzyGcbtF_wSo0cpBLXc-31FwbTzY1vuh8p7yI8w9XWzVZ9KjM4qwS6FCcNFr03v4xm4m_oZqHYWCjoFne1ov3SPfe_GSUlmHFd6xjZNaQDUlAooSOVoSw2eOa0U37mTGR5pMDaBn91AKNlC61IIP6lhLkkvuM44KQLjK0YOnOwo7el9NfpzlWTs6eU90Q-tByTe2fQJBFCYPZp88FrX9pT8yqnujYpIVjU1QcbqVW4usMTgJo6tY0Zp231m16IMJP4ThjH1IzGz1iME4bmdpw6o5DmpK9bYEnplm7DN0VRKvCs5PdIU_5uRHvCiU-U6krY96V6xXOjodjf1I0eXBzgq1Vy80yRCAQMhoyMFFUuqwnhICvlmR9ek4Zr5Vg2ZoF1Zc2oYTrGSHnMgFA5bCRroQPfKigiFxzxzi29ltwPHwdLhmYsXP5CX8smLMLpZ1dx9Ne368KN3YbwZ1gPgiWlH41CwnV-Zfc1rnxs1NqMPNiynR5shxWOqbytDyyJQl14lxiaCe5AkORpOluVcnMv-vGQBrqA7l-bpsVMpInCxmrL-Eq0Xkz0SZlZmy2vDABTAXDx9L_2QZ3OSUGAKrLXldfLJ03Ivf1BgGuNoZN_Jp4hfEcnMGzTXpTI4weAOKcRKc3FHeukdnCV9vXASRZw3FG-pTqlDu1IvI60HE2zTiYOz3TGqsNHHv_DYYbTOmNEweOHzF3gHNRrwBelOny6dJgUWzO- -7r_ZIn9PtVuJsfbO1FXBd_LNu8aq7p-z5CCEcmgVmVElO_2ouq5obvtAHt3r_lksML1t12Ukfy_U1T7n1hrq1Z17RII63Ch0N_fwL69BpTKxbAmtpNy0]--></g></svg>