<?xml version="1.0" encoding="us-ascii" standalone="no"?><svg xmlns="http://www.w3.org/2000/svg" xmlns:xlink="http://www.w3.org/1999/xlink" contentStyleType="text/css" height="1415px" preserveAspectRatio="none" style="width:1653px;height:1415px;background:#FFFFFF;" version="1.1" viewBox="0 0 1653 1415" width="1653px" zoomAndPan="magnify"><defs/><g><text fill="#000000" font-family="sans-serif" font-size="14" font-weight="bold" lengthAdjust="spacing" textLength="105" x="767.2435" y="23.5352">Domain Model</text><!--class Organization--><g id="elem_Organization"><rect codeLine="12" fill="#F1F1F1" height="116.9297" id="Organization" rx="2.5" ry="2.5" style="stroke:#181818;stroke-width:0.5;" width="111" x="35.9869" y="205.4383"/><text fill="#000000" font-family="sans-serif" font-size="14" lengthAdjust="spacing" textLength="90" x="46.4869" y="223.9734">Organization</text><line style="stroke:#181818;stroke-width:0.5;" x1="36.9869" x2="145.9869" y1="231.9266" y2="231.9266"/><text fill="#000000" font-family="sans-serif" font-size="14" lengthAdjust="spacing" textLength="38" x="41.9869" y="249.4617">name</text><text fill="#000000" font-family="sans-serif" font-size="14" lengthAdjust="spacing" textLength="75" x="41.9869" y="265.95">vatNumber</text><text fill="#000000" font-family="sans-serif" font-size="14" lengthAdjust="spacing" textLength="52" x="41.9869" y="282.4383">website</text><text fill="#000000" font-family="sans-serif" font-size="14" lengthAdjust="spacing" textLength="99" x="41.9869" y="298.9266">phoneNumber</text><text fill="#000000" font-family="sans-serif" font-size="14" lengthAdjust="spacing" textLength="37" x="41.9869" y="315.4148">email</text></g><!--class Employee--><g id="elem_Employee"><rect codeLine="20" fill="#F1F1F1" height="34.4883" id="Employee" rx="2.5" ry="2.5" style="stroke:#181818;stroke-width:0.5;" width="72" x="275.4869" y="514.7883"/><text fill="#000000" font-family="sans-serif" font-size="14" lengthAdjust="spacing" textLength="66" x="278.4869" y="533.3234">Employee</text><line style="stroke:#181818;stroke-width:0.5;" x1="276.4869" x2="346.4869" y1="541.2766" y2="541.2766"/></g><!--class Collaborator--><g id="elem_Collaborator"><rect codeLine="24" fill="#F1F1F1" height="199.3711" id="Collaborator" rx="2.5" ry="2.5" style="stroke:#181818;stroke-width:0.5;" width="113" x="356.9869" y="792.1583"/><text fill="#000000" font-family="sans-serif" font-size="14" lengthAdjust="spacing" textLength="87" x="369.9869" y="810.6934">Collaborator</text><line style="stroke:#181818;stroke-width:0.5;" x1="357.9869" x2="468.9869" y1="818.6466" y2="818.6466"/><text fill="#000000" font-family="sans-serif" font-size="14" lengthAdjust="spacing" textLength="38" x="362.9869" y="836.1817">name</text><text fill="#000000" font-family="sans-serif" font-size="14" lengthAdjust="spacing" textLength="63" x="362.9869" y="852.67">birthdate</text><text fill="#000000" font-family="sans-serif" font-size="14" lengthAdjust="spacing" textLength="101" x="362.9869" y="869.1583">admissionDate</text><text fill="#000000" font-family="sans-serif" font-size="14" lengthAdjust="spacing" textLength="54" x="362.9869" y="885.6466">address</text><text fill="#000000" font-family="sans-serif" font-size="14" lengthAdjust="spacing" textLength="100" x="362.9869" y="902.1348">mobileContact</text><text fill="#000000" font-family="sans-serif" font-size="14" lengthAdjust="spacing" textLength="90" x="362.9869" y="918.6231">emailContact</text><text fill="#000000" font-family="sans-serif" font-size="14" lengthAdjust="spacing" textLength="72" x="362.9869" y="935.1114">IDdocType</text><text fill="#000000" font-family="sans-serif" font-size="14" lengthAdjust="spacing" textLength="68" x="362.9869" y="951.5997">IDnumber</text><text fill="#000000" font-family="sans-serif" font-size="14" lengthAdjust="spacing" textLength="22" x="362.9869" y="968.088">job</text><text fill="#000000" font-family="sans-serif" font-size="14" lengthAdjust="spacing" textLength="34" x="362.9869" y="984.5763">skills</text></g><!--class Manager--><g id="elem_Manager"><rect codeLine="38" fill="#F1F1F1" height="50.9766" id="Manager" rx="2.5" ry="2.5" style="stroke:#181818;stroke-width:0.5;" width="66" x="647.4869" y="238.4183"/><text fill="#000000" font-family="sans-serif" font-size="14" lengthAdjust="spacing" textLength="60" x="650.4869" y="256.9534">Manager</text><line style="stroke:#181818;stroke-width:0.5;" x1="648.4869" x2="712.4869" y1="264.9066" y2="264.9066"/><text fill="#000000" font-family="sans-serif" font-size="14" lengthAdjust="spacing" textLength="49" x="653.4869" y="282.4417">section</text></g><!--class HumanResourcesManager--><g id="elem_HumanResourcesManager"><rect codeLine="42" fill="#F1F1F1" height="34.4883" id="HumanResourcesManager" rx="2.5" ry="2.5" style="stroke:#181818;stroke-width:0.5;" width="185" x="587.9869" y="69.2183"/><text fill="#000000" font-family="sans-serif" font-size="14" lengthAdjust="spacing" textLength="179" x="590.9869" y="87.7534">HumanResourcesManager</text><line style="stroke:#181818;stroke-width:0.5;" x1="588.9869" x2="771.9869" y1="95.7066" y2="95.7066"/></g><!--class VehicleFleetManager--><g id="elem_VehicleFleetManager"><rect codeLine="46" fill="#F1F1F1" height="34.4883" id="VehicleFleetManager" rx="2.5" ry="2.5" style="stroke:#181818;stroke-width:0.5;" width="148" x="404.4869" y="69.2183"/><text fill="#000000" font-family="sans-serif" font-size="14" lengthAdjust="spacing" textLength="142" x="407.4869" y="87.7534">VehicleFleetManager</text><line style="stroke:#181818;stroke-width:0.5;" x1="405.4869" x2="551.4869" y1="95.7066" y2="95.7066"/></g><!--class GreenSpacesManager--><g id="elem_GreenSpacesManager"><rect codeLine="50" fill="#F1F1F1" height="34.4883" id="GreenSpacesManager" rx="2.5" ry="2.5" style="stroke:#181818;stroke-width:0.5;" width="154" x="807.4869" y="69.2183"/><text fill="#000000" font-family="sans-serif" font-size="14" lengthAdjust="spacing" textLength="148" x="810.4869" y="87.7534">GreenSpacesManager</text><line style="stroke:#181818;stroke-width:0.5;" x1="808.4869" x2="960.4869" y1="95.7066" y2="95.7066"/></g><!--class Skill--><g id="elem_Skill"><rect codeLine="54" fill="#F1F1F1" height="67.4648" id="Skill" rx="2.5" ry="2.5" style="stroke:#181818;stroke-width:0.5;" width="117" x="564.9869" y="1068.5283"/><text fill="#000000" font-family="sans-serif" font-size="14" lengthAdjust="spacing" textLength="28" x="609.4869" y="1087.0634">Skill</text><line style="stroke:#181818;stroke-width:0.5;" x1="565.9869" x2="680.9869" y1="1095.0166" y2="1095.0166"/><text fill="#000000" font-family="sans-serif" font-size="14" lengthAdjust="spacing" textLength="66" x="570.9869" y="1112.5517">skillName</text><text fill="#000000" font-family="sans-serif" font-size="14" lengthAdjust="spacing" textLength="105" x="570.9869" y="1129.04">skillDescription</text></g><!--class Job--><g id="elem_Job"><rect codeLine="59" fill="#F1F1F1" height="67.4648" id="Job" rx="2.5" ry="2.5" style="stroke:#181818;stroke-width:0.5;" width="112" x="505.4869" y="858.1183"/><text fill="#000000" font-family="sans-serif" font-size="14" lengthAdjust="spacing" textLength="22" x="550.4869" y="876.6534">Job</text><line style="stroke:#181818;stroke-width:0.5;" x1="506.4869" x2="616.4869" y1="884.6066" y2="884.6066"/><text fill="#000000" font-family="sans-serif" font-size="14" lengthAdjust="spacing" textLength="61" x="511.4869" y="902.1417">jobName</text><text fill="#000000" font-family="sans-serif" font-size="14" lengthAdjust="spacing" textLength="100" x="511.4869" y="918.63">jobDescription</text></g><!--class Vehicle--><g id="elem_Vehicle"><rect codeLine="64" fill="#F1F1F1" height="265.3242" id="Vehicle" rx="2.5" ry="2.5" style="stroke:#181818;stroke-width:0.5;" width="174" x="1003.4869" y="399.3683"/><text fill="#000000" font-family="sans-serif" font-size="14" lengthAdjust="spacing" textLength="49" x="1065.9869" y="417.9034">Vehicle</text><line style="stroke:#181818;stroke-width:0.5;" x1="1004.4869" x2="1176.4869" y1="425.8566" y2="425.8566"/><text fill="#000000" font-family="sans-serif" font-size="14" lengthAdjust="spacing" textLength="40" x="1009.4869" y="443.3917">Brand</text><text fill="#000000" font-family="sans-serif" font-size="14" lengthAdjust="spacing" textLength="42" x="1009.4869" y="459.88">Model</text><text fill="#000000" font-family="sans-serif" font-size="14" lengthAdjust="spacing" textLength="33" x="1009.4869" y="476.3683">Type</text><text fill="#000000" font-family="sans-serif" font-size="14" lengthAdjust="spacing" textLength="82" x="1009.4869" y="492.8566">Tare Weight</text><text fill="#000000" font-family="sans-serif" font-size="14" lengthAdjust="spacing" textLength="90" x="1009.4869" y="509.3448">Gross Weight</text><text fill="#000000" font-family="sans-serif" font-size="14" lengthAdjust="spacing" textLength="79" x="1009.4869" y="525.8331">Current Km</text><text fill="#000000" font-family="sans-serif" font-size="14" lengthAdjust="spacing" textLength="91" x="1009.4869" y="542.3214">Register Date</text><text fill="#000000" font-family="sans-serif" font-size="14" lengthAdjust="spacing" textLength="112" x="1009.4869" y="558.8097">Acquisition Date</text><text fill="#000000" font-family="sans-serif" font-size="14" lengthAdjust="spacing" textLength="162" x="1009.4869" y="575.298">Maintenance Frequency</text><text fill="#000000" font-family="sans-serif" font-size="14" lengthAdjust="spacing" textLength="92" x="1009.4869" y="591.7863">Plate Number</text><text fill="#000000" font-family="sans-serif" font-size="14" lengthAdjust="spacing" textLength="136" x="1009.4869" y="608.2745">Passengers Number</text><text fill="#000000" font-family="sans-serif" font-size="14" lengthAdjust="spacing" textLength="100" x="1009.4869" y="624.7628">Doors Number</text><text fill="#000000" font-family="sans-serif" font-size="14" lengthAdjust="spacing" textLength="66" x="1009.4869" y="641.2511">Fuel Type</text><text fill="#000000" font-family="sans-serif" font-size="14" lengthAdjust="spacing" textLength="113" x="1009.4869" y="657.7394">Trailer Machines</text></g><!--class VehicleCheckup--><g id="elem_VehicleCheckup"><rect codeLine="81" fill="#F1F1F1" height="67.4648" id="VehicleCheckup" rx="2.5" ry="2.5" style="stroke:#181818;stroke-width:0.5;" width="118" x="1087.4869" y="858.1183"/><text fill="#000000" font-family="sans-serif" font-size="14" lengthAdjust="spacing" textLength="109" x="1091.9869" y="876.6534">VehicleCheckup</text><line style="stroke:#181818;stroke-width:0.5;" x1="1088.4869" x2="1204.4869" y1="884.6066" y2="884.6066"/><text fill="#000000" font-family="sans-serif" font-size="14" lengthAdjust="spacing" textLength="106" x="1093.4869" y="902.1417">dateOfCheckup</text><text fill="#000000" font-family="sans-serif" font-size="14" lengthAdjust="spacing" textLength="97" x="1093.4869" y="918.63">kmOfCheckup</text></g><!--class Equipment--><g id="elem_Equipment"><rect codeLine="86" fill="#F1F1F1" height="67.4648" id="Equipment" rx="2.5" ry="2.5" style="stroke:#181818;stroke-width:0.5;" width="164" x="1208.4869" y="694.6983"/><text fill="#000000" font-family="sans-serif" font-size="14" lengthAdjust="spacing" textLength="74" x="1253.4869" y="713.2334">Equipment</text><line style="stroke:#181818;stroke-width:0.5;" x1="1209.4869" x2="1371.4869" y1="721.1866" y2="721.1866"/><text fill="#000000" font-family="sans-serif" font-size="14" lengthAdjust="spacing" textLength="113" x="1214.4869" y="738.7217">equipmentName</text><text fill="#000000" font-family="sans-serif" font-size="14" lengthAdjust="spacing" textLength="152" x="1214.4869" y="755.21">equipmentDescription</text></g><!--class Agenda--><g id="elem_Agenda"><rect codeLine="91" fill="#F1F1F1" height="50.9766" id="Agenda" rx="2.5" ry="2.5" style="stroke:#181818;stroke-width:0.5;" width="93" x="874.9869" y="506.5483"/><text fill="#000000" font-family="sans-serif" font-size="14" lengthAdjust="spacing" textLength="53" x="894.9869" y="525.0834">Agenda</text><line style="stroke:#181818;stroke-width:0.5;" x1="875.9869" x2="966.9869" y1="533.0366" y2="533.0366"/><text fill="#000000" font-family="sans-serif" font-size="14" lengthAdjust="spacing" textLength="81" x="880.9869" y="550.5717">weeksTasks</text></g><!--class Tasks--><g id="elem_Tasks"><rect codeLine="96" fill="#F1F1F1" height="67.4648" id="Tasks" rx="2.5" ry="2.5" style="stroke:#181818;stroke-width:0.5;" width="118" x="867.4869" y="1212.9983"/><text fill="#000000" font-family="sans-serif" font-size="14" lengthAdjust="spacing" textLength="39" x="906.9869" y="1231.5334">Tasks</text><line style="stroke:#181818;stroke-width:0.5;" x1="868.4869" x2="984.4869" y1="1239.4866" y2="1239.4866"/><text fill="#000000" font-family="sans-serif" font-size="14" lengthAdjust="spacing" textLength="65" x="873.4869" y="1257.0217">reference</text><text fill="#000000" font-family="sans-serif" font-size="14" lengthAdjust="spacing" textLength="106" x="873.4869" y="1273.51">taskDescription</text></g><!--class PendingTasks--><g id="elem_PendingTasks"><rect codeLine="102" fill="#F1F1F1" height="50.9766" id="PendingTasks" rx="2.5" ry="2.5" style="stroke:#181818;stroke-width:0.5;" width="108" x="750.4869" y="866.3583"/><text fill="#000000" font-family="sans-serif" font-size="14" lengthAdjust="spacing" textLength="95" x="756.9869" y="884.8934">PendingTasks</text><line style="stroke:#181818;stroke-width:0.5;" x1="751.4869" x2="857.4869" y1="892.8466" y2="892.8466"/><text fill="#000000" font-family="sans-serif" font-size="14" lengthAdjust="spacing" textLength="96" x="756.4869" y="910.3817">pendingTasks</text></g><!--class Teams--><g id="elem_Teams"><rect codeLine="106" fill="#F1F1F1" height="50.9766" id="Teams" rx="2.5" ry="2.5" style="stroke:#181818;stroke-width:0.5;" width="109" x="393.9869" y="1076.7783"/><text fill="#000000" font-family="sans-serif" font-size="14" lengthAdjust="spacing" textLength="45" x="425.9869" y="1095.3134">Teams</text><line style="stroke:#181818;stroke-width:0.5;" x1="394.9869" x2="501.9869" y1="1103.2666" y2="1103.2666"/><text fill="#000000" font-family="sans-serif" font-size="14" lengthAdjust="spacing" textLength="97" x="399.9869" y="1120.8017">teamMembers</text></g><!--class Parks--><g id="elem_Parks"><rect codeLine="110" fill="#F1F1F1" height="50.9766" id="Parks" rx="2.5" ry="2.5" style="stroke:#181818;stroke-width:0.5;" width="67" x="623.9869" y="1357.4583"/><text fill="#000000" font-family="sans-serif" font-size="14" lengthAdjust="spacing" textLength="37" x="638.9869" y="1375.9934">Parks</text><line style="stroke:#181818;stroke-width:0.5;" x1="624.9869" x2="689.9869" y1="1383.9466" y2="1383.9466"/><text fill="#000000" font-family="sans-serif" font-size="14" lengthAdjust="spacing" textLength="55" x="629.9869" y="1401.4817">location</text></g><!--class Portal--><g id="elem_Portal"><rect codeLine="114" fill="#F1F1F1" height="50.9766" id="Portal" rx="2.5" ry="2.5" style="stroke:#181818;stroke-width:0.5;" width="96" x="1348.4869" y="506.5483"/><text fill="#000000" font-family="sans-serif" font-size="14" lengthAdjust="spacing" textLength="40" x="1376.4869" y="525.0834">Portal</text><line style="stroke:#181818;stroke-width:0.5;" x1="1349.4869" x2="1443.4869" y1="533.0366" y2="533.0366"/><text fill="#000000" font-family="sans-serif" font-size="14" lengthAdjust="spacing" textLength="84" x="1354.4869" y="550.5717">httpAddress</text></g><!--class User--><g id="elem_User"><rect codeLine="118" fill="#F1F1F1" height="83.9531" id="User" rx="2.5" ry="2.5" style="stroke:#181818;stroke-width:0.5;" width="78" x="1562.4869" y="44.4883"/><text fill="#000000" font-family="sans-serif" font-size="14" lengthAdjust="spacing" textLength="31" x="1585.9869" y="63.0234">User</text><line style="stroke:#181818;stroke-width:0.5;" x1="1563.4869" x2="1639.4869" y1="70.9766" y2="70.9766"/><text fill="#000000" font-family="sans-serif" font-size="14" lengthAdjust="spacing" textLength="38" x="1568.4869" y="88.5117">name</text><text fill="#000000" font-family="sans-serif" font-size="14" lengthAdjust="spacing" textLength="37" x="1568.4869" y="105">email</text><text fill="#000000" font-family="sans-serif" font-size="14" lengthAdjust="spacing" textLength="66" x="1568.4869" y="121.4883">password</text></g><!--class Reports--><g id="elem_Reports"><rect codeLine="124" fill="#F1F1F1" height="83.9531" id="Reports" rx="2.5" ry="2.5" style="stroke:#181818;stroke-width:0.5;" width="59" x="1419.9869" y="221.9283"/><text fill="#000000" font-family="sans-serif" font-size="14" lengthAdjust="spacing" textLength="53" x="1422.9869" y="240.4634">Reports</text><line style="stroke:#181818;stroke-width:0.5;" x1="1420.9869" x2="1477.9869" y1="248.4166" y2="248.4166"/><text fill="#000000" font-family="sans-serif" font-size="14" lengthAdjust="spacing" textLength="29" x="1425.9869" y="265.9517">type</text><text fill="#000000" font-family="sans-serif" font-size="14" lengthAdjust="spacing" textLength="30" x="1425.9869" y="282.44">date</text><text fill="#000000" font-family="sans-serif" font-size="14" lengthAdjust="spacing" textLength="31" x="1425.9869" y="298.9283">park</text></g><!--class Comments--><g id="elem_Comments"><rect codeLine="131" fill="#F1F1F1" height="50.9766" id="Comments" rx="2.5" ry="2.5" style="stroke:#181818;stroke-width:0.5;" width="154" x="1208.4869" y="60.9783"/><text fill="#000000" font-family="sans-serif" font-size="14" lengthAdjust="spacing" textLength="74" x="1248.4869" y="79.5134">Comments</text><line style="stroke:#181818;stroke-width:0.5;" x1="1209.4869" x2="1361.4869" y1="87.4666" y2="87.4666"/><text fill="#000000" font-family="sans-serif" font-size="14" lengthAdjust="spacing" textLength="142" x="1214.4869" y="105.0017">commentDescription</text></g><!--class ReportFaults--><g id="elem_ReportFaults"><rect codeLine="135" fill="#F1F1F1" height="50.9766" id="ReportFaults" rx="2.5" ry="2.5" style="stroke:#181818;stroke-width:0.5;" width="128" x="1397.4869" y="60.9783"/><text fill="#000000" font-family="sans-serif" font-size="14" lengthAdjust="spacing" textLength="87" x="1417.9869" y="79.5134">ReportFaults</text><line style="stroke:#181818;stroke-width:0.5;" x1="1398.4869" x2="1524.4869" y1="87.4666" y2="87.4666"/><text fill="#000000" font-family="sans-serif" font-size="14" lengthAdjust="spacing" textLength="116" x="1403.4869" y="105.0017">faultsDescription</text></g><!--class Malfunctions--><g id="elem_Malfunctions"><rect codeLine="139" fill="#F1F1F1" height="50.9766" id="Malfunctions" rx="2.5" ry="2.5" style="stroke:#181818;stroke-width:0.5;" width="172" x="1001.4869" y="60.9783"/><text fill="#000000" font-family="sans-serif" font-size="14" lengthAdjust="spacing" textLength="88" x="1043.4869" y="79.5134">Malfunctions</text><line style="stroke:#181818;stroke-width:0.5;" x1="1002.4869" x2="1172.4869" y1="87.4666" y2="87.4666"/><text fill="#000000" font-family="sans-serif" font-size="14" lengthAdjust="spacing" textLength="160" x="1007.4869" y="105.0017">malfunctionDescription</text></g><!--link Manager to Employee--><g id="link_Manager_Employee"><path codeLine="145" d="M647.2269,269.4883 C572.6769,280.3983 395.5369,310.2483 354.4869,352.3683 C310.5169,397.4983 308.7969,479.3383 310.3069,514.3783 " fill="none" id="Manager-Employee" style="stroke:#181818;stroke-width:1.0;"/><polygon fill="#000000" points="355.4425,363.9633,364.4869,361.0226,361.0311,356.268,355.4425,363.9633" style="stroke:#000000;stroke-width:1.0;"/><text fill="#000000" font-family="sans-serif" font-size="13" lengthAdjust="spacing" textLength="22" x="368.4869" y="365.9366">is a</text><text fill="#000000" font-family="sans-serif" font-size="13" lengthAdjust="spacing" textLength="22" x="617.6198" y="266.7536">1..*</text><text fill="#000000" font-family="sans-serif" font-size="13" lengthAdjust="spacing" textLength="22" x="313.4371" y="503.9783">1..*</text></g><!--link Manager to Portal--><g id="link_Manager_Portal"><path codeLine="146" d="M713.7769,265.6983 C828.4169,268.9883 1205.0669,284.8383 1301.4869,352.3683 C1354.8669,389.7583 1380.7669,466.7683 1390.9869,506.3583 " fill="none" id="Manager-Portal" style="stroke:#181818;stroke-width:1.0;"/><polygon fill="#000000" points="1327.1983,362.6978,1319.6595,356.8998,1317.6913,362.4383,1327.1983,362.6978" style="stroke:#000000;stroke-width:1.0;"/><text fill="#000000" font-family="sans-serif" font-size="13" lengthAdjust="spacing" textLength="56" x="1331.4869" y="365.9366">manages</text><text fill="#000000" font-family="sans-serif" font-size="13" lengthAdjust="spacing" textLength="8" x="721.468" y="262.1213">1</text><text fill="#000000" font-family="sans-serif" font-size="13" lengthAdjust="spacing" textLength="8" x="1380.6713" y="495.8773">1</text></g><!--link Job to Manager--><g id="link_Job_Manager"><path codeLine="147" d="M556.7769,857.7383 C546.5769,776.7783 527.6669,563.4283 584.4869,399.3683 C599.4069,356.2783 632.8269,314.8383 656.0069,289.6283 " fill="none" id="Job-Manager" style="stroke:#181818;stroke-width:1.0;"/><polygon fill="#000000" points="588.6266,537.119,593.078,528.7145,587.2879,527.7031,588.6266,537.119" style="stroke:#000000;stroke-width:1.0;"/><text fill="#000000" font-family="sans-serif" font-size="13" lengthAdjust="spacing" textLength="55" x="598.4869" y="537.1066">registers</text><text fill="#000000" font-family="sans-serif" font-size="13" lengthAdjust="spacing" textLength="22" x="531.7822" y="847.4039">1..*</text><text fill="#000000" font-family="sans-serif" font-size="13" lengthAdjust="spacing" textLength="8" x="641.4209" y="309.9151">1</text></g><!--link Manager to Skill--><g id="link_Manager_Skill"><path codeLine="148" d="M682.4569,289.6683 C689.5269,386.6683 710.1469,749.6383 648.4869,1038.5283 C646.3869,1048.3883 642.8669,1058.7083 639.1369,1068.0583 " fill="none" id="Manager-Skill" style="stroke:#181818;stroke-width:1.0;"/><polygon fill="#000000" points="692.2091,733.5758,695.6461,724.708,689.7773,724.3814,692.2091,733.5758" style="stroke:#000000;stroke-width:1.0;"/><text fill="#000000" font-family="sans-serif" font-size="13" lengthAdjust="spacing" textLength="55" x="701.4869" y="733.4966">registers</text><text fill="#000000" font-family="sans-serif" font-size="13" lengthAdjust="spacing" textLength="8" x="673.9875" y="309.9643">1</text><text fill="#000000" font-family="sans-serif" font-size="13" lengthAdjust="spacing" textLength="6" x="635.5484" y="1057.7067">*</text></g><!--link Manager to Collaborator--><g id="link_Manager_Collaborator"><path codeLine="149" d="M647.2069,274.7483 C597.7969,291.3583 506.6769,330.0983 467.4869,399.3683 C388.0669,539.7383 488.7869,603.5683 459.4869,762.1583 C457.6769,771.9583 455.2269,782.0083 452.3869,791.9583 " fill="none" id="Manager-Collaborator" style="stroke:#181818;stroke-width:1.0;"/><polygon fill="#000000" points="470.7245,536.8726,476.6631,529.4441,471.1625,527.3721,470.7245,536.8726" style="stroke:#000000;stroke-width:1.0;"/><text fill="#000000" font-family="sans-serif" font-size="13" lengthAdjust="spacing" textLength="55" x="481.4869" y="537.1066">registers</text><text fill="#000000" font-family="sans-serif" font-size="13" lengthAdjust="spacing" textLength="8" x="631.5179" y="291.1316">1</text><text fill="#000000" font-family="sans-serif" font-size="13" lengthAdjust="spacing" textLength="22" x="432.523" y="781.3168">1..*</text></g><!--link Manager to Agenda--><g id="link_Manager_Agenda"><path codeLine="150" d="M713.8469,285.4583 C750.3469,309.2683 808.8169,351.4183 847.4869,399.3683 C874.8069,433.2483 897.8169,478.5583 910.6069,506.2183 " fill="none" id="Manager-Agenda" style="stroke:#181818;stroke-width:1.0;"/><polygon fill="#000000" points="827.8138,364.7562,823.9895,356.0484,819.6015,359.9593,827.8138,364.7562" style="stroke:#000000;stroke-width:1.0;"/><text fill="#000000" font-family="sans-serif" font-size="13" lengthAdjust="spacing" textLength="56" x="833.4869" y="365.9366">manages</text><text fill="#000000" font-family="sans-serif" font-size="13" lengthAdjust="spacing" textLength="8" x="721.5524" y="304.0506">1</text><text fill="#000000" font-family="sans-serif" font-size="13" lengthAdjust="spacing" textLength="8" x="898.9799" y="495.7032">1</text></g><!--link Manager to PendingTasks--><g id="link_Manager_PendingTasks"><path codeLine="151" d="M688.6069,289.5983 C694.1469,307.0083 701.3669,330.9583 706.4869,352.3683 C753.2869,548.2983 789.7869,789.0083 800.9469,865.9583 " fill="none" id="Manager-PendingTasks" style="stroke:#181818;stroke-width:1.0;"/><polygon fill="#000000" points="773.4435,537.1012,774.5977,527.6609,768.8284,528.7854,773.4435,537.1012" style="stroke:#000000;stroke-width:1.0;"/><text fill="#000000" font-family="sans-serif" font-size="13" lengthAdjust="spacing" textLength="56" x="781.4869" y="537.1066">manages</text><text fill="#000000" font-family="sans-serif" font-size="13" lengthAdjust="spacing" textLength="8" x="691.4097" y="309.8781">1</text><text fill="#000000" font-family="sans-serif" font-size="13" lengthAdjust="spacing" textLength="6" x="793.3528" y="855.4261">*</text></g><!--link Manager to Equipment--><g id="link_Manager_Equipment"><path codeLine="152" d="M713.9669,269.2783 C816.8169,283.3583 1125.3869,330.6283 1195.4869,399.3683 C1278.0369,480.3283 1289.9469,628.2983 1290.9369,694.2183 " fill="none" id="Manager-Equipment" style="stroke:#181818;stroke-width:1.0;"/><polygon fill="#000000" points="1155.5129,363.9887,1149.9727,356.2583,1146.4871,360.9911,1155.5129,363.9887" style="stroke:#000000;stroke-width:1.0;"/><text fill="#000000" font-family="sans-serif" font-size="13" lengthAdjust="spacing" textLength="55" x="1160.4869" y="365.9366">registers</text><text fill="#000000" font-family="sans-serif" font-size="13" lengthAdjust="spacing" textLength="8" x="721.6972" y="284.5335">1</text><text fill="#000000" font-family="sans-serif" font-size="13" lengthAdjust="spacing" textLength="6" x="1284.4509" y="683.8648">*</text></g><!--link Manager to Vehicle--><g id="link_Manager_Vehicle"><path codeLine="153" d="M713.5569,272.9183 C773.3169,288.7283 900.9169,328.6483 985.4869,399.3683 C991.5469,404.4383 997.4869,409.8983 1003.2769,415.6083 " fill="none" id="Manager-Vehicle" style="stroke:#181818;stroke-width:1.0;"/><polygon fill="#000000" points="950.9724,363.2327,944.1566,356.5998,941.5596,361.8728,950.9724,363.2327" style="stroke:#000000;stroke-width:1.0;"/><text fill="#000000" font-family="sans-serif" font-size="13" lengthAdjust="spacing" textLength="56" x="955.4869" y="365.9366">manages</text><text fill="#000000" font-family="sans-serif" font-size="13" lengthAdjust="spacing" textLength="8" x="721.666" y="270.8513">1</text><text fill="#000000" font-family="sans-serif" font-size="13" lengthAdjust="spacing" textLength="6" x="989.5245" y="402.5404">*</text></g><!--link Manager to Tasks--><g id="link_Manager_Tasks"><path codeLine="154" d="M647.2669,266.0183 C544.4669,270.1283 234.0969,287.7483 161.4869,352.3683 C99.7069,407.3483 109.4869,448.3383 109.4869,531.0383 C109.4869,531.0383 109.4869,531.0383 109.4869,1103.2683 C109.4869,1112.8783 679.0669,1205.7583 867.0769,1236.1583 " fill="none" id="Manager-Tasks" style="stroke:#181818;stroke-width:1.0;"/><polygon fill="#000000" points="115.5918,896.88,116.4594,887.409,110.7268,888.7079,115.5918,896.88" style="stroke:#000000;stroke-width:1.0;"/><text fill="#000000" font-family="sans-serif" font-size="13" lengthAdjust="spacing" textLength="45" x="123.4869" y="896.9166">creates</text><text fill="#000000" font-family="sans-serif" font-size="13" lengthAdjust="spacing" textLength="8" x="631.5903" y="280.6011">1</text><text fill="#000000" font-family="sans-serif" font-size="13" lengthAdjust="spacing" textLength="6" x="853.4707" y="1231.543">*</text></g><!--link Manager to Teams--><g id="link_Manager_Teams"><path codeLine="155" d="M647.1869,269.8883 C554.7969,284.4883 299.3669,330.5883 257.4869,399.3683 C119.3169,626.3183 189.0169,772.5583 339.4869,991.5283 C361.9969,1024.2883 394.9069,1055.8483 418.6769,1076.6383 " fill="none" id="Manager-Teams" style="stroke:#181818;stroke-width:1.0;"/><polygon fill="#000000" points="211.1243,733.3943,216.417,725.4925,210.7617,723.8906,211.1243,733.3943" style="stroke:#000000;stroke-width:1.0;"/><text fill="#000000" font-family="sans-serif" font-size="13" lengthAdjust="spacing" textLength="56" x="221.4869" y="733.4966">manages</text><text fill="#000000" font-family="sans-serif" font-size="13" lengthAdjust="spacing" textLength="8" x="631.4382" y="266.724">1</text><text fill="#000000" font-family="sans-serif" font-size="13" lengthAdjust="spacing" textLength="6" x="404.6795" y="1066.1695">*</text></g><!--link HumanResourcesManager to Manager--><g id="link_HumanResourcesManager_Manager"><path codeLine="156" d="M680.4869,103.9683 C680.4869,134.8483 680.4869,201.5183 680.4869,237.9283 " fill="none" id="HumanResourcesManager-Manager" style="stroke:#181818;stroke-width:1.0;"/><polygon fill="#000000" points="685.4869,162.0936,682.548,171.1386,688.4259,171.1386,685.4869,162.0936" style="stroke:#000000;stroke-width:1.0;"/><text fill="#000000" font-family="sans-serif" font-size="13" lengthAdjust="spacing" textLength="22" x="694.4869" y="172.0066">is a</text><text fill="#000000" font-family="sans-serif" font-size="13" lengthAdjust="spacing" textLength="22" x="655.1182" y="124.2422">1..*</text><text fill="#000000" font-family="sans-serif" font-size="13" lengthAdjust="spacing" textLength="8" x="671.5619" y="227.7907">1</text></g><!--link VehicleFleetManager to Manager--><g id="link_VehicleFleetManager_Manager"><path codeLine="157" d="M497.4869,103.9683 C533.0469,134.8483 609.7969,201.5183 651.7269,237.9283 " fill="none" id="VehicleFleetManager-Manager" style="stroke:#181818;stroke-width:1.0;"/><polygon fill="#000000" points="580.712,163.8149,585.6138,171.9649,589.4681,167.5271,580.712,163.8149" style="stroke:#000000;stroke-width:1.0;"/><text fill="#000000" font-family="sans-serif" font-size="13" lengthAdjust="spacing" textLength="22" x="593.4869" y="172.0066">is a</text><text fill="#000000" font-family="sans-serif" font-size="13" lengthAdjust="spacing" textLength="22" x="477.9369" y="124.2422">1..*</text><text fill="#000000" font-family="sans-serif" font-size="13" lengthAdjust="spacing" textLength="8" x="636.1512" y="227.7907">1</text></g><!--link GreenSpacesManager to Manager--><g id="link_GreenSpacesManager_Manager"><path codeLine="158" d="M865.2969,103.9683 C829.3869,134.8483 751.8769,201.5183 709.5369,237.9283 " fill="none" id="GreenSpacesManager-Manager" style="stroke:#181818;stroke-width:1.0;"/><polygon fill="#000000" points="809.2778,163.8333,800.5037,167.503,804.3364,171.9594,809.2778,163.8333" style="stroke:#000000;stroke-width:1.0;"/><text fill="#000000" font-family="sans-serif" font-size="13" lengthAdjust="spacing" textLength="22" x="814.4869" y="172.0066">is a</text><text fill="#000000" font-family="sans-serif" font-size="13" lengthAdjust="spacing" textLength="22" x="834.0513" y="124.2422">1..*</text><text fill="#000000" font-family="sans-serif" font-size="13" lengthAdjust="spacing" textLength="8" x="707.3298" y="227.7907">1</text></g><!--link Agenda to PendingTasks--><g id="link_Agenda_PendingTasks"><path codeLine="160" d="M908.9969,558.0083 C895.1369,585.0383 871.5369,629.0483 847.4869,664.6983 C837.9369,678.8483 829.9069,678.8783 823.4869,694.6983 C799.9969,752.5483 800.3469,827.5983 802.4769,865.9283 " fill="none" id="Agenda-PendingTasks" style="stroke:#181818;stroke-width:1.0;"/><polygon fill="#000000" points="826.8523,733.3088,832.5868,725.7216,827.032,723.7999,826.8523,733.3088" style="stroke:#000000;stroke-width:1.0;"/><text fill="#000000" font-family="sans-serif" font-size="13" lengthAdjust="spacing" textLength="99" x="837.4869" y="733.4966">gets tasks from</text><text fill="#000000" font-family="sans-serif" font-size="13" lengthAdjust="spacing" textLength="8" x="897.3898" y="577.9325">1</text><text fill="#000000" font-family="sans-serif" font-size="13" lengthAdjust="spacing" textLength="6" x="802.7059" y="855.8046">*</text></g><!--link User to Parks--><g id="link_User_Parks"><path codeLine="163" d="M1601.8569,128.9383 C1602.1369,164.4883 1602.4869,217.0683 1602.4869,262.9083 C1602.4869,262.9083 1602.4869,262.9083 1602.4869,1247.7283 C1602.4869,1341.7183 860.2769,1374.5283 691.3969,1380.7783 " fill="none" id="User-Parks" style="stroke:#181818;stroke-width:1.0;"/><polygon fill="#000000" points="1604.546,896.0472,1612.243,890.4608,1607.4894,887.0036,1604.546,896.0472" style="stroke:#000000;stroke-width:1.0;"/><text fill="#000000" font-family="sans-serif" font-size="13" lengthAdjust="spacing" textLength="29" x="1616.4869" y="896.9166">uses</text><text fill="#000000" font-family="sans-serif" font-size="13" lengthAdjust="spacing" textLength="22" x="1578.2957" y="148.8693">1..*</text><text fill="#000000" font-family="sans-serif" font-size="13" lengthAdjust="spacing" textLength="6" x="699.0096" y="1376.3846">*</text></g><!--link User to Reports--><g id="link_User_Reports"><path codeLine="164" d="M1562.1169,118.4583 C1548.2469,130.2683 1532.9969,144.2983 1520.4869,158.4383 C1503.3469,177.8283 1486.9169,201.5383 1474.1969,221.4683 " fill="none" id="User-Reports" style="stroke:#181818;stroke-width:1.0;"/><polygon fill="#000000" points="1522.241,170.8967,1530.3484,165.9247,1525.8776,162.1088,1522.241,170.8967" style="stroke:#000000;stroke-width:1.0;"/><text fill="#000000" font-family="sans-serif" font-size="13" lengthAdjust="spacing" textLength="41" x="1534.4869" y="172.0066">makes</text><text fill="#000000" font-family="sans-serif" font-size="13" lengthAdjust="spacing" textLength="6" x="1548.5698" y="120.4172">*</text><text fill="#000000" font-family="sans-serif" font-size="13" lengthAdjust="spacing" textLength="6" x="1471.657" y="211.1027">*</text></g><!--link Comments to Reports--><g id="link_Comments_Reports"><path codeLine="166" d="M1308.6369,112.2283 C1337.6869,143.3083 1387.5569,196.6583 1419.4969,230.8283 " fill="none" id="Comments-Reports" style="stroke:#181818;stroke-width:1.0;"/><polygon fill="#000000" points="1375.9013,170.7463,1371.8717,162.1316,1367.5777,166.1453,1375.9013,170.7463" style="stroke:#000000;stroke-width:1.0;"/><text fill="#000000" font-family="sans-serif" font-size="13" lengthAdjust="spacing" textLength="19" x="1381.4869" y="172.0066">are</text><text fill="#000000" font-family="sans-serif" font-size="13" lengthAdjust="spacing" textLength="6" x="1307.2966" y="132.5243">*</text><text fill="#000000" font-family="sans-serif" font-size="13" lengthAdjust="spacing" textLength="8" x="1404.0616" y="219.5545">1</text></g><!--link ReportFaults to Reports--><g id="link_ReportFaults_Reports"><path codeLine="167" d="M1454.9269,112.2283 C1451.6769,125.7683 1448.1069,142.9083 1446.4869,158.4383 C1444.3169,179.1983 1444.7069,202.3783 1445.7869,221.6283 " fill="none" id="ReportFaults-Reports" style="stroke:#181818;stroke-width:1.0;"/><polygon fill="#000000" points="1451.0707,172.0762,1454.7524,163.3072,1448.895,162.8178,1451.0707,172.0762" style="stroke:#000000;stroke-width:1.0;"/><text fill="#000000" font-family="sans-serif" font-size="13" lengthAdjust="spacing" textLength="19" x="1460.4869" y="172.0066">are</text><text fill="#000000" font-family="sans-serif" font-size="13" lengthAdjust="spacing" textLength="6" x="1446.7162" y="132.5243">*</text><text fill="#000000" font-family="sans-serif" font-size="13" lengthAdjust="spacing" textLength="8" x="1436.5598" y="211.2882">1</text></g><!--link Malfunctions to Reports--><g id="link_Malfunctions_Reports"><path codeLine="168" d="M1138.9669,112.4183 C1215.8769,149.6883 1358.2969,218.7183 1419.8669,248.5483 " fill="none" id="Malfunctions-Reports" style="stroke:#181818;stroke-width:1.0;"/><polygon fill="#000000" points="1277.9864,169.2741,1271.1285,162.6847,1268.5651,167.9742,1277.9864,169.2741" style="stroke:#000000;stroke-width:1.0;"/><text fill="#000000" font-family="sans-serif" font-size="13" lengthAdjust="spacing" textLength="19" x="1282.4869" y="172.0066">are</text><text fill="#000000" font-family="sans-serif" font-size="13" lengthAdjust="spacing" textLength="6" x="1143.5719" y="132.3382">*</text><text fill="#000000" font-family="sans-serif" font-size="13" lengthAdjust="spacing" textLength="8" x="1404.0923" y="240.867">1</text></g><!--link Teams to Parks--><g id="link_Teams_Parks"><path codeLine="170" d="M467.0369,1127.9983 C506.6969,1180.8783 599.3569,1304.4383 638.9769,1357.2783 " fill="none" id="Teams-Parks" style="stroke:#181818;stroke-width:1.0;"/><polygon fill="#000000" points="589.4867,1250.8837,586.4113,1241.8841,581.7088,1245.4106,589.4867,1250.8837" style="stroke:#000000;stroke-width:1.0;"/><text fill="#000000" font-family="sans-serif" font-size="13" lengthAdjust="spacing" textLength="110" x="595.4869" y="1251.7966">carry out tasks in</text><text fill="#000000" font-family="sans-serif" font-size="13" lengthAdjust="spacing" textLength="8" x="462.4016" y="1148.2874">1</text><text fill="#000000" font-family="sans-serif" font-size="13" lengthAdjust="spacing" textLength="8" x="625.4901" y="1346.7997">1</text></g><!--link Teams to Tasks--><g id="link_Teams_Tasks"><path codeLine="171" d="M503.3569,1121.8083 C517.6869,1126.5483 533.1369,1131.5483 547.4869,1135.9983 C660.0269,1170.8783 792.4269,1208.4283 867.1969,1229.3083 " fill="none" id="Teams-Tasks" style="stroke:#181818;stroke-width:1.0;"/><polygon fill="#000000" points="712.282,1176.0703,704.4404,1170.6889,702.7749,1176.3259,712.282,1176.0703" style="stroke:#000000;stroke-width:1.0;"/><text fill="#000000" font-family="sans-serif" font-size="13" lengthAdjust="spacing" textLength="56" x="716.4869" y="1179.5666">carry out</text><text fill="#000000" font-family="sans-serif" font-size="13" lengthAdjust="spacing" textLength="8" x="510.8997" y="1120.9394">1</text><text fill="#000000" font-family="sans-serif" font-size="13" lengthAdjust="spacing" textLength="8" x="851.4835" y="1240.6863">1</text></g><!--link Organization to Parks--><g id="link_Organization_Parks"><path codeLine="174" d="M64.9069,322.7483 C42.9869,375.7583 15.4869,457.0383 15.4869,531.0383 C15.4869,531.0383 15.4869,531.0383 15.4869,1247.7283 C15.4869,1373.2683 491.7769,1382.1283 623.8769,1382.1683 " fill="none" id="Organization-Parks" style="stroke:#181818;stroke-width:1.0;"/><polygon fill="#000000" points="22.8202,1034.6058,21.1986,1025.2345,16,1027.9774,22.8202,1034.6058" style="stroke:#000000;stroke-width:1.0;"/><text fill="#000000" font-family="sans-serif" font-size="13" lengthAdjust="spacing" textLength="56" x="29.4869" y="1035.0966">manages</text><text fill="#000000" font-family="sans-serif" font-size="13" lengthAdjust="spacing" textLength="8" x="53.3711" y="343.0058">1</text><text fill="#000000" font-family="sans-serif" font-size="13" lengthAdjust="spacing" textLength="6" x="609.8685" y="1377.9597">*</text></g><!--link Organization to Employee--><g id="link_Organization_Employee"><path codeLine="175" d="M139.2269,322.6483 C189.8969,383.9583 266.8669,477.0583 297.8569,514.5383 " fill="none" id="Organization-Employee" style="stroke:#181818;stroke-width:1.0;"/><polygon fill="#000000" points="183.6727,364.8773,180.1748,356.0333,175.6445,359.7784,183.6727,364.8773" style="stroke:#000000;stroke-width:1.0;"/><text fill="#000000" font-family="sans-serif" font-size="13" lengthAdjust="spacing" textLength="22" x="189.4869" y="365.9366">has</text><text fill="#000000" font-family="sans-serif" font-size="13" lengthAdjust="spacing" textLength="8" x="136.2844" y="342.8942">1</text><text fill="#000000" font-family="sans-serif" font-size="13" lengthAdjust="spacing" textLength="22" x="268.0061" y="504.1893">1..*</text></g><!--link Employee to Collaborator--><g id="link_Employee_Collaborator"><path codeLine="178" d="M310.1669,549.6983 C307.6769,588.2683 304.6569,686.1983 330.4869,762.1583 C336.7769,780.6583 346.2969,799.1483 356.6769,816.0983 " fill="none" id="Employee-Collaborator" style="stroke:#181818;stroke-width:1.0;"/><polygon fill="#000000" points="336.3469,733.5091,337.6864,724.0933,331.8961,725.1042,336.3469,733.5091" style="stroke:#000000;stroke-width:1.0;"/><text fill="#000000" font-family="sans-serif" font-size="13" lengthAdjust="spacing" textLength="22" x="344.4869" y="733.4966">is a</text><text fill="#000000" font-family="sans-serif" font-size="13" lengthAdjust="spacing" textLength="22" x="284.5479" y="569.7047">1..*</text><text fill="#000000" font-family="sans-serif" font-size="13" lengthAdjust="spacing" textLength="22" x="326.8364" y="804.0593">1..*</text></g><!--link Employee to Job--><g id="link_Employee_Job"><path codeLine="179" d="M317.6769,549.6183 C327.6769,575.3783 348.8469,626.0583 374.4869,664.6983 C416.3469,727.7783 439.6269,733.4983 487.4869,792.1583 C504.9469,813.5683 523.6069,838.4583 537.8169,857.8883 " fill="none" id="Employee-Job" style="stroke:#181818;stroke-width:1.0;"/><polygon fill="#000000" points="467.3927,732.6526,464.5279,723.5837,459.7445,726.9996,467.3927,732.6526" style="stroke:#000000;stroke-width:1.0;"/><text fill="#000000" font-family="sans-serif" font-size="13" lengthAdjust="spacing" textLength="33" x="473.4869" y="733.4966">has a</text><text fill="#000000" font-family="sans-serif" font-size="13" lengthAdjust="spacing" textLength="8" x="320.7976" y="569.9167">1</text><text fill="#000000" font-family="sans-serif" font-size="13" lengthAdjust="spacing" textLength="8" x="524.3694" y="847.3243">1</text></g><!--link Collaborator to Skill--><g id="link_Collaborator_Skill"><path codeLine="181" d="M470.3569,972.4083 C475.9369,979.0583 481.6869,985.5183 487.4869,991.5283 C514.7669,1019.7983 549.2569,1047.5483 576.6669,1068.0683 " fill="none" id="Collaborator-Skill" style="stroke:#181818;stroke-width:1.0;"/><polygon fill="#000000" points="538.7701,1026.8391,543.5281,1035.074,547.4597,1030.7046,538.7701,1026.8391" style="stroke:#000000;stroke-width:1.0;"/><text fill="#000000" font-family="sans-serif" font-size="13" lengthAdjust="spacing" textLength="88" x="551.4869" y="1035.0966">is assigned to</text><text fill="#000000" font-family="sans-serif" font-size="13" lengthAdjust="spacing" textLength="8" x="478.1559" y="979.3579">1</text><text fill="#000000" font-family="sans-serif" font-size="13" lengthAdjust="spacing" textLength="6" x="561.17" y="1057.7186">*</text></g><!--link Collaborator to Teams--><g id="link_Collaborator_Teams"><path codeLine="182" d="M417.0669,991.7683 C418.7469,1007.5283 421.1369,1023.5583 424.4869,1038.5283 C427.3669,1051.3883 432.3769,1065.1183 437.0869,1076.4483 " fill="none" id="Collaborator-Teams" style="stroke:#181818;stroke-width:1.0;"/><polygon fill="#000000" points="430.6373,1035.0494,431.4163,1025.5708,425.6962,1026.9232,430.6373,1035.0494" style="stroke:#000000;stroke-width:1.0;"/><text fill="#000000" font-family="sans-serif" font-size="13" lengthAdjust="spacing" textLength="63" x="438.4869" y="1035.0966">integrates</text><text fill="#000000" font-family="sans-serif" font-size="13" lengthAdjust="spacing" textLength="22" x="394.522" y="1012.237">1..*</text><text fill="#000000" font-family="sans-serif" font-size="13" lengthAdjust="spacing" textLength="8" x="425.3332" y="1065.9332">1</text></g><!--link Vehicle to Tasks--><g id="link_Vehicle_Tasks"><path codeLine="186" d="M1067.6169,665.0283 C1038.9669,826.2083 989.7369,1088.9583 957.4869,1182.9983 C954.0969,1192.8783 949.4869,1203.1983 944.8569,1212.5483 " fill="none" id="Vehicle-Tasks" style="stroke:#181818;stroke-width:1.0;"/><polygon fill="#000000" points="1001.393,1035.0624,1006.2397,1026.8794,1000.5042,1025.5935,1001.393,1035.0624" style="stroke:#000000;stroke-width:1.0;"/><text fill="#000000" font-family="sans-serif" font-size="13" lengthAdjust="spacing" textLength="94" x="1011.4869" y="1035.0966">is attributed to</text><text fill="#000000" font-family="sans-serif" font-size="13" lengthAdjust="spacing" textLength="22" x="1066.9678" y="685.2886">1..*</text><text fill="#000000" font-family="sans-serif" font-size="13" lengthAdjust="spacing" textLength="8" x="939.5962" y="1202.2005">1</text></g><!--link Vehicle to VehicleCheckup--><g id="link_Vehicle_VehicleCheckup"><path codeLine="187" d="M1071.2969,665.1383 C1070.1469,697.2383 1071.9169,731.2183 1079.4869,762.1583 C1087.9869,796.8983 1107.6769,832.6983 1123.5169,857.6883 " fill="none" id="Vehicle-VehicleCheckup" style="stroke:#181818;stroke-width:1.0;"/><polygon fill="#000000" points="1085.7957,733.4092,1086.2646,723.9102,1080.5917,725.4488,1085.7957,733.4092" style="stroke:#000000;stroke-width:1.0;"/><text fill="#000000" font-family="sans-serif" font-size="13" lengthAdjust="spacing" textLength="96" x="1093.4869" y="733.4966">is submitted to</text><text fill="#000000" font-family="sans-serif" font-size="13" lengthAdjust="spacing" textLength="8" x="1062.0287" y="685.4046">1</text><text fill="#000000" font-family="sans-serif" font-size="13" lengthAdjust="spacing" textLength="8" x="1110.3758" y="847.3443">1</text></g><!--link Equipment to Tasks--><g id="link_Equipment_Tasks"><path codeLine="188" d="M1286.8869,762.5883 C1280.2669,814.0683 1263.0069,915.2083 1223.4869,991.5283 C1172.0969,1090.7783 1149.3369,1115.2183 1060.4869,1182.9983 C1038.1269,1200.0583 1010.3769,1213.9983 985.9369,1224.3683 " fill="none" id="Equipment-Tasks" style="stroke:#181818;stroke-width:1.0;"/><polygon fill="#000000" points="1207.7569,1034.3725,1215.1577,1028.3993,1210.2334,1025.19,1207.7569,1034.3725" style="stroke:#000000;stroke-width:1.0;"/><text fill="#000000" font-family="sans-serif" font-size="13" lengthAdjust="spacing" textLength="94" x="1219.4869" y="1035.0966">is attributed to</text><text fill="#000000" font-family="sans-serif" font-size="13" lengthAdjust="spacing" textLength="22" x="1262.2863" y="782.6046">0..*</text><text fill="#000000" font-family="sans-serif" font-size="13" lengthAdjust="spacing" textLength="8" x="993.6699" y="1218.3161">1</text></g><!--link Agenda to Tasks--><g id="link_Agenda_Tasks"><path codeLine="190" d="M925.5269,557.8683 C930.4469,589.5283 938.4869,646.0083 941.4869,694.6983 C953.5869,890.9883 936.5969,1127.2183 929.4169,1212.7783 " fill="none" id="Agenda-Tasks" style="stroke:#181818;stroke-width:1.0;"/><polygon fill="#000000" points="945.5166,1035.1835,948.4018,1026.1211,942.524,1026.156,945.5166,1035.1835" style="stroke:#000000;stroke-width:1.0;"/><text fill="#000000" font-family="sans-serif" font-size="13" lengthAdjust="spacing" textLength="22" x="954.4869" y="1035.0966">has</text><text fill="#000000" font-family="sans-serif" font-size="13" lengthAdjust="spacing" textLength="8" x="917.5362" y="578.1805">1</text><text fill="#000000" font-family="sans-serif" font-size="13" lengthAdjust="spacing" textLength="6" x="923.4032" y="1202.2163">*</text></g><!--link Tasks to Parks--><g id="link_Tasks_Parks"><path codeLine="193" d="M867.1169,1277.3483 C813.1269,1304.2983 735.3369,1343.1083 691.2769,1365.0883 " fill="none" id="Tasks-Parks" style="stroke:#181818;stroke-width:1.0;"/><polygon fill="#000000" points="800.013,1321.346,809.4186,1319.9372,806.7943,1314.6778,800.013,1321.346" style="stroke:#000000;stroke-width:1.0;"/><text fill="#000000" font-family="sans-serif" font-size="13" lengthAdjust="spacing" textLength="104" x="813.4869" y="1324.0266">are performed in</text><text fill="#000000" font-family="sans-serif" font-size="13" lengthAdjust="spacing" textLength="22" x="837.4202" y="1277.4621">1..*</text><text fill="#000000" font-family="sans-serif" font-size="13" lengthAdjust="spacing" textLength="22" x="698.9752" y="1358.3249">1..*</text></g><!--link Reports to Portal--><g id="link_Reports_Portal"><path codeLine="197" d="M1441.2669,306.1983 C1430.1269,362.1183 1410.5969,460.1883 1401.4569,506.0583 " fill="none" id="Reports-Portal" style="stroke:#181818;stroke-width:1.0;"/><polygon fill="#000000" points="1434.5102,365.9272,1439.1595,357.6305,1433.3949,356.4823,1434.5102,365.9272" style="stroke:#000000;stroke-width:1.0;"/><text fill="#000000" font-family="sans-serif" font-size="13" lengthAdjust="spacing" textLength="87" x="1444.4869" y="365.9366">are submitted</text><text fill="#000000" font-family="sans-serif" font-size="13" lengthAdjust="spacing" textLength="6" x="1433.5489" y="326.415">*</text><text fill="#000000" font-family="sans-serif" font-size="13" lengthAdjust="spacing" textLength="8" x="1393.6813" y="495.9207">1</text></g><!--SRC=[ZLPDZzis4BthLn2-B50WGN8r2WFRTJT92oV6xhOzqzHOOimFXQIwS8h-zmufVcajT-EBoU6Rn-7Zp8WtziJLG0sLH6gbMM-q1EBC24rP6IWxqGuUtLa0CS0SLPse0RQdhNxcgYD7AYmqDsL9S0NkF03HnlMwkH5mTCHfOdZNEz9oJyUrgiYOeDRUEcVuONJmYMdroBy3UTVql0N2k66uTnXBGChMDetZ3YFRQacv8ZlTWcYQG4E-c8ug_ftwFSW_3S6VeXB2u6_gFe_o02RCdk5WkPjMXbuhgDO0YKNpRoBzLGv2dm6Gi1Zlj13qe0rrshpSwS3ny2sDxBILt5eCQ5iihG5hmrZg0nTmfvMZp9NTQyEdRQlP4ueQPwf4-bKVmZ_AAOIjmjjHXLUO8hDHzRpySPHKFO3Les5W2xWW_eIUe_Bt0i0jhNym0EeHKsNP_T47b7Rtuyz9d33RWcM63_EWVjE7w877odWSBw9ZWD7Z5qDL6qPJFlXHbko96Y1_WK_1CFzWD19KXhlH652E_2x3z04wRXsUAD_OBVisSimNdrRPkCFqSw2eOa3k3NmRGR5pMDaBn90ge_OOCIWKoTRMhTPpm_q8eWhRO29W53lAUYmhUt7sknxOQHmc1No-VJb6Kx2SP9cNPCQ33D8VTdA3DC-2PykYxBSTg9P6vsU0atsYzXHYYuWmZm03Hq1bsSJiSAKcBQnx9CL-4bmdpw6o5DmJK9cu7OvtuBMh07jgykP2CpeFVezTYQQqx9qRRcCbPiGV5YxAUMe78IY4F6lJ5lm33CYPGqfNbuiVUznfrZMaLpRXsJHT57fYlgUZoF1Zc2oYTrGSHnMgFA5bCRrmQPfKigltRz_-j29ltgHHwdLhmYsXP5CX8smLLLpZ1dx9Ne368R5XHQyn1wPgiWjiY0cTulzH4rdTSL_1hsAQNeynR5rdtIlGN3QldYVMvYjySKzc03Fb6iOd-u_8lDZDhznWyLheyA_wN7RzxDB4pd1LtmumaLre3aTyTdYN9fHRbOJUoLVmcems77a2bDLORrwLKm0qkQGIwds5yer_qynAwJfiLaFNOStKXEg2c49cr9WpqQEBfyJ7oUOId6u-WxqEitTBhU34N59W4JWlNR8cFGtIDDbqKUVpOefNMC5pkA64FH-TnAvUFPT5x7dmgTCfQFsZx-UN-194pcx_2UrCB0ByfS_w2_0ackTFByMmmwR2P_3ywnYyx7YGt6MdyX5SlVknRHQoEuAJrjDdxqBeU8C-TGOmHsqaKeRCm5_wUbJ9bfghToXHRvh_0000]--></g></svg>