<?xml version="1.0" encoding="us-ascii" standalone="no"?><svg xmlns="http://www.w3.org/2000/svg" xmlns:xlink="http://www.w3.org/1999/xlink" contentStyleType="text/css" height="1382px" preserveAspectRatio="none" style="width:1633px;height:1382px;background:#FFFFFF;" version="1.1" viewBox="0 0 1633 1382" width="1633px" zoomAndPan="magnify"><defs/><g><text fill="#000000" font-family="sans-serif" font-size="14" font-weight="bold" lengthAdjust="spacing" textLength="105" x="757.2596" y="23.5352">Domain Model</text><!--class Organization--><g id="elem_Organization"><rect codeLine="12" fill="#F1F1F1" height="116.9297" id="Organization" rx="2.5" ry="2.5" style="stroke:#181818;stroke-width:0.5;" width="111" x="36.0192" y="205.4383"/><text fill="#000000" font-family="sans-serif" font-size="14" lengthAdjust="spacing" textLength="90" x="46.5192" y="223.9734">Organization</text><line style="stroke:#181818;stroke-width:0.5;" x1="37.0192" x2="146.0192" y1="231.9266" y2="231.9266"/><text fill="#000000" font-family="sans-serif" font-size="14" lengthAdjust="spacing" textLength="38" x="42.0192" y="249.4617">name</text><text fill="#000000" font-family="sans-serif" font-size="14" lengthAdjust="spacing" textLength="75" x="42.0192" y="265.95">vatNumber</text><text fill="#000000" font-family="sans-serif" font-size="14" lengthAdjust="spacing" textLength="52" x="42.0192" y="282.4383">website</text><text fill="#000000" font-family="sans-serif" font-size="14" lengthAdjust="spacing" textLength="99" x="42.0192" y="298.9266">phoneNumber</text><text fill="#000000" font-family="sans-serif" font-size="14" lengthAdjust="spacing" textLength="37" x="42.0192" y="315.4148">email</text></g><!--class Employee--><g id="elem_Employee"><rect codeLine="20" fill="#F1F1F1" height="34.4883" id="Employee" rx="2.5" ry="2.5" style="stroke:#181818;stroke-width:0.5;" width="72" x="275.5192" y="498.2983"/><text fill="#000000" font-family="sans-serif" font-size="14" lengthAdjust="spacing" textLength="66" x="278.5192" y="516.8334">Employee</text><line style="stroke:#181818;stroke-width:0.5;" x1="276.5192" x2="346.5192" y1="524.7866" y2="524.7866"/></g><!--class Collaborator--><g id="elem_Collaborator"><rect codeLine="24" fill="#F1F1F1" height="199.3711" id="Collaborator" rx="2.5" ry="2.5" style="stroke:#181818;stroke-width:0.5;" width="113" x="357.0192" y="759.1783"/><text fill="#000000" font-family="sans-serif" font-size="14" lengthAdjust="spacing" textLength="87" x="370.0192" y="777.7134">Collaborator</text><line style="stroke:#181818;stroke-width:0.5;" x1="358.0192" x2="469.0192" y1="785.6666" y2="785.6666"/><text fill="#000000" font-family="sans-serif" font-size="14" lengthAdjust="spacing" textLength="38" x="363.0192" y="803.2017">name</text><text fill="#000000" font-family="sans-serif" font-size="14" lengthAdjust="spacing" textLength="63" x="363.0192" y="819.69">birthdate</text><text fill="#000000" font-family="sans-serif" font-size="14" lengthAdjust="spacing" textLength="101" x="363.0192" y="836.1783">admissionDate</text><text fill="#000000" font-family="sans-serif" font-size="14" lengthAdjust="spacing" textLength="54" x="363.0192" y="852.6666">address</text><text fill="#000000" font-family="sans-serif" font-size="14" lengthAdjust="spacing" textLength="100" x="363.0192" y="869.1548">mobileContact</text><text fill="#000000" font-family="sans-serif" font-size="14" lengthAdjust="spacing" textLength="90" x="363.0192" y="885.6431">emailContact</text><text fill="#000000" font-family="sans-serif" font-size="14" lengthAdjust="spacing" textLength="72" x="363.0192" y="902.1314">IDdocType</text><text fill="#000000" font-family="sans-serif" font-size="14" lengthAdjust="spacing" textLength="68" x="363.0192" y="918.6197">IDnumber</text><text fill="#000000" font-family="sans-serif" font-size="14" lengthAdjust="spacing" textLength="22" x="363.0192" y="935.108">job</text><text fill="#000000" font-family="sans-serif" font-size="14" lengthAdjust="spacing" textLength="34" x="363.0192" y="951.5963">skills</text></g><!--class Manager--><g id="elem_Manager"><rect codeLine="38" fill="#F1F1F1" height="50.9766" id="Manager" rx="2.5" ry="2.5" style="stroke:#181818;stroke-width:0.5;" width="66" x="639.5192" y="238.4183"/><text fill="#000000" font-family="sans-serif" font-size="14" lengthAdjust="spacing" textLength="60" x="642.5192" y="256.9534">Manager</text><line style="stroke:#181818;stroke-width:0.5;" x1="640.5192" x2="704.5192" y1="264.9066" y2="264.9066"/><text fill="#000000" font-family="sans-serif" font-size="14" lengthAdjust="spacing" textLength="49" x="645.5192" y="282.4417">section</text></g><!--class HumanResourcesManager--><g id="elem_HumanResourcesManager"><rect codeLine="42" fill="#F1F1F1" height="34.4883" id="HumanResourcesManager" rx="2.5" ry="2.5" style="stroke:#181818;stroke-width:0.5;" width="185" x="576.0192" y="69.2183"/><text fill="#000000" font-family="sans-serif" font-size="14" lengthAdjust="spacing" textLength="179" x="579.0192" y="87.7534">HumanResourcesManager</text><line style="stroke:#181818;stroke-width:0.5;" x1="577.0192" x2="760.0192" y1="95.7066" y2="95.7066"/></g><!--class VehicleFleetManager--><g id="elem_VehicleFleetManager"><rect codeLine="46" fill="#F1F1F1" height="34.4883" id="VehicleFleetManager" rx="2.5" ry="2.5" style="stroke:#181818;stroke-width:0.5;" width="148" x="392.5192" y="69.2183"/><text fill="#000000" font-family="sans-serif" font-size="14" lengthAdjust="spacing" textLength="142" x="395.5192" y="87.7534">VehicleFleetManager</text><line style="stroke:#181818;stroke-width:0.5;" x1="393.5192" x2="539.5192" y1="95.7066" y2="95.7066"/></g><!--class GreenSpacesManager--><g id="elem_GreenSpacesManager"><rect codeLine="50" fill="#F1F1F1" height="34.4883" id="GreenSpacesManager" rx="2.5" ry="2.5" style="stroke:#181818;stroke-width:0.5;" width="154" x="795.5192" y="69.2183"/><text fill="#000000" font-family="sans-serif" font-size="14" lengthAdjust="spacing" textLength="148" x="798.5192" y="87.7534">GreenSpacesManager</text><line style="stroke:#181818;stroke-width:0.5;" x1="796.5192" x2="948.5192" y1="95.7066" y2="95.7066"/></g><!--class Skill--><g id="elem_Skill"><rect codeLine="54" fill="#F1F1F1" height="67.4648" id="Skill" rx="2.5" ry="2.5" style="stroke:#181818;stroke-width:0.5;" width="117" x="565.0192" y="1035.5483"/><text fill="#000000" font-family="sans-serif" font-size="14" lengthAdjust="spacing" textLength="28" x="609.5192" y="1054.0834">Skill</text><line style="stroke:#181818;stroke-width:0.5;" x1="566.0192" x2="681.0192" y1="1062.0366" y2="1062.0366"/><text fill="#000000" font-family="sans-serif" font-size="14" lengthAdjust="spacing" textLength="66" x="571.0192" y="1079.5717">skillName</text><text fill="#000000" font-family="sans-serif" font-size="14" lengthAdjust="spacing" textLength="105" x="571.0192" y="1096.06">skillDescription</text></g><!--class Job--><g id="elem_Job"><rect codeLine="59" fill="#F1F1F1" height="67.4648" id="Job" rx="2.5" ry="2.5" style="stroke:#181818;stroke-width:0.5;" width="112" x="505.5192" y="825.1383"/><text fill="#000000" font-family="sans-serif" font-size="14" lengthAdjust="spacing" textLength="22" x="550.5192" y="843.6734">Job</text><line style="stroke:#181818;stroke-width:0.5;" x1="506.5192" x2="616.5192" y1="851.6266" y2="851.6266"/><text fill="#000000" font-family="sans-serif" font-size="14" lengthAdjust="spacing" textLength="61" x="511.5192" y="869.1617">jobName</text><text fill="#000000" font-family="sans-serif" font-size="14" lengthAdjust="spacing" textLength="100" x="511.5192" y="885.65">jobDescription</text></g><!--class Vehicle--><g id="elem_Vehicle"><rect codeLine="64" fill="#F1F1F1" height="232.3477" id="Vehicle" rx="2.5" ry="2.5" style="stroke:#181818;stroke-width:0.5;" width="148" x="1003.5192" y="399.3683"/><text fill="#000000" font-family="sans-serif" font-size="14" lengthAdjust="spacing" textLength="49" x="1053.0192" y="417.9034">Vehicle</text><line style="stroke:#181818;stroke-width:0.5;" x1="1004.5192" x2="1150.5192" y1="425.8566" y2="425.8566"/><text fill="#000000" font-family="sans-serif" font-size="14" lengthAdjust="spacing" textLength="40" x="1009.5192" y="443.3917">Brand</text><text fill="#000000" font-family="sans-serif" font-size="14" lengthAdjust="spacing" textLength="42" x="1009.5192" y="459.88">Model</text><text fill="#000000" font-family="sans-serif" font-size="14" lengthAdjust="spacing" textLength="33" x="1009.5192" y="476.3683">Type</text><text fill="#000000" font-family="sans-serif" font-size="14" lengthAdjust="spacing" textLength="31" x="1009.5192" y="492.8566">Tare</text><text fill="#000000" font-family="sans-serif" font-size="14" lengthAdjust="spacing" textLength="90" x="1009.5192" y="509.3448">Gross Weight</text><text fill="#000000" font-family="sans-serif" font-size="14" lengthAdjust="spacing" textLength="79" x="1009.5192" y="525.8331">Current Km</text><text fill="#000000" font-family="sans-serif" font-size="14" lengthAdjust="spacing" textLength="91" x="1009.5192" y="542.3214">Register Date</text><text fill="#000000" font-family="sans-serif" font-size="14" lengthAdjust="spacing" textLength="112" x="1009.5192" y="558.8097">Acquisition Date</text><text fill="#000000" font-family="sans-serif" font-size="14" lengthAdjust="spacing" textLength="92" x="1009.5192" y="575.298">Plate Number</text><text fill="#000000" font-family="sans-serif" font-size="14" lengthAdjust="spacing" textLength="136" x="1009.5192" y="591.7863">Passengers Number</text><text fill="#000000" font-family="sans-serif" font-size="14" lengthAdjust="spacing" textLength="100" x="1009.5192" y="608.2745">Doors Number</text><text fill="#000000" font-family="sans-serif" font-size="14" lengthAdjust="spacing" textLength="66" x="1009.5192" y="624.7628">Fuel Type</text></g><!--class VehicleCheckup--><g id="elem_VehicleCheckup"><rect codeLine="83" fill="#F1F1F1" height="67.4648" id="VehicleCheckup" rx="2.5" ry="2.5" style="stroke:#181818;stroke-width:0.5;" width="118" x="1081.5192" y="825.1383"/><text fill="#000000" font-family="sans-serif" font-size="14" lengthAdjust="spacing" textLength="109" x="1086.0192" y="843.6734">VehicleCheckup</text><line style="stroke:#181818;stroke-width:0.5;" x1="1082.5192" x2="1198.5192" y1="851.6266" y2="851.6266"/><text fill="#000000" font-family="sans-serif" font-size="14" lengthAdjust="spacing" textLength="106" x="1087.5192" y="869.1617">dateOfCheckup</text><text fill="#000000" font-family="sans-serif" font-size="14" lengthAdjust="spacing" textLength="97" x="1087.5192" y="885.65">kmOfCheckup</text></g><!--class Equipment--><g id="elem_Equipment"><rect codeLine="88" fill="#F1F1F1" height="67.4648" id="Equipment" rx="2.5" ry="2.5" style="stroke:#181818;stroke-width:0.5;" width="164" x="1202.5192" y="661.7183"/><text fill="#000000" font-family="sans-serif" font-size="14" lengthAdjust="spacing" textLength="74" x="1247.5192" y="680.2534">Equipment</text><line style="stroke:#181818;stroke-width:0.5;" x1="1203.5192" x2="1365.5192" y1="688.2066" y2="688.2066"/><text fill="#000000" font-family="sans-serif" font-size="14" lengthAdjust="spacing" textLength="113" x="1208.5192" y="705.7417">equipmentName</text><text fill="#000000" font-family="sans-serif" font-size="14" lengthAdjust="spacing" textLength="152" x="1208.5192" y="722.23">equipmentDescription</text></g><!--class Agenda--><g id="elem_Agenda"><rect codeLine="93" fill="#F1F1F1" height="50.9766" id="Agenda" rx="2.5" ry="2.5" style="stroke:#181818;stroke-width:0.5;" width="93" x="875.0192" y="490.0583"/><text fill="#000000" font-family="sans-serif" font-size="14" lengthAdjust="spacing" textLength="53" x="895.0192" y="508.5934">Agenda</text><line style="stroke:#181818;stroke-width:0.5;" x1="876.0192" x2="967.0192" y1="516.5466" y2="516.5466"/><text fill="#000000" font-family="sans-serif" font-size="14" lengthAdjust="spacing" textLength="81" x="881.0192" y="534.0817">weeksTasks</text></g><!--class Tasks--><g id="elem_Tasks"><rect codeLine="98" fill="#F1F1F1" height="67.4648" id="Tasks" rx="2.5" ry="2.5" style="stroke:#181818;stroke-width:0.5;" width="118" x="866.5192" y="1180.0183"/><text fill="#000000" font-family="sans-serif" font-size="14" lengthAdjust="spacing" textLength="39" x="906.0192" y="1198.5534">Tasks</text><line style="stroke:#181818;stroke-width:0.5;" x1="867.5192" x2="983.5192" y1="1206.5066" y2="1206.5066"/><text fill="#000000" font-family="sans-serif" font-size="14" lengthAdjust="spacing" textLength="65" x="872.5192" y="1224.0417">reference</text><text fill="#000000" font-family="sans-serif" font-size="14" lengthAdjust="spacing" textLength="106" x="872.5192" y="1240.53">taskDescription</text></g><!--class PendingTasks--><g id="elem_PendingTasks"><rect codeLine="104" fill="#F1F1F1" height="50.9766" id="PendingTasks" rx="2.5" ry="2.5" style="stroke:#181818;stroke-width:0.5;" width="108" x="750.5192" y="833.3783"/><text fill="#000000" font-family="sans-serif" font-size="14" lengthAdjust="spacing" textLength="95" x="757.0192" y="851.9134">PendingTasks</text><line style="stroke:#181818;stroke-width:0.5;" x1="751.5192" x2="857.5192" y1="859.8666" y2="859.8666"/><text fill="#000000" font-family="sans-serif" font-size="14" lengthAdjust="spacing" textLength="96" x="756.5192" y="877.4017">pendingTasks</text></g><!--class Teams--><g id="elem_Teams"><rect codeLine="108" fill="#F1F1F1" height="50.9766" id="Teams" rx="2.5" ry="2.5" style="stroke:#181818;stroke-width:0.5;" width="109" x="394.0192" y="1043.7983"/><text fill="#000000" font-family="sans-serif" font-size="14" lengthAdjust="spacing" textLength="45" x="426.0192" y="1062.3334">Teams</text><line style="stroke:#181818;stroke-width:0.5;" x1="395.0192" x2="502.0192" y1="1070.2866" y2="1070.2866"/><text fill="#000000" font-family="sans-serif" font-size="14" lengthAdjust="spacing" textLength="97" x="400.0192" y="1087.8217">teamMembers</text></g><!--class Parks--><g id="elem_Parks"><rect codeLine="112" fill="#F1F1F1" height="50.9766" id="Parks" rx="2.5" ry="2.5" style="stroke:#181818;stroke-width:0.5;" width="67" x="625.0192" y="1324.4783"/><text fill="#000000" font-family="sans-serif" font-size="14" lengthAdjust="spacing" textLength="37" x="640.0192" y="1343.0134">Parks</text><line style="stroke:#181818;stroke-width:0.5;" x1="626.0192" x2="691.0192" y1="1350.9666" y2="1350.9666"/><text fill="#000000" font-family="sans-serif" font-size="14" lengthAdjust="spacing" textLength="55" x="631.0192" y="1368.5017">location</text></g><!--class Portal--><g id="elem_Portal"><rect codeLine="116" fill="#F1F1F1" height="50.9766" id="Portal" rx="2.5" ry="2.5" style="stroke:#181818;stroke-width:0.5;" width="96" x="1322.5192" y="490.0583"/><text fill="#000000" font-family="sans-serif" font-size="14" lengthAdjust="spacing" textLength="40" x="1350.5192" y="508.5934">Portal</text><line style="stroke:#181818;stroke-width:0.5;" x1="1323.5192" x2="1417.5192" y1="516.5466" y2="516.5466"/><text fill="#000000" font-family="sans-serif" font-size="14" lengthAdjust="spacing" textLength="84" x="1328.5192" y="534.0817">httpAddress</text></g><!--class User--><g id="elem_User"><rect codeLine="120" fill="#F1F1F1" height="83.9531" id="User" rx="2.5" ry="2.5" style="stroke:#181818;stroke-width:0.5;" width="78" x="1543.5192" y="44.4883"/><text fill="#000000" font-family="sans-serif" font-size="14" lengthAdjust="spacing" textLength="31" x="1567.0192" y="63.0234">User</text><line style="stroke:#181818;stroke-width:0.5;" x1="1544.5192" x2="1620.5192" y1="70.9766" y2="70.9766"/><text fill="#000000" font-family="sans-serif" font-size="14" lengthAdjust="spacing" textLength="38" x="1549.5192" y="88.5117">name</text><text fill="#000000" font-family="sans-serif" font-size="14" lengthAdjust="spacing" textLength="37" x="1549.5192" y="105">email</text><text fill="#000000" font-family="sans-serif" font-size="14" lengthAdjust="spacing" textLength="66" x="1549.5192" y="121.4883">password</text></g><!--class Reports--><g id="elem_Reports"><rect codeLine="126" fill="#F1F1F1" height="83.9531" id="Reports" rx="2.5" ry="2.5" style="stroke:#181818;stroke-width:0.5;" width="59" x="1396.0192" y="221.9283"/><text fill="#000000" font-family="sans-serif" font-size="14" lengthAdjust="spacing" textLength="53" x="1399.0192" y="240.4634">Reports</text><line style="stroke:#181818;stroke-width:0.5;" x1="1397.0192" x2="1454.0192" y1="248.4166" y2="248.4166"/><text fill="#000000" font-family="sans-serif" font-size="14" lengthAdjust="spacing" textLength="29" x="1402.0192" y="265.9517">type</text><text fill="#000000" font-family="sans-serif" font-size="14" lengthAdjust="spacing" textLength="30" x="1402.0192" y="282.44">date</text><text fill="#000000" font-family="sans-serif" font-size="14" lengthAdjust="spacing" textLength="31" x="1402.0192" y="298.9283">park</text></g><!--class Comments--><g id="elem_Comments"><rect codeLine="133" fill="#F1F1F1" height="50.9766" id="Comments" rx="2.5" ry="2.5" style="stroke:#181818;stroke-width:0.5;" width="154" x="1191.5192" y="60.9783"/><text fill="#000000" font-family="sans-serif" font-size="14" lengthAdjust="spacing" textLength="74" x="1231.5192" y="79.5134">Comments</text><line style="stroke:#181818;stroke-width:0.5;" x1="1192.5192" x2="1344.5192" y1="87.4666" y2="87.4666"/><text fill="#000000" font-family="sans-serif" font-size="14" lengthAdjust="spacing" textLength="142" x="1197.5192" y="105.0017">commentDescription</text></g><!--class ReportFaults--><g id="elem_ReportFaults"><rect codeLine="137" fill="#F1F1F1" height="50.9766" id="ReportFaults" rx="2.5" ry="2.5" style="stroke:#181818;stroke-width:0.5;" width="128" x="1380.5192" y="60.9783"/><text fill="#000000" font-family="sans-serif" font-size="14" lengthAdjust="spacing" textLength="87" x="1401.0192" y="79.5134">ReportFaults</text><line style="stroke:#181818;stroke-width:0.5;" x1="1381.5192" x2="1507.5192" y1="87.4666" y2="87.4666"/><text fill="#000000" font-family="sans-serif" font-size="14" lengthAdjust="spacing" textLength="116" x="1386.5192" y="105.0017">faultsDescription</text></g><!--class Malfunctions--><g id="elem_Malfunctions"><rect codeLine="141" fill="#F1F1F1" height="50.9766" id="Malfunctions" rx="2.5" ry="2.5" style="stroke:#181818;stroke-width:0.5;" width="172" x="984.5192" y="60.9783"/><text fill="#000000" font-family="sans-serif" font-size="14" lengthAdjust="spacing" textLength="88" x="1026.5192" y="79.5134">Malfunctions</text><line style="stroke:#181818;stroke-width:0.5;" x1="985.5192" x2="1155.5192" y1="87.4666" y2="87.4666"/><text fill="#000000" font-family="sans-serif" font-size="14" lengthAdjust="spacing" textLength="160" x="990.5192" y="105.0017">malfunctionDescription</text></g><!--link Manager to Employee--><g id="link_Manager_Employee"><path codeLine="147" d="M639.1092,263.9283 C574.6392,263.9383 432.5992,273.5583 354.5192,352.3683 C314.6392,392.6083 310.5392,465.3183 310.8692,497.9283 " fill="none" id="Manager-Employee" style="stroke:#181818;stroke-width:1.0;"/><polygon fill="#000000" points="355.4479,363.926,364.519,361.0685,361.107,356.2824,355.4479,363.926" style="stroke:#000000;stroke-width:1.0;"/><text fill="#000000" font-family="sans-serif" font-size="13" lengthAdjust="spacing" textLength="22" x="368.5192" y="365.9366">is a</text><text fill="#000000" font-family="sans-serif" font-size="13" lengthAdjust="spacing" textLength="22" x="609.4763" y="260.238">1..*</text><text fill="#000000" font-family="sans-serif" font-size="13" lengthAdjust="spacing" textLength="22" x="314.1683" y="487.541">1..*</text></g><!--link Manager to Portal--><g id="link_Manager_Portal"><path codeLine="148" d="M705.9192,265.9983 C818.2992,270.2483 1180.9692,288.7183 1275.5192,352.3683 C1324.6492,385.4383 1351.8692,453.1383 1363.5492,489.7383 " fill="none" id="Manager-Portal" style="stroke:#181818;stroke-width:1.0;"/><polygon fill="#000000" points="1304.2528,362.634,1296.6363,356.9384,1294.7431,362.503,1304.2528,362.634" style="stroke:#000000;stroke-width:1.0;"/><text fill="#000000" font-family="sans-serif" font-size="13" lengthAdjust="spacing" textLength="56" x="1308.5192" y="365.9366">manages</text><text fill="#000000" font-family="sans-serif" font-size="13" lengthAdjust="spacing" textLength="8" x="713.633" y="262.4832">1</text><text fill="#000000" font-family="sans-serif" font-size="13" lengthAdjust="spacing" textLength="8" x="1352.8753" y="479.2256">1</text></g><!--link Job to Manager--><g id="link_Job_Manager"><path codeLine="149" d="M557.4092,824.8483 C549.0592,747.9583 534.8592,551.8783 584.5192,399.3683 C598.3392,356.9183 629.2592,315.0083 650.5092,289.5383 " fill="none" id="Job-Manager" style="stroke:#181818;stroke-width:1.0;"/><polygon fill="#000000" points="588.6625,520.6196,593.1078,512.2119,587.3169,511.2047,588.6625,520.6196" style="stroke:#000000;stroke-width:1.0;"/><text fill="#000000" font-family="sans-serif" font-size="13" lengthAdjust="spacing" textLength="55" x="598.5192" y="520.6066">registers</text><text fill="#000000" font-family="sans-serif" font-size="13" lengthAdjust="spacing" textLength="22" x="532.4344" y="814.2725">1..*</text><text fill="#000000" font-family="sans-serif" font-size="13" lengthAdjust="spacing" textLength="8" x="636.4944" y="309.8043">1</text></g><!--link Manager to Skill--><g id="link_Manager_Skill"><path codeLine="150" d="M674.7992,289.8883 C682.7792,384.5883 706.0292,730.0683 648.5192,1005.5483 C646.4592,1015.4183 642.9592,1025.7383 639.2292,1035.0883 " fill="none" id="Manager-Skill" style="stroke:#181818;stroke-width:1.0;"/><polygon fill="#000000" points="689.2808,700.5979,692.6477,691.7032,686.7765,691.4229,689.2808,700.5979" style="stroke:#000000;stroke-width:1.0;"/><text fill="#000000" font-family="sans-serif" font-size="13" lengthAdjust="spacing" textLength="55" x="698.5192" y="700.5166">registers</text><text fill="#000000" font-family="sans-serif" font-size="13" lengthAdjust="spacing" textLength="8" x="666.423" y="309.8147">1</text><text fill="#000000" font-family="sans-serif" font-size="13" lengthAdjust="spacing" textLength="6" x="635.6521" y="1024.7386">*</text></g><!--link Manager to Collaborator--><g id="link_Manager_Collaborator"><path codeLine="151" d="M639.2292,276.1183 C592.2792,293.9283 508.2292,333.5483 471.5192,399.3683 C400.0692,527.4683 487.1992,585.1383 459.5192,729.1783 C457.6392,738.9683 455.1392,749.0083 452.2692,758.9483 " fill="none" id="Manager-Collaborator" style="stroke:#181818;stroke-width:1.0;"/><polygon fill="#000000" points="474.7138,520.3562,480.7205,512.9826,475.2392,510.8602,474.7138,520.3562" style="stroke:#000000;stroke-width:1.0;"/><text fill="#000000" font-family="sans-serif" font-size="13" lengthAdjust="spacing" textLength="55" x="485.5192" y="520.6066">registers</text><text fill="#000000" font-family="sans-serif" font-size="13" lengthAdjust="spacing" textLength="8" x="623.5382" y="292.7842">1</text><text fill="#000000" font-family="sans-serif" font-size="13" lengthAdjust="spacing" textLength="22" x="432.3938" y="748.3045">1..*</text></g><!--link Manager to Agenda--><g id="link_Manager_Agenda"><path codeLine="152" d="M705.8392,284.5283 C743.7392,308.0983 805.7692,350.6283 847.5192,399.3683 C872.0992,428.0683 894.6892,465.5483 908.2892,489.8283 " fill="none" id="Manager-Agenda" style="stroke:#181818;stroke-width:1.0;"/><polygon fill="#000000" points="826.03,364.5837,821.7716,356.0798,817.5864,360.2069,826.03,364.5837" style="stroke:#000000;stroke-width:1.0;"/><text fill="#000000" font-family="sans-serif" font-size="13" lengthAdjust="spacing" textLength="56" x="831.5192" y="365.9366">manages</text><text fill="#000000" font-family="sans-serif" font-size="13" lengthAdjust="spacing" textLength="8" x="713.5365" y="302.9288">1</text><text fill="#000000" font-family="sans-serif" font-size="13" lengthAdjust="spacing" textLength="8" x="896.0894" y="479.3375">1</text></g><!--link Manager to PendingTasks--><g id="link_Manager_PendingTasks"><path codeLine="153" d="M683.5592,289.7583 C690.8892,307.0383 700.2792,330.7683 706.5192,352.3683 C758.7892,533.3683 791.4092,758.9483 801.3192,833.0383 " fill="none" id="Manager-PendingTasks" style="stroke:#181818;stroke-width:1.0;"/><polygon fill="#000000" points="773.5784,520.5801,774.5345,511.1177,768.7901,512.3629,773.5784,520.5801" style="stroke:#000000;stroke-width:1.0;"/><text fill="#000000" font-family="sans-serif" font-size="13" lengthAdjust="spacing" textLength="56" x="781.5192" y="520.6066">manages</text><text fill="#000000" font-family="sans-serif" font-size="13" lengthAdjust="spacing" textLength="8" x="677.1872" y="310.0751">1</text><text fill="#000000" font-family="sans-serif" font-size="13" lengthAdjust="spacing" textLength="6" x="793.808" y="822.5207">*</text></g><!--link Manager to Equipment--><g id="link_Manager_Equipment"><path codeLine="154" d="M705.7392,269.7783 C805.5792,285.0383 1100.3692,334.7583 1169.5192,399.3683 C1246.4592,471.2483 1272.6392,600.7083 1280.9492,661.3783 " fill="none" id="Manager-Equipment" style="stroke:#181818;stroke-width:1.0;"/><polygon fill="#000000" points="1124.6523,363.8374,1118.8294,356.3178,1115.5216,361.1765,1124.6523,363.8374" style="stroke:#000000;stroke-width:1.0;"/><text fill="#000000" font-family="sans-serif" font-size="13" lengthAdjust="spacing" textLength="55" x="1129.5192" y="365.9366">registers</text><text fill="#000000" font-family="sans-serif" font-size="13" lengthAdjust="spacing" textLength="8" x="713.4159" y="285.1366">1</text><text fill="#000000" font-family="sans-serif" font-size="13" lengthAdjust="spacing" textLength="6" x="1273.6968" y="651.0515">*</text></g><!--link Manager to Vehicle--><g id="link_Manager_Vehicle"><path codeLine="155" d="M705.9792,272.5783 C767.0892,287.9483 898.4892,327.3483 985.5192,399.3683 C991.5292,404.3483 997.4192,409.7683 1003.1192,415.4683 " fill="none" id="Manager-Vehicle" style="stroke:#181818;stroke-width:1.0;"/><polygon fill="#000000" points="950.0253,363.1904,943.1474,356.6219,940.6001,361.9191,950.0253,363.1904" style="stroke:#000000;stroke-width:1.0;"/><text fill="#000000" font-family="sans-serif" font-size="13" lengthAdjust="spacing" textLength="56" x="954.5192" y="365.9366">manages</text><text fill="#000000" font-family="sans-serif" font-size="13" lengthAdjust="spacing" textLength="8" x="713.7054" y="270.4203">1</text><text fill="#000000" font-family="sans-serif" font-size="13" lengthAdjust="spacing" textLength="6" x="989.5002" y="402.4626">*</text></g><!--link Manager to Tasks--><g id="link_Manager_Tasks"><path codeLine="156" d="M639.1692,266.2083 C537.4392,270.8383 233.6392,289.7483 161.5192,352.3683 C104.3692,401.9983 109.5192,438.8483 109.5192,514.5383 C109.5192,514.5383 109.5192,514.5383 109.5192,1070.2883 C109.5192,1079.8883 678.3992,1172.7783 866.1792,1203.1783 " fill="none" id="Manager-Tasks" style="stroke:#181818;stroke-width:1.0;"/><polygon fill="#000000" points="115.6966,863.883,116.423,854.4002,110.7104,855.7842,115.6966,863.883" style="stroke:#000000;stroke-width:1.0;"/><text fill="#000000" font-family="sans-serif" font-size="13" lengthAdjust="spacing" textLength="45" x="123.5192" y="863.9366">creates</text><text fill="#000000" font-family="sans-serif" font-size="13" lengthAdjust="spacing" textLength="8" x="623.4658" y="280.8303">1</text><text fill="#000000" font-family="sans-serif" font-size="13" lengthAdjust="spacing" textLength="6" x="852.5815" y="1215.3911">*</text></g><!--link Manager to Teams--><g id="link_Manager_Teams"><path codeLine="157" d="M639.2392,270.1283 C548.1792,285.2283 298.9392,332.1483 257.5192,399.3683 C125.7392,613.2083 197.6392,751.2783 339.5192,958.5483 C361.9692,991.3483 394.8892,1022.8983 418.6692,1043.6783 " fill="none" id="Manager-Teams" style="stroke:#181818;stroke-width:1.0;"/><polygon fill="#000000" points="213.1482,700.4119,218.4547,692.5194,212.8022,690.9076,213.1482,700.4119" style="stroke:#000000;stroke-width:1.0;"/><text fill="#000000" font-family="sans-serif" font-size="13" lengthAdjust="spacing" textLength="56" x="223.5192" y="700.5166">manages</text><text fill="#000000" font-family="sans-serif" font-size="13" lengthAdjust="spacing" textLength="8" x="623.5502" y="267.465">1</text><text fill="#000000" font-family="sans-serif" font-size="13" lengthAdjust="spacing" textLength="6" x="404.662" y="1033.2143">*</text></g><!--link HumanResourcesManager to Manager--><g id="link_HumanResourcesManager_Manager"><path codeLine="158" d="M668.8992,103.9683 C669.5992,134.8483 671.1192,201.5083 671.9492,237.9183 " fill="none" id="HumanResourcesManager-Manager" style="stroke:#181818;stroke-width:1.0;"/><polygon fill="#000000" points="675.4054,162.0949,672.6731,171.2045,678.5495,171.0707,675.4054,162.0949" style="stroke:#000000;stroke-width:1.0;"/><text fill="#000000" font-family="sans-serif" font-size="13" lengthAdjust="spacing" textLength="22" x="684.5192" y="172.0066">is a</text><text fill="#000000" font-family="sans-serif" font-size="13" lengthAdjust="spacing" textLength="22" x="643.6469" y="124.2422">1..*</text><text fill="#000000" font-family="sans-serif" font-size="13" lengthAdjust="spacing" textLength="8" x="662.8924" y="227.7784">1</text></g><!--link VehicleFleetManager to Manager--><g id="link_VehicleFleetManager_Manager"><path codeLine="159" d="M485.8992,103.9683 C522.1592,134.8483 600.4292,201.5083 643.1892,237.9183 " fill="none" id="VehicleFleetManager-Manager" style="stroke:#181818;stroke-width:1.0;"/><polygon fill="#000000" points="570.7126,163.8518,575.6934,171.9537,579.5044,167.4787,570.7126,163.8518" style="stroke:#000000;stroke-width:1.0;"/><text fill="#000000" font-family="sans-serif" font-size="13" lengthAdjust="spacing" textLength="22" x="583.5192" y="172.0066">is a</text><text fill="#000000" font-family="sans-serif" font-size="13" lengthAdjust="spacing" textLength="22" x="466.4656" y="124.2422">1..*</text><text fill="#000000" font-family="sans-serif" font-size="13" lengthAdjust="spacing" textLength="8" x="627.4817" y="227.7784">1</text></g><!--link GreenSpacesManager to Manager--><g id="link_GreenSpacesManager_Manager"><path codeLine="160" d="M853.6992,103.9683 C818.4992,134.8483 742.5092,201.5083 700.9992,237.9183 " fill="none" id="GreenSpacesManager-Manager" style="stroke:#181818;stroke-width:1.0;"/><polygon fill="#000000" points="798.278,163.7963,789.5403,167.5517,793.4164,171.9704,798.278,163.7963" style="stroke:#000000;stroke-width:1.0;"/><text fill="#000000" font-family="sans-serif" font-size="13" lengthAdjust="spacing" textLength="22" x="803.5192" y="172.0066">is a</text><text fill="#000000" font-family="sans-serif" font-size="13" lengthAdjust="spacing" textLength="22" x="822.5669" y="124.2422">1..*</text><text fill="#000000" font-family="sans-serif" font-size="13" lengthAdjust="spacing" textLength="8" x="698.6602" y="227.7784">1</text></g><!--link Agenda to PendingTasks--><g id="link_Agenda_PendingTasks"><path codeLine="162" d="M906.6492,541.2983 C892.1892,564.9583 869.2892,601.4083 847.5192,631.7183 C837.5592,645.5883 829.9392,645.8983 823.5192,661.7183 C800.0292,719.5683 800.3792,794.6183 802.5092,832.9483 " fill="none" id="Agenda-PendingTasks" style="stroke:#181818;stroke-width:1.0;"/><polygon fill="#000000" points="826.8378,700.3124,832.6473,692.7823,827.1117,690.8057,826.8378,700.3124" style="stroke:#000000;stroke-width:1.0;"/><text fill="#000000" font-family="sans-serif" font-size="13" lengthAdjust="spacing" textLength="99" x="837.5192" y="700.5166">gets tasks from</text><text fill="#000000" font-family="sans-serif" font-size="13" lengthAdjust="spacing" textLength="8" x="894.2855" y="561.592">1</text><text fill="#000000" font-family="sans-serif" font-size="13" lengthAdjust="spacing" textLength="6" x="802.7382" y="822.8246">*</text></g><!--link User to Parks--><g id="link_User_Parks"><path codeLine="165" d="M1582.5192,128.9383 C1582.5192,164.4883 1582.5192,217.0683 1582.5192,262.9083 C1582.5192,262.9083 1582.5192,262.9083 1582.5192,1214.7483 C1582.5192,1306.5383 859.1992,1340.9683 692.4992,1347.6883 " fill="none" id="User-Parks" style="stroke:#181818;stroke-width:1.0;"/><polygon fill="#000000" points="1584.5704,863.0615,1592.2783,857.4901,1587.5314,854.0236,1584.5704,863.0615" style="stroke:#000000;stroke-width:1.0;"/><text fill="#000000" font-family="sans-serif" font-size="13" lengthAdjust="spacing" textLength="29" x="1596.5192" y="863.9366">uses</text><text fill="#000000" font-family="sans-serif" font-size="13" lengthAdjust="spacing" textLength="22" x="1558.9036" y="148.8693">1..*</text><text fill="#000000" font-family="sans-serif" font-size="13" lengthAdjust="spacing" textLength="6" x="700.1264" y="1343.2719">*</text></g><!--link User to Reports--><g id="link_User_Reports"><path codeLine="166" d="M1543.2592,118.2183 C1529.1192,130.1083 1513.4692,144.2583 1500.5192,158.4383 C1482.7592,177.8983 1465.4292,201.6083 1451.9192,221.5183 " fill="none" id="User-Reports" style="stroke:#181818;stroke-width:1.0;"/><polygon fill="#000000" points="1502.2072,170.8393,1510.4004,166.01,1505.997,162.1164,1502.2072,170.8393" style="stroke:#000000;stroke-width:1.0;"/><text fill="#000000" font-family="sans-serif" font-size="13" lengthAdjust="spacing" textLength="41" x="1514.5192" y="172.0066">makes</text><text fill="#000000" font-family="sans-serif" font-size="13" lengthAdjust="spacing" textLength="6" x="1529.4675" y="120.287">*</text><text fill="#000000" font-family="sans-serif" font-size="13" lengthAdjust="spacing" textLength="6" x="1449.6486" y="211.1607">*</text></g><!--link Comments to Reports--><g id="link_Comments_Reports"><path codeLine="168" d="M1290.6792,112.2283 C1318.1492,142.9283 1365.0792,195.3583 1395.6892,229.5683 " fill="none" id="Comments-Reports" style="stroke:#181818;stroke-width:1.0;"/><polygon fill="#000000" points="1354.8536,170.8194,1351.0117,162.1194,1346.6317,166.0392,1354.8536,170.8194" style="stroke:#000000;stroke-width:1.0;"/><text fill="#000000" font-family="sans-serif" font-size="13" lengthAdjust="spacing" textLength="19" x="1360.5192" y="172.0066">are</text><text fill="#000000" font-family="sans-serif" font-size="13" lengthAdjust="spacing" textLength="6" x="1289.11" y="132.5243">*</text><text fill="#000000" font-family="sans-serif" font-size="13" lengthAdjust="spacing" textLength="8" x="1379.866" y="217.4978">1</text></g><!--link ReportFaults to Reports--><g id="link_ReportFaults_Reports"><path codeLine="169" d="M1436.7192,112.1483 C1432.8292,125.6683 1428.5492,142.8083 1426.5192,158.4383 C1423.8392,179.1183 1423.3592,202.3083 1423.6492,221.5683 " fill="none" id="ReportFaults-Reports" style="stroke:#181818;stroke-width:1.0;"/><polygon fill="#000000" points="1430.9262,172.0583,1434.9172,163.4256,1429.0808,162.7285,1430.9262,172.0583" style="stroke:#000000;stroke-width:1.0;"/><text fill="#000000" font-family="sans-serif" font-size="13" lengthAdjust="spacing" textLength="19" x="1440.5192" y="172.0066">are</text><text fill="#000000" font-family="sans-serif" font-size="13" lengthAdjust="spacing" textLength="6" x="1428.2217" y="132.4258">*</text><text fill="#000000" font-family="sans-serif" font-size="13" lengthAdjust="spacing" textLength="8" x="1414.7137" y="211.2187">1</text></g><!--link Malfunctions to Reports--><g id="link_Malfunctions_Reports"><path codeLine="170" d="M1121.0092,112.4083 C1196.0392,149.4983 1334.6792,218.0083 1395.5392,248.0883 " fill="none" id="Malfunctions-Reports" style="stroke:#181818;stroke-width:1.0;"/><polygon fill="#000000" points="1257.0017,169.3089,1250.195,162.6666,1247.5907,167.936,1257.0017,169.3089" style="stroke:#000000;stroke-width:1.0;"/><text fill="#000000" font-family="sans-serif" font-size="13" lengthAdjust="spacing" textLength="19" x="1261.5192" y="172.0066">are</text><text fill="#000000" font-family="sans-serif" font-size="13" lengthAdjust="spacing" textLength="6" x="1125.3977" y="132.326">*</text><text fill="#000000" font-family="sans-serif" font-size="13" lengthAdjust="spacing" textLength="8" x="1380.1061" y="240.5901">1</text></g><!--link Teams to Parks--><g id="link_Teams_Parks"><path codeLine="172" d="M467.1592,1095.0183 C507.0092,1147.8983 600.1092,1271.4583 639.9292,1324.2983 " fill="none" id="Teams-Parks" style="stroke:#181818;stroke-width:1.0;"/><polygon fill="#000000" points="589.5282,1217.8968,586.432,1208.9043,581.7377,1212.4416,589.5282,1217.8968" style="stroke:#000000;stroke-width:1.0;"/><text fill="#000000" font-family="sans-serif" font-size="13" lengthAdjust="spacing" textLength="110" x="595.5192" y="1218.8166">carry out tasks in</text><text fill="#000000" font-family="sans-serif" font-size="13" lengthAdjust="spacing" textLength="8" x="462.5447" y="1115.3074">1</text><text fill="#000000" font-family="sans-serif" font-size="13" lengthAdjust="spacing" textLength="8" x="626.4229" y="1313.8197">1</text></g><!--link Teams to Tasks--><g id="link_Teams_Tasks"><path codeLine="173" d="M503.3892,1088.8283 C517.7192,1093.5583 533.1692,1098.5683 547.5192,1103.0183 C659.6092,1137.8083 791.4392,1175.3083 866.0692,1196.2183 " fill="none" id="Teams-Tasks" style="stroke:#181818;stroke-width:1.0;"/><polygon fill="#000000" points="712.3135,1143.0931,704.475,1137.7071,702.8062,1143.3431,712.3135,1143.0931" style="stroke:#000000;stroke-width:1.0;"/><text fill="#000000" font-family="sans-serif" font-size="13" lengthAdjust="spacing" textLength="56" x="716.5192" y="1146.5866">carry out</text><text fill="#000000" font-family="sans-serif" font-size="13" lengthAdjust="spacing" textLength="8" x="510.9319" y="1087.9594">1</text><text fill="#000000" font-family="sans-serif" font-size="13" lengthAdjust="spacing" textLength="8" x="850.3363" y="1190.7547">1</text></g><!--link Organization to Parks--><g id="link_Organization_Parks"><path codeLine="176" d="M63.4392,322.4083 C41.7892,372.0683 15.5192,446.3583 15.5192,514.5383 C15.5192,514.5383 15.5192,514.5383 15.5192,1214.7483 C15.5192,1340.4783 492.5492,1349.1983 624.8492,1349.1983 " fill="none" id="Organization-Parks" style="stroke:#181818;stroke-width:1.0;"/><polygon fill="#000000" points="22.9179,1001.5906,21.1573,992.2444,16,995.0643,22.9179,1001.5906" style="stroke:#000000;stroke-width:1.0;"/><text fill="#000000" font-family="sans-serif" font-size="13" lengthAdjust="spacing" textLength="56" x="29.5192" y="1002.1166">manages</text><text fill="#000000" font-family="sans-serif" font-size="13" lengthAdjust="spacing" textLength="8" x="51.5295" y="343.0399">1</text><text fill="#000000" font-family="sans-serif" font-size="13" lengthAdjust="spacing" textLength="6" x="610.8277" y="1344.9919">*</text></g><!--link Organization to Employee--><g id="link_Organization_Employee"><path codeLine="177" d="M142.5492,322.7983 C192.6792,379.6983 266.0292,462.9283 296.9392,497.9983 " fill="none" id="Organization-Employee" style="stroke:#181818;stroke-width:1.0;"/><polygon fill="#000000" points="190.8249,364.7748,187.0498,356.0456,182.6399,359.9317,190.8249,364.7748" style="stroke:#000000;stroke-width:1.0;"/><text fill="#000000" font-family="sans-serif" font-size="13" lengthAdjust="spacing" textLength="22" x="196.5192" y="365.9366">has</text><text fill="#000000" font-family="sans-serif" font-size="13" lengthAdjust="spacing" textLength="8" x="139.9871" y="343.0615">1</text><text fill="#000000" font-family="sans-serif" font-size="13" lengthAdjust="spacing" textLength="22" x="266.7856" y="487.6333">1..*</text></g><!--link Employee to Collaborator--><g id="link_Employee_Collaborator"><path codeLine="180" d="M310.3592,533.0983 C308.3692,569.6283 306.5492,659.4283 330.5192,729.1783 C336.8292,747.5383 346.2892,765.8883 356.5892,782.7383 " fill="none" id="Employee-Collaborator" style="stroke:#181818;stroke-width:1.0;"/><polygon fill="#000000" points="336.4297,700.52,337.6724,691.0909,331.8929,692.1612,336.4297,700.52" style="stroke:#000000;stroke-width:1.0;"/><text fill="#000000" font-family="sans-serif" font-size="13" lengthAdjust="spacing" textLength="22" x="344.5192" y="700.5166">is a</text><text fill="#000000" font-family="sans-serif" font-size="13" lengthAdjust="spacing" textLength="22" x="284.6352" y="553.3876">1..*</text><text fill="#000000" font-family="sans-serif" font-size="13" lengthAdjust="spacing" textLength="22" x="327.1594" y="771.1771">1..*</text></g><!--link Employee to Job--><g id="link_Employee_Job"><path codeLine="181" d="M319.1892,533.2483 C330.0792,556.2883 351.3092,598.7183 374.5192,631.7183 C418.0692,693.6383 439.6592,700.5183 487.5192,759.1783 C504.9792,780.5883 523.6392,805.4783 537.8492,824.9083 " fill="none" id="Employee-Job" style="stroke:#181818;stroke-width:1.0;"/><polygon fill="#000000" points="467.5185,699.6041,464.4442,690.6041,459.7413,694.13,467.5185,699.6041" style="stroke:#000000;stroke-width:1.0;"/><text fill="#000000" font-family="sans-serif" font-size="13" lengthAdjust="spacing" textLength="33" x="473.5192" y="700.5166">has a</text><text fill="#000000" font-family="sans-serif" font-size="13" lengthAdjust="spacing" textLength="8" x="312.2673" y="553.2665">1</text><text fill="#000000" font-family="sans-serif" font-size="13" lengthAdjust="spacing" textLength="8" x="524.4017" y="814.3443">1</text></g><!--link Collaborator to Skill--><g id="link_Collaborator_Skill"><path codeLine="183" d="M470.3892,939.4283 C475.9692,946.0783 481.7192,952.5383 487.5192,958.5483 C514.7992,986.8183 549.2892,1014.5683 576.6992,1035.0883 " fill="none" id="Collaborator-Skill" style="stroke:#181818;stroke-width:1.0;"/><polygon fill="#000000" points="538.8024,993.8591,543.5604,1002.094,547.492,997.7246,538.8024,993.8591" style="stroke:#000000;stroke-width:1.0;"/><text fill="#000000" font-family="sans-serif" font-size="13" lengthAdjust="spacing" textLength="88" x="551.5192" y="1002.1166">is assigned to</text><text fill="#000000" font-family="sans-serif" font-size="13" lengthAdjust="spacing" textLength="8" x="478.1882" y="946.3779">1</text><text fill="#000000" font-family="sans-serif" font-size="13" lengthAdjust="spacing" textLength="6" x="561.2023" y="1024.7386">*</text></g><!--link Collaborator to Teams--><g id="link_Collaborator_Teams"><path codeLine="184" d="M417.0992,958.7883 C418.7792,974.5483 421.1692,990.5783 424.5192,1005.5483 C427.3992,1018.4083 432.4092,1032.1383 437.1192,1043.4683 " fill="none" id="Collaborator-Teams" style="stroke:#181818;stroke-width:1.0;"/><polygon fill="#000000" points="430.6696,1002.0694,431.4486,992.5908,425.7285,993.9432,430.6696,1002.0694" style="stroke:#000000;stroke-width:1.0;"/><text fill="#000000" font-family="sans-serif" font-size="13" lengthAdjust="spacing" textLength="63" x="438.5192" y="1002.1166">integrates</text><text fill="#000000" font-family="sans-serif" font-size="13" lengthAdjust="spacing" textLength="22" x="394.5543" y="979.257">1..*</text><text fill="#000000" font-family="sans-serif" font-size="13" lengthAdjust="spacing" textLength="8" x="425.3655" y="1032.9532">1</text></g><!--link Vehicle to Tasks--><g id="link_Vehicle_Tasks"><path codeLine="188" d="M1056.5592,631.7383 C1038.3992,730.8883 1011.2392,877.7383 986.5192,1005.5483 C974.0792,1069.8483 979.0392,1088.1683 957.5192,1150.0183 C954.0592,1159.9483 949.3192,1170.2883 944.5392,1179.6383 " fill="none" id="Vehicle-Tasks" style="stroke:#181818;stroke-width:1.0;"/><polygon fill="#000000" points="992.5177,1002.1022,997.2089,993.8291,991.4501,992.6518,992.5177,1002.1022" style="stroke:#000000;stroke-width:1.0;"/><text fill="#000000" font-family="sans-serif" font-size="13" lengthAdjust="spacing" textLength="94" x="1002.5192" y="1002.1166">is attributed to</text><text fill="#000000" font-family="sans-serif" font-size="13" lengthAdjust="spacing" textLength="22" x="1032.5118" y="652.2409">1..*</text><text fill="#000000" font-family="sans-serif" font-size="13" lengthAdjust="spacing" textLength="8" x="939.4024" y="1169.3039">1</text></g><!--link Vehicle to VehicleCheckup--><g id="link_Vehicle_VehicleCheckup"><path codeLine="189" d="M1064.5992,631.9583 C1063.9192,663.8183 1065.9292,698.1583 1073.5192,729.1783 C1082.0192,763.9183 1101.7092,799.7183 1117.5492,824.7083 " fill="none" id="Vehicle-VehicleCheckup" style="stroke:#181818;stroke-width:1.0;"/><polygon fill="#000000" points="1079.8437,700.4249,1080.2816,690.9245,1074.6138,692.4815,1079.8437,700.4249" style="stroke:#000000;stroke-width:1.0;"/><text fill="#000000" font-family="sans-serif" font-size="13" lengthAdjust="spacing" textLength="96" x="1087.5192" y="700.5166">is submitted to</text><text fill="#000000" font-family="sans-serif" font-size="13" lengthAdjust="spacing" textLength="8" x="1055.5153" y="652.475">1</text><text fill="#000000" font-family="sans-serif" font-size="13" lengthAdjust="spacing" textLength="8" x="1104.4081" y="814.3643">1</text></g><!--link Equipment to Tasks--><g id="link_Equipment_Tasks"><path codeLine="190" d="M1280.9192,729.6083 C1274.2992,781.0883 1257.0392,882.2283 1217.5192,958.5483 C1166.1292,1057.7983 1142.8692,1081.5783 1054.5192,1150.0183 C1033.6492,1166.1783 1007.9492,1179.7183 984.9892,1190.0283 " fill="none" id="Equipment-Tasks" style="stroke:#181818;stroke-width:1.0;"/><polygon fill="#000000" points="1201.8158,1001.4097,1209.1786,995.3898,1204.2341,992.2117,1201.8158,1001.4097" style="stroke:#000000;stroke-width:1.0;"/><text fill="#000000" font-family="sans-serif" font-size="13" lengthAdjust="spacing" textLength="94" x="1213.5192" y="1002.1166">is attributed to</text><text fill="#000000" font-family="sans-serif" font-size="13" lengthAdjust="spacing" textLength="22" x="1256.3186" y="749.6246">0..*</text><text fill="#000000" font-family="sans-serif" font-size="13" lengthAdjust="spacing" textLength="8" x="992.3279" y="1184.0045">1</text></g><!--link Agenda to Tasks--><g id="link_Agenda_Tasks"><path codeLine="192" d="M925.9892,541.3483 C930.9392,570.1683 938.6092,619.1983 941.5192,661.7183 C954.9692,857.9283 936.5192,1094.2083 928.7092,1179.7883 " fill="none" id="Agenda-Tasks" style="stroke:#181818;stroke-width:1.0;"/><polygon fill="#000000" points="946.5405,1002.2035,949.4409,993.146,943.5631,993.171,946.5405,1002.2035" style="stroke:#000000;stroke-width:1.0;"/><text fill="#000000" font-family="sans-serif" font-size="13" lengthAdjust="spacing" textLength="22" x="955.5192" y="1002.1166">has</text><text fill="#000000" font-family="sans-serif" font-size="13" lengthAdjust="spacing" textLength="8" x="918.0979" y="561.6536">1</text><text fill="#000000" font-family="sans-serif" font-size="13" lengthAdjust="spacing" textLength="6" x="922.7466" y="1169.2243">*</text></g><!--link Tasks to Parks--><g id="link_Tasks_Parks"><path codeLine="195" d="M866.2592,1244.5383 C812.7992,1271.4183 736.0392,1309.9983 692.3492,1331.9583 " fill="none" id="Tasks-Parks" style="stroke:#181818;stroke-width:1.0;"/><polygon fill="#000000" points="800.0519,1288.3792,809.4533,1286.9427,806.8134,1281.691,800.0519,1288.3792" style="stroke:#000000;stroke-width:1.0;"/><text fill="#000000" font-family="sans-serif" font-size="13" lengthAdjust="spacing" textLength="104" x="813.5192" y="1291.0466">are performed in</text><text fill="#000000" font-family="sans-serif" font-size="13" lengthAdjust="spacing" textLength="22" x="836.5745" y="1244.6707">1..*</text><text fill="#000000" font-family="sans-serif" font-size="13" lengthAdjust="spacing" textLength="22" x="700.0544" y="1325.1691">1..*</text></g><!--link Reports to Portal--><g id="link_Reports_Portal"><path codeLine="199" d="M1416.4392,306.1283 C1404.9392,358.3383 1385.4792,446.6583 1376.0092,489.6083 " fill="none" id="Reports-Portal" style="stroke:#181818;stroke-width:1.0;"/><polygon fill="#000000" points="1409.4433,365.9064,1414.2598,357.7057,1408.5196,356.4408,1409.4433,365.9064" style="stroke:#000000;stroke-width:1.0;"/><text fill="#000000" font-family="sans-serif" font-size="13" lengthAdjust="spacing" textLength="87" x="1419.5192" y="365.9366">are submitted</text><text fill="#000000" font-family="sans-serif" font-size="13" lengthAdjust="spacing" textLength="6" x="1408.5895" y="326.3343">*</text><text fill="#000000" font-family="sans-serif" font-size="13" lengthAdjust="spacing" textLength="8" x="1368.3538" y="479.4799">1</text></g><!--SRC=[ZLPDSzis4BtpLs1qiTCPv-EgwNZ6jUeqJULeRBUP725mHQ8Y0GO0wr4w_UzTV8CM5KKN0OktYyN3smKlz9wBWIhQaruAoLebUo16ZL3bbO6oFMtWqHmw80gOeQBfIe1kQIsVkMZ8ZdOQgekyr741vZ00aSgqihheO6U8aKJnfZMavZOSbw88nZggzOqnYcz70n-O58_y6v2tLSjh88mhXdkxSGyOijPLPRZ1p5QofroGjQoXgoeNXdnI3HNy6xLxa7yhWZz1Ut23VwYv7_ijA3TxXgtcngyChHHGh046xgh_Oj1V-w6J1m0Cc8stikleLYfgf7gvqvRZuMiQejEwvrfZGgjigHLexSQztF8ERgKmb9cyUsduiAebUq9ImqpaJF-MM_UFT7QTBj9RKu5N63FJWVMq_DlOK_40MewAWSxWZFWBMexCttK0PcxzlG8GZoYLUVT7cr3StOxl8pbkjWBD51-cIVqkjy43ZvNmE9v5XmI3no-AYjgDl1xiA57sH9KVl5SIFJ-35QCpt8vAWJ3aO- -c3z1mRV0ewQfksDUHer2idf9nZRep8AXWyEQs1RQ_6WTof-3h288To2MgycF_oa4t7JgHGbiRp1q4qgLBwqhAgU5kXAuuW499O5fhobeiC4qklu1-So_z7dzGRUPpkenfV0TYJ_NgY5QtFWwUN2lbJxjWSfPzd-UvJf2geRTqUZU8ytINoJ9xepSDY9e6vsU0lNwYUgyj823SF00Kx03lZld81bVAe3dg1eDYgtAktdCeB1dt1BIFiGsErs0lem1ig4gRTvBHQV8RR7WqAhurPhW9HPuGVseuwXI-qxYa4F8iLPtn3p1Wp9HIr4BgAzW-zvE6r5jc8vxvwIpHFl8T7Ri4txd9B7fDkzqeN0E9w3wRNhXKLUm6YtUlN_-q85TNSHJRw99mJIYvBf01jWWiBd43kwIFG2ZO40sRnH8ruEjLpqH3Z6j2tqVvO6KpFuDV19cUpj5jNQhk33ILpTdpXDey4o_ioHIWKavXhDX_XERPX-B43MQlcSVZhC_nWv9Sgj0PJlBR00hPkEQmmoyQwrAvSYj4Q9ri1I_9gDsHFI2lXdgphEmTe4eb5L7l2XI-AOYPbD9fsAI6JiCgtuJAWl0fCwhKWSZHX5FY2tDz38utdy2MXyadKScWZvmbC0kSbYvPafOwQgfaEghpQJ65AopWALrNmZOUzMGN7rJ7HMpZu5TK8w2stvC_lyJd99AwxMlNg504-8jV32_0dZGRFtw4kXsk2tm2Jrz7vwN7RSzDSigFuEBjZsqpe-u0ZbpxP- -8w723LZe3g9rKFOPqoi1VV3qAiSNcQXrorjVL_m00]--></g></svg>