<?xml version="1.0" encoding="us-ascii" standalone="no"?><svg xmlns="http://www.w3.org/2000/svg" xmlns:xlink="http://www.w3.org/1999/xlink" contentStyleType="text/css" height="688px" preserveAspectRatio="none" style="width:1493px;height:688px;background:#FFFFFF;" version="1.1" viewBox="0 0 1493 688" width="1493px" zoomAndPan="magnify"><defs/><g><!--class CreateEmployeeController--><g id="elem_CreateEmployeeController"><rect codeLine="11" fill="#F1F1F1" height="122.4844" id="CreateEmployeeController" rx="2.5" ry="2.5" style="stroke:#181818;stroke-width:0.5;" width="784" x="244.5" y="209"/><ellipse cx="548.75" cy="225" fill="#ADD1B2" rx="11" ry="11" style="stroke:#181818;stroke-width:1.0;"/><path d="M551.5156,220.875 Q551.6719,220.6563 551.8594,220.5469 Q552.0469,220.4375 552.2656,220.4375 Q552.6406,220.4375 552.875,220.7031 Q553.1094,220.9531 553.1094,221.5625 L553.1094,223.0156 Q553.1094,223.625 552.875,223.8906 Q552.6406,224.1563 552.2656,224.1563 Q551.9219,224.1563 551.7188,223.9531 Q551.5156,223.7656 551.4063,223.25 Q551.3594,222.8906 551.1719,222.7031 Q550.8438,222.3281 550.2344,222.1094 Q549.625,221.8906 549,221.8906 Q548.2344,221.8906 547.5938,222.2188 Q546.9688,222.5469 546.4688,223.2969 Q545.9844,224.0469 545.9844,225.0781 L545.9844,226.1719 Q545.9844,227.4063 546.875,228.2344 Q547.7656,229.0469 549.3594,229.0469 Q550.2969,229.0469 550.9531,228.7969 Q551.3438,228.6406 551.7656,228.2031 Q552.0313,227.9375 552.1719,227.8594 Q552.3281,227.7813 552.5313,227.7813 Q552.8594,227.7813 553.1094,228.0469 Q553.375,228.2969 553.375,228.6406 Q553.375,228.9844 553.0313,229.3906 Q552.5313,229.9688 551.7344,230.2969 Q550.6563,230.75 549.3594,230.75 Q547.8438,230.75 546.6406,230.125 Q545.6563,229.625 544.9688,228.5625 Q544.2813,227.4844 544.2813,226.2031 L544.2813,225.0469 Q544.2813,223.7188 544.8906,222.5781 Q545.5156,221.4219 546.6094,220.8125 Q547.7031,220.1875 548.9375,220.1875 Q549.6719,220.1875 550.3125,220.3594 Q550.9688,220.5156 551.5156,220.875 Z " fill="#000000"/><text fill="#000000" font-family="sans-serif" font-size="14" lengthAdjust="spacing" textLength="167" x="569.25" y="230.7969">CreateEmployeeController</text><line style="stroke:#181818;stroke-width:0.5;" x1="245.5" x2="1027.5" y1="241" y2="241"/><text fill="#000000" font-family="sans-serif" font-size="14" lengthAdjust="spacing" textLength="134" x="250.5" y="260.1074">-employeeRepository</text><text fill="#000000" font-family="sans-serif" font-size="14" lengthAdjust="spacing" textLength="96" x="250.5" y="278.7285">-skillRepository</text><line style="stroke:#181818;stroke-width:0.5;" x1="245.5" x2="1027.5" y1="286.2422" y2="286.2422"/><text fill="#000000" font-family="sans-serif" font-size="14" lengthAdjust="spacing" textLength="471" x="250.5" y="305.3496">+CreateSkillController(employeeRepository, jobRepository, skillRepository)</text><text fill="#000000" font-family="sans-serif" font-size="14" lengthAdjust="spacing" textLength="772" x="250.5" y="323.9707">+CreateEmployee(name, birthDate, admissionDate, adress, email, mobile, idDocType, docTypeNr, taxPayerIdNr, skills, job)</text></g><!--class CreteAssignSkillsToEmployeeUI--><g id="elem_CreteAssignSkillsToEmployeeUI"><rect codeLine="21" fill="#F1F1F1" height="141.1055" id="CreteAssignSkillsToEmployeeUI" rx="2.5" ry="2.5" style="stroke:#181818;stroke-width:0.5;" width="232" x="520.5" y="7"/><ellipse cx="535.5" cy="23" fill="#ADD1B2" rx="11" ry="11" style="stroke:#181818;stroke-width:1.0;"/><path d="M538.2656,18.875 Q538.4219,18.6563 538.6094,18.5469 Q538.7969,18.4375 539.0156,18.4375 Q539.3906,18.4375 539.625,18.7031 Q539.8594,18.9531 539.8594,19.5625 L539.8594,21.0156 Q539.8594,21.625 539.625,21.8906 Q539.3906,22.1563 539.0156,22.1563 Q538.6719,22.1563 538.4688,21.9531 Q538.2656,21.7656 538.1563,21.25 Q538.1094,20.8906 537.9219,20.7031 Q537.5938,20.3281 536.9844,20.1094 Q536.375,19.8906 535.75,19.8906 Q534.9844,19.8906 534.3438,20.2188 Q533.7188,20.5469 533.2188,21.2969 Q532.7344,22.0469 532.7344,23.0781 L532.7344,24.1719 Q532.7344,25.4063 533.625,26.2344 Q534.5156,27.0469 536.1094,27.0469 Q537.0469,27.0469 537.7031,26.7969 Q538.0938,26.6406 538.5156,26.2031 Q538.7813,25.9375 538.9219,25.8594 Q539.0781,25.7813 539.2813,25.7813 Q539.6094,25.7813 539.8594,26.0469 Q540.125,26.2969 540.125,26.6406 Q540.125,26.9844 539.7813,27.3906 Q539.2813,27.9688 538.4844,28.2969 Q537.4063,28.75 536.1094,28.75 Q534.5938,28.75 533.3906,28.125 Q532.4063,27.625 531.7188,26.5625 Q531.0313,25.4844 531.0313,24.2031 L531.0313,23.0469 Q531.0313,21.7188 531.6406,20.5781 Q532.2656,19.4219 533.3594,18.8125 Q534.4531,18.1875 535.6875,18.1875 Q536.4219,18.1875 537.0625,18.3594 Q537.7188,18.5156 538.2656,18.875 Z " fill="#000000"/><text fill="#000000" font-family="sans-serif" font-size="14" lengthAdjust="spacing" textLength="200" x="549.5" y="28.7969">CreteAssignSkillsToEmployeeUI</text><line style="stroke:#181818;stroke-width:0.5;" x1="521.5" x2="751.5" y1="39" y2="39"/><line style="stroke:#181818;stroke-width:0.5;" x1="521.5" x2="751.5" y1="47" y2="47"/><text fill="#000000" font-family="sans-serif" font-size="14" lengthAdjust="spacing" textLength="39" x="526.5" y="66.1074">+run()</text><text fill="#000000" font-family="sans-serif" font-size="14" lengthAdjust="spacing" textLength="96" x="526.5" y="84.7285">+requestData()</text><text fill="#000000" font-family="sans-serif" font-size="14" lengthAdjust="spacing" textLength="89" x="526.5" y="103.3496">+submitData()</text><text fill="#000000" font-family="sans-serif" font-size="14" lengthAdjust="spacing" textLength="172" x="526.5" y="121.9707">+requestListOfEmployees()</text><text fill="#000000" font-family="sans-serif" font-size="14" lengthAdjust="spacing" textLength="135" x="526.5" y="140.5918">+requestListOfSkills()</text></g><!--class Repositories--><g id="elem_Repositories"><rect codeLine="30" fill="#F1F1F1" height="103.8633" id="Repositories" rx="2.5" ry="2.5" style="stroke:#181818;stroke-width:0.5;" width="187" x="7" y="493.5"/><ellipse cx="56.75" cy="509.5" fill="#ADD1B2" rx="11" ry="11" style="stroke:#181818;stroke-width:1.0;"/><path d="M59.5156,505.375 Q59.6719,505.1563 59.8594,505.0469 Q60.0469,504.9375 60.2656,504.9375 Q60.6406,504.9375 60.875,505.2031 Q61.1094,505.4531 61.1094,506.0625 L61.1094,507.5156 Q61.1094,508.125 60.875,508.3906 Q60.6406,508.6563 60.2656,508.6563 Q59.9219,508.6563 59.7188,508.4531 Q59.5156,508.2656 59.4063,507.75 Q59.3594,507.3906 59.1719,507.2031 Q58.8438,506.8281 58.2344,506.6094 Q57.625,506.3906 57,506.3906 Q56.2344,506.3906 55.5938,506.7188 Q54.9688,507.0469 54.4688,507.7969 Q53.9844,508.5469 53.9844,509.5781 L53.9844,510.6719 Q53.9844,511.9063 54.875,512.7344 Q55.7656,513.5469 57.3594,513.5469 Q58.2969,513.5469 58.9531,513.2969 Q59.3438,513.1406 59.7656,512.7031 Q60.0313,512.4375 60.1719,512.3594 Q60.3281,512.2813 60.5313,512.2813 Q60.8594,512.2813 61.1094,512.5469 Q61.375,512.7969 61.375,513.1406 Q61.375,513.4844 61.0313,513.8906 Q60.5313,514.4688 59.7344,514.7969 Q58.6563,515.25 57.3594,515.25 Q55.8438,515.25 54.6406,514.625 Q53.6563,514.125 52.9688,513.0625 Q52.2813,511.9844 52.2813,510.7031 L52.2813,509.5469 Q52.2813,508.2188 52.8906,507.0781 Q53.5156,505.9219 54.6094,505.3125 Q55.7031,504.6875 56.9375,504.6875 Q57.6719,504.6875 58.3125,504.8594 Q58.9688,505.0156 59.5156,505.375 Z " fill="#000000"/><text fill="#000000" font-family="sans-serif" font-size="14" lengthAdjust="spacing" textLength="79" x="77.25" y="515.2969">Repositories</text><line style="stroke:#181818;stroke-width:0.5;" x1="8" x2="193" y1="525.5" y2="525.5"/><line style="stroke:#181818;stroke-width:0.5;" x1="8" x2="193" y1="533.5" y2="533.5"/><text fill="#000000" font-family="sans-serif" font-size="14" lengthAdjust="spacing" textLength="94" x="13" y="552.6074">-Repositories()</text><text fill="#000000" font-family="sans-serif" font-size="14" lengthAdjust="spacing" textLength="175" x="13" y="571.2285">+getIntance() : Repositories</text><text fill="#000000" font-family="sans-serif" font-size="14" lengthAdjust="spacing" textLength="131" x="13" y="589.8496">+getSkillRepository()</text></g><!--class Employee--><g id="elem_Employee"><rect codeLine="36" fill="#F1F1F1" height="271.4531" id="Employee" rx="2.5" ry="2.5" style="stroke:#181818;stroke-width:0.5;" width="733" x="753" y="410"/><ellipse cx="1084.25" cy="426" fill="#ADD1B2" rx="11" ry="11" style="stroke:#181818;stroke-width:1.0;"/><path d="M1087.0156,421.875 Q1087.1719,421.6563 1087.3594,421.5469 Q1087.5469,421.4375 1087.7656,421.4375 Q1088.1406,421.4375 1088.375,421.7031 Q1088.6094,421.9531 1088.6094,422.5625 L1088.6094,424.0156 Q1088.6094,424.625 1088.375,424.8906 Q1088.1406,425.1563 1087.7656,425.1563 Q1087.4219,425.1563 1087.2188,424.9531 Q1087.0156,424.7656 1086.9063,424.25 Q1086.8594,423.8906 1086.6719,423.7031 Q1086.3438,423.3281 1085.7344,423.1094 Q1085.125,422.8906 1084.5,422.8906 Q1083.7344,422.8906 1083.0938,423.2188 Q1082.4688,423.5469 1081.9688,424.2969 Q1081.4844,425.0469 1081.4844,426.0781 L1081.4844,427.1719 Q1081.4844,428.4063 1082.375,429.2344 Q1083.2656,430.0469 1084.8594,430.0469 Q1085.7969,430.0469 1086.4531,429.7969 Q1086.8438,429.6406 1087.2656,429.2031 Q1087.5313,428.9375 1087.6719,428.8594 Q1087.8281,428.7813 1088.0313,428.7813 Q1088.3594,428.7813 1088.6094,429.0469 Q1088.875,429.2969 1088.875,429.6406 Q1088.875,429.9844 1088.5313,430.3906 Q1088.0313,430.9688 1087.2344,431.2969 Q1086.1563,431.75 1084.8594,431.75 Q1083.3438,431.75 1082.1406,431.125 Q1081.1563,430.625 1080.4688,429.5625 Q1079.7813,428.4844 1079.7813,427.2031 L1079.7813,426.0469 Q1079.7813,424.7188 1080.3906,423.5781 Q1081.0156,422.4219 1082.1094,421.8125 Q1083.2031,421.1875 1084.4375,421.1875 Q1085.1719,421.1875 1085.8125,421.3594 Q1086.4688,421.5156 1087.0156,421.875 Z " fill="#000000"/><text fill="#000000" font-family="sans-serif" font-size="14" lengthAdjust="spacing" textLength="62" x="1104.75" y="431.7969">Employee</text><line style="stroke:#181818;stroke-width:0.5;" x1="754" x2="1485" y1="442" y2="442"/><text fill="#000000" font-family="sans-serif" font-size="14" lengthAdjust="spacing" textLength="81" x="759" y="461.1074">-String name</text><text fill="#000000" font-family="sans-serif" font-size="14" lengthAdjust="spacing" textLength="131" x="759" y="479.7285">-LocalDate birthDate</text><text fill="#000000" font-family="sans-serif" font-size="14" lengthAdjust="spacing" textLength="166" x="759" y="498.3496">-LocalDate admissionDate</text><text fill="#000000" font-family="sans-serif" font-size="14" lengthAdjust="spacing" textLength="89" x="759" y="516.9707">-String adress</text><text fill="#000000" font-family="sans-serif" font-size="14" lengthAdjust="spacing" textLength="79" x="759" y="535.5918">-String email</text><text fill="#000000" font-family="sans-serif" font-size="14" lengthAdjust="spacing" textLength="94" x="759" y="554.2129">-Integer mobile</text><text fill="#000000" font-family="sans-serif" font-size="14" lengthAdjust="spacing" textLength="96" x="759" y="572.834">-String IdDocNr</text><text fill="#000000" font-family="sans-serif" font-size="14" lengthAdjust="spacing" textLength="93" x="759" y="591.4551">-int docTypeNr</text><text fill="#000000" font-family="sans-serif" font-size="14" lengthAdjust="spacing" textLength="104" x="759" y="610.0762">-int taxPayerIdNr</text><text fill="#000000" font-family="sans-serif" font-size="14" lengthAdjust="spacing" textLength="64" x="759" y="628.6973">-Skill skills</text><text fill="#000000" font-family="sans-serif" font-size="14" lengthAdjust="spacing" textLength="50" x="759" y="647.3184">-Job job</text><line style="stroke:#181818;stroke-width:0.5;" x1="754" x2="1485" y1="654.832" y2="654.832"/><text fill="#000000" font-family="sans-serif" font-size="14" lengthAdjust="spacing" textLength="721" x="759" y="673.9395">Employee(name, birthDate, admissionDate, adress, email, mobile, idDocType, docTypeNr, taxPayerIdNr, skills, job)</text></g><!--class SkillRepository--><g id="elem_SkillRepository"><rect codeLine="52" fill="#F1F1F1" height="66.6211" id="SkillRepository" rx="2.5" ry="2.5" style="stroke:#181818;stroke-width:0.5;" width="125" x="395" y="512"/><ellipse cx="410" cy="528" fill="#ADD1B2" rx="11" ry="11" style="stroke:#181818;stroke-width:1.0;"/><path d="M412.7656,523.875 Q412.9219,523.6563 413.1094,523.5469 Q413.2969,523.4375 413.5156,523.4375 Q413.8906,523.4375 414.125,523.7031 Q414.3594,523.9531 414.3594,524.5625 L414.3594,526.0156 Q414.3594,526.625 414.125,526.8906 Q413.8906,527.1563 413.5156,527.1563 Q413.1719,527.1563 412.9688,526.9531 Q412.7656,526.7656 412.6563,526.25 Q412.6094,525.8906 412.4219,525.7031 Q412.0938,525.3281 411.4844,525.1094 Q410.875,524.8906 410.25,524.8906 Q409.4844,524.8906 408.8438,525.2188 Q408.2188,525.5469 407.7188,526.2969 Q407.2344,527.0469 407.2344,528.0781 L407.2344,529.1719 Q407.2344,530.4063 408.125,531.2344 Q409.0156,532.0469 410.6094,532.0469 Q411.5469,532.0469 412.2031,531.7969 Q412.5938,531.6406 413.0156,531.2031 Q413.2813,530.9375 413.4219,530.8594 Q413.5781,530.7813 413.7813,530.7813 Q414.1094,530.7813 414.3594,531.0469 Q414.625,531.2969 414.625,531.6406 Q414.625,531.9844 414.2813,532.3906 Q413.7813,532.9688 412.9844,533.2969 Q411.9063,533.75 410.6094,533.75 Q409.0938,533.75 407.8906,533.125 Q406.9063,532.625 406.2188,531.5625 Q405.5313,530.4844 405.5313,529.2031 L405.5313,528.0469 Q405.5313,526.7188 406.1406,525.5781 Q406.7656,524.4219 407.8594,523.8125 Q408.9531,523.1875 410.1875,523.1875 Q410.9219,523.1875 411.5625,523.3594 Q412.2188,523.5156 412.7656,523.875 Z " fill="#000000"/><text fill="#000000" font-family="sans-serif" font-size="14" lengthAdjust="spacing" textLength="93" x="424" y="533.7969">SkillRepository</text><line style="stroke:#181818;stroke-width:0.5;" x1="396" x2="519" y1="544" y2="544"/><line style="stroke:#181818;stroke-width:0.5;" x1="396" x2="519" y1="552" y2="552"/><text fill="#000000" font-family="sans-serif" font-size="14" lengthAdjust="spacing" textLength="85" x="401" y="571.1074">+getAllSkills()</text></g><!--class EmployeeRepository--><g id="elem_EmployeeRepository"><rect codeLine="57" fill="#F1F1F1" height="66.6211" id="EmployeeRepository" rx="2.5" ry="2.5" style="stroke:#181818;stroke-width:0.5;" width="162" x="555.5" y="512"/><ellipse cx="570.5" cy="528" fill="#ADD1B2" rx="11" ry="11" style="stroke:#181818;stroke-width:1.0;"/><path d="M573.2656,523.875 Q573.4219,523.6563 573.6094,523.5469 Q573.7969,523.4375 574.0156,523.4375 Q574.3906,523.4375 574.625,523.7031 Q574.8594,523.9531 574.8594,524.5625 L574.8594,526.0156 Q574.8594,526.625 574.625,526.8906 Q574.3906,527.1563 574.0156,527.1563 Q573.6719,527.1563 573.4688,526.9531 Q573.2656,526.7656 573.1563,526.25 Q573.1094,525.8906 572.9219,525.7031 Q572.5938,525.3281 571.9844,525.1094 Q571.375,524.8906 570.75,524.8906 Q569.9844,524.8906 569.3438,525.2188 Q568.7188,525.5469 568.2188,526.2969 Q567.7344,527.0469 567.7344,528.0781 L567.7344,529.1719 Q567.7344,530.4063 568.625,531.2344 Q569.5156,532.0469 571.1094,532.0469 Q572.0469,532.0469 572.7031,531.7969 Q573.0938,531.6406 573.5156,531.2031 Q573.7813,530.9375 573.9219,530.8594 Q574.0781,530.7813 574.2813,530.7813 Q574.6094,530.7813 574.8594,531.0469 Q575.125,531.2969 575.125,531.6406 Q575.125,531.9844 574.7813,532.3906 Q574.2813,532.9688 573.4844,533.2969 Q572.4063,533.75 571.1094,533.75 Q569.5938,533.75 568.3906,533.125 Q567.4063,532.625 566.7188,531.5625 Q566.0313,530.4844 566.0313,529.2031 L566.0313,528.0469 Q566.0313,526.7188 566.6406,525.5781 Q567.2656,524.4219 568.3594,523.8125 Q569.4531,523.1875 570.6875,523.1875 Q571.4219,523.1875 572.0625,523.3594 Q572.7188,523.5156 573.2656,523.875 Z " fill="#000000"/><text fill="#000000" font-family="sans-serif" font-size="14" lengthAdjust="spacing" textLength="130" x="584.5" y="533.7969">EmployeeRepository</text><line style="stroke:#181818;stroke-width:0.5;" x1="556.5" x2="716.5" y1="544" y2="544"/><line style="stroke:#181818;stroke-width:0.5;" x1="556.5" x2="716.5" y1="552" y2="552"/><text fill="#000000" font-family="sans-serif" font-size="14" lengthAdjust="spacing" textLength="107" x="561.5" y="571.1074">+getEmployees()</text></g><!--link CreteAssignSkillsToEmployeeUI to CreateEmployeeController--><g id="link_CreteAssignSkillsToEmployeeUI_CreateEmployeeController"><path codeLine="63" d="M636.5,148.08 C636.5,167.96 636.5,183.45 636.5,202.72 " fill="none" id="CreteAssignSkillsToEmployeeUI-to-CreateEmployeeController" style="stroke:#181818;stroke-width:1.0;stroke-dasharray:7.0,7.0;"/><polygon fill="#181818" points="636.5,208.72,640.5,199.72,636.5,203.72,632.5,199.72,636.5,208.72" style="stroke:#181818;stroke-width:1.0;"/><text fill="#000000" font-family="sans-serif" font-size="13" lengthAdjust="spacing" textLength="7" x="629.1391" y="170.273">1</text><text fill="#000000" font-family="sans-serif" font-size="13" lengthAdjust="spacing" textLength="7" x="629.0953" y="197.6688">1</text></g><!--link CreateEmployeeController to Repositories--><g id="link_CreateEmployeeController_Repositories"><path codeLine="65" d="M404.38,331.03 C340.54,347.54 288.5,361 288.5,361 C288.5,361 212.7937,434.899 157.1637,489.199 " fill="none" id="CreateEmployeeController-to-Repositories" style="stroke:#181818;stroke-width:1.0;stroke-dasharray:7.0,7.0;"/><polygon fill="#181818" points="152.87,493.39,162.1045,489.9659,156.448,489.8975,156.5165,484.2411,152.87,493.39" style="stroke:#181818;stroke-width:1.0;"/><text fill="#000000" font-family="sans-serif" font-size="13" lengthAdjust="spacing" textLength="72" x="289.5" y="376.0283">Repositories</text></g><!--link Repositories to Repositories--><g id="link_Repositories_Repositories"><path codeLine="66" d="M194.06,513.84 C214.31,516.93 229,527.49 229,545.5 C229,563.51 220.2413,573.1649 199.9913,576.2549 " fill="none" id="Repositories-to-Repositories" style="stroke:#181818;stroke-width:1.0;"/><polygon fill="#181818" points="194.06,577.16,203.5604,579.7566,199.0028,576.4058,202.3536,571.8482,194.06,577.16" style="stroke:#181818;stroke-width:1.0;"/><text fill="#000000" font-family="sans-serif" font-size="13" lengthAdjust="spacing" textLength="49" x="235" y="551.0283">instance</text></g><!--link Repositories to EmployeeRepository--><g id="link_Repositories_EmployeeRepository"><path codeLine="67" d="M191.16,493.29 C269.6,448.11 370.5,390 370.5,390 C370.5,390 492.5,390 492.5,390 C492.5,390 537.5,410 537.5,410 C537.5,410 578.9109,466.6749 608.2309,506.8149 " fill="none" id="Repositories-to-EmployeeRepository" style="stroke:#181818;stroke-width:1.0;"/><polygon fill="#181818" points="611.77,511.66,609.6915,502.033,608.8208,507.6224,603.2313,506.7517,611.77,511.66" style="stroke:#181818;stroke-width:1.0;"/><text fill="#000000" font-family="sans-serif" font-size="13" lengthAdjust="spacing" textLength="120" x="371.5" y="376.0283">EmployeeRepository</text><text fill="#000000" font-family="sans-serif" font-size="13" lengthAdjust="spacing" textLength="7" x="195.8721" y="482.1892">1</text><text fill="#000000" font-family="sans-serif" font-size="13" lengthAdjust="spacing" textLength="7" x="599.3887" y="500.6811">1</text></g><!--link Repositories to SkillRepository--><g id="link_Repositories_SkillRepository"><path codeLine="68" d="M194.3,545.5 C257.62,545.5 333.45,545.5 388.94,545.5 " fill="none" id="Repositories-to-SkillRepository" style="stroke:#181818;stroke-width:1.0;"/><polygon fill="#181818" points="394.94,545.5,385.94,541.5,389.94,545.5,385.94,549.5,394.94,545.5" style="stroke:#181818;stroke-width:1.0;"/><text fill="#000000" font-family="sans-serif" font-size="13" lengthAdjust="spacing" textLength="85" x="252" y="538.5283">skillRepository</text><text fill="#000000" font-family="sans-serif" font-size="13" lengthAdjust="spacing" textLength="7" x="202.0536" y="541.868">1</text><text fill="#000000" font-family="sans-serif" font-size="13" lengthAdjust="spacing" textLength="7" x="379.8889" y="541.5332">1</text></g><!--link CreateEmployeeController to Employee--><g id="link_CreateEmployeeController_Employee"><path codeLine="72" d="M742.5,331.02 C783.73,354.37 827.5387,379.184 876.3787,406.834 " fill="none" id="CreateEmployeeController-to-Employee" style="stroke:#181818;stroke-width:1.0;stroke-dasharray:7.0,7.0;"/><polygon fill="#181818" points="881.6,409.79,875.7387,401.8752,877.2489,407.3267,871.7974,408.8369,881.6,409.79" style="stroke:#181818;stroke-width:1.0;"/><text fill="#000000" font-family="sans-serif" font-size="13" lengthAdjust="spacing" textLength="118" x="822.5" y="376.0283">addSkillToEmployee</text></g><!--link CreateEmployeeController to EmployeeRepository--><g id="link_CreateEmployeeController_EmployeeRepository"><path codeLine="74" d="M636.5,331.02 C636.5,386.69 636.5,461.43 636.5,505.96 " fill="none" id="CreateEmployeeController-to-EmployeeRepository" style="stroke:#181818;stroke-width:1.0;stroke-dasharray:7.0,7.0;"/><polygon fill="#181818" points="636.5,511.96,640.5,502.96,636.5,506.96,632.5,502.96,636.5,511.96" style="stroke:#181818;stroke-width:1.0;"/><text fill="#000000" font-family="sans-serif" font-size="13" lengthAdjust="spacing" textLength="145" x="637.5" y="376.0283">addEmployeesWithSkills</text></g><!--SRC=[lLHDZzCm4BtxLupsqbPDLt3j0QdQtKFHQa5q4MSdcQPc7JlOKq50_7SSssdYj6KvuKlYDz_pNZApBq8rtF0QQgrqSJ2wHY1pH3PO6bwyy0ftr4e4WmLnLScnWptmKdyNge8zbtPiaK8XjGr2esNRNTZiWb4RqcmKLKXkxOR8YFn8k2sqsecV26yOcqdS4v068we3GIcwTeHMZFaOk3F82H_gHkeMyKuhCbfADEmN0tTM62sViD5Ma3Pjm5rjAIVWCYJRTQOXq_myHGPVTJw-Jh8jnkdwtkQArvX1BWmTxXsU0IzhOQqRfhyQj3O3hBcGcQCd5zB1ehpNnRFRMWPbU7ao6H3_yP6tQBPbT_FrhMzhmHZxFTeEuSRLg9IVoZxhlftFM_0hMfgZcY_26tuxeYNN3O-8FUQr60FHvL5O-h3lKzbBnb3FMLmpiPlJWWJQKDoVLM88kVnPGeMqLKvz1SuNi4xyKgzTIe1Bukg6gdsNKH2mSofpmktOYCYZBhZiE1Z8ERCaNAMP0cyfvZcCa9i0ApIHqDHlsv7xP28e50qSZx0nsNryDt3aFKBlTTu9WFdhVrVTINCJAiBQFKaRAI-euk7iytBQ68B68kkY_YxfcxStS7lxpZ-l_XhODOiFJLGwqLnYMvtv2cMzM5E_hfTLQEd2hEiBuDNuoMvTyFG_nbwPheVNZlZIfnlszu-XGpMVv4JG5q67G0dx0m00]--></g></svg>