<?xml version="1.0" encoding="us-ascii" standalone="no"?><svg xmlns="http://www.w3.org/2000/svg" xmlns:xlink="http://www.w3.org/1999/xlink" contentStyleType="text/css" height="938.7px" preserveAspectRatio="none" style="width:881px;height:938px;background:#FFFFFF;" version="1.1" viewBox="0 0 881 938" width="882px" zoomAndPan="magnify"><defs/><g><rect fill="#FFFFFF" height="802.5336" style="stroke:#181818;stroke-width:0.6999999999999998;" width="7" x="71.75" y="65.5348"/><rect fill="#FFFFFF" height="103.9186" style="stroke:#181818;stroke-width:0.6999999999999998;" width="7" x="218.75" y="65.5348"/><rect fill="#FFFFFF" height="295.2482" style="stroke:#181818;stroke-width:0.6999999999999998;" width="7" x="218.75" y="300.8756"/><rect fill="#FFFFFF" height="197.1334" style="stroke:#181818;stroke-width:0.6999999999999998;" width="7" x="218.75" y="670.935"/><rect fill="#FFFFFF" height="262.8445" style="stroke:#181818;stroke-width:0.6999999999999998;" width="7" x="374.15" y="81.8385"/><rect fill="#FFFFFF" height="479.5779" style="stroke:#181818;stroke-width:0.6999999999999998;" width="7" x="374.15" y="366.5867"/><rect fill="#FFFFFF" height="43.8074" style="stroke:#181818;stroke-width:0.6999999999999998;" width="7" x="480.9" y="103.7422"/><rect fill="#FFFFFF" height="87.6148" style="stroke:#181818;stroke-width:0.6999999999999998;" width="7" x="555.8" y="169.4533"/><rect fill="#FFFFFF" height="43.8074" style="stroke:#181818;stroke-width:0.6999999999999998;" width="7" x="648.2" y="257.0682"/><rect fill="#FFFFFF" height="65.7111" style="stroke:#181818;stroke-width:0.6999999999999998;" width="7" x="648.2" y="736.6461"/><rect fill="#FFFFFF" height="43.8074" style="stroke:#181818;stroke-width:0.6999999999999998;" width="7" x="744.8" y="388.4904"/><rect fill="#FFFFFF" height="96.7148" style="stroke:#181818;stroke-width:0.6999999999999998;" width="7" x="817.95" y="574.2201"/><rect fill="none" height="88.3148" style="stroke:#000000;stroke-width:1.0499999999999998;" width="279.65" x="7" y="464.7016"/><line style="stroke:#181818;stroke-width:0.3499999999999999;stroke-dasharray:5.0,5.0;" x1="74.9" x2="74.9" y1="58.5348" y2="880.6684"/><line style="stroke:#181818;stroke-width:0.3499999999999999;stroke-dasharray:5.0,5.0;" x1="222.25" x2="222.25" y1="58.5348" y2="880.6684"/><line style="stroke:#181818;stroke-width:0.3499999999999999;stroke-dasharray:5.0,5.0;" x1="377.65" x2="377.65" y1="58.5348" y2="880.6684"/><line style="stroke:#181818;stroke-width:0.3499999999999999;stroke-dasharray:5.0,5.0;" x1="484.05" x2="484.05" y1="58.5348" y2="880.6684"/><line style="stroke:#181818;stroke-width:0.3499999999999999;stroke-dasharray:5.0,5.0;" x1="558.95" x2="558.95" y1="58.5348" y2="880.6684"/><line style="stroke:#181818;stroke-width:0.3499999999999999;stroke-dasharray:5.0,5.0;" x1="651.35" x2="651.35" y1="58.5348" y2="880.6684"/><line style="stroke:#181818;stroke-width:0.3499999999999999;stroke-dasharray:5.0,5.0;" x1="747.95" x2="747.95" y1="58.5348" y2="880.6684"/><line style="stroke:#181818;stroke-width:0.3499999999999999;stroke-dasharray:5.0,5.0;" x1="821.45" x2="821.45" y1="58.5348" y2="880.6684"/><text fill="#000000" font-family="sans-serif" font-size="9.8" lengthAdjust="spacing" textLength="118.3" x="14" y="56.0752">Human Resource Manager</text><ellipse cx="75.25" cy="9.45" fill="#E3E3E3" rx="5.6" ry="5.6" style="stroke:#181818;stroke-width:0.3499999999999999;"/><path d="M75.25,15.05 L75.25,33.95 M66.15,20.65 L84.35,20.65 M75.25,33.95 L66.15,44.45 M75.25,33.95 L84.35,44.45 " fill="none" style="stroke:#181818;stroke-width:0.3499999999999999;"/><text fill="#000000" font-family="sans-serif" font-size="9.8" lengthAdjust="spacing" textLength="118.3" x="14" y="890.5436">Human Resource Manager</text><ellipse cx="75.25" cy="898.9531" fill="#E3E3E3" rx="5.6" ry="5.6" style="stroke:#181818;stroke-width:0.3499999999999999;"/><path d="M75.25,904.5531 L75.25,923.4531 M66.15,910.1531 L84.35,910.1531 M75.25,923.4531 L66.15,933.9531 M75.25,923.4531 L84.35,933.9531 " fill="none" style="stroke:#181818;stroke-width:0.3499999999999999;"/><rect fill="#E3E3E3" height="22.8348" rx="1.75" ry="1.75" style="stroke:#181818;stroke-width:0.3499999999999999;" width="96.6" x="173.95" y="35"/><text fill="#000000" font-family="sans-serif" font-size="9.8" lengthAdjust="spacing" textLength="86.8" x="178.85" y="50.4752">:CreateEmployeelUI</text><rect fill="#E3E3E3" height="22.8348" rx="1.75" ry="1.75" style="stroke:#181818;stroke-width:0.3499999999999999;" width="96.6" x="173.95" y="879.9684"/><text fill="#000000" font-family="sans-serif" font-size="9.8" lengthAdjust="spacing" textLength="86.8" x="178.85" y="895.4436">:CreateEmployeelUI</text><rect fill="#E3E3E3" height="22.8348" rx="1.75" ry="1.75" style="stroke:#181818;stroke-width:0.3499999999999999;" width="131.6" x="311.85" y="35"/><text fill="#000000" font-family="sans-serif" font-size="9.8" lengthAdjust="spacing" textLength="121.8" x="316.75" y="50.4752">:CreateEmployeelController</text><rect fill="#E3E3E3" height="22.8348" rx="1.75" ry="1.75" style="stroke:#181818;stroke-width:0.3499999999999999;" width="131.6" x="311.85" y="879.9684"/><text fill="#000000" font-family="sans-serif" font-size="9.8" lengthAdjust="spacing" textLength="121.8" x="316.75" y="895.4436">:CreateEmployeelController</text><rect fill="#E3E3E3" height="22.8348" rx="1.75" ry="1.75" style="stroke:#181818;stroke-width:0.3499999999999999;" width="67.9" x="450.45" y="35"/><text fill="#000000" font-family="sans-serif" font-size="9.8" lengthAdjust="spacing" textLength="58.1" x="455.35" y="50.4752">:Repositories</text><rect fill="#E3E3E3" height="22.8348" rx="1.75" ry="1.75" style="stroke:#181818;stroke-width:0.3499999999999999;" width="67.9" x="450.45" y="879.9684"/><text fill="#000000" font-family="sans-serif" font-size="9.8" lengthAdjust="spacing" textLength="58.1" x="455.35" y="895.4436">:Repositories</text><rect fill="#E3E3E3" height="35.8695" rx="1.75" ry="1.75" style="stroke:#181818;stroke-width:0.3499999999999999;" width="67.9" x="525.35" y="21.9652"/><text fill="#000000" font-family="sans-serif" font-size="9.8" lengthAdjust="spacing" textLength="51.8" x="533.4" y="37.4404">repositories</text><text fill="#000000" font-family="sans-serif" font-size="9.8" lengthAdjust="spacing" textLength="58.1" x="530.25" y="50.4752">:Repositories</text><rect fill="#E3E3E3" height="35.8695" rx="1.75" ry="1.75" style="stroke:#181818;stroke-width:0.3499999999999999;" width="67.9" x="525.35" y="879.9684"/><text fill="#000000" font-family="sans-serif" font-size="9.8" lengthAdjust="spacing" textLength="51.8" x="533.4" y="895.4436">repositories</text><text fill="#000000" font-family="sans-serif" font-size="9.8" lengthAdjust="spacing" textLength="58.1" x="530.25" y="908.4783">:Repositories</text><rect fill="#E3E3E3" height="35.8695" rx="1.75" ry="1.75" style="stroke:#181818;stroke-width:0.3499999999999999;" width="102.9" x="600.25" y="21.9652"/><text fill="#000000" font-family="sans-serif" font-size="9.8" lengthAdjust="spacing" textLength="93.1" x="605.15" y="37.4404">employeeRepository:</text><text fill="#000000" font-family="sans-serif" font-size="9.8" lengthAdjust="spacing" textLength="91" x="606.2" y="50.4752">EmployeeRepository</text><rect fill="#E3E3E3" height="35.8695" rx="1.75" ry="1.75" style="stroke:#181818;stroke-width:0.3499999999999999;" width="102.9" x="600.25" y="879.9684"/><text fill="#000000" font-family="sans-serif" font-size="9.8" lengthAdjust="spacing" textLength="93.1" x="605.15" y="895.4436">employeeRepository:</text><text fill="#000000" font-family="sans-serif" font-size="9.8" lengthAdjust="spacing" textLength="91" x="606.2" y="908.4783">EmployeeRepository</text><rect fill="#E3E3E3" height="35.8695" rx="1.75" ry="1.75" style="stroke:#181818;stroke-width:0.3499999999999999;" width="76.3" x="710.15" y="21.9652"/><text fill="#000000" font-family="sans-serif" font-size="9.8" lengthAdjust="spacing" textLength="66.5" x="715.05" y="37.4404">skillRepository:</text><text fill="#000000" font-family="sans-serif" font-size="9.8" lengthAdjust="spacing" textLength="63" x="716.8" y="50.4752">JobRepository</text><rect fill="#E3E3E3" height="35.8695" rx="1.75" ry="1.75" style="stroke:#181818;stroke-width:0.3499999999999999;" width="76.3" x="710.15" y="879.9684"/><text fill="#000000" font-family="sans-serif" font-size="9.8" lengthAdjust="spacing" textLength="66.5" x="715.05" y="895.4436">skillRepository:</text><text fill="#000000" font-family="sans-serif" font-size="9.8" lengthAdjust="spacing" textLength="63" x="716.8" y="908.4783">JobRepository</text><rect fill="#E3E3E3" height="22.8348" rx="1.75" ry="1.75" style="stroke:#181818;stroke-width:0.3499999999999999;" width="56" x="793.45" y="35"/><text fill="#000000" font-family="sans-serif" font-size="9.8" lengthAdjust="spacing" textLength="46.2" x="798.35" y="50.4752">:Employee</text><rect fill="#E3E3E3" height="22.8348" rx="1.75" ry="1.75" style="stroke:#181818;stroke-width:0.3499999999999999;" width="56" x="793.45" y="879.9684"/><text fill="#000000" font-family="sans-serif" font-size="9.8" lengthAdjust="spacing" textLength="46.2" x="798.35" y="895.4436">:Employee</text><rect fill="#FFFFFF" height="802.5336" style="stroke:#181818;stroke-width:0.6999999999999998;" width="7" x="71.75" y="65.5348"/><rect fill="#FFFFFF" height="103.9186" style="stroke:#181818;stroke-width:0.6999999999999998;" width="7" x="218.75" y="65.5348"/><rect fill="#FFFFFF" height="295.2482" style="stroke:#181818;stroke-width:0.6999999999999998;" width="7" x="218.75" y="300.8756"/><rect fill="#FFFFFF" height="197.1334" style="stroke:#181818;stroke-width:0.6999999999999998;" width="7" x="218.75" y="670.935"/><rect fill="#FFFFFF" height="262.8445" style="stroke:#181818;stroke-width:0.6999999999999998;" width="7" x="374.15" y="81.8385"/><rect fill="#FFFFFF" height="479.5779" style="stroke:#181818;stroke-width:0.6999999999999998;" width="7" x="374.15" y="366.5867"/><rect fill="#FFFFFF" height="43.8074" style="stroke:#181818;stroke-width:0.6999999999999998;" width="7" x="480.9" y="103.7422"/><rect fill="#FFFFFF" height="87.6148" style="stroke:#181818;stroke-width:0.6999999999999998;" width="7" x="555.8" y="169.4533"/><rect fill="#FFFFFF" height="43.8074" style="stroke:#181818;stroke-width:0.6999999999999998;" width="7" x="648.2" y="257.0682"/><rect fill="#FFFFFF" height="65.7111" style="stroke:#181818;stroke-width:0.6999999999999998;" width="7" x="648.2" y="736.6461"/><rect fill="#FFFFFF" height="43.8074" style="stroke:#181818;stroke-width:0.6999999999999998;" width="7" x="744.8" y="388.4904"/><rect fill="#FFFFFF" height="96.7148" style="stroke:#181818;stroke-width:0.6999999999999998;" width="7" x="817.95" y="574.2201"/><polygon fill="#181818" points="210.35,79.0385,217.35,81.8385,210.35,84.6385,213.15,81.8385" style="stroke:#181818;stroke-width:0.6999999999999998;"/><line style="stroke:#181818;stroke-width:0.6999999999999998;" x1="78.75" x2="214.55" y1="81.8385" y2="81.8385"/><text fill="#000000" font-family="sans-serif" font-size="9.1" font-weight="bold" lengthAdjust="spacing" textLength="4.9" x="83.65" y="78.1546">1</text><text fill="#000000" font-family="sans-serif" font-size="9.1" lengthAdjust="spacing" textLength="75.6" x="91.35" y="78.1546">ask for list of skills</text><polygon fill="#181818" points="365.75,100.9422,372.75,103.7422,365.75,106.5422,368.55,103.7422" style="stroke:#181818;stroke-width:0.6999999999999998;"/><line style="stroke:#181818;stroke-width:0.6999999999999998;" x1="225.75" x2="369.95" y1="103.7422" y2="103.7422"/><text fill="#000000" font-family="sans-serif" font-size="9.1" font-weight="bold" lengthAdjust="spacing" textLength="4.9" x="230.65" y="100.0583">2</text><text fill="#000000" font-family="sans-serif" font-size="9.1" lengthAdjust="spacing" textLength="26.6" x="238.35" y="100.0583">Create</text><polygon fill="#181818" points="472.5,122.8459,479.5,125.6459,472.5,128.4459,475.3,125.6459" style="stroke:#181818;stroke-width:0.6999999999999998;"/><line style="stroke:#181818;stroke-width:0.6999999999999998;" x1="381.15" x2="476.7" y1="125.6459" y2="125.6459"/><text fill="#000000" font-family="sans-serif" font-size="9.1" font-weight="bold" lengthAdjust="spacing" textLength="4.9" x="386.05" y="121.962">3</text><text fill="#000000" font-family="sans-serif" font-size="9.1" lengthAdjust="spacing" textLength="52.5" x="393.75" y="121.962">getInstance()</text><polygon fill="#181818" points="388.85,144.7496,381.85,147.5496,388.85,150.3496,386.05,147.5496" style="stroke:#181818;stroke-width:0.6999999999999998;"/><line style="stroke:#181818;stroke-width:0.6999999999999998;stroke-dasharray:2.0,2.0;" x1="384.65" x2="483.7" y1="147.5496" y2="147.5496"/><text fill="#000000" font-family="sans-serif" font-size="9.1" font-weight="bold" lengthAdjust="spacing" textLength="4.9" x="393.05" y="143.8657">4</text><text fill="#000000" font-family="sans-serif" font-size="9.1" lengthAdjust="spacing" textLength="46.9" x="400.75" y="143.8657">repositories</text><polygon fill="#181818" points="365.75,166.6533,372.75,169.4533,365.75,172.2533,368.55,169.4533" style="stroke:#181818;stroke-width:0.6999999999999998;"/><line style="stroke:#181818;stroke-width:0.6999999999999998;" x1="222.25" x2="369.95" y1="169.4533" y2="169.4533"/><text fill="#000000" font-family="sans-serif" font-size="9.1" font-weight="bold" lengthAdjust="spacing" textLength="4.9" x="227.15" y="165.7694">5</text><text fill="#000000" font-family="sans-serif" font-size="9.1" lengthAdjust="spacing" textLength="79.1" x="234.85" y="165.7694">asks for employees</text><polygon fill="#181818" points="547.4,188.557,554.4,191.357,547.4,194.157,550.2,191.357" style="stroke:#181818;stroke-width:0.6999999999999998;"/><line style="stroke:#181818;stroke-width:0.6999999999999998;" x1="381.15" x2="551.6" y1="191.357" y2="191.357"/><text fill="#000000" font-family="sans-serif" font-size="9.1" font-weight="bold" lengthAdjust="spacing" textLength="4.9" x="386.05" y="187.6731">6</text><text fill="#000000" font-family="sans-serif" font-size="9.1" lengthAdjust="spacing" textLength="102.2" x="393.75" y="187.6731">getEmployeeRepository()</text><polygon fill="#181818" points="388.85,210.4607,381.85,213.2607,388.85,216.0607,386.05,213.2607" style="stroke:#181818;stroke-width:0.6999999999999998;"/><line style="stroke:#181818;stroke-width:0.6999999999999998;stroke-dasharray:2.0,2.0;" x1="384.65" x2="555.1" y1="213.2607" y2="213.2607"/><text fill="#000000" font-family="sans-serif" font-size="9.1" font-weight="bold" lengthAdjust="spacing" textLength="4.9" x="393.05" y="209.5769">7</text><text fill="#000000" font-family="sans-serif" font-size="9.1" lengthAdjust="spacing" textLength="60.2" x="400.75" y="209.5769">employeeRepo</text><polygon fill="#181818" points="547.4,232.3645,554.4,235.1645,547.4,237.9645,550.2,235.1645" style="stroke:#181818;stroke-width:0.6999999999999998;"/><line style="stroke:#181818;stroke-width:0.6999999999999998;" x1="381.15" x2="551.6" y1="235.1645" y2="235.1645"/><text fill="#000000" font-family="sans-serif" font-size="9.1" font-weight="bold" lengthAdjust="spacing" textLength="4.9" x="386.05" y="231.4806">8</text><text fill="#000000" font-family="sans-serif" font-size="9.1" lengthAdjust="spacing" textLength="79.1" x="393.75" y="231.4806">getSkillRepository()</text><polygon fill="#181818" points="388.85,254.2682,381.85,257.0682,388.85,259.8682,386.05,257.0682" style="stroke:#181818;stroke-width:0.6999999999999998;"/><line style="stroke:#181818;stroke-width:0.6999999999999998;stroke-dasharray:2.0,2.0;" x1="384.65" x2="558.6" y1="257.0682" y2="257.0682"/><text fill="#000000" font-family="sans-serif" font-size="9.1" font-weight="bold" lengthAdjust="spacing" textLength="4.9" x="393.05" y="253.3843">9</text><text fill="#000000" font-family="sans-serif" font-size="9.1" lengthAdjust="spacing" textLength="37.1" x="400.75" y="253.3843">skillRepo</text><polygon fill="#181818" points="639.8,276.1719,646.8,278.9719,639.8,281.7719,642.6,278.9719" style="stroke:#181818;stroke-width:0.6999999999999998;"/><line style="stroke:#181818;stroke-width:0.6999999999999998;" x1="381.15" x2="644" y1="278.9719" y2="278.9719"/><text fill="#000000" font-family="sans-serif" font-size="9.1" font-weight="bold" lengthAdjust="spacing" textLength="9.8" x="386.05" y="275.288">10</text><text fill="#000000" font-family="sans-serif" font-size="9.1" lengthAdjust="spacing" textLength="74.2" x="398.65" y="275.288">getAllEmployees()</text><polygon fill="#181818" points="388.85,298.0756,381.85,300.8756,388.85,303.6756,386.05,300.8756" style="stroke:#181818;stroke-width:0.6999999999999998;"/><line style="stroke:#181818;stroke-width:0.6999999999999998;stroke-dasharray:2.0,2.0;" x1="384.65" x2="651" y1="300.8756" y2="300.8756"/><text fill="#000000" font-family="sans-serif" font-size="9.1" font-weight="bold" lengthAdjust="spacing" textLength="9.8" x="393.05" y="297.1917">11</text><text fill="#000000" font-family="sans-serif" font-size="9.1" lengthAdjust="spacing" textLength="45.5" x="405.65" y="297.1917">Employees</text><polygon fill="#181818" points="233.45,319.9793,226.45,322.7793,233.45,325.5793,230.65,322.7793" style="stroke:#181818;stroke-width:0.6999999999999998;"/><line style="stroke:#181818;stroke-width:0.6999999999999998;stroke-dasharray:2.0,2.0;" x1="229.25" x2="373.45" y1="322.7793" y2="322.7793"/><text fill="#000000" font-family="sans-serif" font-size="9.1" font-weight="bold" lengthAdjust="spacing" textLength="9.8" x="237.65" y="319.0954">12</text><text fill="#000000" font-family="sans-serif" font-size="9.1" lengthAdjust="spacing" textLength="45.5" x="250.25" y="319.0954">Employees</text><polygon fill="#181818" points="86.45,341.883,79.45,344.683,86.45,347.483,83.65,344.683" style="stroke:#181818;stroke-width:0.6999999999999998;"/><line style="stroke:#181818;stroke-width:0.6999999999999998;stroke-dasharray:2.0,2.0;" x1="82.25" x2="218.05" y1="344.683" y2="344.683"/><text fill="#000000" font-family="sans-serif" font-size="9.1" font-weight="bold" lengthAdjust="spacing" textLength="9.8" x="90.65" y="340.9991">13</text><text fill="#000000" font-family="sans-serif" font-size="9.1" lengthAdjust="spacing" textLength="97.3" x="103.25" y="340.9991">shows list of employees</text><polygon fill="#181818" points="210.35,363.7867,217.35,366.5867,210.35,369.3867,213.15,366.5867" style="stroke:#181818;stroke-width:0.6999999999999998;"/><line style="stroke:#181818;stroke-width:0.6999999999999998;" x1="78.75" x2="214.55" y1="366.5867" y2="366.5867"/><text fill="#000000" font-family="sans-serif" font-size="9.1" font-weight="bold" lengthAdjust="spacing" textLength="9.8" x="83.65" y="362.9028">14</text><text fill="#000000" font-family="sans-serif" font-size="9.1" lengthAdjust="spacing" textLength="84" x="96.25" y="362.9028">selects an employee</text><polygon fill="#181818" points="365.75,385.6904,372.75,388.4904,365.75,391.2904,368.55,388.4904" style="stroke:#181818;stroke-width:0.6999999999999998;"/><line style="stroke:#181818;stroke-width:0.6999999999999998;" x1="225.75" x2="369.95" y1="388.4904" y2="388.4904"/><text fill="#000000" font-family="sans-serif" font-size="9.1" font-weight="bold" lengthAdjust="spacing" textLength="9.8" x="230.65" y="384.8065">15</text><text fill="#000000" font-family="sans-serif" font-size="9.1" lengthAdjust="spacing" textLength="56" x="243.25" y="384.8065">asks for skills</text><polygon fill="#181818" points="736.4,407.5941,743.4,410.3941,736.4,413.1941,739.2,410.3941" style="stroke:#181818;stroke-width:0.6999999999999998;"/><line style="stroke:#181818;stroke-width:0.6999999999999998;" x1="381.15" x2="740.6" y1="410.3941" y2="410.3941"/><text fill="#000000" font-family="sans-serif" font-size="9.1" font-weight="bold" lengthAdjust="spacing" textLength="9.8" x="386.05" y="406.7103">16</text><text fill="#000000" font-family="sans-serif" font-size="9.1" lengthAdjust="spacing" textLength="51.1" x="398.65" y="406.7103">getAllSkills()</text><polygon fill="#181818" points="388.85,429.4979,381.85,432.2979,388.85,435.0979,386.05,432.2979" style="stroke:#181818;stroke-width:0.6999999999999998;"/><line style="stroke:#181818;stroke-width:0.6999999999999998;stroke-dasharray:2.0,2.0;" x1="384.65" x2="747.6" y1="432.2979" y2="432.2979"/><text fill="#000000" font-family="sans-serif" font-size="9.1" font-weight="bold" lengthAdjust="spacing" textLength="9.8" x="393.05" y="428.614">17</text><text fill="#000000" font-family="sans-serif" font-size="9.1" lengthAdjust="spacing" textLength="22.4" x="405.65" y="428.614">Skills</text><polygon fill="#181818" points="233.45,451.4016,226.45,454.2016,233.45,457.0016,230.65,454.2016" style="stroke:#181818;stroke-width:0.6999999999999998;"/><line style="stroke:#181818;stroke-width:0.6999999999999998;stroke-dasharray:2.0,2.0;" x1="229.25" x2="373.45" y1="454.2016" y2="454.2016"/><text fill="#000000" font-family="sans-serif" font-size="9.1" font-weight="bold" lengthAdjust="spacing" textLength="9.8" x="237.65" y="450.5177">18</text><text fill="#000000" font-family="sans-serif" font-size="9.1" lengthAdjust="spacing" textLength="22.4" x="250.25" y="450.5177">Skills</text><path d="M7,464.7016 L58.1,464.7016 L58.1,471.2053 L51.1,478.2053 L7,478.2053 L7,464.7016 " fill="#EEEEEE" style="stroke:#000000;stroke-width:1.0499999999999998;"/><rect fill="none" height="88.3148" style="stroke:#000000;stroke-width:1.0499999999999998;" width="279.65" x="7" y="464.7016"/><text fill="#000000" font-family="sans-serif" font-size="9.1" font-weight="bold" lengthAdjust="spacing" textLength="19.6" x="17.5" y="475.2214">loop</text><text fill="#000000" font-family="sans-serif" font-size="7.7" font-weight="bold" lengthAdjust="spacing" textLength="91" x="68.6" y="474.4106">[for each skill selected]</text><polygon fill="#181818" points="86.45,491.709,79.45,494.509,86.45,497.309,83.65,494.509" style="stroke:#181818;stroke-width:0.6999999999999998;"/><line style="stroke:#181818;stroke-width:0.6999999999999998;stroke-dasharray:2.0,2.0;" x1="82.25" x2="218.05" y1="494.509" y2="494.509"/><text fill="#000000" font-family="sans-serif" font-size="9.1" font-weight="bold" lengthAdjust="spacing" textLength="9.8" x="90.65" y="490.8251">19</text><text fill="#000000" font-family="sans-serif" font-size="9.1" lengthAdjust="spacing" textLength="74.2" x="103.25" y="490.8251">shows list of skills</text><line style="stroke:#181818;stroke-width:0.6999999999999998;" x1="225.75" x2="255.15" y1="516.4127" y2="516.4127"/><line style="stroke:#181818;stroke-width:0.6999999999999998;" x1="255.15" x2="255.15" y1="516.4127" y2="525.5127"/><line style="stroke:#181818;stroke-width:0.6999999999999998;" x1="226.45" x2="255.15" y1="525.5127" y2="525.5127"/><polygon fill="#181818" points="233.45,522.7127,226.45,525.5127,233.45,528.3127,230.65,525.5127" style="stroke:#181818;stroke-width:0.6999999999999998;"/><text fill="#000000" font-family="sans-serif" font-size="9.1" font-weight="bold" lengthAdjust="spacing" textLength="9.8" x="230.65" y="512.7288">20</text><text fill="#000000" font-family="sans-serif" font-size="9.1" lengthAdjust="spacing" textLength="35" x="243.25" y="512.7288">validates</text><polygon fill="#181818" points="210.35,544.6164,217.35,547.4164,210.35,550.2164,213.15,547.4164" style="stroke:#181818;stroke-width:0.6999999999999998;"/><line style="stroke:#181818;stroke-width:0.6999999999999998;" x1="78.75" x2="214.55" y1="547.4164" y2="547.4164"/><text fill="#000000" font-family="sans-serif" font-size="9.1" font-weight="bold" lengthAdjust="spacing" textLength="9.8" x="83.65" y="543.7325">21</text><text fill="#000000" font-family="sans-serif" font-size="9.1" lengthAdjust="spacing" textLength="48.3" x="96.25" y="543.7325">selects skill</text><polygon fill="#181818" points="86.45,571.4201,79.45,574.2201,86.45,577.0201,83.65,574.2201" style="stroke:#181818;stroke-width:0.6999999999999998;"/><line style="stroke:#181818;stroke-width:0.6999999999999998;stroke-dasharray:2.0,2.0;" x1="82.25" x2="218.05" y1="574.2201" y2="574.2201"/><text fill="#000000" font-family="sans-serif" font-size="9.1" font-weight="bold" lengthAdjust="spacing" textLength="9.8" x="90.65" y="570.5362">22</text><text fill="#000000" font-family="sans-serif" font-size="9.1" lengthAdjust="spacing" textLength="46.2" x="103.25" y="570.5362">shows data</text><polygon fill="#181818" points="365.75,593.3238,372.75,596.1238,365.75,598.9238,368.55,596.1238" style="stroke:#181818;stroke-width:0.6999999999999998;"/><line style="stroke:#181818;stroke-width:0.6999999999999998;" x1="222.25" x2="369.95" y1="596.1238" y2="596.1238"/><text fill="#000000" font-family="sans-serif" font-size="9.1" font-weight="bold" lengthAdjust="spacing" textLength="9.8" x="227.15" y="592.4399">23</text><text fill="#000000" font-family="sans-serif" font-size="9.1" lengthAdjust="spacing" textLength="83.3" x="239.75" y="592.4399">asks to assign skills</text><polygon fill="#181818" points="809.55,615.2275,816.55,618.0275,809.55,620.8275,812.35,618.0275" style="stroke:#181818;stroke-width:0.6999999999999998;"/><line style="stroke:#181818;stroke-width:0.6999999999999998;" x1="381.15" x2="813.75" y1="618.0275" y2="618.0275"/><text fill="#000000" font-family="sans-serif" font-size="9.1" font-weight="bold" lengthAdjust="spacing" textLength="9.8" x="386.05" y="614.3437">24</text><text fill="#000000" font-family="sans-serif" font-size="9.1" lengthAdjust="spacing" textLength="105" x="398.65" y="614.3437">assignSkillsToEmployee()</text><line style="stroke:#181818;stroke-width:0.6999999999999998;" x1="824.95" x2="854.35" y1="639.9312" y2="639.9312"/><line style="stroke:#181818;stroke-width:0.6999999999999998;" x1="854.35" x2="854.35" y1="639.9312" y2="649.0312"/><line style="stroke:#181818;stroke-width:0.6999999999999998;" x1="825.65" x2="854.35" y1="649.0312" y2="649.0312"/><polygon fill="#181818" points="832.65,646.2312,825.65,649.0312,832.65,651.8312,829.85,649.0312" style="stroke:#181818;stroke-width:0.6999999999999998;"/><text fill="#000000" font-family="sans-serif" font-size="9.1" font-weight="bold" lengthAdjust="spacing" textLength="9.8" x="829.85" y="636.2474">25</text><text fill="#000000" font-family="sans-serif" font-size="9.1" lengthAdjust="spacing" textLength="35" x="842.45" y="636.2474">validates</text><polygon fill="#181818" points="388.85,668.135,381.85,670.935,388.85,673.735,386.05,670.935" style="stroke:#181818;stroke-width:0.6999999999999998;"/><line style="stroke:#181818;stroke-width:0.6999999999999998;stroke-dasharray:2.0,2.0;" x1="384.65" x2="820.75" y1="670.935" y2="670.935"/><text fill="#000000" font-family="sans-serif" font-size="9.1" font-weight="bold" lengthAdjust="spacing" textLength="9.8" x="393.05" y="667.2511">26</text><text fill="#000000" font-family="sans-serif" font-size="9.1" lengthAdjust="spacing" textLength="98" x="405.65" y="667.2511">newEmployeeWithSkills</text><polygon fill="#181818" points="233.45,690.0387,226.45,692.8387,233.45,695.6387,230.65,692.8387" style="stroke:#181818;stroke-width:0.6999999999999998;"/><line style="stroke:#181818;stroke-width:0.6999999999999998;stroke-dasharray:2.0,2.0;" x1="229.25" x2="373.45" y1="692.8387" y2="692.8387"/><text fill="#000000" font-family="sans-serif" font-size="9.1" font-weight="bold" lengthAdjust="spacing" textLength="9.8" x="237.65" y="689.1548">27</text><text fill="#000000" font-family="sans-serif" font-size="9.1" lengthAdjust="spacing" textLength="98" x="250.25" y="689.1548">newEmployeeWithSkills</text><polygon fill="#181818" points="86.45,711.9424,79.45,714.7424,86.45,717.5424,83.65,714.7424" style="stroke:#181818;stroke-width:0.6999999999999998;"/><line style="stroke:#181818;stroke-width:0.6999999999999998;stroke-dasharray:2.0,2.0;" x1="82.25" x2="218.05" y1="714.7424" y2="714.7424"/><text fill="#000000" font-family="sans-serif" font-size="9.1" font-weight="bold" lengthAdjust="spacing" textLength="9.8" x="90.65" y="711.0585">28</text><text fill="#000000" font-family="sans-serif" font-size="9.1" lengthAdjust="spacing" textLength="84" x="103.25" y="711.0585">asks for confirmation</text><polygon fill="#181818" points="210.35,733.8461,217.35,736.6461,210.35,739.4461,213.15,736.6461" style="stroke:#181818;stroke-width:0.6999999999999998;"/><line style="stroke:#181818;stroke-width:0.6999999999999998;" x1="78.75" x2="214.55" y1="736.6461" y2="736.6461"/><text fill="#000000" font-family="sans-serif" font-size="9.1" font-weight="bold" lengthAdjust="spacing" textLength="9.8" x="83.65" y="732.9622">29</text><text fill="#000000" font-family="sans-serif" font-size="9.1" lengthAdjust="spacing" textLength="62.3" x="96.25" y="732.9622">confirmats data</text><polygon fill="#181818" points="365.75,755.7498,372.75,758.5498,365.75,761.3498,368.55,758.5498" style="stroke:#181818;stroke-width:0.6999999999999998;"/><line style="stroke:#181818;stroke-width:0.6999999999999998;" x1="225.75" x2="369.95" y1="758.5498" y2="758.5498"/><text fill="#000000" font-family="sans-serif" font-size="9.1" font-weight="bold" lengthAdjust="spacing" textLength="9.8" x="230.65" y="754.8659">30</text><text fill="#000000" font-family="sans-serif" font-size="9.1" lengthAdjust="spacing" textLength="119" x="243.25" y="754.8659">add new Skills to collaborator</text><polygon fill="#181818" points="639.8,777.6535,646.8,780.4535,639.8,783.2535,642.6,780.4535" style="stroke:#181818;stroke-width:0.6999999999999998;"/><line style="stroke:#181818;stroke-width:0.6999999999999998;" x1="381.15" x2="644" y1="780.4535" y2="780.4535"/><text fill="#000000" font-family="sans-serif" font-size="9.1" font-weight="bold" lengthAdjust="spacing" textLength="9.8" x="386.05" y="776.7696">31</text><text fill="#000000" font-family="sans-serif" font-size="9.1" lengthAdjust="spacing" textLength="119.7" x="398.65" y="776.7696">addNewEmployeeWithSkills()</text><polygon fill="#181818" points="388.85,799.5572,381.85,802.3572,388.85,805.1572,386.05,802.3572" style="stroke:#181818;stroke-width:0.6999999999999998;"/><line style="stroke:#181818;stroke-width:0.6999999999999998;" x1="384.65" x2="651" y1="802.3572" y2="802.3572"/><text fill="#000000" font-family="sans-serif" font-size="9.1" font-weight="bold" lengthAdjust="spacing" textLength="9.8" x="393.05" y="798.6733">32</text><text fill="#000000" font-family="sans-serif" font-size="9.1" lengthAdjust="spacing" textLength="98" x="405.65" y="798.6733">newEmployeeWithSkills</text><polygon fill="#181818" points="233.45,821.4609,226.45,824.2609,233.45,827.0609,230.65,824.2609" style="stroke:#181818;stroke-width:0.6999999999999998;"/><line style="stroke:#181818;stroke-width:0.6999999999999998;stroke-dasharray:2.0,2.0;" x1="229.25" x2="373.45" y1="824.2609" y2="824.2609"/><text fill="#000000" font-family="sans-serif" font-size="9.1" font-weight="bold" lengthAdjust="spacing" textLength="9.8" x="237.65" y="820.5771">33</text><text fill="#000000" font-family="sans-serif" font-size="9.1" lengthAdjust="spacing" textLength="98" x="250.25" y="820.5771">newEmployeeWithSkills</text><polygon fill="#181818" points="86.45,843.3646,79.45,846.1646,86.45,848.9646,83.65,846.1646" style="stroke:#181818;stroke-width:0.6999999999999998;"/><line style="stroke:#181818;stroke-width:0.6999999999999998;" x1="82.25" x2="218.05" y1="846.1646" y2="846.1646"/><text fill="#000000" font-family="sans-serif" font-size="9.1" font-weight="bold" lengthAdjust="spacing" textLength="9.8" x="90.65" y="842.4808">34</text><text fill="#000000" font-family="sans-serif" font-size="9.1" lengthAdjust="spacing" textLength="110.6" x="103.25" y="842.4808">displays success message</text><polygon fill="#181818" points="82.95,865.2684,75.95,868.0684,82.95,870.8684,80.15,868.0684" style="stroke:#181818;stroke-width:0.6999999999999998;"/><line style="stroke:#181818;stroke-width:0.6999999999999998;stroke-dasharray:2.0,2.0;" x1="78.75" x2="221.55" y1="868.0684" y2="868.0684"/><text fill="#000000" font-family="sans-serif" font-size="9.1" font-weight="bold" lengthAdjust="spacing" textLength="9.8" x="87.15" y="864.3845">35</text><text fill="#000000" font-family="sans-serif" font-size="9.1" lengthAdjust="spacing" textLength="102.9" x="99.75" y="864.3845">shows success message</text><!--SRC=[dLPDRzim3BthLmYvR3lq3-GmO2W2D0EwGx9YbruKcOc5of8XoStoxqVBba9_nEcQGuk8Zq_aUnGH_wPCBPoeU6MDbQMp5V3W6c0-HseXtyG9zk6YWJkGGPYJfW1VYiAUbJdnez0U61DDiAQf3k0O-rAg0lZHsd2mVp4aWtLyzTHKml0TUDiu2VnP6Bp1hRZm_6dtp90tAAbgOG9VhHyTY02RgjRs0g1VjX7tibs6FLeJdDMwfvNvwoXj1xNr2gjIu2FIgxO_x608T0JtQgPf61ycG5z9HbxMhsOpEOp913iaGPMr7Z3yj8THyhx7Z1fBLqLC-iAY1UeTbOfAvoye9-y_UCuVlkC9NsFg6vhdk5O-S7laiHxFCZRd4trp41cGvnf1liwaQVfLz1GYQKYIutnzWh0r7gTGmjTl6Nu5F8plfCvbV04BTqyBHnry528vvHbX8EBbitOUvdl125Q5RKo7WJJKeYQjq9bQOaVo_N1oxZ7dGPjJYFQI3-dCtgY5GBgEVsYTclQa8egRL9OJvYgZHL0xvYkAKpt7s1gEmNRoKOhIddsUU5YwVcxgy_D19j2uBpt7NPTeFlroyWJsJt32azV0l1Sfd8s81zI5Z9XOi1zUIGHOl3GjaL6wjhRktfAGPTTEhnGK7t5a942dLRpeNMXLO5cUpIwpP4Sak0wVMRmL-GHZR6RbRSQMtd8jMFplrScCInz8IPR8qBbqJwHhQJezVziK81vcx33lAimKE2xPm3a5_wXGtlO-zt-lXQJ_ClD0-ppjo7DKhX91aVrCJSs0tgh5FRNaL56q1VR3sdecCIGErWdSdnzQS4ZnQwx5MvkELl0Vkiyrz3cvazg5yhKM5tmPZPJWFQ_m3_uYkxFo5bxDBQBHm7SVSjR-9la7]--></g></svg>