<?xml version="1.0" encoding="us-ascii" standalone="no"?><svg xmlns="http://www.w3.org/2000/svg" xmlns:xlink="http://www.w3.org/1999/xlink" contentStyleType="text/css" height="580px" preserveAspectRatio="none" style="width:618px;height:580px;background:#FFFFFF;" version="1.1" viewBox="0 0 618 580" width="618px" zoomAndPan="magnify"><defs/><g><text fill="#000000" font-family="sans-serif" font-size="14" font-weight="bold" lengthAdjust="spacing" textLength="276" x="172.5" y="30.1074">System Sequence Diagram (SSD) - US05</text><rect fill="#FFFFFF" height="317.9102" style="stroke:#181818;stroke-width:1.0;" width="10" x="76" y="151.8633"/><rect fill="#FFFFFF" height="31.291" style="stroke:#181818;stroke-width:1.0;" width="10" x="565" y="175.1543"/><rect fill="#FFFFFF" height="31.291" style="stroke:#181818;stroke-width:1.0;" width="10" x="565" y="237.7363"/><rect fill="#FFFFFF" height="31.291" style="stroke:#181818;stroke-width:1.0;" width="10" x="565" y="326.6094"/><rect fill="#FFFFFF" height="31.291" style="stroke:#181818;stroke-width:1.0;" width="10" x="565" y="422.4824"/><rect fill="none" height="81.873" style="stroke:#000000;stroke-width:1.5;" width="602" x="10" y="284.0273"/><rect fill="none" height="81.873" style="stroke:#000000;stroke-width:1.5;" width="602" x="10" y="379.9004"/><line style="stroke:#181818;stroke-width:0.5;stroke-dasharray:5.0,5.0;" x1="81" x2="81" y1="141.8633" y2="478.7734"/><line style="stroke:#181818;stroke-width:0.5;stroke-dasharray:5.0,5.0;" x1="570" x2="570" y1="141.8633" y2="478.7734"/><text fill="#000000" font-family="sans-serif" font-size="14" lengthAdjust="spacing" textLength="116" x="20" y="119.7285">Human Resources</text><text fill="#000000" font-family="sans-serif" font-size="14" lengthAdjust="spacing" textLength="56" x="50" y="138.3496">Manager</text><ellipse cx="81" cy="53.1211" fill="#E3E3E3" rx="8" ry="8" style="stroke:#181818;stroke-width:0.5;"/><path d="M81,61.1211 L81,88.1211 M68,69.1211 L94,69.1211 M81,88.1211 L68,103.1211 M81,88.1211 L94,103.1211 " fill="none" style="stroke:#181818;stroke-width:0.5;"/><text fill="#000000" font-family="sans-serif" font-size="14" lengthAdjust="spacing" textLength="116" x="20" y="492.8809">Human Resources</text><text fill="#000000" font-family="sans-serif" font-size="14" lengthAdjust="spacing" textLength="56" x="50" y="511.502">Manager</text><ellipse cx="81" cy="523.5156" fill="#E3E3E3" rx="8" ry="8" style="stroke:#181818;stroke-width:0.5;"/><path d="M81,531.5156 L81,558.5156 M68,539.5156 L94,539.5156 M81,558.5156 L68,573.5156 M81,558.5156 L94,573.5156 " fill="none" style="stroke:#181818;stroke-width:0.5;"/><rect fill="#E3E3E3" height="32.6211" rx="2.5" ry="2.5" style="stroke:#181818;stroke-width:0.5;" width="64" x="538" y="108.2422"/><text fill="#000000" font-family="sans-serif" font-size="14" lengthAdjust="spacing" textLength="50" x="545" y="130.3496">:System</text><rect fill="#E3E3E3" height="32.6211" rx="2.5" ry="2.5" style="stroke:#181818;stroke-width:0.5;" width="64" x="538" y="477.7734"/><text fill="#000000" font-family="sans-serif" font-size="14" lengthAdjust="spacing" textLength="50" x="545" y="499.8809">:System</text><rect fill="#FFFFFF" height="317.9102" style="stroke:#181818;stroke-width:1.0;" width="10" x="76" y="151.8633"/><rect fill="#FFFFFF" height="31.291" style="stroke:#181818;stroke-width:1.0;" width="10" x="565" y="175.1543"/><rect fill="#FFFFFF" height="31.291" style="stroke:#181818;stroke-width:1.0;" width="10" x="565" y="237.7363"/><rect fill="#FFFFFF" height="31.291" style="stroke:#181818;stroke-width:1.0;" width="10" x="565" y="326.6094"/><rect fill="#FFFFFF" height="31.291" style="stroke:#181818;stroke-width:1.0;" width="10" x="565" y="422.4824"/><polygon fill="#181818" points="553,171.1543,563,175.1543,553,179.1543,557,175.1543" style="stroke:#181818;stroke-width:1.0;"/><line style="stroke:#181818;stroke-width:1.0;" x1="86" x2="559" y1="175.1543" y2="175.1543"/><text fill="#000000" font-family="sans-serif" font-size="13" font-weight="bold" lengthAdjust="spacing" textLength="7" x="93" y="169.8916">1</text><text fill="#000000" font-family="sans-serif" font-size="13" lengthAdjust="spacing" textLength="194" x="104" y="169.8916">asks to generate a team proposal</text><polygon fill="#181818" points="97,202.4453,87,206.4453,97,210.4453,93,206.4453" style="stroke:#181818;stroke-width:1.0;"/><line style="stroke:#181818;stroke-width:1.0;stroke-dasharray:2.0,2.0;" x1="91" x2="569" y1="206.4453" y2="206.4453"/><text fill="#000000" font-family="sans-serif" font-size="13" font-weight="bold" lengthAdjust="spacing" textLength="7" x="103" y="201.1826">2</text><text fill="#000000" font-family="sans-serif" font-size="13" lengthAdjust="spacing" textLength="444" x="114" y="201.1826">requests data (i.e. number of colaborators, team max size, skills description)</text><polygon fill="#181818" points="553,233.7363,563,237.7363,553,241.7363,557,237.7363" style="stroke:#181818;stroke-width:1.0;"/><line style="stroke:#181818;stroke-width:1.0;" x1="86" x2="559" y1="237.7363" y2="237.7363"/><text fill="#000000" font-family="sans-serif" font-size="13" font-weight="bold" lengthAdjust="spacing" textLength="7" x="93" y="232.4736">3</text><text fill="#000000" font-family="sans-serif" font-size="13" lengthAdjust="spacing" textLength="122" x="104" y="232.4736">types requested data</text><polygon fill="#181818" points="97,265.0273,87,269.0273,97,273.0273,93,269.0273" style="stroke:#181818;stroke-width:1.0;"/><line style="stroke:#181818;stroke-width:1.0;stroke-dasharray:2.0,2.0;" x1="91" x2="569" y1="269.0273" y2="269.0273"/><text fill="#000000" font-family="sans-serif" font-size="13" font-weight="bold" lengthAdjust="spacing" textLength="7" x="103" y="263.7646">4</text><text fill="#000000" font-family="sans-serif" font-size="13" lengthAdjust="spacing" textLength="236" x="114" y="263.7646">shows all data and requests confirmation</text><path d="M10,284.0273 L71,284.0273 L71,293.3184 L61,303.3184 L10,303.3184 L10,284.0273 " fill="#EEEEEE" style="stroke:#000000;stroke-width:1.5;"/><rect fill="none" height="81.873" style="stroke:#000000;stroke-width:1.5;" width="602" x="10" y="284.0273"/><text fill="#000000" font-family="sans-serif" font-size="13" font-weight="bold" lengthAdjust="spacing" textLength="16" x="25" y="299.0557">alt</text><text fill="#000000" font-family="sans-serif" font-size="11" font-weight="bold" lengthAdjust="spacing" textLength="96" x="86" y="297.8975">[accept proposal]</text><polygon fill="#181818" points="553,322.6094,563,326.6094,553,330.6094,557,326.6094" style="stroke:#181818;stroke-width:1.0;"/><line style="stroke:#181818;stroke-width:1.0;" x1="86" x2="559" y1="326.6094" y2="326.6094"/><text fill="#000000" font-family="sans-serif" font-size="13" font-weight="bold" lengthAdjust="spacing" textLength="7" x="93" y="321.3467">5</text><text fill="#000000" font-family="sans-serif" font-size="13" lengthAdjust="spacing" textLength="78" x="104" y="321.3467">confirms data</text><polygon fill="#181818" points="97,353.9004,87,357.9004,97,361.9004,93,357.9004" style="stroke:#181818;stroke-width:1.0;"/><line style="stroke:#181818;stroke-width:1.0;stroke-dasharray:2.0,2.0;" x1="91" x2="569" y1="357.9004" y2="357.9004"/><text fill="#000000" font-family="sans-serif" font-size="13" font-weight="bold" lengthAdjust="spacing" textLength="7" x="103" y="352.6377">6</text><text fill="#000000" font-family="sans-serif" font-size="13" lengthAdjust="spacing" textLength="353" x="114" y="352.6377">displays operation success and presents the team generated</text><path d="M10,379.9004 L71,379.9004 L71,389.1914 L61,399.1914 L10,399.1914 L10,379.9004 " fill="#EEEEEE" style="stroke:#000000;stroke-width:1.5;"/><rect fill="none" height="81.873" style="stroke:#000000;stroke-width:1.5;" width="602" x="10" y="379.9004"/><text fill="#000000" font-family="sans-serif" font-size="13" font-weight="bold" lengthAdjust="spacing" textLength="16" x="25" y="394.9287">alt</text><text fill="#000000" font-family="sans-serif" font-size="11" font-weight="bold" lengthAdjust="spacing" textLength="92" x="86" y="393.7705">[reject proposal]</text><polygon fill="#181818" points="553,418.4824,563,422.4824,553,426.4824,557,422.4824" style="stroke:#181818;stroke-width:1.0;"/><line style="stroke:#181818;stroke-width:1.0;" x1="86" x2="559" y1="422.4824" y2="422.4824"/><text fill="#000000" font-family="sans-serif" font-size="13" font-weight="bold" lengthAdjust="spacing" textLength="7" x="93" y="417.2197">7</text><text fill="#000000" font-family="sans-serif" font-size="13" lengthAdjust="spacing" textLength="68" x="104" y="417.2197">rejects data</text><polygon fill="#181818" points="97,449.7734,87,453.7734,97,457.7734,93,453.7734" style="stroke:#181818;stroke-width:1.0;"/><line style="stroke:#181818;stroke-width:1.0;stroke-dasharray:2.0,2.0;" x1="91" x2="569" y1="453.7734" y2="453.7734"/><text fill="#000000" font-family="sans-serif" font-size="13" font-weight="bold" lengthAdjust="spacing" textLength="7" x="103" y="448.5107">8</text><text fill="#000000" font-family="sans-serif" font-size="13" lengthAdjust="spacing" textLength="394" x="114" y="448.5107">displays operation failure with information on the reason of the failure</text><!--SRC=[dPCzRzmm38Pt_mhYfWJ81Lswt90f1RfqgP6j2oFJjdgIg8Xqh-wl3_rrbo4zj14yY139ztr8M8u-PImO8N9YrnUE15e6gkJyaj4TiQDQnq1Go2ccBhnDa1uRFldKGOj1gAhKgwNMeoX5gEbbeEG87ZrsK_fDNJ_UmXwUwa-Vgme7vJJ4PofsTye5Tb-7Y0c-a_1G7CcFz0sJ6IWxG84lCGSUYIhJLkzyngImEonYSyPodRlvNwXqAQd0pXR1_c6pUB2oeu0oT9IeJ3K8IXDxuSo2OQuyDzmKO3rhcxrrF7S_sAWCN5IWGKMuyVTq3mifS0kE0pwpQN6HkqKiucyG_uVkm6ORWXMIkEApUawtirX3xtfu5qd7JBAPe6PsyH4CwVaaW24i79YQ2vdZrFeISN9upI06DLb7MIyJ_RlpjQjys7BZ9GSS1JXFspHp88F9YypsSo6XPFQrfsNoszgRQn2KcWjDeP_s9_mBpPBv1kOgq7z1jUZ3K0XENdlmgULr5M3Vn5O8POhQELgpprBNC5y1]--></g></svg>