<?xml version="1.0" encoding="us-ascii" standalone="no"?><svg xmlns="http://www.w3.org/2000/svg" xmlns:xlink="http://www.w3.org/1999/xlink" contentStyleType="text/css" height="174px" preserveAspectRatio="none" style="width:716px;height:174px;background:#FFFFFF;" version="1.1" viewBox="0 0 716 174" width="716px" zoomAndPan="magnify"><defs/><g><text fill="#000000" font-family="sans-serif" font-size="14" font-weight="bold" lengthAdjust="spacing" textLength="100" x="301" y="25.1074">Domain Model</text><!--class GreenSpaceManagerManager--><g id="elem_GreenSpaceManagerManager"><rect codeLine="14" fill="#F1F1F1" height="36.6211" id="GreenSpaceManagerManager" rx="2.5" ry="2.5" style="stroke:#181818;stroke-width:0.5;" width="198" x="7" y="55.6211"/><text fill="#000000" font-family="sans-serif" font-size="14" lengthAdjust="spacing" textLength="192" x="10" y="75.7285">GreenSpaceManagerManager</text><line style="stroke:#181818;stroke-width:0.5;" x1="8" x2="204" y1="84.2422" y2="84.2422"/></g><!--class Manager--><g id="elem_Manager"><rect codeLine="18" fill="#F1F1F1" height="55.2422" id="Manager" rx="2.5" ry="2.5" style="stroke:#181818;stroke-width:0.5;" width="62" x="301" y="46.6211"/><text fill="#000000" font-family="sans-serif" font-size="14" lengthAdjust="spacing" textLength="56" x="304" y="66.7285">Manager</text><line style="stroke:#181818;stroke-width:0.5;" x1="302" x2="362" y1="75.2422" y2="75.2422"/><text fill="#000000" font-family="sans-serif" font-size="14" lengthAdjust="spacing" textLength="45" x="307" y="94.3496">section</text></g><!--class Team--><g id="elem_Team"><rect fill="#F1F1F1" height="36.6211" id="Team" rx="2.5" ry="2.5" style="stroke:#181818;stroke-width:0.5;" width="42" x="497.5" y="127.6211"/><text fill="#000000" font-family="sans-serif" font-size="14" lengthAdjust="spacing" textLength="36" x="500.5" y="147.7285">Team</text><line style="stroke:#181818;stroke-width:0.5;" x1="498.5" x2="538.5" y1="156.2422" y2="156.2422"/></g><!--class Task--><g id="elem_Task"><rect fill="#F1F1F1" height="36.6211" id="Task" rx="2.5" ry="2.5" style="stroke:#181818;stroke-width:0.5;" width="37" x="672" y="98.6211"/><text fill="#000000" font-family="sans-serif" font-size="14" lengthAdjust="spacing" textLength="31" x="675" y="118.7285">Task</text><line style="stroke:#181818;stroke-width:0.5;" x1="673" x2="708" y1="127.2422" y2="127.2422"/></g><!--class Agenda--><g id="elem_Agenda"><rect fill="#F1F1F1" height="36.6211" id="Agenda" rx="2.5" ry="2.5" style="stroke:#181818;stroke-width:0.5;" width="55" x="491" y="55.6211"/><text fill="#000000" font-family="sans-serif" font-size="14" lengthAdjust="spacing" textLength="49" x="494" y="75.7285">Agenda</text><line style="stroke:#181818;stroke-width:0.5;" x1="492" x2="545" y1="84.2422" y2="84.2422"/></g><!--link GreenSpaceManagerManager to Manager--><g id="link_GreenSpaceManagerManager_Manager"><path codeLine="22" d="M205.25,74.1211 C239.81,74.1211 276.14,74.1211 300.82,74.1211 " fill="none" id="GreenSpaceManagerManager-Manager" style="stroke:#181818;stroke-width:1.0;"/><polygon fill="#000000" points="235,64.7666,244.0451,67.7055,244.0451,61.8277,235,64.7666" style="stroke:#000000;stroke-width:1.0;"/><text fill="#000000" font-family="sans-serif" font-size="13" lengthAdjust="spacing" textLength="21" x="249" y="70.1494">is a</text><text fill="#000000" font-family="sans-serif" font-size="13" lengthAdjust="spacing" textLength="20" x="212.9316" y="88.7706">1..*</text><text fill="#000000" font-family="sans-serif" font-size="13" lengthAdjust="spacing" textLength="7" x="285.8003" y="90.1207">1</text></g><!--link Team to Task--><g id="link_Team_Task"><path codeLine="23" d="M539.86,148.5111 C564.51,150.7511 607.07,152.5111 642,143.1211 C652.53,140.2911 663.27,134.6811 671.87,129.4011 " fill="none" id="Team-Task" style="stroke:#181818;stroke-width:1.0;"/><polygon fill="#000000" points="585.9484,133.0503,576.5756,131.4375,577.4177,137.2547,585.9484,133.0503" style="stroke:#000000;stroke-width:1.0;"/><text fill="#000000" font-family="sans-serif" font-size="13" lengthAdjust="spacing" textLength="51" x="590" y="139.1494">carry out</text><text fill="#000000" font-family="sans-serif" font-size="13" lengthAdjust="spacing" textLength="7" x="547.4734" y="165.9771">1</text><text fill="#000000" font-family="sans-serif" font-size="13" lengthAdjust="spacing" textLength="7" x="656.9862" y="150.9516">1</text></g><!--link Agenda to Task--><g id="link_Agenda_Task"><path codeLine="24" d="M546.06,80.8411 C581.17,89.7211 642.07,105.1211 671.95,112.6811 " fill="none" id="Agenda-Task" style="stroke:#181818;stroke-width:1.0;"/><polygon fill="#000000" points="600.8474,80.9926,592.799,75.9255,591.3578,81.624,600.8474,80.9926" style="stroke:#000000;stroke-width:1.0;"/><text fill="#000000" font-family="sans-serif" font-size="13" lengthAdjust="spacing" textLength="21" x="605" y="85.1494">has</text><text fill="#000000" font-family="sans-serif" font-size="13" lengthAdjust="spacing" textLength="7" x="554.0191" y="98.8554">1</text><text fill="#000000" font-family="sans-serif" font-size="13" lengthAdjust="spacing" textLength="5" x="658.9247" y="104.9037">*</text></g><!--link Manager to Agenda--><g id="link_Manager_Agenda"><path codeLine="25" d="M363.05,74.1211 C398.49,74.1211 456.83,74.1211 490.76,74.1211 " fill="none" id="Manager-Agenda" style="stroke:#181818;stroke-width:1.0;"/><polygon fill="#000000" points="403,64.7666,393.9549,61.8277,393.9549,67.7055,403,64.7666" style="stroke:#000000;stroke-width:1.0;"/><text fill="#000000" font-family="sans-serif" font-size="13" lengthAdjust="spacing" textLength="53" x="407" y="70.1494">manages</text><text fill="#000000" font-family="sans-serif" font-size="13" lengthAdjust="spacing" textLength="7" x="371.0397" y="90.1207">1</text><text fill="#000000" font-family="sans-serif" font-size="13" lengthAdjust="spacing" textLength="5" x="478.011" y="90.4134">*</text></g><!--SRC=[TO_FQiCm3CRlUWgHOw5blUOmA0p63ZsbBw3QQYpYFy5M65tPkyzDcwuxp1S9_RvF-bm6YIDb2XXIJCRb51WrJmpbGKOo0_NSwTapPZPAiVVFWkB8fa-9FPx85mRmV5BKX5bwfsZbQf8KuSbZF9MoKyrod9G_J8gTV36-03YnZ4QogJVcFh2wP0k0YjO4RocGHDmdonvWteFlcJbsDIZlATQi-Lxm0l2zY7vdM5-vPwfu0SssmVLw6ckpsQoQVxUsA0K9N-70zIStrrmEL8OM3ULynZHfLUnwZfOUcjMYSLGg_NjunZT3Ys56Lz4F]--></g></svg>