<?xml version="1.0" encoding="us-ascii" standalone="no"?><svg xmlns="http://www.w3.org/2000/svg" xmlns:xlink="http://www.w3.org/1999/xlink" contentStyleType="text/css" height="552px" preserveAspectRatio="none" style="width:838px;height:552px;background:#FFFFFF;" version="1.1" viewBox="0 0 838 552" width="838.8px" zoomAndPan="magnify"><defs/><g><!--cluster Controller--><g id="cluster_Controller"><path d="M239.7,162.0082 L282.9,162.0082 A2.25,2.25 0 0 1 284.4,163.5082 L288.6,176.7809 L806.7,176.7809 A1.5,1.5 0 0 1 808.2,178.2809 L808.2,254.7082 A1.5,1.5 0 0 1 806.7,256.2082 L239.7,256.2082 A1.5,1.5 0 0 1 238.2,254.7082 L238.2,163.5082 A1.5,1.5 0 0 1 239.7,162.0082 " fill="none" style="stroke:#000000;stroke-width:0.8999999999999999;"/><line style="stroke:#000000;stroke-width:0.8999999999999999;" x1="238.2" x2="288.6" y1="176.7809" y2="176.7809"/><text fill="#000000" font-family="sans-serif" font-size="8.4" font-weight="bold" lengthAdjust="spacing" textLength="42.6" x="240.6" y="172.2727">Controller</text></g><!--cluster UI--><g id="cluster_UI"><path d="M459.3,3.6082 L468.3,3.6082 A2.25,2.25 0 0 1 469.8,5.1082 L474,18.3809 L587.1,18.3809 A1.5,1.5 0 0 1 588.6,19.8809 L588.6,129.9082 A1.5,1.5 0 0 1 587.1,131.4082 L459.3,131.4082 A1.5,1.5 0 0 1 457.8,129.9082 L457.8,5.1082 A1.5,1.5 0 0 1 459.3,3.6082 " fill="none" style="stroke:#000000;stroke-width:0.8999999999999999;"/><line style="stroke:#000000;stroke-width:0.8999999999999999;" x1="457.8" x2="474" y1="18.3809" y2="18.3809"/><text fill="#000000" font-family="sans-serif" font-size="8.4" font-weight="bold" lengthAdjust="spacing" textLength="8.4" x="460.2" y="13.8727">UI</text></g><!--cluster Domain--><g id="cluster_Domain"><path d="M5.1,286.8082 L36.9,286.8082 A2.25,2.25 0 0 1 38.4,288.3082 L42.6,301.5809 L508.5,301.5809 A1.5,1.5 0 0 1 510,303.0809 L510,446.7082 A1.5,1.5 0 0 1 508.5,448.2082 L5.1,448.2082 A1.5,1.5 0 0 1 3.6,446.7082 L3.6,288.3082 A1.5,1.5 0 0 1 5.1,286.8082 " fill="none" style="stroke:#000000;stroke-width:0.8999999999999999;"/><line style="stroke:#000000;stroke-width:0.8999999999999999;" x1="3.6" x2="42.6" y1="301.5809" y2="301.5809"/><text fill="#000000" font-family="sans-serif" font-size="8.4" font-weight="bold" lengthAdjust="spacing" textLength="31.2" x="6" y="297.0727">Domain</text></g><!--cluster Repositories--><g id="cluster_Repositories"><path d="M525.9,315.0082 L580.5,315.0082 A2.25,2.25 0 0 1 582,316.5082 L586.2,329.7809 L833.1,329.7809 A1.5,1.5 0 0 1 834.6,331.2809 L834.6,546.3082 A1.5,1.5 0 0 1 833.1,547.8082 L525.9,547.8082 A1.5,1.5 0 0 1 524.4,546.3082 L524.4,316.5082 A1.5,1.5 0 0 1 525.9,315.0082 " fill="none" style="stroke:#000000;stroke-width:0.8999999999999999;"/><line style="stroke:#000000;stroke-width:0.8999999999999999;" x1="524.4" x2="586.2" y1="329.7809" y2="329.7809"/><text fill="#000000" font-family="sans-serif" font-size="8.4" font-weight="bold" lengthAdjust="spacing" textLength="54" x="526.8" y="325.2727">Repositories</text></g><!--class CreateEntryToAgendaController--><g id="elem_CreateEntryToAgendaController"><rect codeLine="8" fill="#F1F1F1" height="62.318" id="CreateEntryToAgendaController" rx="1.5" ry="1.5" style="stroke:#181818;stroke-width:0.3;" width="550.8" x="247.8" y="184.2082"/><ellipse cx="459.45" cy="193.8082" fill="#C2C2C2" rx="6.6" ry="6.6" style="stroke:#181818;stroke-width:0.6;"/><path d="M461.1094,191.3332 Q461.2031,191.202 461.3156,191.1363 Q461.4281,191.0707 461.5594,191.0707 Q461.7844,191.0707 461.925,191.2301 Q462.0656,191.3801 462.0656,191.7457 L462.0656,192.6176 Q462.0656,192.9832 461.925,193.1426 Q461.7844,193.302 461.5594,193.302 Q461.3531,193.302 461.2313,193.1801 Q461.1094,193.0676 461.0438,192.7582 Q461.0156,192.5426 460.9031,192.4301 Q460.7063,192.2051 460.3406,192.0738 Q459.975,191.9426 459.6,191.9426 Q459.1406,191.9426 458.7562,192.1395 Q458.3812,192.3363 458.0813,192.7863 Q457.7906,193.2363 457.7906,193.8551 L457.7906,194.5113 Q457.7906,195.252 458.325,195.7488 Q458.8594,196.2363 459.8156,196.2363 Q460.3781,196.2363 460.7719,196.0863 Q461.0062,195.9926 461.2594,195.7301 Q461.4188,195.5707 461.5031,195.5238 Q461.5969,195.477 461.7188,195.477 Q461.9156,195.477 462.0656,195.6363 Q462.225,195.7863 462.225,195.9926 Q462.225,196.1988 462.0187,196.4426 Q461.7188,196.7895 461.2406,196.9863 Q460.5938,197.2582 459.8156,197.2582 Q458.9063,197.2582 458.1844,196.8832 Q457.5938,196.5832 457.1813,195.9457 Q456.7688,195.2988 456.7688,194.5301 L456.7688,193.8363 Q456.7688,193.0395 457.1344,192.3551 Q457.5094,191.6613 458.1656,191.2957 Q458.8219,190.9207 459.5625,190.9207 Q460.0031,190.9207 460.3875,191.0238 Q460.7813,191.1176 461.1094,191.3332 Z " fill="#000000"/><text fill="#000000" font-family="sans-serif" font-size="8.4" lengthAdjust="spacing" textLength="122.4" x="471.75" y="197.2863">CreateEntryToAgendaController</text><line style="stroke:#181818;stroke-width:0.3;" x1="248.4" x2="798" y1="203.4082" y2="203.4082"/><text fill="#000000" font-family="sans-serif" font-size="8.4" lengthAdjust="spacing" textLength="157.2" x="251.4" y="214.8727">-toDoListRepository : ToDoListRepository</text><text fill="#000000" font-family="sans-serif" font-size="8.4" lengthAdjust="spacing" textLength="150" x="251.4" y="226.0453">-agendaRepository : AgendaRepository</text><line style="stroke:#181818;stroke-width:0.3;" x1="248.4" x2="798" y1="230.5535" y2="230.5535"/><text fill="#000000" font-family="sans-serif" font-size="8.4" lengthAdjust="spacing" textLength="543.6" x="251.4" y="242.018">+createEntryToAgenda(String name, String description, String urgencyDegree, int duration, GreenSpace greenSpace, LocalDate date, int hour)</text></g><!--class CreateEntryToAgendaUI--><g id="elem_CreateEntryToAgendaUI"><rect codeLine="15" fill="#F1F1F1" height="95.8359" id="CreateEntryToAgendaUI" rx="1.5" ry="1.5" style="stroke:#181818;stroke-width:0.3;" width="111.6" x="467.4" y="25.8082"/><ellipse cx="476.4" cy="35.4082" fill="#C2C2C2" rx="6.6" ry="6.6" style="stroke:#181818;stroke-width:0.6;"/><path d="M478.0594,32.9332 Q478.1531,32.802 478.2656,32.7363 Q478.3781,32.6707 478.5094,32.6707 Q478.7344,32.6707 478.875,32.8301 Q479.0156,32.9801 479.0156,33.3457 L479.0156,34.2176 Q479.0156,34.5832 478.875,34.7426 Q478.7344,34.902 478.5094,34.902 Q478.3031,34.902 478.1813,34.7801 Q478.0594,34.6676 477.9938,34.3582 Q477.9656,34.1426 477.8531,34.0301 Q477.6563,33.8051 477.2906,33.6738 Q476.925,33.5426 476.55,33.5426 Q476.0906,33.5426 475.7062,33.7395 Q475.3312,33.9363 475.0313,34.3863 Q474.7406,34.8363 474.7406,35.4551 L474.7406,36.1113 Q474.7406,36.852 475.275,37.3488 Q475.8094,37.8363 476.7656,37.8363 Q477.3281,37.8363 477.7219,37.6863 Q477.9562,37.5926 478.2094,37.3301 Q478.3688,37.1707 478.4531,37.1238 Q478.5469,37.077 478.6688,37.077 Q478.8656,37.077 479.0156,37.2363 Q479.175,37.3863 479.175,37.5926 Q479.175,37.7988 478.9688,38.0426 Q478.6688,38.3895 478.1906,38.5863 Q477.5438,38.8582 476.7656,38.8582 Q475.8563,38.8582 475.1344,38.4832 Q474.5438,38.1832 474.1312,37.5457 Q473.7188,36.8988 473.7188,36.1301 L473.7188,35.4363 Q473.7188,34.6395 474.0844,33.9551 Q474.4594,33.2613 475.1156,32.8957 Q475.7719,32.5207 476.5125,32.5207 Q476.9531,32.5207 477.3375,32.6238 Q477.7313,32.7176 478.0594,32.9332 Z " fill="#000000"/><text fill="#000000" font-family="sans-serif" font-size="8.4" lengthAdjust="spacing" textLength="92.4" x="484.8" y="38.8863">CreateEntryToAgendaUI</text><line style="stroke:#181818;stroke-width:0.3;" x1="468" x2="578.4" y1="45.0082" y2="45.0082"/><line style="stroke:#181818;stroke-width:0.3;" x1="468" x2="578.4" y1="49.8082" y2="49.8082"/><text fill="#000000" font-family="sans-serif" font-size="8.4" lengthAdjust="spacing" textLength="23.4" x="471" y="61.2727">+run()</text><text fill="#000000" font-family="sans-serif" font-size="8.4" lengthAdjust="spacing" textLength="57.6" x="471" y="72.4453">+requestData()</text><text fill="#000000" font-family="sans-serif" font-size="8.4" lengthAdjust="spacing" textLength="53.4" x="471" y="83.618">+submitData()</text><text fill="#000000" font-family="sans-serif" font-size="8.4" lengthAdjust="spacing" textLength="66" x="471" y="94.7906">+requestEntries()</text><text fill="#000000" font-family="sans-serif" font-size="8.4" lengthAdjust="spacing" textLength="57.6" x="471" y="105.9633">+requestDate()</text><text fill="#000000" font-family="sans-serif" font-size="8.4" lengthAdjust="spacing" textLength="87" x="471" y="117.1359">+requestStartingHour()</text></g><!--class Entry--><g id="elem_Entry"><rect codeLine="27" fill="#F1F1F1" height="129.3539" id="Entry" rx="1.5" ry="1.5" style="stroke:#181818;stroke-width:0.3;" width="487.2" x="13.2" y="309.0082"/><ellipse cx="244.35" cy="318.6082" fill="#C2C2C2" rx="6.6" ry="6.6" style="stroke:#181818;stroke-width:0.6;"/><path d="M246.0094,316.1332 Q246.1031,316.002 246.2156,315.9363 Q246.3281,315.8707 246.4594,315.8707 Q246.6844,315.8707 246.825,316.0301 Q246.9656,316.1801 246.9656,316.5457 L246.9656,317.4176 Q246.9656,317.7832 246.825,317.9426 Q246.6844,318.102 246.4594,318.102 Q246.2531,318.102 246.1313,317.9801 Q246.0094,317.8676 245.9438,317.5582 Q245.9156,317.3426 245.8031,317.2301 Q245.6063,317.0051 245.2406,316.8738 Q244.875,316.7426 244.5,316.7426 Q244.0406,316.7426 243.6563,316.9395 Q243.2813,317.1363 242.9813,317.5863 Q242.6906,318.0363 242.6906,318.6551 L242.6906,319.3113 Q242.6906,320.052 243.225,320.5488 Q243.7594,321.0363 244.7156,321.0363 Q245.2781,321.0363 245.6719,320.8863 Q245.9063,320.7926 246.1594,320.5301 Q246.3188,320.3707 246.4031,320.3238 Q246.4969,320.277 246.6187,320.277 Q246.8156,320.277 246.9656,320.4363 Q247.125,320.5863 247.125,320.7926 Q247.125,320.9988 246.9188,321.2426 Q246.6187,321.5895 246.1406,321.7863 Q245.4937,322.0582 244.7156,322.0582 Q243.8062,322.0582 243.0844,321.6832 Q242.4937,321.3832 242.0812,320.7457 Q241.6688,320.0988 241.6688,319.3301 L241.6688,318.6363 Q241.6688,317.8395 242.0344,317.1551 Q242.4094,316.4613 243.0656,316.0957 Q243.7219,315.7207 244.4625,315.7207 Q244.9031,315.7207 245.2875,315.8238 Q245.6812,315.9176 246.0094,316.1332 Z " fill="#000000"/><text fill="#000000" font-family="sans-serif" font-size="8.4" lengthAdjust="spacing" textLength="19.8" x="256.65" y="322.0863">Entry</text><line style="stroke:#181818;stroke-width:0.3;" x1="13.8" x2="499.8" y1="328.2082" y2="328.2082"/><text fill="#000000" font-family="sans-serif" font-size="8.4" lengthAdjust="spacing" textLength="48.6" x="16.8" y="339.6727">-String name</text><text fill="#000000" font-family="sans-serif" font-size="8.4" lengthAdjust="spacing" textLength="69" x="16.8" y="350.8453">-String description</text><text fill="#000000" font-family="sans-serif" font-size="8.4" lengthAdjust="spacing" textLength="86.4" x="16.8" y="362.018">-String urgencyDegree</text><text fill="#000000" font-family="sans-serif" font-size="8.4" lengthAdjust="spacing" textLength="45.6" x="16.8" y="373.1906">-int duration</text><text fill="#000000" font-family="sans-serif" font-size="8.4" lengthAdjust="spacing" textLength="99.6" x="16.8" y="384.3633">-GreenSpace greenSpace</text><text fill="#000000" font-family="sans-serif" font-size="8.4" lengthAdjust="spacing" textLength="50.4" x="16.8" y="395.5359">-String status</text><text fill="#000000" font-family="sans-serif" font-size="8.4" lengthAdjust="spacing" textLength="81" x="16.8" y="406.7086">-LocalDate entryDate</text><text fill="#000000" font-family="sans-serif" font-size="8.4" lengthAdjust="spacing" textLength="31.8" x="16.8" y="417.8812">-int hour</text><line style="stroke:#181818;stroke-width:0.3;" x1="13.8" x2="499.8" y1="422.3895" y2="422.3895"/><text fill="#000000" font-family="sans-serif" font-size="8.4" lengthAdjust="spacing" textLength="480" x="16.8" y="433.8539">+Entry(String name, String description, String urgencyDegree, int duration, GreenSpace greenSpace, LocalDate date, int hour)</text></g><!--class Repositorie--><g id="elem_Repositorie"><rect codeLine="41" fill="#F1F1F1" height="73.4906" id="Repositorie" rx="1.5" ry="1.5" style="stroke:#181818;stroke-width:0.3;" width="187.2" x="534" y="337.2082"/><ellipse cx="603.45" cy="346.8082" fill="#C2C2C2" rx="6.6" ry="6.6" style="stroke:#181818;stroke-width:0.6;"/><path d="M605.1094,344.3332 Q605.2031,344.202 605.3156,344.1363 Q605.4281,344.0707 605.5594,344.0707 Q605.7844,344.0707 605.925,344.2301 Q606.0656,344.3801 606.0656,344.7457 L606.0656,345.6176 Q606.0656,345.9832 605.925,346.1426 Q605.7844,346.302 605.5594,346.302 Q605.3531,346.302 605.2312,346.1801 Q605.1094,346.0676 605.0437,345.7582 Q605.0156,345.5426 604.9031,345.4301 Q604.7063,345.2051 604.3406,345.0738 Q603.975,344.9426 603.6,344.9426 Q603.1406,344.9426 602.7563,345.1395 Q602.3813,345.3363 602.0813,345.7863 Q601.7906,346.2363 601.7906,346.8551 L601.7906,347.5113 Q601.7906,348.252 602.325,348.7488 Q602.8594,349.2363 603.8156,349.2363 Q604.3781,349.2363 604.7719,349.0863 Q605.0063,348.9926 605.2594,348.7301 Q605.4187,348.5707 605.5031,348.5238 Q605.5969,348.477 605.7188,348.477 Q605.9156,348.477 606.0656,348.6363 Q606.225,348.7863 606.225,348.9926 Q606.225,349.1988 606.0188,349.4426 Q605.7188,349.7895 605.2406,349.9863 Q604.5938,350.2582 603.8156,350.2582 Q602.9063,350.2582 602.1844,349.8832 Q601.5938,349.5832 601.1813,348.9457 Q600.7688,348.2988 600.7688,347.5301 L600.7688,346.8363 Q600.7688,346.0395 601.1344,345.3551 Q601.5094,344.6613 602.1656,344.2957 Q602.8219,343.9207 603.5625,343.9207 Q604.0031,343.9207 604.3875,344.0238 Q604.7813,344.1176 605.1094,344.3332 Z " fill="#000000"/><text fill="#000000" font-family="sans-serif" font-size="8.4" lengthAdjust="spacing" textLength="43.2" x="615.75" y="350.2863">Repositorie</text><line style="stroke:#181818;stroke-width:0.3;" x1="534.6" x2="720.6" y1="356.4082" y2="356.4082"/><line style="stroke:#181818;stroke-width:0.3;" x1="534.6" x2="720.6" y1="361.2082" y2="361.2082"/><text fill="#000000" font-family="sans-serif" font-size="8.4" lengthAdjust="spacing" textLength="56.4" x="537.6" y="372.6727">-Repositories()</text><text fill="#000000" font-family="sans-serif" font-size="8.4" lengthAdjust="spacing" textLength="109.2" x="537.6" y="383.8453">+getInstance() : Repositories</text><text fill="#000000" font-family="sans-serif" font-size="8.4" lengthAdjust="spacing" textLength="180" x="537.6" y="395.018">+getToDoListRepository() : ToDoListRepository</text><text fill="#000000" font-family="sans-serif" font-size="8.4" lengthAdjust="spacing" textLength="170.4" x="537.6" y="406.1906">+getAgendaRepository() : AgendaRepository</text></g><!--class ToDoListRepository--><g id="elem_ToDoListRepository"><rect codeLine="49" fill="#F1F1F1" height="39.9727" id="ToDoListRepository" rx="1.5" ry="1.5" style="stroke:#181818;stroke-width:0.3;" width="115.2" x="534" y="492.6082"/><ellipse cx="552.45" cy="502.2082" fill="#C2C2C2" rx="6.6" ry="6.6" style="stroke:#181818;stroke-width:0.6;"/><path d="M554.1094,499.7332 Q554.2031,499.602 554.3156,499.5363 Q554.4281,499.4707 554.5594,499.4707 Q554.7844,499.4707 554.925,499.6301 Q555.0656,499.7801 555.0656,500.1457 L555.0656,501.0176 Q555.0656,501.3832 554.925,501.5426 Q554.7844,501.702 554.5594,501.702 Q554.3531,501.702 554.2312,501.5801 Q554.1094,501.4676 554.0437,501.1582 Q554.0156,500.9426 553.9031,500.8301 Q553.7063,500.6051 553.3406,500.4738 Q552.975,500.3426 552.6,500.3426 Q552.1406,500.3426 551.7563,500.5395 Q551.3813,500.7363 551.0813,501.1863 Q550.7906,501.6363 550.7906,502.2551 L550.7906,502.9113 Q550.7906,503.652 551.325,504.1488 Q551.8594,504.6363 552.8156,504.6363 Q553.3781,504.6363 553.7719,504.4863 Q554.0063,504.3926 554.2594,504.1301 Q554.4187,503.9707 554.5031,503.9238 Q554.5969,503.877 554.7188,503.877 Q554.9156,503.877 555.0656,504.0363 Q555.225,504.1863 555.225,504.3926 Q555.225,504.5988 555.0188,504.8426 Q554.7188,505.1895 554.2406,505.3863 Q553.5938,505.6582 552.8156,505.6582 Q551.9063,505.6582 551.1844,505.2832 Q550.5938,504.9832 550.1813,504.3457 Q549.7688,503.6988 549.7688,502.9301 L549.7688,502.2363 Q549.7688,501.4395 550.1344,500.7551 Q550.5094,500.0613 551.1656,499.6957 Q551.8219,499.3207 552.5625,499.3207 Q553.0031,499.3207 553.3875,499.4238 Q553.7813,499.5176 554.1094,499.7332 Z " fill="#000000"/><text fill="#000000" font-family="sans-serif" font-size="8.4" lengthAdjust="spacing" textLength="75" x="562.95" y="505.6863">ToDoListRepository</text><line style="stroke:#181818;stroke-width:0.3;" x1="534.6" x2="648.6" y1="511.8082" y2="511.8082"/><line style="stroke:#181818;stroke-width:0.3;" x1="534.6" x2="648.6" y1="516.6082" y2="516.6082"/><text fill="#000000" font-family="sans-serif" font-size="8.4" lengthAdjust="spacing" textLength="108" x="537.6" y="528.0727">+getAllEntries() : List&lt;Entry&gt;</text></g><!--class AgendaRepository--><g id="elem_AgendaRepository"><rect codeLine="55" fill="#F1F1F1" height="51.1453" id="AgendaRepository" rx="1.5" ry="1.5" style="stroke:#181818;stroke-width:0.3;" width="154.8" x="670.2" y="487.2082"/><ellipse cx="709.95" cy="496.8082" fill="#C2C2C2" rx="6.6" ry="6.6" style="stroke:#181818;stroke-width:0.6;"/><path d="M711.6094,494.3332 Q711.7031,494.202 711.8156,494.1363 Q711.9281,494.0707 712.0594,494.0707 Q712.2844,494.0707 712.425,494.2301 Q712.5656,494.3801 712.5656,494.7457 L712.5656,495.6176 Q712.5656,495.9832 712.425,496.1426 Q712.2844,496.302 712.0594,496.302 Q711.8531,496.302 711.7312,496.1801 Q711.6094,496.0676 711.5437,495.7582 Q711.5156,495.5426 711.4031,495.4301 Q711.2063,495.2051 710.8406,495.0738 Q710.475,494.9426 710.1,494.9426 Q709.6406,494.9426 709.2563,495.1395 Q708.8813,495.3363 708.5813,495.7863 Q708.2906,496.2363 708.2906,496.8551 L708.2906,497.5113 Q708.2906,498.252 708.825,498.7488 Q709.3594,499.2363 710.3156,499.2363 Q710.8781,499.2363 711.2719,499.0863 Q711.5063,498.9926 711.7594,498.7301 Q711.9187,498.5707 712.0031,498.5238 Q712.0969,498.477 712.2188,498.477 Q712.4156,498.477 712.5656,498.6363 Q712.725,498.7863 712.725,498.9926 Q712.725,499.1988 712.5188,499.4426 Q712.2188,499.7895 711.7406,499.9863 Q711.0938,500.2582 710.3156,500.2582 Q709.4063,500.2582 708.6844,499.8832 Q708.0938,499.5832 707.6813,498.9457 Q707.2688,498.2988 707.2688,497.5301 L707.2688,496.8363 Q707.2688,496.0395 707.6344,495.3551 Q708.0094,494.6613 708.6656,494.2957 Q709.3219,493.9207 710.0625,493.9207 Q710.5031,493.9207 710.8875,494.0238 Q711.2813,494.1176 711.6094,494.3332 Z " fill="#000000"/><text fill="#000000" font-family="sans-serif" font-size="8.4" lengthAdjust="spacing" textLength="70.2" x="722.25" y="500.2863">AgendaRepository</text><line style="stroke:#181818;stroke-width:0.3;" x1="670.8" x2="824.4" y1="506.4082" y2="506.4082"/><line style="stroke:#181818;stroke-width:0.3;" x1="670.8" x2="824.4" y1="511.2082" y2="511.2082"/><text fill="#000000" font-family="sans-serif" font-size="8.4" lengthAdjust="spacing" textLength="147.6" x="673.8" y="522.6727">+getAllEntriesToAgenda() : List&lt;Entry&gt;</text><text fill="#000000" font-family="sans-serif" font-size="8.4" lengthAdjust="spacing" textLength="60.6" x="673.8" y="533.8453">+addNewEntry()</text></g><!--link CreateEntryToAgendaUI to CreateEntryToAgendaController--><g id="link_CreateEntryToAgendaUI_CreateEntryToAgendaController"><path codeLine="61" d="M523.2,121.9402 C523.2,142.4662 523.2,162.2842 523.2,180.4702 " fill="none" id="CreateEntryToAgendaUI-to-CreateEntryToAgendaController" style="stroke:#181818;stroke-width:0.6;"/><polygon fill="#181818" points="523.2,184.0702,525.6,178.6702,523.2,181.0702,520.8,178.6702,523.2,184.0702" style="stroke:#181818;stroke-width:0.6;"/><text fill="#000000" font-family="sans-serif" font-size="7.8" lengthAdjust="spacing" textLength="16.8" x="523.8" y="150.0252">uses</text><text fill="#000000" font-family="sans-serif" font-size="7.8" lengthAdjust="spacing" textLength="4.2" x="518.8261" y="134.7795">1</text><text fill="#000000" font-family="sans-serif" font-size="7.8" lengthAdjust="spacing" textLength="4.2" x="518.7178" y="177.4081">1</text></g><!--link CreateEntryToAgendaController to Repositorie--><g id="link_CreateEntryToAgendaController_Repositorie"><path codeLine="62" d="M543.576,246.6922 C560.784,272.6002 583.4646,306.7532 601.6206,334.0952 " fill="none" id="CreateEntryToAgendaController-to-Repositorie" style="stroke:#181818;stroke-width:0.6;stroke-dasharray:7.0,7.0;"/><polygon fill="#181818" points="603.612,337.0942,602.6242,331.268,601.9525,334.595,598.6255,333.9233,603.612,337.0942" style="stroke:#181818;stroke-width:0.6;"/><text fill="#000000" font-family="sans-serif" font-size="7.8" lengthAdjust="spacing" textLength="57.6" x="563.4" y="274.8252">gets repositories</text></g><!--link Repositorie to Repositorie--><g id="link_Repositorie_Repositorie"><path codeLine="63" d="M721.35,359.0782 C733.878,361.5742 742.2,366.4822 742.2,373.8082 C742.2,381.1342 737.4086,385.3388 724.8806,387.8348 " fill="none" id="Repositorie-to-Repositorie" style="stroke:#181818;stroke-width:0.6;"/><polygon fill="#181818" points="721.35,388.5382,727.1149,389.8368,724.2922,387.952,726.177,385.1293,721.35,388.5382" style="stroke:#181818;stroke-width:0.6;"/><text fill="#000000" font-family="sans-serif" font-size="7.8" lengthAdjust="spacing" textLength="29.4" x="745.8" y="377.1252">instance</text></g><!--link Repositorie to ToDoListRepository--><g id="link_Repositorie_ToDoListRepository"><path codeLine="64" d="M618.144,410.5882 C611.286,436.8022 603.1898,467.7651 597.6338,489.0351 " fill="none" id="Repositorie-to-ToDoListRepository" style="stroke:#181818;stroke-width:0.6;"/><polygon fill="#181818" points="596.724,492.5182,600.4108,487.9001,597.4822,489.6156,595.7667,486.6869,596.724,492.5182" style="stroke:#181818;stroke-width:0.6;"/><text fill="#000000" font-family="sans-serif" font-size="7.8" lengthAdjust="spacing" textLength="66" x="605.4" y="466.8252">toDoListRepository</text><text fill="#000000" font-family="sans-serif" font-size="7.8" lengthAdjust="spacing" textLength="4.2" x="612.6078" y="423.8409">1</text><text fill="#000000" font-family="sans-serif" font-size="7.8" lengthAdjust="spacing" textLength="4.2" x="593.1193" y="485.7958">1</text></g><!--link Repositorie to AgendaRepository--><g id="link_Repositorie_AgendaRepository"><path codeLine="65" d="M659.13,410.5882 C680.1,434.6542 704.7468,462.9362 723.3768,484.3142 " fill="none" id="Repositorie-to-AgendaRepository" style="stroke:#181818;stroke-width:0.6;"/><polygon fill="#181818" points="725.742,487.0282,724.0036,481.3804,723.771,484.7665,720.3849,484.5339,725.742,487.0282" style="stroke:#181818;stroke-width:0.6;"/><text fill="#000000" font-family="sans-serif" font-size="7.8" lengthAdjust="spacing" textLength="62.4" x="709.2" y="466.8252">agendaRepository</text><text fill="#000000" font-family="sans-serif" font-size="7.8" lengthAdjust="spacing" textLength="4.2" x="658.3328" y="423.8409">1</text><text fill="#000000" font-family="sans-serif" font-size="7.8" lengthAdjust="spacing" textLength="4.2" x="717.8734" y="480.5343">1</text></g><!--link CreateEntryToAgendaController to Entry--><g id="link_CreateEntryToAgendaController_Entry"><path codeLine="67" d="M454.956,246.6262 C432.048,256.9042 412.2,265.8082 412.2,265.8082 C412.2,265.8082 385.9476,283.9515 352.8516,306.8235 " fill="none" id="CreateEntryToAgendaController-to-Entry" style="stroke:#181818;stroke-width:0.6;stroke-dasharray:7.0,7.0;"/><polygon fill="#181818" points="349.89,308.8702,355.6969,307.7746,352.358,307.1646,352.9679,303.8258,349.89,308.8702" style="stroke:#181818;stroke-width:0.6;"/><text fill="#000000" font-family="sans-serif" font-size="7.8" lengthAdjust="spacing" textLength="57.6" x="412.8" y="274.8252">create new entry</text></g><!--link Entry to CreateEntryToAgendaController--><g id="link_Entry_CreateEntryToAgendaController"><path codeLine="68" d="M401.724,308.9722 C441.252,291.4582 473.4,277.2082 473.4,277.2082 C473.4,277.2082 483.4817,264.8205 495.8837,249.5805 " fill="none" id="Entry-to-CreateEntryToAgendaController" style="stroke:#181818;stroke-width:0.6;"/><polygon fill="#181818" points="498.156,246.7882,492.8861,249.4617,496.2624,249.1151,496.6091,252.4915,498.156,246.7882" style="stroke:#181818;stroke-width:0.6;"/><text fill="#000000" font-family="sans-serif" font-size="7.8" lengthAdjust="spacing" textLength="32.4" x="481.8" y="274.8252">newEntry</text></g><!--link CreateEntryToAgendaController to AgendaRepository--><g id="link_CreateEntryToAgendaController_AgendaRepository"><path codeLine="69" d="M642.114,246.6442 C709.074,263.8942 779.4,282.0082 779.4,282.0082 C779.4,282.0082 779.4,453.0082 779.4,453.0082 C779.4,453.0082 777,469.2082 777,469.2082 C777,469.2082 773.2031,474.7466 766.7351,484.1846 " fill="none" id="CreateEntryToAgendaController-to-AgendaRepository" style="stroke:#181818;stroke-width:0.6;stroke-dasharray:7.0,7.0;"/><polygon fill="#181818" points="764.7,487.1542,769.7324,484.0566,766.3959,484.6796,765.7729,481.3431,764.7,487.1542" style="stroke:#181818;stroke-width:0.6;"/><text fill="#000000" font-family="sans-serif" font-size="7.8" lengthAdjust="spacing" textLength="47.4" x="780" y="377.1252">add newEntry</text></g><!--SRC=[nLJRRjim37ttLn1zIh6cs5w3m43GT5k0OXZcx0DKcNE4of8doGYyOFy-sbOL-T8sUse293Pvg4CTNkoJK1Kph8HIAyqFHfS8pjIOsE2f67zY1MQkaGW6kMEga3707bYkZq8Ly8j96tkaKEYQ2g7IicbV8X-NpDgDSqOyrWvtNAjC_47uc2JVUqAuqyePBIKQMAy_QvcZITDJqWN2dK7cy9uGpLvl2bGvY_2d1EYp1AUt-a5OzmChRONJfe4Lx2T6ZsRTCGFiPcJga1-0JzaN6Ls5D52in1lmBpbQRaJbX5R1LXl2ysQBXK522kKWhmthCL_8fZAI7A48ZpVme3cJMwA4d7xwe8EkpNNobxxFWltSNIOKuKx-8gPMY-ldP_nTetL4muBDre-b69eyh3rHe9s9nh4jSymuklfNodZHftokybQNJAYPnBkKGoKZTOUMIEAXOw2pTyLYUzEiuiEJh6EkjjvsBWMs2RPFqU5jKVpbk_pVgIi6RH6wbyeretFa3ch78Q6Q1RgT8YqKfmhJRCIWCsGwNHtuXQ7hGiP3rWLC9ky_hZGb2mtVqaaPcfU8Mk2wArRQj-Q59EC4vod2UXXJzLYMvz_msBUAdupvWRtwT0NBPThzlxxxLb1RAiZheDlRT53uLPkrfO6DIXhxM-eXNlXM6C3YBFTpktUwa5-CtqotyNX19nVSibyZAx-oGU6n7zoaTxHiR-cfV8KkO9jBEi_F9_m3]--></g></svg>