<?xml version="1.0" encoding="us-ascii" standalone="no"?><svg xmlns="http://www.w3.org/2000/svg" xmlns:xlink="http://www.w3.org/1999/xlink" contentStyleType="text/css" height="1293px" preserveAspectRatio="none" style="width:1726px;height:1293px;background:#FFFFFF;" version="1.1" viewBox="0 0 1726 1293" width="1726px" zoomAndPan="magnify"><defs/><g><rect fill="#FFFFFF" height="1099.2246" style="stroke:#181818;stroke-width:1.0;" width="10" x="78.5" y="93.6211"/><rect fill="#FFFFFF" height="664.1504" style="stroke:#181818;stroke-width:1.0;" width="10" x="381.5" y="171.4941"/><rect fill="#FFFFFF" height="219.0371" style="stroke:#181818;stroke-width:1.0;" width="10" x="381.5" y="973.8086"/><rect fill="#FFFFFF" height="283.9492" style="stroke:#181818;stroke-width:1.0;" width="10" x="575.5" y="212.7852"/><rect fill="#FFFFFF" height="325.9102" style="stroke:#181818;stroke-width:1.0;" width="10" x="575.5" y="835.6445"/><rect fill="#FFFFFF" height="31.291" style="stroke:#181818;stroke-width:1.0;" width="10" x="768.5" y="246.4063"/><rect fill="#FFFFFF" height="31.291" style="stroke:#181818;stroke-width:1.0;" width="10" x="768.5" y="308.9883"/><rect fill="#FFFFFF" height="31.291" style="stroke:#181818;stroke-width:1.0;" width="10" x="875.5" y="371.5703"/><rect fill="#FFFFFF" height="31.291" style="stroke:#181818;stroke-width:1.0;" width="10" x="1001.5" y="1098.9727"/><rect fill="#FFFFFF" height="31.291" style="stroke:#181818;stroke-width:1.0;" width="10" x="1150.5" y="434.1523"/><rect fill="#FFFFFF" height="75.582" style="stroke:#181818;stroke-width:1.0;" width="10" x="1634.5" y="866.9355"/><line style="stroke:#181818;stroke-width:0.5;stroke-dasharray:5.0,5.0;" x1="83" x2="83" y1="83.6211" y2="1210.8457"/><line style="stroke:#181818;stroke-width:0.5;stroke-dasharray:5.0,5.0;" x1="386.5" x2="386.5" y1="83.6211" y2="1210.8457"/><line style="stroke:#181818;stroke-width:0.5;stroke-dasharray:5.0,5.0;" x1="580.5" x2="580.5" y1="211.3047" y2="1210.8457"/><line style="stroke:#181818;stroke-width:0.5;stroke-dasharray:5.0,5.0;" x1="773" x2="773" y1="83.6211" y2="1210.8457"/><line style="stroke:#181818;stroke-width:0.5;stroke-dasharray:5.0,5.0;" x1="880" x2="880" y1="83.6211" y2="1210.8457"/><line style="stroke:#181818;stroke-width:0.5;stroke-dasharray:5.0,5.0;" x1="1006" x2="1006" y1="83.6211" y2="1210.8457"/><line style="stroke:#181818;stroke-width:0.5;stroke-dasharray:5.0,5.0;" x1="1155" x2="1155" y1="83.6211" y2="1210.8457"/><line style="stroke:#181818;stroke-width:0.5;stroke-dasharray:5.0,5.0;" x1="1325" x2="1325" y1="83.6211" y2="1210.8457"/><line style="stroke:#181818;stroke-width:0.5;stroke-dasharray:5.0,5.0;" x1="1471" x2="1471" y1="83.6211" y2="1210.8457"/><line style="stroke:#181818;stroke-width:0.5;stroke-dasharray:5.0,5.0;" x1="1567" x2="1567" y1="83.6211" y2="1210.8457"/><line style="stroke:#181818;stroke-width:0.5;stroke-dasharray:5.0,5.0;" x1="1639" x2="1639" y1="83.6211" y2="1210.8457"/><text fill="#000000" font-family="sans-serif" font-size="14" lengthAdjust="spacing" textLength="151" x="5" y="80.1074">Green Spaces Manager</text><ellipse cx="83.5" cy="13.5" fill="#E3E3E3" rx="8" ry="8" style="stroke:#181818;stroke-width:0.5;"/><path d="M83.5,21.5 L83.5,48.5 M70.5,29.5 L96.5,29.5 M83.5,48.5 L70.5,63.5 M83.5,48.5 L96.5,63.5 " fill="none" style="stroke:#181818;stroke-width:0.5;"/><text fill="#000000" font-family="sans-serif" font-size="14" lengthAdjust="spacing" textLength="151" x="5" y="1224.9531">Green Spaces Manager</text><ellipse cx="83.5" cy="1236.9668" fill="#E3E3E3" rx="8" ry="8" style="stroke:#181818;stroke-width:0.5;"/><path d="M83.5,1244.9668 L83.5,1271.9668 M70.5,1252.9668 L96.5,1252.9668 M83.5,1271.9668 L70.5,1286.9668 M83.5,1271.9668 L96.5,1286.9668 " fill="none" style="stroke:#181818;stroke-width:0.5;"/><rect fill="#E3E3E3" height="32.6211" rx="2.5" ry="2.5" style="stroke:#181818;stroke-width:0.5;" width="172" x="300.5" y="50"/><text fill="#000000" font-family="sans-serif" font-size="14" lengthAdjust="spacing" textLength="158" x="307.5" y="72.1074">:CreateEntryToAgendaUI</text><rect fill="#E3E3E3" height="32.6211" rx="2.5" ry="2.5" style="stroke:#181818;stroke-width:0.5;" width="172" x="300.5" y="1209.8457"/><text fill="#000000" font-family="sans-serif" font-size="14" lengthAdjust="spacing" textLength="158" x="307.5" y="1231.9531">:CreateEntryToAgendaUI</text><rect fill="#E3E3E3" height="32.6211" rx="2.5" ry="2.5" style="stroke:#181818;stroke-width:0.5;" width="156" x="502.5" y="1209.8457"/><text fill="#000000" font-family="sans-serif" font-size="14" lengthAdjust="spacing" textLength="142" x="509.5" y="1231.9531">:CreateEntryController</text><rect fill="#E3E3E3" height="32.6211" rx="2.5" ry="2.5" style="stroke:#181818;stroke-width:0.5;" width="97" x="725" y="50"/><text fill="#000000" font-family="sans-serif" font-size="14" lengthAdjust="spacing" textLength="83" x="732" y="72.1074">:Repositories</text><rect fill="#E3E3E3" height="32.6211" rx="2.5" ry="2.5" style="stroke:#181818;stroke-width:0.5;" width="97" x="725" y="1209.8457"/><text fill="#000000" font-family="sans-serif" font-size="14" lengthAdjust="spacing" textLength="83" x="732" y="1231.9531">:Repositories</text><rect fill="#E3E3E3" height="51.2422" rx="2.5" ry="2.5" style="stroke:#181818;stroke-width:0.5;" width="97" x="832" y="31.3789"/><text fill="#000000" font-family="sans-serif" font-size="14" lengthAdjust="spacing" textLength="74" x="843.5" y="53.4863">repositories</text><text fill="#000000" font-family="sans-serif" font-size="14" lengthAdjust="spacing" textLength="83" x="839" y="72.1074">:Repositories</text><rect fill="#E3E3E3" height="51.2422" rx="2.5" ry="2.5" style="stroke:#181818;stroke-width:0.5;" width="97" x="832" y="1209.8457"/><text fill="#000000" font-family="sans-serif" font-size="14" lengthAdjust="spacing" textLength="74" x="843.5" y="1231.9531">repositories</text><text fill="#000000" font-family="sans-serif" font-size="14" lengthAdjust="spacing" textLength="83" x="839" y="1250.5742">:Repositories</text><rect fill="#E3E3E3" height="51.2422" rx="2.5" ry="2.5" style="stroke:#181818;stroke-width:0.5;" width="135" x="939" y="31.3789"/><text fill="#000000" font-family="sans-serif" font-size="14" lengthAdjust="spacing" textLength="117" x="948" y="53.4863">AgendaRepository</text><text fill="#000000" font-family="sans-serif" font-size="14" lengthAdjust="spacing" textLength="121" x="946" y="72.1074">:AgendaRepository</text><rect fill="#E3E3E3" height="51.2422" rx="2.5" ry="2.5" style="stroke:#181818;stroke-width:0.5;" width="135" x="939" y="1209.8457"/><text fill="#000000" font-family="sans-serif" font-size="14" lengthAdjust="spacing" textLength="117" x="948" y="1231.9531">AgendaRepository</text><text fill="#000000" font-family="sans-serif" font-size="14" lengthAdjust="spacing" textLength="121" x="946" y="1250.5742">:AgendaRepository</text><rect fill="#E3E3E3" height="51.2422" rx="2.5" ry="2.5" style="stroke:#181818;stroke-width:0.5;" width="143" x="1084" y="31.3789"/><text fill="#000000" font-family="sans-serif" font-size="14" lengthAdjust="spacing" textLength="120" x="1095.5" y="53.4863">toDoListRepository</text><text fill="#000000" font-family="sans-serif" font-size="14" lengthAdjust="spacing" textLength="129" x="1091" y="72.1074">:ToDoListRepository</text><rect fill="#E3E3E3" height="51.2422" rx="2.5" ry="2.5" style="stroke:#181818;stroke-width:0.5;" width="143" x="1084" y="1209.8457"/><text fill="#000000" font-family="sans-serif" font-size="14" lengthAdjust="spacing" textLength="120" x="1095.5" y="1231.9531">toDoListRepository</text><text fill="#000000" font-family="sans-serif" font-size="14" lengthAdjust="spacing" textLength="129" x="1091" y="1250.5742">:ToDoListRepository</text><rect fill="#E3E3E3" height="51.2422" rx="2.5" ry="2.5" style="stroke:#181818;stroke-width:0.5;" width="176" x="1237" y="31.3789"/><text fill="#000000" font-family="sans-serif" font-size="14" lengthAdjust="spacing" textLength="157" x="1246.5" y="53.4863">authenticationRepository</text><text fill="#000000" font-family="sans-serif" font-size="14" lengthAdjust="spacing" textLength="162" x="1244" y="72.1074">:AuthenticationRepository</text><rect fill="#E3E3E3" height="51.2422" rx="2.5" ry="2.5" style="stroke:#181818;stroke-width:0.5;" width="176" x="1237" y="1209.8457"/><text fill="#000000" font-family="sans-serif" font-size="14" lengthAdjust="spacing" textLength="157" x="1246.5" y="1231.9531">authenticationRepository</text><text fill="#000000" font-family="sans-serif" font-size="14" lengthAdjust="spacing" textLength="162" x="1244" y="1250.5742">:AuthenticationRepository</text><rect fill="#E3E3E3" height="51.2422" rx="2.5" ry="2.5" style="stroke:#181818;stroke-width:0.5;" width="97" x="1423" y="31.3789"/><text fill="#000000" font-family="sans-serif" font-size="14" lengthAdjust="spacing" textLength="78" x="1432.5" y="53.4863">userSession</text><text fill="#000000" font-family="sans-serif" font-size="14" lengthAdjust="spacing" textLength="83" x="1430" y="72.1074">:UserSession</text><rect fill="#E3E3E3" height="51.2422" rx="2.5" ry="2.5" style="stroke:#181818;stroke-width:0.5;" width="97" x="1423" y="1209.8457"/><text fill="#000000" font-family="sans-serif" font-size="14" lengthAdjust="spacing" textLength="78" x="1432.5" y="1231.9531">userSession</text><text fill="#000000" font-family="sans-serif" font-size="14" lengthAdjust="spacing" textLength="83" x="1430" y="1250.5742">:UserSession</text><rect fill="#E3E3E3" height="32.6211" rx="2.5" ry="2.5" style="stroke:#181818;stroke-width:0.5;" width="74" x="1530" y="50"/><text fill="#000000" font-family="sans-serif" font-size="14" lengthAdjust="spacing" textLength="60" x="1537" y="72.1074">:Manager</text><rect fill="#E3E3E3" height="32.6211" rx="2.5" ry="2.5" style="stroke:#181818;stroke-width:0.5;" width="74" x="1530" y="1209.8457"/><text fill="#000000" font-family="sans-serif" font-size="14" lengthAdjust="spacing" textLength="60" x="1537" y="1231.9531">:Manager</text><rect fill="#E3E3E3" height="32.6211" rx="2.5" ry="2.5" style="stroke:#181818;stroke-width:0.5;" width="51" x="1614" y="50"/><text fill="#000000" font-family="sans-serif" font-size="14" lengthAdjust="spacing" textLength="37" x="1621" y="72.1074">:Entry</text><rect fill="#E3E3E3" height="32.6211" rx="2.5" ry="2.5" style="stroke:#181818;stroke-width:0.5;" width="51" x="1614" y="1209.8457"/><text fill="#000000" font-family="sans-serif" font-size="14" lengthAdjust="spacing" textLength="37" x="1621" y="1231.9531">:Entry</text><rect fill="#FFFFFF" height="1099.2246" style="stroke:#181818;stroke-width:1.0;" width="10" x="78.5" y="93.6211"/><rect fill="#FFFFFF" height="664.1504" style="stroke:#181818;stroke-width:1.0;" width="10" x="381.5" y="171.4941"/><rect fill="#FFFFFF" height="219.0371" style="stroke:#181818;stroke-width:1.0;" width="10" x="381.5" y="973.8086"/><rect fill="#FFFFFF" height="283.9492" style="stroke:#181818;stroke-width:1.0;" width="10" x="575.5" y="212.7852"/><rect fill="#FFFFFF" height="325.9102" style="stroke:#181818;stroke-width:1.0;" width="10" x="575.5" y="835.6445"/><rect fill="#FFFFFF" height="31.291" style="stroke:#181818;stroke-width:1.0;" width="10" x="768.5" y="246.4063"/><rect fill="#FFFFFF" height="31.291" style="stroke:#181818;stroke-width:1.0;" width="10" x="768.5" y="308.9883"/><rect fill="#FFFFFF" height="31.291" style="stroke:#181818;stroke-width:1.0;" width="10" x="875.5" y="371.5703"/><rect fill="#FFFFFF" height="31.291" style="stroke:#181818;stroke-width:1.0;" width="10" x="1001.5" y="1098.9727"/><rect fill="#FFFFFF" height="31.291" style="stroke:#181818;stroke-width:1.0;" width="10" x="1150.5" y="434.1523"/><rect fill="#FFFFFF" height="75.582" style="stroke:#181818;stroke-width:1.0;" width="10" x="1634.5" y="866.9355"/><path d="M778,98.6211 L778,142.6211 L875,142.6211 L875,108.6211 L865,98.6211 L778,98.6211 " fill="#FAFAFA" style="stroke:#181818;stroke-width:0.5;"/><path d="M865,98.6211 L865,108.6211 L875,108.6211 L865,98.6211 " fill="#FAFAFA" style="stroke:#181818;stroke-width:0.5;"/><text fill="#000000" font-family="sans-serif" font-size="13" lengthAdjust="spacing" textLength="76" x="784" y="117.6494">- Singleton is</text><text fill="#000000" font-family="sans-serif" font-size="13" lengthAdjust="spacing" textLength="35" x="784" y="134.9404">in use</text><polygon fill="#181818" points="369.5,167.4941,379.5,171.4941,369.5,175.4941,373.5,171.4941" style="stroke:#181818;stroke-width:1.0;"/><line style="stroke:#181818;stroke-width:1.0;" x1="88.5" x2="375.5" y1="171.4941" y2="171.4941"/><text fill="#000000" font-family="sans-serif" font-size="13" font-weight="bold" lengthAdjust="spacing" textLength="7" x="95.5" y="166.2314">1</text><text fill="#000000" font-family="sans-serif" font-size="13" lengthAdjust="spacing" textLength="202" x="106.5" y="166.2314">asks to add an entry to the agenda</text><polygon fill="#181818" points="490.5,198.7852,500.5,202.7852,490.5,206.7852,494.5,202.7852" style="stroke:#181818;stroke-width:1.0;"/><line style="stroke:#181818;stroke-width:1.0;" x1="391.5" x2="496.5" y1="202.7852" y2="202.7852"/><text fill="#000000" font-family="sans-serif" font-size="13" font-weight="bold" lengthAdjust="spacing" textLength="7" x="398.5" y="197.5225">2</text><text fill="#000000" font-family="sans-serif" font-size="13" lengthAdjust="spacing" textLength="36" x="409.5" y="197.5225">create</text><rect fill="#E3E3E3" height="32.6211" rx="2.5" ry="2.5" style="stroke:#181818;stroke-width:0.5;" width="156" x="502.5" y="179.4941"/><text fill="#000000" font-family="sans-serif" font-size="14" lengthAdjust="spacing" textLength="142" x="509.5" y="201.6016">:CreateEntryController</text><polygon fill="#181818" points="756.5,242.4063,766.5,246.4063,756.5,250.4063,760.5,246.4063" style="stroke:#181818;stroke-width:1.0;"/><line style="stroke:#181818;stroke-width:1.0;" x1="585.5" x2="762.5" y1="246.4063" y2="246.4063"/><text fill="#000000" font-family="sans-serif" font-size="13" font-weight="bold" lengthAdjust="spacing" textLength="7" x="592.5" y="241.1436">3</text><text fill="#000000" font-family="sans-serif" font-size="13" lengthAdjust="spacing" textLength="75" x="603.5" y="241.1436">getInstance()</text><polygon fill="#181818" points="596.5,273.6973,586.5,277.6973,596.5,281.6973,592.5,277.6973" style="stroke:#181818;stroke-width:1.0;"/><line style="stroke:#181818;stroke-width:1.0;stroke-dasharray:2.0,2.0;" x1="590.5" x2="772.5" y1="277.6973" y2="277.6973"/><text fill="#000000" font-family="sans-serif" font-size="13" font-weight="bold" lengthAdjust="spacing" textLength="7" x="602.5" y="272.4346">4</text><text fill="#000000" font-family="sans-serif" font-size="13" lengthAdjust="spacing" textLength="67" x="613.5" y="272.4346">repositories</text><polygon fill="#181818" points="756.5,304.9883,766.5,308.9883,756.5,312.9883,760.5,308.9883" style="stroke:#181818;stroke-width:1.0;"/><line style="stroke:#181818;stroke-width:1.0;" x1="585.5" x2="762.5" y1="308.9883" y2="308.9883"/><text fill="#000000" font-family="sans-serif" font-size="13" font-weight="bold" lengthAdjust="spacing" textLength="7" x="592.5" y="303.7256">5</text><text fill="#000000" font-family="sans-serif" font-size="13" lengthAdjust="spacing" textLength="153" x="603.5" y="303.7256">getManagerFromSession()</text><polygon fill="#181818" points="596.5,336.2793,586.5,340.2793,596.5,344.2793,592.5,340.2793" style="stroke:#181818;stroke-width:1.0;"/><line style="stroke:#181818;stroke-width:1.0;stroke-dasharray:2.0,2.0;" x1="590.5" x2="772.5" y1="340.2793" y2="340.2793"/><text fill="#000000" font-family="sans-serif" font-size="13" font-weight="bold" lengthAdjust="spacing" textLength="7" x="602.5" y="335.0166">6</text><text fill="#000000" font-family="sans-serif" font-size="13" lengthAdjust="spacing" textLength="50" x="613.5" y="335.0166">manager</text><polygon fill="#181818" points="863.5,367.5703,873.5,371.5703,863.5,375.5703,867.5,371.5703" style="stroke:#181818;stroke-width:1.0;"/><line style="stroke:#181818;stroke-width:1.0;" x1="585.5" x2="869.5" y1="371.5703" y2="371.5703"/><text fill="#000000" font-family="sans-serif" font-size="13" font-weight="bold" lengthAdjust="spacing" textLength="7" x="592.5" y="366.3076">7</text><text fill="#000000" font-family="sans-serif" font-size="13" lengthAdjust="spacing" textLength="137" x="603.5" y="366.3076">getTodoListRepository()</text><polygon fill="#181818" points="596.5,398.8613,586.5,402.8613,596.5,406.8613,592.5,402.8613" style="stroke:#181818;stroke-width:1.0;"/><line style="stroke:#181818;stroke-width:1.0;stroke-dasharray:2.0,2.0;" x1="590.5" x2="879.5" y1="402.8613" y2="402.8613"/><text fill="#000000" font-family="sans-serif" font-size="13" font-weight="bold" lengthAdjust="spacing" textLength="7" x="602.5" y="397.5986">8</text><text fill="#000000" font-family="sans-serif" font-size="13" lengthAdjust="spacing" textLength="71" x="613.5" y="397.5986">toDoListRep</text><polygon fill="#181818" points="1138.5,430.1523,1148.5,434.1523,1138.5,438.1523,1142.5,434.1523" style="stroke:#181818;stroke-width:1.0;"/><line style="stroke:#181818;stroke-width:1.0;" x1="585.5" x2="1144.5" y1="434.1523" y2="434.1523"/><text fill="#000000" font-family="sans-serif" font-size="13" font-weight="bold" lengthAdjust="spacing" textLength="7" x="592.5" y="428.8896">9</text><text fill="#000000" font-family="sans-serif" font-size="13" lengthAdjust="spacing" textLength="82" x="603.5" y="428.8896">getAllEntries()</text><polygon fill="#181818" points="596.5,461.4434,586.5,465.4434,596.5,469.4434,592.5,465.4434" style="stroke:#181818;stroke-width:1.0;"/><line style="stroke:#181818;stroke-width:1.0;stroke-dasharray:2.0,2.0;" x1="590.5" x2="1154.5" y1="465.4434" y2="465.4434"/><text fill="#000000" font-family="sans-serif" font-size="13" font-weight="bold" lengthAdjust="spacing" textLength="14" x="602.5" y="460.1807">10</text><text fill="#000000" font-family="sans-serif" font-size="13" lengthAdjust="spacing" textLength="39" x="620.5" y="460.1807">entries</text><polygon fill="#181818" points="402.5,492.7344,392.5,496.7344,402.5,500.7344,398.5,496.7344" style="stroke:#181818;stroke-width:1.0;"/><line style="stroke:#181818;stroke-width:1.0;stroke-dasharray:2.0,2.0;" x1="396.5" x2="579.5" y1="496.7344" y2="496.7344"/><text fill="#000000" font-family="sans-serif" font-size="13" font-weight="bold" lengthAdjust="spacing" textLength="14" x="408.5" y="491.4717">11</text><text fill="#000000" font-family="sans-serif" font-size="13" lengthAdjust="spacing" textLength="39" x="426.5" y="491.4717">entries</text><polygon fill="#181818" points="99.5,524.0254,89.5,528.0254,99.5,532.0254,95.5,528.0254" style="stroke:#181818;stroke-width:1.0;"/><line style="stroke:#181818;stroke-width:1.0;stroke-dasharray:2.0,2.0;" x1="93.5" x2="380.5" y1="528.0254" y2="528.0254"/><text fill="#000000" font-family="sans-serif" font-size="13" font-weight="bold" lengthAdjust="spacing" textLength="14" x="105.5" y="522.7627">12</text><text fill="#000000" font-family="sans-serif" font-size="13" lengthAdjust="spacing" textLength="251" x="123.5" y="522.7627">shows list of entries and asks to select one</text><polygon fill="#181818" points="369.5,555.3164,379.5,559.3164,369.5,563.3164,373.5,559.3164" style="stroke:#181818;stroke-width:1.0;"/><line style="stroke:#181818;stroke-width:1.0;" x1="88.5" x2="375.5" y1="559.3164" y2="559.3164"/><text fill="#000000" font-family="sans-serif" font-size="13" font-weight="bold" lengthAdjust="spacing" textLength="14" x="95.5" y="554.0537">13</text><text fill="#000000" font-family="sans-serif" font-size="13" lengthAdjust="spacing" textLength="75" x="113.5" y="554.0537">selects entry</text><polygon fill="#181818" points="99.5,586.6074,89.5,590.6074,99.5,594.6074,95.5,590.6074" style="stroke:#181818;stroke-width:1.0;"/><line style="stroke:#181818;stroke-width:1.0;stroke-dasharray:2.0,2.0;" x1="93.5" x2="380.5" y1="590.6074" y2="590.6074"/><text fill="#000000" font-family="sans-serif" font-size="13" font-weight="bold" lengthAdjust="spacing" textLength="14" x="105.5" y="585.3447">14</text><text fill="#000000" font-family="sans-serif" font-size="13" lengthAdjust="spacing" textLength="122" x="123.5" y="585.3447">asks to select a date</text><line style="stroke:#181818;stroke-width:1.0;" x1="391.5" x2="433.5" y1="621.8984" y2="621.8984"/><line style="stroke:#181818;stroke-width:1.0;" x1="433.5" x2="433.5" y1="621.8984" y2="634.8984"/><line style="stroke:#181818;stroke-width:1.0;" x1="392.5" x2="433.5" y1="634.8984" y2="634.8984"/><polygon fill="#181818" points="402.5,630.8984,392.5,634.8984,402.5,638.8984,398.5,634.8984" style="stroke:#181818;stroke-width:1.0;"/><text fill="#000000" font-family="sans-serif" font-size="13" font-weight="bold" lengthAdjust="spacing" textLength="14" x="398.5" y="616.6357">15</text><text fill="#000000" font-family="sans-serif" font-size="13" lengthAdjust="spacing" textLength="79" x="416.5" y="616.6357">validates date</text><polygon fill="#181818" points="369.5,662.1895,379.5,666.1895,369.5,670.1895,373.5,666.1895" style="stroke:#181818;stroke-width:1.0;"/><line style="stroke:#181818;stroke-width:1.0;" x1="88.5" x2="375.5" y1="666.1895" y2="666.1895"/><text fill="#000000" font-family="sans-serif" font-size="13" font-weight="bold" lengthAdjust="spacing" textLength="14" x="95.5" y="660.9268">16</text><text fill="#000000" font-family="sans-serif" font-size="13" lengthAdjust="spacing" textLength="115" x="113.5" y="660.9268">select date for entry</text><polygon fill="#181818" points="99.5,693.4805,89.5,697.4805,99.5,701.4805,95.5,697.4805" style="stroke:#181818;stroke-width:1.0;"/><line style="stroke:#181818;stroke-width:1.0;stroke-dasharray:2.0,2.0;" x1="93.5" x2="380.5" y1="697.4805" y2="697.4805"/><text fill="#000000" font-family="sans-serif" font-size="13" font-weight="bold" lengthAdjust="spacing" textLength="14" x="105.5" y="692.2178">17</text><text fill="#000000" font-family="sans-serif" font-size="13" lengthAdjust="spacing" textLength="170" x="123.5" y="692.2178">asks to type the starting hour</text><line style="stroke:#181818;stroke-width:1.0;" x1="391.5" x2="433.5" y1="728.7715" y2="728.7715"/><line style="stroke:#181818;stroke-width:1.0;" x1="433.5" x2="433.5" y1="728.7715" y2="741.7715"/><line style="stroke:#181818;stroke-width:1.0;" x1="392.5" x2="433.5" y1="741.7715" y2="741.7715"/><polygon fill="#181818" points="402.5,737.7715,392.5,741.7715,402.5,745.7715,398.5,741.7715" style="stroke:#181818;stroke-width:1.0;"/><text fill="#000000" font-family="sans-serif" font-size="13" font-weight="bold" lengthAdjust="spacing" textLength="14" x="398.5" y="723.5088">18</text><text fill="#000000" font-family="sans-serif" font-size="13" lengthAdjust="spacing" textLength="152" x="416.5" y="723.5088">Validates the starting hour</text><polygon fill="#181818" points="369.5,769.0625,379.5,773.0625,369.5,777.0625,373.5,773.0625" style="stroke:#181818;stroke-width:1.0;"/><line style="stroke:#181818;stroke-width:1.0;" x1="88.5" x2="375.5" y1="773.0625" y2="773.0625"/><text fill="#000000" font-family="sans-serif" font-size="13" font-weight="bold" lengthAdjust="spacing" textLength="14" x="95.5" y="767.7998">19</text><text fill="#000000" font-family="sans-serif" font-size="13" lengthAdjust="spacing" textLength="108" x="113.5" y="767.7998">types starting hour</text><polygon fill="#181818" points="99.5,800.3535,89.5,804.3535,99.5,808.3535,95.5,804.3535" style="stroke:#181818;stroke-width:1.0;"/><line style="stroke:#181818;stroke-width:1.0;stroke-dasharray:2.0,2.0;" x1="93.5" x2="380.5" y1="804.3535" y2="804.3535"/><text fill="#000000" font-family="sans-serif" font-size="13" font-weight="bold" lengthAdjust="spacing" textLength="14" x="105.5" y="799.0908">20</text><text fill="#000000" font-family="sans-serif" font-size="13" lengthAdjust="spacing" textLength="66" x="123.5" y="799.0908">shows data</text><polygon fill="#181818" points="563.5,831.6445,573.5,835.6445,563.5,839.6445,567.5,835.6445" style="stroke:#181818;stroke-width:1.0;"/><line style="stroke:#181818;stroke-width:1.0;" x1="386.5" x2="569.5" y1="835.6445" y2="835.6445"/><text fill="#000000" font-family="sans-serif" font-size="13" font-weight="bold" lengthAdjust="spacing" textLength="14" x="393.5" y="830.3818">21</text><text fill="#000000" font-family="sans-serif" font-size="13" lengthAdjust="spacing" textLength="128" x="411.5" y="830.3818">asks to add new entry</text><polygon fill="#181818" points="1622.5,862.9355,1632.5,866.9355,1622.5,870.9355,1626.5,866.9355" style="stroke:#181818;stroke-width:1.0;"/><line style="stroke:#181818;stroke-width:1.0;" x1="585.5" x2="1628.5" y1="866.9355" y2="866.9355"/><text fill="#000000" font-family="sans-serif" font-size="13" font-weight="bold" lengthAdjust="spacing" textLength="14" x="592.5" y="861.6729">22</text><text fill="#000000" font-family="sans-serif" font-size="13" lengthAdjust="spacing" textLength="85" x="610.5" y="861.6729">addNewEntry()</text><line style="stroke:#181818;stroke-width:1.0;" x1="1644.5" x2="1686.5" y1="898.2266" y2="898.2266"/><line style="stroke:#181818;stroke-width:1.0;" x1="1686.5" x2="1686.5" y1="898.2266" y2="911.2266"/><line style="stroke:#181818;stroke-width:1.0;" x1="1645.5" x2="1686.5" y1="911.2266" y2="911.2266"/><polygon fill="#181818" points="1655.5,907.2266,1645.5,911.2266,1655.5,915.2266,1651.5,911.2266" style="stroke:#181818;stroke-width:1.0;"/><text fill="#000000" font-family="sans-serif" font-size="13" font-weight="bold" lengthAdjust="spacing" textLength="14" x="1651.5" y="892.9639">23</text><text fill="#000000" font-family="sans-serif" font-size="13" lengthAdjust="spacing" textLength="50" x="1669.5" y="892.9639">validates</text><polygon fill="#181818" points="596.5,938.5176,586.5,942.5176,596.5,946.5176,592.5,942.5176" style="stroke:#181818;stroke-width:1.0;"/><line style="stroke:#181818;stroke-width:1.0;stroke-dasharray:2.0,2.0;" x1="590.5" x2="1638.5" y1="942.5176" y2="942.5176"/><text fill="#000000" font-family="sans-serif" font-size="13" font-weight="bold" lengthAdjust="spacing" textLength="14" x="602.5" y="937.2549">24</text><text fill="#000000" font-family="sans-serif" font-size="13" lengthAdjust="spacing" textLength="54" x="620.5" y="937.2549">newEntry</text><polygon fill="#181818" points="402.5,969.8086,392.5,973.8086,402.5,977.8086,398.5,973.8086" style="stroke:#181818;stroke-width:1.0;"/><line style="stroke:#181818;stroke-width:1.0;stroke-dasharray:2.0,2.0;" x1="396.5" x2="574.5" y1="973.8086" y2="973.8086"/><text fill="#000000" font-family="sans-serif" font-size="13" font-weight="bold" lengthAdjust="spacing" textLength="14" x="408.5" y="968.5459">25</text><text fill="#000000" font-family="sans-serif" font-size="13" lengthAdjust="spacing" textLength="54" x="426.5" y="968.5459">newEntry</text><polygon fill="#181818" points="99.5,1001.0996,89.5,1005.0996,99.5,1009.0996,95.5,1005.0996" style="stroke:#181818;stroke-width:1.0;"/><line style="stroke:#181818;stroke-width:1.0;stroke-dasharray:2.0,2.0;" x1="93.5" x2="380.5" y1="1005.0996" y2="1005.0996"/><text fill="#000000" font-family="sans-serif" font-size="13" font-weight="bold" lengthAdjust="spacing" textLength="14" x="105.5" y="999.8369">26</text><text fill="#000000" font-family="sans-serif" font-size="13" lengthAdjust="spacing" textLength="120" x="123.5" y="999.8369">asks for confirmation</text><polygon fill="#181818" points="369.5,1032.3906,379.5,1036.3906,369.5,1040.3906,373.5,1036.3906" style="stroke:#181818;stroke-width:1.0;"/><line style="stroke:#181818;stroke-width:1.0;" x1="88.5" x2="375.5" y1="1036.3906" y2="1036.3906"/><text fill="#000000" font-family="sans-serif" font-size="13" font-weight="bold" lengthAdjust="spacing" textLength="14" x="95.5" y="1031.1279">27</text><text fill="#000000" font-family="sans-serif" font-size="13" lengthAdjust="spacing" textLength="78" x="113.5" y="1031.1279">confirms data</text><polygon fill="#181818" points="563.5,1063.6816,573.5,1067.6816,563.5,1071.6816,567.5,1067.6816" style="stroke:#181818;stroke-width:1.0;"/><line style="stroke:#181818;stroke-width:1.0;" x1="391.5" x2="569.5" y1="1067.6816" y2="1067.6816"/><text fill="#000000" font-family="sans-serif" font-size="13" font-weight="bold" lengthAdjust="spacing" textLength="14" x="398.5" y="1062.4189">28</text><text fill="#000000" font-family="sans-serif" font-size="13" lengthAdjust="spacing" textLength="83" x="416.5" y="1062.4189">add new Entry</text><polygon fill="#181818" points="989.5,1094.9727,999.5,1098.9727,989.5,1102.9727,993.5,1098.9727" style="stroke:#181818;stroke-width:1.0;"/><line style="stroke:#181818;stroke-width:1.0;" x1="585.5" x2="995.5" y1="1098.9727" y2="1098.9727"/><text fill="#000000" font-family="sans-serif" font-size="13" font-weight="bold" lengthAdjust="spacing" textLength="14" x="592.5" y="1093.71">29</text><text fill="#000000" font-family="sans-serif" font-size="13" lengthAdjust="spacing" textLength="143" x="610.5" y="1093.71">addNewEntryToAgenda()</text><polygon fill="#181818" points="596.5,1126.2637,586.5,1130.2637,596.5,1134.2637,592.5,1130.2637" style="stroke:#181818;stroke-width:1.0;"/><line style="stroke:#181818;stroke-width:1.0;" x1="590.5" x2="1005.5" y1="1130.2637" y2="1130.2637"/><text fill="#000000" font-family="sans-serif" font-size="13" font-weight="bold" lengthAdjust="spacing" textLength="14" x="602.5" y="1125.001">30</text><text fill="#000000" font-family="sans-serif" font-size="13" lengthAdjust="spacing" textLength="112" x="620.5" y="1125.001">newEntryToAgenda</text><polygon fill="#181818" points="402.5,1157.5547,392.5,1161.5547,402.5,1165.5547,398.5,1161.5547" style="stroke:#181818;stroke-width:1.0;"/><line style="stroke:#181818;stroke-width:1.0;stroke-dasharray:2.0,2.0;" x1="396.5" x2="579.5" y1="1161.5547" y2="1161.5547"/><text fill="#000000" font-family="sans-serif" font-size="13" font-weight="bold" lengthAdjust="spacing" textLength="14" x="408.5" y="1156.292">31</text><text fill="#000000" font-family="sans-serif" font-size="13" lengthAdjust="spacing" textLength="112" x="426.5" y="1156.292">newEntryToAgenda</text><polygon fill="#181818" points="94.5,1188.8457,84.5,1192.8457,94.5,1196.8457,90.5,1192.8457" style="stroke:#181818;stroke-width:1.0;"/><line style="stroke:#181818;stroke-width:1.0;" x1="88.5" x2="385.5" y1="1192.8457" y2="1192.8457"/><text fill="#000000" font-family="sans-serif" font-size="13" font-weight="bold" lengthAdjust="spacing" textLength="14" x="100.5" y="1187.583">32</text><text fill="#000000" font-family="sans-serif" font-size="13" lengthAdjust="spacing" textLength="158" x="118.5" y="1187.583">displays success message</text><!--SRC=[fLRDRjim3BxhAOXUkXNe2-GmeEYoBi3Q3dMoqu12jPb4g2C5aj8iRpzAjcN9bjCLyo68HFBZ9_v9vbN8FTTy1pibLRdLQeTWzG6P2P8zBr_v1WjxgX4qbfRBJHqhc2slr5783QnvRP0nVh1A7dOlg1cxt8eAOQsKVL5_I5HQfU7YJYDAA0WQ3TnpIVZw0hY1k-AU4QeLfTXpQU5YTgkHMvnBgqzBTRD1MV7Lmkkk5jEgjuf-LLsti6LO3aoUSA-C84u2ZTSqmfsE-AUAEjBxBSTc94yD6gP1xqH6morloBlDrDogh-g7C3O1M8usFKIacu9G7hOeQSsjK3BbCY7oW3UhvVVdf_dFnnJkO50NQ0mP4CAgNpNPA9wUYtbHB1uV1Z6Eyxjh_WyqVCgytFzZz4bbgTh4Pcj1hQEi07tNK7Hh4CPl2Gb4Zr4imLaol-a-AZZnHbNXAoliqWAklr05mOoylheO0gygu1BGCN1h2b2RdJ4ObHv4tsNfAoykiqv4BiXHBxYw8fUD-XWsiW_2VezmGXm8P8Ds8GrrOucVFe-n-f05MMzzdN0YiBY-Wtw5vz0Y-p6pDkVVQA2qHK8SsV-oxAhd7OPiYYITig6tLDMWat8XT4qTTftjY53SUXbE2K1A9R9iADtKjIj-Yd-EIkmeI6EC4JLim7Aq4h0ilwutpe3aQjKLEvcwxfhHjQ2E1choupguHQ8EgqB76QpfEW4baULRir4mJK_ctCo6M1ogkBEQxlDORxmMJcPIZR4xBwSRIq-xZQQ6FUtHZmhgH1ffT0bkrK7d2FmA1ARLOpOEsGpqujBE19lWEKicKsu43MQUn6Dxqg5XbEt1m7jtQkMBtaztvxwg7l3eLr6nZu3dMLODI8GMCZkbEZozR7sVE_0ypVsv9fc4YwENpKfQJQxa27yjzCxVoYEJk3fQnO_alCrrdckQgF0gIPFLFS3E9Qr_q8nr0ch2hOzWXtykCJt-HtBpByYPspiDPvEhIfXzpK_KceUIdg_qfg4VOfKqPzewkMtt7laB]--></g></svg>