<?xml version="1.0" encoding="us-ascii" standalone="no"?><svg xmlns="http://www.w3.org/2000/svg" xmlns:xlink="http://www.w3.org/1999/xlink" contentStyleType="text/css" height="563px" preserveAspectRatio="none" style="width:632px;height:563px;background:#FFFFFF;" version="1.1" viewBox="0 0 632 563" width="632px" zoomAndPan="magnify"><defs/><g><!--cluster Controller--><g id="cluster_Controller"><path d="M91.75,135.0068 L127.75,135.0068 A1.875,1.875 0 0 1 129,136.2568 L132.5,147.3174 L564.25,147.3174 A1.25,1.25 0 0 1 565.5,148.5674 L565.5,212.2568 A1.25,1.25 0 0 1 564.25,213.5068 L91.75,213.5068 A1.25,1.25 0 0 1 90.5,212.2568 L90.5,136.2568 A1.25,1.25 0 0 1 91.75,135.0068 " fill="none" style="stroke:#000000;stroke-width:0.75;"/><line style="stroke:#000000;stroke-width:0.75;" x1="90.5" x2="132.5" y1="147.3174" y2="147.3174"/><text fill="#000000" font-family="sans-serif" font-size="7" font-weight="bold" lengthAdjust="spacing" textLength="35.5" x="92.5" y="143.5605">Controller</text></g><!--cluster UI--><g id="cluster_UI"><path d="M274.75,3.0068 L282.25,3.0068 A1.875,1.875 0 0 1 283.5,4.2568 L287,15.3174 L381.25,15.3174 A1.25,1.25 0 0 1 382.5,16.5674 L382.5,108.2568 A1.25,1.25 0 0 1 381.25,109.5068 L274.75,109.5068 A1.25,1.25 0 0 1 273.5,108.2568 L273.5,4.2568 A1.25,1.25 0 0 1 274.75,3.0068 " fill="none" style="stroke:#000000;stroke-width:0.75;"/><line style="stroke:#000000;stroke-width:0.75;" x1="273.5" x2="287" y1="15.3174" y2="15.3174"/><text fill="#000000" font-family="sans-serif" font-size="7" font-weight="bold" lengthAdjust="spacing" textLength="7" x="275.5" y="11.5605">UI</text></g><!--cluster Domain--><g id="cluster_Domain"><path d="M143.25,425.0068 L169.75,425.0068 A1.875,1.875 0 0 1 171,426.2568 L174.5,437.3174 L627.25,437.3174 A1.25,1.25 0 0 1 628.5,438.5674 L628.5,558.2568 A1.25,1.25 0 0 1 627.25,559.5068 L143.25,559.5068 A1.25,1.25 0 0 1 142,558.2568 L142,426.2568 A1.25,1.25 0 0 1 143.25,425.0068 " fill="none" style="stroke:#000000;stroke-width:0.75;"/><line style="stroke:#000000;stroke-width:0.75;" x1="142" x2="174.5" y1="437.3174" y2="437.3174"/><text fill="#000000" font-family="sans-serif" font-size="7" font-weight="bold" lengthAdjust="spacing" textLength="26" x="144" y="433.5605">Domain</text></g><!--cluster Repositories--><g id="cluster_Repositories"><path d="M4.25,239.0068 L49.75,239.0068 A1.875,1.875 0 0 1 51,240.2568 L54.5,251.3174 L375.75,251.3174 A1.25,1.25 0 0 1 377,252.5674 L377,407.2568 A1.25,1.25 0 0 1 375.75,408.5068 L4.25,408.5068 A1.25,1.25 0 0 1 3,407.2568 L3,240.2568 A1.25,1.25 0 0 1 4.25,239.0068 " fill="none" style="stroke:#000000;stroke-width:0.75;"/><line style="stroke:#000000;stroke-width:0.75;" x1="3" x2="54.5" y1="251.3174" y2="251.3174"/><text fill="#000000" font-family="sans-serif" font-size="7" font-weight="bold" lengthAdjust="spacing" textLength="45" x="5" y="247.5605">Repositories</text></g><!--class CreateEntryToAgendaController--><g id="elem_CreateEntryToAgendaController"><rect codeLine="8" fill="#F1F1F1" height="51.9316" id="CreateEntryToAgendaController" rx="1.25" ry="1.25" style="stroke:#181818;stroke-width:0.25;" width="459" x="98.5" y="153.5068"/><ellipse cx="274.875" cy="161.5068" fill="#C2C2C2" rx="5.5" ry="5.5" style="stroke:#181818;stroke-width:0.5;"/><path d="M276.2578,159.4443 Q276.3359,159.335 276.4297,159.2803 Q276.5234,159.2256 276.6328,159.2256 Q276.8203,159.2256 276.9375,159.3584 Q277.0547,159.4834 277.0547,159.7881 L277.0547,160.5146 Q277.0547,160.8193 276.9375,160.9521 Q276.8203,161.085 276.6328,161.085 Q276.4609,161.085 276.3594,160.9834 Q276.2578,160.8896 276.2031,160.6318 Q276.1797,160.4521 276.0859,160.3584 Q275.9219,160.1709 275.6172,160.0615 Q275.3125,159.9521 275,159.9521 Q274.6172,159.9521 274.2969,160.1162 Q273.9844,160.2803 273.7344,160.6553 Q273.4922,161.0303 273.4922,161.5459 L273.4922,162.0928 Q273.4922,162.71 273.9375,163.124 Q274.3828,163.5303 275.1797,163.5303 Q275.6484,163.5303 275.9766,163.4053 Q276.1719,163.3271 276.3828,163.1084 Q276.5156,162.9756 276.5859,162.9365 Q276.6641,162.8975 276.7656,162.8975 Q276.9297,162.8975 277.0547,163.0303 Q277.1875,163.1553 277.1875,163.3271 Q277.1875,163.499 277.0156,163.7021 Q276.7656,163.9912 276.3672,164.1553 Q275.8281,164.3818 275.1797,164.3818 Q274.4219,164.3818 273.8203,164.0693 Q273.3281,163.8193 272.9844,163.2881 Q272.6406,162.749 272.6406,162.1084 L272.6406,161.5303 Q272.6406,160.8662 272.9453,160.2959 Q273.2578,159.7178 273.8047,159.4131 Q274.3516,159.1006 274.9688,159.1006 Q275.3359,159.1006 275.6563,159.1865 Q275.9844,159.2646 276.2578,159.4443 Z " fill="#000000"/><text fill="#000000" font-family="sans-serif" font-size="7" lengthAdjust="spacing" textLength="102" x="285.125" y="164.4053">CreateEntryToAgendaController</text><line style="stroke:#181818;stroke-width:0.25;" x1="99" x2="557" y1="169.5068" y2="169.5068"/><text fill="#000000" font-family="sans-serif" font-size="7" lengthAdjust="spacing" textLength="131" x="101.5" y="179.0605">-toDoListRepository : ToDoListRepository</text><text fill="#000000" font-family="sans-serif" font-size="7" lengthAdjust="spacing" textLength="125" x="101.5" y="188.3711">-agendaRepository : AgendaRepository</text><line style="stroke:#181818;stroke-width:0.25;" x1="99" x2="557" y1="192.1279" y2="192.1279"/><text fill="#000000" font-family="sans-serif" font-size="7" lengthAdjust="spacing" textLength="453" x="101.5" y="201.6816">+createEntryToAgenda(String name, String description, String urgencyDegree, int duration, GreenSpace greenSpace, LocalDate date, int hour)</text></g><!--class CreateEntryToAgendaUI--><g id="elem_CreateEntryToAgendaUI"><rect codeLine="15" fill="#F1F1F1" height="79.8633" id="CreateEntryToAgendaUI" rx="1.25" ry="1.25" style="stroke:#181818;stroke-width:0.25;" width="93" x="281.5" y="21.5068"/><ellipse cx="289" cy="29.5068" fill="#C2C2C2" rx="5.5" ry="5.5" style="stroke:#181818;stroke-width:0.5;"/><path d="M290.3828,27.4443 Q290.4609,27.335 290.5547,27.2803 Q290.6484,27.2256 290.7578,27.2256 Q290.9453,27.2256 291.0625,27.3584 Q291.1797,27.4834 291.1797,27.7881 L291.1797,28.5146 Q291.1797,28.8193 291.0625,28.9521 Q290.9453,29.085 290.7578,29.085 Q290.5859,29.085 290.4844,28.9834 Q290.3828,28.8896 290.3281,28.6318 Q290.3047,28.4521 290.2109,28.3584 Q290.0469,28.1709 289.7422,28.0615 Q289.4375,27.9521 289.125,27.9521 Q288.7422,27.9521 288.4219,28.1162 Q288.1094,28.2803 287.8594,28.6553 Q287.6172,29.0303 287.6172,29.5459 L287.6172,30.0928 Q287.6172,30.71 288.0625,31.124 Q288.5078,31.5303 289.3047,31.5303 Q289.7734,31.5303 290.1016,31.4053 Q290.2969,31.3271 290.5078,31.1084 Q290.6406,30.9756 290.7109,30.9365 Q290.7891,30.8975 290.8906,30.8975 Q291.0547,30.8975 291.1797,31.0303 Q291.3125,31.1553 291.3125,31.3271 Q291.3125,31.499 291.1406,31.7021 Q290.8906,31.9912 290.4922,32.1553 Q289.9531,32.3818 289.3047,32.3818 Q288.5469,32.3818 287.9453,32.0693 Q287.4531,31.8193 287.1094,31.2881 Q286.7656,30.749 286.7656,30.1084 L286.7656,29.5303 Q286.7656,28.8662 287.0703,28.2959 Q287.3828,27.7178 287.9297,27.4131 Q288.4766,27.1006 289.0938,27.1006 Q289.4609,27.1006 289.7813,27.1865 Q290.1094,27.2646 290.3828,27.4443 Z " fill="#000000"/><text fill="#000000" font-family="sans-serif" font-size="7" lengthAdjust="spacing" textLength="77" x="296" y="32.4053">CreateEntryToAgendaUI</text><line style="stroke:#181818;stroke-width:0.25;" x1="282" x2="374" y1="37.5068" y2="37.5068"/><line style="stroke:#181818;stroke-width:0.25;" x1="282" x2="374" y1="41.5068" y2="41.5068"/><text fill="#000000" font-family="sans-serif" font-size="7" lengthAdjust="spacing" textLength="19.5" x="284.5" y="51.0605">+run()</text><text fill="#000000" font-family="sans-serif" font-size="7" lengthAdjust="spacing" textLength="48" x="284.5" y="60.3711">+requestData()</text><text fill="#000000" font-family="sans-serif" font-size="7" lengthAdjust="spacing" textLength="44.5" x="284.5" y="69.6816">+submitData()</text><text fill="#000000" font-family="sans-serif" font-size="7" lengthAdjust="spacing" textLength="55" x="284.5" y="78.9922">+requestEntries()</text><text fill="#000000" font-family="sans-serif" font-size="7" lengthAdjust="spacing" textLength="48" x="284.5" y="88.3027">+requestDate()</text><text fill="#000000" font-family="sans-serif" font-size="7" lengthAdjust="spacing" textLength="72.5" x="284.5" y="97.6133">+requestStartingHour()</text></g><!--class Entry--><g id="elem_Entry"><rect codeLine="27" fill="#F1F1F1" height="107.7949" id="Entry" rx="1.25" ry="1.25" style="stroke:#181818;stroke-width:0.25;" width="406" x="214.5" y="443.5068"/><ellipse cx="407.125" cy="451.5068" fill="#C2C2C2" rx="5.5" ry="5.5" style="stroke:#181818;stroke-width:0.5;"/><path d="M408.5078,449.4443 Q408.5859,449.335 408.6797,449.2803 Q408.7734,449.2256 408.8828,449.2256 Q409.0703,449.2256 409.1875,449.3584 Q409.3047,449.4834 409.3047,449.7881 L409.3047,450.5146 Q409.3047,450.8193 409.1875,450.9521 Q409.0703,451.085 408.8828,451.085 Q408.7109,451.085 408.6094,450.9834 Q408.5078,450.8896 408.4531,450.6318 Q408.4297,450.4521 408.3359,450.3584 Q408.1719,450.1709 407.8672,450.0615 Q407.5625,449.9521 407.25,449.9521 Q406.8672,449.9521 406.5469,450.1162 Q406.2344,450.2803 405.9844,450.6553 Q405.7422,451.0303 405.7422,451.5459 L405.7422,452.0928 Q405.7422,452.71 406.1875,453.124 Q406.6328,453.5303 407.4297,453.5303 Q407.8984,453.5303 408.2266,453.4053 Q408.4219,453.3271 408.6328,453.1084 Q408.7656,452.9756 408.8359,452.9365 Q408.9141,452.8975 409.0156,452.8975 Q409.1797,452.8975 409.3047,453.0303 Q409.4375,453.1553 409.4375,453.3271 Q409.4375,453.499 409.2656,453.7021 Q409.0156,453.9912 408.6172,454.1553 Q408.0781,454.3818 407.4297,454.3818 Q406.6719,454.3818 406.0703,454.0693 Q405.5781,453.8193 405.2344,453.2881 Q404.8906,452.749 404.8906,452.1084 L404.8906,451.5303 Q404.8906,450.8662 405.1953,450.2959 Q405.5078,449.7178 406.0547,449.4131 Q406.6016,449.1006 407.2188,449.1006 Q407.5859,449.1006 407.9063,449.1865 Q408.2344,449.2646 408.5078,449.4443 Z " fill="#000000"/><text fill="#000000" font-family="sans-serif" font-size="7" lengthAdjust="spacing" textLength="16.5" x="417.375" y="454.4053">Entry</text><line style="stroke:#181818;stroke-width:0.25;" x1="215" x2="620" y1="459.5068" y2="459.5068"/><text fill="#000000" font-family="sans-serif" font-size="7" lengthAdjust="spacing" textLength="40.5" x="217.5" y="469.0605">-String name</text><text fill="#000000" font-family="sans-serif" font-size="7" lengthAdjust="spacing" textLength="57.5" x="217.5" y="478.3711">-String description</text><text fill="#000000" font-family="sans-serif" font-size="7" lengthAdjust="spacing" textLength="72" x="217.5" y="487.6816">-String urgencyDegree</text><text fill="#000000" font-family="sans-serif" font-size="7" lengthAdjust="spacing" textLength="38" x="217.5" y="496.9922">-int duration</text><text fill="#000000" font-family="sans-serif" font-size="7" lengthAdjust="spacing" textLength="83" x="217.5" y="506.3027">-GreenSpace greenSpace</text><text fill="#000000" font-family="sans-serif" font-size="7" lengthAdjust="spacing" textLength="42" x="217.5" y="515.6133">-String status</text><text fill="#000000" font-family="sans-serif" font-size="7" lengthAdjust="spacing" textLength="67.5" x="217.5" y="524.9238">-LocalDate entryDate</text><text fill="#000000" font-family="sans-serif" font-size="7" lengthAdjust="spacing" textLength="26.5" x="217.5" y="534.2344">-int hour</text><line style="stroke:#181818;stroke-width:0.25;" x1="215" x2="620" y1="537.9912" y2="537.9912"/><text fill="#000000" font-family="sans-serif" font-size="7" lengthAdjust="spacing" textLength="400" x="217.5" y="547.5449">+Entry(String name, String description, String urgencyDegree, int duration, GreenSpace greenSpace, LocalDate date, int hour)</text></g><!--class Employee--><g id="elem_Employee"><rect codeLine="66" fill="#F1F1F1" height="24" id="Employee" rx="1.25" ry="1.25" style="stroke:#181818;stroke-width:0.25;" width="47" x="150" y="485.5068"/><ellipse cx="157.5" cy="493.5068" fill="#C2C2C2" rx="5.5" ry="5.5" style="stroke:#181818;stroke-width:0.5;"/><path d="M158.8828,491.4443 Q158.9609,491.335 159.0547,491.2803 Q159.1484,491.2256 159.2578,491.2256 Q159.4453,491.2256 159.5625,491.3584 Q159.6797,491.4834 159.6797,491.7881 L159.6797,492.5146 Q159.6797,492.8193 159.5625,492.9521 Q159.4453,493.085 159.2578,493.085 Q159.0859,493.085 158.9844,492.9834 Q158.8828,492.8896 158.8281,492.6318 Q158.8047,492.4521 158.7109,492.3584 Q158.5469,492.1709 158.2422,492.0615 Q157.9375,491.9521 157.625,491.9521 Q157.2422,491.9521 156.9219,492.1162 Q156.6094,492.2803 156.3594,492.6553 Q156.1172,493.0303 156.1172,493.5459 L156.1172,494.0928 Q156.1172,494.71 156.5625,495.124 Q157.0078,495.5303 157.8047,495.5303 Q158.2734,495.5303 158.6016,495.4053 Q158.7969,495.3271 159.0078,495.1084 Q159.1406,494.9756 159.2109,494.9365 Q159.2891,494.8975 159.3906,494.8975 Q159.5547,494.8975 159.6797,495.0303 Q159.8125,495.1553 159.8125,495.3271 Q159.8125,495.499 159.6406,495.7021 Q159.3906,495.9912 158.9922,496.1553 Q158.4531,496.3818 157.8047,496.3818 Q157.0469,496.3818 156.4453,496.0693 Q155.9531,495.8193 155.6094,495.2881 Q155.2656,494.749 155.2656,494.1084 L155.2656,493.5303 Q155.2656,492.8662 155.5703,492.2959 Q155.8828,491.7178 156.4297,491.4131 Q156.9766,491.1006 157.5938,491.1006 Q157.9609,491.1006 158.2813,491.1865 Q158.6094,491.2646 158.8828,491.4443 Z " fill="#000000"/><text fill="#000000" font-family="sans-serif" font-size="7" lengthAdjust="spacing" textLength="31" x="164.5" y="496.4053">Employee</text><line style="stroke:#181818;stroke-width:0.25;" x1="150.5" x2="196.5" y1="501.5068" y2="501.5068"/><line style="stroke:#181818;stroke-width:0.25;" x1="150.5" x2="196.5" y1="505.5068" y2="505.5068"/></g><!--class Repositorie--><g id="elem_Repositorie"><rect codeLine="41" fill="#F1F1F1" height="61.2422" id="Repositorie" rx="1.25" ry="1.25" style="stroke:#181818;stroke-width:0.25;" width="156" x="43.5" y="257.5068"/><ellipse cx="101.375" cy="265.5068" fill="#C2C2C2" rx="5.5" ry="5.5" style="stroke:#181818;stroke-width:0.5;"/><path d="M102.7578,263.4443 Q102.8359,263.335 102.9297,263.2803 Q103.0234,263.2256 103.1328,263.2256 Q103.3203,263.2256 103.4375,263.3584 Q103.5547,263.4834 103.5547,263.7881 L103.5547,264.5146 Q103.5547,264.8193 103.4375,264.9521 Q103.3203,265.085 103.1328,265.085 Q102.9609,265.085 102.8594,264.9834 Q102.7578,264.8896 102.7031,264.6318 Q102.6797,264.4521 102.5859,264.3584 Q102.4219,264.1709 102.1172,264.0615 Q101.8125,263.9521 101.5,263.9521 Q101.1172,263.9521 100.7969,264.1162 Q100.4844,264.2803 100.2344,264.6553 Q99.9922,265.0303 99.9922,265.5459 L99.9922,266.0928 Q99.9922,266.71 100.4375,267.124 Q100.8828,267.5303 101.6797,267.5303 Q102.1484,267.5303 102.4766,267.4053 Q102.6719,267.3271 102.8828,267.1084 Q103.0156,266.9756 103.0859,266.9365 Q103.1641,266.8975 103.2656,266.8975 Q103.4297,266.8975 103.5547,267.0303 Q103.6875,267.1553 103.6875,267.3271 Q103.6875,267.499 103.5156,267.7021 Q103.2656,267.9912 102.8672,268.1553 Q102.3281,268.3818 101.6797,268.3818 Q100.9219,268.3818 100.3203,268.0693 Q99.8281,267.8193 99.4844,267.2881 Q99.1406,266.749 99.1406,266.1084 L99.1406,265.5303 Q99.1406,264.8662 99.4453,264.2959 Q99.7578,263.7178 100.3047,263.4131 Q100.8516,263.1006 101.4688,263.1006 Q101.8359,263.1006 102.1563,263.1865 Q102.4844,263.2646 102.7578,263.4443 Z " fill="#000000"/><text fill="#000000" font-family="sans-serif" font-size="7" lengthAdjust="spacing" textLength="36" x="111.625" y="268.4053">Repositorie</text><line style="stroke:#181818;stroke-width:0.25;" x1="44" x2="199" y1="273.5068" y2="273.5068"/><line style="stroke:#181818;stroke-width:0.25;" x1="44" x2="199" y1="277.5068" y2="277.5068"/><text fill="#000000" font-family="sans-serif" font-size="7" lengthAdjust="spacing" textLength="47" x="46.5" y="287.0605">-Repositories()</text><text fill="#000000" font-family="sans-serif" font-size="7" lengthAdjust="spacing" textLength="91" x="46.5" y="296.3711">+getInstance() : Repositories</text><text fill="#000000" font-family="sans-serif" font-size="7" lengthAdjust="spacing" textLength="150" x="46.5" y="305.6816">+getToDoListRepository() : ToDoListRepository</text><text fill="#000000" font-family="sans-serif" font-size="7" lengthAdjust="spacing" textLength="142" x="46.5" y="314.9922">+getAgendaRepository() : AgendaRepository</text></g><!--class ToDoListRepository--><g id="elem_ToDoListRepository"><rect codeLine="49" fill="#F1F1F1" height="33.3105" id="ToDoListRepository" rx="1.25" ry="1.25" style="stroke:#181818;stroke-width:0.25;" width="96" x="11" y="362.5068"/><ellipse cx="26.375" cy="370.5068" fill="#C2C2C2" rx="5.5" ry="5.5" style="stroke:#181818;stroke-width:0.5;"/><path d="M27.7578,368.4443 Q27.8359,368.335 27.9297,368.2803 Q28.0234,368.2256 28.1328,368.2256 Q28.3203,368.2256 28.4375,368.3584 Q28.5547,368.4834 28.5547,368.7881 L28.5547,369.5146 Q28.5547,369.8193 28.4375,369.9521 Q28.3203,370.085 28.1328,370.085 Q27.9609,370.085 27.8594,369.9834 Q27.7578,369.8896 27.7031,369.6318 Q27.6797,369.4521 27.5859,369.3584 Q27.4219,369.1709 27.1172,369.0615 Q26.8125,368.9521 26.5,368.9521 Q26.1172,368.9521 25.7969,369.1162 Q25.4844,369.2803 25.2344,369.6553 Q24.9922,370.0303 24.9922,370.5459 L24.9922,371.0928 Q24.9922,371.71 25.4375,372.124 Q25.8828,372.5303 26.6797,372.5303 Q27.1484,372.5303 27.4766,372.4053 Q27.6719,372.3271 27.8828,372.1084 Q28.0156,371.9756 28.0859,371.9365 Q28.1641,371.8975 28.2656,371.8975 Q28.4297,371.8975 28.5547,372.0303 Q28.6875,372.1553 28.6875,372.3271 Q28.6875,372.499 28.5156,372.7021 Q28.2656,372.9912 27.8672,373.1553 Q27.3281,373.3818 26.6797,373.3818 Q25.9219,373.3818 25.3203,373.0693 Q24.8281,372.8193 24.4844,372.2881 Q24.1406,371.749 24.1406,371.1084 L24.1406,370.5303 Q24.1406,369.8662 24.4453,369.2959 Q24.7578,368.7178 25.3047,368.4131 Q25.8516,368.1006 26.4688,368.1006 Q26.8359,368.1006 27.1563,368.1865 Q27.4844,368.2646 27.7578,368.4443 Z " fill="#000000"/><text fill="#000000" font-family="sans-serif" font-size="7" lengthAdjust="spacing" textLength="62.5" x="35.125" y="373.4053">ToDoListRepository</text><line style="stroke:#181818;stroke-width:0.25;" x1="11.5" x2="106.5" y1="378.5068" y2="378.5068"/><line style="stroke:#181818;stroke-width:0.25;" x1="11.5" x2="106.5" y1="382.5068" y2="382.5068"/><text fill="#000000" font-family="sans-serif" font-size="7" lengthAdjust="spacing" textLength="90" x="14" y="392.0605">+getAllEntries() : List&lt;Entry&gt;</text></g><!--class AuthenticationRepository--><g id="elem_AuthenticationRepository"><rect codeLine="54" fill="#F1F1F1" height="33.3105" id="AuthenticationRepository" rx="1.25" ry="1.25" style="stroke:#181818;stroke-width:0.25;" width="97.5" x="124.75" y="362.5068"/><ellipse cx="133.375" cy="370.5068" fill="#C2C2C2" rx="5.5" ry="5.5" style="stroke:#181818;stroke-width:0.5;"/><path d="M134.7578,368.4443 Q134.8359,368.335 134.9297,368.2803 Q135.0234,368.2256 135.1328,368.2256 Q135.3203,368.2256 135.4375,368.3584 Q135.5547,368.4834 135.5547,368.7881 L135.5547,369.5146 Q135.5547,369.8193 135.4375,369.9521 Q135.3203,370.085 135.1328,370.085 Q134.9609,370.085 134.8594,369.9834 Q134.7578,369.8896 134.7031,369.6318 Q134.6797,369.4521 134.5859,369.3584 Q134.4219,369.1709 134.1172,369.0615 Q133.8125,368.9521 133.5,368.9521 Q133.1172,368.9521 132.7969,369.1162 Q132.4844,369.2803 132.2344,369.6553 Q131.9922,370.0303 131.9922,370.5459 L131.9922,371.0928 Q131.9922,371.71 132.4375,372.124 Q132.8828,372.5303 133.6797,372.5303 Q134.1484,372.5303 134.4766,372.4053 Q134.6719,372.3271 134.8828,372.1084 Q135.0156,371.9756 135.0859,371.9365 Q135.1641,371.8975 135.2656,371.8975 Q135.4297,371.8975 135.5547,372.0303 Q135.6875,372.1553 135.6875,372.3271 Q135.6875,372.499 135.5156,372.7021 Q135.2656,372.9912 134.8672,373.1553 Q134.3281,373.3818 133.6797,373.3818 Q132.9219,373.3818 132.3203,373.0693 Q131.8281,372.8193 131.4844,372.2881 Q131.1406,371.749 131.1406,371.1084 L131.1406,370.5303 Q131.1406,369.8662 131.4453,369.2959 Q131.7578,368.7178 132.3047,368.4131 Q132.8516,368.1006 133.4688,368.1006 Q133.8359,368.1006 134.1563,368.1865 Q134.4844,368.2646 134.7578,368.4443 Z " fill="#000000"/><text fill="#000000" font-family="sans-serif" font-size="7" lengthAdjust="spacing" textLength="79" x="140.625" y="373.4053">AuthenticationRepository</text><line style="stroke:#181818;stroke-width:0.25;" x1="125.25" x2="221.75" y1="378.5068" y2="378.5068"/><line style="stroke:#181818;stroke-width:0.25;" x1="125.25" x2="221.75" y1="382.5068" y2="382.5068"/><text fill="#000000" font-family="sans-serif" font-size="7" lengthAdjust="spacing" textLength="91.5" x="127.75" y="392.0605">+getEmployeeFromSession()</text></g><!--class AgendaRepository--><g id="elem_AgendaRepository"><rect codeLine="60" fill="#F1F1F1" height="42.6211" id="AgendaRepository" rx="1.25" ry="1.25" style="stroke:#181818;stroke-width:0.25;" width="129" x="240" y="358.0068"/><ellipse cx="273.125" cy="366.0068" fill="#C2C2C2" rx="5.5" ry="5.5" style="stroke:#181818;stroke-width:0.5;"/><path d="M274.5078,363.9443 Q274.5859,363.835 274.6797,363.7803 Q274.7734,363.7256 274.8828,363.7256 Q275.0703,363.7256 275.1875,363.8584 Q275.3047,363.9834 275.3047,364.2881 L275.3047,365.0146 Q275.3047,365.3193 275.1875,365.4521 Q275.0703,365.585 274.8828,365.585 Q274.7109,365.585 274.6094,365.4834 Q274.5078,365.3896 274.4531,365.1318 Q274.4297,364.9521 274.3359,364.8584 Q274.1719,364.6709 273.8672,364.5615 Q273.5625,364.4521 273.25,364.4521 Q272.8672,364.4521 272.5469,364.6162 Q272.2344,364.7803 271.9844,365.1553 Q271.7422,365.5303 271.7422,366.0459 L271.7422,366.5928 Q271.7422,367.21 272.1875,367.624 Q272.6328,368.0303 273.4297,368.0303 Q273.8984,368.0303 274.2266,367.9053 Q274.4219,367.8271 274.6328,367.6084 Q274.7656,367.4756 274.8359,367.4365 Q274.9141,367.3975 275.0156,367.3975 Q275.1797,367.3975 275.3047,367.5303 Q275.4375,367.6553 275.4375,367.8271 Q275.4375,367.999 275.2656,368.2021 Q275.0156,368.4912 274.6172,368.6553 Q274.0781,368.8818 273.4297,368.8818 Q272.6719,368.8818 272.0703,368.5693 Q271.5781,368.3193 271.2344,367.7881 Q270.8906,367.249 270.8906,366.6084 L270.8906,366.0303 Q270.8906,365.3662 271.1953,364.7959 Q271.5078,364.2178 272.0547,363.9131 Q272.6016,363.6006 273.2188,363.6006 Q273.5859,363.6006 273.9063,363.6865 Q274.2344,363.7646 274.5078,363.9443 Z " fill="#000000"/><text fill="#000000" font-family="sans-serif" font-size="7" lengthAdjust="spacing" textLength="58.5" x="283.375" y="368.9053">AgendaRepository</text><line style="stroke:#181818;stroke-width:0.25;" x1="240.5" x2="368.5" y1="374.0068" y2="374.0068"/><line style="stroke:#181818;stroke-width:0.25;" x1="240.5" x2="368.5" y1="378.0068" y2="378.0068"/><text fill="#000000" font-family="sans-serif" font-size="7" lengthAdjust="spacing" textLength="123" x="243" y="387.5605">+getAllEntriesToAgenda() : List&lt;Entry&gt;</text><text fill="#000000" font-family="sans-serif" font-size="7" lengthAdjust="spacing" textLength="50.5" x="243" y="396.8711">+addNewEntry()</text></g><!--link CreateEntryToAgendaUI to CreateEntryToAgendaController--><g id="link_CreateEntryToAgendaUI_CreateEntryToAgendaController"><path codeLine="70" d="M328,101.6168 C328,118.7218 328,135.2368 328,150.3918 " fill="none" id="CreateEntryToAgendaUI-to-CreateEntryToAgendaController" style="stroke:#181818;stroke-width:0.5;"/><polygon fill="#181818" points="328,153.3918,330,148.8918,328,150.8918,326,148.8918,328,153.3918" style="stroke:#181818;stroke-width:0.5;"/><text fill="#000000" font-family="sans-serif" font-size="6.5" lengthAdjust="spacing" textLength="14" x="328.5" y="125.021">uses</text><text fill="#000000" font-family="sans-serif" font-size="6.5" lengthAdjust="spacing" textLength="3.5" x="324.3551" y="112.3162">1</text><text fill="#000000" font-family="sans-serif" font-size="6.5" lengthAdjust="spacing" textLength="3.5" x="324.2648" y="147.8401">1</text></g><!--link CreateEntryToAgendaController to Repositorie--><g id="link_CreateEntryToAgendaController_Repositorie"><path codeLine="71" d="M258.22,205.5218 C234.795,214.0868 214.5,221.5068 214.5,221.5068 C214.5,221.5068 190.7966,238.3307 166.2266,255.7657 " fill="none" id="CreateEntryToAgendaController-to-Repositorie" style="stroke:#181818;stroke-width:0.5;stroke-dasharray:7.0,7.0;"/><polygon fill="#181818" points="163.78,257.5018,168.6073,256.5287,165.8188,256.0551,166.2925,253.2666,163.78,257.5018" style="stroke:#181818;stroke-width:0.5;"/><text fill="#000000" font-family="sans-serif" font-size="6.5" lengthAdjust="spacing" textLength="48" x="215" y="229.021">gets repositories</text></g><!--link Repositorie to Repositorie--><g id="link_Repositorie_Repositorie"><path codeLine="72" d="M199.625,279.7168 C210.065,281.1168 217,283.8818 217,288.0068 C217,292.1318 213.0384,294.4981 202.5984,295.8981 " fill="none" id="Repositorie-to-Repositorie" style="stroke:#181818;stroke-width:0.5;"/><polygon fill="#181818" points="199.625,296.2968,204.3509,297.681,202.1028,295.9646,203.8193,293.7165,199.625,296.2968" style="stroke:#181818;stroke-width:0.5;"/><text fill="#000000" font-family="sans-serif" font-size="6.5" lengthAdjust="spacing" textLength="24.5" x="220" y="290.771">instance</text></g><!--link Repositorie to AuthenticationRepository--><g id="link_Repositorie_AuthenticationRepository"><path codeLine="73" d="M119.165,318.5218 C118.525,326.7768 118,333.5068 118,333.5068 C118,333.5068 118,343.0068 118,343.0068 C118,343.0068 131.0282,351.3969 145.6632,360.8269 " fill="none" id="Repositorie-to-AuthenticationRepository" style="stroke:#181818;stroke-width:0.5;"/><polygon fill="#181818" points="148.185,362.4518,145.4855,358.3332,146.0835,361.0977,143.319,361.6957,148.185,362.4518" style="stroke:#181818;stroke-width:0.5;"/><text fill="#000000" font-family="sans-serif" font-size="6.5" lengthAdjust="spacing" textLength="71.5" x="118.5" y="341.021">authenticationRepository</text></g><!--link Repositorie to ToDoListRepository--><g id="link_Repositorie_ToDoListRepository"><path codeLine="75" d="M79.145,318.5218 C67.495,326.7768 58,333.5068 58,333.5068 C58,333.5068 58,343.0068 58,343.0068 C58,343.0068 58.1971,349.948 58.4571,359.348 " fill="none" id="Repositorie-to-ToDoListRepository" style="stroke:#181818;stroke-width:0.5;"/><polygon fill="#181818" points="58.54,362.3468,60.4148,357.7933,58.4709,359.8478,56.4163,357.9039,58.54,362.3468" style="stroke:#181818;stroke-width:0.5;"/><text fill="#000000" font-family="sans-serif" font-size="6.5" lengthAdjust="spacing" textLength="55" x="58.5" y="341.021">toDoListRepository</text><text fill="#000000" font-family="sans-serif" font-size="6.5" lengthAdjust="spacing" textLength="3.5" x="70.2697" y="329.7671">1</text><text fill="#000000" font-family="sans-serif" font-size="6.5" lengthAdjust="spacing" textLength="3.5" x="54.6187" y="356.8593">1</text></g><!--link Repositorie to AgendaRepository--><g id="link_Repositorie_AgendaRepository"><path codeLine="76" d="M182.435,318.5568 C208.64,331.4818 235.9242,344.9404 259.6192,356.6204 " fill="none" id="Repositorie-to-AgendaRepository" style="stroke:#181818;stroke-width:0.5;"/><polygon fill="#181818" points="262.31,357.9468,259.158,354.1633,260.0676,356.8415,257.3895,357.7511,262.31,357.9468" style="stroke:#181818;stroke-width:0.5;"/><text fill="#000000" font-family="sans-serif" font-size="6.5" lengthAdjust="spacing" textLength="52" x="229.5" y="341.021">agendaRepository</text><text fill="#000000" font-family="sans-serif" font-size="6.5" lengthAdjust="spacing" textLength="3.5" x="186.1482" y="329.8064">1</text><text fill="#000000" font-family="sans-serif" font-size="6.5" lengthAdjust="spacing" textLength="3.5" x="251.8071" y="352.3893">1</text></g><!--link CreateEntryToAgendaController to AuthenticationRepository--><g id="link_CreateEntryToAgendaController_AuthenticationRepository"><path codeLine="77" d="M304.06,205.5768 C290.61,219.9368 276.5,235.0068 276.5,235.0068 C276.5,235.0068 265.5,343.0068 265.5,343.0068 C265.5,343.0068 242.4265,351.9757 218.1215,361.4157 " fill="none" id="CreateEntryToAgendaController-to-AuthenticationRepository" style="stroke:#181818;stroke-width:0.5;"/><polygon fill="#181818" points="215.325,362.5018,220.2438,362.7369,217.6554,361.5967,218.7956,359.0083,215.325,362.5018" style="stroke:#181818;stroke-width:0.5;"/><text fill="#000000" font-family="sans-serif" font-size="6.5" lengthAdjust="spacing" textLength="67" x="277" y="290.771">getCurrentUserSession</text><text fill="#000000" font-family="sans-serif" font-size="6.5" lengthAdjust="spacing" textLength="3.5" x="297.2685" y="216.4894">1</text><text fill="#000000" font-family="sans-serif" font-size="6.5" lengthAdjust="spacing" textLength="3.5" x="219.7148" y="356.9136">1</text></g><!--link CreateEntryToAgendaController to Entry--><g id="link_CreateEntryToAgendaController_Entry"><path codeLine="79" d="M350.78,205.5768 C363.575,219.9368 377,235.0068 377,235.0068 C377,235.0068 396.9019,363.737 408.7469,440.392 " fill="none" id="CreateEntryToAgendaController-to-Entry" style="stroke:#181818;stroke-width:0.5;stroke-dasharray:7.0,7.0;"/><polygon fill="#181818" points="409.205,443.3568,410.4943,438.6042,408.8232,440.8862,406.5413,439.215,409.205,443.3568" style="stroke:#181818;stroke-width:0.5;"/></g><!--link AuthenticationRepository to Employee--><g id="link_AuthenticationRepository_Employee"><path codeLine="80" d="M173.5,396.0618 C173.5,420.0968 173.5,461.4568 173.5,482.4368 " fill="none" id="AuthenticationRepository-to-Employee" style="stroke:#181818;stroke-width:0.5;"/><polygon fill="#181818" points="173.5,485.4368,175.5,480.9368,173.5,482.9368,171.5,480.9368,173.5,485.4368" style="stroke:#181818;stroke-width:0.5;"/></g><!--link AgendaRepository to Entry--><g id="link_AgendaRepository_Entry"><path codeLine="81" d="M324.57,400.5818 C336.115,412.5618 349.1135,426.0464 363.7535,441.2414 " fill="none" id="AgendaRepository-to-Entry" style="stroke:#181818;stroke-width:0.5;"/><polygon fill="#181818" points="365.835,443.4018,364.153,438.7736,364.1004,441.6015,361.2725,441.5489,365.835,443.4018" style="stroke:#181818;stroke-width:0.5;"/></g><!--link Employee to Entry--><g id="link_Employee_Entry"><path codeLine="83" d="M197.025,497.5068 C202.465,497.5068 205.41,497.5068 211.35,497.5068 " fill="none" id="Employee-to-Entry" style="stroke:#181818;stroke-width:0.5;"/><polygon fill="#181818" points="214.35,497.5068,209.85,495.5068,211.85,497.5068,209.85,499.5068,214.35,497.5068" style="stroke:#181818;stroke-width:0.5;"/></g><!--link CreateEntryToAgendaController to AgendaRepository--><g id="link_CreateEntryToAgendaController_AgendaRepository"><path codeLine="85" d="M337.53,205.5768 C342.885,219.9368 348.5,235.0068 348.5,235.0068 C348.5,235.0068 348.5,318.5068 348.5,318.5068 C348.5,318.5068 334.2446,338.0293 321.5346,355.4293 " fill="none" id="CreateEntryToAgendaController-to-AgendaRepository" style="stroke:#181818;stroke-width:0.5;stroke-dasharray:7.0,7.0;"/><polygon fill="#181818" points="319.765,357.8518,324.0344,355.3977,321.2396,355.8331,320.8043,353.0383,319.765,357.8518" style="stroke:#181818;stroke-width:0.5;"/><text fill="#000000" font-family="sans-serif" font-size="6.5" lengthAdjust="spacing" textLength="39.5" x="349" y="290.771">add newEntry</text></g><!--SRC=[nLLRQzim57xthn1zIbbJjjSG0Y5fjq0POsv_W6gVEQAovEb2ySB- -uuLHP5yQTEd9P3Ovtpd_kb8lp3HK4LhKaiXYxsIDH2ZB6GwQ1fQlD0ASjDo80eAGqN5Ou3UqrA-Cb6HNvJhMCEP0DCsG1h9s-ubqXMSQhqsHh5dQs1NI96pFq0-PzcFOq2oaS8eoJaeibpUIrw2MgqEcJCa6mNKm1qYsaUvha2KDC8VCeAVEJ5oAn-ODZ-XaPePgLgo88y3eKTJvoR1hdiYX_n4Yc7qMOwbO0y4hU66-9SITA5OOvWKGMOLuejs2vK2H39XI6aLFMA-eapas78WLNYy8G-oe7oB8Kc9FqUZlRJgElkBtrF3ddQNDGfn1r-8ic9sVNg6tnQqmJ0qoBHzhbagyh3E8mCzOWrzMMweCbZwDynuTapvFEMjh2aJ8ucxbCCae-wcagZ5gIBfirV5pVQYqOwddhIXncelEuy2kWIxfyXvDnHVlCl_Fx4YeKLWBuvhfC-HEdGxDWdJhC3i1FP253XXF1inw0mPdYu7dZXqpgH_o9p1uEHzeAHXi43uBXpdWRmOg0CktR1M7ucnjcQF3625cz4vKXJehcwuR07kSQtce3NYJlI_D4X_8usM4LPGlvmZbfRbTtWzqZ5T6DDdpsUEyLowuqlawiiLcSzNxl_jVRmWLYD9tWRTtguICYwwAZKkaOXciRuBdUAPf-S0DZKijA4JgYnn4fVwE7Qf36-QIVlry9hftpplT2hnDbqQjczZbKBjamRb6PXTC0MdooOzTw5F3Ca6rJYjSv056fr5xmSVQqzP4k4fdFq3]--></g></svg>