<?xml version="1.0" encoding="us-ascii" standalone="no"?><svg xmlns="http://www.w3.org/2000/svg" xmlns:xlink="http://www.w3.org/1999/xlink" contentStyleType="text/css" height="428px" preserveAspectRatio="none" style="width:515px;height:428px;background:#FFFFFF;" version="1.1" viewBox="0 0 515 428" width="515px" zoomAndPan="magnify"><defs/><g><text fill="#000000" font-family="sans-serif" font-size="14" font-weight="bold" lengthAdjust="spacing" textLength="231" x="141.25" y="28.5352">System Sequence Diagram (SSD)</text><rect fill="#FFFFFF" height="176.8633" style="stroke:#181818;stroke-width:1.0;" width="10" x="64.5" y="145.4648"/><rect fill="#FFFFFF" height="29.3105" style="stroke:#181818;stroke-width:1.0;" width="10" x="471.5" y="166.7754"/><rect fill="#FFFFFF" height="29.3105" style="stroke:#181818;stroke-width:1.0;" width="10" x="471.5" y="225.3965"/><rect fill="#FFFFFF" height="29.3105" style="stroke:#181818;stroke-width:1.0;" width="10" x="471.5" y="284.0176"/><line style="stroke:#181818;stroke-width:0.5;stroke-dasharray:5.0,5.0;" x1="69" x2="69" y1="135.4648" y2="331.3281"/><line style="stroke:#181818;stroke-width:0.5;stroke-dasharray:5.0,5.0;" x1="476.5" x2="476.5" y1="135.4648" y2="331.3281"/><text fill="#000000" font-family="sans-serif" font-size="14" lengthAdjust="spacing" textLength="123" x="5" y="116.0234">Human Resources</text><text fill="#000000" font-family="sans-serif" font-size="14" lengthAdjust="spacing" textLength="60" x="36.5" y="132.5117">Manager</text><ellipse cx="69.5" cy="50.9883" fill="#E3E3E3" rx="8" ry="8" style="stroke:#181818;stroke-width:0.5;"/><path d="M69.5,58.9883 L69.5,85.9883 M56.5,66.9883 L82.5,66.9883 M69.5,85.9883 L56.5,100.9883 M69.5,85.9883 L82.5,100.9883 " fill="none" style="stroke:#181818;stroke-width:0.5;"/><text fill="#000000" font-family="sans-serif" font-size="14" lengthAdjust="spacing" textLength="123" x="5" y="343.8633">Human Resources</text><text fill="#000000" font-family="sans-serif" font-size="14" lengthAdjust="spacing" textLength="60" x="36.5" y="360.3516">Manager</text><ellipse cx="69.5" cy="371.8047" fill="#E3E3E3" rx="8" ry="8" style="stroke:#181818;stroke-width:0.5;"/><path d="M69.5,379.8047 L69.5,406.8047 M56.5,387.8047 L82.5,387.8047 M69.5,406.8047 L56.5,421.8047 M69.5,406.8047 L82.5,421.8047 " fill="none" style="stroke:#181818;stroke-width:0.5;"/><rect fill="#E3E3E3" height="30.4883" rx="2.5" ry="2.5" style="stroke:#181818;stroke-width:0.5;" width="66" x="443.5" y="103.9766"/><text fill="#000000" font-family="sans-serif" font-size="14" lengthAdjust="spacing" textLength="52" x="450.5" y="124.5117">:System</text><rect fill="#E3E3E3" height="30.4883" rx="2.5" ry="2.5" style="stroke:#181818;stroke-width:0.5;" width="66" x="443.5" y="330.3281"/><text fill="#000000" font-family="sans-serif" font-size="14" lengthAdjust="spacing" textLength="52" x="450.5" y="350.8633">:System</text><rect fill="#FFFFFF" height="176.8633" style="stroke:#181818;stroke-width:1.0;" width="10" x="64.5" y="145.4648"/><rect fill="#FFFFFF" height="29.3105" style="stroke:#181818;stroke-width:1.0;" width="10" x="471.5" y="166.7754"/><rect fill="#FFFFFF" height="29.3105" style="stroke:#181818;stroke-width:1.0;" width="10" x="471.5" y="225.3965"/><rect fill="#FFFFFF" height="29.3105" style="stroke:#181818;stroke-width:1.0;" width="10" x="471.5" y="284.0176"/><polygon fill="#181818" points="459.5,162.7754,469.5,166.7754,459.5,170.7754,463.5,166.7754" style="stroke:#181818;stroke-width:1.0;"/><line style="stroke:#181818;stroke-width:1.0;" x1="74.5" x2="465.5" y1="166.7754" y2="166.7754"/><text fill="#000000" font-family="sans-serif" font-size="13" font-weight="bold" lengthAdjust="spacing" textLength="9" x="81.5" y="162.0332">1</text><text fill="#000000" font-family="sans-serif" font-size="13" lengthAdjust="spacing" textLength="152" x="94.5" y="162.0332">asks to create a new job</text><polygon fill="#181818" points="85.5,192.0859,75.5,196.0859,85.5,200.0859,81.5,196.0859" style="stroke:#181818;stroke-width:1.0;"/><line style="stroke:#181818;stroke-width:1.0;stroke-dasharray:2.0,2.0;" x1="79.5" x2="475.5" y1="196.0859" y2="196.0859"/><text fill="#000000" font-family="sans-serif" font-size="13" font-weight="bold" lengthAdjust="spacing" textLength="9" x="91.5" y="191.3438">2</text><text fill="#000000" font-family="sans-serif" font-size="13" lengthAdjust="spacing" textLength="281" x="104.5" y="191.3438">requests data (i.e. job name, job description)</text><polygon fill="#181818" points="459.5,221.3965,469.5,225.3965,459.5,229.3965,463.5,225.3965" style="stroke:#181818;stroke-width:1.0;"/><line style="stroke:#181818;stroke-width:1.0;" x1="74.5" x2="465.5" y1="225.3965" y2="225.3965"/><text fill="#000000" font-family="sans-serif" font-size="13" font-weight="bold" lengthAdjust="spacing" textLength="9" x="81.5" y="220.6543">3</text><text fill="#000000" font-family="sans-serif" font-size="13" lengthAdjust="spacing" textLength="131" x="94.5" y="220.6543">types requested data</text><polygon fill="#181818" points="85.5,250.707,75.5,254.707,85.5,258.707,81.5,254.707" style="stroke:#181818;stroke-width:1.0;"/><line style="stroke:#181818;stroke-width:1.0;stroke-dasharray:2.0,2.0;" x1="79.5" x2="475.5" y1="254.707" y2="254.707"/><text fill="#000000" font-family="sans-serif" font-size="13" font-weight="bold" lengthAdjust="spacing" textLength="9" x="91.5" y="249.9648">4</text><text fill="#000000" font-family="sans-serif" font-size="13" lengthAdjust="spacing" textLength="360" x="104.5" y="249.9648">validates data, shows job data and requests confirmation</text><polygon fill="#181818" points="459.5,280.0176,469.5,284.0176,459.5,288.0176,463.5,284.0176" style="stroke:#181818;stroke-width:1.0;"/><line style="stroke:#181818;stroke-width:1.0;" x1="74.5" x2="465.5" y1="284.0176" y2="284.0176"/><text fill="#000000" font-family="sans-serif" font-size="13" font-weight="bold" lengthAdjust="spacing" textLength="9" x="81.5" y="279.2754">5</text><text fill="#000000" font-family="sans-serif" font-size="13" lengthAdjust="spacing" textLength="87" x="94.5" y="279.2754">confirms data</text><polygon fill="#181818" points="85.5,309.3281,75.5,313.3281,85.5,317.3281,81.5,313.3281" style="stroke:#181818;stroke-width:1.0;"/><line style="stroke:#181818;stroke-width:1.0;stroke-dasharray:2.0,2.0;" x1="79.5" x2="475.5" y1="313.3281" y2="313.3281"/><text fill="#000000" font-family="sans-serif" font-size="13" font-weight="bold" lengthAdjust="spacing" textLength="9" x="91.5" y="308.5859">6</text><text fill="#000000" font-family="sans-serif" font-size="13" lengthAdjust="spacing" textLength="170" x="104.5" y="308.5859">displays operation success</text><!--SRC=[dP6nRW8n38RtUmgB2IJA0p1qOc1XuTOk9Z57oiL9OmTqRzzS3cXLjGFrPCc___zBB6V74HDwy863EQNW2JHbQkGnYMZEs56hGq-Go2XortyNo0bjk3hku8YzKDEeqo9j1r7oqD979ZO46uVTA9-txMRHD9WrSFO7IgKt6XBCjjaZmvuav6H8tdY7N9BJ351Wkzyr9K-TSH5PORQU0kfmQgkHkw1ILJTGgZJmydg7MHVnMK03c4IZ3e7f2k_XKCMFzRiVtEgs_bASHiDr-OVoAb41YuemTojQZIx0w6bPEqjYaelg0Y-gZwLVxNy2wX19xlvaQy2JS1ViNLcZYMvP3XIkCa6DjCZsYzy4FhhaSUHy1lEs9__XiqvYZuD0Y9HgCaWsvUBo1y4d]--></g></svg>