<?xml version="1.0" encoding="us-ascii" standalone="no"?><svg xmlns="http://www.w3.org/2000/svg" xmlns:xlink="http://www.w3.org/1999/xlink" contentStyleType="text/css" height="1456px" preserveAspectRatio="none" style="width:2516px;height:1456px;background:#FFFFFF;" version="1.1" viewBox="0 0 2516 1456" width="2516px" zoomAndPan="magnify"><defs/><g><rect fill="#FFFFFF" height="1261.2617" style="stroke:#181818;stroke-width:1.0;" width="10" x="75" y="93.6211"/><rect fill="#FFFFFF" height="647.4414" style="stroke:#181818;stroke-width:1.0;" width="10" x="594" y="243.3672"/><rect fill="#FFFFFF" height="75.582" style="stroke:#181818;stroke-width:1.0;" width="10" x="594" y="922.0996"/><rect fill="#FFFFFF" height="325.9102" style="stroke:#181818;stroke-width:1.0;" width="10" x="594" y="1028.9727"/><rect fill="#FFFFFF" height="353.4922" style="stroke:#181818;stroke-width:1.0;" width="10" x="1137" y="318.2793"/><rect fill="#FFFFFF" height="156.4551" style="stroke:#181818;stroke-width:1.0;" width="10" x="1137" y="703.0625"/><rect fill="#FFFFFF" height="263.3281" style="stroke:#181818;stroke-width:1.0;" width="10" x="1137" y="1060.2637"/><rect fill="#FFFFFF" height="31.291" style="stroke:#181818;stroke-width:1.0;" width="10" x="1338" y="349.5703"/><rect fill="#FFFFFF" height="103.1641" style="stroke:#181818;stroke-width:1.0;" width="10" x="1338" y="412.1523"/><rect fill="#FFFFFF" height="31.291" style="stroke:#181818;stroke-width:1.0;" width="10" x="1449" y="546.6074"/><rect fill="#FFFFFF" height="31.291" style="stroke:#181818;stroke-width:1.0;" width="10" x="1449" y="734.3535"/><rect fill="#FFFFFF" height="31.291" style="stroke:#181818;stroke-width:1.0;" width="10" x="1591" y="609.1895"/><rect fill="#FFFFFF" height="31.291" style="stroke:#181818;stroke-width:1.0;" width="10" x="1743" y="796.9355"/><rect fill="#FFFFFF" height="75.582" style="stroke:#181818;stroke-width:1.0;" width="10" x="1885" y="1216.7188"/><rect fill="#FFFFFF" height="93.873" style="stroke:#181818;stroke-width:1.0;" width="10" x="2009" y="1091.5547"/><rect fill="#FFFFFF" height="31.291" style="stroke:#181818;stroke-width:1.0;" width="10" x="2478" y="1122.8457"/><line style="stroke:#181818;stroke-width:0.5;stroke-dasharray:5.0,5.0;" x1="80" x2="80" y1="83.6211" y2="1372.8828"/><line style="stroke:#181818;stroke-width:0.5;stroke-dasharray:5.0,5.0;" x1="599" x2="599" y1="83.6211" y2="1372.8828"/><line style="stroke:#181818;stroke-width:0.5;stroke-dasharray:5.0,5.0;" x1="1142" x2="1142" y1="283.1777" y2="1372.8828"/><line style="stroke:#181818;stroke-width:0.5;stroke-dasharray:5.0,5.0;" x1="1342.5" x2="1342.5" y1="83.6211" y2="1372.8828"/><line style="stroke:#181818;stroke-width:0.5;stroke-dasharray:5.0,5.0;" x1="1453.5" x2="1453.5" y1="83.6211" y2="1372.8828"/><line style="stroke:#181818;stroke-width:0.5;stroke-dasharray:5.0,5.0;" x1="1595.5" x2="1595.5" y1="83.6211" y2="1372.8828"/><line style="stroke:#181818;stroke-width:0.5;stroke-dasharray:5.0,5.0;" x1="1747.5" x2="1747.5" y1="83.6211" y2="1372.8828"/><line style="stroke:#181818;stroke-width:0.5;stroke-dasharray:5.0,5.0;" x1="1889.5" x2="1889.5" y1="83.6211" y2="1372.8828"/><line style="stroke:#181818;stroke-width:0.5;stroke-dasharray:5.0,5.0;" x1="2014" x2="2014" y1="83.6211" y2="1372.8828"/><line style="stroke:#181818;stroke-width:0.5;stroke-dasharray:5.0,5.0;" x1="2154" x2="2154" y1="83.6211" y2="1372.8828"/><line style="stroke:#181818;stroke-width:0.5;stroke-dasharray:5.0,5.0;" x1="2300" x2="2300" y1="83.6211" y2="1372.8828"/><line style="stroke:#181818;stroke-width:0.5;stroke-dasharray:5.0,5.0;" x1="2482.5" x2="2482.5" y1="83.6211" y2="1372.8828"/><text fill="#000000" font-family="sans-serif" font-size="14" lengthAdjust="spacing" textLength="144" x="5" y="80.1074">Green Space Manager</text><ellipse cx="80" cy="13.5" fill="#E3E3E3" rx="8" ry="8" style="stroke:#181818;stroke-width:0.5;"/><path d="M80,21.5 L80,48.5 M67,29.5 L93,29.5 M80,48.5 L67,63.5 M80,48.5 L93,63.5 " fill="none" style="stroke:#181818;stroke-width:0.5;"/><text fill="#000000" font-family="sans-serif" font-size="14" lengthAdjust="spacing" textLength="144" x="5" y="1386.9902">Green Space Manager</text><ellipse cx="80" cy="1399.0039" fill="#E3E3E3" rx="8" ry="8" style="stroke:#181818;stroke-width:0.5;"/><path d="M80,1407.0039 L80,1434.0039 M67,1415.0039 L93,1415.0039 M80,1434.0039 L67,1449.0039 M80,1434.0039 L93,1449.0039 " fill="none" style="stroke:#181818;stroke-width:0.5;"/><rect fill="#E3E3E3" height="32.6211" rx="2.5" ry="2.5" style="stroke:#181818;stroke-width:0.5;" width="110" x="544" y="50"/><text fill="#000000" font-family="sans-serif" font-size="14" lengthAdjust="spacing" textLength="96" x="551" y="72.1074">: CreateEntryUI</text><rect fill="#E3E3E3" height="32.6211" rx="2.5" ry="2.5" style="stroke:#181818;stroke-width:0.5;" width="110" x="544" y="1371.8828"/><text fill="#000000" font-family="sans-serif" font-size="14" lengthAdjust="spacing" textLength="96" x="551" y="1393.9902">: CreateEntryUI</text><rect fill="#E3E3E3" height="32.6211" rx="2.5" ry="2.5" style="stroke:#181818;stroke-width:0.5;" width="160" x="1062" y="1371.8828"/><text fill="#000000" font-family="sans-serif" font-size="14" lengthAdjust="spacing" textLength="146" x="1069" y="1393.9902">: CreateEntryController</text><rect fill="#E3E3E3" height="32.6211" rx="2.5" ry="2.5" style="stroke:#181818;stroke-width:0.5;" width="101" x="1292.5" y="50"/><text fill="#000000" font-family="sans-serif" font-size="14" lengthAdjust="spacing" textLength="87" x="1299.5" y="72.1074">: Repositories</text><rect fill="#E3E3E3" height="32.6211" rx="2.5" ry="2.5" style="stroke:#181818;stroke-width:0.5;" width="101" x="1292.5" y="1371.8828"/><text fill="#000000" font-family="sans-serif" font-size="14" lengthAdjust="spacing" textLength="87" x="1299.5" y="1393.9902">: Repositories</text><rect fill="#E3E3E3" height="51.2422" rx="2.5" ry="2.5" style="stroke:#181818;stroke-width:0.5;" width="101" x="1403.5" y="31.3789"/><text fill="#000000" font-family="sans-serif" font-size="14" lengthAdjust="spacing" textLength="74" x="1417" y="53.4863">repositories</text><text fill="#000000" font-family="sans-serif" font-size="14" lengthAdjust="spacing" textLength="87" x="1410.5" y="72.1074">: Repositories</text><rect fill="#E3E3E3" height="51.2422" rx="2.5" ry="2.5" style="stroke:#181818;stroke-width:0.5;" width="101" x="1403.5" y="1371.8828"/><text fill="#000000" font-family="sans-serif" font-size="14" lengthAdjust="spacing" textLength="74" x="1417" y="1393.9902">repositories</text><text fill="#000000" font-family="sans-serif" font-size="14" lengthAdjust="spacing" textLength="87" x="1410.5" y="1412.6113">: Repositories</text><rect fill="#E3E3E3" height="51.2422" rx="2.5" ry="2.5" style="stroke:#181818;stroke-width:0.5;" width="163" x="1514.5" y="31.3789"/><text fill="#000000" font-family="sans-serif" font-size="14" lengthAdjust="spacing" textLength="149" x="1521.5" y="53.4863">greenSpaceRepository:</text><text fill="#000000" font-family="sans-serif" font-size="14" lengthAdjust="spacing" textLength="148" x="1522" y="72.1074">GreenSpaceRepository</text><rect fill="#E3E3E3" height="51.2422" rx="2.5" ry="2.5" style="stroke:#181818;stroke-width:0.5;" width="163" x="1514.5" y="1371.8828"/><text fill="#000000" font-family="sans-serif" font-size="14" lengthAdjust="spacing" textLength="149" x="1521.5" y="1393.9902">greenSpaceRepository:</text><text fill="#000000" font-family="sans-serif" font-size="14" lengthAdjust="spacing" textLength="148" x="1522" y="1412.6113">GreenSpaceRepository</text><rect fill="#E3E3E3" height="51.2422" rx="2.5" ry="2.5" style="stroke:#181818;stroke-width:0.5;" width="121" x="1687.5" y="31.3789"/><text fill="#000000" font-family="sans-serif" font-size="14" lengthAdjust="spacing" textLength="94" x="1701" y="53.4863">taskRepository</text><text fill="#000000" font-family="sans-serif" font-size="14" lengthAdjust="spacing" textLength="107" x="1694.5" y="72.1074">: TaskRepository</text><rect fill="#E3E3E3" height="51.2422" rx="2.5" ry="2.5" style="stroke:#181818;stroke-width:0.5;" width="121" x="1687.5" y="1371.8828"/><text fill="#000000" font-family="sans-serif" font-size="14" lengthAdjust="spacing" textLength="94" x="1701" y="1393.9902">taskRepository</text><text fill="#000000" font-family="sans-serif" font-size="14" lengthAdjust="spacing" textLength="107" x="1694.5" y="1412.6113">: TaskRepository</text><rect fill="#E3E3E3" height="51.2422" rx="2.5" ry="2.5" style="stroke:#181818;stroke-width:0.5;" width="143" x="1818.5" y="31.3789"/><text fill="#000000" font-family="sans-serif" font-size="14" lengthAdjust="spacing" textLength="120" x="1830" y="53.4863">toDoListRepository</text><text fill="#000000" font-family="sans-serif" font-size="14" lengthAdjust="spacing" textLength="125" x="1829.5" y="72.1074">ToDoListRepository</text><rect fill="#E3E3E3" height="51.2422" rx="2.5" ry="2.5" style="stroke:#181818;stroke-width:0.5;" width="143" x="1818.5" y="1371.8828"/><text fill="#000000" font-family="sans-serif" font-size="14" lengthAdjust="spacing" textLength="120" x="1830" y="1393.9902">toDoListRepository</text><text fill="#000000" font-family="sans-serif" font-size="14" lengthAdjust="spacing" textLength="125" x="1829.5" y="1412.6113">ToDoListRepository</text><rect fill="#E3E3E3" height="51.2422" rx="2.5" ry="2.5" style="stroke:#181818;stroke-width:0.5;" width="84" x="1972" y="31.3789"/><text fill="#000000" font-family="sans-serif" font-size="14" lengthAdjust="spacing" textLength="61" x="1983.5" y="53.4863">employee</text><text fill="#000000" font-family="sans-serif" font-size="14" lengthAdjust="spacing" textLength="70" x="1979" y="72.1074">: Employee</text><rect fill="#E3E3E3" height="51.2422" rx="2.5" ry="2.5" style="stroke:#181818;stroke-width:0.5;" width="84" x="1972" y="1371.8828"/><text fill="#000000" font-family="sans-serif" font-size="14" lengthAdjust="spacing" textLength="61" x="1983.5" y="1393.9902">employee</text><text fill="#000000" font-family="sans-serif" font-size="14" lengthAdjust="spacing" textLength="70" x="1979" y="1412.6113">: Employee</text><rect fill="#E3E3E3" height="51.2422" rx="2.5" ry="2.5" style="stroke:#181818;stroke-width:0.5;" width="176" x="2066" y="31.3789"/><text fill="#000000" font-family="sans-serif" font-size="14" lengthAdjust="spacing" textLength="157" x="2075.5" y="53.4863">authenticationRepository</text><text fill="#000000" font-family="sans-serif" font-size="14" lengthAdjust="spacing" textLength="162" x="2073" y="72.1074">:AuthenticationRepository</text><rect fill="#E3E3E3" height="51.2422" rx="2.5" ry="2.5" style="stroke:#181818;stroke-width:0.5;" width="176" x="2066" y="1371.8828"/><text fill="#000000" font-family="sans-serif" font-size="14" lengthAdjust="spacing" textLength="157" x="2075.5" y="1393.9902">authenticationRepository</text><text fill="#000000" font-family="sans-serif" font-size="14" lengthAdjust="spacing" textLength="162" x="2073" y="1412.6113">:AuthenticationRepository</text><rect fill="#E3E3E3" height="51.2422" rx="2.5" ry="2.5" style="stroke:#181818;stroke-width:0.5;" width="97" x="2252" y="31.3789"/><text fill="#000000" font-family="sans-serif" font-size="14" lengthAdjust="spacing" textLength="78" x="2261.5" y="53.4863">userSession</text><text fill="#000000" font-family="sans-serif" font-size="14" lengthAdjust="spacing" textLength="83" x="2259" y="72.1074">:UserSessoin</text><rect fill="#E3E3E3" height="51.2422" rx="2.5" ry="2.5" style="stroke:#181818;stroke-width:0.5;" width="97" x="2252" y="1371.8828"/><text fill="#000000" font-family="sans-serif" font-size="14" lengthAdjust="spacing" textLength="78" x="2261.5" y="1393.9902">userSession</text><text fill="#000000" font-family="sans-serif" font-size="14" lengthAdjust="spacing" textLength="83" x="2259" y="1412.6113">:UserSessoin</text><rect fill="#E3E3E3" height="32.6211" rx="2.5" ry="2.5" style="stroke:#181818;stroke-width:0.5;" width="55" x="2455.5" y="50"/><text fill="#000000" font-family="sans-serif" font-size="14" lengthAdjust="spacing" textLength="41" x="2462.5" y="72.1074">: Entry</text><rect fill="#E3E3E3" height="32.6211" rx="2.5" ry="2.5" style="stroke:#181818;stroke-width:0.5;" width="55" x="2455.5" y="1371.8828"/><text fill="#000000" font-family="sans-serif" font-size="14" lengthAdjust="spacing" textLength="41" x="2462.5" y="1393.9902">: Entry</text><rect fill="#FFFFFF" height="1261.2617" style="stroke:#181818;stroke-width:1.0;" width="10" x="75" y="93.6211"/><rect fill="#FFFFFF" height="647.4414" style="stroke:#181818;stroke-width:1.0;" width="10" x="594" y="243.3672"/><rect fill="#FFFFFF" height="75.582" style="stroke:#181818;stroke-width:1.0;" width="10" x="594" y="922.0996"/><rect fill="#FFFFFF" height="325.9102" style="stroke:#181818;stroke-width:1.0;" width="10" x="594" y="1028.9727"/><rect fill="#FFFFFF" height="353.4922" style="stroke:#181818;stroke-width:1.0;" width="10" x="1137" y="318.2793"/><rect fill="#FFFFFF" height="156.4551" style="stroke:#181818;stroke-width:1.0;" width="10" x="1137" y="703.0625"/><rect fill="#FFFFFF" height="263.3281" style="stroke:#181818;stroke-width:1.0;" width="10" x="1137" y="1060.2637"/><rect fill="#FFFFFF" height="31.291" style="stroke:#181818;stroke-width:1.0;" width="10" x="1338" y="349.5703"/><rect fill="#FFFFFF" height="103.1641" style="stroke:#181818;stroke-width:1.0;" width="10" x="1338" y="412.1523"/><rect fill="#FFFFFF" height="31.291" style="stroke:#181818;stroke-width:1.0;" width="10" x="1449" y="546.6074"/><rect fill="#FFFFFF" height="31.291" style="stroke:#181818;stroke-width:1.0;" width="10" x="1449" y="734.3535"/><rect fill="#FFFFFF" height="31.291" style="stroke:#181818;stroke-width:1.0;" width="10" x="1591" y="609.1895"/><rect fill="#FFFFFF" height="31.291" style="stroke:#181818;stroke-width:1.0;" width="10" x="1743" y="796.9355"/><rect fill="#FFFFFF" height="75.582" style="stroke:#181818;stroke-width:1.0;" width="10" x="1885" y="1216.7188"/><rect fill="#FFFFFF" height="93.873" style="stroke:#181818;stroke-width:1.0;" width="10" x="2009" y="1091.5547"/><rect fill="#FFFFFF" height="31.291" style="stroke:#181818;stroke-width:1.0;" width="10" x="2478" y="1122.8457"/><path d="M90,98.6211 L90,159.6211 L358,159.6211 L358,108.6211 L348,98.6211 L90,98.6211 " fill="#FAFAFA" style="stroke:#181818;stroke-width:0.5;"/><path d="M348,98.6211 L348,108.6211 L358,108.6211 L348,98.6211 " fill="#FAFAFA" style="stroke:#181818;stroke-width:0.5;"/><text fill="#000000" font-family="sans-serif" font-size="13" lengthAdjust="spacing" textLength="247" x="96" y="117.6494">- The user is already logged in at this step.</text><text fill="#000000" font-family="sans-serif" font-size="13" lengthAdjust="spacing" textLength="238" x="96" y="134.9404">- Authentication sequence is explained in</text><text fill="#000000" font-family="sans-serif" font-size="13" lengthAdjust="spacing" textLength="118" x="96" y="152.2314">a sequence excerpt.</text><path d="M1348,170.4941 L1348,214.4941 L1445,214.4941 L1445,180.4941 L1435,170.4941 L1348,170.4941 " fill="#FAFAFA" style="stroke:#181818;stroke-width:0.5;"/><path d="M1435,170.4941 L1435,180.4941 L1445,180.4941 L1435,170.4941 " fill="#FAFAFA" style="stroke:#181818;stroke-width:0.5;"/><text fill="#000000" font-family="sans-serif" font-size="13" lengthAdjust="spacing" textLength="76" x="1354" y="189.5225">- Singleton is</text><text fill="#000000" font-family="sans-serif" font-size="13" lengthAdjust="spacing" textLength="35" x="1354" y="206.8135">in use</text><polygon fill="#181818" points="582,239.3672,592,243.3672,582,247.3672,586,243.3672" style="stroke:#181818;stroke-width:1.0;"/><line style="stroke:#181818;stroke-width:1.0;" x1="85" x2="588" y1="243.3672" y2="243.3672"/><text fill="#000000" font-family="sans-serif" font-size="13" font-weight="bold" lengthAdjust="spacing" textLength="7" x="92" y="238.1045">1</text><text fill="#000000" font-family="sans-serif" font-size="13" lengthAdjust="spacing" textLength="219" x="103" y="238.1045">asks to add an entry to the To Do List</text><polygon fill="#181818" points="1050,270.6582,1060,274.6582,1050,278.6582,1054,274.6582" style="stroke:#181818;stroke-width:1.0;"/><line style="stroke:#181818;stroke-width:1.0;" x1="604" x2="1056" y1="274.6582" y2="274.6582"/><text fill="#000000" font-family="sans-serif" font-size="13" font-weight="bold" lengthAdjust="spacing" textLength="7" x="611" y="269.3955">2</text><text fill="#000000" font-family="sans-serif" font-size="13" lengthAdjust="spacing" textLength="36" x="622" y="269.3955">create</text><rect fill="#E3E3E3" height="32.6211" rx="2.5" ry="2.5" style="stroke:#181818;stroke-width:0.5;" width="160" x="1062" y="251.3672"/><text fill="#000000" font-family="sans-serif" font-size="14" lengthAdjust="spacing" textLength="146" x="1069" y="273.4746">: CreateEntryController</text><polygon fill="#181818" points="1125,314.2793,1135,318.2793,1125,322.2793,1129,318.2793" style="stroke:#181818;stroke-width:1.0;"/><line style="stroke:#181818;stroke-width:1.0;" x1="604" x2="1131" y1="318.2793" y2="318.2793"/><text fill="#000000" font-family="sans-serif" font-size="13" font-weight="bold" lengthAdjust="spacing" textLength="7" x="611" y="313.0166">3</text><text fill="#000000" font-family="sans-serif" font-size="13" lengthAdjust="spacing" textLength="120" x="622" y="313.0166">getAllGreenSpaces()</text><polygon fill="#181818" points="1326,345.5703,1336,349.5703,1326,353.5703,1330,349.5703" style="stroke:#181818;stroke-width:1.0;"/><line style="stroke:#181818;stroke-width:1.0;" x1="1147" x2="1332" y1="349.5703" y2="349.5703"/><text fill="#000000" font-family="sans-serif" font-size="13" font-weight="bold" lengthAdjust="spacing" textLength="7" x="1154" y="344.3076">4</text><text fill="#000000" font-family="sans-serif" font-size="13" lengthAdjust="spacing" textLength="75" x="1165" y="344.3076">getInstance()</text><polygon fill="#181818" points="1158,376.8613,1148,380.8613,1158,384.8613,1154,380.8613" style="stroke:#181818;stroke-width:1.0;"/><line style="stroke:#181818;stroke-width:1.0;stroke-dasharray:2.0,2.0;" x1="1152" x2="1342" y1="380.8613" y2="380.8613"/><text fill="#000000" font-family="sans-serif" font-size="13" font-weight="bold" lengthAdjust="spacing" textLength="7" x="1164" y="375.5986">5</text><text fill="#000000" font-family="sans-serif" font-size="13" lengthAdjust="spacing" textLength="67" x="1175" y="375.5986">repositories</text><polygon fill="#181818" points="1326,408.1523,1336,412.1523,1326,416.1523,1330,412.1523" style="stroke:#181818;stroke-width:1.0;"/><line style="stroke:#181818;stroke-width:1.0;" x1="1147" x2="1332" y1="412.1523" y2="412.1523"/><text fill="#000000" font-family="sans-serif" font-size="13" font-weight="bold" lengthAdjust="spacing" textLength="7" x="1154" y="406.8896">6</text><text fill="#000000" font-family="sans-serif" font-size="13" lengthAdjust="spacing" textLength="161" x="1165" y="406.8896">getEmployeeFromSession()</text><path d="M1152,425.1523 L1152,486.1523 L1325,486.1523 L1325,435.1523 L1315,425.1523 L1152,425.1523 " fill="#FAFAFA" style="stroke:#181818;stroke-width:0.5;"/><path d="M1315,425.1523 L1315,435.1523 L1325,435.1523 L1315,425.1523 " fill="#FAFAFA" style="stroke:#181818;stroke-width:0.5;"/><text fill="#000000" font-family="sans-serif" font-size="13" lengthAdjust="spacing" textLength="152" x="1158" y="444.1807">- This method is explained</text><text fill="#000000" font-family="sans-serif" font-size="13" lengthAdjust="spacing" textLength="124" x="1158" y="461.4717">in detail in an excerpt</text><text fill="#000000" font-family="sans-serif" font-size="13" lengthAdjust="spacing" textLength="110" x="1158" y="478.7627">sequence diagram.</text><polygon fill="#181818" points="1158,511.3164,1148,515.3164,1158,519.3164,1154,515.3164" style="stroke:#181818;stroke-width:1.0;"/><line style="stroke:#181818;stroke-width:1.0;stroke-dasharray:2.0,2.0;" x1="1152" x2="1342" y1="515.3164" y2="515.3164"/><text fill="#000000" font-family="sans-serif" font-size="13" font-weight="bold" lengthAdjust="spacing" textLength="7" x="1164" y="510.0537">7</text><text fill="#000000" font-family="sans-serif" font-size="13" lengthAdjust="spacing" textLength="56" x="1175" y="510.0537">employee</text><polygon fill="#181818" points="1437,542.6074,1447,546.6074,1437,550.6074,1441,546.6074" style="stroke:#181818;stroke-width:1.0;"/><line style="stroke:#181818;stroke-width:1.0;" x1="1147" x2="1443" y1="546.6074" y2="546.6074"/><text fill="#000000" font-family="sans-serif" font-size="13" font-weight="bold" lengthAdjust="spacing" textLength="7" x="1154" y="541.3447">8</text><text fill="#000000" font-family="sans-serif" font-size="13" lengthAdjust="spacing" textLength="160" x="1165" y="541.3447">getGreenSpaceRepository()</text><polygon fill="#181818" points="1158,573.8984,1148,577.8984,1158,581.8984,1154,577.8984" style="stroke:#181818;stroke-width:1.0;"/><line style="stroke:#181818;stroke-width:1.0;stroke-dasharray:2.0,2.0;" x1="1152" x2="1453" y1="577.8984" y2="577.8984"/><text fill="#000000" font-family="sans-serif" font-size="13" font-weight="bold" lengthAdjust="spacing" textLength="7" x="1164" y="572.6357">9</text><text fill="#000000" font-family="sans-serif" font-size="13" lengthAdjust="spacing" textLength="131" x="1175" y="572.6357">greenSpaceRepository</text><polygon fill="#181818" points="1579,605.1895,1589,609.1895,1579,613.1895,1583,609.1895" style="stroke:#181818;stroke-width:1.0;"/><line style="stroke:#181818;stroke-width:1.0;" x1="1147" x2="1585" y1="609.1895" y2="609.1895"/><text fill="#000000" font-family="sans-serif" font-size="13" font-weight="bold" lengthAdjust="spacing" textLength="14" x="1154" y="603.9268">10</text><text fill="#000000" font-family="sans-serif" font-size="13" lengthAdjust="spacing" textLength="120" x="1172" y="603.9268">getAllGreenSpaces()</text><polygon fill="#181818" points="1158,636.4805,1148,640.4805,1158,644.4805,1154,640.4805" style="stroke:#181818;stroke-width:1.0;"/><line style="stroke:#181818;stroke-width:1.0;stroke-dasharray:2.0,2.0;" x1="1152" x2="1595" y1="640.4805" y2="640.4805"/><text fill="#000000" font-family="sans-serif" font-size="13" font-weight="bold" lengthAdjust="spacing" textLength="14" x="1164" y="635.2178">11</text><text fill="#000000" font-family="sans-serif" font-size="13" lengthAdjust="spacing" textLength="76" x="1182" y="635.2178">greenSpaces</text><polygon fill="#181818" points="615,667.7715,605,671.7715,615,675.7715,611,671.7715" style="stroke:#181818;stroke-width:1.0;"/><line style="stroke:#181818;stroke-width:1.0;stroke-dasharray:2.0,2.0;" x1="609" x2="1141" y1="671.7715" y2="671.7715"/><text fill="#000000" font-family="sans-serif" font-size="13" font-weight="bold" lengthAdjust="spacing" textLength="14" x="621" y="666.5088">12</text><text fill="#000000" font-family="sans-serif" font-size="13" lengthAdjust="spacing" textLength="76" x="639" y="666.5088">greenSpaces</text><polygon fill="#181818" points="1125,699.0625,1135,703.0625,1125,707.0625,1129,703.0625" style="stroke:#181818;stroke-width:1.0;"/><line style="stroke:#181818;stroke-width:1.0;stroke-dasharray:2.0,2.0;" x1="604" x2="1131" y1="703.0625" y2="703.0625"/><text fill="#000000" font-family="sans-serif" font-size="13" font-weight="bold" lengthAdjust="spacing" textLength="14" x="611" y="697.7998">13</text><text fill="#000000" font-family="sans-serif" font-size="13" lengthAdjust="spacing" textLength="76" x="629" y="697.7998">getAllTasks()</text><polygon fill="#181818" points="1437,730.3535,1447,734.3535,1437,738.3535,1441,734.3535" style="stroke:#181818;stroke-width:1.0;"/><line style="stroke:#181818;stroke-width:1.0;" x1="1147" x2="1443" y1="734.3535" y2="734.3535"/><text fill="#000000" font-family="sans-serif" font-size="13" font-weight="bold" lengthAdjust="spacing" textLength="14" x="1154" y="729.0908">14</text><text fill="#000000" font-family="sans-serif" font-size="13" lengthAdjust="spacing" textLength="116" x="1172" y="729.0908">getTaskRepository()</text><polygon fill="#181818" points="1158,761.6445,1148,765.6445,1158,769.6445,1154,765.6445" style="stroke:#181818;stroke-width:1.0;"/><line style="stroke:#181818;stroke-width:1.0;stroke-dasharray:2.0,2.0;" x1="1152" x2="1453" y1="765.6445" y2="765.6445"/><text fill="#000000" font-family="sans-serif" font-size="13" font-weight="bold" lengthAdjust="spacing" textLength="14" x="1164" y="760.3818">15</text><text fill="#000000" font-family="sans-serif" font-size="13" lengthAdjust="spacing" textLength="87" x="1182" y="760.3818">taskRepository</text><polygon fill="#181818" points="1731,792.9355,1741,796.9355,1731,800.9355,1735,796.9355" style="stroke:#181818;stroke-width:1.0;"/><line style="stroke:#181818;stroke-width:1.0;" x1="1147" x2="1737" y1="796.9355" y2="796.9355"/><text fill="#000000" font-family="sans-serif" font-size="13" font-weight="bold" lengthAdjust="spacing" textLength="14" x="1154" y="791.6729">16</text><text fill="#000000" font-family="sans-serif" font-size="13" lengthAdjust="spacing" textLength="76" x="1172" y="791.6729">getAllTasks()</text><polygon fill="#181818" points="1158,824.2266,1148,828.2266,1158,832.2266,1154,828.2266" style="stroke:#181818;stroke-width:1.0;"/><line style="stroke:#181818;stroke-width:1.0;stroke-dasharray:2.0,2.0;" x1="1152" x2="1747" y1="828.2266" y2="828.2266"/><text fill="#000000" font-family="sans-serif" font-size="13" font-weight="bold" lengthAdjust="spacing" textLength="14" x="1164" y="822.9639">17</text><text fill="#000000" font-family="sans-serif" font-size="13" lengthAdjust="spacing" textLength="32" x="1182" y="822.9639">tasks</text><polygon fill="#181818" points="615,855.5176,605,859.5176,615,863.5176,611,859.5176" style="stroke:#181818;stroke-width:1.0;"/><line style="stroke:#181818;stroke-width:1.0;stroke-dasharray:2.0,2.0;" x1="609" x2="1141" y1="859.5176" y2="859.5176"/><text fill="#000000" font-family="sans-serif" font-size="13" font-weight="bold" lengthAdjust="spacing" textLength="14" x="621" y="854.2549">18</text><text fill="#000000" font-family="sans-serif" font-size="13" lengthAdjust="spacing" textLength="32" x="639" y="854.2549">tasks</text><polygon fill="#181818" points="96,886.8086,86,890.8086,96,894.8086,92,890.8086" style="stroke:#181818;stroke-width:1.0;"/><line style="stroke:#181818;stroke-width:1.0;stroke-dasharray:2.0,2.0;" x1="90" x2="598" y1="890.8086" y2="890.8086"/><text fill="#000000" font-family="sans-serif" font-size="13" font-weight="bold" lengthAdjust="spacing" textLength="14" x="102" y="885.5459">19</text><text fill="#000000" font-family="sans-serif" font-size="13" lengthAdjust="spacing" textLength="467" x="120" y="885.5459">requestData (greenSpace, task, urgency degree, approximate expected duration)</text><polygon fill="#181818" points="582,918.0996,592,922.0996,582,926.0996,586,922.0996" style="stroke:#181818;stroke-width:1.0;"/><line style="stroke:#181818;stroke-width:1.0;" x1="85" x2="588" y1="922.0996" y2="922.0996"/><text fill="#000000" font-family="sans-serif" font-size="13" font-weight="bold" lengthAdjust="spacing" textLength="14" x="92" y="916.8369">20</text><text fill="#000000" font-family="sans-serif" font-size="13" lengthAdjust="spacing" textLength="122" x="110" y="916.8369">types requested data</text><line style="stroke:#181818;stroke-width:1.0;" x1="604" x2="646" y1="958.3906" y2="958.3906"/><line style="stroke:#181818;stroke-width:1.0;" x1="646" x2="646" y1="958.3906" y2="971.3906"/><line style="stroke:#181818;stroke-width:1.0;" x1="599" x2="646" y1="971.3906" y2="971.3906"/><polygon fill="#181818" points="609,967.3906,599,971.3906,609,975.3906,605,971.3906" style="stroke:#181818;stroke-width:1.0;"/><text fill="#000000" font-family="sans-serif" font-size="13" font-weight="bold" lengthAdjust="spacing" textLength="14" x="611" y="953.1279">21</text><text fill="#000000" font-family="sans-serif" font-size="13" lengthAdjust="spacing" textLength="501" x="629" y="953.1279">validatesEntryData(greenSpace, task, urgency degree, approximate expected duration)</text><polygon fill="#181818" points="96,993.6816,86,997.6816,96,1001.6816,92,997.6816" style="stroke:#181818;stroke-width:1.0;"/><line style="stroke:#181818;stroke-width:1.0;stroke-dasharray:2.0,2.0;" x1="90" x2="598" y1="997.6816" y2="997.6816"/><text fill="#000000" font-family="sans-serif" font-size="13" font-weight="bold" lengthAdjust="spacing" textLength="14" x="102" y="992.4189">22</text><text fill="#000000" font-family="sans-serif" font-size="13" lengthAdjust="spacing" textLength="252" x="120" y="992.4189">shows entry data and requests confirmation</text><polygon fill="#181818" points="582,1024.9727,592,1028.9727,582,1032.9727,586,1028.9727" style="stroke:#181818;stroke-width:1.0;"/><line style="stroke:#181818;stroke-width:1.0;" x1="85" x2="588" y1="1028.9727" y2="1028.9727"/><text fill="#000000" font-family="sans-serif" font-size="13" font-weight="bold" lengthAdjust="spacing" textLength="14" x="92" y="1023.71">23</text><text fill="#000000" font-family="sans-serif" font-size="13" lengthAdjust="spacing" textLength="78" x="110" y="1023.71">confirms data</text><polygon fill="#181818" points="1125,1056.2637,1135,1060.2637,1125,1064.2637,1129,1060.2637" style="stroke:#181818;stroke-width:1.0;"/><line style="stroke:#181818;stroke-width:1.0;" x1="604" x2="1131" y1="1060.2637" y2="1060.2637"/><text fill="#000000" font-family="sans-serif" font-size="13" font-weight="bold" lengthAdjust="spacing" textLength="14" x="611" y="1055.001">24</text><text fill="#000000" font-family="sans-serif" font-size="13" lengthAdjust="spacing" textLength="460" x="629" y="1055.001">createEntry(greenSpace, task, urgency degree, approximate expected duration)</text><polygon fill="#181818" points="1997,1087.5547,2007,1091.5547,1997,1095.5547,2001,1091.5547" style="stroke:#181818;stroke-width:1.0;"/><line style="stroke:#181818;stroke-width:1.0;" x1="1147" x2="2003" y1="1091.5547" y2="1091.5547"/><text fill="#000000" font-family="sans-serif" font-size="13" font-weight="bold" lengthAdjust="spacing" textLength="14" x="1154" y="1086.292">25</text><text fill="#000000" font-family="sans-serif" font-size="13" lengthAdjust="spacing" textLength="460" x="1172" y="1086.292">createEntry(greenSpace, task, urgency degree, approximate expected duration)</text><polygon fill="#181818" points="2466,1118.8457,2476,1122.8457,2466,1126.8457,2470,1122.8457" style="stroke:#181818;stroke-width:1.0;"/><line style="stroke:#181818;stroke-width:1.0;" x1="2019" x2="2472" y1="1122.8457" y2="1122.8457"/><text fill="#000000" font-family="sans-serif" font-size="13" font-weight="bold" lengthAdjust="spacing" textLength="14" x="2026" y="1117.583">26</text><text fill="#000000" font-family="sans-serif" font-size="13" lengthAdjust="spacing" textLength="422" x="2044" y="1117.583">entry(greenSpace, task, urgency degree, approximate expected duration)</text><polygon fill="#181818" points="2030,1150.1367,2020,1154.1367,2030,1158.1367,2026,1154.1367" style="stroke:#181818;stroke-width:1.0;"/><line style="stroke:#181818;stroke-width:1.0;stroke-dasharray:2.0,2.0;" x1="2024" x2="2482" y1="1154.1367" y2="1154.1367"/><text fill="#000000" font-family="sans-serif" font-size="13" font-weight="bold" lengthAdjust="spacing" textLength="14" x="2036" y="1148.874">27</text><text fill="#000000" font-family="sans-serif" font-size="13" lengthAdjust="spacing" textLength="54" x="2054" y="1148.874">newEntry</text><polygon fill="#181818" points="1158,1181.4277,1148,1185.4277,1158,1189.4277,1154,1185.4277" style="stroke:#181818;stroke-width:1.0;"/><line style="stroke:#181818;stroke-width:1.0;stroke-dasharray:2.0,2.0;" x1="1152" x2="2013" y1="1185.4277" y2="1185.4277"/><text fill="#000000" font-family="sans-serif" font-size="13" font-weight="bold" lengthAdjust="spacing" textLength="14" x="1164" y="1180.165">28</text><text fill="#000000" font-family="sans-serif" font-size="13" lengthAdjust="spacing" textLength="54" x="1182" y="1180.165">newEntry</text><polygon fill="#181818" points="1873,1212.7188,1883,1216.7188,1873,1220.7188,1877,1216.7188" style="stroke:#181818;stroke-width:1.0;"/><line style="stroke:#181818;stroke-width:1.0;" x1="1147" x2="1879" y1="1216.7188" y2="1216.7188"/><text fill="#000000" font-family="sans-serif" font-size="13" font-weight="bold" lengthAdjust="spacing" textLength="14" x="1154" y="1211.4561">29</text><text fill="#000000" font-family="sans-serif" font-size="13" lengthAdjust="spacing" textLength="89" x="1172" y="1211.4561">addEntry(entry)</text><line style="stroke:#181818;stroke-width:1.0;" x1="1895" x2="1937" y1="1248.0098" y2="1248.0098"/><line style="stroke:#181818;stroke-width:1.0;" x1="1937" x2="1937" y1="1248.0098" y2="1261.0098"/><line style="stroke:#181818;stroke-width:1.0;" x1="1896" x2="1937" y1="1261.0098" y2="1261.0098"/><polygon fill="#181818" points="1906,1257.0098,1896,1261.0098,1906,1265.0098,1902,1261.0098" style="stroke:#181818;stroke-width:1.0;"/><text fill="#000000" font-family="sans-serif" font-size="13" font-weight="bold" lengthAdjust="spacing" textLength="14" x="1902" y="1242.7471">30</text><text fill="#000000" font-family="sans-serif" font-size="13" lengthAdjust="spacing" textLength="82" x="1920" y="1242.7471">validateEntry()</text><polygon fill="#181818" points="1158,1288.3008,1148,1292.3008,1158,1296.3008,1154,1292.3008" style="stroke:#181818;stroke-width:1.0;"/><line style="stroke:#181818;stroke-width:1.0;stroke-dasharray:2.0,2.0;" x1="1152" x2="1889" y1="1292.3008" y2="1292.3008"/><text fill="#000000" font-family="sans-serif" font-size="13" font-weight="bold" lengthAdjust="spacing" textLength="14" x="1164" y="1287.0381">31</text><text fill="#000000" font-family="sans-serif" font-size="13" lengthAdjust="spacing" textLength="54" x="1182" y="1287.0381">newEntry</text><polygon fill="#181818" points="615,1319.5918,605,1323.5918,615,1327.5918,611,1323.5918" style="stroke:#181818;stroke-width:1.0;"/><line style="stroke:#181818;stroke-width:1.0;stroke-dasharray:2.0,2.0;" x1="609" x2="1141" y1="1323.5918" y2="1323.5918"/><text fill="#000000" font-family="sans-serif" font-size="13" font-weight="bold" lengthAdjust="spacing" textLength="14" x="621" y="1318.3291">32</text><text fill="#000000" font-family="sans-serif" font-size="13" lengthAdjust="spacing" textLength="54" x="639" y="1318.3291">newEntry</text><polygon fill="#181818" points="91,1350.8828,81,1354.8828,91,1358.8828,87,1354.8828" style="stroke:#181818;stroke-width:1.0;"/><line style="stroke:#181818;stroke-width:1.0;" x1="85" x2="598" y1="1354.8828" y2="1354.8828"/><text fill="#000000" font-family="sans-serif" font-size="13" font-weight="bold" lengthAdjust="spacing" textLength="14" x="97" y="1349.6201">33</text><text fill="#000000" font-family="sans-serif" font-size="13" lengthAdjust="spacing" textLength="158" x="115" y="1349.6201">displays operation success</text><!--SRC=[jLPBRziu4BxhLmnoQLCa-G4vB60ugjVOn2uivR10WO2L9X8HcTIIT1F_-nrIJygqtMopFWGHP-QRzqE_S54pnRQmbK9cfP9R1ADs6EcUKhFiXHMOc7s5e30pJ1JLc46NB9UlN1Jmp2gDKSHsHehTzWUgAFfKyXpXMKhpGxuHAJDImSL28Gf821hXWGc2LnV0D2oIXuX03SzupOI1YrkOAsG6Os7K_d7fc1wN9tZcalxAgce1v-dcVigzmLfgJdPmr8vflLay9SlLuZvErokVMuruluiZiijLaivMyzWNBQoFpiLUQ7_xNIm2putlcpXU9Tzcy_Xf4tzR-s26wPU1trgIUYyE8PqbVuLavPsyvzgCvI4zU6mWrdVh-sMI1c1mMrToZsYLn-t_JkPXjTZuh5G09GhwPePBuTazEq9oIBF7zC-0vfr6bQ3M9408Z-sNvA8fXsJpbCH9ifpcZioq5U6OubMw-JkA8Y4D5J4lIWFosPKRqEyQqXB1gW6kWLLKJlaUAbaKc0CNm0oOaYZQO7tJIlYEWCP_TYYed8aDt-gASU5a7JSRoFYMeQhDJOGY1slDr2Q_61jT2RSjHqr5wEw9R29hHnYsiVXFQWBda-EnF_g0wp-eO-2Mel2YmKXWUGvC0DhOs6zoWwe1xYJOUXXaUqJgDnZzFcMksvhMwXv90-cnJr- -aAw69GgGYLYWcLNLq0Vwy-MXKeVUFpj9Gl22qq0jXQQ9b648n8zbJ_THhblBRc7Sx3rpZkVWJXZNzSbN6gnj1PETlQIVUI-WjYIfbBPeIfbxHTMpK17aQ1YlN8cAhhHwUbzpEMS53UgRdZBKpU-5Z9pifaBq7mFMpSucNg7XU2on_TJrZEpnXhI61l4nQmz1EsCdu_bNwtWwrOVMdE2DOZeOh8DXFOhPsDer_1WcWE9tcEtGQOlQ5VFEvlJJwU-etqmaGVfRyFqvx1VaUHU7NThJ1kc9IU4i1H3y_1mN3QR6pd8xewYfjRbZXi7d8SDN3kqATggWbjyJcALT0Qjh9T_urgBI1A7hZRPIlbDkQLq6bTEu3-uFiwzHT_ej2faGtXRUkcX6lqFuoIfEKgZTNhOkVA079qDu44PTobVTxa3h2CtFlFDDGoR5CrTRf-9iZAPnQeNr-mBKbbCsNB8V49jpdJlj3tl9VRWHKsMzBUvkF20x6yWMTx7P1VD_cz6UXbDwe_zwY8h0LnUIGzPHOHm1QvmQqlnBME7uzBDiVAdRyoxFcuovW9rosB_n3_Xyu82cheqRTPTd4TxfzWdp_FbvY7PoX7QjdtDDbzHUWwnHjSVxBgCbsSxYIPkFzowTrly2]--></g></svg>