<?xml version="1.0" encoding="us-ascii" standalone="no"?><svg xmlns="http://www.w3.org/2000/svg" xmlns:xlink="http://www.w3.org/1999/xlink" contentStyleType="text/css" height="1460px" preserveAspectRatio="none" style="width:1172px;height:1460px;background:#FFFFFF;" version="1.1" viewBox="0 0 1172 1460" width="1172px" zoomAndPan="magnify"><defs/><g><!--cluster UI--><g id="cluster_UI"><path d="M199.5,6.0137 L214.5,6.0137 A3.75,3.75 0 0 1 217,8.5137 L224,30.6348 L546.5,30.6348 A2.5,2.5 0 0 1 549,33.1348 L549,253.5137 A2.5,2.5 0 0 1 546.5,256.0137 L199.5,256.0137 A2.5,2.5 0 0 1 197,253.5137 L197,8.5137 A2.5,2.5 0 0 1 199.5,6.0137 " fill="none" style="stroke:#000000;stroke-width:1.5;"/><line style="stroke:#000000;stroke-width:1.5;" x1="197" x2="224" y1="30.6348" y2="30.6348"/><text fill="#000000" font-family="sans-serif" font-size="14" font-weight="bold" lengthAdjust="spacing" textLength="14" x="201" y="23.1211">UI</text></g><!--cluster Controller--><g id="cluster_Controller"><path d="M203.5,289.0137 L275.5,289.0137 A3.75,3.75 0 0 1 278,291.5137 L285,313.6348 L542.5,313.6348 A2.5,2.5 0 0 1 545,316.1348 L545,461.5137 A2.5,2.5 0 0 1 542.5,464.0137 L203.5,464.0137 A2.5,2.5 0 0 1 201,461.5137 L201,291.5137 A2.5,2.5 0 0 1 203.5,289.0137 " fill="none" style="stroke:#000000;stroke-width:1.5;"/><line style="stroke:#000000;stroke-width:1.5;" x1="201" x2="285" y1="313.6348" y2="313.6348"/><text fill="#000000" font-family="sans-serif" font-size="14" font-weight="bold" lengthAdjust="spacing" textLength="71" x="205" y="306.1211">Controller</text></g><!--cluster Repository--><g id="cluster_Repository"><path d="M63.5,515.0137 L140.5,515.0137 A3.75,3.75 0 0 1 143,517.5137 L150,539.6348 L744.5,539.6348 A2.5,2.5 0 0 1 747,542.1348 L747,1108.5137 A2.5,2.5 0 0 1 744.5,1111.0137 L63.5,1111.0137 A2.5,2.5 0 0 1 61,1108.5137 L61,517.5137 A2.5,2.5 0 0 1 63.5,515.0137 " fill="none" style="stroke:#000000;stroke-width:1.5;"/><line style="stroke:#000000;stroke-width:1.5;" x1="61" x2="150" y1="539.6348" y2="539.6348"/><text fill="#000000" font-family="sans-serif" font-size="14" font-weight="bold" lengthAdjust="spacing" textLength="76" x="65" y="532.1211">Repository</text></g><!--cluster Domain--><g id="cluster_Domain"><path d="M773.5,870.0137 L826.5,870.0137 A3.75,3.75 0 0 1 829,872.5137 L836,894.6348 L1162.5,894.6348 A2.5,2.5 0 0 1 1165,897.1348 L1165,1450.5137 A2.5,2.5 0 0 1 1162.5,1453.0137 L773.5,1453.0137 A2.5,2.5 0 0 1 771,1450.5137 L771,872.5137 A2.5,2.5 0 0 1 773.5,870.0137 " fill="none" style="stroke:#000000;stroke-width:1.5;"/><line style="stroke:#000000;stroke-width:1.5;" x1="771" x2="836" y1="894.6348" y2="894.6348"/><text fill="#000000" font-family="sans-serif" font-size="14" font-weight="bold" lengthAdjust="spacing" textLength="52" x="775" y="887.1211">Domain</text></g><!--class CreateEntryUI--><g id="elem_CreateEntryUI"><rect codeLine="12" fill="#F1F1F1" height="196.9688" id="CreateEntryUI" rx="2.5" ry="2.5" style="stroke:#181818;stroke-width:0.5;" width="319" x="213.5" y="43.0137"/><ellipse cx="324.75" cy="59.0137" fill="#ADD1B2" rx="11" ry="11" style="stroke:#181818;stroke-width:1.0;"/><path d="M327.5156,54.8887 Q327.6719,54.6699 327.8594,54.5605 Q328.0469,54.4512 328.2656,54.4512 Q328.6406,54.4512 328.875,54.7168 Q329.1094,54.9668 329.1094,55.5762 L329.1094,57.0293 Q329.1094,57.6387 328.875,57.9043 Q328.6406,58.1699 328.2656,58.1699 Q327.9219,58.1699 327.7188,57.9668 Q327.5156,57.7793 327.4063,57.2637 Q327.3594,56.9043 327.1719,56.7168 Q326.8438,56.3418 326.2344,56.123 Q325.625,55.9043 325,55.9043 Q324.2344,55.9043 323.5938,56.2324 Q322.9688,56.5605 322.4688,57.3105 Q321.9844,58.0605 321.9844,59.0918 L321.9844,60.1855 Q321.9844,61.4199 322.875,62.248 Q323.7656,63.0605 325.3594,63.0605 Q326.2969,63.0605 326.9531,62.8105 Q327.3438,62.6543 327.7656,62.2168 Q328.0313,61.9512 328.1719,61.873 Q328.3281,61.7949 328.5313,61.7949 Q328.8594,61.7949 329.1094,62.0605 Q329.375,62.3105 329.375,62.6543 Q329.375,62.998 329.0313,63.4043 Q328.5313,63.9824 327.7344,64.3105 Q326.6563,64.7637 325.3594,64.7637 Q323.8438,64.7637 322.6406,64.1387 Q321.6563,63.6387 320.9688,62.5762 Q320.2813,61.498 320.2813,60.2168 L320.2813,59.0605 Q320.2813,57.7324 320.8906,56.5918 Q321.5156,55.4355 322.6094,54.8262 Q323.7031,54.2012 324.9375,54.2012 Q325.6719,54.2012 326.3125,54.373 Q326.9688,54.5293 327.5156,54.8887 Z " fill="#000000"/><text fill="#000000" font-family="sans-serif" font-size="14" lengthAdjust="spacing" textLength="88" x="345.25" y="64.8105">CreateEntryUI</text><line style="stroke:#181818;stroke-width:0.5;" x1="214.5" x2="531.5" y1="75.0137" y2="75.0137"/><line style="stroke:#181818;stroke-width:0.5;" x1="214.5" x2="531.5" y1="83.0137" y2="83.0137"/><text fill="#000000" font-family="sans-serif" font-size="14" lengthAdjust="spacing" textLength="39" x="219.5" y="102.1211">+run()</text><text fill="#000000" font-family="sans-serif" font-size="14" lengthAdjust="spacing" textLength="210" x="219.5" y="120.7422">+requestData (greenSpace, task,</text><text fill="#000000" font-family="sans-serif" font-size="14" lengthAdjust="spacing" textLength="307" x="219.5" y="139.3633">urgency degree, approximate expected duration)</text><text fill="#000000" font-family="sans-serif" font-size="14" lengthAdjust="spacing" textLength="89" x="219.5" y="157.9844">+submitData()</text><text fill="#000000" font-family="sans-serif" font-size="14" lengthAdjust="spacing" textLength="146" x="219.5" y="176.6055">+requestGreenSpace()</text><text fill="#000000" font-family="sans-serif" font-size="14" lengthAdjust="spacing" textLength="97" x="219.5" y="195.2266">+requestTask()</text><text fill="#000000" font-family="sans-serif" font-size="14" lengthAdjust="spacing" textLength="165" x="219.5" y="213.8477">+requestUrgencyDegree()</text><text fill="#000000" font-family="sans-serif" font-size="14" lengthAdjust="spacing" textLength="120" x="219.5" y="232.4688">+requestDuration()</text></g><!--class CreateEntryController--><g id="elem_CreateEntryController"><rect codeLine="24" fill="#F1F1F1" height="122.4844" id="CreateEntryController" rx="2.5" ry="2.5" style="stroke:#181818;stroke-width:0.5;" width="312" x="217" y="326.0137"/><ellipse cx="299.75" cy="342.0137" fill="#ADD1B2" rx="11" ry="11" style="stroke:#181818;stroke-width:1.0;"/><path d="M302.5156,337.8887 Q302.6719,337.6699 302.8594,337.5605 Q303.0469,337.4512 303.2656,337.4512 Q303.6406,337.4512 303.875,337.7168 Q304.1094,337.9668 304.1094,338.5762 L304.1094,340.0293 Q304.1094,340.6387 303.875,340.9043 Q303.6406,341.1699 303.2656,341.1699 Q302.9219,341.1699 302.7188,340.9668 Q302.5156,340.7793 302.4063,340.2637 Q302.3594,339.9043 302.1719,339.7168 Q301.8438,339.3418 301.2344,339.123 Q300.625,338.9043 300,338.9043 Q299.2344,338.9043 298.5938,339.2324 Q297.9688,339.5605 297.4688,340.3105 Q296.9844,341.0605 296.9844,342.0918 L296.9844,343.1855 Q296.9844,344.4199 297.875,345.248 Q298.7656,346.0605 300.3594,346.0605 Q301.2969,346.0605 301.9531,345.8105 Q302.3438,345.6543 302.7656,345.2168 Q303.0313,344.9512 303.1719,344.873 Q303.3281,344.7949 303.5313,344.7949 Q303.8594,344.7949 304.1094,345.0605 Q304.375,345.3105 304.375,345.6543 Q304.375,345.998 304.0313,346.4043 Q303.5313,346.9824 302.7344,347.3105 Q301.6563,347.7637 300.3594,347.7637 Q298.8438,347.7637 297.6406,347.1387 Q296.6563,346.6387 295.9688,345.5762 Q295.2813,344.498 295.2813,343.2168 L295.2813,342.0605 Q295.2813,340.7324 295.8906,339.5918 Q296.5156,338.4355 297.6094,337.8262 Q298.7031,337.2012 299.9375,337.2012 Q300.6719,337.2012 301.3125,337.373 Q301.9688,337.5293 302.5156,337.8887 Z " fill="#000000"/><text fill="#000000" font-family="sans-serif" font-size="14" lengthAdjust="spacing" textLength="138" x="320.25" y="347.8105">CreateEntryController</text><line style="stroke:#181818;stroke-width:0.5;" x1="218" x2="528" y1="358.0137" y2="358.0137"/><line style="stroke:#181818;stroke-width:0.5;" x1="218" x2="528" y1="366.0137" y2="366.0137"/><text fill="#000000" font-family="sans-serif" font-size="14" lengthAdjust="spacing" textLength="183" x="223" y="385.1211">+getEmployeeFromSession()</text><text fill="#000000" font-family="sans-serif" font-size="14" lengthAdjust="spacing" textLength="276" x="223" y="403.7422">+CreateEntryController(toDoListRepository)</text><text fill="#000000" font-family="sans-serif" font-size="14" lengthAdjust="spacing" textLength="205" x="223" y="422.3633">+createEntry( greenSpace, task,</text><text fill="#000000" font-family="sans-serif" font-size="14" lengthAdjust="spacing" textLength="300" x="223" y="440.9844">urgencyDegree, approximateExpectedDuration)</text></g><!--class Repositories--><g id="elem_Repositories"><rect codeLine="32" fill="#F1F1F1" height="271.4531" id="Repositories" rx="2.5" ry="2.5" style="stroke:#181818;stroke-width:0.5;" width="344" x="77" y="552.0137"/><ellipse cx="205.25" cy="568.0137" fill="#ADD1B2" rx="11" ry="11" style="stroke:#181818;stroke-width:1.0;"/><path d="M208.0156,563.8887 Q208.1719,563.6699 208.3594,563.5605 Q208.5469,563.4512 208.7656,563.4512 Q209.1406,563.4512 209.375,563.7168 Q209.6094,563.9668 209.6094,564.5762 L209.6094,566.0293 Q209.6094,566.6387 209.375,566.9043 Q209.1406,567.1699 208.7656,567.1699 Q208.4219,567.1699 208.2188,566.9668 Q208.0156,566.7793 207.9063,566.2637 Q207.8594,565.9043 207.6719,565.7168 Q207.3438,565.3418 206.7344,565.123 Q206.125,564.9043 205.5,564.9043 Q204.7344,564.9043 204.0938,565.2324 Q203.4688,565.5605 202.9688,566.3105 Q202.4844,567.0605 202.4844,568.0918 L202.4844,569.1855 Q202.4844,570.4199 203.375,571.248 Q204.2656,572.0605 205.8594,572.0605 Q206.7969,572.0605 207.4531,571.8105 Q207.8438,571.6543 208.2656,571.2168 Q208.5313,570.9512 208.6719,570.873 Q208.8281,570.7949 209.0313,570.7949 Q209.3594,570.7949 209.6094,571.0605 Q209.875,571.3105 209.875,571.6543 Q209.875,571.998 209.5313,572.4043 Q209.0313,572.9824 208.2344,573.3105 Q207.1563,573.7637 205.8594,573.7637 Q204.3438,573.7637 203.1406,573.1387 Q202.1563,572.6387 201.4688,571.5762 Q200.7813,570.498 200.7813,569.2168 L200.7813,568.0605 Q200.7813,566.7324 201.3906,565.5918 Q202.0156,564.4355 203.1094,563.8262 Q204.2031,563.2012 205.4375,563.2012 Q206.1719,563.2012 206.8125,563.373 Q207.4688,563.5293 208.0156,563.8887 Z " fill="#000000"/><text fill="#000000" font-family="sans-serif" font-size="14" lengthAdjust="spacing" textLength="79" x="225.75" y="573.8105">Repositories</text><line style="stroke:#181818;stroke-width:0.5;" x1="78" x2="420" y1="584.0137" y2="584.0137"/><text fill="#000000" font-family="sans-serif" font-size="14" lengthAdjust="spacing" textLength="149" x="83" y="603.1211">-instance : Repositories</text><text fill="#000000" font-family="sans-serif" font-size="14" lengthAdjust="spacing" textLength="310" x="83" y="621.7422">-greenSpaceRepository : GreenSpaceRepository</text><text fill="#000000" font-family="sans-serif" font-size="14" lengthAdjust="spacing" textLength="210" x="83" y="640.3633">-taskRepository : TaskRepository</text><text fill="#000000" font-family="sans-serif" font-size="14" lengthAdjust="spacing" textLength="262" x="83" y="658.9844">-toDoListRepository : ToDoListRepository</text><text fill="#000000" font-family="sans-serif" font-size="14" lengthAdjust="spacing" textLength="276" x="83" y="677.6055">-employeeRepository : EmployeeRepository</text><text fill="#000000" font-family="sans-serif" font-size="14" lengthAdjust="spacing" textLength="332" x="83" y="696.2266">-authenticationRepository : AuthenticationRepository</text><line style="stroke:#181818;stroke-width:0.5;" x1="78" x2="420" y1="703.7402" y2="703.7402"/><text fill="#000000" font-family="sans-serif" font-size="14" lengthAdjust="spacing" textLength="91" x="83" y="722.8477">+getInstance()</text><text fill="#000000" font-family="sans-serif" font-size="14" lengthAdjust="spacing" textLength="186" x="83" y="741.4688">+getGreenSpaceRepository()</text><text fill="#000000" font-family="sans-serif" font-size="14" lengthAdjust="spacing" textLength="137" x="83" y="760.0898">+getTaskRepository()</text><text fill="#000000" font-family="sans-serif" font-size="14" lengthAdjust="spacing" textLength="163" x="83" y="778.7109">+getToDoListRepository()</text><text fill="#000000" font-family="sans-serif" font-size="14" lengthAdjust="spacing" textLength="168" x="83" y="797.332">+getEmployeeRepository()</text><text fill="#000000" font-family="sans-serif" font-size="14" lengthAdjust="spacing" textLength="196" x="83" y="815.9531">+getAuthenticationRepository()</text></g><!--class GreenSpaceRepository--><g id="elem_GreenSpaceRepository"><rect codeLine="48" fill="#F1F1F1" height="66.6211" id="GreenSpaceRepository" rx="2.5" ry="2.5" style="stroke:#181818;stroke-width:0.5;" width="248" x="300" y="1028.0137"/><ellipse cx="345.75" cy="1044.0137" fill="#ADD1B2" rx="11" ry="11" style="stroke:#181818;stroke-width:1.0;"/><path d="M348.5156,1039.8887 Q348.6719,1039.6699 348.8594,1039.5605 Q349.0469,1039.4512 349.2656,1039.4512 Q349.6406,1039.4512 349.875,1039.7168 Q350.1094,1039.9668 350.1094,1040.5762 L350.1094,1042.0293 Q350.1094,1042.6387 349.875,1042.9043 Q349.6406,1043.1699 349.2656,1043.1699 Q348.9219,1043.1699 348.7188,1042.9668 Q348.5156,1042.7793 348.4063,1042.2637 Q348.3594,1041.9043 348.1719,1041.7168 Q347.8438,1041.3418 347.2344,1041.123 Q346.625,1040.9043 346,1040.9043 Q345.2344,1040.9043 344.5938,1041.2324 Q343.9688,1041.5605 343.4688,1042.3105 Q342.9844,1043.0605 342.9844,1044.0918 L342.9844,1045.1855 Q342.9844,1046.4199 343.875,1047.248 Q344.7656,1048.0605 346.3594,1048.0605 Q347.2969,1048.0605 347.9531,1047.8105 Q348.3438,1047.6543 348.7656,1047.2168 Q349.0313,1046.9512 349.1719,1046.873 Q349.3281,1046.7949 349.5313,1046.7949 Q349.8594,1046.7949 350.1094,1047.0605 Q350.375,1047.3105 350.375,1047.6543 Q350.375,1047.998 350.0313,1048.4043 Q349.5313,1048.9824 348.7344,1049.3105 Q347.6563,1049.7637 346.3594,1049.7637 Q344.8438,1049.7637 343.6406,1049.1387 Q342.6563,1048.6387 341.9688,1047.5762 Q341.2813,1046.498 341.2813,1045.2168 L341.2813,1044.0605 Q341.2813,1042.7324 341.8906,1041.5918 Q342.5156,1040.4355 343.6094,1039.8262 Q344.7031,1039.2012 345.9375,1039.2012 Q346.6719,1039.2012 347.3125,1039.373 Q347.9688,1039.5293 348.5156,1039.8887 Z " fill="#000000"/><text fill="#000000" font-family="sans-serif" font-size="14" lengthAdjust="spacing" textLength="148" x="366.25" y="1049.8105">GreenSpaceRepository</text><line style="stroke:#181818;stroke-width:0.5;" x1="301" x2="547" y1="1060.0137" y2="1060.0137"/><line style="stroke:#181818;stroke-width:0.5;" x1="301" x2="547" y1="1068.0137" y2="1068.0137"/><text fill="#000000" font-family="sans-serif" font-size="14" lengthAdjust="spacing" textLength="236" x="306" y="1087.1211">+getAllGreenSpaces() : greenSpaces</text></g><!--class TaskRepository--><g id="elem_TaskRepository"><rect codeLine="52" fill="#F1F1F1" height="66.6211" id="TaskRepository" rx="2.5" ry="2.5" style="stroke:#181818;stroke-width:0.5;" width="148" x="583" y="1028.0137"/><ellipse cx="605.65" cy="1044.0137" fill="#ADD1B2" rx="11" ry="11" style="stroke:#181818;stroke-width:1.0;"/><path d="M608.4156,1039.8887 Q608.5719,1039.6699 608.7594,1039.5605 Q608.9469,1039.4512 609.1656,1039.4512 Q609.5406,1039.4512 609.775,1039.7168 Q610.0094,1039.9668 610.0094,1040.5762 L610.0094,1042.0293 Q610.0094,1042.6387 609.775,1042.9043 Q609.5406,1043.1699 609.1656,1043.1699 Q608.8219,1043.1699 608.6188,1042.9668 Q608.4156,1042.7793 608.3063,1042.2637 Q608.2594,1041.9043 608.0719,1041.7168 Q607.7438,1041.3418 607.1344,1041.123 Q606.525,1040.9043 605.9,1040.9043 Q605.1344,1040.9043 604.4938,1041.2324 Q603.8688,1041.5605 603.3688,1042.3105 Q602.8844,1043.0605 602.8844,1044.0918 L602.8844,1045.1855 Q602.8844,1046.4199 603.775,1047.248 Q604.6656,1048.0605 606.2594,1048.0605 Q607.1969,1048.0605 607.8531,1047.8105 Q608.2438,1047.6543 608.6656,1047.2168 Q608.9313,1046.9512 609.0719,1046.873 Q609.2281,1046.7949 609.4313,1046.7949 Q609.7594,1046.7949 610.0094,1047.0605 Q610.275,1047.3105 610.275,1047.6543 Q610.275,1047.998 609.9313,1048.4043 Q609.4313,1048.9824 608.6344,1049.3105 Q607.5563,1049.7637 606.2594,1049.7637 Q604.7438,1049.7637 603.5406,1049.1387 Q602.5563,1048.6387 601.8688,1047.5762 Q601.1813,1046.498 601.1813,1045.2168 L601.1813,1044.0605 Q601.1813,1042.7324 601.7906,1041.5918 Q602.4156,1040.4355 603.5094,1039.8262 Q604.6031,1039.2012 605.8375,1039.2012 Q606.5719,1039.2012 607.2125,1039.373 Q607.8688,1039.5293 608.4156,1039.8887 Z " fill="#000000"/><text fill="#000000" font-family="sans-serif" font-size="14" lengthAdjust="spacing" textLength="99" x="621.35" y="1049.8105">TaskRepository</text><line style="stroke:#181818;stroke-width:0.5;" x1="584" x2="730" y1="1060.0137" y2="1060.0137"/><line style="stroke:#181818;stroke-width:0.5;" x1="584" x2="730" y1="1068.0137" y2="1068.0137"/><text fill="#000000" font-family="sans-serif" font-size="14" lengthAdjust="spacing" textLength="136" x="589" y="1087.1211">+getAllTasks() : tasks</text></g><!--class ToDoListRepository--><g id="elem_ToDoListRepository"><rect codeLine="56" fill="#F1F1F1" height="66.6211" id="ToDoListRepository" rx="2.5" ry="2.5" style="stroke:#181818;stroke-width:0.5;" width="157" x="107.5" y="1028.0137"/><ellipse cx="122.5" cy="1044.0137" fill="#ADD1B2" rx="11" ry="11" style="stroke:#181818;stroke-width:1.0;"/><path d="M125.2656,1039.8887 Q125.4219,1039.6699 125.6094,1039.5605 Q125.7969,1039.4512 126.0156,1039.4512 Q126.3906,1039.4512 126.625,1039.7168 Q126.8594,1039.9668 126.8594,1040.5762 L126.8594,1042.0293 Q126.8594,1042.6387 126.625,1042.9043 Q126.3906,1043.1699 126.0156,1043.1699 Q125.6719,1043.1699 125.4688,1042.9668 Q125.2656,1042.7793 125.1563,1042.2637 Q125.1094,1041.9043 124.9219,1041.7168 Q124.5938,1041.3418 123.9844,1041.123 Q123.375,1040.9043 122.75,1040.9043 Q121.9844,1040.9043 121.3438,1041.2324 Q120.7188,1041.5605 120.2188,1042.3105 Q119.7344,1043.0605 119.7344,1044.0918 L119.7344,1045.1855 Q119.7344,1046.4199 120.625,1047.248 Q121.5156,1048.0605 123.1094,1048.0605 Q124.0469,1048.0605 124.7031,1047.8105 Q125.0938,1047.6543 125.5156,1047.2168 Q125.7813,1046.9512 125.9219,1046.873 Q126.0781,1046.7949 126.2813,1046.7949 Q126.6094,1046.7949 126.8594,1047.0605 Q127.125,1047.3105 127.125,1047.6543 Q127.125,1047.998 126.7813,1048.4043 Q126.2813,1048.9824 125.4844,1049.3105 Q124.4063,1049.7637 123.1094,1049.7637 Q121.5938,1049.7637 120.3906,1049.1387 Q119.4063,1048.6387 118.7188,1047.5762 Q118.0313,1046.498 118.0313,1045.2168 L118.0313,1044.0605 Q118.0313,1042.7324 118.6406,1041.5918 Q119.2656,1040.4355 120.3594,1039.8262 Q121.4531,1039.2012 122.6875,1039.2012 Q123.4219,1039.2012 124.0625,1039.373 Q124.7188,1039.5293 125.2656,1039.8887 Z " fill="#000000"/><text fill="#000000" font-family="sans-serif" font-size="14" lengthAdjust="spacing" textLength="125" x="136.5" y="1049.8105">ToDoListRepository</text><line style="stroke:#181818;stroke-width:0.5;" x1="108.5" x2="263.5" y1="1060.0137" y2="1060.0137"/><line style="stroke:#181818;stroke-width:0.5;" x1="108.5" x2="263.5" y1="1068.0137" y2="1068.0137"/><text fill="#000000" font-family="sans-serif" font-size="14" lengthAdjust="spacing" textLength="107" x="113.5" y="1087.1211">+addEntry(entry)</text></g><!--class AuthenticationRepository--><g id="elem_AuthenticationRepository"><rect codeLine="60" fill="#F1F1F1" height="66.6211" id="AuthenticationRepository" rx="2.5" ry="2.5" style="stroke:#181818;stroke-width:0.5;" width="195" x="535.5" y="654.0137"/><ellipse cx="552.75" cy="670.0137" fill="#ADD1B2" rx="11" ry="11" style="stroke:#181818;stroke-width:1.0;"/><path d="M555.5156,665.8887 Q555.6719,665.6699 555.8594,665.5605 Q556.0469,665.4512 556.2656,665.4512 Q556.6406,665.4512 556.875,665.7168 Q557.1094,665.9668 557.1094,666.5762 L557.1094,668.0293 Q557.1094,668.6387 556.875,668.9043 Q556.6406,669.1699 556.2656,669.1699 Q555.9219,669.1699 555.7188,668.9668 Q555.5156,668.7793 555.4063,668.2637 Q555.3594,667.9043 555.1719,667.7168 Q554.8438,667.3418 554.2344,667.123 Q553.625,666.9043 553,666.9043 Q552.2344,666.9043 551.5938,667.2324 Q550.9688,667.5605 550.4688,668.3105 Q549.9844,669.0605 549.9844,670.0918 L549.9844,671.1855 Q549.9844,672.4199 550.875,673.248 Q551.7656,674.0605 553.3594,674.0605 Q554.2969,674.0605 554.9531,673.8105 Q555.3438,673.6543 555.7656,673.2168 Q556.0313,672.9512 556.1719,672.873 Q556.3281,672.7949 556.5313,672.7949 Q556.8594,672.7949 557.1094,673.0605 Q557.375,673.3105 557.375,673.6543 Q557.375,673.998 557.0313,674.4043 Q556.5313,674.9824 555.7344,675.3105 Q554.6563,675.7637 553.3594,675.7637 Q551.8438,675.7637 550.6406,675.1387 Q549.6563,674.6387 548.9688,673.5762 Q548.2813,672.498 548.2813,671.2168 L548.2813,670.0605 Q548.2813,668.7324 548.8906,667.5918 Q549.5156,666.4355 550.6094,665.8262 Q551.7031,665.2012 552.9375,665.2012 Q553.6719,665.2012 554.3125,665.373 Q554.9688,665.5293 555.5156,665.8887 Z " fill="#000000"/><text fill="#000000" font-family="sans-serif" font-size="14" lengthAdjust="spacing" textLength="158" x="567.25" y="675.8105">AuthenticationRepository</text><line style="stroke:#181818;stroke-width:0.5;" x1="536.5" x2="729.5" y1="686.0137" y2="686.0137"/><line style="stroke:#181818;stroke-width:0.5;" x1="536.5" x2="729.5" y1="694.0137" y2="694.0137"/><text fill="#000000" font-family="sans-serif" font-size="14" lengthAdjust="spacing" textLength="183" x="541.5" y="713.1211">+getEmployeeFromSession()</text></g><!--class Employee--><g id="elem_Employee"><rect codeLine="66" fill="#F1F1F1" height="308.6953" id="Employee" rx="2.5" ry="2.5" style="stroke:#181818;stroke-width:0.5;" width="361" x="787.5" y="907.0137"/><ellipse cx="932.75" cy="923.0137" fill="#ADD1B2" rx="11" ry="11" style="stroke:#181818;stroke-width:1.0;"/><path d="M935.5156,918.8887 Q935.6719,918.6699 935.8594,918.5605 Q936.0469,918.4512 936.2656,918.4512 Q936.6406,918.4512 936.875,918.7168 Q937.1094,918.9668 937.1094,919.5762 L937.1094,921.0293 Q937.1094,921.6387 936.875,921.9043 Q936.6406,922.1699 936.2656,922.1699 Q935.9219,922.1699 935.7188,921.9668 Q935.5156,921.7793 935.4063,921.2637 Q935.3594,920.9043 935.1719,920.7168 Q934.8438,920.3418 934.2344,920.123 Q933.625,919.9043 933,919.9043 Q932.2344,919.9043 931.5938,920.2324 Q930.9688,920.5605 930.4688,921.3105 Q929.9844,922.0605 929.9844,923.0918 L929.9844,924.1855 Q929.9844,925.4199 930.875,926.248 Q931.7656,927.0605 933.3594,927.0605 Q934.2969,927.0605 934.9531,926.8105 Q935.3438,926.6543 935.7656,926.2168 Q936.0313,925.9512 936.1719,925.873 Q936.3281,925.7949 936.5313,925.7949 Q936.8594,925.7949 937.1094,926.0605 Q937.375,926.3105 937.375,926.6543 Q937.375,926.998 937.0313,927.4043 Q936.5313,927.9824 935.7344,928.3105 Q934.6563,928.7637 933.3594,928.7637 Q931.8438,928.7637 930.6406,928.1387 Q929.6563,927.6387 928.9688,926.5762 Q928.2813,925.498 928.2813,924.2168 L928.2813,923.0605 Q928.2813,921.7324 928.8906,920.5918 Q929.5156,919.4355 930.6094,918.8262 Q931.7031,918.2012 932.9375,918.2012 Q933.6719,918.2012 934.3125,918.373 Q934.9688,918.5293 935.5156,918.8887 Z " fill="#000000"/><text fill="#000000" font-family="sans-serif" font-size="14" lengthAdjust="spacing" textLength="62" x="953.25" y="928.8105">Employee</text><line style="stroke:#181818;stroke-width:0.5;" x1="788.5" x2="1147.5" y1="939.0137" y2="939.0137"/><text fill="#000000" font-family="sans-serif" font-size="14" lengthAdjust="spacing" textLength="85" x="793.5" y="958.1211">-name: String</text><text fill="#000000" font-family="sans-serif" font-size="14" lengthAdjust="spacing" textLength="99" x="793.5" y="976.7422">-birthdate: Date</text><text fill="#000000" font-family="sans-serif" font-size="14" lengthAdjust="spacing" textLength="136" x="793.5" y="995.3633">-admissionDate: Date</text><text fill="#000000" font-family="sans-serif" font-size="14" lengthAdjust="spacing" textLength="56" x="793.5" y="1013.9844">-address</text><text fill="#000000" font-family="sans-serif" font-size="14" lengthAdjust="spacing" textLength="140" x="793.5" y="1032.6055">-mobileContact: String</text><text fill="#000000" font-family="sans-serif" font-size="14" lengthAdjust="spacing" textLength="132" x="793.5" y="1051.2266">-emailContact: String</text><text fill="#000000" font-family="sans-serif" font-size="14" lengthAdjust="spacing" textLength="118" x="793.5" y="1069.8477">-IDdocType: String</text><text fill="#000000" font-family="sans-serif" font-size="14" lengthAdjust="spacing" textLength="111" x="793.5" y="1088.4688">-IDnumber: String</text><text fill="#000000" font-family="sans-serif" font-size="14" lengthAdjust="spacing" textLength="117" x="793.5" y="1107.0898">-taxNumber: String</text><text fill="#000000" font-family="sans-serif" font-size="14" lengthAdjust="spacing" textLength="54" x="793.5" y="1125.7109">-job: Job</text><line style="stroke:#181818;stroke-width:0.5;" x1="788.5" x2="1147.5" y1="1133.2246" y2="1133.2246"/><text fill="#000000" font-family="sans-serif" font-size="14" lengthAdjust="spacing" textLength="303" x="793.5" y="1152.332">+Employee (String nome,LocalDate dateOfBirth,</text><text fill="#000000" font-family="sans-serif" font-size="14" lengthAdjust="spacing" textLength="349" x="793.5" y="1170.9531">LocalDate admissionDate, String morada, int telemovel,</text><text fill="#000000" font-family="sans-serif" font-size="14" lengthAdjust="spacing" textLength="326" x="793.5" y="1189.5742">String email, String idDocType, int docTypeNumber,</text><text fill="#000000" font-family="sans-serif" font-size="14" lengthAdjust="spacing" textLength="265" x="793.5" y="1208.1953">int taxPayerIdNumber, String role, Job job)</text></g><!--class Entry--><g id="elem_Entry"><rect codeLine="81" fill="#F1F1F1" height="159.7266" id="Entry" rx="2.5" ry="2.5" style="stroke:#181818;stroke-width:0.5;" width="354" x="787" y="1277.0137"/><ellipse cx="943.25" cy="1293.0137" fill="#ADD1B2" rx="11" ry="11" style="stroke:#181818;stroke-width:1.0;"/><path d="M946.0156,1288.8887 Q946.1719,1288.6699 946.3594,1288.5605 Q946.5469,1288.4512 946.7656,1288.4512 Q947.1406,1288.4512 947.375,1288.7168 Q947.6094,1288.9668 947.6094,1289.5762 L947.6094,1291.0293 Q947.6094,1291.6387 947.375,1291.9043 Q947.1406,1292.1699 946.7656,1292.1699 Q946.4219,1292.1699 946.2188,1291.9668 Q946.0156,1291.7793 945.9063,1291.2637 Q945.8594,1290.9043 945.6719,1290.7168 Q945.3438,1290.3418 944.7344,1290.123 Q944.125,1289.9043 943.5,1289.9043 Q942.7344,1289.9043 942.0938,1290.2324 Q941.4688,1290.5605 940.9688,1291.3105 Q940.4844,1292.0605 940.4844,1293.0918 L940.4844,1294.1855 Q940.4844,1295.4199 941.375,1296.248 Q942.2656,1297.0605 943.8594,1297.0605 Q944.7969,1297.0605 945.4531,1296.8105 Q945.8438,1296.6543 946.2656,1296.2168 Q946.5313,1295.9512 946.6719,1295.873 Q946.8281,1295.7949 947.0313,1295.7949 Q947.3594,1295.7949 947.6094,1296.0605 Q947.875,1296.3105 947.875,1296.6543 Q947.875,1296.998 947.5313,1297.4043 Q947.0313,1297.9824 946.2344,1298.3105 Q945.1563,1298.7637 943.8594,1298.7637 Q942.3438,1298.7637 941.1406,1298.1387 Q940.1563,1297.6387 939.4688,1296.5762 Q938.7813,1295.498 938.7813,1294.2168 L938.7813,1293.0605 Q938.7813,1291.7324 939.3906,1290.5918 Q940.0156,1289.4355 941.1094,1288.8262 Q942.2031,1288.2012 943.4375,1288.2012 Q944.1719,1288.2012 944.8125,1288.373 Q945.4688,1288.5293 946.0156,1288.8887 Z " fill="#000000"/><text fill="#000000" font-family="sans-serif" font-size="14" lengthAdjust="spacing" textLength="33" x="963.75" y="1298.8105">Entry</text><line style="stroke:#181818;stroke-width:0.5;" x1="788" x2="1140" y1="1309.0137" y2="1309.0137"/><text fill="#000000" font-family="sans-serif" font-size="14" lengthAdjust="spacing" textLength="170" x="793" y="1328.1211">-greenSpace: GreenSpace</text><text fill="#000000" font-family="sans-serif" font-size="14" lengthAdjust="spacing" textLength="70" x="793" y="1346.7422">-task: Task</text><text fill="#000000" font-family="sans-serif" font-size="14" lengthAdjust="spacing" textLength="126" x="793" y="1365.3633">-urgencyDegree: int</text><text fill="#000000" font-family="sans-serif" font-size="14" lengthAdjust="spacing" textLength="217" x="793" y="1383.9844">-approximateExpectedDuration: int</text><line style="stroke:#181818;stroke-width:0.5;" x1="788" x2="1140" y1="1391.498" y2="1391.498"/><text fill="#000000" font-family="sans-serif" font-size="14" lengthAdjust="spacing" textLength="288" x="793" y="1410.6055">+Entry ( GreenSpace greenSpace, Task task,</text><text fill="#000000" font-family="sans-serif" font-size="14" lengthAdjust="spacing" textLength="338" x="797" y="1429.2266">int urgencyDegree, int approximateExpectedDuration)</text></g><!--link CreateEntryUI to CreateEntryController--><g id="link_CreateEntryUI_CreateEntryController"><path codeLine="91" d="M373,240.1537 C373,269.1237 373,294.0037 373,319.8537 " fill="none" id="CreateEntryUI-to-CreateEntryController" style="stroke:#181818;stroke-width:1.0;stroke-dasharray:7.0,7.0;"/><polygon fill="#181818" points="373,325.8537,377,316.8537,373,320.8537,369,316.8537,373,325.8537" style="stroke:#181818;stroke-width:1.0;"/><text fill="#000000" font-family="sans-serif" font-size="13" lengthAdjust="spacing" textLength="7" x="365.743" y="262.0619">1</text><text fill="#000000" font-family="sans-serif" font-size="13" lengthAdjust="spacing" textLength="7" x="365.5953" y="314.8164">1</text></g><!--link Repositories to Repositories--><g id="link_Repositories_Repositories"><path codeLine="93" d="M421.11,660.5837 C442.18,665.4037 456,674.3837 456,687.5137 C456,700.6437 448.0289,708.2857 426.9589,713.1057 " fill="none" id="Repositories-to-Repositories" style="stroke:#181818;stroke-width:1.0;"/><polygon fill="#181818" points="421.11,714.4437,430.7754,716.3359,425.9841,713.3287,428.9914,708.5374,421.11,714.4437" style="stroke:#181818;stroke-width:1.0;"/><text fill="#000000" font-family="sans-serif" font-size="13" lengthAdjust="spacing" textLength="49" x="462" y="693.042">instance</text></g><!--link Repositories to GreenSpaceRepository--><g id="link_Repositories_GreenSpaceRepository"><path codeLine="94" d="M312.3,823.0737 C346.95,896.7137 384.526,976.6044 405.996,1022.2444 " fill="none" id="Repositories-to-GreenSpaceRepository" style="stroke:#181818;stroke-width:1.0;"/><polygon fill="#181818" points="408.55,1027.6737,408.3385,1017.8271,406.4216,1023.1493,401.0994,1021.2325,408.55,1027.6737" style="stroke:#181818;stroke-width:1.0;"/><text fill="#000000" font-family="sans-serif" font-size="13" lengthAdjust="spacing" textLength="7" x="397.9377" y="1016.6948">1</text></g><!--link Repositories to TaskRepository--><g id="link_Repositories_TaskRepository"><path codeLine="95" d="M421.41,782.8837 C495.77,823.5737 566,862.0137 566,862.0137 C566,862.0137 613.6301,965.8993 639.4701,1022.2793 " fill="none" id="Repositories-to-TaskRepository" style="stroke:#181818;stroke-width:1.0;"/><polygon fill="#181818" points="641.97,1027.7337,641.8565,1017.8855,639.8868,1023.1883,634.5839,1021.2186,641.97,1027.7337" style="stroke:#181818;stroke-width:1.0;"/><text fill="#000000" font-family="sans-serif" font-size="13" lengthAdjust="spacing" textLength="7" x="631.4377" y="1016.7662">1</text></g><!--link Repositories to ToDoListRepository--><g id="link_Repositories_ToDoListRepository"><path codeLine="96" d="M226.21,823.0737 C213.74,896.7137 200.2919,976.1179 192.5619,1021.7579 " fill="none" id="Repositories-to-ToDoListRepository" style="stroke:#181818;stroke-width:1.0;"/><polygon fill="#181818" points="191.56,1027.6737,197.0068,1019.468,192.395,1022.7439,189.1191,1018.1321,191.56,1027.6737" style="stroke:#181818;stroke-width:1.0;"/><text fill="#000000" font-family="sans-serif" font-size="13" lengthAdjust="spacing" textLength="7" x="184.9527" y="1016.6948">1</text></g><!--link GreenSpaceRepository to Entry--><g id="link_GreenSpaceRepository_Entry"><path codeLine="98" d="M454.11,1095.0637 C495.8,1140.1237 566,1216.0137 566,1216.0137 C566,1216.0137 674.9501,1254.3322 781.1601,1291.7022 " fill="none" id="GreenSpaceRepository-to-Entry" style="stroke:#181818;stroke-width:1.0;"/><polygon fill="#181818" points="786.82,1293.6937,779.6578,1286.9333,782.1034,1292.0341,777.0026,1294.4798,786.82,1293.6937" style="stroke:#181818;stroke-width:1.0;"/><text fill="#000000" font-family="sans-serif" font-size="13" lengthAdjust="spacing" textLength="7" x="451.8499" y="1116.6418">1</text><text fill="#000000" font-family="sans-serif" font-size="13" lengthAdjust="spacing" textLength="7" x="772.1976" y="1287.704">1</text></g><!--link TaskRepository to Entry--><g id="link_TaskRepository_Entry"><path codeLine="99" d="M681.18,1095.0637 C714.64,1140.1237 771,1216.0137 771,1216.0137 C771,1216.0137 806.4534,1241.7304 850.2334,1273.4904 " fill="none" id="TaskRepository-to-Entry" style="stroke:#181818;stroke-width:1.0;"/><polygon fill="#181818" points="855.09,1277.0137,850.1539,1268.4911,851.0428,1274.0777,845.4562,1274.9666,855.09,1277.0137" style="stroke:#181818;stroke-width:1.0;"/><text fill="#000000" font-family="sans-serif" font-size="13" lengthAdjust="spacing" textLength="7" x="677.8636" y="1116.6418">1</text><text fill="#000000" font-family="sans-serif" font-size="13" lengthAdjust="spacing" textLength="7" x="837.3759" y="1265.6337">1</text></g><!--link ToDoListRepository to Entry--><g id="link_ToDoListRepository_Entry"><path codeLine="100" d="M206.57,1095.0637 C235.04,1140.1237 283,1216.0137 283,1216.0137 C283,1216.0137 579.2029,1276.9055 780.9729,1318.3855 " fill="none" id="ToDoListRepository-to-Entry" style="stroke:#181818;stroke-width:1.0;"/><polygon fill="#181818" points="786.85,1319.5937,778.8398,1313.8633,781.9524,1318.5868,777.2289,1321.6994,786.85,1319.5937" style="stroke:#181818;stroke-width:1.0;"/><text fill="#000000" font-family="sans-serif" font-size="13" lengthAdjust="spacing" textLength="7" x="202.6106" y="1116.6418">1</text><text fill="#000000" font-family="sans-serif" font-size="13" lengthAdjust="spacing" textLength="7" x="772.2288" y="1314.6966">1</text></g><!--link Employee to Entry--><g id="link_Employee_Entry"><path codeLine="102" d="M965.91,1216.1437 C965.62,1237.0837 965.4228,1251.8442 965.1628,1270.6942 " fill="none" id="Employee-to-Entry" style="stroke:#181818;stroke-width:1.0;"/><polygon fill="#181818" points="965.08,1276.6937,969.2037,1267.7497,965.149,1271.6941,961.2045,1267.6394,965.08,1276.6937" style="stroke:#181818;stroke-width:1.0;"/><text fill="#000000" font-family="sans-serif" font-size="13" lengthAdjust="spacing" textLength="7" x="958.6567" y="1237.5773">1</text><text fill="#000000" font-family="sans-serif" font-size="13" lengthAdjust="spacing" textLength="5" x="959.9535" y="1265.8366">*</text></g><!--link AuthenticationRepository to Employee--><g id="link_AuthenticationRepository_Employee"><path codeLine="104" d="M662.44,721.2037 C699.96,762.8637 763.395,833.305 825.395,902.155 " fill="none" id="AuthenticationRepository-to-Employee" style="stroke:#181818;stroke-width:1.0;"/><polygon fill="#181818" points="829.41,906.6137,826.3599,897.249,826.0641,902.8981,820.415,902.6024,829.41,906.6137" style="stroke:#181818;stroke-width:1.0;"/><text fill="#000000" font-family="sans-serif" font-size="13" lengthAdjust="spacing" textLength="7" x="659.8984" y="742.541">1</text><text fill="#000000" font-family="sans-serif" font-size="13" lengthAdjust="spacing" textLength="7" x="815.5275" y="895.7417">1</text></g><!--link CreateEntryController to ToDoListRepository--><g id="link_CreateEntryController_ToDoListRepository"><path codeLine="106" d="M216.83,438.6537 C116.94,471.0437 6,507.0137 6,507.0137 C6,507.0137 6,823.0137 6,823.0137 C6,823.0137 108.4256,958.1621 157.7256,1023.2021 " fill="none" id="CreateEntryController-to-ToDoListRepository" style="stroke:#181818;stroke-width:1.0;stroke-dasharray:7.0,7.0;"/><polygon fill="#181818" points="161.35,1027.9837,159.1011,1018.395,158.3297,1023.999,152.7256,1023.2276,161.35,1027.9837" style="stroke:#181818;stroke-width:1.0;"/><text fill="#000000" font-family="sans-serif" font-size="13" lengthAdjust="spacing" textLength="52" x="7" y="693.042">addEntry</text></g><!--link CreateEntryController to Repositories--><g id="link_CreateEntryController_Repositories"><path codeLine="107" d="M348.06,448.0637 C335.61,478.0237 322.3107,510.0223 307.2107,546.3923 " fill="none" id="CreateEntryController-to-Repositories" style="stroke:#181818;stroke-width:1.0;stroke-dasharray:7.0,7.0;"/><polygon fill="#181818" points="304.91,551.9337,312.0552,545.1554,306.8272,547.3158,304.6667,542.0878,304.91,551.9337" style="stroke:#181818;stroke-width:1.0;"/><text fill="#000000" font-family="sans-serif" font-size="13" lengthAdjust="spacing" textLength="67" x="333" y="495.042">repositories</text><text fill="#000000" font-family="sans-serif" font-size="13" lengthAdjust="spacing" textLength="7" x="337.5939" y="470.5566">1</text><text fill="#000000" font-family="sans-serif" font-size="13" lengthAdjust="spacing" textLength="7" x="300.94" y="540.6277">1</text></g><!--link CreateEntryController to AuthenticationRepository--><g id="link_CreateEntryController_AuthenticationRepository"><path codeLine="108" d="M446.35,448.2137 C482.31,477.7237 518,507.0137 518,507.0137 C518,507.0137 575.793,597.2318 608.933,648.9518 " fill="none" id="CreateEntryController-to-AuthenticationRepository" style="stroke:#181818;stroke-width:1.0;"/><polygon fill="#181818" points="612.17,654.0037,610.6824,644.2678,609.4725,649.7938,603.9465,648.5839,612.17,654.0037" style="stroke:#181818;stroke-width:1.0;"/><text fill="#000000" font-family="sans-serif" font-size="13" lengthAdjust="spacing" textLength="134" x="509" y="495.042">getCurrentUserSession</text><text fill="#000000" font-family="sans-serif" font-size="13" lengthAdjust="spacing" textLength="7" x="447.863" y="470.7249">1</text><text fill="#000000" font-family="sans-serif" font-size="13" lengthAdjust="spacing" textLength="7" x="600.38" y="642.8272">1</text></g><!--link CreateEntryController to Employee--><g id="link_CreateEntryController_Employee"><path codeLine="109" d="M529.17,437.7037 C631.73,470.3337 747,507.0137 747,507.0137 C747,507.0137 838.9651,737.3415 904.3651,901.1315 " fill="none" id="CreateEntryController-to-Employee" style="stroke:#181818;stroke-width:1.0;stroke-dasharray:7.0,7.0;"/><polygon fill="#181818" points="906.59,906.7037,906.9674,896.862,904.7359,902.0602,899.5378,899.8286,906.59,906.7037" style="stroke:#181818;stroke-width:1.0;"/><text fill="#000000" font-family="sans-serif" font-size="13" lengthAdjust="spacing" textLength="67" x="874" y="693.042">createEntry</text></g><!--SRC=[XLPTJzim57tFhxZYXR8LjBrMg18Z1NL26rhRDrxSvD9wTUpCTZOwjFy-EtOIEqa194hkkL_d-kQuv-f0UKaaAQ0GN6HxAGe4BIjCEgGasO7iSAMF345YfWdViT11xKak_b2-WsV2L8Wmob4VIuHIiADzICv7G26rI8AeZ16bRhIMT5jfN6Q2h-XVX4z9SixmMOCM8Ebkho6djXqgU98ykYPXiuJhwpl1SfJp-MjIfu9RYKJZWcjvt2nV4p0_7sN59nV-N_nLeT8fqGGcEud8LuOpJa4JTPZ24w_a3dbsX1mjEWLIbbAyqC8a1NmfJG-OGrv9OdlnILMrBMYTirVclYtG0zQcMi-qSONJkcw_NL_FcF-PttO2jyBm58oXV7iIdP-V2EnGBugIYIFYdLc45IhbyZjuD7QYHIeUgD8_i1IAQY6FZN_M-K_WZR6cmwak_53JTgOHnQxM2CKMfAWSiqkWN9cjpH1c4UpHhhSWyGpkHym-mZA8VDUHeV4QZCPw3epU6_te8-_5mEYzIQNto3NDwlb4CJSdeAGxvgMVHtksnZP6DyHZYX4oe1IYGmeXUghPUglzYOvrvdVMPc2iSr2J2pE1xa1LboNkFugta8kq1nl639ZvE9BdRh7H_WrwFSNdtNSiMl1K58JoaULkOlrYSrBW35P6AVdEMRPKwdrkNg4P6Er1PoHvGUiwwG38fUd0FHHYIndQLvjaEiwAfXqsYYpJN6Hhe-9zCw-ABShOgidBjn7pJx6TmLUnzGlQS8I9Sm9kBgNfWyW8ivs3PVVz-OibEdtYdJrYEVKLpBqcIKwcHWBCnO4C2_4RcOdpSCsiTQPvwjWuVq_DzMnYwXpavP4SKIvpRsvYZHwQC4C339zW8-ezyUVLBMOeByrmrC49YNkEr75c-_5dTbecdPUVeYqBaw1CfC6sZXFY9rvpxOcnDRqloD752cUVp-3gQbv_ZbuMIHAgBrpE8pM6MQlJFRzBbtDKa4SzUt8yxZCKucIiGktS1DM4aZWzZ7aCfN_ebBIRtc8VMkoKaCHvV8Be988l0FOqrcEtKADV9-B2a-mTaGplpzFHJOStf-yf8uMtbPG6tIYKNWdV8D9EQnP-jKZ-0m00]--></g></svg>