<?xml version="1.0" encoding="us-ascii" standalone="no"?><svg xmlns="http://www.w3.org/2000/svg" xmlns:xlink="http://www.w3.org/1999/xlink" contentStyleType="text/css" height="1608px" preserveAspectRatio="none" style="width:862px;height:1608px;background:#FFFFFF;" version="1.1" viewBox="0 0 862 1608" width="862px" zoomAndPan="magnify"><defs/><g><!--cluster UI--><g id="cluster_UI"><path d="M505.5,6.0137 L520.5,6.0137 A3.75,3.75 0 0 1 523,8.5137 L530,30.6348 L852.5,30.6348 A2.5,2.5 0 0 1 855,33.1348 L855,253.5137 A2.5,2.5 0 0 1 852.5,256.0137 L505.5,256.0137 A2.5,2.5 0 0 1 503,253.5137 L503,8.5137 A2.5,2.5 0 0 1 505.5,6.0137 " fill="none" style="stroke:#000000;stroke-width:1.5;"/><line style="stroke:#000000;stroke-width:1.5;" x1="503" x2="530" y1="30.6348" y2="30.6348"/><text fill="#000000" font-family="sans-serif" font-size="14" font-weight="bold" lengthAdjust="spacing" textLength="14" x="507" y="23.1211">UI</text></g><!--cluster Controller--><g id="cluster_Controller"><path d="M509.5,289.0137 L581.5,289.0137 A3.75,3.75 0 0 1 584,291.5137 L591,313.6348 L848.5,313.6348 A2.5,2.5 0 0 1 851,316.1348 L851,461.5137 A2.5,2.5 0 0 1 848.5,464.0137 L509.5,464.0137 A2.5,2.5 0 0 1 507,461.5137 L507,291.5137 A2.5,2.5 0 0 1 509.5,289.0137 " fill="none" style="stroke:#000000;stroke-width:1.5;"/><line style="stroke:#000000;stroke-width:1.5;" x1="507" x2="591" y1="313.6348" y2="313.6348"/><text fill="#000000" font-family="sans-serif" font-size="14" font-weight="bold" lengthAdjust="spacing" textLength="71" x="511" y="306.1211">Controller</text></g><!--cluster Repository--><g id="cluster_Repository"><path d="M8.5,515.0137 L85.5,515.0137 A3.75,3.75 0 0 1 88,517.5137 L95,539.6348 L689.5,539.6348 A2.5,2.5 0 0 1 692,542.1348 L692,982.5137 A2.5,2.5 0 0 1 689.5,985.0137 L8.5,985.0137 A2.5,2.5 0 0 1 6,982.5137 L6,517.5137 A2.5,2.5 0 0 1 8.5,515.0137 " fill="none" style="stroke:#000000;stroke-width:1.5;"/><line style="stroke:#000000;stroke-width:1.5;" x1="6" x2="95" y1="539.6348" y2="539.6348"/><text fill="#000000" font-family="sans-serif" font-size="14" font-weight="bold" lengthAdjust="spacing" textLength="76" x="10" y="532.1211">Repository</text></g><!--cluster Domain--><g id="cluster_Domain"><path d="M372.5,1018.0137 L425.5,1018.0137 A3.75,3.75 0 0 1 428,1020.5137 L435,1042.6348 L761.5,1042.6348 A2.5,2.5 0 0 1 764,1045.1348 L764,1598.5137 A2.5,2.5 0 0 1 761.5,1601.0137 L372.5,1601.0137 A2.5,2.5 0 0 1 370,1598.5137 L370,1020.5137 A2.5,2.5 0 0 1 372.5,1018.0137 " fill="none" style="stroke:#000000;stroke-width:1.5;"/><line style="stroke:#000000;stroke-width:1.5;" x1="370" x2="435" y1="1042.6348" y2="1042.6348"/><text fill="#000000" font-family="sans-serif" font-size="14" font-weight="bold" lengthAdjust="spacing" textLength="52" x="374" y="1035.1211">Domain</text></g><!--class CreateEntryUI--><g id="elem_CreateEntryUI"><rect codeLine="12" fill="#F1F1F1" height="196.9688" id="CreateEntryUI" rx="2.5" ry="2.5" style="stroke:#181818;stroke-width:0.5;" width="319" x="519.5" y="43.0137"/><ellipse cx="630.75" cy="59.0137" fill="#ADD1B2" rx="11" ry="11" style="stroke:#181818;stroke-width:1.0;"/><path d="M633.5156,54.8887 Q633.6719,54.6699 633.8594,54.5605 Q634.0469,54.4512 634.2656,54.4512 Q634.6406,54.4512 634.875,54.7168 Q635.1094,54.9668 635.1094,55.5762 L635.1094,57.0293 Q635.1094,57.6387 634.875,57.9043 Q634.6406,58.1699 634.2656,58.1699 Q633.9219,58.1699 633.7188,57.9668 Q633.5156,57.7793 633.4063,57.2637 Q633.3594,56.9043 633.1719,56.7168 Q632.8438,56.3418 632.2344,56.123 Q631.625,55.9043 631,55.9043 Q630.2344,55.9043 629.5938,56.2324 Q628.9688,56.5605 628.4688,57.3105 Q627.9844,58.0605 627.9844,59.0918 L627.9844,60.1855 Q627.9844,61.4199 628.875,62.248 Q629.7656,63.0605 631.3594,63.0605 Q632.2969,63.0605 632.9531,62.8105 Q633.3438,62.6543 633.7656,62.2168 Q634.0313,61.9512 634.1719,61.873 Q634.3281,61.7949 634.5313,61.7949 Q634.8594,61.7949 635.1094,62.0605 Q635.375,62.3105 635.375,62.6543 Q635.375,62.998 635.0313,63.4043 Q634.5313,63.9824 633.7344,64.3105 Q632.6563,64.7637 631.3594,64.7637 Q629.8438,64.7637 628.6406,64.1387 Q627.6563,63.6387 626.9688,62.5762 Q626.2813,61.498 626.2813,60.2168 L626.2813,59.0605 Q626.2813,57.7324 626.8906,56.5918 Q627.5156,55.4355 628.6094,54.8262 Q629.7031,54.2012 630.9375,54.2012 Q631.6719,54.2012 632.3125,54.373 Q632.9688,54.5293 633.5156,54.8887 Z " fill="#000000"/><text fill="#000000" font-family="sans-serif" font-size="14" lengthAdjust="spacing" textLength="88" x="651.25" y="64.8105">CreateEntryUI</text><line style="stroke:#181818;stroke-width:0.5;" x1="520.5" x2="837.5" y1="75.0137" y2="75.0137"/><line style="stroke:#181818;stroke-width:0.5;" x1="520.5" x2="837.5" y1="83.0137" y2="83.0137"/><text fill="#000000" font-family="sans-serif" font-size="14" lengthAdjust="spacing" textLength="39" x="525.5" y="102.1211">+run()</text><text fill="#000000" font-family="sans-serif" font-size="14" lengthAdjust="spacing" textLength="210" x="525.5" y="120.7422">+requestData (greenSpace, task,</text><text fill="#000000" font-family="sans-serif" font-size="14" lengthAdjust="spacing" textLength="307" x="525.5" y="139.3633">urgency degree, approximate expected duration)</text><text fill="#000000" font-family="sans-serif" font-size="14" lengthAdjust="spacing" textLength="89" x="525.5" y="157.9844">+submitData()</text><text fill="#000000" font-family="sans-serif" font-size="14" lengthAdjust="spacing" textLength="146" x="525.5" y="176.6055">+requestGreenSpace()</text><text fill="#000000" font-family="sans-serif" font-size="14" lengthAdjust="spacing" textLength="97" x="525.5" y="195.2266">+requestTask()</text><text fill="#000000" font-family="sans-serif" font-size="14" lengthAdjust="spacing" textLength="165" x="525.5" y="213.8477">+requestUrgencyDegree()</text><text fill="#000000" font-family="sans-serif" font-size="14" lengthAdjust="spacing" textLength="120" x="525.5" y="232.4688">+requestDuration()</text></g><!--class CreateEntryController--><g id="elem_CreateEntryController"><rect codeLine="24" fill="#F1F1F1" height="122.4844" id="CreateEntryController" rx="2.5" ry="2.5" style="stroke:#181818;stroke-width:0.5;" width="312" x="523" y="326.0137"/><ellipse cx="605.75" cy="342.0137" fill="#ADD1B2" rx="11" ry="11" style="stroke:#181818;stroke-width:1.0;"/><path d="M608.5156,337.8887 Q608.6719,337.6699 608.8594,337.5605 Q609.0469,337.4512 609.2656,337.4512 Q609.6406,337.4512 609.875,337.7168 Q610.1094,337.9668 610.1094,338.5762 L610.1094,340.0293 Q610.1094,340.6387 609.875,340.9043 Q609.6406,341.1699 609.2656,341.1699 Q608.9219,341.1699 608.7188,340.9668 Q608.5156,340.7793 608.4063,340.2637 Q608.3594,339.9043 608.1719,339.7168 Q607.8438,339.3418 607.2344,339.123 Q606.625,338.9043 606,338.9043 Q605.2344,338.9043 604.5938,339.2324 Q603.9688,339.5605 603.4688,340.3105 Q602.9844,341.0605 602.9844,342.0918 L602.9844,343.1855 Q602.9844,344.4199 603.875,345.248 Q604.7656,346.0605 606.3594,346.0605 Q607.2969,346.0605 607.9531,345.8105 Q608.3438,345.6543 608.7656,345.2168 Q609.0313,344.9512 609.1719,344.873 Q609.3281,344.7949 609.5313,344.7949 Q609.8594,344.7949 610.1094,345.0605 Q610.375,345.3105 610.375,345.6543 Q610.375,345.998 610.0313,346.4043 Q609.5313,346.9824 608.7344,347.3105 Q607.6563,347.7637 606.3594,347.7637 Q604.8438,347.7637 603.6406,347.1387 Q602.6563,346.6387 601.9688,345.5762 Q601.2813,344.498 601.2813,343.2168 L601.2813,342.0605 Q601.2813,340.7324 601.8906,339.5918 Q602.5156,338.4355 603.6094,337.8262 Q604.7031,337.2012 605.9375,337.2012 Q606.6719,337.2012 607.3125,337.373 Q607.9688,337.5293 608.5156,337.8887 Z " fill="#000000"/><text fill="#000000" font-family="sans-serif" font-size="14" lengthAdjust="spacing" textLength="138" x="626.25" y="347.8105">CreateEntryController</text><line style="stroke:#181818;stroke-width:0.5;" x1="524" x2="834" y1="358.0137" y2="358.0137"/><line style="stroke:#181818;stroke-width:0.5;" x1="524" x2="834" y1="366.0137" y2="366.0137"/><text fill="#000000" font-family="sans-serif" font-size="14" lengthAdjust="spacing" textLength="183" x="529" y="385.1211">+getEmployeeFromSession()</text><text fill="#000000" font-family="sans-serif" font-size="14" lengthAdjust="spacing" textLength="276" x="529" y="403.7422">+CreateEntryController(toDoListRepository)</text><text fill="#000000" font-family="sans-serif" font-size="14" lengthAdjust="spacing" textLength="205" x="529" y="422.3633">+createEntry( greenSpace, task,</text><text fill="#000000" font-family="sans-serif" font-size="14" lengthAdjust="spacing" textLength="300" x="529" y="440.9844">urgencyDegree, approximateExpectedDuration)</text></g><!--class Repositories--><g id="elem_Repositories"><rect codeLine="32" fill="#F1F1F1" height="271.4531" id="Repositories" rx="2.5" ry="2.5" style="stroke:#181818;stroke-width:0.5;" width="344" x="22" y="552.0137"/><ellipse cx="150.25" cy="568.0137" fill="#ADD1B2" rx="11" ry="11" style="stroke:#181818;stroke-width:1.0;"/><path d="M153.0156,563.8887 Q153.1719,563.6699 153.3594,563.5605 Q153.5469,563.4512 153.7656,563.4512 Q154.1406,563.4512 154.375,563.7168 Q154.6094,563.9668 154.6094,564.5762 L154.6094,566.0293 Q154.6094,566.6387 154.375,566.9043 Q154.1406,567.1699 153.7656,567.1699 Q153.4219,567.1699 153.2188,566.9668 Q153.0156,566.7793 152.9063,566.2637 Q152.8594,565.9043 152.6719,565.7168 Q152.3438,565.3418 151.7344,565.123 Q151.125,564.9043 150.5,564.9043 Q149.7344,564.9043 149.0938,565.2324 Q148.4688,565.5605 147.9688,566.3105 Q147.4844,567.0605 147.4844,568.0918 L147.4844,569.1855 Q147.4844,570.4199 148.375,571.248 Q149.2656,572.0605 150.8594,572.0605 Q151.7969,572.0605 152.4531,571.8105 Q152.8438,571.6543 153.2656,571.2168 Q153.5313,570.9512 153.6719,570.873 Q153.8281,570.7949 154.0313,570.7949 Q154.3594,570.7949 154.6094,571.0605 Q154.875,571.3105 154.875,571.6543 Q154.875,571.998 154.5313,572.4043 Q154.0313,572.9824 153.2344,573.3105 Q152.1563,573.7637 150.8594,573.7637 Q149.3438,573.7637 148.1406,573.1387 Q147.1563,572.6387 146.4688,571.5762 Q145.7813,570.498 145.7813,569.2168 L145.7813,568.0605 Q145.7813,566.7324 146.3906,565.5918 Q147.0156,564.4355 148.1094,563.8262 Q149.2031,563.2012 150.4375,563.2012 Q151.1719,563.2012 151.8125,563.373 Q152.4688,563.5293 153.0156,563.8887 Z " fill="#000000"/><text fill="#000000" font-family="sans-serif" font-size="14" lengthAdjust="spacing" textLength="79" x="170.75" y="573.8105">Repositories</text><line style="stroke:#181818;stroke-width:0.5;" x1="23" x2="365" y1="584.0137" y2="584.0137"/><text fill="#000000" font-family="sans-serif" font-size="14" lengthAdjust="spacing" textLength="149" x="28" y="603.1211">-instance : Repositories</text><text fill="#000000" font-family="sans-serif" font-size="14" lengthAdjust="spacing" textLength="310" x="28" y="621.7422">-greenSpaceRepository : GreenSpaceRepository</text><text fill="#000000" font-family="sans-serif" font-size="14" lengthAdjust="spacing" textLength="210" x="28" y="640.3633">-taskRepository : TaskRepository</text><text fill="#000000" font-family="sans-serif" font-size="14" lengthAdjust="spacing" textLength="262" x="28" y="658.9844">-toDoListRepository : ToDoListRepository</text><text fill="#000000" font-family="sans-serif" font-size="14" lengthAdjust="spacing" textLength="276" x="28" y="677.6055">-employeeRepository : EmployeeRepository</text><text fill="#000000" font-family="sans-serif" font-size="14" lengthAdjust="spacing" textLength="332" x="28" y="696.2266">-authenticationRepository : AuthenticationRepository</text><line style="stroke:#181818;stroke-width:0.5;" x1="23" x2="365" y1="703.7402" y2="703.7402"/><text fill="#000000" font-family="sans-serif" font-size="14" lengthAdjust="spacing" textLength="91" x="28" y="722.8477">+getInstance()</text><text fill="#000000" font-family="sans-serif" font-size="14" lengthAdjust="spacing" textLength="186" x="28" y="741.4688">+getGreenSpaceRepository()</text><text fill="#000000" font-family="sans-serif" font-size="14" lengthAdjust="spacing" textLength="137" x="28" y="760.0898">+getTaskRepository()</text><text fill="#000000" font-family="sans-serif" font-size="14" lengthAdjust="spacing" textLength="163" x="28" y="778.7109">+getToDoListRepository()</text><text fill="#000000" font-family="sans-serif" font-size="14" lengthAdjust="spacing" textLength="168" x="28" y="797.332">+getEmployeeRepository()</text><text fill="#000000" font-family="sans-serif" font-size="14" lengthAdjust="spacing" textLength="196" x="28" y="815.9531">+getAuthenticationRepository()</text></g><!--class GreenSpaceRepository--><g id="elem_GreenSpaceRepository"><rect codeLine="48" fill="#F1F1F1" height="66.6211" id="GreenSpaceRepository" rx="2.5" ry="2.5" style="stroke:#181818;stroke-width:0.5;" width="248" x="22" y="902.0137"/><ellipse cx="67.75" cy="918.0137" fill="#ADD1B2" rx="11" ry="11" style="stroke:#181818;stroke-width:1.0;"/><path d="M70.5156,913.8887 Q70.6719,913.6699 70.8594,913.5605 Q71.0469,913.4512 71.2656,913.4512 Q71.6406,913.4512 71.875,913.7168 Q72.1094,913.9668 72.1094,914.5762 L72.1094,916.0293 Q72.1094,916.6387 71.875,916.9043 Q71.6406,917.1699 71.2656,917.1699 Q70.9219,917.1699 70.7188,916.9668 Q70.5156,916.7793 70.4063,916.2637 Q70.3594,915.9043 70.1719,915.7168 Q69.8438,915.3418 69.2344,915.123 Q68.625,914.9043 68,914.9043 Q67.2344,914.9043 66.5938,915.2324 Q65.9688,915.5605 65.4688,916.3105 Q64.9844,917.0605 64.9844,918.0918 L64.9844,919.1855 Q64.9844,920.4199 65.875,921.248 Q66.7656,922.0605 68.3594,922.0605 Q69.2969,922.0605 69.9531,921.8105 Q70.3438,921.6543 70.7656,921.2168 Q71.0313,920.9512 71.1719,920.873 Q71.3281,920.7949 71.5313,920.7949 Q71.8594,920.7949 72.1094,921.0605 Q72.375,921.3105 72.375,921.6543 Q72.375,921.998 72.0313,922.4043 Q71.5313,922.9824 70.7344,923.3105 Q69.6563,923.7637 68.3594,923.7637 Q66.8438,923.7637 65.6406,923.1387 Q64.6563,922.6387 63.9688,921.5762 Q63.2813,920.498 63.2813,919.2168 L63.2813,918.0605 Q63.2813,916.7324 63.8906,915.5918 Q64.5156,914.4355 65.6094,913.8262 Q66.7031,913.2012 67.9375,913.2012 Q68.6719,913.2012 69.3125,913.373 Q69.9688,913.5293 70.5156,913.8887 Z " fill="#000000"/><text fill="#000000" font-family="sans-serif" font-size="14" lengthAdjust="spacing" textLength="148" x="88.25" y="923.8105">GreenSpaceRepository</text><line style="stroke:#181818;stroke-width:0.5;" x1="23" x2="269" y1="934.0137" y2="934.0137"/><line style="stroke:#181818;stroke-width:0.5;" x1="23" x2="269" y1="942.0137" y2="942.0137"/><text fill="#000000" font-family="sans-serif" font-size="14" lengthAdjust="spacing" textLength="236" x="28" y="961.1211">+getAllGreenSpaces() : greenSpaces</text></g><!--class TaskRepository--><g id="elem_TaskRepository"><rect codeLine="52" fill="#F1F1F1" height="66.6211" id="TaskRepository" rx="2.5" ry="2.5" style="stroke:#181818;stroke-width:0.5;" width="148" x="305" y="902.0137"/><ellipse cx="327.65" cy="918.0137" fill="#ADD1B2" rx="11" ry="11" style="stroke:#181818;stroke-width:1.0;"/><path d="M330.4156,913.8887 Q330.5719,913.6699 330.7594,913.5605 Q330.9469,913.4512 331.1656,913.4512 Q331.5406,913.4512 331.775,913.7168 Q332.0094,913.9668 332.0094,914.5762 L332.0094,916.0293 Q332.0094,916.6387 331.775,916.9043 Q331.5406,917.1699 331.1656,917.1699 Q330.8219,917.1699 330.6188,916.9668 Q330.4156,916.7793 330.3063,916.2637 Q330.2594,915.9043 330.0719,915.7168 Q329.7438,915.3418 329.1344,915.123 Q328.525,914.9043 327.9,914.9043 Q327.1344,914.9043 326.4938,915.2324 Q325.8688,915.5605 325.3688,916.3105 Q324.8844,917.0605 324.8844,918.0918 L324.8844,919.1855 Q324.8844,920.4199 325.775,921.248 Q326.6656,922.0605 328.2594,922.0605 Q329.1969,922.0605 329.8531,921.8105 Q330.2438,921.6543 330.6656,921.2168 Q330.9313,920.9512 331.0719,920.873 Q331.2281,920.7949 331.4313,920.7949 Q331.7594,920.7949 332.0094,921.0605 Q332.275,921.3105 332.275,921.6543 Q332.275,921.998 331.9313,922.4043 Q331.4313,922.9824 330.6344,923.3105 Q329.5563,923.7637 328.2594,923.7637 Q326.7438,923.7637 325.5406,923.1387 Q324.5563,922.6387 323.8688,921.5762 Q323.1813,920.498 323.1813,919.2168 L323.1813,918.0605 Q323.1813,916.7324 323.7906,915.5918 Q324.4156,914.4355 325.5094,913.8262 Q326.6031,913.2012 327.8375,913.2012 Q328.5719,913.2012 329.2125,913.373 Q329.8688,913.5293 330.4156,913.8887 Z " fill="#000000"/><text fill="#000000" font-family="sans-serif" font-size="14" lengthAdjust="spacing" textLength="99" x="343.35" y="923.8105">TaskRepository</text><line style="stroke:#181818;stroke-width:0.5;" x1="306" x2="452" y1="934.0137" y2="934.0137"/><line style="stroke:#181818;stroke-width:0.5;" x1="306" x2="452" y1="942.0137" y2="942.0137"/><text fill="#000000" font-family="sans-serif" font-size="14" lengthAdjust="spacing" textLength="136" x="311" y="961.1211">+getAllTasks() : tasks</text></g><!--class ToDoListRepository--><g id="elem_ToDoListRepository"><rect codeLine="56" fill="#F1F1F1" height="66.6211" id="ToDoListRepository" rx="2.5" ry="2.5" style="stroke:#181818;stroke-width:0.5;" width="157" x="488.5" y="902.0137"/><ellipse cx="503.5" cy="918.0137" fill="#ADD1B2" rx="11" ry="11" style="stroke:#181818;stroke-width:1.0;"/><path d="M506.2656,913.8887 Q506.4219,913.6699 506.6094,913.5605 Q506.7969,913.4512 507.0156,913.4512 Q507.3906,913.4512 507.625,913.7168 Q507.8594,913.9668 507.8594,914.5762 L507.8594,916.0293 Q507.8594,916.6387 507.625,916.9043 Q507.3906,917.1699 507.0156,917.1699 Q506.6719,917.1699 506.4688,916.9668 Q506.2656,916.7793 506.1563,916.2637 Q506.1094,915.9043 505.9219,915.7168 Q505.5938,915.3418 504.9844,915.123 Q504.375,914.9043 503.75,914.9043 Q502.9844,914.9043 502.3438,915.2324 Q501.7188,915.5605 501.2188,916.3105 Q500.7344,917.0605 500.7344,918.0918 L500.7344,919.1855 Q500.7344,920.4199 501.625,921.248 Q502.5156,922.0605 504.1094,922.0605 Q505.0469,922.0605 505.7031,921.8105 Q506.0938,921.6543 506.5156,921.2168 Q506.7813,920.9512 506.9219,920.873 Q507.0781,920.7949 507.2813,920.7949 Q507.6094,920.7949 507.8594,921.0605 Q508.125,921.3105 508.125,921.6543 Q508.125,921.998 507.7813,922.4043 Q507.2813,922.9824 506.4844,923.3105 Q505.4063,923.7637 504.1094,923.7637 Q502.5938,923.7637 501.3906,923.1387 Q500.4063,922.6387 499.7188,921.5762 Q499.0313,920.498 499.0313,919.2168 L499.0313,918.0605 Q499.0313,916.7324 499.6406,915.5918 Q500.2656,914.4355 501.3594,913.8262 Q502.4531,913.2012 503.6875,913.2012 Q504.4219,913.2012 505.0625,913.373 Q505.7188,913.5293 506.2656,913.8887 Z " fill="#000000"/><text fill="#000000" font-family="sans-serif" font-size="14" lengthAdjust="spacing" textLength="125" x="517.5" y="923.8105">ToDoListRepository</text><line style="stroke:#181818;stroke-width:0.5;" x1="489.5" x2="644.5" y1="934.0137" y2="934.0137"/><line style="stroke:#181818;stroke-width:0.5;" x1="489.5" x2="644.5" y1="942.0137" y2="942.0137"/><text fill="#000000" font-family="sans-serif" font-size="14" lengthAdjust="spacing" textLength="107" x="494.5" y="961.1211">+addEntry(entry)</text></g><!--class AuthenticationRepository--><g id="elem_AuthenticationRepository"><rect codeLine="60" fill="#F1F1F1" height="66.6211" id="AuthenticationRepository" rx="2.5" ry="2.5" style="stroke:#181818;stroke-width:0.5;" width="195" x="480.5" y="654.0137"/><ellipse cx="497.75" cy="670.0137" fill="#ADD1B2" rx="11" ry="11" style="stroke:#181818;stroke-width:1.0;"/><path d="M500.5156,665.8887 Q500.6719,665.6699 500.8594,665.5605 Q501.0469,665.4512 501.2656,665.4512 Q501.6406,665.4512 501.875,665.7168 Q502.1094,665.9668 502.1094,666.5762 L502.1094,668.0293 Q502.1094,668.6387 501.875,668.9043 Q501.6406,669.1699 501.2656,669.1699 Q500.9219,669.1699 500.7188,668.9668 Q500.5156,668.7793 500.4063,668.2637 Q500.3594,667.9043 500.1719,667.7168 Q499.8438,667.3418 499.2344,667.123 Q498.625,666.9043 498,666.9043 Q497.2344,666.9043 496.5938,667.2324 Q495.9688,667.5605 495.4688,668.3105 Q494.9844,669.0605 494.9844,670.0918 L494.9844,671.1855 Q494.9844,672.4199 495.875,673.248 Q496.7656,674.0605 498.3594,674.0605 Q499.2969,674.0605 499.9531,673.8105 Q500.3438,673.6543 500.7656,673.2168 Q501.0313,672.9512 501.1719,672.873 Q501.3281,672.7949 501.5313,672.7949 Q501.8594,672.7949 502.1094,673.0605 Q502.375,673.3105 502.375,673.6543 Q502.375,673.998 502.0313,674.4043 Q501.5313,674.9824 500.7344,675.3105 Q499.6563,675.7637 498.3594,675.7637 Q496.8438,675.7637 495.6406,675.1387 Q494.6563,674.6387 493.9688,673.5762 Q493.2813,672.498 493.2813,671.2168 L493.2813,670.0605 Q493.2813,668.7324 493.8906,667.5918 Q494.5156,666.4355 495.6094,665.8262 Q496.7031,665.2012 497.9375,665.2012 Q498.6719,665.2012 499.3125,665.373 Q499.9688,665.5293 500.5156,665.8887 Z " fill="#000000"/><text fill="#000000" font-family="sans-serif" font-size="14" lengthAdjust="spacing" textLength="158" x="512.25" y="675.8105">AuthenticationRepository</text><line style="stroke:#181818;stroke-width:0.5;" x1="481.5" x2="674.5" y1="686.0137" y2="686.0137"/><line style="stroke:#181818;stroke-width:0.5;" x1="481.5" x2="674.5" y1="694.0137" y2="694.0137"/><text fill="#000000" font-family="sans-serif" font-size="14" lengthAdjust="spacing" textLength="183" x="486.5" y="713.1211">+getEmployeeFromSession()</text></g><!--class Employee--><g id="elem_Employee"><rect codeLine="66" fill="#F1F1F1" height="308.6953" id="Employee" rx="2.5" ry="2.5" style="stroke:#181818;stroke-width:0.5;" width="361" x="386.5" y="1055.0137"/><ellipse cx="531.75" cy="1071.0137" fill="#ADD1B2" rx="11" ry="11" style="stroke:#181818;stroke-width:1.0;"/><path d="M534.5156,1066.8887 Q534.6719,1066.6699 534.8594,1066.5605 Q535.0469,1066.4512 535.2656,1066.4512 Q535.6406,1066.4512 535.875,1066.7168 Q536.1094,1066.9668 536.1094,1067.5762 L536.1094,1069.0293 Q536.1094,1069.6387 535.875,1069.9043 Q535.6406,1070.1699 535.2656,1070.1699 Q534.9219,1070.1699 534.7188,1069.9668 Q534.5156,1069.7793 534.4063,1069.2637 Q534.3594,1068.9043 534.1719,1068.7168 Q533.8438,1068.3418 533.2344,1068.123 Q532.625,1067.9043 532,1067.9043 Q531.2344,1067.9043 530.5938,1068.2324 Q529.9688,1068.5605 529.4688,1069.3105 Q528.9844,1070.0605 528.9844,1071.0918 L528.9844,1072.1855 Q528.9844,1073.4199 529.875,1074.248 Q530.7656,1075.0605 532.3594,1075.0605 Q533.2969,1075.0605 533.9531,1074.8105 Q534.3438,1074.6543 534.7656,1074.2168 Q535.0313,1073.9512 535.1719,1073.873 Q535.3281,1073.7949 535.5313,1073.7949 Q535.8594,1073.7949 536.1094,1074.0605 Q536.375,1074.3105 536.375,1074.6543 Q536.375,1074.998 536.0313,1075.4043 Q535.5313,1075.9824 534.7344,1076.3105 Q533.6563,1076.7637 532.3594,1076.7637 Q530.8438,1076.7637 529.6406,1076.1387 Q528.6563,1075.6387 527.9688,1074.5762 Q527.2813,1073.498 527.2813,1072.2168 L527.2813,1071.0605 Q527.2813,1069.7324 527.8906,1068.5918 Q528.5156,1067.4355 529.6094,1066.8262 Q530.7031,1066.2012 531.9375,1066.2012 Q532.6719,1066.2012 533.3125,1066.373 Q533.9688,1066.5293 534.5156,1066.8887 Z " fill="#000000"/><text fill="#000000" font-family="sans-serif" font-size="14" lengthAdjust="spacing" textLength="62" x="552.25" y="1076.8105">Employee</text><line style="stroke:#181818;stroke-width:0.5;" x1="387.5" x2="746.5" y1="1087.0137" y2="1087.0137"/><text fill="#000000" font-family="sans-serif" font-size="14" lengthAdjust="spacing" textLength="85" x="392.5" y="1106.1211">-name: String</text><text fill="#000000" font-family="sans-serif" font-size="14" lengthAdjust="spacing" textLength="99" x="392.5" y="1124.7422">-birthdate: Date</text><text fill="#000000" font-family="sans-serif" font-size="14" lengthAdjust="spacing" textLength="136" x="392.5" y="1143.3633">-admissionDate: Date</text><text fill="#000000" font-family="sans-serif" font-size="14" lengthAdjust="spacing" textLength="56" x="392.5" y="1161.9844">-address</text><text fill="#000000" font-family="sans-serif" font-size="14" lengthAdjust="spacing" textLength="140" x="392.5" y="1180.6055">-mobileContact: String</text><text fill="#000000" font-family="sans-serif" font-size="14" lengthAdjust="spacing" textLength="132" x="392.5" y="1199.2266">-emailContact: String</text><text fill="#000000" font-family="sans-serif" font-size="14" lengthAdjust="spacing" textLength="118" x="392.5" y="1217.8477">-IDdocType: String</text><text fill="#000000" font-family="sans-serif" font-size="14" lengthAdjust="spacing" textLength="111" x="392.5" y="1236.4688">-IDnumber: String</text><text fill="#000000" font-family="sans-serif" font-size="14" lengthAdjust="spacing" textLength="117" x="392.5" y="1255.0898">-taxNumber: String</text><text fill="#000000" font-family="sans-serif" font-size="14" lengthAdjust="spacing" textLength="54" x="392.5" y="1273.7109">-job: Job</text><line style="stroke:#181818;stroke-width:0.5;" x1="387.5" x2="746.5" y1="1281.2246" y2="1281.2246"/><text fill="#000000" font-family="sans-serif" font-size="14" lengthAdjust="spacing" textLength="303" x="392.5" y="1300.332">+Employee (String nome,LocalDate dateOfBirth,</text><text fill="#000000" font-family="sans-serif" font-size="14" lengthAdjust="spacing" textLength="349" x="392.5" y="1318.9531">LocalDate admissionDate, String morada, int telemovel,</text><text fill="#000000" font-family="sans-serif" font-size="14" lengthAdjust="spacing" textLength="326" x="392.5" y="1337.5742">String email, String idDocType, int docTypeNumber,</text><text fill="#000000" font-family="sans-serif" font-size="14" lengthAdjust="spacing" textLength="265" x="392.5" y="1356.1953">int taxPayerIdNumber, String role, Job job)</text></g><!--class Entry--><g id="elem_Entry"><rect codeLine="81" fill="#F1F1F1" height="159.7266" id="Entry" rx="2.5" ry="2.5" style="stroke:#181818;stroke-width:0.5;" width="354" x="390" y="1425.0137"/><ellipse cx="546.25" cy="1441.0137" fill="#ADD1B2" rx="11" ry="11" style="stroke:#181818;stroke-width:1.0;"/><path d="M549.0156,1436.8887 Q549.1719,1436.6699 549.3594,1436.5605 Q549.5469,1436.4512 549.7656,1436.4512 Q550.1406,1436.4512 550.375,1436.7168 Q550.6094,1436.9668 550.6094,1437.5762 L550.6094,1439.0293 Q550.6094,1439.6387 550.375,1439.9043 Q550.1406,1440.1699 549.7656,1440.1699 Q549.4219,1440.1699 549.2188,1439.9668 Q549.0156,1439.7793 548.9063,1439.2637 Q548.8594,1438.9043 548.6719,1438.7168 Q548.3438,1438.3418 547.7344,1438.123 Q547.125,1437.9043 546.5,1437.9043 Q545.7344,1437.9043 545.0938,1438.2324 Q544.4688,1438.5605 543.9688,1439.3105 Q543.4844,1440.0605 543.4844,1441.0918 L543.4844,1442.1855 Q543.4844,1443.4199 544.375,1444.248 Q545.2656,1445.0605 546.8594,1445.0605 Q547.7969,1445.0605 548.4531,1444.8105 Q548.8438,1444.6543 549.2656,1444.2168 Q549.5313,1443.9512 549.6719,1443.873 Q549.8281,1443.7949 550.0313,1443.7949 Q550.3594,1443.7949 550.6094,1444.0605 Q550.875,1444.3105 550.875,1444.6543 Q550.875,1444.998 550.5313,1445.4043 Q550.0313,1445.9824 549.2344,1446.3105 Q548.1563,1446.7637 546.8594,1446.7637 Q545.3438,1446.7637 544.1406,1446.1387 Q543.1563,1445.6387 542.4688,1444.5762 Q541.7813,1443.498 541.7813,1442.2168 L541.7813,1441.0605 Q541.7813,1439.7324 542.3906,1438.5918 Q543.0156,1437.4355 544.1094,1436.8262 Q545.2031,1436.2012 546.4375,1436.2012 Q547.1719,1436.2012 547.8125,1436.373 Q548.4688,1436.5293 549.0156,1436.8887 Z " fill="#000000"/><text fill="#000000" font-family="sans-serif" font-size="14" lengthAdjust="spacing" textLength="33" x="566.75" y="1446.8105">Entry</text><line style="stroke:#181818;stroke-width:0.5;" x1="391" x2="743" y1="1457.0137" y2="1457.0137"/><text fill="#000000" font-family="sans-serif" font-size="14" lengthAdjust="spacing" textLength="170" x="396" y="1476.1211">-greenSpace: GreenSpace</text><text fill="#000000" font-family="sans-serif" font-size="14" lengthAdjust="spacing" textLength="70" x="396" y="1494.7422">-task: Task</text><text fill="#000000" font-family="sans-serif" font-size="14" lengthAdjust="spacing" textLength="126" x="396" y="1513.3633">-urgencyDegree: int</text><text fill="#000000" font-family="sans-serif" font-size="14" lengthAdjust="spacing" textLength="217" x="396" y="1531.9844">-approximateExpectedDuration: int</text><line style="stroke:#181818;stroke-width:0.5;" x1="391" x2="743" y1="1539.498" y2="1539.498"/><text fill="#000000" font-family="sans-serif" font-size="14" lengthAdjust="spacing" textLength="288" x="396" y="1558.6055">+Entry ( GreenSpace greenSpace, Task task,</text><text fill="#000000" font-family="sans-serif" font-size="14" lengthAdjust="spacing" textLength="338" x="400" y="1577.2266">int urgencyDegree, int approximateExpectedDuration)</text></g><!--link CreateEntryUI to CreateEntryController--><g id="link_CreateEntryUI_CreateEntryController"><path codeLine="91" d="M679,240.1537 C679,269.1237 679,294.0037 679,319.8537 " fill="none" id="CreateEntryUI-to-CreateEntryController" style="stroke:#181818;stroke-width:1.0;stroke-dasharray:7.0,7.0;"/><polygon fill="#181818" points="679,325.8537,683,316.8537,679,320.8537,675,316.8537,679,325.8537" style="stroke:#181818;stroke-width:1.0;"/><text fill="#000000" font-family="sans-serif" font-size="13" lengthAdjust="spacing" textLength="7" x="671.743" y="262.0619">1</text><text fill="#000000" font-family="sans-serif" font-size="13" lengthAdjust="spacing" textLength="7" x="671.5953" y="314.8164">1</text></g><!--link Repositories to Repositories--><g id="link_Repositories_Repositories"><path codeLine="93" d="M366.11,659.2837 C387.18,664.3437 401,673.7537 401,687.5137 C401,701.2737 393.0141,709.2826 371.9441,714.3426 " fill="none" id="Repositories-to-Repositories" style="stroke:#181818;stroke-width:1.0;"/><polygon fill="#181818" points="366.11,715.7437,375.7952,717.5315,370.9718,714.5761,373.9271,709.7526,366.11,715.7437" style="stroke:#181818;stroke-width:1.0;"/><text fill="#000000" font-family="sans-serif" font-size="13" lengthAdjust="spacing" textLength="49" x="407" y="693.042">instance</text></g><!--link Repositories to GreenSpaceRepository--><g id="link_Repositories_GreenSpaceRepository"><path codeLine="94" d="M167.75,823.0337 C162.02,852.4137 157.6106,875.035 153.5406,895.865 " fill="none" id="Repositories-to-GreenSpaceRepository" style="stroke:#181818;stroke-width:1.0;"/><polygon fill="#181818" points="152.39,901.7537,158.0416,893.6878,153.3488,896.8465,150.1901,892.1536,152.39,901.7537" style="stroke:#181818;stroke-width:1.0;"/><text fill="#000000" font-family="sans-serif" font-size="13" lengthAdjust="spacing" textLength="7" x="145.9409" y="890.79">1</text></g><!--link Repositories to TaskRepository--><g id="link_Repositories_TaskRepository"><path codeLine="95" d="M295.16,823.0337 C317.26,852.4137 335.0945,876.1278 350.7545,896.9578 " fill="none" id="Repositories-to-TaskRepository" style="stroke:#181818;stroke-width:1.0;"/><polygon fill="#181818" points="354.36,901.7537,352.149,892.1562,351.3554,897.7571,345.7545,896.9636,354.36,901.7537" style="stroke:#181818;stroke-width:1.0;"/><text fill="#000000" font-family="sans-serif" font-size="13" lengthAdjust="spacing" textLength="7" x="341.9958" y="890.79">1</text></g><!--link Repositories to ToDoListRepository--><g id="link_Repositories_ToDoListRepository"><path codeLine="96" d="M366.03,801.9737 C421.44,838.5137 473.541,872.8806 512.651,898.6706 " fill="none" id="Repositories-to-ToDoListRepository" style="stroke:#181818;stroke-width:1.0;"/><polygon fill="#181818" points="517.66,901.9737,512.3485,893.6798,513.4858,899.2211,507.9445,900.3584,517.66,901.9737" style="stroke:#181818;stroke-width:1.0;"/><text fill="#000000" font-family="sans-serif" font-size="13" lengthAdjust="spacing" textLength="7" x="500.2571" y="890.7913">1</text></g><!--link Repositories to AuthenticationRepository--><g id="link_Repositories_AuthenticationRepository"><path codeLine="97" d="M366.05,687.5137 C403.08,687.5137 450,687.5137 450,687.5137 C450,687.5137 456.81,687.5137 474.33,687.5137 " fill="none" id="Repositories-to-AuthenticationRepository" style="stroke:#181818;stroke-width:1.0;"/><polygon fill="#181818" points="480.33,687.5137,471.33,683.5137,475.33,687.5137,471.33,691.5137,480.33,687.5137" style="stroke:#181818;stroke-width:1.0;"/></g><!--link GreenSpaceRepository to Employee--><g id="link_GreenSpaceRepository_Employee"><path codeLine="99" d="M196.36,969.0537 C243.62,999.5837 312.1404,1043.8576 381.3104,1088.5476 " fill="none" id="GreenSpaceRepository-to-Employee" style="stroke:#181818;stroke-width:1.0;"/><polygon fill="#181818" points="386.35,1091.8037,380.9612,1083.5598,382.1503,1089.0903,376.6198,1090.2793,386.35,1091.8037" style="stroke:#181818;stroke-width:1.0;"/><text fill="#000000" font-family="sans-serif" font-size="13" lengthAdjust="spacing" textLength="7" x="197.7069" y="990.63">1</text><text fill="#000000" font-family="sans-serif" font-size="13" lengthAdjust="spacing" textLength="7" x="371.5812" y="1083.5201">1</text></g><!--link TaskRepository to Employee--><g id="link_TaskRepository_Employee"><path codeLine="100" d="M401.49,969.0537 C416.79,991.1937 434.8584,1017.338 457.2884,1049.788 " fill="none" id="TaskRepository-to-Employee" style="stroke:#181818;stroke-width:1.0;"/><polygon fill="#181818" points="460.7,1054.7237,458.873,1045.0458,457.857,1050.6106,452.2921,1049.5946,460.7,1054.7237" style="stroke:#181818;stroke-width:1.0;"/><text fill="#000000" font-family="sans-serif" font-size="13" lengthAdjust="spacing" textLength="7" x="397.8726" y="990.63">1</text><text fill="#000000" font-family="sans-serif" font-size="13" lengthAdjust="spacing" textLength="7" x="448.3816" y="1043.8571">1</text></g><!--link ToDoListRepository to Employee--><g id="link_ToDoListRepository_Employee"><path codeLine="101" d="M567,969.0537 C567,991.1937 567,1016.2737 567,1048.7237 " fill="none" id="ToDoListRepository-to-Employee" style="stroke:#181818;stroke-width:1.0;"/><polygon fill="#181818" points="567,1054.7237,571,1045.7237,567,1049.7237,563,1045.7237,567,1054.7237" style="stroke:#181818;stroke-width:1.0;"/><text fill="#000000" font-family="sans-serif" font-size="13" lengthAdjust="spacing" textLength="7" x="559.3766" y="990.63">1</text><text fill="#000000" font-family="sans-serif" font-size="13" lengthAdjust="spacing" textLength="7" x="559.8305" y="1043.8571">1</text></g><!--link Employee to Entry--><g id="link_Employee_Entry"><path codeLine="103" d="M567,1364.1437 C567,1385.0837 567,1399.8437 567,1418.6937 " fill="none" id="Employee-to-Entry" style="stroke:#181818;stroke-width:1.0;"/><polygon fill="#181818" points="567,1424.6937,571,1415.6937,567,1419.6937,563,1415.6937,567,1424.6937" style="stroke:#181818;stroke-width:1.0;"/><text fill="#000000" font-family="sans-serif" font-size="13" lengthAdjust="spacing" textLength="7" x="559.8414" y="1385.5773">1</text><text fill="#000000" font-family="sans-serif" font-size="13" lengthAdjust="spacing" textLength="5" x="561.7773" y="1413.8366">*</text></g><!--link AuthenticationRepository to Employee--><g id="link_AuthenticationRepository_Employee"><path codeLine="105" d="M591.09,721.4037 C614.94,781.2937 663,902.0137 663,902.0137 C663,902.0137 663,993.0137 663,993.0137 C663,993.0137 653.4414,1014.4628 637.9314,1049.2828 " fill="none" id="AuthenticationRepository-to-Employee" style="stroke:#181818;stroke-width:1.0;"/><polygon fill="#181818" points="635.49,1054.7637,642.8059,1048.17,637.5245,1050.1963,635.4981,1044.9148,635.49,1054.7637" style="stroke:#181818;stroke-width:1.0;"/><text fill="#000000" font-family="sans-serif" font-size="13" lengthAdjust="spacing" textLength="7" x="585.7383" y="742.7753">1</text><text fill="#000000" font-family="sans-serif" font-size="13" lengthAdjust="spacing" textLength="7" x="631.638" y="1043.899">1</text></g><!--link CreateEntryController to Repositories--><g id="link_CreateEntryController_Repositories"><path codeLine="107" d="M570.05,448.0337 C516.37,477.6137 463,507.0137 463,507.0137 C463,507.0137 423.811,533.1635 371.251,568.2335 " fill="none" id="CreateEntryController-to-Repositories" style="stroke:#181818;stroke-width:1.0;stroke-dasharray:7.0,7.0;"/><polygon fill="#181818" points="366.26,571.5637,375.9666,569.8957,370.4192,568.7885,371.5264,563.2411,366.26,571.5637" style="stroke:#181818;stroke-width:1.0;"/><text fill="#000000" font-family="sans-serif" font-size="13" lengthAdjust="spacing" textLength="67" x="510" y="495.042">repositories</text><text fill="#000000" font-family="sans-serif" font-size="13" lengthAdjust="spacing" textLength="7" x="549.3452" y="470.523">1</text><text fill="#000000" font-family="sans-serif" font-size="13" lengthAdjust="spacing" textLength="7" x="374.2241" y="562.9492">1</text></g><!--link CreateEntryController to Employee--><g id="link_CreateEntryController_Employee"><path codeLine="108" d="M685.58,448.2137 C688.8,477.7237 692,507.0137 692,507.0137 C692,507.0137 692,993.0137 692,993.0137 C692,993.0137 679.3908,1014.7538 659.1908,1049.5738 " fill="none" id="CreateEntryController-to-Employee" style="stroke:#181818;stroke-width:1.0;stroke-dasharray:7.0,7.0;"/><polygon fill="#181818" points="656.18,1054.7637,664.1561,1048.986,658.689,1050.4388,657.2363,1044.9716,656.18,1054.7637" style="stroke:#181818;stroke-width:1.0;"/><text fill="#000000" font-family="sans-serif" font-size="13" lengthAdjust="spacing" textLength="67" x="693" y="868.042">createEntry</text></g><!--SRC=[XLPHJzim47xthpZnGjaAsbuhL8cHWZgX3QtmnekR7ArNnyviPwD3- - -pOpU94nUe1CtTTtVVTxwSETKx9YggQ0cb53BVAbaY65KZwJmLpNTqWokpvmWASqF5XlS1UaiB-OU93JnJhliUpWIQVOLGIRvt3-GquPJAIDABoZdL-ieOnTQrmMKknOhzHVX4o2d7PmD6WcARhO62EJfC2aBkFKbuNCBbvOta1Qhv_9KqgU1Q8JMu44Rj7vUl1EpFHrMBoLduYhzgr2QZXi9aen35och6AHYgTrDu4hNQeCZtKA3pJe5MbP8lhBH90Lygom4BA6f57PUGLDVhaZKv1sLksm83nuEjDZ0z-i9PKtT8DzIpvd_sqtRWMbgTadDKRtUYmuMEm0RDegout2FUs45OeTO-ltSdOoT6PlAEQVC3AwcPaMf_mESTVW9lj3KRTtKHcfgrFOqaThKI4bidG-sLdGCJsavjZZ2BtC7RSUibdi5jmXmYd888-n0P3gXHQnnoP0ne3AsFq8kHCQ1fRROe3CkR_aGnLqTSf3lcPUX7UxRMbfBRzySI8yz8Kjyxbj3t7YFRJ7KuqHIpCBCk0-STG4_ER0Uw0zLTbfX_5EzSFj8TR3zcf2p4qQBmWutkTu_hCJtllcFHW6Uof4maXliG6mPRq19diBARKcoyPSsKsHRs5Pg1tJteZRGeMLCd6paAPHduXrAk6KVtQjFSn5dHqk59pp8hPFvWj_ZGBEfoZIgs6lhoBM7-ATSp-2hNOK0F6c7YGI3ifJIzapdbZZauTT-VlpYXqoVHsIELqr31tckA5dHgLu2zE91ZANyZjt71tIXhmQp8l1gF3z8yPnlJvA0lztIFQba4yo7MxaCRPcM0rTERY6PEmdbrWzbVBuVcw9rV9FuvseupnoUSsV4rwL6XYwuiJ7fbeXtiwlX5_2GQhODbx4plB-JeOeMJpoTmSJ5l_YOl2qBwsnVEvz4sXbcxfmUuSvypkP2JoC4wJcF6YtZ8xlWcJL5fiXwo7uQOn5JW26XyKoHnf7qtMlU74pzXX1nZUoHLyeIYCnmSZkhVdEbe5zbIdFN_0o3_0G00]--></g></svg>