<?xml version="1.0" encoding="us-ascii" standalone="no"?><svg xmlns="http://www.w3.org/2000/svg" xmlns:xlink="http://www.w3.org/1999/xlink" contentStyleType="text/css" height="1257px" preserveAspectRatio="none" style="width:1249px;height:1257px;background:#FFFFFF;" version="1.1" viewBox="0 0 1249 1257" width="1249px" zoomAndPan="magnify"><defs/><g><!--cluster Controller--><g id="cluster_Controller"><path d="M281,251.0137 L353,251.0137 A3.75,3.75 0 0 1 355.5,253.5137 L362.5,275.6348 L1240,275.6348 A2.5,2.5 0 0 1 1242.5,278.1348 L1242.5,405.5137 A2.5,2.5 0 0 1 1240,408.0137 L281,408.0137 A2.5,2.5 0 0 1 278.5,405.5137 L278.5,253.5137 A2.5,2.5 0 0 1 281,251.0137 " fill="none" style="stroke:#000000;stroke-width:1.5;"/><line style="stroke:#000000;stroke-width:1.5;" x1="278.5" x2="362.5" y1="275.6348" y2="275.6348"/><text fill="#000000" font-family="sans-serif" font-size="14" font-weight="bold" lengthAdjust="spacing" textLength="71" x="282.5" y="268.1211">Controller</text></g><!--cluster UI--><g id="cluster_UI"><path d="M660,6.0137 L675,6.0137 A3.75,3.75 0 0 1 677.5,8.5137 L684.5,30.6348 L861,30.6348 A2.5,2.5 0 0 1 863.5,33.1348 L863.5,197.5137 A2.5,2.5 0 0 1 861,200.0137 L660,200.0137 A2.5,2.5 0 0 1 657.5,197.5137 L657.5,8.5137 A2.5,2.5 0 0 1 660,6.0137 " fill="none" style="stroke:#000000;stroke-width:1.5;"/><line style="stroke:#000000;stroke-width:1.5;" x1="657.5" x2="684.5" y1="30.6348" y2="30.6348"/><text fill="#000000" font-family="sans-serif" font-size="14" font-weight="bold" lengthAdjust="spacing" textLength="14" x="661.5" y="23.1211">UI</text></g><!--cluster Domain--><g id="cluster_Domain"><path d="M121,831.0137 L174,831.0137 A3.75,3.75 0 0 1 176.5,833.5137 L183.5,855.6348 L1089,855.6348 A2.5,2.5 0 0 1 1091.5,858.1348 L1091.5,1152.5137 A2.5,2.5 0 0 1 1089,1155.0137 L121,1155.0137 A2.5,2.5 0 0 1 118.5,1152.5137 L118.5,833.5137 A2.5,2.5 0 0 1 121,831.0137 " fill="none" style="stroke:#000000;stroke-width:1.5;"/><line style="stroke:#000000;stroke-width:1.5;" x1="118.5" x2="183.5" y1="855.6348" y2="855.6348"/><text fill="#000000" font-family="sans-serif" font-size="14" font-weight="bold" lengthAdjust="spacing" textLength="52" x="122.5" y="848.1211">Domain</text></g><!--cluster Repositories--><g id="cluster_Repositories"><path d="M127,459.0137 L218,459.0137 A3.75,3.75 0 0 1 220.5,461.5137 L227.5,483.6348 L872,483.6348 A2.5,2.5 0 0 1 874.5,486.1348 L874.5,795.5137 A2.5,2.5 0 0 1 872,798.0137 L127,798.0137 A2.5,2.5 0 0 1 124.5,795.5137 L124.5,461.5137 A2.5,2.5 0 0 1 127,459.0137 " fill="none" style="stroke:#000000;stroke-width:1.5;"/><line style="stroke:#000000;stroke-width:1.5;" x1="124.5" x2="227.5" y1="483.6348" y2="483.6348"/><text fill="#000000" font-family="sans-serif" font-size="14" font-weight="bold" lengthAdjust="spacing" textLength="90" x="128.5" y="476.1211">Repositories</text></g><!--class CreateTeamToEntryController--><g id="elem_CreateTeamToEntryController"><rect codeLine="8" fill="#F1F1F1" height="103.8633" id="CreateTeamToEntryController" rx="2.5" ry="2.5" style="stroke:#181818;stroke-width:0.5;" width="931" x="295" y="288.0137"/><ellipse cx="660.75" cy="304.0137" fill="#C2C2C2" rx="11" ry="11" style="stroke:#181818;stroke-width:1.0;"/><path d="M663.5156,299.8887 Q663.6719,299.6699 663.8594,299.5605 Q664.0469,299.4512 664.2656,299.4512 Q664.6406,299.4512 664.875,299.7168 Q665.1094,299.9668 665.1094,300.5762 L665.1094,302.0293 Q665.1094,302.6387 664.875,302.9043 Q664.6406,303.1699 664.2656,303.1699 Q663.9219,303.1699 663.7188,302.9668 Q663.5156,302.7793 663.4063,302.2637 Q663.3594,301.9043 663.1719,301.7168 Q662.8438,301.3418 662.2344,301.123 Q661.625,300.9043 661,300.9043 Q660.2344,300.9043 659.5938,301.2324 Q658.9688,301.5605 658.4688,302.3105 Q657.9844,303.0605 657.9844,304.0918 L657.9844,305.1855 Q657.9844,306.4199 658.875,307.248 Q659.7656,308.0605 661.3594,308.0605 Q662.2969,308.0605 662.9531,307.8105 Q663.3438,307.6543 663.7656,307.2168 Q664.0313,306.9512 664.1719,306.873 Q664.3281,306.7949 664.5313,306.7949 Q664.8594,306.7949 665.1094,307.0605 Q665.375,307.3105 665.375,307.6543 Q665.375,307.998 665.0313,308.4043 Q664.5313,308.9824 663.7344,309.3105 Q662.6563,309.7637 661.3594,309.7637 Q659.8438,309.7637 658.6406,309.1387 Q657.6563,308.6387 656.9688,307.5762 Q656.2813,306.498 656.2813,305.2168 L656.2813,304.0605 Q656.2813,302.7324 656.8906,301.5918 Q657.5156,300.4355 658.6094,299.8262 Q659.7031,299.2012 660.9375,299.2012 Q661.6719,299.2012 662.3125,299.373 Q662.9688,299.5293 663.5156,299.8887 Z " fill="#000000"/><text fill="#000000" font-family="sans-serif" font-size="14" lengthAdjust="spacing" textLength="191" x="681.25" y="309.8105">CreateTeamToEntryController</text><line style="stroke:#181818;stroke-width:0.5;" x1="296" x2="1225" y1="320.0137" y2="320.0137"/><text fill="#000000" font-family="sans-serif" font-size="14" lengthAdjust="spacing" textLength="220" x="301" y="339.1211">-teamRepository : TeamRepository</text><text fill="#000000" font-family="sans-serif" font-size="14" lengthAdjust="spacing" textLength="250" x="301" y="357.7422">-agendaRepository : AgendaRepository</text><line style="stroke:#181818;stroke-width:0.5;" x1="296" x2="1225" y1="365.2559" y2="365.2559"/><text fill="#000000" font-family="sans-serif" font-size="14" lengthAdjust="spacing" textLength="919" x="301" y="384.3633">+createEntry(String name, String description, String urgencyDegree, int duration, GreenSpace greenSpace, LocalDate date, int hour, Team team)</text></g><!--class CreateTeamToEntryUI--><g id="elem_CreateTeamToEntryUI"><rect codeLine="15" fill="#F1F1F1" height="141.1055" id="CreateTeamToEntryUI" rx="2.5" ry="2.5" style="stroke:#181818;stroke-width:0.5;" width="173" x="674" y="43.0137"/><ellipse cx="689" cy="59.0137" fill="#C2C2C2" rx="11" ry="11" style="stroke:#181818;stroke-width:1.0;"/><path d="M691.7656,54.8887 Q691.9219,54.6699 692.1094,54.5605 Q692.2969,54.4512 692.5156,54.4512 Q692.8906,54.4512 693.125,54.7168 Q693.3594,54.9668 693.3594,55.5762 L693.3594,57.0293 Q693.3594,57.6387 693.125,57.9043 Q692.8906,58.1699 692.5156,58.1699 Q692.1719,58.1699 691.9688,57.9668 Q691.7656,57.7793 691.6563,57.2637 Q691.6094,56.9043 691.4219,56.7168 Q691.0938,56.3418 690.4844,56.123 Q689.875,55.9043 689.25,55.9043 Q688.4844,55.9043 687.8438,56.2324 Q687.2188,56.5605 686.7188,57.3105 Q686.2344,58.0605 686.2344,59.0918 L686.2344,60.1855 Q686.2344,61.4199 687.125,62.248 Q688.0156,63.0605 689.6094,63.0605 Q690.5469,63.0605 691.2031,62.8105 Q691.5938,62.6543 692.0156,62.2168 Q692.2813,61.9512 692.4219,61.873 Q692.5781,61.7949 692.7813,61.7949 Q693.1094,61.7949 693.3594,62.0605 Q693.625,62.3105 693.625,62.6543 Q693.625,62.998 693.2813,63.4043 Q692.7813,63.9824 691.9844,64.3105 Q690.9063,64.7637 689.6094,64.7637 Q688.0938,64.7637 686.8906,64.1387 Q685.9063,63.6387 685.2188,62.5762 Q684.5313,61.498 684.5313,60.2168 L684.5313,59.0605 Q684.5313,57.7324 685.1406,56.5918 Q685.7656,55.4355 686.8594,54.8262 Q687.9531,54.2012 689.1875,54.2012 Q689.9219,54.2012 690.5625,54.373 Q691.2188,54.5293 691.7656,54.8887 Z " fill="#000000"/><text fill="#000000" font-family="sans-serif" font-size="14" lengthAdjust="spacing" textLength="141" x="703" y="64.8105">CreateTeamToEntryUI</text><line style="stroke:#181818;stroke-width:0.5;" x1="675" x2="846" y1="75.0137" y2="75.0137"/><line style="stroke:#181818;stroke-width:0.5;" x1="675" x2="846" y1="83.0137" y2="83.0137"/><text fill="#000000" font-family="sans-serif" font-size="14" lengthAdjust="spacing" textLength="39" x="680" y="102.1211">+run()</text><text fill="#000000" font-family="sans-serif" font-size="14" lengthAdjust="spacing" textLength="96" x="680" y="120.7422">+requestData()</text><text fill="#000000" font-family="sans-serif" font-size="14" lengthAdjust="spacing" textLength="89" x="680" y="139.3633">+submitData()</text><text fill="#000000" font-family="sans-serif" font-size="14" lengthAdjust="spacing" textLength="110" x="680" y="157.9844">+requestEntries()</text><text fill="#000000" font-family="sans-serif" font-size="14" lengthAdjust="spacing" textLength="102" x="680" y="176.6055">+requestTeam()</text></g><!--class Entry--><g id="elem_Entry"><rect codeLine="28" fill="#F1F1F1" height="271.4531" id="Entry" rx="2.5" ry="2.5" style="stroke:#181818;stroke-width:0.5;" width="812" x="134.5" y="868.0137"/><ellipse cx="519.75" cy="884.0137" fill="#C2C2C2" rx="11" ry="11" style="stroke:#181818;stroke-width:1.0;"/><path d="M522.5156,879.8887 Q522.6719,879.6699 522.8594,879.5605 Q523.0469,879.4512 523.2656,879.4512 Q523.6406,879.4512 523.875,879.7168 Q524.1094,879.9668 524.1094,880.5762 L524.1094,882.0293 Q524.1094,882.6387 523.875,882.9043 Q523.6406,883.1699 523.2656,883.1699 Q522.9219,883.1699 522.7188,882.9668 Q522.5156,882.7793 522.4063,882.2637 Q522.3594,881.9043 522.1719,881.7168 Q521.8438,881.3418 521.2344,881.123 Q520.625,880.9043 520,880.9043 Q519.2344,880.9043 518.5938,881.2324 Q517.9688,881.5605 517.4688,882.3105 Q516.9844,883.0605 516.9844,884.0918 L516.9844,885.1855 Q516.9844,886.4199 517.875,887.248 Q518.7656,888.0605 520.3594,888.0605 Q521.2969,888.0605 521.9531,887.8105 Q522.3438,887.6543 522.7656,887.2168 Q523.0313,886.9512 523.1719,886.873 Q523.3281,886.7949 523.5313,886.7949 Q523.8594,886.7949 524.1094,887.0605 Q524.375,887.3105 524.375,887.6543 Q524.375,887.998 524.0313,888.4043 Q523.5313,888.9824 522.7344,889.3105 Q521.6563,889.7637 520.3594,889.7637 Q518.8438,889.7637 517.6406,889.1387 Q516.6563,888.6387 515.9688,887.5762 Q515.2813,886.498 515.2813,885.2168 L515.2813,884.0605 Q515.2813,882.7324 515.8906,881.5918 Q516.5156,880.4355 517.6094,879.8262 Q518.7031,879.2012 519.9375,879.2012 Q520.6719,879.2012 521.3125,879.373 Q521.9688,879.5293 522.5156,879.8887 Z " fill="#000000"/><text fill="#000000" font-family="sans-serif" font-size="14" lengthAdjust="spacing" textLength="33" x="540.25" y="889.8105">Entry</text><line style="stroke:#181818;stroke-width:0.5;" x1="135.5" x2="945.5" y1="900.0137" y2="900.0137"/><text fill="#000000" font-family="sans-serif" font-size="14" lengthAdjust="spacing" textLength="81" x="140.5" y="919.1211">-String name</text><text fill="#000000" font-family="sans-serif" font-size="14" lengthAdjust="spacing" textLength="115" x="140.5" y="937.7422">-String description</text><text fill="#000000" font-family="sans-serif" font-size="14" lengthAdjust="spacing" textLength="144" x="140.5" y="956.3633">-String urgencyDegree</text><text fill="#000000" font-family="sans-serif" font-size="14" lengthAdjust="spacing" textLength="76" x="140.5" y="974.9844">-int duration</text><text fill="#000000" font-family="sans-serif" font-size="14" lengthAdjust="spacing" textLength="166" x="140.5" y="993.6055">-GreenSpace greenSpace</text><text fill="#000000" font-family="sans-serif" font-size="14" lengthAdjust="spacing" textLength="84" x="140.5" y="1012.2266">-String status</text><text fill="#000000" font-family="sans-serif" font-size="14" lengthAdjust="spacing" textLength="135" x="140.5" y="1030.8477">-LocalDate entryDate</text><text fill="#000000" font-family="sans-serif" font-size="14" lengthAdjust="spacing" textLength="53" x="140.5" y="1049.4688">-int hour</text><text fill="#000000" font-family="sans-serif" font-size="14" lengthAdjust="spacing" textLength="76" x="140.5" y="1068.0898">-Team team</text><text fill="#000000" font-family="sans-serif" font-size="14" lengthAdjust="spacing" textLength="137" x="140.5" y="1086.7109">-LocalTime startTime;</text><text fill="#000000" font-family="sans-serif" font-size="14" lengthAdjust="spacing" textLength="133" x="140.5" y="1105.332">-LocalTime endTime;</text><line style="stroke:#181818;stroke-width:0.5;" x1="135.5" x2="945.5" y1="1112.8457" y2="1112.8457"/><text fill="#000000" font-family="sans-serif" font-size="14" lengthAdjust="spacing" textLength="800" x="140.5" y="1131.9531">+Entry(String name, String description, String urgencyDegree, int duration, GreenSpace greenSpace, LocalDate date, int hour)</text></g><!--class Employee--><g id="elem_Employee"><rect codeLine="63" fill="#F1F1F1" height="48" id="Employee" rx="2.5" ry="2.5" style="stroke:#181818;stroke-width:0.5;" width="94" x="981.5" y="979.5137"/><ellipse cx="996.5" cy="995.5137" fill="#C2C2C2" rx="11" ry="11" style="stroke:#181818;stroke-width:1.0;"/><path d="M999.2656,991.3887 Q999.4219,991.1699 999.6094,991.0605 Q999.7969,990.9512 1000.0156,990.9512 Q1000.3906,990.9512 1000.625,991.2168 Q1000.8594,991.4668 1000.8594,992.0762 L1000.8594,993.5293 Q1000.8594,994.1387 1000.625,994.4043 Q1000.3906,994.6699 1000.0156,994.6699 Q999.6719,994.6699 999.4688,994.4668 Q999.2656,994.2793 999.1563,993.7637 Q999.1094,993.4043 998.9219,993.2168 Q998.5938,992.8418 997.9844,992.623 Q997.375,992.4043 996.75,992.4043 Q995.9844,992.4043 995.3438,992.7324 Q994.7188,993.0605 994.2188,993.8105 Q993.7344,994.5605 993.7344,995.5918 L993.7344,996.6855 Q993.7344,997.9199 994.625,998.748 Q995.5156,999.5605 997.1094,999.5605 Q998.0469,999.5605 998.7031,999.3105 Q999.0938,999.1543 999.5156,998.7168 Q999.7813,998.4512 999.9219,998.373 Q1000.0781,998.2949 1000.2813,998.2949 Q1000.6094,998.2949 1000.8594,998.5605 Q1001.125,998.8105 1001.125,999.1543 Q1001.125,999.498 1000.7813,999.9043 Q1000.2813,1000.4824 999.4844,1000.8105 Q998.4063,1001.2637 997.1094,1001.2637 Q995.5938,1001.2637 994.3906,1000.6387 Q993.4063,1000.1387 992.7188,999.0762 Q992.0313,997.998 992.0313,996.7168 L992.0313,995.5605 Q992.0313,994.2324 992.6406,993.0918 Q993.2656,991.9355 994.3594,991.3262 Q995.4531,990.7012 996.6875,990.7012 Q997.4219,990.7012 998.0625,990.873 Q998.7188,991.0293 999.2656,991.3887 Z " fill="#000000"/><text fill="#000000" font-family="sans-serif" font-size="14" lengthAdjust="spacing" textLength="62" x="1010.5" y="1001.3105">Employee</text><line style="stroke:#181818;stroke-width:0.5;" x1="982.5" x2="1074.5" y1="1011.5137" y2="1011.5137"/><line style="stroke:#181818;stroke-width:0.5;" x1="982.5" x2="1074.5" y1="1019.5137" y2="1019.5137"/></g><!--class Repositorie--><g id="elem_Repositorie"><rect codeLine="45" fill="#F1F1F1" height="122.4844" id="Repositorie" rx="2.5" ry="2.5" style="stroke:#181818;stroke-width:0.5;" width="296" x="315.5" y="496.0137"/><ellipse cx="423.25" cy="512.0137" fill="#C2C2C2" rx="11" ry="11" style="stroke:#181818;stroke-width:1.0;"/><path d="M426.0156,507.8887 Q426.1719,507.6699 426.3594,507.5605 Q426.5469,507.4512 426.7656,507.4512 Q427.1406,507.4512 427.375,507.7168 Q427.6094,507.9668 427.6094,508.5762 L427.6094,510.0293 Q427.6094,510.6387 427.375,510.9043 Q427.1406,511.1699 426.7656,511.1699 Q426.4219,511.1699 426.2188,510.9668 Q426.0156,510.7793 425.9063,510.2637 Q425.8594,509.9043 425.6719,509.7168 Q425.3438,509.3418 424.7344,509.123 Q424.125,508.9043 423.5,508.9043 Q422.7344,508.9043 422.0938,509.2324 Q421.4688,509.5605 420.9688,510.3105 Q420.4844,511.0605 420.4844,512.0918 L420.4844,513.1855 Q420.4844,514.4199 421.375,515.248 Q422.2656,516.0605 423.8594,516.0605 Q424.7969,516.0605 425.4531,515.8105 Q425.8438,515.6543 426.2656,515.2168 Q426.5313,514.9512 426.6719,514.873 Q426.8281,514.7949 427.0313,514.7949 Q427.3594,514.7949 427.6094,515.0605 Q427.875,515.3105 427.875,515.6543 Q427.875,515.998 427.5313,516.4043 Q427.0313,516.9824 426.2344,517.3105 Q425.1563,517.7637 423.8594,517.7637 Q422.3438,517.7637 421.1406,517.1387 Q420.1563,516.6387 419.4688,515.5762 Q418.7813,514.498 418.7813,513.2168 L418.7813,512.0605 Q418.7813,510.7324 419.3906,509.5918 Q420.0156,508.4355 421.1094,507.8262 Q422.2031,507.2012 423.4375,507.2012 Q424.1719,507.2012 424.8125,507.373 Q425.4688,507.5293 426.0156,507.8887 Z " fill="#000000"/><text fill="#000000" font-family="sans-serif" font-size="14" lengthAdjust="spacing" textLength="72" x="443.75" y="517.8105">Repositorie</text><line style="stroke:#181818;stroke-width:0.5;" x1="316.5" x2="610.5" y1="528.0137" y2="528.0137"/><line style="stroke:#181818;stroke-width:0.5;" x1="316.5" x2="610.5" y1="536.0137" y2="536.0137"/><text fill="#000000" font-family="sans-serif" font-size="14" lengthAdjust="spacing" textLength="94" x="321.5" y="555.1211">-Repositories()</text><text fill="#000000" font-family="sans-serif" font-size="14" lengthAdjust="spacing" textLength="182" x="321.5" y="573.7422">+getInstance() : Repositories</text><text fill="#000000" font-family="sans-serif" font-size="14" lengthAdjust="spacing" textLength="258" x="321.5" y="592.3633">+getTeamRepository() : TeamRepository</text><text fill="#000000" font-family="sans-serif" font-size="14" lengthAdjust="spacing" textLength="284" x="321.5" y="610.9844">+getAgendaRepository() : AgendaRepository</text></g><!--class TeamRepository--><g id="elem_TeamRepository"><rect codeLine="53" fill="#F1F1F1" height="66.6211" id="TeamRepository" rx="2.5" ry="2.5" style="stroke:#181818;stroke-width:0.5;" width="194" x="433.5" y="706.0137"/><ellipse cx="474.6" cy="722.0137" fill="#C2C2C2" rx="11" ry="11" style="stroke:#181818;stroke-width:1.0;"/><path d="M477.3656,717.8887 Q477.5219,717.6699 477.7094,717.5605 Q477.8969,717.4512 478.1156,717.4512 Q478.4906,717.4512 478.725,717.7168 Q478.9594,717.9668 478.9594,718.5762 L478.9594,720.0293 Q478.9594,720.6387 478.725,720.9043 Q478.4906,721.1699 478.1156,721.1699 Q477.7719,721.1699 477.5688,720.9668 Q477.3656,720.7793 477.2563,720.2637 Q477.2094,719.9043 477.0219,719.7168 Q476.6938,719.3418 476.0844,719.123 Q475.475,718.9043 474.85,718.9043 Q474.0844,718.9043 473.4438,719.2324 Q472.8188,719.5605 472.3188,720.3105 Q471.8344,721.0605 471.8344,722.0918 L471.8344,723.1855 Q471.8344,724.4199 472.725,725.248 Q473.6156,726.0605 475.2094,726.0605 Q476.1469,726.0605 476.8031,725.8105 Q477.1938,725.6543 477.6156,725.2168 Q477.8813,724.9512 478.0219,724.873 Q478.1781,724.7949 478.3813,724.7949 Q478.7094,724.7949 478.9594,725.0605 Q479.225,725.3105 479.225,725.6543 Q479.225,725.998 478.8813,726.4043 Q478.3813,726.9824 477.5844,727.3105 Q476.5063,727.7637 475.2094,727.7637 Q473.6938,727.7637 472.4906,727.1387 Q471.5063,726.6387 470.8188,725.5762 Q470.1313,724.498 470.1313,723.2168 L470.1313,722.0605 Q470.1313,720.7324 470.7406,719.5918 Q471.3656,718.4355 472.4594,717.8262 Q473.5531,717.2012 474.7875,717.2012 Q475.5219,717.2012 476.1625,717.373 Q476.8188,717.5293 477.3656,717.8887 Z " fill="#000000"/><text fill="#000000" font-family="sans-serif" font-size="14" lengthAdjust="spacing" textLength="104" x="494.4" y="727.8105">TeamRepository</text><line style="stroke:#181818;stroke-width:0.5;" x1="434.5" x2="626.5" y1="738.0137" y2="738.0137"/><line style="stroke:#181818;stroke-width:0.5;" x1="434.5" x2="626.5" y1="746.0137" y2="746.0137"/><text fill="#000000" font-family="sans-serif" font-size="14" lengthAdjust="spacing" textLength="182" x="439.5" y="765.1211">+getAllTeams() : List&lt;Team&gt;</text></g><!--class AuthenticationRepository--><g id="elem_AuthenticationRepository"><rect codeLine="58" fill="#F1F1F1" height="66.6211" id="AuthenticationRepository" rx="2.5" ry="2.5" style="stroke:#181818;stroke-width:0.5;" width="195" x="663" y="706.0137"/><ellipse cx="680.25" cy="722.0137" fill="#C2C2C2" rx="11" ry="11" style="stroke:#181818;stroke-width:1.0;"/><path d="M683.0156,717.8887 Q683.1719,717.6699 683.3594,717.5605 Q683.5469,717.4512 683.7656,717.4512 Q684.1406,717.4512 684.375,717.7168 Q684.6094,717.9668 684.6094,718.5762 L684.6094,720.0293 Q684.6094,720.6387 684.375,720.9043 Q684.1406,721.1699 683.7656,721.1699 Q683.4219,721.1699 683.2188,720.9668 Q683.0156,720.7793 682.9063,720.2637 Q682.8594,719.9043 682.6719,719.7168 Q682.3438,719.3418 681.7344,719.123 Q681.125,718.9043 680.5,718.9043 Q679.7344,718.9043 679.0938,719.2324 Q678.4688,719.5605 677.9688,720.3105 Q677.4844,721.0605 677.4844,722.0918 L677.4844,723.1855 Q677.4844,724.4199 678.375,725.248 Q679.2656,726.0605 680.8594,726.0605 Q681.7969,726.0605 682.4531,725.8105 Q682.8438,725.6543 683.2656,725.2168 Q683.5313,724.9512 683.6719,724.873 Q683.8281,724.7949 684.0313,724.7949 Q684.3594,724.7949 684.6094,725.0605 Q684.875,725.3105 684.875,725.6543 Q684.875,725.998 684.5313,726.4043 Q684.0313,726.9824 683.2344,727.3105 Q682.1563,727.7637 680.8594,727.7637 Q679.3438,727.7637 678.1406,727.1387 Q677.1563,726.6387 676.4688,725.5762 Q675.7813,724.498 675.7813,723.2168 L675.7813,722.0605 Q675.7813,720.7324 676.3906,719.5918 Q677.0156,718.4355 678.1094,717.8262 Q679.2031,717.2012 680.4375,717.2012 Q681.1719,717.2012 681.8125,717.373 Q682.4688,717.5293 683.0156,717.8887 Z " fill="#000000"/><text fill="#000000" font-family="sans-serif" font-size="14" lengthAdjust="spacing" textLength="158" x="694.75" y="727.8105">AuthenticationRepository</text><line style="stroke:#181818;stroke-width:0.5;" x1="664" x2="857" y1="738.0137" y2="738.0137"/><line style="stroke:#181818;stroke-width:0.5;" x1="664" x2="857" y1="746.0137" y2="746.0137"/><text fill="#000000" font-family="sans-serif" font-size="14" lengthAdjust="spacing" textLength="183" x="669" y="765.1211">+getEmployeeFromSession()</text></g><!--class AgendaRepository--><g id="elem_AgendaRepository"><rect codeLine="67" fill="#F1F1F1" height="85.2422" id="AgendaRepository" rx="2.5" ry="2.5" style="stroke:#181818;stroke-width:0.5;" width="258" x="140.5" y="697.0137"/><ellipse cx="206.75" cy="713.0137" fill="#C2C2C2" rx="11" ry="11" style="stroke:#181818;stroke-width:1.0;"/><path d="M209.5156,708.8887 Q209.6719,708.6699 209.8594,708.5605 Q210.0469,708.4512 210.2656,708.4512 Q210.6406,708.4512 210.875,708.7168 Q211.1094,708.9668 211.1094,709.5762 L211.1094,711.0293 Q211.1094,711.6387 210.875,711.9043 Q210.6406,712.1699 210.2656,712.1699 Q209.9219,712.1699 209.7188,711.9668 Q209.5156,711.7793 209.4063,711.2637 Q209.3594,710.9043 209.1719,710.7168 Q208.8438,710.3418 208.2344,710.123 Q207.625,709.9043 207,709.9043 Q206.2344,709.9043 205.5938,710.2324 Q204.9688,710.5605 204.4688,711.3105 Q203.9844,712.0605 203.9844,713.0918 L203.9844,714.1855 Q203.9844,715.4199 204.875,716.248 Q205.7656,717.0605 207.3594,717.0605 Q208.2969,717.0605 208.9531,716.8105 Q209.3438,716.6543 209.7656,716.2168 Q210.0313,715.9512 210.1719,715.873 Q210.3281,715.7949 210.5313,715.7949 Q210.8594,715.7949 211.1094,716.0605 Q211.375,716.3105 211.375,716.6543 Q211.375,716.998 211.0313,717.4043 Q210.5313,717.9824 209.7344,718.3105 Q208.6563,718.7637 207.3594,718.7637 Q205.8438,718.7637 204.6406,718.1387 Q203.6563,717.6387 202.9688,716.5762 Q202.2813,715.498 202.2813,714.2168 L202.2813,713.0605 Q202.2813,711.7324 202.8906,710.5918 Q203.5156,709.4355 204.6094,708.8262 Q205.7031,708.2012 206.9375,708.2012 Q207.6719,708.2012 208.3125,708.373 Q208.9688,708.5293 209.5156,708.8887 Z " fill="#000000"/><text fill="#000000" font-family="sans-serif" font-size="14" lengthAdjust="spacing" textLength="117" x="227.25" y="718.8105">AgendaRepository</text><line style="stroke:#181818;stroke-width:0.5;" x1="141.5" x2="397.5" y1="729.0137" y2="729.0137"/><line style="stroke:#181818;stroke-width:0.5;" x1="141.5" x2="397.5" y1="737.0137" y2="737.0137"/><text fill="#000000" font-family="sans-serif" font-size="14" lengthAdjust="spacing" textLength="246" x="146.5" y="756.1211">+getAllEntriesToAgenda() : List&lt;Entry&gt;</text><text fill="#000000" font-family="sans-serif" font-size="14" lengthAdjust="spacing" textLength="101" x="146.5" y="774.7422">+addNewEntry()</text></g><!--class SendEmail--><g id="elem_SendEmail"><rect codeLine="24" fill="#F1F1F1" height="48" id="SendEmail" rx="2.5" ry="2.5" style="stroke:#181818;stroke-width:0.5;" width="99" x="7" y="1202.0137"/><ellipse cx="22" cy="1218.0137" fill="#B1B1B1" rx="11" ry="11" style="stroke:#181818;stroke-width:1.0;"/><path d="M22.9531,1214.6543 L22.9531,1221.3105 L24.6719,1221.3105 Q25.2813,1221.3105 25.5469,1221.5449 Q25.8125,1221.7793 25.8125,1222.1699 Q25.8125,1222.5449 25.5469,1222.7793 Q25.2813,1223.0137 24.6719,1223.0137 L19.5313,1223.0137 Q18.9219,1223.0137 18.6563,1222.7793 Q18.3906,1222.5449 18.3906,1222.1543 Q18.3906,1221.7793 18.6563,1221.5449 Q18.9219,1221.3105 19.5313,1221.3105 L21.25,1221.3105 L21.25,1214.6543 L19.5313,1214.6543 Q18.9219,1214.6543 18.6563,1214.4199 Q18.3906,1214.1855 18.3906,1213.7949 Q18.3906,1213.4199 18.6563,1213.1855 Q18.9219,1212.9512 19.5313,1212.9512 L24.6719,1212.9512 Q25.2813,1212.9512 25.5469,1213.1855 Q25.8125,1213.4199 25.8125,1213.7949 Q25.8125,1214.1855 25.5469,1214.4199 Q25.2813,1214.6543 24.6719,1214.6543 L22.9531,1214.6543 Z " fill="#000000"/><text fill="#000000" font-family="sans-serif" font-size="14" font-style="italic" lengthAdjust="spacing" textLength="67" x="36" y="1223.8105">SendEmail</text><line style="stroke:#181818;stroke-width:0.5;" x1="8" x2="105" y1="1234.0137" y2="1234.0137"/><line style="stroke:#181818;stroke-width:0.5;" x1="8" x2="105" y1="1242.0137" y2="1242.0137"/></g><!--link CreateTeamToEntryController to AuthenticationRepository--><g id="link_CreateTeamToEntryController_AuthenticationRepository"><path codeLine="73" d="M760.5,392.1637 C760.5,475.0937 760.5,630.5737 760.5,699.7637 " fill="none" id="CreateTeamToEntryController-to-AuthenticationRepository" style="stroke:#181818;stroke-width:1.0;"/><polygon fill="#181818" points="760.5,705.7637,764.5,696.7637,760.5,700.7637,756.5,696.7637,760.5,705.7637" style="stroke:#181818;stroke-width:1.0;"/><text fill="#000000" font-family="sans-serif" font-size="13" lengthAdjust="spacing" textLength="134" x="761.5" y="562.542">getCurrentUserSession</text><text fill="#000000" font-family="sans-serif" font-size="13" lengthAdjust="spacing" textLength="7" x="753.0516" y="413.9902">1</text><text fill="#000000" font-family="sans-serif" font-size="13" lengthAdjust="spacing" textLength="7" x="752.8328" y="694.8019">1</text></g><!--link CreateTeamToEntryController to Employee--><g id="link_CreateTeamToEntryController_Employee"><path codeLine="74" d="M835.68,392.1637 C860.79,409.2437 882.5,424.0137 882.5,424.0137 C882.5,424.0137 900.5,451.0137 900.5,451.0137 C900.5,451.0137 997.3635,868.359 1021.7235,973.319 " fill="none" id="CreateTeamToEntryController-to-Employee" style="stroke:#181818;stroke-width:1.0;stroke-dasharray:7.0,7.0;"/><polygon fill="#181818" points="1023.08,979.1637,1024.9417,969.4924,1021.9496,974.2931,1017.1489,971.301,1023.08,979.1637" style="stroke:#181818;stroke-width:1.0;"/></g><!--link AgendaRepository to Entry--><g id="link_AgendaRepository_Entry"><path codeLine="75" d="M312.44,782.0237 C336.84,805.6237 364.6073,832.4523 396.9573,863.7423 " fill="none" id="AgendaRepository-to-Entry" style="stroke:#181818;stroke-width:1.0;"/><polygon fill="#181818" points="401.27,867.9137,397.5819,858.7814,397.6761,864.4375,392.02,864.5317,401.27,867.9137" style="stroke:#181818;stroke-width:1.0;"/></g><!--link AuthenticationRepository to Employee--><g id="link_AuthenticationRepository_Employee"><path codeLine="76" d="M841.13,773.1237 C898.15,796.1837 964.5,823.0137 964.5,823.0137 C964.5,823.0137 1000.9655,925.282 1018.2455,973.762 " fill="none" id="AuthenticationRepository-to-Employee" style="stroke:#181818;stroke-width:1.0;"/><polygon fill="#181818" points="1020.26,979.4137,1021.0061,969.5931,1018.5813,974.7039,1013.4705,972.2791,1020.26,979.4137" style="stroke:#181818;stroke-width:1.0;"/></g><!--link Employee to Entry--><g id="link_Employee_Entry"><path codeLine="78" d="M981.14,1003.5137 C970.31,1003.5137 964.49,1003.5137 952.69,1003.5137 " fill="none" id="Employee-to-Entry" style="stroke:#181818;stroke-width:1.0;"/><polygon fill="#181818" points="946.69,1003.5137,955.69,1007.5137,951.69,1003.5137,955.69,999.5137,946.69,1003.5137" style="stroke:#181818;stroke-width:1.0;"/></g><!--link CreateTeamToEntryUI to CreateTeamToEntryController--><g id="link_CreateTeamToEntryUI_CreateTeamToEntryController"><path codeLine="79" d="M760.5,184.3137 C760.5,217.7837 760.5,251.1537 760.5,281.8037 " fill="none" id="CreateTeamToEntryUI-to-CreateTeamToEntryController" style="stroke:#181818;stroke-width:1.0;"/><polygon fill="#181818" points="760.5,287.8037,764.5,278.8037,760.5,282.8037,756.5,278.8037,760.5,287.8037" style="stroke:#181818;stroke-width:1.0;"/><text fill="#000000" font-family="sans-serif" font-size="13" lengthAdjust="spacing" textLength="28" x="761.5" y="231.042">uses</text><text fill="#000000" font-family="sans-serif" font-size="13" lengthAdjust="spacing" textLength="7" x="753.1555" y="206.1572">1</text><text fill="#000000" font-family="sans-serif" font-size="13" lengthAdjust="spacing" textLength="7" x="753.0297" y="276.7028">1</text></g><!--link CreateTeamToEntryController to Repositorie--><g id="link_CreateTeamToEntryController_Repositorie"><path codeLine="80" d="M684.09,392.1637 C658.57,409.2437 636.5,424.0137 636.5,424.0137 C636.5,424.0137 592.62,457.494 546.92,492.364 " fill="none" id="CreateTeamToEntryController-to-Repositorie" style="stroke:#181818;stroke-width:1.0;stroke-dasharray:7.0,7.0;"/><polygon fill="#181818" points="542.15,496.0037,551.7315,493.7243,546.125,492.9707,546.8786,487.3642,542.15,496.0037" style="stroke:#181818;stroke-width:1.0;"/><text fill="#000000" font-family="sans-serif" font-size="13" lengthAdjust="spacing" textLength="96" x="637.5" y="439.042">gets repositories</text></g><!--link Repositorie to Repositorie--><g id="link_Repositorie_Repositorie"><path codeLine="81" d="M611.77,540.2337 C632.57,542.9737 646.5,548.5637 646.5,557.0137 C646.5,565.4637 638.5186,570.2701 617.7186,573.0101 " fill="none" id="Repositorie-to-Repositorie" style="stroke:#181818;stroke-width:1.0;"/><polygon fill="#181818" points="611.77,573.7937,621.2153,576.584,616.7272,573.1407,620.1705,568.6525,611.77,573.7937" style="stroke:#181818;stroke-width:1.0;"/><text fill="#000000" font-family="sans-serif" font-size="13" lengthAdjust="spacing" textLength="49" x="652.5" y="562.542">instance</text></g><!--link Repositorie to TeamRepository--><g id="link_Repositorie_TeamRepository"><path codeLine="82" d="M475.11,618.2537 C479.96,643.4637 484.5,667.0137 484.5,667.0137 C484.5,667.0137 494.0446,681.8471 506.1346,700.6471 " fill="none" id="Repositorie-to-TeamRepository" style="stroke:#181818;stroke-width:1.0;"/><polygon fill="#181818" points="509.38,705.6937,507.8763,695.9603,506.6755,701.4882,501.1476,700.2874,509.38,705.6937" style="stroke:#181818;stroke-width:1.0;"/><text fill="#000000" font-family="sans-serif" font-size="13" lengthAdjust="spacing" textLength="91" x="485.5" y="663.042">teamRepository</text><text fill="#000000" font-family="sans-serif" font-size="13" lengthAdjust="spacing" textLength="7" x="469.0477" y="640.3345">1</text><text fill="#000000" font-family="sans-serif" font-size="13" lengthAdjust="spacing" textLength="7" x="497.6868" y="694.7186">1</text></g><!--link Repositorie to AgendaRepository--><g id="link_Repositorie_AgendaRepository"><path codeLine="83" d="M398.9,618.1137 C371.12,643.9637 343.733,669.4469 318.623,692.8069 " fill="none" id="Repositorie-to-AgendaRepository" style="stroke:#181818;stroke-width:1.0;"/><polygon fill="#181818" points="314.23,696.8937,323.544,693.6921,317.8908,693.488,318.0949,687.8348,314.23,696.8937" style="stroke:#181818;stroke-width:1.0;"/><text fill="#000000" font-family="sans-serif" font-size="13" lengthAdjust="spacing" textLength="104" x="367.5" y="663.042">agendaRepository</text><text fill="#000000" font-family="sans-serif" font-size="13" lengthAdjust="spacing" textLength="7" x="383.6003" y="640.6127">1</text><text fill="#000000" font-family="sans-serif" font-size="13" lengthAdjust="spacing" textLength="7" x="313.801" y="685.7786">1</text></g><!--link Repositorie to AuthenticationRepository--><g id="link_Repositorie_AuthenticationRepository"><path codeLine="84" d="M561.61,618.0937 C602.88,643.3637 641.5,667.0137 641.5,667.0137 C641.5,667.0137 669.6974,683.9528 701.0774,702.8128 " fill="none" id="Repositorie-to-AuthenticationRepository" style="stroke:#181818;stroke-width:1.0;"/><polygon fill="#181818" points="706.22,705.9037,700.5666,697.839,701.9345,703.328,696.4455,704.6959,706.22,705.9037" style="stroke:#181818;stroke-width:1.0;"/><text fill="#000000" font-family="sans-serif" font-size="13" lengthAdjust="spacing" textLength="91" x="642.5" y="663.042">teamRepository</text><text fill="#000000" font-family="sans-serif" font-size="13" lengthAdjust="spacing" textLength="7" x="566.1406" y="640.5903">1</text><text fill="#000000" font-family="sans-serif" font-size="13" lengthAdjust="spacing" textLength="7" x="687.8446" y="694.7075">1</text></g><!--link TeamRepository to Entry--><g id="link_TeamRepository_Entry"><path codeLine="85" d="M531.75,773.1637 C532.68,797.5137 533.7812,826.548 535.1312,861.928 " fill="none" id="TeamRepository-to-Entry" style="stroke:#181818;stroke-width:1.0;"/><polygon fill="#181818" points="535.36,867.9237,539.0139,858.7777,535.1694,862.9273,531.0197,859.0827,535.36,867.9237" style="stroke:#181818;stroke-width:1.0;"/><text fill="#000000" font-family="sans-serif" font-size="13" lengthAdjust="spacing" textLength="7" x="524.3492" y="794.7596">1</text></g><!--link Employee to SendEmail--><g id="link_Employee_SendEmail"><path codeLine="86" d="M1019.19,1027.5637 C1001.44,1071.5237 964.5,1163.0137 964.5,1163.0137 C964.5,1163.0137 302.1861,1208.2349 112.2761,1221.2049 " fill="none" id="Employee-to-SendEmail" style="stroke:#181818;stroke-width:1.0;"/><polygon fill="#181818" points="106.29,1221.6137,115.5416,1224.9911,111.2784,1221.273,114.9965,1217.0097,106.29,1221.6137" style="stroke:#181818;stroke-width:1.0;"/></g><!--link AgendaRepository to SendEmail--><g id="link_AgendaRepository_SendEmail"><path codeLine="87" d="M161.56,782.1237 C108.37,802.6337 55.5,823.0137 55.5,823.0137 C55.5,823.0137 55.5,1163.0137 55.5,1163.0137 C55.5,1163.0137 55.7413,1178.3045 56.0313,1195.9245 " fill="none" id="AgendaRepository-to-SendEmail" style="stroke:#181818;stroke-width:1.0;"/><polygon fill="#181818" points="56.13,1201.9237,59.9814,1192.8591,56.0477,1196.9243,51.9824,1192.9907,56.13,1201.9237" style="stroke:#181818;stroke-width:1.0;"/><text fill="#000000" font-family="sans-serif" font-size="13" lengthAdjust="spacing" textLength="61" x="56.5" y="1009.042">sendEmail</text></g><!--link CreateTeamToEntryController to Entry--><g id="link_CreateTeamToEntryController_Entry"><path codeLine="90" d="M813.5,392.1537 C843.27,420.8737 874.5,451.0137 874.5,451.0137 C874.5,451.0137 874.5,806.0137 874.5,806.0137 C874.5,806.0137 832.9517,830.4617 774.4517,864.8717 " fill="none" id="CreateTeamToEntryController-to-Entry" style="stroke:#181818;stroke-width:1.0;stroke-dasharray:7.0,7.0;"/><polygon fill="#181818" points="769.28,867.9137,779.0655,866.7984,773.5897,865.3787,775.0095,859.9029,769.28,867.9137" style="stroke:#181818;stroke-width:1.0;"/></g><!--link CreateTeamToEntryController to AgendaRepository--><g id="link_CreateTeamToEntryController_AgendaRepository"><path codeLine="92" d="M510.33,392.0737 C369.45,420.8237 221.5,451.0137 221.5,451.0137 C221.5,451.0137 221.5,618.0137 221.5,618.0137 C221.5,618.0137 236.7586,656.3301 250.6286,691.1301 " fill="none" id="CreateTeamToEntryController-to-AgendaRepository" style="stroke:#181818;stroke-width:1.0;stroke-dasharray:7.0,7.0;"/><polygon fill="#181818" points="252.85,696.7037,253.2336,686.8623,250.9988,692.059,245.8021,689.8242,252.85,696.7037" style="stroke:#181818;stroke-width:1.0;"/><text fill="#000000" font-family="sans-serif" font-size="13" lengthAdjust="spacing" textLength="74" x="222.5" y="562.542">add neWntry</text></g><!--SRC=[nLLBRniX4BxpAr1EjX97xJMDB5bvL96YggeTzKns9pOA2rjW5MsZ_FSEB6PXlUiafzgI3JFVp3SF1impbpNJhAALaghOQLK1jRe1OgAcPiKpsyBQjWAeXi8okHKfmEnOgLwutD8d9aog4Lo2RMkWjHAjsoIwGZ1ZLjPg_jXOk2kKNFE_GByGyhCZf5TAMgs404qlBs-LA44lbw_46z8h3Sp21bYrKJU8QnFqAw7uML2BsbzGAyEjqYsze9jC45189KkMuLO3aKUUqi9pUhRP6WF7Z2Mhu8o6JGccqBosNCaeQpJwAjfhs6f099UMberc7UOxokGQ2mnq6vTdz5uLJ5mZ5ItnfpFQgKQV-GHyMdFoXjzzfHxkFb8XHBs6J7GZP_Fz6luqO2poiIWppMF5Sr60EKySp53iQ8BC1KOmPD1FBh4rblAcObmW-LlVt6k5CZaIjWyrjZ0fSov9Qfqhie87LLhr81ejVUx9M6OR4sHzJy05w5Q9SzUTi8qjIWqt7ESA_MdhLjyEL5YZNd5A_zyHcvFiOCKHm9QFz2fHnuwb9l6KRC7UISnV5Z2Ruu2be1wIZwS7ZaoiXmudr8CFnlOJgUH4SL0SbH1EQJp5FJVsqcsNdt6-QkmEZmqlV5DwceJbfgg5QW5kyGfUWp68c-L3FZqnmTGFsCTZ6bvxUSfXpZUgm_N9-xEv35XMbZ_WfJkkNRJasCLyylLaiLYwlycI80q6SDLeZTe70peKuwZVy_Dbh08vICnHUWioIUeXUmSa5ZGQZjsbBejzDiU2kw2DmLF-NlpfBFaQ6BnRaob9zOusn_CmNHaiZN0pV0lpnt7IRdNuEWuVp6dRwHuFs0VHxPrqnU_RWQBud8ptkNzjBgY9KFB-wV5CxyB6gb6MLC9lR_yF]--></g></svg>