<?xml version="1.0" encoding="us-ascii" standalone="no"?><svg xmlns="http://www.w3.org/2000/svg" xmlns:xlink="http://www.w3.org/1999/xlink" contentStyleType="text/css" height="621px" preserveAspectRatio="none" style="width:613px;height:621px;background:#FFFFFF;" version="1.1" viewBox="0 0 613 621" width="613.5px" zoomAndPan="magnify"><defs/><g><!--cluster Controller--><g id="cluster_Controller"><path d="M4.25,125.5068 L40.25,125.5068 A1.875,1.875 0 0 1 41.5,126.7568 L45,137.8174 L483.75,137.8174 A1.25,1.25 0 0 1 485,139.0674 L485,202.7568 A1.25,1.25 0 0 1 483.75,204.0068 L4.25,204.0068 A1.25,1.25 0 0 1 3,202.7568 L3,126.7568 A1.25,1.25 0 0 1 4.25,125.5068 " fill="none" style="stroke:#000000;stroke-width:0.75;"/><line style="stroke:#000000;stroke-width:0.75;" x1="3" x2="45" y1="137.8174" y2="137.8174"/><text fill="#000000" font-family="sans-serif" font-size="7" font-weight="bold" lengthAdjust="spacing" textLength="35.5" x="5" y="134.0605">Controller</text></g><!--cluster UI--><g id="cluster_UI"><path d="M193.75,3.0068 L201.25,3.0068 A1.875,1.875 0 0 1 202.5,4.2568 L206,15.3174 L294.25,15.3174 A1.25,1.25 0 0 1 295.5,16.5674 L295.5,98.7568 A1.25,1.25 0 0 1 294.25,100.0068 L193.75,100.0068 A1.25,1.25 0 0 1 192.5,98.7568 L192.5,4.2568 A1.25,1.25 0 0 1 193.75,3.0068 " fill="none" style="stroke:#000000;stroke-width:0.75;"/><line style="stroke:#000000;stroke-width:0.75;" x1="192.5" x2="206" y1="15.3174" y2="15.3174"/><text fill="#000000" font-family="sans-serif" font-size="7" font-weight="bold" lengthAdjust="spacing" textLength="7" x="194.5" y="11.5605">UI</text></g><!--cluster Domain--><g id="cluster_Domain"><path d="M124.75,455.5068 L151.25,455.5068 A1.875,1.875 0 0 1 152.5,456.7568 L156,467.8174 L608.75,467.8174 A1.25,1.25 0 0 1 610,469.0674 L610,616.2568 A1.25,1.25 0 0 1 608.75,617.5068 L124.75,617.5068 A1.25,1.25 0 0 1 123.5,616.2568 L123.5,456.7568 A1.25,1.25 0 0 1 124.75,455.5068 " fill="none" style="stroke:#000000;stroke-width:0.75;"/><line style="stroke:#000000;stroke-width:0.75;" x1="123.5" x2="156" y1="467.8174" y2="467.8174"/><text fill="#000000" font-family="sans-serif" font-size="7" font-weight="bold" lengthAdjust="spacing" textLength="26" x="125.5" y="464.0605">Domain</text></g><!--cluster Repositories--><g id="cluster_Repositories"><path d="M188.25,269.5068 L233.75,269.5068 A1.875,1.875 0 0 1 235,270.7568 L238.5,281.8174 L504.75,281.8174 A1.25,1.25 0 0 1 506,283.0674 L506,437.7568 A1.25,1.25 0 0 1 504.75,439.0068 L188.25,439.0068 A1.25,1.25 0 0 1 187,437.7568 L187,270.7568 A1.25,1.25 0 0 1 188.25,269.5068 " fill="none" style="stroke:#000000;stroke-width:0.75;"/><line style="stroke:#000000;stroke-width:0.75;" x1="187" x2="238.5" y1="281.8174" y2="281.8174"/><text fill="#000000" font-family="sans-serif" font-size="7" font-weight="bold" lengthAdjust="spacing" textLength="45" x="189" y="278.0605">Repositories</text></g><!--class CreateTeamToEntryController--><g id="elem_CreateTeamToEntryController"><rect codeLine="8" fill="#F1F1F1" height="51.9316" id="CreateTeamToEntryController" rx="1.25" ry="1.25" style="stroke:#181818;stroke-width:0.25;" width="465.5" x="11.25" y="144.0068"/><ellipse cx="194.125" cy="152.0068" fill="#C2C2C2" rx="5.5" ry="5.5" style="stroke:#181818;stroke-width:0.5;"/><path d="M195.5078,149.9443 Q195.5859,149.835 195.6797,149.7803 Q195.7734,149.7256 195.8828,149.7256 Q196.0703,149.7256 196.1875,149.8584 Q196.3047,149.9834 196.3047,150.2881 L196.3047,151.0146 Q196.3047,151.3193 196.1875,151.4521 Q196.0703,151.585 195.8828,151.585 Q195.7109,151.585 195.6094,151.4834 Q195.5078,151.3896 195.4531,151.1318 Q195.4297,150.9521 195.3359,150.8584 Q195.1719,150.6709 194.8672,150.5615 Q194.5625,150.4521 194.25,150.4521 Q193.8672,150.4521 193.5469,150.6162 Q193.2344,150.7803 192.9844,151.1553 Q192.7422,151.5303 192.7422,152.0459 L192.7422,152.5928 Q192.7422,153.21 193.1875,153.624 Q193.6328,154.0303 194.4297,154.0303 Q194.8984,154.0303 195.2266,153.9053 Q195.4219,153.8271 195.6328,153.6084 Q195.7656,153.4756 195.8359,153.4365 Q195.9141,153.3975 196.0156,153.3975 Q196.1797,153.3975 196.3047,153.5303 Q196.4375,153.6553 196.4375,153.8271 Q196.4375,153.999 196.2656,154.2021 Q196.0156,154.4912 195.6172,154.6553 Q195.0781,154.8818 194.4297,154.8818 Q193.6719,154.8818 193.0703,154.5693 Q192.5781,154.3193 192.2344,153.7881 Q191.8906,153.249 191.8906,152.6084 L191.8906,152.0303 Q191.8906,151.3662 192.1953,150.7959 Q192.5078,150.2178 193.0547,149.9131 Q193.6016,149.6006 194.2188,149.6006 Q194.5859,149.6006 194.9063,149.6865 Q195.2344,149.7646 195.5078,149.9443 Z " fill="#000000"/><text fill="#000000" font-family="sans-serif" font-size="7" lengthAdjust="spacing" textLength="95.5" x="204.375" y="154.9053">CreateTeamToEntryController</text><line style="stroke:#181818;stroke-width:0.25;" x1="11.75" x2="476.25" y1="160.0068" y2="160.0068"/><text fill="#000000" font-family="sans-serif" font-size="7" lengthAdjust="spacing" textLength="110" x="14.25" y="169.5605">-teamRepository : TeamRepository</text><text fill="#000000" font-family="sans-serif" font-size="7" lengthAdjust="spacing" textLength="125" x="14.25" y="178.8711">-agendaRepository : AgendaRepository</text><line style="stroke:#181818;stroke-width:0.25;" x1="11.75" x2="476.25" y1="182.6279" y2="182.6279"/><text fill="#000000" font-family="sans-serif" font-size="7" lengthAdjust="spacing" textLength="459.5" x="14.25" y="192.1816">+createEntry(String name, String description, String urgencyDegree, int duration, GreenSpace greenSpace, LocalDate date, int hour, Team team)</text></g><!--class CreateTeamToEntryUI--><g id="elem_CreateTeamToEntryUI"><rect codeLine="15" fill="#F1F1F1" height="70.5527" id="CreateTeamToEntryUI" rx="1.25" ry="1.25" style="stroke:#181818;stroke-width:0.25;" width="86.5" x="200.75" y="21.5068"/><ellipse cx="208.25" cy="29.5068" fill="#C2C2C2" rx="5.5" ry="5.5" style="stroke:#181818;stroke-width:0.5;"/><path d="M209.6328,27.4443 Q209.7109,27.335 209.8047,27.2803 Q209.8984,27.2256 210.0078,27.2256 Q210.1953,27.2256 210.3125,27.3584 Q210.4297,27.4834 210.4297,27.7881 L210.4297,28.5146 Q210.4297,28.8193 210.3125,28.9521 Q210.1953,29.085 210.0078,29.085 Q209.8359,29.085 209.7344,28.9834 Q209.6328,28.8896 209.5781,28.6318 Q209.5547,28.4521 209.4609,28.3584 Q209.2969,28.1709 208.9922,28.0615 Q208.6875,27.9521 208.375,27.9521 Q207.9922,27.9521 207.6719,28.1162 Q207.3594,28.2803 207.1094,28.6553 Q206.8672,29.0303 206.8672,29.5459 L206.8672,30.0928 Q206.8672,30.71 207.3125,31.124 Q207.7578,31.5303 208.5547,31.5303 Q209.0234,31.5303 209.3516,31.4053 Q209.5469,31.3271 209.7578,31.1084 Q209.8906,30.9756 209.9609,30.9365 Q210.0391,30.8975 210.1406,30.8975 Q210.3047,30.8975 210.4297,31.0303 Q210.5625,31.1553 210.5625,31.3271 Q210.5625,31.499 210.3906,31.7021 Q210.1406,31.9912 209.7422,32.1553 Q209.2031,32.3818 208.5547,32.3818 Q207.7969,32.3818 207.1953,32.0693 Q206.7031,31.8193 206.3594,31.2881 Q206.0156,30.749 206.0156,30.1084 L206.0156,29.5303 Q206.0156,28.8662 206.3203,28.2959 Q206.6328,27.7178 207.1797,27.4131 Q207.7266,27.1006 208.3438,27.1006 Q208.7109,27.1006 209.0313,27.1865 Q209.3594,27.2646 209.6328,27.4443 Z " fill="#000000"/><text fill="#000000" font-family="sans-serif" font-size="7" lengthAdjust="spacing" textLength="70.5" x="215.25" y="32.4053">CreateTeamToEntryUI</text><line style="stroke:#181818;stroke-width:0.25;" x1="201.25" x2="286.75" y1="37.5068" y2="37.5068"/><line style="stroke:#181818;stroke-width:0.25;" x1="201.25" x2="286.75" y1="41.5068" y2="41.5068"/><text fill="#000000" font-family="sans-serif" font-size="7" lengthAdjust="spacing" textLength="19.5" x="203.75" y="51.0605">+run()</text><text fill="#000000" font-family="sans-serif" font-size="7" lengthAdjust="spacing" textLength="48" x="203.75" y="60.3711">+requestData()</text><text fill="#000000" font-family="sans-serif" font-size="7" lengthAdjust="spacing" textLength="44.5" x="203.75" y="69.6816">+submitData()</text><text fill="#000000" font-family="sans-serif" font-size="7" lengthAdjust="spacing" textLength="55" x="203.75" y="78.9922">+requestEntries()</text><text fill="#000000" font-family="sans-serif" font-size="7" lengthAdjust="spacing" textLength="51" x="203.75" y="88.3027">+requestTeam()</text></g><!--class Entry--><g id="elem_Entry"><rect codeLine="26" fill="#F1F1F1" height="135.7266" id="Entry" rx="1.25" ry="1.25" style="stroke:#181818;stroke-width:0.25;" width="406" x="196" y="474.0068"/><ellipse cx="388.625" cy="482.0068" fill="#C2C2C2" rx="5.5" ry="5.5" style="stroke:#181818;stroke-width:0.5;"/><path d="M390.0078,479.9443 Q390.0859,479.835 390.1797,479.7803 Q390.2734,479.7256 390.3828,479.7256 Q390.5703,479.7256 390.6875,479.8584 Q390.8047,479.9834 390.8047,480.2881 L390.8047,481.0146 Q390.8047,481.3193 390.6875,481.4521 Q390.5703,481.585 390.3828,481.585 Q390.2109,481.585 390.1094,481.4834 Q390.0078,481.3896 389.9531,481.1318 Q389.9297,480.9521 389.8359,480.8584 Q389.6719,480.6709 389.3672,480.5615 Q389.0625,480.4521 388.75,480.4521 Q388.3672,480.4521 388.0469,480.6162 Q387.7344,480.7803 387.4844,481.1553 Q387.2422,481.5303 387.2422,482.0459 L387.2422,482.5928 Q387.2422,483.21 387.6875,483.624 Q388.1328,484.0303 388.9297,484.0303 Q389.3984,484.0303 389.7266,483.9053 Q389.9219,483.8271 390.1328,483.6084 Q390.2656,483.4756 390.3359,483.4365 Q390.4141,483.3975 390.5156,483.3975 Q390.6797,483.3975 390.8047,483.5303 Q390.9375,483.6553 390.9375,483.8271 Q390.9375,483.999 390.7656,484.2021 Q390.5156,484.4912 390.1172,484.6553 Q389.5781,484.8818 388.9297,484.8818 Q388.1719,484.8818 387.5703,484.5693 Q387.0781,484.3193 386.7344,483.7881 Q386.3906,483.249 386.3906,482.6084 L386.3906,482.0303 Q386.3906,481.3662 386.6953,480.7959 Q387.0078,480.2178 387.5547,479.9131 Q388.1016,479.6006 388.7188,479.6006 Q389.0859,479.6006 389.4063,479.6865 Q389.7344,479.7646 390.0078,479.9443 Z " fill="#000000"/><text fill="#000000" font-family="sans-serif" font-size="7" lengthAdjust="spacing" textLength="16.5" x="398.875" y="484.9053">Entry</text><line style="stroke:#181818;stroke-width:0.25;" x1="196.5" x2="601.5" y1="490.0068" y2="490.0068"/><text fill="#000000" font-family="sans-serif" font-size="7" lengthAdjust="spacing" textLength="40.5" x="199" y="499.5605">-String name</text><text fill="#000000" font-family="sans-serif" font-size="7" lengthAdjust="spacing" textLength="57.5" x="199" y="508.8711">-String description</text><text fill="#000000" font-family="sans-serif" font-size="7" lengthAdjust="spacing" textLength="72" x="199" y="518.1816">-String urgencyDegree</text><text fill="#000000" font-family="sans-serif" font-size="7" lengthAdjust="spacing" textLength="38" x="199" y="527.4922">-int duration</text><text fill="#000000" font-family="sans-serif" font-size="7" lengthAdjust="spacing" textLength="83" x="199" y="536.8027">-GreenSpace greenSpace</text><text fill="#000000" font-family="sans-serif" font-size="7" lengthAdjust="spacing" textLength="42" x="199" y="546.1133">-String status</text><text fill="#000000" font-family="sans-serif" font-size="7" lengthAdjust="spacing" textLength="67.5" x="199" y="555.4238">-LocalDate entryDate</text><text fill="#000000" font-family="sans-serif" font-size="7" lengthAdjust="spacing" textLength="26.5" x="199" y="564.7344">-int hour</text><text fill="#000000" font-family="sans-serif" font-size="7" lengthAdjust="spacing" textLength="38" x="199" y="574.0449">-Team team</text><text fill="#000000" font-family="sans-serif" font-size="7" lengthAdjust="spacing" textLength="68.5" x="199" y="583.3555">-LocalTime startTime;</text><text fill="#000000" font-family="sans-serif" font-size="7" lengthAdjust="spacing" textLength="66.5" x="199" y="592.666">-LocalTime endTime;</text><line style="stroke:#181818;stroke-width:0.25;" x1="196.5" x2="601.5" y1="596.4229" y2="596.4229"/><text fill="#000000" font-family="sans-serif" font-size="7" lengthAdjust="spacing" textLength="400" x="199" y="605.9766">+Entry(String name, String description, String urgencyDegree, int duration, GreenSpace greenSpace, LocalDate date, int hour)</text></g><!--class Employee--><g id="elem_Employee"><rect codeLine="61" fill="#F1F1F1" height="24" id="Employee" rx="1.25" ry="1.25" style="stroke:#181818;stroke-width:0.25;" width="47" x="131.5" y="529.7568"/><ellipse cx="139" cy="537.7568" fill="#C2C2C2" rx="5.5" ry="5.5" style="stroke:#181818;stroke-width:0.5;"/><path d="M140.3828,535.6943 Q140.4609,535.585 140.5547,535.5303 Q140.6484,535.4756 140.7578,535.4756 Q140.9453,535.4756 141.0625,535.6084 Q141.1797,535.7334 141.1797,536.0381 L141.1797,536.7646 Q141.1797,537.0693 141.0625,537.2021 Q140.9453,537.335 140.7578,537.335 Q140.5859,537.335 140.4844,537.2334 Q140.3828,537.1396 140.3281,536.8818 Q140.3047,536.7021 140.2109,536.6084 Q140.0469,536.4209 139.7422,536.3115 Q139.4375,536.2021 139.125,536.2021 Q138.7422,536.2021 138.4219,536.3662 Q138.1094,536.5303 137.8594,536.9053 Q137.6172,537.2803 137.6172,537.7959 L137.6172,538.3428 Q137.6172,538.96 138.0625,539.374 Q138.5078,539.7803 139.3047,539.7803 Q139.7734,539.7803 140.1016,539.6553 Q140.2969,539.5771 140.5078,539.3584 Q140.6406,539.2256 140.7109,539.1865 Q140.7891,539.1475 140.8906,539.1475 Q141.0547,539.1475 141.1797,539.2803 Q141.3125,539.4053 141.3125,539.5771 Q141.3125,539.749 141.1406,539.9521 Q140.8906,540.2412 140.4922,540.4053 Q139.9531,540.6318 139.3047,540.6318 Q138.5469,540.6318 137.9453,540.3193 Q137.4531,540.0693 137.1094,539.5381 Q136.7656,538.999 136.7656,538.3584 L136.7656,537.7803 Q136.7656,537.1162 137.0703,536.5459 Q137.3828,535.9678 137.9297,535.6631 Q138.4766,535.3506 139.0938,535.3506 Q139.4609,535.3506 139.7813,535.4365 Q140.1094,535.5146 140.3828,535.6943 Z " fill="#000000"/><text fill="#000000" font-family="sans-serif" font-size="7" lengthAdjust="spacing" textLength="31" x="146" y="540.6553">Employee</text><line style="stroke:#181818;stroke-width:0.25;" x1="132" x2="178" y1="545.7568" y2="545.7568"/><line style="stroke:#181818;stroke-width:0.25;" x1="132" x2="178" y1="549.7568" y2="549.7568"/></g><!--class Repositorie--><g id="elem_Repositorie"><rect codeLine="43" fill="#F1F1F1" height="61.2422" id="Repositorie" rx="1.25" ry="1.25" style="stroke:#181818;stroke-width:0.25;" width="148" x="310.5" y="288.0068"/><ellipse cx="364.375" cy="296.0068" fill="#C2C2C2" rx="5.5" ry="5.5" style="stroke:#181818;stroke-width:0.5;"/><path d="M365.7578,293.9443 Q365.8359,293.835 365.9297,293.7803 Q366.0234,293.7256 366.1328,293.7256 Q366.3203,293.7256 366.4375,293.8584 Q366.5547,293.9834 366.5547,294.2881 L366.5547,295.0146 Q366.5547,295.3193 366.4375,295.4521 Q366.3203,295.585 366.1328,295.585 Q365.9609,295.585 365.8594,295.4834 Q365.7578,295.3896 365.7031,295.1318 Q365.6797,294.9521 365.5859,294.8584 Q365.4219,294.6709 365.1172,294.5615 Q364.8125,294.4521 364.5,294.4521 Q364.1172,294.4521 363.7969,294.6162 Q363.4844,294.7803 363.2344,295.1553 Q362.9922,295.5303 362.9922,296.0459 L362.9922,296.5928 Q362.9922,297.21 363.4375,297.624 Q363.8828,298.0303 364.6797,298.0303 Q365.1484,298.0303 365.4766,297.9053 Q365.6719,297.8271 365.8828,297.6084 Q366.0156,297.4756 366.0859,297.4365 Q366.1641,297.3975 366.2656,297.3975 Q366.4297,297.3975 366.5547,297.5303 Q366.6875,297.6553 366.6875,297.8271 Q366.6875,297.999 366.5156,298.2021 Q366.2656,298.4912 365.8672,298.6553 Q365.3281,298.8818 364.6797,298.8818 Q363.9219,298.8818 363.3203,298.5693 Q362.8281,298.3193 362.4844,297.7881 Q362.1406,297.249 362.1406,296.6084 L362.1406,296.0303 Q362.1406,295.3662 362.4453,294.7959 Q362.7578,294.2178 363.3047,293.9131 Q363.8516,293.6006 364.4688,293.6006 Q364.8359,293.6006 365.1563,293.6865 Q365.4844,293.7646 365.7578,293.9443 Z " fill="#000000"/><text fill="#000000" font-family="sans-serif" font-size="7" lengthAdjust="spacing" textLength="36" x="374.625" y="298.9053">Repositorie</text><line style="stroke:#181818;stroke-width:0.25;" x1="311" x2="458" y1="304.0068" y2="304.0068"/><line style="stroke:#181818;stroke-width:0.25;" x1="311" x2="458" y1="308.0068" y2="308.0068"/><text fill="#000000" font-family="sans-serif" font-size="7" lengthAdjust="spacing" textLength="47" x="313.5" y="317.5605">-Repositories()</text><text fill="#000000" font-family="sans-serif" font-size="7" lengthAdjust="spacing" textLength="91" x="313.5" y="326.8711">+getInstance() : Repositories</text><text fill="#000000" font-family="sans-serif" font-size="7" lengthAdjust="spacing" textLength="129" x="313.5" y="336.1816">+getTeamRepository() : TeamRepository</text><text fill="#000000" font-family="sans-serif" font-size="7" lengthAdjust="spacing" textLength="142" x="313.5" y="345.4922">+getAgendaRepository() : AgendaRepository</text></g><!--class TeamRepository--><g id="elem_TeamRepository"><rect codeLine="51" fill="#F1F1F1" height="33.3105" id="TeamRepository" rx="1.25" ry="1.25" style="stroke:#181818;stroke-width:0.25;" width="97" x="242.5" y="393.0068"/><ellipse cx="263.05" cy="401.0068" fill="#C2C2C2" rx="5.5" ry="5.5" style="stroke:#181818;stroke-width:0.5;"/><path d="M264.4328,398.9443 Q264.5109,398.835 264.6047,398.7803 Q264.6984,398.7256 264.8078,398.7256 Q264.9953,398.7256 265.1125,398.8584 Q265.2297,398.9834 265.2297,399.2881 L265.2297,400.0146 Q265.2297,400.3193 265.1125,400.4521 Q264.9953,400.585 264.8078,400.585 Q264.6359,400.585 264.5344,400.4834 Q264.4328,400.3896 264.3781,400.1318 Q264.3547,399.9521 264.2609,399.8584 Q264.0969,399.6709 263.7922,399.5615 Q263.4875,399.4521 263.175,399.4521 Q262.7922,399.4521 262.4719,399.6162 Q262.1594,399.7803 261.9094,400.1553 Q261.6672,400.5303 261.6672,401.0459 L261.6672,401.5928 Q261.6672,402.21 262.1125,402.624 Q262.5578,403.0303 263.3547,403.0303 Q263.8234,403.0303 264.1516,402.9053 Q264.3469,402.8271 264.5578,402.6084 Q264.6906,402.4756 264.7609,402.4365 Q264.8391,402.3975 264.9406,402.3975 Q265.1047,402.3975 265.2297,402.5303 Q265.3625,402.6553 265.3625,402.8271 Q265.3625,402.999 265.1906,403.2021 Q264.9406,403.4912 264.5422,403.6553 Q264.0031,403.8818 263.3547,403.8818 Q262.5969,403.8818 261.9953,403.5693 Q261.5031,403.3193 261.1594,402.7881 Q260.8156,402.249 260.8156,401.6084 L260.8156,401.0303 Q260.8156,400.3662 261.1203,399.7959 Q261.4328,399.2178 261.9797,398.9131 Q262.5266,398.6006 263.1438,398.6006 Q263.5109,398.6006 263.8313,398.6865 Q264.1594,398.7646 264.4328,398.9443 Z " fill="#000000"/><text fill="#000000" font-family="sans-serif" font-size="7" lengthAdjust="spacing" textLength="52" x="272.95" y="403.9053">TeamRepository</text><line style="stroke:#181818;stroke-width:0.25;" x1="243" x2="339" y1="409.0068" y2="409.0068"/><line style="stroke:#181818;stroke-width:0.25;" x1="243" x2="339" y1="413.0068" y2="413.0068"/><text fill="#000000" font-family="sans-serif" font-size="7" lengthAdjust="spacing" textLength="91" x="245.5" y="422.5605">+getAllTeams() : List&lt;Team&gt;</text></g><!--class AuthenticationRepository--><g id="elem_AuthenticationRepository"><rect codeLine="56" fill="#F1F1F1" height="33.3105" id="AuthenticationRepository" rx="1.25" ry="1.25" style="stroke:#181818;stroke-width:0.25;" width="97.5" x="195.25" y="301.7568"/><ellipse cx="203.875" cy="309.7568" fill="#C2C2C2" rx="5.5" ry="5.5" style="stroke:#181818;stroke-width:0.5;"/><path d="M205.2578,307.6943 Q205.3359,307.585 205.4297,307.5303 Q205.5234,307.4756 205.6328,307.4756 Q205.8203,307.4756 205.9375,307.6084 Q206.0547,307.7334 206.0547,308.0381 L206.0547,308.7646 Q206.0547,309.0693 205.9375,309.2021 Q205.8203,309.335 205.6328,309.335 Q205.4609,309.335 205.3594,309.2334 Q205.2578,309.1396 205.2031,308.8818 Q205.1797,308.7021 205.0859,308.6084 Q204.9219,308.4209 204.6172,308.3115 Q204.3125,308.2021 204,308.2021 Q203.6172,308.2021 203.2969,308.3662 Q202.9844,308.5303 202.7344,308.9053 Q202.4922,309.2803 202.4922,309.7959 L202.4922,310.3428 Q202.4922,310.96 202.9375,311.374 Q203.3828,311.7803 204.1797,311.7803 Q204.6484,311.7803 204.9766,311.6553 Q205.1719,311.5771 205.3828,311.3584 Q205.5156,311.2256 205.5859,311.1865 Q205.6641,311.1475 205.7656,311.1475 Q205.9297,311.1475 206.0547,311.2803 Q206.1875,311.4053 206.1875,311.5771 Q206.1875,311.749 206.0156,311.9521 Q205.7656,312.2412 205.3672,312.4053 Q204.8281,312.6318 204.1797,312.6318 Q203.4219,312.6318 202.8203,312.3193 Q202.3281,312.0693 201.9844,311.5381 Q201.6406,310.999 201.6406,310.3584 L201.6406,309.7803 Q201.6406,309.1162 201.9453,308.5459 Q202.2578,307.9678 202.8047,307.6631 Q203.3516,307.3506 203.9688,307.3506 Q204.3359,307.3506 204.6563,307.4365 Q204.9844,307.5146 205.2578,307.6943 Z " fill="#000000"/><text fill="#000000" font-family="sans-serif" font-size="7" lengthAdjust="spacing" textLength="79" x="211.125" y="312.6553">AuthenticationRepository</text><line style="stroke:#181818;stroke-width:0.25;" x1="195.75" x2="292.25" y1="317.7568" y2="317.7568"/><line style="stroke:#181818;stroke-width:0.25;" x1="195.75" x2="292.25" y1="321.7568" y2="321.7568"/><text fill="#000000" font-family="sans-serif" font-size="7" lengthAdjust="spacing" textLength="91.5" x="198.25" y="331.3105">+getEmployeeFromSession()</text></g><!--class AgendaRepository--><g id="elem_AgendaRepository"><rect codeLine="65" fill="#F1F1F1" height="42.6211" id="AgendaRepository" rx="1.25" ry="1.25" style="stroke:#181818;stroke-width:0.25;" width="129" x="357" y="388.5068"/><ellipse cx="390.125" cy="396.5068" fill="#C2C2C2" rx="5.5" ry="5.5" style="stroke:#181818;stroke-width:0.5;"/><path d="M391.5078,394.4443 Q391.5859,394.335 391.6797,394.2803 Q391.7734,394.2256 391.8828,394.2256 Q392.0703,394.2256 392.1875,394.3584 Q392.3047,394.4834 392.3047,394.7881 L392.3047,395.5146 Q392.3047,395.8193 392.1875,395.9521 Q392.0703,396.085 391.8828,396.085 Q391.7109,396.085 391.6094,395.9834 Q391.5078,395.8896 391.4531,395.6318 Q391.4297,395.4521 391.3359,395.3584 Q391.1719,395.1709 390.8672,395.0615 Q390.5625,394.9521 390.25,394.9521 Q389.8672,394.9521 389.5469,395.1162 Q389.2344,395.2803 388.9844,395.6553 Q388.7422,396.0303 388.7422,396.5459 L388.7422,397.0928 Q388.7422,397.71 389.1875,398.124 Q389.6328,398.5303 390.4297,398.5303 Q390.8984,398.5303 391.2266,398.4053 Q391.4219,398.3271 391.6328,398.1084 Q391.7656,397.9756 391.8359,397.9365 Q391.9141,397.8975 392.0156,397.8975 Q392.1797,397.8975 392.3047,398.0303 Q392.4375,398.1553 392.4375,398.3271 Q392.4375,398.499 392.2656,398.7021 Q392.0156,398.9912 391.6172,399.1553 Q391.0781,399.3818 390.4297,399.3818 Q389.6719,399.3818 389.0703,399.0693 Q388.5781,398.8193 388.2344,398.2881 Q387.8906,397.749 387.8906,397.1084 L387.8906,396.5303 Q387.8906,395.8662 388.1953,395.2959 Q388.5078,394.7178 389.0547,394.4131 Q389.6016,394.1006 390.2188,394.1006 Q390.5859,394.1006 390.9063,394.1865 Q391.2344,394.2646 391.5078,394.4443 Z " fill="#000000"/><text fill="#000000" font-family="sans-serif" font-size="7" lengthAdjust="spacing" textLength="58.5" x="400.375" y="399.4053">AgendaRepository</text><line style="stroke:#181818;stroke-width:0.25;" x1="357.5" x2="485.5" y1="404.5068" y2="404.5068"/><line style="stroke:#181818;stroke-width:0.25;" x1="357.5" x2="485.5" y1="408.5068" y2="408.5068"/><text fill="#000000" font-family="sans-serif" font-size="7" lengthAdjust="spacing" textLength="123" x="360" y="418.0605">+getAllEntriesToAgenda() : List&lt;Entry&gt;</text><text fill="#000000" font-family="sans-serif" font-size="7" lengthAdjust="spacing" textLength="50.5" x="360" y="427.3711">+addNewEntry()</text></g><!--link CreateTeamToEntryController to AuthenticationRepository--><g id="link_CreateTeamToEntryController_AuthenticationRepository"><path codeLine="71" d="M244,196.0318 C244,226.3718 244,273.1118 244,298.6868 " fill="none" id="CreateTeamToEntryController-to-AuthenticationRepository" style="stroke:#181818;stroke-width:0.5;stroke-dasharray:7.0,7.0;"/><polygon fill="#181818" points="244,301.6868,246,297.1868,244,299.1868,242,297.1868,244,301.6868" style="stroke:#181818;stroke-width:0.5;"/><text fill="#000000" font-family="sans-serif" font-size="6.5" lengthAdjust="spacing" textLength="67" x="244.5" y="235.021">getCurrentUserSession</text><text fill="#000000" font-family="sans-serif" font-size="6.5" lengthAdjust="spacing" textLength="3.5" x="240.2758" y="206.9387">1</text><text fill="#000000" font-family="sans-serif" font-size="6.5" lengthAdjust="spacing" textLength="3.5" x="240.1555" y="296.0858">1</text></g><!--link CreateTeamToEntryController to Employee--><g id="link_CreateTeamToEntryController_Employee"><path codeLine="72" d="M189.59,196.0218 C171.325,204.5868 155.5,212.0068 155.5,212.0068 C155.5,212.0068 133,231.7568 133,231.7568 C133,231.7568 133,231.7568 133,410.2568 C133,410.2568 147.1681,494.6133 152.5531,526.6733 " fill="none" id="CreateTeamToEntryController-to-Employee" style="stroke:#181818;stroke-width:0.5;stroke-dasharray:7.0,7.0;"/><polygon fill="#181818" points="153.05,529.6318,154.277,524.8627,152.6359,527.1664,150.3322,525.5253,153.05,529.6318" style="stroke:#181818;stroke-width:0.5;"/></g><!--link AgendaRepository to Entry--><g id="link_AgendaRepository_Entry"><path codeLine="73" d="M417.935,431.0118 C415.91,442.8118 413.7524,455.3551 411.0674,471.0001 " fill="none" id="AgendaRepository-to-Entry" style="stroke:#181818;stroke-width:0.5;"/><polygon fill="#181818" points="410.56,473.9568,413.2923,469.86,410.9829,471.4929,409.35,469.1834,410.56,473.9568" style="stroke:#181818;stroke-width:0.5;"/></g><!--link AuthenticationRepository to Employee--><g id="link_AuthenticationRepository_Employee"><path codeLine="74" d="M237.015,335.3868 C221.9,370.8368 187.5,451.5068 187.5,451.5068 C187.5,451.5068 168.9817,502.6462 160.2017,526.8862 " fill="none" id="AuthenticationRepository-to-Employee" style="stroke:#181818;stroke-width:0.5;"/><polygon fill="#181818" points="159.18,529.7068,162.593,526.157,160.0314,527.3563,158.8321,524.7947,159.18,529.7068" style="stroke:#181818;stroke-width:0.5;"/></g><!--link Employee to Entry--><g id="link_Employee_Entry"><path codeLine="76" d="M178.525,541.7568 C183.965,541.7568 186.91,541.7568 192.85,541.7568 " fill="none" id="Employee-to-Entry" style="stroke:#181818;stroke-width:0.5;"/><polygon fill="#181818" points="195.85,541.7568,191.35,539.7568,193.35,541.7568,191.35,543.7568,195.85,541.7568" style="stroke:#181818;stroke-width:0.5;"/></g><!--link CreateTeamToEntryUI to CreateTeamToEntryController--><g id="link_CreateTeamToEntryUI_CreateTeamToEntryController"><path codeLine="77" d="M244,92.1568 C244,108.8918 244,125.5768 244,140.9018 " fill="none" id="CreateTeamToEntryUI-to-CreateTeamToEntryController" style="stroke:#181818;stroke-width:0.5;"/><polygon fill="#181818" points="244,143.9018,246,139.4018,244,141.4018,242,139.4018,244,143.9018" style="stroke:#181818;stroke-width:0.5;"/><text fill="#000000" font-family="sans-serif" font-size="6.5" lengthAdjust="spacing" textLength="14" x="244.5" y="115.521">uses</text><text fill="#000000" font-family="sans-serif" font-size="6.5" lengthAdjust="spacing" textLength="3.5" x="240.3277" y="103.0786">1</text><text fill="#000000" font-family="sans-serif" font-size="6.5" lengthAdjust="spacing" textLength="3.5" x="240.2648" y="138.3514">1</text></g><!--link CreateTeamToEntryController to Repositorie--><g id="link_CreateTeamToEntryController_Repositorie"><path codeLine="78" d="M276.42,196.1718 C295.53,211.3018 316,227.5068 316,227.5068 C316,227.5068 340.0345,259.2598 359.9745,285.6048 " fill="none" id="CreateTeamToEntryController-to-Repositorie" style="stroke:#181818;stroke-width:0.5;stroke-dasharray:7.0,7.0;"/><polygon fill="#181818" points="361.785,287.9968,360.6639,283.2017,360.2762,286.0034,357.4745,285.6157,361.785,287.9968" style="stroke:#181818;stroke-width:0.5;"/><text fill="#000000" font-family="sans-serif" font-size="6.5" lengthAdjust="spacing" textLength="48" x="323.5" y="235.021">gets repositories</text></g><!--link Repositorie to Repositorie--><g id="link_Repositorie_Repositorie"><path codeLine="79" d="M458.635,310.1168 C469.035,311.4868 476,314.2818 476,318.5068 C476,322.7318 472.0093,325.135 461.6093,326.505 " fill="none" id="Repositorie-to-Repositorie" style="stroke:#181818;stroke-width:0.5;"/><polygon fill="#181818" points="458.635,326.8968,463.3577,328.292,461.1136,326.5703,462.8353,324.3263,458.635,326.8968" style="stroke:#181818;stroke-width:0.5;"/><text fill="#000000" font-family="sans-serif" font-size="6.5" lengthAdjust="spacing" textLength="24.5" x="479" y="321.271">instance</text></g><!--link Repositorie to TeamRepository--><g id="link_Repositorie_TeamRepository"><path codeLine="80" d="M353.365,349.0568 C338.175,363.7218 322.6535,378.7034 310.0035,390.9134 " fill="none" id="Repositorie-to-TeamRepository" style="stroke:#181818;stroke-width:0.5;"/><polygon fill="#181818" points="307.845,392.9968,312.4718,391.3107,309.6438,391.2606,309.6938,388.4326,307.845,392.9968" style="stroke:#181818;stroke-width:0.5;"/><text fill="#000000" font-family="sans-serif" font-size="6.5" lengthAdjust="spacing" textLength="45.5" x="338" y="371.521">teamRepository</text><text fill="#000000" font-family="sans-serif" font-size="6.5" lengthAdjust="spacing" textLength="3.5" x="345.8571" y="360.3064">1</text><text fill="#000000" font-family="sans-serif" font-size="6.5" lengthAdjust="spacing" textLength="3.5" x="307.3168" y="387.4076">1</text></g><!--link Repositorie to AgendaRepository--><g id="link_Repositorie_AgendaRepository"><path codeLine="81" d="M396.82,349.0568 C402.12,361.9818 407.0417,373.9912 411.8317,385.6712 " fill="none" id="Repositorie-to-AgendaRepository" style="stroke:#181818;stroke-width:0.5;"/><polygon fill="#181818" points="412.97,388.4468,413.113,383.5245,412.0214,386.1338,409.4121,385.0422,412.97,388.4468" style="stroke:#181818;stroke-width:0.5;"/><text fill="#000000" font-family="sans-serif" font-size="6.5" lengthAdjust="spacing" textLength="52" x="406.5" y="371.521">agendaRepository</text><text fill="#000000" font-family="sans-serif" font-size="6.5" lengthAdjust="spacing" textLength="3.5" x="394.6082" y="360.3064">1</text><text fill="#000000" font-family="sans-serif" font-size="6.5" lengthAdjust="spacing" textLength="3.5" x="407.8316" y="382.8893">1</text></g><!--link CreateTeamToEntryController to Entry--><g id="link_CreateTeamToEntryController_Entry"><path codeLine="83" d="M212.42,196.1268 C191.73,212.9118 168.5,231.7568 168.5,231.7568 C168.5,231.7568 168.5,231.7568 168.5,369.2568 C168.5,369.2568 187,443.0068 187,443.0068 C187,443.0068 213.933,455.4905 251.063,472.6955 " fill="none" id="CreateTeamToEntryController-to-Entry" style="stroke:#181818;stroke-width:0.5;stroke-dasharray:7.0,7.0;"/><polygon fill="#181818" points="253.785,473.9568,250.5429,470.2503,251.5167,472.9058,248.8612,473.8796,253.785,473.9568" style="stroke:#181818;stroke-width:0.5;"/></g><!--link CreateTeamToEntryController to AgendaRepository--><g id="link_CreateTeamToEntryController_AgendaRepository"><path codeLine="85" d="M314.65,196.0268 C392.55,224.1668 507,265.5068 507,265.5068 C507,265.5068 507,349.0068 507,349.0068 C507,349.0068 478.3124,369.2239 453.6174,386.6239 " fill="none" id="CreateTeamToEntryController-to-AgendaRepository" style="stroke:#181818;stroke-width:0.5;stroke-dasharray:7.0,7.0;"/><polygon fill="#181818" points="451.165,388.3518,455.9955,387.3948,453.2087,386.9119,453.6916,384.125,451.165,388.3518" style="stroke:#181818;stroke-width:0.5;"/><text fill="#000000" font-family="sans-serif" font-size="6.5" lengthAdjust="spacing" textLength="37" x="496" y="259.521">add neWntry</text></g><!--SRC=[nLLDRnen4Btlhx1o0WLGUqqH4eAaGegggX3rxEnEmOhNtjfUHLlK_zwnCLvxMI2S2XBOCs_yvjFMRqnKLD6Ib5B8VATa2SIe6Z8TD1NDt-WMrgRXG1JaXeejZm5wHmlvpiIM_A9SnnhE19Yc0b99tjXDfCivrNfkZ6AljO5LBiMQ_G7oASk-7mZ9GWgZ9EUWo7Jw97a1QZRRPywGB1HG0nkWvKO-8gw9qFkCu6TC36f_G2KrCr8rv85i4e578PKeQ8ARTqGEUKzon-dO1cjq72CMj8GHyPi2TAvOPPWKGLOhF2jlbh1LW4Wc32bgHG-OhoWJQqmma6rOZiYpp2bV8XKfyETWj9Er6ha0N5Z3x2z-ZvbwMNqaGuZQ-qXKBGR3unf-rw0Dyj4Wq_LhoLAHXzcJ6EYksD9ucNMiBU9IbfI97lUSIw5KKJfJIPJJL94arglYx7fHRuhJaxIXfjPUrkOUh8Ds5Hrkg-2teHInuORX_E1vojZLbnCLjbMhk2V_hvM6MT90eTMnj3srYjIXOh59w8Ojc9N0-4KEWo4EKWng8UaOEc3FP3feTn8T-6GyRmWb9Ge3OQaujqhjA9wPDbExdTro-BmsEsmRbhkYj3GHosDPSTa0FE5LkmQj4JT8X_dyn7XJTFeMdxhNMngod-UDFE3Qu5rlpZoM5iKtU3-qwy7RxD85VFVvRZ8Pp-p_sPmW3tgmg9L2xOi6vRDnyU39P1RIa9r4DaPAPv6T9NMGum5Po6WmxBiqRHHZ7yqbvnv8hR7Dh_aV3vFBWSPBD1gJM6zfKpppuvN0OWyttKSlVGNFsirFdy7kovXThurBubLO7rTH404_dVq_]--></g></svg>