<?xml version="1.0" encoding="us-ascii" standalone="no"?><svg xmlns="http://www.w3.org/2000/svg" xmlns:xlink="http://www.w3.org/1999/xlink" contentStyleType="text/css" height="1162px" preserveAspectRatio="none" style="width:1179px;height:1162px;background:#FFFFFF;" version="1.1" viewBox="0 0 1179 1162" width="1179px" zoomAndPan="magnify"><defs/><g><!--cluster Controller--><g id="cluster_Controller"><path d="M210.5,251.0137 L282.5,251.0137 A3.75,3.75 0 0 1 285,253.5137 L292,275.6348 L1169.5,275.6348 A2.5,2.5 0 0 1 1172,278.1348 L1172,405.5137 A2.5,2.5 0 0 1 1169.5,408.0137 L210.5,408.0137 A2.5,2.5 0 0 1 208,405.5137 L208,253.5137 A2.5,2.5 0 0 1 210.5,251.0137 " fill="none" style="stroke:#000000;stroke-width:1.5;"/><line style="stroke:#000000;stroke-width:1.5;" x1="208" x2="292" y1="275.6348" y2="275.6348"/><text fill="#000000" font-family="sans-serif" font-size="14" font-weight="bold" lengthAdjust="spacing" textLength="71" x="212" y="268.1211">Controller</text></g><!--cluster UI--><g id="cluster_UI"><path d="M589.5,6.0137 L604.5,6.0137 A3.75,3.75 0 0 1 607,8.5137 L614,30.6348 L790.5,30.6348 A2.5,2.5 0 0 1 793,33.1348 L793,197.5137 A2.5,2.5 0 0 1 790.5,200.0137 L589.5,200.0137 A2.5,2.5 0 0 1 587,197.5137 L587,8.5137 A2.5,2.5 0 0 1 589.5,6.0137 " fill="none" style="stroke:#000000;stroke-width:1.5;"/><line style="stroke:#000000;stroke-width:1.5;" x1="587" x2="614" y1="30.6348" y2="30.6348"/><text fill="#000000" font-family="sans-serif" font-size="14" font-weight="bold" lengthAdjust="spacing" textLength="14" x="591" y="23.1211">UI</text></g><!--cluster Domain--><g id="cluster_Domain"><path d="M8.5,831.0137 L61.5,831.0137 A3.75,3.75 0 0 1 64,833.5137 L71,855.6348 L976.5,855.6348 A2.5,2.5 0 0 1 979,858.1348 L979,1152.5137 A2.5,2.5 0 0 1 976.5,1155.0137 L8.5,1155.0137 A2.5,2.5 0 0 1 6,1152.5137 L6,833.5137 A2.5,2.5 0 0 1 8.5,831.0137 " fill="none" style="stroke:#000000;stroke-width:1.5;"/><line style="stroke:#000000;stroke-width:1.5;" x1="6" x2="71" y1="855.6348" y2="855.6348"/><text fill="#000000" font-family="sans-serif" font-size="14" font-weight="bold" lengthAdjust="spacing" textLength="52" x="10" y="848.1211">Domain</text></g><!--cluster Repositories--><g id="cluster_Repositories"><path d="M56.5,459.0137 L147.5,459.0137 A3.75,3.75 0 0 1 150,461.5137 L157,483.6348 L801.5,483.6348 A2.5,2.5 0 0 1 804,486.1348 L804,795.5137 A2.5,2.5 0 0 1 801.5,798.0137 L56.5,798.0137 A2.5,2.5 0 0 1 54,795.5137 L54,461.5137 A2.5,2.5 0 0 1 56.5,459.0137 " fill="none" style="stroke:#000000;stroke-width:1.5;"/><line style="stroke:#000000;stroke-width:1.5;" x1="54" x2="157" y1="483.6348" y2="483.6348"/><text fill="#000000" font-family="sans-serif" font-size="14" font-weight="bold" lengthAdjust="spacing" textLength="90" x="58" y="476.1211">Repositories</text></g><!--class CreateTeamToEntryController--><g id="elem_CreateTeamToEntryController"><rect codeLine="8" fill="#F1F1F1" height="103.8633" id="CreateTeamToEntryController" rx="2.5" ry="2.5" style="stroke:#181818;stroke-width:0.5;" width="931" x="224.5" y="288.0137"/><ellipse cx="590.25" cy="304.0137" fill="#C2C2C2" rx="11" ry="11" style="stroke:#181818;stroke-width:1.0;"/><path d="M593.0156,299.8887 Q593.1719,299.6699 593.3594,299.5605 Q593.5469,299.4512 593.7656,299.4512 Q594.1406,299.4512 594.375,299.7168 Q594.6094,299.9668 594.6094,300.5762 L594.6094,302.0293 Q594.6094,302.6387 594.375,302.9043 Q594.1406,303.1699 593.7656,303.1699 Q593.4219,303.1699 593.2188,302.9668 Q593.0156,302.7793 592.9063,302.2637 Q592.8594,301.9043 592.6719,301.7168 Q592.3438,301.3418 591.7344,301.123 Q591.125,300.9043 590.5,300.9043 Q589.7344,300.9043 589.0938,301.2324 Q588.4688,301.5605 587.9688,302.3105 Q587.4844,303.0605 587.4844,304.0918 L587.4844,305.1855 Q587.4844,306.4199 588.375,307.248 Q589.2656,308.0605 590.8594,308.0605 Q591.7969,308.0605 592.4531,307.8105 Q592.8438,307.6543 593.2656,307.2168 Q593.5313,306.9512 593.6719,306.873 Q593.8281,306.7949 594.0313,306.7949 Q594.3594,306.7949 594.6094,307.0605 Q594.875,307.3105 594.875,307.6543 Q594.875,307.998 594.5313,308.4043 Q594.0313,308.9824 593.2344,309.3105 Q592.1563,309.7637 590.8594,309.7637 Q589.3438,309.7637 588.1406,309.1387 Q587.1563,308.6387 586.4688,307.5762 Q585.7813,306.498 585.7813,305.2168 L585.7813,304.0605 Q585.7813,302.7324 586.3906,301.5918 Q587.0156,300.4355 588.1094,299.8262 Q589.2031,299.2012 590.4375,299.2012 Q591.1719,299.2012 591.8125,299.373 Q592.4688,299.5293 593.0156,299.8887 Z " fill="#000000"/><text fill="#000000" font-family="sans-serif" font-size="14" lengthAdjust="spacing" textLength="191" x="610.75" y="309.8105">CreateTeamToEntryController</text><line style="stroke:#181818;stroke-width:0.5;" x1="225.5" x2="1154.5" y1="320.0137" y2="320.0137"/><text fill="#000000" font-family="sans-serif" font-size="14" lengthAdjust="spacing" textLength="220" x="230.5" y="339.1211">-teamRepository : TeamRepository</text><text fill="#000000" font-family="sans-serif" font-size="14" lengthAdjust="spacing" textLength="250" x="230.5" y="357.7422">-agendaRepository : AgendaRepository</text><line style="stroke:#181818;stroke-width:0.5;" x1="225.5" x2="1154.5" y1="365.2559" y2="365.2559"/><text fill="#000000" font-family="sans-serif" font-size="14" lengthAdjust="spacing" textLength="919" x="230.5" y="384.3633">+createEntry(String name, String description, String urgencyDegree, int duration, GreenSpace greenSpace, LocalDate date, int hour, Team team)</text></g><!--class CreateTeamToEntryUI--><g id="elem_CreateTeamToEntryUI"><rect codeLine="15" fill="#F1F1F1" height="141.1055" id="CreateTeamToEntryUI" rx="2.5" ry="2.5" style="stroke:#181818;stroke-width:0.5;" width="173" x="603.5" y="43.0137"/><ellipse cx="618.5" cy="59.0137" fill="#C2C2C2" rx="11" ry="11" style="stroke:#181818;stroke-width:1.0;"/><path d="M621.2656,54.8887 Q621.4219,54.6699 621.6094,54.5605 Q621.7969,54.4512 622.0156,54.4512 Q622.3906,54.4512 622.625,54.7168 Q622.8594,54.9668 622.8594,55.5762 L622.8594,57.0293 Q622.8594,57.6387 622.625,57.9043 Q622.3906,58.1699 622.0156,58.1699 Q621.6719,58.1699 621.4688,57.9668 Q621.2656,57.7793 621.1563,57.2637 Q621.1094,56.9043 620.9219,56.7168 Q620.5938,56.3418 619.9844,56.123 Q619.375,55.9043 618.75,55.9043 Q617.9844,55.9043 617.3438,56.2324 Q616.7188,56.5605 616.2188,57.3105 Q615.7344,58.0605 615.7344,59.0918 L615.7344,60.1855 Q615.7344,61.4199 616.625,62.248 Q617.5156,63.0605 619.1094,63.0605 Q620.0469,63.0605 620.7031,62.8105 Q621.0938,62.6543 621.5156,62.2168 Q621.7813,61.9512 621.9219,61.873 Q622.0781,61.7949 622.2813,61.7949 Q622.6094,61.7949 622.8594,62.0605 Q623.125,62.3105 623.125,62.6543 Q623.125,62.998 622.7813,63.4043 Q622.2813,63.9824 621.4844,64.3105 Q620.4063,64.7637 619.1094,64.7637 Q617.5938,64.7637 616.3906,64.1387 Q615.4063,63.6387 614.7188,62.5762 Q614.0313,61.498 614.0313,60.2168 L614.0313,59.0605 Q614.0313,57.7324 614.6406,56.5918 Q615.2656,55.4355 616.3594,54.8262 Q617.4531,54.2012 618.6875,54.2012 Q619.4219,54.2012 620.0625,54.373 Q620.7188,54.5293 621.2656,54.8887 Z " fill="#000000"/><text fill="#000000" font-family="sans-serif" font-size="14" lengthAdjust="spacing" textLength="141" x="632.5" y="64.8105">CreateTeamToEntryUI</text><line style="stroke:#181818;stroke-width:0.5;" x1="604.5" x2="775.5" y1="75.0137" y2="75.0137"/><line style="stroke:#181818;stroke-width:0.5;" x1="604.5" x2="775.5" y1="83.0137" y2="83.0137"/><text fill="#000000" font-family="sans-serif" font-size="14" lengthAdjust="spacing" textLength="39" x="609.5" y="102.1211">+run()</text><text fill="#000000" font-family="sans-serif" font-size="14" lengthAdjust="spacing" textLength="96" x="609.5" y="120.7422">+requestData()</text><text fill="#000000" font-family="sans-serif" font-size="14" lengthAdjust="spacing" textLength="89" x="609.5" y="139.3633">+submitData()</text><text fill="#000000" font-family="sans-serif" font-size="14" lengthAdjust="spacing" textLength="110" x="609.5" y="157.9844">+requestEntries()</text><text fill="#000000" font-family="sans-serif" font-size="14" lengthAdjust="spacing" textLength="102" x="609.5" y="176.6055">+requestTeam()</text></g><!--class Entry--><g id="elem_Entry"><rect codeLine="26" fill="#F1F1F1" height="271.4531" id="Entry" rx="2.5" ry="2.5" style="stroke:#181818;stroke-width:0.5;" width="812" x="22" y="868.0137"/><ellipse cx="407.25" cy="884.0137" fill="#C2C2C2" rx="11" ry="11" style="stroke:#181818;stroke-width:1.0;"/><path d="M410.0156,879.8887 Q410.1719,879.6699 410.3594,879.5605 Q410.5469,879.4512 410.7656,879.4512 Q411.1406,879.4512 411.375,879.7168 Q411.6094,879.9668 411.6094,880.5762 L411.6094,882.0293 Q411.6094,882.6387 411.375,882.9043 Q411.1406,883.1699 410.7656,883.1699 Q410.4219,883.1699 410.2188,882.9668 Q410.0156,882.7793 409.9063,882.2637 Q409.8594,881.9043 409.6719,881.7168 Q409.3438,881.3418 408.7344,881.123 Q408.125,880.9043 407.5,880.9043 Q406.7344,880.9043 406.0938,881.2324 Q405.4688,881.5605 404.9688,882.3105 Q404.4844,883.0605 404.4844,884.0918 L404.4844,885.1855 Q404.4844,886.4199 405.375,887.248 Q406.2656,888.0605 407.8594,888.0605 Q408.7969,888.0605 409.4531,887.8105 Q409.8438,887.6543 410.2656,887.2168 Q410.5313,886.9512 410.6719,886.873 Q410.8281,886.7949 411.0313,886.7949 Q411.3594,886.7949 411.6094,887.0605 Q411.875,887.3105 411.875,887.6543 Q411.875,887.998 411.5313,888.4043 Q411.0313,888.9824 410.2344,889.3105 Q409.1563,889.7637 407.8594,889.7637 Q406.3438,889.7637 405.1406,889.1387 Q404.1563,888.6387 403.4688,887.5762 Q402.7813,886.498 402.7813,885.2168 L402.7813,884.0605 Q402.7813,882.7324 403.3906,881.5918 Q404.0156,880.4355 405.1094,879.8262 Q406.2031,879.2012 407.4375,879.2012 Q408.1719,879.2012 408.8125,879.373 Q409.4688,879.5293 410.0156,879.8887 Z " fill="#000000"/><text fill="#000000" font-family="sans-serif" font-size="14" lengthAdjust="spacing" textLength="33" x="427.75" y="889.8105">Entry</text><line style="stroke:#181818;stroke-width:0.5;" x1="23" x2="833" y1="900.0137" y2="900.0137"/><text fill="#000000" font-family="sans-serif" font-size="14" lengthAdjust="spacing" textLength="81" x="28" y="919.1211">-String name</text><text fill="#000000" font-family="sans-serif" font-size="14" lengthAdjust="spacing" textLength="115" x="28" y="937.7422">-String description</text><text fill="#000000" font-family="sans-serif" font-size="14" lengthAdjust="spacing" textLength="144" x="28" y="956.3633">-String urgencyDegree</text><text fill="#000000" font-family="sans-serif" font-size="14" lengthAdjust="spacing" textLength="76" x="28" y="974.9844">-int duration</text><text fill="#000000" font-family="sans-serif" font-size="14" lengthAdjust="spacing" textLength="166" x="28" y="993.6055">-GreenSpace greenSpace</text><text fill="#000000" font-family="sans-serif" font-size="14" lengthAdjust="spacing" textLength="84" x="28" y="1012.2266">-String status</text><text fill="#000000" font-family="sans-serif" font-size="14" lengthAdjust="spacing" textLength="135" x="28" y="1030.8477">-LocalDate entryDate</text><text fill="#000000" font-family="sans-serif" font-size="14" lengthAdjust="spacing" textLength="53" x="28" y="1049.4688">-int hour</text><text fill="#000000" font-family="sans-serif" font-size="14" lengthAdjust="spacing" textLength="76" x="28" y="1068.0898">-Team team</text><text fill="#000000" font-family="sans-serif" font-size="14" lengthAdjust="spacing" textLength="137" x="28" y="1086.7109">-LocalTime startTime;</text><text fill="#000000" font-family="sans-serif" font-size="14" lengthAdjust="spacing" textLength="133" x="28" y="1105.332">-LocalTime endTime;</text><line style="stroke:#181818;stroke-width:0.5;" x1="23" x2="833" y1="1112.8457" y2="1112.8457"/><text fill="#000000" font-family="sans-serif" font-size="14" lengthAdjust="spacing" textLength="800" x="28" y="1131.9531">+Entry(String name, String description, String urgencyDegree, int duration, GreenSpace greenSpace, LocalDate date, int hour)</text></g><!--class Employee--><g id="elem_Employee"><rect codeLine="61" fill="#F1F1F1" height="48" id="Employee" rx="2.5" ry="2.5" style="stroke:#181818;stroke-width:0.5;" width="94" x="869" y="979.5137"/><ellipse cx="884" cy="995.5137" fill="#C2C2C2" rx="11" ry="11" style="stroke:#181818;stroke-width:1.0;"/><path d="M886.7656,991.3887 Q886.9219,991.1699 887.1094,991.0605 Q887.2969,990.9512 887.5156,990.9512 Q887.8906,990.9512 888.125,991.2168 Q888.3594,991.4668 888.3594,992.0762 L888.3594,993.5293 Q888.3594,994.1387 888.125,994.4043 Q887.8906,994.6699 887.5156,994.6699 Q887.1719,994.6699 886.9688,994.4668 Q886.7656,994.2793 886.6563,993.7637 Q886.6094,993.4043 886.4219,993.2168 Q886.0938,992.8418 885.4844,992.623 Q884.875,992.4043 884.25,992.4043 Q883.4844,992.4043 882.8438,992.7324 Q882.2188,993.0605 881.7188,993.8105 Q881.2344,994.5605 881.2344,995.5918 L881.2344,996.6855 Q881.2344,997.9199 882.125,998.748 Q883.0156,999.5605 884.6094,999.5605 Q885.5469,999.5605 886.2031,999.3105 Q886.5938,999.1543 887.0156,998.7168 Q887.2813,998.4512 887.4219,998.373 Q887.5781,998.2949 887.7813,998.2949 Q888.1094,998.2949 888.3594,998.5605 Q888.625,998.8105 888.625,999.1543 Q888.625,999.498 888.2813,999.9043 Q887.7813,1000.4824 886.9844,1000.8105 Q885.9063,1001.2637 884.6094,1001.2637 Q883.0938,1001.2637 881.8906,1000.6387 Q880.9063,1000.1387 880.2188,999.0762 Q879.5313,997.998 879.5313,996.7168 L879.5313,995.5605 Q879.5313,994.2324 880.1406,993.0918 Q880.7656,991.9355 881.8594,991.3262 Q882.9531,990.7012 884.1875,990.7012 Q884.9219,990.7012 885.5625,990.873 Q886.2188,991.0293 886.7656,991.3887 Z " fill="#000000"/><text fill="#000000" font-family="sans-serif" font-size="14" lengthAdjust="spacing" textLength="62" x="898" y="1001.3105">Employee</text><line style="stroke:#181818;stroke-width:0.5;" x1="870" x2="962" y1="1011.5137" y2="1011.5137"/><line style="stroke:#181818;stroke-width:0.5;" x1="870" x2="962" y1="1019.5137" y2="1019.5137"/></g><!--class Repositorie--><g id="elem_Repositorie"><rect codeLine="43" fill="#F1F1F1" height="122.4844" id="Repositorie" rx="2.5" ry="2.5" style="stroke:#181818;stroke-width:0.5;" width="296" x="99" y="496.0137"/><ellipse cx="206.75" cy="512.0137" fill="#C2C2C2" rx="11" ry="11" style="stroke:#181818;stroke-width:1.0;"/><path d="M209.5156,507.8887 Q209.6719,507.6699 209.8594,507.5605 Q210.0469,507.4512 210.2656,507.4512 Q210.6406,507.4512 210.875,507.7168 Q211.1094,507.9668 211.1094,508.5762 L211.1094,510.0293 Q211.1094,510.6387 210.875,510.9043 Q210.6406,511.1699 210.2656,511.1699 Q209.9219,511.1699 209.7188,510.9668 Q209.5156,510.7793 209.4063,510.2637 Q209.3594,509.9043 209.1719,509.7168 Q208.8438,509.3418 208.2344,509.123 Q207.625,508.9043 207,508.9043 Q206.2344,508.9043 205.5938,509.2324 Q204.9688,509.5605 204.4688,510.3105 Q203.9844,511.0605 203.9844,512.0918 L203.9844,513.1855 Q203.9844,514.4199 204.875,515.248 Q205.7656,516.0605 207.3594,516.0605 Q208.2969,516.0605 208.9531,515.8105 Q209.3438,515.6543 209.7656,515.2168 Q210.0313,514.9512 210.1719,514.873 Q210.3281,514.7949 210.5313,514.7949 Q210.8594,514.7949 211.1094,515.0605 Q211.375,515.3105 211.375,515.6543 Q211.375,515.998 211.0313,516.4043 Q210.5313,516.9824 209.7344,517.3105 Q208.6563,517.7637 207.3594,517.7637 Q205.8438,517.7637 204.6406,517.1387 Q203.6563,516.6387 202.9688,515.5762 Q202.2813,514.498 202.2813,513.2168 L202.2813,512.0605 Q202.2813,510.7324 202.8906,509.5918 Q203.5156,508.4355 204.6094,507.8262 Q205.7031,507.2012 206.9375,507.2012 Q207.6719,507.2012 208.3125,507.373 Q208.9688,507.5293 209.5156,507.8887 Z " fill="#000000"/><text fill="#000000" font-family="sans-serif" font-size="14" lengthAdjust="spacing" textLength="72" x="227.25" y="517.8105">Repositorie</text><line style="stroke:#181818;stroke-width:0.5;" x1="100" x2="394" y1="528.0137" y2="528.0137"/><line style="stroke:#181818;stroke-width:0.5;" x1="100" x2="394" y1="536.0137" y2="536.0137"/><text fill="#000000" font-family="sans-serif" font-size="14" lengthAdjust="spacing" textLength="94" x="105" y="555.1211">-Repositories()</text><text fill="#000000" font-family="sans-serif" font-size="14" lengthAdjust="spacing" textLength="182" x="105" y="573.7422">+getInstance() : Repositories</text><text fill="#000000" font-family="sans-serif" font-size="14" lengthAdjust="spacing" textLength="258" x="105" y="592.3633">+getTeamRepository() : TeamRepository</text><text fill="#000000" font-family="sans-serif" font-size="14" lengthAdjust="spacing" textLength="284" x="105" y="610.9844">+getAgendaRepository() : AgendaRepository</text></g><!--class TeamRepository--><g id="elem_TeamRepository"><rect codeLine="51" fill="#F1F1F1" height="66.6211" id="TeamRepository" rx="2.5" ry="2.5" style="stroke:#181818;stroke-width:0.5;" width="194" x="70" y="706.0137"/><ellipse cx="111.1" cy="722.0137" fill="#C2C2C2" rx="11" ry="11" style="stroke:#181818;stroke-width:1.0;"/><path d="M113.8656,717.8887 Q114.0219,717.6699 114.2094,717.5605 Q114.3969,717.4512 114.6156,717.4512 Q114.9906,717.4512 115.225,717.7168 Q115.4594,717.9668 115.4594,718.5762 L115.4594,720.0293 Q115.4594,720.6387 115.225,720.9043 Q114.9906,721.1699 114.6156,721.1699 Q114.2719,721.1699 114.0688,720.9668 Q113.8656,720.7793 113.7563,720.2637 Q113.7094,719.9043 113.5219,719.7168 Q113.1938,719.3418 112.5844,719.123 Q111.975,718.9043 111.35,718.9043 Q110.5844,718.9043 109.9438,719.2324 Q109.3188,719.5605 108.8188,720.3105 Q108.3344,721.0605 108.3344,722.0918 L108.3344,723.1855 Q108.3344,724.4199 109.225,725.248 Q110.1156,726.0605 111.7094,726.0605 Q112.6469,726.0605 113.3031,725.8105 Q113.6938,725.6543 114.1156,725.2168 Q114.3813,724.9512 114.5219,724.873 Q114.6781,724.7949 114.8813,724.7949 Q115.2094,724.7949 115.4594,725.0605 Q115.725,725.3105 115.725,725.6543 Q115.725,725.998 115.3813,726.4043 Q114.8813,726.9824 114.0844,727.3105 Q113.0063,727.7637 111.7094,727.7637 Q110.1938,727.7637 108.9906,727.1387 Q108.0063,726.6387 107.3188,725.5762 Q106.6313,724.498 106.6313,723.2168 L106.6313,722.0605 Q106.6313,720.7324 107.2406,719.5918 Q107.8656,718.4355 108.9594,717.8262 Q110.0531,717.2012 111.2875,717.2012 Q112.0219,717.2012 112.6625,717.373 Q113.3188,717.5293 113.8656,717.8887 Z " fill="#000000"/><text fill="#000000" font-family="sans-serif" font-size="14" lengthAdjust="spacing" textLength="104" x="130.9" y="727.8105">TeamRepository</text><line style="stroke:#181818;stroke-width:0.5;" x1="71" x2="263" y1="738.0137" y2="738.0137"/><line style="stroke:#181818;stroke-width:0.5;" x1="71" x2="263" y1="746.0137" y2="746.0137"/><text fill="#000000" font-family="sans-serif" font-size="14" lengthAdjust="spacing" textLength="182" x="76" y="765.1211">+getAllTeams() : List&lt;Team&gt;</text></g><!--class AuthenticationRepository--><g id="elem_AuthenticationRepository"><rect codeLine="56" fill="#F1F1F1" height="66.6211" id="AuthenticationRepository" rx="2.5" ry="2.5" style="stroke:#181818;stroke-width:0.5;" width="195" x="592.5" y="706.0137"/><ellipse cx="609.75" cy="722.0137" fill="#C2C2C2" rx="11" ry="11" style="stroke:#181818;stroke-width:1.0;"/><path d="M612.5156,717.8887 Q612.6719,717.6699 612.8594,717.5605 Q613.0469,717.4512 613.2656,717.4512 Q613.6406,717.4512 613.875,717.7168 Q614.1094,717.9668 614.1094,718.5762 L614.1094,720.0293 Q614.1094,720.6387 613.875,720.9043 Q613.6406,721.1699 613.2656,721.1699 Q612.9219,721.1699 612.7188,720.9668 Q612.5156,720.7793 612.4063,720.2637 Q612.3594,719.9043 612.1719,719.7168 Q611.8438,719.3418 611.2344,719.123 Q610.625,718.9043 610,718.9043 Q609.2344,718.9043 608.5938,719.2324 Q607.9688,719.5605 607.4688,720.3105 Q606.9844,721.0605 606.9844,722.0918 L606.9844,723.1855 Q606.9844,724.4199 607.875,725.248 Q608.7656,726.0605 610.3594,726.0605 Q611.2969,726.0605 611.9531,725.8105 Q612.3438,725.6543 612.7656,725.2168 Q613.0313,724.9512 613.1719,724.873 Q613.3281,724.7949 613.5313,724.7949 Q613.8594,724.7949 614.1094,725.0605 Q614.375,725.3105 614.375,725.6543 Q614.375,725.998 614.0313,726.4043 Q613.5313,726.9824 612.7344,727.3105 Q611.6563,727.7637 610.3594,727.7637 Q608.8438,727.7637 607.6406,727.1387 Q606.6563,726.6387 605.9688,725.5762 Q605.2813,724.498 605.2813,723.2168 L605.2813,722.0605 Q605.2813,720.7324 605.8906,719.5918 Q606.5156,718.4355 607.6094,717.8262 Q608.7031,717.2012 609.9375,717.2012 Q610.6719,717.2012 611.3125,717.373 Q611.9688,717.5293 612.5156,717.8887 Z " fill="#000000"/><text fill="#000000" font-family="sans-serif" font-size="14" lengthAdjust="spacing" textLength="158" x="624.25" y="727.8105">AuthenticationRepository</text><line style="stroke:#181818;stroke-width:0.5;" x1="593.5" x2="786.5" y1="738.0137" y2="738.0137"/><line style="stroke:#181818;stroke-width:0.5;" x1="593.5" x2="786.5" y1="746.0137" y2="746.0137"/><text fill="#000000" font-family="sans-serif" font-size="14" lengthAdjust="spacing" textLength="183" x="598.5" y="765.1211">+getEmployeeFromSession()</text></g><!--class AgendaRepository--><g id="elem_AgendaRepository"><rect codeLine="65" fill="#F1F1F1" height="85.2422" id="AgendaRepository" rx="2.5" ry="2.5" style="stroke:#181818;stroke-width:0.5;" width="258" x="299" y="697.0137"/><ellipse cx="365.25" cy="713.0137" fill="#C2C2C2" rx="11" ry="11" style="stroke:#181818;stroke-width:1.0;"/><path d="M368.0156,708.8887 Q368.1719,708.6699 368.3594,708.5605 Q368.5469,708.4512 368.7656,708.4512 Q369.1406,708.4512 369.375,708.7168 Q369.6094,708.9668 369.6094,709.5762 L369.6094,711.0293 Q369.6094,711.6387 369.375,711.9043 Q369.1406,712.1699 368.7656,712.1699 Q368.4219,712.1699 368.2188,711.9668 Q368.0156,711.7793 367.9063,711.2637 Q367.8594,710.9043 367.6719,710.7168 Q367.3438,710.3418 366.7344,710.123 Q366.125,709.9043 365.5,709.9043 Q364.7344,709.9043 364.0938,710.2324 Q363.4688,710.5605 362.9688,711.3105 Q362.4844,712.0605 362.4844,713.0918 L362.4844,714.1855 Q362.4844,715.4199 363.375,716.248 Q364.2656,717.0605 365.8594,717.0605 Q366.7969,717.0605 367.4531,716.8105 Q367.8438,716.6543 368.2656,716.2168 Q368.5313,715.9512 368.6719,715.873 Q368.8281,715.7949 369.0313,715.7949 Q369.3594,715.7949 369.6094,716.0605 Q369.875,716.3105 369.875,716.6543 Q369.875,716.998 369.5313,717.4043 Q369.0313,717.9824 368.2344,718.3105 Q367.1563,718.7637 365.8594,718.7637 Q364.3438,718.7637 363.1406,718.1387 Q362.1563,717.6387 361.4688,716.5762 Q360.7813,715.498 360.7813,714.2168 L360.7813,713.0605 Q360.7813,711.7324 361.3906,710.5918 Q362.0156,709.4355 363.1094,708.8262 Q364.2031,708.2012 365.4375,708.2012 Q366.1719,708.2012 366.8125,708.373 Q367.4688,708.5293 368.0156,708.8887 Z " fill="#000000"/><text fill="#000000" font-family="sans-serif" font-size="14" lengthAdjust="spacing" textLength="117" x="385.75" y="718.8105">AgendaRepository</text><line style="stroke:#181818;stroke-width:0.5;" x1="300" x2="556" y1="729.0137" y2="729.0137"/><line style="stroke:#181818;stroke-width:0.5;" x1="300" x2="556" y1="737.0137" y2="737.0137"/><text fill="#000000" font-family="sans-serif" font-size="14" lengthAdjust="spacing" textLength="246" x="305" y="756.1211">+getAllEntriesToAgenda() : List&lt;Entry&gt;</text><text fill="#000000" font-family="sans-serif" font-size="14" lengthAdjust="spacing" textLength="101" x="305" y="774.7422">+addNewEntry()</text></g><!--link CreateTeamToEntryController to AuthenticationRepository--><g id="link_CreateTeamToEntryController_AuthenticationRepository"><path codeLine="71" d="M690,392.1637 C690,475.0937 690,630.5737 690,699.7637 " fill="none" id="CreateTeamToEntryController-to-AuthenticationRepository" style="stroke:#181818;stroke-width:1.0;"/><polygon fill="#181818" points="690,705.7637,694,696.7637,690,700.7637,686,696.7637,690,705.7637" style="stroke:#181818;stroke-width:1.0;"/><text fill="#000000" font-family="sans-serif" font-size="13" lengthAdjust="spacing" textLength="134" x="691" y="562.542">getCurrentUserSession</text><text fill="#000000" font-family="sans-serif" font-size="13" lengthAdjust="spacing" textLength="7" x="682.5516" y="413.9902">1</text><text fill="#000000" font-family="sans-serif" font-size="13" lengthAdjust="spacing" textLength="7" x="682.3328" y="694.8019">1</text></g><!--link CreateTeamToEntryController to Employee--><g id="link_CreateTeamToEntryController_Employee"><path codeLine="72" d="M822.18,392.0437 C866.56,409.1737 905,424.0137 905,424.0137 C905,424.0137 913.4063,865.8847 915.4463,973.4847 " fill="none" id="CreateTeamToEntryController-to-Employee" style="stroke:#181818;stroke-width:1.0;stroke-dasharray:7.0,7.0;"/><polygon fill="#181818" points="915.56,979.4837,919.3887,970.4095,915.4652,974.4846,911.3901,970.5611,915.56,979.4837" style="stroke:#181818;stroke-width:1.0;"/></g><!--link AgendaRepository to Entry--><g id="link_AgendaRepository_Entry"><path codeLine="73" d="M428,782.0237 C428,805.6237 428,830.6237 428,861.9137 " fill="none" id="AgendaRepository-to-Entry" style="stroke:#181818;stroke-width:1.0;"/><polygon fill="#181818" points="428,867.9137,432,858.9137,428,862.9137,424,858.9137,428,867.9137" style="stroke:#181818;stroke-width:1.0;"/></g><!--link AuthenticationRepository to Employee--><g id="link_AuthenticationRepository_Employee"><path codeLine="74" d="M754.03,773.1237 C799.31,796.1837 852,823.0137 852,823.0137 C852,823.0137 888.4655,925.282 905.7455,973.762 " fill="none" id="AuthenticationRepository-to-Employee" style="stroke:#181818;stroke-width:1.0;"/><polygon fill="#181818" points="907.76,979.4137,908.5061,969.5931,906.0813,974.7039,900.9705,972.2791,907.76,979.4137" style="stroke:#181818;stroke-width:1.0;"/></g><!--link Employee to Entry--><g id="link_Employee_Entry"><path codeLine="76" d="M868.64,1003.5137 C857.81,1003.5137 851.99,1003.5137 840.19,1003.5137 " fill="none" id="Employee-to-Entry" style="stroke:#181818;stroke-width:1.0;"/><polygon fill="#181818" points="834.19,1003.5137,843.19,1007.5137,839.19,1003.5137,843.19,999.5137,834.19,1003.5137" style="stroke:#181818;stroke-width:1.0;"/></g><!--link CreateTeamToEntryUI to CreateTeamToEntryController--><g id="link_CreateTeamToEntryUI_CreateTeamToEntryController"><path codeLine="77" d="M690,184.3137 C690,217.7837 690,251.1537 690,281.8037 " fill="none" id="CreateTeamToEntryUI-to-CreateTeamToEntryController" style="stroke:#181818;stroke-width:1.0;"/><polygon fill="#181818" points="690,287.8037,694,278.8037,690,282.8037,686,278.8037,690,287.8037" style="stroke:#181818;stroke-width:1.0;"/><text fill="#000000" font-family="sans-serif" font-size="13" lengthAdjust="spacing" textLength="28" x="691" y="231.042">uses</text><text fill="#000000" font-family="sans-serif" font-size="13" lengthAdjust="spacing" textLength="7" x="682.6555" y="206.1572">1</text><text fill="#000000" font-family="sans-serif" font-size="13" lengthAdjust="spacing" textLength="7" x="682.5297" y="276.7028">1</text></g><!--link CreateTeamToEntryController to Repositorie--><g id="link_CreateTeamToEntryController_Repositorie"><path codeLine="78" d="M524,392.0437 C468.28,409.1737 420,424.0137 420,424.0137 C420,424.0137 376.12,457.494 330.42,492.364 " fill="none" id="CreateTeamToEntryController-to-Repositorie" style="stroke:#181818;stroke-width:1.0;stroke-dasharray:7.0,7.0;"/><polygon fill="#181818" points="325.65,496.0037,335.2315,493.7243,329.625,492.9707,330.3786,487.3642,325.65,496.0037" style="stroke:#181818;stroke-width:1.0;"/><text fill="#000000" font-family="sans-serif" font-size="13" lengthAdjust="spacing" textLength="96" x="421" y="439.042">gets repositories</text></g><!--link Repositorie to Repositorie--><g id="link_Repositorie_Repositorie"><path codeLine="79" d="M395.27,540.2337 C416.07,542.9737 430,548.5637 430,557.0137 C430,565.4637 422.0186,570.2701 401.2186,573.0101 " fill="none" id="Repositorie-to-Repositorie" style="stroke:#181818;stroke-width:1.0;"/><polygon fill="#181818" points="395.27,573.7937,404.7153,576.584,400.2272,573.1407,403.6705,568.6525,395.27,573.7937" style="stroke:#181818;stroke-width:1.0;"/><text fill="#000000" font-family="sans-serif" font-size="13" lengthAdjust="spacing" textLength="49" x="436" y="562.542">instance</text></g><!--link Repositorie to TeamRepository--><g id="link_Repositorie_TeamRepository"><path codeLine="80" d="M179.63,618.0437 C161.1,634.5537 146,648.0137 146,648.0137 C146,648.0137 146,667.0137 146,667.0137 C146,667.0137 150.1497,681.1367 155.6697,699.9367 " fill="none" id="Repositorie-to-TeamRepository" style="stroke:#181818;stroke-width:1.0;"/><polygon fill="#181818" points="157.36,705.6937,158.6625,695.9313,155.9514,700.8962,150.9865,698.1851,157.36,705.6937" style="stroke:#181818;stroke-width:1.0;"/><text fill="#000000" font-family="sans-serif" font-size="13" lengthAdjust="spacing" textLength="91" x="147" y="663.042">teamRepository</text><text fill="#000000" font-family="sans-serif" font-size="13" lengthAdjust="spacing" textLength="7" x="163.9927" y="640.5342">1</text><text fill="#000000" font-family="sans-serif" font-size="13" lengthAdjust="spacing" textLength="7" x="147.8552" y="694.7186">1</text></g><!--link Repositorie to AgendaRepository--><g id="link_Repositorie_AgendaRepository"><path codeLine="81" d="M264.68,618.2537 C272.09,643.4637 279,667.0137 279,667.0137 C279,667.0137 303.1406,678.5979 335.9206,694.3279 " fill="none" id="Repositorie-to-AgendaRepository" style="stroke:#181818;stroke-width:1.0;"/><polygon fill="#181818" points="341.33,696.9237,334.9464,689.4237,336.8221,694.7605,331.4853,696.6363,341.33,696.9237" style="stroke:#181818;stroke-width:1.0;"/><text fill="#000000" font-family="sans-serif" font-size="13" lengthAdjust="spacing" textLength="104" x="280" y="663.042">agendaRepository</text><text fill="#000000" font-family="sans-serif" font-size="13" lengthAdjust="spacing" textLength="7" x="259.3196" y="640.3345">1</text><text fill="#000000" font-family="sans-serif" font-size="13" lengthAdjust="spacing" textLength="7" x="319.9592" y="685.8134">1</text></g><!--link Repositorie to AuthenticationRepository--><g id="link_Repositorie_AuthenticationRepository"><path codeLine="82" d="M394.51,618.1137 C466.5,647.4437 544.7037,679.3092 604.6237,703.7292 " fill="none" id="Repositorie-to-AuthenticationRepository" style="stroke:#181818;stroke-width:1.0;"/><polygon fill="#181818" points="610.18,705.9937,603.3552,698.8928,605.5498,704.1066,600.3359,706.3012,610.18,705.9937" style="stroke:#181818;stroke-width:1.0;"/><text fill="#000000" font-family="sans-serif" font-size="13" lengthAdjust="spacing" textLength="91" x="509" y="663.042">teamRepository</text><text fill="#000000" font-family="sans-serif" font-size="13" lengthAdjust="spacing" textLength="7" x="403.2611" y="639.7439">1</text><text fill="#000000" font-family="sans-serif" font-size="13" lengthAdjust="spacing" textLength="7" x="586.7764" y="694.8153">1</text></g><!--link TeamRepository to Entry--><g id="link_TeamRepository_Entry"><path codeLine="83" d="M199.53,773.1637 C223.78,797.5137 254.4452,828.2932 289.6952,863.6732 " fill="none" id="TeamRepository-to-Entry" style="stroke:#181818;stroke-width:1.0;"/><polygon fill="#181818" points="293.93,867.9237,290.4114,858.7248,290.401,864.3816,284.7441,864.3712,293.93,867.9237" style="stroke:#181818;stroke-width:1.0;"/><text fill="#000000" font-family="sans-serif" font-size="13" lengthAdjust="spacing" textLength="7" x="197.701" y="794.7596">1</text></g><!--link CreateTeamToEntryController to Entry--><g id="link_CreateTeamToEntryController_Entry"><path codeLine="86" d="M743,392.1537 C772.77,420.8737 804,451.0137 804,451.0137 C804,451.0137 804,806.0137 804,806.0137 C804,806.0137 756.7177,830.7249 690.8677,865.1349 " fill="none" id="CreateTeamToEntryController-to-Entry" style="stroke:#181818;stroke-width:1.0;stroke-dasharray:7.0,7.0;"/><polygon fill="#181818" points="685.55,867.9137,695.3791,867.2906,689.9814,865.598,691.6741,860.2003,685.55,867.9137" style="stroke:#181818;stroke-width:1.0;"/></g><!--link CreateTeamToEntryController to AgendaRepository--><g id="link_CreateTeamToEntryController_AgendaRepository"><path codeLine="88" d="M650.95,392.1537 C629.01,420.8737 606,451.0137 606,451.0137 C606,451.0137 522,667.0137 522,667.0137 C522,667.0137 508.1355,677.5612 487.4555,693.2912 " fill="none" id="CreateTeamToEntryController-to-AgendaRepository" style="stroke:#181818;stroke-width:1.0;stroke-dasharray:7.0,7.0;"/><polygon fill="#181818" points="482.68,696.9237,492.2649,694.6587,486.6596,693.8966,487.4216,688.2914,482.68,696.9237" style="stroke:#181818;stroke-width:1.0;"/><text fill="#000000" font-family="sans-serif" font-size="13" lengthAdjust="spacing" textLength="74" x="607" y="562.542">add neWntry</text></g><!--SRC=[nLNVRzem47xFNs7r2THIRQyTGaBGJaZLD0sgFRl9BLXrxCnsL6Le__lEZZ5s252U1X8aTz_TTpzj_SP4JHMjI2M5pBTALa2CQY3JGLFJ_8sMi3Oj1w8WDrIKF0ReBItaEnCb-KMvZZMS2J1j3QIMlBKlaIxdLEkvCOgzDWPMkHHhzWV8fopxtX6IXHH6ISv1aUdqIV82r6osovmXMIYW1ZP0guryH5mReNSPmS-46DJ-W5fgPgHgoGFP90AFGYfHq0GtxuaSyfRaZjEnZTOOE6OiQ0LtnByKe7F5QiEa2B96eQ-yNKAf095C658qYdQOhoWJQomma38ytf5dcLE-H2fIu4zdj9MDkdC9kBJ6sL_yxYlrilf8XH2ryvceHep6-sVutO0so4U3J3Ul5Kj57cOzCT1ziQNnCXlOeObBML4c1i9p8OLMHULC9L5DKqLIMA-Ag-j5WoLEFMb3JQEzx51xi07QfyYvxO9_3Qs83JSCzmVzAMEVlXofSAmEYblo_qPfd2K354OTMplGgqWTEXQRX6aemQm4vYzo68rnaMBG0PAkeGCERAQ3zZVHWO_MyufKKgAm49QASwlKZkAPQJErhxDhdCyRiyMnORbhoe4cOdciQYvRW2SyQjUWDU96wJAVtXXlYa5V4rF_U4jJzlkyaHtkaBoRpPd7qgBu1k_Tk7RHPkSEu9lFDvF9pFwTB0dIO02BHYdKlcXGlXXd_TxVpq8LigF4BAMpo4wIEiZUGHOA6Wo7paoRnJwRSy4za4RZb5-AFzubLmEDPsYq9R7UqgPuvhShWSKHRlftNde9dhIR7z-2_OlnjEtf7lVOUz7jdNJ5poxtliDTWWtbKXH4m4zd_my0]--></g></svg>