<?xml version="1.0" encoding="us-ascii" standalone="no"?><svg xmlns="http://www.w3.org/2000/svg" xmlns:xlink="http://www.w3.org/1999/xlink" contentStyleType="text/css" height="1507.2px" preserveAspectRatio="none" style="width:1489px;height:1507px;background:#FFFFFF;" version="1.1" viewBox="0 0 1489 1507" width="1489.6px" zoomAndPan="magnify"><defs/><g><rect fill="#FFFFFF" height="1358.1719" style="stroke:#181818;stroke-width:0.8000000000000002;" width="8" x="90.8" y="74.8969"/><rect fill="#FFFFFF" height="375.4922" style="stroke:#181818;stroke-width:0.8000000000000002;" width="8" x="368.4" y="137.1953"/><rect fill="#FFFFFF" height="809.85" style="stroke:#181818;stroke-width:0.8000000000000002;" width="8" x="368.4" y="623.2188"/><rect fill="#FFFFFF" height="225.2953" style="stroke:#181818;stroke-width:0.8000000000000002;" width="8" x="646" y="162.2281"/><rect fill="#FFFFFF" height="483.6234" style="stroke:#181818;stroke-width:0.8000000000000002;" width="8" x="646" y="512.6875"/><rect fill="#FFFFFF" height="246.3281" style="stroke:#181818;stroke-width:0.8000000000000002;" width="8" x="646" y="1117.475"/><rect fill="#FFFFFF" height="25.0328" style="stroke:#181818;stroke-width:0.8000000000000002;" width="8" x="800.4" y="187.2609"/><rect fill="#FFFFFF" height="25.0328" style="stroke:#181818;stroke-width:0.8000000000000002;" width="8" x="800.4" y="237.3266"/><rect fill="#FFFFFF" height="25.0328" style="stroke:#181818;stroke-width:0.8000000000000002;" width="8" x="886" y="287.3922"/><rect fill="#FFFFFF" height="25.0328" style="stroke:#181818;stroke-width:0.8000000000000002;" width="8" x="886" y="648.2516"/><rect fill="#FFFFFF" height="25.0328" style="stroke:#181818;stroke-width:0.8000000000000002;" width="8" x="986.8" y="337.4578"/><rect fill="#FFFFFF" height="25.0328" style="stroke:#181818;stroke-width:0.8000000000000002;" width="8" x="986.8" y="869.5469"/><rect fill="#FFFFFF" height="25.0328" style="stroke:#181818;stroke-width:0.8000000000000002;" width="8" x="986.8" y="1313.7375"/><rect fill="#FFFFFF" height="60.4656" style="stroke:#181818;stroke-width:0.8000000000000002;" width="8" x="1370.8" y="537.7203"/><rect fill="#FFFFFF" height="25.0328" style="stroke:#181818;stroke-width:0.8000000000000002;" width="8" x="1444.4" y="698.3172"/><rect fill="#FFFFFF" height="25.0328" style="stroke:#181818;stroke-width:0.8000000000000002;" width="8" x="1444.4" y="1142.5078"/><rect fill="none" height="215.6953" style="stroke:#000000;stroke-width:1.2000000000000002;" width="1028.8" x="24" y="735.35"/><rect fill="none" height="369.0922" style="stroke:#000000;stroke-width:1.2000000000000002;" width="1468.8" x="16" y="1058.3766"/><rect fill="none" height="242.3281" style="stroke:#000000;stroke-width:1.2000000000000002;" width="1028.8" x="24" y="1179.5406"/><rect fill="none" height="15.4328" style="stroke:#000000;stroke-width:1.2000000000000002;" width="68.8" x="40" y="1400.8359"/><line style="stroke:#181818;stroke-width:0.4000000000000001;stroke-dasharray:5.0,5.0;" x1="94.4" x2="94.4" y1="66.8969" y2="1441.0688"/><line style="stroke:#181818;stroke-width:0.4000000000000001;stroke-dasharray:5.0,5.0;" x1="372.4" x2="372.4" y1="66.8969" y2="1441.0688"/><line style="stroke:#181818;stroke-width:0.4000000000000001;stroke-dasharray:5.0,5.0;" x1="650" x2="650" y1="66.8969" y2="1441.0688"/><line style="stroke:#181818;stroke-width:0.4000000000000001;stroke-dasharray:5.0,5.0;" x1="804" x2="804" y1="66.8969" y2="1441.0688"/><line style="stroke:#181818;stroke-width:0.4000000000000001;stroke-dasharray:5.0,5.0;" x1="889.6" x2="889.6" y1="66.8969" y2="1441.0688"/><line style="stroke:#181818;stroke-width:0.4000000000000001;stroke-dasharray:5.0,5.0;" x1="990.4" x2="990.4" y1="66.8969" y2="1441.0688"/><line style="stroke:#181818;stroke-width:0.4000000000000001;stroke-dasharray:5.0,5.0;" x1="1123.2" x2="1123.2" y1="66.8969" y2="1441.0688"/><line style="stroke:#181818;stroke-width:0.4000000000000001;stroke-dasharray:5.0,5.0;" x1="1240" x2="1240" y1="66.8969" y2="1441.0688"/><line style="stroke:#181818;stroke-width:0.4000000000000001;stroke-dasharray:5.0,5.0;" x1="1316.8" x2="1316.8" y1="66.8969" y2="1441.0688"/><line style="stroke:#181818;stroke-width:0.4000000000000001;stroke-dasharray:5.0,5.0;" x1="1374.4" x2="1374.4" y1="66.8969" y2="1441.0688"/><line style="stroke:#181818;stroke-width:0.4000000000000001;stroke-dasharray:5.0,5.0;" x1="1448" x2="1448" y1="66.8969" y2="1441.0688"/><text fill="#000000" font-family="sans-serif" font-size="11.2" lengthAdjust="spacing" textLength="120.8" x="32" y="64.0859">Green Spaces Manager</text><ellipse cx="94.8" cy="10.8" fill="#E3E3E3" rx="6.4" ry="6.4" style="stroke:#181818;stroke-width:0.4000000000000001;"/><path d="M94.8,17.2 L94.8,38.8 M84.4,23.6 L105.2,23.6 M94.8,38.8 L84.4,50.8 M94.8,38.8 L105.2,50.8 " fill="none" style="stroke:#181818;stroke-width:0.4000000000000001;"/><text fill="#000000" font-family="sans-serif" font-size="11.2" lengthAdjust="spacing" textLength="120.8" x="32" y="1452.3547">Green Spaces Manager</text><ellipse cx="94.8" cy="1461.9656" fill="#E3E3E3" rx="6.4" ry="6.4" style="stroke:#181818;stroke-width:0.4000000000000001;"/><path d="M94.8,1468.3656 L94.8,1489.9656 M84.4,1474.7656 L105.2,1474.7656 M94.8,1489.9656 L84.4,1501.9656 M94.8,1489.9656 L105.2,1501.9656 " fill="none" style="stroke:#181818;stroke-width:0.4000000000000001;"/><rect fill="#E3E3E3" height="26.0969" rx="2" ry="2" style="stroke:#181818;stroke-width:0.4000000000000001;" width="147.2" x="298.8" y="40"/><text fill="#000000" font-family="sans-serif" font-size="11.2" lengthAdjust="spacing" textLength="136" x="304.4" y="57.6859">:CreateAddTeamToEntryUI</text><rect fill="#E3E3E3" height="26.0969" rx="2" ry="2" style="stroke:#181818;stroke-width:0.4000000000000001;" width="147.2" x="298.8" y="1440.2688"/><text fill="#000000" font-family="sans-serif" font-size="11.2" lengthAdjust="spacing" textLength="136" x="304.4" y="1457.9547">:CreateAddTeamToEntryUI</text><rect fill="#E3E3E3" height="26.0969" rx="2" ry="2" style="stroke:#181818;stroke-width:0.4000000000000001;" width="187.2" x="556.4" y="40"/><text fill="#000000" font-family="sans-serif" font-size="11.2" lengthAdjust="spacing" textLength="176" x="562" y="57.6859">:CreateAddTeamToEntryController</text><rect fill="#E3E3E3" height="26.0969" rx="2" ry="2" style="stroke:#181818;stroke-width:0.4000000000000001;" width="187.2" x="556.4" y="1440.2688"/><text fill="#000000" font-family="sans-serif" font-size="11.2" lengthAdjust="spacing" textLength="176" x="562" y="1457.9547">:CreateAddTeamToEntryController</text><rect fill="#E3E3E3" height="26.0969" rx="2" ry="2" style="stroke:#181818;stroke-width:0.4000000000000001;" width="77.6" x="765.6" y="40"/><text fill="#000000" font-family="sans-serif" font-size="11.2" lengthAdjust="spacing" textLength="66.4" x="771.2" y="57.6859">:Repositories</text><rect fill="#E3E3E3" height="26.0969" rx="2" ry="2" style="stroke:#181818;stroke-width:0.4000000000000001;" width="77.6" x="765.6" y="1440.2688"/><text fill="#000000" font-family="sans-serif" font-size="11.2" lengthAdjust="spacing" textLength="66.4" x="771.2" y="1457.9547">:Repositories</text><rect fill="#E3E3E3" height="40.9938" rx="2" ry="2" style="stroke:#181818;stroke-width:0.4000000000000001;" width="77.6" x="851.2" y="25.1031"/><text fill="#000000" font-family="sans-serif" font-size="11.2" lengthAdjust="spacing" textLength="59.2" x="860.4" y="42.7891">repositories</text><text fill="#000000" font-family="sans-serif" font-size="11.2" lengthAdjust="spacing" textLength="66.4" x="856.8" y="57.6859">:Repositories</text><rect fill="#E3E3E3" height="40.9938" rx="2" ry="2" style="stroke:#181818;stroke-width:0.4000000000000001;" width="77.6" x="851.2" y="1440.2688"/><text fill="#000000" font-family="sans-serif" font-size="11.2" lengthAdjust="spacing" textLength="59.2" x="860.4" y="1457.9547">repositories</text><text fill="#000000" font-family="sans-serif" font-size="11.2" lengthAdjust="spacing" textLength="66.4" x="856.8" y="1472.8516">:Repositories</text><rect fill="#E3E3E3" height="40.9938" rx="2" ry="2" style="stroke:#181818;stroke-width:0.4000000000000001;" width="108" x="936.8" y="25.1031"/><text fill="#000000" font-family="sans-serif" font-size="11.2" lengthAdjust="spacing" textLength="93.6" x="944" y="42.7891">AgendaRepository</text><text fill="#000000" font-family="sans-serif" font-size="11.2" lengthAdjust="spacing" textLength="96.8" x="942.4" y="57.6859">:AgendaRepository</text><rect fill="#E3E3E3" height="40.9938" rx="2" ry="2" style="stroke:#181818;stroke-width:0.4000000000000001;" width="108" x="936.8" y="1440.2688"/><text fill="#000000" font-family="sans-serif" font-size="11.2" lengthAdjust="spacing" textLength="93.6" x="944" y="1457.9547">AgendaRepository</text><text fill="#000000" font-family="sans-serif" font-size="11.2" lengthAdjust="spacing" textLength="96.8" x="942.4" y="1472.8516">:AgendaRepository</text><rect fill="#E3E3E3" height="40.9938" rx="2" ry="2" style="stroke:#181818;stroke-width:0.4000000000000001;" width="140.8" x="1052.8" y="25.1031"/><text fill="#000000" font-family="sans-serif" font-size="11.2" lengthAdjust="spacing" textLength="125.6" x="1060.4" y="42.7891">authenticationRepository</text><text fill="#000000" font-family="sans-serif" font-size="11.2" lengthAdjust="spacing" textLength="129.6" x="1058.4" y="57.6859">:AuthenticationRepository</text><rect fill="#E3E3E3" height="40.9938" rx="2" ry="2" style="stroke:#181818;stroke-width:0.4000000000000001;" width="140.8" x="1052.8" y="1440.2688"/><text fill="#000000" font-family="sans-serif" font-size="11.2" lengthAdjust="spacing" textLength="125.6" x="1060.4" y="1457.9547">authenticationRepository</text><text fill="#000000" font-family="sans-serif" font-size="11.2" lengthAdjust="spacing" textLength="129.6" x="1058.4" y="1472.8516">:AuthenticationRepository</text><rect fill="#E3E3E3" height="40.9938" rx="2" ry="2" style="stroke:#181818;stroke-width:0.4000000000000001;" width="77.6" x="1201.6" y="25.1031"/><text fill="#000000" font-family="sans-serif" font-size="11.2" lengthAdjust="spacing" textLength="62.4" x="1209.2" y="42.7891">userSession</text><text fill="#000000" font-family="sans-serif" font-size="11.2" lengthAdjust="spacing" textLength="66.4" x="1207.2" y="57.6859">:UserSession</text><rect fill="#E3E3E3" height="40.9938" rx="2" ry="2" style="stroke:#181818;stroke-width:0.4000000000000001;" width="77.6" x="1201.6" y="1440.2688"/><text fill="#000000" font-family="sans-serif" font-size="11.2" lengthAdjust="spacing" textLength="62.4" x="1209.2" y="1457.9547">userSession</text><text fill="#000000" font-family="sans-serif" font-size="11.2" lengthAdjust="spacing" textLength="66.4" x="1207.2" y="1472.8516">:UserSession</text><rect fill="#E3E3E3" height="26.0969" rx="2" ry="2" style="stroke:#181818;stroke-width:0.4000000000000001;" width="59.2" x="1287.2" y="40"/><text fill="#000000" font-family="sans-serif" font-size="11.2" lengthAdjust="spacing" textLength="48" x="1292.8" y="57.6859">:Manager</text><rect fill="#E3E3E3" height="26.0969" rx="2" ry="2" style="stroke:#181818;stroke-width:0.4000000000000001;" width="59.2" x="1287.2" y="1440.2688"/><text fill="#000000" font-family="sans-serif" font-size="11.2" lengthAdjust="spacing" textLength="48" x="1292.8" y="1457.9547">:Manager</text><rect fill="#E3E3E3" height="26.0969" rx="2" ry="2" style="stroke:#181818;stroke-width:0.4000000000000001;" width="40.8" x="1354.4" y="40"/><text fill="#000000" font-family="sans-serif" font-size="11.2" lengthAdjust="spacing" textLength="29.6" x="1360" y="57.6859">:Entry</text><rect fill="#E3E3E3" height="26.0969" rx="2" ry="2" style="stroke:#181818;stroke-width:0.4000000000000001;" width="40.8" x="1354.4" y="1440.2688"/><text fill="#000000" font-family="sans-serif" font-size="11.2" lengthAdjust="spacing" textLength="29.6" x="1360" y="1457.9547">:Entry</text><rect fill="#E3E3E3" height="26.0969" rx="2" ry="2" style="stroke:#181818;stroke-width:0.4000000000000001;" width="56.8" x="1420" y="40"/><text fill="#000000" font-family="sans-serif" font-size="11.2" lengthAdjust="spacing" textLength="45.6" x="1425.6" y="57.6859">teamRep</text><rect fill="#E3E3E3" height="26.0969" rx="2" ry="2" style="stroke:#181818;stroke-width:0.4000000000000001;" width="56.8" x="1420" y="1440.2688"/><text fill="#000000" font-family="sans-serif" font-size="11.2" lengthAdjust="spacing" textLength="45.6" x="1425.6" y="1457.9547">teamRep</text><rect fill="#FFFFFF" height="1358.1719" style="stroke:#181818;stroke-width:0.8000000000000002;" width="8" x="90.8" y="74.8969"/><rect fill="#FFFFFF" height="375.4922" style="stroke:#181818;stroke-width:0.8000000000000002;" width="8" x="368.4" y="137.1953"/><rect fill="#FFFFFF" height="809.85" style="stroke:#181818;stroke-width:0.8000000000000002;" width="8" x="368.4" y="623.2188"/><rect fill="#FFFFFF" height="225.2953" style="stroke:#181818;stroke-width:0.8000000000000002;" width="8" x="646" y="162.2281"/><rect fill="#FFFFFF" height="483.6234" style="stroke:#181818;stroke-width:0.8000000000000002;" width="8" x="646" y="512.6875"/><rect fill="#FFFFFF" height="246.3281" style="stroke:#181818;stroke-width:0.8000000000000002;" width="8" x="646" y="1117.475"/><rect fill="#FFFFFF" height="25.0328" style="stroke:#181818;stroke-width:0.8000000000000002;" width="8" x="800.4" y="187.2609"/><rect fill="#FFFFFF" height="25.0328" style="stroke:#181818;stroke-width:0.8000000000000002;" width="8" x="800.4" y="237.3266"/><rect fill="#FFFFFF" height="25.0328" style="stroke:#181818;stroke-width:0.8000000000000002;" width="8" x="886" y="287.3922"/><rect fill="#FFFFFF" height="25.0328" style="stroke:#181818;stroke-width:0.8000000000000002;" width="8" x="886" y="648.2516"/><rect fill="#FFFFFF" height="25.0328" style="stroke:#181818;stroke-width:0.8000000000000002;" width="8" x="986.8" y="337.4578"/><rect fill="#FFFFFF" height="25.0328" style="stroke:#181818;stroke-width:0.8000000000000002;" width="8" x="986.8" y="869.5469"/><rect fill="#FFFFFF" height="25.0328" style="stroke:#181818;stroke-width:0.8000000000000002;" width="8" x="986.8" y="1313.7375"/><rect fill="#FFFFFF" height="60.4656" style="stroke:#181818;stroke-width:0.8000000000000002;" width="8" x="1370.8" y="537.7203"/><rect fill="#FFFFFF" height="25.0328" style="stroke:#181818;stroke-width:0.8000000000000002;" width="8" x="1444.4" y="698.3172"/><rect fill="#FFFFFF" height="25.0328" style="stroke:#181818;stroke-width:0.8000000000000002;" width="8" x="1444.4" y="1142.5078"/><path d="M808,78.8969 L808,114.0969 L885.6,114.0969 L885.6,86.8969 L877.6,78.8969 L808,78.8969 " fill="#FAFAFA" style="stroke:#181818;stroke-width:0.4000000000000001;"/><path d="M877.6,78.8969 L877.6,86.8969 L885.6,86.8969 L877.6,78.8969 " fill="#FAFAFA" style="stroke:#181818;stroke-width:0.4000000000000001;"/><text fill="#000000" font-family="sans-serif" font-size="10.4" lengthAdjust="spacing" textLength="60.8" x="812.8" y="94.1195">- Singleton is</text><text fill="#000000" font-family="sans-serif" font-size="10.4" lengthAdjust="spacing" textLength="28" x="812.8" y="107.9523">in use</text><polygon fill="#181818" points="358.8,133.9953,366.8,137.1953,358.8,140.3953,362,137.1953" style="stroke:#181818;stroke-width:0.8000000000000002;"/><line style="stroke:#181818;stroke-width:0.8000000000000002;" x1="98.8" x2="363.6" y1="137.1953" y2="137.1953"/><text fill="#000000" font-family="sans-serif" font-size="10.4" font-weight="bold" lengthAdjust="spacing" textLength="5.6" x="104.4" y="132.9852">1</text><text fill="#000000" font-family="sans-serif" font-size="10.4" lengthAdjust="spacing" textLength="208" x="113.2" y="132.9852">asks to add a team to an entry in the agenda</text><polygon fill="#181818" points="636.4,159.0281,644.4,162.2281,636.4,165.4281,639.6,162.2281" style="stroke:#181818;stroke-width:0.8000000000000002;"/><line style="stroke:#181818;stroke-width:0.8000000000000002;" x1="376.4" x2="641.2" y1="162.2281" y2="162.2281"/><text fill="#000000" font-family="sans-serif" font-size="10.4" font-weight="bold" lengthAdjust="spacing" textLength="5.6" x="382" y="158.018">2</text><text fill="#000000" font-family="sans-serif" font-size="10.4" lengthAdjust="spacing" textLength="28.8" x="390.8" y="158.018">create</text><polygon fill="#181818" points="790.8,184.0609,798.8,187.2609,790.8,190.4609,794,187.2609" style="stroke:#181818;stroke-width:0.8000000000000002;"/><line style="stroke:#181818;stroke-width:0.8000000000000002;" x1="654" x2="795.6" y1="187.2609" y2="187.2609"/><text fill="#000000" font-family="sans-serif" font-size="10.4" font-weight="bold" lengthAdjust="spacing" textLength="5.6" x="659.6" y="183.0508">3</text><text fill="#000000" font-family="sans-serif" font-size="10.4" lengthAdjust="spacing" textLength="60" x="668.4" y="183.0508">getInstance()</text><polygon fill="#181818" points="662.8,209.0938,654.8,212.2938,662.8,215.4938,659.6,212.2938" style="stroke:#181818;stroke-width:0.8000000000000002;"/><line style="stroke:#181818;stroke-width:0.8000000000000002;stroke-dasharray:2.0,2.0;" x1="658" x2="803.6" y1="212.2938" y2="212.2938"/><text fill="#000000" font-family="sans-serif" font-size="10.4" font-weight="bold" lengthAdjust="spacing" textLength="5.6" x="667.6" y="208.0836">4</text><text fill="#000000" font-family="sans-serif" font-size="10.4" lengthAdjust="spacing" textLength="53.6" x="676.4" y="208.0836">repositories</text><polygon fill="#181818" points="790.8,234.1266,798.8,237.3266,790.8,240.5266,794,237.3266" style="stroke:#181818;stroke-width:0.8000000000000002;"/><line style="stroke:#181818;stroke-width:0.8000000000000002;" x1="654" x2="795.6" y1="237.3266" y2="237.3266"/><text fill="#000000" font-family="sans-serif" font-size="10.4" font-weight="bold" lengthAdjust="spacing" textLength="5.6" x="659.6" y="233.1164">5</text><text fill="#000000" font-family="sans-serif" font-size="10.4" lengthAdjust="spacing" textLength="122.4" x="668.4" y="233.1164">getManagerFromSession()</text><polygon fill="#181818" points="662.8,259.1594,654.8,262.3594,662.8,265.5594,659.6,262.3594" style="stroke:#181818;stroke-width:0.8000000000000002;"/><line style="stroke:#181818;stroke-width:0.8000000000000002;stroke-dasharray:2.0,2.0;" x1="658" x2="803.6" y1="262.3594" y2="262.3594"/><text fill="#000000" font-family="sans-serif" font-size="10.4" font-weight="bold" lengthAdjust="spacing" textLength="5.6" x="667.6" y="258.1492">6</text><text fill="#000000" font-family="sans-serif" font-size="10.4" lengthAdjust="spacing" textLength="40" x="676.4" y="258.1492">manager</text><polygon fill="#181818" points="876.4,284.1922,884.4,287.3922,876.4,290.5922,879.6,287.3922" style="stroke:#181818;stroke-width:0.8000000000000002;"/><line style="stroke:#181818;stroke-width:0.8000000000000002;" x1="654" x2="881.2" y1="287.3922" y2="287.3922"/><text fill="#000000" font-family="sans-serif" font-size="10.4" font-weight="bold" lengthAdjust="spacing" textLength="5.6" x="659.6" y="283.182">7</text><text fill="#000000" font-family="sans-serif" font-size="10.4" lengthAdjust="spacing" textLength="105.6" x="668.4" y="283.182">getAgendaRepository()</text><polygon fill="#181818" points="662.8,309.225,654.8,312.425,662.8,315.625,659.6,312.425" style="stroke:#181818;stroke-width:0.8000000000000002;"/><line style="stroke:#181818;stroke-width:0.8000000000000002;stroke-dasharray:2.0,2.0;" x1="658" x2="889.2" y1="312.425" y2="312.425"/><text fill="#000000" font-family="sans-serif" font-size="10.4" font-weight="bold" lengthAdjust="spacing" textLength="5.6" x="667.6" y="308.2148">8</text><text fill="#000000" font-family="sans-serif" font-size="10.4" lengthAdjust="spacing" textLength="52" x="676.4" y="308.2148">agendaRep</text><polygon fill="#181818" points="977.2,334.2578,985.2,337.4578,977.2,340.6578,980.4,337.4578" style="stroke:#181818;stroke-width:0.8000000000000002;"/><line style="stroke:#181818;stroke-width:0.8000000000000002;" x1="654" x2="982" y1="337.4578" y2="337.4578"/><text fill="#000000" font-family="sans-serif" font-size="10.4" font-weight="bold" lengthAdjust="spacing" textLength="5.6" x="659.6" y="333.2477">9</text><text fill="#000000" font-family="sans-serif" font-size="10.4" lengthAdjust="spacing" textLength="65.6" x="668.4" y="333.2477">getAllEntries()</text><polygon fill="#181818" points="662.8,359.2906,654.8,362.4906,662.8,365.6906,659.6,362.4906" style="stroke:#181818;stroke-width:0.8000000000000002;"/><line style="stroke:#181818;stroke-width:0.8000000000000002;stroke-dasharray:2.0,2.0;" x1="658" x2="990" y1="362.4906" y2="362.4906"/><text fill="#000000" font-family="sans-serif" font-size="10.4" font-weight="bold" lengthAdjust="spacing" textLength="11.2" x="667.6" y="358.2805">10</text><text fill="#000000" font-family="sans-serif" font-size="10.4" lengthAdjust="spacing" textLength="31.2" x="682" y="358.2805">entries</text><polygon fill="#181818" points="385.2,384.3234,377.2,387.5234,385.2,390.7234,382,387.5234" style="stroke:#181818;stroke-width:0.8000000000000002;"/><line style="stroke:#181818;stroke-width:0.8000000000000002;stroke-dasharray:2.0,2.0;" x1="380.4" x2="649.2" y1="387.5234" y2="387.5234"/><text fill="#000000" font-family="sans-serif" font-size="10.4" font-weight="bold" lengthAdjust="spacing" textLength="11.2" x="390" y="383.3133">11</text><text fill="#000000" font-family="sans-serif" font-size="10.4" lengthAdjust="spacing" textLength="31.2" x="404.4" y="383.3133">entries</text><polygon fill="#181818" points="107.6,409.3563,99.6,412.5563,107.6,415.7563,104.4,412.5563" style="stroke:#181818;stroke-width:0.8000000000000002;"/><line style="stroke:#181818;stroke-width:0.8000000000000002;stroke-dasharray:2.0,2.0;" x1="102.8" x2="367.6" y1="412.5563" y2="412.5563"/><text fill="#000000" font-family="sans-serif" font-size="10.4" font-weight="bold" lengthAdjust="spacing" textLength="11.2" x="112.4" y="408.3461">12</text><text fill="#000000" font-family="sans-serif" font-size="10.4" lengthAdjust="spacing" textLength="200.8" x="126.8" y="408.3461">shows list of entries and asks to select one</text><polygon fill="#181818" points="358.8,434.3891,366.8,437.5891,358.8,440.7891,362,437.5891" style="stroke:#181818;stroke-width:0.8000000000000002;"/><line style="stroke:#181818;stroke-width:0.8000000000000002;" x1="98.8" x2="363.6" y1="437.5891" y2="437.5891"/><text fill="#000000" font-family="sans-serif" font-size="10.4" font-weight="bold" lengthAdjust="spacing" textLength="11.2" x="104.4" y="433.3789">13</text><text fill="#000000" font-family="sans-serif" font-size="10.4" lengthAdjust="spacing" textLength="60" x="118.8" y="433.3789">selects entry</text><polygon fill="#181818" points="107.6,459.4219,99.6,462.6219,107.6,465.8219,104.4,462.6219" style="stroke:#181818;stroke-width:0.8000000000000002;"/><line style="stroke:#181818;stroke-width:0.8000000000000002;stroke-dasharray:2.0,2.0;" x1="102.8" x2="367.6" y1="462.6219" y2="462.6219"/><text fill="#000000" font-family="sans-serif" font-size="10.4" font-weight="bold" lengthAdjust="spacing" textLength="11.2" x="112.4" y="458.4117">14</text><text fill="#000000" font-family="sans-serif" font-size="10.4" lengthAdjust="spacing" textLength="100.8" x="126.8" y="458.4117">asks to select a team</text><polygon fill="#181818" points="358.8,484.4547,366.8,487.6547,358.8,490.8547,362,487.6547" style="stroke:#181818;stroke-width:0.8000000000000002;"/><line style="stroke:#181818;stroke-width:0.8000000000000002;" x1="98.8" x2="363.6" y1="487.6547" y2="487.6547"/><text fill="#000000" font-family="sans-serif" font-size="10.4" font-weight="bold" lengthAdjust="spacing" textLength="11.2" x="104.4" y="483.4445">15</text><text fill="#000000" font-family="sans-serif" font-size="10.4" lengthAdjust="spacing" textLength="60" x="118.8" y="483.4445">selects team</text><polygon fill="#181818" points="636.4,509.4875,644.4,512.6875,636.4,515.8875,639.6,512.6875" style="stroke:#181818;stroke-width:0.8000000000000002;"/><line style="stroke:#181818;stroke-width:0.8000000000000002;stroke-dasharray:2.0,2.0;" x1="372.4" x2="641.2" y1="512.6875" y2="512.6875"/><text fill="#000000" font-family="sans-serif" font-size="10.4" font-weight="bold" lengthAdjust="spacing" textLength="11.2" x="378" y="508.4773">16</text><text fill="#000000" font-family="sans-serif" font-size="10.4" lengthAdjust="spacing" textLength="65.6" x="392.4" y="508.4773">team selected</text><polygon fill="#181818" points="1361.2,534.5203,1369.2,537.7203,1361.2,540.9203,1364.4,537.7203" style="stroke:#181818;stroke-width:0.8000000000000002;"/><line style="stroke:#181818;stroke-width:0.8000000000000002;" x1="654" x2="1366" y1="537.7203" y2="537.7203"/><text fill="#000000" font-family="sans-serif" font-size="10.4" font-weight="bold" lengthAdjust="spacing" textLength="11.2" x="659.6" y="533.5102">17</text><text fill="#000000" font-family="sans-serif" font-size="10.4" lengthAdjust="spacing" textLength="169.6" x="674" y="533.5102">addNewTeamToEntry(selectedTeam)</text><line style="stroke:#181818;stroke-width:0.8000000000000002;" x1="1378.8" x2="1412.4" y1="562.7531" y2="562.7531"/><line style="stroke:#181818;stroke-width:0.8000000000000002;" x1="1412.4" x2="1412.4" y1="562.7531" y2="573.1531"/><line style="stroke:#181818;stroke-width:0.8000000000000002;" x1="1379.6" x2="1412.4" y1="573.1531" y2="573.1531"/><polygon fill="#181818" points="1387.6,569.9531,1379.6,573.1531,1387.6,576.3531,1384.4,573.1531" style="stroke:#181818;stroke-width:0.8000000000000002;"/><text fill="#000000" font-family="sans-serif" font-size="10.4" font-weight="bold" lengthAdjust="spacing" textLength="11.2" x="1384.4" y="558.543">18</text><text fill="#000000" font-family="sans-serif" font-size="10.4" lengthAdjust="spacing" textLength="40" x="1398.8" y="558.543">validates</text><polygon fill="#181818" points="662.8,594.9859,654.8,598.1859,662.8,601.3859,659.6,598.1859" style="stroke:#181818;stroke-width:0.8000000000000002;"/><line style="stroke:#181818;stroke-width:0.8000000000000002;stroke-dasharray:2.0,2.0;" x1="658" x2="1374" y1="598.1859" y2="598.1859"/><text fill="#000000" font-family="sans-serif" font-size="10.4" font-weight="bold" lengthAdjust="spacing" textLength="11.2" x="667.6" y="593.9758">19</text><text fill="#000000" font-family="sans-serif" font-size="10.4" lengthAdjust="spacing" textLength="80" x="682" y="593.9758">newTeamToEntry</text><polygon fill="#181818" points="385.2,620.0188,377.2,623.2188,385.2,626.4188,382,623.2188" style="stroke:#181818;stroke-width:0.8000000000000002;"/><line style="stroke:#181818;stroke-width:0.8000000000000002;stroke-dasharray:2.0,2.0;" x1="380.4" x2="645.2" y1="623.2188" y2="623.2188"/><text fill="#000000" font-family="sans-serif" font-size="10.4" font-weight="bold" lengthAdjust="spacing" textLength="11.2" x="390" y="619.0086">20</text><text fill="#000000" font-family="sans-serif" font-size="10.4" lengthAdjust="spacing" textLength="80" x="404.4" y="619.0086">newTeamToEntry</text><polygon fill="#181818" points="876.4,645.0516,884.4,648.2516,876.4,651.4516,879.6,648.2516" style="stroke:#181818;stroke-width:0.8000000000000002;"/><line style="stroke:#181818;stroke-width:0.8000000000000002;" x1="654" x2="881.2" y1="648.2516" y2="648.2516"/><text fill="#000000" font-family="sans-serif" font-size="10.4" font-weight="bold" lengthAdjust="spacing" textLength="11.2" x="659.6" y="644.0414">21</text><text fill="#000000" font-family="sans-serif" font-size="10.4" lengthAdjust="spacing" textLength="96" x="674" y="644.0414">getTeamRepository()</text><polygon fill="#181818" points="662.8,670.0844,654.8,673.2844,662.8,676.4844,659.6,673.2844" style="stroke:#181818;stroke-width:0.8000000000000002;"/><line style="stroke:#181818;stroke-width:0.8000000000000002;stroke-dasharray:2.0,2.0;" x1="658" x2="889.2" y1="673.2844" y2="673.2844"/><text fill="#000000" font-family="sans-serif" font-size="10.4" font-weight="bold" lengthAdjust="spacing" textLength="11.2" x="667.6" y="669.0742">22</text><text fill="#000000" font-family="sans-serif" font-size="10.4" lengthAdjust="spacing" textLength="41.6" x="682" y="669.0742">teamRep</text><polygon fill="#181818" points="1434.8,695.1172,1442.8,698.3172,1434.8,701.5172,1438,698.3172" style="stroke:#181818;stroke-width:0.8000000000000002;"/><line style="stroke:#181818;stroke-width:0.8000000000000002;" x1="654" x2="1439.6" y1="698.3172" y2="698.3172"/><text fill="#000000" font-family="sans-serif" font-size="10.4" font-weight="bold" lengthAdjust="spacing" textLength="11.2" x="659.6" y="694.107">23</text><text fill="#000000" font-family="sans-serif" font-size="10.4" lengthAdjust="spacing" textLength="131.2" x="674" y="694.107">validateTeam(selectedTeam)</text><polygon fill="#181818" points="662.8,720.15,654.8,723.35,662.8,726.55,659.6,723.35" style="stroke:#181818;stroke-width:0.8000000000000002;"/><line style="stroke:#181818;stroke-width:0.8000000000000002;stroke-dasharray:2.0,2.0;" x1="658" x2="1447.6" y1="723.35" y2="723.35"/><text fill="#000000" font-family="sans-serif" font-size="10.4" font-weight="bold" lengthAdjust="spacing" textLength="11.2" x="667.6" y="719.1398">24</text><text fill="#000000" font-family="sans-serif" font-size="10.4" lengthAdjust="spacing" textLength="72" x="682" y="719.1398">validationResult</text><path d="M24,735.35 L72.8,735.35 L72.8,742.7828 L64.8,750.7828 L24,750.7828 L24,735.35 " fill="#EEEEEE" style="stroke:#000000;stroke-width:1.2000000000000002;"/><rect fill="none" height="215.6953" style="stroke:#000000;stroke-width:1.2000000000000002;" width="1028.8" x="24" y="735.35"/><text fill="#000000" font-family="sans-serif" font-size="10.4" font-weight="bold" lengthAdjust="spacing" textLength="12.8" x="36" y="747.3727">alt</text><text fill="#000000" font-family="sans-serif" font-size="8.8" font-weight="bold" lengthAdjust="spacing" textLength="81.6" x="84.8" y="746.4461">[Team is available]</text><polygon fill="#181818" points="385.2,766.2156,377.2,769.4156,385.2,772.6156,382,769.4156" style="stroke:#181818;stroke-width:0.8000000000000002;"/><line style="stroke:#181818;stroke-width:0.8000000000000002;stroke-dasharray:2.0,2.0;" x1="380.4" x2="645.2" y1="769.4156" y2="769.4156"/><text fill="#000000" font-family="sans-serif" font-size="10.4" font-weight="bold" lengthAdjust="spacing" textLength="11.2" x="390" y="765.2055">25</text><text fill="#000000" font-family="sans-serif" font-size="10.4" lengthAdjust="spacing" textLength="46.4" x="404.4" y="765.2055">valid team</text><polygon fill="#181818" points="107.6,791.2484,99.6,794.4484,107.6,797.6484,104.4,794.4484" style="stroke:#181818;stroke-width:0.8000000000000002;"/><line style="stroke:#181818;stroke-width:0.8000000000000002;stroke-dasharray:2.0,2.0;" x1="102.8" x2="367.6" y1="794.4484" y2="794.4484"/><text fill="#000000" font-family="sans-serif" font-size="10.4" font-weight="bold" lengthAdjust="spacing" textLength="11.2" x="112.4" y="790.2383">26</text><text fill="#000000" font-family="sans-serif" font-size="10.4" lengthAdjust="spacing" textLength="175.2" x="126.8" y="790.2383">display data and asks for confirmation</text><polygon fill="#181818" points="358.8,816.2813,366.8,819.4813,358.8,822.6813,362,819.4813" style="stroke:#181818;stroke-width:0.8000000000000002;"/><line style="stroke:#181818;stroke-width:0.8000000000000002;" x1="98.8" x2="363.6" y1="819.4813" y2="819.4813"/><text fill="#000000" font-family="sans-serif" font-size="10.4" font-weight="bold" lengthAdjust="spacing" textLength="11.2" x="104.4" y="815.2711">27</text><text fill="#000000" font-family="sans-serif" font-size="10.4" lengthAdjust="spacing" textLength="62.4" x="118.8" y="815.2711">confirms data</text><polygon fill="#181818" points="636.4,841.3141,644.4,844.5141,636.4,847.7141,639.6,844.5141" style="stroke:#181818;stroke-width:0.8000000000000002;"/><line style="stroke:#181818;stroke-width:0.8000000000000002;" x1="376.4" x2="641.2" y1="844.5141" y2="844.5141"/><text fill="#000000" font-family="sans-serif" font-size="10.4" font-weight="bold" lengthAdjust="spacing" textLength="11.2" x="382" y="840.3039">28</text><text fill="#000000" font-family="sans-serif" font-size="10.4" lengthAdjust="spacing" textLength="66.4" x="396.4" y="840.3039">add new Entry</text><polygon fill="#181818" points="977.2,866.3469,985.2,869.5469,977.2,872.7469,980.4,869.5469" style="stroke:#181818;stroke-width:0.8000000000000002;"/><line style="stroke:#181818;stroke-width:0.8000000000000002;" x1="654" x2="982" y1="869.5469" y2="869.5469"/><text fill="#000000" font-family="sans-serif" font-size="10.4" font-weight="bold" lengthAdjust="spacing" textLength="11.2" x="659.6" y="865.3367">29</text><text fill="#000000" font-family="sans-serif" font-size="10.4" lengthAdjust="spacing" textLength="104.8" x="674" y="865.3367">addNewTeamToEntry()</text><polygon fill="#181818" points="662.8,891.3797,654.8,894.5797,662.8,897.7797,659.6,894.5797" style="stroke:#181818;stroke-width:0.8000000000000002;"/><line style="stroke:#181818;stroke-width:0.8000000000000002;" x1="658" x2="990" y1="894.5797" y2="894.5797"/><text fill="#000000" font-family="sans-serif" font-size="10.4" font-weight="bold" lengthAdjust="spacing" textLength="11.2" x="667.6" y="890.3695">30</text><text fill="#000000" font-family="sans-serif" font-size="10.4" lengthAdjust="spacing" textLength="80" x="682" y="890.3695">newTeamToEntry</text><polygon fill="#181818" points="385.2,916.4125,377.2,919.6125,385.2,922.8125,382,919.6125" style="stroke:#181818;stroke-width:0.8000000000000002;"/><line style="stroke:#181818;stroke-width:0.8000000000000002;stroke-dasharray:2.0,2.0;" x1="380.4" x2="645.2" y1="919.6125" y2="919.6125"/><text fill="#000000" font-family="sans-serif" font-size="10.4" font-weight="bold" lengthAdjust="spacing" textLength="11.2" x="390" y="915.4023">31</text><text fill="#000000" font-family="sans-serif" font-size="10.4" lengthAdjust="spacing" textLength="80" x="404.4" y="915.4023">newTeamToEntry</text><polygon fill="#181818" points="107.6,941.4453,99.6,944.6453,107.6,947.8453,104.4,944.6453" style="stroke:#181818;stroke-width:0.8000000000000002;"/><line style="stroke:#181818;stroke-width:0.8000000000000002;" x1="102.8" x2="367.6" y1="944.6453" y2="944.6453"/><text fill="#000000" font-family="sans-serif" font-size="10.4" font-weight="bold" lengthAdjust="spacing" textLength="11.2" x="112.4" y="940.4352">32</text><text fill="#000000" font-family="sans-serif" font-size="10.4" lengthAdjust="spacing" textLength="126.4" x="126.8" y="940.4352">displays success message</text><polygon fill="#181818" points="385.2,993.1109,377.2,996.3109,385.2,999.5109,382,996.3109" style="stroke:#181818;stroke-width:0.8000000000000002;"/><line style="stroke:#181818;stroke-width:0.8000000000000002;stroke-dasharray:2.0,2.0;" x1="380.4" x2="649.2" y1="996.3109" y2="996.3109"/><text fill="#000000" font-family="sans-serif" font-size="10.4" font-weight="bold" lengthAdjust="spacing" textLength="11.2" x="390" y="992.1008">33</text><text fill="#000000" font-family="sans-serif" font-size="10.4" lengthAdjust="spacing" textLength="236" x="404.4" y="992.1008">team not valid (already assigned in that time range)</text><polygon fill="#181818" points="107.6,1018.1438,99.6,1021.3438,107.6,1024.5438,104.4,1021.3438" style="stroke:#181818;stroke-width:0.8000000000000002;"/><line style="stroke:#181818;stroke-width:0.8000000000000002;stroke-dasharray:2.0,2.0;" x1="102.8" x2="367.6" y1="1021.3438" y2="1021.3438"/><text fill="#000000" font-family="sans-serif" font-size="10.4" font-weight="bold" lengthAdjust="spacing" textLength="11.2" x="112.4" y="1017.1336">34</text><text fill="#000000" font-family="sans-serif" font-size="10.4" lengthAdjust="spacing" textLength="236" x="126.8" y="1017.1336">team not valid (already assigned in that time range)</text><polygon fill="#181818" points="107.6,1043.1766,99.6,1046.3766,107.6,1049.5766,104.4,1046.3766" style="stroke:#181818;stroke-width:0.8000000000000002;"/><line style="stroke:#181818;stroke-width:0.8000000000000002;stroke-dasharray:2.0,2.0;" x1="102.8" x2="367.6" y1="1046.3766" y2="1046.3766"/><text fill="#000000" font-family="sans-serif" font-size="10.4" font-weight="bold" lengthAdjust="spacing" textLength="11.2" x="112.4" y="1042.1664">35</text><text fill="#000000" font-family="sans-serif" font-size="10.4" lengthAdjust="spacing" textLength="168.8" x="126.8" y="1042.1664">ask the GSM to select another team</text><path d="M16,1058.3766 L74.4,1058.3766 L74.4,1065.8094 L66.4,1073.8094 L16,1073.8094 L16,1058.3766 " fill="#EEEEEE" style="stroke:#000000;stroke-width:1.2000000000000002;"/><rect fill="none" height="369.0922" style="stroke:#000000;stroke-width:1.2000000000000002;" width="1468.8" x="16" y="1058.3766"/><text fill="#000000" font-family="sans-serif" font-size="10.4" font-weight="bold" lengthAdjust="spacing" textLength="22.4" x="28" y="1070.3992">loop</text><polygon fill="#181818" points="358.8,1089.2422,366.8,1092.4422,358.8,1095.6422,362,1092.4422" style="stroke:#181818;stroke-width:0.8000000000000002;"/><line style="stroke:#181818;stroke-width:0.8000000000000002;" x1="98.8" x2="363.6" y1="1092.4422" y2="1092.4422"/><text fill="#000000" font-family="sans-serif" font-size="10.4" font-weight="bold" lengthAdjust="spacing" textLength="11.2" x="104.4" y="1088.232">36</text><text fill="#000000" font-family="sans-serif" font-size="10.4" lengthAdjust="spacing" textLength="60" x="118.8" y="1088.232">selects team</text><polygon fill="#181818" points="636.4,1114.275,644.4,1117.475,636.4,1120.675,639.6,1117.475" style="stroke:#181818;stroke-width:0.8000000000000002;"/><line style="stroke:#181818;stroke-width:0.8000000000000002;stroke-dasharray:2.0,2.0;" x1="376.4" x2="641.2" y1="1117.475" y2="1117.475"/><text fill="#000000" font-family="sans-serif" font-size="10.4" font-weight="bold" lengthAdjust="spacing" textLength="11.2" x="382" y="1113.2648">37</text><text fill="#000000" font-family="sans-serif" font-size="10.4" lengthAdjust="spacing" textLength="65.6" x="396.4" y="1113.2648">team selected</text><polygon fill="#181818" points="1434.8,1139.3078,1442.8,1142.5078,1434.8,1145.7078,1438,1142.5078" style="stroke:#181818;stroke-width:0.8000000000000002;"/><line style="stroke:#181818;stroke-width:0.8000000000000002;" x1="654" x2="1439.6" y1="1142.5078" y2="1142.5078"/><text fill="#000000" font-family="sans-serif" font-size="10.4" font-weight="bold" lengthAdjust="spacing" textLength="11.2" x="659.6" y="1138.2977">38</text><text fill="#000000" font-family="sans-serif" font-size="10.4" lengthAdjust="spacing" textLength="131.2" x="674" y="1138.2977">validateTeam(selectedTeam)</text><polygon fill="#181818" points="662.8,1164.3406,654.8,1167.5406,662.8,1170.7406,659.6,1167.5406" style="stroke:#181818;stroke-width:0.8000000000000002;"/><line style="stroke:#181818;stroke-width:0.8000000000000002;stroke-dasharray:2.0,2.0;" x1="658" x2="1447.6" y1="1167.5406" y2="1167.5406"/><text fill="#000000" font-family="sans-serif" font-size="10.4" font-weight="bold" lengthAdjust="spacing" textLength="11.2" x="667.6" y="1163.3305">39</text><text fill="#000000" font-family="sans-serif" font-size="10.4" lengthAdjust="spacing" textLength="72" x="682" y="1163.3305">validationResult</text><path d="M24,1179.5406 L72.8,1179.5406 L72.8,1186.9734 L64.8,1194.9734 L24,1194.9734 L24,1179.5406 " fill="#EEEEEE" style="stroke:#000000;stroke-width:1.2000000000000002;"/><rect fill="none" height="242.3281" style="stroke:#000000;stroke-width:1.2000000000000002;" width="1028.8" x="24" y="1179.5406"/><text fill="#000000" font-family="sans-serif" font-size="10.4" font-weight="bold" lengthAdjust="spacing" textLength="12.8" x="36" y="1191.5633">alt</text><text fill="#000000" font-family="sans-serif" font-size="8.8" font-weight="bold" lengthAdjust="spacing" textLength="81.6" x="84.8" y="1190.6367">[Team is available]</text><polygon fill="#181818" points="385.2,1210.4063,377.2,1213.6063,385.2,1216.8063,382,1213.6063" style="stroke:#181818;stroke-width:0.8000000000000002;"/><line style="stroke:#181818;stroke-width:0.8000000000000002;stroke-dasharray:2.0,2.0;" x1="380.4" x2="645.2" y1="1213.6063" y2="1213.6063"/><text fill="#000000" font-family="sans-serif" font-size="10.4" font-weight="bold" lengthAdjust="spacing" textLength="11.2" x="390" y="1209.3961">40</text><text fill="#000000" font-family="sans-serif" font-size="10.4" lengthAdjust="spacing" textLength="46.4" x="404.4" y="1209.3961">valid team</text><polygon fill="#181818" points="107.6,1235.4391,99.6,1238.6391,107.6,1241.8391,104.4,1238.6391" style="stroke:#181818;stroke-width:0.8000000000000002;"/><line style="stroke:#181818;stroke-width:0.8000000000000002;stroke-dasharray:2.0,2.0;" x1="102.8" x2="367.6" y1="1238.6391" y2="1238.6391"/><text fill="#000000" font-family="sans-serif" font-size="10.4" font-weight="bold" lengthAdjust="spacing" textLength="11.2" x="112.4" y="1234.4289">41</text><text fill="#000000" font-family="sans-serif" font-size="10.4" lengthAdjust="spacing" textLength="175.2" x="126.8" y="1234.4289">display data and asks for confirmation</text><polygon fill="#181818" points="358.8,1260.4719,366.8,1263.6719,358.8,1266.8719,362,1263.6719" style="stroke:#181818;stroke-width:0.8000000000000002;"/><line style="stroke:#181818;stroke-width:0.8000000000000002;" x1="98.8" x2="363.6" y1="1263.6719" y2="1263.6719"/><text fill="#000000" font-family="sans-serif" font-size="10.4" font-weight="bold" lengthAdjust="spacing" textLength="11.2" x="104.4" y="1259.4617">42</text><text fill="#000000" font-family="sans-serif" font-size="10.4" lengthAdjust="spacing" textLength="62.4" x="118.8" y="1259.4617">confirms data</text><polygon fill="#181818" points="636.4,1285.5047,644.4,1288.7047,636.4,1291.9047,639.6,1288.7047" style="stroke:#181818;stroke-width:0.8000000000000002;"/><line style="stroke:#181818;stroke-width:0.8000000000000002;" x1="376.4" x2="641.2" y1="1288.7047" y2="1288.7047"/><text fill="#000000" font-family="sans-serif" font-size="10.4" font-weight="bold" lengthAdjust="spacing" textLength="11.2" x="382" y="1284.4945">43</text><text fill="#000000" font-family="sans-serif" font-size="10.4" lengthAdjust="spacing" textLength="66.4" x="396.4" y="1284.4945">add new Entry</text><polygon fill="#181818" points="977.2,1310.5375,985.2,1313.7375,977.2,1316.9375,980.4,1313.7375" style="stroke:#181818;stroke-width:0.8000000000000002;"/><line style="stroke:#181818;stroke-width:0.8000000000000002;" x1="654" x2="982" y1="1313.7375" y2="1313.7375"/><text fill="#000000" font-family="sans-serif" font-size="10.4" font-weight="bold" lengthAdjust="spacing" textLength="11.2" x="659.6" y="1309.5273">44</text><text fill="#000000" font-family="sans-serif" font-size="10.4" lengthAdjust="spacing" textLength="104.8" x="674" y="1309.5273">addNewTeamToEntry()</text><polygon fill="#181818" points="662.8,1335.5703,654.8,1338.7703,662.8,1341.9703,659.6,1338.7703" style="stroke:#181818;stroke-width:0.8000000000000002;"/><line style="stroke:#181818;stroke-width:0.8000000000000002;" x1="658" x2="990" y1="1338.7703" y2="1338.7703"/><text fill="#000000" font-family="sans-serif" font-size="10.4" font-weight="bold" lengthAdjust="spacing" textLength="11.2" x="667.6" y="1334.5602">45</text><text fill="#000000" font-family="sans-serif" font-size="10.4" lengthAdjust="spacing" textLength="80" x="682" y="1334.5602">newTeamToEntry</text><polygon fill="#181818" points="385.2,1360.6031,377.2,1363.8031,385.2,1367.0031,382,1363.8031" style="stroke:#181818;stroke-width:0.8000000000000002;"/><line style="stroke:#181818;stroke-width:0.8000000000000002;stroke-dasharray:2.0,2.0;" x1="380.4" x2="649.2" y1="1363.8031" y2="1363.8031"/><text fill="#000000" font-family="sans-serif" font-size="10.4" font-weight="bold" lengthAdjust="spacing" textLength="11.2" x="390" y="1359.593">46</text><text fill="#000000" font-family="sans-serif" font-size="10.4" lengthAdjust="spacing" textLength="80" x="404.4" y="1359.593">newTeamToEntry</text><polygon fill="#181818" points="107.6,1385.6359,99.6,1388.8359,107.6,1392.0359,104.4,1388.8359" style="stroke:#181818;stroke-width:0.8000000000000002;"/><line style="stroke:#181818;stroke-width:0.8000000000000002;" x1="102.8" x2="367.6" y1="1388.8359" y2="1388.8359"/><text fill="#000000" font-family="sans-serif" font-size="10.4" font-weight="bold" lengthAdjust="spacing" textLength="11.2" x="112.4" y="1384.6258">47</text><text fill="#000000" font-family="sans-serif" font-size="10.4" lengthAdjust="spacing" textLength="126.4" x="126.8" y="1384.6258">displays success message</text><path d="M40,1400.8359 L104.8,1400.8359 L104.8,1408.2688 L96.8,1416.2688 L40,1416.2688 L40,1400.8359 " fill="#EEEEEE" style="stroke:#000000;stroke-width:1.2000000000000002;"/><rect fill="none" height="15.4328" style="stroke:#000000;stroke-width:1.2000000000000002;" width="68.8" x="40" y="1400.8359"/><text fill="#000000" font-family="sans-serif" font-size="10.4" font-weight="bold" lengthAdjust="spacing" textLength="28.8" x="52" y="1412.8586">break</text><!--SRC=[dLR1RkCW4Btp5QYdzj0Vw66bgkfsSsYxgflRIXKramG5GsH8g_pz3jZOW77hD0V7mBmtCFDciDaBTM0jQsYZbQvthMw0slO8n0mh1rRlsHOgUv90MwWjKriP6vWTu_fJg2tTC6c047QqMXsRTsZnlRQwfHSFBO2Y5NA1eOzC8M5xGPcX3zKZGHehQd5WojABcxiMc8LRpb-1DQ_wNjdsj5vvu_LgWUsTngUMidTG3yCC-m87RGJkJe3nbaQuW-7MKyCsilkdfZ1SJm6tMr2S3NOd1ELJ7iZ2P0h7wEr0uPXPeLLACxFawMxNht_UNkx_FgTqHmDj1SOW01dMuwYBQFNoLjrNrUhvAGjFdAIcUyyiVBJzkdyZH6cB2X7RdQLw4uMJuk-QLc5CXV5JGb7S7C4WK8VqMX4Vc4yl2e8FUlqBSqvlqCVUKAifuvmoQZ7PVgGeEC-E2GFJ1tIaGRaGX2F9A08agxreHhD88IGoHDXm14HjmQwKGV7NS7arWiTJaj7wEdSPQuXmAA6_zDmdupVMPv-zy_SGahZ4FUwtSvmBDtRhX4-SvSJLgEp8cJTFtGnslJCfdP8mHh6RaOoCzXENq05ZXn4mTXiqLK34Id32GLEdmXjiSVhJK2cCLtQFHFtnGPa69BP6gXMaoktcJIVKZ3N3Ti8kelr202VdzhNGcG6FpuBYNw1mNxbkAvm_mMVKHIy3fvkBij6NUeUB23wO51mDJ5ZADweI-dYdFMKfHnaegUmPnJhxS_LgEymtQksjeiCwNtE12fmam2PUUnRVoSrHsjZzW6RIKiUCJPEo3oOaUyVBrxNFKhmyPQSMPvAeZGjpaEn4qIKRfRl1sncPDg9j_5OyBfPWlsWyRc3D2nxxCkQgJsM-kxJGfrAxyeX2tVhfiUQ_LfGpBbR_NB0A-EXyIT3mu-1OuwSBNeNuG6ftQwN9mIjiGO9ykJhJBbENJE9bn4-O2oEs2dXtbJ5BhS0liHO_jU0gFrbKpPCa_vW_Rqp-GdMZg3yXxmuFCyXBQjr5DzTCqhQ2mVVTArZEdNIggqKbEQ4DnHKMbbTeG9GgTN0pMx6bCynKRXQqiokub9Lf9STUlgteSWQMLFOa0Mbj3ildL7eX4sNMXPLVu2keRt5xY07lM8BxOSOrZl3lcqXwPqSZznNy7m00]--></g></svg>