<?xml version="1.0" encoding="us-ascii" standalone="no"?><svg xmlns="http://www.w3.org/2000/svg" xmlns:xlink="http://www.w3.org/1999/xlink" contentStyleType="text/css" height="573.6px" preserveAspectRatio="none" style="width:840px;height:573px;background:#FFFFFF;" version="1.1" viewBox="0 0 840 573" width="840px" zoomAndPan="magnify"><defs/><g><!--cluster Controller--><g id="cluster_Controller"><path d="M232.5,150.6082 L275.7,150.6082 A2.25,2.25 0 0 1 277.2,152.1082 L281.4,165.3809 L807.9,165.3809 A1.5,1.5 0 0 1 809.4,166.8809 L809.4,243.3082 A1.5,1.5 0 0 1 807.9,244.8082 L232.5,244.8082 A1.5,1.5 0 0 1 231,243.3082 L231,152.1082 A1.5,1.5 0 0 1 232.5,150.6082 " fill="none" style="stroke:#000000;stroke-width:0.8999999999999999;"/><line style="stroke:#000000;stroke-width:0.8999999999999999;" x1="231" x2="281.4" y1="165.3809" y2="165.3809"/><text fill="#000000" font-family="sans-serif" font-size="8.4" font-weight="bold" lengthAdjust="spacing" textLength="42.6" x="233.4" y="160.8727">Controller</text></g><!--cluster UI--><g id="cluster_UI"><path d="M459.9,3.6082 L468.9,3.6082 A2.25,2.25 0 0 1 470.4,5.1082 L474.6,18.3809 L580.5,18.3809 A1.5,1.5 0 0 1 582,19.8809 L582,118.5082 A1.5,1.5 0 0 1 580.5,120.0082 L459.9,120.0082 A1.5,1.5 0 0 1 458.4,118.5082 L458.4,5.1082 A1.5,1.5 0 0 1 459.9,3.6082 " fill="none" style="stroke:#000000;stroke-width:0.8999999999999999;"/><line style="stroke:#000000;stroke-width:0.8999999999999999;" x1="458.4" x2="474.6" y1="18.3809" y2="18.3809"/><text fill="#000000" font-family="sans-serif" font-size="8.4" font-weight="bold" lengthAdjust="spacing" textLength="8.4" x="460.8" y="13.8727">UI</text></g><!--cluster Domain--><g id="cluster_Domain"><path d="M5.1,275.4082 L36.9,275.4082 A2.25,2.25 0 0 1 38.4,276.9082 L42.6,290.1809 L508.5,290.1809 A1.5,1.5 0 0 1 510,291.6809 L510,468.3082 A1.5,1.5 0 0 1 508.5,469.8082 L5.1,469.8082 A1.5,1.5 0 0 1 3.6,468.3082 L3.6,276.9082 A1.5,1.5 0 0 1 5.1,275.4082 " fill="none" style="stroke:#000000;stroke-width:0.8999999999999999;"/><line style="stroke:#000000;stroke-width:0.8999999999999999;" x1="3.6" x2="42.6" y1="290.1809" y2="290.1809"/><text fill="#000000" font-family="sans-serif" font-size="8.4" font-weight="bold" lengthAdjust="spacing" textLength="31.2" x="6" y="285.6727">Domain</text></g><!--cluster Repositories--><g id="cluster_Repositories"><path d="M525.9,320.1082 L580.5,320.1082 A2.25,2.25 0 0 1 582,321.6082 L586.2,334.8809 L834.3,334.8809 A1.5,1.5 0 0 1 835.8,336.3809 L835.8,567.9082 A1.5,1.5 0 0 1 834.3,569.4082 L525.9,569.4082 A1.5,1.5 0 0 1 524.4,567.9082 L524.4,321.6082 A1.5,1.5 0 0 1 525.9,320.1082 " fill="none" style="stroke:#000000;stroke-width:0.8999999999999999;"/><line style="stroke:#000000;stroke-width:0.8999999999999999;" x1="524.4" x2="586.2" y1="334.8809" y2="334.8809"/><text fill="#000000" font-family="sans-serif" font-size="8.4" font-weight="bold" lengthAdjust="spacing" textLength="54" x="526.8" y="330.3727">Repositories</text></g><!--class CreateTeamToEntryController--><g id="elem_CreateTeamToEntryController"><rect codeLine="8" fill="#F1F1F1" height="62.318" id="CreateTeamToEntryController" rx="1.5" ry="1.5" style="stroke:#181818;stroke-width:0.3;" width="558.6" x="240.9" y="172.8082"/><ellipse cx="460.35" cy="182.4082" fill="#C2C2C2" rx="6.6" ry="6.6" style="stroke:#181818;stroke-width:0.6;"/><path d="M462.0094,179.9332 Q462.1031,179.802 462.2156,179.7363 Q462.3281,179.6707 462.4594,179.6707 Q462.6844,179.6707 462.825,179.8301 Q462.9656,179.9801 462.9656,180.3457 L462.9656,181.2176 Q462.9656,181.5832 462.825,181.7426 Q462.6844,181.902 462.4594,181.902 Q462.2531,181.902 462.1312,181.7801 Q462.0094,181.6676 461.9437,181.3582 Q461.9156,181.1426 461.8031,181.0301 Q461.6063,180.8051 461.2406,180.6738 Q460.875,180.5426 460.5,180.5426 Q460.0406,180.5426 459.6563,180.7395 Q459.2813,180.9363 458.9813,181.3863 Q458.6906,181.8363 458.6906,182.4551 L458.6906,183.1113 Q458.6906,183.852 459.225,184.3488 Q459.7594,184.8363 460.7156,184.8363 Q461.2781,184.8363 461.6719,184.6863 Q461.9063,184.5926 462.1594,184.3301 Q462.3187,184.1707 462.4031,184.1238 Q462.4969,184.077 462.6188,184.077 Q462.8156,184.077 462.9656,184.2363 Q463.125,184.3863 463.125,184.5926 Q463.125,184.7988 462.9188,185.0426 Q462.6188,185.3895 462.1406,185.5863 Q461.4938,185.8582 460.7156,185.8582 Q459.8063,185.8582 459.0844,185.4832 Q458.4938,185.1832 458.0813,184.5457 Q457.6688,183.8988 457.6688,183.1301 L457.6688,182.4363 Q457.6688,181.6395 458.0344,180.9551 Q458.4094,180.2613 459.0656,179.8957 Q459.7219,179.5207 460.4625,179.5207 Q460.9031,179.5207 461.2875,179.6238 Q461.6813,179.7176 462.0094,179.9332 Z " fill="#000000"/><text fill="#000000" font-family="sans-serif" font-size="8.4" lengthAdjust="spacing" textLength="114.6" x="472.65" y="185.8863">CreateTeamToEntryController</text><line style="stroke:#181818;stroke-width:0.3;" x1="241.5" x2="798.9" y1="192.0082" y2="192.0082"/><text fill="#000000" font-family="sans-serif" font-size="8.4" lengthAdjust="spacing" textLength="132" x="244.5" y="203.4727">-teamRepository : TeamRepository</text><text fill="#000000" font-family="sans-serif" font-size="8.4" lengthAdjust="spacing" textLength="150" x="244.5" y="214.6453">-agendaRepository : AgendaRepository</text><line style="stroke:#181818;stroke-width:0.3;" x1="241.5" x2="798.9" y1="219.1535" y2="219.1535"/><text fill="#000000" font-family="sans-serif" font-size="8.4" lengthAdjust="spacing" textLength="551.4" x="244.5" y="230.618">+createEntry(String name, String description, String urgencyDegree, int duration, GreenSpace greenSpace, LocalDate date, int hour, Team team)</text></g><!--class CreateTeamToEntryUI--><g id="elem_CreateTeamToEntryUI"><rect codeLine="15" fill="#F1F1F1" height="84.6633" id="CreateTeamToEntryUI" rx="1.5" ry="1.5" style="stroke:#181818;stroke-width:0.3;" width="103.8" x="468.3" y="25.8082"/><ellipse cx="477.3" cy="35.4082" fill="#C2C2C2" rx="6.6" ry="6.6" style="stroke:#181818;stroke-width:0.6;"/><path d="M478.9594,32.9332 Q479.0531,32.802 479.1656,32.7363 Q479.2781,32.6707 479.4094,32.6707 Q479.6344,32.6707 479.775,32.8301 Q479.9156,32.9801 479.9156,33.3457 L479.9156,34.2176 Q479.9156,34.5832 479.775,34.7426 Q479.6344,34.902 479.4094,34.902 Q479.2031,34.902 479.0812,34.7801 Q478.9594,34.6676 478.8937,34.3582 Q478.8656,34.1426 478.7531,34.0301 Q478.5563,33.8051 478.1906,33.6738 Q477.825,33.5426 477.45,33.5426 Q476.9906,33.5426 476.6063,33.7395 Q476.2313,33.9363 475.9313,34.3863 Q475.6406,34.8363 475.6406,35.4551 L475.6406,36.1113 Q475.6406,36.852 476.175,37.3488 Q476.7094,37.8363 477.6656,37.8363 Q478.2281,37.8363 478.6219,37.6863 Q478.8563,37.5926 479.1094,37.3301 Q479.2687,37.1707 479.3531,37.1238 Q479.4469,37.077 479.5687,37.077 Q479.7656,37.077 479.9156,37.2363 Q480.075,37.3863 480.075,37.5926 Q480.075,37.7988 479.8688,38.0426 Q479.5687,38.3895 479.0906,38.5863 Q478.4437,38.8582 477.6656,38.8582 Q476.7562,38.8582 476.0344,38.4832 Q475.4437,38.1832 475.0313,37.5457 Q474.6188,36.8988 474.6188,36.1301 L474.6188,35.4363 Q474.6188,34.6395 474.9844,33.9551 Q475.3594,33.2613 476.0156,32.8957 Q476.6719,32.5207 477.4125,32.5207 Q477.8531,32.5207 478.2375,32.6238 Q478.6312,32.7176 478.9594,32.9332 Z " fill="#000000"/><text fill="#000000" font-family="sans-serif" font-size="8.4" lengthAdjust="spacing" textLength="84.6" x="485.7" y="38.8863">CreateTeamToEntryUI</text><line style="stroke:#181818;stroke-width:0.3;" x1="468.9" x2="571.5" y1="45.0082" y2="45.0082"/><line style="stroke:#181818;stroke-width:0.3;" x1="468.9" x2="571.5" y1="49.8082" y2="49.8082"/><text fill="#000000" font-family="sans-serif" font-size="8.4" lengthAdjust="spacing" textLength="23.4" x="471.9" y="61.2727">+run()</text><text fill="#000000" font-family="sans-serif" font-size="8.4" lengthAdjust="spacing" textLength="57.6" x="471.9" y="72.4453">+requestData()</text><text fill="#000000" font-family="sans-serif" font-size="8.4" lengthAdjust="spacing" textLength="53.4" x="471.9" y="83.618">+submitData()</text><text fill="#000000" font-family="sans-serif" font-size="8.4" lengthAdjust="spacing" textLength="66" x="471.9" y="94.7906">+requestEntries()</text><text fill="#000000" font-family="sans-serif" font-size="8.4" lengthAdjust="spacing" textLength="61.2" x="471.9" y="105.9633">+requestTeam()</text></g><!--class Entry--><g id="elem_Entry"><rect codeLine="26" fill="#F1F1F1" height="162.8719" id="Entry" rx="1.5" ry="1.5" style="stroke:#181818;stroke-width:0.3;" width="487.2" x="13.2" y="297.6082"/><ellipse cx="244.35" cy="307.2082" fill="#C2C2C2" rx="6.6" ry="6.6" style="stroke:#181818;stroke-width:0.6;"/><path d="M246.0094,304.7332 Q246.1031,304.602 246.2156,304.5363 Q246.3281,304.4707 246.4594,304.4707 Q246.6844,304.4707 246.825,304.6301 Q246.9656,304.7801 246.9656,305.1457 L246.9656,306.0176 Q246.9656,306.3832 246.825,306.5426 Q246.6844,306.702 246.4594,306.702 Q246.2531,306.702 246.1313,306.5801 Q246.0094,306.4676 245.9438,306.1582 Q245.9156,305.9426 245.8031,305.8301 Q245.6063,305.6051 245.2406,305.4738 Q244.875,305.3426 244.5,305.3426 Q244.0406,305.3426 243.6563,305.5395 Q243.2813,305.7363 242.9813,306.1863 Q242.6906,306.6363 242.6906,307.2551 L242.6906,307.9113 Q242.6906,308.652 243.225,309.1488 Q243.7594,309.6363 244.7156,309.6363 Q245.2781,309.6363 245.6719,309.4863 Q245.9063,309.3926 246.1594,309.1301 Q246.3188,308.9707 246.4031,308.9238 Q246.4969,308.877 246.6187,308.877 Q246.8156,308.877 246.9656,309.0363 Q247.125,309.1863 247.125,309.3926 Q247.125,309.5988 246.9188,309.8426 Q246.6187,310.1895 246.1406,310.3863 Q245.4937,310.6582 244.7156,310.6582 Q243.8062,310.6582 243.0844,310.2832 Q242.4937,309.9832 242.0812,309.3457 Q241.6688,308.6988 241.6688,307.9301 L241.6688,307.2363 Q241.6688,306.4395 242.0344,305.7551 Q242.4094,305.0613 243.0656,304.6957 Q243.7219,304.3207 244.4625,304.3207 Q244.9031,304.3207 245.2875,304.4238 Q245.6812,304.5176 246.0094,304.7332 Z " fill="#000000"/><text fill="#000000" font-family="sans-serif" font-size="8.4" lengthAdjust="spacing" textLength="19.8" x="256.65" y="310.6863">Entry</text><line style="stroke:#181818;stroke-width:0.3;" x1="13.8" x2="499.8" y1="316.8082" y2="316.8082"/><text fill="#000000" font-family="sans-serif" font-size="8.4" lengthAdjust="spacing" textLength="48.6" x="16.8" y="328.2727">-String name</text><text fill="#000000" font-family="sans-serif" font-size="8.4" lengthAdjust="spacing" textLength="69" x="16.8" y="339.4453">-String description</text><text fill="#000000" font-family="sans-serif" font-size="8.4" lengthAdjust="spacing" textLength="86.4" x="16.8" y="350.618">-String urgencyDegree</text><text fill="#000000" font-family="sans-serif" font-size="8.4" lengthAdjust="spacing" textLength="45.6" x="16.8" y="361.7906">-int duration</text><text fill="#000000" font-family="sans-serif" font-size="8.4" lengthAdjust="spacing" textLength="99.6" x="16.8" y="372.9633">-GreenSpace greenSpace</text><text fill="#000000" font-family="sans-serif" font-size="8.4" lengthAdjust="spacing" textLength="50.4" x="16.8" y="384.1359">-String status</text><text fill="#000000" font-family="sans-serif" font-size="8.4" lengthAdjust="spacing" textLength="81" x="16.8" y="395.3086">-LocalDate entryDate</text><text fill="#000000" font-family="sans-serif" font-size="8.4" lengthAdjust="spacing" textLength="31.8" x="16.8" y="406.4813">-int hour</text><text fill="#000000" font-family="sans-serif" font-size="8.4" lengthAdjust="spacing" textLength="45.6" x="16.8" y="417.6539">-Team team</text><text fill="#000000" font-family="sans-serif" font-size="8.4" lengthAdjust="spacing" textLength="82.2" x="16.8" y="428.8266">-LocalTime startTime;</text><text fill="#000000" font-family="sans-serif" font-size="8.4" lengthAdjust="spacing" textLength="79.8" x="16.8" y="439.9992">-LocalTime endTime;</text><line style="stroke:#181818;stroke-width:0.3;" x1="13.8" x2="499.8" y1="444.5074" y2="444.5074"/><text fill="#000000" font-family="sans-serif" font-size="8.4" lengthAdjust="spacing" textLength="480" x="16.8" y="455.9719">+Entry(String name, String description, String urgencyDegree, int duration, GreenSpace greenSpace, LocalDate date, int hour)</text></g><!--class Repositorie--><g id="elem_Repositorie"><rect codeLine="43" fill="#F1F1F1" height="73.4906" id="Repositorie" rx="1.5" ry="1.5" style="stroke:#181818;stroke-width:0.3;" width="177.6" x="534" y="342.3082"/><ellipse cx="598.65" cy="351.9082" fill="#C2C2C2" rx="6.6" ry="6.6" style="stroke:#181818;stroke-width:0.6;"/><path d="M600.3094,349.4332 Q600.4031,349.302 600.5156,349.2363 Q600.6281,349.1707 600.7594,349.1707 Q600.9844,349.1707 601.125,349.3301 Q601.2656,349.4801 601.2656,349.8457 L601.2656,350.7176 Q601.2656,351.0832 601.125,351.2426 Q600.9844,351.402 600.7594,351.402 Q600.5531,351.402 600.4313,351.2801 Q600.3094,351.1676 600.2438,350.8582 Q600.2156,350.6426 600.1031,350.5301 Q599.9063,350.3051 599.5406,350.1738 Q599.175,350.0426 598.8,350.0426 Q598.3406,350.0426 597.9563,350.2395 Q597.5813,350.4363 597.2813,350.8863 Q596.9906,351.3363 596.9906,351.9551 L596.9906,352.6113 Q596.9906,353.352 597.525,353.8488 Q598.0594,354.3363 599.0156,354.3363 Q599.5781,354.3363 599.9719,354.1863 Q600.2063,354.0926 600.4594,353.8301 Q600.6188,353.6707 600.7031,353.6238 Q600.7969,353.577 600.9187,353.577 Q601.1156,353.577 601.2656,353.7363 Q601.425,353.8863 601.425,354.0926 Q601.425,354.2988 601.2188,354.5426 Q600.9187,354.8895 600.4406,355.0863 Q599.7937,355.3582 599.0156,355.3582 Q598.1062,355.3582 597.3844,354.9832 Q596.7937,354.6832 596.3813,354.0457 Q595.9688,353.3988 595.9688,352.6301 L595.9688,351.9363 Q595.9688,351.1395 596.3344,350.4551 Q596.7094,349.7613 597.3656,349.3957 Q598.0219,349.0207 598.7625,349.0207 Q599.2031,349.0207 599.5875,349.1238 Q599.9812,349.2176 600.3094,349.4332 Z " fill="#000000"/><text fill="#000000" font-family="sans-serif" font-size="8.4" lengthAdjust="spacing" textLength="43.2" x="610.95" y="355.3863">Repositorie</text><line style="stroke:#181818;stroke-width:0.3;" x1="534.6" x2="711" y1="361.5082" y2="361.5082"/><line style="stroke:#181818;stroke-width:0.3;" x1="534.6" x2="711" y1="366.3082" y2="366.3082"/><text fill="#000000" font-family="sans-serif" font-size="8.4" lengthAdjust="spacing" textLength="56.4" x="537.6" y="377.7727">-Repositories()</text><text fill="#000000" font-family="sans-serif" font-size="8.4" lengthAdjust="spacing" textLength="109.2" x="537.6" y="388.9453">+getInstance() : Repositories</text><text fill="#000000" font-family="sans-serif" font-size="8.4" lengthAdjust="spacing" textLength="154.8" x="537.6" y="400.118">+getTeamRepository() : TeamRepository</text><text fill="#000000" font-family="sans-serif" font-size="8.4" lengthAdjust="spacing" textLength="170.4" x="537.6" y="411.2906">+getAgendaRepository() : AgendaRepository</text></g><!--class TeamRepository--><g id="elem_TeamRepository"><rect codeLine="51" fill="#F1F1F1" height="39.9727" id="TeamRepository" rx="1.5" ry="1.5" style="stroke:#181818;stroke-width:0.3;" width="116.4" x="534" y="514.2082"/><ellipse cx="558.66" cy="523.8082" fill="#C2C2C2" rx="6.6" ry="6.6" style="stroke:#181818;stroke-width:0.6;"/><path d="M560.3194,521.3332 Q560.4131,521.202 560.5256,521.1363 Q560.6381,521.0707 560.7694,521.0707 Q560.9944,521.0707 561.135,521.2301 Q561.2756,521.3801 561.2756,521.7457 L561.2756,522.6176 Q561.2756,522.9832 561.135,523.1426 Q560.9944,523.302 560.7694,523.302 Q560.5631,523.302 560.4413,523.1801 Q560.3194,523.0676 560.2538,522.7582 Q560.2256,522.5426 560.1131,522.4301 Q559.9163,522.2051 559.5506,522.0738 Q559.185,521.9426 558.81,521.9426 Q558.3506,521.9426 557.9663,522.1395 Q557.5913,522.3363 557.2913,522.7863 Q557.0006,523.2363 557.0006,523.8551 L557.0006,524.5113 Q557.0006,525.252 557.535,525.7488 Q558.0694,526.2363 559.0256,526.2363 Q559.5881,526.2363 559.9819,526.0863 Q560.2163,525.9926 560.4694,525.7301 Q560.6288,525.5707 560.7131,525.5238 Q560.8069,525.477 560.9288,525.477 Q561.1256,525.477 561.2756,525.6363 Q561.435,525.7863 561.435,525.9926 Q561.435,526.1988 561.2288,526.4426 Q560.9288,526.7895 560.4506,526.9863 Q559.8038,527.2582 559.0256,527.2582 Q558.1163,527.2582 557.3944,526.8832 Q556.8038,526.5832 556.3913,525.9457 Q555.9788,525.2988 555.9788,524.5301 L555.9788,523.8363 Q555.9788,523.0395 556.3444,522.3551 Q556.7194,521.6613 557.3756,521.2957 Q558.0319,520.9207 558.7725,520.9207 Q559.2131,520.9207 559.5975,521.0238 Q559.9913,521.1176 560.3194,521.3332 Z " fill="#000000"/><text fill="#000000" font-family="sans-serif" font-size="8.4" lengthAdjust="spacing" textLength="62.4" x="570.54" y="527.2863">TeamRepository</text><line style="stroke:#181818;stroke-width:0.3;" x1="534.6" x2="649.8" y1="533.4082" y2="533.4082"/><line style="stroke:#181818;stroke-width:0.3;" x1="534.6" x2="649.8" y1="538.2082" y2="538.2082"/><text fill="#000000" font-family="sans-serif" font-size="8.4" lengthAdjust="spacing" textLength="109.2" x="537.6" y="549.6727">+getAllTeams() : List&lt;Team&gt;</text></g><!--class AgendaRepository--><g id="elem_AgendaRepository"><rect codeLine="57" fill="#F1F1F1" height="51.1453" id="AgendaRepository" rx="1.5" ry="1.5" style="stroke:#181818;stroke-width:0.3;" width="154.8" x="671.4" y="508.8082"/><ellipse cx="711.15" cy="518.4082" fill="#C2C2C2" rx="6.6" ry="6.6" style="stroke:#181818;stroke-width:0.6;"/><path d="M712.8094,515.9332 Q712.9031,515.802 713.0156,515.7363 Q713.1281,515.6707 713.2594,515.6707 Q713.4844,515.6707 713.625,515.8301 Q713.7656,515.9801 713.7656,516.3457 L713.7656,517.2176 Q713.7656,517.5832 713.625,517.7426 Q713.4844,517.902 713.2594,517.902 Q713.0531,517.902 712.9313,517.7801 Q712.8094,517.6676 712.7438,517.3582 Q712.7156,517.1426 712.6031,517.0301 Q712.4063,516.8051 712.0406,516.6738 Q711.675,516.5426 711.3,516.5426 Q710.8406,516.5426 710.4563,516.7395 Q710.0813,516.9363 709.7813,517.3863 Q709.4906,517.8363 709.4906,518.4551 L709.4906,519.1113 Q709.4906,519.852 710.025,520.3488 Q710.5594,520.8363 711.5156,520.8363 Q712.0781,520.8363 712.4719,520.6863 Q712.7063,520.5926 712.9594,520.3301 Q713.1188,520.1707 713.2031,520.1238 Q713.2969,520.077 713.4187,520.077 Q713.6156,520.077 713.7656,520.2363 Q713.925,520.3863 713.925,520.5926 Q713.925,520.7988 713.7188,521.0426 Q713.4187,521.3895 712.9406,521.5863 Q712.2937,521.8582 711.5156,521.8582 Q710.6062,521.8582 709.8844,521.4832 Q709.2937,521.1832 708.8813,520.5457 Q708.4688,519.8988 708.4688,519.1301 L708.4688,518.4363 Q708.4688,517.6395 708.8344,516.9551 Q709.2094,516.2613 709.8656,515.8957 Q710.5219,515.5207 711.2625,515.5207 Q711.7031,515.5207 712.0875,515.6238 Q712.4812,515.7176 712.8094,515.9332 Z " fill="#000000"/><text fill="#000000" font-family="sans-serif" font-size="8.4" lengthAdjust="spacing" textLength="70.2" x="723.45" y="521.8863">AgendaRepository</text><line style="stroke:#181818;stroke-width:0.3;" x1="672" x2="825.6" y1="528.0082" y2="528.0082"/><line style="stroke:#181818;stroke-width:0.3;" x1="672" x2="825.6" y1="532.8082" y2="532.8082"/><text fill="#000000" font-family="sans-serif" font-size="8.4" lengthAdjust="spacing" textLength="147.6" x="675" y="544.2727">+getAllEntriesToAgenda() : List&lt;Entry&gt;</text><text fill="#000000" font-family="sans-serif" font-size="8.4" lengthAdjust="spacing" textLength="60.6" x="675" y="555.4453">+addNewEntry()</text></g><!--link CreateTeamToEntryUI to CreateTeamToEntryController--><g id="link_CreateTeamToEntryUI_CreateTeamToEntryController"><path codeLine="63" d="M520.2,110.5882 C520.2,130.6702 520.2,150.6922 520.2,169.0822 " fill="none" id="CreateTeamToEntryUI-to-CreateTeamToEntryController" style="stroke:#181818;stroke-width:0.6;"/><polygon fill="#181818" points="520.2,172.6822,522.6,167.2822,520.2,169.6822,517.8,167.2822,520.2,172.6822" style="stroke:#181818;stroke-width:0.6;"/><text fill="#000000" font-family="sans-serif" font-size="7.8" lengthAdjust="spacing" textLength="16.8" x="520.8" y="138.6252">uses</text><text fill="#000000" font-family="sans-serif" font-size="7.8" lengthAdjust="spacing" textLength="4.2" x="515.7933" y="123.6943">1</text><text fill="#000000" font-family="sans-serif" font-size="7.8" lengthAdjust="spacing" textLength="4.2" x="515.7178" y="166.0217">1</text></g><!--link CreateTeamToEntryController to Repositorie--><g id="link_CreateTeamToEntryController_Repositorie"><path codeLine="64" d="M538.308,235.2622 C555.966,265.1602 580.9971,307.5346 599.6751,339.1546 " fill="none" id="CreateTeamToEntryController-to-Repositorie" style="stroke:#181818;stroke-width:0.6;stroke-dasharray:7.0,7.0;"/><polygon fill="#181818" points="601.506,342.2542,600.826,336.3841,599.9802,339.6712,596.6932,338.8254,601.506,342.2542" style="stroke:#181818;stroke-width:0.6;"/><text fill="#000000" font-family="sans-serif" font-size="7.8" lengthAdjust="spacing" textLength="57.6" x="556.8" y="263.4252">gets repositories</text></g><!--link Repositorie to Repositorie--><g id="link_Repositorie_Repositorie"><path codeLine="65" d="M711.762,361.1902 C724.242,364.0822 732.6,369.9862 732.6,378.9082 C732.6,387.8302 727.7491,392.9215 715.2691,395.8135 " fill="none" id="Repositorie-to-Repositorie" style="stroke:#181818;stroke-width:0.6;"/><polygon fill="#181818" points="711.762,396.6262,717.5644,397.7452,714.6846,395.949,716.4808,393.0691,711.762,396.6262" style="stroke:#181818;stroke-width:0.6;"/><text fill="#000000" font-family="sans-serif" font-size="7.8" lengthAdjust="spacing" textLength="29.4" x="736.2" y="382.2252">instance</text></g><!--link Repositorie to TeamRepository--><g id="link_Repositorie_TeamRepository"><path codeLine="66" d="M615.624,415.6642 C609.534,446.3722 601.7147,485.7651 596.8067,510.4971 " fill="none" id="Repositorie-to-TeamRepository" style="stroke:#181818;stroke-width:0.6;"/><polygon fill="#181818" points="596.106,514.0282,599.5112,509.1987,596.69,511.0856,594.803,508.2643,596.106,514.0282" style="stroke:#181818;stroke-width:0.6;"/><text fill="#000000" font-family="sans-serif" font-size="7.8" lengthAdjust="spacing" textLength="54.6" x="603" y="488.4252">teamRepository</text><text fill="#000000" font-family="sans-serif" font-size="7.8" lengthAdjust="spacing" textLength="4.2" x="610.3515" y="428.9141">1</text><text fill="#000000" font-family="sans-serif" font-size="7.8" lengthAdjust="spacing" textLength="4.2" x="592.2503" y="507.4454">1</text></g><!--link Repositorie to AgendaRepository--><g id="link_Repositorie_AgendaRepository"><path codeLine="67" d="M652.344,415.6642 C675.69,444.2362 705.3981,480.5925 726.0141,505.8225 " fill="none" id="Repositorie-to-AgendaRepository" style="stroke:#181818;stroke-width:0.6;"/><polygon fill="#181818" points="728.292,508.6102,726.7336,502.9101,726.3938,506.2871,723.0167,505.9473,728.292,508.6102" style="stroke:#181818;stroke-width:0.6;"/><text fill="#000000" font-family="sans-serif" font-size="7.8" lengthAdjust="spacing" textLength="62.4" x="711.6" y="488.4252">agendaRepository</text><text fill="#000000" font-family="sans-serif" font-size="7.8" lengthAdjust="spacing" textLength="4.2" x="651.3172" y="428.9141">1</text><text fill="#000000" font-family="sans-serif" font-size="7.8" lengthAdjust="spacing" textLength="4.2" x="720.6302" y="502.1135">1</text></g><!--link CreateTeamToEntryController to Entry--><g id="link_CreateTeamToEntryController_Entry"><path codeLine="69" d="M452.328,235.2262 C429.54,245.5042 409.8,254.4082 409.8,254.4082 C409.8,254.4082 388.4299,271.7148 359.2999,295.3008 " fill="none" id="CreateTeamToEntryController-to-Entry" style="stroke:#181818;stroke-width:0.6;stroke-dasharray:7.0,7.0;"/><polygon fill="#181818" points="356.502,297.5662,362.2091,296.0334,358.8336,295.6784,359.1885,292.3029,356.502,297.5662" style="stroke:#181818;stroke-width:0.6;"/><text fill="#000000" font-family="sans-serif" font-size="7.8" lengthAdjust="spacing" textLength="57.6" x="410.4" y="263.4252">create new entry</text></g><!--link Entry to CreateTeamToEntryController--><g id="link_Entry_CreateTeamToEntryController"><path codeLine="70" d="M410.478,297.5962 C444.672,279.6382 471,265.8082 471,265.8082 C471,265.8082 480.9484,253.4339 493.2004,238.1939 " fill="none" id="Entry-to-CreateTeamToEntryController" style="stroke:#181818;stroke-width:0.6;"/><polygon fill="#181818" points="495.456,235.3882,490.2021,238.093,493.5763,237.7263,493.943,241.1006,495.456,235.3882" style="stroke:#181818;stroke-width:0.6;"/><text fill="#000000" font-family="sans-serif" font-size="7.8" lengthAdjust="spacing" textLength="32.4" x="479.4" y="263.4252">newEntry</text></g><!--link CreateTeamToEntryController to AgendaRepository--><g id="link_CreateTeamToEntryController_AgendaRepository"><path codeLine="71" d="M636.048,235.2442 C701.286,252.4942 769.8,270.6082 769.8,270.6082 C769.8,270.6082 779.4,479.4082 779.4,479.4082 C779.4,479.4082 779.4,490.8082 779.4,490.8082 C779.4,490.8082 775.4245,496.3854 768.6925,505.8234 " fill="none" id="CreateTeamToEntryController-to-AgendaRepository" style="stroke:#181818;stroke-width:0.6;stroke-dasharray:7.0,7.0;"/><polygon fill="#181818" points="766.602,508.7542,771.6917,505.7516,768.3441,506.3118,767.7839,502.9643,766.602,508.7542" style="stroke:#181818;stroke-width:0.6;"/><text fill="#000000" font-family="sans-serif" font-size="7.8" lengthAdjust="spacing" textLength="44.4" x="779.4" y="382.2252">add neWntry</text></g><!--SRC=[nLJVQzim47xtNt7qAQ59sLwpO0ZDDW9bZCLZpwfzSqHjoPDaWXVsl-yaguxak6dtj0GIwUwx-qxtIpznqJ35QgYbaFb1oHh1g1OJFMWQbZ-n4lUcgn0KveQ9iWe1-i0AUUIYX9-iqg6cuW9Dro0qikhi9T3b5TDwOupYZwt1NIx5dlz6U9SaNtj2k9V2A5bLg62z_YIh0bMQdX9d2FSAcS4CMPt9ZuJh0lGf0VeimP3s6pPISoDL1ol88e574PKeM8JRZ4GEUGkvutHiipq5JYyMhCO5-4k1EbUyCLoAGTOgyfLtMomL4f8B0qMhM8_vJ3AnfmGZbCDn0GyoPzMMgA2Wdzxe85krS0zmpvedV-ZxdAdlkxTaY50d_nBLYjdy-Oo_MjI6-DWWq-rZpMEHXrbF7FLOR6cyp0PsBk9MreoBYV1SI4EfWdJ6aY2diI9Ah5U5sVMYoHJ7dhHXfjLUTiuzsW3jAN1kg-2lGob2mupJ_90_PUpfmuMAskgik8N_rqhp96gWeTMfj1Er2jH3nKAJeHjAD3j1xnSvpkOqI27e38d7q04d9jD1nvFem1VZ-GzFYOc6WR1KLMMLsb4yS6tMzfewvs_rFevivDyFJoPxt9d9DKBgiQmelk2nxur-pfEfMRvvVmFBPUh-hst35RIQidyDSdUNHZLUsNWrpNPGlL1lQMCyzrMFO664sNWNnylvHRlDvNOUB-parRVrksRb5pW8FFRJdVGAotKzWyBNurMcgN2BWkn_EFE_]--></g></svg>