<?xml version="1.0" encoding="us-ascii" standalone="no"?><svg xmlns="http://www.w3.org/2000/svg" xmlns:xlink="http://www.w3.org/1999/xlink" contentStyleType="text/css" height="1188px" preserveAspectRatio="none" style="width:1117px;height:1188px;background:#FFFFFF;" version="1.1" viewBox="0 0 1117 1188" width="1117.2px" zoomAndPan="magnify"><defs/><g><rect fill="#FFFFFF" height="1076.5313" style="stroke:#181818;stroke-width:0.6;" width="6" x="68.1" y="56.1727"/><rect fill="#FFFFFF" height="281.6191" style="stroke:#181818;stroke-width:0.6;" width="6" x="276.3" y="102.8965"/><rect fill="#FFFFFF" height="665.2898" style="stroke:#181818;stroke-width:0.6;" width="6" x="276.3" y="467.4141"/><rect fill="#FFFFFF" height="168.9715" style="stroke:#181818;stroke-width:0.6;" width="6" x="484.5" y="121.6711"/><rect fill="#FFFFFF" height="391.6688" style="stroke:#181818;stroke-width:0.6;" width="6" x="484.5" y="384.5156"/><rect fill="#FFFFFF" height="213.6973" style="stroke:#181818;stroke-width:0.6;" width="6" x="484.5" y="867.0574"/><rect fill="#FFFFFF" height="18.7746" style="stroke:#181818;stroke-width:0.6;" width="6" x="600.3" y="140.4457"/><rect fill="#FFFFFF" height="18.7746" style="stroke:#181818;stroke-width:0.6;" width="6" x="600.3" y="177.9949"/><rect fill="#FFFFFF" height="18.7746" style="stroke:#181818;stroke-width:0.6;" width="6" x="664.5" y="215.5441"/><rect fill="#FFFFFF" height="18.7746" style="stroke:#181818;stroke-width:0.6;" width="6" x="664.5" y="486.1887"/><rect fill="#FFFFFF" height="18.7746" style="stroke:#181818;stroke-width:0.6;" width="6" x="740.1" y="253.0934"/><rect fill="#FFFFFF" height="47.7258" style="stroke:#181818;stroke-width:0.6;" width="6" x="740.1" y="652.1602"/><rect fill="#FFFFFF" height="47.7258" style="stroke:#181818;stroke-width:0.6;" width="6" x="740.1" y="1014.2543"/><rect fill="#FFFFFF" height="45.3492" style="stroke:#181818;stroke-width:0.6;" width="6" x="1028.1" y="403.2902"/><rect fill="#FFFFFF" height="18.7746" style="stroke:#181818;stroke-width:0.6;" width="6" x="1083.3" y="523.7379"/><rect fill="#FFFFFF" height="18.7746" style="stroke:#181818;stroke-width:0.6;" width="6" x="1083.3" y="885.832"/><rect fill="none" height="190.7227" style="stroke:#000000;stroke-width:0.8999999999999999;" width="771.6" x="18" y="551.5125"/><rect fill="none" height="305.7703" style="stroke:#000000;stroke-width:0.8999999999999999;" width="1101.6" x="12" y="822.7336"/><rect fill="none" height="210.6973" style="stroke:#000000;stroke-width:0.8999999999999999;" width="771.6" x="18" y="913.6066"/><rect fill="none" height="11.5746" style="stroke:#000000;stroke-width:0.8999999999999999;" width="51.6" x="30" y="1108.5293"/><line style="stroke:#181818;stroke-width:0.3;stroke-dasharray:5.0,5.0;" x1="70.8" x2="70.8" y1="50.1727" y2="1138.7039"/><line style="stroke:#181818;stroke-width:0.3;stroke-dasharray:5.0,5.0;" x1="279.3" x2="279.3" y1="50.1727" y2="1138.7039"/><line style="stroke:#181818;stroke-width:0.3;stroke-dasharray:5.0,5.0;" x1="487.5" x2="487.5" y1="50.1727" y2="1138.7039"/><line style="stroke:#181818;stroke-width:0.3;stroke-dasharray:5.0,5.0;" x1="603" x2="603" y1="50.1727" y2="1138.7039"/><line style="stroke:#181818;stroke-width:0.3;stroke-dasharray:5.0,5.0;" x1="667.2" x2="667.2" y1="50.1727" y2="1138.7039"/><line style="stroke:#181818;stroke-width:0.3;stroke-dasharray:5.0,5.0;" x1="742.8" x2="742.8" y1="50.1727" y2="1138.7039"/><line style="stroke:#181818;stroke-width:0.3;stroke-dasharray:5.0,5.0;" x1="842.4" x2="842.4" y1="50.1727" y2="1138.7039"/><line style="stroke:#181818;stroke-width:0.3;stroke-dasharray:5.0,5.0;" x1="930" x2="930" y1="50.1727" y2="1138.7039"/><line style="stroke:#181818;stroke-width:0.3;stroke-dasharray:5.0,5.0;" x1="987.6" x2="987.6" y1="50.1727" y2="1138.7039"/><line style="stroke:#181818;stroke-width:0.3;stroke-dasharray:5.0,5.0;" x1="1030.8" x2="1030.8" y1="50.1727" y2="1138.7039"/><line style="stroke:#181818;stroke-width:0.3;stroke-dasharray:5.0,5.0;" x1="1086" x2="1086" y1="50.1727" y2="1138.7039"/><text fill="#000000" font-family="sans-serif" font-size="8.4" lengthAdjust="spacing" textLength="90.6" x="24" y="48.0645">Green Spaces Manager</text><ellipse cx="71.1" cy="8.1" fill="#E3E3E3" rx="4.8" ry="4.8" style="stroke:#181818;stroke-width:0.3;"/><path d="M71.1,12.9 L71.1,29.1 M63.3,17.7 L78.9,17.7 M71.1,29.1 L63.3,38.1 M71.1,29.1 L78.9,38.1 " fill="none" style="stroke:#181818;stroke-width:0.3;"/><text fill="#000000" font-family="sans-serif" font-size="8.4" lengthAdjust="spacing" textLength="90.6" x="24" y="1147.1684">Green Spaces Manager</text><ellipse cx="71.1" cy="1154.3766" fill="#E3E3E3" rx="4.8" ry="4.8" style="stroke:#181818;stroke-width:0.3;"/><path d="M71.1,1159.1766 L71.1,1175.3766 M63.3,1163.9766 L78.9,1163.9766 M71.1,1175.3766 L63.3,1184.3766 M71.1,1175.3766 L78.9,1184.3766 " fill="none" style="stroke:#181818;stroke-width:0.3;"/><rect fill="#E3E3E3" height="19.5727" rx="1.5" ry="1.5" style="stroke:#181818;stroke-width:0.3;" width="110.4" x="224.1" y="30"/><text fill="#000000" font-family="sans-serif" font-size="8.4" lengthAdjust="spacing" textLength="102" x="228.3" y="43.2645">:CreateAddTeamToEntryUI</text><rect fill="#E3E3E3" height="19.5727" rx="1.5" ry="1.5" style="stroke:#181818;stroke-width:0.3;" width="110.4" x="224.1" y="1138.1039"/><text fill="#000000" font-family="sans-serif" font-size="8.4" lengthAdjust="spacing" textLength="102" x="228.3" y="1151.3684">:CreateAddTeamToEntryUI</text><rect fill="#E3E3E3" height="19.5727" rx="1.5" ry="1.5" style="stroke:#181818;stroke-width:0.3;" width="140.4" x="417.3" y="30"/><text fill="#000000" font-family="sans-serif" font-size="8.4" lengthAdjust="spacing" textLength="132" x="421.5" y="43.2645">:CreateAddTeamToEntryController</text><rect fill="#E3E3E3" height="19.5727" rx="1.5" ry="1.5" style="stroke:#181818;stroke-width:0.3;" width="140.4" x="417.3" y="1138.1039"/><text fill="#000000" font-family="sans-serif" font-size="8.4" lengthAdjust="spacing" textLength="132" x="421.5" y="1151.3684">:CreateAddTeamToEntryController</text><rect fill="#E3E3E3" height="19.5727" rx="1.5" ry="1.5" style="stroke:#181818;stroke-width:0.3;" width="58.2" x="574.2" y="30"/><text fill="#000000" font-family="sans-serif" font-size="8.4" lengthAdjust="spacing" textLength="49.8" x="578.4" y="43.2645">:Repositories</text><rect fill="#E3E3E3" height="19.5727" rx="1.5" ry="1.5" style="stroke:#181818;stroke-width:0.3;" width="58.2" x="574.2" y="1138.1039"/><text fill="#000000" font-family="sans-serif" font-size="8.4" lengthAdjust="spacing" textLength="49.8" x="578.4" y="1151.3684">:Repositories</text><rect fill="#E3E3E3" height="30.7453" rx="1.5" ry="1.5" style="stroke:#181818;stroke-width:0.3;" width="58.2" x="638.4" y="18.8273"/><text fill="#000000" font-family="sans-serif" font-size="8.4" lengthAdjust="spacing" textLength="44.4" x="645.3" y="32.0918">repositories</text><text fill="#000000" font-family="sans-serif" font-size="8.4" lengthAdjust="spacing" textLength="49.8" x="642.6" y="43.2645">:Repositories</text><rect fill="#E3E3E3" height="30.7453" rx="1.5" ry="1.5" style="stroke:#181818;stroke-width:0.3;" width="58.2" x="638.4" y="1138.1039"/><text fill="#000000" font-family="sans-serif" font-size="8.4" lengthAdjust="spacing" textLength="44.4" x="645.3" y="1151.3684">repositories</text><text fill="#000000" font-family="sans-serif" font-size="8.4" lengthAdjust="spacing" textLength="49.8" x="642.6" y="1162.541">:Repositories</text><rect fill="#E3E3E3" height="30.7453" rx="1.5" ry="1.5" style="stroke:#181818;stroke-width:0.3;" width="81" x="702.6" y="18.8273"/><text fill="#000000" font-family="sans-serif" font-size="8.4" lengthAdjust="spacing" textLength="70.2" x="708" y="32.0918">AgendaRepository</text><text fill="#000000" font-family="sans-serif" font-size="8.4" lengthAdjust="spacing" textLength="72.6" x="706.8" y="43.2645">:AgendaRepository</text><rect fill="#E3E3E3" height="30.7453" rx="1.5" ry="1.5" style="stroke:#181818;stroke-width:0.3;" width="81" x="702.6" y="1138.1039"/><text fill="#000000" font-family="sans-serif" font-size="8.4" lengthAdjust="spacing" textLength="70.2" x="708" y="1151.3684">AgendaRepository</text><text fill="#000000" font-family="sans-serif" font-size="8.4" lengthAdjust="spacing" textLength="72.6" x="706.8" y="1162.541">:AgendaRepository</text><rect fill="#E3E3E3" height="30.7453" rx="1.5" ry="1.5" style="stroke:#181818;stroke-width:0.3;" width="105.6" x="789.6" y="18.8273"/><text fill="#000000" font-family="sans-serif" font-size="8.4" lengthAdjust="spacing" textLength="94.2" x="795.3" y="32.0918">authenticationRepository</text><text fill="#000000" font-family="sans-serif" font-size="8.4" lengthAdjust="spacing" textLength="97.2" x="793.8" y="43.2645">:AuthenticationRepository</text><rect fill="#E3E3E3" height="30.7453" rx="1.5" ry="1.5" style="stroke:#181818;stroke-width:0.3;" width="105.6" x="789.6" y="1138.1039"/><text fill="#000000" font-family="sans-serif" font-size="8.4" lengthAdjust="spacing" textLength="94.2" x="795.3" y="1151.3684">authenticationRepository</text><text fill="#000000" font-family="sans-serif" font-size="8.4" lengthAdjust="spacing" textLength="97.2" x="793.8" y="1162.541">:AuthenticationRepository</text><rect fill="#E3E3E3" height="30.7453" rx="1.5" ry="1.5" style="stroke:#181818;stroke-width:0.3;" width="58.2" x="901.2" y="18.8273"/><text fill="#000000" font-family="sans-serif" font-size="8.4" lengthAdjust="spacing" textLength="46.8" x="906.9" y="32.0918">userSession</text><text fill="#000000" font-family="sans-serif" font-size="8.4" lengthAdjust="spacing" textLength="49.8" x="905.4" y="43.2645">:UserSession</text><rect fill="#E3E3E3" height="30.7453" rx="1.5" ry="1.5" style="stroke:#181818;stroke-width:0.3;" width="58.2" x="901.2" y="1138.1039"/><text fill="#000000" font-family="sans-serif" font-size="8.4" lengthAdjust="spacing" textLength="46.8" x="906.9" y="1151.3684">userSession</text><text fill="#000000" font-family="sans-serif" font-size="8.4" lengthAdjust="spacing" textLength="49.8" x="905.4" y="1162.541">:UserSession</text><rect fill="#E3E3E3" height="19.5727" rx="1.5" ry="1.5" style="stroke:#181818;stroke-width:0.3;" width="44.4" x="965.4" y="30"/><text fill="#000000" font-family="sans-serif" font-size="8.4" lengthAdjust="spacing" textLength="36" x="969.6" y="43.2645">:Manager</text><rect fill="#E3E3E3" height="19.5727" rx="1.5" ry="1.5" style="stroke:#181818;stroke-width:0.3;" width="44.4" x="965.4" y="1138.1039"/><text fill="#000000" font-family="sans-serif" font-size="8.4" lengthAdjust="spacing" textLength="36" x="969.6" y="1151.3684">:Manager</text><rect fill="#E3E3E3" height="19.5727" rx="1.5" ry="1.5" style="stroke:#181818;stroke-width:0.3;" width="30.6" x="1015.8" y="30"/><text fill="#000000" font-family="sans-serif" font-size="8.4" lengthAdjust="spacing" textLength="22.2" x="1020" y="43.2645">:Entry</text><rect fill="#E3E3E3" height="19.5727" rx="1.5" ry="1.5" style="stroke:#181818;stroke-width:0.3;" width="30.6" x="1015.8" y="1138.1039"/><text fill="#000000" font-family="sans-serif" font-size="8.4" lengthAdjust="spacing" textLength="22.2" x="1020" y="1151.3684">:Entry</text><rect fill="#E3E3E3" height="19.5727" rx="1.5" ry="1.5" style="stroke:#181818;stroke-width:0.3;" width="42.6" x="1065" y="30"/><text fill="#000000" font-family="sans-serif" font-size="8.4" lengthAdjust="spacing" textLength="34.2" x="1069.2" y="43.2645">teamRep</text><rect fill="#E3E3E3" height="19.5727" rx="1.5" ry="1.5" style="stroke:#181818;stroke-width:0.3;" width="42.6" x="1065" y="1138.1039"/><text fill="#000000" font-family="sans-serif" font-size="8.4" lengthAdjust="spacing" textLength="34.2" x="1069.2" y="1151.3684">teamRep</text><rect fill="#FFFFFF" height="1076.5313" style="stroke:#181818;stroke-width:0.6;" width="6" x="68.1" y="56.1727"/><rect fill="#FFFFFF" height="281.6191" style="stroke:#181818;stroke-width:0.6;" width="6" x="276.3" y="102.8965"/><rect fill="#FFFFFF" height="665.2898" style="stroke:#181818;stroke-width:0.6;" width="6" x="276.3" y="467.4141"/><rect fill="#FFFFFF" height="168.9715" style="stroke:#181818;stroke-width:0.6;" width="6" x="484.5" y="121.6711"/><rect fill="#FFFFFF" height="391.6688" style="stroke:#181818;stroke-width:0.6;" width="6" x="484.5" y="384.5156"/><rect fill="#FFFFFF" height="213.6973" style="stroke:#181818;stroke-width:0.6;" width="6" x="484.5" y="867.0574"/><rect fill="#FFFFFF" height="18.7746" style="stroke:#181818;stroke-width:0.6;" width="6" x="600.3" y="140.4457"/><rect fill="#FFFFFF" height="18.7746" style="stroke:#181818;stroke-width:0.6;" width="6" x="600.3" y="177.9949"/><rect fill="#FFFFFF" height="18.7746" style="stroke:#181818;stroke-width:0.6;" width="6" x="664.5" y="215.5441"/><rect fill="#FFFFFF" height="18.7746" style="stroke:#181818;stroke-width:0.6;" width="6" x="664.5" y="486.1887"/><rect fill="#FFFFFF" height="18.7746" style="stroke:#181818;stroke-width:0.6;" width="6" x="740.1" y="253.0934"/><rect fill="#FFFFFF" height="47.7258" style="stroke:#181818;stroke-width:0.6;" width="6" x="740.1" y="652.1602"/><rect fill="#FFFFFF" height="47.7258" style="stroke:#181818;stroke-width:0.6;" width="6" x="740.1" y="1014.2543"/><rect fill="#FFFFFF" height="45.3492" style="stroke:#181818;stroke-width:0.6;" width="6" x="1028.1" y="403.2902"/><rect fill="#FFFFFF" height="18.7746" style="stroke:#181818;stroke-width:0.6;" width="6" x="1083.3" y="523.7379"/><rect fill="#FFFFFF" height="18.7746" style="stroke:#181818;stroke-width:0.6;" width="6" x="1083.3" y="885.832"/><path d="M606,59.1727 L606,85.5727 L664.2,85.5727 L664.2,65.1727 L658.2,59.1727 L606,59.1727 " fill="#FAFAFA" style="stroke:#181818;stroke-width:0.3;"/><path d="M658.2,59.1727 L658.2,65.1727 L664.2,65.1727 L658.2,59.1727 " fill="#FAFAFA" style="stroke:#181818;stroke-width:0.3;"/><text fill="#000000" font-family="sans-serif" font-size="7.8" lengthAdjust="spacing" textLength="45.6" x="609.6" y="70.5896">- Singleton is</text><text fill="#000000" font-family="sans-serif" font-size="7.8" lengthAdjust="spacing" textLength="21" x="609.6" y="80.9643">in use</text><polygon fill="#181818" points="269.1,100.4965,275.1,102.8965,269.1,105.2965,271.5,102.8965" style="stroke:#181818;stroke-width:0.6;"/><line style="stroke:#181818;stroke-width:0.6;" x1="74.1" x2="272.7" y1="102.8965" y2="102.8965"/><text fill="#000000" font-family="sans-serif" font-size="7.8" font-weight="bold" lengthAdjust="spacing" textLength="4.2" x="78.3" y="99.7389">1</text><text fill="#000000" font-family="sans-serif" font-size="7.8" lengthAdjust="spacing" textLength="156" x="84.9" y="99.7389">asks to add a team to an entry in the agenda</text><polygon fill="#181818" points="477.3,119.2711,483.3,121.6711,477.3,124.0711,479.7,121.6711" style="stroke:#181818;stroke-width:0.6;"/><line style="stroke:#181818;stroke-width:0.6;" x1="282.3" x2="480.9" y1="121.6711" y2="121.6711"/><text fill="#000000" font-family="sans-serif" font-size="7.8" font-weight="bold" lengthAdjust="spacing" textLength="4.2" x="286.5" y="118.5135">2</text><text fill="#000000" font-family="sans-serif" font-size="7.8" lengthAdjust="spacing" textLength="21.6" x="293.1" y="118.5135">create</text><polygon fill="#181818" points="593.1,138.0457,599.1,140.4457,593.1,142.8457,595.5,140.4457" style="stroke:#181818;stroke-width:0.6;"/><line style="stroke:#181818;stroke-width:0.6;" x1="490.5" x2="596.7" y1="140.4457" y2="140.4457"/><text fill="#000000" font-family="sans-serif" font-size="7.8" font-weight="bold" lengthAdjust="spacing" textLength="4.2" x="494.7" y="137.2881">3</text><text fill="#000000" font-family="sans-serif" font-size="7.8" lengthAdjust="spacing" textLength="45" x="501.3" y="137.2881">getInstance()</text><polygon fill="#181818" points="497.1,156.8203,491.1,159.2203,497.1,161.6203,494.7,159.2203" style="stroke:#181818;stroke-width:0.6;"/><line style="stroke:#181818;stroke-width:0.6;stroke-dasharray:2.0,2.0;" x1="493.5" x2="602.7" y1="159.2203" y2="159.2203"/><text fill="#000000" font-family="sans-serif" font-size="7.8" font-weight="bold" lengthAdjust="spacing" textLength="4.2" x="500.7" y="156.0627">4</text><text fill="#000000" font-family="sans-serif" font-size="7.8" lengthAdjust="spacing" textLength="40.2" x="507.3" y="156.0627">repositories</text><polygon fill="#181818" points="593.1,175.5949,599.1,177.9949,593.1,180.3949,595.5,177.9949" style="stroke:#181818;stroke-width:0.6;"/><line style="stroke:#181818;stroke-width:0.6;" x1="490.5" x2="596.7" y1="177.9949" y2="177.9949"/><text fill="#000000" font-family="sans-serif" font-size="7.8" font-weight="bold" lengthAdjust="spacing" textLength="4.2" x="494.7" y="174.8373">5</text><text fill="#000000" font-family="sans-serif" font-size="7.8" lengthAdjust="spacing" textLength="91.8" x="501.3" y="174.8373">getManagerFromSession()</text><polygon fill="#181818" points="497.1,194.3695,491.1,196.7695,497.1,199.1695,494.7,196.7695" style="stroke:#181818;stroke-width:0.6;"/><line style="stroke:#181818;stroke-width:0.6;stroke-dasharray:2.0,2.0;" x1="493.5" x2="602.7" y1="196.7695" y2="196.7695"/><text fill="#000000" font-family="sans-serif" font-size="7.8" font-weight="bold" lengthAdjust="spacing" textLength="4.2" x="500.7" y="193.6119">6</text><text fill="#000000" font-family="sans-serif" font-size="7.8" lengthAdjust="spacing" textLength="30" x="507.3" y="193.6119">manager</text><polygon fill="#181818" points="657.3,213.1441,663.3,215.5441,657.3,217.9441,659.7,215.5441" style="stroke:#181818;stroke-width:0.6;"/><line style="stroke:#181818;stroke-width:0.6;" x1="490.5" x2="660.9" y1="215.5441" y2="215.5441"/><text fill="#000000" font-family="sans-serif" font-size="7.8" font-weight="bold" lengthAdjust="spacing" textLength="4.2" x="494.7" y="212.3865">7</text><text fill="#000000" font-family="sans-serif" font-size="7.8" lengthAdjust="spacing" textLength="79.2" x="501.3" y="212.3865">getAgendaRepository()</text><polygon fill="#181818" points="497.1,231.9188,491.1,234.3188,497.1,236.7188,494.7,234.3188" style="stroke:#181818;stroke-width:0.6;"/><line style="stroke:#181818;stroke-width:0.6;stroke-dasharray:2.0,2.0;" x1="493.5" x2="666.9" y1="234.3188" y2="234.3188"/><text fill="#000000" font-family="sans-serif" font-size="7.8" font-weight="bold" lengthAdjust="spacing" textLength="4.2" x="500.7" y="231.1611">8</text><text fill="#000000" font-family="sans-serif" font-size="7.8" lengthAdjust="spacing" textLength="39" x="507.3" y="231.1611">agendaRep</text><polygon fill="#181818" points="732.9,250.6934,738.9,253.0934,732.9,255.4934,735.3,253.0934" style="stroke:#181818;stroke-width:0.6;"/><line style="stroke:#181818;stroke-width:0.6;" x1="490.5" x2="736.5" y1="253.0934" y2="253.0934"/><text fill="#000000" font-family="sans-serif" font-size="7.8" font-weight="bold" lengthAdjust="spacing" textLength="4.2" x="494.7" y="249.9357">9</text><text fill="#000000" font-family="sans-serif" font-size="7.8" lengthAdjust="spacing" textLength="49.2" x="501.3" y="249.9357">getAllEntries()</text><polygon fill="#181818" points="497.1,269.468,491.1,271.868,497.1,274.268,494.7,271.868" style="stroke:#181818;stroke-width:0.6;"/><line style="stroke:#181818;stroke-width:0.6;stroke-dasharray:2.0,2.0;" x1="493.5" x2="742.5" y1="271.868" y2="271.868"/><text fill="#000000" font-family="sans-serif" font-size="7.8" font-weight="bold" lengthAdjust="spacing" textLength="8.4" x="500.7" y="268.7104">10</text><text fill="#000000" font-family="sans-serif" font-size="7.8" lengthAdjust="spacing" textLength="23.4" x="511.5" y="268.7104">entries</text><polygon fill="#181818" points="288.9,288.2426,282.9,290.6426,288.9,293.0426,286.5,290.6426" style="stroke:#181818;stroke-width:0.6;"/><line style="stroke:#181818;stroke-width:0.6;stroke-dasharray:2.0,2.0;" x1="285.3" x2="486.9" y1="290.6426" y2="290.6426"/><text fill="#000000" font-family="sans-serif" font-size="7.8" font-weight="bold" lengthAdjust="spacing" textLength="8.4" x="292.5" y="287.485">11</text><text fill="#000000" font-family="sans-serif" font-size="7.8" lengthAdjust="spacing" textLength="23.4" x="303.3" y="287.485">entries</text><polygon fill="#181818" points="80.7,307.0172,74.7,309.4172,80.7,311.8172,78.3,309.4172" style="stroke:#181818;stroke-width:0.6;"/><line style="stroke:#181818;stroke-width:0.6;stroke-dasharray:2.0,2.0;" x1="77.1" x2="275.7" y1="309.4172" y2="309.4172"/><text fill="#000000" font-family="sans-serif" font-size="7.8" font-weight="bold" lengthAdjust="spacing" textLength="8.4" x="84.3" y="306.2596">12</text><text fill="#000000" font-family="sans-serif" font-size="7.8" lengthAdjust="spacing" textLength="150.6" x="95.1" y="306.2596">shows list of entries and asks to select one</text><polygon fill="#181818" points="269.1,325.7918,275.1,328.1918,269.1,330.5918,271.5,328.1918" style="stroke:#181818;stroke-width:0.6;"/><line style="stroke:#181818;stroke-width:0.6;" x1="74.1" x2="272.7" y1="328.1918" y2="328.1918"/><text fill="#000000" font-family="sans-serif" font-size="7.8" font-weight="bold" lengthAdjust="spacing" textLength="8.4" x="78.3" y="325.0342">13</text><text fill="#000000" font-family="sans-serif" font-size="7.8" lengthAdjust="spacing" textLength="45" x="89.1" y="325.0342">selects entry</text><polygon fill="#181818" points="80.7,344.5664,74.7,346.9664,80.7,349.3664,78.3,346.9664" style="stroke:#181818;stroke-width:0.6;"/><line style="stroke:#181818;stroke-width:0.6;stroke-dasharray:2.0,2.0;" x1="77.1" x2="275.7" y1="346.9664" y2="346.9664"/><text fill="#000000" font-family="sans-serif" font-size="7.8" font-weight="bold" lengthAdjust="spacing" textLength="8.4" x="84.3" y="343.8088">14</text><text fill="#000000" font-family="sans-serif" font-size="7.8" lengthAdjust="spacing" textLength="75.6" x="95.1" y="343.8088">asks to select a team</text><polygon fill="#181818" points="269.1,363.341,275.1,365.741,269.1,368.141,271.5,365.741" style="stroke:#181818;stroke-width:0.6;"/><line style="stroke:#181818;stroke-width:0.6;" x1="74.1" x2="272.7" y1="365.741" y2="365.741"/><text fill="#000000" font-family="sans-serif" font-size="7.8" font-weight="bold" lengthAdjust="spacing" textLength="8.4" x="78.3" y="362.5834">15</text><text fill="#000000" font-family="sans-serif" font-size="7.8" lengthAdjust="spacing" textLength="45" x="89.1" y="362.5834">selects team</text><polygon fill="#181818" points="477.3,382.1156,483.3,384.5156,477.3,386.9156,479.7,384.5156" style="stroke:#181818;stroke-width:0.6;"/><line style="stroke:#181818;stroke-width:0.6;stroke-dasharray:2.0,2.0;" x1="279.3" x2="480.9" y1="384.5156" y2="384.5156"/><text fill="#000000" font-family="sans-serif" font-size="7.8" font-weight="bold" lengthAdjust="spacing" textLength="8.4" x="283.5" y="381.358">16</text><text fill="#000000" font-family="sans-serif" font-size="7.8" lengthAdjust="spacing" textLength="49.2" x="294.3" y="381.358">team selected</text><polygon fill="#181818" points="1020.9,400.8902,1026.9,403.2902,1020.9,405.6902,1023.3,403.2902" style="stroke:#181818;stroke-width:0.6;"/><line style="stroke:#181818;stroke-width:0.6;" x1="490.5" x2="1024.5" y1="403.2902" y2="403.2902"/><text fill="#000000" font-family="sans-serif" font-size="7.8" font-weight="bold" lengthAdjust="spacing" textLength="8.4" x="494.7" y="400.1326">17</text><text fill="#000000" font-family="sans-serif" font-size="7.8" lengthAdjust="spacing" textLength="127.2" x="505.5" y="400.1326">addNewTeamToEntry(selectedTeam)</text><line style="stroke:#181818;stroke-width:0.6;" x1="1034.1" x2="1059.3" y1="422.0648" y2="422.0648"/><line style="stroke:#181818;stroke-width:0.6;" x1="1059.3" x2="1059.3" y1="422.0648" y2="429.8648"/><line style="stroke:#181818;stroke-width:0.6;" x1="1034.7" x2="1059.3" y1="429.8648" y2="429.8648"/><polygon fill="#181818" points="1040.7,427.4648,1034.7,429.8648,1040.7,432.2648,1038.3,429.8648" style="stroke:#181818;stroke-width:0.6;"/><text fill="#000000" font-family="sans-serif" font-size="7.8" font-weight="bold" lengthAdjust="spacing" textLength="8.4" x="1038.3" y="418.9072">18</text><text fill="#000000" font-family="sans-serif" font-size="7.8" lengthAdjust="spacing" textLength="30" x="1049.1" y="418.9072">validates</text><polygon fill="#181818" points="497.1,446.2395,491.1,448.6395,497.1,451.0395,494.7,448.6395" style="stroke:#181818;stroke-width:0.6;"/><line style="stroke:#181818;stroke-width:0.6;stroke-dasharray:2.0,2.0;" x1="493.5" x2="1030.5" y1="448.6395" y2="448.6395"/><text fill="#000000" font-family="sans-serif" font-size="7.8" font-weight="bold" lengthAdjust="spacing" textLength="8.4" x="500.7" y="445.4818">19</text><text fill="#000000" font-family="sans-serif" font-size="7.8" lengthAdjust="spacing" textLength="60" x="511.5" y="445.4818">newTeamToEntry</text><polygon fill="#181818" points="288.9,465.0141,282.9,467.4141,288.9,469.8141,286.5,467.4141" style="stroke:#181818;stroke-width:0.6;"/><line style="stroke:#181818;stroke-width:0.6;stroke-dasharray:2.0,2.0;" x1="285.3" x2="483.9" y1="467.4141" y2="467.4141"/><text fill="#000000" font-family="sans-serif" font-size="7.8" font-weight="bold" lengthAdjust="spacing" textLength="8.4" x="292.5" y="464.2564">20</text><text fill="#000000" font-family="sans-serif" font-size="7.8" lengthAdjust="spacing" textLength="60" x="303.3" y="464.2564">newTeamToEntry</text><polygon fill="#181818" points="657.3,483.7887,663.3,486.1887,657.3,488.5887,659.7,486.1887" style="stroke:#181818;stroke-width:0.6;"/><line style="stroke:#181818;stroke-width:0.6;" x1="490.5" x2="660.9" y1="486.1887" y2="486.1887"/><text fill="#000000" font-family="sans-serif" font-size="7.8" font-weight="bold" lengthAdjust="spacing" textLength="8.4" x="494.7" y="483.0311">21</text><text fill="#000000" font-family="sans-serif" font-size="7.8" lengthAdjust="spacing" textLength="72" x="505.5" y="483.0311">getTeamRepository()</text><polygon fill="#181818" points="497.1,502.5633,491.1,504.9633,497.1,507.3633,494.7,504.9633" style="stroke:#181818;stroke-width:0.6;"/><line style="stroke:#181818;stroke-width:0.6;stroke-dasharray:2.0,2.0;" x1="493.5" x2="666.9" y1="504.9633" y2="504.9633"/><text fill="#000000" font-family="sans-serif" font-size="7.8" font-weight="bold" lengthAdjust="spacing" textLength="8.4" x="500.7" y="501.8057">22</text><text fill="#000000" font-family="sans-serif" font-size="7.8" lengthAdjust="spacing" textLength="31.2" x="511.5" y="501.8057">teamRep</text><polygon fill="#181818" points="1076.1,521.3379,1082.1,523.7379,1076.1,526.1379,1078.5,523.7379" style="stroke:#181818;stroke-width:0.6;"/><line style="stroke:#181818;stroke-width:0.6;" x1="490.5" x2="1079.7" y1="523.7379" y2="523.7379"/><text fill="#000000" font-family="sans-serif" font-size="7.8" font-weight="bold" lengthAdjust="spacing" textLength="8.4" x="494.7" y="520.5803">23</text><text fill="#000000" font-family="sans-serif" font-size="7.8" lengthAdjust="spacing" textLength="98.4" x="505.5" y="520.5803">validateTeam(selectedTeam)</text><polygon fill="#181818" points="497.1,540.1125,491.1,542.5125,497.1,544.9125,494.7,542.5125" style="stroke:#181818;stroke-width:0.6;"/><line style="stroke:#181818;stroke-width:0.6;stroke-dasharray:2.0,2.0;" x1="493.5" x2="1085.7" y1="542.5125" y2="542.5125"/><text fill="#000000" font-family="sans-serif" font-size="7.8" font-weight="bold" lengthAdjust="spacing" textLength="8.4" x="500.7" y="539.3549">24</text><text fill="#000000" font-family="sans-serif" font-size="7.8" lengthAdjust="spacing" textLength="54" x="511.5" y="539.3549">validationResult</text><path d="M18,551.5125 L54.6,551.5125 L54.6,557.0871 L48.6,563.0871 L18,563.0871 L18,551.5125 " fill="#EEEEEE" style="stroke:#000000;stroke-width:0.8999999999999999;"/><rect fill="none" height="190.7227" style="stroke:#000000;stroke-width:0.8999999999999999;" width="771.6" x="18" y="551.5125"/><text fill="#000000" font-family="sans-serif" font-size="7.8" font-weight="bold" lengthAdjust="spacing" textLength="9.6" x="27" y="560.5295">alt</text><text fill="#000000" font-family="sans-serif" font-size="6.6" font-weight="bold" lengthAdjust="spacing" textLength="61.2" x="63.6" y="559.8346">[Team is available]</text><polygon fill="#181818" points="288.9,574.6617,282.9,577.0617,288.9,579.4617,286.5,577.0617" style="stroke:#181818;stroke-width:0.6;"/><line style="stroke:#181818;stroke-width:0.6;stroke-dasharray:2.0,2.0;" x1="285.3" x2="483.9" y1="577.0617" y2="577.0617"/><text fill="#000000" font-family="sans-serif" font-size="7.8" font-weight="bold" lengthAdjust="spacing" textLength="8.4" x="292.5" y="573.9041">25</text><text fill="#000000" font-family="sans-serif" font-size="7.8" lengthAdjust="spacing" textLength="34.8" x="303.3" y="573.9041">valid team</text><polygon fill="#181818" points="80.7,593.4363,74.7,595.8363,80.7,598.2363,78.3,595.8363" style="stroke:#181818;stroke-width:0.6;"/><line style="stroke:#181818;stroke-width:0.6;stroke-dasharray:2.0,2.0;" x1="77.1" x2="275.7" y1="595.8363" y2="595.8363"/><text fill="#000000" font-family="sans-serif" font-size="7.8" font-weight="bold" lengthAdjust="spacing" textLength="8.4" x="84.3" y="592.6787">26</text><text fill="#000000" font-family="sans-serif" font-size="7.8" lengthAdjust="spacing" textLength="131.4" x="95.1" y="592.6787">display data and asks for confirmation</text><polygon fill="#181818" points="269.1,612.2109,275.1,614.6109,269.1,617.0109,271.5,614.6109" style="stroke:#181818;stroke-width:0.6;"/><line style="stroke:#181818;stroke-width:0.6;" x1="74.1" x2="272.7" y1="614.6109" y2="614.6109"/><text fill="#000000" font-family="sans-serif" font-size="7.8" font-weight="bold" lengthAdjust="spacing" textLength="8.4" x="78.3" y="611.4533">27</text><text fill="#000000" font-family="sans-serif" font-size="7.8" lengthAdjust="spacing" textLength="46.8" x="89.1" y="611.4533">confirms data</text><polygon fill="#181818" points="477.3,630.9855,483.3,633.3855,477.3,635.7855,479.7,633.3855" style="stroke:#181818;stroke-width:0.6;"/><line style="stroke:#181818;stroke-width:0.6;" x1="282.3" x2="480.9" y1="633.3855" y2="633.3855"/><text fill="#000000" font-family="sans-serif" font-size="7.8" font-weight="bold" lengthAdjust="spacing" textLength="8.4" x="286.5" y="630.2279">28</text><text fill="#000000" font-family="sans-serif" font-size="7.8" lengthAdjust="spacing" textLength="49.8" x="297.3" y="630.2279">add new Entry</text><polygon fill="#181818" points="732.9,649.7602,738.9,652.1602,732.9,654.5602,735.3,652.1602" style="stroke:#181818;stroke-width:0.6;"/><line style="stroke:#181818;stroke-width:0.6;" x1="490.5" x2="736.5" y1="652.1602" y2="652.1602"/><text fill="#000000" font-family="sans-serif" font-size="7.8" font-weight="bold" lengthAdjust="spacing" textLength="8.4" x="494.7" y="649.0025">29</text><text fill="#000000" font-family="sans-serif" font-size="7.8" lengthAdjust="spacing" textLength="78.6" x="505.5" y="649.0025">addNewTeamToEntry()</text><rect fill="none" height="25.9512" style="stroke:#000000;stroke-width:0.8999999999999999;" width="84.6" x="700.8" y="656.9602"/><path d="M700.8,656.9602 L738,656.9602 L738,662.3602 L732,668.3602 L700.8,668.3602 L700.8,656.9602 " fill="#EEEEEE" style="stroke:#000000;stroke-width:1.2;"/><text fill="#000000" font-family="sans-serif" font-size="7.8" font-weight="bold" lengthAdjust="spacing" textLength="10.2" x="708.6" y="666.5771">ref</text><text fill="#000000" font-family="sans-serif" font-size="7.2" lengthAdjust="spacing" textLength="41.4" x="722.4" y="678.5297">SendEmail()</text><polygon fill="#181818" points="497.1,697.4859,491.1,699.8859,497.1,702.2859,494.7,699.8859" style="stroke:#181818;stroke-width:0.6;"/><line style="stroke:#181818;stroke-width:0.6;" x1="493.5" x2="742.5" y1="699.8859" y2="699.8859"/><text fill="#000000" font-family="sans-serif" font-size="7.8" font-weight="bold" lengthAdjust="spacing" textLength="8.4" x="500.7" y="696.7283">30</text><text fill="#000000" font-family="sans-serif" font-size="7.8" lengthAdjust="spacing" textLength="60" x="511.5" y="696.7283">newTeamToEntry</text><polygon fill="#181818" points="288.9,716.2605,282.9,718.6605,288.9,721.0605,286.5,718.6605" style="stroke:#181818;stroke-width:0.6;"/><line style="stroke:#181818;stroke-width:0.6;stroke-dasharray:2.0,2.0;" x1="285.3" x2="483.9" y1="718.6605" y2="718.6605"/><text fill="#000000" font-family="sans-serif" font-size="7.8" font-weight="bold" lengthAdjust="spacing" textLength="8.4" x="292.5" y="715.5029">31</text><text fill="#000000" font-family="sans-serif" font-size="7.8" lengthAdjust="spacing" textLength="60" x="303.3" y="715.5029">newTeamToEntry</text><polygon fill="#181818" points="80.7,735.0352,74.7,737.4352,80.7,739.8352,78.3,737.4352" style="stroke:#181818;stroke-width:0.6;"/><line style="stroke:#181818;stroke-width:0.6;" x1="77.1" x2="275.7" y1="737.4352" y2="737.4352"/><text fill="#000000" font-family="sans-serif" font-size="7.8" font-weight="bold" lengthAdjust="spacing" textLength="8.4" x="84.3" y="734.2775">32</text><text fill="#000000" font-family="sans-serif" font-size="7.8" lengthAdjust="spacing" textLength="94.8" x="95.1" y="734.2775">displays success message</text><polygon fill="#181818" points="288.9,773.7844,282.9,776.1844,288.9,778.5844,286.5,776.1844" style="stroke:#181818;stroke-width:0.6;"/><line style="stroke:#181818;stroke-width:0.6;stroke-dasharray:2.0,2.0;" x1="285.3" x2="486.9" y1="776.1844" y2="776.1844"/><text fill="#000000" font-family="sans-serif" font-size="7.8" font-weight="bold" lengthAdjust="spacing" textLength="8.4" x="292.5" y="773.0268">33</text><text fill="#000000" font-family="sans-serif" font-size="7.8" lengthAdjust="spacing" textLength="177" x="303.3" y="773.0268">team not valid (already assigned in that time range)</text><polygon fill="#181818" points="80.7,792.559,74.7,794.959,80.7,797.359,78.3,794.959" style="stroke:#181818;stroke-width:0.6;"/><line style="stroke:#181818;stroke-width:0.6;stroke-dasharray:2.0,2.0;" x1="77.1" x2="275.7" y1="794.959" y2="794.959"/><text fill="#000000" font-family="sans-serif" font-size="7.8" font-weight="bold" lengthAdjust="spacing" textLength="8.4" x="84.3" y="791.8014">34</text><text fill="#000000" font-family="sans-serif" font-size="7.8" lengthAdjust="spacing" textLength="177" x="95.1" y="791.8014">team not valid (already assigned in that time range)</text><polygon fill="#181818" points="80.7,811.3336,74.7,813.7336,80.7,816.1336,78.3,813.7336" style="stroke:#181818;stroke-width:0.6;"/><line style="stroke:#181818;stroke-width:0.6;stroke-dasharray:2.0,2.0;" x1="77.1" x2="275.7" y1="813.7336" y2="813.7336"/><text fill="#000000" font-family="sans-serif" font-size="7.8" font-weight="bold" lengthAdjust="spacing" textLength="8.4" x="84.3" y="810.576">35</text><text fill="#000000" font-family="sans-serif" font-size="7.8" lengthAdjust="spacing" textLength="126.6" x="95.1" y="810.576">ask the GSM to select another team</text><path d="M12,822.7336 L55.8,822.7336 L55.8,828.3082 L49.8,834.3082 L12,834.3082 L12,822.7336 " fill="#EEEEEE" style="stroke:#000000;stroke-width:0.8999999999999999;"/><rect fill="none" height="305.7703" style="stroke:#000000;stroke-width:0.8999999999999999;" width="1101.6" x="12" y="822.7336"/><text fill="#000000" font-family="sans-serif" font-size="7.8" font-weight="bold" lengthAdjust="spacing" textLength="16.8" x="21" y="831.7506">loop</text><polygon fill="#181818" points="269.1,845.8828,275.1,848.2828,269.1,850.6828,271.5,848.2828" style="stroke:#181818;stroke-width:0.6;"/><line style="stroke:#181818;stroke-width:0.6;" x1="74.1" x2="272.7" y1="848.2828" y2="848.2828"/><text fill="#000000" font-family="sans-serif" font-size="7.8" font-weight="bold" lengthAdjust="spacing" textLength="8.4" x="78.3" y="845.1252">36</text><text fill="#000000" font-family="sans-serif" font-size="7.8" lengthAdjust="spacing" textLength="45" x="89.1" y="845.1252">selects team</text><polygon fill="#181818" points="477.3,864.6574,483.3,867.0574,477.3,869.4574,479.7,867.0574" style="stroke:#181818;stroke-width:0.6;"/><line style="stroke:#181818;stroke-width:0.6;stroke-dasharray:2.0,2.0;" x1="282.3" x2="480.9" y1="867.0574" y2="867.0574"/><text fill="#000000" font-family="sans-serif" font-size="7.8" font-weight="bold" lengthAdjust="spacing" textLength="8.4" x="286.5" y="863.8998">37</text><text fill="#000000" font-family="sans-serif" font-size="7.8" lengthAdjust="spacing" textLength="49.2" x="297.3" y="863.8998">team selected</text><polygon fill="#181818" points="1076.1,883.432,1082.1,885.832,1076.1,888.232,1078.5,885.832" style="stroke:#181818;stroke-width:0.6;"/><line style="stroke:#181818;stroke-width:0.6;" x1="490.5" x2="1079.7" y1="885.832" y2="885.832"/><text fill="#000000" font-family="sans-serif" font-size="7.8" font-weight="bold" lengthAdjust="spacing" textLength="8.4" x="494.7" y="882.6744">38</text><text fill="#000000" font-family="sans-serif" font-size="7.8" lengthAdjust="spacing" textLength="98.4" x="505.5" y="882.6744">validateTeam(selectedTeam)</text><polygon fill="#181818" points="497.1,902.2066,491.1,904.6066,497.1,907.0066,494.7,904.6066" style="stroke:#181818;stroke-width:0.6;"/><line style="stroke:#181818;stroke-width:0.6;stroke-dasharray:2.0,2.0;" x1="493.5" x2="1085.7" y1="904.6066" y2="904.6066"/><text fill="#000000" font-family="sans-serif" font-size="7.8" font-weight="bold" lengthAdjust="spacing" textLength="8.4" x="500.7" y="901.449">39</text><text fill="#000000" font-family="sans-serif" font-size="7.8" lengthAdjust="spacing" textLength="54" x="511.5" y="901.449">validationResult</text><path d="M18,913.6066 L54.6,913.6066 L54.6,919.1813 L48.6,925.1813 L18,925.1813 L18,913.6066 " fill="#EEEEEE" style="stroke:#000000;stroke-width:0.8999999999999999;"/><rect fill="none" height="210.6973" style="stroke:#000000;stroke-width:0.8999999999999999;" width="771.6" x="18" y="913.6066"/><text fill="#000000" font-family="sans-serif" font-size="7.8" font-weight="bold" lengthAdjust="spacing" textLength="9.6" x="27" y="922.6236">alt</text><text fill="#000000" font-family="sans-serif" font-size="6.6" font-weight="bold" lengthAdjust="spacing" textLength="61.2" x="63.6" y="921.9287">[Team is available]</text><polygon fill="#181818" points="288.9,936.7559,282.9,939.1559,288.9,941.5559,286.5,939.1559" style="stroke:#181818;stroke-width:0.6;"/><line style="stroke:#181818;stroke-width:0.6;stroke-dasharray:2.0,2.0;" x1="285.3" x2="483.9" y1="939.1559" y2="939.1559"/><text fill="#000000" font-family="sans-serif" font-size="7.8" font-weight="bold" lengthAdjust="spacing" textLength="8.4" x="292.5" y="935.9982">40</text><text fill="#000000" font-family="sans-serif" font-size="7.8" lengthAdjust="spacing" textLength="34.8" x="303.3" y="935.9982">valid team</text><polygon fill="#181818" points="80.7,955.5305,74.7,957.9305,80.7,960.3305,78.3,957.9305" style="stroke:#181818;stroke-width:0.6;"/><line style="stroke:#181818;stroke-width:0.6;stroke-dasharray:2.0,2.0;" x1="77.1" x2="275.7" y1="957.9305" y2="957.9305"/><text fill="#000000" font-family="sans-serif" font-size="7.8" font-weight="bold" lengthAdjust="spacing" textLength="8.4" x="84.3" y="954.7729">41</text><text fill="#000000" font-family="sans-serif" font-size="7.8" lengthAdjust="spacing" textLength="131.4" x="95.1" y="954.7729">display data and asks for confirmation</text><polygon fill="#181818" points="269.1,974.3051,275.1,976.7051,269.1,979.1051,271.5,976.7051" style="stroke:#181818;stroke-width:0.6;"/><line style="stroke:#181818;stroke-width:0.6;" x1="74.1" x2="272.7" y1="976.7051" y2="976.7051"/><text fill="#000000" font-family="sans-serif" font-size="7.8" font-weight="bold" lengthAdjust="spacing" textLength="8.4" x="78.3" y="973.5475">42</text><text fill="#000000" font-family="sans-serif" font-size="7.8" lengthAdjust="spacing" textLength="46.8" x="89.1" y="973.5475">confirms data</text><polygon fill="#181818" points="477.3,993.0797,483.3,995.4797,477.3,997.8797,479.7,995.4797" style="stroke:#181818;stroke-width:0.6;"/><line style="stroke:#181818;stroke-width:0.6;" x1="282.3" x2="480.9" y1="995.4797" y2="995.4797"/><text fill="#000000" font-family="sans-serif" font-size="7.8" font-weight="bold" lengthAdjust="spacing" textLength="8.4" x="286.5" y="992.3221">43</text><text fill="#000000" font-family="sans-serif" font-size="7.8" lengthAdjust="spacing" textLength="49.8" x="297.3" y="992.3221">add new Entry</text><polygon fill="#181818" points="732.9,1011.8543,738.9,1014.2543,732.9,1016.6543,735.3,1014.2543" style="stroke:#181818;stroke-width:0.6;"/><line style="stroke:#181818;stroke-width:0.6;" x1="490.5" x2="736.5" y1="1014.2543" y2="1014.2543"/><text fill="#000000" font-family="sans-serif" font-size="7.8" font-weight="bold" lengthAdjust="spacing" textLength="8.4" x="494.7" y="1011.0967">44</text><text fill="#000000" font-family="sans-serif" font-size="7.8" lengthAdjust="spacing" textLength="78.6" x="505.5" y="1011.0967">addNewTeamToEntry()</text><rect fill="none" height="25.9512" style="stroke:#000000;stroke-width:0.8999999999999999;" width="84.6" x="700.8" y="1019.0543"/><path d="M700.8,1019.0543 L738,1019.0543 L738,1024.4543 L732,1030.4543 L700.8,1030.4543 L700.8,1019.0543 " fill="#EEEEEE" style="stroke:#000000;stroke-width:1.2;"/><text fill="#000000" font-family="sans-serif" font-size="7.8" font-weight="bold" lengthAdjust="spacing" textLength="10.2" x="708.6" y="1028.6713">ref</text><text fill="#000000" font-family="sans-serif" font-size="7.2" lengthAdjust="spacing" textLength="41.4" x="722.4" y="1040.6238">SendEmail()</text><polygon fill="#181818" points="497.1,1059.5801,491.1,1061.9801,497.1,1064.3801,494.7,1061.9801" style="stroke:#181818;stroke-width:0.6;"/><line style="stroke:#181818;stroke-width:0.6;" x1="493.5" x2="742.5" y1="1061.9801" y2="1061.9801"/><text fill="#000000" font-family="sans-serif" font-size="7.8" font-weight="bold" lengthAdjust="spacing" textLength="8.4" x="500.7" y="1058.8225">45</text><text fill="#000000" font-family="sans-serif" font-size="7.8" lengthAdjust="spacing" textLength="60" x="511.5" y="1058.8225">newTeamToEntry</text><polygon fill="#181818" points="288.9,1078.3547,282.9,1080.7547,288.9,1083.1547,286.5,1080.7547" style="stroke:#181818;stroke-width:0.6;"/><line style="stroke:#181818;stroke-width:0.6;stroke-dasharray:2.0,2.0;" x1="285.3" x2="486.9" y1="1080.7547" y2="1080.7547"/><text fill="#000000" font-family="sans-serif" font-size="7.8" font-weight="bold" lengthAdjust="spacing" textLength="8.4" x="292.5" y="1077.5971">46</text><text fill="#000000" font-family="sans-serif" font-size="7.8" lengthAdjust="spacing" textLength="60" x="303.3" y="1077.5971">newTeamToEntry</text><polygon fill="#181818" points="80.7,1097.1293,74.7,1099.5293,80.7,1101.9293,78.3,1099.5293" style="stroke:#181818;stroke-width:0.6;"/><line style="stroke:#181818;stroke-width:0.6;" x1="77.1" x2="275.7" y1="1099.5293" y2="1099.5293"/><text fill="#000000" font-family="sans-serif" font-size="7.8" font-weight="bold" lengthAdjust="spacing" textLength="8.4" x="84.3" y="1096.3717">47</text><text fill="#000000" font-family="sans-serif" font-size="7.8" lengthAdjust="spacing" textLength="94.8" x="95.1" y="1096.3717">displays success message</text><path d="M30,1108.5293 L78.6,1108.5293 L78.6,1114.1039 L72.6,1120.1039 L30,1120.1039 L30,1108.5293 " fill="#EEEEEE" style="stroke:#000000;stroke-width:0.8999999999999999;"/><rect fill="none" height="11.5746" style="stroke:#000000;stroke-width:0.8999999999999999;" width="51.6" x="30" y="1108.5293"/><text fill="#000000" font-family="sans-serif" font-size="7.8" font-weight="bold" lengthAdjust="spacing" textLength="21.6" x="39" y="1117.5463">break</text><!--SRC=[dLR1RkCW4BtxAr1FxQ4_qCDALPNjvj1sLJUtbIfg4mS5GsH8glpzFh2n0TkjqnmSO-QzWPat0thFvO4sj2QraghODQfcn3H7bkb-va2BFQrORiw2aOOLXifAX0PwHqlroML5jbHebcNqQ9GyrX-imNjXL4Ek7Xl69Cd1nJHveXA4pHMXcZpcJnbe32_uWKf3hkuU6aODko_BDqRhDxMIfZblrivuirvW-w3mL49q3ef-c61VsK5fZjLnffsbvdPZM7fis0Hs_-GOXlaOS5ynMTBUxWnG-ia1gVyOmn6z7PCOKyELZ6bcfXpT_URjp_lhwkzBJ7VKhCcPrW20OJECseZch-_vAi_NByz9UC8arUrxOk6YxURTMvP9PQ0GNkqCKTiWd0I_MvBxCU7QVUAIO74PWa0iqcc5dv1F9ueC3tBx2padT_2nryGeGikIK6AGR3UIX5dFbWc1wG8wq40k6U0W6KG0iiA9PZ0B5985Xe3rMm2gOcOjDSHViEkR0JpiCXkiRrENeOQoaasXl_JS9UCtwhFBtkLhy4bSuXxhRHsdmWtTMk5drdBaQb1suCoPnsvwkywP45P9Y57ePY3B1lkHIzO2GuS1C7JhDJM129LWXGDJgy8xj3ZrgOdWsYcxGq9_PQzCpGHQ8r6InSfjl-jMg0bhWcs5FObs4nuSxTlLGcl6od0l4Fy2XRlAjKifosVs6NJHQyzflmNPw4gznGK49ofu2GFjfzA5oeW-N6b7EPMZ11HLzenYhVsbUZKjvXkrTbR1PgslkK1vpip3Hbux5jV9zL6Oq7sFfi8GouocIUY9Sa4_SFZQzZaLBqVPgiMQH6ehkJu8UYPmIGVfRd4wWsdBczejnU522NQJsk5wrhJWqPUHgowLwUhYGXzBxSOX9kgsOLkYJg08yJbULpKYuN53K_XQSjROFIPxn5n84v8W0b5OSNqu5hZSuB340xJsN8lJXqDkGGfTGLlJDfVNLE2uAi_8bkQLP6Lxs5533CTThS5bZDsakmhgVII37_EdhSiTkNOKT33mxh2PNe12gJQogQgYnkODlkzltdAoi_d97rJjYBUlFp-pl8ezOggQUp-pLJsrYPdgJi9sSPLFvMLSxTrlvF7B3X1Pp-vhMLyOvIQksKalYnf7Jtn90vd8xlHw5lII6RwaUkEWVzDqGi072dlVVx7joF-xrXJV5OAHlNt_1m00]--></g></svg>