<?xml version="1.0" encoding="us-ascii" standalone="no"?><svg xmlns="http://www.w3.org/2000/svg" xmlns:xlink="http://www.w3.org/1999/xlink" contentStyleType="text/css" height="803px" preserveAspectRatio="none" style="width:547px;height:803px;background:#FFFFFF;" version="1.1" viewBox="0 0 547 803" width="547px" zoomAndPan="magnify"><defs/><g><text fill="#000000" font-family="sans-serif" font-size="14" font-weight="bold" lengthAdjust="spacing" textLength="276" x="137" y="30.1074">System Sequence Diagram (SSD) - US05</text><rect fill="#FFFFFF" height="540.9473" style="stroke:#181818;stroke-width:1.0;" width="10" x="86" y="151.8633"/><rect fill="#FFFFFF" height="31.291" style="stroke:#181818;stroke-width:1.0;" width="10" x="484" y="175.1543"/><rect fill="#FFFFFF" height="31.291" style="stroke:#181818;stroke-width:1.0;" width="10" x="484" y="237.7363"/><rect fill="#FFFFFF" height="57.582" style="stroke:#181818;stroke-width:1.0;" width="10" x="484" y="300.3184"/><rect fill="#FFFFFF" height="31.291" style="stroke:#181818;stroke-width:1.0;" width="10" x="484" y="480.0645"/><rect fill="#FFFFFF" height="31.291" style="stroke:#181818;stroke-width:1.0;" width="10" x="484" y="575.9375"/><rect fill="#FFFFFF" height="31.291" style="stroke:#181818;stroke-width:1.0;" width="10" x="484" y="638.5195"/><rect fill="none" height="50.582" style="stroke:#000000;stroke-width:1.5;" width="511" x="20" y="315.3184"/><rect fill="none" height="304.9102" style="stroke:#000000;stroke-width:1.5;" width="531" x="10" y="379.9004"/><rect fill="none" height="81.873" style="stroke:#000000;stroke-width:1.5;" width="511" x="20" y="437.4824"/><rect fill="none" height="144.4551" style="stroke:#000000;stroke-width:1.5;" width="511" x="20" y="533.3555"/><line style="stroke:#181818;stroke-width:0.5;stroke-dasharray:5.0,5.0;" x1="91" x2="91" y1="141.8633" y2="701.8105"/><line style="stroke:#181818;stroke-width:0.5;stroke-dasharray:5.0,5.0;" x1="489" x2="489" y1="141.8633" y2="701.8105"/><text fill="#000000" font-family="sans-serif" font-size="14" lengthAdjust="spacing" textLength="116" x="30" y="119.7285">Human Resources</text><text fill="#000000" font-family="sans-serif" font-size="14" lengthAdjust="spacing" textLength="56" x="60" y="138.3496">Manager</text><ellipse cx="91" cy="53.1211" fill="#E3E3E3" rx="8" ry="8" style="stroke:#181818;stroke-width:0.5;"/><path d="M91,61.1211 L91,88.1211 M78,69.1211 L104,69.1211 M91,88.1211 L78,103.1211 M91,88.1211 L104,103.1211 " fill="none" style="stroke:#181818;stroke-width:0.5;"/><text fill="#000000" font-family="sans-serif" font-size="14" lengthAdjust="spacing" textLength="116" x="30" y="715.918">Human Resources</text><text fill="#000000" font-family="sans-serif" font-size="14" lengthAdjust="spacing" textLength="56" x="60" y="734.5391">Manager</text><ellipse cx="91" cy="746.5527" fill="#E3E3E3" rx="8" ry="8" style="stroke:#181818;stroke-width:0.5;"/><path d="M91,754.5527 L91,781.5527 M78,762.5527 L104,762.5527 M91,781.5527 L78,796.5527 M91,781.5527 L104,796.5527 " fill="none" style="stroke:#181818;stroke-width:0.5;"/><rect fill="#E3E3E3" height="32.6211" rx="2.5" ry="2.5" style="stroke:#181818;stroke-width:0.5;" width="64" x="457" y="108.2422"/><text fill="#000000" font-family="sans-serif" font-size="14" lengthAdjust="spacing" textLength="50" x="464" y="130.3496">:System</text><rect fill="#E3E3E3" height="32.6211" rx="2.5" ry="2.5" style="stroke:#181818;stroke-width:0.5;" width="64" x="457" y="700.8105"/><text fill="#000000" font-family="sans-serif" font-size="14" lengthAdjust="spacing" textLength="50" x="464" y="722.918">:System</text><rect fill="#FFFFFF" height="540.9473" style="stroke:#181818;stroke-width:1.0;" width="10" x="86" y="151.8633"/><rect fill="#FFFFFF" height="31.291" style="stroke:#181818;stroke-width:1.0;" width="10" x="484" y="175.1543"/><rect fill="#FFFFFF" height="31.291" style="stroke:#181818;stroke-width:1.0;" width="10" x="484" y="237.7363"/><rect fill="#FFFFFF" height="57.582" style="stroke:#181818;stroke-width:1.0;" width="10" x="484" y="300.3184"/><rect fill="#FFFFFF" height="31.291" style="stroke:#181818;stroke-width:1.0;" width="10" x="484" y="480.0645"/><rect fill="#FFFFFF" height="31.291" style="stroke:#181818;stroke-width:1.0;" width="10" x="484" y="575.9375"/><rect fill="#FFFFFF" height="31.291" style="stroke:#181818;stroke-width:1.0;" width="10" x="484" y="638.5195"/><polygon fill="#181818" points="472,171.1543,482,175.1543,472,179.1543,476,175.1543" style="stroke:#181818;stroke-width:1.0;"/><line style="stroke:#181818;stroke-width:1.0;" x1="96" x2="478" y1="175.1543" y2="175.1543"/><text fill="#000000" font-family="sans-serif" font-size="13" font-weight="bold" lengthAdjust="spacing" textLength="7" x="103" y="169.8916">1</text><text fill="#000000" font-family="sans-serif" font-size="13" lengthAdjust="spacing" textLength="194" x="114" y="169.8916">asks to generate a team proposal</text><polygon fill="#181818" points="107,202.4453,97,206.4453,107,210.4453,103,206.4453" style="stroke:#181818;stroke-width:1.0;"/><line style="stroke:#181818;stroke-width:1.0;stroke-dasharray:2.0,2.0;" x1="101" x2="488" y1="206.4453" y2="206.4453"/><text fill="#000000" font-family="sans-serif" font-size="13" font-weight="bold" lengthAdjust="spacing" textLength="7" x="113" y="201.1826">2</text><text fill="#000000" font-family="sans-serif" font-size="13" lengthAdjust="spacing" textLength="140" x="124" y="201.1826">requests team max size</text><polygon fill="#181818" points="472,233.7363,482,237.7363,472,241.7363,476,237.7363" style="stroke:#181818;stroke-width:1.0;"/><line style="stroke:#181818;stroke-width:1.0;" x1="96" x2="478" y1="237.7363" y2="237.7363"/><text fill="#000000" font-family="sans-serif" font-size="13" font-weight="bold" lengthAdjust="spacing" textLength="7" x="103" y="232.4736">3</text><text fill="#000000" font-family="sans-serif" font-size="13" lengthAdjust="spacing" textLength="122" x="114" y="232.4736">types requested data</text><polygon fill="#181818" points="107,265.0273,97,269.0273,107,273.0273,103,269.0273" style="stroke:#181818;stroke-width:1.0;"/><line style="stroke:#181818;stroke-width:1.0;stroke-dasharray:2.0,2.0;" x1="101" x2="488" y1="269.0273" y2="269.0273"/><text fill="#000000" font-family="sans-serif" font-size="13" font-weight="bold" lengthAdjust="spacing" textLength="7" x="113" y="263.7646">4</text><text fill="#000000" font-family="sans-serif" font-size="13" lengthAdjust="spacing" textLength="240" x="124" y="263.7646">shows list of skills for the HRM to choose</text><polygon fill="#181818" points="472,296.3184,482,300.3184,472,304.3184,476,300.3184" style="stroke:#181818;stroke-width:1.0;"/><line style="stroke:#181818;stroke-width:1.0;" x1="96" x2="478" y1="300.3184" y2="300.3184"/><text fill="#000000" font-family="sans-serif" font-size="13" font-weight="bold" lengthAdjust="spacing" textLength="7" x="103" y="295.0557">5</text><text fill="#000000" font-family="sans-serif" font-size="13" lengthAdjust="spacing" textLength="121" x="114" y="295.0557">selects wanted skills</text><path d="M20,315.3184 L81,315.3184 L81,324.6094 L71,334.6094 L20,334.6094 L20,315.3184 " fill="#EEEEEE" style="stroke:#000000;stroke-width:1.5;"/><rect fill="none" height="50.582" style="stroke:#000000;stroke-width:1.5;" width="511" x="20" y="315.3184"/><text fill="#000000" font-family="sans-serif" font-size="13" font-weight="bold" lengthAdjust="spacing" textLength="16" x="35" y="330.3467">alt</text><text fill="#000000" font-family="sans-serif" font-size="11" font-weight="bold" lengthAdjust="spacing" textLength="143" x="96" y="329.1885">[doesn't generate a team]</text><polygon fill="#181818" points="107,353.9004,97,357.9004,107,361.9004,103,357.9004" style="stroke:#181818;stroke-width:1.0;"/><line style="stroke:#181818;stroke-width:1.0;stroke-dasharray:2.0,2.0;" x1="101" x2="488" y1="357.9004" y2="357.9004"/><text fill="#000000" font-family="sans-serif" font-size="13" font-weight="bold" lengthAdjust="spacing" textLength="7" x="113" y="352.6377">6</text><text fill="#000000" font-family="sans-serif" font-size="13" lengthAdjust="spacing" textLength="261" x="124" y="352.6377">shows information on the reason of the failure</text><path d="M10,379.9004 L71,379.9004 L71,389.1914 L61,399.1914 L10,399.1914 L10,379.9004 " fill="#EEEEEE" style="stroke:#000000;stroke-width:1.5;"/><rect fill="none" height="304.9102" style="stroke:#000000;stroke-width:1.5;" width="531" x="10" y="379.9004"/><text fill="#000000" font-family="sans-serif" font-size="13" font-weight="bold" lengthAdjust="spacing" textLength="16" x="25" y="394.9287">alt</text><text fill="#000000" font-family="sans-serif" font-size="11" font-weight="bold" lengthAdjust="spacing" textLength="96" x="86" y="393.7705">[generates team]</text><polygon fill="#181818" points="107,418.4824,97,422.4824,107,426.4824,103,422.4824" style="stroke:#181818;stroke-width:1.0;"/><line style="stroke:#181818;stroke-width:1.0;stroke-dasharray:2.0,2.0;" x1="101" x2="488" y1="422.4824" y2="422.4824"/><text fill="#000000" font-family="sans-serif" font-size="13" font-weight="bold" lengthAdjust="spacing" textLength="7" x="113" y="417.2197">7</text><text fill="#000000" font-family="sans-serif" font-size="13" lengthAdjust="spacing" textLength="284" x="124" y="417.2197">shows team generated and requests confirmation</text><path d="M20,437.4824 L81,437.4824 L81,446.7734 L71,456.7734 L20,456.7734 L20,437.4824 " fill="#EEEEEE" style="stroke:#000000;stroke-width:1.5;"/><rect fill="none" height="81.873" style="stroke:#000000;stroke-width:1.5;" width="511" x="20" y="437.4824"/><text fill="#000000" font-family="sans-serif" font-size="13" font-weight="bold" lengthAdjust="spacing" textLength="16" x="35" y="452.5107">alt</text><text fill="#000000" font-family="sans-serif" font-size="11" font-weight="bold" lengthAdjust="spacing" textLength="96" x="96" y="451.3525">[accept proposal]</text><polygon fill="#181818" points="472,476.0645,482,480.0645,472,484.0645,476,480.0645" style="stroke:#181818;stroke-width:1.0;"/><line style="stroke:#181818;stroke-width:1.0;" x1="96" x2="478" y1="480.0645" y2="480.0645"/><text fill="#000000" font-family="sans-serif" font-size="13" font-weight="bold" lengthAdjust="spacing" textLength="7" x="103" y="474.8018">8</text><text fill="#000000" font-family="sans-serif" font-size="13" lengthAdjust="spacing" textLength="82" x="114" y="474.8018">confirms team</text><polygon fill="#181818" points="107,507.3555,97,511.3555,107,515.3555,103,511.3555" style="stroke:#181818;stroke-width:1.0;"/><line style="stroke:#181818;stroke-width:1.0;stroke-dasharray:2.0,2.0;" x1="101" x2="488" y1="511.3555" y2="511.3555"/><text fill="#000000" font-family="sans-serif" font-size="13" font-weight="bold" lengthAdjust="spacing" textLength="7" x="113" y="506.0928">9</text><text fill="#000000" font-family="sans-serif" font-size="13" lengthAdjust="spacing" textLength="353" x="124" y="506.0928">displays operation success and presents the team generated</text><path d="M20,533.3555 L81,533.3555 L81,542.6465 L71,552.6465 L20,552.6465 L20,533.3555 " fill="#EEEEEE" style="stroke:#000000;stroke-width:1.5;"/><rect fill="none" height="144.4551" style="stroke:#000000;stroke-width:1.5;" width="511" x="20" y="533.3555"/><text fill="#000000" font-family="sans-serif" font-size="13" font-weight="bold" lengthAdjust="spacing" textLength="16" x="35" y="548.3838">alt</text><text fill="#000000" font-family="sans-serif" font-size="11" font-weight="bold" lengthAdjust="spacing" textLength="92" x="96" y="547.2256">[reject proposal]</text><polygon fill="#181818" points="472,571.9375,482,575.9375,472,579.9375,476,575.9375" style="stroke:#181818;stroke-width:1.0;"/><line style="stroke:#181818;stroke-width:1.0;" x1="96" x2="478" y1="575.9375" y2="575.9375"/><text fill="#000000" font-family="sans-serif" font-size="13" font-weight="bold" lengthAdjust="spacing" textLength="14" x="103" y="570.6748">10</text><text fill="#000000" font-family="sans-serif" font-size="13" lengthAdjust="spacing" textLength="72" x="121" y="570.6748">rejects team</text><polygon fill="#181818" points="107,603.2285,97,607.2285,107,611.2285,103,607.2285" style="stroke:#181818;stroke-width:1.0;"/><line style="stroke:#181818;stroke-width:1.0;stroke-dasharray:2.0,2.0;" x1="101" x2="488" y1="607.2285" y2="607.2285"/><text fill="#000000" font-family="sans-serif" font-size="13" font-weight="bold" lengthAdjust="spacing" textLength="14" x="113" y="601.9658">11</text><text fill="#000000" font-family="sans-serif" font-size="13" lengthAdjust="spacing" textLength="260" x="131" y="601.9658">generates a new team and asks for validation</text><polygon fill="#181818" points="472,634.5195,482,638.5195,472,642.5195,476,638.5195" style="stroke:#181818;stroke-width:1.0;"/><line style="stroke:#181818;stroke-width:1.0;" x1="96" x2="478" y1="638.5195" y2="638.5195"/><text fill="#000000" font-family="sans-serif" font-size="13" font-weight="bold" lengthAdjust="spacing" textLength="14" x="103" y="633.2568">12</text><text fill="#000000" font-family="sans-serif" font-size="13" lengthAdjust="spacing" textLength="137" x="121" y="633.2568">accepts or rejects team</text><polygon fill="#181818" points="107,665.8105,97,669.8105,107,673.8105,103,669.8105" style="stroke:#181818;stroke-width:1.0;"/><line style="stroke:#181818;stroke-width:1.0;stroke-dasharray:2.0,2.0;" x1="101" x2="488" y1="669.8105" y2="669.8105"/><text fill="#000000" font-family="sans-serif" font-size="13" font-weight="bold" lengthAdjust="spacing" textLength="14" x="113" y="664.5479">13</text><text fill="#000000" font-family="sans-serif" font-size="13" lengthAdjust="spacing" textLength="105" x="131" y="664.5479">displays message</text><!--SRC=[hPGzazD038Px_mfD6g3830rD2gfZvffhpaD78zQolMIzkwpa2-RNe_LdW4iktE19iJkMNZslf9YFraTCs44NV31j2Xs1f9uANjz4D4Tig9J14IGoWhvnvm7SOXLErZTGesCg2h6YeUN0GXsKzBqdRmZkB3Ov_6rPths3FNmkttye2kmb-BxxIadFHaA2tNtVeOT7uj0dG_p5Fw1NWBG3PFZKHHS6ea9hYpKseXVO7QPYOyHq7DNi4mfjAGNeiznW_t51F6ZQaK42DEGfvHm4eUmzXHWOtPYv2YuLO7vccRqghke7RPKQP-59gSCVmFOdZKaLFQlrB9eCaNWHemeg57mD3hVXnE0i2uGQT7hECTJQRsa9xXyVidtJXi3_ZiZaT2qOJZeB9PoqLvo_T2Pw9r05Olz6_kpwRKwiL_WEnGOF-iik4Y7dMptUQhIkJxIANN55ljge5Xe-Wxa6CevtIQe0VRMDtWHVsvcoU04YrqPZACgsTfTxFYlFaA_OXyfoT3WmX9Z9Snkvr_BCeuMOYCddxTLM_cwnkBMJYRxfNjpYPeeyCtFLq6LJs-mGF9qcy6nd_8FdRNz2PwkNvd7vEp7EHtkM_XloEeTEMw-VkUBMNSs7Nm00]--></g></svg>