<?xml version="1.0" encoding="us-ascii" standalone="no"?><svg xmlns="http://www.w3.org/2000/svg" xmlns:xlink="http://www.w3.org/1999/xlink" contentStyleType="text/css" height="1045px" preserveAspectRatio="none" style="width:1269px;height:1045px;background:#FFFFFF;" version="1.1" viewBox="0 0 1269 1045" width="1269px" zoomAndPan="magnify"><defs/><g><!--cluster Controller--><g id="cluster_Controller"><path d="M8.5,154.49 L82.5,154.49 A3.75,3.75 0 0 1 85,156.99 L92,176.9783 L535.5,176.9783 A2.5,2.5 0 0 1 538,179.4783 L538,283.97 A2.5,2.5 0 0 1 535.5,286.47 L8.5,286.47 A2.5,2.5 0 0 1 6,283.97 L6,156.99 A2.5,2.5 0 0 1 8.5,154.49 " fill="none" style="stroke:#000000;stroke-width:1.5;"/><line style="stroke:#000000;stroke-width:1.5;" x1="6" x2="92" y1="176.9783" y2="176.9783"/><text fill="#000000" font-family="sans-serif" font-size="14" font-weight="bold" lengthAdjust="spacing" textLength="73" x="10" y="170.0252">Controller</text></g><!--cluster UI--><g id="cluster_UI"><path d="M159.5,6 L175.5,6 A3.75,3.75 0 0 1 178,8.5 L185,28.4883 L384.5,28.4883 A2.5,2.5 0 0 1 387,30.9883 L387,118.99 A2.5,2.5 0 0 1 384.5,121.49 L159.5,121.49 A2.5,2.5 0 0 1 157,118.99 L157,8.5 A2.5,2.5 0 0 1 159.5,6 " fill="none" style="stroke:#000000;stroke-width:1.5;"/><line style="stroke:#000000;stroke-width:1.5;" x1="157" x2="185" y1="28.4883" y2="28.4883"/><text fill="#000000" font-family="sans-serif" font-size="14" font-weight="bold" lengthAdjust="spacing" textLength="15" x="161" y="21.5352">UI</text></g><!--cluster RepositoriesPkg--><g id="cluster_RepositoriesPkg"><path d="M296.5,335.47 L415.5,335.47 A3.75,3.75 0 0 1 418,337.97 L425,357.9583 L1055.5,357.9583 A2.5,2.5 0 0 1 1058,360.4583 L1058,672.87 A2.5,2.5 0 0 1 1055.5,675.37 L296.5,675.37 A2.5,2.5 0 0 1 294,672.87 L294,337.97 A2.5,2.5 0 0 1 296.5,335.47 " fill="none" style="stroke:#000000;stroke-width:1.5;"/><line style="stroke:#000000;stroke-width:1.5;" x1="294" x2="425" y1="357.9583" y2="357.9583"/><text fill="#000000" font-family="sans-serif" font-size="14" font-weight="bold" lengthAdjust="spacing" textLength="118" x="298" y="351.0052">RepositoriesPkg</text></g><!--cluster Domain--><g id="cluster_Domain"><path d="M362.5,708.37 L419.5,708.37 A3.75,3.75 0 0 1 422,710.87 L429,730.8583 L1259.5,730.8583 A2.5,2.5 0 0 1 1262,733.3583 L1262,1035.71 A2.5,2.5 0 0 1 1259.5,1038.21 L362.5,1038.21 A2.5,2.5 0 0 1 360,1035.71 L360,710.87 A2.5,2.5 0 0 1 362.5,708.37 " fill="none" style="stroke:#000000;stroke-width:1.5;"/><line style="stroke:#000000;stroke-width:1.5;" x1="360" x2="429" y1="730.8583" y2="730.8583"/><text fill="#000000" font-family="sans-serif" font-size="14" font-weight="bold" lengthAdjust="spacing" textLength="56" x="364" y="723.9052">Domain</text></g><!--class PostponeAgendaEntryController--><g id="elem_PostponeAgendaEntryController"><rect codeLine="12" fill="#F1F1F1" height="80.9766" id="PostponeAgendaEntryController" rx="2.5" ry="2.5" style="stroke:#181818;stroke-width:0.5;" width="499" x="22.5" y="189.49"/><ellipse cx="156.75" cy="205.49" fill="#ADD1B2" rx="11" ry="11" style="stroke:#181818;stroke-width:1.0;"/><path d="M159.7231,211.1331 Q159.1421,211.4319 158.5029,211.5813 Q157.8638,211.7307 157.1582,211.7307 Q154.6514,211.7307 153.3315,210.0789 Q152.0117,208.427 152.0117,205.3059 Q152.0117,202.1765 153.3315,200.5247 Q154.6514,198.8728 157.1582,198.8728 Q157.8638,198.8728 158.5112,199.0222 Q159.1587,199.1716 159.7231,199.4705 L159.7231,202.1931 Q159.0923,201.6121 158.4988,201.3423 Q157.9053,201.0725 157.2744,201.0725 Q155.9297,201.0725 155.2449,202.1392 Q154.5601,203.2058 154.5601,205.3059 Q154.5601,207.3977 155.2449,208.4644 Q155.9297,209.531 157.2744,209.531 Q157.9053,209.531 158.4988,209.2612 Q159.0923,208.9915 159.7231,208.4104 Z " fill="#000000"/><text fill="#000000" font-family="sans-serif" font-size="14" lengthAdjust="spacing" textLength="222" x="177.25" y="210.781">PostponeAgendaEntryController</text><line style="stroke:#181818;stroke-width:0.5;" x1="23.5" x2="520.5" y1="221.49" y2="221.49"/><line style="stroke:#181818;stroke-width:0.5;" x1="23.5" x2="520.5" y1="229.49" y2="229.49"/><text fill="#000000" font-family="sans-serif" font-size="14" lengthAdjust="spacing" textLength="399" x="28.5" y="247.0252">+getEntriesFromAgendaStartingFrom(currentDate, status)</text><text fill="#000000" font-family="sans-serif" font-size="14" lengthAdjust="spacing" textLength="487" x="28.5" y="263.5134">+postponeEntryToDate(selectedEntry, selectedDateHour, futureEntries)</text></g><!--class PostponeAgendaEntryUI--><g id="elem_PostponeAgendaEntryUI"><rect codeLine="18" fill="#F1F1F1" height="64.4883" id="PostponeAgendaEntryUI" rx="2.5" ry="2.5" style="stroke:#181818;stroke-width:0.5;" width="198" x="173" y="41"/><ellipse cx="188" cy="57" fill="#ADD1B2" rx="11" ry="11" style="stroke:#181818;stroke-width:1.0;"/><path d="M190.9731,62.6431 Q190.3921,62.9419 189.7529,63.0913 Q189.1138,63.2407 188.4082,63.2407 Q185.9014,63.2407 184.5815,61.5889 Q183.2617,59.937 183.2617,56.8159 Q183.2617,53.6865 184.5815,52.0347 Q185.9014,50.3828 188.4082,50.3828 Q189.1138,50.3828 189.7612,50.5322 Q190.4087,50.6816 190.9731,50.9805 L190.9731,53.7031 Q190.3423,53.1221 189.7488,52.8523 Q189.1553,52.5825 188.5244,52.5825 Q187.1797,52.5825 186.4949,53.6492 Q185.8101,54.7158 185.8101,56.8159 Q185.8101,58.9077 186.4949,59.9744 Q187.1797,61.041 188.5244,61.041 Q189.1553,61.041 189.7488,60.7712 Q190.3423,60.5015 190.9731,59.9204 Z " fill="#000000"/><text fill="#000000" font-family="sans-serif" font-size="14" lengthAdjust="spacing" textLength="166" x="202" y="62.291">PostponeAgendaEntryUI</text><line style="stroke:#181818;stroke-width:0.5;" x1="174" x2="370" y1="73" y2="73"/><line style="stroke:#181818;stroke-width:0.5;" x1="174" x2="370" y1="81" y2="81"/><text fill="#000000" font-family="sans-serif" font-size="14" lengthAdjust="spacing" textLength="45" x="179" y="98.5352">+run()</text></g><!--class Repositories--><g id="elem_Repositories"><rect codeLine="25" fill="#F1F1F1" height="163.418" id="Repositories" rx="2.5" ry="2.5" style="stroke:#181818;stroke-width:0.5;" width="310" x="368" y="370.47"/><ellipse cx="476.25" cy="386.47" fill="#ADD1B2" rx="11" ry="11" style="stroke:#181818;stroke-width:1.0;"/><path d="M479.2231,392.1131 Q478.6421,392.4119 478.0029,392.5613 Q477.3638,392.7107 476.6582,392.7107 Q474.1514,392.7107 472.8315,391.0589 Q471.5117,389.407 471.5117,386.2859 Q471.5117,383.1565 472.8315,381.5047 Q474.1514,379.8528 476.6582,379.8528 Q477.3638,379.8528 478.0112,380.0022 Q478.6587,380.1516 479.2231,380.4505 L479.2231,383.1731 Q478.5923,382.5921 477.9988,382.3223 Q477.4053,382.0525 476.7744,382.0525 Q475.4297,382.0525 474.7449,383.1192 Q474.0601,384.1858 474.0601,386.2859 Q474.0601,388.3777 474.7449,389.4444 Q475.4297,390.511 476.7744,390.511 Q477.4053,390.511 477.9988,390.2412 Q478.5923,389.9715 479.2231,389.3904 Z " fill="#000000"/><text fill="#000000" font-family="sans-serif" font-size="14" lengthAdjust="spacing" textLength="85" x="496.75" y="391.761">Repositories</text><line style="stroke:#181818;stroke-width:0.5;" x1="369" x2="677" y1="402.47" y2="402.47"/><text fill="#000000" font-family="sans-serif" font-size="14" lengthAdjust="spacing" textLength="162" x="374" y="420.0052">-instance : Repositories</text><text fill="#000000" font-family="sans-serif" font-size="14" lengthAdjust="spacing" textLength="194" x="374" y="436.4934">-Repository : SkillRepository</text><text fill="#000000" font-family="sans-serif" font-size="14" lengthAdjust="spacing" textLength="270" x="374" y="452.9817">-agendaRepository : AgendaRepository</text><text fill="#000000" font-family="sans-serif" font-size="14" lengthAdjust="spacing" textLength="298" x="374" y="469.47">-employeeRepository : EmployeeRepository</text><line style="stroke:#181818;stroke-width:0.5;" x1="369" x2="677" y1="476.4231" y2="476.4231"/><text fill="#000000" font-family="sans-serif" font-size="14" lengthAdjust="spacing" textLength="197" x="374" y="493.9583">+getInstance() : Repositories</text><text fill="#000000" font-family="sans-serif" font-size="14" lengthAdjust="spacing" textLength="169" x="374" y="510.4466">+getAgendaRepository()</text><text fill="#000000" font-family="sans-serif" font-size="14" lengthAdjust="spacing" textLength="182" x="374" y="526.9348">+getEmployeeRepository()</text></g><!--class EmployeeRepository--><g id="elem_EmployeeRepository"><rect codeLine="36" fill="#F1F1F1" height="97.4648" id="EmployeeRepository" rx="2.5" ry="2.5" style="stroke:#181818;stroke-width:0.5;" width="246" x="796" y="403.44"/><ellipse cx="845.25" cy="419.44" fill="#ADD1B2" rx="11" ry="11" style="stroke:#181818;stroke-width:1.0;"/><path d="M848.2231,425.0831 Q847.6421,425.3819 847.0029,425.5313 Q846.3638,425.6807 845.6582,425.6807 Q843.1514,425.6807 841.8315,424.0289 Q840.5117,422.377 840.5117,419.2559 Q840.5117,416.1265 841.8315,414.4747 Q843.1514,412.8228 845.6582,412.8228 Q846.3638,412.8228 847.0112,412.9722 Q847.6587,413.1216 848.2231,413.4205 L848.2231,416.1431 Q847.5923,415.5621 846.9988,415.2923 Q846.4053,415.0225 845.7744,415.0225 Q844.4297,415.0225 843.7449,416.0892 Q843.0601,417.1558 843.0601,419.2559 Q843.0601,421.3477 843.7449,422.4144 Q844.4297,423.481 845.7744,423.481 Q846.4053,423.481 846.9988,423.2112 Q847.5923,422.9415 848.2231,422.3604 Z " fill="#000000"/><text fill="#000000" font-family="sans-serif" font-size="14" lengthAdjust="spacing" textLength="139" x="865.75" y="424.731">EmployeeRepository</text><line style="stroke:#181818;stroke-width:0.5;" x1="797" x2="1041" y1="435.44" y2="435.44"/><line style="stroke:#181818;stroke-width:0.5;" x1="797" x2="1041" y1="443.44" y2="443.44"/><text fill="#000000" font-family="sans-serif" font-size="14" lengthAdjust="spacing" textLength="116" x="802" y="460.9752">+getEmployees()</text><text fill="#000000" font-family="sans-serif" font-size="14" lengthAdjust="spacing" textLength="234" x="802" y="477.4634">+validateEmployee(newEmployee)</text><text fill="#000000" font-family="sans-serif" font-size="14" lengthAdjust="spacing" textLength="214" x="802" y="493.9517">+addEmployees(newEmployee)</text></g><!--class AgendaRepository--><g id="elem_AgendaRepository"><rect codeLine="44" fill="#F1F1F1" height="64.4883" id="AgendaRepository" rx="2.5" ry="2.5" style="stroke:#181818;stroke-width:0.5;" width="487" x="310.5" y="594.89"/><ellipse cx="486.75" cy="610.89" fill="#ADD1B2" rx="11" ry="11" style="stroke:#181818;stroke-width:1.0;"/><path d="M489.7231,616.5331 Q489.1421,616.8319 488.5029,616.9813 Q487.8638,617.1307 487.1582,617.1307 Q484.6514,617.1307 483.3315,615.4789 Q482.0117,613.827 482.0117,610.7059 Q482.0117,607.5765 483.3315,605.9247 Q484.6514,604.2728 487.1582,604.2728 Q487.8638,604.2728 488.5112,604.4222 Q489.1587,604.5716 489.7231,604.8705 L489.7231,607.5931 Q489.0923,607.0121 488.4988,606.7423 Q487.9053,606.4725 487.2744,606.4725 Q485.9297,606.4725 485.2449,607.5392 Q484.5601,608.6058 484.5601,610.7059 Q484.5601,612.7977 485.2449,613.8644 Q485.9297,614.931 487.2744,614.931 Q487.9053,614.931 488.4988,614.6612 Q489.0923,614.3915 489.7231,613.8104 Z " fill="#000000"/><text fill="#000000" font-family="sans-serif" font-size="14" lengthAdjust="spacing" textLength="126" x="507.25" y="616.181">AgendaRepository</text><line style="stroke:#181818;stroke-width:0.5;" x1="311.5" x2="796.5" y1="626.89" y2="626.89"/><line style="stroke:#181818;stroke-width:0.5;" x1="311.5" x2="796.5" y1="634.89" y2="634.89"/><text fill="#000000" font-family="sans-serif" font-size="14" lengthAdjust="spacing" textLength="475" x="316.5" y="652.4252">+getEntriesFromAgendaStartingFrom(currentDate, status="Planned")</text></g><!--class AuthenticationRepository--><g id="elem_AuthenticationRepository"><rect codeLine="48" fill="#F1F1F1" height="64.4883" id="AuthenticationRepository" rx="2.5" ry="2.5" style="stroke:#181818;stroke-width:0.5;" width="209" x="832.5" y="594.89"/><ellipse cx="848.85" cy="610.89" fill="#ADD1B2" rx="11" ry="11" style="stroke:#181818;stroke-width:1.0;"/><path d="M851.8231,616.5331 Q851.2421,616.8319 850.6029,616.9813 Q849.9638,617.1307 849.2582,617.1307 Q846.7514,617.1307 845.4315,615.4789 Q844.1117,613.827 844.1117,610.7059 Q844.1117,607.5765 845.4315,605.9247 Q846.7514,604.2728 849.2582,604.2728 Q849.9638,604.2728 850.6112,604.4222 Q851.2587,604.5716 851.8231,604.8705 L851.8231,607.5931 Q851.1923,607.0121 850.5988,606.7423 Q850.0053,606.4725 849.3744,606.4725 Q848.0297,606.4725 847.3449,607.5392 Q846.6601,608.6058 846.6601,610.7059 Q846.6601,612.7977 847.3449,613.8644 Q848.0297,614.931 849.3744,614.931 Q850.0053,614.931 850.5988,614.6612 Q851.1923,614.3915 851.8231,613.8104 Z " fill="#000000"/><text fill="#000000" font-family="sans-serif" font-size="14" lengthAdjust="spacing" textLength="174" x="863.15" y="616.181">AuthenticationRepository</text><line style="stroke:#181818;stroke-width:0.5;" x1="833.5" x2="1040.5" y1="626.89" y2="626.89"/><line style="stroke:#181818;stroke-width:0.5;" x1="833.5" x2="1040.5" y1="634.89" y2="634.89"/><text fill="#000000" font-family="sans-serif" font-size="14" lengthAdjust="spacing" textLength="197" x="838.5" y="652.4252">+getEmployeeFromSession()</text></g><!--class Entry--><g id="elem_Entry"><rect codeLine="55" fill="#F1F1F1" height="212.8828" id="Entry" rx="2.5" ry="2.5" style="stroke:#181818;stroke-width:0.5;" width="446" x="376" y="776.35"/><ellipse cx="577.25" cy="792.35" fill="#ADD1B2" rx="11" ry="11" style="stroke:#181818;stroke-width:1.0;"/><path d="M580.2231,797.9931 Q579.6421,798.2919 579.0029,798.4413 Q578.3638,798.5907 577.6582,798.5907 Q575.1514,798.5907 573.8315,796.9389 Q572.5117,795.287 572.5117,792.1659 Q572.5117,789.0365 573.8315,787.3847 Q575.1514,785.7328 577.6582,785.7328 Q578.3638,785.7328 579.0112,785.8822 Q579.6587,786.0316 580.2231,786.3305 L580.2231,789.0531 Q579.5923,788.4721 578.9988,788.2023 Q578.4053,787.9325 577.7744,787.9325 Q576.4297,787.9325 575.7449,788.9992 Q575.0601,790.0658 575.0601,792.1659 Q575.0601,794.2577 575.7449,795.3244 Q576.4297,796.391 577.7744,796.391 Q578.4053,796.391 578.9988,796.1212 Q579.5923,795.8515 580.2231,795.2704 Z " fill="#000000"/><text fill="#000000" font-family="sans-serif" font-size="14" lengthAdjust="spacing" textLength="35" x="597.75" y="797.641">Entry</text><line style="stroke:#181818;stroke-width:0.5;" x1="377" x2="821" y1="808.35" y2="808.35"/><text fill="#000000" font-family="sans-serif" font-size="14" lengthAdjust="spacing" textLength="91" x="382" y="825.8852">-String name</text><text fill="#000000" font-family="sans-serif" font-size="14" lengthAdjust="spacing" textLength="130" x="382" y="842.3734">-String description</text><text fill="#000000" font-family="sans-serif" font-size="14" lengthAdjust="spacing" textLength="157" x="382" y="858.8617">-String urgencyDegree</text><text fill="#000000" font-family="sans-serif" font-size="14" lengthAdjust="spacing" textLength="89" x="382" y="875.35">-int duration</text><text fill="#000000" font-family="sans-serif" font-size="14" lengthAdjust="spacing" textLength="173" x="382" y="891.8383">-GreenSpace greenSpace</text><text fill="#000000" font-family="sans-serif" font-size="14" lengthAdjust="spacing" textLength="94" x="382" y="908.3266">-String status</text><text fill="#000000" font-family="sans-serif" font-size="14" lengthAdjust="spacing" textLength="144" x="382" y="924.8148">-LocalDate entryDate</text><text fill="#000000" font-family="sans-serif" font-size="14" lengthAdjust="spacing" textLength="63" x="382" y="941.3031">-int hour</text><line style="stroke:#181818;stroke-width:0.5;" x1="377" x2="821" y1="948.2563" y2="948.2563"/><text fill="#000000" font-family="sans-serif" font-size="14" lengthAdjust="spacing" textLength="425" x="382" y="965.7914">+Entry(String name, String description, String urgencyDegree,</text><text fill="#000000" font-family="sans-serif" font-size="14" lengthAdjust="spacing" textLength="430" x="386" y="982.2797">int duration, GreenSpace greenSpace, LocalDate date, int hour)</text></g><!--class Employee--><g id="elem_Employee"><rect codeLine="68" fill="#F1F1F1" height="278.8359" id="Employee" rx="2.5" ry="2.5" style="stroke:#181818;stroke-width:0.5;" width="389" x="856.5" y="743.37"/><ellipse cx="1013.75" cy="759.37" fill="#ADD1B2" rx="11" ry="11" style="stroke:#181818;stroke-width:1.0;"/><path d="M1016.7231,765.0131 Q1016.1421,765.3119 1015.5029,765.4613 Q1014.8638,765.6107 1014.1582,765.6107 Q1011.6514,765.6107 1010.3315,763.9589 Q1009.0117,762.307 1009.0117,759.1859 Q1009.0117,756.0565 1010.3315,754.4047 Q1011.6514,752.7528 1014.1582,752.7528 Q1014.8638,752.7528 1015.5112,752.9022 Q1016.1587,753.0516 1016.7231,753.3505 L1016.7231,756.0731 Q1016.0923,755.4921 1015.4988,755.2223 Q1014.9053,754.9525 1014.2744,754.9525 Q1012.9297,754.9525 1012.2449,756.0192 Q1011.5601,757.0858 1011.5601,759.1859 Q1011.5601,761.2777 1012.2449,762.3444 Q1012.9297,763.411 1014.2744,763.411 Q1014.9053,763.411 1015.4988,763.1412 Q1016.0923,762.8715 1016.7231,762.2904 Z " fill="#000000"/><text fill="#000000" font-family="sans-serif" font-size="14" lengthAdjust="spacing" textLength="66" x="1034.25" y="764.661">Employee</text><line style="stroke:#181818;stroke-width:0.5;" x1="857.5" x2="1244.5" y1="775.37" y2="775.37"/><text fill="#000000" font-family="sans-serif" font-size="14" lengthAdjust="spacing" textLength="91" x="862.5" y="792.9052">-name:String</text><text fill="#000000" font-family="sans-serif" font-size="14" lengthAdjust="spacing" textLength="106" x="862.5" y="809.3934">-birthdate:Date</text><text fill="#000000" font-family="sans-serif" font-size="14" lengthAdjust="spacing" textLength="144" x="862.5" y="825.8817">-admissionDate:Date</text><text fill="#000000" font-family="sans-serif" font-size="14" lengthAdjust="spacing" textLength="62" x="862.5" y="842.37">-address</text><text fill="#000000" font-family="sans-serif" font-size="14" lengthAdjust="spacing" textLength="153" x="862.5" y="858.8583">-mobileContact:String</text><text fill="#000000" font-family="sans-serif" font-size="14" lengthAdjust="spacing" textLength="143" x="862.5" y="875.3466">-emailContact:String</text><text fill="#000000" font-family="sans-serif" font-size="14" lengthAdjust="spacing" textLength="125" x="862.5" y="891.8348">-IDdocType:String</text><text fill="#000000" font-family="sans-serif" font-size="14" lengthAdjust="spacing" textLength="121" x="862.5" y="908.3231">-IDnumber:String</text><text fill="#000000" font-family="sans-serif" font-size="14" lengthAdjust="spacing" textLength="130" x="862.5" y="924.8114">-taxNumber:String</text><text fill="#000000" font-family="sans-serif" font-size="14" lengthAdjust="spacing" textLength="56" x="862.5" y="941.2997">-job:Job</text><line style="stroke:#181818;stroke-width:0.5;" x1="857.5" x2="1244.5" y1="948.2528" y2="948.2528"/><text fill="#000000" font-family="sans-serif" font-size="14" lengthAdjust="spacing" textLength="326" x="862.5" y="965.788">+Employee (String nome,LocalDate dateOfBirth,</text><text fill="#000000" font-family="sans-serif" font-size="14" lengthAdjust="spacing" textLength="377" x="862.5" y="982.2763">LocalDate admissionDate, String morada, int telemovel,</text><text fill="#000000" font-family="sans-serif" font-size="14" lengthAdjust="spacing" textLength="354" x="862.5" y="998.7645">String email, String idDocType, int docTypeNumber,</text><text fill="#000000" font-family="sans-serif" font-size="14" lengthAdjust="spacing" textLength="290" x="862.5" y="1015.2528">int taxPayerIdNumber, String role, Job job)</text></g><!--link PostponeAgendaEntryUI to PostponeAgendaEntryController--><g id="link_PostponeAgendaEntryUI_PostponeAgendaEntryController"><path codeLine="84" d="M272,105.93 C272,129.98 272,157.21 272,183.07 " fill="none" id="PostponeAgendaEntryUI-to-PostponeAgendaEntryController" style="stroke:#181818;stroke-width:1.0;stroke-dasharray:7.0,7.0;"/><polygon fill="#181818" points="272,189.07,276,180.07,272,184.07,268,180.07,272,189.07" style="stroke:#181818;stroke-width:1.0;"/><text fill="#000000" font-family="sans-serif" font-size="13" lengthAdjust="spacing" textLength="8" x="263.2625" y="125.9363">1</text><text fill="#000000" font-family="sans-serif" font-size="13" lengthAdjust="spacing" textLength="8" x="263.3375" y="178.6465">1</text></g><!--link Repositories to Repositories--><g id="link_Repositories_Repositories"><path codeLine="89" d="M678.43,433.57 C699.2,436.71 713,442.92 713,452.18 C713,461.44 705.1322,466.7403 684.3622,469.8903 " fill="none" id="Repositories-to-Repositories" style="stroke:#181818;stroke-width:1.0;"/><polygon fill="#181818" points="678.43,470.79,687.928,473.3953,683.3735,470.0403,686.7285,465.4857,678.43,470.79" style="stroke:#181818;stroke-width:1.0;"/><text fill="#000000" font-family="sans-serif" font-size="13" lengthAdjust="spacing" textLength="53" x="719" y="457.2484">instance</text></g><!--link Repositories to AgendaRepository--><g id="link_Repositories_AgendaRepository"><path codeLine="90" d="M537.55,534.34 C541.39,555.75 544.2411,571.6942 547.2911,588.7042 " fill="none" id="Repositories-to-AgendaRepository" style="stroke:#181818;stroke-width:1.0;"/><polygon fill="#181818" points="548.35,594.61,550.6988,585.0453,547.4675,589.6885,542.8244,586.4572,548.35,594.61" style="stroke:#181818;stroke-width:1.0;"/><text fill="#000000" font-family="sans-serif" font-size="13" lengthAdjust="spacing" textLength="8" x="530.4237" y="554.3463">1</text><text fill="#000000" font-family="sans-serif" font-size="13" lengthAdjust="spacing" textLength="8" x="538.3597" y="583.9554">1</text></g><!--link Repositories to AuthenticationRepository--><g id="link_Repositories_AuthenticationRepository"><path codeLine="91" d="M678.34,518.07 C740.86,544.19 804.5634,570.8078 855.6634,592.1478 " fill="none" id="Repositories-to-AuthenticationRepository" style="stroke:#181818;stroke-width:1.0;"/><polygon fill="#181818" points="861.2,594.46,854.4365,587.3007,856.5862,592.5332,851.3537,594.6828,861.2,594.46" style="stroke:#181818;stroke-width:1.0;"/><text fill="#000000" font-family="sans-serif" font-size="13" lengthAdjust="spacing" textLength="8" x="686.058" y="518.4742">1</text><text fill="#000000" font-family="sans-serif" font-size="13" lengthAdjust="spacing" textLength="8" x="837.4894" y="584.1496">1</text></g><!--link Repositories to EmployeeRepository--><g id="link_Repositories_EmployeeRepository"><path codeLine="92" d="M678.3,452.18 C716.19,452.18 787,452.18 787,452.18 C787,452.18 784.22,452.18 789.66,452.18 " fill="none" id="Repositories-to-EmployeeRepository" style="stroke:#181818;stroke-width:1.0;"/><polygon fill="#181818" points="795.66,452.18,786.66,448.18,790.66,452.18,786.66,456.18,795.66,452.18" style="stroke:#181818;stroke-width:1.0;"/><text fill="#000000" font-family="sans-serif" font-size="13" lengthAdjust="spacing" textLength="8" x="686.0161" y="449.3926">1</text><text fill="#000000" font-family="sans-serif" font-size="13" lengthAdjust="spacing" textLength="8" x="779.9002" y="449.3013">1</text></g><!--link EmployeeRepository to Employee--><g id="link_EmployeeRepository_Employee"><path codeLine="94" d="M966.4,501.15 C1007.01,542.26 1059,594.89 1059,594.89 C1059,594.89 1059,683.37 1059,683.37 C1059,683.37 1058.1809,703.5648 1056.8409,736.9148 " fill="none" id="EmployeeRepository-to-Employee" style="stroke:#181818;stroke-width:1.0;"/><polygon fill="#181818" points="1056.6,742.91,1060.9581,734.0778,1056.8007,737.914,1052.9646,733.7567,1056.6,742.91" style="stroke:#181818;stroke-width:1.0;"/><text fill="#000000" font-family="sans-serif" font-size="13" lengthAdjust="spacing" textLength="8" x="964.2319" y="521.3284">1</text><text fill="#000000" font-family="sans-serif" font-size="13" lengthAdjust="spacing" textLength="6" x="1050.7422" y="732.4271">*</text></g><!--link AgendaRepository to Entry--><g id="link_AgendaRepository_Entry"><path codeLine="95" d="M559.61,659.74 C564.79,688.96 571.742,728.1622 579.182,770.1022 " fill="none" id="AgendaRepository-to-Entry" style="stroke:#181818;stroke-width:1.0;"/><polygon fill="#181818" points="580.23,776.01,582.5965,766.4497,579.3567,771.0869,574.7195,767.847,580.23,776.01" style="stroke:#181818;stroke-width:1.0;"/><text fill="#000000" font-family="sans-serif" font-size="13" lengthAdjust="spacing" textLength="8" x="551.9169" y="679.9831">1</text><text fill="#000000" font-family="sans-serif" font-size="13" lengthAdjust="spacing" textLength="6" x="572.6993" y="765.5539">*</text></g><!--link PostponeAgendaEntryController to AgendaRepository--><g id="link_PostponeAgendaEntryController_AgendaRepository"><path codeLine="98" d="M210.57,270.9 C185.37,287.28 162,302.47 162,302.47 C162,302.47 145,327.47 145,327.47 C145,327.47 145,533.89 145,533.89 C145,533.89 162,564.89 162,564.89 C162,564.89 249.3419,578.5337 344.8919,593.4637 " fill="none" id="PostponeAgendaEntryController-to-AgendaRepository" style="stroke:#181818;stroke-width:1.0;stroke-dasharray:7.0,7.0;"/><polygon fill="#181818" points="350.82,594.39,342.5454,589.0485,345.8799,593.6181,341.3104,596.9526,350.82,594.39" style="stroke:#181818;stroke-width:1.0;"/></g><!--link PostponeAgendaEntryController to Repositories--><g id="link_PostponeAgendaEntryController_Repositories"><path codeLine="99" d="M317.45,270.86 C348.96,298.49 387.4998,332.3029 426.0698,366.1429 " fill="none" id="PostponeAgendaEntryController-to-Repositories" style="stroke:#181818;stroke-width:1.0;stroke-dasharray:7.0,7.0;"/><polygon fill="#181818" points="430.58,370.1,426.4528,361.1576,426.8215,366.8024,421.1767,367.1712,430.58,370.1" style="stroke:#181818;stroke-width:1.0;"/><text fill="#000000" font-family="sans-serif" font-size="13" lengthAdjust="spacing" textLength="75" x="368" y="316.0384">repositories</text><text fill="#000000" font-family="sans-serif" font-size="13" lengthAdjust="spacing" textLength="8" x="316.0561" y="291.1639">1</text><text fill="#000000" font-family="sans-serif" font-size="13" lengthAdjust="spacing" textLength="8" x="413.9926" y="359.7041">1</text></g><!--link PostponeAgendaEntryController to AuthenticationRepository--><g id="link_PostponeAgendaEntryController_AuthenticationRepository"><path codeLine="100" d="M244.36,270.78 C225.91,297.36 205,327.47 205,327.47 C205,327.47 205,533.89 205,533.89 C205,533.89 815,594.89 815,594.89 C815,594.89 815.9981,595.1393 826.4081,597.8093 " fill="none" id="PostponeAgendaEntryController-to-AuthenticationRepository" style="stroke:#181818;stroke-width:1.0;"/><polygon fill="#181818" points="832.22,599.3,824.496,593.1894,827.3768,598.0578,822.5084,600.9386,832.22,599.3" style="stroke:#181818;stroke-width:1.0;"/><text fill="#000000" font-family="sans-serif" font-size="13" lengthAdjust="spacing" textLength="143" x="206" y="457.2484">getCurrentUserSession</text><text fill="#000000" font-family="sans-serif" font-size="13" lengthAdjust="spacing" textLength="8" x="231.3174" y="291.0712">1</text><text fill="#000000" font-family="sans-serif" font-size="13" lengthAdjust="spacing" textLength="8" x="816.5714" y="594.3948">1</text></g><!--link PostponeAgendaEntryController to Employee--><g id="link_PostponeAgendaEntryController_Employee"><path codeLine="102" d="M521.78,261.64 C751.93,289.89 1058,327.47 1058,327.47 C1058,327.47 1085,594.89 1085,594.89 C1085,594.89 1085,683.37 1085,683.37 C1085,683.37 1084,692.37 1084,692.37 C1084,692.37 1081.2195,708.339 1076.1895,737.219 " fill="none" id="PostponeAgendaEntryController-to-Employee" style="stroke:#181818;stroke-width:1.0;"/><polygon fill="#181818" points="1075.16,743.13,1080.6449,734.9498,1076.0179,738.2042,1072.7636,733.5771,1075.16,743.13" style="stroke:#181818;stroke-width:1.0;"/></g><!--link AuthenticationRepository to Employee--><g id="link_AuthenticationRepository_Employee"><path codeLine="105" d="M951.21,659.74 C960.94,681.39 972.1312,706.287 986.2112,737.627 " fill="none" id="AuthenticationRepository-to-Employee" style="stroke:#181818;stroke-width:1.0;"/><polygon fill="#181818" points="988.67,743.1,988.6304,733.2512,986.621,738.5391,981.333,736.5297,988.67,743.1" style="stroke:#181818;stroke-width:1.0;"/></g><!--link Employee to Entry--><g id="link_Employee_Entry"><path codeLine="107" d="M856.27,882.79 C845.61,882.79 839.94,882.79 828.35,882.79 " fill="none" id="Employee-to-Entry" style="stroke:#181818;stroke-width:1.0;"/><polygon fill="#181818" points="822.35,882.79,831.35,886.79,827.35,882.79,831.35,878.79,822.35,882.79" style="stroke:#181818;stroke-width:1.0;"/></g><!--SRC=[fLR1Sjem4BthApIvn3IGQQzCoWmDIKkdqp8bkVKYhCMeo18ZoqdSJFwzAylO4fYaC_K5U_VjwhqdUSrviHLgnmpBQQwLJZT6vq2jAO5qcHrBjoo3fQqaK0EfPIgJ8Q3OCAuVXSheciaYp4YXm5Oxe3ijA_T0pdkIsbXDWgfKigAOMcl4ghGmJxLQYZz0tnDoBc5jgTNKY6nZAHUEZj2Aa8KdIQ-riaPB2OPUNTrgoS5C9i-4ubMtfGjTs9rMCCr0SNQ3w2geyKXtNT0Ch4iBA6xH5ezVMcOiAdMH92sD0MLdpCAG5fRPiXW4zRjcfNgDE-rWIG4I6GElOrZKFBhS5rsQ8LsNjZJGhEkxlP2NLjxz_Dzb8RQJGozCgPAkOTln9o1FORLRRx7DelP1_n0MT1rHeL2vIe6E8qm7GKoRg12rt0efkqZOYzNa8_Jq81JrXNmdTGKGLTmS1KbGL6_hlE6S34wphe67goU3GyJnQgt9WNl7AFfCI6-Z8WdFq0EJWkFXs6SJ1O_x-n37EEyQ766GIq3cKDJ_dlcFPml9b09-rgDyMjeDuaNAt7lQjsWitosoXA90S7XQs-CwqpaJAZgbZSNko3S7VaINg07daM8vn14EHMh4hXuQKQ8qA3QjPf0PsDS8XJEcD2n0VyQiMk9819grjt4dxqeJ-wPJ9frR51n1TnSqt-0xJxm7DVyau3tieJpiPJlyfIAgmtwMmu0Ch_TlJs50dCVnKTrRwQYC_Qe-i1B6Rbpzk1F3U2xgFPiTnhd1pVGFkLu92MxOijH6BG7tLFObvZEkqplyHXn4LPclm4H1ovw-7qT_wzNugrxv4tdHQcjzni_TC7Rbn_gJ4uYUTl58Nhi7kJQCC- -YnK6UwmUGMDUaQr4jMF2PL-BnZIpF66lg7knfmIemSzw4zxNuRS8ob45Hpe3uyTqxxyy-dD7Boqdz- -g7ZhWhd7nqD8ac8Gx6_MIFSQxrQEINE1hEfv4dna1FXI_ec-8zKtHVyQwh88UiEY8EvNmWlVu5VmESXqVYNYy9hJymqeHVcBUxlEKPTiI1UUq7yNq1ffcNRud2jgr7X9piFefmxIlZehLtVm40]--></g></svg>