<?xml version="1.0" encoding="us-ascii" standalone="no"?><svg xmlns="http://www.w3.org/2000/svg" xmlns:xlink="http://www.w3.org/1999/xlink" contentStyleType="text/css" height="826.8px" preserveAspectRatio="none" style="width:1357px;height:826px;background:#FFFFFF;" version="1.1" viewBox="0 0 1357 826" width="1357.8px" zoomAndPan="magnify"><defs/><g><rect fill="#FFFFFF" height="712.9324" style="stroke:#181818;stroke-width:0.6;" width="6" x="46.5" y="54.893"/><rect fill="#FFFFFF" height="257.9016" style="stroke:#181818;stroke-width:0.6;" width="6" x="258.3" y="137.6109"/><rect fill="#FFFFFF" height="17.5863" style="stroke:#181818;stroke-width:0.6;" width="6" x="258.3" y="413.0988"/><rect fill="#FFFFFF" height="17.5863" style="stroke:#181818;stroke-width:0.6;" width="6" x="258.3" y="448.2715"/><rect fill="#FFFFFF" height="284.3812" style="stroke:#181818;stroke-width:0.6;" width="6" x="258.3" y="483.4441"/><rect fill="#FFFFFF" height="197.8359" style="stroke:#181818;stroke-width:0.6;" width="6" x="551.1" y="180.0902"/><rect fill="#FFFFFF" height="249.2086" style="stroke:#181818;stroke-width:0.6;" width="6" x="551.1" y="501.0305"/><rect fill="#FFFFFF" height="17.5863" style="stroke:#181818;stroke-width:0.6;" width="6" x="677.1" y="197.6766"/><rect fill="#FFFFFF" height="57.1453" style="stroke:#181818;stroke-width:0.6;" width="6" x="677.1" y="232.8492"/><rect fill="#FFFFFF" height="17.5863" style="stroke:#181818;stroke-width:0.6;" width="6" x="744.9" y="307.5809"/><rect fill="#FFFFFF" height="17.5863" style="stroke:#181818;stroke-width:0.6;" width="6" x="834.3" y="342.7535"/><rect fill="#FFFFFF" height="17.5863" style="stroke:#181818;stroke-width:0.6;" width="6" x="834.3" y="715.0664"/><rect fill="#FFFFFF" height="178.8633" style="stroke:#181818;stroke-width:0.6;" width="6" x="1097.7" y="518.6168"/><rect fill="#FFFFFF" height="35.1727" style="stroke:#181818;stroke-width:0.6;" width="6" x="1335.3" y="591.9621"/><rect fill="#FFFFFF" height="35.1727" style="stroke:#181818;stroke-width:0.6;" width="6" x="1335.3" y="644.7211"/><line style="stroke:#181818;stroke-width:0.3;stroke-dasharray:5.0,5.0;" x1="49.2" x2="49.2" y1="48.893" y2="778.6254"/><line style="stroke:#181818;stroke-width:0.3;stroke-dasharray:5.0,5.0;" x1="261.3" x2="261.3" y1="48.893" y2="778.6254"/><line style="stroke:#181818;stroke-width:0.3;stroke-dasharray:5.0,5.0;" x1="554.1" x2="554.1" y1="160.8574" y2="778.6254"/><line style="stroke:#181818;stroke-width:0.3;stroke-dasharray:5.0,5.0;" x1="679.8" x2="679.8" y1="48.893" y2="778.6254"/><line style="stroke:#181818;stroke-width:0.3;stroke-dasharray:5.0,5.0;" x1="747.6" x2="747.6" y1="48.893" y2="778.6254"/><line style="stroke:#181818;stroke-width:0.3;stroke-dasharray:5.0,5.0;" x1="837.3" x2="837.3" y1="48.893" y2="778.6254"/><line style="stroke:#181818;stroke-width:0.3;stroke-dasharray:5.0,5.0;" x1="944.1" x2="944.1" y1="48.893" y2="778.6254"/><line style="stroke:#181818;stroke-width:0.3;stroke-dasharray:5.0,5.0;" x1="1037.7" x2="1037.7" y1="48.893" y2="778.6254"/><line style="stroke:#181818;stroke-width:0.3;stroke-dasharray:5.0,5.0;" x1="1100.7" x2="1100.7" y1="48.893" y2="778.6254"/><line style="stroke:#181818;stroke-width:0.3;stroke-dasharray:5.0,5.0;" x1="1338" x2="1338" y1="48.893" y2="778.6254"/><text fill="#000000" font-family="sans-serif" font-size="8.4" lengthAdjust="spacing" textLength="89.4" x="3" y="47.1211">Green Space Manager</text><ellipse cx="49.5" cy="8.1" fill="#E3E3E3" rx="4.8" ry="4.8" style="stroke:#181818;stroke-width:0.3;"/><path d="M49.5,12.9 L49.5,29.1 M41.7,17.7 L57.3,17.7 M49.5,29.1 L41.7,38.1 M49.5,29.1 L57.3,38.1 " fill="none" style="stroke:#181818;stroke-width:0.3;"/><text fill="#000000" font-family="sans-serif" font-size="8.4" lengthAdjust="spacing" textLength="89.4" x="3" y="786.1465">Green Space Manager</text><ellipse cx="49.5" cy="793.0184" fill="#E3E3E3" rx="4.8" ry="4.8" style="stroke:#181818;stroke-width:0.3;"/><path d="M49.5,797.8184 L49.5,814.0184 M41.7,802.6184 L57.3,802.6184 M49.5,814.0184 L41.7,823.0184 M49.5,814.0184 L57.3,823.0184 " fill="none" style="stroke:#181818;stroke-width:0.3;"/><rect fill="#E3E3E3" height="18.293" rx="1.5" ry="1.5" style="stroke:#181818;stroke-width:0.3;" width="110.4" x="206.1" y="30"/><text fill="#000000" font-family="sans-serif" font-size="8.4" lengthAdjust="spacing" textLength="102" x="210.3" y="42.3211">:PostponeAgendaEntryUI</text><rect fill="#E3E3E3" height="18.293" rx="1.5" ry="1.5" style="stroke:#181818;stroke-width:0.3;" width="110.4" x="206.1" y="778.0254"/><text fill="#000000" font-family="sans-serif" font-size="8.4" lengthAdjust="spacing" textLength="102" x="210.3" y="790.3465">:PostponeAgendaEntryUI</text><rect fill="#E3E3E3" height="18.293" rx="1.5" ry="1.5" style="stroke:#181818;stroke-width:0.3;" width="144" x="482.1" y="778.0254"/><text fill="#000000" font-family="sans-serif" font-size="8.4" lengthAdjust="spacing" textLength="135.6" x="486.3" y="790.3465">:PostponeAgendaEntryController</text><rect fill="#E3E3E3" height="18.293" rx="1.5" ry="1.5" style="stroke:#181818;stroke-width:0.3;" width="61.8" x="649.2" y="30"/><text fill="#000000" font-family="sans-serif" font-size="8.4" lengthAdjust="spacing" textLength="53.4" x="653.4" y="42.3211">:Repositories</text><rect fill="#E3E3E3" height="18.293" rx="1.5" ry="1.5" style="stroke:#181818;stroke-width:0.3;" width="61.8" x="649.2" y="778.0254"/><text fill="#000000" font-family="sans-serif" font-size="8.4" lengthAdjust="spacing" textLength="53.4" x="653.4" y="790.3465">:Repositories</text><rect fill="#E3E3E3" height="28.1859" rx="1.5" ry="1.5" style="stroke:#181818;stroke-width:0.3;" width="61.8" x="717" y="20.107"/><text fill="#000000" font-family="sans-serif" font-size="8.4" lengthAdjust="spacing" textLength="49.2" x="723.3" y="32.4281">repositories</text><text fill="#000000" font-family="sans-serif" font-size="8.4" lengthAdjust="spacing" textLength="53.4" x="721.2" y="42.3211">:Repositories</text><rect fill="#E3E3E3" height="28.1859" rx="1.5" ry="1.5" style="stroke:#181818;stroke-width:0.3;" width="61.8" x="717" y="778.0254"/><text fill="#000000" font-family="sans-serif" font-size="8.4" lengthAdjust="spacing" textLength="49.2" x="723.3" y="790.3465">repositories</text><text fill="#000000" font-family="sans-serif" font-size="8.4" lengthAdjust="spacing" textLength="53.4" x="721.2" y="800.2395">:Repositories</text><rect fill="#E3E3E3" height="28.1859" rx="1.5" ry="1.5" style="stroke:#181818;stroke-width:0.3;" width="86.4" x="794.1" y="20.107"/><text fill="#000000" font-family="sans-serif" font-size="8.4" lengthAdjust="spacing" textLength="74.4" x="800.1" y="32.4281">agendaRepository</text><text fill="#000000" font-family="sans-serif" font-size="8.4" lengthAdjust="spacing" textLength="78" x="798.3" y="42.3211">:AgendaRepository</text><rect fill="#E3E3E3" height="28.1859" rx="1.5" ry="1.5" style="stroke:#181818;stroke-width:0.3;" width="86.4" x="794.1" y="778.0254"/><text fill="#000000" font-family="sans-serif" font-size="8.4" lengthAdjust="spacing" textLength="74.4" x="800.1" y="790.3465">agendaRepository</text><text fill="#000000" font-family="sans-serif" font-size="8.4" lengthAdjust="spacing" textLength="78" x="798.3" y="800.2395">:AgendaRepository</text><rect fill="#E3E3E3" height="28.1859" rx="1.5" ry="1.5" style="stroke:#181818;stroke-width:0.3;" width="115.2" x="886.5" y="20.107"/><text fill="#000000" font-family="sans-serif" font-size="8.4" lengthAdjust="spacing" textLength="103.2" x="892.5" y="32.4281">authenticationRepository</text><text fill="#000000" font-family="sans-serif" font-size="8.4" lengthAdjust="spacing" textLength="106.8" x="890.7" y="42.3211">:AuthenticationRepository</text><rect fill="#E3E3E3" height="28.1859" rx="1.5" ry="1.5" style="stroke:#181818;stroke-width:0.3;" width="115.2" x="886.5" y="778.0254"/><text fill="#000000" font-family="sans-serif" font-size="8.4" lengthAdjust="spacing" textLength="103.2" x="892.5" y="790.3465">authenticationRepository</text><text fill="#000000" font-family="sans-serif" font-size="8.4" lengthAdjust="spacing" textLength="106.8" x="890.7" y="800.2395">:AuthenticationRepository</text><rect fill="#E3E3E3" height="28.1859" rx="1.5" ry="1.5" style="stroke:#181818;stroke-width:0.3;" width="60.6" x="1007.7" y="20.107"/><text fill="#000000" font-family="sans-serif" font-size="8.4" lengthAdjust="spacing" textLength="49.2" x="1013.4" y="32.4281">userSession</text><text fill="#000000" font-family="sans-serif" font-size="8.4" lengthAdjust="spacing" textLength="52.2" x="1011.9" y="42.3211">:UserSession</text><rect fill="#E3E3E3" height="28.1859" rx="1.5" ry="1.5" style="stroke:#181818;stroke-width:0.3;" width="60.6" x="1007.7" y="778.0254"/><text fill="#000000" font-family="sans-serif" font-size="8.4" lengthAdjust="spacing" textLength="49.2" x="1013.4" y="790.3465">userSession</text><text fill="#000000" font-family="sans-serif" font-size="8.4" lengthAdjust="spacing" textLength="52.2" x="1011.9" y="800.2395">:UserSession</text><rect fill="#E3E3E3" height="28.1859" rx="1.5" ry="1.5" style="stroke:#181818;stroke-width:0.3;" width="52.8" x="1074.3" y="20.107"/><text fill="#000000" font-family="sans-serif" font-size="8.4" lengthAdjust="spacing" textLength="39.6" x="1080.9" y="32.4281">employee</text><text fill="#000000" font-family="sans-serif" font-size="8.4" lengthAdjust="spacing" textLength="44.4" x="1078.5" y="42.3211">: Employee</text><rect fill="#E3E3E3" height="28.1859" rx="1.5" ry="1.5" style="stroke:#181818;stroke-width:0.3;" width="52.8" x="1074.3" y="778.0254"/><text fill="#000000" font-family="sans-serif" font-size="8.4" lengthAdjust="spacing" textLength="39.6" x="1080.9" y="790.3465">employee</text><text fill="#000000" font-family="sans-serif" font-size="8.4" lengthAdjust="spacing" textLength="44.4" x="1078.5" y="800.2395">: Employee</text><rect fill="#E3E3E3" height="18.293" rx="1.5" ry="1.5" style="stroke:#181818;stroke-width:0.3;" width="31.8" x="1322.4" y="30"/><text fill="#000000" font-family="sans-serif" font-size="8.4" lengthAdjust="spacing" textLength="23.4" x="1326.6" y="42.3211">:Entry</text><rect fill="#E3E3E3" height="18.293" rx="1.5" ry="1.5" style="stroke:#181818;stroke-width:0.3;" width="31.8" x="1322.4" y="778.0254"/><text fill="#000000" font-family="sans-serif" font-size="8.4" lengthAdjust="spacing" textLength="23.4" x="1326.6" y="790.3465">:Entry</text><rect fill="#FFFFFF" height="712.9324" style="stroke:#181818;stroke-width:0.6;" width="6" x="46.5" y="54.893"/><rect fill="#FFFFFF" height="257.9016" style="stroke:#181818;stroke-width:0.6;" width="6" x="258.3" y="137.6109"/><rect fill="#FFFFFF" height="17.5863" style="stroke:#181818;stroke-width:0.6;" width="6" x="258.3" y="413.0988"/><rect fill="#FFFFFF" height="17.5863" style="stroke:#181818;stroke-width:0.6;" width="6" x="258.3" y="448.2715"/><rect fill="#FFFFFF" height="284.3812" style="stroke:#181818;stroke-width:0.6;" width="6" x="258.3" y="483.4441"/><rect fill="#FFFFFF" height="197.8359" style="stroke:#181818;stroke-width:0.6;" width="6" x="551.1" y="180.0902"/><rect fill="#FFFFFF" height="249.2086" style="stroke:#181818;stroke-width:0.6;" width="6" x="551.1" y="501.0305"/><rect fill="#FFFFFF" height="17.5863" style="stroke:#181818;stroke-width:0.6;" width="6" x="677.1" y="197.6766"/><rect fill="#FFFFFF" height="57.1453" style="stroke:#181818;stroke-width:0.6;" width="6" x="677.1" y="232.8492"/><rect fill="#FFFFFF" height="17.5863" style="stroke:#181818;stroke-width:0.6;" width="6" x="744.9" y="307.5809"/><rect fill="#FFFFFF" height="17.5863" style="stroke:#181818;stroke-width:0.6;" width="6" x="834.3" y="342.7535"/><rect fill="#FFFFFF" height="17.5863" style="stroke:#181818;stroke-width:0.6;" width="6" x="834.3" y="715.0664"/><rect fill="#FFFFFF" height="178.8633" style="stroke:#181818;stroke-width:0.6;" width="6" x="1097.7" y="518.6168"/><rect fill="#FFFFFF" height="35.1727" style="stroke:#181818;stroke-width:0.6;" width="6" x="1335.3" y="591.9621"/><rect fill="#FFFFFF" height="35.1727" style="stroke:#181818;stroke-width:0.6;" width="6" x="1335.3" y="644.7211"/><path d="M55.2,57.893 L55.2,90.893 L231,90.893 L231,63.893 L225,57.893 L55.2,57.893 " fill="#FAFAFA" style="stroke:#181818;stroke-width:0.3;"/><path d="M225,57.893 L225,63.893 L231,63.893 L225,57.893 " fill="#FAFAFA" style="stroke:#181818;stroke-width:0.3;"/><text fill="#000000" font-family="sans-serif" font-size="7.8" lengthAdjust="spacing" textLength="163.2" x="58.8" y="68.434">- The user is already logged in at this step.</text><text fill="#000000" font-family="sans-serif" font-size="7.8" lengthAdjust="spacing" textLength="158.4" x="58.8" y="77.6203">- Authentication sequence is explained in</text><text fill="#000000" font-family="sans-serif" font-size="7.8" lengthAdjust="spacing" textLength="75" x="58.8" y="86.8066">a sequence excerpt.</text><path d="M682.8,97.452 L682.8,121.452 L747,121.452 L747,103.452 L741,97.452 L682.8,97.452 " fill="#FAFAFA" style="stroke:#181818;stroke-width:0.3;"/><path d="M741,97.452 L741,103.452 L747,103.452 L741,97.452 " fill="#FAFAFA" style="stroke:#181818;stroke-width:0.3;"/><text fill="#000000" font-family="sans-serif" font-size="7.8" lengthAdjust="spacing" textLength="51.6" x="686.4" y="107.993">- Singleton is</text><text fill="#000000" font-family="sans-serif" font-size="7.8" lengthAdjust="spacing" textLength="22.8" x="686.4" y="117.1793">in use</text><polygon fill="#181818" points="251.1,135.2109,257.1,137.6109,251.1,140.0109,253.5,137.6109" style="stroke:#181818;stroke-width:0.6;"/><line style="stroke:#181818;stroke-width:0.6;" x1="52.5" x2="254.7" y1="137.6109" y2="137.6109"/><text fill="#000000" font-family="sans-serif" font-size="7.8" font-weight="bold" lengthAdjust="spacing" textLength="5.4" x="56.7" y="134.7656">1</text><text fill="#000000" font-family="sans-serif" font-size="7.8" lengthAdjust="spacing" textLength="165" x="64.5" y="134.7656">Asks to postpone an entry from the Agenda</text><polygon fill="#181818" points="474.9,152.7973,480.9,155.1973,474.9,157.5973,477.3,155.1973" style="stroke:#181818;stroke-width:0.6;"/><line style="stroke:#181818;stroke-width:0.6;" x1="264.3" x2="478.5" y1="155.1973" y2="155.1973"/><text fill="#000000" font-family="sans-serif" font-size="7.8" font-weight="bold" lengthAdjust="spacing" textLength="5.4" x="268.5" y="152.352">2</text><text fill="#000000" font-family="sans-serif" font-size="7.8" lengthAdjust="spacing" textLength="22.8" x="276.3" y="152.352">create</text><rect fill="#E3E3E3" height="18.293" rx="1.5" ry="1.5" style="stroke:#181818;stroke-width:0.3;" width="144" x="482.1" y="142.4109"/><text fill="#000000" font-family="sans-serif" font-size="8.4" lengthAdjust="spacing" textLength="135.6" x="486.3" y="154.732">:PostponeAgendaEntryController</text><polygon fill="#181818" points="543.9,177.6902,549.9,180.0902,543.9,182.4902,546.3,180.0902" style="stroke:#181818;stroke-width:0.6;"/><line style="stroke:#181818;stroke-width:0.6;" x1="264.3" x2="547.5" y1="180.0902" y2="180.0902"/><text fill="#000000" font-family="sans-serif" font-size="7.8" font-weight="bold" lengthAdjust="spacing" textLength="5.4" x="268.5" y="177.2449">3</text><text fill="#000000" font-family="sans-serif" font-size="7.8" lengthAdjust="spacing" textLength="252.6" x="276.3" y="177.2449">getEntriesFromAgendaStartingFrom(currentDate, status="Planned")</text><polygon fill="#181818" points="669.9,195.2766,675.9,197.6766,669.9,200.0766,672.3,197.6766" style="stroke:#181818;stroke-width:0.6;"/><line style="stroke:#181818;stroke-width:0.6;" x1="557.1" x2="673.5" y1="197.6766" y2="197.6766"/><text fill="#000000" font-family="sans-serif" font-size="7.8" font-weight="bold" lengthAdjust="spacing" textLength="5.4" x="561.3" y="194.8312">4</text><text fill="#000000" font-family="sans-serif" font-size="7.8" lengthAdjust="spacing" textLength="48.6" x="569.1" y="194.8312">getInstance()</text><polygon fill="#181818" points="563.7,212.8629,557.7,215.2629,563.7,217.6629,561.3,215.2629" style="stroke:#181818;stroke-width:0.6;"/><line style="stroke:#181818;stroke-width:0.6;stroke-dasharray:2.0,2.0;" x1="560.1" x2="679.5" y1="215.2629" y2="215.2629"/><text fill="#000000" font-family="sans-serif" font-size="7.8" font-weight="bold" lengthAdjust="spacing" textLength="5.4" x="567.3" y="212.4176">5</text><text fill="#000000" font-family="sans-serif" font-size="7.8" lengthAdjust="spacing" textLength="45" x="575.1" y="212.4176">repositories</text><polygon fill="#181818" points="669.9,230.4492,675.9,232.8492,669.9,235.2492,672.3,232.8492" style="stroke:#181818;stroke-width:0.6;"/><line style="stroke:#181818;stroke-width:0.6;" x1="557.1" x2="673.5" y1="232.8492" y2="232.8492"/><text fill="#000000" font-family="sans-serif" font-size="7.8" font-weight="bold" lengthAdjust="spacing" textLength="5.4" x="561.3" y="230.0039">6</text><text fill="#000000" font-family="sans-serif" font-size="7.8" lengthAdjust="spacing" textLength="100.8" x="569.1" y="230.0039">getEmployeeFromSession()</text><path d="M559.8,240.6492 L559.8,273.6492 L675,273.6492 L675,246.6492 L669,240.6492 L559.8,240.6492 " fill="#FAFAFA" style="stroke:#181818;stroke-width:0.3;"/><path d="M669,240.6492 L669,246.6492 L675,246.6492 L669,240.6492 " fill="#FAFAFA" style="stroke:#181818;stroke-width:0.3;"/><text fill="#000000" font-family="sans-serif" font-size="7.8" lengthAdjust="spacing" textLength="102.6" x="563.4" y="251.1902">- This method is explained</text><text fill="#000000" font-family="sans-serif" font-size="7.8" lengthAdjust="spacing" textLength="82.2" x="563.4" y="260.3766">in detail in an excerpt</text><text fill="#000000" font-family="sans-serif" font-size="7.8" lengthAdjust="spacing" textLength="70.8" x="563.4" y="269.5629">sequence diagram.</text><polygon fill="#181818" points="563.7,287.5945,557.7,289.9945,563.7,292.3945,561.3,289.9945" style="stroke:#181818;stroke-width:0.6;"/><line style="stroke:#181818;stroke-width:0.6;stroke-dasharray:2.0,2.0;" x1="560.1" x2="679.5" y1="289.9945" y2="289.9945"/><text fill="#000000" font-family="sans-serif" font-size="7.8" font-weight="bold" lengthAdjust="spacing" textLength="5.4" x="567.3" y="287.1492">7</text><text fill="#000000" font-family="sans-serif" font-size="7.8" lengthAdjust="spacing" textLength="36" x="575.1" y="287.1492">employee</text><polygon fill="#181818" points="737.7,305.1809,743.7,307.5809,737.7,309.9809,740.1,307.5809" style="stroke:#181818;stroke-width:0.6;"/><line style="stroke:#181818;stroke-width:0.6;" x1="557.1" x2="741.3" y1="307.5809" y2="307.5809"/><text fill="#000000" font-family="sans-serif" font-size="7.8" font-weight="bold" lengthAdjust="spacing" textLength="5.4" x="561.3" y="304.7355">8</text><text fill="#000000" font-family="sans-serif" font-size="7.8" lengthAdjust="spacing" textLength="85.2" x="569.1" y="304.7355">getAgendaRepository()</text><polygon fill="#181818" points="563.7,322.7672,557.7,325.1672,563.7,327.5672,561.3,325.1672" style="stroke:#181818;stroke-width:0.6;"/><line style="stroke:#181818;stroke-width:0.6;stroke-dasharray:2.0,2.0;" x1="560.1" x2="747.3" y1="325.1672" y2="325.1672"/><text fill="#000000" font-family="sans-serif" font-size="7.8" font-weight="bold" lengthAdjust="spacing" textLength="5.4" x="567.3" y="322.3219">9</text><text fill="#000000" font-family="sans-serif" font-size="7.8" lengthAdjust="spacing" textLength="67.2" x="575.1" y="322.3219">agendaRepository</text><polygon fill="#181818" points="827.1,340.3535,833.1,342.7535,827.1,345.1535,829.5,342.7535" style="stroke:#181818;stroke-width:0.6;"/><line style="stroke:#181818;stroke-width:0.6;" x1="557.1" x2="830.7" y1="342.7535" y2="342.7535"/><text fill="#000000" font-family="sans-serif" font-size="7.8" font-weight="bold" lengthAdjust="spacing" textLength="10.8" x="561.3" y="339.9082">10</text><text fill="#000000" font-family="sans-serif" font-size="7.8" lengthAdjust="spacing" textLength="252.6" x="574.5" y="339.9082">getEntriesFromAgendaStartingFrom(currentDate, status="Planned")</text><polygon fill="#181818" points="563.7,357.9398,557.7,360.3398,563.7,362.7398,561.3,360.3398" style="stroke:#181818;stroke-width:0.6;"/><line style="stroke:#181818;stroke-width:0.6;stroke-dasharray:2.0,2.0;" x1="560.1" x2="836.7" y1="360.3398" y2="360.3398"/><text fill="#000000" font-family="sans-serif" font-size="7.8" font-weight="bold" lengthAdjust="spacing" textLength="10.8" x="567.3" y="357.4945">11</text><text fill="#000000" font-family="sans-serif" font-size="7.8" lengthAdjust="spacing" textLength="48.6" x="580.5" y="357.4945">futureEntries</text><polygon fill="#181818" points="270.9,375.5262,264.9,377.9262,270.9,380.3262,268.5,377.9262" style="stroke:#181818;stroke-width:0.6;"/><line style="stroke:#181818;stroke-width:0.6;stroke-dasharray:2.0,2.0;" x1="267.3" x2="553.5" y1="377.9262" y2="377.9262"/><text fill="#000000" font-family="sans-serif" font-size="7.8" font-weight="bold" lengthAdjust="spacing" textLength="10.8" x="274.5" y="375.0809">12</text><text fill="#000000" font-family="sans-serif" font-size="7.8" lengthAdjust="spacing" textLength="48.6" x="287.7" y="375.0809">futureEntries</text><polygon fill="#181818" points="59.1,393.1125,53.1,395.5125,59.1,397.9125,56.7,395.5125" style="stroke:#181818;stroke-width:0.6;"/><line style="stroke:#181818;stroke-width:0.6;stroke-dasharray:2.0,2.0;" x1="55.5" x2="260.7" y1="395.5125" y2="395.5125"/><text fill="#000000" font-family="sans-serif" font-size="7.8" font-weight="bold" lengthAdjust="spacing" textLength="10.8" x="62.7" y="392.6672">13</text><text fill="#000000" font-family="sans-serif" font-size="7.8" lengthAdjust="spacing" textLength="157.8" x="75.9" y="392.6672">Shows the entries collected at the Agenda</text><polygon fill="#181818" points="251.1,410.6988,257.1,413.0988,251.1,415.4988,253.5,413.0988" style="stroke:#181818;stroke-width:0.6;"/><line style="stroke:#181818;stroke-width:0.6;" x1="52.5" x2="254.7" y1="413.0988" y2="413.0988"/><text fill="#000000" font-family="sans-serif" font-size="7.8" font-weight="bold" lengthAdjust="spacing" textLength="10.8" x="56.7" y="410.2535">14</text><text fill="#000000" font-family="sans-serif" font-size="7.8" lengthAdjust="spacing" textLength="118.8" x="69.9" y="410.2535">Selects one of the listed entries</text><polygon fill="#181818" points="59.1,428.2852,53.1,430.6852,59.1,433.0852,56.7,430.6852" style="stroke:#181818;stroke-width:0.6;"/><line style="stroke:#181818;stroke-width:0.6;stroke-dasharray:2.0,2.0;" x1="55.5" x2="260.7" y1="430.6852" y2="430.6852"/><text fill="#000000" font-family="sans-serif" font-size="7.8" font-weight="bold" lengthAdjust="spacing" textLength="10.8" x="62.7" y="427.8398">15</text><text fill="#000000" font-family="sans-serif" font-size="7.8" lengthAdjust="spacing" textLength="176.4" x="75.9" y="427.8398">Prompts the entry of a postpone date and hour</text><polygon fill="#181818" points="251.1,445.8715,257.1,448.2715,251.1,450.6715,253.5,448.2715" style="stroke:#181818;stroke-width:0.6;"/><line style="stroke:#181818;stroke-width:0.6;" x1="52.5" x2="254.7" y1="448.2715" y2="448.2715"/><text fill="#000000" font-family="sans-serif" font-size="7.8" font-weight="bold" lengthAdjust="spacing" textLength="10.8" x="56.7" y="445.4262">16</text><text fill="#000000" font-family="sans-serif" font-size="7.8" lengthAdjust="spacing" textLength="139.2" x="69.9" y="445.4262">Chooses the postpone date and hour</text><polygon fill="#181818" points="59.1,463.4578,53.1,465.8578,59.1,468.2578,56.7,465.8578" style="stroke:#181818;stroke-width:0.6;"/><line style="stroke:#181818;stroke-width:0.6;stroke-dasharray:2.0,2.0;" x1="55.5" x2="260.7" y1="465.8578" y2="465.8578"/><text fill="#000000" font-family="sans-serif" font-size="7.8" font-weight="bold" lengthAdjust="spacing" textLength="10.8" x="62.7" y="463.0125">17</text><text fill="#000000" font-family="sans-serif" font-size="7.8" lengthAdjust="spacing" textLength="178.2" x="75.9" y="463.0125">Shows selected data and requests confirmation</text><polygon fill="#181818" points="251.1,481.0441,257.1,483.4441,251.1,485.8441,253.5,483.4441" style="stroke:#181818;stroke-width:0.6;"/><line style="stroke:#181818;stroke-width:0.6;" x1="52.5" x2="254.7" y1="483.4441" y2="483.4441"/><text fill="#000000" font-family="sans-serif" font-size="7.8" font-weight="bold" lengthAdjust="spacing" textLength="10.8" x="56.7" y="480.5988">18</text><text fill="#000000" font-family="sans-serif" font-size="7.8" lengthAdjust="spacing" textLength="53.4" x="69.9" y="480.5988">Confirms data</text><polygon fill="#181818" points="543.9,498.6305,549.9,501.0305,543.9,503.4305,546.3,501.0305" style="stroke:#181818;stroke-width:0.6;"/><line style="stroke:#181818;stroke-width:0.6;" x1="264.3" x2="547.5" y1="501.0305" y2="501.0305"/><text fill="#000000" font-family="sans-serif" font-size="7.8" font-weight="bold" lengthAdjust="spacing" textLength="10.8" x="268.5" y="498.1852">19</text><text fill="#000000" font-family="sans-serif" font-size="7.8" lengthAdjust="spacing" textLength="262.2" x="281.7" y="498.1852">postponeEntryToDate(selectedEntry, selectedDateHour, futureEntries)</text><polygon fill="#181818" points="1090.5,516.2168,1096.5,518.6168,1090.5,521.0168,1092.9,518.6168" style="stroke:#181818;stroke-width:0.6;"/><line style="stroke:#181818;stroke-width:0.6;" x1="557.1" x2="1094.1" y1="518.6168" y2="518.6168"/><text fill="#000000" font-family="sans-serif" font-size="7.8" font-weight="bold" lengthAdjust="spacing" textLength="10.8" x="561.3" y="515.7715">20</text><text fill="#000000" font-family="sans-serif" font-size="7.8" lengthAdjust="spacing" textLength="316.2" x="574.5" y="515.7715">postponeEntryToDate(selectedEntry, selectedDateHour, futureEntriesFilteredByDate)</text><line style="stroke:#181818;stroke-width:0.6;" x1="1103.7" x2="1128.9" y1="545.3895" y2="545.3895"/><line style="stroke:#181818;stroke-width:0.6;" x1="1128.9" x2="1128.9" y1="545.3895" y2="553.1895"/><line style="stroke:#181818;stroke-width:0.6;" x1="1104.3" x2="1128.9" y1="553.1895" y2="553.1895"/><polygon fill="#181818" points="1110.3,550.7895,1104.3,553.1895,1110.3,555.5895,1107.9,553.1895" style="stroke:#181818;stroke-width:0.6;"/><text fill="#000000" font-family="sans-serif" font-size="7.8" font-weight="bold" lengthAdjust="spacing" textLength="10.8" x="1107.9" y="537.951">21</text><text fill="#000000" font-family="sans-serif" font-size="7.8" lengthAdjust="spacing" textLength="210" x="1121.1" y="533.3578">validateNoCollaboratorAlreadyDispached(selectedEntry,</text><text fill="#000000" font-family="sans-serif" font-size="7.8" lengthAdjust="spacing" textLength="177" x="1123.5" y="542.5441">selectedDateHour, futureEntriesFilteredByDate)</text><path d="M1106.4,560.9895 L1106.4,575.9895 L1282.2,575.9895 L1282.2,566.9895 L1276.2,560.9895 L1106.4,560.9895 " fill="#FAFAFA" style="stroke:#181818;stroke-width:0.3;"/><path d="M1276.2,560.9895 L1276.2,566.9895 L1282.2,566.9895 L1276.2,560.9895 " fill="#FAFAFA" style="stroke:#181818;stroke-width:0.3;"/><text fill="#000000" font-family="sans-serif" font-size="7.8" lengthAdjust="spacing" textLength="163.2" x="1110" y="571.5305">mudar a sequ&#234;ncia abaixo para um split SD</text><polygon fill="#181818" points="1328.1,589.5621,1334.1,591.9621,1328.1,594.3621,1330.5,591.9621" style="stroke:#181818;stroke-width:0.6;"/><line style="stroke:#181818;stroke-width:0.6;" x1="1103.7" x2="1331.7" y1="591.9621" y2="591.9621"/><text fill="#000000" font-family="sans-serif" font-size="7.8" font-weight="bold" lengthAdjust="spacing" textLength="10.8" x="1107.9" y="589.1168">22</text><text fill="#000000" font-family="sans-serif" font-size="7.8" lengthAdjust="spacing" textLength="140.4" x="1121.1" y="589.1168">setStatus(selectedEntry, "Postponed")</text><polygon fill="#181818" points="1328.1,607.1484,1334.1,609.5484,1328.1,611.9484,1330.5,609.5484" style="stroke:#181818;stroke-width:0.6;"/><line style="stroke:#181818;stroke-width:0.6;" x1="1103.7" x2="1331.7" y1="609.5484" y2="609.5484"/><text fill="#000000" font-family="sans-serif" font-size="7.8" font-weight="bold" lengthAdjust="spacing" textLength="10.8" x="1107.9" y="606.7031">23</text><text fill="#000000" font-family="sans-serif" font-size="7.8" lengthAdjust="spacing" textLength="94.8" x="1121.1" y="606.7031">cloneEntry(selectedEntry)</text><polygon fill="#181818" points="1110.3,624.7348,1104.3,627.1348,1110.3,629.5348,1107.9,627.1348" style="stroke:#181818;stroke-width:0.6;"/><line style="stroke:#181818;stroke-width:0.6;stroke-dasharray:2.0,2.0;" x1="1106.7" x2="1337.7" y1="627.1348" y2="627.1348"/><text fill="#000000" font-family="sans-serif" font-size="7.8" font-weight="bold" lengthAdjust="spacing" textLength="10.8" x="1113.9" y="624.2895">24</text><text fill="#000000" font-family="sans-serif" font-size="7.8" lengthAdjust="spacing" textLength="49.2" x="1127.1" y="624.2895">clonnedEntry</text><polygon fill="#181818" points="1328.1,642.3211,1334.1,644.7211,1328.1,647.1211,1330.5,644.7211" style="stroke:#181818;stroke-width:0.6;"/><line style="stroke:#181818;stroke-width:0.6;" x1="1103.7" x2="1331.7" y1="644.7211" y2="644.7211"/><text fill="#000000" font-family="sans-serif" font-size="7.8" font-weight="bold" lengthAdjust="spacing" textLength="10.8" x="1107.9" y="641.8758">25</text><text fill="#000000" font-family="sans-serif" font-size="7.8" lengthAdjust="spacing" textLength="136.2" x="1121.1" y="641.8758">setDate(clonnedEntry, selectedDate)</text><polygon fill="#181818" points="1328.1,659.9074,1334.1,662.3074,1328.1,664.7074,1330.5,662.3074" style="stroke:#181818;stroke-width:0.6;"/><line style="stroke:#181818;stroke-width:0.6;" x1="1103.7" x2="1331.7" y1="662.3074" y2="662.3074"/><text fill="#000000" font-family="sans-serif" font-size="7.8" font-weight="bold" lengthAdjust="spacing" textLength="10.8" x="1107.9" y="659.4621">26</text><text fill="#000000" font-family="sans-serif" font-size="7.8" lengthAdjust="spacing" textLength="129" x="1121.1" y="659.4621">setStatus(clonnedEntry, "Planned")</text><polygon fill="#181818" points="1110.3,677.4938,1104.3,679.8938,1110.3,682.2937,1107.9,679.8938" style="stroke:#181818;stroke-width:0.6;"/><line style="stroke:#181818;stroke-width:0.6;stroke-dasharray:2.0,2.0;" x1="1106.7" x2="1337.7" y1="679.8938" y2="679.8938"/><text fill="#000000" font-family="sans-serif" font-size="7.8" font-weight="bold" lengthAdjust="spacing" textLength="10.8" x="1113.9" y="677.0484">27</text><text fill="#000000" font-family="sans-serif" font-size="7.8" lengthAdjust="spacing" textLength="59.4" x="1127.1" y="677.0484">postponedEntry</text><polygon fill="#181818" points="563.7,695.0801,557.7,697.4801,563.7,699.8801,561.3,697.4801" style="stroke:#181818;stroke-width:0.6;"/><line style="stroke:#181818;stroke-width:0.6;stroke-dasharray:2.0,2.0;" x1="560.1" x2="1100.1" y1="697.4801" y2="697.4801"/><text fill="#000000" font-family="sans-serif" font-size="7.8" font-weight="bold" lengthAdjust="spacing" textLength="10.8" x="567.3" y="694.6348">28</text><text fill="#000000" font-family="sans-serif" font-size="7.8" lengthAdjust="spacing" textLength="59.4" x="580.5" y="694.6348">postponedEntry</text><polygon fill="#181818" points="827.1,712.6664,833.1,715.0664,827.1,717.4664,829.5,715.0664" style="stroke:#181818;stroke-width:0.6;"/><line style="stroke:#181818;stroke-width:0.6;" x1="557.1" x2="830.7" y1="715.0664" y2="715.0664"/><text fill="#000000" font-family="sans-serif" font-size="7.8" font-weight="bold" lengthAdjust="spacing" textLength="10.8" x="561.3" y="712.2211">29</text><text fill="#000000" font-family="sans-serif" font-size="7.8" lengthAdjust="spacing" textLength="97.2" x="574.5" y="712.2211">addEntry(postponedEntry)</text><polygon fill="#181818" points="563.7,730.2527,557.7,732.6527,563.7,735.0527,561.3,732.6527" style="stroke:#181818;stroke-width:0.6;"/><line style="stroke:#181818;stroke-width:0.6;stroke-dasharray:2.0,2.0;" x1="560.1" x2="836.7" y1="732.6527" y2="732.6527"/><text fill="#000000" font-family="sans-serif" font-size="7.8" font-weight="bold" lengthAdjust="spacing" textLength="10.8" x="567.3" y="729.8074">30</text><text fill="#000000" font-family="sans-serif" font-size="7.8" lengthAdjust="spacing" textLength="59.4" x="580.5" y="729.8074">postponedEntry</text><polygon fill="#181818" points="270.9,747.8391,264.9,750.2391,270.9,752.6391,268.5,750.2391" style="stroke:#181818;stroke-width:0.6;"/><line style="stroke:#181818;stroke-width:0.6;stroke-dasharray:2.0,2.0;" x1="267.3" x2="553.5" y1="750.2391" y2="750.2391"/><text fill="#000000" font-family="sans-serif" font-size="7.8" font-weight="bold" lengthAdjust="spacing" textLength="10.8" x="274.5" y="747.3938">31</text><text fill="#000000" font-family="sans-serif" font-size="7.8" lengthAdjust="spacing" textLength="59.4" x="287.7" y="747.3938">postponedEntry</text><polygon fill="#181818" points="56.1,765.4254,50.1,767.8254,56.1,770.2254,53.7,767.8254" style="stroke:#181818;stroke-width:0.6;"/><line style="stroke:#181818;stroke-width:0.6;stroke-dasharray:2.0,2.0;" x1="52.5" x2="260.7" y1="767.8254" y2="767.8254"/><text fill="#000000" font-family="sans-serif" font-size="7.8" font-weight="bold" lengthAdjust="spacing" textLength="10.8" x="59.7" y="764.9801">32</text><text fill="#000000" font-family="sans-serif" font-size="7.8" lengthAdjust="spacing" textLength="138.6" x="72.9" y="764.9801">Displays operation success message</text><!--SRC=[hLTBRkCu4Dth50Ll9caaEO216S2JfDDPf3k8abq33KOgIqHeKaDItV6LvXfpiIbIN-fdfs4k34kiUlLOFvRC6vS5qsm7EoLLackrGx2wnCYqEmLBtbY6iTqB18s9PJ8JVG6JirJzuZA3BHC6euYLLibozuewYlx8UOgmLSg-glU89LPfMDrfH0an8ICyC4deUWNCm5ty416cvGalcBImMZygOmibSPEXJDcjj7h_SkzbN-uFYruh-bL2rF19-pXGVS926KxKE1elQRWx8vqY5DGzkUzoh4RxeGBpN5gvFIbj1g-yub1kW5BQ72KzCykL3D5cjZpgvkNvou-dsyTl8LnfKCTe32aGmaltLFarVleHtyRn_RUleHhk2g7sYAG3j_L_h_5mzpJmftU-tqFtBueYgImb3yzo2shhumoqBk4vHt1yW9CJX4QMxa6eBCCKk0HcmUQqOomMLxL6U68m-4-9alA8nF2z48nBh-kbMRUDxmdgmbv5v6XmR8QSkf1NTkBccP3zA-93J7lwbCpy9oCCTnmluXOzmELVb9wmtfWt0rP1KMScC5av1BPKQ7GqX2eREkqMazAxVUaMuH5gby6VFi4Q4dAOOx8aI68PMXSHojBFPBSo6LiNCPcvDsT9gJKHko6m2t8siwNvS_Kec2HVhiu3-9PWhvW20RTwrebBwzcAohqa2nIIi_EHNWlU1MCaurQ7U1cSTGtz2XsffdYCWKNoJU8xjzLLG-SOOOIfrNFLr6bS5L3sxj3cAWtoU5ASyZ15oxZm5IARp9vsL9F-AMSPzUghaLINphyJZBb0aBEQTX6T90mKroe0m_Qvb4Mk7K-wnQ4DCsVKWXTeJmA7X8Tm9ox3u9mZwfE77Z4QXMnRsb9ZpN4nRcEBY-we- -70m0psN6DnZOs0N7zTGvohNyPtKApGI8rK4alDtzyQNMkD9cpqksklOSVe80ouNarrwr04DmuJfvmoswn3kcjufEWMjkExT-YiknTIxrEgn5oLWrCV9WtNkL86A_HZ81Vlc9fovL-3jKi9ZNaqxHgAiNwMsdAzyvVmnnbNoiRZBf0xTB4rf_NpnhDoXNFMSFRlBjeZkBqlv8gBC0dF5_hUqWrtgFnf9Ze9lyzSMDIO_hrt0kSpbTqmTfFOj8XRZbDBxISJtEN8LtLDfDchqemAULEDO3VSq6oUOpfW-rsUXE_WXdIivyHsPSfqFSVzzwzCEANXA-FlD5JHjmUKzFLH26uXlfc5cB_X1ewfAdDjqCQ-zmv3jMg-C5mpdWLhWr6Flh2mGiE9Q58bjBnWhDAyhA9Ayo0Xo5fhLgTNdn-cIBxnITmt5ERmyPxvaDKw8g7TXRjnraczggpzT097URfppMd9JC-4hzqv0mTd2vPMPiv2gyT4uxZfuVWfuZVSUpo5gQdYaC4ZPelXVE4Qe61xcWGArFM7PfaaDF3Jc6uCyLsyytgFxjlmVm00]--></g></svg>