<?xml version="1.0" encoding="us-ascii" standalone="no"?><svg xmlns="http://www.w3.org/2000/svg" xmlns:xlink="http://www.w3.org/1999/xlink" contentStyleType="text/css" height="1437px" preserveAspectRatio="none" style="width:2263px;height:1437px;background:#FFFFFF;" version="1.1" viewBox="0 0 2263 1437" width="2263px" zoomAndPan="magnify"><defs/><g><rect fill="#FFFFFF" height="1246.8418" style="stroke:#181818;stroke-width:1.0;" width="10" x="77.5" y="91.4883"/><rect fill="#FFFFFF" height="429.8359" style="stroke:#181818;stroke-width:1.0;" width="10" x="430.5" y="229.3516"/><rect fill="#FFFFFF" height="29.3105" style="stroke:#181818;stroke-width:1.0;" width="10" x="430.5" y="688.498"/><rect fill="#FFFFFF" height="29.3105" style="stroke:#181818;stroke-width:1.0;" width="10" x="430.5" y="747.1191"/><rect fill="#FFFFFF" height="532.5898" style="stroke:#181818;stroke-width:1.0;" width="10" x="430.5" y="805.7402"/><rect fill="#FFFFFF" height="329.7266" style="stroke:#181818;stroke-width:1.0;" width="10" x="918.5" y="300.1504"/><rect fill="#FFFFFF" height="473.9688" style="stroke:#181818;stroke-width:1.0;" width="10" x="918.5" y="835.0508"/><rect fill="#FFFFFF" height="29.3105" style="stroke:#181818;stroke-width:1.0;" width="10" x="1128.5" y="329.4609"/><rect fill="#FFFFFF" height="95.2422" style="stroke:#181818;stroke-width:1.0;" width="10" x="1128.5" y="388.082"/><rect fill="#FFFFFF" height="29.3105" style="stroke:#181818;stroke-width:1.0;" width="10" x="1241.5" y="512.6348"/><rect fill="#FFFFFF" height="29.3105" style="stroke:#181818;stroke-width:1.0;" width="10" x="1390.5" y="571.2559"/><rect fill="#FFFFFF" height="29.3105" style="stroke:#181818;stroke-width:1.0;" width="10" x="1390.5" y="1250.3984"/><rect fill="#FFFFFF" height="29.3105" style="stroke:#181818;stroke-width:1.0;" width="10" x="1829.5" y="864.3613"/><rect fill="#FFFFFF" height="298.1055" style="stroke:#181818;stroke-width:1.0;" width="10" x="1829.5" y="922.9824"/><rect fill="#FFFFFF" height="58.6211" style="stroke:#181818;stroke-width:1.0;" width="10" x="2225.5" y="1045.2246"/><rect fill="#FFFFFF" height="58.6211" style="stroke:#181818;stroke-width:1.0;" width="10" x="2225.5" y="1133.1563"/><line style="stroke:#181818;stroke-width:0.5;stroke-dasharray:5.0,5.0;" x1="82" x2="82" y1="81.4883" y2="1356.3301"/><line style="stroke:#181818;stroke-width:0.5;stroke-dasharray:5.0,5.0;" x1="435.5" x2="435.5" y1="81.4883" y2="1356.3301"/><line style="stroke:#181818;stroke-width:0.5;stroke-dasharray:5.0,5.0;" x1="923.5" x2="923.5" y1="268.0957" y2="1356.3301"/><line style="stroke:#181818;stroke-width:0.5;stroke-dasharray:5.0,5.0;" x1="1133" x2="1133" y1="81.4883" y2="1356.3301"/><line style="stroke:#181818;stroke-width:0.5;stroke-dasharray:5.0,5.0;" x1="1246" x2="1246" y1="81.4883" y2="1356.3301"/><line style="stroke:#181818;stroke-width:0.5;stroke-dasharray:5.0,5.0;" x1="1395.5" x2="1395.5" y1="81.4883" y2="1356.3301"/><line style="stroke:#181818;stroke-width:0.5;stroke-dasharray:5.0,5.0;" x1="1573.5" x2="1573.5" y1="81.4883" y2="1356.3301"/><line style="stroke:#181818;stroke-width:0.5;stroke-dasharray:5.0,5.0;" x1="1729.5" x2="1729.5" y1="81.4883" y2="1356.3301"/><line style="stroke:#181818;stroke-width:0.5;stroke-dasharray:5.0,5.0;" x1="1834.5" x2="1834.5" y1="81.4883" y2="1356.3301"/><line style="stroke:#181818;stroke-width:0.5;stroke-dasharray:5.0,5.0;" x1="2230" x2="2230" y1="81.4883" y2="1356.3301"/><text fill="#000000" font-family="sans-serif" font-size="14" lengthAdjust="spacing" textLength="149" x="5" y="78.5352">Green Space Manager</text><ellipse cx="82.5" cy="13.5" fill="#E3E3E3" rx="8" ry="8" style="stroke:#181818;stroke-width:0.5;"/><path d="M82.5,21.5 L82.5,48.5 M69.5,29.5 L95.5,29.5 M82.5,48.5 L69.5,63.5 M82.5,48.5 L95.5,63.5 " fill="none" style="stroke:#181818;stroke-width:0.5;"/><text fill="#000000" font-family="sans-serif" font-size="14" lengthAdjust="spacing" textLength="149" x="5" y="1368.8652">Green Space Manager</text><ellipse cx="82.5" cy="1380.3184" fill="#E3E3E3" rx="8" ry="8" style="stroke:#181818;stroke-width:0.5;"/><path d="M82.5,1388.3184 L82.5,1415.3184 M69.5,1396.3184 L95.5,1396.3184 M82.5,1415.3184 L69.5,1430.3184 M82.5,1415.3184 L95.5,1430.3184 " fill="none" style="stroke:#181818;stroke-width:0.5;"/><rect fill="#E3E3E3" height="30.4883" rx="2.5" ry="2.5" style="stroke:#181818;stroke-width:0.5;" width="184" x="343.5" y="50"/><text fill="#000000" font-family="sans-serif" font-size="14" lengthAdjust="spacing" textLength="170" x="350.5" y="70.5352">:PostponeAgendaEntryUI</text><rect fill="#E3E3E3" height="30.4883" rx="2.5" ry="2.5" style="stroke:#181818;stroke-width:0.5;" width="184" x="343.5" y="1355.3301"/><text fill="#000000" font-family="sans-serif" font-size="14" lengthAdjust="spacing" textLength="170" x="350.5" y="1375.8652">:PostponeAgendaEntryUI</text><rect fill="#E3E3E3" height="30.4883" rx="2.5" ry="2.5" style="stroke:#181818;stroke-width:0.5;" width="240" x="803.5" y="1355.3301"/><text fill="#000000" font-family="sans-serif" font-size="14" lengthAdjust="spacing" textLength="226" x="810.5" y="1375.8652">:PostponeAgendaEntryController</text><rect fill="#E3E3E3" height="30.4883" rx="2.5" ry="2.5" style="stroke:#181818;stroke-width:0.5;" width="103" x="1082" y="50"/><text fill="#000000" font-family="sans-serif" font-size="14" lengthAdjust="spacing" textLength="89" x="1089" y="70.5352">:Repositories</text><rect fill="#E3E3E3" height="30.4883" rx="2.5" ry="2.5" style="stroke:#181818;stroke-width:0.5;" width="103" x="1082" y="1355.3301"/><text fill="#000000" font-family="sans-serif" font-size="14" lengthAdjust="spacing" textLength="89" x="1089" y="1375.8652">:Repositories</text><rect fill="#E3E3E3" height="46.9766" rx="2.5" ry="2.5" style="stroke:#181818;stroke-width:0.5;" width="103" x="1195" y="33.5117"/><text fill="#000000" font-family="sans-serif" font-size="14" lengthAdjust="spacing" textLength="82" x="1205.5" y="54.0469">repositories</text><text fill="#000000" font-family="sans-serif" font-size="14" lengthAdjust="spacing" textLength="89" x="1202" y="70.5352">:Repositories</text><rect fill="#E3E3E3" height="46.9766" rx="2.5" ry="2.5" style="stroke:#181818;stroke-width:0.5;" width="103" x="1195" y="1355.3301"/><text fill="#000000" font-family="sans-serif" font-size="14" lengthAdjust="spacing" textLength="82" x="1205.5" y="1375.8652">repositories</text><text fill="#000000" font-family="sans-serif" font-size="14" lengthAdjust="spacing" textLength="89" x="1202" y="1392.3535">:Repositories</text><rect fill="#E3E3E3" height="46.9766" rx="2.5" ry="2.5" style="stroke:#181818;stroke-width:0.5;" width="144" x="1323.5" y="33.5117"/><text fill="#000000" font-family="sans-serif" font-size="14" lengthAdjust="spacing" textLength="124" x="1333.5" y="54.0469">agendaRepository</text><text fill="#000000" font-family="sans-serif" font-size="14" lengthAdjust="spacing" textLength="130" x="1330.5" y="70.5352">:AgendaRepository</text><rect fill="#E3E3E3" height="46.9766" rx="2.5" ry="2.5" style="stroke:#181818;stroke-width:0.5;" width="144" x="1323.5" y="1355.3301"/><text fill="#000000" font-family="sans-serif" font-size="14" lengthAdjust="spacing" textLength="124" x="1333.5" y="1375.8652">agendaRepository</text><text fill="#000000" font-family="sans-serif" font-size="14" lengthAdjust="spacing" textLength="130" x="1330.5" y="1392.3535">:AgendaRepository</text><rect fill="#E3E3E3" height="46.9766" rx="2.5" ry="2.5" style="stroke:#181818;stroke-width:0.5;" width="192" x="1477.5" y="33.5117"/><text fill="#000000" font-family="sans-serif" font-size="14" lengthAdjust="spacing" textLength="172" x="1487.5" y="54.0469">authenticationRepository</text><text fill="#000000" font-family="sans-serif" font-size="14" lengthAdjust="spacing" textLength="178" x="1484.5" y="70.5352">:AuthenticationRepository</text><rect fill="#E3E3E3" height="46.9766" rx="2.5" ry="2.5" style="stroke:#181818;stroke-width:0.5;" width="192" x="1477.5" y="1355.3301"/><text fill="#000000" font-family="sans-serif" font-size="14" lengthAdjust="spacing" textLength="172" x="1487.5" y="1375.8652">authenticationRepository</text><text fill="#000000" font-family="sans-serif" font-size="14" lengthAdjust="spacing" textLength="178" x="1484.5" y="1392.3535">:AuthenticationRepository</text><rect fill="#E3E3E3" height="46.9766" rx="2.5" ry="2.5" style="stroke:#181818;stroke-width:0.5;" width="101" x="1679.5" y="33.5117"/><text fill="#000000" font-family="sans-serif" font-size="14" lengthAdjust="spacing" textLength="82" x="1689" y="54.0469">userSession</text><text fill="#000000" font-family="sans-serif" font-size="14" lengthAdjust="spacing" textLength="87" x="1686.5" y="70.5352">:UserSession</text><rect fill="#E3E3E3" height="46.9766" rx="2.5" ry="2.5" style="stroke:#181818;stroke-width:0.5;" width="101" x="1679.5" y="1355.3301"/><text fill="#000000" font-family="sans-serif" font-size="14" lengthAdjust="spacing" textLength="82" x="1689" y="1375.8652">userSession</text><text fill="#000000" font-family="sans-serif" font-size="14" lengthAdjust="spacing" textLength="87" x="1686.5" y="1392.3535">:UserSession</text><rect fill="#E3E3E3" height="46.9766" rx="2.5" ry="2.5" style="stroke:#181818;stroke-width:0.5;" width="88" x="1790.5" y="33.5117"/><text fill="#000000" font-family="sans-serif" font-size="14" lengthAdjust="spacing" textLength="66" x="1801.5" y="54.0469">employee</text><text fill="#000000" font-family="sans-serif" font-size="14" lengthAdjust="spacing" textLength="74" x="1797.5" y="70.5352">: Employee</text><rect fill="#E3E3E3" height="46.9766" rx="2.5" ry="2.5" style="stroke:#181818;stroke-width:0.5;" width="88" x="1790.5" y="1355.3301"/><text fill="#000000" font-family="sans-serif" font-size="14" lengthAdjust="spacing" textLength="66" x="1801.5" y="1375.8652">employee</text><text fill="#000000" font-family="sans-serif" font-size="14" lengthAdjust="spacing" textLength="74" x="1797.5" y="1392.3535">: Employee</text><rect fill="#E3E3E3" height="30.4883" rx="2.5" ry="2.5" style="stroke:#181818;stroke-width:0.5;" width="53" x="2204" y="50"/><text fill="#000000" font-family="sans-serif" font-size="14" lengthAdjust="spacing" textLength="39" x="2211" y="70.5352">:Entry</text><rect fill="#E3E3E3" height="30.4883" rx="2.5" ry="2.5" style="stroke:#181818;stroke-width:0.5;" width="53" x="2204" y="1355.3301"/><text fill="#000000" font-family="sans-serif" font-size="14" lengthAdjust="spacing" textLength="39" x="2211" y="1375.8652">:Entry</text><rect fill="#FFFFFF" height="1246.8418" style="stroke:#181818;stroke-width:1.0;" width="10" x="77.5" y="91.4883"/><rect fill="#FFFFFF" height="429.8359" style="stroke:#181818;stroke-width:1.0;" width="10" x="430.5" y="229.3516"/><rect fill="#FFFFFF" height="29.3105" style="stroke:#181818;stroke-width:1.0;" width="10" x="430.5" y="688.498"/><rect fill="#FFFFFF" height="29.3105" style="stroke:#181818;stroke-width:1.0;" width="10" x="430.5" y="747.1191"/><rect fill="#FFFFFF" height="532.5898" style="stroke:#181818;stroke-width:1.0;" width="10" x="430.5" y="805.7402"/><rect fill="#FFFFFF" height="329.7266" style="stroke:#181818;stroke-width:1.0;" width="10" x="918.5" y="300.1504"/><rect fill="#FFFFFF" height="473.9688" style="stroke:#181818;stroke-width:1.0;" width="10" x="918.5" y="835.0508"/><rect fill="#FFFFFF" height="29.3105" style="stroke:#181818;stroke-width:1.0;" width="10" x="1128.5" y="329.4609"/><rect fill="#FFFFFF" height="95.2422" style="stroke:#181818;stroke-width:1.0;" width="10" x="1128.5" y="388.082"/><rect fill="#FFFFFF" height="29.3105" style="stroke:#181818;stroke-width:1.0;" width="10" x="1241.5" y="512.6348"/><rect fill="#FFFFFF" height="29.3105" style="stroke:#181818;stroke-width:1.0;" width="10" x="1390.5" y="571.2559"/><rect fill="#FFFFFF" height="29.3105" style="stroke:#181818;stroke-width:1.0;" width="10" x="1390.5" y="1250.3984"/><rect fill="#FFFFFF" height="29.3105" style="stroke:#181818;stroke-width:1.0;" width="10" x="1829.5" y="864.3613"/><rect fill="#FFFFFF" height="298.1055" style="stroke:#181818;stroke-width:1.0;" width="10" x="1829.5" y="922.9824"/><rect fill="#FFFFFF" height="58.6211" style="stroke:#181818;stroke-width:1.0;" width="10" x="2225.5" y="1045.2246"/><rect fill="#FFFFFF" height="58.6211" style="stroke:#181818;stroke-width:1.0;" width="10" x="2225.5" y="1133.1563"/><path d="M92,96.4883 L92,151.4883 L385,151.4883 L385,106.4883 L375,96.4883 L92,96.4883 " fill="#FAFAFA" style="stroke:#181818;stroke-width:0.5;"/><path d="M375,96.4883 L375,106.4883 L385,106.4883 L375,96.4883 " fill="#FAFAFA" style="stroke:#181818;stroke-width:0.5;"/><text fill="#000000" font-family="sans-serif" font-size="13" lengthAdjust="spacing" textLength="272" x="98" y="114.0566">- The user is already logged in at this step.</text><text fill="#000000" font-family="sans-serif" font-size="13" lengthAdjust="spacing" textLength="264" x="98" y="129.3672">- Authentication sequence is explained in</text><text fill="#000000" font-family="sans-serif" font-size="13" lengthAdjust="spacing" textLength="125" x="98" y="144.6777">a sequence excerpt.</text><path d="M1138,162.4199 L1138,202.4199 L1245,202.4199 L1245,172.4199 L1235,162.4199 L1138,162.4199 " fill="#FAFAFA" style="stroke:#181818;stroke-width:0.5;"/><path d="M1235,162.4199 L1235,172.4199 L1245,172.4199 L1235,162.4199 " fill="#FAFAFA" style="stroke:#181818;stroke-width:0.5;"/><text fill="#000000" font-family="sans-serif" font-size="13" lengthAdjust="spacing" textLength="86" x="1144" y="179.9883">- Singleton is</text><text fill="#000000" font-family="sans-serif" font-size="13" lengthAdjust="spacing" textLength="38" x="1144" y="195.2988">in use</text><polygon fill="#181818" points="418.5,225.3516,428.5,229.3516,418.5,233.3516,422.5,229.3516" style="stroke:#181818;stroke-width:1.0;"/><line style="stroke:#181818;stroke-width:1.0;" x1="87.5" x2="424.5" y1="229.3516" y2="229.3516"/><text fill="#000000" font-family="sans-serif" font-size="13" font-weight="bold" lengthAdjust="spacing" textLength="9" x="94.5" y="224.6094">1</text><text fill="#000000" font-family="sans-serif" font-size="13" lengthAdjust="spacing" textLength="275" x="107.5" y="224.6094">Asks to postpone an entry from the Agenda</text><polygon fill="#181818" points="791.5,254.6621,801.5,258.6621,791.5,262.6621,795.5,258.6621" style="stroke:#181818;stroke-width:1.0;"/><line style="stroke:#181818;stroke-width:1.0;" x1="440.5" x2="797.5" y1="258.6621" y2="258.6621"/><text fill="#000000" font-family="sans-serif" font-size="13" font-weight="bold" lengthAdjust="spacing" textLength="9" x="447.5" y="253.9199">2</text><text fill="#000000" font-family="sans-serif" font-size="13" lengthAdjust="spacing" textLength="38" x="460.5" y="253.9199">create</text><rect fill="#E3E3E3" height="30.4883" rx="2.5" ry="2.5" style="stroke:#181818;stroke-width:0.5;" width="240" x="803.5" y="237.3516"/><text fill="#000000" font-family="sans-serif" font-size="14" lengthAdjust="spacing" textLength="226" x="810.5" y="257.8867">:PostponeAgendaEntryController</text><polygon fill="#181818" points="906.5,296.1504,916.5,300.1504,906.5,304.1504,910.5,300.1504" style="stroke:#181818;stroke-width:1.0;"/><line style="stroke:#181818;stroke-width:1.0;" x1="440.5" x2="912.5" y1="300.1504" y2="300.1504"/><text fill="#000000" font-family="sans-serif" font-size="13" font-weight="bold" lengthAdjust="spacing" textLength="9" x="447.5" y="295.4082">3</text><text fill="#000000" font-family="sans-serif" font-size="13" lengthAdjust="spacing" textLength="421" x="460.5" y="295.4082">getEntriesFromAgendaStartingFrom(currentDate, status="Planned")</text><polygon fill="#181818" points="1116.5,325.4609,1126.5,329.4609,1116.5,333.4609,1120.5,329.4609" style="stroke:#181818;stroke-width:1.0;"/><line style="stroke:#181818;stroke-width:1.0;" x1="928.5" x2="1122.5" y1="329.4609" y2="329.4609"/><text fill="#000000" font-family="sans-serif" font-size="13" font-weight="bold" lengthAdjust="spacing" textLength="9" x="935.5" y="324.7188">4</text><text fill="#000000" font-family="sans-serif" font-size="13" lengthAdjust="spacing" textLength="81" x="948.5" y="324.7188">getInstance()</text><polygon fill="#181818" points="939.5,354.7715,929.5,358.7715,939.5,362.7715,935.5,358.7715" style="stroke:#181818;stroke-width:1.0;"/><line style="stroke:#181818;stroke-width:1.0;stroke-dasharray:2.0,2.0;" x1="933.5" x2="1132.5" y1="358.7715" y2="358.7715"/><text fill="#000000" font-family="sans-serif" font-size="13" font-weight="bold" lengthAdjust="spacing" textLength="9" x="945.5" y="354.0293">5</text><text fill="#000000" font-family="sans-serif" font-size="13" lengthAdjust="spacing" textLength="75" x="958.5" y="354.0293">repositories</text><polygon fill="#181818" points="1116.5,384.082,1126.5,388.082,1116.5,392.082,1120.5,388.082" style="stroke:#181818;stroke-width:1.0;"/><line style="stroke:#181818;stroke-width:1.0;" x1="928.5" x2="1122.5" y1="388.082" y2="388.082"/><text fill="#000000" font-family="sans-serif" font-size="13" font-weight="bold" lengthAdjust="spacing" textLength="9" x="935.5" y="383.3398">6</text><text fill="#000000" font-family="sans-serif" font-size="13" lengthAdjust="spacing" textLength="168" x="948.5" y="383.3398">getEmployeeFromSession()</text><path d="M933,401.082 L933,456.082 L1125,456.082 L1125,411.082 L1115,401.082 L933,401.082 " fill="#FAFAFA" style="stroke:#181818;stroke-width:0.5;"/><path d="M1115,401.082 L1115,411.082 L1125,411.082 L1115,401.082 " fill="#FAFAFA" style="stroke:#181818;stroke-width:0.5;"/><text fill="#000000" font-family="sans-serif" font-size="13" lengthAdjust="spacing" textLength="171" x="939" y="418.6504">- This method is explained</text><text fill="#000000" font-family="sans-serif" font-size="13" lengthAdjust="spacing" textLength="137" x="939" y="433.9609">in detail in an excerpt</text><text fill="#000000" font-family="sans-serif" font-size="13" lengthAdjust="spacing" textLength="118" x="939" y="449.2715">sequence diagram.</text><polygon fill="#181818" points="939.5,479.3242,929.5,483.3242,939.5,487.3242,935.5,483.3242" style="stroke:#181818;stroke-width:1.0;"/><line style="stroke:#181818;stroke-width:1.0;stroke-dasharray:2.0,2.0;" x1="933.5" x2="1132.5" y1="483.3242" y2="483.3242"/><text fill="#000000" font-family="sans-serif" font-size="13" font-weight="bold" lengthAdjust="spacing" textLength="9" x="945.5" y="478.582">7</text><text fill="#000000" font-family="sans-serif" font-size="13" lengthAdjust="spacing" textLength="60" x="958.5" y="478.582">employee</text><polygon fill="#181818" points="1229.5,508.6348,1239.5,512.6348,1229.5,516.6348,1233.5,512.6348" style="stroke:#181818;stroke-width:1.0;"/><line style="stroke:#181818;stroke-width:1.0;" x1="928.5" x2="1235.5" y1="512.6348" y2="512.6348"/><text fill="#000000" font-family="sans-serif" font-size="13" font-weight="bold" lengthAdjust="spacing" textLength="9" x="935.5" y="507.8926">8</text><text fill="#000000" font-family="sans-serif" font-size="13" lengthAdjust="spacing" textLength="142" x="948.5" y="507.8926">getAgendaRepository()</text><polygon fill="#181818" points="939.5,537.9453,929.5,541.9453,939.5,545.9453,935.5,541.9453" style="stroke:#181818;stroke-width:1.0;"/><line style="stroke:#181818;stroke-width:1.0;stroke-dasharray:2.0,2.0;" x1="933.5" x2="1245.5" y1="541.9453" y2="541.9453"/><text fill="#000000" font-family="sans-serif" font-size="13" font-weight="bold" lengthAdjust="spacing" textLength="9" x="945.5" y="537.2031">9</text><text fill="#000000" font-family="sans-serif" font-size="13" lengthAdjust="spacing" textLength="112" x="958.5" y="537.2031">agendaRepository</text><polygon fill="#181818" points="1378.5,567.2559,1388.5,571.2559,1378.5,575.2559,1382.5,571.2559" style="stroke:#181818;stroke-width:1.0;"/><line style="stroke:#181818;stroke-width:1.0;" x1="928.5" x2="1384.5" y1="571.2559" y2="571.2559"/><text fill="#000000" font-family="sans-serif" font-size="13" font-weight="bold" lengthAdjust="spacing" textLength="18" x="935.5" y="566.5137">10</text><text fill="#000000" font-family="sans-serif" font-size="13" lengthAdjust="spacing" textLength="421" x="957.5" y="566.5137">getEntriesFromAgendaStartingFrom(currentDate, status="Planned")</text><polygon fill="#181818" points="939.5,596.5664,929.5,600.5664,939.5,604.5664,935.5,600.5664" style="stroke:#181818;stroke-width:1.0;"/><line style="stroke:#181818;stroke-width:1.0;stroke-dasharray:2.0,2.0;" x1="933.5" x2="1394.5" y1="600.5664" y2="600.5664"/><text fill="#000000" font-family="sans-serif" font-size="13" font-weight="bold" lengthAdjust="spacing" textLength="18" x="945.5" y="595.8242">11</text><text fill="#000000" font-family="sans-serif" font-size="13" lengthAdjust="spacing" textLength="81" x="967.5" y="595.8242">futureEntries</text><polygon fill="#181818" points="451.5,625.877,441.5,629.877,451.5,633.877,447.5,629.877" style="stroke:#181818;stroke-width:1.0;"/><line style="stroke:#181818;stroke-width:1.0;stroke-dasharray:2.0,2.0;" x1="445.5" x2="922.5" y1="629.877" y2="629.877"/><text fill="#000000" font-family="sans-serif" font-size="13" font-weight="bold" lengthAdjust="spacing" textLength="18" x="457.5" y="625.1348">12</text><text fill="#000000" font-family="sans-serif" font-size="13" lengthAdjust="spacing" textLength="81" x="479.5" y="625.1348">futureEntries</text><polygon fill="#181818" points="98.5,655.1875,88.5,659.1875,98.5,663.1875,94.5,659.1875" style="stroke:#181818;stroke-width:1.0;"/><line style="stroke:#181818;stroke-width:1.0;stroke-dasharray:2.0,2.0;" x1="92.5" x2="434.5" y1="659.1875" y2="659.1875"/><text fill="#000000" font-family="sans-serif" font-size="13" font-weight="bold" lengthAdjust="spacing" textLength="18" x="104.5" y="654.4453">13</text><text fill="#000000" font-family="sans-serif" font-size="13" lengthAdjust="spacing" textLength="263" x="126.5" y="654.4453">Shows the entries collected at the Agenda</text><polygon fill="#181818" points="418.5,684.498,428.5,688.498,418.5,692.498,422.5,688.498" style="stroke:#181818;stroke-width:1.0;"/><line style="stroke:#181818;stroke-width:1.0;" x1="87.5" x2="424.5" y1="688.498" y2="688.498"/><text fill="#000000" font-family="sans-serif" font-size="13" font-weight="bold" lengthAdjust="spacing" textLength="18" x="94.5" y="683.7559">14</text><text fill="#000000" font-family="sans-serif" font-size="13" lengthAdjust="spacing" textLength="198" x="116.5" y="683.7559">Selects one of the listed entries</text><polygon fill="#181818" points="98.5,713.8086,88.5,717.8086,98.5,721.8086,94.5,717.8086" style="stroke:#181818;stroke-width:1.0;"/><line style="stroke:#181818;stroke-width:1.0;stroke-dasharray:2.0,2.0;" x1="92.5" x2="434.5" y1="717.8086" y2="717.8086"/><text fill="#000000" font-family="sans-serif" font-size="13" font-weight="bold" lengthAdjust="spacing" textLength="18" x="104.5" y="713.0664">15</text><text fill="#000000" font-family="sans-serif" font-size="13" lengthAdjust="spacing" textLength="294" x="126.5" y="713.0664">Prompts the entry of a postpone date and hour</text><polygon fill="#181818" points="418.5,743.1191,428.5,747.1191,418.5,751.1191,422.5,747.1191" style="stroke:#181818;stroke-width:1.0;"/><line style="stroke:#181818;stroke-width:1.0;" x1="87.5" x2="424.5" y1="747.1191" y2="747.1191"/><text fill="#000000" font-family="sans-serif" font-size="13" font-weight="bold" lengthAdjust="spacing" textLength="18" x="94.5" y="742.377">16</text><text fill="#000000" font-family="sans-serif" font-size="13" lengthAdjust="spacing" textLength="232" x="116.5" y="742.377">Chooses the postpone date and hour</text><polygon fill="#181818" points="98.5,772.4297,88.5,776.4297,98.5,780.4297,94.5,776.4297" style="stroke:#181818;stroke-width:1.0;"/><line style="stroke:#181818;stroke-width:1.0;stroke-dasharray:2.0,2.0;" x1="92.5" x2="434.5" y1="776.4297" y2="776.4297"/><text fill="#000000" font-family="sans-serif" font-size="13" font-weight="bold" lengthAdjust="spacing" textLength="18" x="104.5" y="771.6875">17</text><text fill="#000000" font-family="sans-serif" font-size="13" lengthAdjust="spacing" textLength="297" x="126.5" y="771.6875">Shows selected data and requests confirmation</text><polygon fill="#181818" points="418.5,801.7402,428.5,805.7402,418.5,809.7402,422.5,805.7402" style="stroke:#181818;stroke-width:1.0;"/><line style="stroke:#181818;stroke-width:1.0;" x1="87.5" x2="424.5" y1="805.7402" y2="805.7402"/><text fill="#000000" font-family="sans-serif" font-size="13" font-weight="bold" lengthAdjust="spacing" textLength="18" x="94.5" y="800.998">18</text><text fill="#000000" font-family="sans-serif" font-size="13" lengthAdjust="spacing" textLength="89" x="116.5" y="800.998">Confirms data</text><polygon fill="#181818" points="906.5,831.0508,916.5,835.0508,906.5,839.0508,910.5,835.0508" style="stroke:#181818;stroke-width:1.0;"/><line style="stroke:#181818;stroke-width:1.0;" x1="440.5" x2="912.5" y1="835.0508" y2="835.0508"/><text fill="#000000" font-family="sans-serif" font-size="13" font-weight="bold" lengthAdjust="spacing" textLength="18" x="447.5" y="830.3086">19</text><text fill="#000000" font-family="sans-serif" font-size="13" lengthAdjust="spacing" textLength="437" x="469.5" y="830.3086">postponeEntryToDate(selectedEntry, selectedDateHour, futureEntries)</text><polygon fill="#181818" points="1817.5,860.3613,1827.5,864.3613,1817.5,868.3613,1821.5,864.3613" style="stroke:#181818;stroke-width:1.0;"/><line style="stroke:#181818;stroke-width:1.0;" x1="928.5" x2="1823.5" y1="864.3613" y2="864.3613"/><text fill="#000000" font-family="sans-serif" font-size="13" font-weight="bold" lengthAdjust="spacing" textLength="18" x="935.5" y="859.6191">20</text><text fill="#000000" font-family="sans-serif" font-size="13" lengthAdjust="spacing" textLength="365" x="957.5" y="859.6191">filterFutureEntriesByDate(futureEntries, selectedDateHour)</text><polygon fill="#181818" points="939.5,889.6719,929.5,893.6719,939.5,897.6719,935.5,893.6719" style="stroke:#181818;stroke-width:1.0;"/><line style="stroke:#181818;stroke-width:1.0;stroke-dasharray:2.0,2.0;" x1="933.5" x2="1833.5" y1="893.6719" y2="893.6719"/><text fill="#000000" font-family="sans-serif" font-size="13" font-weight="bold" lengthAdjust="spacing" textLength="18" x="945.5" y="888.9297">21</text><text fill="#000000" font-family="sans-serif" font-size="13" lengthAdjust="spacing" textLength="171" x="967.5" y="888.9297">futureEntriesFilteredByDate</text><polygon fill="#181818" points="1817.5,918.9824,1827.5,922.9824,1817.5,926.9824,1821.5,922.9824" style="stroke:#181818;stroke-width:1.0;"/><line style="stroke:#181818;stroke-width:1.0;" x1="928.5" x2="1823.5" y1="922.9824" y2="922.9824"/><text fill="#000000" font-family="sans-serif" font-size="13" font-weight="bold" lengthAdjust="spacing" textLength="18" x="935.5" y="918.2402">22</text><text fill="#000000" font-family="sans-serif" font-size="13" lengthAdjust="spacing" textLength="527" x="957.5" y="918.2402">postponeEntryToDate(selectedEntry, selectedDateHour, futureEntriesFilteredByDate)</text><line style="stroke:#181818;stroke-width:1.0;" x1="1839.5" x2="1881.5" y1="967.6035" y2="967.6035"/><line style="stroke:#181818;stroke-width:1.0;" x1="1881.5" x2="1881.5" y1="967.6035" y2="980.6035"/><line style="stroke:#181818;stroke-width:1.0;" x1="1840.5" x2="1881.5" y1="980.6035" y2="980.6035"/><polygon fill="#181818" points="1850.5,976.6035,1840.5,980.6035,1850.5,984.6035,1846.5,980.6035" style="stroke:#181818;stroke-width:1.0;"/><text fill="#000000" font-family="sans-serif" font-size="13" font-weight="bold" lengthAdjust="spacing" textLength="18" x="1846.5" y="955.2061">23</text><text fill="#000000" font-family="sans-serif" font-size="13" lengthAdjust="spacing" textLength="350" x="1868.5" y="947.5508">validateNoCollaboratorAlreadyDispached(selectedEntry,</text><text fill="#000000" font-family="sans-serif" font-size="13" lengthAdjust="spacing" textLength="295" x="1872.5" y="962.8613">selectedDateHour, futureEntriesFilteredByDate)</text><path d="M1844,993.6035 L1844,1018.6035 L2137,1018.6035 L2137,1003.6035 L2127,993.6035 L1844,993.6035 " fill="#FAFAFA" style="stroke:#181818;stroke-width:0.5;"/><path d="M2127,993.6035 L2127,1003.6035 L2137,1003.6035 L2127,993.6035 " fill="#FAFAFA" style="stroke:#181818;stroke-width:0.5;"/><text fill="#000000" font-family="sans-serif" font-size="13" lengthAdjust="spacing" textLength="272" x="1850" y="1011.1719">mudar a sequ&#234;ncia abaixo para um split SD</text><polygon fill="#181818" points="2213.5,1041.2246,2223.5,1045.2246,2213.5,1049.2246,2217.5,1045.2246" style="stroke:#181818;stroke-width:1.0;"/><line style="stroke:#181818;stroke-width:1.0;" x1="1839.5" x2="2219.5" y1="1045.2246" y2="1045.2246"/><text fill="#000000" font-family="sans-serif" font-size="13" font-weight="bold" lengthAdjust="spacing" textLength="18" x="1846.5" y="1040.4824">24</text><text fill="#000000" font-family="sans-serif" font-size="13" lengthAdjust="spacing" textLength="234" x="1868.5" y="1040.4824">setStatus(selectedEntry, "Postponed")</text><polygon fill="#181818" points="2213.5,1070.5352,2223.5,1074.5352,2213.5,1078.5352,2217.5,1074.5352" style="stroke:#181818;stroke-width:1.0;"/><line style="stroke:#181818;stroke-width:1.0;" x1="1839.5" x2="2219.5" y1="1074.5352" y2="1074.5352"/><text fill="#000000" font-family="sans-serif" font-size="13" font-weight="bold" lengthAdjust="spacing" textLength="18" x="1846.5" y="1069.793">25</text><text fill="#000000" font-family="sans-serif" font-size="13" lengthAdjust="spacing" textLength="158" x="1868.5" y="1069.793">cloneEntry(selectedEntry)</text><polygon fill="#181818" points="1850.5,1099.8457,1840.5,1103.8457,1850.5,1107.8457,1846.5,1103.8457" style="stroke:#181818;stroke-width:1.0;"/><line style="stroke:#181818;stroke-width:1.0;stroke-dasharray:2.0,2.0;" x1="1844.5" x2="2229.5" y1="1103.8457" y2="1103.8457"/><text fill="#000000" font-family="sans-serif" font-size="13" font-weight="bold" lengthAdjust="spacing" textLength="18" x="1856.5" y="1099.1035">26</text><text fill="#000000" font-family="sans-serif" font-size="13" lengthAdjust="spacing" textLength="82" x="1878.5" y="1099.1035">clonnedEntry</text><polygon fill="#181818" points="2213.5,1129.1563,2223.5,1133.1563,2213.5,1137.1563,2217.5,1133.1563" style="stroke:#181818;stroke-width:1.0;"/><line style="stroke:#181818;stroke-width:1.0;" x1="1839.5" x2="2219.5" y1="1133.1563" y2="1133.1563"/><text fill="#000000" font-family="sans-serif" font-size="13" font-weight="bold" lengthAdjust="spacing" textLength="18" x="1846.5" y="1128.4141">27</text><text fill="#000000" font-family="sans-serif" font-size="13" lengthAdjust="spacing" textLength="227" x="1868.5" y="1128.4141">setDate(clonnedEntry, selectedDate)</text><polygon fill="#181818" points="2213.5,1158.4668,2223.5,1162.4668,2213.5,1166.4668,2217.5,1162.4668" style="stroke:#181818;stroke-width:1.0;"/><line style="stroke:#181818;stroke-width:1.0;" x1="1839.5" x2="2219.5" y1="1162.4668" y2="1162.4668"/><text fill="#000000" font-family="sans-serif" font-size="13" font-weight="bold" lengthAdjust="spacing" textLength="18" x="1846.5" y="1157.7246">28</text><text fill="#000000" font-family="sans-serif" font-size="13" lengthAdjust="spacing" textLength="215" x="1868.5" y="1157.7246">setStatus(clonnedEntry, "Planned")</text><polygon fill="#181818" points="1850.5,1187.7773,1840.5,1191.7773,1850.5,1195.7773,1846.5,1191.7773" style="stroke:#181818;stroke-width:1.0;"/><line style="stroke:#181818;stroke-width:1.0;stroke-dasharray:2.0,2.0;" x1="1844.5" x2="2229.5" y1="1191.7773" y2="1191.7773"/><text fill="#000000" font-family="sans-serif" font-size="13" font-weight="bold" lengthAdjust="spacing" textLength="18" x="1856.5" y="1187.0352">29</text><text fill="#000000" font-family="sans-serif" font-size="13" lengthAdjust="spacing" textLength="99" x="1878.5" y="1187.0352">postponedEntry</text><polygon fill="#181818" points="939.5,1217.0879,929.5,1221.0879,939.5,1225.0879,935.5,1221.0879" style="stroke:#181818;stroke-width:1.0;"/><line style="stroke:#181818;stroke-width:1.0;stroke-dasharray:2.0,2.0;" x1="933.5" x2="1833.5" y1="1221.0879" y2="1221.0879"/><text fill="#000000" font-family="sans-serif" font-size="13" font-weight="bold" lengthAdjust="spacing" textLength="18" x="945.5" y="1216.3457">30</text><text fill="#000000" font-family="sans-serif" font-size="13" lengthAdjust="spacing" textLength="99" x="967.5" y="1216.3457">postponedEntry</text><polygon fill="#181818" points="1378.5,1246.3984,1388.5,1250.3984,1378.5,1254.3984,1382.5,1250.3984" style="stroke:#181818;stroke-width:1.0;"/><line style="stroke:#181818;stroke-width:1.0;" x1="928.5" x2="1384.5" y1="1250.3984" y2="1250.3984"/><text fill="#000000" font-family="sans-serif" font-size="13" font-weight="bold" lengthAdjust="spacing" textLength="18" x="935.5" y="1245.6563">31</text><text fill="#000000" font-family="sans-serif" font-size="13" lengthAdjust="spacing" textLength="162" x="957.5" y="1245.6563">addEntry(postponedEntry)</text><polygon fill="#181818" points="939.5,1275.709,929.5,1279.709,939.5,1283.709,935.5,1279.709" style="stroke:#181818;stroke-width:1.0;"/><line style="stroke:#181818;stroke-width:1.0;stroke-dasharray:2.0,2.0;" x1="933.5" x2="1394.5" y1="1279.709" y2="1279.709"/><text fill="#000000" font-family="sans-serif" font-size="13" font-weight="bold" lengthAdjust="spacing" textLength="18" x="945.5" y="1274.9668">32</text><text fill="#000000" font-family="sans-serif" font-size="13" lengthAdjust="spacing" textLength="99" x="967.5" y="1274.9668">postponedEntry</text><polygon fill="#181818" points="451.5,1305.0195,441.5,1309.0195,451.5,1313.0195,447.5,1309.0195" style="stroke:#181818;stroke-width:1.0;"/><line style="stroke:#181818;stroke-width:1.0;stroke-dasharray:2.0,2.0;" x1="445.5" x2="922.5" y1="1309.0195" y2="1309.0195"/><text fill="#000000" font-family="sans-serif" font-size="13" font-weight="bold" lengthAdjust="spacing" textLength="18" x="457.5" y="1304.2773">33</text><text fill="#000000" font-family="sans-serif" font-size="13" lengthAdjust="spacing" textLength="99" x="479.5" y="1304.2773">postponedEntry</text><polygon fill="#181818" points="93.5,1334.3301,83.5,1338.3301,93.5,1342.3301,89.5,1338.3301" style="stroke:#181818;stroke-width:1.0;"/><line style="stroke:#181818;stroke-width:1.0;stroke-dasharray:2.0,2.0;" x1="87.5" x2="434.5" y1="1338.3301" y2="1338.3301"/><text fill="#000000" font-family="sans-serif" font-size="13" font-weight="bold" lengthAdjust="spacing" textLength="18" x="99.5" y="1333.5879">34</text><text fill="#000000" font-family="sans-serif" font-size="13" lengthAdjust="spacing" textLength="231" x="121.5" y="1333.5879">Displays operation success message</text><!--SRC=[hLTBRjmm3Dtx5CHicXH93Z102qppQnPfWpZP5IWKcsCByKYk9BUPA_KQlLWf-Il_ncdZnM1iauzFZnH5wsSkSgRO3dPIo2XLSeTWL861RjxaB7fc2OPcdo4eZ0mJITOrq2cBvIyk4jYoJ6CGiC98KUoUK0N1kvJ725ifpPDy2LXaf8BLjK8K418omYqJXAvMm3HSXxS1OHeUyPm90wlrdTGcbm8t2OgONGgZzeytplRnvh3fkQHVcMKLVDJSzbplCPUQ4pMEsbbgRjT8g_0DLSVkcnYwqNlVWJakZTsUd3QzHywnRzT3AKoAWkwPuLBuQ1El7EhcyU7pz_lBkwy-NA5HXQWrEH32OtjNwXhUVmylm_3cwnVV3NTv9lU8v0ENrN_dSNjztzFJYU_UeVqN186GXeg79wa1kNLv1hfEuI55i7o0amYPGXRl8PD9WZ5m0So0IUcDDfYVLHx-Ya7ZZm85rH6PuKkUCIwShxDcxMjyYL3bvYmWeS6owNDgKrx62UjxGdQFY0ynxVXJCVEVZ33iSfo9lUW6JZzIUS9wevyr60bvLPd0H2a8R6cZqT8GocfelHjCAk_ceRq8Zr3R2dx_7jOGaM2MoPmXcILeR4QeIgyeRXaoD3PZ8h5FZg92AI9sGM0d93OpXVwmkikO82rNnnvyGx2pcJm3UtMY4vT6sPBAZQ08b9AZuu5V0zucOs1ZhnRnr5lh6hexTE0Quv80i-JhmhUoLRk6rZ70y4kh8zNOQkmkeEhTeKbbxDNng3dLOOo6ySpj455NzhXGTVd7d2NKgyy6Lcqv_qiofX91OjNj8dYJD51UomJqs-TS5TbsF2gBHUjNpg05pz0U1VO9z-7UU1jwwnnG7rtqWD4WPTl250ehZhDv6qQSbQFgXxq04zXJZSKsDWAo_NKDOIf_QTT1iKGZDtA933L_TsgqhJKOYT7jhfs67QA5q61xDUrRYv9nRJ5nJ9J9PktJNSCTPJStBT-zHMVjkH0xJMadfhBehVemQJXFfTHOeY-1d3rZAigblXehIGcDEJHb6uesRfRQShLpX_3h6PVEsk7Ea3jqiDMhTVF6WxGRvwZcx9wTD4kmxpwJ52T-4HxFzBtb9nnDGBQwUMPGNNNXF-qT9o_aaDFnn8QjYTW1QzJ2NZRs_4w-ShmmBicC8tMIvg8jMl3_o-zJMwJ3l10rjPyiutOBV97dH9ezISMeJstA2VE2Q_hqI37kiVqcteHlRm2mhAVCTaNCL3Mc_laj8awxx8dn5vePwTCA2lguoZDk8BoOX9W-m7l2b8rdhT64xcZffsfLVq3PisOIh4b6DTd3pEK7ZhAwLFp8Cy5ApzCogpJk4eAel2PzEfNyQegaZIlYRY2_XfShywgeLKRyk3D7_wH8dLrPwVG6Gessc2LX-brbAi31qOd5PPWZF-gIR2mRZfOFIVyWxt8AOqFJeO0BHgV- -6GROCRsDEZagAhlw2AAw7k6laAq9hwpHthdrdxw_WK0]--></g></svg>