<?xml version="1.0" encoding="us-ascii" standalone="no"?><svg xmlns="http://www.w3.org/2000/svg" xmlns:xlink="http://www.w3.org/1999/xlink" contentStyleType="text/css" height="771px" preserveAspectRatio="none" style="width:1291px;height:771px;background:#FFFFFF;" version="1.1" viewBox="0 0 1291 771" width="1291.2px" zoomAndPan="magnify"><defs/><g><rect fill="#FFFFFF" height="657.1734" style="stroke:#181818;stroke-width:0.6;" width="6" x="46.5" y="54.893"/><rect fill="#FFFFFF" height="257.9016" style="stroke:#181818;stroke-width:0.6;" width="6" x="258.3" y="137.6109"/><rect fill="#FFFFFF" height="17.5863" style="stroke:#181818;stroke-width:0.6;" width="6" x="258.3" y="413.0988"/><rect fill="#FFFFFF" height="17.5863" style="stroke:#181818;stroke-width:0.6;" width="6" x="258.3" y="448.2715"/><rect fill="#FFFFFF" height="228.6223" style="stroke:#181818;stroke-width:0.6;" width="6" x="258.3" y="483.4441"/><rect fill="#FFFFFF" height="197.8359" style="stroke:#181818;stroke-width:0.6;" width="6" x="551.1" y="180.0902"/><rect fill="#FFFFFF" height="193.4496" style="stroke:#181818;stroke-width:0.6;" width="6" x="551.1" y="501.0305"/><rect fill="#FFFFFF" height="17.5863" style="stroke:#181818;stroke-width:0.6;" width="6" x="677.1" y="197.6766"/><rect fill="#FFFFFF" height="57.1453" style="stroke:#181818;stroke-width:0.6;" width="6" x="677.1" y="232.8492"/><rect fill="#FFFFFF" height="17.5863" style="stroke:#181818;stroke-width:0.6;" width="6" x="744.9" y="307.5809"/><rect fill="#FFFFFF" height="17.5863" style="stroke:#181818;stroke-width:0.6;" width="6" x="834.3" y="342.7535"/><rect fill="#FFFFFF" height="17.5863" style="stroke:#181818;stroke-width:0.6;" width="6" x="834.3" y="659.3074"/><rect fill="#FFFFFF" height="123.1043" style="stroke:#181818;stroke-width:0.6;" width="6" x="1097.7" y="518.6168"/><rect fill="#FFFFFF" height="35.1727" style="stroke:#181818;stroke-width:0.6;" width="6" x="1268.7" y="536.2031"/><rect fill="#FFFFFF" height="35.1727" style="stroke:#181818;stroke-width:0.6;" width="6" x="1268.7" y="588.9621"/><line style="stroke:#181818;stroke-width:0.3;stroke-dasharray:5.0,5.0;" x1="49.2" x2="49.2" y1="48.893" y2="722.8664"/><line style="stroke:#181818;stroke-width:0.3;stroke-dasharray:5.0,5.0;" x1="261.3" x2="261.3" y1="48.893" y2="722.8664"/><line style="stroke:#181818;stroke-width:0.3;stroke-dasharray:5.0,5.0;" x1="554.1" x2="554.1" y1="160.8574" y2="722.8664"/><line style="stroke:#181818;stroke-width:0.3;stroke-dasharray:5.0,5.0;" x1="679.8" x2="679.8" y1="48.893" y2="722.8664"/><line style="stroke:#181818;stroke-width:0.3;stroke-dasharray:5.0,5.0;" x1="747.6" x2="747.6" y1="48.893" y2="722.8664"/><line style="stroke:#181818;stroke-width:0.3;stroke-dasharray:5.0,5.0;" x1="837.3" x2="837.3" y1="48.893" y2="722.8664"/><line style="stroke:#181818;stroke-width:0.3;stroke-dasharray:5.0,5.0;" x1="944.1" x2="944.1" y1="48.893" y2="722.8664"/><line style="stroke:#181818;stroke-width:0.3;stroke-dasharray:5.0,5.0;" x1="1037.7" x2="1037.7" y1="48.893" y2="722.8664"/><line style="stroke:#181818;stroke-width:0.3;stroke-dasharray:5.0,5.0;" x1="1100.7" x2="1100.7" y1="48.893" y2="722.8664"/><line style="stroke:#181818;stroke-width:0.3;stroke-dasharray:5.0,5.0;" x1="1271.4" x2="1271.4" y1="48.893" y2="722.8664"/><text fill="#000000" font-family="sans-serif" font-size="8.4" lengthAdjust="spacing" textLength="89.4" x="3" y="47.1211">Green Space Manager</text><ellipse cx="49.5" cy="8.1" fill="#E3E3E3" rx="4.8" ry="4.8" style="stroke:#181818;stroke-width:0.3;"/><path d="M49.5,12.9 L49.5,29.1 M41.7,17.7 L57.3,17.7 M49.5,29.1 L41.7,38.1 M49.5,29.1 L57.3,38.1 " fill="none" style="stroke:#181818;stroke-width:0.3;"/><text fill="#000000" font-family="sans-serif" font-size="8.4" lengthAdjust="spacing" textLength="89.4" x="3" y="730.3875">Green Space Manager</text><ellipse cx="49.5" cy="737.2594" fill="#E3E3E3" rx="4.8" ry="4.8" style="stroke:#181818;stroke-width:0.3;"/><path d="M49.5,742.0594 L49.5,758.2594 M41.7,746.8594 L57.3,746.8594 M49.5,758.2594 L41.7,767.2594 M49.5,758.2594 L57.3,767.2594 " fill="none" style="stroke:#181818;stroke-width:0.3;"/><rect fill="#E3E3E3" height="18.293" rx="1.5" ry="1.5" style="stroke:#181818;stroke-width:0.3;" width="110.4" x="206.1" y="30"/><text fill="#000000" font-family="sans-serif" font-size="8.4" lengthAdjust="spacing" textLength="102" x="210.3" y="42.3211">:PostponeAgendaEntryUI</text><rect fill="#E3E3E3" height="18.293" rx="1.5" ry="1.5" style="stroke:#181818;stroke-width:0.3;" width="110.4" x="206.1" y="722.2664"/><text fill="#000000" font-family="sans-serif" font-size="8.4" lengthAdjust="spacing" textLength="102" x="210.3" y="734.5875">:PostponeAgendaEntryUI</text><rect fill="#E3E3E3" height="18.293" rx="1.5" ry="1.5" style="stroke:#181818;stroke-width:0.3;" width="144" x="482.1" y="722.2664"/><text fill="#000000" font-family="sans-serif" font-size="8.4" lengthAdjust="spacing" textLength="135.6" x="486.3" y="734.5875">:PostponeAgendaEntryController</text><rect fill="#E3E3E3" height="18.293" rx="1.5" ry="1.5" style="stroke:#181818;stroke-width:0.3;" width="61.8" x="649.2" y="30"/><text fill="#000000" font-family="sans-serif" font-size="8.4" lengthAdjust="spacing" textLength="53.4" x="653.4" y="42.3211">:Repositories</text><rect fill="#E3E3E3" height="18.293" rx="1.5" ry="1.5" style="stroke:#181818;stroke-width:0.3;" width="61.8" x="649.2" y="722.2664"/><text fill="#000000" font-family="sans-serif" font-size="8.4" lengthAdjust="spacing" textLength="53.4" x="653.4" y="734.5875">:Repositories</text><rect fill="#E3E3E3" height="28.1859" rx="1.5" ry="1.5" style="stroke:#181818;stroke-width:0.3;" width="61.8" x="717" y="20.107"/><text fill="#000000" font-family="sans-serif" font-size="8.4" lengthAdjust="spacing" textLength="49.2" x="723.3" y="32.4281">repositories</text><text fill="#000000" font-family="sans-serif" font-size="8.4" lengthAdjust="spacing" textLength="53.4" x="721.2" y="42.3211">:Repositories</text><rect fill="#E3E3E3" height="28.1859" rx="1.5" ry="1.5" style="stroke:#181818;stroke-width:0.3;" width="61.8" x="717" y="722.2664"/><text fill="#000000" font-family="sans-serif" font-size="8.4" lengthAdjust="spacing" textLength="49.2" x="723.3" y="734.5875">repositories</text><text fill="#000000" font-family="sans-serif" font-size="8.4" lengthAdjust="spacing" textLength="53.4" x="721.2" y="744.4805">:Repositories</text><rect fill="#E3E3E3" height="28.1859" rx="1.5" ry="1.5" style="stroke:#181818;stroke-width:0.3;" width="86.4" x="794.1" y="20.107"/><text fill="#000000" font-family="sans-serif" font-size="8.4" lengthAdjust="spacing" textLength="74.4" x="800.1" y="32.4281">agendaRepository</text><text fill="#000000" font-family="sans-serif" font-size="8.4" lengthAdjust="spacing" textLength="78" x="798.3" y="42.3211">:AgendaRepository</text><rect fill="#E3E3E3" height="28.1859" rx="1.5" ry="1.5" style="stroke:#181818;stroke-width:0.3;" width="86.4" x="794.1" y="722.2664"/><text fill="#000000" font-family="sans-serif" font-size="8.4" lengthAdjust="spacing" textLength="74.4" x="800.1" y="734.5875">agendaRepository</text><text fill="#000000" font-family="sans-serif" font-size="8.4" lengthAdjust="spacing" textLength="78" x="798.3" y="744.4805">:AgendaRepository</text><rect fill="#E3E3E3" height="28.1859" rx="1.5" ry="1.5" style="stroke:#181818;stroke-width:0.3;" width="115.2" x="886.5" y="20.107"/><text fill="#000000" font-family="sans-serif" font-size="8.4" lengthAdjust="spacing" textLength="103.2" x="892.5" y="32.4281">authenticationRepository</text><text fill="#000000" font-family="sans-serif" font-size="8.4" lengthAdjust="spacing" textLength="106.8" x="890.7" y="42.3211">:AuthenticationRepository</text><rect fill="#E3E3E3" height="28.1859" rx="1.5" ry="1.5" style="stroke:#181818;stroke-width:0.3;" width="115.2" x="886.5" y="722.2664"/><text fill="#000000" font-family="sans-serif" font-size="8.4" lengthAdjust="spacing" textLength="103.2" x="892.5" y="734.5875">authenticationRepository</text><text fill="#000000" font-family="sans-serif" font-size="8.4" lengthAdjust="spacing" textLength="106.8" x="890.7" y="744.4805">:AuthenticationRepository</text><rect fill="#E3E3E3" height="28.1859" rx="1.5" ry="1.5" style="stroke:#181818;stroke-width:0.3;" width="60.6" x="1007.7" y="20.107"/><text fill="#000000" font-family="sans-serif" font-size="8.4" lengthAdjust="spacing" textLength="49.2" x="1013.4" y="32.4281">userSession</text><text fill="#000000" font-family="sans-serif" font-size="8.4" lengthAdjust="spacing" textLength="52.2" x="1011.9" y="42.3211">:UserSession</text><rect fill="#E3E3E3" height="28.1859" rx="1.5" ry="1.5" style="stroke:#181818;stroke-width:0.3;" width="60.6" x="1007.7" y="722.2664"/><text fill="#000000" font-family="sans-serif" font-size="8.4" lengthAdjust="spacing" textLength="49.2" x="1013.4" y="734.5875">userSession</text><text fill="#000000" font-family="sans-serif" font-size="8.4" lengthAdjust="spacing" textLength="52.2" x="1011.9" y="744.4805">:UserSession</text><rect fill="#E3E3E3" height="28.1859" rx="1.5" ry="1.5" style="stroke:#181818;stroke-width:0.3;" width="52.8" x="1074.3" y="20.107"/><text fill="#000000" font-family="sans-serif" font-size="8.4" lengthAdjust="spacing" textLength="39.6" x="1080.9" y="32.4281">employee</text><text fill="#000000" font-family="sans-serif" font-size="8.4" lengthAdjust="spacing" textLength="44.4" x="1078.5" y="42.3211">: Employee</text><rect fill="#E3E3E3" height="28.1859" rx="1.5" ry="1.5" style="stroke:#181818;stroke-width:0.3;" width="52.8" x="1074.3" y="722.2664"/><text fill="#000000" font-family="sans-serif" font-size="8.4" lengthAdjust="spacing" textLength="39.6" x="1080.9" y="734.5875">employee</text><text fill="#000000" font-family="sans-serif" font-size="8.4" lengthAdjust="spacing" textLength="44.4" x="1078.5" y="744.4805">: Employee</text><rect fill="#E3E3E3" height="18.293" rx="1.5" ry="1.5" style="stroke:#181818;stroke-width:0.3;" width="31.8" x="1255.8" y="30"/><text fill="#000000" font-family="sans-serif" font-size="8.4" lengthAdjust="spacing" textLength="23.4" x="1260" y="42.3211">:Entry</text><rect fill="#E3E3E3" height="18.293" rx="1.5" ry="1.5" style="stroke:#181818;stroke-width:0.3;" width="31.8" x="1255.8" y="722.2664"/><text fill="#000000" font-family="sans-serif" font-size="8.4" lengthAdjust="spacing" textLength="23.4" x="1260" y="734.5875">:Entry</text><rect fill="#FFFFFF" height="657.1734" style="stroke:#181818;stroke-width:0.6;" width="6" x="46.5" y="54.893"/><rect fill="#FFFFFF" height="257.9016" style="stroke:#181818;stroke-width:0.6;" width="6" x="258.3" y="137.6109"/><rect fill="#FFFFFF" height="17.5863" style="stroke:#181818;stroke-width:0.6;" width="6" x="258.3" y="413.0988"/><rect fill="#FFFFFF" height="17.5863" style="stroke:#181818;stroke-width:0.6;" width="6" x="258.3" y="448.2715"/><rect fill="#FFFFFF" height="228.6223" style="stroke:#181818;stroke-width:0.6;" width="6" x="258.3" y="483.4441"/><rect fill="#FFFFFF" height="197.8359" style="stroke:#181818;stroke-width:0.6;" width="6" x="551.1" y="180.0902"/><rect fill="#FFFFFF" height="193.4496" style="stroke:#181818;stroke-width:0.6;" width="6" x="551.1" y="501.0305"/><rect fill="#FFFFFF" height="17.5863" style="stroke:#181818;stroke-width:0.6;" width="6" x="677.1" y="197.6766"/><rect fill="#FFFFFF" height="57.1453" style="stroke:#181818;stroke-width:0.6;" width="6" x="677.1" y="232.8492"/><rect fill="#FFFFFF" height="17.5863" style="stroke:#181818;stroke-width:0.6;" width="6" x="744.9" y="307.5809"/><rect fill="#FFFFFF" height="17.5863" style="stroke:#181818;stroke-width:0.6;" width="6" x="834.3" y="342.7535"/><rect fill="#FFFFFF" height="17.5863" style="stroke:#181818;stroke-width:0.6;" width="6" x="834.3" y="659.3074"/><rect fill="#FFFFFF" height="123.1043" style="stroke:#181818;stroke-width:0.6;" width="6" x="1097.7" y="518.6168"/><rect fill="#FFFFFF" height="35.1727" style="stroke:#181818;stroke-width:0.6;" width="6" x="1268.7" y="536.2031"/><rect fill="#FFFFFF" height="35.1727" style="stroke:#181818;stroke-width:0.6;" width="6" x="1268.7" y="588.9621"/><path d="M55.2,57.893 L55.2,90.893 L231,90.893 L231,63.893 L225,57.893 L55.2,57.893 " fill="#FAFAFA" style="stroke:#181818;stroke-width:0.3;"/><path d="M225,57.893 L225,63.893 L231,63.893 L225,57.893 " fill="#FAFAFA" style="stroke:#181818;stroke-width:0.3;"/><text fill="#000000" font-family="sans-serif" font-size="7.8" lengthAdjust="spacing" textLength="163.2" x="58.8" y="68.434">- The user is already logged in at this step.</text><text fill="#000000" font-family="sans-serif" font-size="7.8" lengthAdjust="spacing" textLength="158.4" x="58.8" y="77.6203">- Authentication sequence is explained in</text><text fill="#000000" font-family="sans-serif" font-size="7.8" lengthAdjust="spacing" textLength="75" x="58.8" y="86.8066">a sequence excerpt.</text><path d="M682.8,97.452 L682.8,121.452 L747,121.452 L747,103.452 L741,97.452 L682.8,97.452 " fill="#FAFAFA" style="stroke:#181818;stroke-width:0.3;"/><path d="M741,97.452 L741,103.452 L747,103.452 L741,97.452 " fill="#FAFAFA" style="stroke:#181818;stroke-width:0.3;"/><text fill="#000000" font-family="sans-serif" font-size="7.8" lengthAdjust="spacing" textLength="51.6" x="686.4" y="107.993">- Singleton is</text><text fill="#000000" font-family="sans-serif" font-size="7.8" lengthAdjust="spacing" textLength="22.8" x="686.4" y="117.1793">in use</text><polygon fill="#181818" points="251.1,135.2109,257.1,137.6109,251.1,140.0109,253.5,137.6109" style="stroke:#181818;stroke-width:0.6;"/><line style="stroke:#181818;stroke-width:0.6;" x1="52.5" x2="254.7" y1="137.6109" y2="137.6109"/><text fill="#000000" font-family="sans-serif" font-size="7.8" font-weight="bold" lengthAdjust="spacing" textLength="5.4" x="56.7" y="134.7656">1</text><text fill="#000000" font-family="sans-serif" font-size="7.8" lengthAdjust="spacing" textLength="165" x="64.5" y="134.7656">Asks to postpone an entry from the Agenda</text><polygon fill="#181818" points="474.9,152.7973,480.9,155.1973,474.9,157.5973,477.3,155.1973" style="stroke:#181818;stroke-width:0.6;"/><line style="stroke:#181818;stroke-width:0.6;" x1="264.3" x2="478.5" y1="155.1973" y2="155.1973"/><text fill="#000000" font-family="sans-serif" font-size="7.8" font-weight="bold" lengthAdjust="spacing" textLength="5.4" x="268.5" y="152.352">2</text><text fill="#000000" font-family="sans-serif" font-size="7.8" lengthAdjust="spacing" textLength="22.8" x="276.3" y="152.352">create</text><rect fill="#E3E3E3" height="18.293" rx="1.5" ry="1.5" style="stroke:#181818;stroke-width:0.3;" width="144" x="482.1" y="142.4109"/><text fill="#000000" font-family="sans-serif" font-size="8.4" lengthAdjust="spacing" textLength="135.6" x="486.3" y="154.732">:PostponeAgendaEntryController</text><polygon fill="#181818" points="543.9,177.6902,549.9,180.0902,543.9,182.4902,546.3,180.0902" style="stroke:#181818;stroke-width:0.6;"/><line style="stroke:#181818;stroke-width:0.6;" x1="264.3" x2="547.5" y1="180.0902" y2="180.0902"/><text fill="#000000" font-family="sans-serif" font-size="7.8" font-weight="bold" lengthAdjust="spacing" textLength="5.4" x="268.5" y="177.2449">3</text><text fill="#000000" font-family="sans-serif" font-size="7.8" lengthAdjust="spacing" textLength="252.6" x="276.3" y="177.2449">getEntriesFromAgendaStartingFrom(currentDate, status="Planned")</text><polygon fill="#181818" points="669.9,195.2766,675.9,197.6766,669.9,200.0766,672.3,197.6766" style="stroke:#181818;stroke-width:0.6;"/><line style="stroke:#181818;stroke-width:0.6;" x1="557.1" x2="673.5" y1="197.6766" y2="197.6766"/><text fill="#000000" font-family="sans-serif" font-size="7.8" font-weight="bold" lengthAdjust="spacing" textLength="5.4" x="561.3" y="194.8312">4</text><text fill="#000000" font-family="sans-serif" font-size="7.8" lengthAdjust="spacing" textLength="48.6" x="569.1" y="194.8312">getInstance()</text><polygon fill="#181818" points="563.7,212.8629,557.7,215.2629,563.7,217.6629,561.3,215.2629" style="stroke:#181818;stroke-width:0.6;"/><line style="stroke:#181818;stroke-width:0.6;stroke-dasharray:2.0,2.0;" x1="560.1" x2="679.5" y1="215.2629" y2="215.2629"/><text fill="#000000" font-family="sans-serif" font-size="7.8" font-weight="bold" lengthAdjust="spacing" textLength="5.4" x="567.3" y="212.4176">5</text><text fill="#000000" font-family="sans-serif" font-size="7.8" lengthAdjust="spacing" textLength="45" x="575.1" y="212.4176">repositories</text><polygon fill="#181818" points="669.9,230.4492,675.9,232.8492,669.9,235.2492,672.3,232.8492" style="stroke:#181818;stroke-width:0.6;"/><line style="stroke:#181818;stroke-width:0.6;" x1="557.1" x2="673.5" y1="232.8492" y2="232.8492"/><text fill="#000000" font-family="sans-serif" font-size="7.8" font-weight="bold" lengthAdjust="spacing" textLength="5.4" x="561.3" y="230.0039">6</text><text fill="#000000" font-family="sans-serif" font-size="7.8" lengthAdjust="spacing" textLength="100.8" x="569.1" y="230.0039">getEmployeeFromSession()</text><path d="M559.8,240.6492 L559.8,273.6492 L675,273.6492 L675,246.6492 L669,240.6492 L559.8,240.6492 " fill="#FAFAFA" style="stroke:#181818;stroke-width:0.3;"/><path d="M669,240.6492 L669,246.6492 L675,246.6492 L669,240.6492 " fill="#FAFAFA" style="stroke:#181818;stroke-width:0.3;"/><text fill="#000000" font-family="sans-serif" font-size="7.8" lengthAdjust="spacing" textLength="102.6" x="563.4" y="251.1902">- This method is explained</text><text fill="#000000" font-family="sans-serif" font-size="7.8" lengthAdjust="spacing" textLength="82.2" x="563.4" y="260.3766">in detail in an excerpt</text><text fill="#000000" font-family="sans-serif" font-size="7.8" lengthAdjust="spacing" textLength="70.8" x="563.4" y="269.5629">sequence diagram.</text><polygon fill="#181818" points="563.7,287.5945,557.7,289.9945,563.7,292.3945,561.3,289.9945" style="stroke:#181818;stroke-width:0.6;"/><line style="stroke:#181818;stroke-width:0.6;stroke-dasharray:2.0,2.0;" x1="560.1" x2="679.5" y1="289.9945" y2="289.9945"/><text fill="#000000" font-family="sans-serif" font-size="7.8" font-weight="bold" lengthAdjust="spacing" textLength="5.4" x="567.3" y="287.1492">7</text><text fill="#000000" font-family="sans-serif" font-size="7.8" lengthAdjust="spacing" textLength="36" x="575.1" y="287.1492">employee</text><polygon fill="#181818" points="737.7,305.1809,743.7,307.5809,737.7,309.9809,740.1,307.5809" style="stroke:#181818;stroke-width:0.6;"/><line style="stroke:#181818;stroke-width:0.6;" x1="557.1" x2="741.3" y1="307.5809" y2="307.5809"/><text fill="#000000" font-family="sans-serif" font-size="7.8" font-weight="bold" lengthAdjust="spacing" textLength="5.4" x="561.3" y="304.7355">8</text><text fill="#000000" font-family="sans-serif" font-size="7.8" lengthAdjust="spacing" textLength="85.2" x="569.1" y="304.7355">getAgendaRepository()</text><polygon fill="#181818" points="563.7,322.7672,557.7,325.1672,563.7,327.5672,561.3,325.1672" style="stroke:#181818;stroke-width:0.6;"/><line style="stroke:#181818;stroke-width:0.6;stroke-dasharray:2.0,2.0;" x1="560.1" x2="747.3" y1="325.1672" y2="325.1672"/><text fill="#000000" font-family="sans-serif" font-size="7.8" font-weight="bold" lengthAdjust="spacing" textLength="5.4" x="567.3" y="322.3219">9</text><text fill="#000000" font-family="sans-serif" font-size="7.8" lengthAdjust="spacing" textLength="67.2" x="575.1" y="322.3219">agendaRepository</text><polygon fill="#181818" points="827.1,340.3535,833.1,342.7535,827.1,345.1535,829.5,342.7535" style="stroke:#181818;stroke-width:0.6;"/><line style="stroke:#181818;stroke-width:0.6;" x1="557.1" x2="830.7" y1="342.7535" y2="342.7535"/><text fill="#000000" font-family="sans-serif" font-size="7.8" font-weight="bold" lengthAdjust="spacing" textLength="10.8" x="561.3" y="339.9082">10</text><text fill="#000000" font-family="sans-serif" font-size="7.8" lengthAdjust="spacing" textLength="252.6" x="574.5" y="339.9082">getEntriesFromAgendaStartingFrom(currentDate, status="Planned")</text><polygon fill="#181818" points="563.7,357.9398,557.7,360.3398,563.7,362.7398,561.3,360.3398" style="stroke:#181818;stroke-width:0.6;"/><line style="stroke:#181818;stroke-width:0.6;stroke-dasharray:2.0,2.0;" x1="560.1" x2="836.7" y1="360.3398" y2="360.3398"/><text fill="#000000" font-family="sans-serif" font-size="7.8" font-weight="bold" lengthAdjust="spacing" textLength="10.8" x="567.3" y="357.4945">11</text><text fill="#000000" font-family="sans-serif" font-size="7.8" lengthAdjust="spacing" textLength="48.6" x="580.5" y="357.4945">futureEntries</text><polygon fill="#181818" points="270.9,375.5262,264.9,377.9262,270.9,380.3262,268.5,377.9262" style="stroke:#181818;stroke-width:0.6;"/><line style="stroke:#181818;stroke-width:0.6;stroke-dasharray:2.0,2.0;" x1="267.3" x2="553.5" y1="377.9262" y2="377.9262"/><text fill="#000000" font-family="sans-serif" font-size="7.8" font-weight="bold" lengthAdjust="spacing" textLength="10.8" x="274.5" y="375.0809">12</text><text fill="#000000" font-family="sans-serif" font-size="7.8" lengthAdjust="spacing" textLength="48.6" x="287.7" y="375.0809">futureEntries</text><polygon fill="#181818" points="59.1,393.1125,53.1,395.5125,59.1,397.9125,56.7,395.5125" style="stroke:#181818;stroke-width:0.6;"/><line style="stroke:#181818;stroke-width:0.6;stroke-dasharray:2.0,2.0;" x1="55.5" x2="260.7" y1="395.5125" y2="395.5125"/><text fill="#000000" font-family="sans-serif" font-size="7.8" font-weight="bold" lengthAdjust="spacing" textLength="10.8" x="62.7" y="392.6672">13</text><text fill="#000000" font-family="sans-serif" font-size="7.8" lengthAdjust="spacing" textLength="157.8" x="75.9" y="392.6672">Shows the entries collected at the Agenda</text><polygon fill="#181818" points="251.1,410.6988,257.1,413.0988,251.1,415.4988,253.5,413.0988" style="stroke:#181818;stroke-width:0.6;"/><line style="stroke:#181818;stroke-width:0.6;" x1="52.5" x2="254.7" y1="413.0988" y2="413.0988"/><text fill="#000000" font-family="sans-serif" font-size="7.8" font-weight="bold" lengthAdjust="spacing" textLength="10.8" x="56.7" y="410.2535">14</text><text fill="#000000" font-family="sans-serif" font-size="7.8" lengthAdjust="spacing" textLength="118.8" x="69.9" y="410.2535">Selects one of the listed entries</text><polygon fill="#181818" points="59.1,428.2852,53.1,430.6852,59.1,433.0852,56.7,430.6852" style="stroke:#181818;stroke-width:0.6;"/><line style="stroke:#181818;stroke-width:0.6;stroke-dasharray:2.0,2.0;" x1="55.5" x2="260.7" y1="430.6852" y2="430.6852"/><text fill="#000000" font-family="sans-serif" font-size="7.8" font-weight="bold" lengthAdjust="spacing" textLength="10.8" x="62.7" y="427.8398">15</text><text fill="#000000" font-family="sans-serif" font-size="7.8" lengthAdjust="spacing" textLength="176.4" x="75.9" y="427.8398">Prompts the entry of a postpone date and hour</text><polygon fill="#181818" points="251.1,445.8715,257.1,448.2715,251.1,450.6715,253.5,448.2715" style="stroke:#181818;stroke-width:0.6;"/><line style="stroke:#181818;stroke-width:0.6;" x1="52.5" x2="254.7" y1="448.2715" y2="448.2715"/><text fill="#000000" font-family="sans-serif" font-size="7.8" font-weight="bold" lengthAdjust="spacing" textLength="10.8" x="56.7" y="445.4262">16</text><text fill="#000000" font-family="sans-serif" font-size="7.8" lengthAdjust="spacing" textLength="139.2" x="69.9" y="445.4262">Chooses the postpone date and hour</text><polygon fill="#181818" points="59.1,463.4578,53.1,465.8578,59.1,468.2578,56.7,465.8578" style="stroke:#181818;stroke-width:0.6;"/><line style="stroke:#181818;stroke-width:0.6;stroke-dasharray:2.0,2.0;" x1="55.5" x2="260.7" y1="465.8578" y2="465.8578"/><text fill="#000000" font-family="sans-serif" font-size="7.8" font-weight="bold" lengthAdjust="spacing" textLength="10.8" x="62.7" y="463.0125">17</text><text fill="#000000" font-family="sans-serif" font-size="7.8" lengthAdjust="spacing" textLength="178.2" x="75.9" y="463.0125">Shows selected data and requests confirmation</text><polygon fill="#181818" points="251.1,481.0441,257.1,483.4441,251.1,485.8441,253.5,483.4441" style="stroke:#181818;stroke-width:0.6;"/><line style="stroke:#181818;stroke-width:0.6;" x1="52.5" x2="254.7" y1="483.4441" y2="483.4441"/><text fill="#000000" font-family="sans-serif" font-size="7.8" font-weight="bold" lengthAdjust="spacing" textLength="10.8" x="56.7" y="480.5988">18</text><text fill="#000000" font-family="sans-serif" font-size="7.8" lengthAdjust="spacing" textLength="53.4" x="69.9" y="480.5988">Confirms data</text><polygon fill="#181818" points="543.9,498.6305,549.9,501.0305,543.9,503.4305,546.3,501.0305" style="stroke:#181818;stroke-width:0.6;"/><line style="stroke:#181818;stroke-width:0.6;" x1="264.3" x2="547.5" y1="501.0305" y2="501.0305"/><text fill="#000000" font-family="sans-serif" font-size="7.8" font-weight="bold" lengthAdjust="spacing" textLength="10.8" x="268.5" y="498.1852">19</text><text fill="#000000" font-family="sans-serif" font-size="7.8" lengthAdjust="spacing" textLength="262.2" x="281.7" y="498.1852">postponeEntryToDate(selectedEntry, selectedDateHour, futureEntries)</text><polygon fill="#181818" points="1090.5,516.2168,1096.5,518.6168,1090.5,521.0168,1092.9,518.6168" style="stroke:#181818;stroke-width:0.6;"/><line style="stroke:#181818;stroke-width:0.6;" x1="557.1" x2="1094.1" y1="518.6168" y2="518.6168"/><text fill="#000000" font-family="sans-serif" font-size="7.8" font-weight="bold" lengthAdjust="spacing" textLength="10.8" x="561.3" y="515.7715">20</text><text fill="#000000" font-family="sans-serif" font-size="7.8" lengthAdjust="spacing" textLength="316.2" x="574.5" y="515.7715">postponeEntryToDate(selectedEntry, selectedDateHour, futureEntriesFilteredByDate)</text><polygon fill="#181818" points="1261.5,533.8031,1267.5,536.2031,1261.5,538.6031,1263.9,536.2031" style="stroke:#181818;stroke-width:0.6;"/><line style="stroke:#181818;stroke-width:0.6;" x1="1103.7" x2="1265.1" y1="536.2031" y2="536.2031"/><text fill="#000000" font-family="sans-serif" font-size="7.8" font-weight="bold" lengthAdjust="spacing" textLength="10.8" x="1107.9" y="533.3578">21</text><text fill="#000000" font-family="sans-serif" font-size="7.8" lengthAdjust="spacing" textLength="140.4" x="1121.1" y="533.3578">setStatus(selectedEntry, "Postponed")</text><polygon fill="#181818" points="1261.5,551.3895,1267.5,553.7895,1261.5,556.1895,1263.9,553.7895" style="stroke:#181818;stroke-width:0.6;"/><line style="stroke:#181818;stroke-width:0.6;" x1="1103.7" x2="1265.1" y1="553.7895" y2="553.7895"/><text fill="#000000" font-family="sans-serif" font-size="7.8" font-weight="bold" lengthAdjust="spacing" textLength="10.8" x="1107.9" y="550.9441">22</text><text fill="#000000" font-family="sans-serif" font-size="7.8" lengthAdjust="spacing" textLength="94.8" x="1121.1" y="550.9441">cloneEntry(selectedEntry)</text><polygon fill="#181818" points="1110.3,568.9758,1104.3,571.3758,1110.3,573.7758,1107.9,571.3758" style="stroke:#181818;stroke-width:0.6;"/><line style="stroke:#181818;stroke-width:0.6;stroke-dasharray:2.0,2.0;" x1="1106.7" x2="1271.1" y1="571.3758" y2="571.3758"/><text fill="#000000" font-family="sans-serif" font-size="7.8" font-weight="bold" lengthAdjust="spacing" textLength="10.8" x="1113.9" y="568.5305">23</text><text fill="#000000" font-family="sans-serif" font-size="7.8" lengthAdjust="spacing" textLength="49.2" x="1127.1" y="568.5305">clonnedEntry</text><polygon fill="#181818" points="1261.5,586.5621,1267.5,588.9621,1261.5,591.3621,1263.9,588.9621" style="stroke:#181818;stroke-width:0.6;"/><line style="stroke:#181818;stroke-width:0.6;" x1="1103.7" x2="1265.1" y1="588.9621" y2="588.9621"/><text fill="#000000" font-family="sans-serif" font-size="7.8" font-weight="bold" lengthAdjust="spacing" textLength="10.8" x="1107.9" y="586.1168">24</text><text fill="#000000" font-family="sans-serif" font-size="7.8" lengthAdjust="spacing" textLength="136.2" x="1121.1" y="586.1168">setDate(clonnedEntry, selectedDate)</text><polygon fill="#181818" points="1261.5,604.1484,1267.5,606.5484,1261.5,608.9484,1263.9,606.5484" style="stroke:#181818;stroke-width:0.6;"/><line style="stroke:#181818;stroke-width:0.6;" x1="1103.7" x2="1265.1" y1="606.5484" y2="606.5484"/><text fill="#000000" font-family="sans-serif" font-size="7.8" font-weight="bold" lengthAdjust="spacing" textLength="10.8" x="1107.9" y="603.7031">25</text><text fill="#000000" font-family="sans-serif" font-size="7.8" lengthAdjust="spacing" textLength="129" x="1121.1" y="603.7031">setStatus(clonnedEntry, "Planned")</text><polygon fill="#181818" points="1110.3,621.7348,1104.3,624.1348,1110.3,626.5348,1107.9,624.1348" style="stroke:#181818;stroke-width:0.6;"/><line style="stroke:#181818;stroke-width:0.6;stroke-dasharray:2.0,2.0;" x1="1106.7" x2="1271.1" y1="624.1348" y2="624.1348"/><text fill="#000000" font-family="sans-serif" font-size="7.8" font-weight="bold" lengthAdjust="spacing" textLength="10.8" x="1113.9" y="621.2895">26</text><text fill="#000000" font-family="sans-serif" font-size="7.8" lengthAdjust="spacing" textLength="59.4" x="1127.1" y="621.2895">postponedEntry</text><polygon fill="#181818" points="563.7,639.3211,557.7,641.7211,563.7,644.1211,561.3,641.7211" style="stroke:#181818;stroke-width:0.6;"/><line style="stroke:#181818;stroke-width:0.6;stroke-dasharray:2.0,2.0;" x1="560.1" x2="1100.1" y1="641.7211" y2="641.7211"/><text fill="#000000" font-family="sans-serif" font-size="7.8" font-weight="bold" lengthAdjust="spacing" textLength="10.8" x="567.3" y="638.8758">27</text><text fill="#000000" font-family="sans-serif" font-size="7.8" lengthAdjust="spacing" textLength="59.4" x="580.5" y="638.8758">postponedEntry</text><polygon fill="#181818" points="827.1,656.9074,833.1,659.3074,827.1,661.7074,829.5,659.3074" style="stroke:#181818;stroke-width:0.6;"/><line style="stroke:#181818;stroke-width:0.6;" x1="557.1" x2="830.7" y1="659.3074" y2="659.3074"/><text fill="#000000" font-family="sans-serif" font-size="7.8" font-weight="bold" lengthAdjust="spacing" textLength="10.8" x="561.3" y="656.4621">28</text><text fill="#000000" font-family="sans-serif" font-size="7.8" lengthAdjust="spacing" textLength="97.2" x="574.5" y="656.4621">addEntry(postponedEntry)</text><polygon fill="#181818" points="563.7,674.4938,557.7,676.8938,563.7,679.2937,561.3,676.8938" style="stroke:#181818;stroke-width:0.6;"/><line style="stroke:#181818;stroke-width:0.6;stroke-dasharray:2.0,2.0;" x1="560.1" x2="836.7" y1="676.8938" y2="676.8938"/><text fill="#000000" font-family="sans-serif" font-size="7.8" font-weight="bold" lengthAdjust="spacing" textLength="10.8" x="567.3" y="674.0484">29</text><text fill="#000000" font-family="sans-serif" font-size="7.8" lengthAdjust="spacing" textLength="59.4" x="580.5" y="674.0484">postponedEntry</text><polygon fill="#181818" points="270.9,692.0801,264.9,694.4801,270.9,696.8801,268.5,694.4801" style="stroke:#181818;stroke-width:0.6;"/><line style="stroke:#181818;stroke-width:0.6;stroke-dasharray:2.0,2.0;" x1="267.3" x2="553.5" y1="694.4801" y2="694.4801"/><text fill="#000000" font-family="sans-serif" font-size="7.8" font-weight="bold" lengthAdjust="spacing" textLength="10.8" x="274.5" y="691.6348">30</text><text fill="#000000" font-family="sans-serif" font-size="7.8" lengthAdjust="spacing" textLength="59.4" x="287.7" y="691.6348">postponedEntry</text><polygon fill="#181818" points="56.1,709.6664,50.1,712.0664,56.1,714.4664,53.7,712.0664" style="stroke:#181818;stroke-width:0.6;"/><line style="stroke:#181818;stroke-width:0.6;stroke-dasharray:2.0,2.0;" x1="52.5" x2="260.7" y1="712.0664" y2="712.0664"/><text fill="#000000" font-family="sans-serif" font-size="7.8" font-weight="bold" lengthAdjust="spacing" textLength="10.8" x="59.7" y="709.2211">31</text><text fill="#000000" font-family="sans-serif" font-size="7.8" lengthAdjust="spacing" textLength="138.6" x="72.9" y="709.2211">Displays operation success message</text><!--SRC=[hLVRRjmu37ttLn3pqgH8yW43x0BPDatpa3Q8axS52jNcs48yaYl9sypVBobVvTjCYkWXY2poyEYGeZJsHQfI6B67lLOwoOtU8pXJOMIxbL8aBoB3s1qA18E94oehXWOs5wd-BLK6Er5OZ29HEQsg_KyqKVGXbod2JcltKxz68d7QmERM82g82HdXNYX2DniG5cxZ-uWmdKnaAPI3pVP1MrTgXTSPgbJSA6SEptVUzldkkEadJNzrKJJmIJSTkJvYgQqaQXAjjxIIzqYx20tDmEvVDNMZzT11U2wTtO6ShaUVlEFOReHIkHmLpOMJMeLe2qiUzVhvwUkFnvk7xo5SPT74Q2qv4C9pFwjrZHz_n3TnVFVzM-Y6-xBG1qJoWPlcV-znV_iuqjEBxzUG_ukYI6b7nIEpt87U-Jm3ZKjuoX6O3qWIeJ0eqWCKEiim1Qb0E70vhLY7vLNZ4UuOBFwgK54TaHc-beMGoljwQz4lusk2fdHN4GaDp6RCgKzv7ITkvuJiFn4VOZhmfsAM_md2uEru4nuqWSk_gJnXUsrVB3WDPLEP85Gj2EpeeD7M4EfgwBqxJ2hlxYCFmYFKle8_VeGj92GOCrap9BCC7MU4glGBnQr3neupfZB-SfPKnX2npmHsGM8BLzc_DW-5KAJbvZo0xmWE3bDWm6CGdRXqojPKxXH5e9ISdK_yEl0-6HCR7ZtYPR3NBGnFwCGrnLC2h99l2vzbQquDxME24PRMGAgvtV0feEhTeyjr6jJnh3dLOOfEoCAV4DLMzhnGRVcdKcJKgwycLdqv_qaobX91OhNj8dgND51UwmICs-TQ5N4xdfM5qSQLCsd1AxHdWKF2OxXtFeR1FYVKPpSzOJH9sQvobS66ushUfX5NvMZwuIZ00lPIO-76Ha3SNxSGv_gtzHqKQpHo8vV4KVFtjqRVMgEP6CFkEcZOCJA41UxLT6uPfP2MCN5EbCLc7TBTmWDbjtGztmEZY_vUIBscT19pNOrsVPmqVCgrjbYZdmAvUiSqb6jzBJQI4fhmQ8ORYdN-BRMJPkyluRSphfsjnrqXT-nYQtVhtnjFcW_EMSlPVxleji1hNqcAYx08prVwth0GZnrtUWEz2vylid1eCFtdm0Rd2oUvPSWlhraB7ao9cDNrjhNeOjzHneGsxRkPMymYM1UoUT31oWW39qKhI1Xv9LZjULdBIgySGb2DrwBFeEhUJ96qyQaQ1WepTReoRuhQP2ICkzBn5qKQr5wZqpi8vUak7RcrC8CGgnLwzCOKQHtcB8nwIZPEknDFlnl_GDxJASpTbSS2dd1ZZc_DpzBIm_90zrk9fldvL2K9FMFfyMajyLtjv8Cf_-Bv7m00]--></g></svg>