<?xml version="1.0" encoding="us-ascii" standalone="no"?><svg xmlns="http://www.w3.org/2000/svg" xmlns:xlink="http://www.w3.org/1999/xlink" contentStyleType="text/css" height="662px" preserveAspectRatio="none" style="width:739px;height:662px;background:#FFFFFF;" version="1.1" viewBox="0 0 739 662" width="739px" zoomAndPan="magnify"><defs/><g><!--class PostponeAgendaEntryController--><g id="elem_PostponeAgendaEntryController"><rect codeLine="11" fill="#F1F1F1" height="64.4883" id="PostponeAgendaEntryController" rx="2.5" ry="2.5" style="stroke:#181818;stroke-width:0.5;" width="411" x="191.5" y="132.48"/><ellipse cx="281.75" cy="148.48" fill="#ADD1B2" rx="11" ry="11" style="stroke:#181818;stroke-width:1.0;"/><path d="M284.7231,154.1231 Q284.1421,154.4219 283.5029,154.5713 Q282.8638,154.7207 282.1582,154.7207 Q279.6514,154.7207 278.3315,153.0689 Q277.0117,151.417 277.0117,148.2959 Q277.0117,145.1665 278.3315,143.5147 Q279.6514,141.8628 282.1582,141.8628 Q282.8638,141.8628 283.5112,142.0122 Q284.1587,142.1616 284.7231,142.4605 L284.7231,145.1831 Q284.0923,144.6021 283.4988,144.3323 Q282.9053,144.0625 282.2744,144.0625 Q280.9297,144.0625 280.2449,145.1292 Q279.5601,146.1958 279.5601,148.2959 Q279.5601,150.3877 280.2449,151.4544 Q280.9297,152.521 282.2744,152.521 Q282.9053,152.521 283.4988,152.2512 Q284.0923,151.9815 284.7231,151.4004 Z " fill="#000000"/><text fill="#000000" font-family="sans-serif" font-size="14" lengthAdjust="spacing" textLength="222" x="302.25" y="153.771">PostponeAgendaEntryController</text><line style="stroke:#181818;stroke-width:0.5;" x1="192.5" x2="601.5" y1="164.48" y2="164.48"/><line style="stroke:#181818;stroke-width:0.5;" x1="192.5" x2="601.5" y1="172.48" y2="172.48"/><text fill="#000000" font-family="sans-serif" font-size="14" lengthAdjust="spacing" textLength="399" x="197.5" y="190.0152">+getEntriesFromAgendaStartingFrom(currentDate, status)</text></g><!--class PostponeAgendaEntryUI--><g id="elem_PostponeAgendaEntryUI"><rect codeLine="16" fill="#F1F1F1" height="64.4883" id="PostponeAgendaEntryUI" rx="2.5" ry="2.5" style="stroke:#181818;stroke-width:0.5;" width="198" x="298" y="7"/><ellipse cx="313" cy="23" fill="#ADD1B2" rx="11" ry="11" style="stroke:#181818;stroke-width:1.0;"/><path d="M315.9731,28.6431 Q315.3921,28.9419 314.7529,29.0913 Q314.1138,29.2407 313.4082,29.2407 Q310.9014,29.2407 309.5815,27.5889 Q308.2617,25.937 308.2617,22.8159 Q308.2617,19.6865 309.5815,18.0347 Q310.9014,16.3828 313.4082,16.3828 Q314.1138,16.3828 314.7612,16.5322 Q315.4087,16.6816 315.9731,16.9805 L315.9731,19.7031 Q315.3423,19.1221 314.7488,18.8523 Q314.1553,18.5825 313.5244,18.5825 Q312.1797,18.5825 311.4949,19.6492 Q310.8101,20.7158 310.8101,22.8159 Q310.8101,24.9077 311.4949,25.9744 Q312.1797,27.041 313.5244,27.041 Q314.1553,27.041 314.7488,26.7712 Q315.3423,26.5015 315.9731,25.9204 Z " fill="#000000"/><text fill="#000000" font-family="sans-serif" font-size="14" lengthAdjust="spacing" textLength="166" x="327" y="28.291">PostponeAgendaEntryUI</text><line style="stroke:#181818;stroke-width:0.5;" x1="299" x2="495" y1="39" y2="39"/><line style="stroke:#181818;stroke-width:0.5;" x1="299" x2="495" y1="47" y2="47"/><text fill="#000000" font-family="sans-serif" font-size="14" lengthAdjust="spacing" textLength="45" x="304" y="64.5352">+run()</text></g><!--class Repositories--><g id="elem_Repositories"><rect codeLine="21" fill="#F1F1F1" height="163.418" id="Repositories" rx="2.5" ry="2.5" style="stroke:#181818;stroke-width:0.5;" width="310" x="24" y="273.97"/><ellipse cx="132.25" cy="289.97" fill="#ADD1B2" rx="11" ry="11" style="stroke:#181818;stroke-width:1.0;"/><path d="M135.2231,295.6131 Q134.6421,295.9119 134.0029,296.0613 Q133.3638,296.2107 132.6582,296.2107 Q130.1514,296.2107 128.8315,294.5589 Q127.5117,292.907 127.5117,289.7859 Q127.5117,286.6565 128.8315,285.0047 Q130.1514,283.3528 132.6582,283.3528 Q133.3638,283.3528 134.0112,283.5022 Q134.6587,283.6516 135.2231,283.9505 L135.2231,286.6731 Q134.5923,286.0921 133.9988,285.8223 Q133.4053,285.5525 132.7744,285.5525 Q131.4297,285.5525 130.7449,286.6192 Q130.0601,287.6858 130.0601,289.7859 Q130.0601,291.8777 130.7449,292.9444 Q131.4297,294.011 132.7744,294.011 Q133.4053,294.011 133.9988,293.7412 Q134.5923,293.4715 135.2231,292.8904 Z " fill="#000000"/><text fill="#000000" font-family="sans-serif" font-size="14" lengthAdjust="spacing" textLength="85" x="152.75" y="295.261">Repositories</text><line style="stroke:#181818;stroke-width:0.5;" x1="25" x2="333" y1="305.97" y2="305.97"/><text fill="#000000" font-family="sans-serif" font-size="14" lengthAdjust="spacing" textLength="162" x="30" y="323.5052">-instance : Repositories</text><text fill="#000000" font-family="sans-serif" font-size="14" lengthAdjust="spacing" textLength="194" x="30" y="339.9934">-Repository : SkillRepository</text><text fill="#000000" font-family="sans-serif" font-size="14" lengthAdjust="spacing" textLength="270" x="30" y="356.4817">-agendaRepository : AgendaRepository</text><text fill="#000000" font-family="sans-serif" font-size="14" lengthAdjust="spacing" textLength="298" x="30" y="372.97">-employeeRepository : EmployeeRepository</text><line style="stroke:#181818;stroke-width:0.5;" x1="25" x2="333" y1="379.9231" y2="379.9231"/><text fill="#000000" font-family="sans-serif" font-size="14" lengthAdjust="spacing" textLength="197" x="30" y="397.4583">+getInstance() : Repositories</text><text fill="#000000" font-family="sans-serif" font-size="14" lengthAdjust="spacing" textLength="169" x="30" y="413.9466">+getAgendaRepository()</text><text fill="#000000" font-family="sans-serif" font-size="14" lengthAdjust="spacing" textLength="182" x="30" y="430.4348">+getEmployeeRepository()</text></g><!--class AgendaRepository--><g id="elem_AgendaRepository"><rect codeLine="32" fill="#F1F1F1" height="48" id="AgendaRepository" rx="2.5" ry="2.5" style="stroke:#181818;stroke-width:0.5;" width="158" x="100" y="498.39"/><ellipse cx="115" cy="514.39" fill="#ADD1B2" rx="11" ry="11" style="stroke:#181818;stroke-width:1.0;"/><path d="M117.9731,520.0331 Q117.3921,520.3319 116.7529,520.4813 Q116.1138,520.6307 115.4082,520.6307 Q112.9014,520.6307 111.5815,518.9789 Q110.2617,517.327 110.2617,514.2059 Q110.2617,511.0765 111.5815,509.4247 Q112.9014,507.7728 115.4082,507.7728 Q116.1138,507.7728 116.7612,507.9222 Q117.4087,508.0716 117.9731,508.3705 L117.9731,511.0931 Q117.3423,510.5121 116.7488,510.2423 Q116.1553,509.9725 115.5244,509.9725 Q114.1797,509.9725 113.4949,511.0392 Q112.8101,512.1058 112.8101,514.2059 Q112.8101,516.2977 113.4949,517.3644 Q114.1797,518.431 115.5244,518.431 Q116.1553,518.431 116.7488,518.1612 Q117.3423,517.8915 117.9731,517.3104 Z " fill="#000000"/><text fill="#000000" font-family="sans-serif" font-size="14" lengthAdjust="spacing" textLength="126" x="129" y="519.681">AgendaRepository</text><line style="stroke:#181818;stroke-width:0.5;" x1="101" x2="257" y1="530.39" y2="530.39"/><line style="stroke:#181818;stroke-width:0.5;" x1="101" x2="257" y1="538.39" y2="538.39"/></g><!--class AuthenticationRepository--><g id="elem_AuthenticationRepository"><rect codeLine="36" fill="#F1F1F1" height="64.4883" id="AuthenticationRepository" rx="2.5" ry="2.5" style="stroke:#181818;stroke-width:0.5;" width="209" x="523.5" y="323.44"/><ellipse cx="539.85" cy="339.44" fill="#ADD1B2" rx="11" ry="11" style="stroke:#181818;stroke-width:1.0;"/><path d="M542.8231,345.0831 Q542.2421,345.3819 541.6029,345.5313 Q540.9638,345.6807 540.2582,345.6807 Q537.7514,345.6807 536.4315,344.0289 Q535.1117,342.377 535.1117,339.2559 Q535.1117,336.1265 536.4315,334.4747 Q537.7514,332.8228 540.2582,332.8228 Q540.9638,332.8228 541.6112,332.9722 Q542.2587,333.1216 542.8231,333.4205 L542.8231,336.1431 Q542.1923,335.5621 541.5988,335.2923 Q541.0053,335.0225 540.3744,335.0225 Q539.0297,335.0225 538.3449,336.0892 Q537.6601,337.1558 537.6601,339.2559 Q537.6601,341.3477 538.3449,342.4144 Q539.0297,343.481 540.3744,343.481 Q541.0053,343.481 541.5988,343.2112 Q542.1923,342.9415 542.8231,342.3604 Z " fill="#000000"/><text fill="#000000" font-family="sans-serif" font-size="14" lengthAdjust="spacing" textLength="174" x="554.15" y="344.731">AuthenticationRepository</text><line style="stroke:#181818;stroke-width:0.5;" x1="524.5" x2="731.5" y1="355.44" y2="355.44"/><line style="stroke:#181818;stroke-width:0.5;" x1="524.5" x2="731.5" y1="363.44" y2="363.44"/><text fill="#000000" font-family="sans-serif" font-size="14" lengthAdjust="spacing" textLength="197" x="529.5" y="380.9752">+getEmployeeFromSession()</text></g><!--class Entry--><g id="elem_Entry"><rect codeLine="40" fill="#F1F1F1" height="48" id="Entry" rx="2.5" ry="2.5" style="stroke:#181818;stroke-width:0.5;" width="67" x="290.5" y="607.39"/><ellipse cx="305.5" cy="623.39" fill="#ADD1B2" rx="11" ry="11" style="stroke:#181818;stroke-width:1.0;"/><path d="M308.4731,629.0331 Q307.8921,629.3319 307.2529,629.4813 Q306.6138,629.6307 305.9082,629.6307 Q303.4014,629.6307 302.0815,627.9789 Q300.7617,626.327 300.7617,623.2059 Q300.7617,620.0765 302.0815,618.4247 Q303.4014,616.7728 305.9082,616.7728 Q306.6138,616.7728 307.2612,616.9222 Q307.9087,617.0716 308.4731,617.3705 L308.4731,620.0931 Q307.8423,619.5121 307.2488,619.2423 Q306.6553,618.9725 306.0244,618.9725 Q304.6797,618.9725 303.9949,620.0392 Q303.3101,621.1058 303.3101,623.2059 Q303.3101,625.2977 303.9949,626.3644 Q304.6797,627.431 306.0244,627.431 Q306.6553,627.431 307.2488,627.1612 Q307.8423,626.8915 308.4731,626.3104 Z " fill="#000000"/><text fill="#000000" font-family="sans-serif" font-size="14" lengthAdjust="spacing" textLength="35" x="319.5" y="628.681">Entry</text><line style="stroke:#181818;stroke-width:0.5;" x1="291.5" x2="356.5" y1="639.39" y2="639.39"/><line style="stroke:#181818;stroke-width:0.5;" x1="291.5" x2="356.5" y1="647.39" y2="647.39"/></g><!--class Employee--><g id="elem_Employee"><rect codeLine="45" fill="#F1F1F1" height="48" id="Employee" rx="2.5" ry="2.5" style="stroke:#181818;stroke-width:0.5;" width="98" x="421" y="498.39"/><ellipse cx="436" cy="514.39" fill="#ADD1B2" rx="11" ry="11" style="stroke:#181818;stroke-width:1.0;"/><path d="M438.9731,520.0331 Q438.3921,520.3319 437.7529,520.4813 Q437.1138,520.6307 436.4082,520.6307 Q433.9014,520.6307 432.5815,518.9789 Q431.2617,517.327 431.2617,514.2059 Q431.2617,511.0765 432.5815,509.4247 Q433.9014,507.7728 436.4082,507.7728 Q437.1138,507.7728 437.7612,507.9222 Q438.4087,508.0716 438.9731,508.3705 L438.9731,511.0931 Q438.3423,510.5121 437.7488,510.2423 Q437.1553,509.9725 436.5244,509.9725 Q435.1797,509.9725 434.4949,511.0392 Q433.8101,512.1058 433.8101,514.2059 Q433.8101,516.2977 434.4949,517.3644 Q435.1797,518.431 436.5244,518.431 Q437.1553,518.431 437.7488,518.1612 Q438.3423,517.8915 438.9731,517.3104 Z " fill="#000000"/><text fill="#000000" font-family="sans-serif" font-size="14" lengthAdjust="spacing" textLength="66" x="450" y="519.681">Employee</text><line style="stroke:#181818;stroke-width:0.5;" x1="422" x2="518" y1="530.39" y2="530.39"/><line style="stroke:#181818;stroke-width:0.5;" x1="422" x2="518" y1="538.39" y2="538.39"/></g><!--link PostponeAgendaEntryUI to PostponeAgendaEntryController--><g id="link_PostponeAgendaEntryUI_PostponeAgendaEntryController"><path codeLine="50" d="M397,71.72 C397,90.3 397,107.74 397,126.3 " fill="none" id="PostponeAgendaEntryUI-to-PostponeAgendaEntryController" style="stroke:#181818;stroke-width:1.0;stroke-dasharray:7.0,7.0;"/><polygon fill="#181818" points="397,132.3,401,123.3,397,127.3,393,123.3,397,132.3" style="stroke:#181818;stroke-width:1.0;"/><text fill="#000000" font-family="sans-serif" font-size="13" lengthAdjust="spacing" textLength="8" x="388.2375" y="91.9384">1</text><text fill="#000000" font-family="sans-serif" font-size="13" lengthAdjust="spacing" textLength="8" x="388.175" y="121.666">1</text></g><!--link Repositories to Repositories--><g id="link_Repositories_Repositories"><path codeLine="55" d="M334.43,337.07 C355.2,340.22 369,346.42 369,355.68 C369,364.94 361.1322,370.2403 340.3622,373.3903 " fill="none" id="Repositories-to-Repositories" style="stroke:#181818;stroke-width:1.0;"/><polygon fill="#181818" points="334.43,374.29,343.928,376.8953,339.3735,373.5403,342.7285,368.9857,334.43,374.29" style="stroke:#181818;stroke-width:1.0;"/><text fill="#000000" font-family="sans-serif" font-size="13" lengthAdjust="spacing" textLength="53" x="375" y="360.7484">instance</text></g><!--link Repositories to AgendaRepository--><g id="link_Repositories_AgendaRepository"><path codeLine="56" d="M179,437.59 C179,459.72 179,475.98 179,492 " fill="none" id="Repositories-to-AgendaRepository" style="stroke:#181818;stroke-width:1.0;"/><polygon fill="#181818" points="179,498,183,489,179,493,175,489,179,498" style="stroke:#181818;stroke-width:1.0;"/><text fill="#000000" font-family="sans-serif" font-size="13" lengthAdjust="spacing" textLength="8" x="170.6563" y="457.8555">1</text><text fill="#000000" font-family="sans-serif" font-size="13" lengthAdjust="spacing" textLength="8" x="170.025" y="487.833">1</text></g><!--link AgendaRepository to Entry--><g id="link_AgendaRepository_Entry"><path codeLine="58" d="M210.82,546.87 C235,564.71 263.2721,585.5775 287.4221,603.3975 " fill="none" id="AgendaRepository-to-Entry" style="stroke:#181818;stroke-width:1.0;"/><polygon fill="#181818" points="292.25,606.96,287.3831,598.3977,288.2267,603.9913,282.6331,604.8349,292.25,606.96" style="stroke:#181818;stroke-width:1.0;"/></g><!--link PostponeAgendaEntryController to AgendaRepository--><g id="link_PostponeAgendaEntryController_AgendaRepository"><path codeLine="61" d="M282.59,197.4 C167.2,229.35 6,273.97 6,273.97 C6,273.97 6,437.39 6,437.39 C6,437.39 74.2224,470.5197 125.4124,495.3697 " fill="none" id="PostponeAgendaEntryController-to-AgendaRepository" style="stroke:#181818;stroke-width:1.0;stroke-dasharray:7.0,7.0;"/><polygon fill="#181818" points="130.81,497.99,124.4604,490.4612,126.312,495.8065,120.9667,497.658,130.81,497.99" style="stroke:#181818;stroke-width:1.0;"/></g><!--link PostponeAgendaEntryController to Repositories--><g id="link_PostponeAgendaEntryController_Repositories"><path codeLine="62" d="M360.51,197.35 C336.39,218.26 308.1338,242.7501 277.0538,269.6901 " fill="none" id="PostponeAgendaEntryController-to-Repositories" style="stroke:#181818;stroke-width:1.0;stroke-dasharray:7.0,7.0;"/><polygon fill="#181818" points="272.52,273.62,281.9407,270.7477,276.2982,270.3451,276.7008,264.7026,272.52,273.62" style="stroke:#181818;stroke-width:1.0;"/><text fill="#000000" font-family="sans-serif" font-size="13" lengthAdjust="spacing" textLength="75" x="322" y="240.5384">repositories</text><text fill="#000000" font-family="sans-serif" font-size="13" lengthAdjust="spacing" textLength="8" x="344.7916" y="217.597">1</text><text fill="#000000" font-family="sans-serif" font-size="13" lengthAdjust="spacing" textLength="8" x="272.4929" y="263.2258">1</text></g><!--link PostponeAgendaEntryController to AuthenticationRepository--><g id="link_PostponeAgendaEntryController_AuthenticationRepository"><path codeLine="63" d="M448.24,197.43 C472.4,212.37 496,226.97 496,226.97 C496,226.97 551.9679,281.118 591.0579,318.938 " fill="none" id="PostponeAgendaEntryController-to-AuthenticationRepository" style="stroke:#181818;stroke-width:1.0;"/><polygon fill="#181818" points="595.37,323.11,591.6832,313.9772,591.7766,319.6333,586.1205,319.7267,595.37,323.11" style="stroke:#181818;stroke-width:1.0;"/><text fill="#000000" font-family="sans-serif" font-size="13" lengthAdjust="spacing" textLength="143" x="514" y="240.5384">getCurrentUserSession</text><text fill="#000000" font-family="sans-serif" font-size="13" lengthAdjust="spacing" textLength="8" x="448.9499" y="217.4399">1</text><text fill="#000000" font-family="sans-serif" font-size="13" lengthAdjust="spacing" textLength="8" x="580.1585" y="312.8193">1</text></g><!--link PostponeAgendaEntryController to Employee--><g id="link_PostponeAgendaEntryController_Employee"><path codeLine="65" d="M408.09,197.33 C419.31,229.28 435,273.97 435,273.97 C435,273.97 457.1489,430.5792 465.8689,492.1692 " fill="none" id="PostponeAgendaEntryController-to-Employee" style="stroke:#181818;stroke-width:1.0;"/><polygon fill="#181818" points="466.71,498.11,469.4089,488.6381,466.0091,493.1594,461.4878,489.7596,466.71,498.11" style="stroke:#181818;stroke-width:1.0;"/></g><!--link AuthenticationRepository to Employee--><g id="link_AuthenticationRepository_Employee"><path codeLine="67" d="M597.91,388.05 C567.11,420.16 524.1138,464.9803 496.4838,493.7803 " fill="none" id="AuthenticationRepository-to-Employee" style="stroke:#181818;stroke-width:1.0;"/><polygon fill="#181818" points="492.33,498.11,501.4471,494.3847,495.7915,494.5019,495.6742,488.8463,492.33,498.11" style="stroke:#181818;stroke-width:1.0;"/></g><!--link Employee to Entry--><g id="link_Employee_Entry"><path codeLine="69" d="M437.96,546.87 C413.62,564.71 385.1298,585.5937 360.8098,603.4137 " fill="none" id="Employee-to-Entry" style="stroke:#181818;stroke-width:1.0;"/><polygon fill="#181818" points="355.97,606.96,365.5939,604.8671,360.0032,604.0048,360.8655,598.414,355.97,606.96" style="stroke:#181818;stroke-width:1.0;"/></g><!--SRC=[XLFBRi8m4BpxArPS0BMfsciFI8Ys4hUgKJ_03KkmCDx8tgXAg_vxxIG49-6H0uYTsTdTcJ1rUsKAQUK13cGesraw8B0jKPoGGcPxcMFAbKQmcB4qkOu9RYStzArC3bkfNOnePP2h0g4WNOKVOde69CiaegvCI-UMp5PzbOphZ4ogVX0UXPXgt38mWLNvZc6ZmZgAZ11r3xoJuu8CBdCq6_bgs5Ohyf-aDLhu5U2Vknmv80hTcp-teQOiBViBGcMMbTQYuHV9U0-E9PTkBlx4bI6VwwEuBSqi9dzWGKunXN4D9G5blAZ949vxS8jsfShZwLvfVQgq55bFxX6NWrBBn4EXgKBiSLz7HT4i3zwQTRlSR7vklPeodEKFxh2nTcD7uyQmyrT4MCaxxxhAP4Wqvep4GqefEkTviNeT1JIQnrBRSQoUpsxoD867XqNzVVKL4k69JO5aqJF9UtPCjyyBqadIZ1Xb9OQLcbhFFhzpz5A7lKU2rrlYSmVBspZmsohTHHUoyue-jbNpV_fqQDlKRXqLhc-Jy-PS4azwj2xgphf_]--></g></svg>