<?xml version="1.0" encoding="us-ascii" standalone="no"?><svg xmlns="http://www.w3.org/2000/svg" xmlns:xlink="http://www.w3.org/1999/xlink" contentStyleType="text/css" height="1402px" preserveAspectRatio="none" style="width:2247px;height:1402px;background:#FFFFFF;" version="1.1" viewBox="0 0 2247 1402" width="2247px" zoomAndPan="magnify"><defs/><g><rect fill="#FFFFFF" height="1211.5313" style="stroke:#181818;stroke-width:1.0;" width="10" x="77.5" y="91.4883"/><rect fill="#FFFFFF" height="429.8359" style="stroke:#181818;stroke-width:1.0;" width="10" x="430.5" y="229.3516"/><rect fill="#FFFFFF" height="29.3105" style="stroke:#181818;stroke-width:1.0;" width="10" x="430.5" y="688.498"/><rect fill="#FFFFFF" height="29.3105" style="stroke:#181818;stroke-width:1.0;" width="10" x="430.5" y="747.1191"/><rect fill="#FFFFFF" height="497.2793" style="stroke:#181818;stroke-width:1.0;" width="10" x="430.5" y="805.7402"/><rect fill="#FFFFFF" height="329.7266" style="stroke:#181818;stroke-width:1.0;" width="10" x="918.5" y="300.1504"/><rect fill="#FFFFFF" height="438.6582" style="stroke:#181818;stroke-width:1.0;" width="10" x="918.5" y="835.0508"/><rect fill="#FFFFFF" height="29.3105" style="stroke:#181818;stroke-width:1.0;" width="10" x="1128.5" y="329.4609"/><rect fill="#FFFFFF" height="95.2422" style="stroke:#181818;stroke-width:1.0;" width="10" x="1128.5" y="388.082"/><rect fill="#FFFFFF" height="29.3105" style="stroke:#181818;stroke-width:1.0;" width="10" x="1241.5" y="512.6348"/><rect fill="#FFFFFF" height="29.3105" style="stroke:#181818;stroke-width:1.0;" width="10" x="1375" y="571.2559"/><rect fill="#FFFFFF" height="29.3105" style="stroke:#181818;stroke-width:1.0;" width="10" x="1375" y="1215.0879"/><rect fill="#FFFFFF" height="29.3105" style="stroke:#181818;stroke-width:1.0;" width="10" x="1814" y="864.3613"/><rect fill="#FFFFFF" height="262.7949" style="stroke:#181818;stroke-width:1.0;" width="10" x="1814" y="922.9824"/><rect fill="#FFFFFF" height="58.6211" style="stroke:#181818;stroke-width:1.0;" width="10" x="2210" y="1009.9141"/><rect fill="#FFFFFF" height="58.6211" style="stroke:#181818;stroke-width:1.0;" width="10" x="2210" y="1097.8457"/><line style="stroke:#181818;stroke-width:0.5;stroke-dasharray:5.0,5.0;" x1="82" x2="82" y1="81.4883" y2="1321.0195"/><line style="stroke:#181818;stroke-width:0.5;stroke-dasharray:5.0,5.0;" x1="435.5" x2="435.5" y1="81.4883" y2="1321.0195"/><line style="stroke:#181818;stroke-width:0.5;stroke-dasharray:5.0,5.0;" x1="923.5" x2="923.5" y1="268.0957" y2="1321.0195"/><line style="stroke:#181818;stroke-width:0.5;stroke-dasharray:5.0,5.0;" x1="1133" x2="1133" y1="81.4883" y2="1321.0195"/><line style="stroke:#181818;stroke-width:0.5;stroke-dasharray:5.0,5.0;" x1="1246" x2="1246" y1="81.4883" y2="1321.0195"/><line style="stroke:#181818;stroke-width:0.5;stroke-dasharray:5.0,5.0;" x1="1380" x2="1380" y1="81.4883" y2="1321.0195"/><line style="stroke:#181818;stroke-width:0.5;stroke-dasharray:5.0,5.0;" x1="1558" x2="1558" y1="81.4883" y2="1321.0195"/><line style="stroke:#181818;stroke-width:0.5;stroke-dasharray:5.0,5.0;" x1="1714" x2="1714" y1="81.4883" y2="1321.0195"/><line style="stroke:#181818;stroke-width:0.5;stroke-dasharray:5.0,5.0;" x1="1819" x2="1819" y1="81.4883" y2="1321.0195"/><line style="stroke:#181818;stroke-width:0.5;stroke-dasharray:5.0,5.0;" x1="2214.5" x2="2214.5" y1="81.4883" y2="1321.0195"/><text fill="#000000" font-family="sans-serif" font-size="14" lengthAdjust="spacing" textLength="149" x="5" y="78.5352">Green Space Manager</text><ellipse cx="82.5" cy="13.5" fill="#E3E3E3" rx="8" ry="8" style="stroke:#181818;stroke-width:0.5;"/><path d="M82.5,21.5 L82.5,48.5 M69.5,29.5 L95.5,29.5 M82.5,48.5 L69.5,63.5 M82.5,48.5 L95.5,63.5 " fill="none" style="stroke:#181818;stroke-width:0.5;"/><text fill="#000000" font-family="sans-serif" font-size="14" lengthAdjust="spacing" textLength="149" x="5" y="1333.5547">Green Space Manager</text><ellipse cx="82.5" cy="1345.0078" fill="#E3E3E3" rx="8" ry="8" style="stroke:#181818;stroke-width:0.5;"/><path d="M82.5,1353.0078 L82.5,1380.0078 M69.5,1361.0078 L95.5,1361.0078 M82.5,1380.0078 L69.5,1395.0078 M82.5,1380.0078 L95.5,1395.0078 " fill="none" style="stroke:#181818;stroke-width:0.5;"/><rect fill="#E3E3E3" height="30.4883" rx="2.5" ry="2.5" style="stroke:#181818;stroke-width:0.5;" width="184" x="343.5" y="50"/><text fill="#000000" font-family="sans-serif" font-size="14" lengthAdjust="spacing" textLength="170" x="350.5" y="70.5352">:PostponeAgendaEntryUI</text><rect fill="#E3E3E3" height="30.4883" rx="2.5" ry="2.5" style="stroke:#181818;stroke-width:0.5;" width="184" x="343.5" y="1320.0195"/><text fill="#000000" font-family="sans-serif" font-size="14" lengthAdjust="spacing" textLength="170" x="350.5" y="1340.5547">:PostponeAgendaEntryUI</text><rect fill="#E3E3E3" height="30.4883" rx="2.5" ry="2.5" style="stroke:#181818;stroke-width:0.5;" width="240" x="803.5" y="1320.0195"/><text fill="#000000" font-family="sans-serif" font-size="14" lengthAdjust="spacing" textLength="226" x="810.5" y="1340.5547">:PostponeAgendaEntryController</text><rect fill="#E3E3E3" height="30.4883" rx="2.5" ry="2.5" style="stroke:#181818;stroke-width:0.5;" width="103" x="1082" y="50"/><text fill="#000000" font-family="sans-serif" font-size="14" lengthAdjust="spacing" textLength="89" x="1089" y="70.5352">:Repositories</text><rect fill="#E3E3E3" height="30.4883" rx="2.5" ry="2.5" style="stroke:#181818;stroke-width:0.5;" width="103" x="1082" y="1320.0195"/><text fill="#000000" font-family="sans-serif" font-size="14" lengthAdjust="spacing" textLength="89" x="1089" y="1340.5547">:Repositories</text><rect fill="#E3E3E3" height="46.9766" rx="2.5" ry="2.5" style="stroke:#181818;stroke-width:0.5;" width="103" x="1195" y="33.5117"/><text fill="#000000" font-family="sans-serif" font-size="14" lengthAdjust="spacing" textLength="82" x="1205.5" y="54.0469">repositories</text><text fill="#000000" font-family="sans-serif" font-size="14" lengthAdjust="spacing" textLength="89" x="1202" y="70.5352">:Repositories</text><rect fill="#E3E3E3" height="46.9766" rx="2.5" ry="2.5" style="stroke:#181818;stroke-width:0.5;" width="103" x="1195" y="1320.0195"/><text fill="#000000" font-family="sans-serif" font-size="14" lengthAdjust="spacing" textLength="82" x="1205.5" y="1340.5547">repositories</text><text fill="#000000" font-family="sans-serif" font-size="14" lengthAdjust="spacing" textLength="89" x="1202" y="1357.043">:Repositories</text><rect fill="#E3E3E3" height="46.9766" rx="2.5" ry="2.5" style="stroke:#181818;stroke-width:0.5;" width="144" x="1308" y="33.5117"/><text fill="#000000" font-family="sans-serif" font-size="14" lengthAdjust="spacing" textLength="124" x="1318" y="54.0469">agendaRepository</text><text fill="#000000" font-family="sans-serif" font-size="14" lengthAdjust="spacing" textLength="130" x="1315" y="70.5352">:AgendaRepository</text><rect fill="#E3E3E3" height="46.9766" rx="2.5" ry="2.5" style="stroke:#181818;stroke-width:0.5;" width="144" x="1308" y="1320.0195"/><text fill="#000000" font-family="sans-serif" font-size="14" lengthAdjust="spacing" textLength="124" x="1318" y="1340.5547">agendaRepository</text><text fill="#000000" font-family="sans-serif" font-size="14" lengthAdjust="spacing" textLength="130" x="1315" y="1357.043">:AgendaRepository</text><rect fill="#E3E3E3" height="46.9766" rx="2.5" ry="2.5" style="stroke:#181818;stroke-width:0.5;" width="192" x="1462" y="33.5117"/><text fill="#000000" font-family="sans-serif" font-size="14" lengthAdjust="spacing" textLength="172" x="1472" y="54.0469">authenticationRepository</text><text fill="#000000" font-family="sans-serif" font-size="14" lengthAdjust="spacing" textLength="178" x="1469" y="70.5352">:AuthenticationRepository</text><rect fill="#E3E3E3" height="46.9766" rx="2.5" ry="2.5" style="stroke:#181818;stroke-width:0.5;" width="192" x="1462" y="1320.0195"/><text fill="#000000" font-family="sans-serif" font-size="14" lengthAdjust="spacing" textLength="172" x="1472" y="1340.5547">authenticationRepository</text><text fill="#000000" font-family="sans-serif" font-size="14" lengthAdjust="spacing" textLength="178" x="1469" y="1357.043">:AuthenticationRepository</text><rect fill="#E3E3E3" height="46.9766" rx="2.5" ry="2.5" style="stroke:#181818;stroke-width:0.5;" width="101" x="1664" y="33.5117"/><text fill="#000000" font-family="sans-serif" font-size="14" lengthAdjust="spacing" textLength="82" x="1673.5" y="54.0469">userSession</text><text fill="#000000" font-family="sans-serif" font-size="14" lengthAdjust="spacing" textLength="87" x="1671" y="70.5352">:UserSession</text><rect fill="#E3E3E3" height="46.9766" rx="2.5" ry="2.5" style="stroke:#181818;stroke-width:0.5;" width="101" x="1664" y="1320.0195"/><text fill="#000000" font-family="sans-serif" font-size="14" lengthAdjust="spacing" textLength="82" x="1673.5" y="1340.5547">userSession</text><text fill="#000000" font-family="sans-serif" font-size="14" lengthAdjust="spacing" textLength="87" x="1671" y="1357.043">:UserSession</text><rect fill="#E3E3E3" height="46.9766" rx="2.5" ry="2.5" style="stroke:#181818;stroke-width:0.5;" width="88" x="1775" y="33.5117"/><text fill="#000000" font-family="sans-serif" font-size="14" lengthAdjust="spacing" textLength="66" x="1786" y="54.0469">employee</text><text fill="#000000" font-family="sans-serif" font-size="14" lengthAdjust="spacing" textLength="74" x="1782" y="70.5352">: Employee</text><rect fill="#E3E3E3" height="46.9766" rx="2.5" ry="2.5" style="stroke:#181818;stroke-width:0.5;" width="88" x="1775" y="1320.0195"/><text fill="#000000" font-family="sans-serif" font-size="14" lengthAdjust="spacing" textLength="66" x="1786" y="1340.5547">employee</text><text fill="#000000" font-family="sans-serif" font-size="14" lengthAdjust="spacing" textLength="74" x="1782" y="1357.043">: Employee</text><rect fill="#E3E3E3" height="30.4883" rx="2.5" ry="2.5" style="stroke:#181818;stroke-width:0.5;" width="53" x="2188.5" y="50"/><text fill="#000000" font-family="sans-serif" font-size="14" lengthAdjust="spacing" textLength="39" x="2195.5" y="70.5352">:Entry</text><rect fill="#E3E3E3" height="30.4883" rx="2.5" ry="2.5" style="stroke:#181818;stroke-width:0.5;" width="53" x="2188.5" y="1320.0195"/><text fill="#000000" font-family="sans-serif" font-size="14" lengthAdjust="spacing" textLength="39" x="2195.5" y="1340.5547">:Entry</text><rect fill="#FFFFFF" height="1211.5313" style="stroke:#181818;stroke-width:1.0;" width="10" x="77.5" y="91.4883"/><rect fill="#FFFFFF" height="429.8359" style="stroke:#181818;stroke-width:1.0;" width="10" x="430.5" y="229.3516"/><rect fill="#FFFFFF" height="29.3105" style="stroke:#181818;stroke-width:1.0;" width="10" x="430.5" y="688.498"/><rect fill="#FFFFFF" height="29.3105" style="stroke:#181818;stroke-width:1.0;" width="10" x="430.5" y="747.1191"/><rect fill="#FFFFFF" height="497.2793" style="stroke:#181818;stroke-width:1.0;" width="10" x="430.5" y="805.7402"/><rect fill="#FFFFFF" height="329.7266" style="stroke:#181818;stroke-width:1.0;" width="10" x="918.5" y="300.1504"/><rect fill="#FFFFFF" height="438.6582" style="stroke:#181818;stroke-width:1.0;" width="10" x="918.5" y="835.0508"/><rect fill="#FFFFFF" height="29.3105" style="stroke:#181818;stroke-width:1.0;" width="10" x="1128.5" y="329.4609"/><rect fill="#FFFFFF" height="95.2422" style="stroke:#181818;stroke-width:1.0;" width="10" x="1128.5" y="388.082"/><rect fill="#FFFFFF" height="29.3105" style="stroke:#181818;stroke-width:1.0;" width="10" x="1241.5" y="512.6348"/><rect fill="#FFFFFF" height="29.3105" style="stroke:#181818;stroke-width:1.0;" width="10" x="1375" y="571.2559"/><rect fill="#FFFFFF" height="29.3105" style="stroke:#181818;stroke-width:1.0;" width="10" x="1375" y="1215.0879"/><rect fill="#FFFFFF" height="29.3105" style="stroke:#181818;stroke-width:1.0;" width="10" x="1814" y="864.3613"/><rect fill="#FFFFFF" height="262.7949" style="stroke:#181818;stroke-width:1.0;" width="10" x="1814" y="922.9824"/><rect fill="#FFFFFF" height="58.6211" style="stroke:#181818;stroke-width:1.0;" width="10" x="2210" y="1009.9141"/><rect fill="#FFFFFF" height="58.6211" style="stroke:#181818;stroke-width:1.0;" width="10" x="2210" y="1097.8457"/><path d="M92,96.4883 L92,151.4883 L385,151.4883 L385,106.4883 L375,96.4883 L92,96.4883 " fill="#FAFAFA" style="stroke:#181818;stroke-width:0.5;"/><path d="M375,96.4883 L375,106.4883 L385,106.4883 L375,96.4883 " fill="#FAFAFA" style="stroke:#181818;stroke-width:0.5;"/><text fill="#000000" font-family="sans-serif" font-size="13" lengthAdjust="spacing" textLength="272" x="98" y="114.0566">- The user is already logged in at this step.</text><text fill="#000000" font-family="sans-serif" font-size="13" lengthAdjust="spacing" textLength="264" x="98" y="129.3672">- Authentication sequence is explained in</text><text fill="#000000" font-family="sans-serif" font-size="13" lengthAdjust="spacing" textLength="125" x="98" y="144.6777">a sequence excerpt.</text><path d="M1138,162.4199 L1138,202.4199 L1245,202.4199 L1245,172.4199 L1235,162.4199 L1138,162.4199 " fill="#FAFAFA" style="stroke:#181818;stroke-width:0.5;"/><path d="M1235,162.4199 L1235,172.4199 L1245,172.4199 L1235,162.4199 " fill="#FAFAFA" style="stroke:#181818;stroke-width:0.5;"/><text fill="#000000" font-family="sans-serif" font-size="13" lengthAdjust="spacing" textLength="86" x="1144" y="179.9883">- Singleton is</text><text fill="#000000" font-family="sans-serif" font-size="13" lengthAdjust="spacing" textLength="38" x="1144" y="195.2988">in use</text><polygon fill="#181818" points="418.5,225.3516,428.5,229.3516,418.5,233.3516,422.5,229.3516" style="stroke:#181818;stroke-width:1.0;"/><line style="stroke:#181818;stroke-width:1.0;" x1="87.5" x2="424.5" y1="229.3516" y2="229.3516"/><text fill="#000000" font-family="sans-serif" font-size="13" font-weight="bold" lengthAdjust="spacing" textLength="9" x="94.5" y="224.6094">1</text><text fill="#000000" font-family="sans-serif" font-size="13" lengthAdjust="spacing" textLength="275" x="107.5" y="224.6094">Asks to postpone an entry from the Agenda</text><polygon fill="#181818" points="791.5,254.6621,801.5,258.6621,791.5,262.6621,795.5,258.6621" style="stroke:#181818;stroke-width:1.0;"/><line style="stroke:#181818;stroke-width:1.0;" x1="440.5" x2="797.5" y1="258.6621" y2="258.6621"/><text fill="#000000" font-family="sans-serif" font-size="13" font-weight="bold" lengthAdjust="spacing" textLength="9" x="447.5" y="253.9199">2</text><text fill="#000000" font-family="sans-serif" font-size="13" lengthAdjust="spacing" textLength="38" x="460.5" y="253.9199">create</text><rect fill="#E3E3E3" height="30.4883" rx="2.5" ry="2.5" style="stroke:#181818;stroke-width:0.5;" width="240" x="803.5" y="237.3516"/><text fill="#000000" font-family="sans-serif" font-size="14" lengthAdjust="spacing" textLength="226" x="810.5" y="257.8867">:PostponeAgendaEntryController</text><polygon fill="#181818" points="906.5,296.1504,916.5,300.1504,906.5,304.1504,910.5,300.1504" style="stroke:#181818;stroke-width:1.0;"/><line style="stroke:#181818;stroke-width:1.0;" x1="440.5" x2="912.5" y1="300.1504" y2="300.1504"/><text fill="#000000" font-family="sans-serif" font-size="13" font-weight="bold" lengthAdjust="spacing" textLength="9" x="447.5" y="295.4082">3</text><text fill="#000000" font-family="sans-serif" font-size="13" lengthAdjust="spacing" textLength="250" x="460.5" y="295.4082">asks to list the entries from the Agenda</text><polygon fill="#181818" points="1116.5,325.4609,1126.5,329.4609,1116.5,333.4609,1120.5,329.4609" style="stroke:#181818;stroke-width:1.0;"/><line style="stroke:#181818;stroke-width:1.0;" x1="928.5" x2="1122.5" y1="329.4609" y2="329.4609"/><text fill="#000000" font-family="sans-serif" font-size="13" font-weight="bold" lengthAdjust="spacing" textLength="9" x="935.5" y="324.7188">4</text><text fill="#000000" font-family="sans-serif" font-size="13" lengthAdjust="spacing" textLength="81" x="948.5" y="324.7188">getInstance()</text><polygon fill="#181818" points="939.5,354.7715,929.5,358.7715,939.5,362.7715,935.5,358.7715" style="stroke:#181818;stroke-width:1.0;"/><line style="stroke:#181818;stroke-width:1.0;stroke-dasharray:2.0,2.0;" x1="933.5" x2="1132.5" y1="358.7715" y2="358.7715"/><text fill="#000000" font-family="sans-serif" font-size="13" font-weight="bold" lengthAdjust="spacing" textLength="9" x="945.5" y="354.0293">5</text><text fill="#000000" font-family="sans-serif" font-size="13" lengthAdjust="spacing" textLength="75" x="958.5" y="354.0293">repositories</text><polygon fill="#181818" points="1116.5,384.082,1126.5,388.082,1116.5,392.082,1120.5,388.082" style="stroke:#181818;stroke-width:1.0;"/><line style="stroke:#181818;stroke-width:1.0;" x1="928.5" x2="1122.5" y1="388.082" y2="388.082"/><text fill="#000000" font-family="sans-serif" font-size="13" font-weight="bold" lengthAdjust="spacing" textLength="9" x="935.5" y="383.3398">6</text><text fill="#000000" font-family="sans-serif" font-size="13" lengthAdjust="spacing" textLength="168" x="948.5" y="383.3398">getEmployeeFromSession()</text><path d="M933,401.082 L933,456.082 L1125,456.082 L1125,411.082 L1115,401.082 L933,401.082 " fill="#FAFAFA" style="stroke:#181818;stroke-width:0.5;"/><path d="M1115,401.082 L1115,411.082 L1125,411.082 L1115,401.082 " fill="#FAFAFA" style="stroke:#181818;stroke-width:0.5;"/><text fill="#000000" font-family="sans-serif" font-size="13" lengthAdjust="spacing" textLength="171" x="939" y="418.6504">- This method is explained</text><text fill="#000000" font-family="sans-serif" font-size="13" lengthAdjust="spacing" textLength="137" x="939" y="433.9609">in detail in an excerpt</text><text fill="#000000" font-family="sans-serif" font-size="13" lengthAdjust="spacing" textLength="118" x="939" y="449.2715">sequence diagram.</text><polygon fill="#181818" points="939.5,479.3242,929.5,483.3242,939.5,487.3242,935.5,483.3242" style="stroke:#181818;stroke-width:1.0;"/><line style="stroke:#181818;stroke-width:1.0;stroke-dasharray:2.0,2.0;" x1="933.5" x2="1132.5" y1="483.3242" y2="483.3242"/><text fill="#000000" font-family="sans-serif" font-size="13" font-weight="bold" lengthAdjust="spacing" textLength="9" x="945.5" y="478.582">7</text><text fill="#000000" font-family="sans-serif" font-size="13" lengthAdjust="spacing" textLength="60" x="958.5" y="478.582">employee</text><polygon fill="#181818" points="1229.5,508.6348,1239.5,512.6348,1229.5,516.6348,1233.5,512.6348" style="stroke:#181818;stroke-width:1.0;"/><line style="stroke:#181818;stroke-width:1.0;" x1="928.5" x2="1235.5" y1="512.6348" y2="512.6348"/><text fill="#000000" font-family="sans-serif" font-size="13" font-weight="bold" lengthAdjust="spacing" textLength="9" x="935.5" y="507.8926">8</text><text fill="#000000" font-family="sans-serif" font-size="13" lengthAdjust="spacing" textLength="142" x="948.5" y="507.8926">getAgendaRepository()</text><polygon fill="#181818" points="939.5,537.9453,929.5,541.9453,939.5,545.9453,935.5,541.9453" style="stroke:#181818;stroke-width:1.0;"/><line style="stroke:#181818;stroke-width:1.0;stroke-dasharray:2.0,2.0;" x1="933.5" x2="1245.5" y1="541.9453" y2="541.9453"/><text fill="#000000" font-family="sans-serif" font-size="13" font-weight="bold" lengthAdjust="spacing" textLength="9" x="945.5" y="537.2031">9</text><text fill="#000000" font-family="sans-serif" font-size="13" lengthAdjust="spacing" textLength="112" x="958.5" y="537.2031">agendaRepository</text><polygon fill="#181818" points="1363,567.2559,1373,571.2559,1363,575.2559,1367,571.2559" style="stroke:#181818;stroke-width:1.0;"/><line style="stroke:#181818;stroke-width:1.0;" x1="928.5" x2="1369" y1="571.2559" y2="571.2559"/><text fill="#000000" font-family="sans-serif" font-size="13" font-weight="bold" lengthAdjust="spacing" textLength="18" x="935.5" y="566.5137">10</text><text fill="#000000" font-family="sans-serif" font-size="13" lengthAdjust="spacing" textLength="272" x="957.5" y="566.5137">getFutureEntriesByStatus(status="Planned")</text><polygon fill="#181818" points="939.5,596.5664,929.5,600.5664,939.5,604.5664,935.5,600.5664" style="stroke:#181818;stroke-width:1.0;"/><line style="stroke:#181818;stroke-width:1.0;stroke-dasharray:2.0,2.0;" x1="933.5" x2="1379" y1="600.5664" y2="600.5664"/><text fill="#000000" font-family="sans-serif" font-size="13" font-weight="bold" lengthAdjust="spacing" textLength="18" x="945.5" y="595.8242">11</text><text fill="#000000" font-family="sans-serif" font-size="13" lengthAdjust="spacing" textLength="81" x="967.5" y="595.8242">futureEntries</text><polygon fill="#181818" points="451.5,625.877,441.5,629.877,451.5,633.877,447.5,629.877" style="stroke:#181818;stroke-width:1.0;"/><line style="stroke:#181818;stroke-width:1.0;stroke-dasharray:2.0,2.0;" x1="445.5" x2="922.5" y1="629.877" y2="629.877"/><text fill="#000000" font-family="sans-serif" font-size="13" font-weight="bold" lengthAdjust="spacing" textLength="18" x="457.5" y="625.1348">12</text><text fill="#000000" font-family="sans-serif" font-size="13" lengthAdjust="spacing" textLength="81" x="479.5" y="625.1348">futureEntries</text><polygon fill="#181818" points="98.5,655.1875,88.5,659.1875,98.5,663.1875,94.5,659.1875" style="stroke:#181818;stroke-width:1.0;"/><line style="stroke:#181818;stroke-width:1.0;stroke-dasharray:2.0,2.0;" x1="92.5" x2="434.5" y1="659.1875" y2="659.1875"/><text fill="#000000" font-family="sans-serif" font-size="13" font-weight="bold" lengthAdjust="spacing" textLength="18" x="104.5" y="654.4453">13</text><text fill="#000000" font-family="sans-serif" font-size="13" lengthAdjust="spacing" textLength="263" x="126.5" y="654.4453">Shows the entries collected at the Agenda</text><polygon fill="#181818" points="418.5,684.498,428.5,688.498,418.5,692.498,422.5,688.498" style="stroke:#181818;stroke-width:1.0;"/><line style="stroke:#181818;stroke-width:1.0;" x1="87.5" x2="424.5" y1="688.498" y2="688.498"/><text fill="#000000" font-family="sans-serif" font-size="13" font-weight="bold" lengthAdjust="spacing" textLength="18" x="94.5" y="683.7559">14</text><text fill="#000000" font-family="sans-serif" font-size="13" lengthAdjust="spacing" textLength="198" x="116.5" y="683.7559">Selects one of the listed entries</text><polygon fill="#181818" points="98.5,713.8086,88.5,717.8086,98.5,721.8086,94.5,717.8086" style="stroke:#181818;stroke-width:1.0;"/><line style="stroke:#181818;stroke-width:1.0;stroke-dasharray:2.0,2.0;" x1="92.5" x2="434.5" y1="717.8086" y2="717.8086"/><text fill="#000000" font-family="sans-serif" font-size="13" font-weight="bold" lengthAdjust="spacing" textLength="18" x="104.5" y="713.0664">15</text><text fill="#000000" font-family="sans-serif" font-size="13" lengthAdjust="spacing" textLength="294" x="126.5" y="713.0664">Prompts the entry of a postpone date and hour</text><polygon fill="#181818" points="418.5,743.1191,428.5,747.1191,418.5,751.1191,422.5,747.1191" style="stroke:#181818;stroke-width:1.0;"/><line style="stroke:#181818;stroke-width:1.0;" x1="87.5" x2="424.5" y1="747.1191" y2="747.1191"/><text fill="#000000" font-family="sans-serif" font-size="13" font-weight="bold" lengthAdjust="spacing" textLength="18" x="94.5" y="742.377">16</text><text fill="#000000" font-family="sans-serif" font-size="13" lengthAdjust="spacing" textLength="232" x="116.5" y="742.377">Chooses the postpone date and hour</text><polygon fill="#181818" points="98.5,772.4297,88.5,776.4297,98.5,780.4297,94.5,776.4297" style="stroke:#181818;stroke-width:1.0;"/><line style="stroke:#181818;stroke-width:1.0;stroke-dasharray:2.0,2.0;" x1="92.5" x2="434.5" y1="776.4297" y2="776.4297"/><text fill="#000000" font-family="sans-serif" font-size="13" font-weight="bold" lengthAdjust="spacing" textLength="18" x="104.5" y="771.6875">17</text><text fill="#000000" font-family="sans-serif" font-size="13" lengthAdjust="spacing" textLength="297" x="126.5" y="771.6875">Shows selected data and requests confirmation</text><polygon fill="#181818" points="418.5,801.7402,428.5,805.7402,418.5,809.7402,422.5,805.7402" style="stroke:#181818;stroke-width:1.0;"/><line style="stroke:#181818;stroke-width:1.0;" x1="87.5" x2="424.5" y1="805.7402" y2="805.7402"/><text fill="#000000" font-family="sans-serif" font-size="13" font-weight="bold" lengthAdjust="spacing" textLength="18" x="94.5" y="800.998">18</text><text fill="#000000" font-family="sans-serif" font-size="13" lengthAdjust="spacing" textLength="89" x="116.5" y="800.998">Confirms data</text><polygon fill="#181818" points="906.5,831.0508,916.5,835.0508,906.5,839.0508,910.5,835.0508" style="stroke:#181818;stroke-width:1.0;"/><line style="stroke:#181818;stroke-width:1.0;" x1="440.5" x2="912.5" y1="835.0508" y2="835.0508"/><text fill="#000000" font-family="sans-serif" font-size="13" font-weight="bold" lengthAdjust="spacing" textLength="18" x="447.5" y="830.3086">19</text><text fill="#000000" font-family="sans-serif" font-size="13" lengthAdjust="spacing" textLength="437" x="469.5" y="830.3086">postponeEntryToDate(selectedEntry, selectedDateHour, futureEntries)</text><polygon fill="#181818" points="1802,860.3613,1812,864.3613,1802,868.3613,1806,864.3613" style="stroke:#181818;stroke-width:1.0;"/><line style="stroke:#181818;stroke-width:1.0;" x1="928.5" x2="1808" y1="864.3613" y2="864.3613"/><text fill="#000000" font-family="sans-serif" font-size="13" font-weight="bold" lengthAdjust="spacing" textLength="18" x="935.5" y="859.6191">20</text><text fill="#000000" font-family="sans-serif" font-size="13" lengthAdjust="spacing" textLength="365" x="957.5" y="859.6191">filterFutureEntriesByDate(futureEntries, selectedDateHour)</text><polygon fill="#181818" points="939.5,889.6719,929.5,893.6719,939.5,897.6719,935.5,893.6719" style="stroke:#181818;stroke-width:1.0;"/><line style="stroke:#181818;stroke-width:1.0;stroke-dasharray:2.0,2.0;" x1="933.5" x2="1818" y1="893.6719" y2="893.6719"/><text fill="#000000" font-family="sans-serif" font-size="13" font-weight="bold" lengthAdjust="spacing" textLength="18" x="945.5" y="888.9297">21</text><text fill="#000000" font-family="sans-serif" font-size="13" lengthAdjust="spacing" textLength="171" x="967.5" y="888.9297">futureEntriesFilteredByDate</text><polygon fill="#181818" points="1802,918.9824,1812,922.9824,1802,926.9824,1806,922.9824" style="stroke:#181818;stroke-width:1.0;"/><line style="stroke:#181818;stroke-width:1.0;" x1="928.5" x2="1808" y1="922.9824" y2="922.9824"/><text fill="#000000" font-family="sans-serif" font-size="13" font-weight="bold" lengthAdjust="spacing" textLength="18" x="935.5" y="918.2402">22</text><text fill="#000000" font-family="sans-serif" font-size="13" lengthAdjust="spacing" textLength="527" x="957.5" y="918.2402">postponeEntryToDate(selectedEntry, selectedDateHour, futureEntriesFilteredByDate)</text><line style="stroke:#181818;stroke-width:1.0;" x1="1824" x2="1866" y1="967.6035" y2="967.6035"/><line style="stroke:#181818;stroke-width:1.0;" x1="1866" x2="1866" y1="967.6035" y2="980.6035"/><line style="stroke:#181818;stroke-width:1.0;" x1="1825" x2="1866" y1="980.6035" y2="980.6035"/><polygon fill="#181818" points="1835,976.6035,1825,980.6035,1835,984.6035,1831,980.6035" style="stroke:#181818;stroke-width:1.0;"/><text fill="#000000" font-family="sans-serif" font-size="13" font-weight="bold" lengthAdjust="spacing" textLength="18" x="1831" y="955.2061">23</text><text fill="#000000" font-family="sans-serif" font-size="13" lengthAdjust="spacing" textLength="350" x="1853" y="947.5508">validateNoCollaboratorAlreadyDispached(selectedEntry,</text><text fill="#000000" font-family="sans-serif" font-size="13" lengthAdjust="spacing" textLength="295" x="1857" y="962.8613">selectedDateHour, futureEntriesFilteredByDate)</text><polygon fill="#181818" points="2198,1005.9141,2208,1009.9141,2198,1013.9141,2202,1009.9141" style="stroke:#181818;stroke-width:1.0;"/><line style="stroke:#181818;stroke-width:1.0;" x1="1824" x2="2204" y1="1009.9141" y2="1009.9141"/><text fill="#000000" font-family="sans-serif" font-size="13" font-weight="bold" lengthAdjust="spacing" textLength="18" x="1831" y="1005.1719">24</text><text fill="#000000" font-family="sans-serif" font-size="13" lengthAdjust="spacing" textLength="234" x="1853" y="1005.1719">setStatus(selectedEntry, "Postponed")</text><polygon fill="#181818" points="2198,1035.2246,2208,1039.2246,2198,1043.2246,2202,1039.2246" style="stroke:#181818;stroke-width:1.0;"/><line style="stroke:#181818;stroke-width:1.0;" x1="1824" x2="2204" y1="1039.2246" y2="1039.2246"/><text fill="#000000" font-family="sans-serif" font-size="13" font-weight="bold" lengthAdjust="spacing" textLength="18" x="1831" y="1034.4824">25</text><text fill="#000000" font-family="sans-serif" font-size="13" lengthAdjust="spacing" textLength="158" x="1853" y="1034.4824">cloneEntry(selectedEntry)</text><polygon fill="#181818" points="1835,1064.5352,1825,1068.5352,1835,1072.5352,1831,1068.5352" style="stroke:#181818;stroke-width:1.0;"/><line style="stroke:#181818;stroke-width:1.0;stroke-dasharray:2.0,2.0;" x1="1829" x2="2214" y1="1068.5352" y2="1068.5352"/><text fill="#000000" font-family="sans-serif" font-size="13" font-weight="bold" lengthAdjust="spacing" textLength="18" x="1841" y="1063.793">26</text><text fill="#000000" font-family="sans-serif" font-size="13" lengthAdjust="spacing" textLength="82" x="1863" y="1063.793">clonnedEntry</text><polygon fill="#181818" points="2198,1093.8457,2208,1097.8457,2198,1101.8457,2202,1097.8457" style="stroke:#181818;stroke-width:1.0;"/><line style="stroke:#181818;stroke-width:1.0;" x1="1824" x2="2204" y1="1097.8457" y2="1097.8457"/><text fill="#000000" font-family="sans-serif" font-size="13" font-weight="bold" lengthAdjust="spacing" textLength="18" x="1831" y="1093.1035">27</text><text fill="#000000" font-family="sans-serif" font-size="13" lengthAdjust="spacing" textLength="227" x="1853" y="1093.1035">setDate(clonnedEntry, selectedDate)</text><polygon fill="#181818" points="2198,1123.1563,2208,1127.1563,2198,1131.1563,2202,1127.1563" style="stroke:#181818;stroke-width:1.0;"/><line style="stroke:#181818;stroke-width:1.0;" x1="1824" x2="2204" y1="1127.1563" y2="1127.1563"/><text fill="#000000" font-family="sans-serif" font-size="13" font-weight="bold" lengthAdjust="spacing" textLength="18" x="1831" y="1122.4141">28</text><text fill="#000000" font-family="sans-serif" font-size="13" lengthAdjust="spacing" textLength="215" x="1853" y="1122.4141">setStatus(clonnedEntry, "Planned")</text><polygon fill="#181818" points="1835,1152.4668,1825,1156.4668,1835,1160.4668,1831,1156.4668" style="stroke:#181818;stroke-width:1.0;"/><line style="stroke:#181818;stroke-width:1.0;stroke-dasharray:2.0,2.0;" x1="1829" x2="2214" y1="1156.4668" y2="1156.4668"/><text fill="#000000" font-family="sans-serif" font-size="13" font-weight="bold" lengthAdjust="spacing" textLength="18" x="1841" y="1151.7246">29</text><text fill="#000000" font-family="sans-serif" font-size="13" lengthAdjust="spacing" textLength="99" x="1863" y="1151.7246">postponedEntry</text><polygon fill="#181818" points="939.5,1181.7773,929.5,1185.7773,939.5,1189.7773,935.5,1185.7773" style="stroke:#181818;stroke-width:1.0;"/><line style="stroke:#181818;stroke-width:1.0;stroke-dasharray:2.0,2.0;" x1="933.5" x2="1818" y1="1185.7773" y2="1185.7773"/><text fill="#000000" font-family="sans-serif" font-size="13" font-weight="bold" lengthAdjust="spacing" textLength="18" x="945.5" y="1181.0352">30</text><text fill="#000000" font-family="sans-serif" font-size="13" lengthAdjust="spacing" textLength="99" x="967.5" y="1181.0352">postponedEntry</text><polygon fill="#181818" points="1363,1211.0879,1373,1215.0879,1363,1219.0879,1367,1215.0879" style="stroke:#181818;stroke-width:1.0;"/><line style="stroke:#181818;stroke-width:1.0;" x1="928.5" x2="1369" y1="1215.0879" y2="1215.0879"/><text fill="#000000" font-family="sans-serif" font-size="13" font-weight="bold" lengthAdjust="spacing" textLength="18" x="935.5" y="1210.3457">31</text><text fill="#000000" font-family="sans-serif" font-size="13" lengthAdjust="spacing" textLength="162" x="957.5" y="1210.3457">addEntry(postponedEntry)</text><polygon fill="#181818" points="939.5,1240.3984,929.5,1244.3984,939.5,1248.3984,935.5,1244.3984" style="stroke:#181818;stroke-width:1.0;"/><line style="stroke:#181818;stroke-width:1.0;stroke-dasharray:2.0,2.0;" x1="933.5" x2="1379" y1="1244.3984" y2="1244.3984"/><text fill="#000000" font-family="sans-serif" font-size="13" font-weight="bold" lengthAdjust="spacing" textLength="18" x="945.5" y="1239.6563">32</text><text fill="#000000" font-family="sans-serif" font-size="13" lengthAdjust="spacing" textLength="99" x="967.5" y="1239.6563">postponedEntry</text><polygon fill="#181818" points="451.5,1269.709,441.5,1273.709,451.5,1277.709,447.5,1273.709" style="stroke:#181818;stroke-width:1.0;"/><line style="stroke:#181818;stroke-width:1.0;stroke-dasharray:2.0,2.0;" x1="445.5" x2="922.5" y1="1273.709" y2="1273.709"/><text fill="#000000" font-family="sans-serif" font-size="13" font-weight="bold" lengthAdjust="spacing" textLength="18" x="457.5" y="1268.9668">33</text><text fill="#000000" font-family="sans-serif" font-size="13" lengthAdjust="spacing" textLength="99" x="479.5" y="1268.9668">postponedEntry</text><polygon fill="#181818" points="93.5,1299.0195,83.5,1303.0195,93.5,1307.0195,89.5,1303.0195" style="stroke:#181818;stroke-width:1.0;"/><line style="stroke:#181818;stroke-width:1.0;stroke-dasharray:2.0,2.0;" x1="87.5" x2="434.5" y1="1303.0195" y2="1303.0195"/><text fill="#000000" font-family="sans-serif" font-size="13" font-weight="bold" lengthAdjust="spacing" textLength="18" x="99.5" y="1298.2773">34</text><text fill="#000000" font-family="sans-serif" font-size="13" lengthAdjust="spacing" textLength="231" x="121.5" y="1298.2773">Displays operation success message</text><!--SRC=[hLVRRjim37ttLn1vMJki_O006v1rwUMXNL6tRmC6rMPieOxaIVBM_Fqe-IhVucxLGnlRvE7H4KdJ-eMBd2csXxqKCagLt2COLM2WcoSvYrvOWg4vP0WA8yD4adKDTCfY-OUB17OiqnW4h31I5FjdL47m8UKnmavAyonV0nOPgM1rfH05X8ICSCi4eQiLC0rNuMr0c8P7F6V2m6fzBxN9fS1DWY9cMs7KuUd6sJxT73UzaFHNPba57pMNFTS7pANcH8sZTfQQsptIBdn3rR7x8OPkzDntO8vBOtSWfqtlbdFis_LG2fEYe6jck1G-siGZXxfvUhp- -R2z_-x35HfLY5gJ0o4yjLUbhk73pt0RXZVVxtmttEUPF22I3sohtyxZzkgXfwSJtpr3-oi80Y4D9GzFKWDovyuPQ9t1OufW-G0d4JA5B3v09fC4O-02c06JqXDjC3-lFFmTWyPV1GhA8pB3rpnZN3XVPytQn_WQeShDUK12WsNJvzGUUHadhAy9sTqYFiIquq_9p7ypmh3RSIPsqGMSVQ7qXFL6lsWm4l8gCu69KX3OKQ7HrX3AR6Yz6qnAx-QcNOH7g6q6V_m8QuX8CCjapf3CMCKZuzgug9O4vUo0HXUdOTAf6i_0hauO2jf8I34JD3T2Kw-8yEHquDU0jweFREng4S-yJQsXMue3rnYN19WbNsVu9KbKbGVjOu3Xvr17gh7Ts7IdDDsZIMNi9UoeEILSZ8Rnp9M2g5DuNAWwpsFE4chAvmEhDc__vJ2c3eB4glj2y2x7GETQ7a2_JyvbaUsxex9Oj7xc37hj3ErHO9zm7wvaVrcOGk6shBElXz0mK-WJxVvzNjrdJD2fhsQsD60vkhz1yC7fxBf4Peze675svrMFwmMOm9xg8RPP4P3jcMi8K_b7U_qfiYwHeOREZDSkWv4OtOxPQS8XMWWDjlzIYLeKsmS94yT4cMp0Fjqrt5DZo4tBzs3HMTlhOwSf5LqgYzwkZvE6YrHAZINw4iZPzqP5kTHNOoKfeJ67fcplqCRDHpkkzkx5-dR6fRDsk3FaZhsiwjsw6U9HVYE_avgpk_UfsO9zTarIVFAJy7IcnIr_cT5KOxERPmPLhveT9o_aaDFfHC7MHEpGD6fXbuqzNycNZXV69PbnfCwXkMYBDlp_yllK5kamBqHDxJVBk2s1Etb1fDcpL8pwrAQS6hznJPyJASOzjZ_4k_3ja2cBVQtHr5tTbsTLVuZO_Zu9rWXGJSWmi_p0KLOVZnzv9bZfULOgIMCZ8OZAQzAdaprlfaZQkCJf1lBpPhaoRufQdOWVT-PrEobIfn8gdTv1gD6oNXAcNybJ0OvE9YmkmvpuKPUSnhA1PFbWyW_oBgSmDgWS2xXWNEcFBBRfPEn0mqMEgleUBQA8FXTeoDUQ-Cw-HZkNzXFoBm00]--></g></svg>