<?xml version="1.0" encoding="us-ascii" standalone="no"?><svg xmlns="http://www.w3.org/2000/svg" xmlns:xlink="http://www.w3.org/1999/xlink" contentStyleType="text/css" height="1384px" preserveAspectRatio="none" style="width:896px;height:1384px;background:#FFFFFF;" version="1.1" viewBox="0 0 896 1384" width="896px" zoomAndPan="magnify"><defs/><g><!--class ListVehiclesWithPendingMaintenanceController--><g id="elem_ListVehiclesWithPendingMaintenanceController"><rect codeLine="11" fill="#F1F1F1" height="103.8633" id="ListVehiclesWithPendingMaintenanceController" rx="2.5" ry="2.5" style="stroke:#181818;stroke-width:0.5;" width="447" x="274.5" y="135"/><ellipse cx="344.75" cy="151" fill="#ADD1B2" rx="11" ry="11" style="stroke:#181818;stroke-width:1.0;"/><path d="M347.5156,146.875 Q347.6719,146.6563 347.8594,146.5469 Q348.0469,146.4375 348.2656,146.4375 Q348.6406,146.4375 348.875,146.7031 Q349.1094,146.9531 349.1094,147.5625 L349.1094,149.0156 Q349.1094,149.625 348.875,149.8906 Q348.6406,150.1563 348.2656,150.1563 Q347.9219,150.1563 347.7188,149.9531 Q347.5156,149.7656 347.4063,149.25 Q347.3594,148.8906 347.1719,148.7031 Q346.8438,148.3281 346.2344,148.1094 Q345.625,147.8906 345,147.8906 Q344.2344,147.8906 343.5938,148.2188 Q342.9688,148.5469 342.4688,149.2969 Q341.9844,150.0469 341.9844,151.0781 L341.9844,152.1719 Q341.9844,153.4063 342.875,154.2344 Q343.7656,155.0469 345.3594,155.0469 Q346.2969,155.0469 346.9531,154.7969 Q347.3438,154.6406 347.7656,154.2031 Q348.0313,153.9375 348.1719,153.8594 Q348.3281,153.7813 348.5313,153.7813 Q348.8594,153.7813 349.1094,154.0469 Q349.375,154.2969 349.375,154.6406 Q349.375,154.9844 349.0313,155.3906 Q348.5313,155.9688 347.7344,156.2969 Q346.6563,156.75 345.3594,156.75 Q343.8438,156.75 342.6406,156.125 Q341.6563,155.625 340.9688,154.5625 Q340.2813,153.4844 340.2813,152.2031 L340.2813,151.0469 Q340.2813,149.7188 340.8906,148.5781 Q341.5156,147.4219 342.6094,146.8125 Q343.7031,146.1875 344.9375,146.1875 Q345.6719,146.1875 346.3125,146.3594 Q346.9688,146.5156 347.5156,146.875 Z " fill="#000000"/><text fill="#000000" font-family="sans-serif" font-size="14" lengthAdjust="spacing" textLength="298" x="365.25" y="156.7969">ListVehiclesWithPendingMaintenanceController</text><line style="stroke:#181818;stroke-width:0.5;" x1="275.5" x2="720.5" y1="167" y2="167"/><text fill="#000000" font-family="sans-serif" font-size="14" lengthAdjust="spacing" textLength="257" x="280.5" y="186.1074">-vehiclesRepository : VehiclesRepository</text><line style="stroke:#181818;stroke-width:0.5;" x1="275.5" x2="720.5" y1="193.6211" y2="193.6211"/><text fill="#000000" font-family="sans-serif" font-size="14" lengthAdjust="spacing" textLength="435" x="280.5" y="212.7285">+ListVehiclesWithPendingMaintenanceController(vehiclesRepository)</text><text fill="#000000" font-family="sans-serif" font-size="14" lengthAdjust="spacing" textLength="294" x="280.5" y="231.3496">+createVehiclesWithPendingMaintenanceList()</text></g><!--class ListVehiclesWithPendingMaintenanceUI--><g id="elem_ListVehiclesWithPendingMaintenanceUI"><rect codeLine="20" fill="#F1F1F1" height="66.6211" id="ListVehiclesWithPendingMaintenanceUI" rx="2.5" ry="2.5" style="stroke:#181818;stroke-width:0.5;" width="280" x="358" y="7"/><ellipse cx="373" cy="23" fill="#ADD1B2" rx="11" ry="11" style="stroke:#181818;stroke-width:1.0;"/><path d="M375.7656,18.875 Q375.9219,18.6563 376.1094,18.5469 Q376.2969,18.4375 376.5156,18.4375 Q376.8906,18.4375 377.125,18.7031 Q377.3594,18.9531 377.3594,19.5625 L377.3594,21.0156 Q377.3594,21.625 377.125,21.8906 Q376.8906,22.1563 376.5156,22.1563 Q376.1719,22.1563 375.9688,21.9531 Q375.7656,21.7656 375.6563,21.25 Q375.6094,20.8906 375.4219,20.7031 Q375.0938,20.3281 374.4844,20.1094 Q373.875,19.8906 373.25,19.8906 Q372.4844,19.8906 371.8438,20.2188 Q371.2188,20.5469 370.7188,21.2969 Q370.2344,22.0469 370.2344,23.0781 L370.2344,24.1719 Q370.2344,25.4063 371.125,26.2344 Q372.0156,27.0469 373.6094,27.0469 Q374.5469,27.0469 375.2031,26.7969 Q375.5938,26.6406 376.0156,26.2031 Q376.2813,25.9375 376.4219,25.8594 Q376.5781,25.7813 376.7813,25.7813 Q377.1094,25.7813 377.3594,26.0469 Q377.625,26.2969 377.625,26.6406 Q377.625,26.9844 377.2813,27.3906 Q376.7813,27.9688 375.9844,28.2969 Q374.9063,28.75 373.6094,28.75 Q372.0938,28.75 370.8906,28.125 Q369.9063,27.625 369.2188,26.5625 Q368.5313,25.4844 368.5313,24.2031 L368.5313,23.0469 Q368.5313,21.7188 369.1406,20.5781 Q369.7656,19.4219 370.8594,18.8125 Q371.9531,18.1875 373.1875,18.1875 Q373.9219,18.1875 374.5625,18.3594 Q375.2188,18.5156 375.7656,18.875 Z " fill="#000000"/><text fill="#000000" font-family="sans-serif" font-size="14" lengthAdjust="spacing" textLength="248" x="387" y="28.7969">ListVehiclesWithPendingMaintenanceUI</text><line style="stroke:#181818;stroke-width:0.5;" x1="359" x2="637" y1="39" y2="39"/><line style="stroke:#181818;stroke-width:0.5;" x1="359" x2="637" y1="47" y2="47"/><text fill="#000000" font-family="sans-serif" font-size="14" lengthAdjust="spacing" textLength="39" x="364" y="66.1074">+run()</text></g><!--class Repositories--><g id="elem_Repositories"><rect codeLine="25" fill="#F1F1F1" height="196.9688" id="Repositories" rx="2.5" ry="2.5" style="stroke:#181818;stroke-width:0.5;" width="288" x="7" y="318"/><ellipse cx="107.25" cy="334" fill="#ADD1B2" rx="11" ry="11" style="stroke:#181818;stroke-width:1.0;"/><path d="M110.0156,329.875 Q110.1719,329.6563 110.3594,329.5469 Q110.5469,329.4375 110.7656,329.4375 Q111.1406,329.4375 111.375,329.7031 Q111.6094,329.9531 111.6094,330.5625 L111.6094,332.0156 Q111.6094,332.625 111.375,332.8906 Q111.1406,333.1563 110.7656,333.1563 Q110.4219,333.1563 110.2188,332.9531 Q110.0156,332.7656 109.9063,332.25 Q109.8594,331.8906 109.6719,331.7031 Q109.3438,331.3281 108.7344,331.1094 Q108.125,330.8906 107.5,330.8906 Q106.7344,330.8906 106.0938,331.2188 Q105.4688,331.5469 104.9688,332.2969 Q104.4844,333.0469 104.4844,334.0781 L104.4844,335.1719 Q104.4844,336.4063 105.375,337.2344 Q106.2656,338.0469 107.8594,338.0469 Q108.7969,338.0469 109.4531,337.7969 Q109.8438,337.6406 110.2656,337.2031 Q110.5313,336.9375 110.6719,336.8594 Q110.8281,336.7813 111.0313,336.7813 Q111.3594,336.7813 111.6094,337.0469 Q111.875,337.2969 111.875,337.6406 Q111.875,337.9844 111.5313,338.3906 Q111.0313,338.9688 110.2344,339.2969 Q109.1563,339.75 107.8594,339.75 Q106.3438,339.75 105.1406,339.125 Q104.1563,338.625 103.4688,337.5625 Q102.7813,336.4844 102.7813,335.2031 L102.7813,334.0469 Q102.7813,332.7188 103.3906,331.5781 Q104.0156,330.4219 105.1094,329.8125 Q106.2031,329.1875 107.4375,329.1875 Q108.1719,329.1875 108.8125,329.3594 Q109.4688,329.5156 110.0156,329.875 Z " fill="#000000"/><text fill="#000000" font-family="sans-serif" font-size="14" lengthAdjust="spacing" textLength="79" x="127.75" y="339.7969">Repositories</text><line style="stroke:#181818;stroke-width:0.5;" x1="8" x2="294" y1="350" y2="350"/><text fill="#000000" font-family="sans-serif" font-size="14" lengthAdjust="spacing" textLength="149" x="13" y="369.1074">-instance : Repositories</text><text fill="#000000" font-family="sans-serif" font-size="14" lengthAdjust="spacing" textLength="178" x="13" y="387.7285">-Repository : SkillRepository</text><text fill="#000000" font-family="sans-serif" font-size="14" lengthAdjust="spacing" textLength="194" x="13" y="406.3496">-jobRepository : JobRepository</text><text fill="#000000" font-family="sans-serif" font-size="14" lengthAdjust="spacing" textLength="276" x="13" y="424.9707">-employeeRepository : EmployeeRepository</text><line style="stroke:#181818;stroke-width:0.5;" x1="8" x2="294" y1="432.4844" y2="432.4844"/><text fill="#000000" font-family="sans-serif" font-size="14" lengthAdjust="spacing" textLength="182" x="13" y="451.5918">+getInstance() : Repositories</text><text fill="#000000" font-family="sans-serif" font-size="14" lengthAdjust="spacing" textLength="131" x="13" y="470.2129">+getSkillRepository()</text><text fill="#000000" font-family="sans-serif" font-size="14" lengthAdjust="spacing" textLength="128" x="13" y="488.834">+getJobRepository()</text><text fill="#000000" font-family="sans-serif" font-size="14" lengthAdjust="spacing" textLength="168" x="13" y="507.4551">+getEmployeeRepository()</text></g><!--class VehiclesRepository--><g id="elem_VehiclesRepository"><rect codeLine="38" fill="#F1F1F1" height="85.2422" id="VehiclesRepository" rx="2.5" ry="2.5" style="stroke:#181818;stroke-width:0.5;" width="280" x="287" y="576"/><ellipse cx="362.25" cy="592" fill="#ADD1B2" rx="11" ry="11" style="stroke:#181818;stroke-width:1.0;"/><path d="M365.0156,587.875 Q365.1719,587.6563 365.3594,587.5469 Q365.5469,587.4375 365.7656,587.4375 Q366.1406,587.4375 366.375,587.7031 Q366.6094,587.9531 366.6094,588.5625 L366.6094,590.0156 Q366.6094,590.625 366.375,590.8906 Q366.1406,591.1563 365.7656,591.1563 Q365.4219,591.1563 365.2188,590.9531 Q365.0156,590.7656 364.9063,590.25 Q364.8594,589.8906 364.6719,589.7031 Q364.3438,589.3281 363.7344,589.1094 Q363.125,588.8906 362.5,588.8906 Q361.7344,588.8906 361.0938,589.2188 Q360.4688,589.5469 359.9688,590.2969 Q359.4844,591.0469 359.4844,592.0781 L359.4844,593.1719 Q359.4844,594.4063 360.375,595.2344 Q361.2656,596.0469 362.8594,596.0469 Q363.7969,596.0469 364.4531,595.7969 Q364.8438,595.6406 365.2656,595.2031 Q365.5313,594.9375 365.6719,594.8594 Q365.8281,594.7813 366.0313,594.7813 Q366.3594,594.7813 366.6094,595.0469 Q366.875,595.2969 366.875,595.6406 Q366.875,595.9844 366.5313,596.3906 Q366.0313,596.9688 365.2344,597.2969 Q364.1563,597.75 362.8594,597.75 Q361.3438,597.75 360.1406,597.125 Q359.1563,596.625 358.4688,595.5625 Q357.7813,594.4844 357.7813,593.2031 L357.7813,592.0469 Q357.7813,590.7188 358.3906,589.5781 Q359.0156,588.4219 360.1094,587.8125 Q361.2031,587.1875 362.4375,587.1875 Q363.1719,587.1875 363.8125,587.3594 Q364.4688,587.5156 365.0156,587.875 Z " fill="#000000"/><text fill="#000000" font-family="sans-serif" font-size="14" lengthAdjust="spacing" textLength="121" x="382.75" y="597.7969">VehiclesRepository</text><line style="stroke:#181818;stroke-width:0.5;" x1="288" x2="566" y1="608" y2="608"/><text fill="#000000" font-family="sans-serif" font-size="14" lengthAdjust="spacing" textLength="268" x="293" y="627.1074">+addVehiclesWithPendingMaintenanceList</text><line style="stroke:#181818;stroke-width:0.5;" x1="288" x2="566" y1="634.6211" y2="634.6211"/><text fill="#000000" font-family="sans-serif" font-size="14" lengthAdjust="spacing" textLength="207" x="293" y="653.7285">+getAllVehicles() : List&lt;vehicles&gt;</text></g><!--class AuthenticationRepository--><g id="elem_AuthenticationRepository"><rect codeLine="43" fill="#F1F1F1" height="66.6211" id="AuthenticationRepository" rx="2.5" ry="2.5" style="stroke:#181818;stroke-width:0.5;" width="195" x="480.5" y="383"/><ellipse cx="497.75" cy="399" fill="#ADD1B2" rx="11" ry="11" style="stroke:#181818;stroke-width:1.0;"/><path d="M500.5156,394.875 Q500.6719,394.6563 500.8594,394.5469 Q501.0469,394.4375 501.2656,394.4375 Q501.6406,394.4375 501.875,394.7031 Q502.1094,394.9531 502.1094,395.5625 L502.1094,397.0156 Q502.1094,397.625 501.875,397.8906 Q501.6406,398.1563 501.2656,398.1563 Q500.9219,398.1563 500.7188,397.9531 Q500.5156,397.7656 500.4063,397.25 Q500.3594,396.8906 500.1719,396.7031 Q499.8438,396.3281 499.2344,396.1094 Q498.625,395.8906 498,395.8906 Q497.2344,395.8906 496.5938,396.2188 Q495.9688,396.5469 495.4688,397.2969 Q494.9844,398.0469 494.9844,399.0781 L494.9844,400.1719 Q494.9844,401.4063 495.875,402.2344 Q496.7656,403.0469 498.3594,403.0469 Q499.2969,403.0469 499.9531,402.7969 Q500.3438,402.6406 500.7656,402.2031 Q501.0313,401.9375 501.1719,401.8594 Q501.3281,401.7813 501.5313,401.7813 Q501.8594,401.7813 502.1094,402.0469 Q502.375,402.2969 502.375,402.6406 Q502.375,402.9844 502.0313,403.3906 Q501.5313,403.9688 500.7344,404.2969 Q499.6563,404.75 498.3594,404.75 Q496.8438,404.75 495.6406,404.125 Q494.6563,403.625 493.9688,402.5625 Q493.2813,401.4844 493.2813,400.2031 L493.2813,399.0469 Q493.2813,397.7188 493.8906,396.5781 Q494.5156,395.4219 495.6094,394.8125 Q496.7031,394.1875 497.9375,394.1875 Q498.6719,394.1875 499.3125,394.3594 Q499.9688,394.5156 500.5156,394.875 Z " fill="#000000"/><text fill="#000000" font-family="sans-serif" font-size="14" lengthAdjust="spacing" textLength="158" x="512.25" y="404.7969">AuthenticationRepository</text><line style="stroke:#181818;stroke-width:0.5;" x1="481.5" x2="674.5" y1="415" y2="415"/><line style="stroke:#181818;stroke-width:0.5;" x1="481.5" x2="674.5" y1="423" y2="423"/><text fill="#000000" font-family="sans-serif" font-size="14" lengthAdjust="spacing" textLength="183" x="486.5" y="442.1074">+getEmployeeFromSession()</text></g><!--class Vehicle--><g id="elem_Vehicle"><rect codeLine="47" fill="#F1F1F1" height="327.3164" id="Vehicle" rx="2.5" ry="2.5" style="stroke:#181818;stroke-width:0.5;" width="330" x="325" y="722"/><ellipse cx="462.75" cy="738" fill="#ADD1B2" rx="11" ry="11" style="stroke:#181818;stroke-width:1.0;"/><path d="M465.5156,733.875 Q465.6719,733.6563 465.8594,733.5469 Q466.0469,733.4375 466.2656,733.4375 Q466.6406,733.4375 466.875,733.7031 Q467.1094,733.9531 467.1094,734.5625 L467.1094,736.0156 Q467.1094,736.625 466.875,736.8906 Q466.6406,737.1563 466.2656,737.1563 Q465.9219,737.1563 465.7188,736.9531 Q465.5156,736.7656 465.4063,736.25 Q465.3594,735.8906 465.1719,735.7031 Q464.8438,735.3281 464.2344,735.1094 Q463.625,734.8906 463,734.8906 Q462.2344,734.8906 461.5938,735.2188 Q460.9688,735.5469 460.4688,736.2969 Q459.9844,737.0469 459.9844,738.0781 L459.9844,739.1719 Q459.9844,740.4063 460.875,741.2344 Q461.7656,742.0469 463.3594,742.0469 Q464.2969,742.0469 464.9531,741.7969 Q465.3438,741.6406 465.7656,741.2031 Q466.0313,740.9375 466.1719,740.8594 Q466.3281,740.7813 466.5313,740.7813 Q466.8594,740.7813 467.1094,741.0469 Q467.375,741.2969 467.375,741.6406 Q467.375,741.9844 467.0313,742.3906 Q466.5313,742.9688 465.7344,743.2969 Q464.6563,743.75 463.3594,743.75 Q461.8438,743.75 460.6406,743.125 Q459.6563,742.625 458.9688,741.5625 Q458.2813,740.4844 458.2813,739.2031 L458.2813,738.0469 Q458.2813,736.7188 458.8906,735.5781 Q459.5156,734.4219 460.6094,733.8125 Q461.7031,733.1875 462.9375,733.1875 Q463.6719,733.1875 464.3125,733.3594 Q464.9688,733.5156 465.5156,733.875 Z " fill="#000000"/><text fill="#000000" font-family="sans-serif" font-size="14" lengthAdjust="spacing" textLength="46" x="483.25" y="743.7969">Vehicle</text><line style="stroke:#181818;stroke-width:0.5;" x1="326" x2="654" y1="754" y2="754"/><text fill="#000000" font-family="sans-serif" font-size="14" lengthAdjust="spacing" textLength="83" x="331" y="773.1074">-String brand</text><text fill="#000000" font-family="sans-serif" font-size="14" lengthAdjust="spacing" textLength="84" x="331" y="791.7285">-String model</text><text fill="#000000" font-family="sans-serif" font-size="14" lengthAdjust="spacing" textLength="73" x="331" y="810.3496">-String type</text><text fill="#000000" font-family="sans-serif" font-size="14" lengthAdjust="spacing" textLength="122" x="331" y="828.9707">-Integer tareWeight</text><text fill="#000000" font-family="sans-serif" font-size="14" lengthAdjust="spacing" textLength="132" x="331" y="847.5918">-Integer grossWeight</text><text fill="#000000" font-family="sans-serif" font-size="14" lengthAdjust="spacing" textLength="126" x="331" y="866.2129">-Integer currenteKm</text><text fill="#000000" font-family="sans-serif" font-size="14" lengthAdjust="spacing" textLength="117" x="331" y="884.834">-Date registerDate</text><text fill="#000000" font-family="sans-serif" font-size="14" lengthAdjust="spacing" textLength="136" x="331" y="903.4551">-Date acquisitionDate</text><text fill="#000000" font-family="sans-serif" font-size="14" lengthAdjust="spacing" textLength="202" x="331" y="922.0762">-Integer maintenanceFrequency</text><text fill="#000000" font-family="sans-serif" font-size="14" lengthAdjust="spacing" textLength="126" x="331" y="940.6973">-String plateNumber</text><text fill="#000000" font-family="sans-serif" font-size="14" lengthAdjust="spacing" textLength="176" x="331" y="959.3184">-Integer passengersNumber</text><text fill="#000000" font-family="sans-serif" font-size="14" lengthAdjust="spacing" textLength="138" x="331" y="977.9395">-Integer doorsNumber</text><text fill="#000000" font-family="sans-serif" font-size="14" lengthAdjust="spacing" textLength="101" x="331" y="996.5605">-String fuelType</text><text fill="#000000" font-family="sans-serif" font-size="14" lengthAdjust="spacing" textLength="157" x="331" y="1015.1816">-Boolean trailerMachines</text><line style="stroke:#181818;stroke-width:0.5;" x1="326" x2="654" y1="1022.6953" y2="1022.6953"/><text fill="#000000" font-family="sans-serif" font-size="14" lengthAdjust="spacing" textLength="318" x="331" y="1041.8027">+getVehicleMaintenances() : VehicleMaintenances</text></g><!--class VehicleMaintenance--><g id="elem_VehicleMaintenance"><rect codeLine="66" fill="#F1F1F1" height="103.8633" id="VehicleMaintenance" rx="2.5" ry="2.5" style="stroke:#181818;stroke-width:0.5;" width="539" x="350.5" y="1274"/><ellipse cx="552.25" cy="1290" fill="#ADD1B2" rx="11" ry="11" style="stroke:#181818;stroke-width:1.0;"/><path d="M555.0156,1285.875 Q555.1719,1285.6563 555.3594,1285.5469 Q555.5469,1285.4375 555.7656,1285.4375 Q556.1406,1285.4375 556.375,1285.7031 Q556.6094,1285.9531 556.6094,1286.5625 L556.6094,1288.0156 Q556.6094,1288.625 556.375,1288.8906 Q556.1406,1289.1563 555.7656,1289.1563 Q555.4219,1289.1563 555.2188,1288.9531 Q555.0156,1288.7656 554.9063,1288.25 Q554.8594,1287.8906 554.6719,1287.7031 Q554.3438,1287.3281 553.7344,1287.1094 Q553.125,1286.8906 552.5,1286.8906 Q551.7344,1286.8906 551.0938,1287.2188 Q550.4688,1287.5469 549.9688,1288.2969 Q549.4844,1289.0469 549.4844,1290.0781 L549.4844,1291.1719 Q549.4844,1292.4063 550.375,1293.2344 Q551.2656,1294.0469 552.8594,1294.0469 Q553.7969,1294.0469 554.4531,1293.7969 Q554.8438,1293.6406 555.2656,1293.2031 Q555.5313,1292.9375 555.6719,1292.8594 Q555.8281,1292.7813 556.0313,1292.7813 Q556.3594,1292.7813 556.6094,1293.0469 Q556.875,1293.2969 556.875,1293.6406 Q556.875,1293.9844 556.5313,1294.3906 Q556.0313,1294.9688 555.2344,1295.2969 Q554.1563,1295.75 552.8594,1295.75 Q551.3438,1295.75 550.1406,1295.125 Q549.1563,1294.625 548.4688,1293.5625 Q547.7813,1292.4844 547.7813,1291.2031 L547.7813,1290.0469 Q547.7813,1288.7188 548.3906,1287.5781 Q549.0156,1286.4219 550.1094,1285.8125 Q551.2031,1285.1875 552.4375,1285.1875 Q553.1719,1285.1875 553.8125,1285.3594 Q554.4688,1285.5156 555.0156,1285.875 Z " fill="#000000"/><text fill="#000000" font-family="sans-serif" font-size="14" lengthAdjust="spacing" textLength="127" x="572.75" y="1295.7969">VehicleMaintenance</text><line style="stroke:#181818;stroke-width:0.5;" x1="351.5" x2="888.5" y1="1306" y2="1306"/><text fill="#000000" font-family="sans-serif" font-size="14" lengthAdjust="spacing" textLength="177" x="356.5" y="1325.1074">-maintenanceFrequency: Int</text><text fill="#000000" font-family="sans-serif" font-size="14" lengthAdjust="spacing" textLength="93" x="356.5" y="1343.7285">-currentKm: Int</text><line style="stroke:#181818;stroke-width:0.5;" x1="351.5" x2="888.5" y1="1351.2422" y2="1351.2422"/><text fill="#000000" font-family="sans-serif" font-size="14" lengthAdjust="spacing" textLength="527" x="356.5" y="1370.3496">+validateVehicleMaintenance(lastMaintenance, maintenanceFrequency, currentKm)</text></g><!--class VehicleMaintenances--><g id="elem_VehicleMaintenances"><rect codeLine="74" fill="#F1F1F1" height="66.6211" id="VehicleMaintenances" rx="2.5" ry="2.5" style="stroke:#181818;stroke-width:0.5;" width="459" x="390.5" y="1128"/><ellipse cx="548.75" cy="1144" fill="#ADD1B2" rx="11" ry="11" style="stroke:#181818;stroke-width:1.0;"/><path d="M551.5156,1139.875 Q551.6719,1139.6563 551.8594,1139.5469 Q552.0469,1139.4375 552.2656,1139.4375 Q552.6406,1139.4375 552.875,1139.7031 Q553.1094,1139.9531 553.1094,1140.5625 L553.1094,1142.0156 Q553.1094,1142.625 552.875,1142.8906 Q552.6406,1143.1563 552.2656,1143.1563 Q551.9219,1143.1563 551.7188,1142.9531 Q551.5156,1142.7656 551.4063,1142.25 Q551.3594,1141.8906 551.1719,1141.7031 Q550.8438,1141.3281 550.2344,1141.1094 Q549.625,1140.8906 549,1140.8906 Q548.2344,1140.8906 547.5938,1141.2188 Q546.9688,1141.5469 546.4688,1142.2969 Q545.9844,1143.0469 545.9844,1144.0781 L545.9844,1145.1719 Q545.9844,1146.4063 546.875,1147.2344 Q547.7656,1148.0469 549.3594,1148.0469 Q550.2969,1148.0469 550.9531,1147.7969 Q551.3438,1147.6406 551.7656,1147.2031 Q552.0313,1146.9375 552.1719,1146.8594 Q552.3281,1146.7813 552.5313,1146.7813 Q552.8594,1146.7813 553.1094,1147.0469 Q553.375,1147.2969 553.375,1147.6406 Q553.375,1147.9844 553.0313,1148.3906 Q552.5313,1148.9688 551.7344,1149.2969 Q550.6563,1149.75 549.3594,1149.75 Q547.8438,1149.75 546.6406,1149.125 Q545.6563,1148.625 544.9688,1147.5625 Q544.2813,1146.4844 544.2813,1145.2031 L544.2813,1144.0469 Q544.2813,1142.7188 544.8906,1141.5781 Q545.5156,1140.4219 546.6094,1139.8125 Q547.7031,1139.1875 548.9375,1139.1875 Q549.6719,1139.1875 550.3125,1139.3594 Q550.9688,1139.5156 551.5156,1139.875 Z " fill="#000000"/><text fill="#000000" font-family="sans-serif" font-size="14" lengthAdjust="spacing" textLength="134" x="569.25" y="1149.7969">VehicleMaintenances</text><line style="stroke:#181818;stroke-width:0.5;" x1="391.5" x2="848.5" y1="1160" y2="1160"/><line style="stroke:#181818;stroke-width:0.5;" x1="391.5" x2="848.5" y1="1168" y2="1168"/><text fill="#000000" font-family="sans-serif" font-size="14" lengthAdjust="spacing" textLength="447" x="396.5" y="1187.1074">+getVehiclesWithPendingMaintenanceList(): List&lt;VehicleMaintenance&gt;</text></g><!--link ListVehiclesWithPendingMaintenanceUI to ListVehiclesWithPendingMaintenanceController--><g id="link_ListVehiclesWithPendingMaintenanceUI_ListVehiclesWithPendingMaintenanceController"><path codeLine="80" d="M498,74.29 C498,92.19 498,108.76 498,128.91 " fill="none" id="ListVehiclesWithPendingMaintenanceUI-to-ListVehiclesWithPendingMaintenanceController" style="stroke:#181818;stroke-width:1.0;stroke-dasharray:7.0,7.0;"/><polygon fill="#181818" points="498,134.91,502,125.91,498,129.91,494,125.91,498,134.91" style="stroke:#181818;stroke-width:1.0;"/><text fill="#000000" font-family="sans-serif" font-size="13" lengthAdjust="spacing" textLength="7" x="490.3984" y="95.6445">1</text><text fill="#000000" font-family="sans-serif" font-size="13" lengthAdjust="spacing" textLength="7" x="490.5297" y="123.8253">1</text></g><!--link Vehicle to VehicleMaintenances--><g id="link_Vehicle_VehicleMaintenances"><path codeLine="82" d="M556.93,1049.21 C568.56,1077.47 577,1098 577,1098 C577,1098 583.6912,1107.7155 594.0912,1122.8455 " fill="none" id="Vehicle-to-VehicleMaintenances" style="stroke:#181818;stroke-width:1.0;"/><polygon fill="#181818" points="597.49,1127.79,595.6882,1118.1074,594.6577,1123.6696,589.0955,1122.639,597.49,1127.79" style="stroke:#181818;stroke-width:1.0;"/><text fill="#000000" font-family="sans-serif" font-size="13" lengthAdjust="spacing" textLength="124" x="578" y="1094.0283">VehicleMaintenances</text><text fill="#000000" font-family="sans-serif" font-size="13" lengthAdjust="spacing" textLength="7" x="553.0024" y="1071.5791">1</text><text fill="#000000" font-family="sans-serif" font-size="13" lengthAdjust="spacing" textLength="7" x="585.5318" y="1116.8359">1</text></g><!--link VehicleMaintenances to VehicleMaintenance--><g id="link_VehicleMaintenances_VehicleMaintenance"><path codeLine="84" d="M620,1195.38 C620,1217.92 620,1242.26 620,1267.92 " fill="none" id="VehicleMaintenances-to-VehicleMaintenance" style="stroke:#181818;stroke-width:1.0;"/><polygon fill="#181818" points="620,1273.92,624,1264.92,620,1268.92,616,1264.92,620,1273.92" style="stroke:#181818;stroke-width:1.0;"/><text fill="#000000" font-family="sans-serif" font-size="13" lengthAdjust="spacing" textLength="153" x="621" y="1240.0283">arrayVehicleMaintenances</text><text fill="#000000" font-family="sans-serif" font-size="13" lengthAdjust="spacing" textLength="7" x="612.3984" y="1216.75">1</text><text fill="#000000" font-family="sans-serif" font-size="13" lengthAdjust="spacing" textLength="5" x="614.6641" y="1262.8366">*</text></g><!--link Repositories to Repositories--><g id="link_Repositories_Repositories"><path codeLine="86" d="M295.32,394.9 C316.06,398.36 330,405.56 330,416.5 C330,427.44 321.9782,433.6527 301.2382,437.1127 " fill="none" id="Repositories-to-Repositories" style="stroke:#181818;stroke-width:1.0;"/><polygon fill="#181818" points="295.32,438.1,304.8555,440.5645,300.2518,437.2772,303.5391,432.6735,295.32,438.1" style="stroke:#181818;stroke-width:1.0;"/><text fill="#000000" font-family="sans-serif" font-size="13" lengthAdjust="spacing" textLength="49" x="336" y="422.0283">instance</text></g><!--link Repositories to VehiclesRepository--><g id="link_Repositories_VehiclesRepository"><path codeLine="87" d="M285.77,515.16 C315.32,536.57 340.2217,554.6191 364.7417,572.3891 " fill="none" id="Repositories-to-VehiclesRepository" style="stroke:#181818;stroke-width:1.0;"/><polygon fill="#181818" points="369.6,575.91,364.6598,567.3898,365.5514,572.9759,359.9653,573.8675,369.6,575.91" style="stroke:#181818;stroke-width:1.0;"/><text fill="#000000" font-family="sans-serif" font-size="13" lengthAdjust="spacing" textLength="7" x="288.4101" y="537.0697">1</text><text fill="#000000" font-family="sans-serif" font-size="13" lengthAdjust="spacing" textLength="7" x="352.8941" y="564.7997">1</text></g><!--link VehiclesRepository to Vehicle--><g id="link_VehiclesRepository_Vehicle"><path codeLine="89" d="M436.91,661.2 C441,678.4 444.6425,693.6926 449.9525,716.0326 " fill="none" id="VehiclesRepository-to-Vehicle" style="stroke:#181818;stroke-width:1.0;"/><polygon fill="#181818" points="451.34,721.87,453.1504,712.189,450.1838,717.0055,445.3672,714.0389,451.34,721.87" style="stroke:#181818;stroke-width:1.0;"/></g><!--link ListVehiclesWithPendingMaintenanceController to VehicleMaintenances--><g id="link_ListVehiclesWithPendingMaintenanceController_VehicleMaintenances"><path codeLine="91" d="M609.59,239.07 C644.94,255.24 675,269 675,269 C675,269 729,415.5 729,415.5 C729,415.5 729,415.5 729,886.5 C729,886.5 707,1098 707,1098 C707,1098 691.2926,1109.2788 670.1526,1124.4688 " fill="none" id="ListVehiclesWithPendingMaintenanceController-to-VehicleMaintenances" style="stroke:#181818;stroke-width:1.0;stroke-dasharray:7.0,7.0;"/><polygon fill="#181818" points="665.28,1127.97,674.923,1125.9667,669.3405,1125.0524,670.2548,1119.4699,665.28,1127.97" style="stroke:#181818;stroke-width:1.0;"/><text fill="#000000" font-family="sans-serif" font-size="13" lengthAdjust="spacing" textLength="120" x="730" y="624.0283">vehicleMaintenances</text></g><!--link ListVehiclesWithPendingMaintenanceController to VehiclesRepository--><g id="link_ListVehiclesWithPendingMaintenanceController_VehiclesRepository"><path codeLine="92" d="M484.27,239.01 C474.46,275.43 463,318 463,318 C463,318 442.6159,487.6029 432.7259,569.9029 " fill="none" id="ListVehiclesWithPendingMaintenanceController-to-VehiclesRepository" style="stroke:#181818;stroke-width:1.0;stroke-dasharray:7.0,7.0;"/><polygon fill="#181818" points="432.01,575.86,437.0552,567.4015,432.6066,570.8957,429.1124,566.447,432.01,575.86" style="stroke:#181818;stroke-width:1.0;"/></g><!--link ListVehiclesWithPendingMaintenanceController to Repositories--><g id="link_ListVehiclesWithPendingMaintenanceController_Repositories"><path codeLine="93" d="M393.34,239.07 C360.19,255.24 332,269 332,269 C332,269 309.4531,287.2444 276.1431,314.2144 " fill="none" id="ListVehiclesWithPendingMaintenanceController-to-Repositories" style="stroke:#181818;stroke-width:1.0;stroke-dasharray:7.0,7.0;"/><polygon fill="#181818" points="271.48,317.99,280.9918,315.4354,275.366,314.8437,275.9577,309.2178,271.48,317.99" style="stroke:#181818;stroke-width:1.0;"/><text fill="#000000" font-family="sans-serif" font-size="13" lengthAdjust="spacing" textLength="67" x="333" y="284.0283">repositories</text><text fill="#000000" font-family="sans-serif" font-size="13" lengthAdjust="spacing" textLength="7" x="372.482" y="260.8863">1</text><text fill="#000000" font-family="sans-serif" font-size="13" lengthAdjust="spacing" textLength="7" x="273.4363" y="306.8377">1</text></g><!--link ListVehiclesWithPendingMaintenanceController to AuthenticationRepository--><g id="link_ListVehiclesWithPendingMaintenanceController_AuthenticationRepository"><path codeLine="94" d="M515.95,239.06 C531.43,283.07 551.3303,339.6495 564.5403,377.2295 " fill="none" id="ListVehiclesWithPendingMaintenanceController-to-AuthenticationRepository" style="stroke:#181818;stroke-width:1.0;"/><polygon fill="#181818" points="566.53,382.89,567.319,373.0728,564.8719,378.1729,559.7717,375.7258,566.53,382.89" style="stroke:#181818;stroke-width:1.0;"/><text fill="#000000" font-family="sans-serif" font-size="13" lengthAdjust="spacing" textLength="134" x="532" y="284.0283">getCurrentUserSession</text><text fill="#000000" font-family="sans-serif" font-size="13" lengthAdjust="spacing" textLength="7" x="510.8014" y="260.875">1</text><text fill="#000000" font-family="sans-serif" font-size="13" lengthAdjust="spacing" textLength="7" x="556.5828" y="371.6939">1</text></g><!--SRC=[dLNVRzem47xtNs7r1HYbsbxHXCIwLM9TfscixRDnZiJ3iLFROSgg_U-x44CSudOmNi3tu_Dtd- -EWTq8LJ33SffhfNbcT0xKcH98woaOtx0KbgwIG0rmnrGgmm2RiKJ_4YgbQoPjw952WQiAe8MMLNqWWuXJ6wT9aCKbitRkd16hqi62QxKKlu6-9MGWOUseqzI8D7Cq4JKTeHKXknpwHLZt09dW4koZSDatK0dokcD2EL1CSRZMoXaj9HZwJ2X-9biV_nqARONJfg9J-j0pabtq-9mRXdteKOD2kG7cu7MW-ghXY90_vFJoxXU-hB4f5IQtkGSE0gold0fbNPs51OTkx-q8ijm8AGCrcf2VUjM9-XoUVGpaXTGLG2VmKyz8lC0q1RVml8QZ6BDTo16VuQXrTKY4ZlwbZKADGFqdzqfYvbpAlNl7gNw8z_lNdJLXB4d-_PxjTVFIPQ2SuAnkuDwb8TyRdCebM8jn4SBxFgPB71YSmPLXAkcQSfs0x9hgmVEM1H9CSHuSC_08zM0TELAZhOrwU6aC5W6tkNTynAx67P5YgM3gGsXd_AaKM2NM4RZsM7chr8s1fn8KhxgS2ubPNyjy1UOejq0zGE4l6tKdMXzvFEAw1FcZLUA3rXAOmWN81Cxl7UCPxYXB3dtW9GyUjUc7YBttJe7pcKnYrKvhmcJYHRtDcpCPRvaKIRik0g0XNk22ysLKnKjwW6pMoKkyS344LRwwblmCz35cpS8wQLLTlBkWLrUptVSvYvMGVU_NcPD9Wn2f9_uo969iaTx4aAQK6SEgA5gue2WYTCxJmvBjnaM8T_vi-hPTk3UVec_mJrTh7AjvIhUHWluNEkH_5aRO1aVYcN3vdmsw5_YbNOiNOBjVDyDnRy7uBKl-0W00]--></g></svg>