<?xml version="1.0" encoding="us-ascii" standalone="no"?><svg xmlns="http://www.w3.org/2000/svg" xmlns:xlink="http://www.w3.org/1999/xlink" contentStyleType="text/css" height="391px" preserveAspectRatio="none" style="width:621px;height:391px;background:#FFFFFF;" version="1.1" viewBox="0 0 621 391" width="621px" zoomAndPan="magnify"><defs/><g><rect fill="#FFFFFF" height="227.0371" style="stroke:#181818;stroke-width:1.0;" width="10" x="198" y="90.5332"/><rect fill="#FFFFFF" height="93.873" style="stroke:#181818;stroke-width:1.0;" width="10" x="415" y="166.1152"/><rect fill="#FFFFFF" height="31.291" style="stroke:#181818;stroke-width:1.0;" width="10" x="561.5" y="197.4063"/><line style="stroke:#181818;stroke-width:0.5;stroke-dasharray:5.0,5.0;" x1="202.5" x2="202.5" y1="57.2422" y2="335.5703"/><line style="stroke:#181818;stroke-width:0.5;stroke-dasharray:5.0,5.0;" x1="420" x2="420" y1="57.2422" y2="335.5703"/><line style="stroke:#181818;stroke-width:0.5;stroke-dasharray:5.0,5.0;" x1="566" x2="566" y1="57.2422" y2="335.5703"/><rect fill="#E3E3E3" height="51.2422" rx="2.5" ry="2.5" style="stroke:#181818;stroke-width:0.5;" width="97" x="154.5" y="5"/><text fill="#000000" font-family="sans-serif" font-size="14" lengthAdjust="spacing" textLength="74" x="166" y="27.1074">repositories</text><text fill="#000000" font-family="sans-serif" font-size="14" lengthAdjust="spacing" textLength="83" x="161.5" y="45.7285">:Repositories</text><rect fill="#E3E3E3" height="51.2422" rx="2.5" ry="2.5" style="stroke:#181818;stroke-width:0.5;" width="97" x="154.5" y="334.5703"/><text fill="#000000" font-family="sans-serif" font-size="14" lengthAdjust="spacing" textLength="74" x="166" y="356.6777">repositories</text><text fill="#000000" font-family="sans-serif" font-size="14" lengthAdjust="spacing" textLength="83" x="161.5" y="375.2988">:Repositories</text><rect fill="#E3E3E3" height="51.2422" rx="2.5" ry="2.5" style="stroke:#181818;stroke-width:0.5;" width="176" x="332" y="5"/><text fill="#000000" font-family="sans-serif" font-size="14" lengthAdjust="spacing" textLength="157" x="341.5" y="27.1074">authenticationRepository</text><text fill="#000000" font-family="sans-serif" font-size="14" lengthAdjust="spacing" textLength="162" x="339" y="45.7285">:AuthenticationRepository</text><rect fill="#E3E3E3" height="51.2422" rx="2.5" ry="2.5" style="stroke:#181818;stroke-width:0.5;" width="176" x="332" y="334.5703"/><text fill="#000000" font-family="sans-serif" font-size="14" lengthAdjust="spacing" textLength="157" x="341.5" y="356.6777">authenticationRepository</text><text fill="#000000" font-family="sans-serif" font-size="14" lengthAdjust="spacing" textLength="162" x="339" y="375.2988">:AuthenticationRepository</text><rect fill="#E3E3E3" height="51.2422" rx="2.5" ry="2.5" style="stroke:#181818;stroke-width:0.5;" width="97" x="518" y="5"/><text fill="#000000" font-family="sans-serif" font-size="14" lengthAdjust="spacing" textLength="78" x="527.5" y="27.1074">userSession</text><text fill="#000000" font-family="sans-serif" font-size="14" lengthAdjust="spacing" textLength="83" x="525" y="45.7285">:UserSessoin</text><rect fill="#E3E3E3" height="51.2422" rx="2.5" ry="2.5" style="stroke:#181818;stroke-width:0.5;" width="97" x="518" y="334.5703"/><text fill="#000000" font-family="sans-serif" font-size="14" lengthAdjust="spacing" textLength="78" x="527.5" y="356.6777">userSession</text><text fill="#000000" font-family="sans-serif" font-size="14" lengthAdjust="spacing" textLength="83" x="525" y="375.2988">:UserSessoin</text><rect fill="#FFFFFF" height="227.0371" style="stroke:#181818;stroke-width:1.0;" width="10" x="198" y="90.5332"/><rect fill="#FFFFFF" height="93.873" style="stroke:#181818;stroke-width:1.0;" width="10" x="415" y="166.1152"/><rect fill="#FFFFFF" height="31.291" style="stroke:#181818;stroke-width:1.0;" width="10" x="561.5" y="197.4063"/><polygon fill="#181818" points="186,86.5332,196,90.5332,186,94.5332,190,90.5332" style="stroke:#181818;stroke-width:1.0;"/><line style="stroke:#181818;stroke-width:1.0;" x1="0" x2="192" y1="90.5332" y2="90.5332"/><text fill="#000000" font-family="sans-serif" font-size="13" font-weight="bold" lengthAdjust="spacing" textLength="7" x="7" y="85.2705">5</text><text fill="#000000" font-family="sans-serif" font-size="13" lengthAdjust="spacing" textLength="161" x="18" y="85.2705">getEmployeeFromSession()</text><line style="stroke:#181818;stroke-width:1.0;" x1="208" x2="250" y1="121.8242" y2="121.8242"/><line style="stroke:#181818;stroke-width:1.0;" x1="250" x2="250" y1="121.8242" y2="134.8242"/><line style="stroke:#181818;stroke-width:1.0;" x1="209" x2="250" y1="134.8242" y2="134.8242"/><polygon fill="#181818" points="219,130.8242,209,134.8242,219,138.8242,215,134.8242" style="stroke:#181818;stroke-width:1.0;"/><text fill="#000000" font-family="sans-serif" font-size="13" font-weight="bold" lengthAdjust="spacing" textLength="18" x="215" y="116.5615">5.1</text><text fill="#000000" font-family="sans-serif" font-size="13" lengthAdjust="spacing" textLength="171" x="237" y="116.5615">getAuthenticationRepository()</text><polygon fill="#181818" points="403,162.1152,413,166.1152,403,170.1152,407,166.1152" style="stroke:#181818;stroke-width:1.0;"/><line style="stroke:#181818;stroke-width:1.0;" x1="208" x2="409" y1="166.1152" y2="166.1152"/><text fill="#000000" font-family="sans-serif" font-size="13" font-weight="bold" lengthAdjust="spacing" textLength="18" x="215" y="160.8525">5.2</text><text fill="#000000" font-family="sans-serif" font-size="13" lengthAdjust="spacing" textLength="142" x="237" y="160.8525">getCurrentUserSession()</text><polygon fill="#181818" points="549.5,193.4063,559.5,197.4063,549.5,201.4063,553.5,197.4063" style="stroke:#181818;stroke-width:1.0;"/><line style="stroke:#181818;stroke-width:1.0;" x1="425" x2="555.5" y1="197.4063" y2="197.4063"/><text fill="#000000" font-family="sans-serif" font-size="13" font-weight="bold" lengthAdjust="spacing" textLength="18" x="432" y="192.1436">5.3</text><text fill="#000000" font-family="sans-serif" font-size="13" lengthAdjust="spacing" textLength="63" x="454" y="192.1436">getUserId()</text><polygon fill="#181818" points="436,224.6973,426,228.6973,436,232.6973,432,228.6973" style="stroke:#181818;stroke-width:1.0;"/><line style="stroke:#181818;stroke-width:1.0;stroke-dasharray:2.0,2.0;" x1="430" x2="565.5" y1="228.6973" y2="228.6973"/><text fill="#000000" font-family="sans-serif" font-size="13" font-weight="bold" lengthAdjust="spacing" textLength="18" x="442" y="223.4346">5.4</text><text fill="#000000" font-family="sans-serif" font-size="13" lengthAdjust="spacing" textLength="56" x="464" y="223.4346">employee</text><polygon fill="#181818" points="219,255.9883,209,259.9883,219,263.9883,215,259.9883" style="stroke:#181818;stroke-width:1.0;"/><line style="stroke:#181818;stroke-width:1.0;stroke-dasharray:2.0,2.0;" x1="213" x2="419" y1="259.9883" y2="259.9883"/><text fill="#000000" font-family="sans-serif" font-size="13" font-weight="bold" lengthAdjust="spacing" textLength="18" x="225" y="254.7256">5.5</text><text fill="#000000" font-family="sans-serif" font-size="13" lengthAdjust="spacing" textLength="56" x="247" y="254.7256">employee</text><polygon fill="#181818" points="11,313.5703,1,317.5703,11,321.5703,7,317.5703" style="stroke:#181818;stroke-width:1.0;"/><line style="stroke:#181818;stroke-width:1.0;stroke-dasharray:2.0,2.0;" x1="5" x2="202" y1="317.5703" y2="317.5703"/><text fill="#000000" font-family="sans-serif" font-size="13" font-weight="bold" lengthAdjust="spacing" textLength="7" x="17" y="312.3076">6</text><text fill="#000000" font-family="sans-serif" font-size="13" lengthAdjust="spacing" textLength="56" x="28" y="312.3076">employee</text><!--SRC=[TP5HIyCm4CVVzoaENzI72Zxemv31aAe3SMDTtuIHjRSshCsL95NtxRrcNPiCTc-NvFTB_XTpaAeHMjHGawAir5GZMDtYn0mxZSWEei347Yi4ZPaLggZy0wOKEVrALS1UL0OdNBUbp17sH7P7VzppGIipsGXbuKPZGqPQqXBDjvgklVO6X87LvtmJ4gAr9IhkXPMa1k38zFpAbZFDqyt7TXslbg6kDQWJD8O1DgHzHr8vA4tMsoHEaiNogul2TvDgwnrgU9f4C_Swc4A1DgwRYew8RporNdTt7m8FZzndLlu8YwTSmEKKWUfQYixd4qEW4_RQQirOEkOv0yEbumZSUbUZX8rUsfEpaotoioTm1PC1htn9TF5CxASq4ZbUDtflYsRzV4A3HrzaApIr3RoZXJWWl0zvvfMNA7BpzCIUqttIFm00]--></g></svg>