<?xml version="1.0" encoding="us-ascii" standalone="no"?><svg xmlns="http://www.w3.org/2000/svg" xmlns:xlink="http://www.w3.org/1999/xlink" contentStyleType="text/css" height="732px" preserveAspectRatio="none" style="width:918px;height:732px;background:#FFFFFF;" version="1.1" viewBox="0 0 918 732" width="918.4px" zoomAndPan="magnify"><defs/><g><!--class CreateSkillController--><g id="elem_CreateSkillController"><rect codeLine="11" fill="#F1F1F1" height="104.3531" id="CreateSkillController" rx="2" ry="2" style="stroke:#181818;stroke-width:0.4000000000000001;" width="296" x="498" y="158.752"/><ellipse cx="585.4" cy="171.552" fill="#ADD1B2" rx="8.8" ry="8.8" style="stroke:#181818;stroke-width:0.8000000000000002;"/><path d="M587.7785,176.0665 Q587.3137,176.3055 586.8023,176.425 Q586.291,176.5446 585.7266,176.5446 Q583.7211,176.5446 582.6652,175.2231 Q581.6094,173.9016 581.6094,171.4047 Q581.6094,168.9012 582.6652,167.5797 Q583.7211,166.2582 585.7266,166.2582 Q586.291,166.2582 586.809,166.3778 Q587.327,166.4973 587.7785,166.7364 L587.7785,168.9145 Q587.2738,168.4497 586.799,168.2338 Q586.3242,168.018 585.8195,168.018 Q584.7438,168.018 584.1959,168.8713 Q583.648,169.7247 583.648,171.4047 Q583.648,173.0782 584.1959,173.9315 Q584.7438,174.7848 585.8195,174.7848 Q586.3242,174.7848 586.799,174.569 Q587.2738,174.3532 587.7785,173.8883 Z " fill="#000000"/><text fill="#000000" font-family="sans-serif" font-size="11.2" lengthAdjust="spacing" textLength="114.4" x="601.8" y="175.7848">CreateSkillController</text><line style="stroke:#181818;stroke-width:0.4000000000000001;" x1="498.8" x2="793.2" y1="184.352" y2="184.352"/><text fill="#000000" font-family="sans-serif" font-size="11.2" lengthAdjust="spacing" textLength="170.4" x="502.8" y="198.3801">-skillRepository:SkillRepository</text><text fill="#000000" font-family="sans-serif" font-size="11.2" lengthAdjust="spacing" textLength="286.4" x="502.8" y="211.5708">-authenticationRepository:AuthenticationRepository</text><line style="stroke:#181818;stroke-width:0.4000000000000001;" x1="498.8" x2="793.2" y1="217.1333" y2="217.1333"/><text fill="#000000" font-family="sans-serif" font-size="11.2" lengthAdjust="spacing" textLength="155.2" x="502.8" y="231.1614">-getEmployeeFromSession()</text><text fill="#000000" font-family="sans-serif" font-size="11.2" lengthAdjust="spacing" textLength="211.2" x="502.8" y="244.352">+CreateSkillController(skillRepository)</text><text fill="#000000" font-family="sans-serif" font-size="11.2" lengthAdjust="spacing" textLength="216" x="502.8" y="257.5426">+createSkill(skillName, skillDescription)</text></g><!--class CreateSkillUI--><g id="elem_CreateSkillUI"><rect codeLine="23" fill="#F1F1F1" height="104.3531" id="CreateSkillUI" rx="2" ry="2" style="stroke:#181818;stroke-width:0.4000000000000001;" width="236" x="528" y="5.6"/><ellipse cx="607.8" cy="18.4" fill="#ADD1B2" rx="8.8" ry="8.8" style="stroke:#181818;stroke-width:0.8000000000000002;"/><path d="M610.1785,22.9145 Q609.7137,23.1535 609.2023,23.273 Q608.691,23.3926 608.1266,23.3926 Q606.1211,23.3926 605.0652,22.0711 Q604.0094,20.7496 604.0094,18.2527 Q604.0094,15.7492 605.0652,14.4277 Q606.1211,13.1063 608.1266,13.1063 Q608.691,13.1063 609.209,13.2258 Q609.727,13.3453 610.1785,13.5844 L610.1785,15.7625 Q609.6738,15.2977 609.199,15.0818 Q608.7242,14.866 608.2195,14.866 Q607.1438,14.866 606.5959,15.7193 Q606.048,16.5727 606.048,18.2527 Q606.048,19.9262 606.5959,20.7795 Q607.1438,21.6328 608.2195,21.6328 Q608.7242,21.6328 609.199,21.417 Q609.6738,21.2012 610.1785,20.7363 Z " fill="#000000"/><text fill="#000000" font-family="sans-serif" font-size="11.2" lengthAdjust="spacing" textLength="69.6" x="624.2" y="22.6328">CreateSkillUI</text><line style="stroke:#181818;stroke-width:0.4000000000000001;" x1="528.8" x2="763.2" y1="31.2" y2="31.2"/><line style="stroke:#181818;stroke-width:0.4000000000000001;" x1="528.8" x2="763.2" y1="37.6" y2="37.6"/><text fill="#000000" font-family="sans-serif" font-size="11.2" lengthAdjust="spacing" textLength="36" x="532.8" y="51.6281">+run()</text><text fill="#000000" font-family="sans-serif" font-size="11.2" lengthAdjust="spacing" textLength="226.4" x="532.8" y="64.8188">+requestData(skillName, skillDescription)</text><text fill="#000000" font-family="sans-serif" font-size="11.2" lengthAdjust="spacing" textLength="79.2" x="532.8" y="78.0094">+submitData()</text><text fill="#000000" font-family="sans-serif" font-size="11.2" lengthAdjust="spacing" textLength="143.2" x="532.8" y="91.2">+requestSkillDescription()</text><text fill="#000000" font-family="sans-serif" font-size="11.2" lengthAdjust="spacing" textLength="112" x="532.8" y="104.3906">+requestSkillName()</text></g><!--class Employee--><g id="elem_Employee"><rect codeLine="32" fill="#F1F1F1" height="223.0688" id="Employee" rx="2" ry="2" style="stroke:#181818;stroke-width:0.4000000000000001;" width="311.2" x="5.6" y="324.704"/><ellipse cx="131.4" cy="337.504" fill="#ADD1B2" rx="8.8" ry="8.8" style="stroke:#181818;stroke-width:0.8000000000000002;"/><path d="M133.7785,342.0185 Q133.3137,342.2575 132.8023,342.377 Q132.291,342.4966 131.7266,342.4966 Q129.7211,342.4966 128.6652,341.1751 Q127.6094,339.8536 127.6094,337.3567 Q127.6094,334.8532 128.6652,333.5317 Q129.7211,332.2103 131.7266,332.2103 Q132.291,332.2103 132.809,332.3298 Q133.327,332.4493 133.7785,332.6884 L133.7785,334.8665 Q133.2738,334.4017 132.799,334.1858 Q132.3242,333.97 131.8195,333.97 Q130.7438,333.97 130.1959,334.8233 Q129.648,335.6767 129.648,337.3567 Q129.648,339.0302 130.1959,339.8835 Q130.7438,340.7368 131.8195,340.7368 Q132.3242,340.7368 132.799,340.521 Q133.2738,340.3052 133.7785,339.8403 Z " fill="#000000"/><text fill="#000000" font-family="sans-serif" font-size="11.2" lengthAdjust="spacing" textLength="52.8" x="147.8" y="341.7368">Employee</text><line style="stroke:#181818;stroke-width:0.4000000000000001;" x1="6.4" x2="316" y1="350.304" y2="350.304"/><text fill="#000000" font-family="sans-serif" font-size="11.2" lengthAdjust="spacing" textLength="72.8" x="10.4" y="364.3321">-name:String</text><text fill="#000000" font-family="sans-serif" font-size="11.2" lengthAdjust="spacing" textLength="84.8" x="10.4" y="377.5228">-birthdate:Date</text><text fill="#000000" font-family="sans-serif" font-size="11.2" lengthAdjust="spacing" textLength="115.2" x="10.4" y="390.7134">-admissionDate:Date</text><text fill="#000000" font-family="sans-serif" font-size="11.2" lengthAdjust="spacing" textLength="49.6" x="10.4" y="403.904">-address</text><text fill="#000000" font-family="sans-serif" font-size="11.2" lengthAdjust="spacing" textLength="122.4" x="10.4" y="417.0946">-mobileContact:String</text><text fill="#000000" font-family="sans-serif" font-size="11.2" lengthAdjust="spacing" textLength="114.4" x="10.4" y="430.2853">-emailContact:String</text><text fill="#000000" font-family="sans-serif" font-size="11.2" lengthAdjust="spacing" textLength="100" x="10.4" y="443.4759">-IDdocType:String</text><text fill="#000000" font-family="sans-serif" font-size="11.2" lengthAdjust="spacing" textLength="96.8" x="10.4" y="456.6665">-IDnumber:String</text><text fill="#000000" font-family="sans-serif" font-size="11.2" lengthAdjust="spacing" textLength="104" x="10.4" y="469.8571">-taxNumber:String</text><text fill="#000000" font-family="sans-serif" font-size="11.2" lengthAdjust="spacing" textLength="44.8" x="10.4" y="483.0478">-job:Job</text><line style="stroke:#181818;stroke-width:0.4000000000000001;" x1="6.4" x2="316" y1="488.6103" y2="488.6103"/><text fill="#000000" font-family="sans-serif" font-size="11.2" lengthAdjust="spacing" textLength="260.8" x="10.4" y="502.6384">+Employee (String nome,LocalDate dateOfBirth,</text><text fill="#000000" font-family="sans-serif" font-size="11.2" lengthAdjust="spacing" textLength="301.6" x="10.4" y="515.829">LocalDate admissionDate, String morada, int telemovel,</text><text fill="#000000" font-family="sans-serif" font-size="11.2" lengthAdjust="spacing" textLength="283.2" x="10.4" y="529.0196">String email, String idDocType, int docTypeNumber,</text><text fill="#000000" font-family="sans-serif" font-size="11.2" lengthAdjust="spacing" textLength="232" x="10.4" y="542.2103">int taxPayerIdNumber, String role, Job job)</text></g><!--class Repositories--><g id="elem_Repositories"><rect codeLine="47" fill="#F1F1F1" height="170.3063" id="Repositories" rx="2" ry="2" style="stroke:#181818;stroke-width:0.4000000000000001;" width="296" x="345.2" y="351.088"/><ellipse cx="455.8" cy="363.888" fill="#ADD1B2" rx="8.8" ry="8.8" style="stroke:#181818;stroke-width:0.8000000000000002;"/><path d="M458.1785,368.4025 Q457.7137,368.6415 457.2023,368.761 Q456.691,368.8806 456.1266,368.8806 Q454.1211,368.8806 453.0652,367.5591 Q452.0094,366.2376 452.0094,363.7407 Q452.0094,361.2372 453.0652,359.9157 Q454.1211,358.5943 456.1266,358.5943 Q456.691,358.5943 457.209,358.7138 Q457.727,358.8333 458.1785,359.0724 L458.1785,361.2505 Q457.6738,360.7857 457.199,360.5698 Q456.7242,360.354 456.2195,360.354 Q455.1438,360.354 454.5959,361.2073 Q454.048,362.0607 454.048,363.7407 Q454.048,365.4142 454.5959,366.2675 Q455.1438,367.1208 456.2195,367.1208 Q456.7242,367.1208 457.199,366.905 Q457.6738,366.6892 458.1785,366.2243 Z " fill="#000000"/><text fill="#000000" font-family="sans-serif" font-size="11.2" lengthAdjust="spacing" textLength="68" x="472.2" y="368.1208">Repositories</text><line style="stroke:#181818;stroke-width:0.4000000000000001;" x1="346" x2="640.4" y1="376.688" y2="376.688"/><text fill="#000000" font-family="sans-serif" font-size="11.2" lengthAdjust="spacing" textLength="123.2" x="350" y="390.7161">-instance:Repositories</text><text fill="#000000" font-family="sans-serif" font-size="11.2" lengthAdjust="spacing" textLength="170.4" x="350" y="403.9068">-skillRepository:SkillRepository</text><text fill="#000000" font-family="sans-serif" font-size="11.2" lengthAdjust="spacing" textLength="161.6" x="350" y="417.0974">-jobRepository:JobRepository</text><text fill="#000000" font-family="sans-serif" font-size="11.2" lengthAdjust="spacing" textLength="232" x="350" y="430.288">-employeeRepository:EmployeeRepository</text><text fill="#000000" font-family="sans-serif" font-size="11.2" lengthAdjust="spacing" textLength="286.4" x="350" y="443.4786">-authenticationRepository:AuthenticationRepository</text><line style="stroke:#181818;stroke-width:0.4000000000000001;" x1="346" x2="640.4" y1="449.0411" y2="449.0411"/><text fill="#000000" font-family="sans-serif" font-size="11.2" lengthAdjust="spacing" textLength="80" x="350" y="463.0693">+getInstance()</text><text fill="#000000" font-family="sans-serif" font-size="11.2" lengthAdjust="spacing" textLength="115.2" x="350" y="476.2599">+getSkillRepository()</text><text fill="#000000" font-family="sans-serif" font-size="11.2" lengthAdjust="spacing" textLength="110.4" x="350" y="489.4505">+getJobRepository()</text><text fill="#000000" font-family="sans-serif" font-size="11.2" lengthAdjust="spacing" textLength="145.6" x="350" y="502.6411">+getEmployeeRepository()</text><text fill="#000000" font-family="sans-serif" font-size="11.2" lengthAdjust="spacing" textLength="173.6" x="350" y="515.8318">+getAuthenticationRepository()</text></g><!--class SkillRepository--><g id="elem_SkillRepository"><rect codeLine="62" fill="#F1F1F1" height="77.9719" id="SkillRepository" rx="2" ry="2" style="stroke:#181818;stroke-width:0.4000000000000001;" width="136" x="566" y="629.16"/><ellipse cx="591.32" cy="641.96" fill="#ADD1B2" rx="8.8" ry="8.8" style="stroke:#181818;stroke-width:0.8000000000000002;"/><path d="M593.6985,646.4745 Q593.2337,646.7135 592.7223,646.833 Q592.211,646.9526 591.6466,646.9526 Q589.6411,646.9526 588.5852,645.6311 Q587.5294,644.3096 587.5294,641.8127 Q587.5294,639.3092 588.5852,637.9877 Q589.6411,636.6663 591.6466,636.6663 Q592.211,636.6663 592.729,636.7858 Q593.247,636.9053 593.6985,637.1444 L593.6985,639.3225 Q593.1938,638.8577 592.719,638.6418 Q592.2442,638.426 591.7395,638.426 Q590.6638,638.426 590.1159,639.2793 Q589.568,640.1327 589.568,641.8127 Q589.568,643.4862 590.1159,644.3395 Q590.6638,645.1928 591.7395,645.1928 Q592.2442,645.1928 592.719,644.977 Q593.1938,644.7612 593.6985,644.2963 Z " fill="#000000"/><text fill="#000000" font-family="sans-serif" font-size="11.2" lengthAdjust="spacing" textLength="80.8" x="605.48" y="646.1928">SkillRepository</text><line style="stroke:#181818;stroke-width:0.4000000000000001;" x1="566.8" x2="701.2" y1="654.76" y2="654.76"/><line style="stroke:#181818;stroke-width:0.4000000000000001;" x1="566.8" x2="701.2" y1="661.16" y2="661.16"/><text fill="#000000" font-family="sans-serif" font-size="11.2" lengthAdjust="spacing" textLength="62.4" x="570.8" y="675.1881">+getSkills()</text><text fill="#000000" font-family="sans-serif" font-size="11.2" lengthAdjust="spacing" textLength="126.4" x="570.8" y="688.3788">+validateSkill(newSkill)</text><text fill="#000000" font-family="sans-serif" font-size="11.2" lengthAdjust="spacing" textLength="104.8" x="570.8" y="701.5694">+addSkill(newSkill)</text></g><!--class AuthenticationRepository--><g id="elem_AuthenticationRepository"><rect codeLine="68" fill="#F1F1F1" height="51.5906" id="AuthenticationRepository" rx="2" ry="2" style="stroke:#181818;stroke-width:0.4000000000000001;" width="167.2" x="745.6" y="410.448"/><ellipse cx="758.68" cy="423.248" fill="#ADD1B2" rx="8.8" ry="8.8" style="stroke:#181818;stroke-width:0.8000000000000002;"/><path d="M761.0585,427.7625 Q760.5937,428.0015 760.0823,428.121 Q759.571,428.2406 759.0066,428.2406 Q757.0011,428.2406 755.9452,426.9191 Q754.8894,425.5976 754.8894,423.1007 Q754.8894,420.5972 755.9452,419.2757 Q757.0011,417.9543 759.0066,417.9543 Q759.571,417.9543 760.089,418.0738 Q760.607,418.1933 761.0585,418.4324 L761.0585,420.6105 Q760.5538,420.1457 760.079,419.9298 Q759.6042,419.714 759.0995,419.714 Q758.0238,419.714 757.4759,420.5673 Q756.928,421.4207 756.928,423.1007 Q756.928,424.7742 757.4759,425.6275 Q758.0238,426.4808 759.0995,426.4808 Q759.6042,426.4808 760.079,426.265 Q760.5538,426.0492 761.0585,425.5843 Z " fill="#000000"/><text fill="#000000" font-family="sans-serif" font-size="11.2" lengthAdjust="spacing" textLength="139.2" x="770.12" y="427.4808">AuthenticationRepository</text><line style="stroke:#181818;stroke-width:0.4000000000000001;" x1="746.4" x2="912" y1="436.048" y2="436.048"/><line style="stroke:#181818;stroke-width:0.4000000000000001;" x1="746.4" x2="912" y1="442.448" y2="442.448"/><text fill="#000000" font-family="sans-serif" font-size="11.2" lengthAdjust="spacing" textLength="157.6" x="750.4" y="456.4761">+getEmployeeFromSession()</text></g><!--class Skill--><g id="elem_Skill"><rect codeLine="72" fill="#F1F1F1" height="117.5438" id="Skill" rx="2" ry="2" style="stroke:#181818;stroke-width:0.4000000000000001;" width="259.2" x="31.6" y="609.376"/><ellipse cx="146.6" cy="622.176" fill="#ADD1B2" rx="8.8" ry="8.8" style="stroke:#181818;stroke-width:0.8000000000000002;"/><path d="M148.9785,626.6905 Q148.5137,626.9295 148.0023,627.049 Q147.491,627.1686 146.9266,627.1686 Q144.9211,627.1686 143.8652,625.8471 Q142.8094,624.5256 142.8094,622.0287 Q142.8094,619.5252 143.8652,618.2037 Q144.9211,616.8823 146.9266,616.8823 Q147.491,616.8823 148.009,617.0018 Q148.527,617.1213 148.9785,617.3604 L148.9785,619.5385 Q148.4738,619.0737 147.999,618.8578 Q147.5242,618.642 147.0195,618.642 Q145.9438,618.642 145.3959,619.4953 Q144.848,620.3487 144.848,622.0287 Q144.848,623.7022 145.3959,624.5555 Q145.9438,625.4088 147.0195,625.4088 Q147.5242,625.4088 147.999,625.193 Q148.4738,624.9772 148.9785,624.5123 Z " fill="#000000"/><text fill="#000000" font-family="sans-serif" font-size="11.2" lengthAdjust="spacing" textLength="22.4" x="163" y="626.4088">Skill</text><line style="stroke:#181818;stroke-width:0.4000000000000001;" x1="32.4" x2="290" y1="634.976" y2="634.976"/><text fill="#000000" font-family="sans-serif" font-size="11.2" lengthAdjust="spacing" textLength="95.2" x="36.4" y="649.0041">-skillName:String</text><text fill="#000000" font-family="sans-serif" font-size="11.2" lengthAdjust="spacing" textLength="126.4" x="36.4" y="662.1948">-skillDescription:String</text><text fill="#000000" font-family="sans-serif" font-size="11.2" lengthAdjust="spacing" textLength="161.6" x="36.4" y="675.3854">-employeeWithSkill:Employee</text><text fill="#000000" font-family="sans-serif" font-size="11.2" lengthAdjust="spacing" textLength="101.6" x="36.4" y="688.576">-creator:Employee</text><line style="stroke:#181818;stroke-width:0.4000000000000001;" x1="32.4" x2="290" y1="694.1385" y2="694.1385"/><text fill="#000000" font-family="sans-serif" font-size="11.2" lengthAdjust="spacing" textLength="182.4" x="36.4" y="708.1666">+Skill(skillName, skillDescription)</text><text fill="#000000" font-family="sans-serif" font-size="11.2" lengthAdjust="spacing" textLength="249.6" x="36.4" y="721.3573">+validateSkillData(skillName, skillDescription)</text></g><!--link CreateSkillUI to CreateSkillController--><g id="link_CreateSkillUI_CreateSkillController"><path codeLine="82" d="M646,110.312 C646,125.832 646,138.056 646,153.576 " fill="none" id="CreateSkillUI-to-CreateSkillController" style="stroke:#181818;stroke-width:0.8000000000000002;stroke-dasharray:7.0,7.0;"/><polygon fill="#181818" points="646,158.376,649.2,151.176,646,154.376,642.8,151.176,646,158.376" style="stroke:#181818;stroke-width:0.8000000000000002;"/><text fill="#000000" font-family="sans-serif" font-size="10.4" lengthAdjust="spacing" textLength="6.4" x="639.27" y="126.416">1</text><text fill="#000000" font-family="sans-serif" font-size="10.4" lengthAdjust="spacing" textLength="6.4" x="639.25" y="150.0401">1</text></g><!--link CreateSkillController to Repositories--><g id="link_CreateSkillController_Repositories"><path codeLine="84" d="M610.752,263.336 C593.04,289.272 573.8192,317.4043 553.7232,346.8283 " fill="none" id="CreateSkillController-to-Repositories" style="stroke:#181818;stroke-width:0.8000000000000002;"/><polygon fill="#181818" points="551.016,350.792,557.7192,346.6512,553.272,347.4889,552.4342,343.0416,551.016,350.792" style="stroke:#181818;stroke-width:0.8000000000000002;"/><text fill="#000000" font-family="sans-serif" font-size="10.4" lengthAdjust="spacing" textLength="58.4" x="593.2" y="297.9587">getInstance</text><text fill="#000000" font-family="sans-serif" font-size="10.4" lengthAdjust="spacing" textLength="6.4" x="600.3871" y="279.4268">1</text><text fill="#000000" font-family="sans-serif" font-size="10.4" lengthAdjust="spacing" textLength="6.4" x="548.4562" y="342.4254">1</text></g><!--link Repositories to SkillRepository--><g id="link_Repositories_SkillRepository"><path codeLine="86" d="M544.832,521.488 C567.352,558.336 590.1447,595.6084 608.0167,624.8484 " fill="none" id="Repositories-to-SkillRepository" style="stroke:#181818;stroke-width:0.8000000000000002;stroke-dasharray:7.0,7.0;"/><polygon fill="#181818" points="610.52,628.944,609.4955,621.1318,608.4339,625.531,604.0347,624.4695,610.52,628.944" style="stroke:#181818;stroke-width:0.8000000000000002;"/><text fill="#000000" font-family="sans-serif" font-size="10.4" lengthAdjust="spacing" textLength="30.4" x="581.2" y="582.6307">create</text><text fill="#000000" font-family="sans-serif" font-size="10.4" lengthAdjust="spacing" textLength="6.4" x="541.8374" y="537.9672">1</text><text fill="#000000" font-family="sans-serif" font-size="10.4" lengthAdjust="spacing" textLength="6.4" x="600.3681" y="620.6596">1</text></g><!--link CreateSkillController to Employee--><g id="link_CreateSkillController_Employee"><path codeLine="88" d="M501.776,263.424 C418.776,293.176 330.8,324.704 330.8,324.704 C330.8,324.704 329.5794,325.5042 320.9394,331.1442 " fill="none" id="CreateSkillController-to-Employee" style="stroke:#181818;stroke-width:0.8000000000000002;"/><polygon fill="#181818" points="316.92,333.768,324.6983,332.5119,320.2695,331.5815,321.1999,327.1527,316.92,333.768" style="stroke:#181818;stroke-width:0.8000000000000002;"/><text fill="#000000" font-family="sans-serif" font-size="10.4" lengthAdjust="spacing" textLength="52" x="434" y="297.9587">createSkill</text></g><!--link CreateSkillController to AuthenticationRepository--><g id="link_CreateSkillController_AuthenticationRepository"><path codeLine="89" d="M695.416,263.464 C707.984,276.616 718,287.104 718,287.104 C718,287.104 775.7287,364.1195 807.4567,406.4395 " fill="none" id="CreateSkillController-to-AuthenticationRepository" style="stroke:#181818;stroke-width:0.8000000000000002;"/><polygon fill="#181818" points="810.336,410.28,808.5774,402.5997,807.9366,407.0796,803.4567,406.4388,810.336,410.28" style="stroke:#181818;stroke-width:0.8000000000000002;"/><text fill="#000000" font-family="sans-serif" font-size="10.4" lengthAdjust="spacing" textLength="114.4" x="728.4" y="297.9587">getCurrentUserSession</text><text fill="#000000" font-family="sans-serif" font-size="10.4" lengthAdjust="spacing" textLength="6.4" x="693.782" y="279.568">1</text><text fill="#000000" font-family="sans-serif" font-size="10.4" lengthAdjust="spacing" textLength="6.4" x="799.3853" y="401.7679">1</text></g><!--link Employee to Skill--><g id="link_Employee_Skill"><path codeLine="91" d="M161.2,548.144 C161.2,569.2 161.2,585.624 161.2,604.224 " fill="none" id="Employee-to-Skill" style="stroke:#181818;stroke-width:0.8000000000000002;stroke-dasharray:7.0,7.0;"/><polygon fill="#181818" points="161.2,609.024,164.4,601.824,161.2,605.024,158,601.824,161.2,609.024" style="stroke:#181818;stroke-width:0.8000000000000002;"/></g><!--link CreateSkillController to SkillRepository--><g id="link_CreateSkillController_SkillRepository"><path codeLine="93" d="M654.784,263.464 C657.016,276.616 658.8,287.104 658.8,287.104 C658.8,287.104 658.8,300.704 658.8,300.704 C658.8,300.704 655.6,547.776 655.6,547.776 C655.6,547.776 648.117,589.1804 641.805,624.1324 " fill="none" id="CreateSkillController-to-SkillRepository" style="stroke:#181818;stroke-width:0.8000000000000002;"/><polygon fill="#181818" points="640.952,628.856,645.3806,622.3393,641.6629,624.9197,639.0825,621.2019,640.952,628.856" style="stroke:#181818;stroke-width:0.8000000000000002;"/><text fill="#000000" font-family="sans-serif" font-size="10.4" lengthAdjust="spacing" textLength="18.4" x="659.6" y="440.2947">add</text></g><!--SRC=[fLN1Rjim3BthAuHUcY9fiLrz6D0b7P1Yw8PvnIwzo3QRQ9KbJvBRPiN-VPJaE9AIT0MMIso-H_9H5EbJyy1bnpHhQQkagjTQjK2jxe7ia8xL3sm5fTq8e1fgo-HAn0IpPerwud95xvamCIAu1BlfW7PARDmBEJq0AcqLYRngmOovj5RpghUmh9Ki-M-WxmWv5N1lgLLKyzNQqeOxELn9GhmFdMjW5ie7BiHSIQkL4A3f2w7uEpVE_0qwPRXLUbEKwNiWiTwkGLfUCnStObyU0GW9ZYkmLsqdr0RW4vvY2SOWRtBcqUbXPPDCqfPSxyY1SiDQc57_k01JQzuv4MU4_247IhzT3YLFTJygqF2h1sCNpBBNOtgswQkM1tBgNsRyGx2BZFQTjkt138sGY1SbjbUkWg7YsguRb5zWHXWQqRJS7-4YjpSQppQyjAhY0jo1ijec8Q5bN1m2bej6rT_nscLMsRSLwCHesVFDllMdgefhLOMsJxUbqKdWK8aJDFkiQYQSPkgg-dB_qHKukvCxUrBUZ0xEhTAiOJFA9Tvo4D2gHn3eDy2-g97CcqMe9F27ie9YzF4nsFDNjW6zR0RprXVl7xfX6HJByQqAdHhl8WSpT0k36npv6eeO7B0tpPJB4N6kuxU10SCnHhIhFTF_JUYKueWkXrh6kKHRfZc64gani2ykHeyfcKGddMLzoVIOCTuZ4xmPru649_-mHN4SSc1CSKp6otuTwSfAHIRxyoQVtNo1P5COml_WTkrZZLqDk5zqIk-iGTaRDf_d9KVpxys6PQLRykJz2Rsu-E3_3oxen27weZY7y_FW64y5BU9BHaY2nTcoxgDVsFd74hfauwefuW_46nGUkmT1xRpN6j5R0tgu0OICgL1loFAAhgoMmjr9Glu2]--></g></svg>