<?xml version="1.0" encoding="us-ascii" standalone="no"?><svg xmlns="http://www.w3.org/2000/svg" xmlns:xlink="http://www.w3.org/1999/xlink" contentStyleType="text/css" height="915px" preserveAspectRatio="none" style="width:884px;height:915px;background:#FFFFFF;" version="1.1" viewBox="0 0 884 915" width="884px" zoomAndPan="magnify"><defs/><g><!--class CreateSkillController--><g id="elem_CreateSkillController"><rect codeLine="11" fill="#F1F1F1" height="130.4414" id="CreateSkillController" rx="2.5" ry="2.5" style="stroke:#181818;stroke-width:0.5;" width="370" x="431.5" y="198.44"/><ellipse cx="540.75" cy="214.44" fill="#ADD1B2" rx="11" ry="11" style="stroke:#181818;stroke-width:1.0;"/><path d="M543.7231,220.0831 Q543.1421,220.3819 542.5029,220.5313 Q541.8638,220.6807 541.1582,220.6807 Q538.6514,220.6807 537.3315,219.0289 Q536.0117,217.377 536.0117,214.2559 Q536.0117,211.1265 537.3315,209.4747 Q538.6514,207.8228 541.1582,207.8228 Q541.8638,207.8228 542.5112,207.9722 Q543.1587,208.1216 543.7231,208.4205 L543.7231,211.1431 Q543.0923,210.5621 542.4988,210.2923 Q541.9053,210.0225 541.2744,210.0225 Q539.9297,210.0225 539.2449,211.0892 Q538.5601,212.1558 538.5601,214.2559 Q538.5601,216.3477 539.2449,217.4144 Q539.9297,218.481 541.2744,218.481 Q541.9053,218.481 542.4988,218.2112 Q543.0923,217.9415 543.7231,217.3604 Z " fill="#000000"/><text fill="#000000" font-family="sans-serif" font-size="14" lengthAdjust="spacing" textLength="143" x="561.25" y="219.731">CreateSkillController</text><line style="stroke:#181818;stroke-width:0.5;" x1="432.5" x2="800.5" y1="230.44" y2="230.44"/><text fill="#000000" font-family="sans-serif" font-size="14" lengthAdjust="spacing" textLength="213" x="437.5" y="247.9752">-skillRepository:SkillRepository</text><text fill="#000000" font-family="sans-serif" font-size="14" lengthAdjust="spacing" textLength="358" x="437.5" y="264.4634">-authenticationRepository:AuthenticationRepository</text><line style="stroke:#181818;stroke-width:0.5;" x1="432.5" x2="800.5" y1="271.4166" y2="271.4166"/><text fill="#000000" font-family="sans-serif" font-size="14" lengthAdjust="spacing" textLength="194" x="437.5" y="288.9517">-getEmployeeFromSession()</text><text fill="#000000" font-family="sans-serif" font-size="14" lengthAdjust="spacing" textLength="264" x="437.5" y="305.44">+CreateSkillController(skillRepository)</text><text fill="#000000" font-family="sans-serif" font-size="14" lengthAdjust="spacing" textLength="270" x="437.5" y="321.9283">+createSkill(skillName, skillDescription)</text></g><!--class CreateSkillUI--><g id="elem_CreateSkillUI"><rect codeLine="23" fill="#F1F1F1" height="130.4414" id="CreateSkillUI" rx="2.5" ry="2.5" style="stroke:#181818;stroke-width:0.5;" width="295" x="469" y="7"/><ellipse cx="568.75" cy="23" fill="#ADD1B2" rx="11" ry="11" style="stroke:#181818;stroke-width:1.0;"/><path d="M571.7231,28.6431 Q571.1421,28.9419 570.5029,29.0913 Q569.8638,29.2407 569.1582,29.2407 Q566.6514,29.2407 565.3315,27.5889 Q564.0117,25.937 564.0117,22.8159 Q564.0117,19.6865 565.3315,18.0347 Q566.6514,16.3828 569.1582,16.3828 Q569.8638,16.3828 570.5112,16.5322 Q571.1587,16.6816 571.7231,16.9805 L571.7231,19.7031 Q571.0923,19.1221 570.4988,18.8523 Q569.9053,18.5825 569.2744,18.5825 Q567.9297,18.5825 567.2449,19.6492 Q566.5601,20.7158 566.5601,22.8159 Q566.5601,24.9077 567.2449,25.9744 Q567.9297,27.041 569.2744,27.041 Q569.9053,27.041 570.4988,26.7712 Q571.0923,26.5015 571.7231,25.9204 Z " fill="#000000"/><text fill="#000000" font-family="sans-serif" font-size="14" lengthAdjust="spacing" textLength="87" x="589.25" y="28.291">CreateSkillUI</text><line style="stroke:#181818;stroke-width:0.5;" x1="470" x2="763" y1="39" y2="39"/><line style="stroke:#181818;stroke-width:0.5;" x1="470" x2="763" y1="47" y2="47"/><text fill="#000000" font-family="sans-serif" font-size="14" lengthAdjust="spacing" textLength="45" x="475" y="64.5352">+run()</text><text fill="#000000" font-family="sans-serif" font-size="14" lengthAdjust="spacing" textLength="283" x="475" y="81.0234">+requestData(skillName, skillDescription)</text><text fill="#000000" font-family="sans-serif" font-size="14" lengthAdjust="spacing" textLength="99" x="475" y="97.5117">+submitData()</text><text fill="#000000" font-family="sans-serif" font-size="14" lengthAdjust="spacing" textLength="179" x="475" y="114">+requestSkillDescription()</text><text fill="#000000" font-family="sans-serif" font-size="14" lengthAdjust="spacing" textLength="140" x="475" y="130.4883">+requestSkillName()</text></g><!--class Employee--><g id="elem_Employee"><rect codeLine="32" fill="#F1F1F1" height="278.8359" id="Employee" rx="2.5" ry="2.5" style="stroke:#181818;stroke-width:0.5;" width="389" x="7" y="405.88"/><ellipse cx="164.25" cy="421.88" fill="#ADD1B2" rx="11" ry="11" style="stroke:#181818;stroke-width:1.0;"/><path d="M167.2231,427.5231 Q166.6421,427.8219 166.0029,427.9713 Q165.3638,428.1207 164.6582,428.1207 Q162.1514,428.1207 160.8315,426.4689 Q159.5117,424.817 159.5117,421.6959 Q159.5117,418.5665 160.8315,416.9147 Q162.1514,415.2628 164.6582,415.2628 Q165.3638,415.2628 166.0112,415.4122 Q166.6587,415.5616 167.2231,415.8605 L167.2231,418.5831 Q166.5923,418.0021 165.9988,417.7323 Q165.4053,417.4625 164.7744,417.4625 Q163.4297,417.4625 162.7449,418.5292 Q162.0601,419.5958 162.0601,421.6959 Q162.0601,423.7877 162.7449,424.8544 Q163.4297,425.921 164.7744,425.921 Q165.4053,425.921 165.9988,425.6512 Q166.5923,425.3815 167.2231,424.8004 Z " fill="#000000"/><text fill="#000000" font-family="sans-serif" font-size="14" lengthAdjust="spacing" textLength="66" x="184.75" y="427.171">Employee</text><line style="stroke:#181818;stroke-width:0.5;" x1="8" x2="395" y1="437.88" y2="437.88"/><text fill="#000000" font-family="sans-serif" font-size="14" lengthAdjust="spacing" textLength="91" x="13" y="455.4152">-name:String</text><text fill="#000000" font-family="sans-serif" font-size="14" lengthAdjust="spacing" textLength="106" x="13" y="471.9034">-birthdate:Date</text><text fill="#000000" font-family="sans-serif" font-size="14" lengthAdjust="spacing" textLength="144" x="13" y="488.3917">-admissionDate:Date</text><text fill="#000000" font-family="sans-serif" font-size="14" lengthAdjust="spacing" textLength="62" x="13" y="504.88">-address</text><text fill="#000000" font-family="sans-serif" font-size="14" lengthAdjust="spacing" textLength="153" x="13" y="521.3683">-mobileContact:String</text><text fill="#000000" font-family="sans-serif" font-size="14" lengthAdjust="spacing" textLength="143" x="13" y="537.8566">-emailContact:String</text><text fill="#000000" font-family="sans-serif" font-size="14" lengthAdjust="spacing" textLength="125" x="13" y="554.3448">-IDdocType:String</text><text fill="#000000" font-family="sans-serif" font-size="14" lengthAdjust="spacing" textLength="121" x="13" y="570.8331">-IDnumber:String</text><text fill="#000000" font-family="sans-serif" font-size="14" lengthAdjust="spacing" textLength="130" x="13" y="587.3214">-taxNumber:String</text><text fill="#000000" font-family="sans-serif" font-size="14" lengthAdjust="spacing" textLength="56" x="13" y="603.8097">-job:Job</text><line style="stroke:#181818;stroke-width:0.5;" x1="8" x2="395" y1="610.7628" y2="610.7628"/><text fill="#000000" font-family="sans-serif" font-size="14" lengthAdjust="spacing" textLength="326" x="13" y="628.298">+Employee (String nome,LocalDate dateOfBirth,</text><text fill="#000000" font-family="sans-serif" font-size="14" lengthAdjust="spacing" textLength="377" x="13" y="644.7863">LocalDate admissionDate, String morada, int telemovel,</text><text fill="#000000" font-family="sans-serif" font-size="14" lengthAdjust="spacing" textLength="354" x="13" y="661.2745">String email, String idDocType, int docTypeNumber,</text><text fill="#000000" font-family="sans-serif" font-size="14" lengthAdjust="spacing" textLength="290" x="13" y="677.7628">int taxPayerIdNumber, String role, Job job)</text></g><!--class Repositories--><g id="elem_Repositories"><rect codeLine="47" fill="#F1F1F1" height="212.8828" id="Repositories" rx="2.5" ry="2.5" style="stroke:#181818;stroke-width:0.5;" width="370" x="431.5" y="438.86"/><ellipse cx="569.75" cy="454.86" fill="#ADD1B2" rx="11" ry="11" style="stroke:#181818;stroke-width:1.0;"/><path d="M572.7231,460.5031 Q572.1421,460.8019 571.5029,460.9513 Q570.8638,461.1007 570.1582,461.1007 Q567.6514,461.1007 566.3315,459.4489 Q565.0117,457.797 565.0117,454.6759 Q565.0117,451.5465 566.3315,449.8947 Q567.6514,448.2428 570.1582,448.2428 Q570.8638,448.2428 571.5112,448.3922 Q572.1587,448.5416 572.7231,448.8405 L572.7231,451.5631 Q572.0923,450.9821 571.4988,450.7123 Q570.9053,450.4425 570.2744,450.4425 Q568.9297,450.4425 568.2449,451.5092 Q567.5601,452.5758 567.5601,454.6759 Q567.5601,456.7677 568.2449,457.8344 Q568.9297,458.901 570.2744,458.901 Q570.9053,458.901 571.4988,458.6312 Q572.0923,458.3615 572.7231,457.7804 Z " fill="#000000"/><text fill="#000000" font-family="sans-serif" font-size="14" lengthAdjust="spacing" textLength="85" x="590.25" y="460.151">Repositories</text><line style="stroke:#181818;stroke-width:0.5;" x1="432.5" x2="800.5" y1="470.86" y2="470.86"/><text fill="#000000" font-family="sans-serif" font-size="14" lengthAdjust="spacing" textLength="154" x="437.5" y="488.3952">-instance:Repositories</text><text fill="#000000" font-family="sans-serif" font-size="14" lengthAdjust="spacing" textLength="213" x="437.5" y="504.8834">-skillRepository:SkillRepository</text><text fill="#000000" font-family="sans-serif" font-size="14" lengthAdjust="spacing" textLength="202" x="437.5" y="521.3717">-jobRepository:JobRepository</text><text fill="#000000" font-family="sans-serif" font-size="14" lengthAdjust="spacing" textLength="290" x="437.5" y="537.86">-employeeRepository:EmployeeRepository</text><text fill="#000000" font-family="sans-serif" font-size="14" lengthAdjust="spacing" textLength="358" x="437.5" y="554.3483">-authenticationRepository:AuthenticationRepository</text><line style="stroke:#181818;stroke-width:0.5;" x1="432.5" x2="800.5" y1="561.3014" y2="561.3014"/><text fill="#000000" font-family="sans-serif" font-size="14" lengthAdjust="spacing" textLength="100" x="437.5" y="578.8366">+getInstance()</text><text fill="#000000" font-family="sans-serif" font-size="14" lengthAdjust="spacing" textLength="144" x="437.5" y="595.3248">+getSkillRepository()</text><text fill="#000000" font-family="sans-serif" font-size="14" lengthAdjust="spacing" textLength="138" x="437.5" y="611.8131">+getJobRepository()</text><text fill="#000000" font-family="sans-serif" font-size="14" lengthAdjust="spacing" textLength="182" x="437.5" y="628.3014">+getEmployeeRepository()</text><text fill="#000000" font-family="sans-serif" font-size="14" lengthAdjust="spacing" textLength="217" x="437.5" y="644.7897">+getAuthenticationRepository()</text></g><!--class SkillRepository--><g id="elem_SkillRepository"><rect codeLine="62" fill="#F1F1F1" height="97.4648" id="SkillRepository" rx="2.5" ry="2.5" style="stroke:#181818;stroke-width:0.5;" width="170" x="707.5" y="786.45"/><ellipse cx="739.15" cy="802.45" fill="#ADD1B2" rx="11" ry="11" style="stroke:#181818;stroke-width:1.0;"/><path d="M742.1231,808.0931 Q741.5421,808.3919 740.9029,808.5413 Q740.2638,808.6907 739.5582,808.6907 Q737.0514,808.6907 735.7315,807.0389 Q734.4117,805.387 734.4117,802.2659 Q734.4117,799.1365 735.7315,797.4847 Q737.0514,795.8328 739.5582,795.8328 Q740.2638,795.8328 740.9112,795.9822 Q741.5587,796.1316 742.1231,796.4305 L742.1231,799.1531 Q741.4923,798.5721 740.8988,798.3023 Q740.3053,798.0325 739.6744,798.0325 Q738.3297,798.0325 737.6449,799.0992 Q736.9601,800.1658 736.9601,802.2659 Q736.9601,804.3577 737.6449,805.4244 Q738.3297,806.491 739.6744,806.491 Q740.3053,806.491 740.8988,806.2212 Q741.4923,805.9515 742.1231,805.3704 Z " fill="#000000"/><text fill="#000000" font-family="sans-serif" font-size="14" lengthAdjust="spacing" textLength="101" x="756.85" y="807.741">SkillRepository</text><line style="stroke:#181818;stroke-width:0.5;" x1="708.5" x2="876.5" y1="818.45" y2="818.45"/><line style="stroke:#181818;stroke-width:0.5;" x1="708.5" x2="876.5" y1="826.45" y2="826.45"/><text fill="#000000" font-family="sans-serif" font-size="14" lengthAdjust="spacing" textLength="78" x="713.5" y="843.9852">+getSkills()</text><text fill="#000000" font-family="sans-serif" font-size="14" lengthAdjust="spacing" textLength="158" x="713.5" y="860.4734">+validateSkill(newSkill)</text><text fill="#000000" font-family="sans-serif" font-size="14" lengthAdjust="spacing" textLength="131" x="713.5" y="876.9617">+addSkill(newSkill)</text></g><!--class Skill--><g id="elem_Skill"><rect codeLine="68" fill="#F1F1F1" height="146.9297" id="Skill" rx="2.5" ry="2.5" style="stroke:#181818;stroke-width:0.5;" width="324" x="39.5" y="761.72"/><ellipse cx="183.25" cy="777.72" fill="#ADD1B2" rx="11" ry="11" style="stroke:#181818;stroke-width:1.0;"/><path d="M186.2231,783.3631 Q185.6421,783.6619 185.0029,783.8113 Q184.3638,783.9607 183.6582,783.9607 Q181.1514,783.9607 179.8315,782.3089 Q178.5117,780.657 178.5117,777.5359 Q178.5117,774.4065 179.8315,772.7547 Q181.1514,771.1028 183.6582,771.1028 Q184.3638,771.1028 185.0112,771.2522 Q185.6587,771.4016 186.2231,771.7005 L186.2231,774.4231 Q185.5923,773.8421 184.9988,773.5723 Q184.4053,773.3025 183.7744,773.3025 Q182.4297,773.3025 181.7449,774.3692 Q181.0601,775.4358 181.0601,777.5359 Q181.0601,779.6277 181.7449,780.6944 Q182.4297,781.761 183.7744,781.761 Q184.4053,781.761 184.9988,781.4912 Q185.5923,781.2215 186.2231,780.6404 Z " fill="#000000"/><text fill="#000000" font-family="sans-serif" font-size="14" lengthAdjust="spacing" textLength="28" x="203.75" y="783.011">Skill</text><line style="stroke:#181818;stroke-width:0.5;" x1="40.5" x2="362.5" y1="793.72" y2="793.72"/><text fill="#000000" font-family="sans-serif" font-size="14" lengthAdjust="spacing" textLength="119" x="45.5" y="811.2552">-skillName:String</text><text fill="#000000" font-family="sans-serif" font-size="14" lengthAdjust="spacing" textLength="158" x="45.5" y="827.7434">-skillDescription:String</text><text fill="#000000" font-family="sans-serif" font-size="14" lengthAdjust="spacing" textLength="202" x="45.5" y="844.2317">-employeeWithSkill:Employee</text><text fill="#000000" font-family="sans-serif" font-size="14" lengthAdjust="spacing" textLength="127" x="45.5" y="860.72">-creator:Employee</text><line style="stroke:#181818;stroke-width:0.5;" x1="40.5" x2="362.5" y1="867.6731" y2="867.6731"/><text fill="#000000" font-family="sans-serif" font-size="14" lengthAdjust="spacing" textLength="228" x="45.5" y="885.2083">+Skill(skillName, skillDescription)</text><text fill="#000000" font-family="sans-serif" font-size="14" lengthAdjust="spacing" textLength="312" x="45.5" y="901.6966">+validateSkillData(skillName, skillDescription)</text></g><!--link CreateSkillUI to CreateSkillController--><g id="link_CreateSkillUI_CreateSkillController"><path codeLine="78" d="M616.5,137.89 C616.5,157.29 616.5,172.57 616.5,191.97 " fill="none" id="CreateSkillUI-to-CreateSkillController" style="stroke:#181818;stroke-width:1.0;stroke-dasharray:7.0,7.0;"/><polygon fill="#181818" points="616.5,197.97,620.5,188.97,616.5,192.97,612.5,188.97,616.5,197.97" style="stroke:#181818;stroke-width:1.0;"/></g><!--link CreateSkillController to Repositories--><g id="link_CreateSkillController_Repositories"><path codeLine="79" d="M616.5,329.17 C616.5,361.59 616.5,395.71 616.5,432.49 " fill="none" id="CreateSkillController-to-Repositories" style="stroke:#181818;stroke-width:1.0;"/><polygon fill="#181818" points="616.5,438.49,620.5,429.49,616.5,433.49,612.5,429.49,616.5,438.49" style="stroke:#181818;stroke-width:1.0;"/><text fill="#000000" font-family="sans-serif" font-size="13" lengthAdjust="spacing" textLength="73" x="617.5" y="372.4484">getInstance</text></g><!--link Repositories to SkillRepository--><g id="link_Repositories_SkillRepository"><path codeLine="80" d="M681.04,651.86 C709.19,697.92 737.6809,744.5106 760.0209,781.0606 " fill="none" id="Repositories-to-SkillRepository" style="stroke:#181818;stroke-width:1.0;stroke-dasharray:7.0,7.0;"/><polygon fill="#181818" points="763.15,786.18,761.8693,776.4148,760.5424,781.9138,755.0434,780.5869,763.15,786.18" style="stroke:#181818;stroke-width:1.0;"/><text fill="#000000" font-family="sans-serif" font-size="13" lengthAdjust="spacing" textLength="38" x="726.5" y="728.2884">create</text></g><!--link CreateSkillController to Employee--><g id="link_CreateSkillController_Employee"><path codeLine="82" d="M520.51,329.35 C483.4,354.35 444.4957,380.5671 401.3557,409.6371 " fill="none" id="CreateSkillController-to-Employee" style="stroke:#181818;stroke-width:1.0;"/><polygon fill="#181818" points="396.38,412.99,406.0789,411.2778,400.5264,410.1959,401.6083,404.6435,396.38,412.99" style="stroke:#181818;stroke-width:1.0;"/><text fill="#000000" font-family="sans-serif" font-size="13" lengthAdjust="spacing" textLength="65" x="471.5" y="372.4484">createSkill</text></g><!--link Employee to Skill--><g id="link_Employee_Skill"><path codeLine="84" d="M201.5,685.18 C201.5,711.5 201.5,732.03 201.5,755.28 " fill="none" id="Employee-to-Skill" style="stroke:#181818;stroke-width:1.0;stroke-dasharray:7.0,7.0;"/><polygon fill="#181818" points="201.5,761.28,205.5,752.28,201.5,756.28,197.5,752.28,201.5,761.28" style="stroke:#181818;stroke-width:1.0;"/></g><!--link CreateSkillController to SkillRepository--><g id="link_CreateSkillController_SkillRepository"><path codeLine="86" d="M709.39,329.28 C762.84,366.47 819.5,405.88 819.5,405.88 C819.5,405.88 819.5,684.72 819.5,684.72 C819.5,684.72 810.1463,736.4755 802.2563,780.1655 " fill="none" id="CreateSkillController-to-SkillRepository" style="stroke:#181818;stroke-width:1.0;"/><polygon fill="#181818" points="801.19,786.07,806.7258,777.9241,802.0786,781.1496,798.8531,776.5024,801.19,786.07" style="stroke:#181818;stroke-width:1.0;"/><text fill="#000000" font-family="sans-serif" font-size="13" lengthAdjust="spacing" textLength="23" x="820.5" y="550.3684">add</text></g><!--SRC=[fLN1Rjim3BthAtHBYYJ5pZuKw9eEI35amxnXbrracqcqo98doMspOly-ob8SMN6w0il9udka-4YHcPWzbmtJhAQraghSQLK3jRe5Sa8QLkxP5d9x440rb9R9hOW9PiSgzSJbbcwOC34Yk0HxQ80sIXpSWKn6GAMj8f5NAPWnjzPgNhGMLgMIEVyDz1qX4m4RIwsYccztbbRSfSEL9AJpeNSQc8LypuMuKz9g9GHe-a8e_XR6cRz0emotIX-oV7Zs9DRQ7KZBI-RYHkpR2m0Xtd4BzhvkX3e0VC0gvc0CygPN7JeRpsoQf7GaboUofwnP3NFQVIx1b9etBeahGlwG4UdVLa7oJBTz1Xf-jM3iabdsUioERTgYvfuyzCyJ_XZi8gFzbDknCA4H4l4in_RAhJSKNDjTXUbdU2E4HbGrxqguJEsLnjhwGwqABi0Lb9Ls419gniKOi5fMgloApownohOkG0-CbZslpwq_LP4zgCAtVNQKHgUUGoLEqFoZAfbmELEdwjFclHCu_o5Fze6yEGtEjTAiOdFA9Rvo452hHn3e5-1EL4_crT8hyVmWosUCFbqCzloP7K2lgc0- -kBxGpUKGL5ErohVgVujSZ2XMnZSuCYNaCLWmDuqK-wEYFCGdm83GXaZslsPwVycT4PnH5T1Ip-NQ4joZg51gZ5mdboCNifa6bKwkVKboSVqyHwPu5M_3YGyTHz75CSX1OPN3BRVEfsyTFoJ6V8YltExwsBrFV5ujwQKFbbzJc_OMnrl8EpVUmbb3NVSzVND-5ebuty3YyKD7JnmciLFWWmW5pnf4TBzOYQlND3lWopUueJqTWmSJ9U391Tdhik4_0K0]--></g></svg>