<?xml version="1.0" encoding="us-ascii" standalone="no"?><svg xmlns="http://www.w3.org/2000/svg" xmlns:xlink="http://www.w3.org/1999/xlink" contentStyleType="text/css" height="540.8px" preserveAspectRatio="none" style="width:1098px;height:540px;background:#FFFFFF;" version="1.1" viewBox="0 0 1098 540" width="1098.4px" zoomAndPan="magnify"><defs/><g><rect fill="#FFFFFF" height="388.9172" style="stroke:#181818;stroke-width:0.8000000000000002;" width="8" x="74.4" y="73.1906"/><rect fill="#FFFFFF" height="197.3297" style="stroke:#181818;stroke-width:0.8000000000000002;" width="8" x="405.6" y="90.2391"/><rect fill="#FFFFFF" height="151.0906" style="stroke:#181818;stroke-width:0.8000000000000002;" width="8" x="405.6" y="311.0172"/><rect fill="#FFFFFF" height="70.3453" style="stroke:#181818;stroke-width:0.8000000000000002;" width="8" x="666.4" y="193.775"/><rect fill="#FFFFFF" height="104.1938" style="stroke:#181818;stroke-width:0.8000000000000002;" width="8" x="666.4" y="334.4656"/><rect fill="#FFFFFF" height="23.4484" style="stroke:#181818;stroke-width:0.8000000000000002;" width="8" x="927.2" y="217.2234"/><rect fill="#FFFFFF" height="57.2969" style="stroke:#181818;stroke-width:0.8000000000000002;" width="8" x="993.6" y="357.9141"/><line style="stroke:#181818;stroke-width:0.4000000000000001;stroke-dasharray:5.0,5.0;" x1="78.4" x2="78.4" y1="65.1906" y2="476.5078"/><line style="stroke:#181818;stroke-width:0.4000000000000001;stroke-dasharray:5.0,5.0;" x1="409.2" x2="409.2" y1="65.1906" y2="476.5078"/><line style="stroke:#181818;stroke-width:0.4000000000000001;stroke-dasharray:5.0,5.0;" x1="670" x2="670" y1="121.2344" y2="476.5078"/><line style="stroke:#181818;stroke-width:0.4000000000000001;stroke-dasharray:5.0,5.0;" x1="931.2" x2="931.2" y1="65.1906" y2="476.5078"/><line style="stroke:#181818;stroke-width:0.4000000000000001;stroke-dasharray:5.0,5.0;" x1="997.6" x2="997.6" y1="65.1906" y2="476.5078"/><text fill="#000000" font-family="sans-serif" font-size="11.2" lengthAdjust="spacing" textLength="144" x="4" y="62.8281">Human Resource Manager</text><ellipse cx="78.4" cy="10.8" fill="#E3E3E3" rx="6.4" ry="6.4" style="stroke:#181818;stroke-width:0.4000000000000001;"/><path d="M78.4,17.2 L78.4,38.8 M68,23.6 L88.8,23.6 M78.4,38.8 L68,50.8 M78.4,38.8 L88.8,50.8 " fill="none" style="stroke:#181818;stroke-width:0.4000000000000001;"/><text fill="#000000" font-family="sans-serif" font-size="11.2" lengthAdjust="spacing" textLength="144" x="4" y="486.5359">Human Resource Manager</text><ellipse cx="78.4" cy="495.6984" fill="#E3E3E3" rx="6.4" ry="6.4" style="stroke:#181818;stroke-width:0.4000000000000001;"/><path d="M78.4,502.0984 L78.4,523.6984 M68,508.4984 L88.8,508.4984 M78.4,523.6984 L68,535.6984 M78.4,523.6984 L88.8,535.6984 " fill="none" style="stroke:#181818;stroke-width:0.4000000000000001;"/><rect fill="#E3E3E3" height="24.3906" rx="2" ry="2" style="stroke:#181818;stroke-width:0.4000000000000001;" width="84" x="367.6" y="40"/><text fill="#000000" font-family="sans-serif" font-size="11.2" lengthAdjust="spacing" textLength="72.8" x="373.2" y="56.4281">:CreateSkillUI</text><rect fill="#E3E3E3" height="24.3906" rx="2" ry="2" style="stroke:#181818;stroke-width:0.4000000000000001;" width="84" x="367.6" y="475.7078"/><text fill="#000000" font-family="sans-serif" font-size="11.2" lengthAdjust="spacing" textLength="72.8" x="373.2" y="492.1359">:CreateSkillUI</text><rect fill="#E3E3E3" height="24.3906" rx="2" ry="2" style="stroke:#181818;stroke-width:0.4000000000000001;" width="128.8" x="606" y="475.7078"/><text fill="#000000" font-family="sans-serif" font-size="11.2" lengthAdjust="spacing" textLength="117.6" x="611.6" y="492.1359">:CreateSkillController</text><rect fill="#E3E3E3" height="24.3906" rx="2" ry="2" style="stroke:#181818;stroke-width:0.4000000000000001;" width="33.6" x="914.4" y="40"/><text fill="#000000" font-family="sans-serif" font-size="11.2" lengthAdjust="spacing" textLength="22.4" x="920" y="56.4281">Skill</text><rect fill="#E3E3E3" height="24.3906" rx="2" ry="2" style="stroke:#181818;stroke-width:0.4000000000000001;" width="33.6" x="914.4" y="475.7078"/><text fill="#000000" font-family="sans-serif" font-size="11.2" lengthAdjust="spacing" textLength="22.4" x="920" y="492.1359">Skill</text><rect fill="#E3E3E3" height="24.3906" rx="2" ry="2" style="stroke:#181818;stroke-width:0.4000000000000001;" width="83.2" x="956" y="40"/><text fill="#000000" font-family="sans-serif" font-size="11.2" lengthAdjust="spacing" textLength="72" x="961.6" y="56.4281">Organization</text><rect fill="#E3E3E3" height="24.3906" rx="2" ry="2" style="stroke:#181818;stroke-width:0.4000000000000001;" width="83.2" x="956" y="475.7078"/><text fill="#000000" font-family="sans-serif" font-size="11.2" lengthAdjust="spacing" textLength="72" x="961.6" y="492.1359">Organization</text><rect fill="#FFFFFF" height="388.9172" style="stroke:#181818;stroke-width:0.8000000000000002;" width="8" x="74.4" y="73.1906"/><rect fill="#FFFFFF" height="197.3297" style="stroke:#181818;stroke-width:0.8000000000000002;" width="8" x="405.6" y="90.2391"/><rect fill="#FFFFFF" height="151.0906" style="stroke:#181818;stroke-width:0.8000000000000002;" width="8" x="405.6" y="311.0172"/><rect fill="#FFFFFF" height="70.3453" style="stroke:#181818;stroke-width:0.8000000000000002;" width="8" x="666.4" y="193.775"/><rect fill="#FFFFFF" height="104.1938" style="stroke:#181818;stroke-width:0.8000000000000002;" width="8" x="666.4" y="334.4656"/><rect fill="#FFFFFF" height="23.4484" style="stroke:#181818;stroke-width:0.8000000000000002;" width="8" x="927.2" y="217.2234"/><rect fill="#FFFFFF" height="57.2969" style="stroke:#181818;stroke-width:0.8000000000000002;" width="8" x="993.6" y="357.9141"/><polygon fill="#181818" points="396,87.0391,404,90.2391,396,93.4391,399.2,90.2391" style="stroke:#181818;stroke-width:0.8000000000000002;"/><line style="stroke:#181818;stroke-width:0.8000000000000002;" x1="82.4" x2="400.8" y1="90.2391" y2="90.2391"/><text fill="#000000" font-family="sans-serif" font-size="10.4" font-weight="bold" lengthAdjust="spacing" textLength="7.2" x="88" y="86.4453">1</text><text fill="#000000" font-family="sans-serif" font-size="10.4" lengthAdjust="spacing" textLength="127.2" x="98.4" y="86.4453">asks to create a new Skill</text><polygon fill="#181818" points="596.4,110.4875,604.4,113.6875,596.4,116.8875,599.6,113.6875" style="stroke:#181818;stroke-width:0.8000000000000002;"/><line style="stroke:#181818;stroke-width:0.8000000000000002;" x1="413.6" x2="601.2" y1="113.6875" y2="113.6875"/><text fill="#000000" font-family="sans-serif" font-size="10.4" font-weight="bold" lengthAdjust="spacing" textLength="7.2" x="419.2" y="109.8938">2</text><text fill="#000000" font-family="sans-serif" font-size="10.4" lengthAdjust="spacing" textLength="30.4" x="429.6" y="109.8938">create</text><rect fill="#E3E3E3" height="24.3906" rx="2" ry="2" style="stroke:#181818;stroke-width:0.4000000000000001;" width="128.8" x="606" y="96.6391"/><text fill="#000000" font-family="sans-serif" font-size="11.2" lengthAdjust="spacing" textLength="117.6" x="611.6" y="113.0672">:CreateSkillController</text><polygon fill="#181818" points="91.2,143.6781,83.2,146.8781,91.2,150.0781,88,146.8781" style="stroke:#181818;stroke-width:0.8000000000000002;"/><line style="stroke:#181818;stroke-width:0.8000000000000002;stroke-dasharray:2.0,2.0;" x1="86.4" x2="404.8" y1="146.8781" y2="146.8781"/><text fill="#000000" font-family="sans-serif" font-size="10.4" font-weight="bold" lengthAdjust="spacing" textLength="7.2" x="96" y="143.0844">3</text><text fill="#000000" font-family="sans-serif" font-size="10.4" lengthAdjust="spacing" textLength="207.2" x="106.4" y="143.0844">requestData (skillName, skillDescription)</text><polygon fill="#181818" points="396,167.1266,404,170.3266,396,173.5266,399.2,170.3266" style="stroke:#181818;stroke-width:0.8000000000000002;"/><line style="stroke:#181818;stroke-width:0.8000000000000002;" x1="82.4" x2="400.8" y1="170.3266" y2="170.3266"/><text fill="#000000" font-family="sans-serif" font-size="10.4" font-weight="bold" lengthAdjust="spacing" textLength="7.2" x="88" y="166.5328">4</text><text fill="#000000" font-family="sans-serif" font-size="10.4" lengthAdjust="spacing" textLength="52" x="98.4" y="166.5328">types data</text><polygon fill="#181818" points="656.8,190.575,664.8,193.775,656.8,196.975,660,193.775" style="stroke:#181818;stroke-width:0.8000000000000002;"/><line style="stroke:#181818;stroke-width:0.8000000000000002;" x1="413.6" x2="661.6" y1="193.775" y2="193.775"/><text fill="#000000" font-family="sans-serif" font-size="10.4" font-weight="bold" lengthAdjust="spacing" textLength="7.2" x="419.2" y="189.9813">5</text><text fill="#000000" font-family="sans-serif" font-size="10.4" lengthAdjust="spacing" textLength="227.2" x="429.6" y="189.9813">validateSkillData(skillName, skillDescription)</text><polygon fill="#181818" points="917.6,214.0234,925.6,217.2234,917.6,220.4234,920.8,217.2234" style="stroke:#181818;stroke-width:0.8000000000000002;"/><line style="stroke:#181818;stroke-width:0.8000000000000002;" x1="674.4" x2="922.4" y1="217.2234" y2="217.2234"/><text fill="#000000" font-family="sans-serif" font-size="10.4" font-weight="bold" lengthAdjust="spacing" textLength="7.2" x="680" y="213.4297">6</text><text fill="#000000" font-family="sans-serif" font-size="10.4" lengthAdjust="spacing" textLength="227.2" x="690.4" y="213.4297">validateSkillData(skillName, skillDescription)</text><polygon fill="#181818" points="683.2,237.4719,675.2,240.6719,683.2,243.8719,680,240.6719" style="stroke:#181818;stroke-width:0.8000000000000002;"/><line style="stroke:#181818;stroke-width:0.8000000000000002;" x1="678.4" x2="930.4" y1="240.6719" y2="240.6719"/><text fill="#000000" font-family="sans-serif" font-size="10.4" font-weight="bold" lengthAdjust="spacing" textLength="7.2" x="688" y="236.8781">7</text><text fill="#000000" font-family="sans-serif" font-size="10.4" lengthAdjust="spacing" textLength="20" x="698.4" y="236.8781">true</text><polygon fill="#181818" points="422.4,260.9203,414.4,264.1203,422.4,267.3203,419.2,264.1203" style="stroke:#181818;stroke-width:0.8000000000000002;"/><line style="stroke:#181818;stroke-width:0.8000000000000002;" x1="417.6" x2="669.6" y1="264.1203" y2="264.1203"/><text fill="#000000" font-family="sans-serif" font-size="10.4" font-weight="bold" lengthAdjust="spacing" textLength="7.2" x="427.2" y="260.3266">8</text><text fill="#000000" font-family="sans-serif" font-size="10.4" lengthAdjust="spacing" textLength="20" x="437.6" y="260.3266">true</text><polygon fill="#181818" points="91.2,284.3688,83.2,287.5688,91.2,290.7688,88,287.5688" style="stroke:#181818;stroke-width:0.8000000000000002;"/><line style="stroke:#181818;stroke-width:0.8000000000000002;" x1="86.4" x2="408.8" y1="287.5688" y2="287.5688"/><text fill="#000000" font-family="sans-serif" font-size="10.4" font-weight="bold" lengthAdjust="spacing" textLength="7.2" x="96" y="283.775">9</text><text fill="#000000" font-family="sans-serif" font-size="10.4" lengthAdjust="spacing" textLength="293.6" x="106.4" y="283.775">validates data, shows skill data and requests confirmation</text><polygon fill="#181818" points="396,307.8172,404,311.0172,396,314.2172,399.2,311.0172" style="stroke:#181818;stroke-width:0.8000000000000002;"/><line style="stroke:#181818;stroke-width:0.8000000000000002;" x1="82.4" x2="400.8" y1="311.0172" y2="311.0172"/><text fill="#000000" font-family="sans-serif" font-size="10.4" font-weight="bold" lengthAdjust="spacing" textLength="14.4" x="88" y="307.2234">10</text><text fill="#000000" font-family="sans-serif" font-size="10.4" lengthAdjust="spacing" textLength="69.6" x="105.6" y="307.2234">confirms data</text><polygon fill="#181818" points="656.8,331.2656,664.8,334.4656,656.8,337.6656,660,334.4656" style="stroke:#181818;stroke-width:0.8000000000000002;"/><line style="stroke:#181818;stroke-width:0.8000000000000002;" x1="413.6" x2="661.6" y1="334.4656" y2="334.4656"/><text fill="#000000" font-family="sans-serif" font-size="10.4" font-weight="bold" lengthAdjust="spacing" textLength="14.4" x="419.2" y="330.6719">11</text><text fill="#000000" font-family="sans-serif" font-size="10.4" lengthAdjust="spacing" textLength="195.2" x="436.8" y="330.6719">createSkill(skillName, skillDescription)</text><polygon fill="#181818" points="984,354.7141,992,357.9141,984,361.1141,987.2,357.9141" style="stroke:#181818;stroke-width:0.8000000000000002;"/><line style="stroke:#181818;stroke-width:0.8000000000000002;" x1="674.4" x2="988.8" y1="357.9141" y2="357.9141"/><text fill="#000000" font-family="sans-serif" font-size="10.4" font-weight="bold" lengthAdjust="spacing" textLength="14.4" x="680" y="354.1203">12</text><text fill="#000000" font-family="sans-serif" font-size="10.4" lengthAdjust="spacing" textLength="195.2" x="697.6" y="354.1203">createSkill(skillName, skillDescription)</text><line style="stroke:#181818;stroke-width:0.8000000000000002;" x1="1001.6" x2="1035.2" y1="381.3625" y2="381.3625"/><line style="stroke:#181818;stroke-width:0.8000000000000002;" x1="1035.2" x2="1035.2" y1="381.3625" y2="391.7625"/><line style="stroke:#181818;stroke-width:0.8000000000000002;" x1="1002.4" x2="1035.2" y1="391.7625" y2="391.7625"/><polygon fill="#181818" points="1010.4,388.5625,1002.4,391.7625,1010.4,394.9625,1007.2,391.7625" style="stroke:#181818;stroke-width:0.8000000000000002;"/><text fill="#000000" font-family="sans-serif" font-size="10.4" font-weight="bold" lengthAdjust="spacing" textLength="14.4" x="1007.2" y="377.5688">13</text><text fill="#000000" font-family="sans-serif" font-size="10.4" lengthAdjust="spacing" textLength="68" x="1024.8" y="377.5688">addSkill(skill)</text><polygon fill="#181818" points="683.2,412.0109,675.2,415.2109,683.2,418.4109,680,415.2109" style="stroke:#181818;stroke-width:0.8000000000000002;"/><line style="stroke:#181818;stroke-width:0.8000000000000002;" x1="678.4" x2="996.8" y1="415.2109" y2="415.2109"/><text fill="#000000" font-family="sans-serif" font-size="10.4" font-weight="bold" lengthAdjust="spacing" textLength="14.4" x="688" y="411.4172">14</text><text fill="#000000" font-family="sans-serif" font-size="10.4" lengthAdjust="spacing" textLength="21.6" x="705.6" y="411.4172">skill</text><polygon fill="#181818" points="422.4,435.4594,414.4,438.6594,422.4,441.8594,419.2,438.6594" style="stroke:#181818;stroke-width:0.8000000000000002;"/><line style="stroke:#181818;stroke-width:0.8000000000000002;" x1="417.6" x2="669.6" y1="438.6594" y2="438.6594"/><text fill="#000000" font-family="sans-serif" font-size="10.4" font-weight="bold" lengthAdjust="spacing" textLength="14.4" x="427.2" y="434.8656">15</text><text fill="#000000" font-family="sans-serif" font-size="10.4" lengthAdjust="spacing" textLength="21.6" x="444.8" y="434.8656">skill</text><polygon fill="#181818" points="87.2,458.9078,79.2,462.1078,87.2,465.3078,84,462.1078" style="stroke:#181818;stroke-width:0.8000000000000002;"/><line style="stroke:#181818;stroke-width:0.8000000000000002;" x1="82.4" x2="408.8" y1="462.1078" y2="462.1078"/><text fill="#000000" font-family="sans-serif" font-size="10.4" font-weight="bold" lengthAdjust="spacing" textLength="14.4" x="92" y="458.3141">16</text><text fill="#000000" font-family="sans-serif" font-size="10.4" lengthAdjust="spacing" textLength="136" x="109.6" y="458.3141">displays operation success</text><!--SRC=[bLJBRjim4BppAnQ-f0cQ7_2X5mTeZ2ODO3SViA7M5c69LBXKNFVhko8bMRBiF7YIkCEPsGV9EsChz5X2wQpJkNSbGV0rAUuZ5UeTRcaT3WM19ntGReiXW7FCtDxOBMomO58Aw-1iNRwGL-egDnd1nhdmulvAI0VdONPVbsXXHUnghmaUqOg2dm4otAyUbV06eqs5Di1ill24WTOxKnJFouXvNbw6B9mDtXL5IxVuiteOWoCgnjQ_bWydmIU_HMl-OJ3EHipJwcTqRTv489fJq2xvWTiVOWRcWjmn10Sw6W44Itk8IaTypoBsOR2ksaFHwZ0WpCBVRD_SY4Q2gV5PJwyrSH3nFDfhJ4XZwW0P1fpG2Ly3caDxxav0y8qRex-nfEyGF- -8jJTLKuJhiTumvt2eY9FC1Ti2UiF2P5rl6hNtnOOyVRqcXOcP6yla0sNHGQSZ94fDiD6BU8eD_xgf2L_lB4tG9Dwif7KiHBnL4sH67t5rtbF9FoA9fPe0KaTIuxlSK-SatTpjEIMTAeasWtwgjBCRuykkiEgCf4npsX_EHdkEZrCumfyT5Nsyn9yRadUoxgecr_ShpEVdBxu1fpLjc7i1pB81-_L5T9ifZn-6au9Ev4OZS7BsOk-7FSyCLmKU65n5FlOIkDQQc1F-f9k3t-R1-my0]--></g></svg>