<?xml version="1.0" encoding="us-ascii" standalone="no"?><svg xmlns="http://www.w3.org/2000/svg" xmlns:xlink="http://www.w3.org/1999/xlink" contentStyleType="text/css" height="855.2px" preserveAspectRatio="none" style="width:1132px;height:855px;background:#FFFFFF;" version="1.1" viewBox="0 0 1132 855" width="1132.8px" zoomAndPan="magnify"><defs/><g><rect fill="#FFFFFF" height="703.0438" style="stroke:#181818;stroke-width:0.8000000000000002;" width="8" x="74.4" y="73.1906"/><rect fill="#FFFFFF" height="56.6391" style="stroke:#181818;stroke-width:0.8000000000000002;" width="8" x="329.6" y="183.4813"/><rect fill="#FFFFFF" height="110.0422" style="stroke:#181818;stroke-width:0.8000000000000002;" width="8" x="329.6" y="263.5688"/><rect fill="#FFFFFF" height="379.175" style="stroke:#181818;stroke-width:0.8000000000000002;" width="8" x="329.6" y="397.0594"/><rect fill="#FFFFFF" height="332.2781" style="stroke:#181818;stroke-width:0.8000000000000002;" width="8" x="586.4" y="420.5078"/><rect fill="#FFFFFF" height="23.4484" style="stroke:#181818;stroke-width:0.8000000000000002;" width="8" x="702" y="443.9563"/><rect fill="#FFFFFF" height="63.9453" style="stroke:#181818;stroke-width:0.8000000000000002;" width="8" x="796.4" y="490.8531"/><rect fill="#FFFFFF" height="57.2969" style="stroke:#181818;stroke-width:0.8000000000000002;" width="8" x="796.4" y="672.0406"/><rect fill="#FFFFFF" height="70.3453" style="stroke:#181818;stroke-width:0.8000000000000002;" width="8" x="900.4" y="578.2469"/><rect fill="#FFFFFF" height="23.4484" style="stroke:#181818;stroke-width:0.8000000000000002;" width="8" x="1106" y="601.6953"/><line style="stroke:#181818;stroke-width:0.4000000000000001;stroke-dasharray:5.0,5.0;" x1="78.4" x2="78.4" y1="65.1906" y2="790.6344"/><line style="stroke:#181818;stroke-width:0.4000000000000001;stroke-dasharray:5.0,5.0;" x1="333.2" x2="333.2" y1="65.1906" y2="790.6344"/><line style="stroke:#181818;stroke-width:0.4000000000000001;stroke-dasharray:5.0,5.0;" x1="590" x2="590" y1="214.4766" y2="790.6344"/><line style="stroke:#181818;stroke-width:0.4000000000000001;stroke-dasharray:5.0,5.0;" x1="706" x2="706" y1="65.1906" y2="790.6344"/><line style="stroke:#181818;stroke-width:0.4000000000000001;stroke-dasharray:5.0,5.0;" x1="800.4" x2="800.4" y1="65.1906" y2="790.6344"/><line style="stroke:#181818;stroke-width:0.4000000000000001;stroke-dasharray:5.0,5.0;" x1="904.4" x2="904.4" y1="65.1906" y2="790.6344"/><line style="stroke:#181818;stroke-width:0.4000000000000001;stroke-dasharray:5.0,5.0;" x1="1110" x2="1110" y1="65.1906" y2="790.6344"/><text fill="#000000" font-family="sans-serif" font-size="11.2" lengthAdjust="spacing" textLength="144" x="4" y="62.8281">Human Resource Manager</text><ellipse cx="78.4" cy="10.8" fill="#E3E3E3" rx="6.4" ry="6.4" style="stroke:#181818;stroke-width:0.4000000000000001;"/><path d="M78.4,17.2 L78.4,38.8 M68,23.6 L88.8,23.6 M78.4,38.8 L68,50.8 M78.4,38.8 L88.8,50.8 " fill="none" style="stroke:#181818;stroke-width:0.4000000000000001;"/><text fill="#000000" font-family="sans-serif" font-size="11.2" lengthAdjust="spacing" textLength="144" x="4" y="800.6625">Human Resource Manager</text><ellipse cx="78.4" cy="809.825" fill="#E3E3E3" rx="6.4" ry="6.4" style="stroke:#181818;stroke-width:0.4000000000000001;"/><path d="M78.4,816.225 L78.4,837.825 M68,822.625 L88.8,822.625 M78.4,837.825 L68,849.825 M78.4,837.825 L88.8,849.825 " fill="none" style="stroke:#181818;stroke-width:0.4000000000000001;"/><rect fill="#E3E3E3" height="24.3906" rx="2" ry="2" style="stroke:#181818;stroke-width:0.4000000000000001;" width="84" x="291.6" y="40"/><text fill="#000000" font-family="sans-serif" font-size="11.2" lengthAdjust="spacing" textLength="72.8" x="297.2" y="56.4281">:CreateSkillUI</text><rect fill="#E3E3E3" height="24.3906" rx="2" ry="2" style="stroke:#181818;stroke-width:0.4000000000000001;" width="84" x="291.6" y="789.8344"/><text fill="#000000" font-family="sans-serif" font-size="11.2" lengthAdjust="spacing" textLength="72.8" x="297.2" y="806.2625">:CreateSkillUI</text><rect fill="#E3E3E3" height="24.3906" rx="2" ry="2" style="stroke:#181818;stroke-width:0.4000000000000001;" width="128.8" x="526" y="789.8344"/><text fill="#000000" font-family="sans-serif" font-size="11.2" lengthAdjust="spacing" textLength="117.6" x="531.6" y="806.2625">:CreateSkillController</text><rect fill="#E3E3E3" height="24.3906" rx="2" ry="2" style="stroke:#181818;stroke-width:0.4000000000000001;" width="86.4" x="662.8" y="40"/><text fill="#000000" font-family="sans-serif" font-size="11.2" lengthAdjust="spacing" textLength="75.2" x="668.4" y="56.4281">:Organization</text><rect fill="#E3E3E3" height="24.3906" rx="2" ry="2" style="stroke:#181818;stroke-width:0.4000000000000001;" width="86.4" x="662.8" y="789.8344"/><text fill="#000000" font-family="sans-serif" font-size="11.2" lengthAdjust="spacing" textLength="75.2" x="668.4" y="806.2625">:Organization</text><rect fill="#E3E3E3" height="37.5813" rx="2" ry="2" style="stroke:#181818;stroke-width:0.4000000000000001;" width="86.4" x="757.2" y="26.8094"/><text fill="#000000" font-family="sans-serif" font-size="11.2" lengthAdjust="spacing" textLength="70.4" x="765.2" y="43.2375">organization</text><text fill="#000000" font-family="sans-serif" font-size="11.2" lengthAdjust="spacing" textLength="75.2" x="762.8" y="56.4281">:Organization</text><rect fill="#E3E3E3" height="37.5813" rx="2" ry="2" style="stroke:#181818;stroke-width:0.4000000000000001;" width="86.4" x="757.2" y="789.8344"/><text fill="#000000" font-family="sans-serif" font-size="11.2" lengthAdjust="spacing" textLength="70.4" x="765.2" y="806.2625">organization</text><text fill="#000000" font-family="sans-serif" font-size="11.2" lengthAdjust="spacing" textLength="75.2" x="762.8" y="819.4531">:Organization</text><rect fill="#E3E3E3" height="37.5813" rx="2" ry="2" style="stroke:#181818;stroke-width:0.4000000000000001;" width="70.4" x="869.2" y="26.8094"/><text fill="#000000" font-family="sans-serif" font-size="11.2" lengthAdjust="spacing" textLength="59.2" x="874.8" y="43.2375">employeee</text><text fill="#000000" font-family="sans-serif" font-size="11.2" lengthAdjust="spacing" textLength="55.2" x="876.8" y="56.4281">:EMployee</text><rect fill="#E3E3E3" height="37.5813" rx="2" ry="2" style="stroke:#181818;stroke-width:0.4000000000000001;" width="70.4" x="869.2" y="789.8344"/><text fill="#000000" font-family="sans-serif" font-size="11.2" lengthAdjust="spacing" textLength="59.2" x="874.8" y="806.2625">employeee</text><text fill="#000000" font-family="sans-serif" font-size="11.2" lengthAdjust="spacing" textLength="55.2" x="876.8" y="819.4531">:EMployee</text><rect fill="#E3E3E3" height="24.3906" rx="2" ry="2" style="stroke:#181818;stroke-width:0.4000000000000001;" width="36.8" x="1091.6" y="40"/><text fill="#000000" font-family="sans-serif" font-size="11.2" lengthAdjust="spacing" textLength="25.6" x="1097.2" y="56.4281">:Skill</text><rect fill="#E3E3E3" height="24.3906" rx="2" ry="2" style="stroke:#181818;stroke-width:0.4000000000000001;" width="36.8" x="1091.6" y="789.8344"/><text fill="#000000" font-family="sans-serif" font-size="11.2" lengthAdjust="spacing" textLength="25.6" x="1097.2" y="806.2625">:Skill</text><rect fill="#FFFFFF" height="703.0438" style="stroke:#181818;stroke-width:0.8000000000000002;" width="8" x="74.4" y="73.1906"/><rect fill="#FFFFFF" height="56.6391" style="stroke:#181818;stroke-width:0.8000000000000002;" width="8" x="329.6" y="183.4813"/><rect fill="#FFFFFF" height="110.0422" style="stroke:#181818;stroke-width:0.8000000000000002;" width="8" x="329.6" y="263.5688"/><rect fill="#FFFFFF" height="379.175" style="stroke:#181818;stroke-width:0.8000000000000002;" width="8" x="329.6" y="397.0594"/><rect fill="#FFFFFF" height="332.2781" style="stroke:#181818;stroke-width:0.8000000000000002;" width="8" x="586.4" y="420.5078"/><rect fill="#FFFFFF" height="23.4484" style="stroke:#181818;stroke-width:0.8000000000000002;" width="8" x="702" y="443.9563"/><rect fill="#FFFFFF" height="63.9453" style="stroke:#181818;stroke-width:0.8000000000000002;" width="8" x="796.4" y="490.8531"/><rect fill="#FFFFFF" height="57.2969" style="stroke:#181818;stroke-width:0.8000000000000002;" width="8" x="796.4" y="672.0406"/><rect fill="#FFFFFF" height="70.3453" style="stroke:#181818;stroke-width:0.8000000000000002;" width="8" x="900.4" y="578.2469"/><rect fill="#FFFFFF" height="23.4484" style="stroke:#181818;stroke-width:0.8000000000000002;" width="8" x="1106" y="601.6953"/><path d="M86.4,77.1906 L86.4,121.1906 L320.8,121.1906 L320.8,85.1906 L312.8,77.1906 L86.4,77.1906 " fill="#FAFAFA" style="stroke:#181818;stroke-width:0.4000000000000001;"/><path d="M312.8,77.1906 L312.8,85.1906 L320.8,85.1906 L312.8,77.1906 " fill="#FAFAFA" style="stroke:#181818;stroke-width:0.4000000000000001;"/><text fill="#000000" font-family="sans-serif" font-size="10.4" lengthAdjust="spacing" textLength="217.6" x="91.2" y="91.2453">- The user is already logged in at this step.</text><text fill="#000000" font-family="sans-serif" font-size="10.4" lengthAdjust="spacing" textLength="211.2" x="91.2" y="103.4938">- Authentication sequence is explained in</text><text fill="#000000" font-family="sans-serif" font-size="10.4" lengthAdjust="spacing" textLength="100" x="91.2" y="115.7422">a sequence excerpt.</text><path d="M709.6,129.9359 L709.6,161.9359 L795.2,161.9359 L795.2,137.9359 L787.2,129.9359 L709.6,129.9359 " fill="#FAFAFA" style="stroke:#181818;stroke-width:0.4000000000000001;"/><path d="M787.2,129.9359 L787.2,137.9359 L795.2,137.9359 L787.2,129.9359 " fill="#FAFAFA" style="stroke:#181818;stroke-width:0.4000000000000001;"/><text fill="#000000" font-family="sans-serif" font-size="10.4" lengthAdjust="spacing" textLength="68.8" x="714.4" y="143.9906">- Singleton is</text><text fill="#000000" font-family="sans-serif" font-size="10.4" lengthAdjust="spacing" textLength="30.4" x="714.4" y="156.2391">in use</text><polygon fill="#181818" points="320,180.2813,328,183.4813,320,186.6813,323.2,183.4813" style="stroke:#181818;stroke-width:0.8000000000000002;"/><line style="stroke:#181818;stroke-width:0.8000000000000002;" x1="82.4" x2="324.8" y1="183.4813" y2="183.4813"/><text fill="#000000" font-family="sans-serif" font-size="10.4" font-weight="bold" lengthAdjust="spacing" textLength="7.2" x="88" y="179.6875">1</text><text fill="#000000" font-family="sans-serif" font-size="10.4" lengthAdjust="spacing" textLength="127.2" x="98.4" y="179.6875">asks to create a new Skill</text><polygon fill="#181818" points="516.4,203.7297,524.4,206.9297,516.4,210.1297,519.6,206.9297" style="stroke:#181818;stroke-width:0.8000000000000002;"/><line style="stroke:#181818;stroke-width:0.8000000000000002;" x1="337.6" x2="521.2" y1="206.9297" y2="206.9297"/><text fill="#000000" font-family="sans-serif" font-size="10.4" font-weight="bold" lengthAdjust="spacing" textLength="7.2" x="343.2" y="203.1359">2</text><text fill="#000000" font-family="sans-serif" font-size="10.4" lengthAdjust="spacing" textLength="30.4" x="353.6" y="203.1359">create</text><rect fill="#E3E3E3" height="24.3906" rx="2" ry="2" style="stroke:#181818;stroke-width:0.4000000000000001;" width="128.8" x="526" y="189.8813"/><text fill="#000000" font-family="sans-serif" font-size="11.2" lengthAdjust="spacing" textLength="117.6" x="531.6" y="206.3094">:CreateSkillController</text><polygon fill="#181818" points="91.2,236.9203,83.2,240.1203,91.2,243.3203,88,240.1203" style="stroke:#181818;stroke-width:0.8000000000000002;"/><line style="stroke:#181818;stroke-width:0.8000000000000002;stroke-dasharray:2.0,2.0;" x1="86.4" x2="332.8" y1="240.1203" y2="240.1203"/><text fill="#000000" font-family="sans-serif" font-size="10.4" font-weight="bold" lengthAdjust="spacing" textLength="7.2" x="96" y="236.3266">3</text><text fill="#000000" font-family="sans-serif" font-size="10.4" lengthAdjust="spacing" textLength="207.2" x="106.4" y="236.3266">requestData (skillName, skillDescription)</text><polygon fill="#181818" points="320,260.3688,328,263.5688,320,266.7688,323.2,263.5688" style="stroke:#181818;stroke-width:0.8000000000000002;"/><line style="stroke:#181818;stroke-width:0.8000000000000002;" x1="82.4" x2="324.8" y1="263.5688" y2="263.5688"/><text fill="#000000" font-family="sans-serif" font-size="10.4" font-weight="bold" lengthAdjust="spacing" textLength="7.2" x="88" y="259.775">4</text><text fill="#000000" font-family="sans-serif" font-size="10.4" lengthAdjust="spacing" textLength="104.8" x="98.4" y="259.775">types requested data</text><line style="stroke:#181818;stroke-width:0.8000000000000002;" x1="337.6" x2="371.2" y1="291.0172" y2="291.0172"/><line style="stroke:#181818;stroke-width:0.8000000000000002;" x1="371.2" x2="371.2" y1="291.0172" y2="301.4172"/><line style="stroke:#181818;stroke-width:0.8000000000000002;" x1="333.6" x2="371.2" y1="301.4172" y2="301.4172"/><polygon fill="#181818" points="341.6,298.2172,333.6,301.4172,341.6,304.6172,338.4,301.4172" style="stroke:#181818;stroke-width:0.8000000000000002;"/><text fill="#000000" font-family="sans-serif" font-size="10.4" font-weight="bold" lengthAdjust="spacing" textLength="7.2" x="343.2" y="287.2234">5</text><text fill="#000000" font-family="sans-serif" font-size="10.4" lengthAdjust="spacing" textLength="227.2" x="353.6" y="287.2234">validateSkillData(skillName, skillDescription)</text><path d="M341.6,307.8172 L341.6,351.8172 L530.4,351.8172 L530.4,315.8172 L522.4,307.8172 L341.6,307.8172 " fill="#FAFAFA" style="stroke:#181818;stroke-width:0.4000000000000001;"/><path d="M522.4,307.8172 L522.4,315.8172 L530.4,315.8172 L522.4,307.8172 " fill="#FAFAFA" style="stroke:#181818;stroke-width:0.4000000000000001;"/><text fill="#000000" font-family="sans-serif" font-size="10.4" lengthAdjust="spacing" textLength="165.6" x="346.4" y="321.8719">- This is an input type only. This</text><text fill="#000000" font-family="sans-serif" font-size="10.4" lengthAdjust="spacing" textLength="172" x="346.4" y="334.1203">means that only characters will be</text><text fill="#000000" font-family="sans-serif" font-size="10.4" lengthAdjust="spacing" textLength="41.6" x="346.4" y="346.3688">allowed.</text><polygon fill="#181818" points="91.2,370.4109,83.2,373.6109,91.2,376.8109,88,373.6109" style="stroke:#181818;stroke-width:0.8000000000000002;"/><line style="stroke:#181818;stroke-width:0.8000000000000002;stroke-dasharray:2.0,2.0;" x1="86.4" x2="332.8" y1="373.6109" y2="373.6109"/><text fill="#000000" font-family="sans-serif" font-size="10.4" font-weight="bold" lengthAdjust="spacing" textLength="7.2" x="96" y="369.8172">6</text><text fill="#000000" font-family="sans-serif" font-size="10.4" lengthAdjust="spacing" textLength="217.6" x="106.4" y="369.8172">shows skill data and requests confirmation</text><polygon fill="#181818" points="320,393.8594,328,397.0594,320,400.2594,323.2,397.0594" style="stroke:#181818;stroke-width:0.8000000000000002;"/><line style="stroke:#181818;stroke-width:0.8000000000000002;" x1="82.4" x2="324.8" y1="397.0594" y2="397.0594"/><text fill="#000000" font-family="sans-serif" font-size="10.4" font-weight="bold" lengthAdjust="spacing" textLength="7.2" x="88" y="393.2656">7</text><text fill="#000000" font-family="sans-serif" font-size="10.4" lengthAdjust="spacing" textLength="69.6" x="98.4" y="393.2656">confirms data</text><polygon fill="#181818" points="576.8,417.3078,584.8,420.5078,576.8,423.7078,580,420.5078" style="stroke:#181818;stroke-width:0.8000000000000002;"/><line style="stroke:#181818;stroke-width:0.8000000000000002;" x1="337.6" x2="581.6" y1="420.5078" y2="420.5078"/><text fill="#000000" font-family="sans-serif" font-size="10.4" font-weight="bold" lengthAdjust="spacing" textLength="7.2" x="343.2" y="416.7141">8</text><text fill="#000000" font-family="sans-serif" font-size="10.4" lengthAdjust="spacing" textLength="195.2" x="353.6" y="416.7141">createSkill(skillName, skillDescription)</text><polygon fill="#181818" points="692.4,440.7563,700.4,443.9563,692.4,447.1563,695.6,443.9563" style="stroke:#181818;stroke-width:0.8000000000000002;"/><line style="stroke:#181818;stroke-width:0.8000000000000002;" x1="594.4" x2="697.2" y1="443.9563" y2="443.9563"/><text fill="#000000" font-family="sans-serif" font-size="10.4" font-weight="bold" lengthAdjust="spacing" textLength="7.2" x="600" y="440.1625">9</text><text fill="#000000" font-family="sans-serif" font-size="10.4" lengthAdjust="spacing" textLength="64.8" x="610.4" y="440.1625">getInstance()</text><polygon fill="#181818" points="603.2,464.2047,595.2,467.4047,603.2,470.6047,600,467.4047" style="stroke:#181818;stroke-width:0.8000000000000002;"/><line style="stroke:#181818;stroke-width:0.8000000000000002;stroke-dasharray:2.0,2.0;" x1="598.4" x2="705.2" y1="467.4047" y2="467.4047"/><text fill="#000000" font-family="sans-serif" font-size="10.4" font-weight="bold" lengthAdjust="spacing" textLength="14.4" x="608" y="463.6109">10</text><text fill="#000000" font-family="sans-serif" font-size="10.4" lengthAdjust="spacing" textLength="63.2" x="625.6" y="463.6109">organization</text><polygon fill="#181818" points="786.8,487.6531,794.8,490.8531,786.8,494.0531,790,490.8531" style="stroke:#181818;stroke-width:0.8000000000000002;"/><line style="stroke:#181818;stroke-width:0.8000000000000002;" x1="594.4" x2="791.6" y1="490.8531" y2="490.8531"/><text fill="#000000" font-family="sans-serif" font-size="10.4" font-weight="bold" lengthAdjust="spacing" textLength="14.4" x="600" y="487.0594">11</text><text fill="#000000" font-family="sans-serif" font-size="10.4" lengthAdjust="spacing" textLength="134.4" x="617.6" y="487.0594">getEmployeeFromSession()</text><path d="M598.4,501.2531 L598.4,533.2531 L796,533.2531 L796,509.2531 L788,501.2531 L598.4,501.2531 " fill="#FAFAFA" style="stroke:#181818;stroke-width:0.4000000000000001;"/><path d="M788,501.2531 L788,509.2531 L796,509.2531 L788,501.2531 " fill="#FAFAFA" style="stroke:#181818;stroke-width:0.4000000000000001;"/><text fill="#000000" font-family="sans-serif" font-size="10.4" lengthAdjust="spacing" textLength="180.8" x="603.2" y="515.3078">- This method is explained in detail</text><text fill="#000000" font-family="sans-serif" font-size="10.4" lengthAdjust="spacing" textLength="163.2" x="603.2" y="527.5563">in an excerpt sequence diagram.</text><polygon fill="#181818" points="603.2,551.5984,595.2,554.7984,603.2,557.9984,600,554.7984" style="stroke:#181818;stroke-width:0.8000000000000002;"/><line style="stroke:#181818;stroke-width:0.8000000000000002;stroke-dasharray:2.0,2.0;" x1="598.4" x2="799.6" y1="554.7984" y2="554.7984"/><text fill="#000000" font-family="sans-serif" font-size="10.4" font-weight="bold" lengthAdjust="spacing" textLength="14.4" x="608" y="551.0047">12</text><text fill="#000000" font-family="sans-serif" font-size="10.4" lengthAdjust="spacing" textLength="48" x="625.6" y="551.0047">employee</text><polygon fill="#181818" points="890.8,575.0469,898.8,578.2469,890.8,581.4469,894,578.2469" style="stroke:#181818;stroke-width:0.8000000000000002;"/><line style="stroke:#181818;stroke-width:0.8000000000000002;" x1="594.4" x2="895.6" y1="578.2469" y2="578.2469"/><text fill="#000000" font-family="sans-serif" font-size="10.4" font-weight="bold" lengthAdjust="spacing" textLength="14.4" x="600" y="574.4531">13</text><text fill="#000000" font-family="sans-serif" font-size="10.4" lengthAdjust="spacing" textLength="195.2" x="617.6" y="574.4531">createSkill(skillName, skillDescription)</text><polygon fill="#181818" points="1096.4,598.4953,1104.4,601.6953,1096.4,604.8953,1099.6,601.6953" style="stroke:#181818;stroke-width:0.8000000000000002;"/><line style="stroke:#181818;stroke-width:0.8000000000000002;" x1="908.4" x2="1101.2" y1="601.6953" y2="601.6953"/><text fill="#000000" font-family="sans-serif" font-size="10.4" font-weight="bold" lengthAdjust="spacing" textLength="14.4" x="914" y="597.9016">14</text><text fill="#000000" font-family="sans-serif" font-size="10.4" lengthAdjust="spacing" textLength="164.8" x="931.6" y="597.9016">Skill(skillName, skillDescription)</text><polygon fill="#181818" points="917.2,621.9438,909.2,625.1438,917.2,628.3438,914,625.1438" style="stroke:#181818;stroke-width:0.8000000000000002;"/><line style="stroke:#181818;stroke-width:0.8000000000000002;stroke-dasharray:2.0,2.0;" x1="912.4" x2="1109.2" y1="625.1438" y2="625.1438"/><text fill="#000000" font-family="sans-serif" font-size="10.4" font-weight="bold" lengthAdjust="spacing" textLength="14.4" x="922" y="621.35">15</text><text fill="#000000" font-family="sans-serif" font-size="10.4" lengthAdjust="spacing" textLength="41.6" x="939.6" y="621.35">newSkill</text><polygon fill="#181818" points="603.2,645.3922,595.2,648.5922,603.2,651.7922,600,648.5922" style="stroke:#181818;stroke-width:0.8000000000000002;"/><line style="stroke:#181818;stroke-width:0.8000000000000002;stroke-dasharray:2.0,2.0;" x1="598.4" x2="903.6" y1="648.5922" y2="648.5922"/><text fill="#000000" font-family="sans-serif" font-size="10.4" font-weight="bold" lengthAdjust="spacing" textLength="14.4" x="608" y="644.7984">16</text><text fill="#000000" font-family="sans-serif" font-size="10.4" lengthAdjust="spacing" textLength="41.6" x="625.6" y="644.7984">newSkill</text><polygon fill="#181818" points="786.8,668.8406,794.8,672.0406,786.8,675.2406,790,672.0406" style="stroke:#181818;stroke-width:0.8000000000000002;"/><line style="stroke:#181818;stroke-width:0.8000000000000002;" x1="594.4" x2="791.6" y1="672.0406" y2="672.0406"/><text fill="#000000" font-family="sans-serif" font-size="10.4" font-weight="bold" lengthAdjust="spacing" textLength="14.4" x="600" y="668.2469">17</text><text fill="#000000" font-family="sans-serif" font-size="10.4" lengthAdjust="spacing" textLength="68" x="617.6" y="668.2469">addSkill(skill)</text><line style="stroke:#181818;stroke-width:0.8000000000000002;" x1="804.4" x2="838" y1="695.4891" y2="695.4891"/><line style="stroke:#181818;stroke-width:0.8000000000000002;" x1="838" x2="838" y1="695.4891" y2="705.8891"/><line style="stroke:#181818;stroke-width:0.8000000000000002;" x1="805.2" x2="838" y1="705.8891" y2="705.8891"/><polygon fill="#181818" points="813.2,702.6891,805.2,705.8891,813.2,709.0891,810,705.8891" style="stroke:#181818;stroke-width:0.8000000000000002;"/><text fill="#000000" font-family="sans-serif" font-size="10.4" font-weight="bold" lengthAdjust="spacing" textLength="14.4" x="810" y="691.6953">18</text><text fill="#000000" font-family="sans-serif" font-size="10.4" lengthAdjust="spacing" textLength="67.2" x="827.6" y="691.6953">validateSkill()</text><polygon fill="#181818" points="603.2,726.1375,595.2,729.3375,603.2,732.5375,600,729.3375" style="stroke:#181818;stroke-width:0.8000000000000002;"/><line style="stroke:#181818;stroke-width:0.8000000000000002;stroke-dasharray:2.0,2.0;" x1="598.4" x2="799.6" y1="729.3375" y2="729.3375"/><text fill="#000000" font-family="sans-serif" font-size="10.4" font-weight="bold" lengthAdjust="spacing" textLength="14.4" x="608" y="725.5438">19</text><text fill="#000000" font-family="sans-serif" font-size="10.4" lengthAdjust="spacing" textLength="41.6" x="625.6" y="725.5438">newSkill</text><polygon fill="#181818" points="346.4,749.5859,338.4,752.7859,346.4,755.9859,343.2,752.7859" style="stroke:#181818;stroke-width:0.8000000000000002;"/><line style="stroke:#181818;stroke-width:0.8000000000000002;stroke-dasharray:2.0,2.0;" x1="341.6" x2="589.6" y1="752.7859" y2="752.7859"/><text fill="#000000" font-family="sans-serif" font-size="10.4" font-weight="bold" lengthAdjust="spacing" textLength="14.4" x="351.2" y="748.9922">20</text><text fill="#000000" font-family="sans-serif" font-size="10.4" lengthAdjust="spacing" textLength="41.6" x="368.8" y="748.9922">newSkill</text><polygon fill="#181818" points="87.2,773.0344,79.2,776.2344,87.2,779.4344,84,776.2344" style="stroke:#181818;stroke-width:0.8000000000000002;"/><line style="stroke:#181818;stroke-width:0.8000000000000002;" x1="82.4" x2="332.8" y1="776.2344" y2="776.2344"/><text fill="#000000" font-family="sans-serif" font-size="10.4" font-weight="bold" lengthAdjust="spacing" textLength="14.4" x="92" y="772.4406">21</text><text fill="#000000" font-family="sans-serif" font-size="10.4" lengthAdjust="spacing" textLength="136" x="109.6" y="772.4406">displays operation success</text><!--SRC=[hLRDRjf04BxxAKQvv4U51yYXKaHfWWf4WkHMgThOWxt2tdLtro7qwJkxjl7Qs43KxWcOcMzcllb3Rxd8cM8PP5B8C54oGp2gm40V93aBjop6jTcd20f3mqIS-WewOP7SSH73XgKQWu0LHeeYUqCL1DS9Zn0sKfet-K6Yq4W5Lqz5nWIiKCj2XGWB9iY3kWAcuMcr20ZNy93dJ1YukfyeP0RNMvwchpEdypeRLfb8OPHCqmfkyhAQTvIVLSm4_yCCbyBfFAyUVwrdoyVvzELvsLQMdkvFqMywMwvV7fQJQTiIipoLUqGai-cY_EnC5il7LISY5xWJhd_CvlFWkYqcIZo2d7qWfA5gy3Wn83UEDA0tWfS4eT2eW6jWAT4IxI6LSOmHS07CW4b8eWtcuyhYeJ092dBdiWADlmiKL1HImuyyPLmuMwVD6Z5-XAXoCmvGH62ZwSRKPhNqjUQsTwWx2DtzH35Hj1w6xH3-JiLqEJaT- -WBZBvIuU6UEDXgC192LtIAIU0E78MD_W65MWMyTrqPkRRm1OHC-FRdkploKQe5zhNCbKrV6_AVk0Xj73G7XO686NQ4I91MwHugks-a13VQnhfa6Nu1z_4Rwb3ntD9_Uu28qC-XbmYppr7Nq5Ga5q8l1JsfEeHtblAedXmRt6MnrQzTy0xLzRCzIRra-r5KNDd0GOfqFtQoNhCCcR0qKyjQJGWJMZQXGQLXHt716_QQiJILEup6HqAlnVoVFPfTJmoNK2TofqjI7DEKJWI7VWYbs72LkHaApXMnMyZAM7-kWZRUGwkw2fwkNXlZHDhsEN1oqffYyXQZcGbDDo34czjZimDgU_fxIzM67ZKP-KltsDJZz8mJFuTwIPSfJAlb_9qEtXgr9aTzsPpkzwCTClIg2SZG93BgxbNAnp2UNWHaDxYeDs-pYYFEOZh4uxCOpGoShDlXe0Lz9JimwLMiFdPdgpKCNHVBdhTFTVLWAkMXx8eTFlbnbvOS_PEBybmVoKliKPCDNQZEWUhXPm2i3BZX-YAi_jm71e95aSV2xN_gZYCthMFJDsv3tNLHniEXbLdNkxO12yxUW7BFbki_ufg6Tgz1vgYglqf56DBoAFKxgzxxQl_8_0K0]--></g></svg>