<?xml version="1.0" encoding="us-ascii" standalone="no"?><svg xmlns="http://www.w3.org/2000/svg" xmlns:xlink="http://www.w3.org/1999/xlink" contentStyleType="text/css" height="1150px" preserveAspectRatio="none" style="width:1740px;height:1150px;background:#FFFFFF;" version="1.1" viewBox="0 0 1740 1150" width="1740px" zoomAndPan="magnify"><defs/><g><rect fill="#FFFFFF" height="960.0469" style="stroke:#181818;stroke-width:1.0;" width="10" x="93" y="91.4883"/><rect fill="#FFFFFF" height="70.7988" style="stroke:#181818;stroke-width:1.0;" width="10" x="412" y="229.3516"/><rect fill="#FFFFFF" height="137.5527" style="stroke:#181818;stroke-width:1.0;" width="10" x="412" y="329.4609"/><rect fill="#FFFFFF" height="555.2109" style="stroke:#181818;stroke-width:1.0;" width="10" x="412" y="496.3242"/><rect fill="#FFFFFF" height="496.5898" style="stroke:#181818;stroke-width:1.0;" width="10" x="733" y="525.6348"/><rect fill="#FFFFFF" height="29.3105" style="stroke:#181818;stroke-width:1.0;" width="10" x="952" y="554.9453"/><rect fill="#FFFFFF" height="95.2422" style="stroke:#181818;stroke-width:1.0;" width="10" x="952" y="613.5664"/><rect fill="#FFFFFF" height="137.5527" style="stroke:#181818;stroke-width:1.0;" width="10" x="1069" y="855.3613"/><rect fill="#FFFFFF" height="87.9316" style="stroke:#181818;stroke-width:1.0;" width="10" x="1312" y="738.1191"/><rect fill="#FFFFFF" height="29.3105" style="stroke:#181818;stroke-width:1.0;" width="10" x="1704" y="767.4297"/><line style="stroke:#181818;stroke-width:0.5;stroke-dasharray:5.0,5.0;" x1="98" x2="98" y1="81.4883" y2="1069.5352"/><line style="stroke:#181818;stroke-width:0.5;stroke-dasharray:5.0,5.0;" x1="416.5" x2="416.5" y1="81.4883" y2="1069.5352"/><line style="stroke:#181818;stroke-width:0.5;stroke-dasharray:5.0,5.0;" x1="737.5" x2="737.5" y1="268.0957" y2="1069.5352"/><line style="stroke:#181818;stroke-width:0.5;stroke-dasharray:5.0,5.0;" x1="956.5" x2="956.5" y1="81.4883" y2="1069.5352"/><line style="stroke:#181818;stroke-width:0.5;stroke-dasharray:5.0,5.0;" x1="1073.5" x2="1073.5" y1="81.4883" y2="1069.5352"/><line style="stroke:#181818;stroke-width:0.5;stroke-dasharray:5.0,5.0;" x1="1204" x2="1204" y1="81.4883" y2="1069.5352"/><line style="stroke:#181818;stroke-width:0.5;stroke-dasharray:5.0,5.0;" x1="1317" x2="1317" y1="81.4883" y2="1069.5352"/><line style="stroke:#181818;stroke-width:0.5;stroke-dasharray:5.0,5.0;" x1="1467" x2="1467" y1="81.4883" y2="1069.5352"/><line style="stroke:#181818;stroke-width:0.5;stroke-dasharray:5.0,5.0;" x1="1623" x2="1623" y1="81.4883" y2="1069.5352"/><line style="stroke:#181818;stroke-width:0.5;stroke-dasharray:5.0,5.0;" x1="1709" x2="1709" y1="81.4883" y2="1069.5352"/><text fill="#000000" font-family="sans-serif" font-size="14" lengthAdjust="spacing" textLength="180" x="5" y="78.5352">Human Resource Manager</text><ellipse cx="98" cy="13.5" fill="#E3E3E3" rx="8" ry="8" style="stroke:#181818;stroke-width:0.5;"/><path d="M98,21.5 L98,48.5 M85,29.5 L111,29.5 M98,48.5 L85,63.5 M98,48.5 L111,63.5 " fill="none" style="stroke:#181818;stroke-width:0.5;"/><text fill="#000000" font-family="sans-serif" font-size="14" lengthAdjust="spacing" textLength="180" x="5" y="1082.0703">Human Resource Manager</text><ellipse cx="98" cy="1093.5234" fill="#E3E3E3" rx="8" ry="8" style="stroke:#181818;stroke-width:0.5;"/><path d="M98,1101.5234 L98,1128.5234 M85,1109.5234 L111,1109.5234 M98,1128.5234 L85,1143.5234 M98,1128.5234 L111,1143.5234 " fill="none" style="stroke:#181818;stroke-width:0.5;"/><rect fill="#E3E3E3" height="30.4883" rx="2.5" ry="2.5" style="stroke:#181818;stroke-width:0.5;" width="109" x="362.5" y="50"/><text fill="#000000" font-family="sans-serif" font-size="14" lengthAdjust="spacing" textLength="95" x="369.5" y="70.5352">: CreateSkillUI</text><rect fill="#E3E3E3" height="30.4883" rx="2.5" ry="2.5" style="stroke:#181818;stroke-width:0.5;" width="109" x="362.5" y="1068.5352"/><text fill="#000000" font-family="sans-serif" font-size="14" lengthAdjust="spacing" textLength="95" x="369.5" y="1089.0703">: CreateSkillUI</text><rect fill="#E3E3E3" height="30.4883" rx="2.5" ry="2.5" style="stroke:#181818;stroke-width:0.5;" width="165" x="655.5" y="1068.5352"/><text fill="#000000" font-family="sans-serif" font-size="14" lengthAdjust="spacing" textLength="151" x="662.5" y="1089.0703">: CreateSkillController</text><rect fill="#E3E3E3" height="30.4883" rx="2.5" ry="2.5" style="stroke:#181818;stroke-width:0.5;" width="107" x="903.5" y="50"/><text fill="#000000" font-family="sans-serif" font-size="14" lengthAdjust="spacing" textLength="93" x="910.5" y="70.5352">: Repositories</text><rect fill="#E3E3E3" height="30.4883" rx="2.5" ry="2.5" style="stroke:#181818;stroke-width:0.5;" width="107" x="903.5" y="1068.5352"/><text fill="#000000" font-family="sans-serif" font-size="14" lengthAdjust="spacing" textLength="93" x="910.5" y="1089.0703">: Repositories</text><rect fill="#E3E3E3" height="46.9766" rx="2.5" ry="2.5" style="stroke:#181818;stroke-width:0.5;" width="107" x="1020.5" y="33.5117"/><text fill="#000000" font-family="sans-serif" font-size="14" lengthAdjust="spacing" textLength="82" x="1033" y="54.0469">repositories</text><text fill="#000000" font-family="sans-serif" font-size="14" lengthAdjust="spacing" textLength="93" x="1027.5" y="70.5352">: Repositories</text><rect fill="#E3E3E3" height="46.9766" rx="2.5" ry="2.5" style="stroke:#181818;stroke-width:0.5;" width="107" x="1020.5" y="1068.5352"/><text fill="#000000" font-family="sans-serif" font-size="14" lengthAdjust="spacing" textLength="82" x="1033" y="1089.0703">repositories</text><text fill="#000000" font-family="sans-serif" font-size="14" lengthAdjust="spacing" textLength="93" x="1027.5" y="1105.5586">: Repositories</text><rect fill="#E3E3E3" height="46.9766" rx="2.5" ry="2.5" style="stroke:#181818;stroke-width:0.5;" width="118" x="1145" y="33.5117"/><text fill="#000000" font-family="sans-serif" font-size="14" lengthAdjust="spacing" textLength="104" x="1152" y="54.0469">skillRepository:</text><text fill="#000000" font-family="sans-serif" font-size="14" lengthAdjust="spacing" textLength="101" x="1153.5" y="70.5352">SkillRepository</text><rect fill="#E3E3E3" height="46.9766" rx="2.5" ry="2.5" style="stroke:#181818;stroke-width:0.5;" width="118" x="1145" y="1068.5352"/><text fill="#000000" font-family="sans-serif" font-size="14" lengthAdjust="spacing" textLength="104" x="1152" y="1089.0703">skillRepository:</text><text fill="#000000" font-family="sans-serif" font-size="14" lengthAdjust="spacing" textLength="101" x="1153.5" y="1105.5586">SkillRepository</text><rect fill="#E3E3E3" height="46.9766" rx="2.5" ry="2.5" style="stroke:#181818;stroke-width:0.5;" width="88" x="1273" y="33.5117"/><text fill="#000000" font-family="sans-serif" font-size="14" lengthAdjust="spacing" textLength="66" x="1284" y="54.0469">employee</text><text fill="#000000" font-family="sans-serif" font-size="14" lengthAdjust="spacing" textLength="74" x="1280" y="70.5352">: Employee</text><rect fill="#E3E3E3" height="46.9766" rx="2.5" ry="2.5" style="stroke:#181818;stroke-width:0.5;" width="88" x="1273" y="1068.5352"/><text fill="#000000" font-family="sans-serif" font-size="14" lengthAdjust="spacing" textLength="66" x="1284" y="1089.0703">employee</text><text fill="#000000" font-family="sans-serif" font-size="14" lengthAdjust="spacing" textLength="74" x="1280" y="1105.5586">: Employee</text><rect fill="#E3E3E3" height="46.9766" rx="2.5" ry="2.5" style="stroke:#181818;stroke-width:0.5;" width="192" x="1371" y="33.5117"/><text fill="#000000" font-family="sans-serif" font-size="14" lengthAdjust="spacing" textLength="172" x="1381" y="54.0469">authenticationRepository</text><text fill="#000000" font-family="sans-serif" font-size="14" lengthAdjust="spacing" textLength="178" x="1378" y="70.5352">:AuthenticationRepository</text><rect fill="#E3E3E3" height="46.9766" rx="2.5" ry="2.5" style="stroke:#181818;stroke-width:0.5;" width="192" x="1371" y="1068.5352"/><text fill="#000000" font-family="sans-serif" font-size="14" lengthAdjust="spacing" textLength="172" x="1381" y="1089.0703">authenticationRepository</text><text fill="#000000" font-family="sans-serif" font-size="14" lengthAdjust="spacing" textLength="178" x="1378" y="1105.5586">:AuthenticationRepository</text><rect fill="#E3E3E3" height="46.9766" rx="2.5" ry="2.5" style="stroke:#181818;stroke-width:0.5;" width="101" x="1573" y="33.5117"/><text fill="#000000" font-family="sans-serif" font-size="14" lengthAdjust="spacing" textLength="82" x="1582.5" y="54.0469">userSession</text><text fill="#000000" font-family="sans-serif" font-size="14" lengthAdjust="spacing" textLength="87" x="1580" y="70.5352">:UserSessoin</text><rect fill="#E3E3E3" height="46.9766" rx="2.5" ry="2.5" style="stroke:#181818;stroke-width:0.5;" width="101" x="1573" y="1068.5352"/><text fill="#000000" font-family="sans-serif" font-size="14" lengthAdjust="spacing" textLength="82" x="1582.5" y="1089.0703">userSession</text><text fill="#000000" font-family="sans-serif" font-size="14" lengthAdjust="spacing" textLength="87" x="1580" y="1105.5586">:UserSessoin</text><rect fill="#E3E3E3" height="30.4883" rx="2.5" ry="2.5" style="stroke:#181818;stroke-width:0.5;" width="50" x="1684" y="50"/><text fill="#000000" font-family="sans-serif" font-size="14" lengthAdjust="spacing" textLength="36" x="1691" y="70.5352">: Skill</text><rect fill="#E3E3E3" height="30.4883" rx="2.5" ry="2.5" style="stroke:#181818;stroke-width:0.5;" width="50" x="1684" y="1068.5352"/><text fill="#000000" font-family="sans-serif" font-size="14" lengthAdjust="spacing" textLength="36" x="1691" y="1089.0703">: Skill</text><rect fill="#FFFFFF" height="960.0469" style="stroke:#181818;stroke-width:1.0;" width="10" x="93" y="91.4883"/><rect fill="#FFFFFF" height="70.7988" style="stroke:#181818;stroke-width:1.0;" width="10" x="412" y="229.3516"/><rect fill="#FFFFFF" height="137.5527" style="stroke:#181818;stroke-width:1.0;" width="10" x="412" y="329.4609"/><rect fill="#FFFFFF" height="555.2109" style="stroke:#181818;stroke-width:1.0;" width="10" x="412" y="496.3242"/><rect fill="#FFFFFF" height="496.5898" style="stroke:#181818;stroke-width:1.0;" width="10" x="733" y="525.6348"/><rect fill="#FFFFFF" height="29.3105" style="stroke:#181818;stroke-width:1.0;" width="10" x="952" y="554.9453"/><rect fill="#FFFFFF" height="95.2422" style="stroke:#181818;stroke-width:1.0;" width="10" x="952" y="613.5664"/><rect fill="#FFFFFF" height="137.5527" style="stroke:#181818;stroke-width:1.0;" width="10" x="1069" y="855.3613"/><rect fill="#FFFFFF" height="87.9316" style="stroke:#181818;stroke-width:1.0;" width="10" x="1312" y="738.1191"/><rect fill="#FFFFFF" height="29.3105" style="stroke:#181818;stroke-width:1.0;" width="10" x="1704" y="767.4297"/><path d="M108,96.4883 L108,151.4883 L401,151.4883 L401,106.4883 L391,96.4883 L108,96.4883 " fill="#FAFAFA" style="stroke:#181818;stroke-width:0.5;"/><path d="M391,96.4883 L391,106.4883 L401,106.4883 L391,96.4883 " fill="#FAFAFA" style="stroke:#181818;stroke-width:0.5;"/><text fill="#000000" font-family="sans-serif" font-size="13" lengthAdjust="spacing" textLength="272" x="114" y="114.0566">- The user is already logged in at this step.</text><text fill="#000000" font-family="sans-serif" font-size="13" lengthAdjust="spacing" textLength="264" x="114" y="129.3672">- Authentication sequence is explained in</text><text fill="#000000" font-family="sans-serif" font-size="13" lengthAdjust="spacing" textLength="125" x="114" y="144.6777">a sequence excerpt.</text><path d="M962,162.4199 L962,202.4199 L1069,202.4199 L1069,172.4199 L1059,162.4199 L962,162.4199 " fill="#FAFAFA" style="stroke:#181818;stroke-width:0.5;"/><path d="M1059,162.4199 L1059,172.4199 L1069,172.4199 L1059,162.4199 " fill="#FAFAFA" style="stroke:#181818;stroke-width:0.5;"/><text fill="#000000" font-family="sans-serif" font-size="13" lengthAdjust="spacing" textLength="86" x="968" y="179.9883">- Singleton is</text><text fill="#000000" font-family="sans-serif" font-size="13" lengthAdjust="spacing" textLength="38" x="968" y="195.2988">in use</text><polygon fill="#181818" points="400,225.3516,410,229.3516,400,233.3516,404,229.3516" style="stroke:#181818;stroke-width:1.0;"/><line style="stroke:#181818;stroke-width:1.0;" x1="103" x2="406" y1="229.3516" y2="229.3516"/><text fill="#000000" font-family="sans-serif" font-size="13" font-weight="bold" lengthAdjust="spacing" textLength="9" x="110" y="224.6094">1</text><text fill="#000000" font-family="sans-serif" font-size="13" lengthAdjust="spacing" textLength="159" x="123" y="224.6094">asks to create a new Skill</text><polygon fill="#181818" points="643.5,254.6621,653.5,258.6621,643.5,262.6621,647.5,258.6621" style="stroke:#181818;stroke-width:1.0;"/><line style="stroke:#181818;stroke-width:1.0;" x1="422" x2="649.5" y1="258.6621" y2="258.6621"/><text fill="#000000" font-family="sans-serif" font-size="13" font-weight="bold" lengthAdjust="spacing" textLength="9" x="429" y="253.9199">2</text><text fill="#000000" font-family="sans-serif" font-size="13" lengthAdjust="spacing" textLength="38" x="442" y="253.9199">create</text><rect fill="#E3E3E3" height="30.4883" rx="2.5" ry="2.5" style="stroke:#181818;stroke-width:0.5;" width="165" x="655.5" y="237.3516"/><text fill="#000000" font-family="sans-serif" font-size="14" lengthAdjust="spacing" textLength="151" x="662.5" y="257.8867">: CreateSkillController</text><polygon fill="#181818" points="114,296.1504,104,300.1504,114,304.1504,110,300.1504" style="stroke:#181818;stroke-width:1.0;"/><line style="stroke:#181818;stroke-width:1.0;stroke-dasharray:2.0,2.0;" x1="108" x2="416" y1="300.1504" y2="300.1504"/><text fill="#000000" font-family="sans-serif" font-size="13" font-weight="bold" lengthAdjust="spacing" textLength="9" x="120" y="295.4082">3</text><text fill="#000000" font-family="sans-serif" font-size="13" lengthAdjust="spacing" textLength="259" x="133" y="295.4082">requestData (skillName, skillDescription)</text><polygon fill="#181818" points="400,325.4609,410,329.4609,400,333.4609,404,329.4609" style="stroke:#181818;stroke-width:1.0;"/><line style="stroke:#181818;stroke-width:1.0;" x1="103" x2="406" y1="329.4609" y2="329.4609"/><text fill="#000000" font-family="sans-serif" font-size="13" font-weight="bold" lengthAdjust="spacing" textLength="9" x="110" y="324.7188">4</text><text fill="#000000" font-family="sans-serif" font-size="13" lengthAdjust="spacing" textLength="131" x="123" y="324.7188">types requested data</text><line style="stroke:#181818;stroke-width:1.0;" x1="422" x2="464" y1="363.7715" y2="363.7715"/><line style="stroke:#181818;stroke-width:1.0;" x1="464" x2="464" y1="363.7715" y2="376.7715"/><line style="stroke:#181818;stroke-width:1.0;" x1="417" x2="464" y1="376.7715" y2="376.7715"/><polygon fill="#181818" points="427,372.7715,417,376.7715,427,380.7715,423,376.7715" style="stroke:#181818;stroke-width:1.0;"/><text fill="#000000" font-family="sans-serif" font-size="13" font-weight="bold" lengthAdjust="spacing" textLength="9" x="429" y="359.0293">5</text><text fill="#000000" font-family="sans-serif" font-size="13" lengthAdjust="spacing" textLength="284" x="442" y="359.0293">validateSkillData(skillName, skillDescription)</text><path d="M427,384.7715 L427,439.7715 L694,439.7715 L694,394.7715 L684,384.7715 L427,384.7715 " fill="#FAFAFA" style="stroke:#181818;stroke-width:0.5;"/><path d="M684,384.7715 L684,394.7715 L694,394.7715 L684,384.7715 " fill="#FAFAFA" style="stroke:#181818;stroke-width:0.5;"/><text fill="#000000" font-family="sans-serif" font-size="13" lengthAdjust="spacing" textLength="242" x="433" y="402.3398">- This is an input type only validation.</text><text fill="#000000" font-family="sans-serif" font-size="13" lengthAdjust="spacing" textLength="246" x="433" y="417.6504">This means that only characters will be</text><text fill="#000000" font-family="sans-serif" font-size="13" lengthAdjust="spacing" textLength="52" x="433" y="432.9609">allowed.</text><polygon fill="#181818" points="114,463.0137,104,467.0137,114,471.0137,110,467.0137" style="stroke:#181818;stroke-width:1.0;"/><line style="stroke:#181818;stroke-width:1.0;stroke-dasharray:2.0,2.0;" x1="108" x2="416" y1="467.0137" y2="467.0137"/><text fill="#000000" font-family="sans-serif" font-size="13" font-weight="bold" lengthAdjust="spacing" textLength="9" x="120" y="462.2715">6</text><text fill="#000000" font-family="sans-serif" font-size="13" lengthAdjust="spacing" textLength="272" x="133" y="462.2715">shows skill data and requests confirmation</text><polygon fill="#181818" points="400,492.3242,410,496.3242,400,500.3242,404,496.3242" style="stroke:#181818;stroke-width:1.0;"/><line style="stroke:#181818;stroke-width:1.0;" x1="103" x2="406" y1="496.3242" y2="496.3242"/><text fill="#000000" font-family="sans-serif" font-size="13" font-weight="bold" lengthAdjust="spacing" textLength="9" x="110" y="491.582">7</text><text fill="#000000" font-family="sans-serif" font-size="13" lengthAdjust="spacing" textLength="87" x="123" y="491.582">confirms data</text><polygon fill="#181818" points="721,521.6348,731,525.6348,721,529.6348,725,525.6348" style="stroke:#181818;stroke-width:1.0;"/><line style="stroke:#181818;stroke-width:1.0;" x1="422" x2="727" y1="525.6348" y2="525.6348"/><text fill="#000000" font-family="sans-serif" font-size="13" font-weight="bold" lengthAdjust="spacing" textLength="9" x="429" y="520.8926">8</text><text fill="#000000" font-family="sans-serif" font-size="13" lengthAdjust="spacing" textLength="244" x="442" y="520.8926">createSkill(skillName, skillDescription)</text><polygon fill="#181818" points="940,550.9453,950,554.9453,940,558.9453,944,554.9453" style="stroke:#181818;stroke-width:1.0;"/><line style="stroke:#181818;stroke-width:1.0;" x1="743" x2="946" y1="554.9453" y2="554.9453"/><text fill="#000000" font-family="sans-serif" font-size="13" font-weight="bold" lengthAdjust="spacing" textLength="9" x="750" y="550.2031">9</text><text fill="#000000" font-family="sans-serif" font-size="13" lengthAdjust="spacing" textLength="81" x="763" y="550.2031">getInstance()</text><polygon fill="#181818" points="754,580.2559,744,584.2559,754,588.2559,750,584.2559" style="stroke:#181818;stroke-width:1.0;"/><line style="stroke:#181818;stroke-width:1.0;stroke-dasharray:2.0,2.0;" x1="748" x2="956" y1="584.2559" y2="584.2559"/><text fill="#000000" font-family="sans-serif" font-size="13" font-weight="bold" lengthAdjust="spacing" textLength="18" x="760" y="579.5137">10</text><text fill="#000000" font-family="sans-serif" font-size="13" lengthAdjust="spacing" textLength="75" x="782" y="579.5137">repositories</text><polygon fill="#181818" points="940,609.5664,950,613.5664,940,617.5664,944,613.5664" style="stroke:#181818;stroke-width:1.0;"/><line style="stroke:#181818;stroke-width:1.0;" x1="743" x2="946" y1="613.5664" y2="613.5664"/><text fill="#000000" font-family="sans-serif" font-size="13" font-weight="bold" lengthAdjust="spacing" textLength="18" x="750" y="608.8242">11</text><text fill="#000000" font-family="sans-serif" font-size="13" lengthAdjust="spacing" textLength="168" x="772" y="608.8242">getEmployeeFromSession()</text><path d="M748,626.5664 L748,681.5664 L940,681.5664 L940,636.5664 L930,626.5664 L748,626.5664 " fill="#FAFAFA" style="stroke:#181818;stroke-width:0.5;"/><path d="M930,626.5664 L930,636.5664 L940,636.5664 L930,626.5664 " fill="#FAFAFA" style="stroke:#181818;stroke-width:0.5;"/><text fill="#000000" font-family="sans-serif" font-size="13" lengthAdjust="spacing" textLength="171" x="754" y="644.1348">- This method is explained</text><text fill="#000000" font-family="sans-serif" font-size="13" lengthAdjust="spacing" textLength="137" x="758" y="659.4453">in detail in an excerpt</text><text fill="#000000" font-family="sans-serif" font-size="13" lengthAdjust="spacing" textLength="118" x="758" y="674.7559">sequence diagram.</text><polygon fill="#181818" points="754,704.8086,744,708.8086,754,712.8086,750,708.8086" style="stroke:#181818;stroke-width:1.0;"/><line style="stroke:#181818;stroke-width:1.0;stroke-dasharray:2.0,2.0;" x1="748" x2="956" y1="708.8086" y2="708.8086"/><text fill="#000000" font-family="sans-serif" font-size="13" font-weight="bold" lengthAdjust="spacing" textLength="18" x="760" y="704.0664">12</text><text fill="#000000" font-family="sans-serif" font-size="13" lengthAdjust="spacing" textLength="60" x="782" y="704.0664">employee</text><polygon fill="#181818" points="1300,734.1191,1310,738.1191,1300,742.1191,1304,738.1191" style="stroke:#181818;stroke-width:1.0;"/><line style="stroke:#181818;stroke-width:1.0;" x1="743" x2="1306" y1="738.1191" y2="738.1191"/><text fill="#000000" font-family="sans-serif" font-size="13" font-weight="bold" lengthAdjust="spacing" textLength="18" x="750" y="733.377">13</text><text fill="#000000" font-family="sans-serif" font-size="13" lengthAdjust="spacing" textLength="356" x="772" y="733.377">createSkill(skillName, skillDescription, creatorEmployee)</text><polygon fill="#181818" points="1692,763.4297,1702,767.4297,1692,771.4297,1696,767.4297" style="stroke:#181818;stroke-width:1.0;"/><line style="stroke:#181818;stroke-width:1.0;" x1="1322" x2="1698" y1="767.4297" y2="767.4297"/><text fill="#000000" font-family="sans-serif" font-size="13" font-weight="bold" lengthAdjust="spacing" textLength="18" x="1329" y="762.6875">14</text><text fill="#000000" font-family="sans-serif" font-size="13" lengthAdjust="spacing" textLength="318" x="1351" y="762.6875">Skill(skillName, skillDescription, creatorEmployee)</text><polygon fill="#181818" points="1333,792.7402,1323,796.7402,1333,800.7402,1329,796.7402" style="stroke:#181818;stroke-width:1.0;"/><line style="stroke:#181818;stroke-width:1.0;stroke-dasharray:2.0,2.0;" x1="1327" x2="1708" y1="796.7402" y2="796.7402"/><text fill="#000000" font-family="sans-serif" font-size="13" font-weight="bold" lengthAdjust="spacing" textLength="18" x="1339" y="791.998">15</text><text fill="#000000" font-family="sans-serif" font-size="13" lengthAdjust="spacing" textLength="52" x="1361" y="791.998">newSkill</text><polygon fill="#181818" points="754,822.0508,744,826.0508,754,830.0508,750,826.0508" style="stroke:#181818;stroke-width:1.0;"/><line style="stroke:#181818;stroke-width:1.0;stroke-dasharray:2.0,2.0;" x1="748" x2="1316" y1="826.0508" y2="826.0508"/><text fill="#000000" font-family="sans-serif" font-size="13" font-weight="bold" lengthAdjust="spacing" textLength="18" x="760" y="821.3086">16</text><text fill="#000000" font-family="sans-serif" font-size="13" lengthAdjust="spacing" textLength="52" x="782" y="821.3086">newSkill</text><polygon fill="#181818" points="1057,851.3613,1067,855.3613,1057,859.3613,1061,855.3613" style="stroke:#181818;stroke-width:1.0;"/><line style="stroke:#181818;stroke-width:1.0;" x1="743" x2="1063" y1="855.3613" y2="855.3613"/><text fill="#000000" font-family="sans-serif" font-size="13" font-weight="bold" lengthAdjust="spacing" textLength="18" x="750" y="850.6191">17</text><text fill="#000000" font-family="sans-serif" font-size="13" lengthAdjust="spacing" textLength="85" x="772" y="850.6191">addSkill(skill)</text><line style="stroke:#181818;stroke-width:1.0;" x1="1079" x2="1121" y1="884.6719" y2="884.6719"/><line style="stroke:#181818;stroke-width:1.0;" x1="1121" x2="1121" y1="884.6719" y2="897.6719"/><line style="stroke:#181818;stroke-width:1.0;" x1="1080" x2="1121" y1="897.6719" y2="897.6719"/><polygon fill="#181818" points="1090,893.6719,1080,897.6719,1090,901.6719,1086,897.6719" style="stroke:#181818;stroke-width:1.0;"/><text fill="#000000" font-family="sans-serif" font-size="13" font-weight="bold" lengthAdjust="spacing" textLength="18" x="1086" y="879.9297">18</text><text fill="#000000" font-family="sans-serif" font-size="13" lengthAdjust="spacing" textLength="84" x="1108" y="879.9297">validateSkill()</text><path d="M1084,910.6719 L1084,965.6719 L1276,965.6719 L1276,920.6719 L1266,910.6719 L1084,910.6719 " fill="#FAFAFA" style="stroke:#181818;stroke-width:0.5;"/><path d="M1266,910.6719 L1266,920.6719 L1276,920.6719 L1266,910.6719 " fill="#FAFAFA" style="stroke:#181818;stroke-width:0.5;"/><text fill="#000000" font-family="sans-serif" font-size="13" lengthAdjust="spacing" textLength="171" x="1090" y="928.2402">- This method is explained</text><text fill="#000000" font-family="sans-serif" font-size="13" lengthAdjust="spacing" textLength="137" x="1090" y="943.5508">in detail in an excerpt</text><text fill="#000000" font-family="sans-serif" font-size="13" lengthAdjust="spacing" textLength="118" x="1090" y="958.8613">sequence diagram.</text><polygon fill="#181818" points="754,988.9141,744,992.9141,754,996.9141,750,992.9141" style="stroke:#181818;stroke-width:1.0;"/><line style="stroke:#181818;stroke-width:1.0;stroke-dasharray:2.0,2.0;" x1="748" x2="1073" y1="992.9141" y2="992.9141"/><text fill="#000000" font-family="sans-serif" font-size="13" font-weight="bold" lengthAdjust="spacing" textLength="18" x="760" y="988.1719">19</text><text fill="#000000" font-family="sans-serif" font-size="13" lengthAdjust="spacing" textLength="52" x="782" y="988.1719">newSkill</text><polygon fill="#181818" points="433,1018.2246,423,1022.2246,433,1026.2246,429,1022.2246" style="stroke:#181818;stroke-width:1.0;"/><line style="stroke:#181818;stroke-width:1.0;stroke-dasharray:2.0,2.0;" x1="427" x2="737" y1="1022.2246" y2="1022.2246"/><text fill="#000000" font-family="sans-serif" font-size="13" font-weight="bold" lengthAdjust="spacing" textLength="18" x="439" y="1017.4824">20</text><text fill="#000000" font-family="sans-serif" font-size="13" lengthAdjust="spacing" textLength="52" x="461" y="1017.4824">newSkill</text><polygon fill="#181818" points="109,1047.5352,99,1051.5352,109,1055.5352,105,1051.5352" style="stroke:#181818;stroke-width:1.0;"/><line style="stroke:#181818;stroke-width:1.0;" x1="103" x2="416" y1="1051.5352" y2="1051.5352"/><text fill="#000000" font-family="sans-serif" font-size="13" font-weight="bold" lengthAdjust="spacing" textLength="18" x="115" y="1046.793">21</text><text fill="#000000" font-family="sans-serif" font-size="13" lengthAdjust="spacing" textLength="170" x="137" y="1046.793">displays operation success</text><!--SRC=[hLRDJkCm4BxdAKPSO17b0NfO2R5TgBQKLLDkICWaqyOYiREsG-dRxzZvTPkqPHUV4dlccx_FCzPlNEHCiGmoAMIKA9aX65LWe9kJd4LlR8sXsQO82YF3n3hj2kY4nNB3nHfMBDKO1AmmKXJPAweWE4zuZB2IqhpA3pgAZ5HmTbzaJC02jInKXF3015bGPy0qt2yU0i8rFE8v4mREnd2ha1aCttYQFasTqDFqWCoj54R9DAq0RvUBsQxq0dEfERd2KJkXnyNTIpYTtyqcoyUvBwqwiizYG7Sw3vStyzk9hwgjEutyTlmiGd_7wOU_fhFPosBo-t401hCybLj4QtrIVJlDX_dTmXUbr2Sew9yPBaLhY5Hl1euSqitJyjwvuCCL6bM8MfC28JnLVvABiWhXuYMSXE5qDsLZS76sqGL18AGX-l1rOa2kN9M1rWYM2O8r0rm3IwcAyHPIkLvZ35m0Cs0IEj46y-jAmmy4DFufK12BI0m_yfHnuNITD6kFyID2bPlh04KCrfjTdtmEbBP2RibET2PqjqK-aRST34jf_axSSp4v6Rle1qRVYQWmfYoyQJ0I8iTHyadWfinGAz-W4BMXiyuh9SVYxW4X4xxTlhma6wLOO9Udhcpusf3zn7be_Q2BMnY8cM5xY0HfXSPGwVqW8RXmF9wp3A_0VVv07IcUs_H_Qo1YxCRGcmYppL7Nq5Gavq9l2df2TGZlBELnVT6jSuTzys3iyYk-a-jwML8IcImXHPKiwpb8aMvh3mZ-kbVPgMR8X4qvqTSfHGbroiYWqh0X7-4LUtLPcieDnll07RfrjpifT_mOBgTEv4QN2N9PfyXYQBWHIR7YAdDH1SSAkblKIbb_hfhMtuQshff7AkbX70ZRBWTEHhmRJTRMQAP2qm2ByAA770sgtmbwI-L3Zzg8kkDYNxMJqoD63iHGpu2VDAwhxjmNpc7kxpMKeJMgAMqI6NjDzYHrsp5ZD8odhf-BkW-VfjnqxvYpDJqshe-gjLVbNyixMDfw3dz5MUteFft_LwMWL7Nf3x7NlGhsZfr1CkpcCLGJ-ijiLbD-zxmqDchZfSctC_XwKZW0LaRGbkCahFvaT2zN_UQoWpgEEsavrY6QnrelWnhOVJFU4BiuEgKyM_znEq-zYCVltF0TyoF_PAs6arhMgvuuBLXmT1AMqwOSWZ7Nb9kj1fcZgXwFHHHH1otbTmPUvzS-xVu2]--></g></svg>