<?xml version="1.0" encoding="us-ascii" standalone="no"?><svg xmlns="http://www.w3.org/2000/svg" xmlns:xlink="http://www.w3.org/1999/xlink" contentStyleType="text/css" height="447.2px" preserveAspectRatio="none" style="width:954px;height:447px;background:#FFFFFF;" version="1.1" viewBox="0 0 954 447" width="954.4px" zoomAndPan="magnify"><defs/><g><!--class CreateSkillController--><g id="elem_CreateSkillController"><rect codeLine="11" fill="#F1F1F1" height="64.7813" id="CreateSkillController" rx="2" ry="2" style="stroke:#181818;stroke-width:0.4000000000000001;" width="268.8" x="270" y="5.6"/><ellipse cx="343.8" cy="18.4" fill="#ADD1B2" rx="8.8" ry="8.8" style="stroke:#181818;stroke-width:0.8000000000000002;"/><path d="M346.1785,22.9145 Q345.7137,23.1535 345.2023,23.273 Q344.691,23.3926 344.1266,23.3926 Q342.1211,23.3926 341.0652,22.0711 Q340.0094,20.7496 340.0094,18.2527 Q340.0094,15.7492 341.0652,14.4277 Q342.1211,13.1063 344.1266,13.1063 Q344.691,13.1063 345.209,13.2258 Q345.727,13.3453 346.1785,13.5844 L346.1785,15.7625 Q345.6738,15.2977 345.199,15.0818 Q344.7242,14.866 344.2195,14.866 Q343.1438,14.866 342.5959,15.7193 Q342.048,16.5727 342.048,18.2527 Q342.048,19.9262 342.5959,20.7795 Q343.1438,21.6328 344.2195,21.6328 Q344.7242,21.6328 345.199,21.417 Q345.6738,21.2012 346.1785,20.7363 Z " fill="#000000"/><text fill="#000000" font-family="sans-serif" font-size="11.2" lengthAdjust="spacing" textLength="114.4" x="360.2" y="22.6328">CreateSkillController</text><line style="stroke:#181818;stroke-width:0.4000000000000001;" x1="270.8" x2="538" y1="31.2" y2="31.2"/><line style="stroke:#181818;stroke-width:0.4000000000000001;" x1="270.8" x2="538" y1="37.6" y2="37.6"/><text fill="#000000" font-family="sans-serif" font-size="11.2" lengthAdjust="spacing" textLength="259.2" x="274.8" y="51.6281">+CreateSkillController(possibly skillRepository)</text><text fill="#000000" font-family="sans-serif" font-size="11.2" lengthAdjust="spacing" textLength="249.6" x="274.8" y="64.8188">+validateSkillData(skillName, skillDescription)</text></g><!--class CreateSkillUI--><g id="elem_CreateSkillUI"><rect codeLine="18" fill="#F1F1F1" height="51.5906" id="CreateSkillUI" rx="2" ry="2" style="stroke:#181818;stroke-width:0.4000000000000001;" width="236" x="5.6" y="12.192"/><ellipse cx="85.4" cy="24.992" fill="#ADD1B2" rx="8.8" ry="8.8" style="stroke:#181818;stroke-width:0.8000000000000002;"/><path d="M87.7785,29.5065 Q87.3137,29.7455 86.8023,29.865 Q86.291,29.9846 85.7266,29.9846 Q83.7211,29.9846 82.6652,28.6631 Q81.6094,27.3416 81.6094,24.8447 Q81.6094,22.3412 82.6652,21.0197 Q83.7211,19.6982 85.7266,19.6982 Q86.291,19.6982 86.809,19.8178 Q87.327,19.9373 87.7785,20.1764 L87.7785,22.3545 Q87.2738,21.8897 86.799,21.6738 Q86.3242,21.458 85.8195,21.458 Q84.7438,21.458 84.1959,22.3113 Q83.648,23.1647 83.648,24.8447 Q83.648,26.5182 84.1959,27.3715 Q84.7438,28.2248 85.8195,28.2248 Q86.3242,28.2248 86.799,28.009 Q87.2738,27.7932 87.7785,27.3283 Z " fill="#000000"/><text fill="#000000" font-family="sans-serif" font-size="11.2" lengthAdjust="spacing" textLength="69.6" x="101.8" y="29.2248">CreateSkillUI</text><line style="stroke:#181818;stroke-width:0.4000000000000001;" x1="6.4" x2="240.8" y1="37.792" y2="37.792"/><line style="stroke:#181818;stroke-width:0.4000000000000001;" x1="6.4" x2="240.8" y1="44.192" y2="44.192"/><text fill="#000000" font-family="sans-serif" font-size="11.2" lengthAdjust="spacing" textLength="226.4" x="10.4" y="58.2201">+requestData(skillName, skillDescription)</text></g><!--class Employee--><g id="elem_Employee"><rect codeLine="23" fill="#F1F1F1" height="170.3063" id="Employee" rx="2" ry="2" style="stroke:#181818;stroke-width:0.4000000000000001;" width="132" x="816.8" y="131.976"/><ellipse cx="853" cy="144.776" fill="#ADD1B2" rx="8.8" ry="8.8" style="stroke:#181818;stroke-width:0.8000000000000002;"/><path d="M855.3785,149.2905 Q854.9137,149.5295 854.4023,149.649 Q853.891,149.7686 853.3266,149.7686 Q851.3211,149.7686 850.2652,148.4471 Q849.2094,147.1256 849.2094,144.6287 Q849.2094,142.1252 850.2652,140.8037 Q851.3211,139.4823 853.3266,139.4823 Q853.891,139.4823 854.409,139.6018 Q854.927,139.7213 855.3785,139.9604 L855.3785,142.1385 Q854.8738,141.6737 854.399,141.4578 Q853.9242,141.242 853.4195,141.242 Q852.3438,141.242 851.7959,142.0953 Q851.248,142.9487 851.248,144.6287 Q851.248,146.3022 851.7959,147.1555 Q852.3438,148.0088 853.4195,148.0088 Q853.9242,148.0088 854.399,147.793 Q854.8738,147.5772 855.3785,147.1123 Z " fill="#000000"/><text fill="#000000" font-family="sans-serif" font-size="11.2" lengthAdjust="spacing" textLength="52.8" x="869.4" y="149.0088">Employee</text><line style="stroke:#181818;stroke-width:0.4000000000000001;" x1="817.6" x2="948" y1="157.576" y2="157.576"/><text fill="#000000" font-family="sans-serif" font-size="11.2" lengthAdjust="spacing" textLength="72.8" x="821.6" y="171.6041">-name:String</text><text fill="#000000" font-family="sans-serif" font-size="11.2" lengthAdjust="spacing" textLength="84.8" x="821.6" y="184.7948">-birthdate:Date</text><text fill="#000000" font-family="sans-serif" font-size="11.2" lengthAdjust="spacing" textLength="115.2" x="821.6" y="197.9854">-admissionDate:Date</text><text fill="#000000" font-family="sans-serif" font-size="11.2" lengthAdjust="spacing" textLength="49.6" x="821.6" y="211.176">-address</text><text fill="#000000" font-family="sans-serif" font-size="11.2" lengthAdjust="spacing" textLength="122.4" x="821.6" y="224.3666">-mobileContact:String</text><text fill="#000000" font-family="sans-serif" font-size="11.2" lengthAdjust="spacing" textLength="114.4" x="821.6" y="237.5573">-emailContact:String</text><text fill="#000000" font-family="sans-serif" font-size="11.2" lengthAdjust="spacing" textLength="100" x="821.6" y="250.7479">-IDdocType:String</text><text fill="#000000" font-family="sans-serif" font-size="11.2" lengthAdjust="spacing" textLength="96.8" x="821.6" y="263.9385">-IDnumber:String</text><text fill="#000000" font-family="sans-serif" font-size="11.2" lengthAdjust="spacing" textLength="104" x="821.6" y="277.1291">-taxNumber:String</text><text fill="#000000" font-family="sans-serif" font-size="11.2" lengthAdjust="spacing" textLength="44.8" x="821.6" y="290.3198">-job:Job</text><line style="stroke:#181818;stroke-width:0.4000000000000001;" x1="817.6" x2="948" y1="295.8823" y2="295.8823"/></g><!--class Collaborator--><g id="elem_Collaborator"><rect codeLine="37" fill="#F1F1F1" height="51.5906" id="Collaborator" rx="2" ry="2" style="stroke:#181818;stroke-width:0.4000000000000001;" width="124" x="744" y="12.192"/><ellipse cx="768.96" cy="24.992" fill="#ADD1B2" rx="8.8" ry="8.8" style="stroke:#181818;stroke-width:0.8000000000000002;"/><path d="M771.3385,29.5065 Q770.8737,29.7455 770.3623,29.865 Q769.851,29.9846 769.2866,29.9846 Q767.2811,29.9846 766.2252,28.6631 Q765.1694,27.3416 765.1694,24.8447 Q765.1694,22.3412 766.2252,21.0197 Q767.2811,19.6982 769.2866,19.6982 Q769.851,19.6982 770.369,19.8178 Q770.887,19.9373 771.3385,20.1764 L771.3385,22.3545 Q770.8338,21.8897 770.359,21.6738 Q769.8842,21.458 769.3795,21.458 Q768.3038,21.458 767.7559,22.3113 Q767.208,23.1647 767.208,24.8447 Q767.208,26.5182 767.7559,27.3715 Q768.3038,28.2248 769.3795,28.2248 Q769.8842,28.2248 770.359,28.009 Q770.8338,27.7932 771.3385,27.3283 Z " fill="#000000"/><text fill="#000000" font-family="sans-serif" font-size="11.2" lengthAdjust="spacing" textLength="69.6" x="783.04" y="29.2248">Collaborator</text><line style="stroke:#181818;stroke-width:0.4000000000000001;" x1="744.8" x2="867.2" y1="37.792" y2="37.792"/><text fill="#000000" font-family="sans-serif" font-size="11.2" lengthAdjust="spacing" textLength="114.4" x="748.8" y="51.8201">-listOfSkill:List&lt;Job&gt;</text><line style="stroke:#181818;stroke-width:0.4000000000000001;" x1="744.8" x2="867.2" y1="57.3826" y2="57.3826"/></g><!--class Organization--><g id="elem_Organization"><rect codeLine="41" fill="#F1F1F1" height="64.7813" id="Organization" rx="2" ry="2" style="stroke:#181818;stroke-width:0.4000000000000001;" width="225.6" x="291.6" y="364.28"/><ellipse cx="365" cy="377.08" fill="#ADD1B2" rx="8.8" ry="8.8" style="stroke:#181818;stroke-width:0.8000000000000002;"/><path d="M367.3785,381.5945 Q366.9137,381.8335 366.4023,381.953 Q365.891,382.0726 365.3266,382.0726 Q363.3211,382.0726 362.2652,380.7511 Q361.2094,379.4296 361.2094,376.9327 Q361.2094,374.4292 362.2652,373.1077 Q363.3211,371.7863 365.3266,371.7863 Q365.891,371.7863 366.409,371.9058 Q366.927,372.0253 367.3785,372.2644 L367.3785,374.4425 Q366.8738,373.9777 366.399,373.7618 Q365.9242,373.546 365.4195,373.546 Q364.3438,373.546 363.7959,374.3993 Q363.248,375.2527 363.248,376.9327 Q363.248,378.6062 363.7959,379.4595 Q364.3438,380.3128 365.4195,380.3128 Q365.9242,380.3128 366.399,380.097 Q366.8738,379.8812 367.3785,379.4163 Z " fill="#000000"/><text fill="#000000" font-family="sans-serif" font-size="11.2" lengthAdjust="spacing" textLength="72" x="381.4" y="381.3128">Organization</text><line style="stroke:#181818;stroke-width:0.4000000000000001;" x1="292.4" x2="516.4" y1="389.88" y2="389.88"/><line style="stroke:#181818;stroke-width:0.4000000000000001;" x1="292.4" x2="516.4" y1="396.28" y2="396.28"/><text fill="#000000" font-family="sans-serif" font-size="11.2" lengthAdjust="spacing" textLength="216" x="296.4" y="410.3081">+createSkill(skillName, skillDescription)</text><text fill="#000000" font-family="sans-serif" font-size="11.2" lengthAdjust="spacing" textLength="203.2" x="296.4" y="423.4988">+createJob(jobName, jobDescription)</text></g><!--class Skill--><g id="elem_Skill"><rect codeLine="47" fill="#F1F1F1" height="91.1625" id="Skill" rx="2" ry="2" style="stroke:#181818;stroke-width:0.4000000000000001;" width="259.2" x="598.8" y="351.088"/><ellipse cx="713.8" cy="363.888" fill="#ADD1B2" rx="8.8" ry="8.8" style="stroke:#181818;stroke-width:0.8000000000000002;"/><path d="M716.1785,368.4025 Q715.7137,368.6415 715.2023,368.761 Q714.691,368.8806 714.1266,368.8806 Q712.1211,368.8806 711.0652,367.5591 Q710.0094,366.2376 710.0094,363.7407 Q710.0094,361.2372 711.0652,359.9157 Q712.1211,358.5943 714.1266,358.5943 Q714.691,358.5943 715.209,358.7138 Q715.727,358.8333 716.1785,359.0724 L716.1785,361.2505 Q715.6738,360.7857 715.199,360.5698 Q714.7242,360.354 714.2195,360.354 Q713.1438,360.354 712.5959,361.2073 Q712.048,362.0607 712.048,363.7407 Q712.048,365.4142 712.5959,366.2675 Q713.1438,367.1208 714.2195,367.1208 Q714.7242,367.1208 715.199,366.905 Q715.6738,366.6892 716.1785,366.2243 Z " fill="#000000"/><text fill="#000000" font-family="sans-serif" font-size="11.2" lengthAdjust="spacing" textLength="22.4" x="730.2" y="368.1208">Skill</text><line style="stroke:#181818;stroke-width:0.4000000000000001;" x1="599.6" x2="857.2" y1="376.688" y2="376.688"/><text fill="#000000" font-family="sans-serif" font-size="11.2" lengthAdjust="spacing" textLength="95.2" x="603.6" y="390.7161">-skillName:String</text><text fill="#000000" font-family="sans-serif" font-size="11.2" lengthAdjust="spacing" textLength="126.4" x="603.6" y="403.9068">-skillDescription:String</text><line style="stroke:#181818;stroke-width:0.4000000000000001;" x1="599.6" x2="857.2" y1="409.4693" y2="409.4693"/><text fill="#000000" font-family="sans-serif" font-size="11.2" lengthAdjust="spacing" textLength="182.4" x="603.6" y="423.4974">+Skill(skillName, skillDescription)</text><text fill="#000000" font-family="sans-serif" font-size="11.2" lengthAdjust="spacing" textLength="249.6" x="603.6" y="436.688">+validateSkillData(skillName, skillDescription)</text></g><!--link CreateSkillUI to CreateSkillController--><g id="link_CreateSkillUI_CreateSkillController"><path codeLine="55" d="M241.792,37.992 C250.352,37.992 255.4,37.992 264.928,37.992 " fill="none" id="CreateSkillUI-to-CreateSkillController" style="stroke:#181818;stroke-width:0.8000000000000002;stroke-dasharray:7.0,7.0;"/><polygon fill="#181818" points="269.728,37.992,262.528,34.792,265.728,37.992,262.528,41.192,269.728,37.992" style="stroke:#181818;stroke-width:0.8000000000000002;"/></g><!--link Collaborator to Skill--><g id="link_Collaborator_Skill"><path codeLine="56" d="M788.896,64.008 C770.184,91.608 742.8,131.976 742.8,131.976 C742.8,131.976 735.2295,270.6391 731.1175,346.0071 " fill="none" id="Collaborator-to-Skill" style="stroke:#181818;stroke-width:0.8000000000000002;"/><polygon fill="#181818" points="730.856,350.8,734.4435,343.785,731.0739,346.8059,728.053,343.4364,730.856,350.8" style="stroke:#181818;stroke-width:0.8000000000000002;"/><text fill="#000000" font-family="sans-serif" font-size="10.4" lengthAdjust="spacing" textLength="58.4" x="743.6" y="221.1907">has a set of</text><text fill="#000000" font-family="sans-serif" font-size="10.4" lengthAdjust="spacing" textLength="6.4" x="778.6256" y="80.1903">1</text><text fill="#000000" font-family="sans-serif" font-size="10.4" lengthAdjust="spacing" textLength="4.8" x="726.0628" y="342.5483">*</text></g><!--link CreateSkillController to Organization--><g id="link_CreateSkillController_Organization"><path codeLine="57" d="M404.4,70.48 C404.4,138.152 404.4,291.352 404.4,359.192 " fill="none" id="CreateSkillController-to-Organization" style="stroke:#181818;stroke-width:0.8000000000000002;"/><polygon fill="#181818" points="404.4,363.992,407.6,356.792,404.4,359.992,401.2,356.792,404.4,363.992" style="stroke:#181818;stroke-width:0.8000000000000002;"/><text fill="#000000" font-family="sans-serif" font-size="10.4" lengthAdjust="spacing" textLength="52" x="405.2" y="221.1907">createSkill</text></g><!--link Organization to Skill--><g id="link_Organization_Skill"><path codeLine="58" d="M517.496,396.664 C543.688,396.664 566.968,396.664 593.816,396.664 " fill="none" id="Organization-to-Skill" style="stroke:#181818;stroke-width:0.8000000000000002;stroke-dasharray:7.0,7.0;"/><polygon fill="#181818" points="598.616,396.664,591.416,393.464,594.616,396.664,591.416,399.864,598.616,396.664" style="stroke:#181818;stroke-width:0.8000000000000002;"/><text fill="#000000" font-family="sans-serif" font-size="10.4" lengthAdjust="spacing" textLength="52" x="532" y="391.5187">createSkill</text></g><!--link Collaborator to Employee--><g id="link_Collaborator_Employee"><path codeLine="59" d="M816.84,63.848 C824.576,81.728 833.5509,102.4742 844.2469,127.2102 " fill="none" id="Collaborator-to-Employee" style="stroke:#181818;stroke-width:0.8000000000000002;"/><polygon fill="#181818" points="846.152,131.616,846.2316,123.7373,844.5644,127.9445,840.3572,126.2774,846.152,131.616" style="stroke:#181818;stroke-width:0.8000000000000002;"/><text fill="#000000" font-family="sans-serif" font-size="10.4" lengthAdjust="spacing" textLength="17.6" x="836.4" y="105.2307">is a</text></g><!--SRC=[bLDTZzCm47pthrZrfJqW25uZL0bTUIX2TnA57x19jkbInnliBP13_7USfBac9NpboTxP6O_7csKuiglHOmMLECaFNYe2zISo5wJ6_8WbxRIn19voHLVQSKCuO25VsPMmHnl6Y6L7sjG4jTYctPZb32XUnOnOkSKGNgjwpavAsrpSZXy8NXYpjBHNK07FvK6XuDOEYpEcuy2j9rJQ7TdQMt7gnLhoyDr0_9xEewjQGk3CDX1Qu3t5FQluvkRC-eAMYu6tGSLLrtY75JthEHiAkUUwDN9Zp0ypu-RZTd3XwVE9WlvTwABpfggjD4IzGk8Y8Tt5T5pP5pBsUcWjfb6L-XeM5STxYTjSrmjF8VIRIZAsr6Q1kKuagKAsSy1sKqZ-8RxQLTMTgepyfAZuxUxNwYV9qhUITJcTOuhlW9buZAcVKqei1xtVTz6bx-BwLQIiBvHxNwBZ1soJ6eBDBsd_ETXHTrHTHKDzPrpyvW4wqS7Qe_RaMjV7361_sh-w-izPYmwdC_PyFJ_aPfBnukK2aYHPm-B9udot50uO026GWkpD_7_KSQRPfp2AtKoWw6NG7lTCdBI2mtJ7FeuMp4y0]--></g></svg>