<?xml version="1.0" encoding="us-ascii" standalone="no"?><svg xmlns="http://www.w3.org/2000/svg" xmlns:xlink="http://www.w3.org/1999/xlink" contentStyleType="text/css" height="2158px" preserveAspectRatio="none" style="width:2357px;height:2158px;background:#FFFFFF;" version="1.1" viewBox="0 0 2357 2158" width="2357px" zoomAndPan="magnify"><defs/><g><rect fill="#FFFFFF" height="1963.6641" style="stroke:#181818;stroke-width:1.0;" width="10" x="74" y="93.6211"/><rect fill="#FFFFFF" height="342.5313" style="stroke:#181818;stroke-width:1.0;" width="10" x="385" y="116.9121"/><rect fill="#FFFFFF" height="31.291" style="stroke:#181818;stroke-width:1.0;" width="10" x="385" y="490.7344"/><rect fill="#FFFFFF" height="31.291" style="stroke:#181818;stroke-width:1.0;" width="10" x="385" y="587.8984"/><rect fill="#FFFFFF" height="1406.8047" style="stroke:#181818;stroke-width:1.0;" width="10" x="385" y="650.4805"/><rect fill="#FFFFFF" height="219.0371" style="stroke:#181818;stroke-width:1.0;" width="10" x="578" y="191.8242"/><rect fill="#FFFFFF" height="1257.7676" style="stroke:#181818;stroke-width:1.0;" width="10" x="578" y="768.2266"/><rect fill="#FFFFFF" height="230.0371" style="stroke:#181818;stroke-width:1.0;" width="10" x="583" y="807.5176"/><rect fill="#FFFFFF" height="513.6563" style="stroke:#181818;stroke-width:1.0;" width="10" x="583" y="1108.8457"/><rect fill="#FFFFFF" height="31.291" style="stroke:#181818;stroke-width:1.0;" width="10" x="949" y="223.1152"/><rect fill="#FFFFFF" height="31.291" style="stroke:#181818;stroke-width:1.0;" width="10" x="949" y="843.8086"/><rect fill="#FFFFFF" height="31.291" style="stroke:#181818;stroke-width:1.0;" width="10" x="1056" y="285.6973"/><rect fill="#FFFFFF" height="31.291" style="stroke:#181818;stroke-width:1.0;" width="10" x="1056" y="906.3906"/><rect fill="#FFFFFF" height="31.291" style="stroke:#181818;stroke-width:1.0;" width="10" x="1056" y="1332.8828"/><rect fill="#FFFFFF" height="31.291" style="stroke:#181818;stroke-width:1.0;" width="10" x="1200" y="348.2793"/><rect fill="#FFFFFF" height="31.291" style="stroke:#181818;stroke-width:1.0;" width="10" x="1200" y="968.9727"/><rect fill="#FFFFFF" height="31.291" style="stroke:#181818;stroke-width:1.0;" width="10" x="1364" y="1145.1367"/><rect fill="#FFFFFF" height="31.291" style="stroke:#181818;stroke-width:1.0;" width="10" x="1511" y="1207.7188"/><rect fill="#FFFFFF" height="31.291" style="stroke:#181818;stroke-width:1.0;" width="10" x="1644" y="1270.3008"/><rect fill="#FFFFFF" height="127.1641" style="stroke:#181818;stroke-width:1.0;" width="10" x="1790" y="1395.4648"/><rect fill="#FFFFFF" height="31.291" style="stroke:#181818;stroke-width:1.0;" width="10" x="2011" y="1453.0469"/><rect fill="#FFFFFF" height="31.291" style="stroke:#181818;stroke-width:1.0;" width="10" x="2011" y="1553.9199"/><rect fill="#FFFFFF" height="274.3281" style="stroke:#181818;stroke-width:1.0;" width="10" x="2011" y="1720.375"/><rect fill="#FFFFFF" height="130.873" style="stroke:#181818;stroke-width:1.0;" width="10" x="2016" y="1825.5391"/><rect fill="#FFFFFF" height="42.291" style="stroke:#181818;stroke-width:1.0;" width="10" x="2021" y="1869.8301"/><rect fill="none" height="81.873" style="stroke:#000000;stroke-width:1.5;" width="371.5" x="1703.5" y="1410.4648"/><line style="stroke:#181818;stroke-width:0.5;stroke-dasharray:5.0,5.0;" x1="79" x2="79" y1="83.6211" y2="2075.2852"/><line style="stroke:#181818;stroke-width:0.5;stroke-dasharray:5.0,5.0;" x1="390" x2="390" y1="83.6211" y2="2075.2852"/><line style="stroke:#181818;stroke-width:0.5;stroke-dasharray:5.0,5.0;" x1="583" x2="583" y1="156.7227" y2="2075.2852"/><line style="stroke:#181818;stroke-width:0.5;stroke-dasharray:5.0,5.0;" x1="953.5" x2="953.5" y1="83.6211" y2="2075.2852"/><line style="stroke:#181818;stroke-width:0.5;stroke-dasharray:5.0,5.0;" x1="1060.5" x2="1060.5" y1="83.6211" y2="2075.2852"/><line style="stroke:#181818;stroke-width:0.5;stroke-dasharray:5.0,5.0;" x1="1204.5" x2="1204.5" y1="83.6211" y2="2075.2852"/><line style="stroke:#181818;stroke-width:0.5;stroke-dasharray:5.0,5.0;" x1="1368.5" x2="1368.5" y1="83.6211" y2="2075.2852"/><line style="stroke:#181818;stroke-width:0.5;stroke-dasharray:5.0,5.0;" x1="1515.5" x2="1515.5" y1="83.6211" y2="2075.2852"/><line style="stroke:#181818;stroke-width:0.5;stroke-dasharray:5.0,5.0;" x1="1648.5" x2="1648.5" y1="83.6211" y2="2075.2852"/><line style="stroke:#181818;stroke-width:0.5;stroke-dasharray:5.0,5.0;" x1="1794.5" x2="1794.5" y1="83.6211" y2="2075.2852"/><line style="stroke:#181818;stroke-width:0.5;stroke-dasharray:5.0,5.0;" x1="2016" x2="2016" y1="83.6211" y2="2075.2852"/><line style="stroke:#181818;stroke-width:0.5;stroke-dasharray:5.0,5.0;" x1="2326" x2="2326" y1="1771.3115" y2="2075.2852"/><text fill="#000000" font-family="sans-serif" font-size="14" lengthAdjust="spacing" textLength="142" x="5" y="80.1074">Vehicle Fleet Manager</text><ellipse cx="79" cy="13.5" fill="#E3E3E3" rx="8" ry="8" style="stroke:#181818;stroke-width:0.5;"/><path d="M79,21.5 L79,48.5 M66,29.5 L92,29.5 M79,48.5 L66,63.5 M79,48.5 L92,63.5 " fill="none" style="stroke:#181818;stroke-width:0.5;"/><text fill="#000000" font-family="sans-serif" font-size="14" lengthAdjust="spacing" textLength="142" x="5" y="2089.3926">Vehicle Fleet Manager</text><ellipse cx="79" cy="2101.4063" fill="#E3E3E3" rx="8" ry="8" style="stroke:#181818;stroke-width:0.5;"/><path d="M79,2109.4063 L79,2136.4063 M66,2117.4063 L92,2117.4063 M79,2136.4063 L66,2151.4063 M79,2136.4063 L92,2151.4063 " fill="none" style="stroke:#181818;stroke-width:0.5;"/><rect fill="#E3E3E3" height="32.6211" rx="2.5" ry="2.5" style="stroke:#181818;stroke-width:0.5;" width="104" x="338" y="50"/><text fill="#000000" font-family="sans-serif" font-size="14" lengthAdjust="spacing" textLength="90" x="345" y="72.1074">:CreateTaskUI</text><rect fill="#E3E3E3" height="32.6211" rx="2.5" ry="2.5" style="stroke:#181818;stroke-width:0.5;" width="104" x="338" y="2074.2852"/><text fill="#000000" font-family="sans-serif" font-size="14" lengthAdjust="spacing" textLength="90" x="345" y="2096.3926">:CreateTaskUI</text><rect fill="#E3E3E3" height="32.6211" rx="2.5" ry="2.5" style="stroke:#181818;stroke-width:0.5;" width="154" x="506" y="2074.2852"/><text fill="#000000" font-family="sans-serif" font-size="14" lengthAdjust="spacing" textLength="140" x="513" y="2096.3926">:CreateTaskController</text><rect fill="#E3E3E3" height="32.6211" rx="2.5" ry="2.5" style="stroke:#181818;stroke-width:0.5;" width="97" x="905.5" y="50"/><text fill="#000000" font-family="sans-serif" font-size="14" lengthAdjust="spacing" textLength="83" x="912.5" y="72.1074">:Repositories</text><rect fill="#E3E3E3" height="32.6211" rx="2.5" ry="2.5" style="stroke:#181818;stroke-width:0.5;" width="97" x="905.5" y="2074.2852"/><text fill="#000000" font-family="sans-serif" font-size="14" lengthAdjust="spacing" textLength="83" x="912.5" y="2096.3926">:Repositories</text><rect fill="#E3E3E3" height="51.2422" rx="2.5" ry="2.5" style="stroke:#181818;stroke-width:0.5;" width="97" x="1012.5" y="31.3789"/><text fill="#000000" font-family="sans-serif" font-size="14" lengthAdjust="spacing" textLength="74" x="1024" y="53.4863">repositories</text><text fill="#000000" font-family="sans-serif" font-size="14" lengthAdjust="spacing" textLength="83" x="1019.5" y="72.1074">:Repositories</text><rect fill="#E3E3E3" height="51.2422" rx="2.5" ry="2.5" style="stroke:#181818;stroke-width:0.5;" width="97" x="1012.5" y="2074.2852"/><text fill="#000000" font-family="sans-serif" font-size="14" lengthAdjust="spacing" textLength="74" x="1024" y="2096.3926">repositories</text><text fill="#000000" font-family="sans-serif" font-size="14" lengthAdjust="spacing" textLength="83" x="1019.5" y="2115.0137">:Repositories</text><rect fill="#E3E3E3" height="51.2422" rx="2.5" ry="2.5" style="stroke:#181818;stroke-width:0.5;" width="171" x="1119.5" y="31.3789"/><text fill="#000000" font-family="sans-serif" font-size="14" lengthAdjust="spacing" textLength="156" x="1127" y="53.4863">taskCategoryRepository:</text><text fill="#000000" font-family="sans-serif" font-size="14" lengthAdjust="spacing" textLength="157" x="1126.5" y="72.1074">TaskCategoryRepository</text><rect fill="#E3E3E3" height="51.2422" rx="2.5" ry="2.5" style="stroke:#181818;stroke-width:0.5;" width="171" x="1119.5" y="2074.2852"/><text fill="#000000" font-family="sans-serif" font-size="14" lengthAdjust="spacing" textLength="156" x="1127" y="2096.3926">taskCategoryRepository:</text><text fill="#000000" font-family="sans-serif" font-size="14" lengthAdjust="spacing" textLength="157" x="1126.5" y="2115.0137">TaskCategoryRepository</text><rect fill="#E3E3E3" height="32.6211" rx="2.5" ry="2.5" style="stroke:#181818;stroke-width:0.5;" width="137" x="1300.5" y="50"/><text fill="#000000" font-family="sans-serif" font-size="14" lengthAdjust="spacing" textLength="123" x="1307.5" y="72.1074">:ApplicationSession</text><rect fill="#E3E3E3" height="32.6211" rx="2.5" ry="2.5" style="stroke:#181818;stroke-width:0.5;" width="137" x="1300.5" y="2074.2852"/><text fill="#000000" font-family="sans-serif" font-size="14" lengthAdjust="spacing" textLength="123" x="1307.5" y="2096.3926">:ApplicationSession</text><rect fill="#E3E3E3" height="51.2422" rx="2.5" ry="2.5" style="stroke:#181818;stroke-width:0.5;" width="137" x="1447.5" y="31.3789"/><text fill="#000000" font-family="sans-serif" font-size="14" lengthAdjust="spacing" textLength="74" x="1479" y="53.4863">appSession</text><text fill="#000000" font-family="sans-serif" font-size="14" lengthAdjust="spacing" textLength="123" x="1454.5" y="72.1074">:ApplicationSession</text><rect fill="#E3E3E3" height="51.2422" rx="2.5" ry="2.5" style="stroke:#181818;stroke-width:0.5;" width="137" x="1447.5" y="2074.2852"/><text fill="#000000" font-family="sans-serif" font-size="14" lengthAdjust="spacing" textLength="74" x="1479" y="2096.3926">appSession</text><text fill="#000000" font-family="sans-serif" font-size="14" lengthAdjust="spacing" textLength="123" x="1454.5" y="2115.0137">:ApplicationSession</text><rect fill="#E3E3E3" height="51.2422" rx="2.5" ry="2.5" style="stroke:#181818;stroke-width:0.5;" width="109" x="1594.5" y="31.3789"/><text fill="#000000" font-family="sans-serif" font-size="14" lengthAdjust="spacing" textLength="95" x="1601.5" y="53.4863">currentSession</text><text fill="#000000" font-family="sans-serif" font-size="14" lengthAdjust="spacing" textLength="83" x="1607.5" y="72.1074">:UserSession</text><rect fill="#E3E3E3" height="51.2422" rx="2.5" ry="2.5" style="stroke:#181818;stroke-width:0.5;" width="109" x="1594.5" y="2074.2852"/><text fill="#000000" font-family="sans-serif" font-size="14" lengthAdjust="spacing" textLength="95" x="1601.5" y="2096.3926">currentSession</text><text fill="#000000" font-family="sans-serif" font-size="14" lengthAdjust="spacing" textLength="83" x="1607.5" y="2115.0137">:UserSession</text><rect fill="#E3E3E3" height="51.2422" rx="2.5" ry="2.5" style="stroke:#181818;stroke-width:0.5;" width="163" x="1713.5" y="31.3789"/><text fill="#000000" font-family="sans-serif" font-size="14" lengthAdjust="spacing" textLength="149" x="1720.5" y="53.4863">organizationRepository:</text><text fill="#000000" font-family="sans-serif" font-size="14" lengthAdjust="spacing" textLength="148" x="1721" y="72.1074">OrganizationRepository</text><rect fill="#E3E3E3" height="51.2422" rx="2.5" ry="2.5" style="stroke:#181818;stroke-width:0.5;" width="163" x="1713.5" y="2074.2852"/><text fill="#000000" font-family="sans-serif" font-size="14" lengthAdjust="spacing" textLength="149" x="1720.5" y="2096.3926">organizationRepository:</text><text fill="#000000" font-family="sans-serif" font-size="14" lengthAdjust="spacing" textLength="148" x="1721" y="2115.0137">OrganizationRepository</text><rect fill="#E3E3E3" height="51.2422" rx="2.5" ry="2.5" style="stroke:#181818;stroke-width:0.5;" width="98" x="1967" y="31.3789"/><text fill="#000000" font-family="sans-serif" font-size="14" lengthAdjust="spacing" textLength="77" x="1977.5" y="53.4863">organization</text><text fill="#000000" font-family="sans-serif" font-size="14" lengthAdjust="spacing" textLength="84" x="1974" y="72.1074">:Organization</text><rect fill="#E3E3E3" height="51.2422" rx="2.5" ry="2.5" style="stroke:#181818;stroke-width:0.5;" width="98" x="1967" y="2074.2852"/><text fill="#000000" font-family="sans-serif" font-size="14" lengthAdjust="spacing" textLength="77" x="1977.5" y="2096.3926">organization</text><text fill="#000000" font-family="sans-serif" font-size="14" lengthAdjust="spacing" textLength="84" x="1974" y="2115.0137">:Organization</text><rect fill="#E3E3E3" height="51.2422" rx="2.5" ry="2.5" style="stroke:#181818;stroke-width:0.5;" width="49" x="2302" y="2074.2852"/><text fill="#000000" font-family="sans-serif" font-size="14" lengthAdjust="spacing" textLength="26" x="2313.5" y="2096.3926">task</text><text fill="#000000" font-family="sans-serif" font-size="14" lengthAdjust="spacing" textLength="35" x="2309" y="2115.0137">:Task</text><rect fill="#FFFFFF" height="1963.6641" style="stroke:#181818;stroke-width:1.0;" width="10" x="74" y="93.6211"/><rect fill="#FFFFFF" height="342.5313" style="stroke:#181818;stroke-width:1.0;" width="10" x="385" y="116.9121"/><rect fill="#FFFFFF" height="31.291" style="stroke:#181818;stroke-width:1.0;" width="10" x="385" y="490.7344"/><rect fill="#FFFFFF" height="31.291" style="stroke:#181818;stroke-width:1.0;" width="10" x="385" y="587.8984"/><rect fill="#FFFFFF" height="1406.8047" style="stroke:#181818;stroke-width:1.0;" width="10" x="385" y="650.4805"/><rect fill="#FFFFFF" height="219.0371" style="stroke:#181818;stroke-width:1.0;" width="10" x="578" y="191.8242"/><rect fill="#FFFFFF" height="1257.7676" style="stroke:#181818;stroke-width:1.0;" width="10" x="578" y="768.2266"/><rect fill="#FFFFFF" height="230.0371" style="stroke:#181818;stroke-width:1.0;" width="10" x="583" y="807.5176"/><rect fill="#FFFFFF" height="513.6563" style="stroke:#181818;stroke-width:1.0;" width="10" x="583" y="1108.8457"/><rect fill="#FFFFFF" height="31.291" style="stroke:#181818;stroke-width:1.0;" width="10" x="949" y="223.1152"/><rect fill="#FFFFFF" height="31.291" style="stroke:#181818;stroke-width:1.0;" width="10" x="949" y="843.8086"/><rect fill="#FFFFFF" height="31.291" style="stroke:#181818;stroke-width:1.0;" width="10" x="1056" y="285.6973"/><rect fill="#FFFFFF" height="31.291" style="stroke:#181818;stroke-width:1.0;" width="10" x="1056" y="906.3906"/><rect fill="#FFFFFF" height="31.291" style="stroke:#181818;stroke-width:1.0;" width="10" x="1056" y="1332.8828"/><rect fill="#FFFFFF" height="31.291" style="stroke:#181818;stroke-width:1.0;" width="10" x="1200" y="348.2793"/><rect fill="#FFFFFF" height="31.291" style="stroke:#181818;stroke-width:1.0;" width="10" x="1200" y="968.9727"/><rect fill="#FFFFFF" height="31.291" style="stroke:#181818;stroke-width:1.0;" width="10" x="1364" y="1145.1367"/><rect fill="#FFFFFF" height="31.291" style="stroke:#181818;stroke-width:1.0;" width="10" x="1511" y="1207.7188"/><rect fill="#FFFFFF" height="31.291" style="stroke:#181818;stroke-width:1.0;" width="10" x="1644" y="1270.3008"/><rect fill="#FFFFFF" height="127.1641" style="stroke:#181818;stroke-width:1.0;" width="10" x="1790" y="1395.4648"/><rect fill="#FFFFFF" height="31.291" style="stroke:#181818;stroke-width:1.0;" width="10" x="2011" y="1453.0469"/><rect fill="#FFFFFF" height="31.291" style="stroke:#181818;stroke-width:1.0;" width="10" x="2011" y="1553.9199"/><rect fill="#FFFFFF" height="274.3281" style="stroke:#181818;stroke-width:1.0;" width="10" x="2011" y="1720.375"/><rect fill="#FFFFFF" height="130.873" style="stroke:#181818;stroke-width:1.0;" width="10" x="2016" y="1825.5391"/><rect fill="#FFFFFF" height="42.291" style="stroke:#181818;stroke-width:1.0;" width="10" x="2021" y="1869.8301"/><polygon fill="#181818" points="373,112.9121,383,116.9121,373,120.9121,377,116.9121" style="stroke:#181818;stroke-width:1.0;"/><line style="stroke:#181818;stroke-width:1.0;" x1="84" x2="379" y1="116.9121" y2="116.9121"/><text fill="#000000" font-family="sans-serif" font-size="13" font-weight="bold" lengthAdjust="spacing" textLength="7" x="91" y="111.6494">1</text><text fill="#000000" font-family="sans-serif" font-size="13" lengthAdjust="spacing" textLength="150" x="102" y="111.6494">asks to create a new task</text><polygon fill="#181818" points="494,144.2031,504,148.2031,494,152.2031,498,148.2031" style="stroke:#181818;stroke-width:1.0;"/><line style="stroke:#181818;stroke-width:1.0;" x1="395" x2="500" y1="148.2031" y2="148.2031"/><text fill="#000000" font-family="sans-serif" font-size="13" font-weight="bold" lengthAdjust="spacing" textLength="7" x="402" y="142.9404">2</text><text fill="#000000" font-family="sans-serif" font-size="13" lengthAdjust="spacing" textLength="36" x="413" y="142.9404">create</text><rect fill="#E3E3E3" height="32.6211" rx="2.5" ry="2.5" style="stroke:#181818;stroke-width:0.5;" width="154" x="506" y="124.9121"/><text fill="#000000" font-family="sans-serif" font-size="14" lengthAdjust="spacing" textLength="140" x="513" y="147.0195">:CreateTaskController</text><polygon fill="#181818" points="566,187.8242,576,191.8242,566,195.8242,570,191.8242" style="stroke:#181818;stroke-width:1.0;"/><line style="stroke:#181818;stroke-width:1.0;" x1="395" x2="572" y1="191.8242" y2="191.8242"/><text fill="#000000" font-family="sans-serif" font-size="13" font-weight="bold" lengthAdjust="spacing" textLength="7" x="402" y="186.5615">3</text><text fill="#000000" font-family="sans-serif" font-size="13" lengthAdjust="spacing" textLength="116" x="413" y="186.5615">getTaskCategories()</text><polygon fill="#181818" points="937,219.1152,947,223.1152,937,227.1152,941,223.1152" style="stroke:#181818;stroke-width:1.0;"/><line style="stroke:#181818;stroke-width:1.0;" x1="588" x2="943" y1="223.1152" y2="223.1152"/><text fill="#000000" font-family="sans-serif" font-size="13" font-weight="bold" lengthAdjust="spacing" textLength="7" x="595" y="217.8525">4</text><text fill="#000000" font-family="sans-serif" font-size="13" lengthAdjust="spacing" textLength="75" x="606" y="217.8525">getInstance()</text><polygon fill="#181818" points="599,250.4063,589,254.4063,599,258.4063,595,254.4063" style="stroke:#181818;stroke-width:1.0;"/><line style="stroke:#181818;stroke-width:1.0;stroke-dasharray:2.0,2.0;" x1="593" x2="953" y1="254.4063" y2="254.4063"/><text fill="#000000" font-family="sans-serif" font-size="13" font-weight="bold" lengthAdjust="spacing" textLength="7" x="605" y="249.1436">5</text><text fill="#000000" font-family="sans-serif" font-size="13" lengthAdjust="spacing" textLength="67" x="616" y="249.1436">repositories</text><polygon fill="#181818" points="1044,281.6973,1054,285.6973,1044,289.6973,1048,285.6973" style="stroke:#181818;stroke-width:1.0;"/><line style="stroke:#181818;stroke-width:1.0;" x1="588" x2="1050" y1="285.6973" y2="285.6973"/><text fill="#000000" font-family="sans-serif" font-size="13" font-weight="bold" lengthAdjust="spacing" textLength="7" x="595" y="280.4346">6</text><text fill="#000000" font-family="sans-serif" font-size="13" lengthAdjust="spacing" textLength="168" x="606" y="280.4346">getTaskCategoryRepository()</text><polygon fill="#181818" points="599,312.9883,589,316.9883,599,320.9883,595,316.9883" style="stroke:#181818;stroke-width:1.0;"/><line style="stroke:#181818;stroke-width:1.0;stroke-dasharray:2.0,2.0;" x1="593" x2="1060" y1="316.9883" y2="316.9883"/><text fill="#000000" font-family="sans-serif" font-size="13" font-weight="bold" lengthAdjust="spacing" textLength="7" x="605" y="311.7256">7</text><text fill="#000000" font-family="sans-serif" font-size="13" lengthAdjust="spacing" textLength="139" x="616" y="311.7256">taskCategoryRepository</text><polygon fill="#181818" points="1188,344.2793,1198,348.2793,1188,352.2793,1192,348.2793" style="stroke:#181818;stroke-width:1.0;"/><line style="stroke:#181818;stroke-width:1.0;" x1="588" x2="1194" y1="348.2793" y2="348.2793"/><text fill="#000000" font-family="sans-serif" font-size="13" font-weight="bold" lengthAdjust="spacing" textLength="7" x="595" y="343.0166">8</text><text fill="#000000" font-family="sans-serif" font-size="13" lengthAdjust="spacing" textLength="116" x="606" y="343.0166">getTaskCategories()</text><polygon fill="#181818" points="599,375.5703,589,379.5703,599,383.5703,595,379.5703" style="stroke:#181818;stroke-width:1.0;"/><line style="stroke:#181818;stroke-width:1.0;stroke-dasharray:2.0,2.0;" x1="593" x2="1204" y1="379.5703" y2="379.5703"/><text fill="#000000" font-family="sans-serif" font-size="13" font-weight="bold" lengthAdjust="spacing" textLength="7" x="605" y="374.3076">9</text><text fill="#000000" font-family="sans-serif" font-size="13" lengthAdjust="spacing" textLength="98" x="616" y="374.3076">taskCategoryList</text><polygon fill="#181818" points="406,406.8613,396,410.8613,406,414.8613,402,410.8613" style="stroke:#181818;stroke-width:1.0;"/><line style="stroke:#181818;stroke-width:1.0;stroke-dasharray:2.0,2.0;" x1="400" x2="582" y1="410.8613" y2="410.8613"/><text fill="#000000" font-family="sans-serif" font-size="13" font-weight="bold" lengthAdjust="spacing" textLength="14" x="412" y="405.5986">10</text><text fill="#000000" font-family="sans-serif" font-size="13" lengthAdjust="spacing" textLength="98" x="430" y="405.5986">taskCategoryList</text><polygon fill="#181818" points="95,455.4434,85,459.4434,95,463.4434,91,459.4434" style="stroke:#181818;stroke-width:1.0;"/><line style="stroke:#181818;stroke-width:1.0;stroke-dasharray:2.0,2.0;" x1="89" x2="389" y1="459.4434" y2="459.4434"/><text fill="#000000" font-family="sans-serif" font-size="13" font-weight="bold" lengthAdjust="spacing" textLength="14" x="101" y="445.5352">11</text><text fill="#000000" font-family="sans-serif" font-size="13" lengthAdjust="spacing" textLength="141" x="119" y="436.8896">shows task category list</text><text fill="#000000" font-family="sans-serif" font-size="13" lengthAdjust="spacing" textLength="132" x="123" y="454.1807">and asks to sleect one</text><polygon fill="#181818" points="373,486.7344,383,490.7344,373,494.7344,377,490.7344" style="stroke:#181818;stroke-width:1.0;"/><line style="stroke:#181818;stroke-width:1.0;" x1="84" x2="379" y1="490.7344" y2="490.7344"/><text fill="#000000" font-family="sans-serif" font-size="13" font-weight="bold" lengthAdjust="spacing" textLength="14" x="91" y="485.4717">12</text><text fill="#000000" font-family="sans-serif" font-size="13" lengthAdjust="spacing" textLength="136" x="109" y="485.4717">selects a task category</text><polygon fill="#181818" points="95,518.0254,85,522.0254,95,526.0254,91,522.0254" style="stroke:#181818;stroke-width:1.0;"/><line style="stroke:#181818;stroke-width:1.0;stroke-dasharray:2.0,2.0;" x1="89" x2="389" y1="522.0254" y2="522.0254"/><text fill="#000000" font-family="sans-serif" font-size="13" font-weight="bold" lengthAdjust="spacing" textLength="14" x="101" y="516.7627">13</text><text fill="#000000" font-family="sans-serif" font-size="13" lengthAdjust="spacing" textLength="79" x="119" y="516.7627">requests data</text><polygon fill="#181818" points="373,583.8984,383,587.8984,373,591.8984,377,587.8984" style="stroke:#181818;stroke-width:1.0;"/><line style="stroke:#181818;stroke-width:1.0;" x1="84" x2="379" y1="587.8984" y2="587.8984"/><text fill="#000000" font-family="sans-serif" font-size="13" font-weight="bold" lengthAdjust="spacing" textLength="14" x="91" y="565.3447">14</text><text fill="#000000" font-family="sans-serif" font-size="13" lengthAdjust="spacing" textLength="258" x="109" y="548.0537">types requested data (reference, description,</text><text fill="#000000" font-family="sans-serif" font-size="13" lengthAdjust="spacing" textLength="243" x="109" y="565.3447">informal description, technical description,</text><text fill="#000000" font-family="sans-serif" font-size="13" lengthAdjust="spacing" textLength="83" x="109" y="582.6357">duration, cost)</text><polygon fill="#181818" points="95,615.1895,85,619.1895,95,623.1895,91,619.1895" style="stroke:#181818;stroke-width:1.0;"/><line style="stroke:#181818;stroke-width:1.0;stroke-dasharray:2.0,2.0;" x1="89" x2="389" y1="619.1895" y2="619.1895"/><text fill="#000000" font-family="sans-serif" font-size="13" font-weight="bold" lengthAdjust="spacing" textLength="14" x="101" y="613.9268">15</text><text fill="#000000" font-family="sans-serif" font-size="13" lengthAdjust="spacing" textLength="259" x="119" y="613.9268">shows selected category and requested data</text><polygon fill="#181818" points="373,646.4805,383,650.4805,373,654.4805,377,650.4805" style="stroke:#181818;stroke-width:1.0;"/><line style="stroke:#181818;stroke-width:1.0;" x1="84" x2="379" y1="650.4805" y2="650.4805"/><text fill="#000000" font-family="sans-serif" font-size="13" font-weight="bold" lengthAdjust="spacing" textLength="14" x="91" y="645.2178">16</text><text fill="#000000" font-family="sans-serif" font-size="13" lengthAdjust="spacing" textLength="75" x="109" y="645.2178">submits data</text><polygon fill="#181818" points="566,764.2266,576,768.2266,566,772.2266,570,768.2266" style="stroke:#181818;stroke-width:1.0;"/><line style="stroke:#181818;stroke-width:1.0;" x1="395" x2="572" y1="768.2266" y2="768.2266"/><text fill="#000000" font-family="sans-serif" font-size="13" font-weight="bold" lengthAdjust="spacing" textLength="14" x="402" y="719.7363">17</text><text fill="#000000" font-family="sans-serif" font-size="13" lengthAdjust="spacing" textLength="125" x="420" y="676.5088">createTask(reference,</text><text fill="#000000" font-family="sans-serif" font-size="13" lengthAdjust="spacing" textLength="67" x="420" y="693.7998">description,</text><text fill="#000000" font-family="sans-serif" font-size="13" lengthAdjust="spacing" textLength="114" x="420" y="711.0908">informalDescription,</text><text fill="#000000" font-family="sans-serif" font-size="13" lengthAdjust="spacing" textLength="121" x="420" y="728.3818">technicalDescription,</text><text fill="#000000" font-family="sans-serif" font-size="13" lengthAdjust="spacing" textLength="83" x="420" y="745.6729">duration, cost,</text><text fill="#000000" font-family="sans-serif" font-size="13" lengthAdjust="spacing" textLength="146" x="420" y="762.9639">taskCategoryDescription)</text><line style="stroke:#181818;stroke-width:1.0;" x1="588" x2="635" y1="794.5176" y2="794.5176"/><line style="stroke:#181818;stroke-width:1.0;" x1="635" x2="635" y1="794.5176" y2="807.5176"/><line style="stroke:#181818;stroke-width:1.0;" x1="594" x2="635" y1="807.5176" y2="807.5176"/><polygon fill="#181818" points="604,803.5176,594,807.5176,604,811.5176,600,807.5176" style="stroke:#181818;stroke-width:1.0;"/><text fill="#000000" font-family="sans-serif" font-size="13" font-weight="bold" lengthAdjust="spacing" textLength="14" x="600" y="789.2549">18</text><text fill="#000000" font-family="sans-serif" font-size="13" lengthAdjust="spacing" textLength="329" x="618" y="789.2549">getTaskCategoryByDescription(taskCategoryDescription)</text><polygon fill="#181818" points="937,839.8086,947,843.8086,937,847.8086,941,843.8086" style="stroke:#181818;stroke-width:1.0;"/><line style="stroke:#181818;stroke-width:1.0;" x1="593" x2="943" y1="843.8086" y2="843.8086"/><text fill="#000000" font-family="sans-serif" font-size="13" font-weight="bold" lengthAdjust="spacing" textLength="14" x="600" y="838.5459">19</text><text fill="#000000" font-family="sans-serif" font-size="13" lengthAdjust="spacing" textLength="75" x="618" y="838.5459">getInstance()</text><polygon fill="#181818" points="604,871.0996,594,875.0996,604,879.0996,600,875.0996" style="stroke:#181818;stroke-width:1.0;"/><line style="stroke:#181818;stroke-width:1.0;stroke-dasharray:2.0,2.0;" x1="598" x2="953" y1="875.0996" y2="875.0996"/><text fill="#000000" font-family="sans-serif" font-size="13" font-weight="bold" lengthAdjust="spacing" textLength="14" x="610" y="869.8369">20</text><text fill="#000000" font-family="sans-serif" font-size="13" lengthAdjust="spacing" textLength="67" x="628" y="869.8369">repositories</text><polygon fill="#181818" points="1044,902.3906,1054,906.3906,1044,910.3906,1048,906.3906" style="stroke:#181818;stroke-width:1.0;"/><line style="stroke:#181818;stroke-width:1.0;" x1="593" x2="1050" y1="906.3906" y2="906.3906"/><text fill="#000000" font-family="sans-serif" font-size="13" font-weight="bold" lengthAdjust="spacing" textLength="14" x="600" y="901.1279">21</text><text fill="#000000" font-family="sans-serif" font-size="13" lengthAdjust="spacing" textLength="168" x="618" y="901.1279">getTaskCategoryRepository()</text><polygon fill="#181818" points="604,933.6816,594,937.6816,604,941.6816,600,937.6816" style="stroke:#181818;stroke-width:1.0;"/><line style="stroke:#181818;stroke-width:1.0;" x1="598" x2="1060" y1="937.6816" y2="937.6816"/><text fill="#000000" font-family="sans-serif" font-size="13" font-weight="bold" lengthAdjust="spacing" textLength="14" x="610" y="932.4189">22</text><text fill="#000000" font-family="sans-serif" font-size="13" lengthAdjust="spacing" textLength="139" x="628" y="932.4189">taskCategoryRepository</text><polygon fill="#181818" points="1188,964.9727,1198,968.9727,1188,972.9727,1192,968.9727" style="stroke:#181818;stroke-width:1.0;"/><line style="stroke:#181818;stroke-width:1.0;" x1="593" x2="1194" y1="968.9727" y2="968.9727"/><text fill="#000000" font-family="sans-serif" font-size="13" font-weight="bold" lengthAdjust="spacing" textLength="14" x="600" y="963.71">23</text><text fill="#000000" font-family="sans-serif" font-size="13" lengthAdjust="spacing" textLength="329" x="618" y="963.71">getTaskCategoryByDescription(taskCategoryDescription)</text><polygon fill="#181818" points="604,996.2637,594,1000.2637,604,1004.2637,600,1000.2637" style="stroke:#181818;stroke-width:1.0;"/><line style="stroke:#181818;stroke-width:1.0;stroke-dasharray:2.0,2.0;" x1="598" x2="1204" y1="1000.2637" y2="1000.2637"/><text fill="#000000" font-family="sans-serif" font-size="13" font-weight="bold" lengthAdjust="spacing" textLength="14" x="610" y="995.001">24</text><text fill="#000000" font-family="sans-serif" font-size="13" lengthAdjust="spacing" textLength="77" x="628" y="995.001">taskCategory</text><line style="stroke:#181818;stroke-width:1.0;stroke-dasharray:2.0,2.0;" x1="593" x2="635" y1="1036.5547" y2="1036.5547"/><line style="stroke:#181818;stroke-width:1.0;stroke-dasharray:2.0,2.0;" x1="635" x2="635" y1="1036.5547" y2="1049.5547"/><line style="stroke:#181818;stroke-width:1.0;stroke-dasharray:2.0,2.0;" x1="588" x2="635" y1="1049.5547" y2="1049.5547"/><polygon fill="#181818" points="598,1045.5547,588,1049.5547,598,1053.5547,594,1049.5547" style="stroke:#181818;stroke-width:1.0;"/><text fill="#000000" font-family="sans-serif" font-size="13" font-weight="bold" lengthAdjust="spacing" textLength="14" x="600" y="1031.292">25</text><text fill="#000000" font-family="sans-serif" font-size="13" lengthAdjust="spacing" textLength="77" x="618" y="1031.292">taskCategory</text><line style="stroke:#181818;stroke-width:1.0;" x1="588" x2="635" y1="1095.8457" y2="1095.8457"/><line style="stroke:#181818;stroke-width:1.0;" x1="635" x2="635" y1="1095.8457" y2="1108.8457"/><line style="stroke:#181818;stroke-width:1.0;" x1="594" x2="635" y1="1108.8457" y2="1108.8457"/><polygon fill="#181818" points="604,1104.8457,594,1108.8457,604,1112.8457,600,1108.8457" style="stroke:#181818;stroke-width:1.0;"/><text fill="#000000" font-family="sans-serif" font-size="13" font-weight="bold" lengthAdjust="spacing" textLength="14" x="600" y="1090.583">26</text><text fill="#000000" font-family="sans-serif" font-size="13" lengthAdjust="spacing" textLength="161" x="618" y="1090.583">getEmployeeFromSession()</text><polygon fill="#181818" points="1352,1141.1367,1362,1145.1367,1352,1149.1367,1356,1145.1367" style="stroke:#181818;stroke-width:1.0;"/><line style="stroke:#181818;stroke-width:1.0;" x1="593" x2="1358" y1="1145.1367" y2="1145.1367"/><text fill="#000000" font-family="sans-serif" font-size="13" font-weight="bold" lengthAdjust="spacing" textLength="14" x="600" y="1139.874">27</text><text fill="#000000" font-family="sans-serif" font-size="13" lengthAdjust="spacing" textLength="75" x="618" y="1139.874">getInstance()</text><polygon fill="#181818" points="604,1172.4277,594,1176.4277,604,1180.4277,600,1176.4277" style="stroke:#181818;stroke-width:1.0;"/><line style="stroke:#181818;stroke-width:1.0;" x1="598" x2="1368" y1="1176.4277" y2="1176.4277"/><text fill="#000000" font-family="sans-serif" font-size="13" font-weight="bold" lengthAdjust="spacing" textLength="14" x="610" y="1171.165">28</text><text fill="#000000" font-family="sans-serif" font-size="13" lengthAdjust="spacing" textLength="68" x="628" y="1171.165">appSession</text><polygon fill="#181818" points="1499,1203.7188,1509,1207.7188,1499,1211.7188,1503,1207.7188" style="stroke:#181818;stroke-width:1.0;"/><line style="stroke:#181818;stroke-width:1.0;" x1="593" x2="1505" y1="1207.7188" y2="1207.7188"/><text fill="#000000" font-family="sans-serif" font-size="13" font-weight="bold" lengthAdjust="spacing" textLength="14" x="600" y="1202.4561">29</text><text fill="#000000" font-family="sans-serif" font-size="13" lengthAdjust="spacing" textLength="115" x="618" y="1202.4561">getCurrentSession()</text><polygon fill="#181818" points="604,1235.0098,594,1239.0098,604,1243.0098,600,1239.0098" style="stroke:#181818;stroke-width:1.0;"/><line style="stroke:#181818;stroke-width:1.0;stroke-dasharray:2.0,2.0;" x1="598" x2="1515" y1="1239.0098" y2="1239.0098"/><text fill="#000000" font-family="sans-serif" font-size="13" font-weight="bold" lengthAdjust="spacing" textLength="14" x="610" y="1233.7471">30</text><text fill="#000000" font-family="sans-serif" font-size="13" lengthAdjust="spacing" textLength="87" x="628" y="1233.7471">currentSession</text><polygon fill="#181818" points="1632,1266.3008,1642,1270.3008,1632,1274.3008,1636,1270.3008" style="stroke:#181818;stroke-width:1.0;"/><line style="stroke:#181818;stroke-width:1.0;" x1="593" x2="1638" y1="1270.3008" y2="1270.3008"/><text fill="#000000" font-family="sans-serif" font-size="13" font-weight="bold" lengthAdjust="spacing" textLength="14" x="600" y="1265.0381">31</text><text fill="#000000" font-family="sans-serif" font-size="13" lengthAdjust="spacing" textLength="133" x="618" y="1265.0381">email = getUserEmail()</text><polygon fill="#181818" points="604,1297.5918,594,1301.5918,604,1305.5918,600,1301.5918" style="stroke:#181818;stroke-width:1.0;"/><line style="stroke:#181818;stroke-width:1.0;stroke-dasharray:2.0,2.0;" x1="598" x2="1648" y1="1301.5918" y2="1301.5918"/><text fill="#000000" font-family="sans-serif" font-size="13" font-weight="bold" lengthAdjust="spacing" textLength="14" x="610" y="1296.3291">32</text><text fill="#000000" font-family="sans-serif" font-size="13" lengthAdjust="spacing" textLength="31" x="628" y="1296.3291">email</text><polygon fill="#181818" points="1044,1328.8828,1054,1332.8828,1044,1336.8828,1048,1332.8828" style="stroke:#181818;stroke-width:1.0;"/><line style="stroke:#181818;stroke-width:1.0;" x1="593" x2="1050" y1="1332.8828" y2="1332.8828"/><text fill="#000000" font-family="sans-serif" font-size="13" font-weight="bold" lengthAdjust="spacing" textLength="14" x="600" y="1327.6201">33</text><text fill="#000000" font-family="sans-serif" font-size="13" lengthAdjust="spacing" textLength="192" x="618" y="1327.6201">getOrganizationRepository(email)</text><polygon fill="#181818" points="604,1360.1738,594,1364.1738,604,1368.1738,600,1364.1738" style="stroke:#181818;stroke-width:1.0;"/><line style="stroke:#181818;stroke-width:1.0;stroke-dasharray:2.0,2.0;" x1="598" x2="1060" y1="1364.1738" y2="1364.1738"/><text fill="#000000" font-family="sans-serif" font-size="13" font-weight="bold" lengthAdjust="spacing" textLength="14" x="610" y="1358.9111">34</text><text fill="#000000" font-family="sans-serif" font-size="13" lengthAdjust="spacing" textLength="132" x="628" y="1358.9111">organizationRepository</text><polygon fill="#181818" points="1778,1391.4648,1788,1395.4648,1778,1399.4648,1782,1395.4648" style="stroke:#181818;stroke-width:1.0;"/><line style="stroke:#181818;stroke-width:1.0;" x1="593" x2="1784" y1="1395.4648" y2="1395.4648"/><text fill="#000000" font-family="sans-serif" font-size="13" font-weight="bold" lengthAdjust="spacing" textLength="14" x="600" y="1390.2021">35</text><text fill="#000000" font-family="sans-serif" font-size="13" lengthAdjust="spacing" textLength="237" x="618" y="1390.2021">getOrganizationByEmployeeEmail(email)</text><path d="M1703.5,1410.4648 L1776.5,1410.4648 L1776.5,1419.7559 L1766.5,1429.7559 L1703.5,1429.7559 L1703.5,1410.4648 " fill="#EEEEEE" style="stroke:#000000;stroke-width:1.5;"/><rect fill="none" height="81.873" style="stroke:#000000;stroke-width:1.5;" width="371.5" x="1703.5" y="1410.4648"/><text fill="#000000" font-family="sans-serif" font-size="13" font-weight="bold" lengthAdjust="spacing" textLength="28" x="1718.5" y="1425.4932">loop</text><text fill="#000000" font-family="sans-serif" font-size="11" font-weight="bold" lengthAdjust="spacing" textLength="128" x="1791.5" y="1424.335">[[for each organization]</text><polygon fill="#181818" points="1999,1449.0469,2009,1453.0469,1999,1457.0469,2003,1453.0469" style="stroke:#181818;stroke-width:1.0;"/><line style="stroke:#181818;stroke-width:1.0;" x1="1800" x2="2005" y1="1453.0469" y2="1453.0469"/><text fill="#000000" font-family="sans-serif" font-size="13" font-weight="bold" lengthAdjust="spacing" textLength="14" x="1807" y="1447.7842">36</text><text fill="#000000" font-family="sans-serif" font-size="13" lengthAdjust="spacing" textLength="174" x="1825" y="1447.7842">anyEmployeeHasEmail(email)</text><polygon fill="#181818" points="1811,1480.3379,1801,1484.3379,1811,1488.3379,1807,1484.3379" style="stroke:#181818;stroke-width:1.0;"/><line style="stroke:#181818;stroke-width:1.0;stroke-dasharray:2.0,2.0;" x1="1805" x2="2015" y1="1484.3379" y2="1484.3379"/><text fill="#000000" font-family="sans-serif" font-size="13" font-weight="bold" lengthAdjust="spacing" textLength="14" x="1817" y="1479.0752">37</text><text fill="#000000" font-family="sans-serif" font-size="13" lengthAdjust="spacing" textLength="53" x="1835" y="1479.0752">true/false</text><polygon fill="#181818" points="604,1518.6289,594,1522.6289,604,1526.6289,600,1522.6289" style="stroke:#181818;stroke-width:1.0;"/><line style="stroke:#181818;stroke-width:1.0;stroke-dasharray:2.0,2.0;" x1="598" x2="1794" y1="1522.6289" y2="1522.6289"/><text fill="#000000" font-family="sans-serif" font-size="13" font-weight="bold" lengthAdjust="spacing" textLength="14" x="610" y="1517.3662">38</text><text fill="#000000" font-family="sans-serif" font-size="13" lengthAdjust="spacing" textLength="70" x="628" y="1517.3662">organization</text><polygon fill="#181818" points="1999,1549.9199,2009,1553.9199,1999,1557.9199,2003,1553.9199" style="stroke:#181818;stroke-width:1.0;"/><line style="stroke:#181818;stroke-width:1.0;" x1="593" x2="2005" y1="1553.9199" y2="1553.9199"/><text fill="#000000" font-family="sans-serif" font-size="13" font-weight="bold" lengthAdjust="spacing" textLength="14" x="600" y="1548.6572">39</text><text fill="#000000" font-family="sans-serif" font-size="13" lengthAdjust="spacing" textLength="164" x="618" y="1548.6572">getEmployeeByEmail(email)</text><polygon fill="#181818" points="604,1581.2109,594,1585.2109,604,1589.2109,600,1585.2109" style="stroke:#181818;stroke-width:1.0;"/><line style="stroke:#181818;stroke-width:1.0;stroke-dasharray:2.0,2.0;" x1="598" x2="2015" y1="1585.2109" y2="1585.2109"/><text fill="#000000" font-family="sans-serif" font-size="13" font-weight="bold" lengthAdjust="spacing" textLength="14" x="610" y="1579.9482">40</text><text fill="#000000" font-family="sans-serif" font-size="13" lengthAdjust="spacing" textLength="56" x="628" y="1579.9482">employee</text><line style="stroke:#181818;stroke-width:1.0;stroke-dasharray:2.0,2.0;" x1="593" x2="635" y1="1621.502" y2="1621.502"/><line style="stroke:#181818;stroke-width:1.0;stroke-dasharray:2.0,2.0;" x1="635" x2="635" y1="1621.502" y2="1634.502"/><line style="stroke:#181818;stroke-width:1.0;stroke-dasharray:2.0,2.0;" x1="588" x2="635" y1="1634.502" y2="1634.502"/><polygon fill="#181818" points="598,1630.502,588,1634.502,598,1638.502,594,1634.502" style="stroke:#181818;stroke-width:1.0;"/><text fill="#000000" font-family="sans-serif" font-size="13" font-weight="bold" lengthAdjust="spacing" textLength="14" x="600" y="1616.2393">41</text><text fill="#000000" font-family="sans-serif" font-size="13" lengthAdjust="spacing" textLength="56" x="618" y="1616.2393">employee</text><polygon fill="#181818" points="1999,1716.375,2009,1720.375,1999,1724.375,2003,1720.375" style="stroke:#181818;stroke-width:1.0;"/><line style="stroke:#181818;stroke-width:1.0;" x1="588" x2="2005" y1="1720.375" y2="1720.375"/><text fill="#000000" font-family="sans-serif" font-size="13" font-weight="bold" lengthAdjust="spacing" textLength="14" x="595" y="1697.8213">42</text><text fill="#000000" font-family="sans-serif" font-size="13" lengthAdjust="spacing" textLength="260" x="613" y="1680.5303">createTask(employee, reference, description,</text><text fill="#000000" font-family="sans-serif" font-size="13" lengthAdjust="spacing" textLength="239" x="613" y="1697.8213">informalDescription, technicalDescription,</text><text fill="#000000" font-family="sans-serif" font-size="13" lengthAdjust="spacing" textLength="240" x="613" y="1715.1123">duration, cost, , taskCategory, employee)</text><polygon fill="#181818" points="2290,1782.248,2300,1786.248,2290,1790.248,2294,1786.248" style="stroke:#181818;stroke-width:1.0;"/><line style="stroke:#181818;stroke-width:1.0;" x1="2021" x2="2296" y1="1786.248" y2="1786.248"/><text fill="#000000" font-family="sans-serif" font-size="13" font-weight="bold" lengthAdjust="spacing" textLength="14" x="2028" y="1763.6943">43</text><text fill="#000000" font-family="sans-serif" font-size="13" lengthAdjust="spacing" textLength="232" x="2046" y="1746.4033">create(employee, reference, description,</text><text fill="#000000" font-family="sans-serif" font-size="13" lengthAdjust="spacing" textLength="239" x="2046" y="1763.6943">informalDescription, technicalDescription,</text><text fill="#000000" font-family="sans-serif" font-size="13" lengthAdjust="spacing" textLength="232" x="2046" y="1780.9854">duration, cost, taskCategory, employee)</text><rect fill="#E3E3E3" height="51.2422" rx="2.5" ry="2.5" style="stroke:#181818;stroke-width:0.5;" width="49" x="2302" y="1732.0059"/><text fill="#000000" font-family="sans-serif" font-size="14" lengthAdjust="spacing" textLength="26" x="2313.5" y="1754.1133">task</text><text fill="#000000" font-family="sans-serif" font-size="14" lengthAdjust="spacing" textLength="35" x="2309" y="1772.7344">:Task</text><line style="stroke:#181818;stroke-width:1.0;" x1="2021" x2="2068" y1="1812.5391" y2="1812.5391"/><line style="stroke:#181818;stroke-width:1.0;" x1="2068" x2="2068" y1="1812.5391" y2="1825.5391"/><line style="stroke:#181818;stroke-width:1.0;" x1="2027" x2="2068" y1="1825.5391" y2="1825.5391"/><polygon fill="#181818" points="2037,1821.5391,2027,1825.5391,2037,1829.5391,2033,1825.5391" style="stroke:#181818;stroke-width:1.0;"/><text fill="#000000" font-family="sans-serif" font-size="13" font-weight="bold" lengthAdjust="spacing" textLength="14" x="2033" y="1807.2764">44</text><text fill="#000000" font-family="sans-serif" font-size="13" lengthAdjust="spacing" textLength="86" x="2051" y="1807.2764">addTask (task)</text><line style="stroke:#181818;stroke-width:1.0;" x1="2026" x2="2073" y1="1856.8301" y2="1856.8301"/><line style="stroke:#181818;stroke-width:1.0;" x1="2073" x2="2073" y1="1856.8301" y2="1869.8301"/><line style="stroke:#181818;stroke-width:1.0;" x1="2032" x2="2073" y1="1869.8301" y2="1869.8301"/><polygon fill="#181818" points="2042,1865.8301,2032,1869.8301,2042,1873.8301,2038,1869.8301" style="stroke:#181818;stroke-width:1.0;"/><text fill="#000000" font-family="sans-serif" font-size="13" font-weight="bold" lengthAdjust="spacing" textLength="14" x="2038" y="1851.5674">45</text><text fill="#000000" font-family="sans-serif" font-size="13" lengthAdjust="spacing" textLength="104" x="2056" y="1851.5674">validateTask(task)</text><line style="stroke:#181818;stroke-width:1.0;stroke-dasharray:2.0,2.0;" x1="2031" x2="2073" y1="1911.1211" y2="1911.1211"/><line style="stroke:#181818;stroke-width:1.0;stroke-dasharray:2.0,2.0;" x1="2073" x2="2073" y1="1911.1211" y2="1924.1211"/><line style="stroke:#181818;stroke-width:1.0;stroke-dasharray:2.0,2.0;" x1="2026" x2="2073" y1="1924.1211" y2="1924.1211"/><polygon fill="#181818" points="2036,1920.1211,2026,1924.1211,2036,1928.1211,2032,1924.1211" style="stroke:#181818;stroke-width:1.0;"/><text fill="#000000" font-family="sans-serif" font-size="13" font-weight="bold" lengthAdjust="spacing" textLength="14" x="2038" y="1905.8584">46</text><text fill="#000000" font-family="sans-serif" font-size="13" lengthAdjust="spacing" textLength="4" x="2056" y="1905.8584">&#160;</text><line style="stroke:#181818;stroke-width:1.0;stroke-dasharray:2.0,2.0;" x1="2026" x2="2068" y1="1955.4121" y2="1955.4121"/><line style="stroke:#181818;stroke-width:1.0;stroke-dasharray:2.0,2.0;" x1="2068" x2="2068" y1="1955.4121" y2="1968.4121"/><line style="stroke:#181818;stroke-width:1.0;stroke-dasharray:2.0,2.0;" x1="2021" x2="2068" y1="1968.4121" y2="1968.4121"/><polygon fill="#181818" points="2031,1964.4121,2021,1968.4121,2031,1972.4121,2027,1968.4121" style="stroke:#181818;stroke-width:1.0;"/><text fill="#000000" font-family="sans-serif" font-size="13" font-weight="bold" lengthAdjust="spacing" textLength="14" x="2033" y="1950.1494">47</text><text fill="#000000" font-family="sans-serif" font-size="13" lengthAdjust="spacing" textLength="4" x="2051" y="1950.1494">&#160;</text><polygon fill="#181818" points="599,1990.7031,589,1994.7031,599,1998.7031,595,1994.7031" style="stroke:#181818;stroke-width:1.0;"/><line style="stroke:#181818;stroke-width:1.0;stroke-dasharray:2.0,2.0;" x1="593" x2="2015" y1="1994.7031" y2="1994.7031"/><text fill="#000000" font-family="sans-serif" font-size="13" font-weight="bold" lengthAdjust="spacing" textLength="14" x="605" y="1989.4404">48</text><text fill="#000000" font-family="sans-serif" font-size="13" lengthAdjust="spacing" textLength="25" x="623" y="1989.4404">task</text><polygon fill="#181818" points="406,2021.9941,396,2025.9941,406,2029.9941,402,2025.9941" style="stroke:#181818;stroke-width:1.0;"/><line style="stroke:#181818;stroke-width:1.0;stroke-dasharray:2.0,2.0;" x1="400" x2="582" y1="2025.9941" y2="2025.9941"/><text fill="#000000" font-family="sans-serif" font-size="13" font-weight="bold" lengthAdjust="spacing" textLength="14" x="412" y="2020.7314">49</text><text fill="#000000" font-family="sans-serif" font-size="13" lengthAdjust="spacing" textLength="25" x="430" y="2020.7314">task</text><polygon fill="#181818" points="90,2053.2852,80,2057.2852,90,2061.2852,86,2057.2852" style="stroke:#181818;stroke-width:1.0;"/><line style="stroke:#181818;stroke-width:1.0;stroke-dasharray:2.0,2.0;" x1="84" x2="389" y1="2057.2852" y2="2057.2852"/><text fill="#000000" font-family="sans-serif" font-size="13" font-weight="bold" lengthAdjust="spacing" textLength="14" x="96" y="2052.0225">50</text><text fill="#000000" font-family="sans-serif" font-size="13" lengthAdjust="spacing" textLength="158" x="114" y="2052.0225">displays operation success</text><!--SRC=[xLXBR-Cs4BxpLmnooGCEUZVG0Dwy6Y311dRIImqKZ3InYSYaAjARkiYFxv1wcBIenmRTFLMNnERCDz-CPZwIrcz2vhpW6zWegP9reJO8fjWYqyrApfCtliA5sMK81IQ6orNc6-WrJzMxa2juvPb6nlZMABdTl631sF5Qf0YlIfaNzJVZYL457FsEQv4Gsas6QE21Iy8lZe1hc5qzC48r8X4vbmQEffS5SeDFNByztpcJvxjEYqibJQ6oh0AxV9hV7zZECLTQ40c1sjaqN-mMmkP5p4ENmlDOoZR0u_tiAVGmbWanMX7e7dwwb4_H1OSINpeWFylpJ2JS22KNg3NzSRv_pXuVGqkUvvK1CUxmQZabsw90QVQEpneBtsDnlLZClePEgbXnAVvnw46kNwCB3YU-r8rBL7oN4cD-souw6TewbWMTpQzlPinsdFX6XNMTnQ1ww0ESNr0hmPICtpGO1Obh8-0WyHqitDwy0Q7UOyVWFOHmJa0MRqh3yTSMjT6GSiFXfC1Nf8ecE84KTLA8tDAV00ZvgeeDps0fmnM3oLhIkyh2hzDjmSl_4gNDAVC975UqNQyVChjmNv-T4RVIZ7MOaC4AZTU4rDqdOQ2c1YvIi6GVXq9eaNagmU-a9kL8y00sW8uDOylQFh4evrKkzZtiPxJbdkBtXQiJitFUAfCtgtrvEOs89k9GzypZqj6NGnow9XsdEk9j1_Gxn2cQK4V4ytsZ-JdU2stwiXiRkSotdkZU21vwkvE3STPhzQuT62GL6cG4HrFBPTheXgPDB36W9B983AiOXugZCICFJL8JWBEMr0oh31iHpknorBKRfWFgj9IDF8tGfgMCYTDm4cLjoq8GfQQ-jh0Xqp4PwktBHlWLwIJGT67I71gyIb0sGMvr9Qw2RvjANFKKmjfvRUYPdh8HabeFS5ISTrzyl9F1EF_Bzu-LxwYq_KJv_am__2I1_uIunu8s-ZuKebVTFpu-1eRiUfDdQeTuGnUXwkZxkMEGFPEFdXjtW8-bRHUWcOlzgRwlgWwicrZDwp8uxVUnStWnTevSmowyFlGnZ0BM_CfBnXHmmqK6lrggzXvoRJ_siQmk9r6YvPh7rO7tKQpHUkN4rJ5-cJbn4VwB4s7yWZKiAPtCuuHRkNpPrRDGbdueeOvBNJJ5JAaS_g2j5OZrEaWnQc-VEBvBQ7vhRt6o8VmRrxsSszpfCjbfLKQd6EUTnRE2L6pnb_BdZouCxnNPW34Jb2dxdkJtsjLRGp_ooDVKTClyDX16snQZsg6hf7KbAzvOuRA1Qh6X7I4AzAdTmANi7Gzhv0bq79dZvqGOTqo4IR2PJPf4EhQTQ35SKI-gtppEpchwFvhw6E8UFLTOdgQsgk1EAQSHdHeS4X_j6yz4Mh-e4d5mqWTdlCDcg2E7C8Ry3oOZ_0Lg2C2x05UkVNCGl_9E8HKwp_XEWygnVDLqjKeIsj9Zjp1_IxzwOFy2]--></g></svg>