<?xml version="1.0" encoding="us-ascii" standalone="no"?><svg xmlns="http://www.w3.org/2000/svg" xmlns:xlink="http://www.w3.org/1999/xlink" contentStyleType="text/css" height="1366px" preserveAspectRatio="none" style="width:1071px;height:1366px;background:#FFFFFF;" version="1.1" viewBox="0 0 1071 1366" width="1071px" zoomAndPan="magnify"><defs/><g><!--cluster UI--><g id="cluster_UI"><path d="M431.5,6 L447.5,6 A3.75,3.75 0 0 1 450,8.5 L457,28.4883 L634.5,28.4883 A2.5,2.5 0 0 1 637,30.9883 L637,118.99 A2.5,2.5 0 0 1 634.5,121.49 L431.5,121.49 A2.5,2.5 0 0 1 429,118.99 L429,8.5 A2.5,2.5 0 0 1 431.5,6 " fill="none" style="stroke:#000000;stroke-width:1.5;"/><line style="stroke:#000000;stroke-width:1.5;" x1="429" x2="457" y1="28.4883" y2="28.4883"/><text fill="#000000" font-family="sans-serif" font-size="14" font-weight="bold" lengthAdjust="spacing" textLength="15" x="433" y="21.5352">UI</text></g><!--cluster Controller--><g id="cluster_Controller"><path d="M334.5,153.49 L408.5,153.49 A3.75,3.75 0 0 1 411,155.99 L418,175.9783 L731.5,175.9783 A2.5,2.5 0 0 1 734,178.4783 L734,315.94 A2.5,2.5 0 0 1 731.5,318.44 L334.5,318.44 A2.5,2.5 0 0 1 332,315.94 L332,155.99 A2.5,2.5 0 0 1 334.5,153.49 " fill="none" style="stroke:#000000;stroke-width:1.5;"/><line style="stroke:#000000;stroke-width:1.5;" x1="332" x2="418" y1="175.9783" y2="175.9783"/><text fill="#000000" font-family="sans-serif" font-size="14" font-weight="bold" lengthAdjust="spacing" textLength="73" x="336" y="169.0252">Controller</text></g><!--cluster Repository--><g id="cluster_Repository"><path d="M208.5,367.44 L287.5,367.44 A3.75,3.75 0 0 1 290,369.94 L297,389.9283 L768.5,389.9283 A2.5,2.5 0 0 1 771,392.4283 L771,786.8 A2.5,2.5 0 0 1 768.5,789.3 L208.5,789.3 A2.5,2.5 0 0 1 206,786.8 L206,369.94 A2.5,2.5 0 0 1 208.5,367.44 " fill="none" style="stroke:#000000;stroke-width:1.5;"/><line style="stroke:#000000;stroke-width:1.5;" x1="206" x2="297" y1="389.9283" y2="389.9283"/><text fill="#000000" font-family="sans-serif" font-size="14" font-weight="bold" lengthAdjust="spacing" textLength="78" x="210" y="382.9752">Repository</text></g><!--cluster Domain--><g id="cluster_Domain"><path d="M148.5,838.3 L205.5,838.3 A3.75,3.75 0 0 1 208,840.8 L215,860.7883 L743.5,860.7883 A2.5,2.5 0 0 1 746,863.2883 L746,1357.08 A2.5,2.5 0 0 1 743.5,1359.58 L148.5,1359.58 A2.5,2.5 0 0 1 146,1357.08 L146,840.8 A2.5,2.5 0 0 1 148.5,838.3 " fill="none" style="stroke:#000000;stroke-width:1.5;"/><line style="stroke:#000000;stroke-width:1.5;" x1="146" x2="215" y1="860.7883" y2="860.7883"/><text fill="#000000" font-family="sans-serif" font-size="14" font-weight="bold" lengthAdjust="spacing" textLength="56" x="150" y="853.8352">Domain</text></g><!--class ListMyGreenSpacesUI--><g id="elem_ListMyGreenSpacesUI"><rect codeLine="12" fill="#F1F1F1" height="64.4883" id="ListMyGreenSpacesUI" rx="2.5" ry="2.5" style="stroke:#181818;stroke-width:0.5;" width="176" x="445" y="41"/><ellipse cx="460" cy="57" fill="#ADD1B2" rx="11" ry="11" style="stroke:#181818;stroke-width:1.0;"/><path d="M462.9731,62.6431 Q462.3921,62.9419 461.7529,63.0913 Q461.1138,63.2407 460.4082,63.2407 Q457.9014,63.2407 456.5815,61.5889 Q455.2617,59.937 455.2617,56.8159 Q455.2617,53.6865 456.5815,52.0347 Q457.9014,50.3828 460.4082,50.3828 Q461.1138,50.3828 461.7612,50.5322 Q462.4087,50.6816 462.9731,50.9805 L462.9731,53.7031 Q462.3423,53.1221 461.7488,52.8523 Q461.1553,52.5825 460.5244,52.5825 Q459.1797,52.5825 458.4949,53.6492 Q457.8101,54.7158 457.8101,56.8159 Q457.8101,58.9077 458.4949,59.9744 Q459.1797,61.041 460.5244,61.041 Q461.1553,61.041 461.7488,60.7712 Q462.3423,60.5015 462.9731,59.9204 Z " fill="#000000"/><text fill="#000000" font-family="sans-serif" font-size="14" lengthAdjust="spacing" textLength="144" x="474" y="62.291">ListMyGreenSpacesUI</text><line style="stroke:#181818;stroke-width:0.5;" x1="446" x2="620" y1="73" y2="73"/><line style="stroke:#181818;stroke-width:0.5;" x1="446" x2="620" y1="81" y2="81"/><text fill="#000000" font-family="sans-serif" font-size="14" lengthAdjust="spacing" textLength="45" x="451" y="98.5352">+run()</text></g><!--class CreateGreenSpacesController--><g id="elem_CreateGreenSpacesController"><rect codeLine="18" fill="#F1F1F1" height="113.9531" id="CreateGreenSpacesController" rx="2.5" ry="2.5" style="stroke:#181818;stroke-width:0.5;" width="370" x="348" y="188.49"/><ellipse cx="427.25" cy="204.49" fill="#ADD1B2" rx="11" ry="11" style="stroke:#181818;stroke-width:1.0;"/><path d="M430.2231,210.1331 Q429.6421,210.4319 429.0029,210.5813 Q428.3638,210.7307 427.6582,210.7307 Q425.1514,210.7307 423.8315,209.0789 Q422.5117,207.427 422.5117,204.3059 Q422.5117,201.1765 423.8315,199.5247 Q425.1514,197.8728 427.6582,197.8728 Q428.3638,197.8728 429.0112,198.0222 Q429.6587,198.1716 430.2231,198.4705 L430.2231,201.1931 Q429.5923,200.6121 428.9988,200.3423 Q428.4053,200.0725 427.7744,200.0725 Q426.4297,200.0725 425.7449,201.1392 Q425.0601,202.2058 425.0601,204.3059 Q425.0601,206.3977 425.7449,207.4644 Q426.4297,208.531 427.7744,208.531 Q428.4053,208.531 428.9988,208.2612 Q429.5923,207.9915 430.2231,207.4104 Z " fill="#000000"/><text fill="#000000" font-family="sans-serif" font-size="14" lengthAdjust="spacing" textLength="203" x="447.75" y="209.781">CreateGreenSpacesController</text><line style="stroke:#181818;stroke-width:0.5;" x1="349" x2="717" y1="220.49" y2="220.49"/><text fill="#000000" font-family="sans-serif" font-size="14" lengthAdjust="spacing" textLength="333" x="354" y="238.0252">-greenSpacesRepository:GreenSpacesRepository</text><text fill="#000000" font-family="sans-serif" font-size="14" lengthAdjust="spacing" textLength="358" x="354" y="254.5134">-authenticationRepository:AuthenticationRepository</text><line style="stroke:#181818;stroke-width:0.5;" x1="349" x2="717" y1="261.4666" y2="261.4666"/><text fill="#000000" font-family="sans-serif" font-size="14" lengthAdjust="spacing" textLength="194" x="354" y="279.0017">-getEmployeeFromSession()</text><text fill="#000000" font-family="sans-serif" font-size="14" lengthAdjust="spacing" textLength="276" x="354" y="295.49">+getGreenSpacesManaged(String email)</text></g><!--class Repositories--><g id="elem_Repositories"><rect codeLine="29" fill="#F1F1F1" height="179.9063" id="Repositories" rx="2.5" ry="2.5" style="stroke:#181818;stroke-width:0.5;" width="374" x="222" y="402.44"/><ellipse cx="362.25" cy="418.44" fill="#ADD1B2" rx="11" ry="11" style="stroke:#181818;stroke-width:1.0;"/><path d="M365.2231,424.0831 Q364.6421,424.3819 364.0029,424.5313 Q363.3638,424.6807 362.6582,424.6807 Q360.1514,424.6807 358.8315,423.0289 Q357.5117,421.377 357.5117,418.2559 Q357.5117,415.1265 358.8315,413.4747 Q360.1514,411.8228 362.6582,411.8228 Q363.3638,411.8228 364.0112,411.9722 Q364.6587,412.1216 365.2231,412.4205 L365.2231,415.1431 Q364.5923,414.5621 363.9988,414.2923 Q363.4053,414.0225 362.7744,414.0225 Q361.4297,414.0225 360.7449,415.0892 Q360.0601,416.1558 360.0601,418.2559 Q360.0601,420.3477 360.7449,421.4144 Q361.4297,422.481 362.7744,422.481 Q363.4053,422.481 363.9988,422.2112 Q364.5923,421.9415 365.2231,421.3604 Z " fill="#000000"/><text fill="#000000" font-family="sans-serif" font-size="14" lengthAdjust="spacing" textLength="85" x="382.75" y="423.731">Repositories</text><line style="stroke:#181818;stroke-width:0.5;" x1="223" x2="595" y1="434.44" y2="434.44"/><text fill="#000000" font-family="sans-serif" font-size="14" lengthAdjust="spacing" textLength="158" x="228" y="451.9752">-instance: Repositories</text><text fill="#000000" font-family="sans-serif" font-size="14" lengthAdjust="spacing" textLength="362" x="228" y="468.4634">-authenticationRepository: AuthenticationRepository</text><text fill="#000000" font-family="sans-serif" font-size="14" lengthAdjust="spacing" textLength="283" x="228" y="484.9517">-managerRepository: ManagerRepository</text><text fill="#000000" font-family="sans-serif" font-size="14" lengthAdjust="spacing" textLength="337" x="228" y="501.44">-greenSpacesRepository: GreenSpacesRepository</text><line style="stroke:#181818;stroke-width:0.5;" x1="223" x2="595" y1="508.3931" y2="508.3931"/><text fill="#000000" font-family="sans-serif" font-size="14" lengthAdjust="spacing" textLength="100" x="228" y="525.9283">+getInstance()</text><text fill="#000000" font-family="sans-serif" font-size="14" lengthAdjust="spacing" textLength="217" x="228" y="542.4166">+getAuthenticationRepository()</text><text fill="#000000" font-family="sans-serif" font-size="14" lengthAdjust="spacing" textLength="176" x="228" y="558.9048">+getManagerRepository()</text><text fill="#000000" font-family="sans-serif" font-size="14" lengthAdjust="spacing" textLength="204" x="228" y="575.3931">+getGreenSpacesRepository()</text></g><!--class GreenSpacesRepository--><g id="elem_GreenSpacesRepository"><rect codeLine="43" fill="#F1F1F1" height="113.9531" id="GreenSpacesRepository" rx="2.5" ry="2.5" style="stroke:#181818;stroke-width:0.5;" width="288" x="222" y="659.35"/><ellipse cx="281.25" cy="675.35" fill="#ADD1B2" rx="11" ry="11" style="stroke:#181818;stroke-width:1.0;"/><path d="M284.2231,680.9931 Q283.6421,681.2919 283.0029,681.4413 Q282.3638,681.5907 281.6582,681.5907 Q279.1514,681.5907 277.8315,679.9389 Q276.5117,678.287 276.5117,675.1659 Q276.5117,672.0365 277.8315,670.3847 Q279.1514,668.7328 281.6582,668.7328 Q282.3638,668.7328 283.0112,668.8822 Q283.6587,669.0316 284.2231,669.3305 L284.2231,672.0531 Q283.5923,671.4721 282.9988,671.2023 Q282.4053,670.9325 281.7744,670.9325 Q280.4297,670.9325 279.7449,671.9992 Q279.0601,673.0658 279.0601,675.1659 Q279.0601,677.2577 279.7449,678.3244 Q280.4297,679.391 281.7744,679.391 Q282.4053,679.391 282.9988,679.1212 Q283.5923,678.8515 284.2231,678.2704 Z " fill="#000000"/><text fill="#000000" font-family="sans-serif" font-size="14" lengthAdjust="spacing" textLength="161" x="301.75" y="680.641">GreenSpacesRepository</text><line style="stroke:#181818;stroke-width:0.5;" x1="223" x2="509" y1="691.35" y2="691.35"/><line style="stroke:#181818;stroke-width:0.5;" x1="223" x2="509" y1="699.35" y2="699.35"/><text fill="#000000" font-family="sans-serif" font-size="14" lengthAdjust="spacing" textLength="149" x="228" y="716.8852">+getAllGreenSpaces()</text><text fill="#000000" font-family="sans-serif" font-size="14" lengthAdjust="spacing" textLength="276" x="228" y="733.3734">+getGreenSpacesManaged(String email)</text><text fill="#000000" font-family="sans-serif" font-size="14" lengthAdjust="spacing" textLength="236" x="228" y="749.8617">+validateGreenSpace(GreenSpace)</text><text fill="#000000" font-family="sans-serif" font-size="14" lengthAdjust="spacing" textLength="209" x="228" y="766.35">+addGreenSpace(GreenSpace)</text></g><!--class AuthenticationRepository--><g id="elem_AuthenticationRepository"><rect codeLine="52" fill="#F1F1F1" height="64.4883" id="AuthenticationRepository" rx="2.5" ry="2.5" style="stroke:#181818;stroke-width:0.5;" width="209" x="545.5" y="684.08"/><ellipse cx="561.85" cy="700.08" fill="#ADD1B2" rx="11" ry="11" style="stroke:#181818;stroke-width:1.0;"/><path d="M564.8231,705.7231 Q564.2421,706.0219 563.6029,706.1713 Q562.9638,706.3207 562.2582,706.3207 Q559.7514,706.3207 558.4315,704.6689 Q557.1117,703.017 557.1117,699.8959 Q557.1117,696.7665 558.4315,695.1147 Q559.7514,693.4628 562.2582,693.4628 Q562.9638,693.4628 563.6112,693.6122 Q564.2587,693.7616 564.8231,694.0605 L564.8231,696.7831 Q564.1923,696.2021 563.5988,695.9323 Q563.0053,695.6625 562.3744,695.6625 Q561.0297,695.6625 560.3449,696.7292 Q559.6601,697.7958 559.6601,699.8959 Q559.6601,701.9877 560.3449,703.0544 Q561.0297,704.121 562.3744,704.121 Q563.0053,704.121 563.5988,703.8512 Q564.1923,703.5815 564.8231,703.0004 Z " fill="#000000"/><text fill="#000000" font-family="sans-serif" font-size="14" lengthAdjust="spacing" textLength="174" x="576.15" y="705.371">AuthenticationRepository</text><line style="stroke:#181818;stroke-width:0.5;" x1="546.5" x2="753.5" y1="716.08" y2="716.08"/><line style="stroke:#181818;stroke-width:0.5;" x1="546.5" x2="753.5" y1="724.08" y2="724.08"/><text fill="#000000" font-family="sans-serif" font-size="14" lengthAdjust="spacing" textLength="197" x="551.5" y="741.6152">+getEmployeeFromSession()</text></g><!--class GreenSpace--><g id="elem_GreenSpace"><rect codeLine="58" fill="#F1F1F1" height="130.4414" id="GreenSpace" rx="2.5" ry="2.5" style="stroke:#181818;stroke-width:0.5;" width="567" x="162.5" y="1213.14"/><ellipse cx="401.25" cy="1229.14" fill="#ADD1B2" rx="11" ry="11" style="stroke:#181818;stroke-width:1.0;"/><path d="M404.2231,1234.7831 Q403.6421,1235.0819 403.0029,1235.2313 Q402.3638,1235.3807 401.6582,1235.3807 Q399.1514,1235.3807 397.8315,1233.7289 Q396.5117,1232.077 396.5117,1228.9559 Q396.5117,1225.8265 397.8315,1224.1747 Q399.1514,1222.5228 401.6582,1222.5228 Q402.3638,1222.5228 403.0112,1222.6722 Q403.6587,1222.8216 404.2231,1223.1205 L404.2231,1225.8431 Q403.5923,1225.2621 402.9988,1224.9923 Q402.4053,1224.7225 401.7744,1224.7225 Q400.4297,1224.7225 399.7449,1225.7892 Q399.0601,1226.8558 399.0601,1228.9559 Q399.0601,1231.0477 399.7449,1232.1144 Q400.4297,1233.181 401.7744,1233.181 Q402.4053,1233.181 402.9988,1232.9112 Q403.5923,1232.6415 404.2231,1232.0604 Z " fill="#000000"/><text fill="#000000" font-family="sans-serif" font-size="14" lengthAdjust="spacing" textLength="81" x="421.75" y="1234.431">GreenSpace</text><line style="stroke:#181818;stroke-width:0.5;" x1="163.5" x2="728.5" y1="1245.14" y2="1245.14"/><text fill="#000000" font-family="sans-serif" font-size="14" lengthAdjust="spacing" textLength="91" x="168.5" y="1262.6752">-String name</text><text fill="#000000" font-family="sans-serif" font-size="14" lengthAdjust="spacing" textLength="90" x="168.5" y="1279.1634">-double area</text><text fill="#000000" font-family="sans-serif" font-size="14" lengthAdjust="spacing" textLength="141" x="168.5" y="1295.6517">-String classification</text><text fill="#000000" font-family="sans-serif" font-size="14" lengthAdjust="spacing" textLength="139" x="168.5" y="1312.14">-Employee manager</text><line style="stroke:#181818;stroke-width:0.5;" x1="163.5" x2="728.5" y1="1319.0931" y2="1319.0931"/><text fill="#000000" font-family="sans-serif" font-size="14" lengthAdjust="spacing" textLength="555" x="168.5" y="1336.6283">+GreenSpace(String name, double area, String classification, Employee manager)</text></g><!--class Manager--><g id="elem_Manager"><rect codeLine="69" fill="#F1F1F1" height="278.8359" id="Manager" rx="2.5" ry="2.5" style="stroke:#181818;stroke-width:0.5;" width="389" x="162.5" y="873.3"/><ellipse cx="322.75" cy="889.3" fill="#ADD1B2" rx="11" ry="11" style="stroke:#181818;stroke-width:1.0;"/><path d="M325.7231,894.9431 Q325.1421,895.2419 324.5029,895.3913 Q323.8638,895.5407 323.1582,895.5407 Q320.6514,895.5407 319.3315,893.8889 Q318.0117,892.237 318.0117,889.1159 Q318.0117,885.9865 319.3315,884.3347 Q320.6514,882.6828 323.1582,882.6828 Q323.8638,882.6828 324.5112,882.8322 Q325.1587,882.9816 325.7231,883.2805 L325.7231,886.0031 Q325.0923,885.4221 324.4988,885.1523 Q323.9053,884.8825 323.2744,884.8825 Q321.9297,884.8825 321.2449,885.9492 Q320.5601,887.0158 320.5601,889.1159 Q320.5601,891.2077 321.2449,892.2744 Q321.9297,893.341 323.2744,893.341 Q323.9053,893.341 324.4988,893.0712 Q325.0923,892.8015 325.7231,892.2204 Z " fill="#000000"/><text fill="#000000" font-family="sans-serif" font-size="14" lengthAdjust="spacing" textLength="60" x="343.25" y="894.591">Manager</text><line style="stroke:#181818;stroke-width:0.5;" x1="163.5" x2="550.5" y1="905.3" y2="905.3"/><text fill="#000000" font-family="sans-serif" font-size="14" lengthAdjust="spacing" textLength="91" x="168.5" y="922.8352">-name:String</text><text fill="#000000" font-family="sans-serif" font-size="14" lengthAdjust="spacing" textLength="106" x="168.5" y="939.3234">-birthdate:Date</text><text fill="#000000" font-family="sans-serif" font-size="14" lengthAdjust="spacing" textLength="144" x="168.5" y="955.8117">-admissionDate:Date</text><text fill="#000000" font-family="sans-serif" font-size="14" lengthAdjust="spacing" textLength="62" x="168.5" y="972.3">-address</text><text fill="#000000" font-family="sans-serif" font-size="14" lengthAdjust="spacing" textLength="153" x="168.5" y="988.7883">-mobileContact:String</text><text fill="#000000" font-family="sans-serif" font-size="14" lengthAdjust="spacing" textLength="143" x="168.5" y="1005.2766">-emailContact:String</text><text fill="#000000" font-family="sans-serif" font-size="14" lengthAdjust="spacing" textLength="125" x="168.5" y="1021.7648">-IDdocType:String</text><text fill="#000000" font-family="sans-serif" font-size="14" lengthAdjust="spacing" textLength="121" x="168.5" y="1038.2531">-IDnumber:String</text><text fill="#000000" font-family="sans-serif" font-size="14" lengthAdjust="spacing" textLength="130" x="168.5" y="1054.7414">-taxNumber:String</text><text fill="#000000" font-family="sans-serif" font-size="14" lengthAdjust="spacing" textLength="56" x="168.5" y="1071.2297">-job:Job</text><line style="stroke:#181818;stroke-width:0.5;" x1="163.5" x2="550.5" y1="1078.1828" y2="1078.1828"/><text fill="#000000" font-family="sans-serif" font-size="14" lengthAdjust="spacing" textLength="320" x="168.5" y="1095.718">+Manager (String nome,LocalDate dateOfBirth,</text><text fill="#000000" font-family="sans-serif" font-size="14" lengthAdjust="spacing" textLength="377" x="168.5" y="1112.2063">LocalDate admissionDate, String morada, int telemovel,</text><text fill="#000000" font-family="sans-serif" font-size="14" lengthAdjust="spacing" textLength="354" x="168.5" y="1128.6945">String email, String idDocType, int docTypeNumber,</text><text fill="#000000" font-family="sans-serif" font-size="14" lengthAdjust="spacing" textLength="290" x="168.5" y="1145.1828">int taxPayerIdNumber, String role, Job job)</text></g><!--class SortAlgoritm--><g id="elem_SortAlgoritm"><rect codeLine="85" fill="#F1F1F1" height="48" id="SortAlgoritm" rx="2.5" ry="2.5" style="stroke:#181818;stroke-width:0.5;" width="120" x="7" y="1254.36"/><ellipse cx="22" cy="1270.36" fill="#B4A7E5" rx="11" ry="11" style="stroke:#181818;stroke-width:1.0;"/><path d="M17.9277,1266.1251 L17.9277,1263.9669 L25.3071,1263.9669 L25.3071,1266.1251 L22.8418,1266.1251 L22.8418,1274.2018 L25.3071,1274.2018 L25.3071,1276.36 L17.9277,1276.36 L17.9277,1274.2018 L20.3931,1274.2018 L20.3931,1266.1251 Z " fill="#000000"/><text fill="#000000" font-family="sans-serif" font-size="14" font-style="italic" lengthAdjust="spacing" textLength="88" x="36" y="1275.651">SortAlgoritm</text><line style="stroke:#181818;stroke-width:0.5;" x1="8" x2="126" y1="1286.36" y2="1286.36"/><line style="stroke:#181818;stroke-width:0.5;" x1="8" x2="126" y1="1294.36" y2="1294.36"/></g><!--link ListMyGreenSpacesUI to CreateGreenSpacesController--><g id="link_ListMyGreenSpacesUI_CreateGreenSpacesController"><path codeLine="88" d="M533,105.86 C533,128.94 533,154.84 533,182.21 " fill="none" id="ListMyGreenSpacesUI-to-CreateGreenSpacesController" style="stroke:#181818;stroke-width:1.0;stroke-dasharray:7.0,7.0;"/><polygon fill="#181818" points="533,188.21,537,179.21,533,183.21,529,179.21,533,188.21" style="stroke:#181818;stroke-width:1.0;"/><text fill="#000000" font-family="sans-serif" font-size="13" lengthAdjust="spacing" textLength="8" x="524.2375" y="126.105">1</text><text fill="#000000" font-family="sans-serif" font-size="13" lengthAdjust="spacing" textLength="8" x="524.5125" y="177.9051">1</text></g><!--link CreateGreenSpacesController to Repositories--><g id="link_CreateGreenSpacesController_Repositories"><path codeLine="90" d="M504.55,302.66 C489.61,332.18 473.6509,363.6973 456.7909,396.9873 " fill="none" id="CreateGreenSpacesController-to-Repositories" style="stroke:#181818;stroke-width:1.0;"/><polygon fill="#181818" points="454.08,402.34,461.7148,396.1183,456.3391,397.8794,454.5779,392.5037,454.08,402.34" style="stroke:#181818;stroke-width:1.0;"/><text fill="#000000" font-family="sans-serif" font-size="13" lengthAdjust="spacing" textLength="73" x="486" y="348.0084">getInstance</text><text fill="#000000" font-family="sans-serif" font-size="13" lengthAdjust="spacing" textLength="8" x="492.5952" y="323.1318">1</text><text fill="#000000" font-family="sans-serif" font-size="13" lengthAdjust="spacing" textLength="8" x="449.4819" y="391.8426">1</text></g><!--link CreateGreenSpacesController to GreenSpacesRepository--><g id="link_CreateGreenSpacesController_GreenSpacesRepository"><path codeLine="91" d="M614.02,302.62 C654.93,330.98 696,359.44 696,359.44 C696,359.44 704,612.35 704,612.35 C704,612.35 704,629.35 704,629.35 C704,629.35 528,659.35 528,659.35 C528,659.35 526.8603,659.7384 516.0203,663.4884 " fill="none" id="CreateGreenSpacesController-to-GreenSpacesRepository" style="stroke:#181818;stroke-width:1.0;"/><polygon fill="#181818" points="510.35,665.45,520.1632,666.2878,515.0752,663.8153,517.5477,658.7274,510.35,665.45" style="stroke:#181818;stroke-width:1.0;"/><text fill="#000000" font-family="sans-serif" font-size="13" lengthAdjust="spacing" textLength="145" x="703" y="497.4684">greenSpacesRepository</text></g><!--link CreateGreenSpacesController to AuthenticationRepository--><g id="link_CreateGreenSpacesController_AuthenticationRepository"><path codeLine="92" d="M718.23,302.87 C811.07,331.14 904,359.44 904,359.44 C904,359.44 904,582.35 904,582.35 C904,582.35 790.9555,641.527 715.8355,680.857 " fill="none" id="CreateGreenSpacesController-to-AuthenticationRepository" style="stroke:#181818;stroke-width:1.0;"/><polygon fill="#181818" points="710.52,683.64,720.3486,683.0092,714.9496,681.3208,716.638,675.9218,710.52,683.64" style="stroke:#181818;stroke-width:1.0;"/><text fill="#000000" font-family="sans-serif" font-size="13" lengthAdjust="spacing" textLength="158" x="905" y="497.4684">authenticationRepository</text></g><!--link CreateGreenSpacesController to Manager--><g id="link_CreateGreenSpacesController_Manager"><path codeLine="93" d="M369.98,302.79 C288.07,331.09 206,359.44 206,359.44 C206,359.44 87,612.35 87,612.35 C87,612.35 87,629.35 87,629.35 C87,629.35 178.2591,758.5888 255.4891,867.9588 " fill="none" id="CreateGreenSpacesController-to-Manager" style="stroke:#181818;stroke-width:1.0;"/><polygon fill="#181818" points="258.95,872.86,257.0261,863.2009,256.0659,868.7756,250.4911,867.8154,258.95,872.86" style="stroke:#181818;stroke-width:1.0;"/><text fill="#000000" font-family="sans-serif" font-size="13" lengthAdjust="spacing" textLength="117" x="88" y="625.9184">listMyGreenSpaces</text></g><!--link Repositories to Repositories--><g id="link_Repositories_Repositories"><path codeLine="95" d="M596.47,472.06 C617.44,475.9 631,482.67 631,492.4 C631,502.12 623.3424,507.822 602.3724,511.652 " fill="none" id="Repositories-to-Repositories" style="stroke:#181818;stroke-width:1.0;"/><polygon fill="#181818" points="596.47,512.73,606.0422,515.0479,601.3886,511.8317,604.6049,507.1781,596.47,512.73" style="stroke:#181818;stroke-width:1.0;"/><text fill="#000000" font-family="sans-serif" font-size="13" lengthAdjust="spacing" textLength="53" x="637" y="497.4684">instance</text></g><!--link Repositories to GreenSpacesRepository--><g id="link_Repositories_GreenSpacesRepository"><path codeLine="96" d="M391.7,582.7 C386.7,608.48 382.5295,629.9892 378.0495,653.1492 " fill="none" id="Repositories-to-GreenSpacesRepository" style="stroke:#181818;stroke-width:1.0;stroke-dasharray:7.0,7.0;"/><polygon fill="#181818" points="376.91,659.04,382.5464,650.9635,377.8596,654.131,374.692,649.4441,376.91,659.04" style="stroke:#181818;stroke-width:1.0;"/><text fill="#000000" font-family="sans-serif" font-size="13" lengthAdjust="spacing" textLength="38" x="385" y="625.9184">create</text><text fill="#000000" font-family="sans-serif" font-size="13" lengthAdjust="spacing" textLength="8" x="382.0692" y="602.7686">1</text><text fill="#000000" font-family="sans-serif" font-size="13" lengthAdjust="spacing" textLength="8" x="369.7522" y="648.7314">1</text></g><!--link Repositories to AuthenticationRepository--><g id="link_Repositories_AuthenticationRepository"><path codeLine="97" d="M505.98,582.7 C544.83,618.48 582.6567,653.3052 611.2767,679.6652 " fill="none" id="Repositories-to-AuthenticationRepository" style="stroke:#181818;stroke-width:1.0;"/><polygon fill="#181818" points="615.69,683.73,611.7799,674.6906,612.0122,680.3427,606.3602,680.575,615.69,683.73" style="stroke:#181818;stroke-width:1.0;"/><text fill="#000000" font-family="sans-serif" font-size="13" lengthAdjust="spacing" textLength="143" x="552" y="625.9184">getCurrentUserSession</text><text fill="#000000" font-family="sans-serif" font-size="13" lengthAdjust="spacing" textLength="8" x="505.0988" y="602.7686">1</text><text fill="#000000" font-family="sans-serif" font-size="13" lengthAdjust="spacing" textLength="8" x="600.1477" y="673.4354">1</text></g><!--link AuthenticationRepository to Manager--><g id="link_AuthenticationRepository_Manager"><path codeLine="99" d="M618.64,748.83 C588.68,778.94 545.5726,822.2473 499.3526,868.6873 " fill="none" id="AuthenticationRepository-to-Manager" style="stroke:#181818;stroke-width:1.0;"/><polygon fill="#181818" points="495.12,872.94,504.304,869.3827,498.6471,869.3961,498.6337,863.7392,495.12,872.94" style="stroke:#181818;stroke-width:1.0;"/><text fill="#000000" font-family="sans-serif" font-size="13" lengthAdjust="spacing" textLength="143" x="556" y="818.8684">getCurrentUserSession</text></g><!--link GreenSpacesRepository to GreenSpace--><g id="link_GreenSpacesRepository_GreenSpace"><path codeLine="101" d="M467.2,773.65 C518.05,801.95 569,830.3 569,830.3 C569,830.3 569,1152.14 569,1152.14 C569,1152.14 543.6448,1177.9499 513.5048,1208.6299 " fill="none" id="GreenSpacesRepository-to-GreenSpace" style="stroke:#181818;stroke-width:1.0;"/><polygon fill="#181818" points="509.3,1212.91,518.4606,1209.293,512.804,1209.3432,512.7538,1203.6866,509.3,1212.91" style="stroke:#181818;stroke-width:1.0;"/><text fill="#000000" font-family="sans-serif" font-size="13" lengthAdjust="spacing" textLength="29" x="570" y="1017.7884">have</text></g><!--link GreenSpacesRepository to SortAlgoritm--><g id="link_GreenSpacesRepository_SortAlgoritm"><path codeLine="102" d="M231.4,773.65 C163.76,801.95 96,830.3 96,830.3 C96,830.3 74.8786,1155.9826 68.9086,1247.9626 " fill="none" id="GreenSpacesRepository-to-SortAlgoritm" style="stroke:#181818;stroke-width:1.0;"/><polygon fill="#181818" points="68.52,1253.95,73.0945,1245.228,68.8438,1248.9605,65.1113,1244.7098,68.52,1253.95" style="stroke:#181818;stroke-width:1.0;"/><text fill="#000000" font-family="sans-serif" font-size="13" lengthAdjust="spacing" textLength="48" x="97" y="1017.7884">sortList</text></g><!--link Manager to GreenSpace--><g id="link_Manager_GreenSpace"><path codeLine="104" d="M403.85,1152.49 C410.96,1173.58 416.0795,1188.7457 422.3095,1207.1857 " fill="none" id="Manager-to-GreenSpace" style="stroke:#181818;stroke-width:1.0;"/><polygon fill="#181818" points="424.23,1212.87,425.1389,1203.0632,422.6296,1208.133,417.5597,1205.6238,424.23,1212.87" style="stroke:#181818;stroke-width:1.0;"/></g><!--link Manager to SortAlgoritm--><g id="link_Manager_SortAlgoritm"><path codeLine="105" d="M204.36,1152.49 C160.96,1191.94 122.9296,1226.514 96.9696,1250.114 " fill="none" id="Manager-to-SortAlgoritm" style="stroke:#181818;stroke-width:1.0;"/><polygon fill="#181818" points="92.53,1254.15,101.8802,1251.0557,96.2297,1250.7866,96.4988,1245.1362,92.53,1254.15" style="stroke:#181818;stroke-width:1.0;"/></g><!--SRC=[bLRVJzim47xtNs7n0jCAsbuZXCJeG9rWG-jusuiJNriFnwviXv6X_Uyx9qvgjqbWL8BcVdo-x_FbZcFxADIM6LRIKYjTR8mkWJfJ0TbvjgnuP6jOkbe2DL0ufjOo3h0RnlLleTPqnQIDFL8eSFKMw5RBsZ-Gum6dDawJAAkGpDfBvup8AmUBGgkb-0Fq0o774bQEEasDM6ySvSAN8xGYvBujaZuiwFdvjPOSpCN52scWwAsmxgw-CG1gYMp0OjGBeVZptbJgv1tvYvyUuaehPxIKO0QWhWmm1n5K5Dr2djBrpliTjjeAfqsTtGnPGmQht0QK4mNpRAAaon47wOu2zxdSIbq3NEFTBS5QZ4D63JdlZewzOmhvyPCbAekN1IKJCd3loU-E623VEmNOZgnG5XkYW2pnliQBZX9h4ykcL1DdtEsR9jMcmtBlT5c4kcEjnegAOmxA614x2KZwQrBYGOINg4Gfev3_kkWsyeb9mPCMFjbzxO8OvoF-jpCP4pCYCzowoH5pZSMhIQ7wzoxGLQo4OE6wod5eCNnfqvW6Gwn2SS7NbTDrNzSjaHJH4RCOVJOCF3l0V2kzq6Q1cZylQqze3RamRkElCPlZhzR6U2aQ3UVxTcvGtFQXrBcGu8SMArm2sNJ9a6CnvxhuWODwpwggCWUJ61rx_dfe_QNpx8lEWvo16Usrn9KpkzK5axvawabzMtto_6O_rSwUiElbBhLX7DKN2jS2I2Zr4qZCYpk_3nPytX9fumEhjc3CQJ3OypshmInuC7UvEE8n3LbGP1Ck4HF0h7m7Bd65NSerZZvNOZkYRsZb77qyecTd5ytVYJr2oDIIyScdfor8F75f5a-rIGYVFZXdFCRWs7mDRUnTHy2n5V0gPjSd6VwZiASb8Gbp3DvJebjAQLoi_nZ_egdgCA-JV88fodzL6OFU1micp3D2HZDIaYFPmtMcDuZP6_O44x59VsRKugDlK4AwyrF0n1pdady0]--></g></svg>