<?xml version="1.0" encoding="us-ascii" standalone="no"?><svg xmlns="http://www.w3.org/2000/svg" xmlns:xlink="http://www.w3.org/1999/xlink" contentStyleType="text/css" height="1263px" preserveAspectRatio="none" style="width:1099px;height:1263px;background:#FFFFFF;" version="1.1" viewBox="0 0 1099 1263" width="1099px" zoomAndPan="magnify"><defs/><g><!--class ListMyGreenSpacesUI--><g id="elem_ListMyGreenSpacesUI"><rect codeLine="11" fill="#F1F1F1" height="64.4883" id="ListMyGreenSpacesUI" rx="2.5" ry="2.5" style="stroke:#181818;stroke-width:0.5;" width="176" x="533.5" y="7"/><ellipse cx="548.5" cy="23" fill="#ADD1B2" rx="11" ry="11" style="stroke:#181818;stroke-width:1.0;"/><path d="M551.4731,28.6431 Q550.8921,28.9419 550.2529,29.0913 Q549.6138,29.2407 548.9082,29.2407 Q546.4014,29.2407 545.0815,27.5889 Q543.7617,25.937 543.7617,22.8159 Q543.7617,19.6865 545.0815,18.0347 Q546.4014,16.3828 548.9082,16.3828 Q549.6138,16.3828 550.2612,16.5322 Q550.9087,16.6816 551.4731,16.9805 L551.4731,19.7031 Q550.8423,19.1221 550.2488,18.8523 Q549.6553,18.5825 549.0244,18.5825 Q547.6797,18.5825 546.9949,19.6492 Q546.3101,20.7158 546.3101,22.8159 Q546.3101,24.9077 546.9949,25.9744 Q547.6797,27.041 549.0244,27.041 Q549.6553,27.041 550.2488,26.7712 Q550.8423,26.5015 551.4731,25.9204 Z " fill="#000000"/><text fill="#000000" font-family="sans-serif" font-size="14" lengthAdjust="spacing" textLength="144" x="562.5" y="28.291">ListMyGreenSpacesUI</text><line style="stroke:#181818;stroke-width:0.5;" x1="534.5" x2="708.5" y1="39" y2="39"/><line style="stroke:#181818;stroke-width:0.5;" x1="534.5" x2="708.5" y1="47" y2="47"/><text fill="#000000" font-family="sans-serif" font-size="14" lengthAdjust="spacing" textLength="45" x="539.5" y="64.5352">+run()</text></g><!--class CreateGreenSpacesController--><g id="elem_CreateGreenSpacesController"><rect codeLine="15" fill="#F1F1F1" height="113.9531" id="CreateGreenSpacesController" rx="2.5" ry="2.5" style="stroke:#181818;stroke-width:0.5;" width="370" x="436.5" y="131.49"/><ellipse cx="515.75" cy="147.49" fill="#ADD1B2" rx="11" ry="11" style="stroke:#181818;stroke-width:1.0;"/><path d="M518.7231,153.1331 Q518.1421,153.4319 517.5029,153.5813 Q516.8638,153.7307 516.1582,153.7307 Q513.6514,153.7307 512.3315,152.0789 Q511.0117,150.427 511.0117,147.3059 Q511.0117,144.1765 512.3315,142.5247 Q513.6514,140.8728 516.1582,140.8728 Q516.8638,140.8728 517.5112,141.0222 Q518.1587,141.1716 518.7231,141.4705 L518.7231,144.1931 Q518.0923,143.6121 517.4988,143.3423 Q516.9053,143.0725 516.2744,143.0725 Q514.9297,143.0725 514.2449,144.1392 Q513.5601,145.2058 513.5601,147.3059 Q513.5601,149.3977 514.2449,150.4644 Q514.9297,151.531 516.2744,151.531 Q516.9053,151.531 517.4988,151.2612 Q518.0923,150.9915 518.7231,150.4104 Z " fill="#000000"/><text fill="#000000" font-family="sans-serif" font-size="14" lengthAdjust="spacing" textLength="203" x="536.25" y="152.781">CreateGreenSpacesController</text><line style="stroke:#181818;stroke-width:0.5;" x1="437.5" x2="805.5" y1="163.49" y2="163.49"/><text fill="#000000" font-family="sans-serif" font-size="14" lengthAdjust="spacing" textLength="333" x="442.5" y="181.0252">-greenSpacesRepository:GreenSpacesRepository</text><text fill="#000000" font-family="sans-serif" font-size="14" lengthAdjust="spacing" textLength="358" x="442.5" y="197.5134">-authenticationRepository:AuthenticationRepository</text><line style="stroke:#181818;stroke-width:0.5;" x1="437.5" x2="805.5" y1="204.4666" y2="204.4666"/><text fill="#000000" font-family="sans-serif" font-size="14" lengthAdjust="spacing" textLength="194" x="442.5" y="222.0017">-getEmployeeFromSession()</text><text fill="#000000" font-family="sans-serif" font-size="14" lengthAdjust="spacing" textLength="276" x="442.5" y="238.49">+getGreenSpacesManaged(String email)</text></g><!--class Manager--><g id="elem_Manager"><rect codeLine="23" fill="#F1F1F1" height="278.8359" id="Manager" rx="2.5" ry="2.5" style="stroke:#181818;stroke-width:0.5;" width="389" x="703" y="322.44"/><ellipse cx="863.25" cy="338.44" fill="#ADD1B2" rx="11" ry="11" style="stroke:#181818;stroke-width:1.0;"/><path d="M866.2231,344.0831 Q865.6421,344.3819 865.0029,344.5313 Q864.3638,344.6807 863.6582,344.6807 Q861.1514,344.6807 859.8315,343.0289 Q858.5117,341.377 858.5117,338.2559 Q858.5117,335.1265 859.8315,333.4747 Q861.1514,331.8228 863.6582,331.8228 Q864.3638,331.8228 865.0112,331.9722 Q865.6587,332.1216 866.2231,332.4205 L866.2231,335.1431 Q865.5923,334.5621 864.9988,334.2923 Q864.4053,334.0225 863.7744,334.0225 Q862.4297,334.0225 861.7449,335.0892 Q861.0601,336.1558 861.0601,338.2559 Q861.0601,340.3477 861.7449,341.4144 Q862.4297,342.481 863.7744,342.481 Q864.4053,342.481 864.9988,342.2112 Q865.5923,341.9415 866.2231,341.3604 Z " fill="#000000"/><text fill="#000000" font-family="sans-serif" font-size="14" lengthAdjust="spacing" textLength="60" x="883.75" y="343.731">Manager</text><line style="stroke:#181818;stroke-width:0.5;" x1="704" x2="1091" y1="354.44" y2="354.44"/><text fill="#000000" font-family="sans-serif" font-size="14" lengthAdjust="spacing" textLength="91" x="709" y="371.9752">-name:String</text><text fill="#000000" font-family="sans-serif" font-size="14" lengthAdjust="spacing" textLength="106" x="709" y="388.4634">-birthdate:Date</text><text fill="#000000" font-family="sans-serif" font-size="14" lengthAdjust="spacing" textLength="144" x="709" y="404.9517">-admissionDate:Date</text><text fill="#000000" font-family="sans-serif" font-size="14" lengthAdjust="spacing" textLength="62" x="709" y="421.44">-address</text><text fill="#000000" font-family="sans-serif" font-size="14" lengthAdjust="spacing" textLength="153" x="709" y="437.9283">-mobileContact:String</text><text fill="#000000" font-family="sans-serif" font-size="14" lengthAdjust="spacing" textLength="143" x="709" y="454.4166">-emailContact:String</text><text fill="#000000" font-family="sans-serif" font-size="14" lengthAdjust="spacing" textLength="125" x="709" y="470.9048">-IDdocType:String</text><text fill="#000000" font-family="sans-serif" font-size="14" lengthAdjust="spacing" textLength="121" x="709" y="487.3931">-IDnumber:String</text><text fill="#000000" font-family="sans-serif" font-size="14" lengthAdjust="spacing" textLength="130" x="709" y="503.8814">-taxNumber:String</text><text fill="#000000" font-family="sans-serif" font-size="14" lengthAdjust="spacing" textLength="56" x="709" y="520.3697">-job:Job</text><line style="stroke:#181818;stroke-width:0.5;" x1="704" x2="1091" y1="527.3228" y2="527.3228"/><text fill="#000000" font-family="sans-serif" font-size="14" lengthAdjust="spacing" textLength="320" x="709" y="544.858">+Manager (String nome,LocalDate dateOfBirth,</text><text fill="#000000" font-family="sans-serif" font-size="14" lengthAdjust="spacing" textLength="377" x="709" y="561.3462">LocalDate admissionDate, String morada, int telemovel,</text><text fill="#000000" font-family="sans-serif" font-size="14" lengthAdjust="spacing" textLength="354" x="709" y="577.8345">String email, String idDocType, int docTypeNumber,</text><text fill="#000000" font-family="sans-serif" font-size="14" lengthAdjust="spacing" textLength="290" x="709" y="594.3228">int taxPayerIdNumber, String role, Job job)</text></g><!--class Repositories--><g id="elem_Repositories"><rect codeLine="38" fill="#F1F1F1" height="179.9063" id="Repositories" rx="2.5" ry="2.5" style="stroke:#181818;stroke-width:0.5;" width="374" x="434.5" y="678.28"/><ellipse cx="574.75" cy="694.28" fill="#ADD1B2" rx="11" ry="11" style="stroke:#181818;stroke-width:1.0;"/><path d="M577.7231,699.9231 Q577.1421,700.2219 576.5029,700.3713 Q575.8638,700.5207 575.1582,700.5207 Q572.6514,700.5207 571.3315,698.8689 Q570.0117,697.217 570.0117,694.0959 Q570.0117,690.9665 571.3315,689.3147 Q572.6514,687.6628 575.1582,687.6628 Q575.8638,687.6628 576.5112,687.8122 Q577.1587,687.9616 577.7231,688.2605 L577.7231,690.9831 Q577.0923,690.4021 576.4988,690.1323 Q575.9053,689.8625 575.2744,689.8625 Q573.9297,689.8625 573.2449,690.9292 Q572.5601,691.9958 572.5601,694.0959 Q572.5601,696.1877 573.2449,697.2544 Q573.9297,698.321 575.2744,698.321 Q575.9053,698.321 576.4988,698.0512 Q577.0923,697.7815 577.7231,697.2004 Z " fill="#000000"/><text fill="#000000" font-family="sans-serif" font-size="14" lengthAdjust="spacing" textLength="85" x="595.25" y="699.571">Repositories</text><line style="stroke:#181818;stroke-width:0.5;" x1="435.5" x2="807.5" y1="710.28" y2="710.28"/><text fill="#000000" font-family="sans-serif" font-size="14" lengthAdjust="spacing" textLength="158" x="440.5" y="727.8152">-instance: Repositories</text><text fill="#000000" font-family="sans-serif" font-size="14" lengthAdjust="spacing" textLength="283" x="440.5" y="744.3034">-managerRepository: ManagerRepository</text><text fill="#000000" font-family="sans-serif" font-size="14" lengthAdjust="spacing" textLength="362" x="440.5" y="760.7917">-authenticationRepository: AuthenticationRepository</text><text fill="#000000" font-family="sans-serif" font-size="14" lengthAdjust="spacing" textLength="337" x="440.5" y="777.28">-greenSpacesRepository: GreenSpacesRepository</text><line style="stroke:#181818;stroke-width:0.5;" x1="435.5" x2="807.5" y1="784.2331" y2="784.2331"/><text fill="#000000" font-family="sans-serif" font-size="14" lengthAdjust="spacing" textLength="100" x="440.5" y="801.7683">+getInstance()</text><text fill="#000000" font-family="sans-serif" font-size="14" lengthAdjust="spacing" textLength="176" x="440.5" y="818.2566">+getManagerRepository()</text><text fill="#000000" font-family="sans-serif" font-size="14" lengthAdjust="spacing" textLength="217" x="440.5" y="834.7448">+getAuthenticationRepository()</text><text fill="#000000" font-family="sans-serif" font-size="14" lengthAdjust="spacing" textLength="204" x="440.5" y="851.2331">+getGreenSpacesRepository()</text></g><!--class GreenSpacesRepository--><g id="elem_GreenSpacesRepository"><rect codeLine="50" fill="#F1F1F1" height="113.9531" id="GreenSpacesRepository" rx="2.5" ry="2.5" style="stroke:#181818;stroke-width:0.5;" width="288" x="335.5" y="935.19"/><ellipse cx="394.75" cy="951.19" fill="#ADD1B2" rx="11" ry="11" style="stroke:#181818;stroke-width:1.0;"/><path d="M397.7231,956.8331 Q397.1421,957.1319 396.5029,957.2813 Q395.8638,957.4307 395.1582,957.4307 Q392.6514,957.4307 391.3315,955.7789 Q390.0117,954.127 390.0117,951.0059 Q390.0117,947.8765 391.3315,946.2247 Q392.6514,944.5728 395.1582,944.5728 Q395.8638,944.5728 396.5112,944.7222 Q397.1587,944.8716 397.7231,945.1705 L397.7231,947.8931 Q397.0923,947.3121 396.4988,947.0423 Q395.9053,946.7725 395.2744,946.7725 Q393.9297,946.7725 393.2449,947.8392 Q392.5601,948.9058 392.5601,951.0059 Q392.5601,953.0977 393.2449,954.1644 Q393.9297,955.231 395.2744,955.231 Q395.9053,955.231 396.4988,954.9612 Q397.0923,954.6915 397.7231,954.1104 Z " fill="#000000"/><text fill="#000000" font-family="sans-serif" font-size="14" lengthAdjust="spacing" textLength="161" x="415.25" y="956.481">GreenSpacesRepository</text><line style="stroke:#181818;stroke-width:0.5;" x1="336.5" x2="622.5" y1="967.19" y2="967.19"/><line style="stroke:#181818;stroke-width:0.5;" x1="336.5" x2="622.5" y1="975.19" y2="975.19"/><text fill="#000000" font-family="sans-serif" font-size="14" lengthAdjust="spacing" textLength="149" x="341.5" y="992.7252">+getAllGreenSpaces()</text><text fill="#000000" font-family="sans-serif" font-size="14" lengthAdjust="spacing" textLength="276" x="341.5" y="1009.2134">+getGreenSpacesManaged(String email)</text><text fill="#000000" font-family="sans-serif" font-size="14" lengthAdjust="spacing" textLength="236" x="341.5" y="1025.7017">+validateGreenSpace(GreenSpace)</text><text fill="#000000" font-family="sans-serif" font-size="14" lengthAdjust="spacing" textLength="209" x="341.5" y="1042.19">+addGreenSpace(GreenSpace)</text></g><!--class AuthenticationRepository--><g id="elem_AuthenticationRepository"><rect codeLine="57" fill="#F1F1F1" height="64.4883" id="AuthenticationRepository" rx="2.5" ry="2.5" style="stroke:#181818;stroke-width:0.5;" width="209" x="659" y="959.92"/><ellipse cx="675.35" cy="975.92" fill="#ADD1B2" rx="11" ry="11" style="stroke:#181818;stroke-width:1.0;"/><path d="M678.3231,981.5631 Q677.7421,981.8619 677.1029,982.0113 Q676.4638,982.1607 675.7582,982.1607 Q673.2514,982.1607 671.9315,980.5089 Q670.6117,978.857 670.6117,975.7359 Q670.6117,972.6065 671.9315,970.9547 Q673.2514,969.3028 675.7582,969.3028 Q676.4638,969.3028 677.1112,969.4522 Q677.7587,969.6016 678.3231,969.9005 L678.3231,972.6231 Q677.6923,972.0421 677.0988,971.7723 Q676.5053,971.5025 675.8744,971.5025 Q674.5297,971.5025 673.8449,972.5692 Q673.1601,973.6358 673.1601,975.7359 Q673.1601,977.8277 673.8449,978.8944 Q674.5297,979.961 675.8744,979.961 Q676.5053,979.961 677.0988,979.6912 Q677.6923,979.4215 678.3231,978.8404 Z " fill="#000000"/><text fill="#000000" font-family="sans-serif" font-size="14" lengthAdjust="spacing" textLength="174" x="689.65" y="981.211">AuthenticationRepository</text><line style="stroke:#181818;stroke-width:0.5;" x1="660" x2="867" y1="991.92" y2="991.92"/><line style="stroke:#181818;stroke-width:0.5;" x1="660" x2="867" y1="999.92" y2="999.92"/><text fill="#000000" font-family="sans-serif" font-size="14" lengthAdjust="spacing" textLength="197" x="665" y="1017.4552">+getEmployeeFromSession()</text></g><!--class GreenSpace--><g id="elem_GreenSpace"><rect codeLine="61" fill="#F1F1F1" height="130.4414" id="GreenSpace" rx="2.5" ry="2.5" style="stroke:#181818;stroke-width:0.5;" width="567" x="7" y="1126.14"/><ellipse cx="245.75" cy="1142.14" fill="#ADD1B2" rx="11" ry="11" style="stroke:#181818;stroke-width:1.0;"/><path d="M248.7231,1147.7831 Q248.1421,1148.0819 247.5029,1148.2313 Q246.8638,1148.3807 246.1582,1148.3807 Q243.6514,1148.3807 242.3315,1146.7289 Q241.0117,1145.077 241.0117,1141.9559 Q241.0117,1138.8265 242.3315,1137.1747 Q243.6514,1135.5228 246.1582,1135.5228 Q246.8638,1135.5228 247.5112,1135.6722 Q248.1587,1135.8216 248.7231,1136.1205 L248.7231,1138.8431 Q248.0923,1138.2621 247.4988,1137.9923 Q246.9053,1137.7225 246.2744,1137.7225 Q244.9297,1137.7225 244.2449,1138.7892 Q243.5601,1139.8558 243.5601,1141.9559 Q243.5601,1144.0477 244.2449,1145.1144 Q244.9297,1146.181 246.2744,1146.181 Q246.9053,1146.181 247.4988,1145.9112 Q248.0923,1145.6415 248.7231,1145.0604 Z " fill="#000000"/><text fill="#000000" font-family="sans-serif" font-size="14" lengthAdjust="spacing" textLength="81" x="266.25" y="1147.431">GreenSpace</text><line style="stroke:#181818;stroke-width:0.5;" x1="8" x2="573" y1="1158.14" y2="1158.14"/><text fill="#000000" font-family="sans-serif" font-size="14" lengthAdjust="spacing" textLength="91" x="13" y="1175.6752">-String name</text><text fill="#000000" font-family="sans-serif" font-size="14" lengthAdjust="spacing" textLength="90" x="13" y="1192.1634">-double area</text><text fill="#000000" font-family="sans-serif" font-size="14" lengthAdjust="spacing" textLength="141" x="13" y="1208.6517">-String classification</text><text fill="#000000" font-family="sans-serif" font-size="14" lengthAdjust="spacing" textLength="139" x="13" y="1225.14">-Employee manager</text><line style="stroke:#181818;stroke-width:0.5;" x1="8" x2="573" y1="1232.0931" y2="1232.0931"/><text fill="#000000" font-family="sans-serif" font-size="14" lengthAdjust="spacing" textLength="555" x="13" y="1249.6283">+GreenSpace(String name, double area, String classification, Employee manager)</text></g><!--class SortAlgoritm--><g id="elem_SortAlgoritm"><rect codeLine="70" fill="#F1F1F1" height="48" id="SortAlgoritm" rx="2.5" ry="2.5" style="stroke:#181818;stroke-width:0.5;" width="120" x="609.5" y="1167.36"/><ellipse cx="624.5" cy="1183.36" fill="#B4A7E5" rx="11" ry="11" style="stroke:#181818;stroke-width:1.0;"/><path d="M620.4277,1179.1251 L620.4277,1176.9669 L627.8071,1176.9669 L627.8071,1179.1251 L625.3418,1179.1251 L625.3418,1187.2018 L627.8071,1187.2018 L627.8071,1189.36 L620.4277,1189.36 L620.4277,1187.2018 L622.8931,1187.2018 L622.8931,1179.1251 Z " fill="#000000"/><text fill="#000000" font-family="sans-serif" font-size="14" font-style="italic" lengthAdjust="spacing" textLength="88" x="638.5" y="1188.651">SortAlgoritm</text><line style="stroke:#181818;stroke-width:0.5;" x1="610.5" x2="728.5" y1="1199.36" y2="1199.36"/><line style="stroke:#181818;stroke-width:0.5;" x1="610.5" x2="728.5" y1="1207.36" y2="1207.36"/></g><!--link ListMyGreenSpacesUI to CreateGreenSpacesController--><g id="link_ListMyGreenSpacesUI_CreateGreenSpacesController"><path codeLine="73" d="M621.5,71.83 C621.5,89.15 621.5,105.14 621.5,125.28 " fill="none" id="ListMyGreenSpacesUI-to-CreateGreenSpacesController" style="stroke:#181818;stroke-width:1.0;stroke-dasharray:7.0,7.0;"/><polygon fill="#181818" points="621.5,131.28,625.5,122.28,621.5,126.28,617.5,122.28,621.5,131.28" style="stroke:#181818;stroke-width:1.0;"/><text fill="#000000" font-family="sans-serif" font-size="13" lengthAdjust="spacing" textLength="8" x="612.7375" y="92.0693">1</text><text fill="#000000" font-family="sans-serif" font-size="13" lengthAdjust="spacing" textLength="8" x="612.9875" y="120.5803">1</text></g><!--link CreateGreenSpacesController to Repositories--><g id="link_CreateGreenSpacesController_Repositories"><path codeLine="75" d="M616.84,245.86 C613.84,282.1 610.5,322.44 610.5,322.44 C610.5,322.44 610.5,601.28 610.5,601.28 C610.5,601.28 612.5837,632.6731 615.1837,671.9531 " fill="none" id="CreateGreenSpacesController-to-Repositories" style="stroke:#181818;stroke-width:1.0;"/><polygon fill="#181818" points="615.58,677.94,618.9768,668.6955,615.2498,672.9509,610.9943,669.2238,615.58,677.94" style="stroke:#181818;stroke-width:1.0;"/><text fill="#000000" font-family="sans-serif" font-size="13" lengthAdjust="spacing" textLength="73" x="611.5" y="466.9284">getInstance</text><text fill="#000000" font-family="sans-serif" font-size="13" lengthAdjust="spacing" textLength="8" x="607.8387" y="265.9496">1</text><text fill="#000000" font-family="sans-serif" font-size="13" lengthAdjust="spacing" textLength="8" x="606.7585" y="667.4227">1</text></g><!--link CreateGreenSpacesController to Manager--><g id="link_CreateGreenSpacesController_Manager"><path codeLine="76" d="M678.69,245.7 C701.5,268.13 724.5925,290.8325 752.1225,317.9125 " fill="none" id="CreateGreenSpacesController-to-Manager" style="stroke:#181818;stroke-width:1.0;"/><polygon fill="#181818" points="756.4,322.12,752.7888,312.9571,752.8355,318.6137,747.1788,318.6603,756.4,322.12" style="stroke:#181818;stroke-width:1.0;"/><text fill="#000000" font-family="sans-serif" font-size="13" lengthAdjust="spacing" textLength="117" x="719.5" y="289.0084">listMyGreenSpaces</text></g><!--link Repositories to Repositories--><g id="link_Repositories_Repositories"><path codeLine="78" d="M808.97,747.9 C829.94,751.73 843.5,758.51 843.5,768.23 C843.5,777.95 835.8419,783.6493 814.8719,787.4893 " fill="none" id="Repositories-to-Repositories" style="stroke:#181818;stroke-width:1.0;"/><polygon fill="#181818" points="808.97,788.57,818.5433,790.8835,813.8882,787.6694,817.1023,783.0143,808.97,788.57" style="stroke:#181818;stroke-width:1.0;"/><text fill="#000000" font-family="sans-serif" font-size="13" lengthAdjust="spacing" textLength="53" x="849.5" y="773.2984">instance</text></g><!--link Repositories to GreenSpacesRepository--><g id="link_Repositories_GreenSpacesRepository"><path codeLine="79" d="M564.36,858.54 C547.86,884.32 533.5624,906.6551 518.7524,929.8151 " fill="none" id="Repositories-to-GreenSpacesRepository" style="stroke:#181818;stroke-width:1.0;stroke-dasharray:7.0,7.0;"/><polygon fill="#181818" points="515.52,934.87,523.7385,929.4426,518.2137,930.6576,516.9987,925.1328,515.52,934.87" style="stroke:#181818;stroke-width:1.0;"/><text fill="#000000" font-family="sans-serif" font-size="13" lengthAdjust="spacing" textLength="38" x="543.5" y="901.7584">create</text><text fill="#000000" font-family="sans-serif" font-size="13" lengthAdjust="spacing" textLength="8" x="551.679" y="878.6086">1</text><text fill="#000000" font-family="sans-serif" font-size="13" lengthAdjust="spacing" textLength="8" x="511.4224" y="924.5602">1</text></g><!--link Repositories to AuthenticationRepository--><g id="link_Repositories_AuthenticationRepository"><path codeLine="80" d="M678.64,858.54 C701.53,894.31 723.1857,928.1563 740.0557,954.5163 " fill="none" id="Repositories-to-AuthenticationRepository" style="stroke:#181818;stroke-width:1.0;"/><polygon fill="#181818" points="743.29,959.57,741.8077,949.8333,740.5948,955.3586,735.0695,954.1457,743.29,959.57" style="stroke:#181818;stroke-width:1.0;"/><text fill="#000000" font-family="sans-serif" font-size="13" lengthAdjust="spacing" textLength="143" x="705.5" y="901.7584">getCurrentUserSession</text><text fill="#000000" font-family="sans-serif" font-size="13" lengthAdjust="spacing" textLength="8" x="674.7085" y="878.6086">1</text><text fill="#000000" font-family="sans-serif" font-size="13" lengthAdjust="spacing" textLength="8" x="730.5237" y="949.2754">1</text></g><!--link GreenSpacesRepository to GreenSpace--><g id="link_GreenSpacesRepository_GreenSpace"><path codeLine="82" d="M425.59,1049.41 C402.79,1073.2 380.2411,1096.7178 356.6311,1121.3578 " fill="none" id="GreenSpacesRepository-to-GreenSpace" style="stroke:#181818;stroke-width:1.0;"/><polygon fill="#181818" points="352.48,1125.69,361.5948,1121.9591,355.9393,1122.0798,355.8185,1116.4242,352.48,1125.69" style="stroke:#181818;stroke-width:1.0;"/><text fill="#000000" font-family="sans-serif" font-size="13" lengthAdjust="spacing" textLength="29" x="397.5" y="1092.7084">have</text></g><!--link GreenSpacesRepository to SortAlgoritm--><g id="link_GreenSpacesRepository_SortAlgoritm"><path codeLine="83" d="M533.69,1049.41 C571.2,1088.34 615.0377,1133.8286 642.7677,1162.6186 " fill="none" id="GreenSpacesRepository-to-SortAlgoritm" style="stroke:#181818;stroke-width:1.0;"/><polygon fill="#181818" points="646.93,1166.94,643.5675,1157.6829,643.4614,1163.3388,637.8055,1163.2327,646.93,1166.94" style="stroke:#181818;stroke-width:1.0;"/><text fill="#000000" font-family="sans-serif" font-size="13" lengthAdjust="spacing" textLength="48" x="575.5" y="1092.7084">sortList</text></g><!--link Manager to Repositories--><g id="link_Manager_Repositories"><path codeLine="85" d="M771.62,601.69 C748.16,627.56 728.2601,649.495 706.6001,673.385 " fill="none" id="Manager-to-Repositories" style="stroke:#181818;stroke-width:1.0;"/><polygon fill="#181818" points="702.57,677.83,711.5785,673.8492,705.9284,674.1258,705.6518,668.4757,702.57,677.83" style="stroke:#181818;stroke-width:1.0;"/><text fill="#000000" font-family="sans-serif" font-size="13" lengthAdjust="spacing" textLength="117" x="743.5" y="644.8484">listMyGreenSpaces</text></g><!--SRC=[bLLDRnCn4BtxLrYzjAYR2gvxG2eDL44j849llNXt9ucfFoBRMxfK_7V6Qpln9hiHzD0sy_dU-Ctat3vnjMM6IIgrqlN6Q0dKcHR8thDbzHDRmz9r0gY1sZ6r5dc0tR16_-9gJLTCsDmZk0BNRO5kjUZy1t8-ujJ6QP9brO9PU-sSuLNhO55hjUI_WRubv5p0ob6dgU7hZQCDzt2uLeJqEVIEMtVVtHe0jKJOO1yMz9LG_BaqhRfuG_wao1i3p44MUQELCre8C35ZHjTxxtVOQikTDbrvEsQD6Qnr6r2EryoZofAk9nmajGBtKMw5xW0-uHiimLgCGy0zTk_EsjupXU_HN2nnGZXqa8oBZ5fmcyX2CGbbY0o6YXktQP1yESTVmSOQoVkEyqDxOn1A-21rnGNuER7Q3Khs2COSYtcZwn_unWTMrSeApC3esCkNO-jFNPMVTHN6T1cPqSHSeLgBErqpuI5JJ-hhweFdLpoglNt0hg0nMMh36bPGhb1H843gPn2Obqzr5yoRUI0IuYEh01Xp-XhivHlhm2oQQ4wvg2fCGnOKsMJlj5C11vianvN5zQgX77YZKmRwcQpIM_-x4Eca4azfdewBVg_EHSITA_O8M-wSWZ4X-K70ReAZ0QzP4o6oaF_QfX3vp0Hl1dVYOlzl2i8bcV3lW4wnpR2Eh_y8rTrvIak02nujZMuhlD4CRzimfg_1Lx5_zAMEILVfEJCoMOiYhrwC5owEQlOCS3l0h3pq9PxwQx56KJk9FD0tTh7FtftHgwlt_TyJTvgGKqVS9yzceKY-IxJCzNgoX4zF9wV4hwi3f8GCwcBmGP-qpCEudDseW36pxb4TvoL2KteAv6vQOz3xOC549H4otidNovHLqWrxXXEnW_ShgSMF_W49IMEQ7K_XU6v_0G00]--></g></svg>