<?xml version="1.0" encoding="us-ascii" standalone="no"?><svg xmlns="http://www.w3.org/2000/svg" xmlns:xlink="http://www.w3.org/1999/xlink" contentStyleType="text/css" height="802px" preserveAspectRatio="none" style="width:1792px;height:802px;background:#FFFFFF;" version="1.1" viewBox="0 0 1792 802" width="1792px" zoomAndPan="magnify"><defs/><g><rect fill="#FFFFFF" height="612.1426" style="stroke:#181818;stroke-width:1.0;" width="10" x="81" y="91.4883"/><rect fill="#FFFFFF" height="474.2793" style="stroke:#181818;stroke-width:1.0;" width="10" x="439" y="229.3516"/><rect fill="#FFFFFF" height="374.1699" style="stroke:#181818;stroke-width:1.0;" width="10" x="797" y="300.1504"/><rect fill="#FFFFFF" height="29.3105" style="stroke:#181818;stroke-width:1.0;" width="10" x="1007" y="329.4609"/><rect fill="#FFFFFF" height="95.2422" style="stroke:#181818;stroke-width:1.0;" width="10" x="1007" y="388.082"/><rect fill="#FFFFFF" height="29.3105" style="stroke:#181818;stroke-width:1.0;" width="10" x="1120" y="512.6348"/><rect fill="#FFFFFF" height="73.7539" style="stroke:#181818;stroke-width:1.0;" width="10" x="1583.5" y="571.2559"/><line style="stroke:#181818;stroke-width:0.5;stroke-dasharray:5.0,5.0;" x1="86" x2="86" y1="81.4883" y2="721.6309"/><line style="stroke:#181818;stroke-width:0.5;stroke-dasharray:5.0,5.0;" x1="444" x2="444" y1="81.4883" y2="721.6309"/><line style="stroke:#181818;stroke-width:0.5;stroke-dasharray:5.0,5.0;" x1="801.5" x2="801.5" y1="268.0957" y2="721.6309"/><line style="stroke:#181818;stroke-width:0.5;stroke-dasharray:5.0,5.0;" x1="1011.5" x2="1011.5" y1="81.4883" y2="721.6309"/><line style="stroke:#181818;stroke-width:0.5;stroke-dasharray:5.0,5.0;" x1="1124.5" x2="1124.5" y1="81.4883" y2="721.6309"/><line style="stroke:#181818;stroke-width:0.5;stroke-dasharray:5.0,5.0;" x1="1282.5" x2="1282.5" y1="81.4883" y2="721.6309"/><line style="stroke:#181818;stroke-width:0.5;stroke-dasharray:5.0,5.0;" x1="1438.5" x2="1438.5" y1="81.4883" y2="721.6309"/><line style="stroke:#181818;stroke-width:0.5;stroke-dasharray:5.0,5.0;" x1="1588.5" x2="1588.5" y1="81.4883" y2="721.6309"/><line style="stroke:#181818;stroke-width:0.5;stroke-dasharray:5.0,5.0;" x1="1736.5" x2="1736.5" y1="81.4883" y2="721.6309"/><text fill="#000000" font-family="sans-serif" font-size="14" lengthAdjust="spacing" textLength="156" x="5" y="78.5352">Green Spaces Manager</text><ellipse cx="86" cy="13.5" fill="#E3E3E3" rx="8" ry="8" style="stroke:#181818;stroke-width:0.5;"/><path d="M86,21.5 L86,48.5 M73,29.5 L99,29.5 M86,48.5 L73,63.5 M86,48.5 L99,63.5 " fill="none" style="stroke:#181818;stroke-width:0.5;"/><text fill="#000000" font-family="sans-serif" font-size="14" lengthAdjust="spacing" textLength="156" x="5" y="734.166">Green Spaces Manager</text><ellipse cx="86" cy="745.6191" fill="#E3E3E3" rx="8" ry="8" style="stroke:#181818;stroke-width:0.5;"/><path d="M86,753.6191 L86,780.6191 M73,761.6191 L99,761.6191 M86,780.6191 L73,795.6191 M86,780.6191 L99,795.6191 " fill="none" style="stroke:#181818;stroke-width:0.5;"/><rect fill="#E3E3E3" height="30.4883" rx="2.5" ry="2.5" style="stroke:#181818;stroke-width:0.5;" width="162" x="363" y="50"/><text fill="#000000" font-family="sans-serif" font-size="14" lengthAdjust="spacing" textLength="148" x="370" y="70.5352">:ListMyGreenSpacesUI</text><rect fill="#E3E3E3" height="30.4883" rx="2.5" ry="2.5" style="stroke:#181818;stroke-width:0.5;" width="162" x="363" y="720.6309"/><text fill="#000000" font-family="sans-serif" font-size="14" lengthAdjust="spacing" textLength="148" x="370" y="741.166">:ListMyGreenSpacesUI</text><rect fill="#E3E3E3" height="30.4883" rx="2.5" ry="2.5" style="stroke:#181818;stroke-width:0.5;" width="221" x="691.5" y="720.6309"/><text fill="#000000" font-family="sans-serif" font-size="14" lengthAdjust="spacing" textLength="207" x="698.5" y="741.166">:CreateGreenSpacesController</text><rect fill="#E3E3E3" height="30.4883" rx="2.5" ry="2.5" style="stroke:#181818;stroke-width:0.5;" width="103" x="960.5" y="50"/><text fill="#000000" font-family="sans-serif" font-size="14" lengthAdjust="spacing" textLength="89" x="967.5" y="70.5352">:Repositories</text><rect fill="#E3E3E3" height="30.4883" rx="2.5" ry="2.5" style="stroke:#181818;stroke-width:0.5;" width="103" x="960.5" y="720.6309"/><text fill="#000000" font-family="sans-serif" font-size="14" lengthAdjust="spacing" textLength="89" x="967.5" y="741.166">:Repositories</text><rect fill="#E3E3E3" height="46.9766" rx="2.5" ry="2.5" style="stroke:#181818;stroke-width:0.5;" width="103" x="1073.5" y="33.5117"/><text fill="#000000" font-family="sans-serif" font-size="14" lengthAdjust="spacing" textLength="82" x="1084" y="54.0469">repositories</text><text fill="#000000" font-family="sans-serif" font-size="14" lengthAdjust="spacing" textLength="89" x="1080.5" y="70.5352">:Repositories</text><rect fill="#E3E3E3" height="46.9766" rx="2.5" ry="2.5" style="stroke:#181818;stroke-width:0.5;" width="103" x="1073.5" y="720.6309"/><text fill="#000000" font-family="sans-serif" font-size="14" lengthAdjust="spacing" textLength="82" x="1084" y="741.166">repositories</text><text fill="#000000" font-family="sans-serif" font-size="14" lengthAdjust="spacing" textLength="89" x="1080.5" y="757.6543">:Repositories</text><rect fill="#E3E3E3" height="46.9766" rx="2.5" ry="2.5" style="stroke:#181818;stroke-width:0.5;" width="192" x="1186.5" y="33.5117"/><text fill="#000000" font-family="sans-serif" font-size="14" lengthAdjust="spacing" textLength="172" x="1196.5" y="54.0469">authenticationRepository</text><text fill="#000000" font-family="sans-serif" font-size="14" lengthAdjust="spacing" textLength="178" x="1193.5" y="70.5352">:AuthenticationRepository</text><rect fill="#E3E3E3" height="46.9766" rx="2.5" ry="2.5" style="stroke:#181818;stroke-width:0.5;" width="192" x="1186.5" y="720.6309"/><text fill="#000000" font-family="sans-serif" font-size="14" lengthAdjust="spacing" textLength="172" x="1196.5" y="741.166">authenticationRepository</text><text fill="#000000" font-family="sans-serif" font-size="14" lengthAdjust="spacing" textLength="178" x="1193.5" y="757.6543">:AuthenticationRepository</text><rect fill="#E3E3E3" height="46.9766" rx="2.5" ry="2.5" style="stroke:#181818;stroke-width:0.5;" width="101" x="1388.5" y="33.5117"/><text fill="#000000" font-family="sans-serif" font-size="14" lengthAdjust="spacing" textLength="82" x="1398" y="54.0469">userSession</text><text fill="#000000" font-family="sans-serif" font-size="14" lengthAdjust="spacing" textLength="87" x="1395.5" y="70.5352">:UserSession</text><rect fill="#E3E3E3" height="46.9766" rx="2.5" ry="2.5" style="stroke:#181818;stroke-width:0.5;" width="101" x="1388.5" y="720.6309"/><text fill="#000000" font-family="sans-serif" font-size="14" lengthAdjust="spacing" textLength="82" x="1398" y="741.166">userSession</text><text fill="#000000" font-family="sans-serif" font-size="14" lengthAdjust="spacing" textLength="87" x="1395.5" y="757.6543">:UserSession</text><rect fill="#E3E3E3" height="46.9766" rx="2.5" ry="2.5" style="stroke:#181818;stroke-width:0.5;" width="178" x="1499.5" y="33.5117"/><text fill="#000000" font-family="sans-serif" font-size="14" lengthAdjust="spacing" textLength="160" x="1508.5" y="54.0469">greenSpacesRepository</text><text fill="#000000" font-family="sans-serif" font-size="14" lengthAdjust="spacing" textLength="164" x="1506.5" y="70.5352">:greenSpacesRepository</text><rect fill="#E3E3E3" height="46.9766" rx="2.5" ry="2.5" style="stroke:#181818;stroke-width:0.5;" width="178" x="1499.5" y="720.6309"/><text fill="#000000" font-family="sans-serif" font-size="14" lengthAdjust="spacing" textLength="160" x="1508.5" y="741.166">greenSpacesRepository</text><text fill="#000000" font-family="sans-serif" font-size="14" lengthAdjust="spacing" textLength="164" x="1506.5" y="757.6543">:greenSpacesRepository</text><rect fill="#E3E3E3" height="30.4883" rx="2.5" ry="2.5" style="stroke:#181818;stroke-width:0.5;" width="99" x="1687.5" y="50"/><text fill="#000000" font-family="sans-serif" font-size="14" lengthAdjust="spacing" textLength="85" x="1694.5" y="70.5352">:GreenSpace</text><rect fill="#E3E3E3" height="30.4883" rx="2.5" ry="2.5" style="stroke:#181818;stroke-width:0.5;" width="99" x="1687.5" y="720.6309"/><text fill="#000000" font-family="sans-serif" font-size="14" lengthAdjust="spacing" textLength="85" x="1694.5" y="741.166">:GreenSpace</text><rect fill="#FFFFFF" height="612.1426" style="stroke:#181818;stroke-width:1.0;" width="10" x="81" y="91.4883"/><rect fill="#FFFFFF" height="474.2793" style="stroke:#181818;stroke-width:1.0;" width="10" x="439" y="229.3516"/><rect fill="#FFFFFF" height="374.1699" style="stroke:#181818;stroke-width:1.0;" width="10" x="797" y="300.1504"/><rect fill="#FFFFFF" height="29.3105" style="stroke:#181818;stroke-width:1.0;" width="10" x="1007" y="329.4609"/><rect fill="#FFFFFF" height="95.2422" style="stroke:#181818;stroke-width:1.0;" width="10" x="1007" y="388.082"/><rect fill="#FFFFFF" height="29.3105" style="stroke:#181818;stroke-width:1.0;" width="10" x="1120" y="512.6348"/><rect fill="#FFFFFF" height="73.7539" style="stroke:#181818;stroke-width:1.0;" width="10" x="1583.5" y="571.2559"/><path d="M96,96.4883 L96,151.4883 L389,151.4883 L389,106.4883 L379,96.4883 L96,96.4883 " fill="#FAFAFA" style="stroke:#181818;stroke-width:0.5;"/><path d="M379,96.4883 L379,106.4883 L389,106.4883 L379,96.4883 " fill="#FAFAFA" style="stroke:#181818;stroke-width:0.5;"/><text fill="#000000" font-family="sans-serif" font-size="13" lengthAdjust="spacing" textLength="272" x="102" y="114.0566">- The user is already logged in at this step.</text><text fill="#000000" font-family="sans-serif" font-size="13" lengthAdjust="spacing" textLength="264" x="102" y="129.3672">- Authentication sequence is explained in</text><text fill="#000000" font-family="sans-serif" font-size="13" lengthAdjust="spacing" textLength="125" x="102" y="144.6777">a sequence excerpt.</text><path d="M1017,162.4199 L1017,202.4199 L1124,202.4199 L1124,172.4199 L1114,162.4199 L1017,162.4199 " fill="#FAFAFA" style="stroke:#181818;stroke-width:0.5;"/><path d="M1114,162.4199 L1114,172.4199 L1124,172.4199 L1114,162.4199 " fill="#FAFAFA" style="stroke:#181818;stroke-width:0.5;"/><text fill="#000000" font-family="sans-serif" font-size="13" lengthAdjust="spacing" textLength="86" x="1023" y="179.9883">- Singleton is</text><text fill="#000000" font-family="sans-serif" font-size="13" lengthAdjust="spacing" textLength="38" x="1023" y="195.2988">in use</text><polygon fill="#181818" points="427,225.3516,437,229.3516,427,233.3516,431,229.3516" style="stroke:#181818;stroke-width:1.0;"/><line style="stroke:#181818;stroke-width:1.0;" x1="91" x2="433" y1="229.3516" y2="229.3516"/><text fill="#000000" font-family="sans-serif" font-size="13" font-weight="bold" lengthAdjust="spacing" textLength="9" x="98" y="224.6094">1</text><text fill="#000000" font-family="sans-serif" font-size="13" lengthAdjust="spacing" textLength="316" x="111" y="224.6094">asks for a list of the green spaces managed by me</text><polygon fill="#181818" points="679.5,254.6621,689.5,258.6621,679.5,262.6621,683.5,258.6621" style="stroke:#181818;stroke-width:1.0;"/><line style="stroke:#181818;stroke-width:1.0;" x1="449" x2="685.5" y1="258.6621" y2="258.6621"/><text fill="#000000" font-family="sans-serif" font-size="13" font-weight="bold" lengthAdjust="spacing" textLength="9" x="456" y="253.9199">2</text><text fill="#000000" font-family="sans-serif" font-size="13" lengthAdjust="spacing" textLength="38" x="469" y="253.9199">create</text><rect fill="#E3E3E3" height="30.4883" rx="2.5" ry="2.5" style="stroke:#181818;stroke-width:0.5;" width="221" x="691.5" y="237.3516"/><text fill="#000000" font-family="sans-serif" font-size="14" lengthAdjust="spacing" textLength="207" x="698.5" y="257.8867">:CreateGreenSpacesController</text><polygon fill="#181818" points="785,296.1504,795,300.1504,785,304.1504,789,300.1504" style="stroke:#181818;stroke-width:1.0;"/><line style="stroke:#181818;stroke-width:1.0;" x1="449" x2="791" y1="300.1504" y2="300.1504"/><text fill="#000000" font-family="sans-serif" font-size="13" font-weight="bold" lengthAdjust="spacing" textLength="9" x="456" y="295.4082">3</text><text fill="#000000" font-family="sans-serif" font-size="13" lengthAdjust="spacing" textLength="316" x="469" y="295.4082">asks for a list of the green spaces managed by me</text><polygon fill="#181818" points="995,325.4609,1005,329.4609,995,333.4609,999,329.4609" style="stroke:#181818;stroke-width:1.0;"/><line style="stroke:#181818;stroke-width:1.0;" x1="807" x2="1001" y1="329.4609" y2="329.4609"/><text fill="#000000" font-family="sans-serif" font-size="13" font-weight="bold" lengthAdjust="spacing" textLength="9" x="814" y="324.7188">4</text><text fill="#000000" font-family="sans-serif" font-size="13" lengthAdjust="spacing" textLength="81" x="827" y="324.7188">getInstance()</text><polygon fill="#181818" points="818,354.7715,808,358.7715,818,362.7715,814,358.7715" style="stroke:#181818;stroke-width:1.0;"/><line style="stroke:#181818;stroke-width:1.0;stroke-dasharray:2.0,2.0;" x1="812" x2="1011" y1="358.7715" y2="358.7715"/><text fill="#000000" font-family="sans-serif" font-size="13" font-weight="bold" lengthAdjust="spacing" textLength="9" x="824" y="354.0293">5</text><text fill="#000000" font-family="sans-serif" font-size="13" lengthAdjust="spacing" textLength="75" x="837" y="354.0293">repositories</text><polygon fill="#181818" points="995,384.082,1005,388.082,995,392.082,999,388.082" style="stroke:#181818;stroke-width:1.0;"/><line style="stroke:#181818;stroke-width:1.0;" x1="807" x2="1001" y1="388.082" y2="388.082"/><text fill="#000000" font-family="sans-serif" font-size="13" font-weight="bold" lengthAdjust="spacing" textLength="9" x="814" y="383.3398">6</text><text fill="#000000" font-family="sans-serif" font-size="13" lengthAdjust="spacing" textLength="168" x="827" y="383.3398">getEmployeeFromSession()</text><path d="M812,401.082 L812,456.082 L1004,456.082 L1004,411.082 L994,401.082 L812,401.082 " fill="#FAFAFA" style="stroke:#181818;stroke-width:0.5;"/><path d="M994,401.082 L994,411.082 L1004,411.082 L994,401.082 " fill="#FAFAFA" style="stroke:#181818;stroke-width:0.5;"/><text fill="#000000" font-family="sans-serif" font-size="13" lengthAdjust="spacing" textLength="171" x="818" y="418.6504">- This method is explained</text><text fill="#000000" font-family="sans-serif" font-size="13" lengthAdjust="spacing" textLength="137" x="818" y="433.9609">in detail in an excerpt</text><text fill="#000000" font-family="sans-serif" font-size="13" lengthAdjust="spacing" textLength="118" x="818" y="449.2715">sequence diagram.</text><polygon fill="#181818" points="818,479.3242,808,483.3242,818,487.3242,814,483.3242" style="stroke:#181818;stroke-width:1.0;"/><line style="stroke:#181818;stroke-width:1.0;stroke-dasharray:2.0,2.0;" x1="812" x2="1011" y1="483.3242" y2="483.3242"/><text fill="#000000" font-family="sans-serif" font-size="13" font-weight="bold" lengthAdjust="spacing" textLength="9" x="824" y="478.582">7</text><text fill="#000000" font-family="sans-serif" font-size="13" lengthAdjust="spacing" textLength="60" x="837" y="478.582">employee</text><polygon fill="#181818" points="1108,508.6348,1118,512.6348,1108,516.6348,1112,512.6348" style="stroke:#181818;stroke-width:1.0;"/><line style="stroke:#181818;stroke-width:1.0;" x1="807" x2="1114" y1="512.6348" y2="512.6348"/><text fill="#000000" font-family="sans-serif" font-size="13" font-weight="bold" lengthAdjust="spacing" textLength="9" x="814" y="507.8926">8</text><text fill="#000000" font-family="sans-serif" font-size="13" lengthAdjust="spacing" textLength="174" x="827" y="507.8926">getGreenSpacesRepository()</text><polygon fill="#181818" points="818,537.9453,808,541.9453,818,545.9453,814,541.9453" style="stroke:#181818;stroke-width:1.0;"/><line style="stroke:#181818;stroke-width:1.0;stroke-dasharray:2.0,2.0;" x1="812" x2="1124" y1="541.9453" y2="541.9453"/><text fill="#000000" font-family="sans-serif" font-size="13" font-weight="bold" lengthAdjust="spacing" textLength="9" x="824" y="537.2031">9</text><text fill="#000000" font-family="sans-serif" font-size="13" lengthAdjust="spacing" textLength="145" x="837" y="537.2031">greenSpacesRepository</text><polygon fill="#181818" points="1571.5,567.2559,1581.5,571.2559,1571.5,575.2559,1575.5,571.2559" style="stroke:#181818;stroke-width:1.0;"/><line style="stroke:#181818;stroke-width:1.0;" x1="807" x2="1577.5" y1="571.2559" y2="571.2559"/><text fill="#000000" font-family="sans-serif" font-size="13" font-weight="bold" lengthAdjust="spacing" textLength="18" x="814" y="566.5137">10</text><text fill="#000000" font-family="sans-serif" font-size="13" lengthAdjust="spacing" textLength="163" x="836" y="566.5137">getGreenSpacesManaged()</text><rect fill="none" height="39.4434" style="stroke:#000000;stroke-width:1.5;" width="184" x="1496.5" y="579.2559"/><path d="M1496.5,579.2559 L1560.5,579.2559 L1560.5,586.2559 L1550.5,596.2559 L1496.5,596.2559 L1496.5,579.2559 " fill="#EEEEEE" style="stroke:#000000;stroke-width:2.0;"/><text fill="#000000" font-family="sans-serif" font-size="13" font-weight="bold" lengthAdjust="spacing" textLength="19" x="1509.5" y="593.8242">ref</text><text fill="#000000" font-family="sans-serif" font-size="12" lengthAdjust="spacing" textLength="78" x="1549.5" y="611.8574">SortAlgoritm()</text><polygon fill="#181818" points="818,641.0098,808,645.0098,818,649.0098,814,645.0098" style="stroke:#181818;stroke-width:1.0;"/><line style="stroke:#181818;stroke-width:1.0;stroke-dasharray:2.0,2.0;" x1="812" x2="1587.5" y1="645.0098" y2="645.0098"/><text fill="#000000" font-family="sans-serif" font-size="13" font-weight="bold" lengthAdjust="spacing" textLength="18" x="824" y="640.2676">11</text><text fill="#000000" font-family="sans-serif" font-size="13" lengthAdjust="spacing" textLength="121" x="846" y="640.2676">myGreenSpacesList</text><polygon fill="#181818" points="460,670.3203,450,674.3203,460,678.3203,456,674.3203" style="stroke:#181818;stroke-width:1.0;"/><line style="stroke:#181818;stroke-width:1.0;stroke-dasharray:2.0,2.0;" x1="454" x2="801" y1="674.3203" y2="674.3203"/><text fill="#000000" font-family="sans-serif" font-size="13" font-weight="bold" lengthAdjust="spacing" textLength="18" x="466" y="669.5781">12</text><text fill="#000000" font-family="sans-serif" font-size="13" lengthAdjust="spacing" textLength="121" x="488" y="669.5781">myGreenSpacesList</text><polygon fill="#181818" points="97,699.6309,87,703.6309,97,707.6309,93,703.6309" style="stroke:#181818;stroke-width:1.0;"/><line style="stroke:#181818;stroke-width:1.0;stroke-dasharray:2.0,2.0;" x1="91" x2="443" y1="703.6309" y2="703.6309"/><text fill="#000000" font-family="sans-serif" font-size="13" font-weight="bold" lengthAdjust="spacing" textLength="18" x="103" y="698.8887">13</text><text fill="#000000" font-family="sans-serif" font-size="13" lengthAdjust="spacing" textLength="230" x="125" y="698.8887">shows Green Spaces managed by me</text><!--SRC=[hLR1Rjim3BtxAuXSjXL8FY270K6HPG6MTOYRsu12jHbRY2rvajB6VpzAJcpPLeoXc6woo4VoyOcoFd5HCSLAAAMGIQvaYM3K6IFTdbGiER4COrCN20eJmqHM-0OwPwbyvoA38oiqHX4x6odEvIkgAFgKynJXAALvbPU89KOgc6qKee2Oa573ZWc2LpDW6ZRnBY9GmnDUCM5Wjlp1jTdLpg6nFsoTvM4xC7nKo0nwXezI62MBuWgTjDk1unuhgJdbnL4xIyrjWLH2tr1vTh_5s8tE-mv4Guw2zinmALhxcfnNTuuSqEhm_Frbl_xrr8SxQrGnQaqEX73eTWqVyVubNiVnzkbdtoth6Ecb4Fpke88d0z8wdWSkKIIa8PtmB3SWZwwZG6iEppc2hG6u1bPGjz8Q2fbbc08Nm0oOd4wqmMfnzUYp11h_d54aQ07mKXMC2-Vhh5btZ9S4LMKM4OeKR3R3dBe6Dt7YsvwGtIVAXpBr_4ct_8tavSfn9dRH1kPVIOgm919EccIkA96296l3KF8DCQ0RfPTEwIcyrb1Y1zE2awRRZtOHCC5tmdrue429q_cquOVoyG7RbBnRqpEmouj7qLjIANY6PYiq3Oe4FtyP-RNWNHz6DdPrYFDUTKlmh-B8DSL_2J2P_Bgi2baZVgDvUBraLCS8ewygZwfGDVO2a71BDBbCUn8EcfC4KpIC5-voY9kemqJTb9zobj54NeoiEYL_f1dt6a5auPMfwB-qWVhQD60J6a5JKhB3DyYDXHpA9ppW9We8elTJ3sAEYcdUkdIgad1oqRYk8yWtYdqlS2oLMHKPtH5JXiHhLzXtrEJIVt_jWpp5rPtyf_cxJT7fI5wKUtF9Ja82ivDvIJycyft-AVoVZV38yu3j3FQsTjx_1G00]--></g></svg>