<?xml version="1.0" encoding="us-ascii" standalone="no"?><svg xmlns="http://www.w3.org/2000/svg" xmlns:xlink="http://www.w3.org/1999/xlink" contentStyleType="text/css" height="899px" preserveAspectRatio="none" style="width:1148px;height:899px;background:#FFFFFF;" version="1.1" viewBox="0 0 1148 899" width="1148px" zoomAndPan="magnify"><defs/><g><!--class CreateJobController--><g id="elem_CreateJobController"><rect codeLine="11" fill="#F1F1F1" height="130.4414" id="CreateJobController" rx="2.5" ry="2.5" style="stroke:#181818;stroke-width:0.5;" width="370" x="622.5" y="198.44"/><ellipse cx="734.75" cy="214.44" fill="#ADD1B2" rx="11" ry="11" style="stroke:#181818;stroke-width:1.0;"/><path d="M737.7231,220.0831 Q737.1421,220.3819 736.5029,220.5313 Q735.8638,220.6807 735.1582,220.6807 Q732.6514,220.6807 731.3315,219.0289 Q730.0117,217.377 730.0117,214.2559 Q730.0117,211.1265 731.3315,209.4747 Q732.6514,207.8228 735.1582,207.8228 Q735.8638,207.8228 736.5112,207.9722 Q737.1587,208.1216 737.7231,208.4205 L737.7231,211.1431 Q737.0923,210.5621 736.4988,210.2923 Q735.9053,210.0225 735.2744,210.0225 Q733.9297,210.0225 733.2449,211.0892 Q732.5601,212.1558 732.5601,214.2559 Q732.5601,216.3477 733.2449,217.4144 Q733.9297,218.481 735.2744,218.481 Q735.9053,218.481 736.4988,218.2112 Q737.0923,217.9415 737.7231,217.3604 Z " fill="#000000"/><text fill="#000000" font-family="sans-serif" font-size="14" lengthAdjust="spacing" textLength="137" x="755.25" y="219.731">CreateJobController</text><line style="stroke:#181818;stroke-width:0.5;" x1="623.5" x2="991.5" y1="230.44" y2="230.44"/><text fill="#000000" font-family="sans-serif" font-size="14" lengthAdjust="spacing" textLength="202" x="628.5" y="247.9752">-jobRepository:JobRepository</text><text fill="#000000" font-family="sans-serif" font-size="14" lengthAdjust="spacing" textLength="358" x="628.5" y="264.4634">-authenticationRepository:AuthenticationRepository</text><line style="stroke:#181818;stroke-width:0.5;" x1="623.5" x2="991.5" y1="271.4166" y2="271.4166"/><text fill="#000000" font-family="sans-serif" font-size="14" lengthAdjust="spacing" textLength="194" x="628.5" y="288.9517">-getEmployeeFromSession()</text><text fill="#000000" font-family="sans-serif" font-size="14" lengthAdjust="spacing" textLength="253" x="628.5" y="305.44">+CreateJobController(jobRepository)</text><text fill="#000000" font-family="sans-serif" font-size="14" lengthAdjust="spacing" textLength="254" x="628.5" y="321.9283">+createJob(jobName, jobDescription)</text></g><!--class CreateJobUI--><g id="elem_CreateJobUI"><rect codeLine="23" fill="#F1F1F1" height="130.4414" id="CreateJobUI" rx="2.5" ry="2.5" style="stroke:#181818;stroke-width:0.5;" width="285" x="665" y="7"/><ellipse cx="762.75" cy="23" fill="#ADD1B2" rx="11" ry="11" style="stroke:#181818;stroke-width:1.0;"/><path d="M765.7231,28.6431 Q765.1421,28.9419 764.5029,29.0913 Q763.8638,29.2407 763.1582,29.2407 Q760.6514,29.2407 759.3315,27.5889 Q758.0117,25.937 758.0117,22.8159 Q758.0117,19.6865 759.3315,18.0347 Q760.6514,16.3828 763.1582,16.3828 Q763.8638,16.3828 764.5112,16.5322 Q765.1587,16.6816 765.7231,16.9805 L765.7231,19.7031 Q765.0923,19.1221 764.4988,18.8523 Q763.9053,18.5825 763.2744,18.5825 Q761.9297,18.5825 761.2449,19.6492 Q760.5601,20.7158 760.5601,22.8159 Q760.5601,24.9077 761.2449,25.9744 Q761.9297,27.041 763.2744,27.041 Q763.9053,27.041 764.4988,26.7712 Q765.0923,26.5015 765.7231,25.9204 Z " fill="#000000"/><text fill="#000000" font-family="sans-serif" font-size="14" lengthAdjust="spacing" textLength="81" x="783.25" y="28.291">CreateJobUI</text><line style="stroke:#181818;stroke-width:0.5;" x1="666" x2="949" y1="39" y2="39"/><line style="stroke:#181818;stroke-width:0.5;" x1="666" x2="949" y1="47" y2="47"/><text fill="#000000" font-family="sans-serif" font-size="14" lengthAdjust="spacing" textLength="45" x="671" y="64.5352">+run()</text><text fill="#000000" font-family="sans-serif" font-size="14" lengthAdjust="spacing" textLength="273" x="671" y="81.0234">+requestData(jobName, jobDescription)</text><text fill="#000000" font-family="sans-serif" font-size="14" lengthAdjust="spacing" textLength="99" x="671" y="97.5117">+submitData()</text><text fill="#000000" font-family="sans-serif" font-size="14" lengthAdjust="spacing" textLength="173" x="671" y="114">+requestJobDescription()</text><text fill="#000000" font-family="sans-serif" font-size="14" lengthAdjust="spacing" textLength="134" x="671" y="130.4883">+requestJobName()</text></g><!--class Employee--><g id="elem_Employee"><rect codeLine="32" fill="#F1F1F1" height="278.8359" id="Employee" rx="2.5" ry="2.5" style="stroke:#181818;stroke-width:0.5;" width="389" x="7" y="405.88"/><ellipse cx="164.25" cy="421.88" fill="#ADD1B2" rx="11" ry="11" style="stroke:#181818;stroke-width:1.0;"/><path d="M167.2231,427.5231 Q166.6421,427.8219 166.0029,427.9713 Q165.3638,428.1207 164.6582,428.1207 Q162.1514,428.1207 160.8315,426.4689 Q159.5117,424.817 159.5117,421.6959 Q159.5117,418.5665 160.8315,416.9147 Q162.1514,415.2628 164.6582,415.2628 Q165.3638,415.2628 166.0112,415.4122 Q166.6587,415.5616 167.2231,415.8605 L167.2231,418.5831 Q166.5923,418.0021 165.9988,417.7323 Q165.4053,417.4625 164.7744,417.4625 Q163.4297,417.4625 162.7449,418.5292 Q162.0601,419.5958 162.0601,421.6959 Q162.0601,423.7877 162.7449,424.8544 Q163.4297,425.921 164.7744,425.921 Q165.4053,425.921 165.9988,425.6512 Q166.5923,425.3815 167.2231,424.8004 Z " fill="#000000"/><text fill="#000000" font-family="sans-serif" font-size="14" lengthAdjust="spacing" textLength="66" x="184.75" y="427.171">Employee</text><line style="stroke:#181818;stroke-width:0.5;" x1="8" x2="395" y1="437.88" y2="437.88"/><text fill="#000000" font-family="sans-serif" font-size="14" lengthAdjust="spacing" textLength="91" x="13" y="455.4152">-name:String</text><text fill="#000000" font-family="sans-serif" font-size="14" lengthAdjust="spacing" textLength="106" x="13" y="471.9034">-birthdate:Date</text><text fill="#000000" font-family="sans-serif" font-size="14" lengthAdjust="spacing" textLength="144" x="13" y="488.3917">-admissionDate:Date</text><text fill="#000000" font-family="sans-serif" font-size="14" lengthAdjust="spacing" textLength="62" x="13" y="504.88">-address</text><text fill="#000000" font-family="sans-serif" font-size="14" lengthAdjust="spacing" textLength="153" x="13" y="521.3683">-mobileContact:String</text><text fill="#000000" font-family="sans-serif" font-size="14" lengthAdjust="spacing" textLength="143" x="13" y="537.8566">-emailContact:String</text><text fill="#000000" font-family="sans-serif" font-size="14" lengthAdjust="spacing" textLength="125" x="13" y="554.3448">-IDdocType:String</text><text fill="#000000" font-family="sans-serif" font-size="14" lengthAdjust="spacing" textLength="121" x="13" y="570.8331">-IDnumber:String</text><text fill="#000000" font-family="sans-serif" font-size="14" lengthAdjust="spacing" textLength="130" x="13" y="587.3214">-taxNumber:String</text><text fill="#000000" font-family="sans-serif" font-size="14" lengthAdjust="spacing" textLength="56" x="13" y="603.8097">-job:Job</text><line style="stroke:#181818;stroke-width:0.5;" x1="8" x2="395" y1="610.7628" y2="610.7628"/><text fill="#000000" font-family="sans-serif" font-size="14" lengthAdjust="spacing" textLength="326" x="13" y="628.298">+Employee (String nome,LocalDate dateOfBirth,</text><text fill="#000000" font-family="sans-serif" font-size="14" lengthAdjust="spacing" textLength="377" x="13" y="644.7863">LocalDate admissionDate, String morada, int telemovel,</text><text fill="#000000" font-family="sans-serif" font-size="14" lengthAdjust="spacing" textLength="354" x="13" y="661.2745">String email, String idDocType, int docTypeNumber,</text><text fill="#000000" font-family="sans-serif" font-size="14" lengthAdjust="spacing" textLength="290" x="13" y="677.7628">int taxPayerIdNumber, String role, Job job)</text></g><!--class Repositories--><g id="elem_Repositories"><rect codeLine="47" fill="#F1F1F1" height="212.8828" id="Repositories" rx="2.5" ry="2.5" style="stroke:#181818;stroke-width:0.5;" width="370" x="431.5" y="438.86"/><ellipse cx="569.75" cy="454.86" fill="#ADD1B2" rx="11" ry="11" style="stroke:#181818;stroke-width:1.0;"/><path d="M572.7231,460.5031 Q572.1421,460.8019 571.5029,460.9513 Q570.8638,461.1007 570.1582,461.1007 Q567.6514,461.1007 566.3315,459.4489 Q565.0117,457.797 565.0117,454.6759 Q565.0117,451.5465 566.3315,449.8947 Q567.6514,448.2428 570.1582,448.2428 Q570.8638,448.2428 571.5112,448.3922 Q572.1587,448.5416 572.7231,448.8405 L572.7231,451.5631 Q572.0923,450.9821 571.4988,450.7123 Q570.9053,450.4425 570.2744,450.4425 Q568.9297,450.4425 568.2449,451.5092 Q567.5601,452.5758 567.5601,454.6759 Q567.5601,456.7677 568.2449,457.8344 Q568.9297,458.901 570.2744,458.901 Q570.9053,458.901 571.4988,458.6312 Q572.0923,458.3615 572.7231,457.7804 Z " fill="#000000"/><text fill="#000000" font-family="sans-serif" font-size="14" lengthAdjust="spacing" textLength="85" x="590.25" y="460.151">Repositories</text><line style="stroke:#181818;stroke-width:0.5;" x1="432.5" x2="800.5" y1="470.86" y2="470.86"/><text fill="#000000" font-family="sans-serif" font-size="14" lengthAdjust="spacing" textLength="154" x="437.5" y="488.3952">-instance:Repositories</text><text fill="#000000" font-family="sans-serif" font-size="14" lengthAdjust="spacing" textLength="202" x="437.5" y="504.8834">-jobRepository:JobRepository</text><text fill="#000000" font-family="sans-serif" font-size="14" lengthAdjust="spacing" textLength="202" x="437.5" y="521.3717">-jobRepository:JobRepository</text><text fill="#000000" font-family="sans-serif" font-size="14" lengthAdjust="spacing" textLength="290" x="437.5" y="537.86">-employeeRepository:EmployeeRepository</text><text fill="#000000" font-family="sans-serif" font-size="14" lengthAdjust="spacing" textLength="358" x="437.5" y="554.3483">-authenticationRepository:AuthenticationRepository</text><line style="stroke:#181818;stroke-width:0.5;" x1="432.5" x2="800.5" y1="561.3014" y2="561.3014"/><text fill="#000000" font-family="sans-serif" font-size="14" lengthAdjust="spacing" textLength="100" x="437.5" y="578.8366">+getInstance()</text><text fill="#000000" font-family="sans-serif" font-size="14" lengthAdjust="spacing" textLength="144" x="437.5" y="595.3248">+getSkillRepository()</text><text fill="#000000" font-family="sans-serif" font-size="14" lengthAdjust="spacing" textLength="138" x="437.5" y="611.8131">+getJobRepository()</text><text fill="#000000" font-family="sans-serif" font-size="14" lengthAdjust="spacing" textLength="182" x="437.5" y="628.3014">+getEmployeeRepository()</text><text fill="#000000" font-family="sans-serif" font-size="14" lengthAdjust="spacing" textLength="217" x="437.5" y="644.7897">+getAuthenticationRepository()</text></g><!--class JobRepository--><g id="elem_JobRepository"><rect codeLine="62" fill="#F1F1F1" height="97.4648" id="JobRepository" rx="2.5" ry="2.5" style="stroke:#181818;stroke-width:0.5;" width="165" x="710" y="778.21"/><ellipse cx="742.1" cy="794.21" fill="#ADD1B2" rx="11" ry="11" style="stroke:#181818;stroke-width:1.0;"/><path d="M745.0731,799.8531 Q744.4921,800.1519 743.8529,800.3013 Q743.2138,800.4507 742.5082,800.4507 Q740.0014,800.4507 738.6815,798.7989 Q737.3617,797.147 737.3617,794.0259 Q737.3617,790.8965 738.6815,789.2447 Q740.0014,787.5928 742.5082,787.5928 Q743.2138,787.5928 743.8612,787.7422 Q744.5087,787.8916 745.0731,788.1905 L745.0731,790.9131 Q744.4423,790.3321 743.8488,790.0623 Q743.2553,789.7925 742.6244,789.7925 Q741.2797,789.7925 740.5949,790.8592 Q739.9101,791.9258 739.9101,794.0259 Q739.9101,796.1177 740.5949,797.1844 Q741.2797,798.251 742.6244,798.251 Q743.2553,798.251 743.8488,797.9812 Q744.4423,797.7115 745.0731,797.1304 Z " fill="#000000"/><text fill="#000000" font-family="sans-serif" font-size="14" lengthAdjust="spacing" textLength="95" x="759.9" y="799.501">JobRepository</text><line style="stroke:#181818;stroke-width:0.5;" x1="711" x2="874" y1="810.21" y2="810.21"/><line style="stroke:#181818;stroke-width:0.5;" x1="711" x2="874" y1="818.21" y2="818.21"/><text fill="#000000" font-family="sans-serif" font-size="14" lengthAdjust="spacing" textLength="72" x="716" y="835.7452">+getJobs()</text><text fill="#000000" font-family="sans-serif" font-size="14" lengthAdjust="spacing" textLength="153" x="716" y="852.2334">+validateJobs(newJob)</text><text fill="#000000" font-family="sans-serif" font-size="14" lengthAdjust="spacing" textLength="119" x="716" y="868.7217">+addJob(newJob)</text></g><!--class AuthenticationRepository--><g id="elem_AuthenticationRepository"><rect codeLine="68" fill="#F1F1F1" height="64.4883" id="AuthenticationRepository" rx="2.5" ry="2.5" style="stroke:#181818;stroke-width:0.5;" width="209" x="932" y="513.06"/><ellipse cx="948.35" cy="529.06" fill="#ADD1B2" rx="11" ry="11" style="stroke:#181818;stroke-width:1.0;"/><path d="M951.3231,534.7031 Q950.7421,535.0019 950.1029,535.1513 Q949.4638,535.3007 948.7582,535.3007 Q946.2514,535.3007 944.9315,533.6489 Q943.6117,531.997 943.6117,528.8759 Q943.6117,525.7465 944.9315,524.0947 Q946.2514,522.4428 948.7582,522.4428 Q949.4638,522.4428 950.1112,522.5922 Q950.7587,522.7416 951.3231,523.0405 L951.3231,525.7631 Q950.6923,525.1821 950.0988,524.9123 Q949.5053,524.6425 948.8744,524.6425 Q947.5297,524.6425 946.8449,525.7092 Q946.1601,526.7758 946.1601,528.8759 Q946.1601,530.9677 946.8449,532.0344 Q947.5297,533.101 948.8744,533.101 Q949.5053,533.101 950.0988,532.8312 Q950.6923,532.5615 951.3231,531.9804 Z " fill="#000000"/><text fill="#000000" font-family="sans-serif" font-size="14" lengthAdjust="spacing" textLength="174" x="962.65" y="534.351">AuthenticationRepository</text><line style="stroke:#181818;stroke-width:0.5;" x1="933" x2="1140" y1="545.06" y2="545.06"/><line style="stroke:#181818;stroke-width:0.5;" x1="933" x2="1140" y1="553.06" y2="553.06"/><text fill="#000000" font-family="sans-serif" font-size="14" lengthAdjust="spacing" textLength="197" x="938" y="570.5952">+getEmployeeFromSession()</text></g><!--class Job--><g id="elem_Job"><rect codeLine="72" fill="#F1F1F1" height="130.4414" id="Job" rx="2.5" ry="2.5" style="stroke:#181818;stroke-width:0.5;" width="314" x="44.5" y="761.72"/><ellipse cx="186.25" cy="777.72" fill="#ADD1B2" rx="11" ry="11" style="stroke:#181818;stroke-width:1.0;"/><path d="M189.2231,783.3631 Q188.6421,783.6619 188.0029,783.8113 Q187.3638,783.9607 186.6582,783.9607 Q184.1514,783.9607 182.8315,782.3089 Q181.5117,780.657 181.5117,777.5359 Q181.5117,774.4065 182.8315,772.7547 Q184.1514,771.1028 186.6582,771.1028 Q187.3638,771.1028 188.0112,771.2522 Q188.6587,771.4016 189.2231,771.7005 L189.2231,774.4231 Q188.5923,773.8421 187.9988,773.5723 Q187.4053,773.3025 186.7744,773.3025 Q185.4297,773.3025 184.7449,774.3692 Q184.0601,775.4358 184.0601,777.5359 Q184.0601,779.6277 184.7449,780.6944 Q185.4297,781.761 186.7744,781.761 Q187.4053,781.761 187.9988,781.4912 Q188.5923,781.2215 189.2231,780.6404 Z " fill="#000000"/><text fill="#000000" font-family="sans-serif" font-size="14" lengthAdjust="spacing" textLength="22" x="206.75" y="783.011">Job</text><line style="stroke:#181818;stroke-width:0.5;" x1="45.5" x2="357.5" y1="793.72" y2="793.72"/><text fill="#000000" font-family="sans-serif" font-size="14" lengthAdjust="spacing" textLength="114" x="50.5" y="811.2552">-jobName:String</text><text fill="#000000" font-family="sans-serif" font-size="14" lengthAdjust="spacing" textLength="153" x="50.5" y="827.7434">-jobDescription:String</text><text fill="#000000" font-family="sans-serif" font-size="14" lengthAdjust="spacing" textLength="127" x="50.5" y="844.2317">-creator:Employee</text><line style="stroke:#181818;stroke-width:0.5;" x1="45.5" x2="357.5" y1="851.1848" y2="851.1848"/><text fill="#000000" font-family="sans-serif" font-size="14" lengthAdjust="spacing" textLength="212" x="50.5" y="868.72">+Job(jobName, jobDescription)</text><text fill="#000000" font-family="sans-serif" font-size="14" lengthAdjust="spacing" textLength="302" x="50.5" y="885.2083">+validateSkillData(jobName, jobDescription)</text></g><!--link CreateJobUI to CreateJobController--><g id="link_CreateJobUI_CreateJobController"><path codeLine="81" d="M807.5,137.89 C807.5,157.29 807.5,172.56 807.5,191.97 " fill="none" id="CreateJobUI-to-CreateJobController" style="stroke:#181818;stroke-width:1.0;stroke-dasharray:7.0,7.0;"/><polygon fill="#181818" points="807.5,197.97,811.5,188.97,807.5,192.97,803.5,188.97,807.5,197.97" style="stroke:#181818;stroke-width:1.0;"/><text fill="#000000" font-family="sans-serif" font-size="13" lengthAdjust="spacing" textLength="8" x="799.0875" y="158.02">1</text><text fill="#000000" font-family="sans-serif" font-size="13" lengthAdjust="spacing" textLength="8" x="799.0625" y="187.5501">1</text></g><!--link CreateJobController to Repositories--><g id="link_CreateJobController_Repositories"><path codeLine="83" d="M763.44,329.17 C741.3,361.59 717.2739,396.7553 692.1539,433.5353 " fill="none" id="CreateJobController-to-Repositories" style="stroke:#181818;stroke-width:1.0;"/><polygon fill="#181818" points="688.77,438.49,697.149,433.3139,691.59,434.3611,690.5428,428.802,688.77,438.49" style="stroke:#181818;stroke-width:1.0;"/><text fill="#000000" font-family="sans-serif" font-size="13" lengthAdjust="spacing" textLength="73" x="741.5" y="372.4484">getInstance</text><text fill="#000000" font-family="sans-serif" font-size="13" lengthAdjust="spacing" textLength="8" x="750.4838" y="349.2835">1</text><text fill="#000000" font-family="sans-serif" font-size="13" lengthAdjust="spacing" textLength="8" x="685.5702" y="428.0318">1</text></g><!--link Repositories to JobRepository--><g id="link_Repositories_JobRepository"><path codeLine="85" d="M683.04,652.02 C710.29,695.33 737.2848,738.2015 759.0348,772.7715 " fill="none" id="Repositories-to-JobRepository" style="stroke:#181818;stroke-width:1.0;stroke-dasharray:7.0,7.0;"/><polygon fill="#181818" points="762.23,777.85,760.8229,768.1022,759.5674,773.6179,754.0516,772.3624,762.23,777.85" style="stroke:#181818;stroke-width:1.0;"/><text fill="#000000" font-family="sans-serif" font-size="13" lengthAdjust="spacing" textLength="38" x="732.5" y="728.2884">create</text><text fill="#000000" font-family="sans-serif" font-size="13" lengthAdjust="spacing" textLength="8" x="679.2419" y="672.2729">1</text><text fill="#000000" font-family="sans-serif" font-size="13" lengthAdjust="spacing" textLength="8" x="749.4108" y="767.4819">1</text></g><!--link CreateJobController to Employee--><g id="link_CreateJobController_Employee"><path codeLine="87" d="M627.22,329.28 C523.47,366.46 413.5,405.88 413.5,405.88 C413.5,405.88 411.9743,406.8803 401.1743,413.9303 " fill="none" id="CreateJobController-to-Employee" style="stroke:#181818;stroke-width:1.0;"/><polygon fill="#181818" points="396.15,417.21,405.8729,415.6399,400.3369,414.4769,401.4999,408.9409,396.15,417.21" style="stroke:#181818;stroke-width:1.0;"/><text fill="#000000" font-family="sans-serif" font-size="13" lengthAdjust="spacing" textLength="58" x="542.5" y="372.4484">createJob</text></g><!--link CreateJobController to AuthenticationRepository--><g id="link_CreateJobController_AuthenticationRepository"><path codeLine="88" d="M869.27,329.33 C884.98,345.77 897.5,358.88 897.5,358.88 C897.5,358.88 969.6609,455.1493 1009.3209,508.0493 " fill="none" id="CreateJobController-to-AuthenticationRepository" style="stroke:#181818;stroke-width:1.0;"/><polygon fill="#181818" points="1012.92,512.85,1010.7217,503.2496,1009.9207,508.8495,1004.3209,508.0484,1012.92,512.85" style="stroke:#181818;stroke-width:1.0;"/><text fill="#000000" font-family="sans-serif" font-size="13" lengthAdjust="spacing" textLength="143" x="910.5" y="372.4484">getCurrentUserSession</text><text fill="#000000" font-family="sans-serif" font-size="13" lengthAdjust="spacing" textLength="8" x="867.2275" y="349.46">1</text><text fill="#000000" font-family="sans-serif" font-size="13" lengthAdjust="spacing" textLength="8" x="999.2316" y="502.2098">1</text></g><!--link Employee to Job--><g id="link_Employee_Job"><path codeLine="90" d="M185.85,685 C183.86,702.66 182.5,714.72 182.5,714.72 C182.5,714.72 182.5,731.72 182.5,731.72 C182.5,731.72 183.9523,738.9487 187.2723,755.3887 " fill="none" id="Employee-to-Job" style="stroke:#181818;stroke-width:1.0;stroke-dasharray:7.0,7.0;"/><polygon fill="#181818" points="188.46,761.27,190.5993,751.6563,187.4702,756.3689,182.7576,753.2399,188.46,761.27" style="stroke:#181818;stroke-width:1.0;"/><text fill="#000000" font-family="sans-serif" font-size="13" lengthAdjust="spacing" textLength="4" x="183.5" y="728.2884">.</text></g><!--link Employee to Job--><g id="link_Employee_Job"><path codeLine="92" d="M201.5,684.89 C201.5,711.67 201.5,732.51 201.5,755.48 " fill="none" id="Employee-to-Job-1" style="stroke:#181818;stroke-width:1.0;"/><polygon fill="#181818" points="201.5,761.48,205.5,752.48,201.5,756.48,197.5,752.48,201.5,761.48" style="stroke:#181818;stroke-width:1.0;"/><text fill="#000000" font-family="sans-serif" font-size="13" lengthAdjust="spacing" textLength="33" x="202.5" y="728.2884">has a</text><text fill="#000000" font-family="sans-serif" font-size="13" lengthAdjust="spacing" textLength="8" x="193.2813" y="705.5109">1</text><text fill="#000000" font-family="sans-serif" font-size="13" lengthAdjust="spacing" textLength="8" x="193.0625" y="751.0853">1</text></g><!--link CreateJobController to JobRepository--><g id="link_CreateJobController_JobRepository"><path codeLine="94" d="M818.48,329.33 C821.27,345.77 823.5,358.88 823.5,358.88 C823.5,358.88 823.5,375.88 823.5,375.88 C823.5,375.88 819.5,684.72 819.5,684.72 C819.5,684.72 810.6665,730.9267 802.8465,771.8367 " fill="none" id="CreateJobController-to-JobRepository" style="stroke:#181818;stroke-width:1.0;"/><polygon fill="#181818" points="801.72,777.73,807.3386,769.6411,802.6588,772.8189,799.4809,768.139,801.72,777.73" style="stroke:#181818;stroke-width:1.0;"/><text fill="#000000" font-family="sans-serif" font-size="13" lengthAdjust="spacing" textLength="23" x="824.5" y="550.3684">add</text></g><!--SRC=[fLJ1Rjim3BthAuHUcY9fiLrz6D0r7P1Ww8PblUr2ssoYLPOyIMwR5VltKPRiI4tI3bWlgVaUoKTIvAcz5we50mrljDBLnkW6kJCTiXtIGdKFQrovhKHki7AWrZ8bs0tK-b6eDRy3QLD42eLkso9ljTpw3tPw0DJ6QPPuLHAilNJEYB9pkAYqMedVoDynTYhnpd6dkH7hZUEry7A4LeprFlpA83XSwl9AAsUqb6ZuC-FqT_vJbz-mrLOuRRR5ClqA1EZS1fKJ5VY82VVo2C1OS5oZksvQgRU8dwX_AxIMU9Ep7fqUqZJ9n0p4QY1w-0OQd77wPuwsCgBrgSyO-yFsIhrTn1AdfXkp6lpLeNLpS70yMi-qNTc8GCnzbnbx7_GnoRfJD3GXDbmHNgneY6eT3AKmRbEJw8AoOMnwtOY-NVENzjfG7yD7eqiXqRSFAfU5n0Q4F0GivhMkljFZUc5LNLEYoOmEdcxshTGh_qZ2YAT3QNmIE5pHdim-wmgarynzLL_kFle2Pp_KpfwLD-FHkT46QfXneUWjeyH6Fw0almZtHOraKSz39O4VomgAoQUF0KzVOOjcKKVpu4klZToe33_wVbHXKkFR4sZZj2YufSMki4Z1YBsvE__0mDZ2X7QzP_g_JPnoMiL5h6FSFxAjxeMKEteAPL9JO5zSYXvJCacwd8L-pbBQCTO3I567HROJXOzBFwW0qGxuOp0OnxZ7SZ_lYy_lKQeiEOitBnSrlnCPrDyeRSRHnSQ_UhHwnb1dFuhNpnB9J8_RoViJVd7neVyzS4iJSdBqFVdyF3Yb3veNwHjXBCFIJDdmo2iSvyF9VABnGXIxE_wcicEJ32glEcC8lRLeuWmP6zEGJZ_5WbyanZHsG3TWEHnNdLLP-1V7s5y0]--></g></svg>