<?xml version="1.0" encoding="us-ascii" standalone="no"?><svg xmlns="http://www.w3.org/2000/svg" xmlns:xlink="http://www.w3.org/1999/xlink" contentStyleType="text/css" height="1022px" preserveAspectRatio="none" style="width:566px;height:1022px;background:#FFFFFF;" version="1.1" viewBox="0 0 566 1022" width="566px" zoomAndPan="magnify"><defs/><g><text fill="#000000" font-family="sans-serif" font-size="14" font-weight="bold" lengthAdjust="spacing" textLength="105" x="223.5008" y="23.5352">Domain Model</text><!--class Collaborator--><g id="elem_Collaborator"><rect codeLine="13" fill="#F1F1F1" height="232.3477" id="Collaborator" rx="2.5" ry="2.5" style="stroke:#181818;stroke-width:0.5;" width="113" x="339.5016" y="283.9483"/><text fill="#000000" font-family="sans-serif" font-size="14" lengthAdjust="spacing" textLength="87" x="352.5016" y="302.4834">Collaborator</text><line style="stroke:#181818;stroke-width:0.5;" x1="340.5016" x2="451.5016" y1="310.4366" y2="310.4366"/><text fill="#000000" font-family="sans-serif" font-size="14" lengthAdjust="spacing" textLength="38" x="345.5016" y="327.9717">name</text><text fill="#000000" font-family="sans-serif" font-size="14" lengthAdjust="spacing" textLength="63" x="345.5016" y="344.46">birthdate</text><text fill="#000000" font-family="sans-serif" font-size="14" lengthAdjust="spacing" textLength="101" x="345.5016" y="360.9483">admissionDate</text><text fill="#000000" font-family="sans-serif" font-size="14" lengthAdjust="spacing" textLength="54" x="345.5016" y="377.4366">address</text><text fill="#000000" font-family="sans-serif" font-size="14" lengthAdjust="spacing" textLength="100" x="345.5016" y="393.9248">mobileContact</text><text fill="#000000" font-family="sans-serif" font-size="14" lengthAdjust="spacing" textLength="90" x="345.5016" y="410.4131">emailContact</text><text fill="#000000" font-family="sans-serif" font-size="14" lengthAdjust="spacing" textLength="72" x="345.5016" y="426.9014">IDdocType</text><text fill="#000000" font-family="sans-serif" font-size="14" lengthAdjust="spacing" textLength="68" x="345.5016" y="443.3897">IDnumber</text><text fill="#000000" font-family="sans-serif" font-size="14" lengthAdjust="spacing" textLength="77" x="345.5016" y="459.878">taxNumber</text><text fill="#000000" font-family="sans-serif" font-size="14" lengthAdjust="spacing" textLength="22" x="345.5016" y="476.3662">job</text><text fill="#000000" font-family="sans-serif" font-size="14" lengthAdjust="spacing" textLength="34" x="345.5016" y="492.8545">skills</text><text fill="#000000" font-family="sans-serif" font-size="14" lengthAdjust="spacing" textLength="100" x="345.5016" y="509.3428">assignedTasks</text></g><!--class Manager--><g id="elem_Manager"><rect codeLine="29" fill="#F1F1F1" height="50.9766" id="Manager" rx="2.5" ry="2.5" style="stroke:#181818;stroke-width:0.5;" width="66" x="254.0016" y="155.9783"/><text fill="#000000" font-family="sans-serif" font-size="14" lengthAdjust="spacing" textLength="60" x="257.0016" y="174.5134">Manager</text><line style="stroke:#181818;stroke-width:0.5;" x1="255.0016" x2="319.0016" y1="182.4666" y2="182.4666"/><text fill="#000000" font-family="sans-serif" font-size="14" lengthAdjust="spacing" textLength="49" x="260.0016" y="200.0017">section</text></g><!--class HumanResourcesManager--><g id="elem_HumanResourcesManager"><rect codeLine="33" fill="#F1F1F1" height="34.4883" id="HumanResourcesManager" rx="2.5" ry="2.5" style="stroke:#181818;stroke-width:0.5;" width="185" x="296.5016" y="44.4883"/><text fill="#000000" font-family="sans-serif" font-size="14" lengthAdjust="spacing" textLength="179" x="299.5016" y="63.0234">HumanResourcesManager</text><line style="stroke:#181818;stroke-width:0.5;" x1="297.5016" x2="480.5016" y1="70.9766" y2="70.9766"/></g><!--class GreenSpacesManager--><g id="elem_GreenSpacesManager"><rect codeLine="37" fill="#F1F1F1" height="34.4883" id="GreenSpacesManager" rx="2.5" ry="2.5" style="stroke:#181818;stroke-width:0.5;" width="154" x="108.0016" y="44.4883"/><text fill="#000000" font-family="sans-serif" font-size="14" lengthAdjust="spacing" textLength="148" x="111.0016" y="63.0234">GreenSpacesManager</text><line style="stroke:#181818;stroke-width:0.5;" x1="109.0016" x2="261.0016" y1="70.9766" y2="70.9766"/></g><!--class Agenda--><g id="elem_Agenda"><rect codeLine="46" fill="#F1F1F1" height="50.9766" id="Agenda" rx="2.5" ry="2.5" style="stroke:#181818;stroke-width:0.5;" width="107" x="118.5016" y="618.0283"/><text fill="#000000" font-family="sans-serif" font-size="14" lengthAdjust="spacing" textLength="53" x="145.5016" y="636.5634">Agenda</text><line style="stroke:#181818;stroke-width:0.5;" x1="119.5016" x2="224.5016" y1="644.5166" y2="644.5166"/><text fill="#000000" font-family="sans-serif" font-size="14" lengthAdjust="spacing" textLength="95" x="124.5016" y="662.0517">plannedTasks</text></g><!--class Task--><g id="elem_Task"><rect codeLine="51" fill="#F1F1F1" height="116.9297" id="Task" rx="2.5" ry="2.5" style="stroke:#181818;stroke-width:0.5;" width="118" x="250.0016" y="770.7383"/><text fill="#000000" font-family="sans-serif" font-size="14" lengthAdjust="spacing" textLength="32" x="293.0016" y="789.2734">Task</text><line style="stroke:#181818;stroke-width:0.5;" x1="251.0016" x2="367.0016" y1="797.2266" y2="797.2266"/><text fill="#000000" font-family="sans-serif" font-size="14" lengthAdjust="spacing" textLength="31" x="256.0016" y="814.7617">park</text><text fill="#000000" font-family="sans-serif" font-size="14" lengthAdjust="spacing" textLength="61" x="256.0016" y="831.25">taskType</text><text fill="#000000" font-family="sans-serif" font-size="14" lengthAdjust="spacing" textLength="106" x="256.0016" y="847.7383">taskDescription</text><text fill="#000000" font-family="sans-serif" font-size="14" lengthAdjust="spacing" textLength="50" x="256.0016" y="864.2266">priority</text><text fill="#000000" font-family="sans-serif" font-size="14" lengthAdjust="spacing" textLength="41" x="256.0016" y="880.7148">status</text></g><!--class ToDoList--><g id="elem_ToDoList"><rect codeLine="60" fill="#F1F1F1" height="50.9766" id="ToDoList" rx="2.5" ry="2.5" style="stroke:#181818;stroke-width:0.5;" width="108" x="47.0016" y="964.6683"/><text fill="#000000" font-family="sans-serif" font-size="14" lengthAdjust="spacing" textLength="60" x="71.0016" y="983.2034">ToDoList</text><line style="stroke:#181818;stroke-width:0.5;" x1="48.0016" x2="154.0016" y1="991.1566" y2="991.1566"/><text fill="#000000" font-family="sans-serif" font-size="14" lengthAdjust="spacing" textLength="96" x="53.0016" y="1008.6917">pendingTasks</text></g><!--class Team--><g id="elem_Team"><rect codeLine="64" fill="#F1F1F1" height="100.4414" id="Team" rx="2.5" ry="2.5" style="stroke:#181818;stroke-width:0.5;" width="143" x="339.5016" y="593.2983"/><text fill="#000000" font-family="sans-serif" font-size="14" lengthAdjust="spacing" textLength="38" x="392.0016" y="611.8334">Team</text><line style="stroke:#181818;stroke-width:0.5;" x1="340.5016" x2="481.5016" y1="619.7866" y2="619.7866"/><text fill="#000000" font-family="sans-serif" font-size="14" lengthAdjust="spacing" textLength="127" x="345.5016" y="637.3217">minimumElements</text><text fill="#000000" font-family="sans-serif" font-size="14" lengthAdjust="spacing" textLength="131" x="345.5016" y="653.81">maximumElements</text><text fill="#000000" font-family="sans-serif" font-size="14" lengthAdjust="spacing" textLength="96" x="345.5016" y="670.2983">skillsRequired</text><text fill="#000000" font-family="sans-serif" font-size="14" lengthAdjust="spacing" textLength="97" x="345.5016" y="686.7866">teamMembers</text></g><!--link Manager to Collaborator--><g id="link_Manager_Collaborator"><path codeLine="75" d="M299.5016,207.3183 C309.4616,227.1083 324.1516,256.3183 339.0916,286.0083 " fill="none" id="Manager-Collaborator" style="stroke:#181818;stroke-width:1.0;"/><polygon fill="#000000" points="329.2488,250.0701,327.809,240.6692,322.5582,243.3109,329.2488,250.0701" style="stroke:#000000;stroke-width:1.0;"/><text fill="#000000" font-family="sans-serif" font-size="13" lengthAdjust="spacing" textLength="55" x="336.0016" y="250.5166">registers</text><text fill="#000000" font-family="sans-serif" font-size="13" lengthAdjust="spacing" textLength="8" x="293.4672" y="227.6351">1</text><text fill="#000000" font-family="sans-serif" font-size="13" lengthAdjust="spacing" textLength="22" x="311.2556" y="273.1388">1..*</text></g><!--link Manager to Agenda--><g id="link_Manager_Agenda"><path codeLine="76" d="M263.2716,207.2883 C234.5516,237.3383 190.0016,283.9483 190.0016,283.9483 C190.0016,283.9483 177.3316,536.2783 173.2516,617.5883 " fill="none" id="Manager-Agenda" style="stroke:#181818;stroke-width:1.0;"/><polygon fill="#000000" points="193.9301,405.1674,198.7391,396.9623,192.9978,395.7026,193.9301,405.1674" style="stroke:#000000;stroke-width:1.0;"/><text fill="#000000" font-family="sans-serif" font-size="13" lengthAdjust="spacing" textLength="56" x="204.0016" y="405.1966">manages</text><text fill="#000000" font-family="sans-serif" font-size="13" lengthAdjust="spacing" textLength="8" x="248.859" y="227.5982">1</text><text fill="#000000" font-family="sans-serif" font-size="13" lengthAdjust="spacing" textLength="8" x="164.6157" y="607.4623">1</text></g><!--link Manager to ToDoList--><g id="link_Manager_ToDoList"><path codeLine="77" d="M253.8916,206.5183 C233.7916,221.1183 212.0016,236.9483 212.0016,236.9483 C212.0016,236.9483 13.0016,399.1283 13.0016,399.1283 C13.0016,399.1283 13.0016,399.1283 13.0016,830.2083 C13.0016,830.2083 62.5016,919.6183 87.2516,964.3283 " fill="none" id="Manager-ToDoList" style="stroke:#181818;stroke-width:1.0;"/><polygon fill="#000000" points="16.9278,648.5569,21.7407,640.354,16,639.0917,16.9278,648.5569" style="stroke:#000000;stroke-width:1.0;"/><text fill="#000000" font-family="sans-serif" font-size="13" lengthAdjust="spacing" textLength="56" x="27.0016" y="648.5866">manages</text><text fill="#000000" font-family="sans-serif" font-size="13" lengthAdjust="spacing" textLength="8" x="237.7738" y="207.96">1</text><text fill="#000000" font-family="sans-serif" font-size="13" lengthAdjust="spacing" textLength="6" x="77.1688" y="953.8107">*</text></g><!--link Manager to Task--><g id="link_Manager_Task"><path codeLine="78" d="M287.8516,207.3783 C291.0516,301.1983 302.4116,634.6583 307.0316,770.2483 " fill="none" id="Manager-Task" style="stroke:#181818;stroke-width:1.0;"/><polygon fill="#000000" points="305.1719,559.9507,307.8011,550.8107,301.9266,551.0109,305.1719,559.9507" style="stroke:#000000;stroke-width:1.0;"/><text fill="#000000" font-family="sans-serif" font-size="13" lengthAdjust="spacing" textLength="45" x="314.0016" y="559.8666">creates</text><text fill="#000000" font-family="sans-serif" font-size="13" lengthAdjust="spacing" textLength="8" x="279.1232" y="227.709">1</text><text fill="#000000" font-family="sans-serif" font-size="13" lengthAdjust="spacing" textLength="6" x="300.4569" y="760.1508">*</text></g><!--link Manager to Team--><g id="link_Manager_Team"><path codeLine="79" d="M320.2916,198.5183 C353.6216,214.5883 400.0016,236.9483 400.0016,236.9483 C400.0016,236.9483 470.0016,283.9483 470.0016,283.9483 C470.0016,283.9483 491.0016,546.2983 491.0016,546.2983 C491.0016,546.2983 491.0016,563.2983 491.0016,563.2983 C491.0016,563.2983 477.0216,577.1383 460.7616,593.2483 " fill="none" id="Manager-Team" style="stroke:#181818;stroke-width:1.0;"/><polygon fill="#000000" points="494.6779,404.9942,494.4142,395.4873,488.8766,397.4579,494.6779,404.9942" style="stroke:#000000;stroke-width:1.0;"/><text fill="#000000" font-family="sans-serif" font-size="13" lengthAdjust="spacing" textLength="56" x="502.0016" y="405.1966">manages</text><text fill="#000000" font-family="sans-serif" font-size="13" lengthAdjust="spacing" textLength="8" x="327.9827" y="198.0887">1</text><text fill="#000000" font-family="sans-serif" font-size="13" lengthAdjust="spacing" textLength="6" x="461.3372" y="582.7145">*</text></g><!--link HumanResourcesManager to Manager--><g id="link_HumanResourcesManager_Manager"><path codeLine="80" d="M374.6016,79.3483 C357.3616,99.2583 328.3216,132.7783 308.4316,155.7283 " fill="none" id="HumanResourcesManager-Manager" style="stroke:#181818;stroke-width:1.0;"/><polygon fill="#000000" points="355.2755,113.8545,347.1317,118.7665,351.5742,122.6153,355.2755,113.8545" style="stroke:#000000;stroke-width:1.0;"/><text fill="#000000" font-family="sans-serif" font-size="13" lengthAdjust="spacing" textLength="22" x="361.0016" y="122.5466">is a</text><text fill="#000000" font-family="sans-serif" font-size="13" lengthAdjust="spacing" textLength="22" x="344.8229" y="99.6559">1..*</text><text fill="#000000" font-family="sans-serif" font-size="13" lengthAdjust="spacing" textLength="8" x="304.6802" y="145.2327">1</text></g><!--link GreenSpacesManager to Manager--><g id="link_GreenSpacesManager_Manager"><path codeLine="81" d="M199.4016,79.3483 C216.6416,99.2583 245.6816,132.7783 265.5716,155.7283 " fill="none" id="GreenSpacesManager-Manager" style="stroke:#181818;stroke-width:1.0;"/><polygon fill="#000000" points="241.7277,113.8545,245.429,122.6153,249.8715,118.7665,241.7277,113.8545" style="stroke:#000000;stroke-width:1.0;"/><text fill="#000000" font-family="sans-serif" font-size="13" lengthAdjust="spacing" textLength="22" x="254.0016" y="122.5466">is a</text><text fill="#000000" font-family="sans-serif" font-size="13" lengthAdjust="spacing" textLength="22" x="178.4429" y="99.6559">1..*</text><text fill="#000000" font-family="sans-serif" font-size="13" lengthAdjust="spacing" textLength="8" x="251.373" y="145.2327">1</text></g><!--link Agenda to ToDoList--><g id="link_Agenda_ToDoList"><path codeLine="83" d="M161.3316,669.4583 C145.5916,706.2383 118.0016,770.7383 118.0016,770.7383 C118.0016,770.7383 107.3616,907.4083 102.9216,964.5283 " fill="none" id="Agenda-ToDoList" style="stroke:#181818;stroke-width:1.0;"/><polygon fill="#000000" points="122.0307,834.2684,126.6701,825.9662,120.9041,824.8248,122.0307,834.2684" style="stroke:#000000;stroke-width:1.0;"/><text fill="#000000" font-family="sans-serif" font-size="13" lengthAdjust="spacing" textLength="99" x="132.0016" y="834.2766">gets tasks from</text><text fill="#000000" font-family="sans-serif" font-size="13" lengthAdjust="spacing" textLength="8" x="150.1225" y="689.376">1</text><text fill="#000000" font-family="sans-serif" font-size="13" lengthAdjust="spacing" textLength="6" x="96.6584" y="954.0595">*</text></g><!--link Agenda to Task--><g id="link_Agenda_Task"><path codeLine="84" d="M185.3916,669.2983 C200.8016,697.8083 224.0016,740.7383 224.0016,740.7383 C224.0016,740.7383 236.9716,754.0883 252.7816,770.3583 " fill="none" id="Agenda-Task" style="stroke:#181818;stroke-width:1.0;"/><polygon fill="#000000" points="231.7756,736.5535,229.2026,727.3976,224.3123,730.6586,231.7756,736.5535" style="stroke:#000000;stroke-width:1.0;"/><text fill="#000000" font-family="sans-serif" font-size="13" lengthAdjust="spacing" textLength="22" x="238.0016" y="737.3066">has</text><text fill="#000000" font-family="sans-serif" font-size="13" lengthAdjust="spacing" textLength="8" x="179.563" y="689.5989">1</text><text fill="#000000" font-family="sans-serif" font-size="13" lengthAdjust="spacing" textLength="6" x="239.5642" y="759.8598">*</text></g><!--link Task to ToDoList--><g id="link_Task_ToDoList"><path codeLine="85" d="M249.6716,875.5483 C211.9716,904.3583 164.5916,940.5583 133.5916,964.2583 " fill="none" id="Task-ToDoList" style="stroke:#181818;stroke-width:1.0;"/><polygon fill="#000000" points="201.9743,923.2875,193.0031,926.4446,196.5721,931.1149,201.9743,923.2875" style="stroke:#000000;stroke-width:1.0;"/><text fill="#000000" font-family="sans-serif" font-size="13" lengthAdjust="spacing" textLength="22" x="207.0016" y="931.2366">has</text><text fill="#000000" font-family="sans-serif" font-size="13" lengthAdjust="spacing" textLength="22" x="219.9793" y="877.3823">1..*</text><text fill="#000000" font-family="sans-serif" font-size="13" lengthAdjust="spacing" textLength="22" x="116.8542" y="953.7237">1..*</text></g><!--link Team to Task--><g id="link_Team_Task"><path codeLine="87" d="M383.4016,694.2283 C370.3616,717.7083 354.7116,745.8783 341.1416,770.3183 " fill="none" id="Team-Task" style="stroke:#181818;stroke-width:1.0;"/><polygon fill="#000000" points="368.5739,736.7646,375.5349,730.2842,370.3964,727.4303,368.5739,736.7646" style="stroke:#000000;stroke-width:1.0;"/><text fill="#000000" font-family="sans-serif" font-size="13" lengthAdjust="spacing" textLength="56" x="380.0016" y="737.3066">carry out</text><text fill="#000000" font-family="sans-serif" font-size="13" lengthAdjust="spacing" textLength="8" x="371.3529" y="714.2746">1</text><text fill="#000000" font-family="sans-serif" font-size="13" lengthAdjust="spacing" textLength="8" x="336.5712" y="759.8149">1</text></g><!--link Collaborator to Team--><g id="link_Collaborator_Team"><path codeLine="89" d="M403.1716,516.5183 C404.8416,543.4283 406.5416,570.6983 407.9216,592.9483 " fill="none" id="Collaborator-Team" style="stroke:#181818;stroke-width:1.0;"/><polygon fill="#000000" points="410.3117,559.9439,412.684,550.734,406.8174,551.0986,410.3117,559.9439" style="stroke:#000000;stroke-width:1.0;"/><text fill="#000000" font-family="sans-serif" font-size="13" lengthAdjust="spacing" textLength="63" x="419.0016" y="559.8666">integrates</text><text fill="#000000" font-family="sans-serif" font-size="13" lengthAdjust="spacing" textLength="22" x="380.9262" y="537.0337">1..*</text><text fill="#000000" font-family="sans-serif" font-size="13" lengthAdjust="spacing" textLength="8" x="398.9702" y="582.7343">1</text></g><!--SRC=[XLHDRzim3BthLmYv51ZGOhi6mu2Y6RO2omvD_W1jiJONVNWIZJKR-jz7otBiDkdcYqNnYNplYVPLEf3l88BJBlXGjp4ur1nxL7EcW_e03UxuQ557h1byOvU0r889lyWt-X5iMcOiUUHZXxeBzZW4wihY8siEEbBJiZOq5AJW5uTg2odTCaUgUiRxElWT_KRzNhLaKDSKQ-cUrmwv3IOfnSJ2RHCSaDVROD0gfN8TVHUiXIf4u13r7wNbyU0mBogAt1hWCGBZA2NXifbtJCIKyjg5YYpU1SzGSzv1wMQN6_SR4-gzo2sHxrs5CGSCJz_dw4UeybiqMpkM5whKU3HxI0SHz3pHtu8NxoVcgPXrId_j7VW7JA6FDQOPF2E-H4I_apjydSxFYBbjq1ieFJeB_aJa-OGPuWa1yL1KfSD9xn1iCDMHkimn8oE5I7mSoJDmlzIs3vlmZHANgi91PkZKjs1G9c84EFBaUlVPeaFFvLRWwMnlTFK1V_OoN6Ra9bMsEFYV9kcJ6QiFAtrzBQ-RctUh5zEobc5lX9uSqf_EyQjYsrf83AbB8AauYVmVJ6IlTHrHPkyjY8XukqhVJHekpiHQKzBmZrFdSt8weifyN5JL8ATyzqa_ojz3u1VGMLmB0-iyHwNdxFjSRq1zL2hV-yBhuW_4UDIXvu7LYozxMN6oYZnZ4ukXIlq5]--></g></svg>