<?xml version="1.0" encoding="us-ascii" standalone="no"?><svg xmlns="http://www.w3.org/2000/svg" xmlns:xlink="http://www.w3.org/1999/xlink" contentStyleType="text/css" height="1163px" preserveAspectRatio="none" style="width:2921px;height:1163px;background:#FFFFFF;" version="1.1" viewBox="0 0 2921 1163" width="2921px" zoomAndPan="magnify"><defs/><g><rect fill="#FFFFFF" height="969.0605" style="stroke:#181818;stroke-width:1.0;" width="10" x="87.5" y="93.6211"/><rect fill="#FFFFFF" height="325.2402" style="stroke:#181818;stroke-width:1.0;" width="10" x="762.5" y="116.9121"/><rect fill="#FFFFFF" height="294.6191" style="stroke:#181818;stroke-width:1.0;" width="10" x="762.5" y="473.4434"/><rect fill="#FFFFFF" height="31.291" style="stroke:#181818;stroke-width:1.0;" width="10" x="762.5" y="1031.3906"/><rect fill="#FFFFFF" height="873.1875" style="stroke:#181818;stroke-width:1.0;" width="10" x="1481.5" y="158.2031"/><rect fill="#FFFFFF" height="31.291" style="stroke:#181818;stroke-width:1.0;" width="10" x="1634" y="191.8242"/><rect fill="#FFFFFF" height="31.291" style="stroke:#181818;stroke-width:1.0;" width="10" x="1741" y="254.4063"/><rect fill="#FFFFFF" height="67.582" style="stroke:#181818;stroke-width:1.0;" width="10" x="1741" y="512.7344"/><rect fill="#FFFFFF" height="75.582" style="stroke:#181818;stroke-width:1.0;" width="10" x="1873" y="924.5176"/><rect fill="#FFFFFF" height="31.291" style="stroke:#181818;stroke-width:1.0;" width="10" x="2105" y="611.6074"/><rect fill="#FFFFFF" height="125.1641" style="stroke:#181818;stroke-width:1.0;" width="10" x="2216.5" y="285.6973"/><rect fill="#FFFFFF" height="125.1641" style="stroke:#181818;stroke-width:1.0;" width="10" x="2216.5" y="768.0625"/><rect fill="#FFFFFF" height="93.873" style="stroke:#181818;stroke-width:1.0;" width="10" x="2870.5" y="316.9883"/><rect fill="#FFFFFF" height="31.291" style="stroke:#181818;stroke-width:1.0;" width="10" x="2870.5" y="830.6445"/><line style="stroke:#181818;stroke-width:0.5;stroke-dasharray:5.0,5.0;" x1="92" x2="92" y1="83.6211" y2="1080.6816"/><line style="stroke:#181818;stroke-width:0.5;stroke-dasharray:5.0,5.0;" x1="767.5" x2="767.5" y1="83.6211" y2="1080.6816"/><line style="stroke:#181818;stroke-width:0.5;stroke-dasharray:5.0,5.0;" x1="1486.5" x2="1486.5" y1="156.7227" y2="1080.6816"/><line style="stroke:#181818;stroke-width:0.5;stroke-dasharray:5.0,5.0;" x1="1638.5" x2="1638.5" y1="83.6211" y2="1080.6816"/><line style="stroke:#181818;stroke-width:0.5;stroke-dasharray:5.0,5.0;" x1="1745.5" x2="1745.5" y1="83.6211" y2="1080.6816"/><line style="stroke:#181818;stroke-width:0.5;stroke-dasharray:5.0,5.0;" x1="1877.5" x2="1877.5" y1="83.6211" y2="1080.6816"/><line style="stroke:#181818;stroke-width:0.5;stroke-dasharray:5.0,5.0;" x1="2109.5" x2="2109.5" y1="83.6211" y2="1080.6816"/><line style="stroke:#181818;stroke-width:0.5;stroke-dasharray:5.0,5.0;" x1="2221.5" x2="2221.5" y1="83.6211" y2="1080.6816"/><line style="stroke:#181818;stroke-width:0.5;stroke-dasharray:5.0,5.0;" x1="2875.5" x2="2875.5" y1="83.6211" y2="1080.6816"/><text fill="#000000" font-family="sans-serif" font-size="14" lengthAdjust="spacing" textLength="169" x="5" y="80.1074">Human Resource Manager</text><ellipse cx="92.5" cy="13.5" fill="#E3E3E3" rx="8" ry="8" style="stroke:#181818;stroke-width:0.5;"/><path d="M92.5,21.5 L92.5,48.5 M79.5,29.5 L105.5,29.5 M92.5,48.5 L79.5,63.5 M92.5,48.5 L105.5,63.5 " fill="none" style="stroke:#181818;stroke-width:0.5;"/><text fill="#000000" font-family="sans-serif" font-size="14" lengthAdjust="spacing" textLength="169" x="5" y="1094.7891">Human Resource Manager</text><ellipse cx="92.5" cy="1106.8027" fill="#E3E3E3" rx="8" ry="8" style="stroke:#181818;stroke-width:0.5;"/><path d="M92.5,1114.8027 L92.5,1141.8027 M79.5,1122.8027 L105.5,1122.8027 M92.5,1141.8027 L79.5,1156.8027 M92.5,1141.8027 L105.5,1156.8027 " fill="none" style="stroke:#181818;stroke-width:0.5;"/><rect fill="#E3E3E3" height="32.6211" rx="2.5" ry="2.5" style="stroke:#181818;stroke-width:0.5;" width="138" x="698.5" y="50"/><text fill="#000000" font-family="sans-serif" font-size="14" lengthAdjust="spacing" textLength="124" x="705.5" y="72.1074">:CreateEmployeelUI</text><rect fill="#E3E3E3" height="32.6211" rx="2.5" ry="2.5" style="stroke:#181818;stroke-width:0.5;" width="138" x="698.5" y="1079.6816"/><text fill="#000000" font-family="sans-serif" font-size="14" lengthAdjust="spacing" textLength="124" x="705.5" y="1101.7891">:CreateEmployeelUI</text><rect fill="#E3E3E3" height="32.6211" rx="2.5" ry="2.5" style="stroke:#181818;stroke-width:0.5;" width="188" x="1392.5" y="1079.6816"/><text fill="#000000" font-family="sans-serif" font-size="14" lengthAdjust="spacing" textLength="174" x="1399.5" y="1101.7891">:CreateEmployeelController</text><rect fill="#E3E3E3" height="32.6211" rx="2.5" ry="2.5" style="stroke:#181818;stroke-width:0.5;" width="97" x="1590.5" y="50"/><text fill="#000000" font-family="sans-serif" font-size="14" lengthAdjust="spacing" textLength="83" x="1597.5" y="72.1074">:Repositories</text><rect fill="#E3E3E3" height="32.6211" rx="2.5" ry="2.5" style="stroke:#181818;stroke-width:0.5;" width="97" x="1590.5" y="1079.6816"/><text fill="#000000" font-family="sans-serif" font-size="14" lengthAdjust="spacing" textLength="83" x="1597.5" y="1101.7891">:Repositories</text><rect fill="#E3E3E3" height="51.2422" rx="2.5" ry="2.5" style="stroke:#181818;stroke-width:0.5;" width="97" x="1697.5" y="31.3789"/><text fill="#000000" font-family="sans-serif" font-size="14" lengthAdjust="spacing" textLength="74" x="1709" y="53.4863">repositories</text><text fill="#000000" font-family="sans-serif" font-size="14" lengthAdjust="spacing" textLength="83" x="1704.5" y="72.1074">:Repositories</text><rect fill="#E3E3E3" height="51.2422" rx="2.5" ry="2.5" style="stroke:#181818;stroke-width:0.5;" width="97" x="1697.5" y="1079.6816"/><text fill="#000000" font-family="sans-serif" font-size="14" lengthAdjust="spacing" textLength="74" x="1709" y="1101.7891">repositories</text><text fill="#000000" font-family="sans-serif" font-size="14" lengthAdjust="spacing" textLength="83" x="1704.5" y="1120.4102">:Repositories</text><rect fill="#E3E3E3" height="51.2422" rx="2.5" ry="2.5" style="stroke:#181818;stroke-width:0.5;" width="147" x="1804.5" y="31.3789"/><text fill="#000000" font-family="sans-serif" font-size="14" lengthAdjust="spacing" textLength="133" x="1811.5" y="53.4863">employeeRepository:</text><text fill="#000000" font-family="sans-serif" font-size="14" lengthAdjust="spacing" textLength="130" x="1813" y="72.1074">EmployeeRepository</text><rect fill="#E3E3E3" height="51.2422" rx="2.5" ry="2.5" style="stroke:#181818;stroke-width:0.5;" width="147" x="1804.5" y="1079.6816"/><text fill="#000000" font-family="sans-serif" font-size="14" lengthAdjust="spacing" textLength="133" x="1811.5" y="1101.7891">employeeRepository:</text><text fill="#000000" font-family="sans-serif" font-size="14" lengthAdjust="spacing" textLength="130" x="1813" y="1120.4102">EmployeeRepository</text><rect fill="#E3E3E3" height="51.2422" rx="2.5" ry="2.5" style="stroke:#181818;stroke-width:0.5;" width="105" x="2057.5" y="31.3789"/><text fill="#000000" font-family="sans-serif" font-size="14" lengthAdjust="spacing" textLength="91" x="2064.5" y="53.4863">jobRepository:</text><text fill="#000000" font-family="sans-serif" font-size="14" lengthAdjust="spacing" textLength="90" x="2065" y="72.1074">JobRepository</text><rect fill="#E3E3E3" height="51.2422" rx="2.5" ry="2.5" style="stroke:#181818;stroke-width:0.5;" width="105" x="2057.5" y="1079.6816"/><text fill="#000000" font-family="sans-serif" font-size="14" lengthAdjust="spacing" textLength="91" x="2064.5" y="1101.7891">jobRepository:</text><text fill="#000000" font-family="sans-serif" font-size="14" lengthAdjust="spacing" textLength="90" x="2065" y="1120.4102">JobRepository</text><rect fill="#E3E3E3" height="32.6211" rx="2.5" ry="2.5" style="stroke:#181818;stroke-width:0.5;" width="98" x="2172.5" y="50"/><text fill="#000000" font-family="sans-serif" font-size="14" lengthAdjust="spacing" textLength="84" x="2179.5" y="72.1074">:Organization</text><rect fill="#E3E3E3" height="32.6211" rx="2.5" ry="2.5" style="stroke:#181818;stroke-width:0.5;" width="98" x="2172.5" y="1079.6816"/><text fill="#000000" font-family="sans-serif" font-size="14" lengthAdjust="spacing" textLength="84" x="2179.5" y="1101.7891">:Organization</text><rect fill="#E3E3E3" height="32.6211" rx="2.5" ry="2.5" style="stroke:#181818;stroke-width:0.5;" width="80" x="2835.5" y="50"/><text fill="#000000" font-family="sans-serif" font-size="14" lengthAdjust="spacing" textLength="66" x="2842.5" y="72.1074">:Employee</text><rect fill="#E3E3E3" height="32.6211" rx="2.5" ry="2.5" style="stroke:#181818;stroke-width:0.5;" width="80" x="2835.5" y="1079.6816"/><text fill="#000000" font-family="sans-serif" font-size="14" lengthAdjust="spacing" textLength="66" x="2842.5" y="1101.7891">:Employee</text><rect fill="#FFFFFF" height="969.0605" style="stroke:#181818;stroke-width:1.0;" width="10" x="87.5" y="93.6211"/><rect fill="#FFFFFF" height="325.2402" style="stroke:#181818;stroke-width:1.0;" width="10" x="762.5" y="116.9121"/><rect fill="#FFFFFF" height="294.6191" style="stroke:#181818;stroke-width:1.0;" width="10" x="762.5" y="473.4434"/><rect fill="#FFFFFF" height="31.291" style="stroke:#181818;stroke-width:1.0;" width="10" x="762.5" y="1031.3906"/><rect fill="#FFFFFF" height="873.1875" style="stroke:#181818;stroke-width:1.0;" width="10" x="1481.5" y="158.2031"/><rect fill="#FFFFFF" height="31.291" style="stroke:#181818;stroke-width:1.0;" width="10" x="1634" y="191.8242"/><rect fill="#FFFFFF" height="31.291" style="stroke:#181818;stroke-width:1.0;" width="10" x="1741" y="254.4063"/><rect fill="#FFFFFF" height="67.582" style="stroke:#181818;stroke-width:1.0;" width="10" x="1741" y="512.7344"/><rect fill="#FFFFFF" height="75.582" style="stroke:#181818;stroke-width:1.0;" width="10" x="1873" y="924.5176"/><rect fill="#FFFFFF" height="31.291" style="stroke:#181818;stroke-width:1.0;" width="10" x="2105" y="611.6074"/><rect fill="#FFFFFF" height="125.1641" style="stroke:#181818;stroke-width:1.0;" width="10" x="2216.5" y="285.6973"/><rect fill="#FFFFFF" height="125.1641" style="stroke:#181818;stroke-width:1.0;" width="10" x="2216.5" y="768.0625"/><rect fill="#FFFFFF" height="93.873" style="stroke:#181818;stroke-width:1.0;" width="10" x="2870.5" y="316.9883"/><rect fill="#FFFFFF" height="31.291" style="stroke:#181818;stroke-width:1.0;" width="10" x="2870.5" y="830.6445"/><polygon fill="#181818" points="750.5,112.9121,760.5,116.9121,750.5,120.9121,754.5,116.9121" style="stroke:#181818;stroke-width:1.0;"/><line style="stroke:#181818;stroke-width:1.0;" x1="97.5" x2="756.5" y1="116.9121" y2="116.9121"/><text fill="#000000" font-family="sans-serif" font-size="13" font-weight="bold" lengthAdjust="spacing" textLength="7" x="104.5" y="111.6494">1</text><text fill="#000000" font-family="sans-serif" font-size="13" lengthAdjust="spacing" textLength="188" x="115.5" y="111.6494">asks to register a new employee</text><polygon fill="#181818" points="1380.5,144.2031,1390.5,148.2031,1380.5,152.2031,1384.5,148.2031" style="stroke:#181818;stroke-width:1.0;"/><line style="stroke:#181818;stroke-width:1.0;" x1="772.5" x2="1386.5" y1="148.2031" y2="148.2031"/><text fill="#000000" font-family="sans-serif" font-size="13" font-weight="bold" lengthAdjust="spacing" textLength="7" x="779.5" y="142.9404">2</text><text fill="#000000" font-family="sans-serif" font-size="13" lengthAdjust="spacing" textLength="36" x="790.5" y="142.9404">create</text><rect fill="#E3E3E3" height="32.6211" rx="2.5" ry="2.5" style="stroke:#181818;stroke-width:0.5;" width="188" x="1392.5" y="124.9121"/><text fill="#000000" font-family="sans-serif" font-size="14" lengthAdjust="spacing" textLength="174" x="1399.5" y="147.0195">:CreateEmployeelController</text><polygon fill="#181818" points="1622,187.8242,1632,191.8242,1622,195.8242,1626,191.8242" style="stroke:#181818;stroke-width:1.0;"/><line style="stroke:#181818;stroke-width:1.0;" x1="1491.5" x2="1628" y1="191.8242" y2="191.8242"/><text fill="#000000" font-family="sans-serif" font-size="13" font-weight="bold" lengthAdjust="spacing" textLength="7" x="1498.5" y="186.5615">3</text><text fill="#000000" font-family="sans-serif" font-size="13" lengthAdjust="spacing" textLength="75" x="1509.5" y="186.5615">getInstance()</text><polygon fill="#181818" points="1502.5,219.1152,1492.5,223.1152,1502.5,227.1152,1498.5,223.1152" style="stroke:#181818;stroke-width:1.0;"/><line style="stroke:#181818;stroke-width:1.0;stroke-dasharray:2.0,2.0;" x1="1496.5" x2="1638" y1="223.1152" y2="223.1152"/><text fill="#000000" font-family="sans-serif" font-size="13" font-weight="bold" lengthAdjust="spacing" textLength="7" x="1508.5" y="217.8525">4</text><text fill="#000000" font-family="sans-serif" font-size="13" lengthAdjust="spacing" textLength="67" x="1519.5" y="217.8525">repositories</text><polygon fill="#181818" points="1729,250.4063,1739,254.4063,1729,258.4063,1733,254.4063" style="stroke:#181818;stroke-width:1.0;"/><line style="stroke:#181818;stroke-width:1.0;" x1="1491.5" x2="1735" y1="254.4063" y2="254.4063"/><text fill="#000000" font-family="sans-serif" font-size="13" font-weight="bold" lengthAdjust="spacing" textLength="7" x="1498.5" y="249.1436">5</text><text fill="#000000" font-family="sans-serif" font-size="13" lengthAdjust="spacing" textLength="146" x="1509.5" y="249.1436">getEmployeeRepository()</text><polygon fill="#181818" points="1502.5,281.6973,1492.5,285.6973,1502.5,289.6973,1498.5,285.6973" style="stroke:#181818;stroke-width:1.0;"/><line style="stroke:#181818;stroke-width:1.0;stroke-dasharray:2.0,2.0;" x1="1496.5" x2="1745" y1="285.6973" y2="285.6973"/><text fill="#000000" font-family="sans-serif" font-size="13" font-weight="bold" lengthAdjust="spacing" textLength="7" x="1508.5" y="280.4346">6</text><text fill="#000000" font-family="sans-serif" font-size="13" lengthAdjust="spacing" textLength="79" x="1519.5" y="280.4346">employeeRep</text><polygon fill="#181818" points="2204.5,312.9883,2214.5,316.9883,2204.5,320.9883,2208.5,316.9883" style="stroke:#181818;stroke-width:1.0;"/><line style="stroke:#181818;stroke-width:1.0;" x1="1491.5" x2="2210.5" y1="316.9883" y2="316.9883"/><text fill="#000000" font-family="sans-serif" font-size="13" font-weight="bold" lengthAdjust="spacing" textLength="7" x="1498.5" y="311.7256">7</text><text fill="#000000" font-family="sans-serif" font-size="13" lengthAdjust="spacing" textLength="66" x="1509.5" y="311.7256">Employee()</text><polygon fill="#181818" points="2858.5,344.2793,2868.5,348.2793,2858.5,352.2793,2862.5,348.2793" style="stroke:#181818;stroke-width:1.0;"/><line style="stroke:#181818;stroke-width:1.0;" x1="2226.5" x2="2864.5" y1="348.2793" y2="348.2793"/><text fill="#000000" font-family="sans-serif" font-size="13" font-weight="bold" lengthAdjust="spacing" textLength="7" x="2233.5" y="343.0166">8</text><text fill="#000000" font-family="sans-serif" font-size="13" lengthAdjust="spacing" textLength="102" x="2244.5" y="343.0166">createEmployee()</text><polygon fill="#181818" points="2237.5,375.5703,2227.5,379.5703,2237.5,383.5703,2233.5,379.5703" style="stroke:#181818;stroke-width:1.0;"/><line style="stroke:#181818;stroke-width:1.0;stroke-dasharray:2.0,2.0;" x1="2231.5" x2="2869.5" y1="379.5703" y2="379.5703"/><text fill="#000000" font-family="sans-serif" font-size="13" font-weight="bold" lengthAdjust="spacing" textLength="7" x="2243.5" y="374.3076">9</text><text fill="#000000" font-family="sans-serif" font-size="13" lengthAdjust="spacing" textLength="58" x="2254.5" y="374.3076">Employee</text><polygon fill="#181818" points="1502.5,406.8613,1492.5,410.8613,1502.5,414.8613,1498.5,410.8613" style="stroke:#181818;stroke-width:1.0;"/><line style="stroke:#181818;stroke-width:1.0;stroke-dasharray:2.0,2.0;" x1="1496.5" x2="2220.5" y1="410.8613" y2="410.8613"/><text fill="#000000" font-family="sans-serif" font-size="13" font-weight="bold" lengthAdjust="spacing" textLength="14" x="1508.5" y="405.5986">10</text><text fill="#000000" font-family="sans-serif" font-size="13" lengthAdjust="spacing" textLength="58" x="1526.5" y="405.5986">Employee</text><polygon fill="#181818" points="108.5,438.1523,98.5,442.1523,108.5,446.1523,104.5,442.1523" style="stroke:#181818;stroke-width:1.0;"/><line style="stroke:#181818;stroke-width:1.0;stroke-dasharray:2.0,2.0;" x1="102.5" x2="766.5" y1="442.1523" y2="442.1523"/><text fill="#000000" font-family="sans-serif" font-size="13" font-weight="bold" lengthAdjust="spacing" textLength="14" x="114.5" y="436.8896">11</text><text fill="#000000" font-family="sans-serif" font-size="13" lengthAdjust="spacing" textLength="623" x="132.5" y="436.8896">requestData (name, birthDate, admissionDate, adress, email, mobile, docIdType, docIdNum, TaxPayerNum)</text><polygon fill="#181818" points="750.5,469.4434,760.5,473.4434,750.5,477.4434,754.5,473.4434" style="stroke:#181818;stroke-width:1.0;"/><line style="stroke:#181818;stroke-width:1.0;" x1="97.5" x2="756.5" y1="473.4434" y2="473.4434"/><text fill="#000000" font-family="sans-serif" font-size="13" font-weight="bold" lengthAdjust="spacing" textLength="14" x="104.5" y="468.1807">12</text><text fill="#000000" font-family="sans-serif" font-size="13" lengthAdjust="spacing" textLength="122" x="122.5" y="468.1807">types requested data</text><line style="stroke:#181818;stroke-width:1.0;" x1="772.5" x2="819.5" y1="499.7344" y2="499.7344"/><line style="stroke:#181818;stroke-width:1.0;" x1="819.5" x2="819.5" y1="499.7344" y2="512.7344"/><line style="stroke:#181818;stroke-width:1.0;" x1="778.5" x2="819.5" y1="512.7344" y2="512.7344"/><polygon fill="#181818" points="788.5,508.7344,778.5,512.7344,788.5,516.7344,784.5,512.7344" style="stroke:#181818;stroke-width:1.0;"/><text fill="#000000" font-family="sans-serif" font-size="13" font-weight="bold" lengthAdjust="spacing" textLength="14" x="784.5" y="494.4717">13</text><text fill="#000000" font-family="sans-serif" font-size="13" lengthAdjust="spacing" textLength="677" x="802.5" y="494.4717">validateEmployeeData(name, birthDate, admissionDate, adress, email, mobile, docIdType, docIdNum, TaxPayerNum)</text><polygon fill="#181818" points="1729,545.0254,1739,549.0254,1729,553.0254,1733,549.0254" style="stroke:#181818;stroke-width:1.0;"/><line style="stroke:#181818;stroke-width:1.0;" x1="1491.5" x2="1735" y1="549.0254" y2="549.0254"/><text fill="#000000" font-family="sans-serif" font-size="13" font-weight="bold" lengthAdjust="spacing" textLength="14" x="1498.5" y="543.7627">14</text><text fill="#000000" font-family="sans-serif" font-size="13" lengthAdjust="spacing" textLength="108" x="1516.5" y="543.7627">getJobRepository()</text><polygon fill="#181818" points="1502.5,576.3164,1492.5,580.3164,1502.5,584.3164,1498.5,580.3164" style="stroke:#181818;stroke-width:1.0;"/><line style="stroke:#181818;stroke-width:1.0;stroke-dasharray:2.0,2.0;" x1="1496.5" x2="1745" y1="580.3164" y2="580.3164"/><text fill="#000000" font-family="sans-serif" font-size="13" font-weight="bold" lengthAdjust="spacing" textLength="14" x="1508.5" y="575.0537">15</text><text fill="#000000" font-family="sans-serif" font-size="13" lengthAdjust="spacing" textLength="79" x="1526.5" y="575.0537">jobRepository</text><polygon fill="#181818" points="2093,607.6074,2103,611.6074,2093,615.6074,2097,611.6074" style="stroke:#181818;stroke-width:1.0;"/><line style="stroke:#181818;stroke-width:1.0;stroke-dasharray:2.0,2.0;" x1="1491.5" x2="2099" y1="611.6074" y2="611.6074"/><text fill="#000000" font-family="sans-serif" font-size="13" font-weight="bold" lengthAdjust="spacing" textLength="14" x="1498.5" y="606.3447">16</text><text fill="#000000" font-family="sans-serif" font-size="13" lengthAdjust="spacing" textLength="68" x="1516.5" y="606.3447">getAllJobs()</text><polygon fill="#181818" points="1502.5,638.8984,1492.5,642.8984,1502.5,646.8984,1498.5,642.8984" style="stroke:#181818;stroke-width:1.0;"/><line style="stroke:#181818;stroke-width:1.0;stroke-dasharray:2.0,2.0;" x1="1496.5" x2="2109" y1="642.8984" y2="642.8984"/><text fill="#000000" font-family="sans-serif" font-size="13" font-weight="bold" lengthAdjust="spacing" textLength="14" x="1508.5" y="637.6357">17</text><text fill="#000000" font-family="sans-serif" font-size="13" lengthAdjust="spacing" textLength="68" x="1526.5" y="637.6357">getAllJobs()</text><polygon fill="#181818" points="783.5,670.1895,773.5,674.1895,783.5,678.1895,779.5,674.1895" style="stroke:#181818;stroke-width:1.0;"/><line style="stroke:#181818;stroke-width:1.0;stroke-dasharray:2.0,2.0;" x1="777.5" x2="1480.5" y1="674.1895" y2="674.1895"/><text fill="#000000" font-family="sans-serif" font-size="13" font-weight="bold" lengthAdjust="spacing" textLength="14" x="789.5" y="668.9268">18</text><text fill="#000000" font-family="sans-serif" font-size="13" lengthAdjust="spacing" textLength="68" x="807.5" y="668.9268">getAllJobs()</text><polygon fill="#181818" points="108.5,701.4805,98.5,705.4805,108.5,709.4805,104.5,705.4805" style="stroke:#181818;stroke-width:1.0;"/><line style="stroke:#181818;stroke-width:1.0;stroke-dasharray:2.0,2.0;" x1="102.5" x2="761.5" y1="705.4805" y2="705.4805"/><text fill="#000000" font-family="sans-serif" font-size="13" font-weight="bold" lengthAdjust="spacing" textLength="14" x="114.5" y="700.2178">19</text><text fill="#000000" font-family="sans-serif" font-size="13" lengthAdjust="spacing" textLength="236" x="132.5" y="700.2178">shows list of jobs and asks to select one</text><polygon fill="#181818" points="750.5,732.7715,760.5,736.7715,750.5,740.7715,754.5,736.7715" style="stroke:#181818;stroke-width:1.0;"/><line style="stroke:#181818;stroke-width:1.0;" x1="97.5" x2="756.5" y1="736.7715" y2="736.7715"/><text fill="#000000" font-family="sans-serif" font-size="13" font-weight="bold" lengthAdjust="spacing" textLength="14" x="104.5" y="731.5088">20</text><text fill="#000000" font-family="sans-serif" font-size="13" lengthAdjust="spacing" textLength="63" x="122.5" y="731.5088">selects job</text><polygon fill="#181818" points="1469.5,764.0625,1479.5,768.0625,1469.5,772.0625,1473.5,768.0625" style="stroke:#181818;stroke-width:1.0;"/><line style="stroke:#181818;stroke-width:1.0;" x1="767.5" x2="1475.5" y1="768.0625" y2="768.0625"/><text fill="#000000" font-family="sans-serif" font-size="13" font-weight="bold" lengthAdjust="spacing" textLength="14" x="774.5" y="762.7998">21</text><text fill="#000000" font-family="sans-serif" font-size="13" lengthAdjust="spacing" textLength="643" x="792.5" y="762.7998">createEmployee(name, birthDate, admissionDate, adress, email, mobile, docIdType, docIdNum, TaxPayerNum)</text><polygon fill="#181818" points="2204.5,795.3535,2214.5,799.3535,2204.5,803.3535,2208.5,799.3535" style="stroke:#181818;stroke-width:1.0;"/><line style="stroke:#181818;stroke-width:1.0;" x1="1491.5" x2="2210.5" y1="799.3535" y2="799.3535"/><text fill="#000000" font-family="sans-serif" font-size="13" font-weight="bold" lengthAdjust="spacing" textLength="14" x="1498.5" y="794.0908">22</text><text fill="#000000" font-family="sans-serif" font-size="13" lengthAdjust="spacing" textLength="607" x="1516.5" y="794.0908">Employee(name, birthDate, admissionDate, adress, email, mobile, docIdType, docIdNum, TaxPayerNum)</text><polygon fill="#181818" points="2858.5,826.6445,2868.5,830.6445,2858.5,834.6445,2862.5,830.6445" style="stroke:#181818;stroke-width:1.0;"/><line style="stroke:#181818;stroke-width:1.0;" x1="2226.5" x2="2864.5" y1="830.6445" y2="830.6445"/><text fill="#000000" font-family="sans-serif" font-size="13" font-weight="bold" lengthAdjust="spacing" textLength="14" x="2233.5" y="825.3818">23</text><text fill="#000000" font-family="sans-serif" font-size="13" lengthAdjust="spacing" textLength="607" x="2251.5" y="825.3818">Employee(name, birthDate, admissionDate, adress, email, mobile, docIdType, docIdNum, TaxPayerNum)</text><polygon fill="#181818" points="2237.5,857.9355,2227.5,861.9355,2237.5,865.9355,2233.5,861.9355" style="stroke:#181818;stroke-width:1.0;"/><line style="stroke:#181818;stroke-width:1.0;stroke-dasharray:2.0,2.0;" x1="2231.5" x2="2874.5" y1="861.9355" y2="861.9355"/><text fill="#000000" font-family="sans-serif" font-size="13" font-weight="bold" lengthAdjust="spacing" textLength="14" x="2243.5" y="856.6729">24</text><text fill="#000000" font-family="sans-serif" font-size="13" lengthAdjust="spacing" textLength="81" x="2261.5" y="856.6729">newEmployee</text><polygon fill="#181818" points="1502.5,889.2266,1492.5,893.2266,1502.5,897.2266,1498.5,893.2266" style="stroke:#181818;stroke-width:1.0;"/><line style="stroke:#181818;stroke-width:1.0;stroke-dasharray:2.0,2.0;" x1="1496.5" x2="2220.5" y1="893.2266" y2="893.2266"/><text fill="#000000" font-family="sans-serif" font-size="13" font-weight="bold" lengthAdjust="spacing" textLength="14" x="1508.5" y="887.9639">25</text><text fill="#000000" font-family="sans-serif" font-size="13" lengthAdjust="spacing" textLength="81" x="1526.5" y="887.9639">newEmployee</text><polygon fill="#181818" points="1861,920.5176,1871,924.5176,1861,928.5176,1865,924.5176" style="stroke:#181818;stroke-width:1.0;"/><line style="stroke:#181818;stroke-width:1.0;" x1="1491.5" x2="1867" y1="924.5176" y2="924.5176"/><text fill="#000000" font-family="sans-serif" font-size="13" font-weight="bold" lengthAdjust="spacing" textLength="14" x="1498.5" y="919.2549">26</text><text fill="#000000" font-family="sans-serif" font-size="13" lengthAdjust="spacing" textLength="110" x="1516.5" y="919.2549">add(newEmployee)</text><line style="stroke:#181818;stroke-width:1.0;" x1="1883" x2="1925" y1="955.8086" y2="955.8086"/><line style="stroke:#181818;stroke-width:1.0;" x1="1925" x2="1925" y1="955.8086" y2="968.8086"/><line style="stroke:#181818;stroke-width:1.0;" x1="1884" x2="1925" y1="968.8086" y2="968.8086"/><polygon fill="#181818" points="1894,964.8086,1884,968.8086,1894,972.8086,1890,968.8086" style="stroke:#181818;stroke-width:1.0;"/><text fill="#000000" font-family="sans-serif" font-size="13" font-weight="bold" lengthAdjust="spacing" textLength="14" x="1890" y="950.5459">27</text><text fill="#000000" font-family="sans-serif" font-size="13" lengthAdjust="spacing" textLength="190" x="1908" y="950.5459">validateEmployee(newEmployee)</text><polygon fill="#181818" points="1502.5,996.0996,1492.5,1000.0996,1502.5,1004.0996,1498.5,1000.0996" style="stroke:#181818;stroke-width:1.0;"/><line style="stroke:#181818;stroke-width:1.0;stroke-dasharray:2.0,2.0;" x1="1496.5" x2="1877" y1="1000.0996" y2="1000.0996"/><text fill="#000000" font-family="sans-serif" font-size="13" font-weight="bold" lengthAdjust="spacing" textLength="14" x="1508.5" y="994.8369">28</text><text fill="#000000" font-family="sans-serif" font-size="13" lengthAdjust="spacing" textLength="81" x="1526.5" y="994.8369">newEmployee</text><polygon fill="#181818" points="783.5,1027.3906,773.5,1031.3906,783.5,1035.3906,779.5,1031.3906" style="stroke:#181818;stroke-width:1.0;"/><line style="stroke:#181818;stroke-width:1.0;stroke-dasharray:2.0,2.0;" x1="777.5" x2="1485.5" y1="1031.3906" y2="1031.3906"/><text fill="#000000" font-family="sans-serif" font-size="13" font-weight="bold" lengthAdjust="spacing" textLength="14" x="789.5" y="1026.1279">29</text><text fill="#000000" font-family="sans-serif" font-size="13" lengthAdjust="spacing" textLength="81" x="807.5" y="1026.1279">newEmployee</text><polygon fill="#181818" points="103.5,1058.6816,93.5,1062.6816,103.5,1066.6816,99.5,1062.6816" style="stroke:#181818;stroke-width:1.0;"/><line style="stroke:#181818;stroke-width:1.0;" x1="97.5" x2="766.5" y1="1062.6816" y2="1062.6816"/><text fill="#000000" font-family="sans-serif" font-size="13" font-weight="bold" lengthAdjust="spacing" textLength="14" x="109.5" y="1057.4189">30</text><text fill="#000000" font-family="sans-serif" font-size="13" lengthAdjust="spacing" textLength="158" x="127.5" y="1057.4189">displays success operation</text><!--SRC=[nLVDJjmm4BxdAKPSeDNo0XmgLHI9hKHRKRXnyIP3riMnKzi1ja_ViRFnsecpH9LGVLh7ttmpu_dpcYSkMwPP0usIgjngrI1OtM5XmadBoYTMuq-x4mWQIyjaBMA0sR9AlN1PmoCJ1ek2TLR9hjcWBehJBQyG7fMo6_LAHwLL6awkkuP9k4MZEbqYt3196lG9C0FNjpS5yLfUyfP92oSNbngPnQkc5Mg7AExN7dU_FWwxLD9g9SIUjWpRaTWjjifmiegZyKZ3dN_aGGhK4Uv1JiNeF1N0lIK1kRjua5UJZruumgOalzGcaVyQxxre_sNar7TTCyd_CCkLz2Ybwn5aiCGV3vl2HuW_qqNwG1ImNxI1yqzqwN11-2S3Lf77DJSMDJ2G-19yE0W5AeeLHEkqzA6AOn8Van9ITJZy-96KzY950Wpy4L42SEjmHgGXjiHOerrBGzbSujc7gLmWF-J31EFMWV8yiPeqn2ap5QvmYOg8aEY9iRTycaT7VN39cJVVCKuCZzCnAnNPxgXpa01mgPT5fAuHZ3GFVkMyILYl9jaMBqT6d0Cev4z4dnCB-FE9GVDgnfSNrTARbpTxDn4cuKlHfnf_TsWibUFM5wmhIshBdOMAMJQfAZBLWLncUhal188poHfSmOPhkwKFz9DL3JU6MiUmrMZCYhA2SR6YIR7XWZvNgbnNTxjs-FcjQrPmnrv_i1rgsXokE7A6Ea6sfrZYCODPMFNcPnj9fbLuXcScU1M5sFds_gwb5RQWS9C6Fah3R2qc4o1LCQh2MVL4sQljJVWi16tDI7cWsW-Kv70lFZ4kOPkpRI0yPfyFuJnRahncgruC29eze1xT_HXWiWfZoQ2WHmeeEUeDSRhr6EE44z1uz4mRnxjbL76y2xZCdvb-sIPojBc-dnF5WbRyFynOC3SopP-UDVFuR8jUD26MqYu8R3IftSkigiuYycClWZT7VCmyKJHkjYEjRnF-wvNCcfth9mbfRXh5xyQqqjA6qFUTYfjMi1tzG-ZAaX8JL8lQFx5x_AXQewrxIly5]--></g></svg>