<?xml version="1.0" encoding="us-ascii" standalone="no"?><svg xmlns="http://www.w3.org/2000/svg" xmlns:xlink="http://www.w3.org/1999/xlink" contentStyleType="text/css" height="643px" preserveAspectRatio="none" style="width:522px;height:643px;background:#FFFFFF;" version="1.1" viewBox="0 0 522 643" width="522px" zoomAndPan="magnify"><defs/><g><text fill="#000000" font-family="sans-serif" font-size="14" font-weight="bold" lengthAdjust="spacing" textLength="276" x="124.5" y="30.1074">System Sequence Diagram (SSD) - US08</text><rect fill="#FFFFFF" height="380.4922" style="stroke:#181818;stroke-width:1.0;" width="10" x="58" y="151.8633"/><rect fill="#FFFFFF" height="356.2012" style="stroke:#181818;stroke-width:1.0;" width="10" x="469" y="175.1543"/><rect fill="none" height="81.873" style="stroke:#000000;stroke-width:1.5;" width="506" x="10" y="315.3184"/><rect fill="none" height="113.1641" style="stroke:#000000;stroke-width:1.5;" width="506" x="10" y="411.1914"/><line style="stroke:#181818;stroke-width:0.5;stroke-dasharray:5.0,5.0;" x1="63" x2="63" y1="141.8633" y2="541.3555"/><line style="stroke:#181818;stroke-width:0.5;stroke-dasharray:5.0,5.0;" x1="474" x2="474" y1="141.8633" y2="541.3555"/><text fill="#000000" font-family="sans-serif" font-size="14" lengthAdjust="spacing" textLength="80" x="20" y="119.7285">GreenSpace</text><text fill="#000000" font-family="sans-serif" font-size="14" lengthAdjust="spacing" textLength="56" x="32" y="138.3496">Manager</text><ellipse cx="63" cy="53.1211" fill="#E3E3E3" rx="8" ry="8" style="stroke:#181818;stroke-width:0.5;"/><path d="M63,61.1211 L63,88.1211 M50,69.1211 L76,69.1211 M63,88.1211 L50,103.1211 M63,88.1211 L76,103.1211 " fill="none" style="stroke:#181818;stroke-width:0.5;"/><text fill="#000000" font-family="sans-serif" font-size="14" lengthAdjust="spacing" textLength="80" x="20" y="555.4629">GreenSpace</text><text fill="#000000" font-family="sans-serif" font-size="14" lengthAdjust="spacing" textLength="56" x="32" y="574.084">Manager</text><ellipse cx="63" cy="586.0977" fill="#E3E3E3" rx="8" ry="8" style="stroke:#181818;stroke-width:0.5;"/><path d="M63,594.0977 L63,621.0977 M50,602.0977 L76,602.0977 M63,621.0977 L50,636.0977 M63,621.0977 L76,636.0977 " fill="none" style="stroke:#181818;stroke-width:0.5;"/><rect fill="#E3E3E3" height="32.6211" rx="2.5" ry="2.5" style="stroke:#181818;stroke-width:0.5;" width="64" x="442" y="108.2422"/><text fill="#000000" font-family="sans-serif" font-size="14" lengthAdjust="spacing" textLength="50" x="449" y="130.3496">:System</text><rect fill="#E3E3E3" height="32.6211" rx="2.5" ry="2.5" style="stroke:#181818;stroke-width:0.5;" width="64" x="442" y="540.3555"/><text fill="#000000" font-family="sans-serif" font-size="14" lengthAdjust="spacing" textLength="50" x="449" y="562.4629">:System</text><rect fill="#FFFFFF" height="380.4922" style="stroke:#181818;stroke-width:1.0;" width="10" x="58" y="151.8633"/><rect fill="#FFFFFF" height="356.2012" style="stroke:#181818;stroke-width:1.0;" width="10" x="469" y="175.1543"/><polygon fill="#181818" points="457,171.1543,467,175.1543,457,179.1543,461,175.1543" style="stroke:#181818;stroke-width:1.0;"/><line style="stroke:#181818;stroke-width:1.0;" x1="68" x2="463" y1="175.1543" y2="175.1543"/><text fill="#000000" font-family="sans-serif" font-size="13" font-weight="bold" lengthAdjust="spacing" textLength="7" x="75" y="169.8916">1</text><text fill="#000000" font-family="sans-serif" font-size="13" lengthAdjust="spacing" textLength="178" x="86" y="169.8916">asks to add a team to an entry</text><polygon fill="#181818" points="79,202.4453,69,206.4453,79,210.4453,75,206.4453" style="stroke:#181818;stroke-width:1.0;"/><line style="stroke:#181818;stroke-width:1.0;stroke-dasharray:2.0,2.0;" x1="73" x2="468" y1="206.4453" y2="206.4453"/><text fill="#000000" font-family="sans-serif" font-size="13" font-weight="bold" lengthAdjust="spacing" textLength="7" x="85" y="201.1826">2</text><text fill="#000000" font-family="sans-serif" font-size="13" lengthAdjust="spacing" textLength="192" x="96" y="201.1826">Show list of entries in the agenda</text><polygon fill="#181818" points="457,233.7363,467,237.7363,457,241.7363,461,237.7363" style="stroke:#181818;stroke-width:1.0;"/><line style="stroke:#181818;stroke-width:1.0;" x1="68" x2="463" y1="237.7363" y2="237.7363"/><text fill="#000000" font-family="sans-serif" font-size="13" font-weight="bold" lengthAdjust="spacing" textLength="7" x="75" y="232.4736">3</text><text fill="#000000" font-family="sans-serif" font-size="13" lengthAdjust="spacing" textLength="95" x="86" y="232.4736">Selects an entry</text><polygon fill="#181818" points="79,265.0273,69,269.0273,79,273.0273,75,269.0273" style="stroke:#181818;stroke-width:1.0;"/><line style="stroke:#181818;stroke-width:1.0;stroke-dasharray:2.0,2.0;" x1="73" x2="468" y1="269.0273" y2="269.0273"/><text fill="#000000" font-family="sans-serif" font-size="13" font-weight="bold" lengthAdjust="spacing" textLength="7" x="85" y="263.7646">4</text><text fill="#000000" font-family="sans-serif" font-size="13" lengthAdjust="spacing" textLength="154" x="96" y="263.7646">Show list of teams created</text><polygon fill="#181818" points="457,296.3184,467,300.3184,457,304.3184,461,300.3184" style="stroke:#181818;stroke-width:1.0;"/><line style="stroke:#181818;stroke-width:1.0;" x1="68" x2="463" y1="300.3184" y2="300.3184"/><text fill="#000000" font-family="sans-serif" font-size="13" font-weight="bold" lengthAdjust="spacing" textLength="7" x="75" y="295.0557">5</text><text fill="#000000" font-family="sans-serif" font-size="13" lengthAdjust="spacing" textLength="88" x="86" y="295.0557">Selects a team</text><path d="M10,315.3184 L71,315.3184 L71,324.6094 L61,334.6094 L10,334.6094 L10,315.3184 " fill="#EEEEEE" style="stroke:#000000;stroke-width:1.5;"/><rect fill="none" height="81.873" style="stroke:#000000;stroke-width:1.5;" width="506" x="10" y="315.3184"/><text fill="#000000" font-family="sans-serif" font-size="13" font-weight="bold" lengthAdjust="spacing" textLength="16" x="25" y="330.3467">alt</text><text fill="#000000" font-family="sans-serif" font-size="11" font-weight="bold" lengthAdjust="spacing" textLength="89" x="86" y="329.1885">[Team available]</text><polygon fill="#181818" points="79,353.9004,69,357.9004,79,361.9004,75,357.9004" style="stroke:#181818;stroke-width:1.0;"/><line style="stroke:#181818;stroke-width:1.0;stroke-dasharray:2.0,2.0;" x1="73" x2="468" y1="357.9004" y2="357.9004"/><text fill="#000000" font-family="sans-serif" font-size="13" font-weight="bold" lengthAdjust="spacing" textLength="7" x="85" y="352.6377">6</text><text fill="#000000" font-family="sans-serif" font-size="13" lengthAdjust="spacing" textLength="169" x="96" y="352.6377">Team assignment successful</text><polygon fill="#181818" points="79,385.1914,69,389.1914,79,393.1914,75,389.1914" style="stroke:#181818;stroke-width:1.0;"/><line style="stroke:#181818;stroke-width:1.0;" x1="73" x2="468" y1="389.1914" y2="389.1914"/><text fill="#000000" font-family="sans-serif" font-size="13" font-weight="bold" lengthAdjust="spacing" textLength="7" x="85" y="383.9287">7</text><text fill="#000000" font-family="sans-serif" font-size="13" lengthAdjust="spacing" textLength="262" x="96" y="383.9287">Display success message with data selected</text><path d="M10,411.1914 L71,411.1914 L71,420.4824 L61,430.4824 L10,430.4824 L10,411.1914 " fill="#EEEEEE" style="stroke:#000000;stroke-width:1.5;"/><rect fill="none" height="113.1641" style="stroke:#000000;stroke-width:1.5;" width="506" x="10" y="411.1914"/><text fill="#000000" font-family="sans-serif" font-size="13" font-weight="bold" lengthAdjust="spacing" textLength="16" x="25" y="426.2197">alt</text><text fill="#000000" font-family="sans-serif" font-size="11" font-weight="bold" lengthAdjust="spacing" textLength="103" x="86" y="425.0615">[Team unavailable]</text><polygon fill="#181818" points="79,449.7734,69,453.7734,79,457.7734,75,453.7734" style="stroke:#181818;stroke-width:1.0;"/><line style="stroke:#181818;stroke-width:1.0;" x1="73" x2="468" y1="453.7734" y2="453.7734"/><text fill="#000000" font-family="sans-serif" font-size="13" font-weight="bold" lengthAdjust="spacing" textLength="7" x="85" y="448.5107">8</text><text fill="#000000" font-family="sans-serif" font-size="13" lengthAdjust="spacing" textLength="366" x="96" y="448.5107">Team cannot be assigned (Already assigned in that hour range)</text><polygon fill="#181818" points="457,481.0645,467,485.0645,457,489.0645,461,485.0645" style="stroke:#181818;stroke-width:1.0;"/><line style="stroke:#181818;stroke-width:1.0;stroke-dasharray:2.0,2.0;" x1="68" x2="463" y1="485.0645" y2="485.0645"/><text fill="#000000" font-family="sans-serif" font-size="13" font-weight="bold" lengthAdjust="spacing" textLength="7" x="75" y="479.8018">9</text><text fill="#000000" font-family="sans-serif" font-size="13" lengthAdjust="spacing" textLength="157" x="86" y="479.8018">Select another team or exit</text><polygon fill="#181818" points="79,512.3555,69,516.3555,79,520.3555,75,516.3555" style="stroke:#181818;stroke-width:1.0;"/><line style="stroke:#181818;stroke-width:1.0;" x1="73" x2="468" y1="516.3555" y2="516.3555"/><text fill="#000000" font-family="sans-serif" font-size="13" font-weight="bold" lengthAdjust="spacing" textLength="14" x="85" y="511.0928">10</text><text fill="#000000" font-family="sans-serif" font-size="13" lengthAdjust="spacing" textLength="238" x="103" y="511.0928">Displays operation confirmation message</text><!--SRC=[ZLAnZjim3Dtz5G-PxeO07OiC1noGebCdjzijZCJOGcJAbUZB-U_Bs74IDEcX6WnHvkDxV6Gv1EafKuSkIN9jJXr3yy1LkVpfoHseuLh7oCZibAI9jmcb9P-EGHhiAHQkAWrggVLOb3lK_7jWSOnjeEQK_bJNssUiyQl-yhMgQD0aGxVZR7UdAMFrFJDBRRJy9Zz8Z3klG0NVkZwcaRaoMWqkz2IArMRccJBcwrGel9Fo5LB1pX9X_RAesnZiKA09v3q8ogRm50bOD8yJxb9kgMzlytMzVbcARb2twOWOYYBj9tJWWY3Gbc5DYATPnaCb1kTevfOhzP9ybcfS-0VPINM1osmY_V-HJ9ZgaliQ5JzFlTCxXKWx6p2kvw62ERsKq4XdWb46vxYK_H0VGM-Hsr3wIEE2G6SVCmZ7e2qyAQ5CCgsNfHNnTqe7-LJhdLH78acnuxDezdXwZUQP7wylqxX8qQOX8zkcy_DjyQkbTvxQt99DEiyhP7lC7q4_5uQB5GMfvqmQai0bsOVSpS7Pcjiw3ppn_FUA_W40]--></g></svg>