<?xml version="1.0" encoding="us-ascii" standalone="no"?><svg xmlns="http://www.w3.org/2000/svg" xmlns:xlink="http://www.w3.org/1999/xlink" contentStyleType="text/css" height="502px" preserveAspectRatio="none" style="width:446px;height:502px;background:#FFFFFF;" version="1.1" viewBox="0 0 446 502" width="446px" zoomAndPan="magnify"><defs/><g><text fill="#000000" font-family="sans-serif" font-size="14" font-weight="bold" lengthAdjust="spacing" textLength="286" x="79.25" y="28.5352">System Sequence Diagram (SSD) - US07</text><rect fill="#FFFFFF" height="250.7949" style="stroke:#181818;stroke-width:1.0;" width="10" x="81.5" y="145.4648"/><rect fill="#FFFFFF" height="29.3105" style="stroke:#181818;stroke-width:1.0;" width="10" x="402.5" y="166.7754"/><rect fill="#FFFFFF" height="29.3105" style="stroke:#181818;stroke-width:1.0;" width="10" x="402.5" y="225.3965"/><rect fill="#FFFFFF" height="29.3105" style="stroke:#181818;stroke-width:1.0;" width="10" x="402.5" y="284.0176"/><rect fill="#FFFFFF" height="44.6211" style="stroke:#181818;stroke-width:1.0;" width="10" x="402.5" y="342.6387"/><line style="stroke:#181818;stroke-width:0.5;stroke-dasharray:5.0,5.0;" x1="86" x2="86" y1="135.4648" y2="405.2598"/><line style="stroke:#181818;stroke-width:0.5;stroke-dasharray:5.0,5.0;" x1="407.5" x2="407.5" y1="135.4648" y2="405.2598"/><text fill="#000000" font-family="sans-serif" font-size="14" lengthAdjust="spacing" textLength="157" x="5" y="116.0234">Vehicle and Equipment</text><text fill="#000000" font-family="sans-serif" font-size="14" lengthAdjust="spacing" textLength="97" x="35" y="132.5117">Fleet Manager</text><ellipse cx="86.5" cy="50.9883" fill="#E3E3E3" rx="8" ry="8" style="stroke:#181818;stroke-width:0.5;"/><path d="M86.5,58.9883 L86.5,85.9883 M73.5,66.9883 L99.5,66.9883 M86.5,85.9883 L73.5,100.9883 M86.5,85.9883 L99.5,100.9883 " fill="none" style="stroke:#181818;stroke-width:0.5;"/><text fill="#000000" font-family="sans-serif" font-size="14" lengthAdjust="spacing" textLength="157" x="5" y="417.7949">Vehicle and Equipment</text><text fill="#000000" font-family="sans-serif" font-size="14" lengthAdjust="spacing" textLength="97" x="35" y="434.2832">Fleet Manager</text><ellipse cx="86.5" cy="445.7363" fill="#E3E3E3" rx="8" ry="8" style="stroke:#181818;stroke-width:0.5;"/><path d="M86.5,453.7363 L86.5,480.7363 M73.5,461.7363 L99.5,461.7363 M86.5,480.7363 L73.5,495.7363 M86.5,480.7363 L99.5,495.7363 " fill="none" style="stroke:#181818;stroke-width:0.5;"/><rect fill="#E3E3E3" height="30.4883" rx="2.5" ry="2.5" style="stroke:#181818;stroke-width:0.5;" width="66" x="374.5" y="103.9766"/><text fill="#000000" font-family="sans-serif" font-size="14" lengthAdjust="spacing" textLength="52" x="381.5" y="124.5117">:System</text><rect fill="#E3E3E3" height="30.4883" rx="2.5" ry="2.5" style="stroke:#181818;stroke-width:0.5;" width="66" x="374.5" y="404.2598"/><text fill="#000000" font-family="sans-serif" font-size="14" lengthAdjust="spacing" textLength="52" x="381.5" y="424.7949">:System</text><rect fill="#FFFFFF" height="250.7949" style="stroke:#181818;stroke-width:1.0;" width="10" x="81.5" y="145.4648"/><rect fill="#FFFFFF" height="29.3105" style="stroke:#181818;stroke-width:1.0;" width="10" x="402.5" y="166.7754"/><rect fill="#FFFFFF" height="29.3105" style="stroke:#181818;stroke-width:1.0;" width="10" x="402.5" y="225.3965"/><rect fill="#FFFFFF" height="29.3105" style="stroke:#181818;stroke-width:1.0;" width="10" x="402.5" y="284.0176"/><rect fill="#FFFFFF" height="44.6211" style="stroke:#181818;stroke-width:1.0;" width="10" x="402.5" y="342.6387"/><polygon fill="#181818" points="390.5,162.7754,400.5,166.7754,390.5,170.7754,394.5,166.7754" style="stroke:#181818;stroke-width:1.0;"/><line style="stroke:#181818;stroke-width:1.0;" x1="91.5" x2="396.5" y1="166.7754" y2="166.7754"/><text fill="#000000" font-family="sans-serif" font-size="13" font-weight="bold" lengthAdjust="spacing" textLength="9" x="98.5" y="162.0332">1</text><text fill="#000000" font-family="sans-serif" font-size="13" lengthAdjust="spacing" textLength="260" x="111.5" y="162.0332">asks to create a new vehicle maintenance</text><polygon fill="#181818" points="102.5,192.0859,92.5,196.0859,102.5,200.0859,98.5,196.0859" style="stroke:#181818;stroke-width:1.0;"/><line style="stroke:#181818;stroke-width:1.0;stroke-dasharray:2.0,2.0;" x1="96.5" x2="406.5" y1="196.0859" y2="196.0859"/><text fill="#000000" font-family="sans-serif" font-size="13" font-weight="bold" lengthAdjust="spacing" textLength="9" x="108.5" y="191.3438">2</text><text fill="#000000" font-family="sans-serif" font-size="13" lengthAdjust="spacing" textLength="274" x="121.5" y="191.3438">show list of vehicles and asks to select one</text><polygon fill="#181818" points="390.5,221.3965,400.5,225.3965,390.5,229.3965,394.5,225.3965" style="stroke:#181818;stroke-width:1.0;"/><line style="stroke:#181818;stroke-width:1.0;" x1="91.5" x2="396.5" y1="225.3965" y2="225.3965"/><text fill="#000000" font-family="sans-serif" font-size="13" font-weight="bold" lengthAdjust="spacing" textLength="9" x="98.5" y="220.6543">3</text><text fill="#000000" font-family="sans-serif" font-size="13" lengthAdjust="spacing" textLength="85" x="111.5" y="220.6543">select vehicle</text><polygon fill="#181818" points="102.5,250.707,92.5,254.707,102.5,258.707,98.5,254.707" style="stroke:#181818;stroke-width:1.0;"/><line style="stroke:#181818;stroke-width:1.0;stroke-dasharray:2.0,2.0;" x1="96.5" x2="406.5" y1="254.707" y2="254.707"/><text fill="#000000" font-family="sans-serif" font-size="13" font-weight="bold" lengthAdjust="spacing" textLength="9" x="108.5" y="249.9648">4</text><text fill="#000000" font-family="sans-serif" font-size="13" lengthAdjust="spacing" textLength="249" x="121.5" y="249.9648">requests data (i.e. Date, Kms of vehicle)</text><polygon fill="#181818" points="390.5,280.0176,400.5,284.0176,390.5,288.0176,394.5,284.0176" style="stroke:#181818;stroke-width:1.0;"/><line style="stroke:#181818;stroke-width:1.0;" x1="91.5" x2="396.5" y1="284.0176" y2="284.0176"/><text fill="#000000" font-family="sans-serif" font-size="13" font-weight="bold" lengthAdjust="spacing" textLength="9" x="98.5" y="279.2754">5</text><text fill="#000000" font-family="sans-serif" font-size="13" lengthAdjust="spacing" textLength="131" x="111.5" y="279.2754">types requested data</text><polygon fill="#181818" points="102.5,309.3281,92.5,313.3281,102.5,317.3281,98.5,313.3281" style="stroke:#181818;stroke-width:1.0;"/><line style="stroke:#181818;stroke-width:1.0;stroke-dasharray:2.0,2.0;" x1="96.5" x2="406.5" y1="313.3281" y2="313.3281"/><text fill="#000000" font-family="sans-serif" font-size="13" font-weight="bold" lengthAdjust="spacing" textLength="9" x="108.5" y="308.5859">6</text><text fill="#000000" font-family="sans-serif" font-size="13" lengthAdjust="spacing" textLength="227" x="121.5" y="308.5859">show data and request confirmation</text><polygon fill="#181818" points="390.5,338.6387,400.5,342.6387,390.5,346.6387,394.5,342.6387" style="stroke:#181818;stroke-width:1.0;"/><line style="stroke:#181818;stroke-width:1.0;" x1="91.5" x2="396.5" y1="342.6387" y2="342.6387"/><text fill="#000000" font-family="sans-serif" font-size="13" font-weight="bold" lengthAdjust="spacing" textLength="9" x="98.5" y="337.8965">7</text><text fill="#000000" font-family="sans-serif" font-size="13" lengthAdjust="spacing" textLength="87" x="111.5" y="337.8965">confirms data</text><polygon fill="#181818" points="102.5,383.2598,92.5,387.2598,102.5,391.2598,98.5,387.2598" style="stroke:#181818;stroke-width:1.0;"/><line style="stroke:#181818;stroke-width:1.0;stroke-dasharray:2.0,2.0;" x1="96.5" x2="406.5" y1="387.2598" y2="387.2598"/><text fill="#000000" font-family="sans-serif" font-size="13" font-weight="bold" lengthAdjust="spacing" textLength="9" x="108.5" y="374.8623">8</text><text fill="#000000" font-family="sans-serif" font-size="13" lengthAdjust="spacing" textLength="197" x="121.5" y="367.207">displays operation success and</text><text fill="#000000" font-family="sans-serif" font-size="13" lengthAdjust="spacing" textLength="172" x="121.5" y="382.5176">show next maintenance KM</text><!--SRC=[dP8nRy8m48Nt_8eJ4qW5TQl4q8bsGKnHEx5SdGCix7FmNQ3vztMSX3AmW2TRllVUTsVBqNAD4JtumC4SOl046Xigv7fJepdYdafj7K4aeyXxTriW1wp2nV8UTkY4YaAjfjAo5IKF9PqQOaEmihZlogTbkPh17BxArxUYm4O3D_w7OjeR3H4cttIm9XaWL_1nQcpjYNNBduv8OOESOE84KE33rowqH4NYK6jiZQmmMVR1kQBVPcTxHgL_IG5fZIUOlu-uooGx2cW04wbJ831Tu3mmURIin9WQoWvNup49XZNOpPFpDMMPHXKkuAmeXDteARdHCLN8fH53uDw_ehi9Ty47wM3x35xitafKe495cDe5BM2Lv2-mzdA3F7kOJTiwDJhuKvK3dXvWfkk6DlY12RopqQFQm0-Z3M9vcgcoKZjiqu1gYfa1f366f7_PBMTefb-z_Jwmtjn7_GC0]--></g></svg>