<?xml version="1.0" encoding="us-ascii" standalone="no"?><svg xmlns="http://www.w3.org/2000/svg" xmlns:xlink="http://www.w3.org/1999/xlink" contentStyleType="text/css" height="1241.6px" preserveAspectRatio="none" style="width:1037px;height:1241px;background:#FFFFFF;" version="1.1" viewBox="0 0 1037 1241" width="1037.6px" zoomAndPan="magnify"><defs/><g><text fill="#000000" font-family="sans-serif" font-size="11.2" font-weight="bold" lengthAdjust="spacing" textLength="84" x="471.4685" y="18.8281">Domain Model</text><!--class Organization--><g id="elem_Organization"><rect codeLine="12" fill="#F1F1F1" height="93.5438" id="Organization" rx="2" ry="2" style="stroke:#181818;stroke-width:0.4000000000000001;" width="88.8" x="715.961" y="471.8866"/><text fill="#000000" font-family="sans-serif" font-size="11.2" lengthAdjust="spacing" textLength="72" x="724.361" y="486.7148">Organization</text><line style="stroke:#181818;stroke-width:0.4000000000000001;" x1="716.761" x2="803.961" y1="493.0773" y2="493.0773"/><text fill="#000000" font-family="sans-serif" font-size="11.2" lengthAdjust="spacing" textLength="30.4" x="720.761" y="507.1054">name</text><text fill="#000000" font-family="sans-serif" font-size="11.2" lengthAdjust="spacing" textLength="60" x="720.761" y="520.296">vatNumber</text><text fill="#000000" font-family="sans-serif" font-size="11.2" lengthAdjust="spacing" textLength="41.6" x="720.761" y="533.4866">website</text><text fill="#000000" font-family="sans-serif" font-size="11.2" lengthAdjust="spacing" textLength="79.2" x="720.761" y="546.6773">phoneNumber</text><text fill="#000000" font-family="sans-serif" font-size="11.2" lengthAdjust="spacing" textLength="29.6" x="720.761" y="559.8679">email</text></g><!--class Employee--><g id="elem_Employee"><rect codeLine="20" fill="#F1F1F1" height="67.1625" id="Employee" rx="2" ry="2" style="stroke:#181818;stroke-width:0.4000000000000001;" width="57.6" x="731.561" y="627.0306"/><text fill="#000000" font-family="sans-serif" font-size="11.2" lengthAdjust="spacing" textLength="52.8" x="733.961" y="641.8588">Employee</text><line style="stroke:#181818;stroke-width:0.4000000000000001;" x1="732.361" x2="788.361" y1="648.2213" y2="648.2213"/><text fill="#000000" font-family="sans-serif" font-size="11.2" lengthAdjust="spacing" textLength="30.4" x="736.361" y="662.2494">name</text><text fill="#000000" font-family="sans-serif" font-size="11.2" lengthAdjust="spacing" textLength="29.6" x="736.361" y="675.44">email</text><text fill="#000000" font-family="sans-serif" font-size="11.2" lengthAdjust="spacing" textLength="35.2" x="736.361" y="688.6306">phone</text></g><!--class Collaborator--><g id="elem_Collaborator"><rect codeLine="26" fill="#F1F1F1" height="53.9719" id="Collaborator" rx="2" ry="2" style="stroke:#181818;stroke-width:0.4000000000000001;" width="74.4" x="773.561" y="755.7906"/><text fill="#000000" font-family="sans-serif" font-size="11.2" lengthAdjust="spacing" textLength="69.6" x="775.961" y="770.6188">Collaborator</text><line style="stroke:#181818;stroke-width:0.4000000000000001;" x1="774.361" x2="847.161" y1="776.9813" y2="776.9813"/><text fill="#000000" font-family="sans-serif" font-size="11.2" lengthAdjust="spacing" textLength="17.6" x="778.361" y="791.0094">job</text><text fill="#000000" font-family="sans-serif" font-size="11.2" lengthAdjust="spacing" textLength="27.2" x="778.361" y="804.2">skills</text></g><!--class Manager--><g id="elem_Manager"><rect codeLine="32" fill="#F1F1F1" height="40.7813" id="Manager" rx="2" ry="2" style="stroke:#181818;stroke-width:0.4000000000000001;" width="52.8" x="596.361" y="762.3906"/><text fill="#000000" font-family="sans-serif" font-size="11.2" lengthAdjust="spacing" textLength="48" x="598.761" y="777.2188">Manager</text><line style="stroke:#181818;stroke-width:0.4000000000000001;" x1="597.161" x2="648.361" y1="783.5813" y2="783.5813"/><text fill="#000000" font-family="sans-serif" font-size="11.2" lengthAdjust="spacing" textLength="39.2" x="601.161" y="797.6094">section</text></g><!--class Skill--><g id="elem_Skill"><rect codeLine="36" fill="#F1F1F1" height="53.9719" id="Skill" rx="2" ry="2" style="stroke:#181818;stroke-width:0.4000000000000001;" width="93.6" x="793.561" y="924.1266"/><text fill="#000000" font-family="sans-serif" font-size="11.2" lengthAdjust="spacing" textLength="22.4" x="829.161" y="938.9548">Skill</text><line style="stroke:#181818;stroke-width:0.4000000000000001;" x1="794.361" x2="886.361" y1="945.3173" y2="945.3173"/><text fill="#000000" font-family="sans-serif" font-size="11.2" lengthAdjust="spacing" textLength="52.8" x="798.361" y="959.3454">skillName</text><text fill="#000000" font-family="sans-serif" font-size="11.2" lengthAdjust="spacing" textLength="84" x="798.361" y="972.536">skillDescription</text></g><!--class Job--><g id="elem_Job"><rect codeLine="41" fill="#F1F1F1" height="53.9719" id="Job" rx="2" ry="2" style="stroke:#181818;stroke-width:0.4000000000000001;" width="89.6" x="792.361" y="1092.4626"/><text fill="#000000" font-family="sans-serif" font-size="11.2" lengthAdjust="spacing" textLength="17.6" x="828.361" y="1107.2908">Job</text><line style="stroke:#181818;stroke-width:0.4000000000000001;" x1="793.161" x2="881.161" y1="1113.6533" y2="1113.6533"/><text fill="#000000" font-family="sans-serif" font-size="11.2" lengthAdjust="spacing" textLength="48.8" x="797.161" y="1127.6814">jobName</text><text fill="#000000" font-family="sans-serif" font-size="11.2" lengthAdjust="spacing" textLength="80" x="797.161" y="1140.872">jobDescription</text></g><!--class Vehicle--><g id="elem_Vehicle"><rect codeLine="46" fill="#F1F1F1" height="159.4969" id="Vehicle" rx="2" ry="2" style="stroke:#181818;stroke-width:0.4000000000000001;" width="136.8" x="147.161" y="871.3666"/><text fill="#000000" font-family="sans-serif" font-size="11.2" lengthAdjust="spacing" textLength="39.2" x="195.961" y="886.1948">Vehicle</text><line style="stroke:#181818;stroke-width:0.4000000000000001;" x1="147.961" x2="283.161" y1="892.5573" y2="892.5573"/><text fill="#000000" font-family="sans-serif" font-size="11.2" lengthAdjust="spacing" textLength="71.2" x="151.961" y="906.5854">plateNumber</text><text fill="#000000" font-family="sans-serif" font-size="11.2" lengthAdjust="spacing" textLength="32.8" x="151.961" y="919.776">brand</text><text fill="#000000" font-family="sans-serif" font-size="11.2" lengthAdjust="spacing" textLength="34.4" x="151.961" y="932.9666">model</text><text fill="#000000" font-family="sans-serif" font-size="11.2" lengthAdjust="spacing" textLength="23.2" x="151.961" y="946.1573">type</text><text fill="#000000" font-family="sans-serif" font-size="11.2" lengthAdjust="spacing" textLength="21.6" x="151.961" y="959.3479">tare</text><text fill="#000000" font-family="sans-serif" font-size="11.2" lengthAdjust="spacing" textLength="68" x="151.961" y="972.5385">grossWeight</text><text fill="#000000" font-family="sans-serif" font-size="11.2" lengthAdjust="spacing" textLength="57.6" x="151.961" y="985.7291">currentKm</text><text fill="#000000" font-family="sans-serif" font-size="11.2" lengthAdjust="spacing" textLength="67.2" x="151.961" y="998.9198">registerDate</text><text fill="#000000" font-family="sans-serif" font-size="11.2" lengthAdjust="spacing" textLength="84.8" x="151.961" y="1012.1104">acquisitionDate</text><text fill="#000000" font-family="sans-serif" font-size="11.2" lengthAdjust="spacing" textLength="127.2" x="151.961" y="1025.301">maintenanceFrequency</text></g><!--class Equipment--><g id="elem_Equipment"><rect codeLine="59" fill="#F1F1F1" height="53.9719" id="Equipment" rx="2" ry="2" style="stroke:#181818;stroke-width:0.4000000000000001;" width="231.2" x="199.961" y="1092.4626"/><text fill="#000000" font-family="sans-serif" font-size="11.2" lengthAdjust="spacing" textLength="59.2" x="285.961" y="1107.2908">Equipment</text><line style="stroke:#181818;stroke-width:0.4000000000000001;" x1="200.761" x2="430.361" y1="1113.6533" y2="1113.6533"/><text fill="#000000" font-family="sans-serif" font-size="11.2" lengthAdjust="spacing" textLength="190.4" x="204.761" y="1127.6814">equipmentName - to be confirmed</text><text fill="#000000" font-family="sans-serif" font-size="11.2" lengthAdjust="spacing" textLength="221.6" x="204.761" y="1140.872">equipmentDescription - to be confirmed</text></g><!--class Calendar--><g id="elem_Calendar"><rect codeLine="64" fill="#F1F1F1" height="40.7813" id="Calendar" rx="2" ry="2" style="stroke:#181818;stroke-width:0.4000000000000001;" width="86.4" x="273.161" y="1195.2306"/><text fill="#000000" font-family="sans-serif" font-size="11.2" lengthAdjust="spacing" textLength="49.6" x="291.561" y="1210.0588">Calendar</text><line style="stroke:#181818;stroke-width:0.4000000000000001;" x1="273.961" x2="358.761" y1="1216.4213" y2="1216.4213"/><text fill="#000000" font-family="sans-serif" font-size="11.2" lengthAdjust="spacing" textLength="76.8" x="277.961" y="1230.4494">pendingTasks</text></g><!--class Tasks--><g id="elem_Tasks"><rect codeLine="69" fill="#F1F1F1" height="53.9719" id="Tasks" rx="2" ry="2" style="stroke:#181818;stroke-width:0.4000000000000001;" width="94.4" x="177.961" y="356.3106"/><text fill="#000000" font-family="sans-serif" font-size="11.2" lengthAdjust="spacing" textLength="31.2" x="209.561" y="371.1387">Tasks</text><line style="stroke:#181818;stroke-width:0.4000000000000001;" x1="178.761" x2="271.561" y1="377.5012" y2="377.5012"/><text fill="#000000" font-family="sans-serif" font-size="11.2" lengthAdjust="spacing" textLength="52" x="182.761" y="391.5294">reference</text><text fill="#000000" font-family="sans-serif" font-size="11.2" lengthAdjust="spacing" textLength="84.8" x="182.761" y="404.72">taskDescription</text></g><!--class Teams--><g id="elem_Teams"><rect codeLine="75" fill="#F1F1F1" height="40.7813" id="Teams" rx="2" ry="2" style="stroke:#181818;stroke-width:0.4000000000000001;" width="87.2" x="363.161" y="930.7186"/><text fill="#000000" font-family="sans-serif" font-size="11.2" lengthAdjust="spacing" textLength="36" x="388.761" y="945.5468">Teams</text><line style="stroke:#181818;stroke-width:0.4000000000000001;" x1="363.961" x2="449.561" y1="951.9093" y2="951.9093"/><text fill="#000000" font-family="sans-serif" font-size="11.2" lengthAdjust="spacing" textLength="77.6" x="367.961" y="965.9374">teamMembers</text></g><!--class Parks--><g id="elem_Parks"><rect codeLine="79" fill="#F1F1F1" height="40.7813" id="Parks" rx="2" ry="2" style="stroke:#181818;stroke-width:0.4000000000000001;" width="53.6" x="372.761" y="498.2706"/><text fill="#000000" font-family="sans-serif" font-size="11.2" lengthAdjust="spacing" textLength="29.6" x="384.761" y="513.0988">Parks</text><line style="stroke:#181818;stroke-width:0.4000000000000001;" x1="373.561" x2="425.561" y1="519.4613" y2="519.4613"/><text fill="#000000" font-family="sans-serif" font-size="11.2" lengthAdjust="spacing" textLength="44" x="377.561" y="533.4894">location</text></g><!--class Portal--><g id="elem_Portal"><rect codeLine="83" fill="#F1F1F1" height="40.7813" id="Portal" rx="2" ry="2" style="stroke:#181818;stroke-width:0.4000000000000001;" width="76.8" x="589.161" y="291.5346"/><text fill="#000000" font-family="sans-serif" font-size="11.2" lengthAdjust="spacing" textLength="32" x="611.561" y="306.3628">Portal</text><line style="stroke:#181818;stroke-width:0.4000000000000001;" x1="589.961" x2="665.161" y1="312.7253" y2="312.7253"/><text fill="#000000" font-family="sans-serif" font-size="11.2" lengthAdjust="spacing" textLength="67.2" x="593.961" y="326.7534">httpAddress</text></g><!--class User--><g id="elem_User"><rect codeLine="87" fill="#F1F1F1" height="67.1625" id="User" rx="2" ry="2" style="stroke:#181818;stroke-width:0.4000000000000001;" width="62.4" x="512.361" y="485.0786"/><text fill="#000000" font-family="sans-serif" font-size="11.2" lengthAdjust="spacing" textLength="24.8" x="531.161" y="499.9068">User</text><line style="stroke:#181818;stroke-width:0.4000000000000001;" x1="513.161" x2="573.961" y1="506.2693" y2="506.2693"/><text fill="#000000" font-family="sans-serif" font-size="11.2" lengthAdjust="spacing" textLength="30.4" x="517.161" y="520.2974">name</text><text fill="#000000" font-family="sans-serif" font-size="11.2" lengthAdjust="spacing" textLength="29.6" x="517.161" y="533.488">email</text><text fill="#000000" font-family="sans-serif" font-size="11.2" lengthAdjust="spacing" textLength="52.8" x="517.161" y="546.6786">password</text></g><!--class Reports--><g id="elem_Reports"><rect codeLine="93" fill="#F1F1F1" height="67.1625" id="Reports" rx="2" ry="2" style="stroke:#181818;stroke-width:0.4000000000000001;" width="47.2" x="540.761" y="137.9746"/><text fill="#000000" font-family="sans-serif" font-size="11.2" lengthAdjust="spacing" textLength="42.4" x="543.161" y="152.8028">Reports</text><line style="stroke:#181818;stroke-width:0.4000000000000001;" x1="541.561" x2="587.161" y1="159.1653" y2="159.1653"/><text fill="#000000" font-family="sans-serif" font-size="11.2" lengthAdjust="spacing" textLength="23.2" x="545.561" y="173.1934">type</text><text fill="#000000" font-family="sans-serif" font-size="11.2" lengthAdjust="spacing" textLength="24" x="545.561" y="186.384">date</text><text fill="#000000" font-family="sans-serif" font-size="11.2" lengthAdjust="spacing" textLength="24.8" x="545.561" y="199.5746">park</text></g><!--class Comments--><g id="elem_Comments"><rect codeLine="100" fill="#F1F1F1" height="40.7813" id="Comments" rx="2" ry="2" style="stroke:#181818;stroke-width:0.4000000000000001;" width="123.2" x="361.961" y="35.5906"/><text fill="#000000" font-family="sans-serif" font-size="11.2" lengthAdjust="spacing" textLength="59.2" x="393.961" y="50.4188">Comments</text><line style="stroke:#181818;stroke-width:0.4000000000000001;" x1="362.761" x2="484.361" y1="56.7813" y2="56.7813"/><text fill="#000000" font-family="sans-serif" font-size="11.2" lengthAdjust="spacing" textLength="113.6" x="366.761" y="70.8094">commentDescription</text></g><!--class ReportFaults--><g id="elem_ReportFaults"><rect codeLine="104" fill="#F1F1F1" height="40.7813" id="ReportFaults" rx="2" ry="2" style="stroke:#181818;stroke-width:0.4000000000000001;" width="102.4" x="513.161" y="35.5906"/><text fill="#000000" font-family="sans-serif" font-size="11.2" lengthAdjust="spacing" textLength="69.6" x="529.561" y="50.4188">ReportFaults</text><line style="stroke:#181818;stroke-width:0.4000000000000001;" x1="513.961" x2="614.761" y1="56.7813" y2="56.7813"/><text fill="#000000" font-family="sans-serif" font-size="11.2" lengthAdjust="spacing" textLength="92.8" x="517.961" y="70.8094">faultsDescription</text></g><!--class Malfunctions--><g id="elem_Malfunctions"><rect codeLine="108" fill="#F1F1F1" height="40.7813" id="Malfunctions" rx="2" ry="2" style="stroke:#181818;stroke-width:0.4000000000000001;" width="137.6" x="643.561" y="35.5906"/><text fill="#000000" font-family="sans-serif" font-size="11.2" lengthAdjust="spacing" textLength="70.4" x="677.161" y="50.4188">Malfunctions</text><line style="stroke:#181818;stroke-width:0.4000000000000001;" x1="644.361" x2="780.361" y1="56.7813" y2="56.7813"/><text fill="#000000" font-family="sans-serif" font-size="11.2" lengthAdjust="spacing" textLength="128" x="648.361" y="70.8094">malfunctionDescription</text></g><!--link Employee to Manager--><g id="link_Employee_Manager"><path codeLine="114" d="M731.177,686.9826 C705.617,709.3746 668.993,741.4706 645.537,762.0226 " fill="none" id="Employee-Manager" style="stroke:#181818;stroke-width:0.8000000000000002;"/><polygon fill="#000000" points="698.5695,722.4787,691.5776,725.4792,694.6766,729.0158,698.5695,722.4787" style="stroke:#000000;stroke-width:0.8000000000000002;"/><text fill="#000000" font-family="sans-serif" font-size="10.4" lengthAdjust="spacing" textLength="17.6" x="702.761" y="729.0453">is a</text><text fill="#000000" font-family="sans-serif" font-size="10.4" lengthAdjust="spacing" textLength="17.6" x="707.5233" y="688.3037">1..*</text><text fill="#000000" font-family="sans-serif" font-size="10.4" lengthAdjust="spacing" textLength="17.6" x="631.169" y="753.9181">1..*</text></g><!--link Portal to Manager--><g id="link_Portal_Manager"><path codeLine="115" d="M628.369,332.6066 C629.313,357.6946 630.761,402.1826 630.761,440.2866 C630.761,440.2866 630.761,440.2866 630.761,661.4146 C630.761,696.9666 627.257,738.2946 624.881,762.1666 " fill="none" id="Portal-Manager" style="stroke:#181818;stroke-width:0.8000000000000002;"/><polygon fill="#000000" points="634.7935,514.779,632.3837,521.9957,637.0858,522.0339,634.7935,514.779" style="stroke:#000000;stroke-width:0.8000000000000002;"/><text fill="#000000" font-family="sans-serif" font-size="10.4" lengthAdjust="spacing" textLength="44.8" x="641.961" y="522.7093">manages</text><text fill="#000000" font-family="sans-serif" font-size="10.4" lengthAdjust="spacing" textLength="6.4" x="621.4159" y="348.8601">1</text><text fill="#000000" font-family="sans-serif" font-size="10.4" lengthAdjust="spacing" textLength="6.4" x="618.2178" y="753.7643">1</text></g><!--link Manager to Job--><g id="link_Manager_Job"><path codeLine="116" d="M630.121,803.3986 C649.497,855.0066 702.409,992.1906 731.561,1030.8626 C749.569,1054.7586 775.297,1076.3186 796.857,1092.0946 " fill="none" id="Manager-Job" style="stroke:#181818;stroke-width:0.8000000000000002;"/><polygon fill="#000000" points="737.5615,954.6986,735.9785,947.2567,731.9066,949.6084,737.5615,954.6986" style="stroke:#000000;stroke-width:0.8000000000000002;"/><text fill="#000000" font-family="sans-serif" font-size="10.4" lengthAdjust="spacing" textLength="36" x="742.761" y="955.1653">creates</text><text fill="#000000" font-family="sans-serif" font-size="10.4" lengthAdjust="spacing" textLength="6.4" x="632.563" y="819.6373">1</text><text fill="#000000" font-family="sans-serif" font-size="10.4" lengthAdjust="spacing" textLength="17.6" x="769.8966" y="1083.8149">1..*</text></g><!--link Manager to Skill--><g id="link_Manager_Skill"><path codeLine="117" d="M643.825,803.5346 C658.665,816.9506 679.409,834.4786 699.561,847.3666 C720.465,860.7266 729.225,857.7426 749.961,871.3666 C773.297,886.6946 796.977,907.6066 814.241,924.0546 " fill="none" id="Manager-Skill" style="stroke:#181818;stroke-width:0.8000000000000002;"/><polygon fill="#000000" points="706.8268,843.0005,702.2765,836.9027,699.5613,840.7419,706.8268,843.0005" style="stroke:#000000;stroke-width:0.8000000000000002;"/><text fill="#000000" font-family="sans-serif" font-size="10.4" lengthAdjust="spacing" textLength="36" x="710.761" y="844.6213">creates</text><text fill="#000000" font-family="sans-serif" font-size="10.4" lengthAdjust="spacing" textLength="6.4" x="641.3328" y="819.4688">1</text><text fill="#000000" font-family="sans-serif" font-size="10.4" lengthAdjust="spacing" textLength="4.8" x="803.8261" y="915.6255">*</text></g><!--link Manager to Calendar--><g id="link_Manager_Calendar"><path codeLine="118" d="M626.673,803.4386 C634.289,847.5746 646.937,955.8466 605.161,1030.8626 C552.081,1126.1666 426.713,1179.3586 359.961,1201.8466 " fill="none" id="Manager-Calendar" style="stroke:#181818;stroke-width:0.8000000000000002;"/><polygon fill="#000000" points="590.1358,1065.1108,596.115,1060.4057,592.2075,1057.7898,590.1358,1065.1108" style="stroke:#000000;stroke-width:0.8000000000000002;"/><text fill="#000000" font-family="sans-serif" font-size="10.4" lengthAdjust="spacing" textLength="44.8" x="599.561" y="1065.7173">manages</text><text fill="#000000" font-family="sans-serif" font-size="10.4" lengthAdjust="spacing" textLength="6.4" x="620.4377" y="819.6866">1</text><text fill="#000000" font-family="sans-serif" font-size="10.4" lengthAdjust="spacing" textLength="6.4" x="365.9573" y="1197.3836">1</text></g><!--link Manager to Equipment--><g id="link_Manager_Equipment"><path codeLine="119" d="M606.993,803.5346 C587.417,828.3426 556.305,867.8546 553.961,871.3666 C508.841,939.0066 521.241,972.7666 464.361,1030.8626 C439.289,1056.4706 405.201,1077.3026 375.977,1092.2306 " fill="none" id="Manager-Equipment" style="stroke:#181818;stroke-width:0.8000000000000002;"/><polygon fill="#000000" points="555.4619,954.358,561.8186,950.1771,558.1471,947.2392,555.4619,954.358" style="stroke:#000000;stroke-width:0.8000000000000002;"/><text fill="#000000" font-family="sans-serif" font-size="10.4" lengthAdjust="spacing" textLength="36" x="565.161" y="955.1653">creates</text><text fill="#000000" font-family="sans-serif" font-size="10.4" lengthAdjust="spacing" textLength="6.4" x="596.4438" y="819.4688">1</text><text fill="#000000" font-family="sans-serif" font-size="10.4" lengthAdjust="spacing" textLength="4.8" x="382.5989" y="1083.77">*</text></g><!--link Manager to Vehicle--><g id="link_Manager_Vehicle"><path codeLine="120" d="M596.041,786.0866 C551.841,790.9506 461.361,803.9106 390.761,833.7666 C353.329,849.5906 315.345,873.6706 284.353,895.8466 " fill="none" id="Manager-Vehicle" style="stroke:#181818;stroke-width:0.8000000000000002;"/><polygon fill="#000000" points="390.9881,842.0195,398.5943,841.8336,397.0324,837.3983,390.9881,842.0195" style="stroke:#000000;stroke-width:0.8000000000000002;"/><text fill="#000000" font-family="sans-serif" font-size="10.4" lengthAdjust="spacing" textLength="86.4" x="401.961" y="844.6213">creates/manages</text><text fill="#000000" font-family="sans-serif" font-size="10.4" lengthAdjust="spacing" textLength="6.4" x="583.47" y="783.6112">1</text><text fill="#000000" font-family="sans-serif" font-size="10.4" lengthAdjust="spacing" textLength="4.8" x="290.4711" y="888.6467">*</text></g><!--link Tasks to Manager--><g id="link_Tasks_Manager"><path codeLine="121" d="M272.641,384.4466 C318.329,387.1346 387.081,397.6386 433.161,434.2866 C484.169,474.8546 467.977,507.9906 498.761,565.4306 C538.153,638.9346 588.417,724.3426 610.929,762.1826 " fill="none" id="Tasks-Manager" style="stroke:#181818;stroke-width:0.8000000000000002;"/><polygon fill="#000000" points="520.0925,593.3751,523.1685,600.334,526.6714,597.197,520.0925,593.3751" style="stroke:#000000;stroke-width:0.8000000000000002;"/><text fill="#000000" font-family="sans-serif" font-size="10.4" lengthAdjust="spacing" textLength="36" x="529.961" y="600.2853">creates</text><text fill="#000000" font-family="sans-serif" font-size="10.4" lengthAdjust="spacing" textLength="4.8" x="278.7201" y="381.9254">*</text><text fill="#000000" font-family="sans-serif" font-size="10.4" lengthAdjust="spacing" textLength="6.4" x="600.865" y="753.7842">1</text></g><!--link Manager to Teams--><g id="link_Manager_Teams"><path codeLine="122" d="M596.161,792.1906 C572.729,800.5506 538.377,814.7666 512.361,833.7666 C474.097,861.7026 439.193,905.3026 420.673,930.5026 " fill="none" id="Manager-Teams" style="stroke:#181818;stroke-width:0.8000000000000002;"/><polygon fill="#000000" points="513.2195,843.1669,520.358,840.5342,517.4472,836.8411,513.2195,843.1669" style="stroke:#000000;stroke-width:0.8000000000000002;"/><text fill="#000000" font-family="sans-serif" font-size="10.4" lengthAdjust="spacing" textLength="44.8" x="523.561" y="844.6213">manages</text><text fill="#000000" font-family="sans-serif" font-size="10.4" lengthAdjust="spacing" textLength="6.4" x="583.6148" y="805.4491">1</text><text fill="#000000" font-family="sans-serif" font-size="10.4" lengthAdjust="spacing" textLength="4.8" x="418.6791" y="922.1022">*</text></g><!--link User to Parks--><g id="link_User_Parks"><path codeLine="127" d="M512.081,518.6546 C486.545,518.6546 450.921,518.6546 426.649,518.6546 " fill="none" id="User-Parks" style="stroke:#181818;stroke-width:0.8000000000000002;"/><polygon fill="#000000" points="451.761,509.5788,458.9971,511.93,458.9971,507.2277,451.761,509.5788" style="stroke:#000000;stroke-width:0.8000000000000002;"/><text fill="#000000" font-family="sans-serif" font-size="10.4" lengthAdjust="spacing" textLength="23.2" x="462.961" y="513.5093">uses</text><text fill="#000000" font-family="sans-serif" font-size="10.4" lengthAdjust="spacing" textLength="17.6" x="488.3131" y="515.8088">1..*</text><text fill="#000000" font-family="sans-serif" font-size="10.4" lengthAdjust="spacing" textLength="4.8" x="432.7309" y="515.4961">*</text></g><!--link Reports to User--><g id="link_Reports_User"><path codeLine="128" d="M552.369,205.4786 C544.473,229.1026 534.865,261.8226 530.761,291.5346 C521.329,359.7586 530.777,440.4706 537.697,484.7106 " fill="none" id="Reports-User" style="stroke:#181818;stroke-width:0.8000000000000002;"/><polygon fill="#000000" points="534.9709,308.0564,532.2433,315.1591,536.9391,315.4058,534.9709,308.0564" style="stroke:#000000;stroke-width:0.8000000000000002;"/><text fill="#000000" font-family="sans-serif" font-size="10.4" lengthAdjust="spacing" textLength="32.8" x="541.961" y="315.9813">makes</text><text fill="#000000" font-family="sans-serif" font-size="10.4" lengthAdjust="spacing" textLength="4.8" x="545.3652" y="221.6655">*</text><text fill="#000000" font-family="sans-serif" font-size="10.4" lengthAdjust="spacing" textLength="4.8" x="531.5799" y="476.4182">*</text></g><!--link Comments to Reports--><g id="link_Comments_Reports"><path codeLine="130" d="M448.089,76.6306 C474.089,97.6786 514.873,130.6946 540.585,151.5106 " fill="none" id="Comments-Reports" style="stroke:#181818;stroke-width:0.8000000000000002;"/><polygon fill="#000000" points="501.07,109.8157,496.9252,103.4353,493.9665,107.0901,501.07,109.8157" style="stroke:#000000;stroke-width:0.8000000000000002;"/><text fill="#000000" font-family="sans-serif" font-size="10.4" lengthAdjust="spacing" textLength="15.2" x="505.161" y="111.2293">are</text><text fill="#000000" font-family="sans-serif" font-size="10.4" lengthAdjust="spacing" textLength="6.4" x="446.6211" y="92.8767">1</text><text fill="#000000" font-family="sans-serif" font-size="10.4" lengthAdjust="spacing" textLength="6.4" x="527.9468" y="143.5711">1</text></g><!--link ReportFaults to Reports--><g id="link_ReportFaults_Reports"><path codeLine="131" d="M564.361,76.6306 C564.361,93.4706 564.361,117.9666 564.361,137.7506 " fill="none" id="ReportFaults-Reports" style="stroke:#181818;stroke-width:0.8000000000000002;"/><polygon fill="#000000" points="568.361,111.2988,570.7122,104.0628,566.0099,104.0628,568.361,111.2988" style="stroke:#000000;stroke-width:0.8000000000000002;"/><text fill="#000000" font-family="sans-serif" font-size="10.4" lengthAdjust="spacing" textLength="15.2" x="575.561" y="111.2293">are</text><text fill="#000000" font-family="sans-serif" font-size="10.4" lengthAdjust="spacing" textLength="6.4" x="557.221" y="92.8767">1</text><text fill="#000000" font-family="sans-serif" font-size="10.4" lengthAdjust="spacing" textLength="6.4" x="557.451" y="129.4811">1</text></g><!--link Malfunctions to Reports--><g id="link_Malfunctions_Reports"><path codeLine="132" d="M686.585,76.6306 C658.841,97.9986 615.073,131.6946 588.137,152.4466 " fill="none" id="Malfunctions-Reports" style="stroke:#181818;stroke-width:0.8000000000000002;"/><polygon fill="#000000" points="652.3919,109.7394,659.5595,107.1871,656.6904,103.4616,652.3919,109.7394" style="stroke:#000000;stroke-width:0.8000000000000002;"/><text fill="#000000" font-family="sans-serif" font-size="10.4" lengthAdjust="spacing" textLength="15.2" x="662.761" y="111.2293">are</text><text fill="#000000" font-family="sans-serif" font-size="10.4" lengthAdjust="spacing" textLength="6.4" x="673.4843" y="92.8767">1</text><text fill="#000000" font-family="sans-serif" font-size="10.4" lengthAdjust="spacing" textLength="6.4" x="594.3752" y="144.7235">1</text></g><!--link Teams to Parks--><g id="link_Teams_Parks"><path codeLine="134" d="M394.657,930.6706 C382.953,910.5586 365.865,878.0066 357.961,847.3666 C315.993,684.6466 344.657,749.8706 350.761,718.1906 C352.937,706.9106 356.961,705.1666 360.361,694.1906 C377.441,639.1106 390.345,572.1106 396.161,539.3826 " fill="none" id="Teams-Parks" style="stroke:#181818;stroke-width:0.8000000000000002;"/><polygon fill="#000000" points="354.7764,721.1149,352.3975,728.3419,357.0997,728.3599,354.7764,721.1149" style="stroke:#000000;stroke-width:0.8000000000000002;"/><text fill="#000000" font-family="sans-serif" font-size="10.4" lengthAdjust="spacing" textLength="88.8" x="361.961" y="729.0453">performs tasks in</text><text fill="#000000" font-family="sans-serif" font-size="10.4" lengthAdjust="spacing" textLength="6.4" x="384.3354" y="921.9822">1</text><text fill="#000000" font-family="sans-serif" font-size="10.4" lengthAdjust="spacing" textLength="6.4" x="388.2348" y="555.6454">1</text></g><!--link Teams to Tasks--><g id="link_Teams_Tasks"><path codeLine="135" d="M382.257,930.5186 C349.737,901.8466 296.361,845.3746 296.361,783.5826 C296.361,517.8546 296.361,517.8546 296.361,517.8546 C296.361,476.8226 269.921,436.1266 249.265,410.5986 " fill="none" id="Teams-Tasks" style="stroke:#181818;stroke-width:0.8000000000000002;"/><polygon fill="#000000" points="299.3698,656.8636,298.8852,664.4566,303.4408,663.2913,299.3698,656.8636" style="stroke:#000000;stroke-width:0.8000000000000002;"/><text fill="#000000" font-family="sans-serif" font-size="10.4" lengthAdjust="spacing" textLength="45.6" x="307.561" y="664.6693">performs</text><text fill="#000000" font-family="sans-serif" font-size="10.4" lengthAdjust="spacing" textLength="6.4" x="369.1042" y="922.1221">1</text><text fill="#000000" font-family="sans-serif" font-size="10.4" lengthAdjust="spacing" textLength="6.4" x="246.7192" y="426.8163">1</text></g><!--link Parks to Organization--><g id="link_Parks_Organization"><path codeLine="138" d="M426.641,501.6386 C456.697,483.8706 507.297,457.2226 555.161,447.2146 C616.489,434.3906 637.625,444.4626 693.961,471.8866 C701.313,475.4626 708.745,479.8226 715.841,484.4226 " fill="none" id="Parks-Organization" style="stroke:#181818;stroke-width:0.8000000000000002;"/><polygon fill="#000000" points="555.1681,441.4485,562.5311,443.3655,562.2517,438.6716,555.1681,441.4485" style="stroke:#000000;stroke-width:0.8000000000000002;"/><text fill="#000000" font-family="sans-serif" font-size="10.4" lengthAdjust="spacing" textLength="44.8" x="566.361" y="445.1413">manages</text><text fill="#000000" font-family="sans-serif" font-size="10.4" lengthAdjust="spacing" textLength="4.8" x="432.7213" y="494.9705">*</text><text fill="#000000" font-family="sans-serif" font-size="10.4" lengthAdjust="spacing" textLength="6.4" x="703.0286" y="477.0873">1</text></g><!--link Organization to Employee--><g id="link_Organization_Employee"><path codeLine="139" d="M760.361,565.8066 C760.361,585.7666 760.361,608.6466 760.361,626.8386 " fill="none" id="Organization-Employee" style="stroke:#181818;stroke-width:0.8000000000000002;"/><polygon fill="#000000" points="764.361,600.3548,766.7122,593.1188,762.0099,593.1188,764.361,600.3548" style="stroke:#000000;stroke-width:0.8000000000000002;"/><text fill="#000000" font-family="sans-serif" font-size="10.4" lengthAdjust="spacing" textLength="42.4" x="771.561" y="600.2853">employs</text><text fill="#000000" font-family="sans-serif" font-size="10.4" lengthAdjust="spacing" textLength="6.4" x="753.591" y="582.0209">1</text><text fill="#000000" font-family="sans-serif" font-size="10.4" lengthAdjust="spacing" textLength="17.6" x="741.3035" y="618.3264">1..*</text></g><!--link Employee to Collaborator--><g id="link_Employee_Collaborator"><path codeLine="142" d="M774.137,694.3586 C782.177,713.5986 792.193,737.5586 799.713,755.5586 " fill="none" id="Employee-Collaborator" style="stroke:#181818;stroke-width:0.8000000000000002;"/><polygon fill="#000000" points="793.9034,728.8055,793.2825,721.2224,788.9439,723.0356,793.9034,728.8055" style="stroke:#000000;stroke-width:0.8000000000000002;"/><text fill="#000000" font-family="sans-serif" font-size="10.4" lengthAdjust="spacing" textLength="17.6" x="799.561" y="729.0453">is a</text><text fill="#000000" font-family="sans-serif" font-size="10.4" lengthAdjust="spacing" textLength="17.6" x="757.3301" y="710.7677">1..*</text><text fill="#000000" font-family="sans-serif" font-size="10.4" lengthAdjust="spacing" textLength="17.6" x="778.2054" y="747.098">1..*</text></g><!--link Collaborator to Job--><g id="link_Collaborator_Job"><path codeLine="144" d="M848.337,789.3106 C874.521,795.4786 907.649,808.1106 924.361,833.7666 C935.185,850.3826 1032.537,699.8946 901.161,1030.8626 C892.113,1053.6546 875.753,1075.9346 861.833,1092.3426 " fill="none" id="Collaborator-Job" style="stroke:#181818;stroke-width:0.8000000000000002;"/><polygon fill="#000000" points="962.139,955.2309,964.1659,947.8974,959.4682,948.1066,962.139,955.2309" style="stroke:#000000;stroke-width:0.8000000000000002;"/><text fill="#000000" font-family="sans-serif" font-size="10.4" lengthAdjust="spacing" textLength="26.4" x="969.161" y="955.1653">has a</text><text fill="#000000" font-family="sans-serif" font-size="10.4" lengthAdjust="spacing" textLength="6.4" x="854.326" y="787.462">1</text><text fill="#000000" font-family="sans-serif" font-size="10.4" lengthAdjust="spacing" textLength="6.4" x="859.6603" y="1083.904">1</text></g><!--link Collaborator to Skill--><g id="link_Collaborator_Skill"><path codeLine="145" d="M833.281,810.1506 C838.145,817.3666 842.601,825.4946 845.161,833.7666 C854.393,863.5506 850.777,899.6786 846.433,923.7346 " fill="none" id="Collaborator-Skill" style="stroke:#181818;stroke-width:0.8000000000000002;"/><polygon fill="#000000" points="852.0211,844.6643,853.5243,837.2058,848.8533,837.7467,852.0211,844.6643" style="stroke:#000000;stroke-width:0.8000000000000002;"/><text fill="#000000" font-family="sans-serif" font-size="10.4" lengthAdjust="spacing" textLength="58.4" x="858.761" y="844.6213">has a set of</text><text fill="#000000" font-family="sans-serif" font-size="10.4" lengthAdjust="spacing" textLength="6.4" x="830.3224" y="826.1722">1</text><text fill="#000000" font-family="sans-serif" font-size="10.4" lengthAdjust="spacing" textLength="4.8" x="842.333" y="915.4503">*</text></g><!--link Collaborator to Teams--><g id="link_Collaborator_Teams"><path codeLine="146" d="M793.113,810.0306 C782.537,823.6066 767.833,839.0066 750.761,847.3666 C649.401,896.9906 601.729,826.9906 497.961,871.3666 C467.345,884.4546 439.577,911.7426 422.929,930.5346 " fill="none" id="Collaborator-Teams" style="stroke:#181818;stroke-width:0.8000000000000002;"/><polygon fill="#000000" points="770.1575,841.929,777.7659,841.9248,776.3104,837.4535,770.1575,841.929" style="stroke:#000000;stroke-width:0.8000000000000002;"/><text fill="#000000" font-family="sans-serif" font-size="10.4" lengthAdjust="spacing" textLength="50.4" x="781.161" y="844.6213">integrates</text><text fill="#000000" font-family="sans-serif" font-size="10.4" lengthAdjust="spacing" textLength="17.6" x="770.6367" y="826.2394">1..*</text><text fill="#000000" font-family="sans-serif" font-size="10.4" lengthAdjust="spacing" textLength="6.4" x="427.65" y="922.142">1</text></g><!--link Vehicle to Tasks--><g id="link_Vehicle_Tasks"><path codeLine="150" d="M195.409,871.0466 C181.233,805.6786 166.201,710.4546 174.761,627.0306 C182.961,547.1186 205.961,454.7106 217.849,410.4226 " fill="none" id="Vehicle-Tasks" style="stroke:#181818;stroke-width:0.8000000000000002;"/><polygon fill="#000000" points="178.9557,656.7436,176.2552,663.8567,180.9519,664.0855,178.9557,656.7436" style="stroke:#000000;stroke-width:0.8000000000000002;"/><text fill="#000000" font-family="sans-serif" font-size="10.4" lengthAdjust="spacing" textLength="75.2" x="185.961" y="664.6693">is attributed to</text><text fill="#000000" font-family="sans-serif" font-size="10.4" lengthAdjust="spacing" textLength="17.6" x="175.6829" y="862.7898">1..*</text><text fill="#000000" font-family="sans-serif" font-size="10.4" lengthAdjust="spacing" textLength="6.4" x="209.4452" y="426.8156">1</text></g><!--link Tasks to Equipment--><g id="link_Tasks_Equipment"><path codeLine="152" d="M177.745,404.7506 C136.321,426.3666 82.761,464.6066 82.761,517.8546 C82.761,517.8546 82.761,517.8546 82.761,951.9106 C82.761,1023.6226 156.673,1067.4626 221.209,1092.0626 " fill="none" id="Tasks-Equipment" style="stroke:#181818;stroke-width:0.8000000000000002;"/><polygon fill="#000000" points="86.5086,721.1228,84.6188,728.4928,89.3117,728.1961,86.5086,721.1228" style="stroke:#000000;stroke-width:0.8000000000000002;"/><text fill="#000000" font-family="sans-serif" font-size="10.4" lengthAdjust="spacing" textLength="75.2" x="93.961" y="729.0453">is attributed to</text><text fill="#000000" font-family="sans-serif" font-size="10.4" lengthAdjust="spacing" textLength="6.4" x="165.1762" y="404.7039">1</text><text fill="#000000" font-family="sans-serif" font-size="10.4" lengthAdjust="spacing" textLength="17.6" x="183.9457" y="1083.7768">1..*</text></g><!--link Tasks to Calendar--><g id="link_Tasks_Calendar"><path codeLine="154" d="M177.577,392.0386 C114.417,405.6066 10.761,439.7666 10.761,517.8546 C10.761,517.8546 10.761,517.8546 10.761,1120.2466 C10.761,1174.4626 188.529,1200.9986 272.897,1210.5346 " fill="none" id="Tasks-Calendar" style="stroke:#181818;stroke-width:0.8000000000000002;"/><polygon fill="#000000" points="14.2983,778.9337,12.8,786.3932,17.4707,785.8492,14.2983,778.9337" style="stroke:#000000;stroke-width:0.8000000000000002;"/><text fill="#000000" font-family="sans-serif" font-size="10.4" lengthAdjust="spacing" textLength="17.6" x="21.961" y="786.8373">has</text><text fill="#000000" font-family="sans-serif" font-size="10.4" lengthAdjust="spacing" textLength="4.8" x="166.6852" y="390.4426">*</text><text fill="#000000" font-family="sans-serif" font-size="10.4" lengthAdjust="spacing" textLength="6.4" x="260.2265" y="1207.1162">1</text></g><!--link Tasks to Parks--><g id="link_Tasks_Parks"><path codeLine="157" d="M272.649,406.5906 C287.473,414.4946 303.505,423.9906 317.161,434.2866 C342.377,453.2946 367.265,479.9266 382.977,497.9746 " fill="none" id="Tasks-Parks" style="stroke:#181818;stroke-width:0.8000000000000002;"/><polygon fill="#000000" points="338.6415,443.7624,334.5686,437.3359,331.5691,440.9573,338.6415,443.7624" style="stroke:#000000;stroke-width:0.8000000000000002;"/><text fill="#000000" font-family="sans-serif" font-size="10.4" lengthAdjust="spacing" textLength="83.2" x="342.761" y="445.1413">are performed in</text><text fill="#000000" font-family="sans-serif" font-size="10.4" lengthAdjust="spacing" textLength="17.6" x="278.8055" y="406.5504">1..*</text><text fill="#000000" font-family="sans-serif" font-size="10.4" lengthAdjust="spacing" textLength="17.6" x="359.1897" y="489.5547">1..*</text></g><!--link Reports to Portal--><g id="link_Reports_Portal"><path codeLine="161" d="M579.337,205.2386 C591.497,231.9266 608.233,268.6946 618.457,291.1346 " fill="none" id="Reports-Portal" style="stroke:#181818;stroke-width:0.8000000000000002;"/><polygon fill="#000000" points="601.2189,239.6991,600.3594,232.1393,596.0801,234.0883,601.2189,239.6991" style="stroke:#000000;stroke-width:0.8000000000000002;"/><text fill="#000000" font-family="sans-serif" font-size="10.4" lengthAdjust="spacing" textLength="69.6" x="606.761" y="239.9893">are submitted</text><text fill="#000000" font-family="sans-serif" font-size="10.4" lengthAdjust="spacing" textLength="4.8" x="576.5413" y="221.6375">*</text><text fill="#000000" font-family="sans-serif" font-size="10.4" lengthAdjust="spacing" textLength="6.4" x="609.2117" y="283.0227">1</text></g><!--SRC=[XLLDRzGm4BtdLrYzLAeKOAzxg5HHAW7QKj42vqaosPXrxDHsgBQ8_yxuCyb-G2uxNhzvjjyyZo_DZii1DFIiLrBLdLOzCgj7BAQP0UeTRF7HxWKoZRK5kHLpWEcWKIzSRbaBmc1nEKq9Bj7k1sHAsquLbm9RownYccyxonhkwBYICx9QW34trcfUZHO_rae-ybTaxugEDyXghcjQsySz4cLZYi9oIpkxLJrmoJQgGL4KdePzqLkG_1NS6kntmUYJqACFVe6z7_iAjH-zO6Mu3JD3foJEvf28HV4daNxe1w7sY8U40PO9feJtIWYeb0QhT4pwgIh_I-SMWewGiHkGf7M2cIXFddvq-3JfulkqkX_Tegar7vOvdrGrhPhn59z4VyUEayGnOn1Wvr9K6cJZezxhx29Ntn203i5MAsD-eAkn7zUZrYZjvzwFD6wviQXl8UeDzVF8INtQH_xFrTAY15dZdSRd4MMzdvM04eQUAECsCOtTyLZf75QHMPHikUwnMM9cnpu1dQe60cK3gHG33SZYJs1sne4YoeyZH6EBTCuwgM5sSuKdvYU4FkLOYZVez3KJu05q9XMgXcM57kWkGJ91P-rmqpGQpIp_cyaEEkLEWhmeFJlgLno8CsyfrRD9nQ2RkIlcVkwTZWbVX-59DmNcEnX5XhT-S1Az0T6Eqbi-eVlfhuEKeaXtvMBrvitL1IlBSKXnkgDhnWq3TZt34j3ZBgAGQrh3pPb3L1cQL6IaMxHcjKRIv2oIOFw2dWUMfG-IjywlNNgsxFFpZ1uNBsr6lJr7w_klo_2-_G-hz-byY-xptagAUvXtwvgDncF2_5Kuh1EQmkWlHxKBHDb2QRdL34LjX30Bwvo7BJnp7bQ4I-S1eVXXrmFgLccQiVuYqmDoVGIDMcMe4sBnidXebZOoJx8TOyj3dx8rNL0N1lRyTxPsYkPlIJPtiNXXie5MqRKT1DW95BtRSkxR03LecMgFC-9UGj8g6yHrwgsEFg8lFI6JIoOHtOxJuzwuvaiPKpTF6K7BVsVb_hnKFsQuWxZDXFvy96EiaVD6B2ln-kBJbzhXnLLsKseLBi6CLS-jsyXryHS0]--></g></svg>