<?xml version="1.0" encoding="us-ascii" standalone="no"?><svg xmlns="http://www.w3.org/2000/svg" xmlns:xlink="http://www.w3.org/1999/xlink" contentStyleType="text/css" height="866.4px" preserveAspectRatio="none" style="width:733px;height:866px;background:#FFFFFF;" version="1.1" viewBox="0 0 733 866" width="733.8px" zoomAndPan="magnify"><defs/><g><text fill="#000000" font-family="sans-serif" font-size="8.4" font-weight="bold" lengthAdjust="spacing" textLength="63" x="331.2382" y="14.1211">Domain Model</text><!--class Organization--><g id="elem_Organization"><rect codeLine="12" fill="#F1F1F1" height="70.1578" id="Organization" rx="1.5" ry="1.5" style="stroke:#181818;stroke-width:0.3;" width="66.6" x="639.3764" y="200.051"/><text fill="#000000" font-family="sans-serif" font-size="8.4" lengthAdjust="spacing" textLength="54" x="645.6764" y="211.1721">Organization</text><line style="stroke:#181818;stroke-width:0.3;" x1="639.9764" x2="705.3764" y1="215.9439" y2="215.9439"/><text fill="#000000" font-family="sans-serif" font-size="8.4" lengthAdjust="spacing" textLength="22.8" x="642.9764" y="226.465">name</text><text fill="#000000" font-family="sans-serif" font-size="8.4" lengthAdjust="spacing" textLength="45" x="642.9764" y="236.358">vatNumber</text><text fill="#000000" font-family="sans-serif" font-size="8.4" lengthAdjust="spacing" textLength="31.2" x="642.9764" y="246.251">website</text><text fill="#000000" font-family="sans-serif" font-size="8.4" lengthAdjust="spacing" textLength="59.4" x="642.9764" y="256.1439">phoneNumber</text><text fill="#000000" font-family="sans-serif" font-size="8.4" lengthAdjust="spacing" textLength="22.2" x="642.9764" y="266.0369">email</text></g><!--class Employee--><g id="elem_Employee"><rect codeLine="20" fill="#F1F1F1" height="20.693" id="Employee" rx="1.5" ry="1.5" style="stroke:#181818;stroke-width:0.3;" width="43.2" x="619.8764" y="336.791"/><text fill="#000000" font-family="sans-serif" font-size="8.4" lengthAdjust="spacing" textLength="39.6" x="621.6764" y="347.9121">Employee</text><line style="stroke:#181818;stroke-width:0.3;" x1="620.4764" x2="662.4764" y1="352.6839" y2="352.6839"/></g><!--class Collaborator--><g id="elem_Collaborator"><rect codeLine="24" fill="#F1F1F1" height="119.6227" id="Collaborator" rx="1.5" ry="1.5" style="stroke:#181818;stroke-width:0.3;" width="67.8" x="549.9764" y="403.685"/><text fill="#000000" font-family="sans-serif" font-size="8.4" lengthAdjust="spacing" textLength="52.2" x="557.7764" y="414.8061">Collaborator</text><line style="stroke:#181818;stroke-width:0.3;" x1="550.5764" x2="617.1764" y1="419.5779" y2="419.5779"/><text fill="#000000" font-family="sans-serif" font-size="8.4" lengthAdjust="spacing" textLength="22.8" x="553.5764" y="430.099">name</text><text fill="#000000" font-family="sans-serif" font-size="8.4" lengthAdjust="spacing" textLength="37.8" x="553.5764" y="439.992">birthdate</text><text fill="#000000" font-family="sans-serif" font-size="8.4" lengthAdjust="spacing" textLength="60.6" x="553.5764" y="449.885">admissionDate</text><text fill="#000000" font-family="sans-serif" font-size="8.4" lengthAdjust="spacing" textLength="32.4" x="553.5764" y="459.7779">address</text><text fill="#000000" font-family="sans-serif" font-size="8.4" lengthAdjust="spacing" textLength="60" x="553.5764" y="469.6709">mobileContact</text><text fill="#000000" font-family="sans-serif" font-size="8.4" lengthAdjust="spacing" textLength="54" x="553.5764" y="479.5639">emailContact</text><text fill="#000000" font-family="sans-serif" font-size="8.4" lengthAdjust="spacing" textLength="43.2" x="553.5764" y="489.4568">IDdocType</text><text fill="#000000" font-family="sans-serif" font-size="8.4" lengthAdjust="spacing" textLength="40.8" x="553.5764" y="499.3498">IDnumber</text><text fill="#000000" font-family="sans-serif" font-size="8.4" lengthAdjust="spacing" textLength="13.2" x="553.5764" y="509.2428">job</text><text fill="#000000" font-family="sans-serif" font-size="8.4" lengthAdjust="spacing" textLength="20.4" x="553.5764" y="519.1358">skills</text></g><!--class Manager--><g id="elem_Manager"><rect codeLine="38" fill="#F1F1F1" height="30.5859" id="Manager" rx="1.5" ry="1.5" style="stroke:#181818;stroke-width:0.3;" width="39.6" x="321.0764" y="448.205"/><text fill="#000000" font-family="sans-serif" font-size="8.4" lengthAdjust="spacing" textLength="36" x="322.8764" y="459.3261">Manager</text><line style="stroke:#181818;stroke-width:0.3;" x1="321.6764" x2="360.0764" y1="464.0979" y2="464.0979"/><text fill="#000000" font-family="sans-serif" font-size="8.4" lengthAdjust="spacing" textLength="29.4" x="324.6764" y="474.619">section</text></g><!--class Skill--><g id="elem_Skill"><rect codeLine="42" fill="#F1F1F1" height="40.4789" id="Skill" rx="1.5" ry="1.5" style="stroke:#181818;stroke-width:0.3;" width="70.2" x="515.1764" y="755.117"/><text fill="#000000" font-family="sans-serif" font-size="8.4" lengthAdjust="spacing" textLength="16.8" x="541.8764" y="766.2381">Skill</text><line style="stroke:#181818;stroke-width:0.3;" x1="515.7764" x2="584.7764" y1="771.0099" y2="771.0099"/><text fill="#000000" font-family="sans-serif" font-size="8.4" lengthAdjust="spacing" textLength="39.6" x="518.7764" y="781.531">skillName</text><text fill="#000000" font-family="sans-serif" font-size="8.4" lengthAdjust="spacing" textLength="63" x="518.7764" y="791.424">skillDescription</text></g><!--class Job--><g id="elem_Job"><rect codeLine="47" fill="#F1F1F1" height="40.4789" id="Job" rx="1.5" ry="1.5" style="stroke:#181818;stroke-width:0.3;" width="67.2" x="572.4764" y="618.971"/><text fill="#000000" font-family="sans-serif" font-size="8.4" lengthAdjust="spacing" textLength="13.2" x="599.4764" y="630.0921">Job</text><line style="stroke:#181818;stroke-width:0.3;" x1="573.0764" x2="639.0764" y1="634.8639" y2="634.8639"/><text fill="#000000" font-family="sans-serif" font-size="8.4" lengthAdjust="spacing" textLength="36.6" x="576.0764" y="645.385">jobName</text><text fill="#000000" font-family="sans-serif" font-size="8.4" lengthAdjust="spacing" textLength="60" x="576.0764" y="655.278">jobDescription</text></g><!--class Vehicle--><g id="elem_Vehicle"><rect codeLine="52" fill="#F1F1F1" height="139.4086" id="Vehicle" rx="1.5" ry="1.5" style="stroke:#181818;stroke-width:0.3;" width="88.8" x="49.8764" y="569.507"/><text fill="#000000" font-family="sans-serif" font-size="8.4" lengthAdjust="spacing" textLength="29.4" x="79.5764" y="580.6281">Vehicle</text><line style="stroke:#181818;stroke-width:0.3;" x1="50.4764" x2="138.0764" y1="585.3999" y2="585.3999"/><text fill="#000000" font-family="sans-serif" font-size="8.4" lengthAdjust="spacing" textLength="24" x="53.4764" y="595.921">Brand</text><text fill="#000000" font-family="sans-serif" font-size="8.4" lengthAdjust="spacing" textLength="25.2" x="53.4764" y="605.814">Model</text><text fill="#000000" font-family="sans-serif" font-size="8.4" lengthAdjust="spacing" textLength="19.8" x="53.4764" y="615.707">Type</text><text fill="#000000" font-family="sans-serif" font-size="8.4" lengthAdjust="spacing" textLength="18.6" x="53.4764" y="625.5999">Tare</text><text fill="#000000" font-family="sans-serif" font-size="8.4" lengthAdjust="spacing" textLength="54" x="53.4764" y="635.4929">Gross Weight</text><text fill="#000000" font-family="sans-serif" font-size="8.4" lengthAdjust="spacing" textLength="47.4" x="53.4764" y="645.3859">Current Km</text><text fill="#000000" font-family="sans-serif" font-size="8.4" lengthAdjust="spacing" textLength="54.6" x="53.4764" y="655.2788">Register Date</text><text fill="#000000" font-family="sans-serif" font-size="8.4" lengthAdjust="spacing" textLength="67.2" x="53.4764" y="665.1718">Acquisition Date</text><text fill="#000000" font-family="sans-serif" font-size="8.4" lengthAdjust="spacing" textLength="55.2" x="53.4764" y="675.0648">Plate Number</text><text fill="#000000" font-family="sans-serif" font-size="8.4" lengthAdjust="spacing" textLength="81.6" x="53.4764" y="684.9578">Passengers Number</text><text fill="#000000" font-family="sans-serif" font-size="8.4" lengthAdjust="spacing" textLength="60" x="53.4764" y="694.8507">Doors Number</text><text fill="#000000" font-family="sans-serif" font-size="8.4" lengthAdjust="spacing" textLength="39.6" x="53.4764" y="704.7437">Fuel Type</text></g><!--class Equipment--><g id="elem_Equipment"><rect codeLine="71" fill="#F1F1F1" height="40.4789" id="Equipment" rx="1.5" ry="1.5" style="stroke:#181818;stroke-width:0.3;" width="98.4" x="169.2764" y="618.971"/><text fill="#000000" font-family="sans-serif" font-size="8.4" lengthAdjust="spacing" textLength="44.4" x="196.2764" y="630.0921">Equipment</text><line style="stroke:#181818;stroke-width:0.3;" x1="169.8764" x2="267.0764" y1="634.8639" y2="634.8639"/><text fill="#000000" font-family="sans-serif" font-size="8.4" lengthAdjust="spacing" textLength="67.8" x="172.8764" y="645.385">equipmentName</text><text fill="#000000" font-family="sans-serif" font-size="8.4" lengthAdjust="spacing" textLength="91.2" x="172.8764" y="655.278">equipmentDescription</text></g><!--class Agenda--><g id="elem_Agenda"><rect codeLine="76" fill="#F1F1F1" height="30.5859" id="Agenda" rx="1.5" ry="1.5" style="stroke:#181818;stroke-width:0.3;" width="55.8" x="171.9764" y="832.193"/><text fill="#000000" font-family="sans-serif" font-size="8.4" lengthAdjust="spacing" textLength="31.8" x="183.9764" y="843.3141">Agenda</text><line style="stroke:#181818;stroke-width:0.3;" x1="172.5764" x2="227.1764" y1="848.0859" y2="848.0859"/><text fill="#000000" font-family="sans-serif" font-size="8.4" lengthAdjust="spacing" textLength="48.6" x="175.5764" y="858.607">weeksTasks</text></g><!--class Tasks--><g id="elem_Tasks"><rect codeLine="81" fill="#F1F1F1" height="40.4789" id="Tasks" rx="1.5" ry="1.5" style="stroke:#181818;stroke-width:0.3;" width="70.8" x="205.8764" y="108.425"/><text fill="#000000" font-family="sans-serif" font-size="8.4" lengthAdjust="spacing" textLength="23.4" x="229.5764" y="119.5461">Tasks</text><line style="stroke:#181818;stroke-width:0.3;" x1="206.4764" x2="276.0764" y1="124.3179" y2="124.3179"/><text fill="#000000" font-family="sans-serif" font-size="8.4" lengthAdjust="spacing" textLength="39" x="209.4764" y="134.839">reference</text><text fill="#000000" font-family="sans-serif" font-size="8.4" lengthAdjust="spacing" textLength="63.6" x="209.4764" y="144.732">taskDescription</text></g><!--class PendingTasks--><g id="elem_PendingTasks"><rect codeLine="87" fill="#F1F1F1" height="30.5859" id="PendingTasks" rx="1.5" ry="1.5" style="stroke:#181818;stroke-width:0.3;" width="64.8" x="316.8764" y="832.193"/><text fill="#000000" font-family="sans-serif" font-size="8.4" lengthAdjust="spacing" textLength="57" x="320.7764" y="843.3141">PendingTasks</text><line style="stroke:#181818;stroke-width:0.3;" x1="317.4764" x2="381.0764" y1="848.0859" y2="848.0859"/><text fill="#000000" font-family="sans-serif" font-size="8.4" lengthAdjust="spacing" textLength="57.6" x="320.4764" y="858.607">pendingTasks</text></g><!--class Teams--><g id="elem_Teams"><rect codeLine="91" fill="#F1F1F1" height="30.5859" id="Teams" rx="1.5" ry="1.5" style="stroke:#181818;stroke-width:0.3;" width="65.4" x="465.3764" y="623.921"/><text fill="#000000" font-family="sans-serif" font-size="8.4" lengthAdjust="spacing" textLength="27" x="484.5764" y="635.0421">Teams</text><line style="stroke:#181818;stroke-width:0.3;" x1="465.9764" x2="530.1764" y1="639.8139" y2="639.8139"/><text fill="#000000" font-family="sans-serif" font-size="8.4" lengthAdjust="spacing" textLength="58.2" x="468.9764" y="650.335">teamMembers</text></g><!--class Parks--><g id="elem_Parks"><rect codeLine="95" fill="#F1F1F1" height="30.5859" id="Parks" rx="1.5" ry="1.5" style="stroke:#181818;stroke-width:0.3;" width="40.2" x="535.5764" y="219.833"/><text fill="#000000" font-family="sans-serif" font-size="8.4" lengthAdjust="spacing" textLength="22.2" x="544.5764" y="230.9541">Parks</text><line style="stroke:#181818;stroke-width:0.3;" x1="536.1764" x2="575.1764" y1="235.7259" y2="235.7259"/><text fill="#000000" font-family="sans-serif" font-size="8.4" lengthAdjust="spacing" textLength="33" x="539.1764" y="246.247">location</text></g><!--class Portal--><g id="elem_Portal"><rect codeLine="99" fill="#F1F1F1" height="30.5859" id="Portal" rx="1.5" ry="1.5" style="stroke:#181818;stroke-width:0.3;" width="57.6" x="306.0764" y="288.203"/><text fill="#000000" font-family="sans-serif" font-size="8.4" lengthAdjust="spacing" textLength="24" x="322.8764" y="299.3241">Portal</text><line style="stroke:#181818;stroke-width:0.3;" x1="306.6764" x2="363.0764" y1="304.0959" y2="304.0959"/><text fill="#000000" font-family="sans-serif" font-size="8.4" lengthAdjust="spacing" textLength="50.4" x="309.6764" y="314.617">httpAddress</text></g><!--class User--><g id="elem_User"><rect codeLine="103" fill="#F1F1F1" height="50.3719" id="User" rx="1.5" ry="1.5" style="stroke:#181818;stroke-width:0.3;" width="46.8" x="441.6764" y="209.939"/><text fill="#000000" font-family="sans-serif" font-size="8.4" lengthAdjust="spacing" textLength="18.6" x="455.7764" y="221.0601">User</text><line style="stroke:#181818;stroke-width:0.3;" x1="442.2764" x2="487.8764" y1="225.8319" y2="225.8319"/><text fill="#000000" font-family="sans-serif" font-size="8.4" lengthAdjust="spacing" textLength="22.8" x="445.2764" y="236.353">name</text><text fill="#000000" font-family="sans-serif" font-size="8.4" lengthAdjust="spacing" textLength="22.2" x="445.2764" y="246.246">email</text><text fill="#000000" font-family="sans-serif" font-size="8.4" lengthAdjust="spacing" textLength="39.6" x="445.2764" y="256.139">password</text></g><!--class Reports--><g id="elem_Reports"><rect codeLine="109" fill="#F1F1F1" height="50.3719" id="Reports" rx="1.5" ry="1.5" style="stroke:#181818;stroke-width:0.3;" width="35.4" x="342.9764" y="103.475"/><text fill="#000000" font-family="sans-serif" font-size="8.4" lengthAdjust="spacing" textLength="31.8" x="344.7764" y="114.5961">Reports</text><line style="stroke:#181818;stroke-width:0.3;" x1="343.5764" x2="377.7764" y1="119.3679" y2="119.3679"/><text fill="#000000" font-family="sans-serif" font-size="8.4" lengthAdjust="spacing" textLength="17.4" x="346.5764" y="129.889">type</text><text fill="#000000" font-family="sans-serif" font-size="8.4" lengthAdjust="spacing" textLength="18" x="346.5764" y="139.782">date</text><text fill="#000000" font-family="sans-serif" font-size="8.4" lengthAdjust="spacing" textLength="18.6" x="346.5764" y="149.675">park</text></g><!--class Comments--><g id="elem_Comments"><rect codeLine="116" fill="#F1F1F1" height="30.5859" id="Comments" rx="1.5" ry="1.5" style="stroke:#181818;stroke-width:0.3;" width="92.4" x="208.8764" y="26.693"/><text fill="#000000" font-family="sans-serif" font-size="8.4" lengthAdjust="spacing" textLength="44.4" x="232.8764" y="37.8141">Comments</text><line style="stroke:#181818;stroke-width:0.3;" x1="209.4764" x2="300.6764" y1="42.5859" y2="42.5859"/><text fill="#000000" font-family="sans-serif" font-size="8.4" lengthAdjust="spacing" textLength="85.2" x="212.4764" y="53.107">commentDescription</text></g><!--class ReportFaults--><g id="elem_ReportFaults"><rect codeLine="120" fill="#F1F1F1" height="30.5859" id="ReportFaults" rx="1.5" ry="1.5" style="stroke:#181818;stroke-width:0.3;" width="76.8" x="322.2764" y="26.693"/><text fill="#000000" font-family="sans-serif" font-size="8.4" lengthAdjust="spacing" textLength="52.2" x="334.5764" y="37.8141">ReportFaults</text><line style="stroke:#181818;stroke-width:0.3;" x1="322.8764" x2="398.4764" y1="42.5859" y2="42.5859"/><text fill="#000000" font-family="sans-serif" font-size="8.4" lengthAdjust="spacing" textLength="69.6" x="325.8764" y="53.107">faultsDescription</text></g><!--class Malfunctions--><g id="elem_Malfunctions"><rect codeLine="124" fill="#F1F1F1" height="30.5859" id="Malfunctions" rx="1.5" ry="1.5" style="stroke:#181818;stroke-width:0.3;" width="103.2" x="420.0764" y="26.693"/><text fill="#000000" font-family="sans-serif" font-size="8.4" lengthAdjust="spacing" textLength="52.8" x="445.2764" y="37.8141">Malfunctions</text><line style="stroke:#181818;stroke-width:0.3;" x1="420.6764" x2="522.6764" y1="42.5859" y2="42.5859"/><text fill="#000000" font-family="sans-serif" font-size="8.4" lengthAdjust="spacing" textLength="96" x="423.6764" y="53.107">malfunctionDescription</text></g><!--link Employee to Manager--><g id="link_Employee_Manager"><path codeLine="130" d="M619.8104,347.249 C583.2524,347.201 507.6704,350.489 450.0764,375.485 C410.6444,392.597 373.5404,427.835 354.3884,447.953 " fill="none" id="Employee-Manager" style="stroke:#181818;stroke-width:0.6;"/><polygon fill="#000000" points="455.8813,379.6139,450.1817,379.8904,451.4327,383.1878,455.8813,379.6139" style="stroke:#000000;stroke-width:0.6;"/><text fill="#000000" font-family="sans-serif" font-size="7.8" lengthAdjust="spacing" textLength="13.2" x="458.4764" y="383.626">is a</text><text fill="#000000" font-family="sans-serif" font-size="7.8" lengthAdjust="spacing" textLength="13.2" x="601.9289" y="345.0786">1..*</text><text fill="#000000" font-family="sans-serif" font-size="7.8" lengthAdjust="spacing" textLength="13.2" x="342.7868" y="441.8801">1..*</text></g><!--link Portal to Manager--><g id="link_Portal_Manager"><path codeLine="131" d="M335.4404,319.037 C336.5864,349.379 339.1784,417.899 340.3184,448.115 " fill="none" id="Portal-Manager" style="stroke:#181818;stroke-width:0.6;"/><polygon fill="#000000" points="340.1631,344.2363,338.606,349.726,342.1302,349.5929,340.1631,344.2363" style="stroke:#000000;stroke-width:0.6;"/><text fill="#000000" font-family="sans-serif" font-size="7.8" lengthAdjust="spacing" textLength="33.6" x="345.6764" y="350.182">manages</text><text fill="#000000" font-family="sans-serif" font-size="7.8" lengthAdjust="spacing" textLength="4.8" x="330.2159" y="331.234">1</text><text fill="#000000" font-family="sans-serif" font-size="7.8" lengthAdjust="spacing" textLength="4.8" x="334.7974" y="441.8322">1</text></g><!--link Manager to Job--><g id="link_Manager_Job"><path codeLine="132" d="M360.9224,469.991 C417.0884,486.581 572.4044,533.009 580.2764,541.307 C600.2444,562.355 605.1644,597.023 606.1544,618.791 " fill="none" id="Manager-Job" style="stroke:#181818;stroke-width:0.6;"/><polygon fill="#000000" points="592.4412,548.0564,588.7162,543.7336,586.8867,546.7487,592.4412,548.0564" style="stroke:#000000;stroke-width:0.6;"/><text fill="#000000" font-family="sans-serif" font-size="7.8" lengthAdjust="spacing" textLength="33" x="595.2764" y="549.448">registers</text><text fill="#000000" font-family="sans-serif" font-size="7.8" lengthAdjust="spacing" textLength="4.8" x="365.5519" y="479.8185">1</text><text fill="#000000" font-family="sans-serif" font-size="7.8" lengthAdjust="spacing" textLength="13.2" x="591.7112" y="612.5995">1..*</text></g><!--link Manager to Skill--><g id="link_Manager_Skill"><path codeLine="133" d="M345.5744,478.871 C350.4884,494.387 358.3724,519.515 364.8764,541.307 C387.0464,615.557 362.8724,649.721 412.8764,708.917 C439.2044,740.087 483.6884,757.595 514.8944,766.595 " fill="none" id="Manager-Skill" style="stroke:#181818;stroke-width:0.6;"/><polygon fill="#000000" points="417.398,641.8877,416.1652,636.3161,413.1257,638.1047,417.398,641.8877" style="stroke:#000000;stroke-width:0.6;"/><text fill="#000000" font-family="sans-serif" font-size="7.8" lengthAdjust="spacing" textLength="33" x="421.2764" y="642.25">registers</text><text fill="#000000" font-family="sans-serif" font-size="7.8" lengthAdjust="spacing" textLength="4.8" x="347.2158" y="491.0292">1</text><text fill="#000000" font-family="sans-serif" font-size="7.8" lengthAdjust="spacing" textLength="3.6" x="506.7629" y="763.5311">*</text></g><!--link Manager to Collaborator--><g id="link_Manager_Collaborator"><path codeLine="134" d="M360.9704,463.499 C402.5324,463.499 498.3464,463.499 549.7784,463.499 " fill="none" id="Manager-Collaborator" style="stroke:#181818;stroke-width:0.6;"/><polygon fill="#000000" points="440.3264,456.6921,434.8994,454.9288,434.8994,458.4555,440.3264,456.6921" style="stroke:#000000;stroke-width:0.6;"/><text fill="#000000" font-family="sans-serif" font-size="7.8" lengthAdjust="spacing" textLength="33" x="442.7264" y="459.64">registers</text><text fill="#000000" font-family="sans-serif" font-size="7.8" lengthAdjust="spacing" textLength="4.8" x="365.6098" y="461.1313">1</text><text fill="#000000" font-family="sans-serif" font-size="7.8" lengthAdjust="spacing" textLength="13.2" x="531.8727" y="461.5308">1..*</text></g><!--link Manager to Agenda--><g id="link_Manager_Agenda"><path codeLine="135" d="M338.5364,478.877 C332.0924,517.661 312.3044,625.127 278.4764,708.917 C259.3304,756.335 226.6604,807.479 210.1184,832.049 " fill="none" id="Manager-Agenda" style="stroke:#181818;stroke-width:0.6;"/><polygon fill="#000000" points="272.6513,734.9295,276.163,730.4318,272.8486,729.2266,272.6513,734.9295" style="stroke:#000000;stroke-width:0.6;"/><text fill="#000000" font-family="sans-serif" font-size="7.8" lengthAdjust="spacing" textLength="33.6" x="279.0764" y="735.058">manages</text><text fill="#000000" font-family="sans-serif" font-size="7.8" lengthAdjust="spacing" textLength="4.8" x="332.6403" y="491.0366">1</text><text fill="#000000" font-family="sans-serif" font-size="7.8" lengthAdjust="spacing" textLength="4.8" x="207.2299" y="825.7531">1</text></g><!--link Manager to PendingTasks--><g id="link_Manager_PendingTasks"><path codeLine="136" d="M341.2004,478.865 C342.5384,539.735 347.6084,770.783 348.9464,831.953 " fill="none" id="Manager-PendingTasks" style="stroke:#181818;stroke-width:0.6;"/><polygon fill="#000000" points="349.9422,735.1094,351.5861,729.645,348.0603,729.7223,349.9422,735.1094" style="stroke:#000000;stroke-width:0.6;"/><text fill="#000000" font-family="sans-serif" font-size="7.8" lengthAdjust="spacing" textLength="33.6" x="355.2764" y="735.058">manages</text><text fill="#000000" font-family="sans-serif" font-size="7.8" lengthAdjust="spacing" textLength="4.8" x="340.3529" y="491.0218">1</text><text fill="#000000" font-family="sans-serif" font-size="7.8" lengthAdjust="spacing" textLength="3.6" x="344.8272" y="825.6337">*</text></g><!--link Manager to Equipment--><g id="link_Manager_Equipment"><path codeLine="137" d="M323.9684,478.985 C307.9424,493.697 283.8764,517.421 267.0764,541.307 C249.5324,566.249 234.7784,598.451 226.2824,618.821 " fill="none" id="Manager-Equipment" style="stroke:#181818;stroke-width:0.6;"/><polygon fill="#000000" points="268.3584,548.9595,272.9119,545.5203,270.0208,543.5006,268.3584,548.9595" style="stroke:#000000;stroke-width:0.6;"/><text fill="#000000" font-family="sans-serif" font-size="7.8" lengthAdjust="spacing" textLength="33" x="275.4764" y="549.448">registers</text><text fill="#000000" font-family="sans-serif" font-size="7.8" lengthAdjust="spacing" textLength="4.8" x="314.7035" y="491.1695">1</text><text fill="#000000" font-family="sans-serif" font-size="7.8" lengthAdjust="spacing" textLength="3.6" x="223.8649" y="612.4802">*</text></g><!--link Manager to Vehicle--><g id="link_Manager_Vehicle"><path codeLine="138" d="M321.0164,470.963 C289.6304,482.411 227.4944,507.509 182.4764,541.307 C166.8884,553.013 151.8704,567.749 138.7904,582.197 " fill="none" id="Manager-Vehicle" style="stroke:#181818;stroke-width:0.6;"/><polygon fill="#000000" points="182.9158,548.0632,188.4668,546.7407,186.6293,543.7305,182.9158,548.0632" style="stroke:#000000;stroke-width:0.6;"/><text fill="#000000" font-family="sans-serif" font-size="7.8" lengthAdjust="spacing" textLength="64.8" x="190.8764" y="549.448">creates/manages</text><text fill="#000000" font-family="sans-serif" font-size="7.8" lengthAdjust="spacing" textLength="4.8" x="311.3471" y="470.173">1</text><text fill="#000000" font-family="sans-serif" font-size="7.8" lengthAdjust="spacing" textLength="3.6" x="143.5666" y="574.4039">*</text></g><!--link Tasks to Manager--><g id="link_Tasks_Manager"><path codeLine="139" d="M240.5744,149.165 C239.9204,184.289 241.1144,259.187 259.8764,318.791 C275.9444,369.845 311.5904,422.993 329.7584,448.091 " fill="none" id="Tasks-Manager" style="stroke:#181818;stroke-width:0.6;"/><polygon fill="#000000" points="262.0187,300.7154,261.8806,306.42,265.2601,305.4117,262.0187,300.7154" style="stroke:#000000;stroke-width:0.6;"/><text fill="#000000" font-family="sans-serif" font-size="7.8" lengthAdjust="spacing" textLength="27" x="268.2764" y="306.538">creates</text><text fill="#000000" font-family="sans-serif" font-size="7.8" lengthAdjust="spacing" textLength="3.6" x="236.5288" y="161.1758">*</text><text fill="#000000" font-family="sans-serif" font-size="7.8" lengthAdjust="spacing" textLength="4.8" x="321.6634" y="441.8024">1</text></g><!--link Manager to Teams--><g id="link_Manager_Teams"><path codeLine="140" d="M349.7984,478.949 C361.7624,497.855 384.5924,530.555 411.0764,551.507 C425.6684,563.051 434.6264,557.543 448.8764,569.507 C467.1524,584.843 481.9964,608.447 490.4384,623.705 " fill="none" id="Manager-Teams" style="stroke:#181818;stroke-width:0.6;"/><polygon fill="#000000" points="416.1669,548.6518,413.6499,543.5306,411.1204,545.9881,416.1669,548.6518" style="stroke:#000000;stroke-width:0.6;"/><text fill="#000000" font-family="sans-serif" font-size="7.8" lengthAdjust="spacing" textLength="33.6" x="419.4764" y="549.448">manages</text><text fill="#000000" font-family="sans-serif" font-size="7.8" lengthAdjust="spacing" textLength="4.8" x="346.5066" y="491.1252">1</text><text fill="#000000" font-family="sans-serif" font-size="7.8" lengthAdjust="spacing" textLength="3.6" x="484.5379" y="617.3915">*</text></g><!--link Agenda to PendingTasks--><g id="link_Agenda_PendingTasks"><path codeLine="142" d="M227.9744,847.487 C253.1684,847.487 290.1224,847.487 316.6184,847.487 " fill="none" id="Agenda-PendingTasks" style="stroke:#181818;stroke-width:0.6;"/><polygon fill="#000000" points="244.1264,840.6801,238.6994,838.9168,238.6994,842.4435,244.1264,840.6801" style="stroke:#000000;stroke-width:0.6;"/><text fill="#000000" font-family="sans-serif" font-size="7.8" lengthAdjust="spacing" textLength="59.4" x="246.5264" y="843.628">gets tasks from</text><text fill="#000000" font-family="sans-serif" font-size="7.8" lengthAdjust="spacing" textLength="4.8" x="232.6444" y="845.3533">1</text><text fill="#000000" font-family="sans-serif" font-size="7.8" lengthAdjust="spacing" textLength="3.6" x="308.3881" y="845.436">*</text></g><!--link User to Parks--><g id="link_User_Parks"><path codeLine="145" d="M488.6444,235.127 C503.1164,235.127 521.4644,235.127 535.3064,235.127 " fill="none" id="User-Parks" style="stroke:#181818;stroke-width:0.6;"/><polygon fill="#000000" points="504.8264,228.3201,499.3994,226.5568,499.3994,230.0835,504.8264,228.3201" style="stroke:#000000;stroke-width:0.6;"/><text fill="#000000" font-family="sans-serif" font-size="7.8" lengthAdjust="spacing" textLength="17.4" x="507.2264" y="231.268">uses</text><text fill="#000000" font-family="sans-serif" font-size="7.8" lengthAdjust="spacing" textLength="13.2" x="493.2639" y="243.3716">1..*</text><text fill="#000000" font-family="sans-serif" font-size="7.8" lengthAdjust="spacing" textLength="3.6" x="527.1339" y="232.7593">*</text></g><!--link Reports to User--><g id="link_Reports_User"><path codeLine="146" d="M378.6584,138.329 C392.5664,145.949 411.7064,157.829 425.4764,171.851 C436.3424,182.915 445.7564,197.447 452.6744,209.735 " fill="none" id="Reports-User" style="stroke:#181818;stroke-width:0.6;"/><polygon fill="#000000" points="434.1174,174.9612,436.7988,179.9983,439.2474,177.4602,434.1174,174.9612" style="stroke:#000000;stroke-width:0.6;"/><text fill="#000000" font-family="sans-serif" font-size="7.8" lengthAdjust="spacing" textLength="24.6" x="441.6764" y="179.992">makes</text><text fill="#000000" font-family="sans-serif" font-size="7.8" lengthAdjust="spacing" textLength="3.6" x="383.233" y="138.0866">*</text><text fill="#000000" font-family="sans-serif" font-size="7.8" lengthAdjust="spacing" textLength="3.6" x="446.811" y="203.5271">*</text></g><!--link Comments to Reports--><g id="link_Comments_Reports"><path codeLine="148" d="M273.4724,57.473 C292.9724,73.259 323.5604,98.021 342.8444,113.627 " fill="none" id="Comments-Reports" style="stroke:#181818;stroke-width:0.6;"/><polygon fill="#000000" points="313.2082,82.3556,310.0994,77.5705,307.8805,80.3117,313.2082,82.3556" style="stroke:#000000;stroke-width:0.6;"/><text fill="#000000" font-family="sans-serif" font-size="7.8" lengthAdjust="spacing" textLength="11.4" x="316.2764" y="83.416">are</text><text fill="#000000" font-family="sans-serif" font-size="7.8" lengthAdjust="spacing" textLength="4.8" x="272.3715" y="69.6575">1</text><text fill="#000000" font-family="sans-serif" font-size="7.8" lengthAdjust="spacing" textLength="4.8" x="333.3658" y="107.6723">1</text></g><!--link ReportFaults to Reports--><g id="link_ReportFaults_Reports"><path codeLine="149" d="M360.6764,57.473 C360.6764,70.103 360.6764,88.475 360.6764,103.307 " fill="none" id="ReportFaults-Reports" style="stroke:#181818;stroke-width:0.6;"/><polygon fill="#000000" points="363.6764,83.4681,365.4398,78.0411,361.9131,78.0411,363.6764,83.4681" style="stroke:#000000;stroke-width:0.6;"/><text fill="#000000" font-family="sans-serif" font-size="7.8" lengthAdjust="spacing" textLength="11.4" x="369.0764" y="83.416">are</text><text fill="#000000" font-family="sans-serif" font-size="7.8" lengthAdjust="spacing" textLength="4.8" x="355.3214" y="69.6575">1</text><text fill="#000000" font-family="sans-serif" font-size="7.8" lengthAdjust="spacing" textLength="4.8" x="355.4939" y="97.1049">1</text></g><!--link Malfunctions to Reports--><g id="link_Malfunctions_Reports"><path codeLine="150" d="M452.3444,57.473 C431.5364,73.499 398.7104,98.771 378.5084,114.329 " fill="none" id="Malfunctions-Reports" style="stroke:#181818;stroke-width:0.6;"/><polygon fill="#000000" points="426.6995,82.2985,432.0753,80.3845,429.9236,77.5902,426.6995,82.2985" style="stroke:#000000;stroke-width:0.6;"/><text fill="#000000" font-family="sans-serif" font-size="7.8" lengthAdjust="spacing" textLength="11.4" x="434.4764" y="83.416">are</text><text fill="#000000" font-family="sans-serif" font-size="7.8" lengthAdjust="spacing" textLength="4.8" x="442.5189" y="69.6575">1</text><text fill="#000000" font-family="sans-serif" font-size="7.8" lengthAdjust="spacing" textLength="4.8" x="383.1871" y="108.5366">1</text></g><!--link Teams to Parks--><g id="link_Teams_Parks"><path codeLine="152" d="M500.2124,623.663 C509.2844,560.225 544.5284,313.715 553.5584,250.541 " fill="none" id="Teams-Parks" style="stroke:#181818;stroke-width:0.6;"/><polygon fill="#000000" points="538.701,377.7083,536.1873,382.8312,539.6785,383.3303,538.701,377.7083" style="stroke:#000000;stroke-width:0.6;"/><text fill="#000000" font-family="sans-serif" font-size="7.8" lengthAdjust="spacing" textLength="66" x="543.6764" y="383.626">carry out tasks in</text><text fill="#000000" font-family="sans-serif" font-size="7.8" lengthAdjust="spacing" textLength="4.8" x="495.3514" y="617.5887">1</text><text fill="#000000" font-family="sans-serif" font-size="7.8" lengthAdjust="spacing" textLength="4.8" x="547.7136" y="262.7089">1</text></g><!--link Teams to Tasks--><g id="link_Teams_Tasks"><path codeLine="153" d="M493.4624,623.639 C481.6064,584.723 449.6504,477.077 430.2764,385.685 C410.3264,291.569 460.8044,243.563 396.6764,171.851 C396.1604,171.275 322.6964,151.307 276.9764,138.917 " fill="none" id="Teams-Tasks" style="stroke:#181818;stroke-width:0.6;"/><polygon fill="#000000" points="427.853,344.4949,428.4561,350.1693,431.6762,348.7311,427.853,344.4949" style="stroke:#000000;stroke-width:0.6;"/><text fill="#000000" font-family="sans-serif" font-size="7.8" lengthAdjust="spacing" textLength="33.6" x="434.4764" y="350.182">carry out</text><text fill="#000000" font-family="sans-serif" font-size="7.8" lengthAdjust="spacing" textLength="4.8" x="492.9504" y="617.5592">1</text><text fill="#000000" font-family="sans-serif" font-size="7.8" lengthAdjust="spacing" textLength="4.8" x="281.3817" y="138.1339">1</text></g><!--link Parks to Organization--><g id="link_Parks_Organization"><path codeLine="156" d="M576.0584,235.127 C593.4704,235.127 618.8684,235.127 639.2564,235.127 " fill="none" id="Parks-Organization" style="stroke:#181818;stroke-width:0.6;"/><polygon fill="#000000" points="586.2764,228.3201,591.7035,230.0835,591.7035,226.5568,586.2764,228.3201" style="stroke:#000000;stroke-width:0.6;"/><text fill="#000000" font-family="sans-serif" font-size="7.8" lengthAdjust="spacing" textLength="33.6" x="594.6764" y="231.268">manages</text><text fill="#000000" font-family="sans-serif" font-size="7.8" lengthAdjust="spacing" textLength="3.6" x="580.6335" y="232.7593">*</text><text fill="#000000" font-family="sans-serif" font-size="7.8" lengthAdjust="spacing" textLength="4.8" x="629.867" y="233.103">1</text></g><!--link Organization to Employee--><g id="link_Organization_Employee"><path codeLine="157" d="M662.8904,270.485 C656.4224,293.459 648.3944,321.965 644.2484,336.695 " fill="none" id="Organization-Employee" style="stroke:#181818;stroke-width:0.6;"/><polygon fill="#000000" points="659.2634,306.4779,662.4316,301.7318,659.0368,300.776,659.2634,306.4779" style="stroke:#000000;stroke-width:0.6;"/><text fill="#000000" font-family="sans-serif" font-size="7.8" lengthAdjust="spacing" textLength="13.2" x="665.4764" y="306.538">has</text><text fill="#000000" font-family="sans-serif" font-size="7.8" lengthAdjust="spacing" textLength="4.8" x="656.6814" y="282.645">1</text><text fill="#000000" font-family="sans-serif" font-size="7.8" lengthAdjust="spacing" textLength="13.2" x="629.7804" y="330.3171">1..*</text></g><!--link Employee to Collaborator--><g id="link_Employee_Collaborator"><path codeLine="160" d="M633.6044,357.677 C629.7344,362.819 625.1684,369.299 621.6764,375.485 C616.6784,384.341 611.8964,393.983 607.5224,403.529 " fill="none" id="Employee-Collaborator" style="stroke:#181818;stroke-width:0.6;"/><polygon fill="#000000" points="623.1931,383.2858,627.4092,379.4404,624.3437,377.6966,623.1931,383.2858" style="stroke:#000000;stroke-width:0.6;"/><text fill="#000000" font-family="sans-serif" font-size="7.8" lengthAdjust="spacing" textLength="13.2" x="630.0764" y="383.626">is a</text><text fill="#000000" font-family="sans-serif" font-size="7.8" lengthAdjust="spacing" textLength="13.2" x="615.9724" y="369.8524">1..*</text><text fill="#000000" font-family="sans-serif" font-size="7.8" lengthAdjust="spacing" textLength="13.2" x="595.6275" y="397.1413">1..*</text></g><!--link Employee to Job--><g id="link_Employee_Job"><path codeLine="161" d="M643.6244,357.701 C644.6504,362.963 645.7664,369.545 646.2764,375.485 C646.6664,380.003 646.4504,381.155 646.2764,385.685 C643.4744,459.545 647.7344,478.943 633.6764,551.507 C629.1044,575.099 620.2784,601.277 613.8344,618.713 " fill="none" id="Employee-Job" style="stroke:#181818;stroke-width:0.6;"/><polygon fill="#000000" points="648.3362,466.5728,650.7036,461.3807,647.1997,460.9808,648.3362,466.5728" style="stroke:#000000;stroke-width:0.6;"/><text fill="#000000" font-family="sans-serif" font-size="7.8" lengthAdjust="spacing" textLength="19.8" x="654.0764" y="466.54">has a</text><text fill="#000000" font-family="sans-serif" font-size="7.8" lengthAdjust="spacing" textLength="4.8" x="638.7473" y="369.8837">1</text><text fill="#000000" font-family="sans-serif" font-size="7.8" lengthAdjust="spacing" textLength="4.8" x="610.0558" y="612.5066">1</text></g><!--link Collaborator to Skill--><g id="link_Collaborator_Skill"><path codeLine="163" d="M618.0164,516.479 C623.3084,524.753 628.6724,533.243 633.6764,541.307 C641.3624,553.709 646.6064,555.443 650.4764,569.507 C666.9224,629.243 679.8944,654.383 650.4764,708.917 C636.7904,734.291 608.5844,751.481 585.5744,761.915 " fill="none" id="Collaborator-Skill" style="stroke:#181818;stroke-width:0.6;"/><polygon fill="#000000" points="671.2696,636.328,668.8102,641.4772,672.3065,641.9393,671.2696,636.328" style="stroke:#000000;stroke-width:0.6;"/><text fill="#000000" font-family="sans-serif" font-size="7.8" lengthAdjust="spacing" textLength="52.8" x="676.2764" y="642.25">is assigned to</text><text fill="#000000" font-family="sans-serif" font-size="7.8" lengthAdjust="spacing" textLength="4.8" x="622.4697" y="520.9402">1</text><text fill="#000000" font-family="sans-serif" font-size="7.8" lengthAdjust="spacing" textLength="3.6" x="590.0957" y="758.2807">*</text></g><!--link Collaborator to Teams--><g id="link_Collaborator_Teams"><path codeLine="164" d="M549.7664,509.591 C543.0344,519.719 536.4104,530.633 531.0764,541.307 C517.1624,569.153 506.8844,604.247 501.7484,623.771 " fill="none" id="Collaborator-Teams" style="stroke:#181818;stroke-width:0.6;"/><polygon fill="#000000" points="532.9134,549.2655,536.6428,544.9465,533.3918,543.5793,532.9134,549.2655" style="stroke:#000000;stroke-width:0.6;"/><text fill="#000000" font-family="sans-serif" font-size="7.8" lengthAdjust="spacing" textLength="37.8" x="539.4764" y="549.448">integrates</text><text fill="#000000" font-family="sans-serif" font-size="7.8" lengthAdjust="spacing" textLength="13.2" x="531.8593" y="512.9521">1..*</text><text fill="#000000" font-family="sans-serif" font-size="7.8" lengthAdjust="spacing" textLength="4.8" x="503.2285" y="617.4736">1</text></g><!--link Vehicle to Tasks--><g id="link_Vehicle_Tasks"><path codeLine="168" d="M75.7304,569.291 C68.7524,537.485 62.4764,499.127 62.4764,464.099 C62.4764,234.527 62.4764,234.527 62.4764,234.527 C62.4764,168.695 153.5924,143.213 205.7384,134.015 " fill="none" id="Vehicle-Tasks" style="stroke:#181818;stroke-width:0.6;"/><polygon fill="#000000" points="66.335,344.3596,63.0922,349.055,66.4714,350.0643,66.335,344.3596" style="stroke:#000000;stroke-width:0.6;"/><text fill="#000000" font-family="sans-serif" font-size="7.8" lengthAdjust="spacing" textLength="56.4" x="70.8764" y="350.182">is attributed to</text><text fill="#000000" font-family="sans-serif" font-size="7.8" lengthAdjust="spacing" textLength="13.2" x="60.9195" y="563.0704">1..*</text><text fill="#000000" font-family="sans-serif" font-size="7.8" lengthAdjust="spacing" textLength="4.8" x="196.3147" y="142.7679">1</text></g><!--link Equipment to Tasks--><g id="link_Equipment_Tasks"><path codeLine="170" d="M202.4684,618.749 C190.0304,601.961 173.7704,576.683 166.8764,551.507 C165.6764,547.133 166.5464,545.831 166.8764,541.307 C178.0244,388.517 221.2424,208.037 236.1704,149.009 " fill="none" id="Equipment-Tasks" style="stroke:#181818;stroke-width:0.6;"/><polygon fill="#000000" points="198.2911,344.2418,196.1439,349.5288,199.6616,349.7812,198.2911,344.2418" style="stroke:#000000;stroke-width:0.6;"/><text fill="#000000" font-family="sans-serif" font-size="7.8" lengthAdjust="spacing" textLength="56.4" x="203.4764" y="350.182">is attributed to</text><text fill="#000000" font-family="sans-serif" font-size="7.8" lengthAdjust="spacing" textLength="13.2" x="184.9588" y="612.5495">1..*</text><text fill="#000000" font-family="sans-serif" font-size="7.8" lengthAdjust="spacing" textLength="4.8" x="229.9396" y="161.3037">1</text></g><!--link Tasks to Agenda--><g id="link_Tasks_Agenda"><path codeLine="172" d="M205.6664,129.707 C140.4524,132.605 8.4764,149.033 8.4764,234.527 C8.4764,234.527 8.4764,234.527 8.4764,775.955 C8.4764,810.377 118.6784,833.399 171.8384,842.507 " fill="none" id="Tasks-Agenda" style="stroke:#181818;stroke-width:0.6;"/><polygon fill="#000000" points="11.6186,460.5955,9.6,465.9329,13.1227,466.1,11.6186,460.5955" style="stroke:#000000;stroke-width:0.6;"/><text fill="#000000" font-family="sans-serif" font-size="7.8" lengthAdjust="spacing" textLength="13.2" x="16.8764" y="466.54">has</text><text fill="#000000" font-family="sans-serif" font-size="7.8" lengthAdjust="spacing" textLength="3.6" x="197.5071" y="127.838">*</text><text fill="#000000" font-family="sans-serif" font-size="7.8" lengthAdjust="spacing" textLength="4.8" x="162.3776" y="839.6108">1</text></g><!--link Tasks to Parks--><g id="link_Tasks_Parks"><path codeLine="175" d="M276.9644,140.081 C293.6984,144.839 313.9784,150.179 332.4764,153.851 C393.6644,165.995 413.8544,148.433 471.6764,171.851 C498.8264,182.843 525.0524,204.803 540.7784,219.581 " fill="none" id="Tasks-Parks" style="stroke:#181818;stroke-width:0.6;"/><polygon fill="#000000" points="494.9488,177.9097,490.2614,174.6555,489.2438,178.0322,494.9488,177.9097" style="stroke:#000000;stroke-width:0.6;"/><text fill="#000000" font-family="sans-serif" font-size="7.8" lengthAdjust="spacing" textLength="62.4" x="497.4764" y="179.992">are performed in</text><text fill="#000000" font-family="sans-serif" font-size="7.8" lengthAdjust="spacing" textLength="13.2" x="281.5897" y="149.373">1..*</text><text fill="#000000" font-family="sans-serif" font-size="7.8" lengthAdjust="spacing" textLength="13.2" x="522.607" y="213.5081">1..*</text></g><!--link Reports to Portal--><g id="link_Reports_Portal"><path codeLine="179" d="M356.9804,154.139 C351.5324,190.805 341.5124,258.227 337.0844,288.047 " fill="none" id="Reports-Portal" style="stroke:#181818;stroke-width:0.6;"/><polygon fill="#000000" points="357.2355,180.0116,359.7773,174.9026,356.2889,174.3843,357.2355,180.0116" style="stroke:#000000;stroke-width:0.6;"/><text fill="#000000" font-family="sans-serif" font-size="7.8" lengthAdjust="spacing" textLength="52.2" x="363.0764" y="179.992">are submitted</text><text fill="#000000" font-family="sans-serif" font-size="7.8" lengthAdjust="spacing" textLength="3.6" x="352.5732" y="166.0967">*</text><text fill="#000000" font-family="sans-serif" font-size="7.8" lengthAdjust="spacing" textLength="4.8" x="332.2376" y="281.7481">1</text></g><!--SRC=[ZLPBRnit4Bxlho1qiHD0SNGL2WEELHTfAbU8dGGzShcZNKPSSaDoQoX5_tk7pwLUHdNHaFpcmPblXdjbTbmELDEUz4egrcdL0x5wX6ew6IZRqHQUx5u0qS0ibQqe0QQZZNhXiYLRAWnKLzEHu1BiVW2YjErKTILWQubLHFEsiwJXpXnNiZ3613NcpbhDwz72HwRa4_y9v7tLyGO8uvgXRo_tW2ORKrMMMunifNhA9Lch1aHLUJFaJzrIoNzIvuFyKn7yITg35_wczd7iQz1-zGAruJQS39sIK9m16XRLlydeh_qWr1u03KwRzqe8MYjDhTB7dcgEbszej4wRdXk30QscdKQ3CLxkLSq5t2jfAREJztBZuwfHx1cJ6bToYlIxglq_fbC8KuItfX9Bc28pCUlv-CdXqw6J7rFiVhK2mpGV3dL-LtNKGAyPZ_9Pz5VeE5OkQdpGL3PU2kLoKhxHCzL1-4qhrFm6ZYj-utxK6gGbdtg__0mjDnPlbJDvntwC7EleofqtrqWB2v9A1ZVt7R3TV1p8WuOV8qYs9zT8ca_z6m_T25GYHUat63j8p9mfTrTA7MuyZ22A2sYi68Qrfgn3_Xjo_HUOcqSLVFn1ZJqVqtKAunM8kzMRWejutw5tEGc9XRJE1SaxPyjoru9iQ5H-0TYPPsfsnW4YmgyZGCCMi00iMBPuKXgTh6xGA8u3hneqXs9dmZq3xPDjY_8QN4OBm8Rgx5meHW-3t-1GeOcsdRN3NMoaZFXYuAGRGpVxe13oedGpuJ_3W3PpIAcWkNTnHEqEchvtcKru5fPd4nqiFz1HPFZMBywYrrHiH-cRDA7xQUj8fQfITyyMxzwzdP6vOqgKqx1Q4cu89RS55e4UDuk9NA8FTsQEKVCmhQD5xFibCY6qtYbsJcO8yWFbDTY1oN9ulcfxxeL0silXnXXA5bu6UsXkezUyUsISOql2D20hpCqbk_wbSnhHVyIVj-eReOonYetfCMTkqmBIoFhMtEARxJGgJ_P4WQ3ZscT9HkDjXlFC3nGYtPtZNN2R6Ps2MnGedCk8EM3oPTW1XI_3gZ03uZqNEMP6jTuJDTfuInpIjoVObDgCTMauUFCzDfSYsfxIV8gT7pSEMPAE-jnKUIltsNa2nquhuB4n5h5xd44QqbryDGGOVad9ieMSCVnSQ2KqxiFfbsET64bGMsGgkRUZrP5n-4llxyIFAN_EHVhWyavGOtfO_gz6oTXZygSCXiVa97snBeuH0-YjqZrQzHN7Nvh9ixUPGsbUEGKprZstBepRwZy0]--></g></svg>