<?xml version="1.0" encoding="us-ascii" standalone="no"?><svg xmlns="http://www.w3.org/2000/svg" xmlns:xlink="http://www.w3.org/1999/xlink" contentStyleType="text/css" height="1683px" preserveAspectRatio="none" style="width:1305px;height:1683px;background:#FFFFFF;" version="1.1" viewBox="0 0 1305 1683" width="1305px" zoomAndPan="magnify"><defs/><g><text fill="#000000" font-family="sans-serif" font-size="14" font-weight="bold" lengthAdjust="spacing" textLength="105" x="593.0492" y="23.5352">Domain Model</text><!--class Organization--><g id="elem_Organization"><rect codeLine="12" fill="#F1F1F1" height="116.9297" id="Organization" rx="2.5" ry="2.5" style="stroke:#181818;stroke-width:0.5;" width="111" x="895.0083" y="589.8583"/><text fill="#000000" font-family="sans-serif" font-size="14" lengthAdjust="spacing" textLength="90" x="905.5083" y="608.3934">Organization</text><line style="stroke:#181818;stroke-width:0.5;" x1="896.0083" x2="1005.0083" y1="616.3466" y2="616.3466"/><text fill="#000000" font-family="sans-serif" font-size="14" lengthAdjust="spacing" textLength="38" x="901.0083" y="633.8817">name</text><text fill="#000000" font-family="sans-serif" font-size="14" lengthAdjust="spacing" textLength="75" x="901.0083" y="650.37">vatNumber</text><text fill="#000000" font-family="sans-serif" font-size="14" lengthAdjust="spacing" textLength="52" x="901.0083" y="666.8583">website</text><text fill="#000000" font-family="sans-serif" font-size="14" lengthAdjust="spacing" textLength="99" x="901.0083" y="683.3466">phoneNumber</text><text fill="#000000" font-family="sans-serif" font-size="14" lengthAdjust="spacing" textLength="37" x="901.0083" y="699.8348">email</text></g><!--class Employee--><g id="elem_Employee"><rect codeLine="20" fill="#F1F1F1" height="83.9531" id="Employee" rx="2.5" ry="2.5" style="stroke:#181818;stroke-width:0.5;" width="72" x="914.5083" y="783.7883"/><text fill="#000000" font-family="sans-serif" font-size="14" lengthAdjust="spacing" textLength="66" x="917.5083" y="802.3234">Employee</text><line style="stroke:#181818;stroke-width:0.5;" x1="915.5083" x2="985.5083" y1="810.2766" y2="810.2766"/><text fill="#000000" font-family="sans-serif" font-size="14" lengthAdjust="spacing" textLength="38" x="920.5083" y="827.8117">name</text><text fill="#000000" font-family="sans-serif" font-size="14" lengthAdjust="spacing" textLength="37" x="920.5083" y="844.3">email</text><text fill="#000000" font-family="sans-serif" font-size="14" lengthAdjust="spacing" textLength="44" x="920.5083" y="860.7883">phone</text></g><!--class Collaborator--><g id="elem_Collaborator"><rect codeLine="26" fill="#F1F1F1" height="199.3711" id="Collaborator" rx="2.5" ry="2.5" style="stroke:#181818;stroke-width:0.5;" width="113" x="927.0083" y="944.7483"/><text fill="#000000" font-family="sans-serif" font-size="14" lengthAdjust="spacing" textLength="87" x="940.0083" y="963.2834">Collaborator</text><line style="stroke:#181818;stroke-width:0.5;" x1="928.0083" x2="1039.0083" y1="971.2366" y2="971.2366"/><text fill="#000000" font-family="sans-serif" font-size="14" lengthAdjust="spacing" textLength="38" x="933.0083" y="988.7717">name</text><text fill="#000000" font-family="sans-serif" font-size="14" lengthAdjust="spacing" textLength="63" x="933.0083" y="1005.26">birthdate</text><text fill="#000000" font-family="sans-serif" font-size="14" lengthAdjust="spacing" textLength="101" x="933.0083" y="1021.7483">admissionDate</text><text fill="#000000" font-family="sans-serif" font-size="14" lengthAdjust="spacing" textLength="54" x="933.0083" y="1038.2366">address</text><text fill="#000000" font-family="sans-serif" font-size="14" lengthAdjust="spacing" textLength="100" x="933.0083" y="1054.7248">mobileContact</text><text fill="#000000" font-family="sans-serif" font-size="14" lengthAdjust="spacing" textLength="90" x="933.0083" y="1071.2131">emailContact</text><text fill="#000000" font-family="sans-serif" font-size="14" lengthAdjust="spacing" textLength="72" x="933.0083" y="1087.7014">IDdocType</text><text fill="#000000" font-family="sans-serif" font-size="14" lengthAdjust="spacing" textLength="68" x="933.0083" y="1104.1897">IDnumber</text><text fill="#000000" font-family="sans-serif" font-size="14" lengthAdjust="spacing" textLength="22" x="933.0083" y="1120.678">job</text><text fill="#000000" font-family="sans-serif" font-size="14" lengthAdjust="spacing" textLength="34" x="933.0083" y="1137.1663">skills</text></g><!--class Manager--><g id="elem_Manager"><rect codeLine="40" fill="#F1F1F1" height="50.9766" id="Manager" rx="2.5" ry="2.5" style="stroke:#181818;stroke-width:0.5;" width="66" x="747.5083" y="1018.9383"/><text fill="#000000" font-family="sans-serif" font-size="14" lengthAdjust="spacing" textLength="60" x="750.5083" y="1037.4734">Manager</text><line style="stroke:#181818;stroke-width:0.5;" x1="748.5083" x2="812.5083" y1="1045.4266" y2="1045.4266"/><text fill="#000000" font-family="sans-serif" font-size="14" lengthAdjust="spacing" textLength="49" x="753.5083" y="1062.9617">section</text></g><!--class Skill--><g id="elem_Skill"><rect codeLine="44" fill="#F1F1F1" height="67.4648" id="Skill" rx="2.5" ry="2.5" style="stroke:#181818;stroke-width:0.5;" width="117" x="1006.0083" y="1287.0683"/><text fill="#000000" font-family="sans-serif" font-size="14" lengthAdjust="spacing" textLength="28" x="1050.5083" y="1305.6034">Skill</text><line style="stroke:#181818;stroke-width:0.5;" x1="1007.0083" x2="1122.0083" y1="1313.5566" y2="1313.5566"/><text fill="#000000" font-family="sans-serif" font-size="14" lengthAdjust="spacing" textLength="66" x="1012.0083" y="1331.0917">skillName</text><text fill="#000000" font-family="sans-serif" font-size="14" lengthAdjust="spacing" textLength="105" x="1012.0083" y="1347.58">skillDescription</text></g><!--class Job--><g id="elem_Job"><rect codeLine="49" fill="#F1F1F1" height="67.4648" id="Job" rx="2.5" ry="2.5" style="stroke:#181818;stroke-width:0.5;" width="112" x="998.5083" y="1497.4883"/><text fill="#000000" font-family="sans-serif" font-size="14" lengthAdjust="spacing" textLength="22" x="1043.5083" y="1516.0234">Job</text><line style="stroke:#181818;stroke-width:0.5;" x1="999.5083" x2="1109.5083" y1="1523.9766" y2="1523.9766"/><text fill="#000000" font-family="sans-serif" font-size="14" lengthAdjust="spacing" textLength="61" x="1004.5083" y="1541.5117">jobName</text><text fill="#000000" font-family="sans-serif" font-size="14" lengthAdjust="spacing" textLength="100" x="1004.5083" y="1558">jobDescription</text></g><!--class Vehicle--><g id="elem_Vehicle"><rect codeLine="54" fill="#F1F1F1" height="199.3711" id="Vehicle" rx="2.5" ry="2.5" style="stroke:#181818;stroke-width:0.5;" width="171" x="180.0083" y="1221.1183"/><text fill="#000000" font-family="sans-serif" font-size="14" lengthAdjust="spacing" textLength="49" x="241.0083" y="1239.6534">Vehicle</text><line style="stroke:#181818;stroke-width:0.5;" x1="181.0083" x2="350.0083" y1="1247.6066" y2="1247.6066"/><text fill="#000000" font-family="sans-serif" font-size="14" lengthAdjust="spacing" textLength="89" x="186.0083" y="1265.1417">plateNumber</text><text fill="#000000" font-family="sans-serif" font-size="14" lengthAdjust="spacing" textLength="41" x="186.0083" y="1281.63">brand</text><text fill="#000000" font-family="sans-serif" font-size="14" lengthAdjust="spacing" textLength="43" x="186.0083" y="1298.1183">model</text><text fill="#000000" font-family="sans-serif" font-size="14" lengthAdjust="spacing" textLength="29" x="186.0083" y="1314.6066">type</text><text fill="#000000" font-family="sans-serif" font-size="14" lengthAdjust="spacing" textLength="27" x="186.0083" y="1331.0948">tare</text><text fill="#000000" font-family="sans-serif" font-size="14" lengthAdjust="spacing" textLength="85" x="186.0083" y="1347.5831">grossWeight</text><text fill="#000000" font-family="sans-serif" font-size="14" lengthAdjust="spacing" textLength="72" x="186.0083" y="1364.0714">currentKm</text><text fill="#000000" font-family="sans-serif" font-size="14" lengthAdjust="spacing" textLength="84" x="186.0083" y="1380.5597">registerDate</text><text fill="#000000" font-family="sans-serif" font-size="14" lengthAdjust="spacing" textLength="106" x="186.0083" y="1397.048">acquisitionDate</text><text fill="#000000" font-family="sans-serif" font-size="14" lengthAdjust="spacing" textLength="159" x="186.0083" y="1413.5363">maintenanceFrequency</text></g><!--class Equipment--><g id="elem_Equipment"><rect codeLine="67" fill="#F1F1F1" height="67.4648" id="Equipment" rx="2.5" ry="2.5" style="stroke:#181818;stroke-width:0.5;" width="289" x="246.0083" y="1497.4883"/><text fill="#000000" font-family="sans-serif" font-size="14" lengthAdjust="spacing" textLength="74" x="353.5083" y="1516.0234">Equipment</text><line style="stroke:#181818;stroke-width:0.5;" x1="247.0083" x2="534.0083" y1="1523.9766" y2="1523.9766"/><text fill="#000000" font-family="sans-serif" font-size="14" lengthAdjust="spacing" textLength="238" x="252.0083" y="1541.5117">equipmentName - to be confirmed</text><text fill="#000000" font-family="sans-serif" font-size="14" lengthAdjust="spacing" textLength="277" x="252.0083" y="1558">equipmentDescription - to be confirmed</text></g><!--class Calendar--><g id="elem_Calendar"><rect codeLine="72" fill="#F1F1F1" height="50.9766" id="Calendar" rx="2.5" ry="2.5" style="stroke:#181818;stroke-width:0.5;" width="108" x="341.5083" y="1625.9483"/><text fill="#000000" font-family="sans-serif" font-size="14" lengthAdjust="spacing" textLength="62" x="364.5083" y="1644.4834">Calendar</text><line style="stroke:#181818;stroke-width:0.5;" x1="342.5083" x2="448.5083" y1="1652.4366" y2="1652.4366"/><text fill="#000000" font-family="sans-serif" font-size="14" lengthAdjust="spacing" textLength="96" x="347.5083" y="1669.9717">pendingTasks</text></g><!--class Tasks--><g id="elem_Tasks"><rect codeLine="77" fill="#F1F1F1" height="67.4648" id="Tasks" rx="2.5" ry="2.5" style="stroke:#181818;stroke-width:0.5;" width="118" x="222.5083" y="445.3983"/><text fill="#000000" font-family="sans-serif" font-size="14" lengthAdjust="spacing" textLength="39" x="262.0083" y="463.9334">Tasks</text><line style="stroke:#181818;stroke-width:0.5;" x1="223.5083" x2="339.5083" y1="471.8866" y2="471.8866"/><text fill="#000000" font-family="sans-serif" font-size="14" lengthAdjust="spacing" textLength="65" x="228.5083" y="489.4217">reference</text><text fill="#000000" font-family="sans-serif" font-size="14" lengthAdjust="spacing" textLength="106" x="228.5083" y="505.91">taskDescription</text></g><!--class Teams--><g id="elem_Teams"><rect codeLine="83" fill="#F1F1F1" height="50.9766" id="Teams" rx="2.5" ry="2.5" style="stroke:#181818;stroke-width:0.5;" width="109" x="450.0083" y="1295.3083"/><text fill="#000000" font-family="sans-serif" font-size="14" lengthAdjust="spacing" textLength="45" x="482.0083" y="1313.8434">Teams</text><line style="stroke:#181818;stroke-width:0.5;" x1="451.0083" x2="558.0083" y1="1321.7966" y2="1321.7966"/><text fill="#000000" font-family="sans-serif" font-size="14" lengthAdjust="spacing" textLength="97" x="456.0083" y="1339.3317">teamMembers</text></g><!--class Parks--><g id="elem_Parks"><rect codeLine="87" fill="#F1F1F1" height="50.9766" id="Parks" rx="2.5" ry="2.5" style="stroke:#181818;stroke-width:0.5;" width="67" x="466.0083" y="622.8383"/><text fill="#000000" font-family="sans-serif" font-size="14" lengthAdjust="spacing" textLength="37" x="481.0083" y="641.3734">Parks</text><line style="stroke:#181818;stroke-width:0.5;" x1="467.0083" x2="532.0083" y1="649.3266" y2="649.3266"/><text fill="#000000" font-family="sans-serif" font-size="14" lengthAdjust="spacing" textLength="55" x="472.0083" y="666.8617">location</text></g><!--class Portal--><g id="elem_Portal"><rect codeLine="91" fill="#F1F1F1" height="50.9766" id="Portal" rx="2.5" ry="2.5" style="stroke:#181818;stroke-width:0.5;" width="96" x="736.5083" y="364.4183"/><text fill="#000000" font-family="sans-serif" font-size="14" lengthAdjust="spacing" textLength="40" x="764.5083" y="382.9534">Portal</text><line style="stroke:#181818;stroke-width:0.5;" x1="737.5083" x2="831.5083" y1="390.9066" y2="390.9066"/><text fill="#000000" font-family="sans-serif" font-size="14" lengthAdjust="spacing" textLength="84" x="742.5083" y="408.4417">httpAddress</text></g><!--class User--><g id="elem_User"><rect codeLine="95" fill="#F1F1F1" height="83.9531" id="User" rx="2.5" ry="2.5" style="stroke:#181818;stroke-width:0.5;" width="78" x="640.5083" y="606.3483"/><text fill="#000000" font-family="sans-serif" font-size="14" lengthAdjust="spacing" textLength="31" x="664.0083" y="624.8834">User</text><line style="stroke:#181818;stroke-width:0.5;" x1="641.5083" x2="717.5083" y1="632.8366" y2="632.8366"/><text fill="#000000" font-family="sans-serif" font-size="14" lengthAdjust="spacing" textLength="38" x="646.5083" y="650.3717">name</text><text fill="#000000" font-family="sans-serif" font-size="14" lengthAdjust="spacing" textLength="37" x="646.5083" y="666.86">email</text><text fill="#000000" font-family="sans-serif" font-size="14" lengthAdjust="spacing" textLength="66" x="646.5083" y="683.3483">password</text></g><!--class Reports--><g id="elem_Reports"><rect codeLine="101" fill="#F1F1F1" height="83.9531" id="Reports" rx="2.5" ry="2.5" style="stroke:#181818;stroke-width:0.5;" width="59" x="676.0083" y="172.4683"/><text fill="#000000" font-family="sans-serif" font-size="14" lengthAdjust="spacing" textLength="53" x="679.0083" y="191.0034">Reports</text><line style="stroke:#181818;stroke-width:0.5;" x1="677.0083" x2="734.0083" y1="198.9566" y2="198.9566"/><text fill="#000000" font-family="sans-serif" font-size="14" lengthAdjust="spacing" textLength="29" x="682.0083" y="216.4917">type</text><text fill="#000000" font-family="sans-serif" font-size="14" lengthAdjust="spacing" textLength="30" x="682.0083" y="232.98">date</text><text fill="#000000" font-family="sans-serif" font-size="14" lengthAdjust="spacing" textLength="31" x="682.0083" y="249.4683">park</text></g><!--class Comments--><g id="elem_Comments"><rect codeLine="108" fill="#F1F1F1" height="50.9766" id="Comments" rx="2.5" ry="2.5" style="stroke:#181818;stroke-width:0.5;" width="154" x="452.5083" y="44.4883"/><text fill="#000000" font-family="sans-serif" font-size="14" lengthAdjust="spacing" textLength="74" x="492.5083" y="63.0234">Comments</text><line style="stroke:#181818;stroke-width:0.5;" x1="453.5083" x2="605.5083" y1="70.9766" y2="70.9766"/><text fill="#000000" font-family="sans-serif" font-size="14" lengthAdjust="spacing" textLength="142" x="458.5083" y="88.5117">commentDescription</text></g><!--class ReportFaults--><g id="elem_ReportFaults"><rect codeLine="112" fill="#F1F1F1" height="50.9766" id="ReportFaults" rx="2.5" ry="2.5" style="stroke:#181818;stroke-width:0.5;" width="128" x="641.5083" y="44.4883"/><text fill="#000000" font-family="sans-serif" font-size="14" lengthAdjust="spacing" textLength="87" x="662.0083" y="63.0234">ReportFaults</text><line style="stroke:#181818;stroke-width:0.5;" x1="642.5083" x2="768.5083" y1="70.9766" y2="70.9766"/><text fill="#000000" font-family="sans-serif" font-size="14" lengthAdjust="spacing" textLength="116" x="647.5083" y="88.5117">faultsDescription</text></g><!--class Malfunctions--><g id="elem_Malfunctions"><rect codeLine="116" fill="#F1F1F1" height="50.9766" id="Malfunctions" rx="2.5" ry="2.5" style="stroke:#181818;stroke-width:0.5;" width="172" x="804.5083" y="44.4883"/><text fill="#000000" font-family="sans-serif" font-size="14" lengthAdjust="spacing" textLength="88" x="846.5083" y="63.0234">Malfunctions</text><line style="stroke:#181818;stroke-width:0.5;" x1="805.5083" x2="975.5083" y1="70.9766" y2="70.9766"/><text fill="#000000" font-family="sans-serif" font-size="14" lengthAdjust="spacing" textLength="160" x="810.5083" y="88.5117">malfunctionDescription</text></g><!--link Employee to Manager--><g id="link_Employee_Manager"><path codeLine="122" d="M918.1283,868.0283 C883.2583,912.4783 828.8983,981.7583 800.0483,1018.5283 " fill="none" id="Employee-Manager" style="stroke:#181818;stroke-width:1.0;"/><polygon fill="#000000" points="898.5947,902.4698,890.6992,907.7719,895.3236,911.4001,898.5947,902.4698" style="stroke:#000000;stroke-width:1.0;"/><text fill="#000000" font-family="sans-serif" font-size="13" lengthAdjust="spacing" textLength="22" x="904.5083" y="911.3166">is a</text><text fill="#000000" font-family="sans-serif" font-size="13" lengthAdjust="spacing" textLength="22" x="889.4858" y="888.2404">1..*</text><text fill="#000000" font-family="sans-serif" font-size="13" lengthAdjust="spacing" textLength="22" x="807.4925" y="1007.9937">1..*</text></g><!--link Portal to Manager--><g id="link_Portal_Manager"><path codeLine="123" d="M785.5183,415.7583 C786.6983,447.1283 788.5083,502.7283 788.5083,550.3583 C788.5083,550.3583 788.5083,550.3583 788.5083,826.7683 C788.5083,896.3983 784.3283,978.5383 782.0083,1018.7483 " fill="none" id="Portal-Manager" style="stroke:#181818;stroke-width:1.0;"/><polygon fill="#000000" points="793.5374,643.4836,790.5459,652.5115,796.4237,652.5457,793.5374,643.4836" style="stroke:#000000;stroke-width:1.0;"/><text fill="#000000" font-family="sans-serif" font-size="13" lengthAdjust="spacing" textLength="56" x="802.5083" y="653.3966">manages</text><text fill="#000000" font-family="sans-serif" font-size="13" lengthAdjust="spacing" textLength="8" x="776.8269" y="436.0751">1</text><text fill="#000000" font-family="sans-serif" font-size="13" lengthAdjust="spacing" textLength="8" x="773.399" y="1008.2673">1</text></g><!--link Manager to Job--><g id="link_Manager_Job"><path codeLine="124" d="M784.8883,1070.3983 C796.9883,1133.9283 835.6083,1304.9083 918.5083,1420.4883 C940.4383,1451.0583 973.0283,1477.7583 1000.8083,1497.1683 " fill="none" id="Manager-Job" style="stroke:#181818;stroke-width:1.0;"/><polygon fill="#000000" points="925.7656,1325.415,924.3046,1316.0174,919.0598,1318.6709,925.7656,1325.415" style="stroke:#000000;stroke-width:1.0;"/><text fill="#000000" font-family="sans-serif" font-size="13" lengthAdjust="spacing" textLength="55" x="932.5083" y="1325.8666">registers</text><text fill="#000000" font-family="sans-serif" font-size="13" lengthAdjust="spacing" textLength="8" x="776.9715" y="1090.3225">1</text><text fill="#000000" font-family="sans-serif" font-size="13" lengthAdjust="spacing" textLength="22" x="968.4968" y="1488.139">1..*</text></g><!--link Manager to Skill--><g id="link_Manager_Skill"><path codeLine="125" d="M790.1583,1070.3983 C803.6583,1102.3683 831.0683,1157.6483 870.5083,1191.1183 C897.2583,1213.8083 913.3683,1203.1683 943.5083,1221.1183 C974.7183,1239.6983 1006.4083,1265.8683 1029.5283,1286.5883 " fill="none" id="Manager-Skill" style="stroke:#181818;stroke-width:1.0;"/><polygon fill="#000000" points="879.219,1186.1249,874.4762,1177.8812,870.5365,1182.2433,879.219,1186.1249" style="stroke:#000000;stroke-width:1.0;"/><text fill="#000000" font-family="sans-serif" font-size="13" lengthAdjust="spacing" textLength="55" x="884.5083" y="1187.6866">registers</text><text fill="#000000" font-family="sans-serif" font-size="13" lengthAdjust="spacing" textLength="8" x="793.1443" y="1090.3225">1</text><text fill="#000000" font-family="sans-serif" font-size="13" lengthAdjust="spacing" textLength="6" x="1016.2884" y="1276.2348">*</text></g><!--link Manager to Collaborator--><g id="link_Manager_Collaborator"><path codeLine="126" d="M813.5783,1044.4283 C844.1383,1044.4283 890.1883,1044.4283 926.6383,1044.4283 " fill="none" id="Manager-Collaborator" style="stroke:#181818;stroke-width:1.0;"/><polygon fill="#000000" points="845.2583,1033.0836,836.2132,1030.1446,836.2132,1036.0225,845.2583,1033.0836" style="stroke:#000000;stroke-width:1.0;"/><text fill="#000000" font-family="sans-serif" font-size="13" lengthAdjust="spacing" textLength="55" x="849.2583" y="1037.9966">registers</text><text fill="#000000" font-family="sans-serif" font-size="13" lengthAdjust="spacing" textLength="8" x="821.6874" y="1040.3904">1</text><text fill="#000000" font-family="sans-serif" font-size="13" lengthAdjust="spacing" textLength="22" x="897.2151" y="1041.1927">1..*</text></g><!--link Manager to Calendar--><g id="link_Manager_Calendar"><path codeLine="127" d="M785.3983,1070.2483 C796.4983,1133.4283 817.8383,1303.6583 752.5083,1420.4883 C686.6583,1538.2383 532.5283,1605.1483 449.9783,1633.7383 " fill="none" id="Manager-Calendar" style="stroke:#181818;stroke-width:1.0;"/><polygon fill="#000000" points="732.9509,1463.44,740.1028,1457.1709,735.052,1454.1644,732.9509,1463.44" style="stroke:#000000;stroke-width:1.0;"/><text fill="#000000" font-family="sans-serif" font-size="13" lengthAdjust="spacing" textLength="56" x="744.5083" y="1464.0566">manages</text><text fill="#000000" font-family="sans-serif" font-size="13" lengthAdjust="spacing" textLength="8" x="787.4541" y="1090.5582">1</text><text fill="#000000" font-family="sans-serif" font-size="13" lengthAdjust="spacing" textLength="8" x="457.4698" y="1628.098">1</text></g><!--link Manager to Equipment--><g id="link_Manager_Equipment"><path codeLine="128" d="M770.6683,1070.2183 C758.4683,1099.8883 736.2283,1150.6283 711.5083,1191.1183 C702.7483,1205.4583 697.7583,1207.0883 688.5083,1221.1183 C632.5583,1305.9683 647.6083,1347.8683 576.5083,1420.4883 C545.1683,1452.4983 502.5583,1478.5383 466.0283,1497.1983 " fill="none" id="Manager-Equipment" style="stroke:#181818;stroke-width:1.0;"/><polygon fill="#000000" points="690.6043,1325.0238,698.2501,1319.3676,693.4653,1315.9537,690.6043,1325.0238" style="stroke:#000000;stroke-width:1.0;"/><text fill="#000000" font-family="sans-serif" font-size="13" lengthAdjust="spacing" textLength="45" x="702.5083" y="1325.8666">creates</text><text fill="#000000" font-family="sans-serif" font-size="13" lengthAdjust="spacing" textLength="8" x="759.4678" y="1090.5213">1</text><text fill="#000000" font-family="sans-serif" font-size="13" lengthAdjust="spacing" textLength="6" x="474.3057" y="1486.6225">*</text></g><!--link Manager to Vehicle--><g id="link_Manager_Vehicle"><path codeLine="129" d="M747.0883,1058.2683 C692.2683,1079.7583 580.3683,1125.4783 490.5083,1174.1183 C443.1383,1199.7583 392.6083,1231.9983 351.4583,1259.6183 " fill="none" id="Manager-Vehicle" style="stroke:#181818;stroke-width:1.0;"/><polygon fill="#000000" points="491.0522,1185.0414,500.4464,1183.558,497.7804,1178.3196,491.0522,1185.0414" style="stroke:#000000;stroke-width:1.0;"/><text fill="#000000" font-family="sans-serif" font-size="13" lengthAdjust="spacing" textLength="108" x="504.5083" y="1187.6866">creates/manages</text><text fill="#000000" font-family="sans-serif" font-size="13" lengthAdjust="spacing" textLength="8" x="731.3705" y="1057.1766">1</text><text fill="#000000" font-family="sans-serif" font-size="13" lengthAdjust="spacing" textLength="6" x="359.1025" y="1251.2973">*</text></g><!--link Tasks to Manager--><g id="link_Tasks_Manager"><path codeLine="130" d="M340.7683,480.3183 C398.0183,483.4783 484.2383,496.4483 541.5083,542.8583 C551.8583,551.2483 722.8383,919.0383 769.0683,1018.7283 " fill="none" id="Tasks-Manager" style="stroke:#181818;stroke-width:1.0;"/><polygon fill="#000000" points="645.3956,741.5306,648.7266,750.4388,653.3265,746.7796,645.3956,741.5306" style="stroke:#000000;stroke-width:1.0;"/><text fill="#000000" font-family="sans-serif" font-size="13" lengthAdjust="spacing" textLength="45" x="657.5083" y="750.3566">creates</text><text fill="#000000" font-family="sans-serif" font-size="13" lengthAdjust="spacing" textLength="6" x="348.3563" y="477.1362">*</text><text fill="#000000" font-family="sans-serif" font-size="13" lengthAdjust="spacing" textLength="8" x="757.3048" y="1008.2424">1</text></g><!--link Manager to Teams--><g id="link_Manager_Teams"><path codeLine="131" d="M751.0083,1070.1983 C721.3083,1095.4983 674.5683,1136.3183 636.5083,1174.1183 C595.5783,1214.7583 551.1683,1265.2283 525.6983,1294.8483 " fill="none" id="Manager-Teams" style="stroke:#181818;stroke-width:1.0;"/><polygon fill="#000000" points="637.9676,1186.3039,646.4479,1181.9986,642.2977,1177.8363,637.9676,1186.3039" style="stroke:#000000;stroke-width:1.0;"/><text fill="#000000" font-family="sans-serif" font-size="13" lengthAdjust="spacing" textLength="56" x="650.5083" y="1187.6866">manages</text><text fill="#000000" font-family="sans-serif" font-size="13" lengthAdjust="spacing" textLength="8" x="735.2615" y="1090.4966">1</text><text fill="#000000" font-family="sans-serif" font-size="13" lengthAdjust="spacing" textLength="6" x="523.9048" y="1284.7176">*</text></g><!--link User to Parks--><g id="link_User_Parks"><path codeLine="136" d="M640.1583,648.3283 C608.2383,648.3283 563.7083,648.3283 533.3683,648.3283 " fill="none" id="User-Parks" style="stroke:#181818;stroke-width:1.0;"/><polygon fill="#000000" points="564.7583,636.9836,573.8034,639.9225,573.8034,634.0446,564.7583,636.9836" style="stroke:#000000;stroke-width:1.0;"/><text fill="#000000" font-family="sans-serif" font-size="13" lengthAdjust="spacing" textLength="29" x="578.7583" y="641.8966">uses</text><text fill="#000000" font-family="sans-serif" font-size="13" lengthAdjust="spacing" textLength="22" x="610.4485" y="644.7725">1..*</text><text fill="#000000" font-family="sans-serif" font-size="13" lengthAdjust="spacing" textLength="6" x="540.9707" y="644.3821">*</text></g><!--link Reports to User--><g id="link_Reports_User"><path codeLine="137" d="M690.5183,256.8483 C680.6483,286.3883 668.6383,327.2883 663.5083,364.4183 C651.7183,449.6983 663.5283,550.5883 672.1783,605.8983 " fill="none" id="Reports-User" style="stroke:#181818;stroke-width:1.0;"/><polygon fill="#000000" points="668.7707,385.0704,665.3612,393.9489,671.231,394.2573,668.7707,385.0704" style="stroke:#000000;stroke-width:1.0;"/><text fill="#000000" font-family="sans-serif" font-size="13" lengthAdjust="spacing" textLength="41" x="677.5083" y="394.9766">makes</text><text fill="#000000" font-family="sans-serif" font-size="13" lengthAdjust="spacing" textLength="6" x="681.7636" y="277.0819">*</text><text fill="#000000" font-family="sans-serif" font-size="13" lengthAdjust="spacing" textLength="6" x="664.532" y="595.5343">*</text></g><!--link Comments to Reports--><g id="link_Comments_Reports"><path codeLine="139" d="M560.1683,95.7983 C592.6683,122.0983 643.6483,163.3683 675.7883,189.3883 " fill="none" id="Comments-Reports" style="stroke:#181818;stroke-width:1.0;"/><polygon fill="#000000" points="626.3947,137.2694,621.2133,129.2942,617.5151,133.8628,626.3947,137.2694" style="stroke:#000000;stroke-width:1.0;"/><text fill="#000000" font-family="sans-serif" font-size="13" lengthAdjust="spacing" textLength="19" x="631.5083" y="139.0366">are</text><text fill="#000000" font-family="sans-serif" font-size="13" lengthAdjust="spacing" textLength="8" x="558.3335" y="116.1082">1</text><text fill="#000000" font-family="sans-serif" font-size="13" lengthAdjust="spacing" textLength="8" x="659.9906" y="179.4638">1</text></g><!--link ReportFaults to Reports--><g id="link_ReportFaults_Reports"><path codeLine="140" d="M705.5083,95.7983 C705.5083,116.8383 705.5083,147.4583 705.5083,172.1883 " fill="none" id="ReportFaults-Reports" style="stroke:#181818;stroke-width:1.0;"/><polygon fill="#000000" points="710.5083,139.1236,713.4473,130.0785,707.5694,130.0785,710.5083,139.1236" style="stroke:#000000;stroke-width:1.0;"/><text fill="#000000" font-family="sans-serif" font-size="13" lengthAdjust="spacing" textLength="19" x="719.5083" y="139.0366">are</text><text fill="#000000" font-family="sans-serif" font-size="13" lengthAdjust="spacing" textLength="8" x="696.5833" y="116.1082">1</text><text fill="#000000" font-family="sans-serif" font-size="13" lengthAdjust="spacing" textLength="8" x="696.8708" y="161.8514">1</text></g><!--link Malfunctions to Reports--><g id="link_Malfunctions_Reports"><path codeLine="141" d="M858.2883,95.7983 C823.6083,122.4983 768.8983,164.6283 735.2283,190.5583 " fill="none" id="Malfunctions-Reports" style="stroke:#181818;stroke-width:1.0;"/><polygon fill="#000000" points="815.5467,137.1741,824.5064,133.9842,820.9203,129.327,815.5467,137.1741" style="stroke:#000000;stroke-width:1.0;"/><text fill="#000000" font-family="sans-serif" font-size="13" lengthAdjust="spacing" textLength="19" x="828.5083" y="139.0366">are</text><text fill="#000000" font-family="sans-serif" font-size="13" lengthAdjust="spacing" textLength="8" x="841.9125" y="116.1082">1</text><text fill="#000000" font-family="sans-serif" font-size="13" lengthAdjust="spacing" textLength="8" x="743.0261" y="180.9044">1</text></g><!--link Teams to Parks--><g id="link_Teams_Parks"><path codeLine="143" d="M492.6883,1294.8183 C481.2483,1269.3583 464.4983,1228.4183 456.5083,1191.1183 C430.7283,1070.7583 442.5083,1037.7683 438.5083,914.7483 C438.2583,907.1883 437.0783,905.1683 438.5083,897.7483 C441.2283,883.6483 446.2583,881.4583 450.5083,867.7483 C471.8583,798.8883 487.9883,715.1383 495.2583,674.2283 " fill="none" id="Teams-Parks" style="stroke:#181818;stroke-width:1.0;"/><polygon fill="#000000" points="443.529,901.4036,440.5527,910.4364,446.4305,910.4608,443.529,901.4036" style="stroke:#000000;stroke-width:1.0;"/><text fill="#000000" font-family="sans-serif" font-size="13" lengthAdjust="spacing" textLength="111" x="452.5083" y="911.3166">performs tasks in</text><text fill="#000000" font-family="sans-serif" font-size="13" lengthAdjust="spacing" textLength="8" x="481.03" y="1284.6807">1</text><text fill="#000000" font-family="sans-serif" font-size="13" lengthAdjust="spacing" textLength="8" x="485.3505" y="694.5567">1</text></g><!--link Teams to Tasks--><g id="link_Teams_Tasks"><path codeLine="144" d="M482.6783,1294.9383 C444.7083,1249.0383 370.5083,1146.4183 370.5083,1045.4283 C370.5083,647.3283 370.5083,647.3283 370.5083,647.3283 C370.5083,596.0283 337.4583,545.1583 311.6383,513.2483 " fill="none" id="Teams-Tasks" style="stroke:#181818;stroke-width:1.0;"/><polygon fill="#000000" points="374.4396,821.0391,373.502,830.5033,379.244,829.247,374.4396,821.0391" style="stroke:#000000;stroke-width:1.0;"/><text fill="#000000" font-family="sans-serif" font-size="13" lengthAdjust="spacing" textLength="57" x="384.5083" y="830.8366">performs</text><text fill="#000000" font-family="sans-serif" font-size="13" lengthAdjust="spacing" textLength="8" x="468.3823" y="1284.4134">1</text><text fill="#000000" font-family="sans-serif" font-size="13" lengthAdjust="spacing" textLength="8" x="308.4561" y="533.5185">1</text></g><!--link Parks to Organization--><g id="link_Parks_Organization"><path codeLine="147" d="M533.3583,627.0483 C570.9283,604.8383 634.1783,571.5383 694.0083,559.0183 C770.6683,542.9883 797.0883,555.5883 867.5083,589.8583 C876.6983,594.3383 885.9883,599.7883 894.8583,605.5383 " fill="none" id="Parks-Organization" style="stroke:#181818;stroke-width:1.0;"/><polygon fill="#000000" points="694.0172,551.8105,703.2208,554.207,702.8717,548.3396,694.0172,551.8105" style="stroke:#000000;stroke-width:1.0;"/><text fill="#000000" font-family="sans-serif" font-size="13" lengthAdjust="spacing" textLength="56" x="708.0083" y="556.4266">manages</text><text fill="#000000" font-family="sans-serif" font-size="13" lengthAdjust="spacing" textLength="6" x="540.9586" y="618.7131">*</text><text fill="#000000" font-family="sans-serif" font-size="13" lengthAdjust="spacing" textLength="8" x="878.8429" y="596.3705">1</text></g><!--link Organization to Employee--><g id="link_Organization_Employee"><path codeLine="148" d="M950.5083,707.2583 C950.5083,732.2083 950.5083,760.8083 950.5083,783.5483 " fill="none" id="Organization-Employee" style="stroke:#181818;stroke-width:1.0;"/><polygon fill="#000000" points="955.5083,750.4436,958.4473,741.3985,952.5694,741.3985,955.5083,750.4436" style="stroke:#000000;stroke-width:1.0;"/><text fill="#000000" font-family="sans-serif" font-size="13" lengthAdjust="spacing" textLength="22" x="964.5083" y="750.3566">has</text><text fill="#000000" font-family="sans-serif" font-size="13" lengthAdjust="spacing" textLength="8" x="942.0458" y="727.5262">1</text><text fill="#000000" font-family="sans-serif" font-size="13" lengthAdjust="spacing" textLength="22" x="926.6865" y="772.9081">1..*</text></g><!--link Employee to Collaborator--><g id="link_Employee_Collaborator"><path codeLine="151" d="M956.7883,868.0283 C960.0983,889.7583 964.3183,917.4283 968.4183,944.3383 " fill="none" id="Employee-Collaborator" style="stroke:#181818;stroke-width:1.0;"/><polygon fill="#000000" points="968.2617,911.3465,969.8043,901.9619,963.9935,902.8474,968.2617,911.3465" style="stroke:#000000;stroke-width:1.0;"/><text fill="#000000" font-family="sans-serif" font-size="13" lengthAdjust="spacing" textLength="22" x="976.5083" y="911.3166">is a</text><text fill="#000000" font-family="sans-serif" font-size="13" lengthAdjust="spacing" textLength="22" x="934.0656" y="888.2404">1..*</text><text fill="#000000" font-family="sans-serif" font-size="13" lengthAdjust="spacing" textLength="22" x="944.5024" y="934.0165">1..*</text></g><!--link Collaborator to Job--><g id="link_Collaborator_Job"><path codeLine="153" d="M1040.2583,1065.7583 C1086.2383,1085.5983 1147.9083,1120.6783 1176.5083,1174.1183 C1189.8483,1199.0383 1298.0983,1058.1083 1140.5083,1420.4883 C1128.0583,1449.1183 1106.3183,1476.7583 1087.8083,1497.1383 " fill="none" id="Collaborator-Job" style="stroke:#181818;stroke-width:1.0;"/><polygon fill="#000000" points="1222.0562,1325.9235,1223.9864,1316.6108,1218.1439,1317.2548,1222.0562,1325.9235" style="stroke:#000000;stroke-width:1.0;"/><text fill="#000000" font-family="sans-serif" font-size="13" lengthAdjust="spacing" textLength="33" x="1230.5083" y="1325.8666">has a</text><text fill="#000000" font-family="sans-serif" font-size="13" lengthAdjust="spacing" textLength="8" x="1048.0419" y="1065.1178">1</text><text fill="#000000" font-family="sans-serif" font-size="13" lengthAdjust="spacing" textLength="8" x="1085.3936" y="1486.8096">1</text></g><!--link Collaborator to Skill--><g id="link_Collaborator_Skill"><path codeLine="154" d="M1040.3183,1123.2983 C1049.4083,1139.3883 1057.4683,1156.7383 1062.5083,1174.1183 C1073.3583,1211.5283 1071.8783,1256.6483 1068.9783,1286.6683 " fill="none" id="Collaborator-Skill" style="stroke:#181818;stroke-width:1.0;"/><polygon fill="#000000" points="1069.6444,1177.8488,1068.3126,1187.2656,1074.102,1186.25,1069.6444,1177.8488" style="stroke:#000000;stroke-width:1.0;"/><text fill="#000000" font-family="sans-serif" font-size="13" lengthAdjust="spacing" textLength="88" x="1079.5083" y="1187.6866">is assigned to</text><text fill="#000000" font-family="sans-serif" font-size="13" lengthAdjust="spacing" textLength="8" x="1048.1096" y="1130.0301">1</text><text fill="#000000" font-family="sans-serif" font-size="13" lengthAdjust="spacing" textLength="6" x="1063.2586" y="1276.3301">*</text></g><!--link Collaborator to Teams--><g id="link_Collaborator_Teams"><path codeLine="155" d="M974.2383,1144.5683 C968.1783,1162.3583 958.8183,1179.0483 944.5083,1191.1183 C888.8883,1238.0083 685.4383,1192.6083 618.5083,1221.1183 C580.2183,1237.4283 545.5083,1271.5483 524.7083,1295.0583 " fill="none" id="Collaborator-Teams" style="stroke:#181818;stroke-width:1.0;"/><polygon fill="#000000" points="957.767,1184.3608,967.2772,1184.2763,965.4112,1178.7025,957.767,1184.3608" style="stroke:#000000;stroke-width:1.0;"/><text fill="#000000" font-family="sans-serif" font-size="13" lengthAdjust="spacing" textLength="63" x="971.5083" y="1187.6866">integrates</text><text fill="#000000" font-family="sans-serif" font-size="13" lengthAdjust="spacing" textLength="22" x="950.8131" y="1164.7156">1..*</text><text fill="#000000" font-family="sans-serif" font-size="13" lengthAdjust="spacing" textLength="8" x="530.6071" y="1284.5627">1</text></g><!--link Vehicle to Tasks--><g id="link_Vehicle_Tasks"><path codeLine="159" d="M252.3283,1220.8383 C235.6583,1089.8283 210.0883,865.8583 218.5083,783.7883 C228.7583,683.8983 257.5083,568.3883 272.3683,513.0383 " fill="none" id="Vehicle-Tasks" style="stroke:#181818;stroke-width:1.0;"/><polygon fill="#000000" points="223.6498,820.9256,220.4561,829.8838,226.3316,830.0502,223.6498,820.9256" style="stroke:#000000;stroke-width:1.0;"/><text fill="#000000" font-family="sans-serif" font-size="13" lengthAdjust="spacing" textLength="94" x="232.5083" y="830.8366">is attributed to</text><text fill="#000000" font-family="sans-serif" font-size="13" lengthAdjust="spacing" textLength="22" x="228.5526" y="1210.526">1..*</text><text fill="#000000" font-family="sans-serif" font-size="13" lengthAdjust="spacing" textLength="8" x="261.8635" y="533.5296">1</text></g><!--link Tasks to Equipment--><g id="link_Tasks_Equipment"><path codeLine="161" d="M222.2383,505.9383 C170.4583,532.9583 103.5083,580.7583 103.5083,647.3283 C103.5083,647.3283 103.5083,647.3283 103.5083,1321.7983 C103.5083,1411.0883 195.5783,1466.0983 275.4283,1497.0083 " fill="none" id="Tasks-Equipment" style="stroke:#181818;stroke-width:1.0;"/><polygon fill="#000000" points="108.2404,901.4107,105.7904,910.6003,111.6598,910.2853,108.2404,901.4107" style="stroke:#000000;stroke-width:1.0;"/><text fill="#000000" font-family="sans-serif" font-size="13" lengthAdjust="spacing" textLength="94" x="117.5083" y="911.3166">is attributed to</text><text fill="#000000" font-family="sans-serif" font-size="13" lengthAdjust="spacing" textLength="8" x="206.5273" y="505.8787">1</text><text fill="#000000" font-family="sans-serif" font-size="13" lengthAdjust="spacing" textLength="22" x="229.3943" y="1486.6548">1..*</text></g><!--link Tasks to Calendar--><g id="link_Tasks_Calendar"><path codeLine="163" d="M222.0283,490.0483 C143.0783,507.0083 13.5083,549.7083 13.5083,647.3283 C13.5083,647.3283 13.5083,647.3283 13.5083,1532.2183 C13.5083,1599.9883 235.7183,1633.1583 341.1783,1645.0783 " fill="none" id="Tasks-Calendar" style="stroke:#181818;stroke-width:1.0;"/><polygon fill="#000000" points="17.9953,1039.6099,16,1048.9089,21.8468,1048.3057,17.9953,1039.6099" style="stroke:#000000;stroke-width:1.0;"/><text fill="#000000" font-family="sans-serif" font-size="13" lengthAdjust="spacing" textLength="22" x="27.5083" y="1049.4966">has</text><text fill="#000000" font-family="sans-serif" font-size="13" lengthAdjust="spacing" textLength="6" x="208.4136" y="488.0521">*</text><text fill="#000000" font-family="sans-serif" font-size="13" lengthAdjust="spacing" textLength="8" x="325.3402" y="1640.8053">1</text></g><!--link Tasks to Parks--><g id="link_Tasks_Parks"><path codeLine="166" d="M340.8683,508.2383 C359.3983,518.1183 379.4383,529.9983 396.5083,542.8583 C428.0283,566.6283 459.1383,599.9083 478.7783,622.4683 " fill="none" id="Tasks-Parks" style="stroke:#181818;stroke-width:1.0;"/><polygon fill="#000000" points="423.359,554.703,418.2678,546.6699,414.5184,551.1966,423.359,554.703" style="stroke:#000000;stroke-width:1.0;"/><text fill="#000000" font-family="sans-serif" font-size="13" lengthAdjust="spacing" textLength="104" x="428.5083" y="556.4266">are performed in</text><text fill="#000000" font-family="sans-serif" font-size="13" lengthAdjust="spacing" textLength="22" x="348.564" y="508.187">1..*</text><text fill="#000000" font-family="sans-serif" font-size="13" lengthAdjust="spacing" textLength="22" x="449.0441" y="611.9434">1..*</text></g><!--link Reports to Portal--><g id="link_Reports_Portal"><path codeLine="170" d="M724.2283,256.5483 C739.4283,289.9183 760.3483,335.8683 773.1283,363.9183 " fill="none" id="Reports-Portal" style="stroke:#181818;stroke-width:1.0;"/><polygon fill="#000000" points="751.5807,299.6239,750.5064,290.1742,745.1572,292.6104,751.5807,299.6239" style="stroke:#000000;stroke-width:1.0;"/><text fill="#000000" font-family="sans-serif" font-size="13" lengthAdjust="spacing" textLength="87" x="758.5083" y="299.9866">are submitted</text><text fill="#000000" font-family="sans-serif" font-size="13" lengthAdjust="spacing" textLength="6" x="720.7337" y="277.0469">*</text><text fill="#000000" font-family="sans-serif" font-size="13" lengthAdjust="spacing" textLength="8" x="761.5717" y="353.7784">1</text></g><!--SRC=[ZLPDRzGm4BtdLrYzLAgqGAyhL0bHAW4gLBJ0UUBC9cRzaTeELK7yTyQVoMvt2xwi7Rzv7i-y6U-fsmezWWN5bD663zOePDvEsCmx8_0jz7Zh7oKoYzo3xkKIu0Rep8FGFTk0TDYSpbjIQFIF8p9Z_M2QKuaRpxnXLlI3Pvq8TCBe1HcNuDmRxwre9u_lkT6tuXUoLyqWEcHSM4vdnxb2eknSqtZXoRDBeq1eTcqwb4qJQTXdsuCMlo2SmNutZ8O6XN7o4_odIRLeu-e1MoTysXa7et6nXqGicp-5z9qQfNb4t2TCi4em6xmrKa9hB7XZzurQGO7f89yCdHBEaRENyvVEedDnhamh9BursWFtyv7B3-ylEyFlAE1vfUTR_31j_ALGIqbHg-vTWwRq5izSpaZTlWtuiXdcduhlSNM9ZbinxjfyC6sse5ChdkO7qTzm49JLR35AkliY-gq5tUNxXzI6cIytz63JfBV6kUyOP1NNVB8MjV-euifYBvn7EuULtq-24huCTP2FHmsQuvN5-marVrnadGn6HPJPJIphS3ss2g9kIPz6RuHLsErY5jS-09s50X9r1oKL8osegkx0RLq0PLHSPuZ53T8zUOc6souZF3FV8QXYusb-ZI6-RWRSWAsaqd3OpT0DbIyK4GpUZs-oB2lYgqFxJ44GvC7OnLM_u4YSrQMIpre9r0ospRA4L8XZmVEqFAYcn7m5awpmJLmSH5-3t4mwIhwWrVnfpwHfIgsSdBzuSNR2LgjfBFFI5jPCE0RiOe4bOCITv42kwOomv_PHgzGNCoDLqRfAzoYMWB54_mEQQ9Vjw3cZrIfEYYYFExsAJjG2MJDkaVBu51XnkTehwkKnslXM18ie-7-mHe4lNGmZYhAaAiAYpDTiSX6Jzi_IPKE6Q9g56QYsYQXghnntla1H_o7CZkQEmtR4TXpMf6gDWAIQvFM8TcCixVZO0UYnktW2pR6gq128dLSmGcjeC_CSjgVOrRx0sPeDa9ZhfreFXqMMAwBPUGchUCwpr0DhW1r0qVyBlPHw8AI7ijVOXNRwUjycUvFCpgiyGeFlRLOHZVBop1gPGnYEA7z3uY5aCJy2nI95ydchsjPtOvyjIYnJMtyIo9oXe8oSLEADgQTHkkZ9MTLIwJ31m4sj4ZuuSj7y1G00]--></g></svg>