<?xml version="1.0" encoding="us-ascii" standalone="no"?><svg xmlns="http://www.w3.org/2000/svg" xmlns:xlink="http://www.w3.org/1999/xlink" contentStyleType="text/css" height="829.2px" preserveAspectRatio="none" style="width:979px;height:829px;background:#FFFFFF;" version="1.1" viewBox="0 0 979 829" width="979.8px" zoomAndPan="magnify"><defs/><g><text fill="#000000" font-family="sans-serif" font-size="8.4" font-weight="bold" lengthAdjust="spacing" textLength="63" x="454.3558" y="14.1211">Domain Model</text><!--class Organization--><g id="elem_Organization"><rect codeLine="12" fill="#F1F1F1" height="70.1578" id="Organization" rx="1.5" ry="1.5" style="stroke:#181818;stroke-width:0.3;" width="66.6" x="21.6115" y="123.263"/><text fill="#000000" font-family="sans-serif" font-size="8.4" lengthAdjust="spacing" textLength="54" x="27.9115" y="134.3841">Organization</text><line style="stroke:#181818;stroke-width:0.3;" x1="22.2115" x2="87.6115" y1="139.1559" y2="139.1559"/><text fill="#000000" font-family="sans-serif" font-size="8.4" lengthAdjust="spacing" textLength="22.8" x="25.2115" y="149.677">name</text><text fill="#000000" font-family="sans-serif" font-size="8.4" lengthAdjust="spacing" textLength="45" x="25.2115" y="159.57">vatNumber</text><text fill="#000000" font-family="sans-serif" font-size="8.4" lengthAdjust="spacing" textLength="31.2" x="25.2115" y="169.463">website</text><text fill="#000000" font-family="sans-serif" font-size="8.4" lengthAdjust="spacing" textLength="59.4" x="25.2115" y="179.3559">phoneNumber</text><text fill="#000000" font-family="sans-serif" font-size="8.4" lengthAdjust="spacing" textLength="22.2" x="25.2115" y="189.2489">email</text></g><!--class Employee--><g id="elem_Employee"><rect codeLine="20" fill="#F1F1F1" height="20.693" id="Employee" rx="1.5" ry="1.5" style="stroke:#181818;stroke-width:0.3;" width="43.2" x="165.3115" y="298.979"/><text fill="#000000" font-family="sans-serif" font-size="8.4" lengthAdjust="spacing" textLength="39.6" x="167.1115" y="310.1001">Employee</text><line style="stroke:#181818;stroke-width:0.3;" x1="165.9115" x2="207.9115" y1="314.8719" y2="314.8719"/></g><!--class Collaborator--><g id="elem_Collaborator"><rect codeLine="24" fill="#F1F1F1" height="119.6227" id="Collaborator" rx="1.5" ry="1.5" style="stroke:#181818;stroke-width:0.3;" width="67.8" x="214.2115" y="455.507"/><text fill="#000000" font-family="sans-serif" font-size="8.4" lengthAdjust="spacing" textLength="52.2" x="222.0115" y="466.6281">Collaborator</text><line style="stroke:#181818;stroke-width:0.3;" x1="214.8115" x2="281.4115" y1="471.3999" y2="471.3999"/><text fill="#000000" font-family="sans-serif" font-size="8.4" lengthAdjust="spacing" textLength="22.8" x="217.8115" y="481.921">name</text><text fill="#000000" font-family="sans-serif" font-size="8.4" lengthAdjust="spacing" textLength="37.8" x="217.8115" y="491.814">birthdate</text><text fill="#000000" font-family="sans-serif" font-size="8.4" lengthAdjust="spacing" textLength="60.6" x="217.8115" y="501.707">admissionDate</text><text fill="#000000" font-family="sans-serif" font-size="8.4" lengthAdjust="spacing" textLength="32.4" x="217.8115" y="511.5999">address</text><text fill="#000000" font-family="sans-serif" font-size="8.4" lengthAdjust="spacing" textLength="60" x="217.8115" y="521.4929">mobileContact</text><text fill="#000000" font-family="sans-serif" font-size="8.4" lengthAdjust="spacing" textLength="54" x="217.8115" y="531.3859">emailContact</text><text fill="#000000" font-family="sans-serif" font-size="8.4" lengthAdjust="spacing" textLength="43.2" x="217.8115" y="541.2788">IDdocType</text><text fill="#000000" font-family="sans-serif" font-size="8.4" lengthAdjust="spacing" textLength="40.8" x="217.8115" y="551.1718">IDnumber</text><text fill="#000000" font-family="sans-serif" font-size="8.4" lengthAdjust="spacing" textLength="13.2" x="217.8115" y="561.0648">job</text><text fill="#000000" font-family="sans-serif" font-size="8.4" lengthAdjust="spacing" textLength="20.4" x="217.8115" y="570.9578">skills</text></g><!--class Manager--><g id="elem_Manager"><rect codeLine="38" fill="#F1F1F1" height="30.5859" id="Manager" rx="1.5" ry="1.5" style="stroke:#181818;stroke-width:0.3;" width="39.6" x="383.7115" y="143.051"/><text fill="#000000" font-family="sans-serif" font-size="8.4" lengthAdjust="spacing" textLength="36" x="385.5115" y="154.1721">Manager</text><line style="stroke:#181818;stroke-width:0.3;" x1="384.3115" x2="422.7115" y1="158.9439" y2="158.9439"/><text fill="#000000" font-family="sans-serif" font-size="8.4" lengthAdjust="spacing" textLength="29.4" x="387.3115" y="169.465">section</text></g><!--class HumanResourcesManager--><g id="elem_HumanResourcesManager"><rect codeLine="42" fill="#F1F1F1" height="20.693" id="HumanResourcesManager" rx="1.5" ry="1.5" style="stroke:#181818;stroke-width:0.3;" width="111" x="345.6115" y="41.531"/><text fill="#000000" font-family="sans-serif" font-size="8.4" lengthAdjust="spacing" textLength="107.4" x="347.4115" y="52.6521">HumanResourcesManager</text><line style="stroke:#181818;stroke-width:0.3;" x1="346.2115" x2="456.0115" y1="57.4239" y2="57.4239"/></g><!--class VehicleFleetManager--><g id="elem_VehicleFleetManager"><rect codeLine="46" fill="#F1F1F1" height="20.693" id="VehicleFleetManager" rx="1.5" ry="1.5" style="stroke:#181818;stroke-width:0.3;" width="88.8" x="235.5115" y="41.531"/><text fill="#000000" font-family="sans-serif" font-size="8.4" lengthAdjust="spacing" textLength="85.2" x="237.3115" y="52.6521">VehicleFleetManager</text><line style="stroke:#181818;stroke-width:0.3;" x1="236.1115" x2="323.7115" y1="57.4239" y2="57.4239"/></g><!--class GreenSpacesManager--><g id="elem_GreenSpacesManager"><rect codeLine="50" fill="#F1F1F1" height="20.693" id="GreenSpacesManager" rx="1.5" ry="1.5" style="stroke:#181818;stroke-width:0.3;" width="92.4" x="477.3115" y="41.531"/><text fill="#000000" font-family="sans-serif" font-size="8.4" lengthAdjust="spacing" textLength="88.8" x="479.1115" y="52.6521">GreenSpacesManager</text><line style="stroke:#181818;stroke-width:0.3;" x1="477.9115" x2="569.1115" y1="57.4239" y2="57.4239"/></g><!--class Skill--><g id="elem_Skill"><rect codeLine="54" fill="#F1F1F1" height="40.4789" id="Skill" rx="1.5" ry="1.5" style="stroke:#181818;stroke-width:0.3;" width="70.2" x="339.0115" y="621.329"/><text fill="#000000" font-family="sans-serif" font-size="8.4" lengthAdjust="spacing" textLength="16.8" x="365.7115" y="632.4501">Skill</text><line style="stroke:#181818;stroke-width:0.3;" x1="339.6115" x2="408.6115" y1="637.2219" y2="637.2219"/><text fill="#000000" font-family="sans-serif" font-size="8.4" lengthAdjust="spacing" textLength="39.6" x="342.6115" y="647.743">skillName</text><text fill="#000000" font-family="sans-serif" font-size="8.4" lengthAdjust="spacing" textLength="63" x="342.6115" y="657.636">skillDescription</text></g><!--class Job--><g id="elem_Job"><rect codeLine="59" fill="#F1F1F1" height="40.4789" id="Job" rx="1.5" ry="1.5" style="stroke:#181818;stroke-width:0.3;" width="67.2" x="303.3115" y="495.083"/><text fill="#000000" font-family="sans-serif" font-size="8.4" lengthAdjust="spacing" textLength="13.2" x="330.3115" y="506.2041">Job</text><line style="stroke:#181818;stroke-width:0.3;" x1="303.9115" x2="369.9115" y1="510.9759" y2="510.9759"/><text fill="#000000" font-family="sans-serif" font-size="8.4" lengthAdjust="spacing" textLength="36.6" x="306.9115" y="521.497">jobName</text><text fill="#000000" font-family="sans-serif" font-size="8.4" lengthAdjust="spacing" textLength="60" x="306.9115" y="531.39">jobDescription</text></g><!--class Vehicle--><g id="elem_Vehicle"><rect codeLine="64" fill="#F1F1F1" height="139.4086" id="Vehicle" rx="1.5" ry="1.5" style="stroke:#181818;stroke-width:0.3;" width="88.8" x="602.1115" y="239.621"/><text fill="#000000" font-family="sans-serif" font-size="8.4" lengthAdjust="spacing" textLength="29.4" x="631.8115" y="250.7421">Vehicle</text><line style="stroke:#181818;stroke-width:0.3;" x1="602.7115" x2="690.3115" y1="255.5139" y2="255.5139"/><text fill="#000000" font-family="sans-serif" font-size="8.4" lengthAdjust="spacing" textLength="24" x="605.7115" y="266.035">Brand</text><text fill="#000000" font-family="sans-serif" font-size="8.4" lengthAdjust="spacing" textLength="25.2" x="605.7115" y="275.928">Model</text><text fill="#000000" font-family="sans-serif" font-size="8.4" lengthAdjust="spacing" textLength="19.8" x="605.7115" y="285.821">Type</text><text fill="#000000" font-family="sans-serif" font-size="8.4" lengthAdjust="spacing" textLength="18.6" x="605.7115" y="295.7139">Tare</text><text fill="#000000" font-family="sans-serif" font-size="8.4" lengthAdjust="spacing" textLength="54" x="605.7115" y="305.6069">Gross Weight</text><text fill="#000000" font-family="sans-serif" font-size="8.4" lengthAdjust="spacing" textLength="47.4" x="605.7115" y="315.4999">Current Km</text><text fill="#000000" font-family="sans-serif" font-size="8.4" lengthAdjust="spacing" textLength="54.6" x="605.7115" y="325.3928">Register Date</text><text fill="#000000" font-family="sans-serif" font-size="8.4" lengthAdjust="spacing" textLength="67.2" x="605.7115" y="335.2858">Acquisition Date</text><text fill="#000000" font-family="sans-serif" font-size="8.4" lengthAdjust="spacing" textLength="55.2" x="605.7115" y="345.1788">Plate Number</text><text fill="#000000" font-family="sans-serif" font-size="8.4" lengthAdjust="spacing" textLength="81.6" x="605.7115" y="355.0718">Passengers Number</text><text fill="#000000" font-family="sans-serif" font-size="8.4" lengthAdjust="spacing" textLength="60" x="605.7115" y="364.9647">Doors Number</text><text fill="#000000" font-family="sans-serif" font-size="8.4" lengthAdjust="spacing" textLength="39.6" x="605.7115" y="374.8577">Fuel Type</text></g><!--class VehicleCheckup--><g id="elem_VehicleCheckup"><rect codeLine="83" fill="#F1F1F1" height="20.693" id="VehicleCheckup" rx="1.5" ry="1.5" style="stroke:#181818;stroke-width:0.3;" width="69" x="648.6115" y="504.971"/><text fill="#000000" font-family="sans-serif" font-size="8.4" lengthAdjust="spacing" textLength="65.4" x="650.4115" y="516.0921">VehicleCheckup</text><line style="stroke:#181818;stroke-width:0.3;" x1="649.2115" x2="717.0115" y1="520.8639" y2="520.8639"/></g><!--class Equipment--><g id="elem_Equipment"><rect codeLine="86" fill="#F1F1F1" height="40.4789" id="Equipment" rx="1.5" ry="1.5" style="stroke:#181818;stroke-width:0.3;" width="98.4" x="721.5115" y="397.031"/><text fill="#000000" font-family="sans-serif" font-size="8.4" lengthAdjust="spacing" textLength="44.4" x="748.5115" y="408.1521">Equipment</text><line style="stroke:#181818;stroke-width:0.3;" x1="722.1115" x2="819.3115" y1="412.9239" y2="412.9239"/><text fill="#000000" font-family="sans-serif" font-size="8.4" lengthAdjust="spacing" textLength="67.8" x="725.1115" y="423.445">equipmentName</text><text fill="#000000" font-family="sans-serif" font-size="8.4" lengthAdjust="spacing" textLength="91.2" x="725.1115" y="433.338">equipmentDescription</text></g><!--class Agenda--><g id="elem_Agenda"><rect codeLine="91" fill="#F1F1F1" height="30.5859" id="Agenda" rx="1.5" ry="1.5" style="stroke:#181818;stroke-width:0.3;" width="55.8" x="525.0115" y="294.035"/><text fill="#000000" font-family="sans-serif" font-size="8.4" lengthAdjust="spacing" textLength="31.8" x="537.0115" y="305.1561">Agenda</text><line style="stroke:#181818;stroke-width:0.3;" x1="525.6115" x2="580.2115" y1="309.9279" y2="309.9279"/><text fill="#000000" font-family="sans-serif" font-size="8.4" lengthAdjust="spacing" textLength="48.6" x="528.6115" y="320.449">weeksTasks</text></g><!--class Tasks--><g id="elem_Tasks"><rect codeLine="96" fill="#F1F1F1" height="40.4789" id="Tasks" rx="1.5" ry="1.5" style="stroke:#181818;stroke-width:0.3;" width="70.8" x="519.9115" y="708.011"/><text fill="#000000" font-family="sans-serif" font-size="8.4" lengthAdjust="spacing" textLength="23.4" x="543.6115" y="719.1321">Tasks</text><line style="stroke:#181818;stroke-width:0.3;" x1="520.5115" x2="590.1115" y1="723.9039" y2="723.9039"/><text fill="#000000" font-family="sans-serif" font-size="8.4" lengthAdjust="spacing" textLength="39" x="523.5115" y="734.425">reference</text><text fill="#000000" font-family="sans-serif" font-size="8.4" lengthAdjust="spacing" textLength="63.6" x="523.5115" y="744.318">taskDescription</text></g><!--class PendingTasks--><g id="elem_PendingTasks"><rect codeLine="102" fill="#F1F1F1" height="30.5859" id="PendingTasks" rx="1.5" ry="1.5" style="stroke:#181818;stroke-width:0.3;" width="64.8" x="450.3115" y="500.027"/><text fill="#000000" font-family="sans-serif" font-size="8.4" lengthAdjust="spacing" textLength="57" x="454.2115" y="511.1481">PendingTasks</text><line style="stroke:#181818;stroke-width:0.3;" x1="450.9115" x2="514.5115" y1="515.9199" y2="515.9199"/><text fill="#000000" font-family="sans-serif" font-size="8.4" lengthAdjust="spacing" textLength="57.6" x="453.9115" y="526.441">pendingTasks</text></g><!--class Teams--><g id="elem_Teams"><rect codeLine="106" fill="#F1F1F1" height="30.5859" id="Teams" rx="1.5" ry="1.5" style="stroke:#181818;stroke-width:0.3;" width="65.4" x="236.4115" y="626.279"/><text fill="#000000" font-family="sans-serif" font-size="8.4" lengthAdjust="spacing" textLength="27" x="255.6115" y="637.4001">Teams</text><line style="stroke:#181818;stroke-width:0.3;" x1="237.0115" x2="301.2115" y1="642.1719" y2="642.1719"/><text fill="#000000" font-family="sans-serif" font-size="8.4" lengthAdjust="spacing" textLength="58.2" x="240.0115" y="652.693">teamMembers</text></g><!--class Parks--><g id="elem_Parks"><rect codeLine="110" fill="#F1F1F1" height="30.5859" id="Parks" rx="1.5" ry="1.5" style="stroke:#181818;stroke-width:0.3;" width="40.2" x="375.0115" y="794.687"/><text fill="#000000" font-family="sans-serif" font-size="8.4" lengthAdjust="spacing" textLength="22.2" x="384.0115" y="805.8081">Parks</text><line style="stroke:#181818;stroke-width:0.3;" x1="375.6115" x2="414.6115" y1="810.5799" y2="810.5799"/><text fill="#000000" font-family="sans-serif" font-size="8.4" lengthAdjust="spacing" textLength="33" x="378.6115" y="821.101">location</text></g><!--class Portal--><g id="elem_Portal"><rect codeLine="114" fill="#F1F1F1" height="30.5859" id="Portal" rx="1.5" ry="1.5" style="stroke:#181818;stroke-width:0.3;" width="57.6" x="793.5115" y="294.035"/><text fill="#000000" font-family="sans-serif" font-size="8.4" lengthAdjust="spacing" textLength="24" x="810.3115" y="305.1561">Portal</text><line style="stroke:#181818;stroke-width:0.3;" x1="794.1115" x2="850.5115" y1="309.9279" y2="309.9279"/><text fill="#000000" font-family="sans-serif" font-size="8.4" lengthAdjust="spacing" textLength="50.4" x="797.1115" y="320.449">httpAddress</text></g><!--class User--><g id="elem_User"><rect codeLine="118" fill="#F1F1F1" height="50.3719" id="User" rx="1.5" ry="1.5" style="stroke:#181818;stroke-width:0.3;" width="46.8" x="926.1115" y="26.693"/><text fill="#000000" font-family="sans-serif" font-size="8.4" lengthAdjust="spacing" textLength="18.6" x="940.2115" y="37.8141">User</text><line style="stroke:#181818;stroke-width:0.3;" x1="926.7115" x2="972.3115" y1="42.5859" y2="42.5859"/><text fill="#000000" font-family="sans-serif" font-size="8.4" lengthAdjust="spacing" textLength="22.8" x="929.7115" y="53.107">name</text><text fill="#000000" font-family="sans-serif" font-size="8.4" lengthAdjust="spacing" textLength="22.2" x="929.7115" y="63">email</text><text fill="#000000" font-family="sans-serif" font-size="8.4" lengthAdjust="spacing" textLength="39.6" x="929.7115" y="72.893">password</text></g><!--class Reports--><g id="elem_Reports"><rect codeLine="124" fill="#F1F1F1" height="50.3719" id="Reports" rx="1.5" ry="1.5" style="stroke:#181818;stroke-width:0.3;" width="35.4" x="837.6115" y="133.157"/><text fill="#000000" font-family="sans-serif" font-size="8.4" lengthAdjust="spacing" textLength="31.8" x="839.4115" y="144.2781">Reports</text><line style="stroke:#181818;stroke-width:0.3;" x1="838.2115" x2="872.4115" y1="149.0499" y2="149.0499"/><text fill="#000000" font-family="sans-serif" font-size="8.4" lengthAdjust="spacing" textLength="17.4" x="841.2115" y="159.571">type</text><text fill="#000000" font-family="sans-serif" font-size="8.4" lengthAdjust="spacing" textLength="18" x="841.2115" y="169.464">date</text><text fill="#000000" font-family="sans-serif" font-size="8.4" lengthAdjust="spacing" textLength="18.6" x="841.2115" y="179.357">park</text></g><!--class Comments--><g id="elem_Comments"><rect codeLine="131" fill="#F1F1F1" height="30.5859" id="Comments" rx="1.5" ry="1.5" style="stroke:#181818;stroke-width:0.3;" width="92.4" x="714.9115" y="36.587"/><text fill="#000000" font-family="sans-serif" font-size="8.4" lengthAdjust="spacing" textLength="44.4" x="738.9115" y="47.7081">Comments</text><line style="stroke:#181818;stroke-width:0.3;" x1="715.5115" x2="806.7115" y1="52.4799" y2="52.4799"/><text fill="#000000" font-family="sans-serif" font-size="8.4" lengthAdjust="spacing" textLength="85.2" x="718.5115" y="63.001">commentDescription</text></g><!--class ReportFaults--><g id="elem_ReportFaults"><rect codeLine="135" fill="#F1F1F1" height="30.5859" id="ReportFaults" rx="1.5" ry="1.5" style="stroke:#181818;stroke-width:0.3;" width="76.8" x="828.3115" y="36.587"/><text fill="#000000" font-family="sans-serif" font-size="8.4" lengthAdjust="spacing" textLength="52.2" x="840.6115" y="47.7081">ReportFaults</text><line style="stroke:#181818;stroke-width:0.3;" x1="828.9115" x2="904.5115" y1="52.4799" y2="52.4799"/><text fill="#000000" font-family="sans-serif" font-size="8.4" lengthAdjust="spacing" textLength="69.6" x="831.9115" y="63.001">faultsDescription</text></g><!--class Malfunctions--><g id="elem_Malfunctions"><rect codeLine="139" fill="#F1F1F1" height="30.5859" id="Malfunctions" rx="1.5" ry="1.5" style="stroke:#181818;stroke-width:0.3;" width="103.2" x="590.7115" y="36.587"/><text fill="#000000" font-family="sans-serif" font-size="8.4" lengthAdjust="spacing" textLength="52.8" x="615.9115" y="47.7081">Malfunctions</text><line style="stroke:#181818;stroke-width:0.3;" x1="591.3115" x2="693.3115" y1="52.4799" y2="52.4799"/><text fill="#000000" font-family="sans-serif" font-size="8.4" lengthAdjust="spacing" textLength="96" x="594.3115" y="63.001">malfunctionDescription</text></g><!--link Manager to Employee--><g id="link_Manager_Employee"><path codeLine="145" d="M383.4655,158.357 C344.7835,158.363 259.5595,164.135 212.7115,211.421 C188.7835,235.565 186.3235,279.191 186.5215,298.757 " fill="none" id="Manager-Employee" style="stroke:#181818;stroke-width:0.6;"/><polygon fill="#000000" points="213.2687,218.3556,218.7114,216.6411,216.6642,213.7694,213.2687,218.3556" style="stroke:#000000;stroke-width:0.6;"/><text fill="#000000" font-family="sans-serif" font-size="7.8" lengthAdjust="spacing" textLength="13.2" x="221.1115" y="219.562">is a</text><text fill="#000000" font-family="sans-serif" font-size="7.8" lengthAdjust="spacing" textLength="13.2" x="365.6858" y="156.1428">1..*</text><text fill="#000000" font-family="sans-serif" font-size="7.8" lengthAdjust="spacing" textLength="13.2" x="188.501" y="292.5246">1..*</text></g><!--link Manager to Portal--><g id="link_Manager_Portal"><path codeLine="146" d="M423.5515,159.599 C490.9795,162.149 708.5815,173.231 765.3115,211.421 C794.7895,231.263 811.1215,271.883 818.1295,293.843 " fill="none" id="Manager-Portal" style="stroke:#181818;stroke-width:0.6;"/><polygon fill="#000000" points="782.5517,217.5804,777.9818,214.163,776.8459,217.5018,782.5517,217.5804" style="stroke:#000000;stroke-width:0.6;"/><text fill="#000000" font-family="sans-serif" font-size="7.8" lengthAdjust="spacing" textLength="33.6" x="785.1115" y="219.562">manages</text><text fill="#000000" font-family="sans-serif" font-size="7.8" lengthAdjust="spacing" textLength="4.8" x="428.1798" y="157.4899">1</text><text fill="#000000" font-family="sans-serif" font-size="7.8" lengthAdjust="spacing" textLength="4.8" x="811.7252" y="287.5354">1</text></g><!--link Job to Manager--><g id="link_Job_Manager"><path codeLine="147" d="M334.4455,494.909 C329.4355,448.775 320.9155,331.127 350.7115,239.621 C359.0035,214.151 377.5555,189.005 390.3055,173.723 " fill="none" id="Job-Manager" style="stroke:#181818;stroke-width:0.6;"/><polygon fill="#000000" points="353.1975,312.3718,355.8647,307.3271,352.3901,306.7228,353.1975,312.3718" style="stroke:#000000;stroke-width:0.6;"/><text fill="#000000" font-family="sans-serif" font-size="7.8" lengthAdjust="spacing" textLength="33" x="359.1115" y="312.364">registers</text><text fill="#000000" font-family="sans-serif" font-size="7.8" lengthAdjust="spacing" textLength="13.2" x="319.4607" y="488.5635">1..*</text><text fill="#000000" font-family="sans-serif" font-size="7.8" lengthAdjust="spacing" textLength="4.8" x="381.8966" y="185.8826">1</text></g><!--link Manager to Skill--><g id="link_Manager_Skill"><path codeLine="148" d="M404.8795,173.933 C409.6675,230.753 423.6175,438.041 389.1115,603.329 C387.8755,609.251 385.7755,615.443 383.5375,621.053 " fill="none" id="Manager-Skill" style="stroke:#181818;stroke-width:0.6;"/><polygon fill="#000000" points="413.5685,420.3587,415.5886,415.0219,412.0659,414.8538,413.5685,420.3587" style="stroke:#000000;stroke-width:0.6;"/><text fill="#000000" font-family="sans-serif" font-size="7.8" lengthAdjust="spacing" textLength="33" x="419.1115" y="420.31">registers</text><text fill="#000000" font-family="sans-serif" font-size="7.8" lengthAdjust="spacing" textLength="4.8" x="399.8538" y="185.8888">1</text><text fill="#000000" font-family="sans-serif" font-size="7.8" lengthAdjust="spacing" textLength="3.6" x="381.3912" y="614.8432">*</text></g><!--link Manager to Collaborator--><g id="link_Manager_Collaborator"><path codeLine="149" d="M383.5375,165.671 C355.3675,176.357 304.9375,200.129 282.9115,239.621 C240.0415,316.481 292.3195,351.083 275.7115,437.507 C274.5835,443.381 273.0835,449.405 271.3615,455.369 " fill="none" id="Manager-Collaborator" style="stroke:#181818;stroke-width:0.6;"/><polygon fill="#000000" points="284.8283,312.2137,288.4323,307.7896,285.1435,306.5161,284.8283,312.2137" style="stroke:#000000;stroke-width:0.6;"/><text fill="#000000" font-family="sans-serif" font-size="7.8" lengthAdjust="spacing" textLength="33" x="291.3115" y="312.364">registers</text><text fill="#000000" font-family="sans-serif" font-size="7.8" lengthAdjust="spacing" textLength="4.8" x="374.1229" y="175.6705">1</text><text fill="#000000" font-family="sans-serif" font-size="7.8" lengthAdjust="spacing" textLength="13.2" x="259.4363" y="448.9827">1..*</text></g><!--link Manager to Agenda--><g id="link_Manager_Agenda"><path codeLine="150" d="M423.5035,170.717 C446.2435,184.859 483.4615,210.377 508.5115,239.621 C523.2595,256.841 536.8135,279.329 544.9735,293.897 " fill="none" id="Manager-Agenda" style="stroke:#181818;stroke-width:0.6;"/><polygon fill="#000000" points="495.618,218.7502,493.063,213.6479,490.5518,216.1241,495.618,218.7502" style="stroke:#000000;stroke-width:0.6;"/><text fill="#000000" font-family="sans-serif" font-size="7.8" lengthAdjust="spacing" textLength="33.6" x="498.9115" y="219.562">manages</text><text fill="#000000" font-family="sans-serif" font-size="7.8" lengthAdjust="spacing" textLength="4.8" x="428.1219" y="181.7573">1</text><text fill="#000000" font-family="sans-serif" font-size="7.8" lengthAdjust="spacing" textLength="4.8" x="537.6536" y="287.6025">1</text></g><!--link Manager to PendingTasks--><g id="link_Manager_PendingTasks"><path codeLine="151" d="M410.1355,173.855 C414.5335,184.223 420.1675,198.461 423.9115,211.421 C455.2735,320.021 474.8455,455.369 480.7915,499.823 " fill="none" id="Manager-PendingTasks" style="stroke:#181818;stroke-width:0.6;"/><polygon fill="#000000" points="464.147,312.348,464.7207,306.6706,461.2741,307.4177,464.147,312.348" style="stroke:#000000;stroke-width:0.6;"/><text fill="#000000" font-family="sans-serif" font-size="7.8" lengthAdjust="spacing" textLength="33.6" x="468.9115" y="312.364">manages</text><text fill="#000000" font-family="sans-serif" font-size="7.8" lengthAdjust="spacing" textLength="4.8" x="406.3123" y="186.0451">1</text><text fill="#000000" font-family="sans-serif" font-size="7.8" lengthAdjust="spacing" textLength="3.6" x="476.2848" y="493.5124">*</text></g><!--link Manager to Equipment--><g id="link_Manager_Equipment"><path codeLine="152" d="M423.4435,161.867 C483.3475,171.023 660.2215,200.855 701.7115,239.621 C747.8755,282.749 763.5835,360.425 768.5695,396.827 " fill="none" id="Manager-Equipment" style="stroke:#181818;stroke-width:0.6;"/><polygon fill="#000000" points="674.7914,218.3024,671.2976,213.7907,669.3129,216.7059,674.7914,218.3024" style="stroke:#000000;stroke-width:0.6;"/><text fill="#000000" font-family="sans-serif" font-size="7.8" lengthAdjust="spacing" textLength="33" x="677.7115" y="219.562">registers</text><text fill="#000000" font-family="sans-serif" font-size="7.8" lengthAdjust="spacing" textLength="4.8" x="428.0495" y="171.0819">1</text><text fill="#000000" font-family="sans-serif" font-size="7.8" lengthAdjust="spacing" textLength="3.6" x="764.2181" y="390.6309">*</text></g><!--link Manager to Vehicle--><g id="link_Manager_Vehicle"><path codeLine="153" d="M423.5875,163.547 C460.2535,172.769 539.0935,196.409 591.3115,239.621 C594.9175,242.609 598.4515,245.861 601.8715,249.281 " fill="none" id="Manager-Vehicle" style="stroke:#181818;stroke-width:0.6;"/><polygon fill="#000000" points="570.0152,217.9143,565.8884,213.9731,564.36,217.1515,570.0152,217.9143" style="stroke:#000000;stroke-width:0.6;"/><text fill="#000000" font-family="sans-serif" font-size="7.8" lengthAdjust="spacing" textLength="33.6" x="572.7115" y="219.562">manages</text><text fill="#000000" font-family="sans-serif" font-size="7.8" lengthAdjust="spacing" textLength="4.8" x="428.2232" y="162.2522">1</text><text fill="#000000" font-family="sans-serif" font-size="7.8" lengthAdjust="spacing" textLength="3.6" x="593.7001" y="241.4776">*</text></g><!--link Manager to Tasks--><g id="link_Manager_Tasks"><path codeLine="154" d="M383.5015,159.725 C322.4635,162.503 140.1835,173.849 96.9115,211.421 C62.6215,241.199 65.7115,263.309 65.7115,308.723 C65.7115,308.723 65.7115,308.723 65.7115,642.173 C65.7115,647.933 407.0395,703.667 519.7075,721.907 " fill="none" id="Manager-Tasks" style="stroke:#181818;stroke-width:0.6;"/><polygon fill="#000000" points="69.4179,518.3298,69.8538,512.6401,66.4263,513.4705,69.4179,518.3298" style="stroke:#000000;stroke-width:0.6;"/><text fill="#000000" font-family="sans-serif" font-size="7.8" lengthAdjust="spacing" textLength="27" x="74.1115" y="518.362">creates</text><text fill="#000000" font-family="sans-serif" font-size="7.8" lengthAdjust="spacing" textLength="4.8" x="374.0795" y="168.4982">1</text><text fill="#000000" font-family="sans-serif" font-size="7.8" lengthAdjust="spacing" textLength="3.6" x="511.5489" y="729.2347">*</text></g><!--link Manager to Teams--><g id="link_Manager_Teams"><path codeLine="155" d="M383.5435,162.077 C328.9075,171.137 179.3635,199.289 154.5115,239.621 C75.4435,367.925 118.5835,450.767 203.7115,575.129 C217.1815,594.809 236.9335,613.739 251.2015,626.207 " fill="none" id="Manager-Teams" style="stroke:#181818;stroke-width:0.6;"/><polygon fill="#000000" points="127.8889,420.2471,131.0728,415.5116,127.6813,414.5446,127.8889,420.2471" style="stroke:#000000;stroke-width:0.6;"/><text fill="#000000" font-family="sans-serif" font-size="7.8" lengthAdjust="spacing" textLength="33.6" x="134.1115" y="420.31">manages</text><text fill="#000000" font-family="sans-serif" font-size="7.8" lengthAdjust="spacing" textLength="4.8" x="374.1301" y="160.479">1</text><text fill="#000000" font-family="sans-serif" font-size="7.8" lengthAdjust="spacing" textLength="3.6" x="242.7972" y="619.9286">*</text></g><!--link HumanResourcesManager to Manager--><g id="link_HumanResourcesManager_Manager"><path codeLine="156" d="M401.3395,62.381 C401.7595,80.909 402.6715,120.905 403.1695,142.751 " fill="none" id="HumanResourcesManager-Manager" style="stroke:#181818;stroke-width:0.6;"/><polygon fill="#000000" points="405.2432,97.2569,403.6039,102.7227,407.1297,102.6424,405.2432,97.2569" style="stroke:#000000;stroke-width:0.6;"/><text fill="#000000" font-family="sans-serif" font-size="7.8" lengthAdjust="spacing" textLength="13.2" x="410.7115" y="103.204">is a</text><text fill="#000000" font-family="sans-serif" font-size="7.8" lengthAdjust="spacing" textLength="4.8" x="395.8744" y="74.5453">1</text><text fill="#000000" font-family="sans-serif" font-size="7.8" lengthAdjust="spacing" textLength="4.8" x="397.7354" y="136.667">1</text></g><!--link VehicleFleetManager to Manager--><g id="link_VehicleFleetManager_Manager"><path codeLine="157" d="M291.5395,62.381 C313.2955,80.909 360.2575,120.905 385.9135,142.751 " fill="none" id="VehicleFleetManager-Manager" style="stroke:#181818;stroke-width:0.6;"/><polygon fill="#000000" points="342.4275,98.3111,345.416,103.1722,347.7026,100.4872,342.4275,98.3111" style="stroke:#000000;stroke-width:0.6;"/><text fill="#000000" font-family="sans-serif" font-size="7.8" lengthAdjust="spacing" textLength="13.2" x="350.1115" y="103.204">is a</text><text fill="#000000" font-family="sans-serif" font-size="7.8" lengthAdjust="spacing" textLength="4.8" x="289.5656" y="74.5453">1</text><text fill="#000000" font-family="sans-serif" font-size="7.8" lengthAdjust="spacing" textLength="4.8" x="376.489" y="136.667">1</text></g><!--link GreenSpacesManager to Manager--><g id="link_GreenSpacesManager_Manager"><path codeLine="158" d="M512.2195,62.381 C491.0995,80.909 445.5055,120.905 420.5995,142.751 " fill="none" id="GreenSpacesManager-Manager" style="stroke:#181818;stroke-width:0.6;"/><polygon fill="#000000" points="478.9668,98.2778,473.7242,100.531,476.0498,103.1822,478.9668,98.2778" style="stroke:#000000;stroke-width:0.6;"/><text fill="#000000" font-family="sans-serif" font-size="7.8" lengthAdjust="spacing" textLength="13.2" x="482.1115" y="103.204">is a</text><text fill="#000000" font-family="sans-serif" font-size="7.8" lengthAdjust="spacing" textLength="4.8" x="503.2264" y="74.5453">1</text><text fill="#000000" font-family="sans-serif" font-size="7.8" lengthAdjust="spacing" textLength="4.8" x="419.1961" y="136.667">1</text></g><!--link Agenda to PendingTasks--><g id="link_Agenda_PendingTasks"><path codeLine="160" d="M543.9895,324.779 C535.3135,338.975 521.5735,360.845 508.5115,379.031 C502.5355,387.353 497.9635,387.539 494.1115,397.031 C480.0175,431.741 480.2275,476.771 481.5055,499.769 " fill="none" id="Agenda-PendingTasks" style="stroke:#181818;stroke-width:0.6;"/><polygon fill="#000000" points="496.1027,420.1874,499.5884,415.6694,496.267,414.4834,496.1027,420.1874" style="stroke:#000000;stroke-width:0.6;"/><text fill="#000000" font-family="sans-serif" font-size="7.8" lengthAdjust="spacing" textLength="59.4" x="502.5115" y="420.31">gets tasks from</text><text fill="#000000" font-family="sans-serif" font-size="7.8" lengthAdjust="spacing" textLength="4.8" x="536.5713" y="336.9552">1</text><text fill="#000000" font-family="sans-serif" font-size="7.8" lengthAdjust="spacing" textLength="3.6" x="481.6429" y="493.6947">*</text></g><!--link User to Parks--><g id="link_User_Parks"><path codeLine="163" d="M949.5115,77.363 C949.5115,98.693 949.5115,130.241 949.5115,157.745 C949.5115,157.745 949.5115,157.745 949.5115,728.849 C949.5115,783.923 515.5195,804.581 415.4995,808.613 " fill="none" id="User-Parks" style="stroke:#181818;stroke-width:0.6;"/><polygon fill="#000000" points="950.7423,517.8369,955.367,514.494,952.5188,512.4141,950.7423,517.8369" style="stroke:#000000;stroke-width:0.6;"/><text fill="#000000" font-family="sans-serif" font-size="7.8" lengthAdjust="spacing" textLength="17.4" x="957.9115" y="518.362">uses</text><text fill="#000000" font-family="sans-serif" font-size="7.8" lengthAdjust="spacing" textLength="13.2" x="935.3422" y="89.3216">1..*</text><text fill="#000000" font-family="sans-serif" font-size="7.8" lengthAdjust="spacing" textLength="3.6" x="420.0758" y="805.9631">*</text></g><!--link User to Reports--><g id="link_User_Reports"><path codeLine="164" d="M925.9555,70.931 C917.4715,78.065 908.0815,86.555 900.3115,95.063 C889.6555,106.739 879.2575,120.965 871.1515,132.911 " fill="none" id="User-Reports" style="stroke:#181818;stroke-width:0.6;"/><polygon fill="#000000" points="901.3243,102.5036,906.2402,99.606,903.5982,97.2699,901.3243,102.5036" style="stroke:#000000;stroke-width:0.6;"/><text fill="#000000" font-family="sans-serif" font-size="7.8" lengthAdjust="spacing" textLength="24.6" x="908.7115" y="103.204">makes</text><text fill="#000000" font-family="sans-serif" font-size="7.8" lengthAdjust="spacing" textLength="3.6" x="917.6805" y="72.1722">*</text><text fill="#000000" font-family="sans-serif" font-size="7.8" lengthAdjust="spacing" textLength="3.6" x="869.7892" y="126.6964">*</text></g><!--link Comments to Reports--><g id="link_Comments_Reports"><path codeLine="166" d="M774.4075,67.337 C790.8895,85.757 819.0475,117.215 837.4135,137.741 " fill="none" id="Comments-Reports" style="stroke:#181818;stroke-width:0.6;"/><polygon fill="#000000" points="812.9121,102.4917,810.607,97.2716,807.979,99.6235,812.9121,102.4917" style="stroke:#000000;stroke-width:0.6;"/><text fill="#000000" font-family="sans-serif" font-size="7.8" lengthAdjust="spacing" textLength="11.4" x="816.3115" y="103.204">are</text><text fill="#000000" font-family="sans-serif" font-size="7.8" lengthAdjust="spacing" textLength="4.8" x="772.1272" y="79.5146">1</text><text fill="#000000" font-family="sans-serif" font-size="7.8" lengthAdjust="spacing" textLength="4.8" x="827.9196" y="130.4987">1</text></g><!--link ReportFaults to Reports--><g id="link_ReportFaults_Reports"><path codeLine="167" d="M862.0315,67.289 C859.6975,75.401 857.1295,85.685 855.9115,95.063 C854.3035,107.471 854.0155,121.385 854.1895,132.941 " fill="none" id="ReportFaults-Reports" style="stroke:#181818;stroke-width:0.6;"/><polygon fill="#000000" points="858.5557,103.235,860.9503,98.0554,857.4485,97.6371,858.5557,103.235" style="stroke:#000000;stroke-width:0.6;"/><text fill="#000000" font-family="sans-serif" font-size="7.8" lengthAdjust="spacing" textLength="11.4" x="864.3115" y="103.204">are</text><text fill="#000000" font-family="sans-serif" font-size="7.8" lengthAdjust="spacing" textLength="4.8" x="855.5943" y="79.4555">1</text><text fill="#000000" font-family="sans-serif" font-size="7.8" lengthAdjust="spacing" textLength="4.8" x="848.8282" y="126.7312">1</text></g><!--link Malfunctions to Reports--><g id="link_Malfunctions_Reports"><path codeLine="168" d="M672.6055,67.445 C717.6235,89.699 800.8075,130.805 837.3235,148.853 " fill="none" id="Malfunctions-Reports" style="stroke:#181818;stroke-width:0.6;"/><polygon fill="#000000" points="754.201,101.5853,750.117,97.6,748.5544,100.7616,754.201,101.5853" style="stroke:#000000;stroke-width:0.6;"/><text fill="#000000" font-family="sans-serif" font-size="7.8" lengthAdjust="spacing" textLength="11.4" x="756.9115" y="103.204">are</text><text fill="#000000" font-family="sans-serif" font-size="7.8" lengthAdjust="spacing" textLength="4.8" x="673.9073" y="79.3956">1</text><text fill="#000000" font-family="sans-serif" font-size="7.8" lengthAdjust="spacing" textLength="4.8" x="828.0637" y="144.3541">1</text></g><!--link Teams to Parks--><g id="link_Teams_Parks"><path codeLine="170" d="M280.2955,657.011 C304.2055,688.739 360.0655,762.875 383.9575,794.579 " fill="none" id="Teams-Parks" style="stroke:#181818;stroke-width:0.6;"/><polygon fill="#000000" points="353.7169,730.7381,351.8592,725.3426,349.0426,727.465,353.7169,730.7381" style="stroke:#000000;stroke-width:0.6;"/><text fill="#000000" font-family="sans-serif" font-size="7.8" lengthAdjust="spacing" textLength="66" x="357.3115" y="731.29">carry out tasks in</text><text fill="#000000" font-family="sans-serif" font-size="7.8" lengthAdjust="spacing" textLength="4.8" x="277.5268" y="669.1844">1</text><text fill="#000000" font-family="sans-serif" font-size="7.8" lengthAdjust="spacing" textLength="4.8" x="375.8537" y="788.2918">1</text></g><!--link Teams to Tasks--><g id="link_Teams_Tasks"><path codeLine="171" d="M302.0335,653.297 C310.6315,656.135 319.9015,659.141 328.5115,661.811 C395.7655,682.685 474.8635,705.185 519.6415,717.731 " fill="none" id="Teams-Tasks" style="stroke:#181818;stroke-width:0.6;"/><polygon fill="#000000" points="427.3881,685.8559,422.685,682.6243,421.6837,686.0058,427.3881,685.8559" style="stroke:#000000;stroke-width:0.6;"/><text fill="#000000" font-family="sans-serif" font-size="7.8" lengthAdjust="spacing" textLength="33.6" x="429.9115" y="687.952">carry out</text><text fill="#000000" font-family="sans-serif" font-size="7.8" lengthAdjust="spacing" textLength="4.8" x="306.5592" y="652.7756">1</text><text fill="#000000" font-family="sans-serif" font-size="7.8" lengthAdjust="spacing" textLength="4.8" x="510.2018" y="714.4528">1</text></g><!--link Organization to Parks--><g id="link_Organization_Parks"><path codeLine="174" d="M38.0635,193.445 C25.0735,223.241 9.3115,267.815 9.3115,308.723 C9.3115,308.723 9.3115,308.723 9.3115,728.849 C9.3115,804.287 295.5295,809.519 374.9095,809.519 " fill="none" id="Organization-Parks" style="stroke:#181818;stroke-width:0.6;"/><polygon fill="#000000" points="13.7507,600.9544,12.6944,595.3467,9.6,597.0386,13.7507,600.9544" style="stroke:#000000;stroke-width:0.6;"/><text fill="#000000" font-family="sans-serif" font-size="7.8" lengthAdjust="spacing" textLength="33.6" x="17.7115" y="601.27">manages</text><text fill="#000000" font-family="sans-serif" font-size="7.8" lengthAdjust="spacing" textLength="4.8" x="30.9177" y="205.824">1</text><text fill="#000000" font-family="sans-serif" font-size="7.8" lengthAdjust="spacing" textLength="3.6" x="366.4966" y="806.9952">*</text></g><!--link Organization to Employee--><g id="link_Organization_Employee"><path codeLine="175" d="M85.5295,193.679 C115.6075,227.819 159.6175,277.757 178.1635,298.799 " fill="none" id="Organization-Employee" style="stroke:#181818;stroke-width:0.6;"/><polygon fill="#000000" points="114.495,218.8649,112.2299,213.6274,109.5839,215.959,114.495,218.8649" style="stroke:#000000;stroke-width:0.6;"/><text fill="#000000" font-family="sans-serif" font-size="7.8" lengthAdjust="spacing" textLength="13.2" x="117.9115" y="219.562">has</text><text fill="#000000" font-family="sans-serif" font-size="7.8" lengthAdjust="spacing" textLength="4.8" x="83.9922" y="205.8369">1</text><text fill="#000000" font-family="sans-serif" font-size="7.8" lengthAdjust="spacing" textLength="13.2" x="160.0714" y="292.58">1..*</text></g><!--link Employee to Collaborator--><g id="link_Employee_Collaborator"><path codeLine="178" d="M186.2155,319.859 C185.0215,341.777 183.9295,395.657 198.3115,437.507 C202.0975,448.523 207.7735,459.533 213.9535,469.643 " fill="none" id="Employee-Collaborator" style="stroke:#181818;stroke-width:0.6;"/><polygon fill="#000000" points="201.8578,420.312,202.6035,414.6546,199.1357,415.2967,201.8578,420.312" style="stroke:#000000;stroke-width:0.6;"/><text fill="#000000" font-family="sans-serif" font-size="7.8" lengthAdjust="spacing" textLength="13.2" x="206.7115" y="420.31">is a</text><text fill="#000000" font-family="sans-serif" font-size="7.8" lengthAdjust="spacing" textLength="13.2" x="170.7811" y="332.0325">1..*</text><text fill="#000000" font-family="sans-serif" font-size="7.8" lengthAdjust="spacing" textLength="13.2" x="196.2956" y="462.7062">1..*</text></g><!--link Employee to Job--><g id="link_Employee_Job"><path codeLine="179" d="M191.5135,319.949 C198.0475,333.773 210.7855,359.231 224.7115,379.031 C250.8415,416.183 263.7955,420.311 292.5115,455.507 C302.9875,468.353 314.1835,483.287 322.7095,494.945 " fill="none" id="Employee-Job" style="stroke:#181818;stroke-width:0.6;"/><polygon fill="#000000" points="280.5111,419.7625,278.6665,414.3625,275.8448,416.478,280.5111,419.7625" style="stroke:#000000;stroke-width:0.6;"/><text fill="#000000" font-family="sans-serif" font-size="7.8" lengthAdjust="spacing" textLength="19.8" x="284.1115" y="420.31">has a</text><text fill="#000000" font-family="sans-serif" font-size="7.8" lengthAdjust="spacing" textLength="4.8" x="187.3604" y="331.9599">1</text><text fill="#000000" font-family="sans-serif" font-size="7.8" lengthAdjust="spacing" textLength="4.8" x="314.641" y="488.6066">1</text></g><!--link Collaborator to Skill--><g id="link_Collaborator_Skill"><path codeLine="181" d="M282.2335,563.657 C285.5815,567.647 289.0315,571.523 292.5115,575.129 C308.8795,592.091 329.5735,608.741 346.0195,621.053 " fill="none" id="Collaborator-Skill" style="stroke:#181818;stroke-width:0.6;"/><polygon fill="#000000" points="323.2815,596.3155,326.1362,601.2564,328.4952,598.6348,323.2815,596.3155" style="stroke:#000000;stroke-width:0.6;"/><text fill="#000000" font-family="sans-serif" font-size="7.8" lengthAdjust="spacing" textLength="52.8" x="330.9115" y="601.27">is assigned to</text><text fill="#000000" font-family="sans-serif" font-size="7.8" lengthAdjust="spacing" textLength="4.8" x="286.9129" y="567.8268">1</text><text fill="#000000" font-family="sans-serif" font-size="7.8" lengthAdjust="spacing" textLength="3.6" x="336.7214" y="614.8432">*</text></g><!--link Collaborator to Teams--><g id="link_Collaborator_Teams"><path codeLine="182" d="M250.2595,575.273 C251.2675,584.729 252.7015,594.347 254.7115,603.329 C256.4395,611.045 259.4455,619.283 262.2715,626.081 " fill="none" id="Collaborator-Teams" style="stroke:#181818;stroke-width:0.6;"/><polygon fill="#000000" points="258.4018,601.2417,258.8692,595.5545,255.4371,596.3659,258.4018,601.2417" style="stroke:#000000;stroke-width:0.6;"/><text fill="#000000" font-family="sans-serif" font-size="7.8" lengthAdjust="spacing" textLength="37.8" x="263.1115" y="601.27">integrates</text><text fill="#000000" font-family="sans-serif" font-size="7.8" lengthAdjust="spacing" textLength="13.2" x="236.7326" y="587.5542">1..*</text><text fill="#000000" font-family="sans-serif" font-size="7.8" lengthAdjust="spacing" textLength="4.8" x="255.2193" y="619.7719">1</text></g><!--link Vehicle to Tasks--><g id="link_Vehicle_Tasks"><path codeLine="186" d="M633.9355,379.043 C623.0395,438.533 606.7435,526.643 591.9115,603.329 C584.4475,641.909 587.4235,652.901 574.5115,690.011 C572.4355,695.969 569.5915,702.173 566.7235,707.783 " fill="none" id="Vehicle-Tasks" style="stroke:#181818;stroke-width:0.6;"/><polygon fill="#000000" points="595.5106,601.2613,598.3253,596.2975,594.8701,595.5911,595.5106,601.2613" style="stroke:#000000;stroke-width:0.6;"/><text fill="#000000" font-family="sans-serif" font-size="7.8" lengthAdjust="spacing" textLength="56.4" x="601.5115" y="601.27">is attributed to</text><text fill="#000000" font-family="sans-serif" font-size="7.8" lengthAdjust="spacing" textLength="13.2" x="633.5527" y="391.3445">1..*</text><text fill="#000000" font-family="sans-serif" font-size="7.8" lengthAdjust="spacing" textLength="4.8" x="563.6414" y="701.5823">1</text></g><!--link Vehicle to VehicleCheckup--><g id="link_Vehicle_VehicleCheckup"><path codeLine="187" d="M638.9035,379.301 C638.5135,398.375 639.6835,418.919 644.1115,437.507 C650.3035,463.511 666.7435,490.685 676.1815,504.827 " fill="none" id="Vehicle-VehicleCheckup" style="stroke:#181818;stroke-width:0.6;"/><polygon fill="#000000" points="647.9656,420.238,648.111,414.5335,644.7302,415.5375,647.9656,420.238" style="stroke:#000000;stroke-width:0.6;"/><text fill="#000000" font-family="sans-serif" font-size="7.8" lengthAdjust="spacing" textLength="57.6" x="652.5115" y="420.31">is submitted to</text><text fill="#000000" font-family="sans-serif" font-size="7.8" lengthAdjust="spacing" textLength="13.2" x="624.8377" y="391.386">1..*</text><text fill="#000000" font-family="sans-serif" font-size="7.8" lengthAdjust="spacing" textLength="4.8" x="668.291" y="498.4332">1</text></g><!--link Equipment to Tasks--><g id="link_Equipment_Tasks"><path codeLine="188" d="M768.1135,437.729 C763.4815,468.569 751.9615,529.187 728.1115,575.129 C697.5355,634.037 684.9295,649.049 632.7115,690.011 C620.1895,699.833 604.6915,707.999 590.8615,714.179 " fill="none" id="Equipment-Tasks" style="stroke:#181818;stroke-width:0.6;"/><polygon fill="#000000" points="719.2923,600.8476,723.706,597.2308,720.7371,595.3272,719.2923,600.8476" style="stroke:#000000;stroke-width:0.6;"/><text fill="#000000" font-family="sans-serif" font-size="7.8" lengthAdjust="spacing" textLength="56.4" x="726.3115" y="601.27">is attributed to</text><text fill="#000000" font-family="sans-serif" font-size="7.8" lengthAdjust="spacing" textLength="13.2" x="753.2177" y="449.8889">1..*</text><text fill="#000000" font-family="sans-serif" font-size="7.8" lengthAdjust="spacing" textLength="4.8" x="595.4867" y="710.4679">1</text></g><!--link Agenda to Tasks--><g id="link_Agenda_Tasks"><path codeLine="190" d="M555.5935,324.809 C558.5635,342.101 563.1655,371.519 564.9115,397.031 C572.9815,514.757 561.9115,656.525 557.2255,707.873 " fill="none" id="Agenda-Tasks" style="stroke:#181818;stroke-width:0.6;"/><polygon fill="#000000" points="567.9243,601.3221,569.6645,595.8876,566.1379,595.9026,567.9243,601.3221" style="stroke:#000000;stroke-width:0.6;"/><text fill="#000000" font-family="sans-serif" font-size="7.8" lengthAdjust="spacing" textLength="13.2" x="573.3115" y="601.27">has</text><text fill="#000000" font-family="sans-serif" font-size="7.8" lengthAdjust="spacing" textLength="4.8" x="550.8587" y="336.9921">1</text><text fill="#000000" font-family="sans-serif" font-size="7.8" lengthAdjust="spacing" textLength="3.6" x="553.648" y="701.5346">*</text></g><!--link Tasks to Parks--><g id="link_Tasks_Parks"><path codeLine="193" d="M519.7555,746.723 C487.6795,762.851 441.6235,785.999 415.4095,799.175 " fill="none" id="Tasks-Parks" style="stroke:#181818;stroke-width:0.6;"/><polygon fill="#000000" points="480.0311,773.0275,485.672,772.1656,484.0881,769.0146,480.0311,773.0275" style="stroke:#000000;stroke-width:0.6;"/><text fill="#000000" font-family="sans-serif" font-size="7.8" lengthAdjust="spacing" textLength="62.4" x="488.1115" y="774.628">are performed in</text><text fill="#000000" font-family="sans-serif" font-size="7.8" lengthAdjust="spacing" textLength="13.2" x="501.9447" y="746.8024">1..*</text><text fill="#000000" font-family="sans-serif" font-size="7.8" lengthAdjust="spacing" textLength="13.2" x="420.0326" y="795.1015">1..*</text></g><!--link Reports to Portal--><g id="link_Reports_Portal"><path codeLine="197" d="M849.8635,183.677 C842.9635,215.003 831.2875,267.995 825.6055,293.765 " fill="none" id="Reports-Portal" style="stroke:#181818;stroke-width:0.6;"/><polygon fill="#000000" points="845.666,219.5439,848.5559,214.6234,845.1118,213.8645,845.666,219.5439" style="stroke:#000000;stroke-width:0.6;"/><text fill="#000000" font-family="sans-serif" font-size="7.8" lengthAdjust="spacing" textLength="52.2" x="851.7115" y="219.562">are submitted</text><text fill="#000000" font-family="sans-serif" font-size="7.8" lengthAdjust="spacing" textLength="3.6" x="845.1537" y="195.8006">*</text><text fill="#000000" font-family="sans-serif" font-size="7.8" lengthAdjust="spacing" textLength="4.8" x="821.0123" y="287.688">1</text></g><!--SRC=[ZLRRSjis47tdLs3qOYSpJjfNJSSphbMdQIfNOxl9z142LoGgN1W0h4V9zD-xk104BSggNeJBsREBWzq5B-oUguuQAedKIhFMQ0d4cHwgSQUZR4yRU7G70SG0SrGreWJObjRwcQk6xAYmK5sCMu8hS8SEY3QkrTM5W9qZJXF3czQHcdiwhbL1nWIrziOvmxUzWuzCgqV-3SWFLSjh88mRXhx3M09IrhQg77SOsKfBoXLPwnf4LGKQyeTfgEBVgFT1lbS4VufA28D_gBllvHPCc3t3rd8NTxfMAoZs08b5zUz0-eliX3u08E6uUAk5e5jjgDFcfQSjnyFNDB7JMd9hCQ3Lk58Ri3QCfTvo0RTQEShSwBrS-BYgDNj2KTDCZP7-hRVX7-KKmXRXhQd2AnmYiqdrlFrhBwbw0Ajxmy2Eu17n6LgEojy903Ut_y40g4TCbNdpHn_GuDsFxmTnmcm5bXdUJOFwJM-J1Huhut4yYqu19ekV3LLr6CLyyACisHCrSV31QBJy0ZuPmy9jRmmeHpx9C7s0Xbk7HybNTSE-zXmJnUTJNbnZtZbGL35uVzi2sr_r7RapyBK7nGxa4hFoatmJe1k1HgJ8hGt63WhbikNgIklfmbqFeZY0mPJ0iDQKjLXWbbp-1VRzlOu-VgVMpSTqEOJn2iIVwisHh66_xxuNLO12TDAB5HM7OPvlAg_CtjTD0wgcoVWPO6-VgDrR3qY8C4y00pl0cs6HsU5EIJgoRf0K6r4mZPPTiJBYde3AWTlXU0rUwWAmeIOx5vhHQV0RR6TqoEVMkUucbN16_6dXg0_4FXA2GiYpDlM8Vu0EEND8mqtdhe7DSJzfDz8hE-1PdCuA7PdlQ2yoV1Sci-Wr5RjUXVOmeEMuzCAagePQN_puxjtR1Rcw6aP3armIRWabrmKomHP9nIKwy5ls28JfcDYm5Imn1s8rsXasn8GMypegafMj-Wn-aTBqT8p1TPbrPw2vRCwU9rNU6Rxaand0J3c5ySb-HkR5_1jmulgIoSoZyBh1yIkHyLLg22TbRG3pruMUiCFF56zIXIehSiyR-S9Tajw6aqR0k9lAp8kn3u0gLr9nwHc53mLY9XLq6ZOfdTEmAlQUiWvYo8mQSo2wT-cK-6nS7uE72yzWhyFaEwTKC3AFDpyBd5OiMPAM1ccgl7HKtjCQIbTOm7EueN8z7urY5rz9nxNhUV3Jg55G-u_4drxYno1oKlidh34fz_4tV0Qy04VHFF_mPHayN9_0Jr-zO6ZxhUGksutFt__rD9FW2Jp87H-y8wtJ9VhiwS3ij9586P83VyExiNXxr5QzmHZrTVKV]--></g></svg>