<?xml version="1.0" encoding="us-ascii" standalone="no"?><svg xmlns="http://www.w3.org/2000/svg" xmlns:xlink="http://www.w3.org/1999/xlink" contentStyleType="text/css" height="584.4px" preserveAspectRatio="none" style="width:525px;height:584px;background:#FFFFFF;" version="1.1" viewBox="0 0 525 584" width="525.6px" zoomAndPan="magnify"><defs/><g><text fill="#000000" font-family="sans-serif" font-size="5.6" font-weight="bold" lengthAdjust="spacing" textLength="42" x="239.0011" y="9.4141">Domain Model</text><!--class Organization--><g id="elem_Organization"><rect codeLine="12" fill="#F1F1F1" height="46.7719" id="Organization" rx="1" ry="1" style="stroke:#181818;stroke-width:0.20000000000000004;" width="44.4" x="461.0022" y="133.3673"/><text fill="#000000" font-family="sans-serif" font-size="5.6" lengthAdjust="spacing" textLength="36" x="465.2022" y="140.7814">Organization</text><line style="stroke:#181818;stroke-width:0.20000000000000004;" x1="461.4022" x2="505.0022" y1="143.9626" y2="143.9626"/><text fill="#000000" font-family="sans-serif" font-size="5.6" lengthAdjust="spacing" textLength="15.2" x="463.4022" y="150.9767">name</text><text fill="#000000" font-family="sans-serif" font-size="5.6" lengthAdjust="spacing" textLength="30" x="463.4022" y="157.572">vatNumber</text><text fill="#000000" font-family="sans-serif" font-size="5.6" lengthAdjust="spacing" textLength="20.8" x="463.4022" y="164.1673">website</text><text fill="#000000" font-family="sans-serif" font-size="5.6" lengthAdjust="spacing" textLength="39.6" x="463.4022" y="170.7626">phoneNumber</text><text fill="#000000" font-family="sans-serif" font-size="5.6" lengthAdjust="spacing" textLength="14.8" x="463.4022" y="177.3579">email</text></g><!--class Employee--><g id="elem_Employee"><rect codeLine="20" fill="#F1F1F1" height="33.5813" id="Employee" rx="1" ry="1" style="stroke:#181818;stroke-width:0.20000000000000004;" width="28.8" x="449.6022" y="224.5273"/><text fill="#000000" font-family="sans-serif" font-size="5.6" lengthAdjust="spacing" textLength="26.4" x="450.8022" y="231.9414">Employee</text><line style="stroke:#181818;stroke-width:0.20000000000000004;" x1="450.0022" x2="478.0022" y1="235.1226" y2="235.1226"/><text fill="#000000" font-family="sans-serif" font-size="5.6" lengthAdjust="spacing" textLength="15.2" x="452.0022" y="242.1367">name</text><text fill="#000000" font-family="sans-serif" font-size="5.6" lengthAdjust="spacing" textLength="14.8" x="452.0022" y="248.732">email</text><text fill="#000000" font-family="sans-serif" font-size="5.6" lengthAdjust="spacing" textLength="17.6" x="452.0022" y="255.3273">phone</text></g><!--class Collaborator--><g id="elem_Collaborator"><rect codeLine="26" fill="#F1F1F1" height="79.7484" id="Collaborator" rx="1" ry="1" style="stroke:#181818;stroke-width:0.20000000000000004;" width="45.2" x="403.0022" y="288.9113"/><text fill="#000000" font-family="sans-serif" font-size="5.6" lengthAdjust="spacing" textLength="34.8" x="408.2022" y="296.3254">Collaborator</text><line style="stroke:#181818;stroke-width:0.20000000000000004;" x1="403.4022" x2="447.8022" y1="299.5066" y2="299.5066"/><text fill="#000000" font-family="sans-serif" font-size="5.6" lengthAdjust="spacing" textLength="15.2" x="405.4022" y="306.5207">name</text><text fill="#000000" font-family="sans-serif" font-size="5.6" lengthAdjust="spacing" textLength="25.2" x="405.4022" y="313.116">birthdate</text><text fill="#000000" font-family="sans-serif" font-size="5.6" lengthAdjust="spacing" textLength="40.4" x="405.4022" y="319.7113">admissionDate</text><text fill="#000000" font-family="sans-serif" font-size="5.6" lengthAdjust="spacing" textLength="21.6" x="405.4022" y="326.3066">address</text><text fill="#000000" font-family="sans-serif" font-size="5.6" lengthAdjust="spacing" textLength="40" x="405.4022" y="332.9019">mobileContact</text><text fill="#000000" font-family="sans-serif" font-size="5.6" lengthAdjust="spacing" textLength="36" x="405.4022" y="339.4973">emailContact</text><text fill="#000000" font-family="sans-serif" font-size="5.6" lengthAdjust="spacing" textLength="28.8" x="405.4022" y="346.0926">IDdocType</text><text fill="#000000" font-family="sans-serif" font-size="5.6" lengthAdjust="spacing" textLength="27.2" x="405.4022" y="352.6879">IDnumber</text><text fill="#000000" font-family="sans-serif" font-size="5.6" lengthAdjust="spacing" textLength="8.8" x="405.4022" y="359.2832">job</text><text fill="#000000" font-family="sans-serif" font-size="5.6" lengthAdjust="spacing" textLength="13.6" x="405.4022" y="365.8785">skills</text></g><!--class Manager--><g id="elem_Manager"><rect codeLine="40" fill="#F1F1F1" height="20.3906" id="Manager" rx="1" ry="1" style="stroke:#181818;stroke-width:0.20000000000000004;" width="26.4" x="253.2022" y="318.5873"/><text fill="#000000" font-family="sans-serif" font-size="5.6" lengthAdjust="spacing" textLength="24" x="254.4022" y="326.0014">Manager</text><line style="stroke:#181818;stroke-width:0.20000000000000004;" x1="253.6022" x2="279.2022" y1="329.1826" y2="329.1826"/><text fill="#000000" font-family="sans-serif" font-size="5.6" lengthAdjust="spacing" textLength="19.6" x="255.6022" y="336.1967">section</text></g><!--class Skill--><g id="elem_Skill"><rect codeLine="44" fill="#F1F1F1" height="26.9859" id="Skill" rx="1" ry="1" style="stroke:#181818;stroke-width:0.20000000000000004;" width="46.8" x="382.6022" y="510.0073"/><text fill="#000000" font-family="sans-serif" font-size="5.6" lengthAdjust="spacing" textLength="11.2" x="400.4022" y="517.4214">Skill</text><line style="stroke:#181818;stroke-width:0.20000000000000004;" x1="383.0022" x2="429.0022" y1="520.6026" y2="520.6026"/><text fill="#000000" font-family="sans-serif" font-size="5.6" lengthAdjust="spacing" textLength="26.4" x="385.0022" y="527.6167">skillName</text><text fill="#000000" font-family="sans-serif" font-size="5.6" lengthAdjust="spacing" textLength="42" x="385.0022" y="534.212">skillDescription</text></g><!--class Job--><g id="elem_Job"><rect codeLine="49" fill="#F1F1F1" height="26.9859" id="Job" rx="1" ry="1" style="stroke:#181818;stroke-width:0.20000000000000004;" width="44.8" x="418.0022" y="425.8393"/><text fill="#000000" font-family="sans-serif" font-size="5.6" lengthAdjust="spacing" textLength="8.8" x="436.0022" y="433.2534">Job</text><line style="stroke:#181818;stroke-width:0.20000000000000004;" x1="418.4022" x2="462.4022" y1="436.4346" y2="436.4346"/><text fill="#000000" font-family="sans-serif" font-size="5.6" lengthAdjust="spacing" textLength="24.4" x="420.4022" y="443.4487">jobName</text><text fill="#000000" font-family="sans-serif" font-size="5.6" lengthAdjust="spacing" textLength="40" x="420.4022" y="450.044">jobDescription</text></g><!--class Vehicle--><g id="elem_Vehicle"><rect codeLine="54" fill="#F1F1F1" height="79.7484" id="Vehicle" rx="1" ry="1" style="stroke:#181818;stroke-width:0.20000000000000004;" width="68.4" x="27.0022" y="399.4593"/><text fill="#000000" font-family="sans-serif" font-size="5.6" lengthAdjust="spacing" textLength="19.6" x="51.4022" y="406.8734">Vehicle</text><line style="stroke:#181818;stroke-width:0.20000000000000004;" x1="27.4022" x2="95.0022" y1="410.0546" y2="410.0546"/><text fill="#000000" font-family="sans-serif" font-size="5.6" lengthAdjust="spacing" textLength="35.6" x="29.4022" y="417.0687">plateNumber</text><text fill="#000000" font-family="sans-serif" font-size="5.6" lengthAdjust="spacing" textLength="16.4" x="29.4022" y="423.664">brand</text><text fill="#000000" font-family="sans-serif" font-size="5.6" lengthAdjust="spacing" textLength="17.2" x="29.4022" y="430.2593">model</text><text fill="#000000" font-family="sans-serif" font-size="5.6" lengthAdjust="spacing" textLength="11.6" x="29.4022" y="436.8546">type</text><text fill="#000000" font-family="sans-serif" font-size="5.6" lengthAdjust="spacing" textLength="10.8" x="29.4022" y="443.4499">tare</text><text fill="#000000" font-family="sans-serif" font-size="5.6" lengthAdjust="spacing" textLength="34" x="29.4022" y="450.0453">grossWeight</text><text fill="#000000" font-family="sans-serif" font-size="5.6" lengthAdjust="spacing" textLength="28.8" x="29.4022" y="456.6406">currentKm</text><text fill="#000000" font-family="sans-serif" font-size="5.6" lengthAdjust="spacing" textLength="33.6" x="29.4022" y="463.2359">registerDate</text><text fill="#000000" font-family="sans-serif" font-size="5.6" lengthAdjust="spacing" textLength="42.4" x="29.4022" y="469.8312">acquisitionDate</text><text fill="#000000" font-family="sans-serif" font-size="5.6" lengthAdjust="spacing" textLength="63.6" x="29.4022" y="476.4265">maintenanceFrequency</text></g><!--class Equipment--><g id="elem_Equipment"><rect codeLine="67" fill="#F1F1F1" height="26.9859" id="Equipment" rx="1" ry="1" style="stroke:#181818;stroke-width:0.20000000000000004;" width="115.6" x="109.4022" y="425.8393"/><text fill="#000000" font-family="sans-serif" font-size="5.6" lengthAdjust="spacing" textLength="29.6" x="152.4022" y="433.2534">Equipment</text><line style="stroke:#181818;stroke-width:0.20000000000000004;" x1="109.8022" x2="224.6022" y1="436.4346" y2="436.4346"/><text fill="#000000" font-family="sans-serif" font-size="5.6" lengthAdjust="spacing" textLength="95.2" x="111.8022" y="443.4487">equipmentName - to be confirmed</text><text fill="#000000" font-family="sans-serif" font-size="5.6" lengthAdjust="spacing" textLength="110.8" x="111.8022" y="450.044">equipmentDescription - to be confirmed</text></g><!--class Agenda--><g id="elem_Agenda"><rect codeLine="72" fill="#F1F1F1" height="20.3906" id="Agenda" rx="1" ry="1" style="stroke:#181818;stroke-width:0.20000000000000004;" width="37.2" x="156.6022" y="561.3913"/><text fill="#000000" font-family="sans-serif" font-size="5.6" lengthAdjust="spacing" textLength="21.2" x="164.6022" y="568.8054">Agenda</text><line style="stroke:#181818;stroke-width:0.20000000000000004;" x1="157.0022" x2="193.4022" y1="571.9866" y2="571.9866"/><text fill="#000000" font-family="sans-serif" font-size="5.6" lengthAdjust="spacing" textLength="32.4" x="159.0022" y="579.0007">weeksTasks</text></g><!--class Tasks--><g id="elem_Tasks"><rect codeLine="77" fill="#F1F1F1" height="26.9859" id="Tasks" rx="1" ry="1" style="stroke:#181818;stroke-width:0.20000000000000004;" width="47.2" x="164.4022" y="72.2833"/><text fill="#000000" font-family="sans-serif" font-size="5.6" lengthAdjust="spacing" textLength="15.6" x="180.2022" y="79.6974">Tasks</text><line style="stroke:#181818;stroke-width:0.20000000000000004;" x1="164.8022" x2="211.2022" y1="82.8786" y2="82.8786"/><text fill="#000000" font-family="sans-serif" font-size="5.6" lengthAdjust="spacing" textLength="26" x="166.8022" y="89.8927">reference</text><text fill="#000000" font-family="sans-serif" font-size="5.6" lengthAdjust="spacing" textLength="42.4" x="166.8022" y="96.488">taskDescription</text></g><!--class PendingTasks--><g id="elem_PendingTasks"><rect codeLine="83" fill="#F1F1F1" height="20.3906" id="PendingTasks" rx="1" ry="1" style="stroke:#181818;stroke-width:0.20000000000000004;" width="43.2" x="253.2022" y="561.3913"/><text fill="#000000" font-family="sans-serif" font-size="5.6" lengthAdjust="spacing" textLength="38" x="255.8022" y="568.8054">PendingTasks</text><line style="stroke:#181818;stroke-width:0.20000000000000004;" x1="253.6022" x2="296.0022" y1="571.9866" y2="571.9866"/><text fill="#000000" font-family="sans-serif" font-size="5.6" lengthAdjust="spacing" textLength="38.4" x="255.6022" y="579.0007">pendingTasks</text></g><!--class Teams--><g id="elem_Teams"><rect codeLine="87" fill="#F1F1F1" height="20.3906" id="Teams" rx="1" ry="1" style="stroke:#181818;stroke-width:0.20000000000000004;" width="43.6" x="352.2022" y="429.1353"/><text fill="#000000" font-family="sans-serif" font-size="5.6" lengthAdjust="spacing" textLength="18" x="365.0022" y="436.5494">Teams</text><line style="stroke:#181818;stroke-width:0.20000000000000004;" x1="352.6022" x2="395.4022" y1="439.7306" y2="439.7306"/><text fill="#000000" font-family="sans-serif" font-size="5.6" lengthAdjust="spacing" textLength="38.8" x="354.6022" y="446.7447">teamMembers</text></g><!--class Parks--><g id="elem_Parks"><rect codeLine="91" fill="#F1F1F1" height="20.3906" id="Parks" rx="1" ry="1" style="stroke:#181818;stroke-width:0.20000000000000004;" width="26.8" x="391.8022" y="146.5553"/><text fill="#000000" font-family="sans-serif" font-size="5.6" lengthAdjust="spacing" textLength="14.8" x="397.8022" y="153.9694">Parks</text><line style="stroke:#181818;stroke-width:0.20000000000000004;" x1="392.2022" x2="418.2022" y1="157.1506" y2="157.1506"/><text fill="#000000" font-family="sans-serif" font-size="5.6" lengthAdjust="spacing" textLength="22" x="394.2022" y="164.1647">location</text></g><!--class Portal--><g id="elem_Portal"><rect codeLine="95" fill="#F1F1F1" height="20.3906" id="Portal" rx="1" ry="1" style="stroke:#181818;stroke-width:0.20000000000000004;" width="38.4" x="238.8022" y="192.1393"/><text fill="#000000" font-family="sans-serif" font-size="5.6" lengthAdjust="spacing" textLength="16" x="250.0022" y="199.5534">Portal</text><line style="stroke:#181818;stroke-width:0.20000000000000004;" x1="239.2022" x2="276.8022" y1="202.7346" y2="202.7346"/><text fill="#000000" font-family="sans-serif" font-size="5.6" lengthAdjust="spacing" textLength="33.6" x="241.2022" y="209.7487">httpAddress</text></g><!--class User--><g id="elem_User"><rect codeLine="99" fill="#F1F1F1" height="33.5813" id="User" rx="1" ry="1" style="stroke:#181818;stroke-width:0.20000000000000004;" width="31.2" x="329.2022" y="139.9633"/><text fill="#000000" font-family="sans-serif" font-size="5.6" lengthAdjust="spacing" textLength="12.4" x="338.6022" y="147.3774">User</text><line style="stroke:#181818;stroke-width:0.20000000000000004;" x1="329.6022" x2="360.0022" y1="150.5586" y2="150.5586"/><text fill="#000000" font-family="sans-serif" font-size="5.6" lengthAdjust="spacing" textLength="15.2" x="331.6022" y="157.5727">name</text><text fill="#000000" font-family="sans-serif" font-size="5.6" lengthAdjust="spacing" textLength="14.8" x="331.6022" y="164.168">email</text><text fill="#000000" font-family="sans-serif" font-size="5.6" lengthAdjust="spacing" textLength="26.4" x="331.6022" y="170.7633">password</text></g><!--class Reports--><g id="elem_Reports"><rect codeLine="105" fill="#F1F1F1" height="33.5813" id="Reports" rx="1" ry="1" style="stroke:#181818;stroke-width:0.20000000000000004;" width="23.6" x="263.4022" y="68.9833"/><text fill="#000000" font-family="sans-serif" font-size="5.6" lengthAdjust="spacing" textLength="21.2" x="264.6022" y="76.3974">Reports</text><line style="stroke:#181818;stroke-width:0.20000000000000004;" x1="263.8022" x2="286.6022" y1="79.5786" y2="79.5786"/><text fill="#000000" font-family="sans-serif" font-size="5.6" lengthAdjust="spacing" textLength="11.6" x="265.8022" y="86.5927">type</text><text fill="#000000" font-family="sans-serif" font-size="5.6" lengthAdjust="spacing" textLength="12" x="265.8022" y="93.188">date</text><text fill="#000000" font-family="sans-serif" font-size="5.6" lengthAdjust="spacing" textLength="12.4" x="265.8022" y="99.7833">park</text></g><!--class Comments--><g id="elem_Comments"><rect codeLine="112" fill="#F1F1F1" height="20.3906" id="Comments" rx="1" ry="1" style="stroke:#181818;stroke-width:0.20000000000000004;" width="61.6" x="174.0022" y="17.7953"/><text fill="#000000" font-family="sans-serif" font-size="5.6" lengthAdjust="spacing" textLength="29.6" x="190.0022" y="25.2094">Comments</text><line style="stroke:#181818;stroke-width:0.20000000000000004;" x1="174.4022" x2="235.2022" y1="28.3906" y2="28.3906"/><text fill="#000000" font-family="sans-serif" font-size="5.6" lengthAdjust="spacing" textLength="56.8" x="176.4022" y="35.4047">commentDescription</text></g><!--class ReportFaults--><g id="elem_ReportFaults"><rect codeLine="116" fill="#F1F1F1" height="20.3906" id="ReportFaults" rx="1" ry="1" style="stroke:#181818;stroke-width:0.20000000000000004;" width="51.2" x="249.6022" y="17.7953"/><text fill="#000000" font-family="sans-serif" font-size="5.6" lengthAdjust="spacing" textLength="34.8" x="257.8022" y="25.2094">ReportFaults</text><line style="stroke:#181818;stroke-width:0.20000000000000004;" x1="250.0022" x2="300.4022" y1="28.3906" y2="28.3906"/><text fill="#000000" font-family="sans-serif" font-size="5.6" lengthAdjust="spacing" textLength="46.4" x="252.0022" y="35.4047">faultsDescription</text></g><!--class Malfunctions--><g id="elem_Malfunctions"><rect codeLine="120" fill="#F1F1F1" height="20.3906" id="Malfunctions" rx="1" ry="1" style="stroke:#181818;stroke-width:0.20000000000000004;" width="68.8" x="314.8022" y="17.7953"/><text fill="#000000" font-family="sans-serif" font-size="5.6" lengthAdjust="spacing" textLength="35.2" x="331.6022" y="25.2094">Malfunctions</text><line style="stroke:#181818;stroke-width:0.20000000000000004;" x1="315.2022" x2="383.2022" y1="28.3906" y2="28.3906"/><text fill="#000000" font-family="sans-serif" font-size="5.6" lengthAdjust="spacing" textLength="64" x="317.2022" y="35.4047">malfunctionDescription</text></g><!--link Employee to Manager--><g id="link_Employee_Manager"><path codeLine="126" d="M449.4902,242.7153 C425.0222,244.8753 374.4942,251.3993 336.4022,270.1113 C311.4222,282.3793 287.7022,305.3233 275.3182,318.4633 " fill="none" id="Employee-Manager" style="stroke:#181818;stroke-width:0.4000000000000001;"/><polygon fill="#000000" points="340.2362,272.7758,336.4496,273.1407,337.3872,275.2968,340.2362,272.7758" style="stroke:#000000;stroke-width:0.4000000000000001;"/><text fill="#000000" font-family="sans-serif" font-size="5.2" lengthAdjust="spacing" textLength="8.8" x="342.0022" y="275.5387">is a</text><text fill="#000000" font-family="sans-serif" font-size="5.2" lengthAdjust="spacing" textLength="8.8" x="437.5579" y="241.4875">1..*</text><text fill="#000000" font-family="sans-serif" font-size="5.2" lengthAdjust="spacing" textLength="8.8" x="267.619" y="314.2592">1..*</text></g><!--link Portal to Manager--><g id="link_Portal_Manager"><path codeLine="127" d="M258.6702,212.6993 C260.2382,236.2073 264.1662,294.9073 265.7342,318.4193 " fill="none" id="Portal-Manager" style="stroke:#181818;stroke-width:0.4000000000000001;"/><polygon fill="#000000" points="263.8688,239.3859,262.9371,243.0742,265.283,242.9175,263.8688,239.3859" style="stroke:#000000;stroke-width:0.4000000000000001;"/><text fill="#000000" font-family="sans-serif" font-size="5.2" lengthAdjust="spacing" textLength="22.4" x="267.6022" y="243.3467">manages</text><text fill="#000000" font-family="sans-serif" font-size="5.2" lengthAdjust="spacing" textLength="3.2" x="255.2547" y="220.8316">1</text><text fill="#000000" font-family="sans-serif" font-size="5.2" lengthAdjust="spacing" textLength="3.2" x="262.0097" y="314.3708">1</text></g><!--link Manager to Job--><g id="link_Manager_Job"><path codeLine="128" d="M279.7902,333.2073 C316.7782,344.3753 417.9902,375.2873 423.2022,380.6593 C434.9902,392.8073 438.7582,412.6313 439.9302,425.7273 " fill="none" id="Manager-Job" style="stroke:#181818;stroke-width:0.4000000000000001;"/><polygon fill="#000000" points="431.7339,385.1219,429.1892,382.2941,428.0131,384.3299,431.7339,385.1219" style="stroke:#000000;stroke-width:0.4000000000000001;"/><text fill="#000000" font-family="sans-serif" font-size="5.2" lengthAdjust="spacing" textLength="22" x="433.6022" y="386.0867">registers</text><text fill="#000000" font-family="sans-serif" font-size="5.2" lengthAdjust="spacing" textLength="3.2" x="282.8815" y="332.5413">1</text><text fill="#000000" font-family="sans-serif" font-size="5.2" lengthAdjust="spacing" textLength="8.8" x="430.171" y="421.4978">1..*</text></g><!--link Manager to Skill--><g id="link_Manager_Skill"><path codeLine="129" d="M269.5182,339.0673 C279.8102,371.6073 312.3342,473.6473 317.2022,479.2073 C334.4222,498.8753 362.4982,510.6593 382.4702,516.9913 " fill="none" id="Manager-Skill" style="stroke:#181818;stroke-width:0.4000000000000001;"/><polygon fill="#000000" points="320.2741,441.0819,319.3275,437.3973,317.3425,438.6575,320.2741,441.0819" style="stroke:#000000;stroke-width:0.4000000000000001;"/><text fill="#000000" font-family="sans-serif" font-size="5.2" lengthAdjust="spacing" textLength="22" x="322.8022" y="441.3587">registers</text><text fill="#000000" font-family="sans-serif" font-size="5.2" lengthAdjust="spacing" textLength="3.2" x="270.6088" y="347.1811">1</text><text fill="#000000" font-family="sans-serif" font-size="5.2" lengthAdjust="spacing" textLength="2.4" x="377.056" y="514.8673">*</text></g><!--link Manager to Collaborator--><g id="link_Manager_Collaborator"><path codeLine="130" d="M279.7022,328.7833 C306.9022,328.7833 369.1702,328.7833 402.8942,328.7833 " fill="none" id="Manager-Collaborator" style="stroke:#181818;stroke-width:0.4000000000000001;"/><polygon fill="#000000" points="331.3022,324.2454,327.6841,323.0699,327.6841,325.421,331.3022,324.2454" style="stroke:#000000;stroke-width:0.4000000000000001;"/><text fill="#000000" font-family="sans-serif" font-size="5.2" lengthAdjust="spacing" textLength="22" x="332.9022" y="326.2107">registers</text><text fill="#000000" font-family="sans-serif" font-size="5.2" lengthAdjust="spacing" textLength="3.2" x="282.7753" y="327.2049">1</text><text fill="#000000" font-family="sans-serif" font-size="5.2" lengthAdjust="spacing" textLength="8.8" x="390.9598" y="327.4707">1..*</text></g><!--link Manager to Agenda--><g id="link_Manager_Agenda"><path codeLine="131" d="M265.2582,339.1753 C262.2062,363.7713 252.6422,428.8953 232.0022,479.2073 C218.8222,511.3313 195.0302,545.0593 182.8462,561.2993 " fill="none" id="Manager-Agenda" style="stroke:#181818;stroke-width:0.4000000000000001;"/><polygon fill="#000000" points="228.1065,496.5445,230.4672,493.5614,228.2629,492.7435,228.1065,496.5445" style="stroke:#000000;stroke-width:0.4000000000000001;"/><text fill="#000000" font-family="sans-serif" font-size="5.2" lengthAdjust="spacing" textLength="22.4" x="232.4022" y="496.6347">manages</text><text fill="#000000" font-family="sans-serif" font-size="5.2" lengthAdjust="spacing" textLength="3.2" x="261.4579" y="347.1459">1</text><text fill="#000000" font-family="sans-serif" font-size="5.2" lengthAdjust="spacing" textLength="3.2" x="181.1194" y="557.103">1</text></g><!--link Manager to PendingTasks--><g id="link_Manager_PendingTasks"><path codeLine="132" d="M266.7462,339.1233 C268.1102,378.3473 273.1022,522.1673 274.4582,561.2993 " fill="none" id="Manager-PendingTasks" style="stroke:#181818;stroke-width:0.4000000000000001;"/><polygon fill="#000000" points="274.4716,496.6682,275.5209,493.0116,273.1712,493.0931,274.4716,496.6682" style="stroke:#000000;stroke-width:0.4000000000000001;"/><text fill="#000000" font-family="sans-serif" font-size="5.2" lengthAdjust="spacing" textLength="22.4" x="278.0022" y="496.6347">manages</text><text fill="#000000" font-family="sans-serif" font-size="5.2" lengthAdjust="spacing" textLength="3.2" x="267.1957" y="347.2501">1</text><text fill="#000000" font-family="sans-serif" font-size="5.2" lengthAdjust="spacing" textLength="2.4" x="271.6818" y="557.103">*</text></g><!--link Manager to Equipment--><g id="link_Manager_Equipment"><path codeLine="133" d="M257.4222,339.1153 C239.4902,358.9553 199.2382,403.4873 179.1222,425.7473 " fill="none" id="Manager-Equipment" style="stroke:#181818;stroke-width:0.4000000000000001;"/><polygon fill="#000000" points="220.6611,385.6052,223.9593,383.7093,222.215,382.1328,220.6611,385.6052" style="stroke:#000000;stroke-width:0.4000000000000001;"/><text fill="#000000" font-family="sans-serif" font-size="5.2" lengthAdjust="spacing" textLength="22" x="225.6022" y="386.0867">registers</text><text fill="#000000" font-family="sans-serif" font-size="5.2" lengthAdjust="spacing" textLength="3.2" x="251.7756" y="347.2402">1</text><text fill="#000000" font-family="sans-serif" font-size="5.2" lengthAdjust="spacing" textLength="2.4" x="178.8327" y="421.5217">*</text></g><!--link Manager to Vehicle--><g id="link_Manager_Vehicle"><path codeLine="134" d="M253.0582,333.0913 C224.0422,341.9673 153.6862,365.5353 102.4022,399.4593 C100.0902,400.9873 97.7902,402.6553 95.5262,404.4113 " fill="none" id="Manager-Vehicle" style="stroke:#181818;stroke-width:0.4000000000000001;"/><polygon fill="#000000" points="132.1802,384.9463,135.961,384.525,134.9913,382.3832,132.1802,384.9463" style="stroke:#000000;stroke-width:0.4000000000000001;"/><text fill="#000000" font-family="sans-serif" font-size="5.2" lengthAdjust="spacing" textLength="43.2" x="137.6022" y="386.0867">creates/manages</text><text fill="#000000" font-family="sans-serif" font-size="5.2" lengthAdjust="spacing" textLength="3.2" x="246.776" y="332.4014">1</text><text fill="#000000" font-family="sans-serif" font-size="5.2" lengthAdjust="spacing" textLength="2.4" x="98.579" y="400.1851">*</text></g><!--link Tasks to Manager--><g id="link_Tasks_Manager"><path codeLine="135" d="M188.7462,99.3993 C190.3582,122.7473 195.1182,172.5793 208.0022,212.5273 C221.3782,254.0113 247.8982,298.9753 260.0502,318.4553 " fill="none" id="Tasks-Manager" style="stroke:#181818;stroke-width:0.4000000000000001;"/><polygon fill="#000000" points="209.3831,200.4916,209.3852,204.2959,211.6208,203.5681,209.3831,200.4916" style="stroke:#000000;stroke-width:0.4000000000000001;"/><text fill="#000000" font-family="sans-serif" font-size="5.2" lengthAdjust="spacing" textLength="18" x="213.6022" y="204.3587">creates</text><text fill="#000000" font-family="sans-serif" font-size="5.2" lengthAdjust="spacing" textLength="2.4" x="186.2621" y="107.503">*</text><text fill="#000000" font-family="sans-serif" font-size="5.2" lengthAdjust="spacing" textLength="3.2" x="254.9119" y="314.2493">1</text></g><!--link Manager to Teams--><g id="link_Manager_Teams"><path codeLine="136" d="M272.1982,339.0873 C280.0622,351.7873 295.2222,373.8033 313.2022,387.4593 C323.9862,395.6473 330.3502,391.3593 341.2022,399.4593 C352.1982,407.6673 361.8342,420.2833 367.7662,429.0353 " fill="none" id="Manager-Teams" style="stroke:#181818;stroke-width:0.4000000000000001;"/><polygon fill="#000000" points="316.6586,385.4922,314.8296,382.1564,313.2182,383.8685,316.6586,385.4922" style="stroke:#000000;stroke-width:0.4000000000000001;"/><text fill="#000000" font-family="sans-serif" font-size="5.2" lengthAdjust="spacing" textLength="22.4" x="318.8022" y="386.0867">manages</text><text fill="#000000" font-family="sans-serif" font-size="5.2" lengthAdjust="spacing" textLength="3.2" x="273.9085" y="347.2057">1</text><text fill="#000000" font-family="sans-serif" font-size="5.2" lengthAdjust="spacing" textLength="2.4" x="363.5537" y="424.8371">*</text></g><!--link Agenda to PendingTasks--><g id="link_Agenda_PendingTasks"><path codeLine="138" d="M193.9342,571.5873 C210.7302,571.5873 235.3662,571.5873 253.0302,571.5873 " fill="none" id="Agenda-PendingTasks" style="stroke:#181818;stroke-width:0.4000000000000001;"/><polygon fill="#000000" points="204.7022,567.0494,201.0841,565.8739,201.0841,568.225,204.7022,567.0494" style="stroke:#000000;stroke-width:0.4000000000000001;"/><text fill="#000000" font-family="sans-serif" font-size="5.2" lengthAdjust="spacing" textLength="39.6" x="206.3022" y="569.0147">gets tasks from</text><text fill="#000000" font-family="sans-serif" font-size="5.2" lengthAdjust="spacing" textLength="3.2" x="197.0475" y="570.1649">1</text><text fill="#000000" font-family="sans-serif" font-size="5.2" lengthAdjust="spacing" textLength="2.4" x="247.5433" y="570.22">*</text></g><!--link User to Parks--><g id="link_User_Parks"><path codeLine="141" d="M360.5142,156.7513 C370.1622,156.7513 382.3942,156.7513 391.6222,156.7513 " fill="none" id="User-Parks" style="stroke:#181818;stroke-width:0.4000000000000001;"/><polygon fill="#000000" points="371.3022,152.2134,367.6841,151.0379,367.6841,153.389,371.3022,152.2134" style="stroke:#000000;stroke-width:0.4000000000000001;"/><text fill="#000000" font-family="sans-serif" font-size="5.2" lengthAdjust="spacing" textLength="11.6" x="372.9022" y="154.1787">uses</text><text fill="#000000" font-family="sans-serif" font-size="5.2" lengthAdjust="spacing" textLength="8.8" x="363.5938" y="162.2471">1..*</text><text fill="#000000" font-family="sans-serif" font-size="5.2" lengthAdjust="spacing" textLength="2.4" x="386.1738" y="155.1729">*</text></g><!--link Reports to User--><g id="link_Reports_User"><path codeLine="142" d="M287.1902,92.2193 C296.4622,97.2993 309.2222,105.2193 318.4022,114.5673 C325.6462,121.9433 331.9222,131.6353 336.5342,139.8233 " fill="none" id="Reports-User" style="stroke:#181818;stroke-width:0.4000000000000001;"/><polygon fill="#000000" points="324.1628,116.6408,325.9504,119.9989,327.5829,118.3068,324.1628,116.6408" style="stroke:#000000;stroke-width:0.4000000000000001;"/><text fill="#000000" font-family="sans-serif" font-size="5.2" lengthAdjust="spacing" textLength="16.4" x="329.2022" y="119.9947">makes</text><text fill="#000000" font-family="sans-serif" font-size="5.2" lengthAdjust="spacing" textLength="2.4" x="290.2399" y="92.0578">*</text><text fill="#000000" font-family="sans-serif" font-size="5.2" lengthAdjust="spacing" textLength="2.4" x="332.6252" y="135.6841">*</text></g><!--link Comments to Reports--><g id="link_Comments_Reports"><path codeLine="144" d="M217.0662,38.3153 C230.0662,48.8393 250.4582,65.3473 263.3142,75.7513 " fill="none" id="Comments-Reports" style="stroke:#181818;stroke-width:0.4000000000000001;"/><polygon fill="#000000" points="243.5567,54.9038,241.4842,51.7137,240.0049,53.5411,243.5567,54.9038" style="stroke:#000000;stroke-width:0.4000000000000001;"/><text fill="#000000" font-family="sans-serif" font-size="5.2" lengthAdjust="spacing" textLength="7.6" x="245.6022" y="55.6107">are</text><text fill="#000000" font-family="sans-serif" font-size="5.2" lengthAdjust="spacing" textLength="3.2" x="216.3322" y="46.4384">1</text><text fill="#000000" font-family="sans-serif" font-size="5.2" lengthAdjust="spacing" textLength="3.2" x="256.9951" y="71.7815">1</text></g><!--link ReportFaults to Reports--><g id="link_ReportFaults_Reports"><path codeLine="145" d="M275.2022,38.3153 C275.2022,46.7353 275.2022,58.9833 275.2022,68.8753 " fill="none" id="ReportFaults-Reports" style="stroke:#181818;stroke-width:0.4000000000000001;"/><polygon fill="#000000" points="277.2022,55.6454,278.3778,52.0274,276.0266,52.0274,277.2022,55.6454" style="stroke:#000000;stroke-width:0.4000000000000001;"/><text fill="#000000" font-family="sans-serif" font-size="5.2" lengthAdjust="spacing" textLength="7.6" x="280.8022" y="55.6107">are</text><text fill="#000000" font-family="sans-serif" font-size="5.2" lengthAdjust="spacing" textLength="3.2" x="271.6322" y="46.4384">1</text><text fill="#000000" font-family="sans-serif" font-size="5.2" lengthAdjust="spacing" textLength="3.2" x="271.7472" y="64.7412">1</text></g><!--link Malfunctions to Reports--><g id="link_Malfunctions_Reports"><path codeLine="146" d="M336.3142,38.3153 C322.4422,48.9993 300.5582,65.8473 287.0902,76.2233 " fill="none" id="Malfunctions-Reports" style="stroke:#181818;stroke-width:0.4000000000000001;"/><polygon fill="#000000" points="319.2176,54.8657,322.8014,53.5896,321.3669,51.7268,319.2176,54.8657" style="stroke:#000000;stroke-width:0.4000000000000001;"/><text fill="#000000" font-family="sans-serif" font-size="5.2" lengthAdjust="spacing" textLength="7.6" x="324.4022" y="55.6107">are</text><text fill="#000000" font-family="sans-serif" font-size="5.2" lengthAdjust="spacing" textLength="3.2" x="329.7638" y="46.4384">1</text><text fill="#000000" font-family="sans-serif" font-size="5.2" lengthAdjust="spacing" textLength="3.2" x="290.2093" y="72.3627">1</text></g><!--link Teams to Parks--><g id="link_Teams_Parks"><path codeLine="148" d="M375.1022,429.0033 C379.9382,385.3273 399.2902,210.5553 404.1102,167.0153 " fill="none" id="Teams-Parks" style="stroke:#181818;stroke-width:0.4000000000000001;"/><polygon fill="#000000" points="394.6223,271.5856,393.0557,275.0523,395.3925,275.311,394.6223,271.5856" style="stroke:#000000;stroke-width:0.4000000000000001;"/><text fill="#000000" font-family="sans-serif" font-size="5.2" lengthAdjust="spacing" textLength="44" x="398.0022" y="275.5387">carry out tasks in</text><text fill="#000000" font-family="sans-serif" font-size="5.2" lengthAdjust="spacing" textLength="3.2" x="375.7603" y="424.7973">1</text><text fill="#000000" font-family="sans-serif" font-size="5.2" lengthAdjust="spacing" textLength="3.2" x="400.2877" y="175.1245">1</text></g><!--link Teams to Tasks--><g id="link_Teams_Tasks"><path codeLine="149" d="M370.2982,429.0353 C361.0382,403.9433 336.6702,335.6713 323.2022,276.9113 C315.0542,241.3633 323.6262,141.6473 299.2022,114.5673 C297.7102,112.9113 243.9382,99.6913 211.7262,91.8873 " fill="none" id="Teams-Tasks" style="stroke:#181818;stroke-width:0.4000000000000001;"/><polygon fill="#000000" points="321.551,239.5716,322.027,243.3459,324.1546,242.3453,321.551,239.5716" style="stroke:#000000;stroke-width:0.4000000000000001;"/><text fill="#000000" font-family="sans-serif" font-size="5.2" lengthAdjust="spacing" textLength="22.4" x="326.0022" y="243.3467">carry out</text><text fill="#000000" font-family="sans-serif" font-size="5.2" lengthAdjust="spacing" textLength="3.2" x="365.8053" y="424.8371">1</text><text fill="#000000" font-family="sans-serif" font-size="5.2" lengthAdjust="spacing" textLength="3.2" x="214.8125" y="98.0326">1</text></g><!--link Parks to Organization--><g id="link_Parks_Organization"><path codeLine="152" d="M418.7902,156.7513 C430.3982,156.7513 447.3302,156.7513 460.9222,156.7513 " fill="none" id="Parks-Organization" style="stroke:#181818;stroke-width:0.4000000000000001;"/><polygon fill="#000000" points="425.6022,152.2134,429.2202,153.389,429.2202,151.0379,425.6022,152.2134" style="stroke:#000000;stroke-width:0.4000000000000001;"/><text fill="#000000" font-family="sans-serif" font-size="5.2" lengthAdjust="spacing" textLength="22.4" x="431.2022" y="154.1787">manages</text><text fill="#000000" font-family="sans-serif" font-size="5.2" lengthAdjust="spacing" textLength="2.4" x="421.8402" y="155.1729">*</text><text fill="#000000" font-family="sans-serif" font-size="5.2" lengthAdjust="spacing" textLength="3.2" x="454.6626" y="155.402">1</text></g><!--link Organization to Employee--><g id="link_Organization_Employee"><path codeLine="153" d="M477.9062,180.2633 C474.6982,194.2593 470.6822,211.7793 467.7902,224.3873 " fill="none" id="Organization-Employee" style="stroke:#181818;stroke-width:0.4000000000000001;"/><polygon fill="#000000" points="475.9553,204.3428,477.9096,201.079,475.6179,200.5536,475.9553,204.3428" style="stroke:#000000;stroke-width:0.4000000000000001;"/><text fill="#000000" font-family="sans-serif" font-size="5.2" lengthAdjust="spacing" textLength="8.8" x="480.0022" y="204.3587">has</text><text fill="#000000" font-family="sans-serif" font-size="5.2" lengthAdjust="spacing" textLength="3.2" x="473.9088" y="188.3631">1</text><text fill="#000000" font-family="sans-serif" font-size="5.2" lengthAdjust="spacing" textLength="8.8" x="458.8926" y="220.2481">1..*</text></g><!--link Employee to Collaborator--><g id="link_Employee_Collaborator"><path codeLine="156" d="M456.2502,258.1993 C454.4422,262.0953 452.5382,266.2433 450.8022,270.1113 C448.0942,276.1433 445.2742,282.5513 442.5382,288.8233 " fill="none" id="Employee-Collaborator" style="stroke:#181818;stroke-width:0.4000000000000001;"/><polygon fill="#000000" points="451.9849,275.3988,454.5363,272.5771,452.3905,271.6163,451.9849,275.3988" style="stroke:#000000;stroke-width:0.4000000000000001;"/><text fill="#000000" font-family="sans-serif" font-size="5.2" lengthAdjust="spacing" textLength="8.8" x="456.4022" y="275.5387">is a</text><text fill="#000000" font-family="sans-serif" font-size="5.2" lengthAdjust="spacing" textLength="8.8" x="445.5894" y="266.2805">1..*</text><text fill="#000000" font-family="sans-serif" font-size="5.2" lengthAdjust="spacing" textLength="8.8" x="434.698" y="284.5661">1..*</text></g><!--link Employee to Job--><g id="link_Employee_Job"><path codeLine="157" d="M466.3662,258.1673 C466.9822,264.0673 467.4222,270.7793 467.2022,276.9113 C465.4222,326.1393 469.5302,339.2913 459.2022,387.4593 C456.3302,400.8553 450.7422,415.4673 446.3982,425.6873 " fill="none" id="Employee-Job" style="stroke:#181818;stroke-width:0.4000000000000001;"/><polygon fill="#000000" points="468.5655,330.8314,470.161,327.3779,467.8264,327.0996,468.5655,330.8314" style="stroke:#000000;stroke-width:0.4000000000000001;"/><text fill="#000000" font-family="sans-serif" font-size="5.2" lengthAdjust="spacing" textLength="13.2" x="472.4022" y="330.8107">has a</text><text fill="#000000" font-family="sans-serif" font-size="5.2" lengthAdjust="spacing" textLength="3.2" x="463.2879" y="266.368">1</text><text fill="#000000" font-family="sans-serif" font-size="5.2" lengthAdjust="spacing" textLength="3.2" x="444.0362" y="421.5535">1</text></g><!--link Collaborator to Skill--><g id="link_Collaborator_Skill"><path codeLine="159" d="M448.3782,363.4833 C452.0502,369.1833 455.7742,375.0633 459.2022,380.6593 C482.2262,418.2233 490.5382,440.2233 470.0022,479.2073 C461.4942,495.3593 444.0622,506.7113 429.5382,513.8153 " fill="none" id="Collaborator-Skill" style="stroke:#181818;stroke-width:0.4000000000000001;"/><polygon fill="#000000" points="483.8509,437.4089,482.2345,440.8527,484.5674,441.1451,483.8509,437.4089" style="stroke:#000000;stroke-width:0.4000000000000001;"/><text fill="#000000" font-family="sans-serif" font-size="5.2" lengthAdjust="spacing" textLength="35.2" x="487.2022" y="441.3587">is assigned to</text><text fill="#000000" font-family="sans-serif" font-size="5.2" lengthAdjust="spacing" textLength="3.2" x="451.349" y="366.3814">1</text><text fill="#000000" font-family="sans-serif" font-size="5.2" lengthAdjust="spacing" textLength="2.4" x="432.5529" y="511.3042">*</text></g><!--link Collaborator to Teams--><g id="link_Collaborator_Teams"><path codeLine="160" d="M402.8502,358.9593 C398.2822,365.8393 393.8382,373.3033 390.4022,380.6593 C382.8622,396.7993 378.1182,417.1113 375.7702,428.9953 " fill="none" id="Collaborator-Teams" style="stroke:#181818;stroke-width:0.4000000000000001;"/><polygon fill="#000000" points="391.6809,385.9868,394.0822,383.0362,391.8892,382.1883,391.6809,385.9868" style="stroke:#000000;stroke-width:0.4000000000000001;"/><text fill="#000000" font-family="sans-serif" font-size="5.2" lengthAdjust="spacing" textLength="25.2" x="396.0022" y="386.0867">integrates</text><text fill="#000000" font-family="sans-serif" font-size="5.2" lengthAdjust="spacing" textLength="8.8" x="391.0804" y="360.9656">1..*</text><text fill="#000000" font-family="sans-serif" font-size="5.2" lengthAdjust="spacing" textLength="3.2" x="372.6111" y="424.7873">1</text></g><!--link Vehicle to Tasks--><g id="link_Vehicle_Tasks"><path codeLine="164" d="M61.2022,399.3113 C61.2022,378.4433 61.2022,352.4313 61.2022,329.1833 C61.2022,156.3513 61.2022,156.3513 61.2022,156.3513 C61.2022,109.7433 127.6022,93.8433 164.3022,88.6113 " fill="none" id="Vehicle-Tasks" style="stroke:#181818;stroke-width:0.4000000000000001;"/><polygon fill="#000000" points="63.8321,239.4832,61.5768,242.5469,63.8083,243.2874,63.8321,239.4832" style="stroke:#000000;stroke-width:0.4000000000000001;"/><text fill="#000000" font-family="sans-serif" font-size="5.2" lengthAdjust="spacing" textLength="37.6" x="66.8022" y="243.3467">is attributed to</text><text fill="#000000" font-family="sans-serif" font-size="5.2" lengthAdjust="spacing" textLength="8.8" x="52.0791" y="395.1838">1..*</text><text fill="#000000" font-family="sans-serif" font-size="5.2" lengthAdjust="spacing" textLength="3.2" x="158.0187" y="87.6261">1</text></g><!--link Tasks to Equipment--><g id="link_Tasks_Equipment"><path codeLine="166" d="M168.6942,99.3513 C152.7782,111.9353 132.8022,132.4793 132.8022,156.3513 C132.8022,156.3513 132.8022,156.3513 132.8022,329.1833 C132.8022,355.3793 133.7182,362.4793 141.6022,387.4593 C145.8982,401.0673 153.3822,415.5353 159.1542,425.6553 " fill="none" id="Tasks-Equipment" style="stroke:#181818;stroke-width:0.4000000000000001;"/><polygon fill="#000000" points="134.8606,239.3823,133.5798,242.9644,135.93,243.0331,134.8606,239.3823" style="stroke:#000000;stroke-width:0.4000000000000001;"/><text fill="#000000" font-family="sans-serif" font-size="5.2" lengthAdjust="spacing" textLength="37.6" x="138.4022" y="243.3467">is attributed to</text><text fill="#000000" font-family="sans-serif" font-size="5.2" lengthAdjust="spacing" textLength="3.2" x="161.6393" y="107.4461">1</text><text fill="#000000" font-family="sans-serif" font-size="5.2" lengthAdjust="spacing" textLength="8.8" x="147.9813" y="421.5154">1..*</text></g><!--link Tasks to Agenda--><g id="link_Tasks_Agenda"><path codeLine="168" d="M164.3422,90.1433 C114.9902,99.0913 5.6022,122.7193 5.6022,156.3513 C5.6022,156.3513 5.6022,156.3513 5.6022,523.8993 C5.6022,554.9273 112.2462,566.4793 156.4022,569.9353 " fill="none" id="Tasks-Agenda" style="stroke:#181818;stroke-width:0.4000000000000001;"/><polygon fill="#000000" points="7.6353,326.8457,6.4,330.4438,8.7508,330.4827,7.6353,326.8457" style="stroke:#000000;stroke-width:0.4000000000000001;"/><text fill="#000000" font-family="sans-serif" font-size="5.2" lengthAdjust="spacing" textLength="8.8" x="11.2022" y="330.8107">has</text><text fill="#000000" font-family="sans-serif" font-size="5.2" lengthAdjust="spacing" textLength="2.4" x="158.757" y="96.1225">*</text><text fill="#000000" font-family="sans-serif" font-size="5.2" lengthAdjust="spacing" textLength="3.2" x="150.2059" y="568.2886">1</text></g><!--link Tasks to Parks--><g id="link_Tasks_Parks"><path codeLine="171" d="M211.7702,92.5313 C224.8622,95.8633 241.4502,99.8153 256.4022,102.5673 C297.3022,110.0873 310.6542,98.9553 349.2022,114.5673 C367.3022,121.8993 384.7862,136.5353 395.2702,146.3873 " fill="none" id="Tasks-Parks" style="stroke:#181818;stroke-width:0.4000000000000001;"/><polygon fill="#000000" points="364.7212,118.5927,361.5807,116.4458,360.9186,118.7018,364.7212,118.5927" style="stroke:#000000;stroke-width:0.4000000000000001;"/><text fill="#000000" font-family="sans-serif" font-size="5.2" lengthAdjust="spacing" textLength="41.6" x="366.4022" y="119.9947">are performed in</text><text fill="#000000" font-family="sans-serif" font-size="5.2" lengthAdjust="spacing" textLength="8.8" x="214.8511" y="91.9762">1..*</text><text fill="#000000" font-family="sans-serif" font-size="5.2" lengthAdjust="spacing" textLength="8.8" x="383.1559" y="142.3388">1..*</text></g><!--link Reports to Portal--><g id="link_Reports_Portal"><path codeLine="175" d="M272.7382,102.7593 C269.1062,127.2033 262.4262,172.1513 259.4742,192.0313 " fill="none" id="Reports-Portal" style="stroke:#181818;stroke-width:0.4000000000000001;"/><polygon fill="#000000" points="272.9082,120.0077,274.6028,116.6017,272.2772,116.2562,272.9082,120.0077" style="stroke:#000000;stroke-width:0.4000000000000001;"/><text fill="#000000" font-family="sans-serif" font-size="5.2" lengthAdjust="spacing" textLength="34.8" x="276.8022" y="119.9947">are submitted</text><text fill="#000000" font-family="sans-serif" font-size="5.2" lengthAdjust="spacing" textLength="2.4" x="269.8" y="110.7311">*</text><text fill="#000000" font-family="sans-serif" font-size="5.2" lengthAdjust="spacing" textLength="3.2" x="256.243" y="187.8311">1</text></g><!--SRC=[VLR9RXiv4BtpAmXT30HGCheAWG4ZJe3Cm8anTcRER7QfcoCk7P8zXXBatrDScv8bzKLSNhqgLhqYTUFsGa_CCaMLqOQFrYYWtiv0bfs9yJqRuCaV950Bt3Czo1RWHjQR5w47kcFI0RbPjgJGu0yJK6FzQCYDX9sdtb0hXj7JNWGwONH3nYLpxivxAxhPmsTkz9Fu0VGFCeeUA1UMe-yuLe2KlIF42u-HtHl5XAOFfWT9IAIXN-t0jFZ1WW_war3yD5CG1_yp_sLM7TWuUu7E2Pzsfj5eQFO0YINvLKW_gacQ0y0fOO9LWiNWWv6ITSOoR-ofKISmCJtBdbclX7COxFsoqbjmBewLwOI43qPxnltYibtuVDyR_em9ppEzdE8_qyLVJBMKcBKQtWFJMDuIcSiLgTjF0Lysm_XBYJtExi5nAwPZcpzDbotGQyNZ-2pw7nW5LZLRJ1BFtcI_iqpt-VoXj67aomazisamMEFSln1a5UTyjXQq_ql5cOL1E0zsIIl_FWiiU9lg81yFccaEdonydq7pGrDrD9WKKkOmeSp3yUWwYBf3VHgz4rP1VunfZdq6MdtS3Q1xbXsy0EpTCtDx5m0P4USPO647U4PUCk7sRNONraSanUQCfZd5pSg2UmQc2hV7yGE46ZI0HsQhSsauEwxY8xOuAq8PlP_kidGhufi3UwLf4F9YR9EEls52pXfIgNdj5hmmzgHjCnLoNV0yJSygBZ5_OhEiy5sSd4K_CBcRTMoBWbRBqea98QMVLfktRz-iw7ezJsLSheuj5OuoUjjW4HXngvp8BVe8U-uKjKvtPsR4JjjMUR_6hkaAGR65hy6EADlhwYhtEWwIQ2-7csDeLNWP7A6rrQvvZyXySsmfju2gSEykySPt9rXa_nb_dZKsGXiZoOqPCMTECm3AoCVMtE4B6Yn857kHGB89xREbiukSQR_g0mTPxi7nFhcjYYx1RHeKtdo8ELBoPTYHX2_3IBe3yZatDMREh3rGC_jyIdndRrzXIsehDgJXw0MEs5gApBsa-JLsVTeuT4j75dD3wbBji_C2pftMm7DZR7Bt14AMqjsyqmc6_sjqsqA131_eGKCVhl7tfpOvacIsgL8A3yjWi-BmAo_UeeybVy55-ViJdQ35ylWKYvJ5wrQjQayRe6GnFIYlKfXh4rGnWTsPy4wbgkDNxkNLcwgZScS50pTtIlWGnYtv3G00]--></g></svg>