<?xml version="1.0" encoding="us-ascii" standalone="no"?><svg xmlns="http://www.w3.org/2000/svg" xmlns:xlink="http://www.w3.org/1999/xlink" contentStyleType="text/css" height="1694px" preserveAspectRatio="none" style="width:2346px;height:1694px;background:#FFFFFF;" version="1.1" viewBox="0 0 2346 1694" width="2346px" zoomAndPan="magnify"><defs/><g><rect fill="#FFFFFF" height="1471.1289" style="stroke:#181818;stroke-width:1.0;" width="10" x="81.5" y="107.9766"/><rect fill="#FFFFFF" height="320.5938" style="stroke:#181818;stroke-width:1.0;" width="10" x="464.5" y="129.2871"/><rect fill="#FFFFFF" height="29.3105" style="stroke:#181818;stroke-width:1.0;" width="10" x="464.5" y="479.1914"/><rect fill="#FFFFFF" height="29.3105" style="stroke:#181818;stroke-width:1.0;" width="10" x="464.5" y="537.8125"/><rect fill="#FFFFFF" height="982.6719" style="stroke:#181818;stroke-width:1.0;" width="10" x="464.5" y="596.4336"/><rect fill="#FFFFFF" height="205.1738" style="stroke:#181818;stroke-width:1.0;" width="10" x="829.5" y="200.0859"/><rect fill="#FFFFFF" height="924.0508" style="stroke:#181818;stroke-width:1.0;" width="10" x="829.5" y="625.7441"/><rect fill="#FFFFFF" height="481.9688" style="stroke:#181818;stroke-width:1.0;" width="10" x="834.5" y="805.2969"/><rect fill="#FFFFFF" height="29.3105" style="stroke:#181818;stroke-width:1.0;" width="10" x="1043.5" y="229.3965"/><rect fill="#FFFFFF" height="29.3105" style="stroke:#181818;stroke-width:1.0;" width="10" x="1043.5" y="655.0547"/><rect fill="#FFFFFF" height="29.3105" style="stroke:#181818;stroke-width:1.0;" width="10" x="1156.5" y="288.0176"/><rect fill="#FFFFFF" height="29.3105" style="stroke:#181818;stroke-width:1.0;" width="10" x="1156.5" y="713.6758"/><rect fill="#FFFFFF" height="29.3105" style="stroke:#181818;stroke-width:1.0;" width="10" x="1156.5" y="1015.4707"/><rect fill="#FFFFFF" height="29.3105" style="stroke:#181818;stroke-width:1.0;" width="10" x="1292" y="839.6074"/><rect fill="#FFFFFF" height="29.3105" style="stroke:#181818;stroke-width:1.0;" width="10" x="1450" y="898.2285"/><rect fill="#FFFFFF" height="29.3105" style="stroke:#181818;stroke-width:1.0;" width="10" x="1592" y="956.8496"/><rect fill="#FFFFFF" height="29.3105" style="stroke:#181818;stroke-width:1.0;" width="10" x="1749.5" y="346.6387"/><rect fill="#FFFFFF" height="119.2422" style="stroke:#181818;stroke-width:1.0;" width="10" x="1749.5" y="1074.0918"/><rect fill="#FFFFFF" height="29.3105" style="stroke:#181818;stroke-width:1.0;" width="10" x="1982.5" y="1127.7129"/><rect fill="#FFFFFF" height="29.3105" style="stroke:#181818;stroke-width:1.0;" width="10" x="1982.5" y="1222.6445"/><rect fill="#FFFFFF" height="239.5293" style="stroke:#181818;stroke-width:1.0;" width="10" x="1982.5" y="1348.5762"/><rect fill="#FFFFFF" height="144.2422" style="stroke:#181818;stroke-width:1.0;" width="10" x="1987.5" y="1443.8633"/><rect fill="#FFFFFF" height="34.3105" style="stroke:#181818;stroke-width:1.0;" width="10" x="1992.5" y="1486.1738"/><rect fill="none" height="75.9316" style="stroke:#000000;stroke-width:1.5;" width="396.5" x="1655" y="1089.0918"/><line style="stroke:#181818;stroke-width:0.5;stroke-dasharray:5.0,5.0;" x1="86" x2="86" y1="97.9766" y2="1597.1055"/><line style="stroke:#181818;stroke-width:0.5;stroke-dasharray:5.0,5.0;" x1="469.5" x2="469.5" y1="97.9766" y2="1597.1055"/><line style="stroke:#181818;stroke-width:0.5;stroke-dasharray:5.0,5.0;" x1="834.5" x2="834.5" y1="168.0313" y2="1597.1055"/><line style="stroke:#181818;stroke-width:0.5;stroke-dasharray:5.0,5.0;" x1="1048" x2="1048" y1="97.9766" y2="1597.1055"/><line style="stroke:#181818;stroke-width:0.5;stroke-dasharray:5.0,5.0;" x1="1161" x2="1161" y1="97.9766" y2="1597.1055"/><line style="stroke:#181818;stroke-width:0.5;stroke-dasharray:5.0,5.0;" x1="1297" x2="1297" y1="97.9766" y2="1597.1055"/><line style="stroke:#181818;stroke-width:0.5;stroke-dasharray:5.0,5.0;" x1="1455" x2="1455" y1="97.9766" y2="1597.1055"/><line style="stroke:#181818;stroke-width:0.5;stroke-dasharray:5.0,5.0;" x1="1597" x2="1597" y1="97.9766" y2="1597.1055"/><line style="stroke:#181818;stroke-width:0.5;stroke-dasharray:5.0,5.0;" x1="1754" x2="1754" y1="97.9766" y2="1597.1055"/><line style="stroke:#181818;stroke-width:0.5;stroke-dasharray:5.0,5.0;" x1="1987.5" x2="1987.5" y1="97.9766" y2="1597.1055"/><line style="stroke:#181818;stroke-width:0.5;stroke-dasharray:5.0,5.0;" x1="2306.5" x2="2306.5" y1="1395.5645" y2="1597.1055"/><text fill="#000000" font-family="sans-serif" font-size="14" lengthAdjust="spacing" textLength="157" x="5" y="78.5352">Vehicle and Equipment</text><text fill="#000000" font-family="sans-serif" font-size="14" lengthAdjust="spacing" textLength="97" x="35" y="95.0234">Fleet Manager</text><ellipse cx="86.5" cy="13.5" fill="#E3E3E3" rx="8" ry="8" style="stroke:#181818;stroke-width:0.5;"/><path d="M86.5,21.5 L86.5,48.5 M73.5,29.5 L99.5,29.5 M86.5,48.5 L73.5,63.5 M86.5,48.5 L99.5,63.5 " fill="none" style="stroke:#181818;stroke-width:0.5;"/><text fill="#000000" font-family="sans-serif" font-size="14" lengthAdjust="spacing" textLength="157" x="5" y="1609.6406">Vehicle and Equipment</text><text fill="#000000" font-family="sans-serif" font-size="14" lengthAdjust="spacing" textLength="97" x="35" y="1626.1289">Fleet Manager</text><ellipse cx="86.5" cy="1637.582" fill="#E3E3E3" rx="8" ry="8" style="stroke:#181818;stroke-width:0.5;"/><path d="M86.5,1645.582 L86.5,1672.582 M73.5,1653.582 L99.5,1653.582 M86.5,1672.582 L73.5,1687.582 M86.5,1672.582 L99.5,1687.582 " fill="none" style="stroke:#181818;stroke-width:0.5;"/><rect fill="#E3E3E3" height="30.4883" rx="2.5" ry="2.5" style="stroke:#181818;stroke-width:0.5;" width="126" x="406.5" y="66.4883"/><text fill="#000000" font-family="sans-serif" font-size="14" lengthAdjust="spacing" textLength="112" x="413.5" y="87.0234">:CreateVehicleUI</text><rect fill="#E3E3E3" height="30.4883" rx="2.5" ry="2.5" style="stroke:#181818;stroke-width:0.5;" width="126" x="406.5" y="1596.1055"/><text fill="#000000" font-family="sans-serif" font-size="14" lengthAdjust="spacing" textLength="112" x="413.5" y="1616.6406">:CreateVehicleUI</text><rect fill="#E3E3E3" height="30.4883" rx="2.5" ry="2.5" style="stroke:#181818;stroke-width:0.5;" width="182" x="743.5" y="1596.1055"/><text fill="#000000" font-family="sans-serif" font-size="14" lengthAdjust="spacing" textLength="168" x="750.5" y="1616.6406">:CreateVehicleController</text><rect fill="#E3E3E3" height="30.4883" rx="2.5" ry="2.5" style="stroke:#181818;stroke-width:0.5;" width="103" x="997" y="66.4883"/><text fill="#000000" font-family="sans-serif" font-size="14" lengthAdjust="spacing" textLength="89" x="1004" y="87.0234">:Repositories</text><rect fill="#E3E3E3" height="30.4883" rx="2.5" ry="2.5" style="stroke:#181818;stroke-width:0.5;" width="103" x="997" y="1596.1055"/><text fill="#000000" font-family="sans-serif" font-size="14" lengthAdjust="spacing" textLength="89" x="1004" y="1616.6406">:Repositories</text><rect fill="#E3E3E3" height="46.9766" rx="2.5" ry="2.5" style="stroke:#181818;stroke-width:0.5;" width="103" x="1110" y="50"/><text fill="#000000" font-family="sans-serif" font-size="14" lengthAdjust="spacing" textLength="82" x="1120.5" y="70.5352">repositories</text><text fill="#000000" font-family="sans-serif" font-size="14" lengthAdjust="spacing" textLength="89" x="1117" y="87.0234">:Repositories</text><rect fill="#E3E3E3" height="46.9766" rx="2.5" ry="2.5" style="stroke:#181818;stroke-width:0.5;" width="103" x="1110" y="1596.1055"/><text fill="#000000" font-family="sans-serif" font-size="14" lengthAdjust="spacing" textLength="82" x="1120.5" y="1616.6406">repositories</text><text fill="#000000" font-family="sans-serif" font-size="14" lengthAdjust="spacing" textLength="89" x="1117" y="1633.1289">:Repositories</text><rect fill="#E3E3E3" height="30.4883" rx="2.5" ry="2.5" style="stroke:#181818;stroke-width:0.5;" width="148" x="1223" y="66.4883"/><text fill="#000000" font-family="sans-serif" font-size="14" lengthAdjust="spacing" textLength="134" x="1230" y="87.0234">:ApplicationSession</text><rect fill="#E3E3E3" height="30.4883" rx="2.5" ry="2.5" style="stroke:#181818;stroke-width:0.5;" width="148" x="1223" y="1596.1055"/><text fill="#000000" font-family="sans-serif" font-size="14" lengthAdjust="spacing" textLength="134" x="1230" y="1616.6406">:ApplicationSession</text><rect fill="#E3E3E3" height="46.9766" rx="2.5" ry="2.5" style="stroke:#181818;stroke-width:0.5;" width="148" x="1381" y="50"/><text fill="#000000" font-family="sans-serif" font-size="14" lengthAdjust="spacing" textLength="78" x="1416" y="70.5352">appSession</text><text fill="#000000" font-family="sans-serif" font-size="14" lengthAdjust="spacing" textLength="134" x="1388" y="87.0234">:ApplicationSession</text><rect fill="#E3E3E3" height="46.9766" rx="2.5" ry="2.5" style="stroke:#181818;stroke-width:0.5;" width="148" x="1381" y="1596.1055"/><text fill="#000000" font-family="sans-serif" font-size="14" lengthAdjust="spacing" textLength="78" x="1416" y="1616.6406">appSession</text><text fill="#000000" font-family="sans-serif" font-size="14" lengthAdjust="spacing" textLength="134" x="1388" y="1633.1289">:ApplicationSession</text><rect fill="#E3E3E3" height="46.9766" rx="2.5" ry="2.5" style="stroke:#181818;stroke-width:0.5;" width="116" x="1539" y="50"/><text fill="#000000" font-family="sans-serif" font-size="14" lengthAdjust="spacing" textLength="102" x="1546" y="70.5352">currentSession</text><text fill="#000000" font-family="sans-serif" font-size="14" lengthAdjust="spacing" textLength="87" x="1553.5" y="87.0234">:UserSession</text><rect fill="#E3E3E3" height="46.9766" rx="2.5" ry="2.5" style="stroke:#181818;stroke-width:0.5;" width="116" x="1539" y="1596.1055"/><text fill="#000000" font-family="sans-serif" font-size="14" lengthAdjust="spacing" textLength="102" x="1546" y="1616.6406">currentSession</text><text fill="#000000" font-family="sans-serif" font-size="14" lengthAdjust="spacing" textLength="87" x="1553.5" y="1633.1289">:UserSession</text><rect fill="#E3E3E3" height="46.9766" rx="2.5" ry="2.5" style="stroke:#181818;stroke-width:0.5;" width="179" x="1665" y="50"/><text fill="#000000" font-family="sans-serif" font-size="14" lengthAdjust="spacing" textLength="165" x="1672" y="70.5352">organizationRepository:</text><text fill="#000000" font-family="sans-serif" font-size="14" lengthAdjust="spacing" textLength="163" x="1673" y="87.0234">OrganizationRepository</text><rect fill="#E3E3E3" height="46.9766" rx="2.5" ry="2.5" style="stroke:#181818;stroke-width:0.5;" width="179" x="1665" y="1596.1055"/><text fill="#000000" font-family="sans-serif" font-size="14" lengthAdjust="spacing" textLength="165" x="1672" y="1616.6406">organizationRepository:</text><text fill="#000000" font-family="sans-serif" font-size="14" lengthAdjust="spacing" textLength="163" x="1673" y="1633.1289">OrganizationRepository</text><rect fill="#E3E3E3" height="46.9766" rx="2.5" ry="2.5" style="stroke:#181818;stroke-width:0.5;" width="108" x="1933.5" y="50"/><text fill="#000000" font-family="sans-serif" font-size="14" lengthAdjust="spacing" textLength="88" x="1943.5" y="70.5352">organization</text><text fill="#000000" font-family="sans-serif" font-size="14" lengthAdjust="spacing" textLength="94" x="1940.5" y="87.0234">:Organization</text><rect fill="#E3E3E3" height="46.9766" rx="2.5" ry="2.5" style="stroke:#181818;stroke-width:0.5;" width="108" x="1933.5" y="1596.1055"/><text fill="#000000" font-family="sans-serif" font-size="14" lengthAdjust="spacing" textLength="88" x="1943.5" y="1616.6406">organization</text><text fill="#000000" font-family="sans-serif" font-size="14" lengthAdjust="spacing" textLength="94" x="1940.5" y="1633.1289">:Organization</text><rect fill="#E3E3E3" height="46.9766" rx="2.5" ry="2.5" style="stroke:#181818;stroke-width:0.5;" width="67" x="2273.5" y="1596.1055"/><text fill="#000000" font-family="sans-serif" font-size="14" lengthAdjust="spacing" textLength="47" x="2283.5" y="1616.6406">vehicle</text><text fill="#000000" font-family="sans-serif" font-size="14" lengthAdjust="spacing" textLength="53" x="2280.5" y="1633.1289">:Vehicle</text><rect fill="#FFFFFF" height="1471.1289" style="stroke:#181818;stroke-width:1.0;" width="10" x="81.5" y="107.9766"/><rect fill="#FFFFFF" height="320.5938" style="stroke:#181818;stroke-width:1.0;" width="10" x="464.5" y="129.2871"/><rect fill="#FFFFFF" height="29.3105" style="stroke:#181818;stroke-width:1.0;" width="10" x="464.5" y="479.1914"/><rect fill="#FFFFFF" height="29.3105" style="stroke:#181818;stroke-width:1.0;" width="10" x="464.5" y="537.8125"/><rect fill="#FFFFFF" height="982.6719" style="stroke:#181818;stroke-width:1.0;" width="10" x="464.5" y="596.4336"/><rect fill="#FFFFFF" height="205.1738" style="stroke:#181818;stroke-width:1.0;" width="10" x="829.5" y="200.0859"/><rect fill="#FFFFFF" height="924.0508" style="stroke:#181818;stroke-width:1.0;" width="10" x="829.5" y="625.7441"/><rect fill="#FFFFFF" height="481.9688" style="stroke:#181818;stroke-width:1.0;" width="10" x="834.5" y="805.2969"/><rect fill="#FFFFFF" height="29.3105" style="stroke:#181818;stroke-width:1.0;" width="10" x="1043.5" y="229.3965"/><rect fill="#FFFFFF" height="29.3105" style="stroke:#181818;stroke-width:1.0;" width="10" x="1043.5" y="655.0547"/><rect fill="#FFFFFF" height="29.3105" style="stroke:#181818;stroke-width:1.0;" width="10" x="1156.5" y="288.0176"/><rect fill="#FFFFFF" height="29.3105" style="stroke:#181818;stroke-width:1.0;" width="10" x="1156.5" y="713.6758"/><rect fill="#FFFFFF" height="29.3105" style="stroke:#181818;stroke-width:1.0;" width="10" x="1156.5" y="1015.4707"/><rect fill="#FFFFFF" height="29.3105" style="stroke:#181818;stroke-width:1.0;" width="10" x="1292" y="839.6074"/><rect fill="#FFFFFF" height="29.3105" style="stroke:#181818;stroke-width:1.0;" width="10" x="1450" y="898.2285"/><rect fill="#FFFFFF" height="29.3105" style="stroke:#181818;stroke-width:1.0;" width="10" x="1592" y="956.8496"/><rect fill="#FFFFFF" height="29.3105" style="stroke:#181818;stroke-width:1.0;" width="10" x="1749.5" y="346.6387"/><rect fill="#FFFFFF" height="119.2422" style="stroke:#181818;stroke-width:1.0;" width="10" x="1749.5" y="1074.0918"/><rect fill="#FFFFFF" height="29.3105" style="stroke:#181818;stroke-width:1.0;" width="10" x="1982.5" y="1127.7129"/><rect fill="#FFFFFF" height="29.3105" style="stroke:#181818;stroke-width:1.0;" width="10" x="1982.5" y="1222.6445"/><rect fill="#FFFFFF" height="239.5293" style="stroke:#181818;stroke-width:1.0;" width="10" x="1982.5" y="1348.5762"/><rect fill="#FFFFFF" height="144.2422" style="stroke:#181818;stroke-width:1.0;" width="10" x="1987.5" y="1443.8633"/><rect fill="#FFFFFF" height="34.3105" style="stroke:#181818;stroke-width:1.0;" width="10" x="1992.5" y="1486.1738"/><polygon fill="#181818" points="452.5,125.2871,462.5,129.2871,452.5,133.2871,456.5,129.2871" style="stroke:#181818;stroke-width:1.0;"/><line style="stroke:#181818;stroke-width:1.0;" x1="91.5" x2="458.5" y1="129.2871" y2="129.2871"/><text fill="#000000" font-family="sans-serif" font-size="13" font-weight="bold" lengthAdjust="spacing" textLength="9" x="98.5" y="124.5449">1</text><text fill="#000000" font-family="sans-serif" font-size="13" lengthAdjust="spacing" textLength="260" x="111.5" y="124.5449">asks to create a new vehicle maintenance</text><polygon fill="#181818" points="731.5,154.5977,741.5,158.5977,731.5,162.5977,735.5,158.5977" style="stroke:#181818;stroke-width:1.0;"/><line style="stroke:#181818;stroke-width:1.0;" x1="474.5" x2="737.5" y1="158.5977" y2="158.5977"/><text fill="#000000" font-family="sans-serif" font-size="13" font-weight="bold" lengthAdjust="spacing" textLength="9" x="481.5" y="153.8555">2</text><text fill="#000000" font-family="sans-serif" font-size="13" lengthAdjust="spacing" textLength="38" x="494.5" y="153.8555">create</text><rect fill="#E3E3E3" height="30.4883" rx="2.5" ry="2.5" style="stroke:#181818;stroke-width:0.5;" width="182" x="743.5" y="137.2871"/><text fill="#000000" font-family="sans-serif" font-size="14" lengthAdjust="spacing" textLength="168" x="750.5" y="157.8223">:CreateVehicleController</text><polygon fill="#181818" points="817.5,196.0859,827.5,200.0859,817.5,204.0859,821.5,200.0859" style="stroke:#181818;stroke-width:1.0;"/><line style="stroke:#181818;stroke-width:1.0;" x1="474.5" x2="823.5" y1="200.0859" y2="200.0859"/><text fill="#000000" font-family="sans-serif" font-size="13" font-weight="bold" lengthAdjust="spacing" textLength="9" x="481.5" y="195.3438">3</text><text fill="#000000" font-family="sans-serif" font-size="13" lengthAdjust="spacing" textLength="159" x="494.5" y="195.3438">getMaintenanceVehicles()</text><polygon fill="#181818" points="1031.5,225.3965,1041.5,229.3965,1031.5,233.3965,1035.5,229.3965" style="stroke:#181818;stroke-width:1.0;"/><line style="stroke:#181818;stroke-width:1.0;" x1="839.5" x2="1037.5" y1="229.3965" y2="229.3965"/><text fill="#000000" font-family="sans-serif" font-size="13" font-weight="bold" lengthAdjust="spacing" textLength="9" x="846.5" y="224.6543">4</text><text fill="#000000" font-family="sans-serif" font-size="13" lengthAdjust="spacing" textLength="81" x="859.5" y="224.6543">getInstance()</text><polygon fill="#181818" points="850.5,254.707,840.5,258.707,850.5,262.707,846.5,258.707" style="stroke:#181818;stroke-width:1.0;"/><line style="stroke:#181818;stroke-width:1.0;stroke-dasharray:2.0,2.0;" x1="844.5" x2="1047.5" y1="258.707" y2="258.707"/><text fill="#000000" font-family="sans-serif" font-size="13" font-weight="bold" lengthAdjust="spacing" textLength="9" x="856.5" y="253.9648">5</text><text fill="#000000" font-family="sans-serif" font-size="13" lengthAdjust="spacing" textLength="75" x="869.5" y="253.9648">repositories</text><polygon fill="#181818" points="1144.5,284.0176,1154.5,288.0176,1144.5,292.0176,1148.5,288.0176" style="stroke:#181818;stroke-width:1.0;"/><line style="stroke:#181818;stroke-width:1.0;" x1="839.5" x2="1150.5" y1="288.0176" y2="288.0176"/><text fill="#000000" font-family="sans-serif" font-size="13" font-weight="bold" lengthAdjust="spacing" textLength="9" x="846.5" y="283.2754">6</text><text fill="#000000" font-family="sans-serif" font-size="13" lengthAdjust="spacing" textLength="226" x="859.5" y="283.2754">getMaintenanceVehiclesRepository()</text><polygon fill="#181818" points="850.5,313.3281,840.5,317.3281,850.5,321.3281,846.5,317.3281" style="stroke:#181818;stroke-width:1.0;"/><line style="stroke:#181818;stroke-width:1.0;stroke-dasharray:2.0,2.0;" x1="844.5" x2="1160.5" y1="317.3281" y2="317.3281"/><text fill="#000000" font-family="sans-serif" font-size="13" font-weight="bold" lengthAdjust="spacing" textLength="9" x="856.5" y="312.5859">7</text><text fill="#000000" font-family="sans-serif" font-size="13" lengthAdjust="spacing" textLength="198" x="869.5" y="312.5859">MaintenanceVehiclesRepository</text><polygon fill="#181818" points="1737.5,342.6387,1747.5,346.6387,1737.5,350.6387,1741.5,346.6387" style="stroke:#181818;stroke-width:1.0;"/><line style="stroke:#181818;stroke-width:1.0;" x1="839.5" x2="1743.5" y1="346.6387" y2="346.6387"/><text fill="#000000" font-family="sans-serif" font-size="13" font-weight="bold" lengthAdjust="spacing" textLength="9" x="846.5" y="341.8965">8</text><text fill="#000000" font-family="sans-serif" font-size="13" lengthAdjust="spacing" textLength="159" x="859.5" y="341.8965">getMaintenanceVehicles()</text><polygon fill="#181818" points="850.5,371.9492,840.5,375.9492,850.5,379.9492,846.5,375.9492" style="stroke:#181818;stroke-width:1.0;"/><line style="stroke:#181818;stroke-width:1.0;stroke-dasharray:2.0,2.0;" x1="844.5" x2="1753.5" y1="375.9492" y2="375.9492"/><text fill="#000000" font-family="sans-serif" font-size="13" font-weight="bold" lengthAdjust="spacing" textLength="9" x="856.5" y="371.207">9</text><text fill="#000000" font-family="sans-serif" font-size="13" lengthAdjust="spacing" textLength="155" x="869.5" y="371.207">maintenanceVehiclesList</text><polygon fill="#181818" points="485.5,401.2598,475.5,405.2598,485.5,409.2598,481.5,405.2598" style="stroke:#181818;stroke-width:1.0;"/><line style="stroke:#181818;stroke-width:1.0;stroke-dasharray:2.0,2.0;" x1="479.5" x2="833.5" y1="405.2598" y2="405.2598"/><text fill="#000000" font-family="sans-serif" font-size="13" font-weight="bold" lengthAdjust="spacing" textLength="18" x="491.5" y="400.5176">10</text><text fill="#000000" font-family="sans-serif" font-size="13" lengthAdjust="spacing" textLength="155" x="513.5" y="400.5176">maintenanceVehiclesList</text><polygon fill="#181818" points="102.5,445.8809,92.5,449.8809,102.5,453.8809,98.5,449.8809" style="stroke:#181818;stroke-width:1.0;"/><line style="stroke:#181818;stroke-width:1.0;stroke-dasharray:2.0,2.0;" x1="96.5" x2="468.5" y1="449.8809" y2="449.8809"/><text fill="#000000" font-family="sans-serif" font-size="13" font-weight="bold" lengthAdjust="spacing" textLength="18" x="108.5" y="437.4834">11</text><text fill="#000000" font-family="sans-serif" font-size="13" lengthAdjust="spacing" textLength="196" x="130.5" y="429.8281">shows vehicle maintenance list</text><text fill="#000000" font-family="sans-serif" font-size="13" lengthAdjust="spacing" textLength="141" x="134.5" y="445.1387">and asks to select one</text><polygon fill="#181818" points="452.5,475.1914,462.5,479.1914,452.5,483.1914,456.5,479.1914" style="stroke:#181818;stroke-width:1.0;"/><line style="stroke:#181818;stroke-width:1.0;" x1="91.5" x2="458.5" y1="479.1914" y2="479.1914"/><text fill="#000000" font-family="sans-serif" font-size="13" font-weight="bold" lengthAdjust="spacing" textLength="18" x="98.5" y="474.4492">12</text><text fill="#000000" font-family="sans-serif" font-size="13" lengthAdjust="spacing" textLength="103" x="120.5" y="474.4492">selects a vehicle</text><polygon fill="#181818" points="102.5,504.502,92.5,508.502,102.5,512.502,98.5,508.502" style="stroke:#181818;stroke-width:1.0;"/><line style="stroke:#181818;stroke-width:1.0;stroke-dasharray:2.0,2.0;" x1="96.5" x2="468.5" y1="508.502" y2="508.502"/><text fill="#000000" font-family="sans-serif" font-size="13" font-weight="bold" lengthAdjust="spacing" textLength="18" x="108.5" y="503.7598">13</text><text fill="#000000" font-family="sans-serif" font-size="13" lengthAdjust="spacing" textLength="85" x="130.5" y="503.7598">requests data</text><polygon fill="#181818" points="452.5,533.8125,462.5,537.8125,452.5,541.8125,456.5,537.8125" style="stroke:#181818;stroke-width:1.0;"/><line style="stroke:#181818;stroke-width:1.0;" x1="91.5" x2="458.5" y1="537.8125" y2="537.8125"/><text fill="#000000" font-family="sans-serif" font-size="13" font-weight="bold" lengthAdjust="spacing" textLength="18" x="98.5" y="533.0703">14</text><text fill="#000000" font-family="sans-serif" font-size="13" lengthAdjust="spacing" textLength="332" x="120.5" y="533.0703">types requested data (plateNumber, date, currentKm)</text><polygon fill="#181818" points="102.5,563.123,92.5,567.123,102.5,571.123,98.5,567.123" style="stroke:#181818;stroke-width:1.0;"/><line style="stroke:#181818;stroke-width:1.0;stroke-dasharray:2.0,2.0;" x1="96.5" x2="468.5" y1="567.123" y2="567.123"/><text fill="#000000" font-family="sans-serif" font-size="13" font-weight="bold" lengthAdjust="spacing" textLength="18" x="108.5" y="562.3809">15</text><text fill="#000000" font-family="sans-serif" font-size="13" lengthAdjust="spacing" textLength="268" x="130.5" y="562.3809">shows all data and requested confirmation</text><polygon fill="#181818" points="452.5,592.4336,462.5,596.4336,452.5,600.4336,456.5,596.4336" style="stroke:#181818;stroke-width:1.0;"/><line style="stroke:#181818;stroke-width:1.0;" x1="91.5" x2="458.5" y1="596.4336" y2="596.4336"/><text fill="#000000" font-family="sans-serif" font-size="13" font-weight="bold" lengthAdjust="spacing" textLength="18" x="98.5" y="591.6914">16</text><text fill="#000000" font-family="sans-serif" font-size="13" lengthAdjust="spacing" textLength="87" x="120.5" y="591.6914">confirms data</text><polygon fill="#181818" points="817.5,621.7441,827.5,625.7441,817.5,629.7441,821.5,625.7441" style="stroke:#181818;stroke-width:1.0;"/><line style="stroke:#181818;stroke-width:1.0;" x1="474.5" x2="823.5" y1="625.7441" y2="625.7441"/><text fill="#000000" font-family="sans-serif" font-size="13" font-weight="bold" lengthAdjust="spacing" textLength="18" x="481.5" y="621.002">17</text><text fill="#000000" font-family="sans-serif" font-size="13" lengthAdjust="spacing" textLength="314" x="503.5" y="621.002">createMaintenance(plateNumber, date, currentKm)</text><polygon fill="#181818" points="1031.5,651.0547,1041.5,655.0547,1031.5,659.0547,1035.5,655.0547" style="stroke:#181818;stroke-width:1.0;"/><line style="stroke:#181818;stroke-width:1.0;" x1="839.5" x2="1037.5" y1="655.0547" y2="655.0547"/><text fill="#000000" font-family="sans-serif" font-size="13" font-weight="bold" lengthAdjust="spacing" textLength="18" x="846.5" y="650.3125">18</text><text fill="#000000" font-family="sans-serif" font-size="13" lengthAdjust="spacing" textLength="81" x="868.5" y="650.3125">getInstance()</text><polygon fill="#181818" points="850.5,680.3652,840.5,684.3652,850.5,688.3652,846.5,684.3652" style="stroke:#181818;stroke-width:1.0;"/><line style="stroke:#181818;stroke-width:1.0;stroke-dasharray:2.0,2.0;" x1="844.5" x2="1047.5" y1="684.3652" y2="684.3652"/><text fill="#000000" font-family="sans-serif" font-size="13" font-weight="bold" lengthAdjust="spacing" textLength="18" x="856.5" y="679.623">19</text><text fill="#000000" font-family="sans-serif" font-size="13" lengthAdjust="spacing" textLength="75" x="878.5" y="679.623">repositories</text><polygon fill="#181818" points="1144.5,709.6758,1154.5,713.6758,1144.5,717.6758,1148.5,713.6758" style="stroke:#181818;stroke-width:1.0;"/><line style="stroke:#181818;stroke-width:1.0;" x1="839.5" x2="1150.5" y1="713.6758" y2="713.6758"/><text fill="#000000" font-family="sans-serif" font-size="13" font-weight="bold" lengthAdjust="spacing" textLength="18" x="846.5" y="708.9336">20</text><text fill="#000000" font-family="sans-serif" font-size="13" lengthAdjust="spacing" textLength="140" x="868.5" y="708.9336">getVehicleRepository()</text><polygon fill="#181818" points="850.5,738.9863,840.5,742.9863,850.5,746.9863,846.5,742.9863" style="stroke:#181818;stroke-width:1.0;"/><line style="stroke:#181818;stroke-width:1.0;" x1="844.5" x2="1160.5" y1="742.9863" y2="742.9863"/><text fill="#000000" font-family="sans-serif" font-size="13" font-weight="bold" lengthAdjust="spacing" textLength="18" x="856.5" y="738.2441">21</text><text fill="#000000" font-family="sans-serif" font-size="13" lengthAdjust="spacing" textLength="111" x="878.5" y="738.2441">vehicleRepository</text><line style="stroke:#181818;stroke-width:1.0;" x1="839.5" x2="886.5" y1="792.2969" y2="792.2969"/><line style="stroke:#181818;stroke-width:1.0;" x1="886.5" x2="886.5" y1="792.2969" y2="805.2969"/><line style="stroke:#181818;stroke-width:1.0;" x1="845.5" x2="886.5" y1="805.2969" y2="805.2969"/><polygon fill="#181818" points="855.5,801.2969,845.5,805.2969,855.5,809.2969,851.5,805.2969" style="stroke:#181818;stroke-width:1.0;"/><text fill="#000000" font-family="sans-serif" font-size="13" font-weight="bold" lengthAdjust="spacing" textLength="18" x="851.5" y="787.5547">22</text><text fill="#000000" font-family="sans-serif" font-size="13" lengthAdjust="spacing" textLength="168" x="873.5" y="787.5547">getEmployeeFromSession()</text><polygon fill="#181818" points="1280,835.6074,1290,839.6074,1280,843.6074,1284,839.6074" style="stroke:#181818;stroke-width:1.0;"/><line style="stroke:#181818;stroke-width:1.0;" x1="844.5" x2="1286" y1="839.6074" y2="839.6074"/><text fill="#000000" font-family="sans-serif" font-size="13" font-weight="bold" lengthAdjust="spacing" textLength="18" x="851.5" y="834.8652">23</text><text fill="#000000" font-family="sans-serif" font-size="13" lengthAdjust="spacing" textLength="81" x="873.5" y="834.8652">getInstance()</text><polygon fill="#181818" points="855.5,864.918,845.5,868.918,855.5,872.918,851.5,868.918" style="stroke:#181818;stroke-width:1.0;"/><line style="stroke:#181818;stroke-width:1.0;" x1="849.5" x2="1296" y1="868.918" y2="868.918"/><text fill="#000000" font-family="sans-serif" font-size="13" font-weight="bold" lengthAdjust="spacing" textLength="18" x="861.5" y="864.1758">24</text><text fill="#000000" font-family="sans-serif" font-size="13" lengthAdjust="spacing" textLength="71" x="883.5" y="864.1758">appSession</text><polygon fill="#181818" points="1438,894.2285,1448,898.2285,1438,902.2285,1442,898.2285" style="stroke:#181818;stroke-width:1.0;"/><line style="stroke:#181818;stroke-width:1.0;" x1="844.5" x2="1444" y1="898.2285" y2="898.2285"/><text fill="#000000" font-family="sans-serif" font-size="13" font-weight="bold" lengthAdjust="spacing" textLength="18" x="851.5" y="893.4863">25</text><text fill="#000000" font-family="sans-serif" font-size="13" lengthAdjust="spacing" textLength="123" x="873.5" y="893.4863">getCurrentSession()</text><polygon fill="#181818" points="855.5,923.5391,845.5,927.5391,855.5,931.5391,851.5,927.5391" style="stroke:#181818;stroke-width:1.0;"/><line style="stroke:#181818;stroke-width:1.0;stroke-dasharray:2.0,2.0;" x1="849.5" x2="1454" y1="927.5391" y2="927.5391"/><text fill="#000000" font-family="sans-serif" font-size="13" font-weight="bold" lengthAdjust="spacing" textLength="18" x="861.5" y="922.7969">26</text><text fill="#000000" font-family="sans-serif" font-size="13" lengthAdjust="spacing" textLength="93" x="883.5" y="922.7969">currentSession</text><polygon fill="#181818" points="1580,952.8496,1590,956.8496,1580,960.8496,1584,956.8496" style="stroke:#181818;stroke-width:1.0;"/><line style="stroke:#181818;stroke-width:1.0;" x1="844.5" x2="1586" y1="956.8496" y2="956.8496"/><text fill="#000000" font-family="sans-serif" font-size="13" font-weight="bold" lengthAdjust="spacing" textLength="18" x="851.5" y="952.1074">27</text><text fill="#000000" font-family="sans-serif" font-size="13" lengthAdjust="spacing" textLength="142" x="873.5" y="952.1074">email = getUserEmail()</text><polygon fill="#181818" points="855.5,982.1602,845.5,986.1602,855.5,990.1602,851.5,986.1602" style="stroke:#181818;stroke-width:1.0;"/><line style="stroke:#181818;stroke-width:1.0;stroke-dasharray:2.0,2.0;" x1="849.5" x2="1596" y1="986.1602" y2="986.1602"/><text fill="#000000" font-family="sans-serif" font-size="13" font-weight="bold" lengthAdjust="spacing" textLength="18" x="861.5" y="981.418">28</text><text fill="#000000" font-family="sans-serif" font-size="13" lengthAdjust="spacing" textLength="34" x="883.5" y="981.418">email</text><polygon fill="#181818" points="1144.5,1011.4707,1154.5,1015.4707,1144.5,1019.4707,1148.5,1015.4707" style="stroke:#181818;stroke-width:1.0;"/><line style="stroke:#181818;stroke-width:1.0;" x1="844.5" x2="1150.5" y1="1015.4707" y2="1015.4707"/><text fill="#000000" font-family="sans-serif" font-size="13" font-weight="bold" lengthAdjust="spacing" textLength="18" x="851.5" y="1010.7285">29</text><text fill="#000000" font-family="sans-serif" font-size="13" lengthAdjust="spacing" textLength="210" x="873.5" y="1010.7285">getOrganizationRepository(email)</text><polygon fill="#181818" points="855.5,1040.7813,845.5,1044.7813,855.5,1048.7813,851.5,1044.7813" style="stroke:#181818;stroke-width:1.0;"/><line style="stroke:#181818;stroke-width:1.0;stroke-dasharray:2.0,2.0;" x1="849.5" x2="1160.5" y1="1044.7813" y2="1044.7813"/><text fill="#000000" font-family="sans-serif" font-size="13" font-weight="bold" lengthAdjust="spacing" textLength="18" x="861.5" y="1040.0391">30</text><text fill="#000000" font-family="sans-serif" font-size="13" lengthAdjust="spacing" textLength="146" x="883.5" y="1040.0391">organizationRepository</text><polygon fill="#181818" points="1737.5,1070.0918,1747.5,1074.0918,1737.5,1078.0918,1741.5,1074.0918" style="stroke:#181818;stroke-width:1.0;"/><line style="stroke:#181818;stroke-width:1.0;" x1="844.5" x2="1743.5" y1="1074.0918" y2="1074.0918"/><text fill="#000000" font-family="sans-serif" font-size="13" font-weight="bold" lengthAdjust="spacing" textLength="18" x="851.5" y="1069.3496">31</text><text fill="#000000" font-family="sans-serif" font-size="13" lengthAdjust="spacing" textLength="251" x="873.5" y="1069.3496">getOrganizationByEmployeeEmail(email)</text><path d="M1655,1089.0918 L1729,1089.0918 L1729,1096.4023 L1719,1106.4023 L1655,1106.4023 L1655,1089.0918 " fill="#EEEEEE" style="stroke:#000000;stroke-width:1.5;"/><rect fill="none" height="75.9316" style="stroke:#000000;stroke-width:1.5;" width="396.5" x="1655" y="1089.0918"/><text fill="#000000" font-family="sans-serif" font-size="13" font-weight="bold" lengthAdjust="spacing" textLength="29" x="1670" y="1102.6602">loop</text><text fill="#000000" font-family="sans-serif" font-size="11" font-weight="bold" lengthAdjust="spacing" textLength="132" x="1744" y="1101.7266">[[for each organization]</text><polygon fill="#181818" points="1970.5,1123.7129,1980.5,1127.7129,1970.5,1131.7129,1974.5,1127.7129" style="stroke:#181818;stroke-width:1.0;"/><line style="stroke:#181818;stroke-width:1.0;" x1="1759.5" x2="1976.5" y1="1127.7129" y2="1127.7129"/><text fill="#000000" font-family="sans-serif" font-size="13" font-weight="bold" lengthAdjust="spacing" textLength="18" x="1766.5" y="1122.9707">32</text><text fill="#000000" font-family="sans-serif" font-size="13" lengthAdjust="spacing" textLength="182" x="1788.5" y="1122.9707">anyEmployeeHasEmail(email)</text><polygon fill="#181818" points="1770.5,1153.0234,1760.5,1157.0234,1770.5,1161.0234,1766.5,1157.0234" style="stroke:#181818;stroke-width:1.0;"/><line style="stroke:#181818;stroke-width:1.0;stroke-dasharray:2.0,2.0;" x1="1764.5" x2="1986.5" y1="1157.0234" y2="1157.0234"/><text fill="#000000" font-family="sans-serif" font-size="13" font-weight="bold" lengthAdjust="spacing" textLength="18" x="1776.5" y="1152.2813">33</text><text fill="#000000" font-family="sans-serif" font-size="13" lengthAdjust="spacing" textLength="62" x="1798.5" y="1152.2813">true/false</text><polygon fill="#181818" points="855.5,1189.334,845.5,1193.334,855.5,1197.334,851.5,1193.334" style="stroke:#181818;stroke-width:1.0;"/><line style="stroke:#181818;stroke-width:1.0;stroke-dasharray:2.0,2.0;" x1="849.5" x2="1753.5" y1="1193.334" y2="1193.334"/><text fill="#000000" font-family="sans-serif" font-size="13" font-weight="bold" lengthAdjust="spacing" textLength="18" x="861.5" y="1188.5918">34</text><text fill="#000000" font-family="sans-serif" font-size="13" lengthAdjust="spacing" textLength="79" x="883.5" y="1188.5918">organization</text><polygon fill="#181818" points="1970.5,1218.6445,1980.5,1222.6445,1970.5,1226.6445,1974.5,1222.6445" style="stroke:#181818;stroke-width:1.0;"/><line style="stroke:#181818;stroke-width:1.0;" x1="844.5" x2="1976.5" y1="1222.6445" y2="1222.6445"/><text fill="#000000" font-family="sans-serif" font-size="13" font-weight="bold" lengthAdjust="spacing" textLength="18" x="851.5" y="1217.9023">35</text><text fill="#000000" font-family="sans-serif" font-size="13" lengthAdjust="spacing" textLength="170" x="873.5" y="1217.9023">getEmployeeByEmail(email)</text><polygon fill="#181818" points="855.5,1247.9551,845.5,1251.9551,855.5,1255.9551,851.5,1251.9551" style="stroke:#181818;stroke-width:1.0;"/><line style="stroke:#181818;stroke-width:1.0;stroke-dasharray:2.0,2.0;" x1="849.5" x2="1986.5" y1="1251.9551" y2="1251.9551"/><text fill="#000000" font-family="sans-serif" font-size="13" font-weight="bold" lengthAdjust="spacing" textLength="18" x="861.5" y="1247.2129">36</text><text fill="#000000" font-family="sans-serif" font-size="13" lengthAdjust="spacing" textLength="60" x="883.5" y="1247.2129">employee</text><line style="stroke:#181818;stroke-width:1.0;stroke-dasharray:2.0,2.0;" x1="844.5" x2="886.5" y1="1286.2656" y2="1286.2656"/><line style="stroke:#181818;stroke-width:1.0;stroke-dasharray:2.0,2.0;" x1="886.5" x2="886.5" y1="1286.2656" y2="1299.2656"/><line style="stroke:#181818;stroke-width:1.0;stroke-dasharray:2.0,2.0;" x1="839.5" x2="886.5" y1="1299.2656" y2="1299.2656"/><polygon fill="#181818" points="849.5,1295.2656,839.5,1299.2656,849.5,1303.2656,845.5,1299.2656" style="stroke:#181818;stroke-width:1.0;"/><text fill="#000000" font-family="sans-serif" font-size="13" font-weight="bold" lengthAdjust="spacing" textLength="18" x="851.5" y="1281.5234">37</text><text fill="#000000" font-family="sans-serif" font-size="13" lengthAdjust="spacing" textLength="60" x="873.5" y="1281.5234">employee</text><polygon fill="#181818" points="1970.5,1344.5762,1980.5,1348.5762,1970.5,1352.5762,1974.5,1348.5762" style="stroke:#181818;stroke-width:1.0;"/><line style="stroke:#181818;stroke-width:1.0;" x1="839.5" x2="1976.5" y1="1348.5762" y2="1348.5762"/><text fill="#000000" font-family="sans-serif" font-size="13" font-weight="bold" lengthAdjust="spacing" textLength="18" x="846.5" y="1343.834">38</text><text fill="#000000" font-family="sans-serif" font-size="13" lengthAdjust="spacing" textLength="314" x="868.5" y="1343.834">createMaintenance(plateNumber, date, currentKm)</text><polygon fill="#181818" points="2261.5,1373.8867,2271.5,1377.8867,2261.5,1381.8867,2265.5,1377.8867" style="stroke:#181818;stroke-width:1.0;"/><line style="stroke:#181818;stroke-width:1.0;" x1="1992.5" x2="2267.5" y1="1377.8867" y2="1377.8867"/><text fill="#000000" font-family="sans-serif" font-size="13" font-weight="bold" lengthAdjust="spacing" textLength="18" x="1999.5" y="1373.1445">39</text><text fill="#000000" font-family="sans-serif" font-size="13" lengthAdjust="spacing" textLength="235" x="2021.5" y="1373.1445">create(plateNumber, date, currentKm)</text><rect fill="#E3E3E3" height="46.9766" rx="2.5" ry="2.5" style="stroke:#181818;stroke-width:0.5;" width="67" x="2273.5" y="1356.5762"/><text fill="#000000" font-family="sans-serif" font-size="14" lengthAdjust="spacing" textLength="47" x="2283.5" y="1377.1113">vehicle</text><text fill="#000000" font-family="sans-serif" font-size="14" lengthAdjust="spacing" textLength="53" x="2280.5" y="1393.5996">:Vehicle</text><line style="stroke:#181818;stroke-width:1.0;" x1="1992.5" x2="2039.5" y1="1430.8633" y2="1430.8633"/><line style="stroke:#181818;stroke-width:1.0;" x1="2039.5" x2="2039.5" y1="1430.8633" y2="1443.8633"/><line style="stroke:#181818;stroke-width:1.0;" x1="1998.5" x2="2039.5" y1="1443.8633" y2="1443.8633"/><polygon fill="#181818" points="2008.5,1439.8633,1998.5,1443.8633,2008.5,1447.8633,2004.5,1443.8633" style="stroke:#181818;stroke-width:1.0;"/><text fill="#000000" font-family="sans-serif" font-size="13" font-weight="bold" lengthAdjust="spacing" textLength="18" x="2004.5" y="1426.1211">40</text><text fill="#000000" font-family="sans-serif" font-size="13" lengthAdjust="spacing" textLength="203" x="2026.5" y="1426.1211">addVehicleMaintenance (vehicle)</text><line style="stroke:#181818;stroke-width:1.0;" x1="1997.5" x2="2044.5" y1="1473.1738" y2="1473.1738"/><line style="stroke:#181818;stroke-width:1.0;" x1="2044.5" x2="2044.5" y1="1473.1738" y2="1486.1738"/><line style="stroke:#181818;stroke-width:1.0;" x1="2003.5" x2="2044.5" y1="1486.1738" y2="1486.1738"/><polygon fill="#181818" points="2013.5,1482.1738,2003.5,1486.1738,2013.5,1490.1738,2009.5,1486.1738" style="stroke:#181818;stroke-width:1.0;"/><text fill="#000000" font-family="sans-serif" font-size="13" font-weight="bold" lengthAdjust="spacing" textLength="18" x="2009.5" y="1468.4316">41</text><text fill="#000000" font-family="sans-serif" font-size="13" lengthAdjust="spacing" textLength="225" x="2031.5" y="1468.4316">validateVehicleMaintenance(vehicle)</text><polygon fill="#181818" points="850.5,1516.4844,840.5,1520.4844,850.5,1524.4844,846.5,1520.4844" style="stroke:#181818;stroke-width:1.0;"/><line style="stroke:#181818;stroke-width:1.0;stroke-dasharray:2.0,2.0;" x1="844.5" x2="1986.5" y1="1520.4844" y2="1520.4844"/><text fill="#000000" font-family="sans-serif" font-size="13" font-weight="bold" lengthAdjust="spacing" textLength="18" x="856.5" y="1515.7422">42</text><text fill="#000000" font-family="sans-serif" font-size="13" lengthAdjust="spacing" textLength="123" x="878.5" y="1515.7422">vehicleMaintenance</text><polygon fill="#181818" points="485.5,1545.7949,475.5,1549.7949,485.5,1553.7949,481.5,1549.7949" style="stroke:#181818;stroke-width:1.0;"/><line style="stroke:#181818;stroke-width:1.0;stroke-dasharray:2.0,2.0;" x1="479.5" x2="833.5" y1="1549.7949" y2="1549.7949"/><text fill="#000000" font-family="sans-serif" font-size="13" font-weight="bold" lengthAdjust="spacing" textLength="18" x="491.5" y="1545.0527">43</text><text fill="#000000" font-family="sans-serif" font-size="13" lengthAdjust="spacing" textLength="123" x="513.5" y="1545.0527">vehicleMaintenance</text><polygon fill="#181818" points="97.5,1575.1055,87.5,1579.1055,97.5,1583.1055,93.5,1579.1055" style="stroke:#181818;stroke-width:1.0;"/><line style="stroke:#181818;stroke-width:1.0;stroke-dasharray:2.0,2.0;" x1="91.5" x2="468.5" y1="1579.1055" y2="1579.1055"/><text fill="#000000" font-family="sans-serif" font-size="13" font-weight="bold" lengthAdjust="spacing" textLength="18" x="103.5" y="1574.3633">44</text><text fill="#000000" font-family="sans-serif" font-size="13" lengthAdjust="spacing" textLength="170" x="125.5" y="1574.3633">displays operation success</text><!--SRC=[fLXDRzim3BthLmYzh2rMx1vW1ReWtOgrMz6ikwp0eDbi8jIMF4b9bw4_VfGiVyMoOg- -1BR9nqUAefwZdxWec68vpQMGoLh97AXH6o2wVbEmv8cjO6bs6L05YM5YbRKDz9gbyfcB5NracGP2sCP8iSb_WIBapPgdG1-bDB_a7y8I8nKz-WvhdY0Q4obT_Dxm8WTX7iHb1c3e3HCOJXrHfkdtonk2GGnFUC64eKUpkG9cm0FSNpch-wkOqLmAesIMUSZvjxlhFVCxAAJco8o3TZRrWzsIssGndQwBQdayY3x0xVN5jxqW5qMHyOGPBiKIjCOVP_dpulQsQycAmXiWye1NpodPA8KrR1plDQYsntAnN5vyxJf9jMA2_tNeJSgp1_4r-CBXX5yDuoALjak9SVUnwx0jLmfj_PgLYp-_NX3RCdoBg-bwWL1_uGqzEyULfpCqVTBKI9guLQUC2dYc7fBcZ0i3Wea46kyQ4pkdVcWln4DKsoAdfuXS8WwPeC4Ap4qJm9FNnoSTZqv4rtwzr_Poa0WTQBuoqfNGneO9mFV2X3fuqCjUeQXdFj4PRVVx84mAqyDNITiDCrZF1crCwcxlHNDrmPhaeX77P3iSiKell6kcD50lpO6D64ryWCPPqz1vdymrrsPC5SOGAkjHRTonmLf1kjl7xaK4iyDWXiUGVDQXVKyp17qGxhIfPeM634yoAWMGWKZLQ6XFcj9BuuZnOSZWDEbGK_1x0neTKsOO6H78x0hGbHkapeyU5ndQVt47wrlx2DvIF_S_voSZgPHLObbMOjgQD64IAHwvojqIZg7fxLjv3HAeEwoSgQsc7v7MY0dwckavVMozObfEdPBz2UdtIdGgZfXDvHIirsMxZqecJRoNbnSIejqSb8kyoEGEu195fbScUyH7Bh6LJAENrEchKFhs1QsNh15TiRGTs32nYjUy8yPYx1nUY9qZLxFhghiOmo1WnQ_KW3CAE1mp-jvIjJ9nOMzZBBrs318jtxMuEl0OnGejskckZk4JvTX5U4NBrrJ3-lTmtvDfntmlbm-xQY-KfJ-Kq9IZFfEoe3yUyIiBMQyxAPAfik3SAdKhi4LD-1FJKSvzxgZrevh4nJYBQIJxFVgk_BGS8qCmOCW4H4h-JnD5QpXH07MwvUvZPp3QjXZL3aCbhIhfUOF79GUgDK3m0D2WA8kT1Yxb_rK0XulW2d3kFXnFJwj04z1R68ufIrD_sBROqcD_L9u49i71Dcp3Rrd6q-QFYdP5wX3JDzTU5snxu8ICROQMN0y2nVfX_vkvLA0pcdAD2xBJL1QWt5wXUfCaUBJHaEHitTe_0Fu1]--></g></svg>