<?xml version="1.0" encoding="us-ascii" standalone="no"?><svg xmlns="http://www.w3.org/2000/svg" xmlns:xlink="http://www.w3.org/1999/xlink" contentStyleType="text/css" height="1409px" preserveAspectRatio="none" style="width:1262px;height:1409px;background:#FFFFFF;" version="1.1" viewBox="0 0 1262 1409" width="1262px" zoomAndPan="magnify"><defs/><g><!--class ApplicationSession--><g id="elem_ApplicationSession"><rect codeLine="11" fill="#F1F1F1" height="80.9766" id="ApplicationSession" rx="2.5" ry="2.5" style="stroke:#181818;stroke-width:0.5;" width="162" x="97" y="277.91"/><ellipse cx="112" cy="293.91" fill="#ADD1B2" rx="11" ry="11" style="stroke:#181818;stroke-width:1.0;"/><path d="M114.9731,299.5531 Q114.3921,299.8519 113.7529,300.0013 Q113.1138,300.1507 112.4082,300.1507 Q109.9014,300.1507 108.5815,298.4989 Q107.2617,296.847 107.2617,293.7259 Q107.2617,290.5965 108.5815,288.9447 Q109.9014,287.2928 112.4082,287.2928 Q113.1138,287.2928 113.7612,287.4422 Q114.4087,287.5916 114.9731,287.8905 L114.9731,290.6131 Q114.3423,290.0321 113.7488,289.7623 Q113.1553,289.4925 112.5244,289.4925 Q111.1797,289.4925 110.4949,290.5592 Q109.8101,291.6258 109.8101,293.7259 Q109.8101,295.8177 110.4949,296.8844 Q111.1797,297.951 112.5244,297.951 Q113.1553,297.951 113.7488,297.6812 Q114.3423,297.4115 114.9731,296.8304 Z " fill="#000000"/><text fill="#000000" font-family="sans-serif" font-size="14" lengthAdjust="spacing" textLength="130" x="126" y="299.201">ApplicationSession</text><line style="stroke:#181818;stroke-width:0.5;" x1="98" x2="258" y1="309.91" y2="309.91"/><line style="stroke:#181818;stroke-width:0.5;" x1="98" x2="258" y1="317.91" y2="317.91"/><text fill="#000000" font-family="sans-serif" font-size="14" lengthAdjust="spacing" textLength="140" x="103" y="335.4452">+static getInstance()</text><text fill="#000000" font-family="sans-serif" font-size="14" lengthAdjust="spacing" textLength="148" x="103" y="351.9334">+getCurrentSession()</text></g><!--class UserSession--><g id="elem_UserSession"><rect codeLine="17" fill="#F1F1F1" height="64.4883" id="UserSession" rx="2.5" ry="2.5" style="stroke:#181818;stroke-width:0.5;" width="123" x="233.5" y="518.33"/><ellipse cx="252.1" cy="534.33" fill="#ADD1B2" rx="11" ry="11" style="stroke:#181818;stroke-width:1.0;"/><path d="M255.0731,539.9731 Q254.4921,540.2719 253.8529,540.4213 Q253.2138,540.5707 252.5082,540.5707 Q250.0014,540.5707 248.6815,538.9189 Q247.3617,537.267 247.3617,534.1459 Q247.3617,531.0165 248.6815,529.3647 Q250.0014,527.7128 252.5082,527.7128 Q253.2138,527.7128 253.8612,527.8622 Q254.5087,528.0116 255.0731,528.3105 L255.0731,531.0331 Q254.4423,530.4521 253.8488,530.1823 Q253.2553,529.9125 252.6244,529.9125 Q251.2797,529.9125 250.5949,530.9792 Q249.9101,532.0458 249.9101,534.1459 Q249.9101,536.2377 250.5949,537.3044 Q251.2797,538.371 252.6244,538.371 Q253.2553,538.371 253.8488,538.1012 Q254.4423,537.8315 255.0731,537.2504 Z " fill="#000000"/><text fill="#000000" font-family="sans-serif" font-size="14" lengthAdjust="spacing" textLength="83" x="266.9" y="539.621">UserSession</text><line style="stroke:#181818;stroke-width:0.5;" x1="234.5" x2="355.5" y1="550.33" y2="550.33"/><line style="stroke:#181818;stroke-width:0.5;" x1="234.5" x2="355.5" y1="558.33" y2="558.33"/><text fill="#000000" font-family="sans-serif" font-size="14" lengthAdjust="spacing" textLength="111" x="239.5" y="575.8652">+getUserEmail()</text></g><!--class Employee--><g id="elem_Employee"><rect codeLine="22" fill="#F1F1F1" height="64.4883" id="Employee" rx="2.5" ry="2.5" style="stroke:#181818;stroke-width:0.5;" width="250" x="519" y="1180.54"/><ellipse cx="606.75" cy="1196.54" fill="#ADD1B2" rx="11" ry="11" style="stroke:#181818;stroke-width:1.0;"/><path d="M609.7231,1202.1831 Q609.1421,1202.4819 608.5029,1202.6313 Q607.8638,1202.7807 607.1582,1202.7807 Q604.6514,1202.7807 603.3315,1201.1289 Q602.0117,1199.477 602.0117,1196.3559 Q602.0117,1193.2265 603.3315,1191.5747 Q604.6514,1189.9228 607.1582,1189.9228 Q607.8638,1189.9228 608.5112,1190.0722 Q609.1587,1190.2216 609.7231,1190.5205 L609.7231,1193.2431 Q609.0923,1192.6621 608.4988,1192.3923 Q607.9053,1192.1225 607.2744,1192.1225 Q605.9297,1192.1225 605.2449,1193.1892 Q604.5601,1194.2558 604.5601,1196.3559 Q604.5601,1198.4477 605.2449,1199.5144 Q605.9297,1200.581 607.2744,1200.581 Q607.9053,1200.581 608.4988,1200.3112 Q609.0923,1200.0415 609.7231,1199.4604 Z " fill="#000000"/><text fill="#000000" font-family="sans-serif" font-size="14" lengthAdjust="spacing" textLength="66" x="627.25" y="1201.831">Employee</text><line style="stroke:#181818;stroke-width:0.5;" x1="520" x2="768" y1="1212.54" y2="1212.54"/><text fill="#000000" font-family="sans-serif" font-size="14" lengthAdjust="spacing" textLength="8" x="525" y="1230.0752">-</text><text fill="#000000" font-family="sans-serif" font-size="14" font-weight="bold" lengthAdjust="spacing" textLength="230" x="533" y="1230.0752">a complementar estes atributos</text><line style="stroke:#181818;stroke-width:0.5;" x1="520" x2="768" y1="1237.0283" y2="1237.0283"/></g><!--class Vehicle--><g id="elem_Vehicle"><rect codeLine="26" fill="#F1F1F1" height="361.2773" id="Vehicle" rx="2.5" ry="2.5" style="stroke:#181818;stroke-width:0.5;" width="300" x="689" y="742.26"/><ellipse cx="810.25" cy="758.26" fill="#ADD1B2" rx="11" ry="11" style="stroke:#181818;stroke-width:1.0;"/><path d="M813.2231,763.9031 Q812.6421,764.2019 812.0029,764.3513 Q811.3638,764.5007 810.6582,764.5007 Q808.1514,764.5007 806.8315,762.8489 Q805.5117,761.197 805.5117,758.0759 Q805.5117,754.9465 806.8315,753.2947 Q808.1514,751.6428 810.6582,751.6428 Q811.3638,751.6428 812.0112,751.7922 Q812.6587,751.9416 813.2231,752.2405 L813.2231,754.9631 Q812.5923,754.3821 811.9988,754.1123 Q811.4053,753.8425 810.7744,753.8425 Q809.4297,753.8425 808.7449,754.9092 Q808.0601,755.9758 808.0601,758.0759 Q808.0601,760.1677 808.7449,761.2344 Q809.4297,762.301 810.7744,762.301 Q811.4053,762.301 811.9988,762.0312 Q812.5923,761.7615 813.2231,761.1804 Z " fill="#000000"/><text fill="#000000" font-family="sans-serif" font-size="14" lengthAdjust="spacing" textLength="49" x="830.75" y="763.551">Vehicle</text><line style="stroke:#181818;stroke-width:0.5;" x1="690" x2="988" y1="774.26" y2="774.26"/><text fill="#000000" font-family="sans-serif" font-size="14" lengthAdjust="spacing" textLength="94" x="695" y="791.7952">-String brand</text><text fill="#000000" font-family="sans-serif" font-size="14" lengthAdjust="spacing" textLength="96" x="695" y="808.2834">-String model</text><text fill="#000000" font-family="sans-serif" font-size="14" lengthAdjust="spacing" textLength="82" x="695" y="824.7717">-String type</text><text fill="#000000" font-family="sans-serif" font-size="14" lengthAdjust="spacing" textLength="135" x="695" y="841.26">-Integer tareWeight</text><text fill="#000000" font-family="sans-serif" font-size="14" lengthAdjust="spacing" textLength="146" x="695" y="857.7483">-Integer grossWeight</text><text fill="#000000" font-family="sans-serif" font-size="14" lengthAdjust="spacing" textLength="141" x="695" y="874.2366">-Integer currenteKm</text><text fill="#000000" font-family="sans-serif" font-size="14" lengthAdjust="spacing" textLength="127" x="695" y="890.7248">-Date registerDate</text><text fill="#000000" font-family="sans-serif" font-size="14" lengthAdjust="spacing" textLength="149" x="695" y="907.2131">-Date acquisitionDate</text><text fill="#000000" font-family="sans-serif" font-size="14" lengthAdjust="spacing" textLength="220" x="695" y="923.7014">-Integer maintenanceFrequency</text><text fill="#000000" font-family="sans-serif" font-size="14" lengthAdjust="spacing" textLength="142" x="695" y="940.1897">-String plateNumber</text><text fill="#000000" font-family="sans-serif" font-size="14" lengthAdjust="spacing" textLength="194" x="695" y="956.678">-Integer passengersNumber</text><text fill="#000000" font-family="sans-serif" font-size="14" lengthAdjust="spacing" textLength="156" x="695" y="973.1663">-Integer doorsNumber</text><text fill="#000000" font-family="sans-serif" font-size="14" lengthAdjust="spacing" textLength="112" x="695" y="989.6545">-String fuelType</text><text fill="#000000" font-family="sans-serif" font-size="14" lengthAdjust="spacing" textLength="172" x="695" y="1006.1428">-Boolean trailerMachines</text><line style="stroke:#181818;stroke-width:0.5;" x1="690" x2="988" y1="1013.0959" y2="1013.0959"/><text fill="#000000" font-family="sans-serif" font-size="14" lengthAdjust="spacing" textLength="283" x="695" y="1030.6311">+Vehicle(brand, model, type, tare weight,</text><text fill="#000000" font-family="sans-serif" font-size="14" lengthAdjust="spacing" textLength="266" x="695" y="1047.1194">gross weight, current km,register date,</text><text fill="#000000" font-family="sans-serif" font-size="14" lengthAdjust="spacing" textLength="281" x="695" y="1063.6077">acquisition date, maintenance frequency,</text><text fill="#000000" font-family="sans-serif" font-size="14" lengthAdjust="spacing" textLength="240" x="695" y="1080.0959">plate number, passengers number,</text><text fill="#000000" font-family="sans-serif" font-size="14" lengthAdjust="spacing" textLength="288" x="695" y="1096.5842">doors number, fuel type, trailer machines)</text></g><!--class VehicleMaintenance--><g id="elem_VehicleMaintenance"><rect codeLine="45" fill="#F1F1F1" height="80.9766" id="VehicleMaintenance" rx="2.5" ry="2.5" style="stroke:#181818;stroke-width:0.5;" width="246" x="521" y="1322.02"/><ellipse cx="571.75" cy="1338.02" fill="#ADD1B2" rx="11" ry="11" style="stroke:#181818;stroke-width:1.0;"/><path d="M574.7231,1343.6631 Q574.1421,1343.9619 573.5029,1344.1113 Q572.8638,1344.2607 572.1582,1344.2607 Q569.6514,1344.2607 568.3315,1342.6089 Q567.0117,1340.957 567.0117,1337.8359 Q567.0117,1334.7065 568.3315,1333.0547 Q569.6514,1331.4028 572.1582,1331.4028 Q572.8638,1331.4028 573.5112,1331.5522 Q574.1587,1331.7016 574.7231,1332.0005 L574.7231,1334.7231 Q574.0923,1334.1421 573.4988,1333.8723 Q572.9053,1333.6025 572.2744,1333.6025 Q570.9297,1333.6025 570.2449,1334.6692 Q569.5601,1335.7358 569.5601,1337.8359 Q569.5601,1339.9277 570.2449,1340.9944 Q570.9297,1342.061 572.2744,1342.061 Q572.9053,1342.061 573.4988,1341.7912 Q574.0923,1341.5215 574.7231,1340.9404 Z " fill="#000000"/><text fill="#000000" font-family="sans-serif" font-size="14" lengthAdjust="spacing" textLength="136" x="592.25" y="1343.311">VehicleMaintenance</text><line style="stroke:#181818;stroke-width:0.5;" x1="522" x2="766" y1="1354.02" y2="1354.02"/><text fill="#000000" font-family="sans-serif" font-size="14" lengthAdjust="spacing" textLength="130" x="527" y="1371.5552">-String description</text><line style="stroke:#181818;stroke-width:0.5;" x1="522" x2="766" y1="1378.5083" y2="1378.5083"/><text fill="#000000" font-family="sans-serif" font-size="14" lengthAdjust="spacing" textLength="234" x="527" y="1396.0434">+VehicleMaintenance(description)</text></g><!--class Organization--><g id="elem_Organization"><rect codeLine="51" fill="#F1F1F1" height="229.3711" id="Organization" rx="2.5" ry="2.5" style="stroke:#181818;stroke-width:0.5;" width="418" x="565" y="435.89"/><ellipse cx="724.75" cy="451.89" fill="#ADD1B2" rx="11" ry="11" style="stroke:#181818;stroke-width:1.0;"/><path d="M727.7231,457.5331 Q727.1421,457.8319 726.5029,457.9813 Q725.8638,458.1307 725.1582,458.1307 Q722.6514,458.1307 721.3315,456.4789 Q720.0117,454.827 720.0117,451.7059 Q720.0117,448.5765 721.3315,446.9247 Q722.6514,445.2728 725.1582,445.2728 Q725.8638,445.2728 726.5112,445.4222 Q727.1587,445.5716 727.7231,445.8705 L727.7231,448.5931 Q727.0923,448.0121 726.4988,447.7423 Q725.9053,447.4725 725.2744,447.4725 Q723.9297,447.4725 723.2449,448.5392 Q722.5601,449.6058 722.5601,451.7059 Q722.5601,453.7977 723.2449,454.8644 Q723.9297,455.931 725.2744,455.931 Q725.9053,455.931 726.4988,455.6612 Q727.0923,455.3915 727.7231,454.8104 Z " fill="#000000"/><text fill="#000000" font-family="sans-serif" font-size="14" lengthAdjust="spacing" textLength="90" x="745.25" y="457.181">Organization</text><line style="stroke:#181818;stroke-width:0.5;" x1="566" x2="982" y1="467.89" y2="467.89"/><text fill="#000000" font-family="sans-serif" font-size="14" lengthAdjust="spacing" textLength="8" x="571" y="485.4252">-</text><text fill="#000000" font-family="sans-serif" font-size="14" font-weight="bold" lengthAdjust="spacing" textLength="87" x="579" y="485.4252">String name</text><text fill="#000000" font-family="sans-serif" font-size="14" lengthAdjust="spacing" textLength="8" x="571" y="501.9134">-</text><text fill="#000000" font-family="sans-serif" font-size="14" font-weight="bold" lengthAdjust="spacing" textLength="127" x="579" y="501.9134">String vatNumber</text><text fill="#000000" font-family="sans-serif" font-size="14" lengthAdjust="spacing" textLength="8" x="571" y="518.4017">-</text><text fill="#000000" font-family="sans-serif" font-size="14" font-weight="bold" lengthAdjust="spacing" textLength="104" x="579" y="518.4017">String website</text><text fill="#000000" font-family="sans-serif" font-size="14" lengthAdjust="spacing" textLength="8" x="571" y="534.89">-</text><text fill="#000000" font-family="sans-serif" font-size="14" font-weight="bold" lengthAdjust="spacing" textLength="92" x="579" y="534.89">String phone</text><text fill="#000000" font-family="sans-serif" font-size="14" lengthAdjust="spacing" textLength="8" x="571" y="551.3783">-</text><text fill="#000000" font-family="sans-serif" font-size="14" font-weight="bold" lengthAdjust="spacing" textLength="88" x="579" y="551.3783">String email</text><line style="stroke:#181818;stroke-width:0.5;" x1="566" x2="982" y1="558.3314" y2="558.3314"/><text fill="#000000" font-family="sans-serif" font-size="14" lengthAdjust="spacing" textLength="227" x="571" y="575.8666">-addVehicleMaintenance(vehicle)</text><text fill="#000000" font-family="sans-serif" font-size="14" lengthAdjust="spacing" textLength="254" x="571" y="592.3548">-validateVehicleMaintenance(vehicle)</text><text fill="#000000" font-family="sans-serif" font-size="14" lengthAdjust="spacing" textLength="210" x="571" y="608.8431">+anyEmployeeHasEmail(email)</text><text fill="#000000" font-family="sans-serif" font-size="14" lengthAdjust="spacing" textLength="106" x="571" y="625.3314">+Organization(</text><text fill="#000000" font-family="sans-serif" font-size="14" font-weight="bold" lengthAdjust="spacing" textLength="165" x="677" y="625.3314">Inserir atributos acima</text><text fill="#000000" font-family="sans-serif" font-size="14" lengthAdjust="spacing" textLength="5" x="842" y="625.3314">)</text><text fill="#000000" font-family="sans-serif" font-size="14" lengthAdjust="spacing" textLength="406" x="571" y="641.8197">+createVehicleMaintenance(date, currentKm, plateNumber)</text><text fill="#000000" font-family="sans-serif" font-size="14" lengthAdjust="spacing" textLength="195" x="571" y="658.308">-getEmployeeByEmail(email)</text></g><!--class OrganizationRepository--><g id="elem_OrganizationRepository"><rect codeLine="67" fill="#F1F1F1" height="64.4883" id="OrganizationRepository" rx="2.5" ry="2.5" style="stroke:#181818;stroke-width:0.5;" width="300" x="670" y="286.15"/><ellipse cx="734.25" cy="302.15" fill="#ADD1B2" rx="11" ry="11" style="stroke:#181818;stroke-width:1.0;"/><path d="M737.2231,307.7931 Q736.6421,308.0919 736.0029,308.2413 Q735.3638,308.3907 734.6582,308.3907 Q732.1514,308.3907 730.8315,306.7389 Q729.5117,305.087 729.5117,301.9659 Q729.5117,298.8365 730.8315,297.1847 Q732.1514,295.5328 734.6582,295.5328 Q735.3638,295.5328 736.0112,295.6822 Q736.6587,295.8316 737.2231,296.1305 L737.2231,298.8531 Q736.5923,298.2721 735.9988,298.0023 Q735.4053,297.7325 734.7744,297.7325 Q733.4297,297.7325 732.7449,298.7992 Q732.0601,299.8658 732.0601,301.9659 Q732.0601,304.0577 732.7449,305.1244 Q733.4297,306.191 734.7744,306.191 Q735.4053,306.191 735.9988,305.9212 Q736.5923,305.6515 737.2231,305.0704 Z " fill="#000000"/><text fill="#000000" font-family="sans-serif" font-size="14" lengthAdjust="spacing" textLength="163" x="754.75" y="307.441">OrganizationRepository</text><line style="stroke:#181818;stroke-width:0.5;" x1="671" x2="969" y1="318.15" y2="318.15"/><line style="stroke:#181818;stroke-width:0.5;" x1="671" x2="969" y1="326.15" y2="326.15"/><text fill="#000000" font-family="sans-serif" font-size="14" lengthAdjust="spacing" textLength="288" x="676" y="343.6852">+getOrganizationByEmployeeEmail(email)</text></g><!--class Repositories--><g id="elem_Repositories"><rect codeLine="71" fill="#F1F1F1" height="97.4648" id="Repositories" rx="2.5" ry="2.5" style="stroke:#181818;stroke-width:0.5;" width="218" x="751" y="62.22"/><ellipse cx="813.25" cy="78.22" fill="#ADD1B2" rx="11" ry="11" style="stroke:#181818;stroke-width:1.0;"/><path d="M816.2231,83.8631 Q815.6421,84.1619 815.0029,84.3113 Q814.3638,84.4607 813.6582,84.4607 Q811.1514,84.4607 809.8315,82.8089 Q808.5117,81.157 808.5117,78.0359 Q808.5117,74.9065 809.8315,73.2547 Q811.1514,71.6028 813.6582,71.6028 Q814.3638,71.6028 815.0112,71.7522 Q815.6587,71.9016 816.2231,72.2005 L816.2231,74.9231 Q815.5923,74.3421 814.9988,74.0723 Q814.4053,73.8025 813.7744,73.8025 Q812.4297,73.8025 811.7449,74.8692 Q811.0601,75.9358 811.0601,78.0359 Q811.0601,80.1277 811.7449,81.1944 Q812.4297,82.261 813.7744,82.261 Q814.4053,82.261 814.9988,81.9912 Q815.5923,81.7215 816.2231,81.1404 Z " fill="#000000"/><text fill="#000000" font-family="sans-serif" font-size="14" lengthAdjust="spacing" textLength="85" x="833.75" y="83.511">Repositories</text><line style="stroke:#181818;stroke-width:0.5;" x1="752" x2="968" y1="94.22" y2="94.22"/><line style="stroke:#181818;stroke-width:0.5;" x1="752" x2="968" y1="102.22" y2="102.22"/><text fill="#000000" font-family="sans-serif" font-size="14" lengthAdjust="spacing" textLength="103" x="757" y="119.7552">-Repositories()</text><text fill="#000000" font-family="sans-serif" font-size="14" lengthAdjust="spacing" textLength="197" x="757" y="136.2434">+getInstance() : Repositories</text><text fill="#000000" font-family="sans-serif" font-size="14" lengthAdjust="spacing" textLength="206" x="757" y="152.7317">+getOrganizationRepository()</text></g><!--class CreateMaintenanceController--><g id="elem_CreateMaintenanceController"><rect codeLine="77" fill="#F1F1F1" height="179.9063" id="CreateMaintenanceController" rx="2.5" ry="2.5" style="stroke:#181818;stroke-width:0.5;" width="420" x="220" y="21"/><ellipse cx="324.75" cy="37" fill="#ADD1B2" rx="11" ry="11" style="stroke:#181818;stroke-width:1.0;"/><path d="M327.7231,42.6431 Q327.1421,42.9419 326.5029,43.0913 Q325.8638,43.2407 325.1582,43.2407 Q322.6514,43.2407 321.3315,41.5889 Q320.0117,39.937 320.0117,36.8159 Q320.0117,33.6865 321.3315,32.0347 Q322.6514,30.3828 325.1582,30.3828 Q325.8638,30.3828 326.5112,30.5322 Q327.1587,30.6816 327.7231,30.9805 L327.7231,33.7031 Q327.0923,33.1221 326.4988,32.8523 Q325.9053,32.5825 325.2744,32.5825 Q323.9297,32.5825 323.2449,33.6492 Q322.5601,34.7158 322.5601,36.8159 Q322.5601,38.9077 323.2449,39.9744 Q323.9297,41.041 325.2744,41.041 Q325.9053,41.041 326.4988,40.7712 Q327.0923,40.5015 327.7231,39.9204 Z " fill="#000000"/><text fill="#000000" font-family="sans-serif" font-size="14" lengthAdjust="spacing" textLength="202" x="345.25" y="42.291">CreateMaintenanceController</text><line style="stroke:#181818;stroke-width:0.5;" x1="221" x2="639" y1="53" y2="53"/><line style="stroke:#181818;stroke-width:0.5;" x1="221" x2="639" y1="61" y2="61"/><text fill="#000000" font-family="sans-serif" font-size="14" lengthAdjust="spacing" textLength="384" x="226" y="78.5352">+CreateMaintenanceController(organizationRepository)</text><text fill="#000000" font-family="sans-serif" font-size="14" lengthAdjust="spacing" textLength="149" x="226" y="95.0234">+getTaskCategories()</text><text fill="#000000" font-family="sans-serif" font-size="14" lengthAdjust="spacing" textLength="107" x="226" y="111.5117">+createVehicle(</text><text fill="#000000" font-family="sans-serif" font-size="14" font-weight="bold" lengthAdjust="spacing" textLength="71" x="333" y="111.5117">userEmail</text><text fill="#000000" font-family="sans-serif" font-size="14" lengthAdjust="spacing" textLength="226" x="404" y="111.5117">, brand, model, type, tare weight,</text><text fill="#000000" font-family="sans-serif" font-size="14" lengthAdjust="spacing" textLength="266" x="226" y="128">gross weight, current km,register date,</text><text fill="#000000" font-family="sans-serif" font-size="14" lengthAdjust="spacing" textLength="281" x="226" y="144.4883">acquisition date, maintenance frequency,</text><text fill="#000000" font-family="sans-serif" font-size="14" lengthAdjust="spacing" textLength="240" x="226" y="160.9766">plate number, passengers number,</text><text fill="#000000" font-family="sans-serif" font-size="14" lengthAdjust="spacing" textLength="288" x="226" y="177.4648">doors number, fuel type, trailer machines)</text><text fill="#000000" font-family="sans-serif" font-size="14" lengthAdjust="spacing" textLength="194" x="226" y="193.9531">-getEmployeeFromSession()</text></g><g id="elem_GMN11"><path d="M1087,90.65 L1087,131.2711 L1255,131.2711 L1255,100.65 L1245,90.65 L1087,90.65 " fill="#FEFFDD" style="stroke:#181818;stroke-width:0.5;"/><path d="M1245,90.65 L1245,100.65 L1255,100.65 L1245,90.65 " fill="#FEFFDD" style="stroke:#181818;stroke-width:1.0;"/><text fill="#000000" font-family="sans-serif" font-size="13" lengthAdjust="spacing" textLength="147" x="1093" y="108.2184">- userEmail is obtained</text><text fill="#000000" font-family="sans-serif" font-size="13" lengthAdjust="spacing" textLength="137" x="1093" y="123.5289">from the user session</text></g><!--class CreateMaintenanceUI--><g id="elem_CreateMaintenanceUI"><rect codeLine="89" fill="#F1F1F1" height="48" id="CreateMaintenanceUI" rx="2.5" ry="2.5" style="stroke:#181818;stroke-width:0.5;" width="178" x="7" y="86.96"/><ellipse cx="22" cy="102.96" fill="#ADD1B2" rx="11" ry="11" style="stroke:#181818;stroke-width:1.0;"/><path d="M24.9731,108.6031 Q24.3921,108.9019 23.7529,109.0513 Q23.1138,109.2007 22.4082,109.2007 Q19.9014,109.2007 18.5815,107.5489 Q17.2617,105.897 17.2617,102.7759 Q17.2617,99.6465 18.5815,97.9947 Q19.9014,96.3428 22.4082,96.3428 Q23.1138,96.3428 23.7612,96.4922 Q24.4087,96.6416 24.9731,96.9405 L24.9731,99.6631 Q24.3423,99.0821 23.7488,98.8123 Q23.1553,98.5425 22.5244,98.5425 Q21.1797,98.5425 20.4949,99.6092 Q19.8101,100.6758 19.8101,102.7759 Q19.8101,104.8677 20.4949,105.9344 Q21.1797,107.001 22.5244,107.001 Q23.1553,107.001 23.7488,106.7312 Q24.3423,106.4615 24.9731,105.8804 Z " fill="#000000"/><text fill="#000000" font-family="sans-serif" font-size="14" lengthAdjust="spacing" textLength="146" x="36" y="108.251">CreateMaintenanceUI</text><line style="stroke:#181818;stroke-width:0.5;" x1="8" x2="184" y1="118.96" y2="118.96"/><line style="stroke:#181818;stroke-width:0.5;" x1="8" x2="184" y1="126.96" y2="126.96"/></g><!--link CreateMaintenanceController to GMN11--><g id="link_CreateMaintenanceController_GMN11"><path d="M640.2,42.12 C700.61,22.34 750.5,6 750.5,6 C750.5,6 1052.5,6 1052.5,6 C1052.5,6 1070,21 1070,21 C1070,21 1118.01,63.76 1147.83,90.32 " fill="none" id="CreateMaintenanceController-GMN11" style="stroke:#181818;stroke-width:1.0;stroke-dasharray:7.0,7.0;"/></g><!--link Repositories to Repositories--><g id="link_Repositories_Repositories"><path codeLine="92" d="M969.26,88.11 C989.64,90.92 1004,98.54 1004,110.96 C1004,123.38 995.5834,130.1676 975.2034,132.9876 " fill="none" id="Repositories-to-Repositories" style="stroke:#181818;stroke-width:1.0;"/><polygon fill="#181818" points="969.26,133.81,978.7233,136.5387,974.2128,133.1247,977.6268,128.6142,969.26,133.81" style="stroke:#181818;stroke-width:1.0;"/><text fill="#000000" font-family="sans-serif" font-size="13" lengthAdjust="spacing" textLength="53" x="1010" y="116.0284">instance</text></g><!--link ApplicationSession to ApplicationSession--><g id="link_ApplicationSession_ApplicationSession"><path codeLine="93" d="M259.31,303.82 C279.2,304.9 294,309.76 294,318.4 C294,327.04 285.1912,331.5747 265.3012,332.6547 " fill="none" id="ApplicationSession-to-ApplicationSession" style="stroke:#181818;stroke-width:1.0;"/><polygon fill="#181818" points="259.31,332.98,268.5136,336.4861,264.3026,332.7089,268.0799,328.4979,259.31,332.98" style="stroke:#181818;stroke-width:1.0;"/><text fill="#000000" font-family="sans-serif" font-size="13" lengthAdjust="spacing" textLength="53" x="300" y="323.4684">instance</text></g><!--link CreateMaintenanceUI to CreateMaintenanceController--><g id="link_CreateMaintenanceUI_CreateMaintenanceController"><path codeLine="95" d="M185.34,110.96 C198.28,110.96 207.33,110.96 207.33,110.96 C207.33,110.96 206.11,110.96 213.67,110.96 " fill="none" id="CreateMaintenanceUI-to-CreateMaintenanceController" style="stroke:#181818;stroke-width:1.0;stroke-dasharray:7.0,7.0;"/><polygon fill="#181818" points="219.67,110.96,210.67,106.96,214.67,110.96,210.67,114.96,219.67,110.96" style="stroke:#181818;stroke-width:1.0;"/></g><!--link CreateMaintenanceController to Repositories--><g id="link_CreateMaintenanceController_Repositories"><path codeLine="97" d="M640.28,110.96 C678.51,110.96 710.94,110.96 744.73,110.96 " fill="none" id="CreateMaintenanceController-to-Repositories" style="stroke:#181818;stroke-width:1.0;stroke-dasharray:7.0,7.0;"/><polygon fill="#181818" points="750.73,110.96,741.73,106.96,745.73,110.96,741.73,114.96,750.73,110.96" style="stroke:#181818;stroke-width:1.0;"/><text fill="#000000" font-family="sans-serif" font-size="13" lengthAdjust="spacing" textLength="75" x="658" y="104.5284">repositories</text></g><!--link CreateMaintenanceController to VehicleMaintenance--><g id="link_CreateMaintenanceController_VehicleMaintenance"><path codeLine="99" d="M445.63,201.17 C455.35,256.61 466,317.4 466,317.4 C466,317.4 466,317.4 466,1213.78 C466,1213.78 502,1245.02 502,1245.02 C502,1245.02 549.7512,1284.1945 590.8912,1317.9445 " fill="none" id="CreateMaintenanceController-to-VehicleMaintenance" style="stroke:#181818;stroke-width:1.0;stroke-dasharray:7.0,7.0;"/><polygon fill="#181818" points="595.53,1321.75,591.1089,1312.9492,591.6644,1318.5787,586.0348,1319.1343,595.53,1321.75" style="stroke:#181818;stroke-width:1.0;"/></g><!--link CreateMaintenanceController to OrganizationRepository--><g id="link_CreateMaintenanceController_OrganizationRepository"><path codeLine="100" d="M593.66,201.31 C640.43,226.85 679,247.91 679,247.91 C679,247.91 713.1176,264.7286 750.3076,283.0486 " fill="none" id="CreateMaintenanceController-to-OrganizationRepository" style="stroke:#181818;stroke-width:1.0;stroke-dasharray:7.0,7.0;"/><polygon fill="#181818" points="755.69,285.7,749.384,278.1346,751.2047,283.4905,745.8488,285.3112,755.69,285.7" style="stroke:#181818;stroke-width:1.0;"/><text fill="#000000" font-family="sans-serif" font-size="13" lengthAdjust="spacing" textLength="146" x="680" y="244.4784">organizationRepository</text></g><!--link Repositories to OrganizationRepository--><g id="link_Repositories_OrganizationRepository"><path codeLine="102" d="M850.62,160.12 C843.07,198.91 833.8153,246.4103 827.2953,279.9403 " fill="none" id="Repositories-to-OrganizationRepository" style="stroke:#181818;stroke-width:1.0;"/><polygon fill="#181818" points="826.15,285.83,831.7944,277.759,827.1044,280.9219,823.9414,276.232,826.15,285.83" style="stroke:#181818;stroke-width:1.0;"/><text fill="#000000" font-family="sans-serif" font-size="13" lengthAdjust="spacing" textLength="8" x="818.5934" y="275.1672">1</text></g><!--link OrganizationRepository to Organization--><g id="link_OrganizationRepository_Organization"><path codeLine="104" d="M813.7,350.92 C809.26,373.14 804.1852,398.5062 797.9652,429.6462 " fill="none" id="OrganizationRepository-to-Organization" style="stroke:#181818;stroke-width:1.0;"/><polygon fill="#181818" points="796.79,435.53,802.4754,427.4878,797.7694,430.6269,794.6303,425.9208,796.79,435.53" style="stroke:#181818;stroke-width:1.0;"/><text fill="#000000" font-family="sans-serif" font-size="13" lengthAdjust="spacing" textLength="6" x="792.0578" y="425.2577">*</text></g><!--link ApplicationSession to UserSession--><g id="link_ApplicationSession_UserSession"><path codeLine="105" d="M198.25,359.23 C221.14,404.26 255.2316,471.3212 276.2316,512.6412 " fill="none" id="ApplicationSession-to-UserSession" style="stroke:#181818;stroke-width:1.0;"/><polygon fill="#181818" points="278.95,517.99,278.4382,508.1544,276.6846,513.5326,271.3065,511.779,278.95,517.99" style="stroke:#181818;stroke-width:1.0;"/><text fill="#000000" font-family="sans-serif" font-size="13" lengthAdjust="spacing" textLength="75" x="221" y="402.4584">userSession</text><text fill="#000000" font-family="sans-serif" font-size="13" lengthAdjust="spacing" textLength="8" x="267.0027" y="507.6974">1</text></g><!--link CreateMaintenanceController to Organization--><g id="link_CreateMaintenanceController_Organization"><path codeLine="107" d="M480.9,201.1 C521.29,271.83 571,358.89 571,358.89 C571,358.89 604.9668,390.7921 648.3168,431.5121 " fill="none" id="CreateMaintenanceController-to-Organization" style="stroke:#181818;stroke-width:1.0;stroke-dasharray:7.0,7.0;"/><polygon fill="#181818" points="652.69,435.62,648.8688,426.5427,649.0456,432.1967,643.3916,432.3736,652.69,435.62" style="stroke:#181818;stroke-width:1.0;"/><text fill="#000000" font-family="sans-serif" font-size="13" lengthAdjust="spacing" textLength="79" x="572" y="323.4684">organization</text><text fill="#000000" font-family="sans-serif" font-size="13" lengthAdjust="spacing" textLength="8" x="636.2707" y="424.9713">1</text></g><!--link CreateMaintenanceController to ApplicationSession--><g id="link_CreateMaintenanceController_ApplicationSession"><path codeLine="108" d="M320.57,201.17 C287.89,227.81 258.3502,251.8885 231.6502,273.6585 " fill="none" id="CreateMaintenanceController-to-ApplicationSession" style="stroke:#181818;stroke-width:1.0;stroke-dasharray:7.0,7.0;"/><polygon fill="#181818" points="227,277.45,236.503,274.8628,230.8751,274.2904,231.4476,268.6626,227,277.45" style="stroke:#181818;stroke-width:1.0;"/></g><!--link CreateMaintenanceController to UserSession--><g id="link_CreateMaintenanceController_UserSession"><path codeLine="109" d="M404.37,201.1 C384.03,271.83 359,358.89 359,358.89 C359,358.89 325.6593,458.2319 307.4793,512.3919 " fill="none" id="CreateMaintenanceController-to-UserSession" style="stroke:#181818;stroke-width:1.0;stroke-dasharray:7.0,7.0;"/><polygon fill="#181818" points="305.57,518.08,312.2261,510.8207,307.1611,513.3399,304.6419,508.275,305.57,518.08" style="stroke:#181818;stroke-width:1.0;"/></g><!--link Vehicle to VehicleMaintenance--><g id="link_Vehicle_VehicleMaintenance"><path codeLine="110" d="M809.32,1103.71 C797.21,1177.08 786,1245.02 786,1245.02 C786,1245.02 738.2488,1284.1945 697.1088,1317.9445 " fill="none" id="Vehicle-to-VehicleMaintenance" style="stroke:#181818;stroke-width:1.0;"/><polygon fill="#181818" points="692.47,1321.75,701.9652,1319.1343,696.3356,1318.5787,696.8911,1312.9492,692.47,1321.75" style="stroke:#181818;stroke-width:1.0;"/><text fill="#000000" font-family="sans-serif" font-size="13" lengthAdjust="spacing" textLength="29" x="797" y="1217.8484">have</text><text fill="#000000" font-family="sans-serif" font-size="13" lengthAdjust="spacing" textLength="8" x="799.8991" y="1124.2293">1</text><text fill="#000000" font-family="sans-serif" font-size="13" lengthAdjust="spacing" textLength="6" x="694.001" y="1311.3513">*</text></g><!--link Employee to VehicleMaintenance--><g id="link_Employee_VehicleMaintenance"><path codeLine="111" d="M644,1245.47 C644,1267.77 644,1291.78 644,1315.69 " fill="none" id="Employee-to-VehicleMaintenance" style="stroke:#181818;stroke-width:1.0;"/><polygon fill="#181818" points="644,1321.69,648,1312.69,644,1316.69,640,1312.69,644,1321.69" style="stroke:#181818;stroke-width:1.0;"/><text fill="#000000" font-family="sans-serif" font-size="13" lengthAdjust="spacing" textLength="48" x="645" y="1288.5884">register</text><text fill="#000000" font-family="sans-serif" font-size="13" lengthAdjust="spacing" textLength="8" x="635.2625" y="1265.4763">1</text><text fill="#000000" font-family="sans-serif" font-size="13" lengthAdjust="spacing" textLength="6" x="637.5031" y="1311.2814">*</text></g><!--link Organization to Vehicle--><g id="link_Organization_Vehicle"><path codeLine="112" d="M794.03,665.7 C798.28,689.93 801.8313,710.1606 806.4013,736.1606 " fill="none" id="Organization-to-Vehicle" style="stroke:#181818;stroke-width:1.0;"/><polygon fill="#181818" points="807.44,742.07,809.8216,732.5134,806.5744,737.1455,801.9424,733.8983,807.44,742.07" style="stroke:#181818;stroke-width:1.0;"/><text fill="#000000" font-family="sans-serif" font-size="13" lengthAdjust="spacing" textLength="48" x="802" y="708.8284">register</text><text fill="#000000" font-family="sans-serif" font-size="13" lengthAdjust="spacing" textLength="8" x="787.0068" y="685.7502">1</text><text fill="#000000" font-family="sans-serif" font-size="13" lengthAdjust="spacing" textLength="6" x="799.982" y="731.6998">*</text></g><!--link Vehicle to Employee--><g id="link_Vehicle_Employee"><path codeLine="113" d="M717.17,1103.76 C697.3,1133.09 682.2458,1155.323 668.8558,1175.083 " fill="none" id="Vehicle-to-Employee" style="stroke:#181818;stroke-width:1.0;"/><polygon fill="#181818" points="665.49,1180.05,673.8501,1174.8433,668.2948,1175.9108,667.2274,1170.3556,665.49,1180.05" style="stroke:#181818;stroke-width:1.0;"/><text fill="#000000" font-family="sans-serif" font-size="13" lengthAdjust="spacing" textLength="60" x="698" y="1147.1084">createdBy</text></g><!--link Organization to Employee--><g id="link_Organization_Employee"><path codeLine="115" d="M679.58,665.52 C645.84,706.25 616,742.26 616,742.26 C616,742.26 616,1103.54 616,1103.54 C616,1103.54 626.0565,1142.4214 634.3265,1174.3714 " fill="none" id="Organization-to-Employee" style="stroke:#181818;stroke-width:1.0;"/><polygon fill="#181818" points="635.83,1180.18,637.4471,1170.4648,634.5771,1175.3395,629.7024,1172.4695,635.83,1180.18" style="stroke:#181818;stroke-width:1.0;"/><text fill="#000000" font-family="sans-serif" font-size="13" lengthAdjust="spacing" textLength="53" x="617" y="927.9684">employs</text><text fill="#000000" font-family="sans-serif" font-size="13" lengthAdjust="spacing" textLength="6" x="627.6309" y="1169.8834">*</text></g><!--SRC=[tLPDRzim3BtxLn2xD7MpORlcKA3jEgmOkW5hkrrwKMp64IfBhYItI8Vzzr6ovSYEajoNaqC-KkJZXtHYdhXic6Orr4ggOgrLZM1rYzbMqx3YYLLuPpS2GMDXcQn4331hLgfNBYjOCM5YZU0IxQP1Q9JOk3_PIKAfj5LPP5K8Pio5jPelMuitXP9t_0tXOvQT25nPi0eqhzOMIkx2uKfccRU1YwOHl61ET8V6ECsV3EXt1iQIk80AxOsaRrdWxBHNaUogrHgbxOr8ypUuV32efxx8m8clQyP5ZBsk6w4sYD01tqEUCoWKIR4cxqm36ei6M9UQCdc-DVw5Qrw8hUqTWOZIfMQozAAHk5ObYbsnupEItaYB5MgWe_4tEiuIoaehO_PgYuuP_5P7oi_CkbQeEAMZtP-fZXNFBJVS5MAY3dw9E_gIhX1VD3wtA8lDRZwD8EllRRr4dV3H46yewSliXPHA9RIzzrMBudxCsALI0fca6Q3QehvbnPhQr6G3v2mKQkOhC-ygCVVCpptHyEgvdCEZzDGE_tiguQcU1-wWfFmSCYAibqK4mIemvA2U4v0-ftd4GH0zIf_qW71PXl2whCXtbzRfJllTHgTEEh54KsZUTFCseY8ocaMeoFiFNJ79t_naHjFHUvQiHXg5YVI5sQvmkwfNN19N2PjchMH2Z6vIITpBMLac8d_fHASzw8K9xYfn37a6J6x2v7zbfjiA_iG0YBEVvJaj8DHSRzS0ZGklMPu7VA4nVN3N6NqVVQldyNo4k6avXMWkDwDWqkNuYOqYCfNUGBJVOiJbaDx8tU1jyC1fjuNYni9uqswtBon6eFJPs-ZYHNlb2OgOkLBIQYLSRuSa3c1cAdb25EKzCqzNP5wDunyLXYhPXbiWp-VmN-o3dHxwGa-2qRKebTlz_lvLgqCizxu6Ze0RK4jBKEmkj1Mv1hj63m7JNx8eIt1dxAtrmmtLc08PjTtxyt4RBe3tZPRjFWeSEY6DRBBKgH_E3wQR7UhA3plnwRZt3zkIyUuoE6goPyWNaEx-AQ74qRjFx_PuoR8zthrPFZPBLg1t7pslAB8sUcmTpMyQtIIpe_Q9n-8na_Wn6DvhBeoGTU8INS2QlM0sF0sFmiCg636SCeknGUGWmr6BVb-LbvDw3PuYAFfFa_q3]--></g></svg>