<?xml version="1.0" encoding="us-ascii" standalone="no"?><svg xmlns="http://www.w3.org/2000/svg" xmlns:xlink="http://www.w3.org/1999/xlink" contentStyleType="text/css" height="1308px" preserveAspectRatio="none" style="width:2341px;height:1308px;background:#FFFFFF;" version="1.1" viewBox="0 0 2341 1308" width="2341px" zoomAndPan="magnify"><defs/><g><rect fill="#FFFFFF" height="1085.2891" style="stroke:#181818;stroke-width:1.0;" width="10" x="81.5" y="107.9766"/><rect fill="#FFFFFF" height="386.5254" style="stroke:#181818;stroke-width:1.0;" width="10" x="426.5" y="245.8398"/><rect fill="#FFFFFF" height="29.3105" style="stroke:#181818;stroke-width:1.0;" width="10" x="426.5" y="661.6758"/><rect fill="#FFFFFF" height="71.6211" style="stroke:#181818;stroke-width:1.0;" width="10" x="426.5" y="720.2969"/><rect fill="#FFFFFF" height="372.0371" style="stroke:#181818;stroke-width:1.0;" width="10" x="426.5" y="821.2285"/><rect fill="#FFFFFF" height="438.9688" style="stroke:#181818;stroke-width:1.0;" width="10" x="836.5" y="316.6387"/><rect fill="#FFFFFF" height="313.416" style="stroke:#181818;stroke-width:1.0;" width="10" x="836.5" y="850.5391"/><rect fill="#FFFFFF" height="29.3105" style="stroke:#181818;stroke-width:1.0;" width="10" x="1042" y="345.9492"/><rect fill="#FFFFFF" height="95.2422" style="stroke:#181818;stroke-width:1.0;" width="10" x="1165.5" y="404.5703"/><rect fill="#FFFFFF" height="29.3105" style="stroke:#181818;stroke-width:1.0;" width="10" x="1165.5" y="529.123"/><rect fill="#FFFFFF" height="137.5527" style="stroke:#181818;stroke-width:1.0;" width="10" x="1165.5" y="997.0918"/><rect fill="#FFFFFF" height="87.9316" style="stroke:#181818;stroke-width:1.0;" width="10" x="1924.5" y="879.8496"/><rect fill="#FFFFFF" height="29.3105" style="stroke:#181818;stroke-width:1.0;" width="10" x="2296.5" y="909.1602"/><line style="stroke:#181818;stroke-width:0.5;stroke-dasharray:5.0,5.0;" x1="86" x2="86" y1="97.9766" y2="1211.2656"/><line style="stroke:#181818;stroke-width:0.5;stroke-dasharray:5.0,5.0;" x1="431.5" x2="431.5" y1="97.9766" y2="1211.2656"/><line style="stroke:#181818;stroke-width:0.5;stroke-dasharray:5.0,5.0;" x1="841.5" x2="841.5" y1="284.584" y2="1211.2656"/><line style="stroke:#181818;stroke-width:0.5;stroke-dasharray:5.0,5.0;" x1="1046.5" x2="1046.5" y1="97.9766" y2="1211.2656"/><line style="stroke:#181818;stroke-width:0.5;stroke-dasharray:5.0,5.0;" x1="1170" x2="1170" y1="97.9766" y2="1211.2656"/><line style="stroke:#181818;stroke-width:0.5;stroke-dasharray:5.0,5.0;" x1="1520.5" x2="1520.5" y1="97.9766" y2="1211.2656"/><line style="stroke:#181818;stroke-width:0.5;stroke-dasharray:5.0,5.0;" x1="1676.5" x2="1676.5" y1="97.9766" y2="1211.2656"/><line style="stroke:#181818;stroke-width:0.5;stroke-dasharray:5.0,5.0;" x1="1807.5" x2="1807.5" y1="97.9766" y2="1211.2656"/><line style="stroke:#181818;stroke-width:0.5;stroke-dasharray:5.0,5.0;" x1="1929.5" x2="1929.5" y1="97.9766" y2="1211.2656"/><line style="stroke:#181818;stroke-width:0.5;stroke-dasharray:5.0,5.0;" x1="2301" x2="2301" y1="97.9766" y2="1211.2656"/><text fill="#000000" font-family="sans-serif" font-size="14" lengthAdjust="spacing" textLength="157" x="5" y="78.5352">Vehicle and Equipment</text><text fill="#000000" font-family="sans-serif" font-size="14" lengthAdjust="spacing" textLength="97" x="35" y="95.0234">Fleet Manager</text><ellipse cx="86.5" cy="13.5" fill="#E3E3E3" rx="8" ry="8" style="stroke:#181818;stroke-width:0.5;"/><path d="M86.5,21.5 L86.5,48.5 M73.5,29.5 L99.5,29.5 M86.5,48.5 L73.5,63.5 M86.5,48.5 L99.5,63.5 " fill="none" style="stroke:#181818;stroke-width:0.5;"/><text fill="#000000" font-family="sans-serif" font-size="14" lengthAdjust="spacing" textLength="157" x="5" y="1223.8008">Vehicle and Equipment</text><text fill="#000000" font-family="sans-serif" font-size="14" lengthAdjust="spacing" textLength="97" x="35" y="1240.2891">Fleet Manager</text><ellipse cx="86.5" cy="1251.7422" fill="#E3E3E3" rx="8" ry="8" style="stroke:#181818;stroke-width:0.5;"/><path d="M86.5,1259.7422 L86.5,1286.7422 M73.5,1267.7422 L99.5,1267.7422 M86.5,1286.7422 L73.5,1301.7422 M86.5,1286.7422 L99.5,1301.7422 " fill="none" style="stroke:#181818;stroke-width:0.5;"/><rect fill="#E3E3E3" height="30.4883" rx="2.5" ry="2.5" style="stroke:#181818;stroke-width:0.5;" width="228" x="317.5" y="66.4883"/><text fill="#000000" font-family="sans-serif" font-size="14" lengthAdjust="spacing" textLength="214" x="324.5" y="87.0234">: RegisterVehicleMaintenanceUI</text><rect fill="#E3E3E3" height="30.4883" rx="2.5" ry="2.5" style="stroke:#181818;stroke-width:0.5;" width="228" x="317.5" y="1210.2656"/><text fill="#000000" font-family="sans-serif" font-size="14" lengthAdjust="spacing" textLength="214" x="324.5" y="1230.8008">: RegisterVehicleMaintenanceUI</text><rect fill="#E3E3E3" height="30.4883" rx="2.5" ry="2.5" style="stroke:#181818;stroke-width:0.5;" width="284" x="699.5" y="1210.2656"/><text fill="#000000" font-family="sans-serif" font-size="14" lengthAdjust="spacing" textLength="270" x="706.5" y="1230.8008">: RegisterVehicleMaintenanceController</text><rect fill="#E3E3E3" height="30.4883" rx="2.5" ry="2.5" style="stroke:#181818;stroke-width:0.5;" width="107" x="993.5" y="66.4883"/><text fill="#000000" font-family="sans-serif" font-size="14" lengthAdjust="spacing" textLength="93" x="1000.5" y="87.0234">: Repositories</text><rect fill="#E3E3E3" height="30.4883" rx="2.5" ry="2.5" style="stroke:#181818;stroke-width:0.5;" width="107" x="993.5" y="1210.2656"/><text fill="#000000" font-family="sans-serif" font-size="14" lengthAdjust="spacing" textLength="93" x="1000.5" y="1230.8008">: Repositories</text><rect fill="#E3E3E3" height="46.9766" rx="2.5" ry="2.5" style="stroke:#181818;stroke-width:0.5;" width="107" x="1117" y="50"/><text fill="#000000" font-family="sans-serif" font-size="14" lengthAdjust="spacing" textLength="82" x="1129.5" y="70.5352">repositories</text><text fill="#000000" font-family="sans-serif" font-size="14" lengthAdjust="spacing" textLength="93" x="1124" y="87.0234">: Repositories</text><rect fill="#E3E3E3" height="46.9766" rx="2.5" ry="2.5" style="stroke:#181818;stroke-width:0.5;" width="107" x="1117" y="1210.2656"/><text fill="#000000" font-family="sans-serif" font-size="14" lengthAdjust="spacing" textLength="82" x="1129.5" y="1230.8008">repositories</text><text fill="#000000" font-family="sans-serif" font-size="14" lengthAdjust="spacing" textLength="93" x="1124" y="1247.2891">: Repositories</text><rect fill="#E3E3E3" height="46.9766" rx="2.5" ry="2.5" style="stroke:#181818;stroke-width:0.5;" width="192" x="1424.5" y="50"/><text fill="#000000" font-family="sans-serif" font-size="14" lengthAdjust="spacing" textLength="172" x="1434.5" y="70.5352">authenticationRepository</text><text fill="#000000" font-family="sans-serif" font-size="14" lengthAdjust="spacing" textLength="178" x="1431.5" y="87.0234">:AuthenticationRepository</text><rect fill="#E3E3E3" height="46.9766" rx="2.5" ry="2.5" style="stroke:#181818;stroke-width:0.5;" width="192" x="1424.5" y="1210.2656"/><text fill="#000000" font-family="sans-serif" font-size="14" lengthAdjust="spacing" textLength="172" x="1434.5" y="1230.8008">authenticationRepository</text><text fill="#000000" font-family="sans-serif" font-size="14" lengthAdjust="spacing" textLength="178" x="1431.5" y="1247.2891">:AuthenticationRepository</text><rect fill="#E3E3E3" height="46.9766" rx="2.5" ry="2.5" style="stroke:#181818;stroke-width:0.5;" width="101" x="1626.5" y="50"/><text fill="#000000" font-family="sans-serif" font-size="14" lengthAdjust="spacing" textLength="82" x="1636" y="70.5352">userSession</text><text fill="#000000" font-family="sans-serif" font-size="14" lengthAdjust="spacing" textLength="87" x="1633.5" y="87.0234">:UserSession</text><rect fill="#E3E3E3" height="46.9766" rx="2.5" ry="2.5" style="stroke:#181818;stroke-width:0.5;" width="101" x="1626.5" y="1210.2656"/><text fill="#000000" font-family="sans-serif" font-size="14" lengthAdjust="spacing" textLength="82" x="1636" y="1230.8008">userSession</text><text fill="#000000" font-family="sans-serif" font-size="14" lengthAdjust="spacing" textLength="87" x="1633.5" y="1247.2891">:UserSession</text><rect fill="#E3E3E3" height="46.9766" rx="2.5" ry="2.5" style="stroke:#181818;stroke-width:0.5;" width="140" x="1737.5" y="50"/><text fill="#000000" font-family="sans-serif" font-size="14" lengthAdjust="spacing" textLength="120" x="1747.5" y="70.5352">vehicleRepository</text><text fill="#000000" font-family="sans-serif" font-size="14" lengthAdjust="spacing" textLength="126" x="1744.5" y="87.0234">:VehicleRepository</text><rect fill="#E3E3E3" height="46.9766" rx="2.5" ry="2.5" style="stroke:#181818;stroke-width:0.5;" width="140" x="1737.5" y="1210.2656"/><text fill="#000000" font-family="sans-serif" font-size="14" lengthAdjust="spacing" textLength="120" x="1747.5" y="1230.8008">vehicleRepository</text><text fill="#000000" font-family="sans-serif" font-size="14" lengthAdjust="spacing" textLength="126" x="1744.5" y="1247.2891">:VehicleRepository</text><rect fill="#E3E3E3" height="46.9766" rx="2.5" ry="2.5" style="stroke:#181818;stroke-width:0.5;" width="84" x="1887.5" y="50"/><text fill="#000000" font-family="sans-serif" font-size="14" lengthAdjust="spacing" textLength="66" x="1896.5" y="70.5352">employee</text><text fill="#000000" font-family="sans-serif" font-size="14" lengthAdjust="spacing" textLength="70" x="1894.5" y="87.0234">:Employee</text><rect fill="#E3E3E3" height="46.9766" rx="2.5" ry="2.5" style="stroke:#181818;stroke-width:0.5;" width="84" x="1887.5" y="1210.2656"/><text fill="#000000" font-family="sans-serif" font-size="14" lengthAdjust="spacing" textLength="66" x="1896.5" y="1230.8008">employee</text><text fill="#000000" font-family="sans-serif" font-size="14" lengthAdjust="spacing" textLength="70" x="1894.5" y="1247.2891">:Employee</text><rect fill="#E3E3E3" height="46.9766" rx="2.5" ry="2.5" style="stroke:#181818;stroke-width:0.5;" width="67" x="2268" y="50"/><text fill="#000000" font-family="sans-serif" font-size="14" lengthAdjust="spacing" textLength="47" x="2278" y="70.5352">vehicle</text><text fill="#000000" font-family="sans-serif" font-size="14" lengthAdjust="spacing" textLength="53" x="2275" y="87.0234">:Vehicle</text><rect fill="#E3E3E3" height="46.9766" rx="2.5" ry="2.5" style="stroke:#181818;stroke-width:0.5;" width="67" x="2268" y="1210.2656"/><text fill="#000000" font-family="sans-serif" font-size="14" lengthAdjust="spacing" textLength="47" x="2278" y="1230.8008">vehicle</text><text fill="#000000" font-family="sans-serif" font-size="14" lengthAdjust="spacing" textLength="53" x="2275" y="1247.2891">:Vehicle</text><rect fill="#FFFFFF" height="1085.2891" style="stroke:#181818;stroke-width:1.0;" width="10" x="81.5" y="107.9766"/><rect fill="#FFFFFF" height="386.5254" style="stroke:#181818;stroke-width:1.0;" width="10" x="426.5" y="245.8398"/><rect fill="#FFFFFF" height="29.3105" style="stroke:#181818;stroke-width:1.0;" width="10" x="426.5" y="661.6758"/><rect fill="#FFFFFF" height="71.6211" style="stroke:#181818;stroke-width:1.0;" width="10" x="426.5" y="720.2969"/><rect fill="#FFFFFF" height="372.0371" style="stroke:#181818;stroke-width:1.0;" width="10" x="426.5" y="821.2285"/><rect fill="#FFFFFF" height="438.9688" style="stroke:#181818;stroke-width:1.0;" width="10" x="836.5" y="316.6387"/><rect fill="#FFFFFF" height="313.416" style="stroke:#181818;stroke-width:1.0;" width="10" x="836.5" y="850.5391"/><rect fill="#FFFFFF" height="29.3105" style="stroke:#181818;stroke-width:1.0;" width="10" x="1042" y="345.9492"/><rect fill="#FFFFFF" height="95.2422" style="stroke:#181818;stroke-width:1.0;" width="10" x="1165.5" y="404.5703"/><rect fill="#FFFFFF" height="29.3105" style="stroke:#181818;stroke-width:1.0;" width="10" x="1165.5" y="529.123"/><rect fill="#FFFFFF" height="137.5527" style="stroke:#181818;stroke-width:1.0;" width="10" x="1165.5" y="997.0918"/><rect fill="#FFFFFF" height="87.9316" style="stroke:#181818;stroke-width:1.0;" width="10" x="1924.5" y="879.8496"/><rect fill="#FFFFFF" height="29.3105" style="stroke:#181818;stroke-width:1.0;" width="10" x="2296.5" y="909.1602"/><path d="M96,112.9766 L96,167.9766 L389,167.9766 L389,122.9766 L379,112.9766 L96,112.9766 " fill="#FAFAFA" style="stroke:#181818;stroke-width:0.5;"/><path d="M379,112.9766 L379,122.9766 L389,122.9766 L379,112.9766 " fill="#FAFAFA" style="stroke:#181818;stroke-width:0.5;"/><text fill="#000000" font-family="sans-serif" font-size="13" lengthAdjust="spacing" textLength="272" x="102" y="130.5449">- The user is already logged in at this step.</text><text fill="#000000" font-family="sans-serif" font-size="13" lengthAdjust="spacing" textLength="264" x="102" y="145.8555">- Authentication sequence is explained in</text><text fill="#000000" font-family="sans-serif" font-size="13" lengthAdjust="spacing" textLength="125" x="102" y="161.166">a sequence excerpt.</text><path d="M1052,178.9082 L1052,218.9082 L1159,218.9082 L1159,188.9082 L1149,178.9082 L1052,178.9082 " fill="#FAFAFA" style="stroke:#181818;stroke-width:0.5;"/><path d="M1149,178.9082 L1149,188.9082 L1159,188.9082 L1149,178.9082 " fill="#FAFAFA" style="stroke:#181818;stroke-width:0.5;"/><text fill="#000000" font-family="sans-serif" font-size="13" lengthAdjust="spacing" textLength="86" x="1058" y="196.4766">- Singleton is</text><text fill="#000000" font-family="sans-serif" font-size="13" lengthAdjust="spacing" textLength="38" x="1058" y="211.7871">in use</text><polygon fill="#181818" points="414.5,241.8398,424.5,245.8398,414.5,249.8398,418.5,245.8398" style="stroke:#181818;stroke-width:1.0;"/><line style="stroke:#181818;stroke-width:1.0;" x1="91.5" x2="420.5" y1="245.8398" y2="245.8398"/><text fill="#000000" font-family="sans-serif" font-size="13" font-weight="bold" lengthAdjust="spacing" textLength="9" x="98.5" y="241.0977">1</text><text fill="#000000" font-family="sans-serif" font-size="13" lengthAdjust="spacing" textLength="260" x="111.5" y="241.0977">asks to create a new vehicle maintenance</text><polygon fill="#181818" points="687.5,271.1504,697.5,275.1504,687.5,279.1504,691.5,275.1504" style="stroke:#181818;stroke-width:1.0;"/><line style="stroke:#181818;stroke-width:1.0;" x1="436.5" x2="693.5" y1="275.1504" y2="275.1504"/><text fill="#000000" font-family="sans-serif" font-size="13" font-weight="bold" lengthAdjust="spacing" textLength="9" x="443.5" y="270.4082">2</text><text fill="#000000" font-family="sans-serif" font-size="13" lengthAdjust="spacing" textLength="38" x="456.5" y="270.4082">create</text><rect fill="#E3E3E3" height="30.4883" rx="2.5" ry="2.5" style="stroke:#181818;stroke-width:0.5;" width="284" x="699.5" y="253.8398"/><text fill="#000000" font-family="sans-serif" font-size="14" lengthAdjust="spacing" textLength="270" x="706.5" y="274.375">: RegisterVehicleMaintenanceController</text><polygon fill="#181818" points="824.5,312.6387,834.5,316.6387,824.5,320.6387,828.5,316.6387" style="stroke:#181818;stroke-width:1.0;"/><line style="stroke:#181818;stroke-width:1.0;" x1="436.5" x2="830.5" y1="316.6387" y2="316.6387"/><text fill="#000000" font-family="sans-serif" font-size="13" font-weight="bold" lengthAdjust="spacing" textLength="9" x="443.5" y="311.8965">3</text><text fill="#000000" font-family="sans-serif" font-size="13" lengthAdjust="spacing" textLength="162" x="456.5" y="311.8965">createVehicleMaintenance</text><polygon fill="#181818" points="1030,341.9492,1040,345.9492,1030,349.9492,1034,345.9492" style="stroke:#181818;stroke-width:1.0;"/><line style="stroke:#181818;stroke-width:1.0;" x1="846.5" x2="1036" y1="345.9492" y2="345.9492"/><text fill="#000000" font-family="sans-serif" font-size="13" font-weight="bold" lengthAdjust="spacing" textLength="9" x="853.5" y="341.207">4</text><text fill="#000000" font-family="sans-serif" font-size="13" lengthAdjust="spacing" textLength="81" x="866.5" y="341.207">getInstance()</text><polygon fill="#181818" points="857.5,371.2598,847.5,375.2598,857.5,379.2598,853.5,375.2598" style="stroke:#181818;stroke-width:1.0;"/><line style="stroke:#181818;stroke-width:1.0;stroke-dasharray:2.0,2.0;" x1="851.5" x2="1046" y1="375.2598" y2="375.2598"/><text fill="#000000" font-family="sans-serif" font-size="13" font-weight="bold" lengthAdjust="spacing" textLength="9" x="863.5" y="370.5176">5</text><text fill="#000000" font-family="sans-serif" font-size="13" lengthAdjust="spacing" textLength="75" x="876.5" y="370.5176">repositories</text><polygon fill="#181818" points="1153.5,400.5703,1163.5,404.5703,1153.5,408.5703,1157.5,404.5703" style="stroke:#181818;stroke-width:1.0;"/><line style="stroke:#181818;stroke-width:1.0;" x1="846.5" x2="1159.5" y1="404.5703" y2="404.5703"/><text fill="#000000" font-family="sans-serif" font-size="13" font-weight="bold" lengthAdjust="spacing" textLength="9" x="853.5" y="399.8281">6</text><text fill="#000000" font-family="sans-serif" font-size="13" lengthAdjust="spacing" textLength="168" x="866.5" y="399.8281">getEmployeeFromSession()</text><path d="M851,417.5703 L851,472.5703 L1043,472.5703 L1043,427.5703 L1033,417.5703 L851,417.5703 " fill="#FAFAFA" style="stroke:#181818;stroke-width:0.5;"/><path d="M1033,417.5703 L1033,427.5703 L1043,427.5703 L1033,417.5703 " fill="#FAFAFA" style="stroke:#181818;stroke-width:0.5;"/><text fill="#000000" font-family="sans-serif" font-size="13" lengthAdjust="spacing" textLength="171" x="857" y="435.1387">- This method is explained</text><text fill="#000000" font-family="sans-serif" font-size="13" lengthAdjust="spacing" textLength="137" x="857" y="450.4492">in detail in an excerpt</text><text fill="#000000" font-family="sans-serif" font-size="13" lengthAdjust="spacing" textLength="118" x="857" y="465.7598">sequence diagram.</text><polygon fill="#181818" points="857.5,495.8125,847.5,499.8125,857.5,503.8125,853.5,499.8125" style="stroke:#181818;stroke-width:1.0;"/><line style="stroke:#181818;stroke-width:1.0;stroke-dasharray:2.0,2.0;" x1="851.5" x2="1169.5" y1="499.8125" y2="499.8125"/><text fill="#000000" font-family="sans-serif" font-size="13" font-weight="bold" lengthAdjust="spacing" textLength="9" x="863.5" y="495.0703">7</text><text fill="#000000" font-family="sans-serif" font-size="13" lengthAdjust="spacing" textLength="60" x="876.5" y="495.0703">employee</text><polygon fill="#181818" points="1153.5,525.123,1163.5,529.123,1153.5,533.123,1157.5,529.123" style="stroke:#181818;stroke-width:1.0;"/><line style="stroke:#181818;stroke-width:1.0;" x1="846.5" x2="1159.5" y1="529.123" y2="529.123"/><text fill="#000000" font-family="sans-serif" font-size="13" font-weight="bold" lengthAdjust="spacing" textLength="9" x="853.5" y="524.3809">8</text><text fill="#000000" font-family="sans-serif" font-size="13" lengthAdjust="spacing" textLength="159" x="866.5" y="524.3809">getMaintenanceVehicles()</text><polygon fill="#181818" points="857.5,554.4336,847.5,558.4336,857.5,562.4336,853.5,558.4336" style="stroke:#181818;stroke-width:1.0;"/><line style="stroke:#181818;stroke-width:1.0;stroke-dasharray:2.0,2.0;" x1="851.5" x2="1169.5" y1="558.4336" y2="558.4336"/><text fill="#000000" font-family="sans-serif" font-size="13" font-weight="bold" lengthAdjust="spacing" textLength="9" x="863.5" y="553.6914">9</text><text fill="#000000" font-family="sans-serif" font-size="13" lengthAdjust="spacing" textLength="155" x="876.5" y="553.6914">maintenanceVehiclesList</text><polygon fill="#181818" points="447.5,583.7441,437.5,587.7441,447.5,591.7441,443.5,587.7441" style="stroke:#181818;stroke-width:1.0;"/><line style="stroke:#181818;stroke-width:1.0;stroke-dasharray:2.0,2.0;" x1="441.5" x2="835.5" y1="587.7441" y2="587.7441"/><text fill="#000000" font-family="sans-serif" font-size="13" font-weight="bold" lengthAdjust="spacing" textLength="18" x="453.5" y="583.002">10</text><text fill="#000000" font-family="sans-serif" font-size="13" lengthAdjust="spacing" textLength="155" x="475.5" y="583.002">maintenanceVehiclesList</text><polygon fill="#181818" points="102.5,628.3652,92.5,632.3652,102.5,636.3652,98.5,632.3652" style="stroke:#181818;stroke-width:1.0;"/><line style="stroke:#181818;stroke-width:1.0;stroke-dasharray:2.0,2.0;" x1="96.5" x2="430.5" y1="632.3652" y2="632.3652"/><text fill="#000000" font-family="sans-serif" font-size="13" font-weight="bold" lengthAdjust="spacing" textLength="18" x="108.5" y="619.9678">11</text><text fill="#000000" font-family="sans-serif" font-size="13" lengthAdjust="spacing" textLength="196" x="130.5" y="612.3125">shows vehicle maintenance list</text><text fill="#000000" font-family="sans-serif" font-size="13" lengthAdjust="spacing" textLength="141" x="134.5" y="627.623">and asks to select one</text><polygon fill="#181818" points="414.5,657.6758,424.5,661.6758,414.5,665.6758,418.5,661.6758" style="stroke:#181818;stroke-width:1.0;"/><line style="stroke:#181818;stroke-width:1.0;" x1="91.5" x2="420.5" y1="661.6758" y2="661.6758"/><text fill="#000000" font-family="sans-serif" font-size="13" font-weight="bold" lengthAdjust="spacing" textLength="18" x="98.5" y="656.9336">12</text><text fill="#000000" font-family="sans-serif" font-size="13" lengthAdjust="spacing" textLength="103" x="120.5" y="656.9336">selects a vehicle</text><polygon fill="#181818" points="102.5,686.9863,92.5,690.9863,102.5,694.9863,98.5,690.9863" style="stroke:#181818;stroke-width:1.0;"/><line style="stroke:#181818;stroke-width:1.0;stroke-dasharray:2.0,2.0;" x1="96.5" x2="430.5" y1="690.9863" y2="690.9863"/><text fill="#000000" font-family="sans-serif" font-size="13" font-weight="bold" lengthAdjust="spacing" textLength="18" x="108.5" y="686.2441">13</text><text fill="#000000" font-family="sans-serif" font-size="13" lengthAdjust="spacing" textLength="277" x="130.5" y="686.2441">requestData (plateNumber, date, currentKm)</text><polygon fill="#181818" points="414.5,716.2969,424.5,720.2969,414.5,724.2969,418.5,720.2969" style="stroke:#181818;stroke-width:1.0;"/><line style="stroke:#181818;stroke-width:1.0;" x1="91.5" x2="420.5" y1="720.2969" y2="720.2969"/><text fill="#000000" font-family="sans-serif" font-size="13" font-weight="bold" lengthAdjust="spacing" textLength="18" x="98.5" y="715.5547">14</text><text fill="#000000" font-family="sans-serif" font-size="13" lengthAdjust="spacing" textLength="131" x="120.5" y="715.5547">types requested data</text><line style="stroke:#181818;stroke-width:1.0;" x1="436.5" x2="478.5" y1="754.6074" y2="754.6074"/><line style="stroke:#181818;stroke-width:1.0;" x1="478.5" x2="478.5" y1="754.6074" y2="767.6074"/><line style="stroke:#181818;stroke-width:1.0;" x1="431.5" x2="478.5" y1="767.6074" y2="767.6074"/><polygon fill="#181818" points="441.5,763.6074,431.5,767.6074,441.5,771.6074,437.5,767.6074" style="stroke:#181818;stroke-width:1.0;"/><text fill="#000000" font-family="sans-serif" font-size="13" font-weight="bold" lengthAdjust="spacing" textLength="18" x="443.5" y="749.8652">15</text><text fill="#000000" font-family="sans-serif" font-size="13" lengthAdjust="spacing" textLength="320" x="465.5" y="749.8652">validateVehicleData(plateNumber, date, currentKm)</text><polygon fill="#181818" points="102.5,787.918,92.5,791.918,102.5,795.918,98.5,791.918" style="stroke:#181818;stroke-width:1.0;"/><line style="stroke:#181818;stroke-width:1.0;stroke-dasharray:2.0,2.0;" x1="96.5" x2="430.5" y1="791.918" y2="791.918"/><text fill="#000000" font-family="sans-serif" font-size="13" font-weight="bold" lengthAdjust="spacing" textLength="18" x="108.5" y="787.1758">16</text><text fill="#000000" font-family="sans-serif" font-size="13" lengthAdjust="spacing" textLength="289" x="130.5" y="787.1758">shows vehicle data and requests confirmation</text><polygon fill="#181818" points="414.5,817.2285,424.5,821.2285,414.5,825.2285,418.5,821.2285" style="stroke:#181818;stroke-width:1.0;"/><line style="stroke:#181818;stroke-width:1.0;" x1="91.5" x2="420.5" y1="821.2285" y2="821.2285"/><text fill="#000000" font-family="sans-serif" font-size="13" font-weight="bold" lengthAdjust="spacing" textLength="18" x="98.5" y="816.4863">17</text><text fill="#000000" font-family="sans-serif" font-size="13" lengthAdjust="spacing" textLength="87" x="120.5" y="816.4863">confirms data</text><polygon fill="#181818" points="824.5,846.5391,834.5,850.5391,824.5,854.5391,828.5,850.5391" style="stroke:#181818;stroke-width:1.0;"/><line style="stroke:#181818;stroke-width:1.0;" x1="436.5" x2="830.5" y1="850.5391" y2="850.5391"/><text fill="#000000" font-family="sans-serif" font-size="13" font-weight="bold" lengthAdjust="spacing" textLength="18" x="443.5" y="845.7969">18</text><text fill="#000000" font-family="sans-serif" font-size="13" lengthAdjust="spacing" textLength="359" x="465.5" y="845.7969">createVehicleMaintenance(plateNumber, date, currentKm)</text><polygon fill="#181818" points="1912.5,875.8496,1922.5,879.8496,1912.5,883.8496,1916.5,879.8496" style="stroke:#181818;stroke-width:1.0;"/><line style="stroke:#181818;stroke-width:1.0;" x1="846.5" x2="1918.5" y1="879.8496" y2="879.8496"/><text fill="#000000" font-family="sans-serif" font-size="13" font-weight="bold" lengthAdjust="spacing" textLength="18" x="853.5" y="875.1074">19</text><text fill="#000000" font-family="sans-serif" font-size="13" lengthAdjust="spacing" textLength="359" x="875.5" y="875.1074">createVehicleMaintenance(plateNumber, date, currentKm)</text><polygon fill="#181818" points="2284.5,905.1602,2294.5,909.1602,2284.5,913.1602,2288.5,909.1602" style="stroke:#181818;stroke-width:1.0;"/><line style="stroke:#181818;stroke-width:1.0;" x1="1934.5" x2="2290.5" y1="909.1602" y2="909.1602"/><text fill="#000000" font-family="sans-serif" font-size="13" font-weight="bold" lengthAdjust="spacing" textLength="18" x="1941.5" y="904.418">20</text><text fill="#000000" font-family="sans-serif" font-size="13" lengthAdjust="spacing" textLength="321" x="1963.5" y="904.418">VehicleMaintenance(plateNumber, date, currentKm)</text><polygon fill="#181818" points="1945.5,934.4707,1935.5,938.4707,1945.5,942.4707,1941.5,938.4707" style="stroke:#181818;stroke-width:1.0;"/><line style="stroke:#181818;stroke-width:1.0;stroke-dasharray:2.0,2.0;" x1="1939.5" x2="2300.5" y1="938.4707" y2="938.4707"/><text fill="#000000" font-family="sans-serif" font-size="13" font-weight="bold" lengthAdjust="spacing" textLength="18" x="1951.5" y="933.7285">21</text><text fill="#000000" font-family="sans-serif" font-size="13" lengthAdjust="spacing" textLength="149" x="1973.5" y="933.7285">newVehicleMaintenance</text><polygon fill="#181818" points="857.5,963.7813,847.5,967.7813,857.5,971.7813,853.5,967.7813" style="stroke:#181818;stroke-width:1.0;"/><line style="stroke:#181818;stroke-width:1.0;stroke-dasharray:2.0,2.0;" x1="851.5" x2="1928.5" y1="967.7813" y2="967.7813"/><text fill="#000000" font-family="sans-serif" font-size="13" font-weight="bold" lengthAdjust="spacing" textLength="18" x="863.5" y="963.0391">22</text><text fill="#000000" font-family="sans-serif" font-size="13" lengthAdjust="spacing" textLength="149" x="885.5" y="963.0391">newVehicleMaintenance</text><polygon fill="#181818" points="1153.5,993.0918,1163.5,997.0918,1153.5,1001.0918,1157.5,997.0918" style="stroke:#181818;stroke-width:1.0;"/><line style="stroke:#181818;stroke-width:1.0;" x1="846.5" x2="1159.5" y1="997.0918" y2="997.0918"/><text fill="#000000" font-family="sans-serif" font-size="13" font-weight="bold" lengthAdjust="spacing" textLength="18" x="853.5" y="992.3496">23</text><text fill="#000000" font-family="sans-serif" font-size="13" lengthAdjust="spacing" textLength="278" x="875.5" y="992.3496">addVehicleMaintenance(vehicleMaintenance)</text><line style="stroke:#181818;stroke-width:1.0;" x1="1175.5" x2="1217.5" y1="1026.4023" y2="1026.4023"/><line style="stroke:#181818;stroke-width:1.0;" x1="1217.5" x2="1217.5" y1="1026.4023" y2="1039.4023"/><line style="stroke:#181818;stroke-width:1.0;" x1="1176.5" x2="1217.5" y1="1039.4023" y2="1039.4023"/><polygon fill="#181818" points="1186.5,1035.4023,1176.5,1039.4023,1186.5,1043.4023,1182.5,1039.4023" style="stroke:#181818;stroke-width:1.0;"/><text fill="#000000" font-family="sans-serif" font-size="13" font-weight="bold" lengthAdjust="spacing" textLength="18" x="1182.5" y="1021.6602">24</text><text fill="#000000" font-family="sans-serif" font-size="13" lengthAdjust="spacing" textLength="304" x="1204.5" y="1021.6602">validateVehicleMaintenance(vehicleMaintenance)</text><path d="M1180,1052.4023 L1180,1107.4023 L1372,1107.4023 L1372,1062.4023 L1362,1052.4023 L1180,1052.4023 " fill="#FAFAFA" style="stroke:#181818;stroke-width:0.5;"/><path d="M1362,1052.4023 L1362,1062.4023 L1372,1062.4023 L1362,1052.4023 " fill="#FAFAFA" style="stroke:#181818;stroke-width:0.5;"/><text fill="#000000" font-family="sans-serif" font-size="13" lengthAdjust="spacing" textLength="171" x="1186" y="1069.9707">- This method is explained</text><text fill="#000000" font-family="sans-serif" font-size="13" lengthAdjust="spacing" textLength="137" x="1186" y="1085.2813">in detail in an excerpt</text><text fill="#000000" font-family="sans-serif" font-size="13" lengthAdjust="spacing" textLength="118" x="1186" y="1100.5918">sequence diagram.</text><polygon fill="#181818" points="857.5,1130.6445,847.5,1134.6445,857.5,1138.6445,853.5,1134.6445" style="stroke:#181818;stroke-width:1.0;"/><line style="stroke:#181818;stroke-width:1.0;stroke-dasharray:2.0,2.0;" x1="851.5" x2="1169.5" y1="1134.6445" y2="1134.6445"/><text fill="#000000" font-family="sans-serif" font-size="13" font-weight="bold" lengthAdjust="spacing" textLength="18" x="863.5" y="1129.9023">25</text><text fill="#000000" font-family="sans-serif" font-size="13" lengthAdjust="spacing" textLength="149" x="885.5" y="1129.9023">newVehicleMaintenance</text><polygon fill="#181818" points="447.5,1159.9551,437.5,1163.9551,447.5,1167.9551,443.5,1163.9551" style="stroke:#181818;stroke-width:1.0;"/><line style="stroke:#181818;stroke-width:1.0;stroke-dasharray:2.0,2.0;" x1="441.5" x2="840.5" y1="1163.9551" y2="1163.9551"/><text fill="#000000" font-family="sans-serif" font-size="13" font-weight="bold" lengthAdjust="spacing" textLength="18" x="453.5" y="1159.2129">26</text><text fill="#000000" font-family="sans-serif" font-size="13" lengthAdjust="spacing" textLength="149" x="475.5" y="1159.2129">newVehicleMaintenance</text><polygon fill="#181818" points="97.5,1189.2656,87.5,1193.2656,97.5,1197.2656,93.5,1193.2656" style="stroke:#181818;stroke-width:1.0;"/><line style="stroke:#181818;stroke-width:1.0;" x1="91.5" x2="430.5" y1="1193.2656" y2="1193.2656"/><text fill="#000000" font-family="sans-serif" font-size="13" font-weight="bold" lengthAdjust="spacing" textLength="18" x="103.5" y="1188.5234">27</text><text fill="#000000" font-family="sans-serif" font-size="13" lengthAdjust="spacing" textLength="170" x="125.5" y="1188.5234">displays operation success</text><!--SRC=[hLRRJkCm47tFLunuuIBW0tXO2R45geMoQWfFICWaGsAHsC5sWFxzZftxZROiVchZcJFtCzQlN6HCiHHIAMGGAvaY69MZf-kRZ0MlB4BVh1C4XO5X8ahQ0ZfceVpW8e8NbcZqF9ORAVBq6PNdxSSyH7YHqZpBJxeAZ5Imzu0n3mYEYH1cRpdFKXJcKLmcY0PkcI1xQW-OXeVBMu-i61xmZ0a3UsUmn8XhWwh4k6LS61HC17W_Tphty-rLBgGmIYP9QUvYjRmPAcTIStARetP2Tykh9t- -kBgPhUuMNMdLadqK4xhpXRywNrpCkggKj9YIm0Dck1IruffWpYUk7EBv_UhwQJdxUzU5opKg7xKc1KAuR_uLAVANJ_xCz-Vz0DwB37NCF_I_5PMPNSylRcREz4H8c6Q9N2CIngpywLHl5rVBKREDiRO9p_E4DDHxF8eDo1VN543d15OnWeqKk0QMA6JX6X8PHHW25y0Cc9XkgFJPQQdHpILeVCkH-i02u6UMK6SuNIVDccly351bvjH3wbZhJT-dRbCKjdnk9uLcWT3T9_A9l6rXs7dWxuo0R4nEnXxw0oU_g97XZFBmgi5822WwacCWy0FAV47QT7AZNMFI843hx9SGhidR5sI7hDdFHqTaiH3p9aHgWU4mTLLgDvozpfKz3eimEuaZy0ZDN6XZyGuEXseTv6xIHsMxy2TD4ErH7Qg6kAsHTXpL61HXL3r_IQnQ3jzKHDrU6XIeVMpJKxEcQ68PTjfsKeNQBaJ3UEA6GbJDF2bVTtt8MKGCVpegsNJnnXhLz31PeZfphGfLzB6nEjFmqyLfjMtPo7ghTljUAEdGsWrjf6z6LaHL4SH6R3kx96n9vOoMjVpGO_m12Iaz2hUIAyxHcD2-1obQDMXvIFmoIbc56Z5oPMSBRbAsvpGf4JqxC39F3upSGCWC6t1H7K-fzvk4u806mU32lJoEhHuUGv0hHNp_9ptSAGIppb1NuBGHd1EZKOpGf4DuPmaF6vgq3cxhNy_78Nz-KL7hgAjXdT10YXUkKhVlDkQWduTIMU-MW0rxOfSyRBb5x9FYXonshBgdok3QMRC5A1uePFW7JTQldhv4PUsaYPVU0flMSA_Oa-X5J4tnTeSUpzK41RCm7CdP- -3JLvdwce-xN3nme3UVEtinVFxLhlp7ojvsLMzUqTFhUMf9xLxnRLVK1BAtaUmAEYbuBkIQihRM83DKvUiz3m9wM1NoFKPhzpozhVy1]--></g></svg>